<svg width="16" height="16" viewBox="0 0 16 16" fill="none" xmlns="http://www.w3.org/2000/svg">
<g clip-path="url(#clip0_5_1522)">
<path d="M14.5 6.5C14.499 5.57205 14.1299 4.68238 13.4738 4.02622C12.8176 3.37006 11.928 3.00099 11 3H8.5C8.5 2.60218 8.65804 2.22064 8.93934 1.93934C9.22064 1.65804 9.60218 1.5 10 1.5C10.1326 1.5 10.2598 1.44732 10.3536 1.35355C10.4473 1.25979 10.5 1.13261 10.5 1C10.5 0.867392 10.4473 0.740215 10.3536 0.646447C10.2598 0.552678 10.1326 0.5 10 0.5C9.33696 0.5 8.70107 0.763392 8.23223 1.23223C7.76339 1.70107 7.5 2.33696 7.5 3H5C4.07205 3.00099 3.18238 3.37006 2.52622 4.02622C1.87006 4.68238 1.50099 5.57205 1.5 6.5C1.50018 6.67536 1.54647 6.8476 1.63423 6.99942C1.72199 7.15124 1.84813 7.27732 2 7.365V8C2 10.2206 4.07 11.8825 5.73375 13.2181C6.47875 13.8169 7.5 14.6362 7.5 15C7.5 15.1326 7.55268 15.2598 7.64645 15.3536C7.74021 15.4473 7.86739 15.5 8 15.5C8.13261 15.5 8.25979 15.4473 8.35355 15.3536C8.44732 15.2598 8.5 15.1326 8.5 15C8.5 14.6362 9.52125 13.8169 10.2662 13.2181C11.93 11.8825 14 10.2206 14 8V7.365C14.1519 7.27732 14.278 7.15124 14.3658 6.99942C14.4535 6.8476 14.4998 6.67536 14.5 6.5ZM9.64062 12.4375C8.97687 12.97 8.39062 13.4375 8 13.8981C7.60938 13.4406 7.02313 12.97 6.35938 12.4375C4.8625 11.2369 3 9.74125 3 8V7.5H13V8C13 9.74125 11.1375 11.2369 9.64062 12.4375Z" fill="black"/>
</g>
<defs>
<clipPath id="clip0_5_1522">
<rect width="16" height="16" fill="white"/>
</clipPath>
</defs>
</svg>
