<svg width="16" height="16" viewBox="0 0 16 16" fill="none" xmlns="http://www.w3.org/2000/svg">
<g clip-path="url(#clip0_5_1525)">
<path d="M10 7C10 7.29667 9.91203 7.58668 9.7472 7.83336C9.58238 8.08003 9.34811 8.27229 9.07403 8.38582C8.79994 8.49935 8.49834 8.52906 8.20736 8.47118C7.91639 8.4133 7.64912 8.27044 7.43934 8.06066C7.22956 7.85088 7.0867 7.58361 7.02882 7.29264C6.97094 7.00166 7.00065 6.70006 7.11418 6.42597C7.22771 6.15189 7.41997 5.91762 7.66664 5.7528C7.91332 5.58797 8.20333 5.5 8.5 5.5C8.89782 5.5 9.27936 5.65804 9.56066 5.93934C9.84196 6.22064 10 6.60218 10 7ZM14 2.5V13.5C14 13.7652 13.8946 14.0196 13.7071 14.2071C13.5196 14.3946 13.2652 14.5 13 14.5H4C3.73478 14.5 3.48043 14.3946 3.29289 14.2071C3.10536 14.0196 3 13.7652 3 13.5V12H2C1.86739 12 1.74021 11.9473 1.64645 11.8536C1.55268 11.7598 1.5 11.6326 1.5 11.5C1.5 11.3674 1.55268 11.2402 1.64645 11.1464C1.74021 11.0527 1.86739 11 2 11H3V8.5H2C1.86739 8.5 1.74021 8.44732 1.64645 8.35355C1.55268 8.25979 1.5 8.13261 1.5 8C1.5 7.86739 1.55268 7.74021 1.64645 7.64645C1.74021 7.55268 1.86739 7.5 2 7.5H3V5H2C1.86739 5 1.74021 4.94732 1.64645 4.85355C1.55268 4.75979 1.5 4.63261 1.5 4.5C1.5 4.36739 1.55268 4.24021 1.64645 4.14645C1.74021 4.05268 1.86739 4 2 4H3V2.5C3 2.23478 3.10536 1.98043 3.29289 1.79289C3.48043 1.60536 3.73478 1.5 4 1.5H13C13.2652 1.5 13.5196 1.60536 13.7071 1.79289C13.8946 1.98043 14 2.23478 14 2.5ZM11.9 10.2C11.4573 9.60641 10.8669 9.13905 10.1875 8.84437C10.5598 8.50446 10.8206 8.05993 10.9358 7.56912C11.0509 7.07832 11.015 6.56416 10.8327 6.09414C10.6504 5.62411 10.3303 5.22019 9.91433 4.93536C9.49837 4.65053 9.00601 4.49812 8.50187 4.49812C7.99774 4.49812 7.50538 4.65053 7.08942 4.93536C6.67346 5.22019 6.35332 5.62411 6.17103 6.09414C5.98874 6.56416 5.95281 7.07832 6.06796 7.56912C6.1831 8.05993 6.44394 8.50446 6.81625 8.84437C6.13552 9.13849 5.54378 9.6059 5.1 10.2C5.0606 10.2525 5.03194 10.3123 5.01564 10.3759C4.99935 10.4395 4.99574 10.5057 5.00503 10.5707C5.01431 10.6357 5.03631 10.6982 5.06976 10.7547C5.10322 10.8112 5.14747 10.8606 5.2 10.9C5.25253 10.9394 5.3123 10.9681 5.37591 10.9844C5.43952 11.0007 5.50571 11.0043 5.57071 10.995C5.63571 10.9857 5.69825 10.9637 5.75475 10.9302C5.81125 10.8968 5.8606 10.8525 5.9 10.8C6.20273 10.3964 6.59528 10.0688 7.04656 9.84311C7.49784 9.61747 7.99545 9.5 8.5 9.5C9.00455 9.5 9.50216 9.61747 9.95344 9.84311C10.4047 10.0688 10.7973 10.3964 11.1 10.8C11.1796 10.9061 11.298 10.9762 11.4293 10.995C11.5606 11.0137 11.6939 10.9796 11.8 10.9C11.9061 10.8204 11.9762 10.702 11.995 10.5707C12.0137 10.4394 11.9796 10.3061 11.9 10.2Z" fill="black"/>
</g>
<defs>
<clipPath id="clip0_5_1525">
<rect width="16" height="16" fill="white"/>
</clipPath>
</defs>
</svg>
