<svg width="16" height="16" viewBox="0 0 16 16" fill="none" xmlns="http://www.w3.org/2000/svg">
<g clip-path="url(#clip0_5_1658)">
<path d="M13 2H3C2.73478 2 2.48043 2.10536 2.29289 2.29289C2.10536 2.48043 2 2.73478 2 3V13C2 13.2652 2.10536 13.5196 2.29289 13.7071C2.48043 13.8946 2.73478 14 3 14H13C13.2652 14 13.5196 13.8946 13.7071 13.7071C13.8946 13.5196 14 13.2652 14 13V3C14 2.73478 13.8946 2.48043 13.7071 2.29289C13.5196 2.10536 13.2652 2 13 2ZM11.5 3H13V5.5H11.5V3ZM11.5 6.5H13V9.5H11.5V6.5ZM9.125 10.9844C9.06139 11.0007 8.99518 11.0044 8.93016 10.9951C8.86514 10.9859 8.80258 10.9639 8.74605 10.9305C8.68952 10.8971 8.64013 10.8528 8.6007 10.8003C8.56127 10.7478 8.53257 10.688 8.51625 10.6244C8.35187 9.98313 7.7 9.49938 7.00063 9.49938C6.30125 9.49938 5.65 9.98313 5.485 10.6244C5.46859 10.688 5.4398 10.7477 5.40029 10.8002C5.36079 10.8527 5.31133 10.8969 5.25474 10.9303C5.19816 10.9636 5.13555 10.9855 5.0705 10.9947C5.00545 11.0039 4.93923 11.0002 4.87563 10.9838C4.81202 10.9673 4.75226 10.9386 4.69978 10.899C4.64729 10.8595 4.6031 10.8101 4.56973 10.7535C4.53636 10.6969 4.51446 10.6343 4.50529 10.5693C4.49611 10.5042 4.49984 10.438 4.51625 10.3744C4.6785 9.77047 5.06203 9.24972 5.59062 8.91562C5.30973 8.6364 5.11807 8.28005 5.03993 7.89177C4.96179 7.50348 5.0007 7.10074 5.15173 6.73459C5.30275 6.36845 5.55909 6.05539 5.88825 5.8351C6.2174 5.61481 6.60456 5.49721 7.00063 5.49721C7.39669 5.49721 7.78385 5.61481 8.113 5.8351C8.44216 6.05539 8.6985 6.36845 8.84952 6.73459C9.00055 7.10074 9.03946 7.50348 8.96132 7.89177C8.88318 8.28005 8.69152 8.6364 8.41063 8.91562C8.93945 9.24962 9.32287 9.77075 9.48438 10.375C9.50082 10.4386 9.50457 10.5048 9.49541 10.5699C9.48625 10.635 9.46436 10.6976 9.43098 10.7542C9.3976 10.8108 9.3534 10.8602 9.3009 10.8997C9.2484 10.9392 9.18863 10.968 9.125 10.9844ZM13 13H11.5V10.5H13V13ZM8 7.5C8 7.69778 7.94135 7.89112 7.83147 8.05557C7.72159 8.22002 7.56541 8.34819 7.38268 8.42388C7.19996 8.49957 6.99889 8.51937 6.80491 8.48079C6.61093 8.4422 6.43275 8.34696 6.29289 8.20711C6.15304 8.06725 6.0578 7.88907 6.01921 7.69509C5.98063 7.50111 6.00043 7.30004 6.07612 7.11732C6.15181 6.93459 6.27998 6.77841 6.44443 6.66853C6.60888 6.55865 6.80222 6.5 7 6.5C7.26522 6.5 7.51957 6.60536 7.70711 6.79289C7.89464 6.98043 8 7.23478 8 7.5Z" fill="black"/>
</g>
<defs>
<clipPath id="clip0_5_1658">
<rect width="16" height="16" fill="white"/>
</clipPath>
</defs>
</svg>
