<svg width="16" height="16" viewBox="0 0 16 16" fill="none" xmlns="http://www.w3.org/2000/svg">
<g clip-path="url(#clip0_5_1696)">
<path d="M14.3193 4.42625C14.2271 4.29456 14.1044 4.18706 13.9618 4.11286C13.8192 4.03866 13.6607 3.99994 13.5 4H8.49995V2H9.49995C9.63256 2 9.75974 1.94732 9.85351 1.85355C9.94728 1.75979 9.99995 1.63261 9.99995 1.5C9.99995 1.36739 9.94728 1.24021 9.85351 1.14645C9.75974 1.05268 9.63256 1 9.49995 1H6.49995C6.36734 1 6.24017 1.05268 6.1464 1.14645C6.05263 1.24021 5.99995 1.36739 5.99995 1.5C5.99995 1.63261 6.05263 1.75979 6.1464 1.85355C6.24017 1.94732 6.36734 2 6.49995 2H7.49995V4H2.49995C2.3394 4.00036 2.18128 4.03938 2.03899 4.11375C1.8967 4.18812 1.7744 4.29566 1.68245 4.42728C1.59049 4.5589 1.53158 4.71072 1.51069 4.86992C1.48981 5.02911 1.50756 5.19099 1.56245 5.34188L3.19933 9.84188C3.26936 10.0344 3.39684 10.2008 3.56451 10.3185C3.73219 10.4362 3.93197 10.4995 4.13683 10.5H11.8637C12.0686 10.4995 12.2683 10.4362 12.436 10.3185C12.6037 10.2008 12.7312 10.0344 12.8012 9.84188L14.4381 5.34188C14.4933 5.19095 14.5114 5.02892 14.4907 4.86954C14.47 4.71015 14.4112 4.55809 14.3193 4.42625ZM6.40745 9.49187C6.37777 9.49734 6.34764 9.50006 6.31745 9.5C6.20047 9.49984 6.08724 9.45866 5.99748 9.38363C5.90772 9.3086 5.84711 9.20448 5.8262 9.08937L5.18745 5.58938C5.16375 5.45884 5.19287 5.32423 5.26841 5.21517C5.34396 5.1061 5.45973 5.03152 5.59027 5.00781C5.7208 4.98411 5.85541 5.01323 5.96447 5.08877C6.07354 5.16432 6.14812 5.28009 6.17183 5.41062L6.80808 8.91063C6.8318 9.0408 6.80296 9.17508 6.72787 9.28403C6.65277 9.39298 6.53755 9.46772 6.40745 9.49187ZM10.8125 5.58938L10.1756 9.08937C10.1547 9.20448 10.0941 9.3086 10.0043 9.38363C9.91454 9.45866 9.80131 9.49984 9.68433 9.5C9.65414 9.50006 9.62401 9.49734 9.59433 9.49187C9.46388 9.46815 9.3482 9.39359 9.27272 9.28459C9.19724 9.17559 9.16814 9.04108 9.19183 8.91063L9.82808 5.41062C9.85178 5.28009 9.92637 5.16432 10.0354 5.08877C10.1445 5.01323 10.2791 4.98411 10.4096 5.00781C10.5402 5.03152 10.656 5.1061 10.7315 5.21517C10.807 5.32423 10.8362 5.45884 10.8125 5.58938ZM9.99995 11.75V14.5C9.99995 14.6326 9.94728 14.7598 9.85351 14.8536C9.75974 14.9473 9.63256 15 9.49995 15H6.49995C6.36734 15 6.24017 14.9473 6.1464 14.8536C6.05263 14.7598 5.99995 14.6326 5.99995 14.5V11.75C5.99995 11.6837 6.02629 11.6201 6.07318 11.5732C6.12006 11.5263 6.18365 11.5 6.24995 11.5H9.74995C9.81626 11.5 9.87985 11.5263 9.92673 11.5732C9.97361 11.6201 9.99995 11.6837 9.99995 11.75Z" fill="black"/>
</g>
<defs>
<clipPath id="clip0_5_1696">
<rect width="16" height="16" fill="white"/>
</clipPath>
</defs>
</svg>
