<svg width="16" height="16" viewBox="0 0 16 16" fill="none" xmlns="http://www.w3.org/2000/svg">
<g clip-path="url(#clip0_5_1684)">
<path d="M15.5001 8.5V10C15.5001 10.1326 15.4474 10.2598 15.3536 10.3536C15.2599 10.4473 15.1327 10.5 15.0001 10.5H3.81695C3.27868 10.5025 2.75417 10.33 2.32236 10.0087C1.89054 9.68734 1.57477 9.23443 1.42257 8.71813L0.543196 5.7875C0.498395 5.63825 0.489094 5.4806 0.516035 5.32711C0.542976 5.17363 0.605413 5.02857 0.698366 4.9035C0.791319 4.77843 0.912214 4.67681 1.05141 4.60675C1.1906 4.5367 1.34424 4.50014 1.50007 4.5H2.00007C2.1325 4.50006 2.2595 4.55266 2.3532 4.64625L3.70757 6H5.1132L4.5507 4.31625C4.50057 4.16587 4.4869 4.00573 4.51083 3.84904C4.53476 3.69234 4.5956 3.54358 4.68833 3.41502C4.78105 3.28645 4.90302 3.18178 5.04415 3.10962C5.18529 3.03746 5.34156 2.99989 5.50007 3H6.00007C6.06575 2.99995 6.1308 3.01284 6.1915 3.03793C6.25219 3.06303 6.30735 3.09983 6.35382 3.14625L9.20757 6H13.0001C13.6631 6 14.299 6.26339 14.7678 6.73223C15.2367 7.20107 15.5001 7.83696 15.5001 8.5ZM13.0001 11.5C12.8023 11.5 12.6089 11.5586 12.4445 11.6685C12.2801 11.7784 12.1519 11.9346 12.0762 12.1173C12.0005 12.3 11.9807 12.5011 12.0193 12.6951C12.0579 12.8891 12.1531 13.0673 12.293 13.2071C12.4328 13.347 12.611 13.4422 12.805 13.4808C12.999 13.5194 13.2 13.4996 13.3828 13.4239C13.5655 13.3482 13.7217 13.22 13.8315 13.0556C13.9414 12.8911 14.0001 12.6978 14.0001 12.5C14.0001 12.2348 13.8947 11.9804 13.7072 11.7929C13.5196 11.6054 13.2653 11.5 13.0001 11.5ZM7.00007 11.5C6.80229 11.5 6.60895 11.5586 6.4445 11.6685C6.28005 11.7784 6.15188 11.9346 6.07619 12.1173C6.0005 12.3 5.9807 12.5011 6.01929 12.6951C6.05787 12.8891 6.15311 13.0673 6.29296 13.2071C6.43282 13.347 6.611 13.4422 6.80498 13.4808C6.99896 13.5194 7.20003 13.4996 7.38275 13.4239C7.56548 13.3482 7.72166 13.22 7.83154 13.0556C7.94142 12.8911 8.00007 12.6978 8.00007 12.5C8.00007 12.2348 7.89471 11.9804 7.70718 11.7929C7.51964 11.6054 7.26529 11.5 7.00007 11.5Z" fill="black"/>
</g>
<defs>
<clipPath id="clip0_5_1684">
<rect width="16" height="16" fill="white"/>
</clipPath>
</defs>
</svg>
