<svg width="16" height="16" viewBox="0 0 16 16" fill="none" xmlns="http://www.w3.org/2000/svg">
<g clip-path="url(#clip0_5_1589)">
<path d="M10.9999 13.5C10.9999 13.6326 10.9472 13.7598 10.8534 13.8536C10.7597 13.9473 10.6325 14 10.4999 14H1.49987C1.36726 14 1.24008 13.9473 1.14632 13.8536C1.05255 13.7598 0.99987 13.6326 0.99987 13.5C0.99987 13.3674 1.05255 13.2402 1.14632 13.1464C1.24008 13.0527 1.36726 13 1.49987 13H10.4999C10.6325 13 10.7597 13.0527 10.8534 13.1464C10.9472 13.2402 10.9999 13.3674 10.9999 13.5ZM15.3942 5.4225L14.2292 3.92937L14.2217 3.92C13.845 3.45595 13.3138 3.14299 12.7254 3.03833C12.1369 2.93367 11.5304 3.0443 11.0167 3.35L7.79362 5.27375L4.42237 4.03375C4.3097 3.99174 4.18566 3.99174 4.07299 4.03375L3.62487 4.20437L3.60487 4.2125C3.45156 4.27831 3.31715 4.38142 3.21389 4.51246C3.11063 4.6435 3.04179 4.79829 3.01365 4.96273C2.9855 5.12718 2.99895 5.29605 3.05276 5.45397C3.10658 5.61188 3.19904 5.75383 3.32174 5.86687L4.68737 7.19125L3.42674 7.95375L1.66049 7.3575C1.53549 7.31538 1.3989 7.32436 1.28049 7.3825L1.09299 7.47437C0.942985 7.54141 0.811804 7.64437 0.711051 7.77416C0.610298 7.90395 0.543078 8.05657 0.515335 8.21851C0.487592 8.38046 0.500181 8.54675 0.551988 8.70267C0.603796 8.8586 0.693226 8.99936 0.81237 9.1125L3.06237 11.3169L3.06987 11.3244C3.53076 11.76 4.14069 12.003 4.77487 12.0037C5.22007 12.003 5.65708 11.884 6.04112 11.6587L15.2542 6.15875C15.315 6.12242 15.3674 6.07359 15.4079 6.01549C15.4484 5.95739 15.4761 5.89135 15.4892 5.82174C15.5022 5.75213 15.5004 5.68055 15.4837 5.61172C15.467 5.54289 15.4359 5.47839 15.3924 5.4225H15.3942Z" fill="black"/>
</g>
<defs>
<clipPath id="clip0_5_1589">
<rect width="16" height="16" fill="white"/>
</clipPath>
</defs>
</svg>
