<svg width="16" height="16" viewBox="0 0 16 16" fill="none" xmlns="http://www.w3.org/2000/svg">
<g clip-path="url(#clip0_5_818)">
<path d="M14.0001 13.5C14.0001 13.6326 13.9474 13.7598 13.8536 13.8536C13.7599 13.9473 13.6327 14 13.5001 14H4.50007C4.36746 14 4.24029 13.9473 4.14652 13.8536C4.05275 13.7598 4.00007 13.6326 4.00007 13.5C4.00007 13.3674 4.05275 13.2402 4.14652 13.1464C4.24029 13.0527 4.36746 13 4.50007 13H13.5001C13.6327 13 13.7599 13.0527 13.8536 13.1464C13.9474 13.2402 14.0001 13.3674 14.0001 13.5ZM13.0001 6H9.20757L6.35382 3.14625C6.30735 3.09983 6.25219 3.06303 6.1915 3.03793C6.1308 3.01284 6.06575 2.99995 6.00007 3H5.50007C5.34166 3.00009 5.18554 3.03781 5.04457 3.11005C4.90359 3.18229 4.7818 3.28699 4.68921 3.41552C4.59663 3.54406 4.5359 3.69275 4.51204 3.84935C4.48817 4.00594 4.50185 4.16597 4.55195 4.31625L5.11445 6H3.70757L2.35382 4.64625C2.30735 4.59983 2.25219 4.56303 2.1915 4.53793C2.1308 4.51284 2.06575 4.49995 2.00007 4.5H1.50007C1.34424 4.50014 1.1906 4.5367 1.05141 4.60675C0.912214 4.67681 0.791319 4.77843 0.698366 4.9035C0.605413 5.02857 0.542976 5.17363 0.516035 5.32711C0.489094 5.4806 0.498395 5.63825 0.543196 5.7875L1.42257 8.71813C1.57477 9.23443 1.89054 9.68734 2.32236 10.0087C2.75417 10.33 3.27868 10.5025 3.81695 10.5H15.0001C15.1327 10.5 15.2599 10.4473 15.3536 10.3536C15.4474 10.2598 15.5001 10.1326 15.5001 10V8.5C15.5001 7.83696 15.2367 7.20107 14.7678 6.73223C14.299 6.26339 13.6631 6 13.0001 6Z" fill="black"/>
</g>
<defs>
<clipPath id="clip0_5_818">
<rect width="16" height="16" fill="white"/>
</clipPath>
</defs>
</svg>
