<svg width="16" height="16" viewBox="0 0 16 16" fill="none" xmlns="http://www.w3.org/2000/svg">
<g clip-path="url(#clip0_5_816)">
<path d="M16 13.5C16 13.6326 15.9473 13.7598 15.8536 13.8535C15.7598 13.9473 15.6326 14 15.5 14H6.5C6.36739 14 6.24021 13.9473 6.14645 13.8535C6.05268 13.7598 6 13.6326 6 13.5C6 13.3674 6.05268 13.2402 6.14645 13.1464C6.24021 13.0527 6.36739 13 6.5 13H15.5C15.6326 13 15.7598 13.0527 15.8536 13.1464C15.9473 13.2402 16 13.3674 16 13.5ZM14.5 12C14.6326 12 14.7598 11.9473 14.8536 11.8535C14.9473 11.7598 15 11.6326 15 11.5V9.26999C14.9987 8.72403 14.8193 8.1934 14.489 7.75867C14.1587 7.32394 13.6956 7.00885 13.17 6.86124L9.3675 5.79874L7.96125 2.44686C7.93371 2.38108 7.89241 2.32194 7.84012 2.27343C7.78784 2.22493 7.72579 2.18816 7.65812 2.16561L7.31625 2.05186C7.16597 2.00177 7.00594 1.98809 6.84934 2.01195C6.69275 2.03582 6.54406 2.09654 6.41552 2.18913C6.28699 2.28171 6.18229 2.40351 6.11005 2.54449C6.03781 2.68546 6.00009 2.84158 6 2.99999V4.83686L4.13312 4.30499L3.47 2.46936C3.44429 2.39831 3.40282 2.33402 3.34869 2.2813C3.29457 2.22858 3.2292 2.18881 3.1575 2.16499L2.81562 2.05124C2.66533 2.00125 2.50532 1.98767 2.34875 2.01163C2.19219 2.03558 2.04355 2.09638 1.91509 2.18903C1.78662 2.28167 1.682 2.4035 1.60983 2.54449C1.53766 2.68548 1.50002 2.8416 1.5 2.99999V6.48249C1.5012 7.02769 1.68006 7.55765 2.00949 7.99208C2.33892 8.42651 2.80096 8.74173 3.32562 8.88999L14.365 11.9812C14.4089 11.9936 14.4544 11.9999 14.5 12Z" fill="black"/>
</g>
<defs>
<clipPath id="clip0_5_816">
<rect width="16" height="16" fill="white"/>
</clipPath>
</defs>
</svg>
