<svg width="16" height="16" viewBox="0 0 16 16" fill="none" xmlns="http://www.w3.org/2000/svg">
<g clip-path="url(#clip0_5_811)">
<path d="M10.8844 13.18C10.9452 13.253 10.984 13.3419 10.9961 13.4361C11.0082 13.5304 10.9933 13.6262 10.9529 13.7122C10.9126 13.7983 10.8486 13.871 10.7683 13.922C10.6881 13.973 10.595 14 10.5 14H5.5C5.40496 14 5.31188 13.973 5.23166 13.922C5.15145 13.871 5.08742 13.7983 5.04708 13.7122C5.00675 13.6262 4.99177 13.5304 5.00391 13.4361C5.01605 13.3419 5.0548 13.253 5.11562 13.18L7.61562 10.18C7.66255 10.1237 7.72128 10.0784 7.78764 10.0473C7.85401 10.0163 7.9264 10.0001 7.99969 10.0001C8.07297 10.0001 8.14536 10.0163 8.21173 10.0473C8.2781 10.0784 8.33683 10.1237 8.38375 10.18L10.8844 13.18ZM13 2.5H3C2.60218 2.5 2.22064 2.65804 1.93934 2.93934C1.65804 3.22064 1.5 3.60218 1.5 4V11C1.5 11.3978 1.65804 11.7794 1.93934 12.0607C2.22064 12.342 2.60218 12.5 3 12.5H4.26375C4.30037 12.5 4.33654 12.4919 4.3697 12.4763C4.40285 12.4608 4.43219 12.4381 4.45563 12.41L6.84812 9.54C7.00618 9.35011 7.20868 9.20221 7.43765 9.10942C7.66663 9.01663 7.91497 8.98184 8.16063 9.00813C8.55894 9.05525 8.92323 9.25567 9.17625 9.56688L11.5456 12.41C11.5691 12.4381 11.5984 12.4608 11.6316 12.4763C11.6647 12.4919 11.7009 12.5 11.7375 12.5H13C13.3978 12.5 13.7794 12.342 14.0607 12.0607C14.342 11.7794 14.5 11.3978 14.5 11V4C14.5 3.60218 14.342 3.22064 14.0607 2.93934C13.7794 2.65804 13.3978 2.5 13 2.5Z" fill="black"/>
</g>
<defs>
<clipPath id="clip0_5_811">
<rect width="16" height="16" fill="white"/>
</clipPath>
</defs>
</svg>
