<svg width="16" height="16" viewBox="0 0 16 16" fill="none" xmlns="http://www.w3.org/2000/svg">
<g clip-path="url(#clip0_5_813)">
<path d="M13.4698 12.3287C13.5024 12.4181 13.5087 12.515 13.4881 12.6079C13.4675 12.7007 13.4208 12.7858 13.3536 12.8531L11.8536 14.3531C11.8072 14.3996 11.752 14.4366 11.6913 14.4618C11.6306 14.487 11.5656 14.5 11.4998 14.5C11.4834 14.5009 11.4669 14.5009 11.4505 14.5C11.3768 14.4927 11.3057 14.4692 11.2423 14.4312C11.1789 14.3932 11.1247 14.3415 11.0836 14.28L8.32921 10.1475L6.99983 11.4744V13C6.99977 13.1324 6.94718 13.2594 6.85358 13.3531C6.85358 13.3531 5.97858 14.2319 5.86108 14.3456C5.81224 14.3968 5.75299 14.4368 5.68733 14.4631C5.56497 14.513 5.42785 14.5123 5.30593 14.4614C5.18402 14.4104 5.08723 14.3133 5.03671 14.1912L5.03296 14.1819L4.11421 11.8844L1.81233 10.9637C1.73554 10.933 1.66758 10.8837 1.61451 10.8203C1.56145 10.7568 1.52496 10.6812 1.5083 10.6002C1.49164 10.5192 1.49533 10.4353 1.51905 10.3561C1.54277 10.2769 1.58577 10.2048 1.64421 10.1462L2.64421 9.14623C2.6909 9.09959 2.74636 9.06265 2.8074 9.03755C2.86844 9.01245 2.93384 8.99968 2.99983 8.99998H4.52483L5.85421 7.67061L1.72233 4.91561C1.66071 4.87458 1.60896 4.82039 1.57083 4.75693C1.5327 4.69347 1.50913 4.62234 1.50184 4.54867C1.49454 4.47499 1.5037 4.40062 1.52864 4.33092C1.55359 4.26122 1.5937 4.19792 1.64608 4.14561L3.14608 2.64561C3.21337 2.57835 3.29845 2.53169 3.39134 2.51109C3.48422 2.4905 3.58105 2.49684 3.67046 2.52936L9.04171 4.48248L11.0123 2.51186C11.3405 2.18365 11.7857 1.99927 12.2498 1.99927C12.4797 1.99927 12.7072 2.04453 12.9196 2.13249C13.1319 2.22044 13.3248 2.34935 13.4873 2.51186C13.6498 2.67437 13.7788 2.8673 13.8667 3.07963C13.9547 3.29196 13.9999 3.51953 13.9999 3.74936C13.9999 3.97918 13.9547 4.20676 13.8667 4.41909C13.7788 4.63142 13.6498 4.82435 13.4873 4.98686L11.5167 6.95748L13.4698 12.3287Z" fill="black"/>
</g>
<defs>
<clipPath id="clip0_5_813">
<rect width="16" height="16" fill="white"/>
</clipPath>
</defs>
</svg>
