<svg width="16" height="16" viewBox="0 0 16 16" fill="none" xmlns="http://www.w3.org/2000/svg">
<g clip-path="url(#clip0_5_820)">
<path d="M15 8.5V10.5C15 10.6326 14.9473 10.7598 14.8536 10.8536C14.7598 10.9473 14.6326 11 14.5 11C14.467 11.0001 14.4341 10.9967 14.4019 10.99L9.75 10.0625V11.5456L10.8538 12.6488C10.9469 12.742 10.9994 12.8682 11 13V14.5C11.0001 14.5819 10.9801 14.6627 10.9418 14.7351C10.9034 14.8075 10.8478 14.8693 10.7799 14.9152C10.712 14.9611 10.6338 14.9895 10.5523 14.9981C10.4708 15.0067 10.3885 14.9951 10.3125 14.9644L8 14.0387L5.6875 14.9644C5.61153 14.9951 5.52918 15.0067 5.44768 14.9981C5.36618 14.9895 5.28804 14.9611 5.22013 14.9152C5.15223 14.8693 5.09663 14.8075 5.05825 14.7351C5.01986 14.6627 4.99986 14.5819 5 14.5V13C4.99995 12.9343 5.01284 12.8693 5.03793 12.8086C5.06303 12.7479 5.09983 12.6927 5.14625 12.6462L6.25 11.5431V10.0625L1.59813 10.99C1.56585 10.9967 1.53297 11.0001 1.5 11C1.36739 11 1.24021 10.9473 1.14645 10.8536C1.05268 10.7598 1 10.6326 1 10.5V8.5C0.999934 8.40711 1.02574 8.31604 1.07454 8.237C1.12333 8.15795 1.19318 8.09407 1.27625 8.0525L6.25 5.56625V2.75C6.25 2.28587 6.43437 1.84075 6.76256 1.51256C7.09075 1.18437 7.53587 1 8 1C8.46413 1 8.90925 1.18437 9.23744 1.51256C9.56563 1.84075 9.75 2.28587 9.75 2.75V5.56625L14.7238 8.0525C14.8068 8.09407 14.8767 8.15795 14.9255 8.237C14.9743 8.31604 15.0001 8.40711 15 8.5Z" fill="black"/>
</g>
<defs>
<clipPath id="clip0_5_820">
<rect width="16" height="16" fill="white"/>
</clipPath>
</defs>
</svg>
