<svg width="16" height="16" viewBox="0 0 16 16" fill="none" xmlns="http://www.w3.org/2000/svg">
<g clip-path="url(#clip0_5_1581)">
<path d="M3.85378 2.35372L1.85378 4.35372C1.75996 4.44754 1.63272 4.50025 1.50003 4.50025C1.36735 4.50025 1.2401 4.44754 1.14628 4.35372C1.05246 4.2599 0.999756 4.13265 0.999756 3.99997C0.999756 3.86729 1.05246 3.74004 1.14628 3.64622L3.14628 1.64622C3.2401 1.5524 3.36735 1.49969 3.50003 1.49969C3.63272 1.49969 3.75996 1.5524 3.85378 1.64622C3.9476 1.74004 4.00031 1.86729 4.00031 1.99997C4.00031 2.13265 3.9476 2.2599 3.85378 2.35372ZM14.8538 3.64622L12.8538 1.64622C12.76 1.5524 12.6327 1.49969 12.5 1.49969C12.3674 1.49969 12.2401 1.5524 12.1463 1.64622C12.0525 1.74004 11.9998 1.86729 11.9998 1.99997C11.9998 2.13265 12.0525 2.2599 12.1463 2.35372L14.1463 4.35372C14.1927 4.40018 14.2479 4.43703 14.3086 4.46217C14.3693 4.48731 14.4343 4.50025 14.5 4.50025C14.5657 4.50025 14.6308 4.48731 14.6915 4.46217C14.7522 4.43703 14.8073 4.40018 14.8538 4.35372C14.9002 4.30727 14.9371 4.25212 14.9622 4.19142C14.9874 4.13072 15.0003 4.06567 15.0003 3.99997C15.0003 3.93428 14.9874 3.86922 14.9622 3.80852C14.9371 3.74783 14.9002 3.69268 14.8538 3.64622ZM14 8.49997C14 9.68666 13.6481 10.8467 12.9889 11.8334C12.3296 12.8201 11.3925 13.5891 10.2961 14.0432C9.19978 14.4974 7.99338 14.6162 6.82949 14.3847C5.66561 14.1532 4.59651 13.5817 3.75739 12.7426C2.91828 11.9035 2.34683 10.8344 2.11532 9.67052C1.88381 8.50663 2.00263 7.30023 2.45676 6.20387C2.91088 5.10752 3.67992 4.17044 4.66661 3.51116C5.65331 2.85187 6.81335 2.49997 8.00003 2.49997C9.59077 2.50179 11.1158 3.13452 12.2407 4.25934C13.3655 5.38417 13.9982 6.90923 14 8.49997ZM12 8.49997C12 8.36736 11.9474 8.24019 11.8536 8.14642C11.7598 8.05265 11.6326 7.99997 11.5 7.99997H8.50003V4.99997C8.50003 4.86736 8.44736 4.74019 8.35359 4.64642C8.25982 4.55265 8.13264 4.49997 8.00003 4.49997C7.86743 4.49997 7.74025 4.55265 7.64648 4.64642C7.55271 4.74019 7.50003 4.86736 7.50003 4.99997V8.49997C7.50003 8.63258 7.55271 8.75976 7.64648 8.85353C7.74025 8.94729 7.86743 8.99997 8.00003 8.99997H11.5C11.6326 8.99997 11.7598 8.94729 11.8536 8.85353C11.9474 8.75976 12 8.63258 12 8.49997Z" fill="black"/>
</g>
<defs>
<clipPath id="clip0_5_1581">
<rect width="16" height="16" fill="white"/>
</clipPath>
</defs>
</svg>
