<svg width="16" height="16" viewBox="0 0 16 16" fill="none" xmlns="http://www.w3.org/2000/svg">
<g clip-path="url(#clip0_5_1664)">
<path d="M8 1C6.40926 1.00182 4.88419 1.63455 3.75937 2.75937C2.63455 3.88419 2.00182 5.40926 2 7C2 8.5 2.785 10.4412 4.10063 12.1875C5.42438 13.9469 6.88188 15 8 15C9.11812 15 10.5756 13.9494 11.8994 12.1875C13.215 10.4375 14 8.5 14 7C13.9982 5.40926 13.3655 3.88419 12.2406 2.75937C11.1158 1.63455 9.59074 1.00182 8 1ZM4 7.25C4 7.05109 4.07902 6.86032 4.21967 6.71967C4.36032 6.57902 4.55109 6.5 4.75 6.5C5.34674 6.5 5.91903 6.73705 6.34099 7.15901C6.76295 7.58097 7 8.15326 7 8.75C7 8.94891 6.92098 9.13968 6.78033 9.28033C6.63968 9.42098 6.44891 9.5 6.25 9.5C5.65326 9.5 5.08097 9.26295 4.65901 8.84099C4.23705 8.41903 4 7.84674 4 7.25ZM9 12.5H7C6.86739 12.5 6.74021 12.4473 6.64645 12.3536C6.55268 12.2598 6.5 12.1326 6.5 12C6.5 11.8674 6.55268 11.7402 6.64645 11.6464C6.74021 11.5527 6.86739 11.5 7 11.5H9C9.13261 11.5 9.25979 11.5527 9.35355 11.6464C9.44732 11.7402 9.5 11.8674 9.5 12C9.5 12.1326 9.44732 12.2598 9.35355 12.3536C9.25979 12.4473 9.13261 12.5 9 12.5ZM9.75 9.5C9.55109 9.5 9.36032 9.42098 9.21967 9.28033C9.07902 9.13968 9 8.94891 9 8.75C9 8.15326 9.23705 7.58097 9.65901 7.15901C10.081 6.73705 10.6533 6.5 11.25 6.5C11.4489 6.5 11.6397 6.57902 11.7803 6.71967C11.921 6.86032 12 7.05109 12 7.25C12 7.54547 11.9418 7.83805 11.8287 8.11104C11.7157 8.38402 11.5499 8.63206 11.341 8.84099C11.1321 9.04992 10.884 9.21566 10.611 9.32873C10.3381 9.4418 10.0455 9.5 9.75 9.5Z" fill="black"/>
</g>
<defs>
<clipPath id="clip0_5_1664">
<rect width="16" height="16" fill="white"/>
</clipPath>
</defs>
</svg>
