<svg width="16" height="16" viewBox="0 0 16 16" fill="none" xmlns="http://www.w3.org/2000/svg">
<g clip-path="url(#clip0_5_1655)">
<path d="M13 2C13 2.13261 12.9473 2.25979 12.8536 2.35355C12.7598 2.44732 12.6326 2.5 12.5 2.5H3.5C3.36739 2.5 3.24021 2.44732 3.14645 2.35355C3.05268 2.25979 3 2.13261 3 2C3 1.86739 3.05268 1.74021 3.14645 1.64645C3.24021 1.55268 3.36739 1.5 3.5 1.5H12.5C12.6326 1.5 12.7598 1.55268 12.8536 1.64645C12.9473 1.74021 13 1.86739 13 2ZM10 3.5H6C5.73478 3.5 5.48043 3.60536 5.29289 3.79289C5.10536 3.98043 5 4.23478 5 4.5V14C5 14.2652 5.10536 14.5196 5.29289 14.7071C5.48043 14.8946 5.73478 15 6 15H10C10.2652 15 10.5196 14.8946 10.7071 14.7071C10.8946 14.5196 11 14.2652 11 14V4.5C11 4.23478 10.8946 3.98043 10.7071 3.79289C10.5196 3.60536 10.2652 3.5 10 3.5Z" fill="black"/>
</g>
<defs>
<clipPath id="clip0_5_1655">
<rect width="16" height="16" fill="white"/>
</clipPath>
</defs>
</svg>
