<svg width="16" height="16" viewBox="0 0 16 16" fill="none" xmlns="http://www.w3.org/2000/svg">
<g clip-path="url(#clip0_5_918)">
<path d="M14.5 8C14.5 8.13261 14.4473 8.25979 14.3536 8.35355C14.2598 8.44732 14.1326 8.5 14 8.5H13V11.5C13 11.7652 12.8946 12.0196 12.7071 12.2071C12.5196 12.3946 12.2652 12.5 12 12.5H9.5C9.23478 12.5 8.98043 12.3946 8.79289 12.2071C8.60536 12.0196 8.5 11.7652 8.5 11.5V8.5H7.5V13C7.5 13.2652 7.39464 13.5196 7.20711 13.7071C7.01957 13.8946 6.76522 14 6.5 14H4C3.73478 14 3.48043 13.8946 3.29289 13.7071C3.10536 13.5196 3 13.2652 3 13V8.5H2C1.86739 8.5 1.74021 8.44732 1.64645 8.35355C1.55268 8.25979 1.5 8.13261 1.5 8C1.5 7.86739 1.55268 7.74021 1.64645 7.64645C1.74021 7.55268 1.86739 7.5 2 7.5H3V3C3 2.73478 3.10536 2.48043 3.29289 2.29289C3.48043 2.10536 3.73478 2 4 2H6.5C6.76522 2 7.01957 2.10536 7.20711 2.29289C7.39464 2.48043 7.5 2.73478 7.5 3V7.5H8.5V4.5C8.5 4.23478 8.60536 3.98043 8.79289 3.79289C8.98043 3.60536 9.23478 3.5 9.5 3.5H12C12.2652 3.5 12.5196 3.60536 12.7071 3.79289C12.8946 3.98043 13 4.23478 13 4.5V7.5H14C14.1326 7.5 14.2598 7.55268 14.3536 7.64645C14.4473 7.74021 14.5 7.86739 14.5 8Z" fill="black"/>
</g>
<defs>
<clipPath id="clip0_5_918">
<rect width="16" height="16" fill="white"/>
</clipPath>
</defs>
</svg>
