<svg width="16" height="16" viewBox="0 0 16 16" fill="none" xmlns="http://www.w3.org/2000/svg">
<g clip-path="url(#clip0_5_1667)">
<path d="M14.5 9.5V12C14.5 12.2652 14.3946 12.5196 14.2071 12.7071C14.0196 12.8946 13.7652 13 13.5 13H5C4.73478 13 4.48043 12.8946 4.29289 12.7071C4.10536 12.5196 4 12.2652 4 12V9.5C4 9.23478 4.10536 8.98043 4.29289 8.79289C4.48043 8.60536 4.73478 8.5 5 8.5H13.5C13.7652 8.5 14.0196 8.60536 14.2071 8.79289C14.3946 8.98043 14.5 9.23478 14.5 9.5ZM2.5 2C2.36739 2 2.24021 2.05268 2.14645 2.14645C2.05268 2.24021 2 2.36739 2 2.5V13.5C2 13.6326 2.05268 13.7598 2.14645 13.8536C2.24021 13.9473 2.36739 14 2.5 14C2.63261 14 2.75979 13.9473 2.85355 13.8536C2.94732 13.7598 3 13.6326 3 13.5V2.5C3 2.36739 2.94732 2.24021 2.85355 2.14645C2.75979 2.05268 2.63261 2 2.5 2ZM5 7.5H11C11.2652 7.5 11.5196 7.39464 11.7071 7.20711C11.8946 7.01957 12 6.76522 12 6.5V4C12 3.73478 11.8946 3.48043 11.7071 3.29289C11.5196 3.10536 11.2652 3 11 3H5C4.73478 3 4.48043 3.10536 4.29289 3.29289C4.10536 3.48043 4 3.73478 4 4V6.5C4 6.76522 4.10536 7.01957 4.29289 7.20711C4.48043 7.39464 4.73478 7.5 5 7.5Z" fill="black"/>
</g>
<defs>
<clipPath id="clip0_5_1667">
<rect width="16" height="16" fill="white"/>
</clipPath>
</defs>
</svg>
