<svg width="16" height="16" viewBox="0 0 16 16" fill="none" xmlns="http://www.w3.org/2000/svg">
<g clip-path="url(#clip0_5_1234)">
<path d="M2.5 3.5V12.5C2.5 12.6326 2.44732 12.7598 2.35355 12.8536C2.25979 12.9473 2.13261 13 2 13C1.86739 13 1.74021 12.9473 1.64645 12.8536C1.55268 12.7598 1.5 12.6326 1.5 12.5V3.5C1.5 3.36739 1.55268 3.24021 1.64645 3.14645C1.74021 3.05268 1.86739 3 2 3C2.13261 3 2.25979 3.05268 2.35355 3.14645C2.44732 3.24021 2.5 3.36739 2.5 3.5ZM14 5H4.5C4.23478 5 3.98043 5.10536 3.79289 5.29289C3.60536 5.48043 3.5 5.73478 3.5 6V10C3.5 10.2652 3.60536 10.5196 3.79289 10.7071C3.98043 10.8946 4.23478 11 4.5 11H14C14.2652 11 14.5196 10.8946 14.7071 10.7071C14.8946 10.5196 15 10.2652 15 10V6C15 5.73478 14.8946 5.48043 14.7071 5.29289C14.5196 5.10536 14.2652 5 14 5Z" fill="black"/>
</g>
<defs>
<clipPath id="clip0_5_1234">
<rect width="16" height="16" fill="white"/>
</clipPath>
</defs>
</svg>
