<svg width="16" height="16" viewBox="0 0 16 16" fill="none" xmlns="http://www.w3.org/2000/svg">
<g clip-path="url(#clip0_5_1579)">
<path d="M14.5 3.5V12.5C14.5 12.6326 14.4473 12.7598 14.3536 12.8536C14.2598 12.9473 14.1326 13 14 13C13.8674 13 13.7402 12.9473 13.6464 12.8536C13.5527 12.7598 13.5 12.6326 13.5 12.5V3.5C13.5 3.36739 13.5527 3.24021 13.6464 3.14645C13.7402 3.05268 13.8674 3 14 3C14.1326 3 14.2598 3.05268 14.3536 3.14645C14.4473 3.24021 14.5 3.36739 14.5 3.5ZM11.5 5H2C1.73478 5 1.48043 5.10536 1.29289 5.29289C1.10536 5.48043 1 5.73478 1 6V10C1 10.2652 1.10536 10.5196 1.29289 10.7071C1.48043 10.8946 1.73478 11 2 11H11.5C11.7652 11 12.0196 10.8946 12.2071 10.7071C12.3946 10.5196 12.5 10.2652 12.5 10V6C12.5 5.73478 12.3946 5.48043 12.2071 5.29289C12.0196 5.10536 11.7652 5 11.5 5Z" fill="black"/>
</g>
<defs>
<clipPath id="clip0_5_1579">
<rect width="16" height="16" fill="white"/>
</clipPath>
</defs>
</svg>
