<svg width="16" height="16" viewBox="0 0 16 16" fill="none" xmlns="http://www.w3.org/2000/svg">
<g clip-path="url(#clip0_5_1254)">
<path d="M14 6V10C14 10.2652 13.8946 10.5196 13.7071 10.7071C13.5196 10.8946 13.2652 11 13 11H8.5V13C8.5 13.1326 8.44732 13.2598 8.35355 13.3536C8.25979 13.4473 8.13261 13.5 8 13.5C7.86739 13.5 7.74021 13.4473 7.64645 13.3536C7.55268 13.2598 7.5 13.1326 7.5 13V11H3C2.73478 11 2.48043 10.8946 2.29289 10.7071C2.10536 10.5196 2 10.2652 2 10V6C2 5.73478 2.10536 5.48043 2.29289 5.29289C2.48043 5.10536 2.73478 5 3 5H7.5V3C7.5 2.86739 7.55268 2.74021 7.64645 2.64645C7.74021 2.55268 7.86739 2.5 8 2.5C8.13261 2.5 8.25979 2.55268 8.35355 2.64645C8.44732 2.74021 8.5 2.86739 8.5 3V5H13C13.2652 5 13.5196 5.10536 13.7071 5.29289C13.8946 5.48043 14 5.73478 14 6Z" fill="black"/>
</g>
<defs>
<clipPath id="clip0_5_1254">
<rect width="16" height="16" fill="white"/>
</clipPath>
</defs>
</svg>
