<svg width="16" height="16" viewBox="0 0 16 16" fill="none" xmlns="http://www.w3.org/2000/svg">
<g clip-path="url(#clip0_5_1689)">
<path d="M14 9.5V12C14 12.2652 13.8946 12.5196 13.7071 12.7071C13.5196 12.8946 13.2652 13 13 13H8.5V14C8.5 14.1326 8.44732 14.2598 8.35355 14.3536C8.25979 14.4473 8.13261 14.5 8 14.5C7.86739 14.5 7.74021 14.4473 7.64645 14.3536C7.55268 14.2598 7.5 14.1326 7.5 14V13H3C2.73478 13 2.48043 12.8946 2.29289 12.7071C2.10536 12.5196 2 12.2652 2 12V9.5C2 9.23478 2.10536 8.98043 2.29289 8.79289C2.48043 8.60536 2.73478 8.5 3 8.5H7.5V7.5H4.5C4.23478 7.5 3.98043 7.39464 3.79289 7.20711C3.60536 7.01957 3.5 6.76522 3.5 6.5V4C3.5 3.73478 3.60536 3.48043 3.79289 3.29289C3.98043 3.10536 4.23478 3 4.5 3H7.5V2C7.5 1.86739 7.55268 1.74021 7.64645 1.64645C7.74021 1.55268 7.86739 1.5 8 1.5C8.13261 1.5 8.25979 1.55268 8.35355 1.64645C8.44732 1.74021 8.5 1.86739 8.5 2V3H11.5C11.7652 3 12.0196 3.10536 12.2071 3.29289C12.3946 3.48043 12.5 3.73478 12.5 4V6.5C12.5 6.76522 12.3946 7.01957 12.2071 7.20711C12.0196 7.39464 11.7652 7.5 11.5 7.5H8.5V8.5H13C13.2652 8.5 13.5196 8.60536 13.7071 8.79289C13.8946 8.98043 14 9.23478 14 9.5Z" fill="black"/>
</g>
<defs>
<clipPath id="clip0_5_1689">
<rect width="16" height="16" fill="white"/>
</clipPath>
</defs>
</svg>
