<svg width="16" height="16" viewBox="0 0 16 16" fill="none" xmlns="http://www.w3.org/2000/svg">
<g clip-path="url(#clip0_5_1026)">
<path d="M14 2.5V13.5C14 13.6326 13.9473 13.7598 13.8536 13.8536C13.7598 13.9473 13.6326 14 13.5 14C13.3674 14 13.2402 13.9473 13.1464 13.8536C13.0527 13.7598 13 13.6326 13 13.5V2.5C13 2.36739 13.0527 2.24021 13.1464 2.14645C13.2402 2.05268 13.3674 2 13.5 2C13.6326 2 13.7598 2.05268 13.8536 2.14645C13.9473 2.24021 14 2.36739 14 2.5ZM11 3H5C4.73478 3 4.48043 3.10536 4.29289 3.29289C4.10536 3.48043 4 3.73478 4 4V6.5C4 6.76522 4.10536 7.01957 4.29289 7.20711C4.48043 7.39464 4.73478 7.5 5 7.5H11C11.2652 7.5 11.5196 7.39464 11.7071 7.20711C11.8946 7.01957 12 6.76522 12 6.5V4C12 3.73478 11.8946 3.48043 11.7071 3.29289C11.5196 3.10536 11.2652 3 11 3ZM11 8.5H2.5C2.23478 8.5 1.98043 8.60536 1.79289 8.79289C1.60536 8.98043 1.5 9.23478 1.5 9.5V12C1.5 12.2652 1.60536 12.5196 1.79289 12.7071C1.98043 12.8946 2.23478 13 2.5 13H11C11.2652 13 11.5196 12.8946 11.7071 12.7071C11.8946 12.5196 12 12.2652 12 12V9.5C12 9.23478 11.8946 8.98043 11.7071 8.79289C11.5196 8.60536 11.2652 8.5 11 8.5Z" fill="black"/>
</g>
<defs>
<clipPath id="clip0_5_1026">
<rect width="16" height="16" fill="white"/>
</clipPath>
</defs>
</svg>
