<svg width="16" height="16" viewBox="0 0 16 16" fill="none" xmlns="http://www.w3.org/2000/svg">
<g clip-path="url(#clip0_5_921)">
<path d="M14 13.5C14 13.6326 13.9473 13.7598 13.8536 13.8536C13.7598 13.9473 13.6326 14 13.5 14H2.5C2.36739 14 2.24021 13.9473 2.14645 13.8536C2.05268 13.7598 2 13.6326 2 13.5C2 13.3674 2.05268 13.2402 2.14645 13.1464C2.24021 13.0527 2.36739 13 2.5 13H13.5C13.6326 13 13.7598 13.0527 13.8536 13.1464C13.9473 13.2402 14 13.3674 14 13.5ZM9.5 12H12C12.2652 12 12.5196 11.8946 12.7071 11.7071C12.8946 11.5196 13 11.2652 13 11V5C13 4.73478 12.8946 4.48043 12.7071 4.29289C12.5196 4.10536 12.2652 4 12 4H9.5C9.23478 4 8.98043 4.10536 8.79289 4.29289C8.60536 4.48043 8.5 4.73478 8.5 5V11C8.5 11.2652 8.60536 11.5196 8.79289 11.7071C8.98043 11.8946 9.23478 12 9.5 12ZM4 12H6.5C6.76522 12 7.01957 11.8946 7.20711 11.7071C7.39464 11.5196 7.5 11.2652 7.5 11V2.5C7.5 2.23478 7.39464 1.98043 7.20711 1.79289C7.01957 1.60536 6.76522 1.5 6.5 1.5H4C3.73478 1.5 3.48043 1.60536 3.29289 1.79289C3.10536 1.98043 3 2.23478 3 2.5V11C3 11.2652 3.10536 11.5196 3.29289 11.7071C3.48043 11.8946 3.73478 12 4 12Z" fill="black"/>
</g>
<defs>
<clipPath id="clip0_5_921">
<rect width="16" height="16" fill="white"/>
</clipPath>
</defs>
</svg>
