<svg width="16" height="16" viewBox="0 0 16 16" fill="none" xmlns="http://www.w3.org/2000/svg">
<g clip-path="url(#clip0_5_1213)">
<path d="M9.5 8.5C9.5 8.79667 9.41203 9.08668 9.24721 9.33335C9.08239 9.58003 8.84812 9.77229 8.57403 9.88582C8.29994 9.99935 7.99834 10.0291 7.70737 9.97118C7.4164 9.9133 7.14912 9.77044 6.93934 9.56066C6.72956 9.35088 6.5867 9.08361 6.52882 8.79264C6.47095 8.50166 6.50065 8.20006 6.61418 7.92597C6.72772 7.65189 6.91997 7.41762 7.16665 7.2528C7.41332 7.08797 7.70333 7 8 7C8.39783 7 8.77936 7.15804 9.06066 7.43934C9.34197 7.72064 9.5 8.10218 9.5 8.5ZM14.5 8C14.5 9.28558 14.1188 10.5423 13.4046 11.6112C12.6903 12.6801 11.6752 13.5132 10.4874 14.0052C9.29973 14.4972 7.99279 14.6259 6.73192 14.3751C5.47104 14.1243 4.31285 13.5052 3.40381 12.5962C2.49477 11.6872 1.8757 10.529 1.6249 9.26809C1.37409 8.00721 1.50282 6.70028 1.99479 5.51256C2.48676 4.32484 3.31988 3.30968 4.3888 2.59545C5.45772 1.88122 6.71442 1.5 8 1.5C9.72335 1.50182 11.3756 2.18722 12.5942 3.40582C13.8128 4.62441 14.4982 6.27665 14.5 8ZM9.5 6.5C9.12858 6.22143 8.68692 6.0518 8.22452 6.0101C7.76211 5.96841 7.29723 6.0563 6.88197 6.26393C6.4667 6.47156 6.11746 6.79073 5.87338 7.18567C5.62929 7.58061 5.5 8.03572 5.5 8.5C5.5 8.96428 5.62929 9.41939 5.87338 9.81433C6.11746 10.2093 6.4667 10.5284 6.88197 10.7361C7.29723 10.9437 7.76211 11.0316 8.22452 10.9899C8.68692 10.9482 9.12858 10.7786 9.5 10.5C9.5 10.6326 9.55268 10.7598 9.64645 10.8536C9.74022 10.9473 9.86739 11 10 11C10.1326 11 10.2598 10.9473 10.3536 10.8536C10.4473 10.7598 10.5 10.6326 10.5 10.5V6.5C10.5001 5.9576 10.3239 5.42987 9.9978 4.99642C9.67173 4.56298 9.21353 4.24734 8.69234 4.09713C8.17116 3.94692 7.61526 3.97029 7.10852 4.1637C6.60177 4.35712 6.17168 4.7101 5.88313 5.16937C5.81526 5.28153 5.79415 5.41586 5.82435 5.54343C5.85456 5.671 5.93365 5.78161 6.04461 5.85143C6.15557 5.92125 6.28951 5.9447 6.41759 5.91672C6.54566 5.88875 6.65763 5.8116 6.72938 5.70188C6.9024 5.42609 7.16046 5.21409 7.46458 5.09788C7.7687 4.98167 8.10237 4.96756 8.41522 5.05768C8.72806 5.1478 9.0031 5.33726 9.19879 5.59745C9.39448 5.85764 9.50021 6.17443 9.5 6.5ZM12.3006 10.6006C12.1947 10.5209 12.0614 10.4866 11.9302 10.5051C11.7989 10.5236 11.6804 10.5935 11.6006 10.6994C11.1815 11.2585 10.6379 11.7123 10.0129 12.0249C9.38796 12.3375 8.69878 12.5002 8 12.5002C7.30122 12.5002 6.61205 12.3375 5.98708 12.0249C5.36211 11.7123 4.81852 11.2585 4.39938 10.6994C4.36052 10.6453 4.31125 10.5995 4.25446 10.5647C4.19767 10.5299 4.1345 10.5068 4.06866 10.4968C4.00282 10.4868 3.93564 10.49 3.87106 10.5063C3.80648 10.5225 3.74581 10.5516 3.6926 10.5916C3.63939 10.6317 3.59472 10.682 3.56121 10.7395C3.5277 10.7971 3.50602 10.8607 3.49745 10.9268C3.48889 10.9928 3.4936 11.0599 3.51132 11.1241C3.52904 11.1883 3.5594 11.2483 3.60063 11.3006C4.11296 11.9835 4.77721 12.5377 5.54079 12.9194C6.30438 13.3011 7.14633 13.4998 8 13.4998C8.85367 13.4998 9.69563 13.3011 10.4592 12.9194C11.2228 12.5377 11.887 11.9835 12.3994 11.3006C12.4791 11.1947 12.5134 11.0614 12.4949 10.9302C12.4764 10.7989 12.4065 10.6804 12.3006 10.6006Z" fill="black"/>
</g>
<defs>
<clipPath id="clip0_5_1213">
<rect width="16" height="16" fill="white"/>
</clipPath>
</defs>
</svg>
