<svg width="16" height="16" viewBox="0 0 16 16" fill="none" xmlns="http://www.w3.org/2000/svg">
<g clip-path="url(#clip0_5_1568)">
<path d="M14 8.99999C14 11.3819 12.2706 11.8537 10.8813 12.2325C9.36063 12.6475 8.5 12.9569 8.5 14.5C8.5 14.6326 8.44732 14.7598 8.35355 14.8535C8.25979 14.9473 8.13261 15 8 15C7.86739 15 7.74021 14.9473 7.64645 14.8535C7.55268 14.7598 7.5 14.6326 7.5 14.5C7.5 12.9569 6.63938 12.6475 5.11875 12.2325C3.72938 11.8537 2 11.3819 2 8.99999C2 8.86738 2.05268 8.74021 2.14645 8.64644C2.24021 8.55267 2.36739 8.49999 2.5 8.49999C2.63261 8.49999 2.75979 8.55267 2.85355 8.64644C2.94732 8.74021 3 8.86738 3 8.99999C3 10.5431 3.86062 10.8525 5.38125 11.2675C6.09125 11.4612 6.88875 11.68 7.5 12.1637V7.99999H5.5C5.36739 7.99999 5.24021 7.94731 5.14645 7.85355C5.05268 7.75978 5 7.6326 5 7.49999C5 7.36738 5.05268 7.24021 5.14645 7.14644C5.24021 7.05267 5.36739 6.99999 5.5 6.99999H7.5V5.17687C7.09717 5.05677 6.75103 4.79568 6.52487 4.44135C6.29871 4.08702 6.20765 3.66312 6.26833 3.24717C6.32902 2.83122 6.5374 2.45101 6.85537 2.17607C7.17334 1.90112 7.57965 1.74982 8 1.74982C8.42035 1.74982 8.82666 1.90112 9.14463 2.17607C9.4626 2.45101 9.67098 2.83122 9.73167 3.24717C9.79235 3.66312 9.70129 4.08702 9.47513 4.44135C9.24897 4.79568 8.90283 5.05677 8.5 5.17687V6.99999H10.5C10.6326 6.99999 10.7598 7.05267 10.8536 7.14644C10.9473 7.24021 11 7.36738 11 7.49999C11 7.6326 10.9473 7.75978 10.8536 7.85355C10.7598 7.94731 10.6326 7.99999 10.5 7.99999H8.5V12.1637C9.11125 11.68 9.90875 11.4612 10.6187 11.2675C12.1394 10.8525 13 10.5431 13 8.99999C13 8.86738 13.0527 8.74021 13.1464 8.64644C13.2402 8.55267 13.3674 8.49999 13.5 8.49999C13.6326 8.49999 13.7598 8.55267 13.8536 8.64644C13.9473 8.74021 14 8.86738 14 8.99999Z" fill="black"/>
</g>
<defs>
<clipPath id="clip0_5_1568">
<rect width="16" height="16" fill="white"/>
</clipPath>
</defs>
</svg>
