<svg width="16" height="16" viewBox="0 0 16 16" fill="none" xmlns="http://www.w3.org/2000/svg">
<g clip-path="url(#clip0_5_1629)">
<path d="M14.5 7.49999C14.5 9.2239 13.8152 10.8772 12.5962 12.0962C11.3772 13.3152 9.72391 14 8 14C6.27609 14 4.62279 13.3152 3.40381 12.0962C2.18482 10.8772 1.5 9.2239 1.5 7.49999C1.5 7.36738 1.55268 7.24021 1.64645 7.14644C1.74021 7.05267 1.86739 6.99999 2 6.99999H3.5C3.63261 6.99999 3.75979 7.05267 3.85355 7.14644C3.94732 7.24021 4 7.36738 4 7.49999C4 7.6326 3.94732 7.75978 3.85355 7.85355C3.75979 7.94731 3.63261 7.99999 3.5 7.99999H2.5225C2.64126 9.27994 3.20384 10.4781 4.11284 11.387C5.02184 12.2958 6.22004 12.8583 7.5 12.9769V5.67687C7.09717 5.55677 6.75103 5.29568 6.52487 4.94135C6.29871 4.58702 6.20765 4.16312 6.26833 3.74717C6.32902 3.33122 6.5374 2.95101 6.85537 2.67607C7.17334 2.40112 7.57965 2.24982 8 2.24982C8.42035 2.24982 8.82666 2.40112 9.14463 2.67607C9.4626 2.95101 9.67098 3.33122 9.73167 3.74717C9.79235 4.16312 9.70129 4.58702 9.47513 4.94135C9.24897 5.29568 8.90283 5.55677 8.5 5.67687V12.9769C9.77996 12.8583 10.9782 12.2958 11.8872 11.387C12.7962 10.4781 13.3587 9.27994 13.4775 7.99999H12.5C12.3674 7.99999 12.2402 7.94731 12.1464 7.85355C12.0527 7.75978 12 7.6326 12 7.49999C12 7.36738 12.0527 7.24021 12.1464 7.14644C12.2402 7.05267 12.3674 6.99999 12.5 6.99999H14C14.1326 6.99999 14.2598 7.05267 14.3536 7.14644C14.4473 7.24021 14.5 7.36738 14.5 7.49999Z" fill="black"/>
</g>
<defs>
<clipPath id="clip0_5_1629">
<rect width="16" height="16" fill="white"/>
</clipPath>
</defs>
</svg>
