<svg width="16" height="16" viewBox="0 0 16 16" fill="none" xmlns="http://www.w3.org/2000/svg">
<g clip-path="url(#clip0_5_1202)">
<path d="M12.9413 5.04185C12.895 4.9956 12.8481 4.9506 12.8013 4.90622L14.3538 3.35372C14.4002 3.30727 14.4371 3.25212 14.4622 3.19142C14.4873 3.13072 14.5003 3.06567 14.5003 2.99997C14.5003 2.93428 14.4873 2.86922 14.4622 2.80852C14.4371 2.74783 14.4002 2.69268 14.3538 2.64622C14.3073 2.59977 14.2521 2.56292 14.1915 2.53778C14.1308 2.51263 14.0657 2.49969 14 2.49969C13.9343 2.49969 13.8693 2.51263 13.8086 2.53778C13.7479 2.56292 13.6927 2.59977 13.6463 2.64622L12.0213 4.27122C10.8448 3.44312 9.44083 2.99966 8.00218 3.00178C6.56353 3.00391 5.16084 3.45152 3.98688 4.2831L2.35375 2.64622C2.25993 2.5524 2.13268 2.49969 2 2.49969C1.86732 2.49969 1.74007 2.5524 1.64625 2.64622C1.55243 2.74004 1.49973 2.86729 1.49973 2.99997C1.49973 3.13265 1.55243 3.2599 1.64625 3.35372L3.2125 4.91997C2.51281 5.5829 1.95571 6.38159 1.57529 7.26721C1.19487 8.15282 0.999112 9.10673 1 10.0706V11.5C1 11.7652 1.10536 12.0195 1.2929 12.2071C1.48043 12.3946 1.73479 12.5 2 12.5H14C14.2652 12.5 14.5196 12.3946 14.7071 12.2071C14.8946 12.0195 15 11.7652 15 11.5V9.99997C15.0026 9.07833 14.8219 8.16538 14.4685 7.3142C14.115 6.46302 13.5959 5.6906 12.9413 5.04185ZM5.75 9.99997C5.60167 9.99997 5.45666 9.95599 5.33333 9.87357C5.20999 9.79116 5.11386 9.67403 5.05709 9.53698C5.00033 9.39994 4.98547 9.24914 5.01441 9.10366C5.04335 8.95817 5.11478 8.82453 5.21967 8.71964C5.32456 8.61475 5.4582 8.54332 5.60368 8.51438C5.74917 8.48545 5.89997 8.5003 6.03702 8.55706C6.17406 8.61383 6.29119 8.70996 6.37361 8.8333C6.45602 8.95663 6.5 9.10164 6.5 9.24997C6.5 9.44888 6.42099 9.63965 6.28033 9.7803C6.13968 9.92095 5.94892 9.99997 5.75 9.99997ZM10.25 9.99997C10.1017 9.99997 9.95666 9.95599 9.83333 9.87357C9.70999 9.79116 9.61386 9.67403 9.55709 9.53698C9.50033 9.39994 9.48547 9.24914 9.51441 9.10366C9.54335 8.95817 9.61478 8.82453 9.71967 8.71964C9.82456 8.61475 9.9582 8.54332 10.1037 8.51438C10.2492 8.48545 10.4 8.5003 10.537 8.55706C10.6741 8.61383 10.7912 8.70996 10.8736 8.8333C10.956 8.95663 11 9.10164 11 9.24997C11 9.44888 10.921 9.63965 10.7803 9.7803C10.6397 9.92095 10.4489 9.99997 10.25 9.99997Z" fill="black"/>
</g>
<defs>
<clipPath id="clip0_5_1202">
<rect width="16" height="16" fill="white"/>
</clipPath>
</defs>
</svg>
