<svg width="16" height="16" viewBox="0 0 16 16" fill="none" xmlns="http://www.w3.org/2000/svg">
<g clip-path="url(#clip0_5_1549)">
<path d="M8.00001 6.52935L8.81688 7.99998H7.18313L8.00001 6.52935ZM14.4956 4.56623L13.4956 12.0662C13.4849 12.1471 13.4545 12.2242 13.4071 12.2906C13.3597 12.3571 13.2968 12.4109 13.2238 12.4475L8.22376 14.9475C8.15429 14.9822 8.07768 15.0003 8.00001 15.0003C7.92233 15.0003 7.84572 14.9822 7.77626 14.9475L2.77626 12.4475C2.70326 12.4109 2.64032 12.3571 2.59293 12.2906C2.54554 12.2242 2.51514 12.1471 2.50438 12.0662L1.50438 4.56623C1.48985 4.4572 1.51168 4.34643 1.56648 4.25107C1.62128 4.15571 1.706 4.08107 1.80751 4.03873L7.80751 1.53873C7.86843 1.51305 7.93389 1.49982 8.00001 1.49982C8.06613 1.49982 8.13158 1.51305 8.19251 1.53873L14.1925 4.03873C14.294 4.08107 14.3787 4.15571 14.4335 4.25107C14.4883 4.34643 14.5102 4.4572 14.4956 4.56623ZM10.9375 9.75748L8.43751 5.25748C8.39427 5.17933 8.33088 5.11419 8.25394 5.06882C8.17701 5.02346 8.08932 4.99954 8.00001 4.99954C7.91069 4.99954 7.82301 5.02346 7.74607 5.06882C7.66913 5.11419 7.60575 5.17933 7.56251 5.25748L5.06251 9.75748C5.03066 9.81493 5.01044 9.87809 5.00301 9.94336C4.99557 10.0086 5.00107 10.0747 5.01917 10.1379C5.03728 10.201 5.06765 10.26 5.10854 10.3114C5.14943 10.3628 5.20005 10.4056 5.25751 10.4375C5.31496 10.4693 5.37812 10.4895 5.44339 10.497C5.50866 10.5044 5.57475 10.4989 5.63789 10.4808C5.70104 10.4627 5.75999 10.4323 5.8114 10.3914C5.86281 10.3505 5.90566 10.2999 5.93751 10.2425L6.62501 8.99998H9.37501L10.0625 10.2425C10.0944 10.2999 10.1372 10.3505 10.1886 10.3914C10.24 10.4323 10.299 10.4627 10.3621 10.4808C10.4253 10.4989 10.4914 10.5044 10.5566 10.497C10.6219 10.4895 10.6851 10.4693 10.7425 10.4375C10.8 10.4056 10.8506 10.3628 10.8915 10.3114C10.9324 10.26 10.9627 10.201 10.9808 10.1379C10.9989 10.0747 11.0044 10.0086 10.997 9.94336C10.9896 9.87809 10.9694 9.81493 10.9375 9.75748Z" fill="black"/>
</g>
<defs>
<clipPath id="clip0_5_1549">
<rect width="16" height="16" fill="white"/>
</clipPath>
</defs>
</svg>
