<svg width="16" height="16" viewBox="0 0 16 16" fill="none" xmlns="http://www.w3.org/2000/svg">
<g clip-path="url(#clip0_5_1707)">
<path d="M14.5001 7.99999C14.5001 6.7144 14.1189 5.45767 13.4047 4.38873C12.6905 3.31979 11.6753 2.48665 10.4876 1.99467C9.29984 1.50269 7.99289 1.37397 6.732 1.62478C5.47111 1.8756 4.31291 2.49468 3.40386 3.40374C2.4948 4.31278 1.87572 5.47098 1.6249 6.73187C1.37409 7.99277 1.50281 9.29972 1.99479 10.4874C2.48677 11.6752 3.31991 12.6904 4.38885 13.4046C5.45779 14.1188 6.71452 14.5 8.00011 14.5H8.00574C9.72867 14.4985 11.3805 13.813 12.5983 12.5942C13.8161 11.3754 14.5001 9.72293 14.5001 7.99999ZM3.07386 5.55749L6.27449 6.14187L2.91574 10.0956C2.61905 9.37117 2.47971 8.59193 2.50697 7.80956C2.53424 7.02718 2.72747 6.25953 3.07386 5.55749ZM13.0845 5.90374C13.3812 6.6283 13.5205 7.40764 13.4933 8.19011C13.466 8.97259 13.2728 9.74034 12.9264 10.4425L9.72574 9.85812L13.0845 5.90374ZM12.5795 4.95374L10.472 7.43749L8.72699 2.54874C9.92497 2.70542 11.0372 3.25493 11.8895 4.11124C12.1466 4.36876 12.3777 4.65095 12.5795 4.95374ZM7.65199 2.51187L8.74637 5.57437L3.64386 4.64499C3.78799 4.45714 3.94393 4.27866 4.11074 4.11062C5.05523 3.16157 6.31549 2.59261 7.65199 2.51187ZM3.42074 11.0462L5.52824 8.56249L7.27324 13.4487C6.49687 13.3453 5.75156 13.0772 5.08716 12.6625C4.42277 12.2477 3.85462 11.6958 3.42074 11.0437V11.0462ZM8.34824 13.4875L7.25386 10.425L8.69636 10.6875L12.3539 11.3556C11.8775 11.9774 11.2731 12.4895 10.5816 12.8575C9.89005 13.2254 9.12758 13.4404 8.34574 13.4881L8.34824 13.4875Z" fill="black"/>
</g>
<defs>
<clipPath id="clip0_5_1707">
<rect width="16" height="16" fill="white"/>
</clipPath>
</defs>
</svg>
