<svg width="16" height="16" viewBox="0 0 16 16" fill="none" xmlns="http://www.w3.org/2000/svg">
<g clip-path="url(#clip0_5_1636)">
<path d="M13.5 2.5H2.5C2.23478 2.5 1.98043 2.60536 1.79289 2.79289C1.60536 2.98043 1.5 3.23478 1.5 3.5V12.5C1.5 12.7652 1.60536 13.0196 1.79289 13.2071C1.98043 13.3946 2.23478 13.5 2.5 13.5H13.5C13.7652 13.5 14.0196 13.3946 14.2071 13.2071C14.3946 13.0196 14.5 12.7652 14.5 12.5V3.5C14.5 3.23478 14.3946 2.98043 14.2071 2.79289C14.0196 2.60536 13.7652 2.5 13.5 2.5ZM4.25 6C4.10166 6 3.95666 5.95601 3.83332 5.8736C3.70999 5.79119 3.61386 5.67406 3.55709 5.53701C3.50032 5.39997 3.48547 5.24917 3.51441 5.10368C3.54335 4.9582 3.61478 4.82456 3.71967 4.71967C3.82456 4.61478 3.9582 4.54335 4.10368 4.51441C4.24917 4.48547 4.39997 4.50032 4.53701 4.55709C4.67406 4.61386 4.79119 4.70999 4.8736 4.83332C4.95601 4.95666 5 5.10166 5 5.25C5 5.44891 4.92098 5.63968 4.78033 5.78033C4.63968 5.92098 4.44891 6 4.25 6ZM6.75 6C6.60166 6 6.45666 5.95601 6.33332 5.8736C6.20999 5.79119 6.11386 5.67406 6.05709 5.53701C6.00032 5.39997 5.98547 5.24917 6.01441 5.10368C6.04335 4.9582 6.11478 4.82456 6.21967 4.71967C6.32456 4.61478 6.4582 4.54335 6.60368 4.51441C6.74917 4.48547 6.89997 4.50032 7.03701 4.55709C7.17406 4.61386 7.29119 4.70999 7.3736 4.83332C7.45601 4.95666 7.5 5.10166 7.5 5.25C7.5 5.44891 7.42098 5.63968 7.28033 5.78033C7.13968 5.92098 6.94891 6 6.75 6Z" fill="black"/>
</g>
<defs>
<clipPath id="clip0_5_1636">
<rect width="16" height="16" fill="white"/>
</clipPath>
</defs>
</svg>
