<svg width="16" height="16" viewBox="0 0 16 16" fill="none" xmlns="http://www.w3.org/2000/svg">
<g clip-path="url(#clip0_5_1640)">
<path d="M8 1.5C6.71442 1.5 5.45772 1.88122 4.3888 2.59545C3.31988 3.30968 2.48676 4.32484 1.99479 5.51256C1.50282 6.70028 1.37409 8.00721 1.6249 9.26809C1.8757 10.529 2.49477 11.6872 3.40381 12.5962C4.31285 13.5052 5.47104 14.1243 6.73192 14.3751C7.99279 14.6259 9.29973 14.4972 10.4874 14.0052C11.6752 13.5132 12.6903 12.6801 13.4046 11.6112C14.1188 10.5423 14.5 9.28558 14.5 8C14.4982 6.27665 13.8128 4.62441 12.5942 3.40582C11.3756 2.18722 9.72335 1.50182 8 1.5ZM5.22875 11.2575L4.92875 11.7575C4.89494 11.8138 4.85036 11.8629 4.79757 11.902C4.74479 11.9411 4.68482 11.9694 4.62109 11.9853C4.55737 12.0012 4.49114 12.0043 4.42618 11.9947C4.36122 11.985 4.29881 11.9626 4.2425 11.9288C4.1862 11.8949 4.13711 11.8504 4.09803 11.7976C4.05895 11.7448 4.03065 11.6848 4.01475 11.6211C3.99885 11.5574 3.99565 11.4911 4.00535 11.4262C4.01504 11.3612 4.03744 11.2988 4.07125 11.2425L4.37125 10.7425C4.43955 10.6288 4.55021 10.5469 4.67891 10.5147C4.80761 10.4826 4.94379 10.503 5.0575 10.5712C5.17121 10.6395 5.25314 10.7502 5.28525 10.8789C5.31737 11.0076 5.29705 11.1438 5.22875 11.2575ZM8 9.5H3.5C3.36739 9.5 3.24022 9.44732 3.14645 9.35355C3.05268 9.25979 3 9.13261 3 9C3 8.86739 3.05268 8.74021 3.14645 8.64645C3.24022 8.55268 3.36739 8.5 3.5 8.5H5.71688L7.41688 5.66687L6.57125 4.2575C6.53744 4.2012 6.51504 4.13878 6.50535 4.07382C6.49565 4.00886 6.49885 3.94263 6.51475 3.87891C6.53065 3.81518 6.55895 3.75522 6.59803 3.70243C6.63711 3.64964 6.6862 3.60507 6.7425 3.57125C6.85621 3.50296 6.9924 3.48263 7.12109 3.51475C7.18482 3.53065 7.24479 3.55895 7.29757 3.59803C7.35036 3.6371 7.39494 3.6862 7.42875 3.7425L8 4.695L8.57125 3.7425C8.60507 3.6862 8.64964 3.6371 8.70243 3.59803C8.75522 3.55895 8.81519 3.53065 8.87891 3.51475C8.94264 3.49885 9.00887 3.49565 9.07383 3.50535C9.13879 3.51504 9.2012 3.53743 9.2575 3.57125C9.31381 3.60507 9.3629 3.64964 9.40198 3.70243C9.44106 3.75522 9.46935 3.81518 9.48526 3.87891C9.50116 3.94263 9.50435 4.00886 9.49466 4.07382C9.48496 4.13878 9.46257 4.2012 9.42875 4.2575L6.88313 8.5H8C8.13261 8.5 8.25979 8.55268 8.35356 8.64645C8.44732 8.74021 8.5 8.86739 8.5 9C8.5 9.13261 8.44732 9.25979 8.35356 9.35355C8.25979 9.44732 8.13261 9.5 8 9.5ZM12.5 9.5H10.8831L11.9288 11.2425C11.997 11.3562 12.0174 11.4924 11.9853 11.6211C11.9531 11.7498 11.8712 11.8605 11.7575 11.9288C11.6438 11.997 11.5076 12.0174 11.3789 11.9853C11.2502 11.9531 11.1395 11.8712 11.0713 11.7575L8.67125 7.7575C8.60296 7.64379 8.58264 7.50761 8.61475 7.37891C8.64687 7.25021 8.72879 7.13954 8.8425 7.07125C8.95621 7.00296 9.0924 6.98263 9.2211 7.01475C9.34979 7.04686 9.46046 7.12879 9.52875 7.2425L10.2831 8.5H12.5C12.6326 8.5 12.7598 8.55268 12.8536 8.64645C12.9473 8.74021 13 8.86739 13 9C13 9.13261 12.9473 9.25979 12.8536 9.35355C12.7598 9.44732 12.6326 9.5 12.5 9.5Z" fill="black"/>
</g>
<defs>
<clipPath id="clip0_5_1640">
<rect width="16" height="16" fill="white"/>
</clipPath>
</defs>
</svg>
