<svg width="16" height="16" viewBox="0 0 16 16" fill="none" xmlns="http://www.w3.org/2000/svg">
<g clip-path="url(#clip0_5_1513)">
<path d="M9.98738 9.48875C10.104 9.63726 10.1849 9.81064 10.2237 9.99544C10.2625 10.1802 10.2582 10.3715 10.2111 10.5544L9.44988 13.5544C9.37975 13.8262 9.22092 14.0668 8.99857 14.238C8.77621 14.4093 8.50306 14.5015 8.22238 14.5H7.77738C7.4967 14.5015 7.22354 14.4093 7.00119 14.238C6.77884 14.0668 6.62001 13.8262 6.54988 13.5544L5.78863 10.5544C5.74158 10.3715 5.73729 10.1802 5.77609 9.99544C5.8149 9.81064 5.89575 9.63726 6.01238 9.48875C6.13053 9.33618 6.28214 9.21277 6.45552 9.12803C6.62889 9.0433 6.8194 8.99949 7.01238 9H8.98113C9.17516 8.99853 9.3669 9.04187 9.54144 9.12665C9.71597 9.21142 9.86858 9.33534 9.98738 9.48875ZM9.74988 7.25C9.74988 6.90388 9.64724 6.56554 9.45495 6.27775C9.26266 5.98997 8.98935 5.76566 8.66957 5.63321C8.3498 5.50076 7.99794 5.4661 7.65847 5.53363C7.319 5.60115 7.00718 5.76782 6.76244 6.01256C6.5177 6.25731 6.35103 6.56913 6.2835 6.90859C6.21598 7.24806 6.25064 7.59993 6.38309 7.9197C6.51554 8.23947 6.73984 8.51278 7.02763 8.70507C7.31542 8.89736 7.65376 9 7.99988 9C8.46401 9 8.90913 8.81563 9.23732 8.48744C9.5655 8.15925 9.74988 7.71413 9.74988 7.25ZM11.3749 8.9375C11.3556 9.00125 11.3492 9.0682 11.3562 9.13444C11.3631 9.20068 11.3832 9.26486 11.4153 9.32323C11.4474 9.38159 11.4908 9.43295 11.543 9.4743C11.5952 9.51565 11.6552 9.54615 11.7193 9.56401C11.7835 9.58187 11.8506 9.58673 11.9167 9.57831C11.9827 9.56989 12.0464 9.54836 12.1041 9.51497C12.1617 9.48159 12.2121 9.43703 12.2523 9.3839C12.2924 9.33078 12.3216 9.27017 12.338 9.20562C12.5238 8.53718 12.5525 7.83483 12.4219 7.15345C12.2913 6.47206 12.005 5.8301 11.5852 5.27772C11.1654 4.72535 10.6236 4.27751 10.0021 3.96921C9.38055 3.66091 8.69616 3.50049 8.00238 3.50049C7.30859 3.50049 6.6242 3.66091 6.00268 3.96921C5.38116 4.27751 4.83934 4.72535 4.41956 5.27772C3.99978 5.8301 3.71341 6.47206 3.58282 7.15345C3.45222 7.83483 3.48095 8.53718 3.66675 9.20562C3.71197 9.32099 3.79841 9.41545 3.90932 9.4707C4.02022 9.52595 4.14769 9.53805 4.26702 9.50466C4.38634 9.47127 4.48901 9.39476 4.55513 9.28997C4.62125 9.18518 4.64611 9.05957 4.62488 8.9375C4.48219 8.41803 4.46135 7.87264 4.56396 7.34379C4.66657 6.81495 4.88988 6.31693 5.21648 5.88852C5.54309 5.46011 5.96418 5.11287 6.44695 4.87385C6.92973 4.63483 7.46117 4.51048 7.99988 4.51048C8.53859 4.51048 9.07002 4.63483 9.5528 4.87385C10.0356 5.11287 10.4567 5.46011 10.7833 5.88852C11.1099 6.31693 11.3332 6.81495 11.4358 7.34379C11.5384 7.87264 11.5176 8.41803 11.3749 8.9375ZM7.99988 1.5C6.60541 1.49971 5.24781 1.94789 4.12759 2.77834C3.00737 3.60879 2.18391 4.77748 1.77883 6.11182C1.37375 7.44615 1.40853 8.87539 1.87802 10.1884C2.34752 11.5015 3.22684 12.6288 4.38613 13.4038C4.44071 13.4403 4.50195 13.4657 4.56635 13.4785C4.63076 13.4914 4.69706 13.4914 4.76148 13.4787C4.8259 13.4659 4.88718 13.4406 4.94181 13.4041C4.99644 13.3677 5.04335 13.3208 5.07988 13.2662C5.1164 13.2117 5.14182 13.1504 5.15467 13.086C5.16753 13.0216 5.16758 12.9553 5.15481 12.8909C5.14204 12.8265 5.11671 12.7652 5.08026 12.7106C5.04381 12.6559 4.99696 12.609 4.94238 12.5725C3.96172 11.9167 3.21793 10.9629 2.82082 9.85197C2.42371 8.74107 2.39434 7.53191 2.73703 6.40302C3.07973 5.27414 3.77633 4.28537 4.72398 3.58269C5.67164 2.88001 6.82013 2.50066 7.99988 2.50066C9.17963 2.50066 10.3281 2.88001 11.2758 3.58269C12.2234 4.28537 12.92 5.27414 13.2627 6.40302C13.6054 7.53191 13.576 8.74107 13.1789 9.85197C12.7818 10.9629 12.038 11.9167 11.0574 12.5725C10.9471 12.6463 10.8707 12.7608 10.8449 12.8909C10.8192 13.021 10.8461 13.156 10.9199 13.2662C10.9936 13.3765 11.1082 13.4529 11.2383 13.4787C11.3684 13.5045 11.5034 13.4775 11.6136 13.4038C12.7729 12.6288 13.6522 11.5015 14.1217 10.1884C14.5912 8.87539 14.626 7.44615 14.2209 6.11182C13.8159 4.77748 12.9924 3.60879 11.8722 2.77834C10.7519 1.94789 9.39435 1.49971 7.99988 1.5Z" fill="black"/>
</g>
<defs>
<clipPath id="clip0_5_1513">
<rect width="16" height="16" fill="white"/>
</clipPath>
</defs>
</svg>
