<svg width="16" height="16" viewBox="0 0 16 16" fill="none" xmlns="http://www.w3.org/2000/svg">
<g clip-path="url(#clip0_5_1547)">
<path d="M8.01427 1.875C8.15294 1.33794 8.46627 0.862253 8.90495 0.522809C9.34362 0.183364 9.88273 -0.000555646 10.4374 1.26101e-06H10.4999C10.6325 1.26101e-06 10.7597 0.0526797 10.8534 0.146448C10.9472 0.240216 10.9999 0.367393 10.9999 0.500001C10.9999 0.632609 10.9472 0.759786 10.8534 0.853555C10.7597 0.947323 10.6325 1 10.4999 1H10.4374C10.1048 0.999972 9.78168 1.11046 9.51876 1.31411C9.25583 1.51775 9.06804 1.803 8.9849 2.125C8.95174 2.25347 8.86892 2.3635 8.75464 2.43089C8.64036 2.49829 8.50398 2.51753 8.37552 2.48438C8.24706 2.45122 8.13702 2.3684 8.06963 2.25412C8.00223 2.13984 7.98299 2.00347 8.01615 1.875H8.01427ZM13.9561 10.5994C13.9186 10.5137 13.8581 10.4401 13.7811 10.3869C12.7205 9.65813 12.4999 8.415 12.4999 7.5C12.4999 6.39563 13.3418 5.43375 13.8436 4.95813C13.893 4.9114 13.9323 4.8551 13.9592 4.79267C13.9861 4.73023 13.9999 4.66297 13.9999 4.595C13.9999 4.52703 13.9861 4.45977 13.9592 4.39734C13.9323 4.3349 13.893 4.2786 13.8436 4.23188C13.0511 3.48375 11.7386 3 10.4999 3C9.61006 3.0008 8.7403 3.26455 7.9999 3.75813C7.13622 3.17898 6.09773 2.91888 5.06303 3.02256C4.02833 3.12625 3.0621 3.58724 2.33052 4.32625C1.89317 4.77275 1.55001 5.30258 1.32143 5.88429C1.09285 6.466 0.983504 7.08771 0.999895 7.7125C1.02443 8.76709 1.25893 9.80621 1.68968 10.7691C2.12044 11.732 2.7388 12.5994 3.50865 13.3206C3.97227 13.7587 4.58644 14.0019 5.22427 14H10.7043C11.0453 14.0006 11.3828 13.9313 11.6958 13.7961C12.0089 13.661 12.2909 13.463 12.5243 13.2144C12.9566 12.7491 13.3307 12.2327 13.638 11.6769C14.0768 10.875 14.0205 10.75 13.9561 10.5994Z" fill="black"/>
</g>
<defs>
<clipPath id="clip0_5_1547">
<rect width="16" height="16" fill="white"/>
</clipPath>
</defs>
</svg>
