<svg width="16" height="16" viewBox="0 0 16 16" fill="none" xmlns="http://www.w3.org/2000/svg">
<g clip-path="url(#clip0_5_1625)">
<path d="M13 2H3C2.73478 2 2.48043 2.10536 2.29289 2.29289C2.10536 2.48043 2 2.73478 2 3V13C2 13.2652 2.10536 13.5196 2.29289 13.7071C2.48043 13.8946 2.73478 14 3 14H13C13.2652 14 13.5196 13.8946 13.7071 13.7071C13.8946 13.5196 14 13.2652 14 13V3C14 2.73478 13.8946 2.48043 13.7071 2.29289C13.5196 2.10536 13.2652 2 13 2ZM12.325 10.0544C11.5081 10.7531 10.7688 10.9981 10.0975 10.9981C9.20625 10.9981 8.43375 10.5656 7.75562 10.1856C6.605 9.54125 5.69625 9.0325 4.325 10.205C4.2751 10.2477 4.21728 10.2801 4.15484 10.3004C4.0924 10.3208 4.02657 10.3286 3.96111 10.3235C3.89564 10.3184 3.83183 10.3005 3.7733 10.2707C3.71477 10.2409 3.66268 10.1999 3.62 10.15C3.57732 10.1001 3.54489 10.0423 3.52455 9.97984C3.50422 9.9174 3.49638 9.85157 3.50149 9.78611C3.5066 9.72064 3.52455 9.65683 3.55432 9.5983C3.58409 9.53977 3.6251 9.48768 3.675 9.445C5.57625 7.82 7.05562 8.6475 8.24438 9.31312C9.395 9.9575 10.3069 10.4662 11.675 9.29375C11.7758 9.20755 11.9067 9.16493 12.0389 9.17524C12.1711 9.18555 12.2938 9.24797 12.38 9.34875C12.4662 9.44953 12.5088 9.58043 12.4985 9.71264C12.4882 9.84485 12.4258 9.96755 12.325 10.0538V10.0544ZM12.325 6.55438C11.5081 7.25313 10.7688 7.49813 10.0975 7.49813C9.20625 7.49813 8.43375 7.06563 7.75562 6.68563C6.605 6.04125 5.69625 5.5325 4.325 6.705C4.22375 6.78667 4.09466 6.82567 3.96512 6.81372C3.83559 6.80177 3.71581 6.7398 3.63122 6.64097C3.54663 6.54215 3.50389 6.41425 3.51206 6.28442C3.52023 6.15459 3.57868 6.03306 3.675 5.94562C5.57625 4.32062 7.05562 5.14812 8.24438 5.81375C9.395 6.45812 10.3069 6.96688 11.675 5.79437C11.7249 5.7517 11.7827 5.71926 11.8452 5.69893C11.9076 5.67859 11.9734 5.67076 12.0389 5.67586C12.1044 5.68097 12.1682 5.69892 12.2267 5.72869C12.2852 5.75847 12.3373 5.79947 12.38 5.84937C12.4227 5.89928 12.4551 5.9571 12.4754 6.01953C12.4958 6.08197 12.5036 6.1478 12.4985 6.21327C12.4934 6.27873 12.4755 6.34255 12.4457 6.40108C12.4159 6.4596 12.3749 6.5117 12.325 6.55438Z" fill="black"/>
</g>
<defs>
<clipPath id="clip0_5_1625">
<rect width="16" height="16" fill="white"/>
</clipPath>
</defs>
</svg>
