<svg width="16" height="16" viewBox="0 0 16 16" fill="none" xmlns="http://www.w3.org/2000/svg">
<g clip-path="url(#clip0_5_1528)">
<path d="M15 8.25C15 8.67078 14.8483 9.07747 14.5728 9.39553C14.2973 9.7136 13.9165 9.92176 13.5 9.98188V12.5C13.5 12.7652 13.3946 13.0196 13.2071 13.2071C13.0196 13.3946 12.7652 13.5 12.5 13.5H3.5C3.23478 13.5 2.98043 13.3946 2.79289 13.2071C2.60536 13.0196 2.5 12.7652 2.5 12.5V9.98188C2.16799 9.93395 1.85675 9.79162 1.60334 9.57182C1.34994 9.35203 1.16504 9.06403 1.07067 8.74212C0.976306 8.42022 0.976445 8.07798 1.07107 7.75615C1.1657 7.43433 1.35084 7.14648 1.60442 6.92689C1.85801 6.7073 2.16937 6.56522 2.50141 6.51757C2.83346 6.46992 3.17221 6.51871 3.47731 6.65812C3.78242 6.79754 4.04103 7.02171 4.22234 7.30393C4.40366 7.58616 4.50003 7.91455 4.5 8.25V10.5C4.5 10.6326 4.55268 10.7598 4.64645 10.8536C4.74021 10.9473 4.86739 11 5 11C5.13261 11 5.25979 10.9473 5.35355 10.8536C5.44732 10.7598 5.5 10.6326 5.5 10.5V9H10.5V10.5C10.5 10.6326 10.5527 10.7598 10.6464 10.8536C10.7402 10.9473 10.8674 11 11 11C11.1326 11 11.2598 10.9473 11.3536 10.8536C11.4473 10.7598 11.5 10.6326 11.5 10.5V8.25C11.5 7.78587 11.6844 7.34075 12.0126 7.01256C12.3408 6.68437 12.7859 6.5 13.25 6.5C13.7141 6.5 14.1592 6.68437 14.4874 7.01256C14.8156 7.34075 15 7.78587 15 8.25ZM2.75 5.5C3.43574 5.50097 4.09644 5.75776 4.60285 6.22013C5.10926 6.6825 5.42494 7.31718 5.48812 8H10.5119C10.5751 7.31718 10.8907 6.6825 11.3972 6.22013C11.9036 5.75776 12.5643 5.50097 13.25 5.5C13.3163 5.5 13.3799 5.47366 13.4268 5.42678C13.4737 5.37989 13.5 5.3163 13.5 5.25V4.5C13.5 3.83696 13.2366 3.20107 12.7678 2.73223C12.2989 2.26339 11.663 2 11 2H5C4.33696 2 3.70107 2.26339 3.23223 2.73223C2.76339 3.20107 2.5 3.83696 2.5 4.5V5.25C2.5 5.3163 2.52634 5.37989 2.57322 5.42678C2.62011 5.47366 2.6837 5.5 2.75 5.5Z" fill="black"/>
</g>
<defs>
<clipPath id="clip0_5_1528">
<rect width="16" height="16" fill="white"/>
</clipPath>
</defs>
</svg>
