<svg width="16" height="16" viewBox="0 0 16 16" fill="none" xmlns="http://www.w3.org/2000/svg">
<g clip-path="url(#clip0_5_1529)">
<path d="M14.3538 8.85375L8.35378 14.8538C8.30734 14.9002 8.2522 14.9371 8.1915 14.9623C8.1308 14.9874 8.06574 15.0004 8.00003 15.0004C7.93432 15.0004 7.86926 14.9874 7.80856 14.9623C7.74786 14.9371 7.69271 14.9002 7.64628 14.8538L1.64628 8.85375C1.57627 8.78382 1.52859 8.6947 1.50926 8.59765C1.48994 8.50061 1.49984 8.40002 1.53772 8.30861C1.57559 8.21719 1.63974 8.13908 1.72204 8.08414C1.80433 8.0292 1.90108 7.99992 2.00003 8H4.50003V6.5C4.50003 6.36739 4.55271 6.24021 4.64647 6.14645C4.74024 6.05268 4.86742 6 5.00003 6H11C11.1326 6 11.2598 6.05268 11.3536 6.14645C11.4473 6.24021 11.5 6.36739 11.5 6.5V8H14C14.099 7.99992 14.1957 8.0292 14.278 8.08414C14.3603 8.13908 14.4245 8.21719 14.4623 8.30861C14.5002 8.40002 14.5101 8.50061 14.4908 8.59765C14.4715 8.6947 14.4238 8.78382 14.3538 8.85375ZM11.5 2.5C11.5 2.36739 11.4473 2.24021 11.3536 2.14645C11.2598 2.05268 11.1326 2 11 2H5.00003C4.86742 2 4.74024 2.05268 4.64647 2.14645C4.55271 2.24021 4.50003 2.36739 4.50003 2.5C4.50003 2.63261 4.55271 2.75979 4.64647 2.85355C4.74024 2.94732 4.86742 3 5.00003 3H11C11.1326 3 11.2598 2.94732 11.3536 2.85355C11.4473 2.75979 11.5 2.63261 11.5 2.5ZM11.5 4.5C11.5 4.36739 11.4473 4.24021 11.3536 4.14645C11.2598 4.05268 11.1326 4 11 4H5.00003C4.86742 4 4.74024 4.05268 4.64647 4.14645C4.55271 4.24021 4.50003 4.36739 4.50003 4.5C4.50003 4.63261 4.55271 4.75979 4.64647 4.85355C4.74024 4.94732 4.86742 5 5.00003 5H11C11.1326 5 11.2598 4.94732 11.3536 4.85355C11.4473 4.75979 11.5 4.63261 11.5 4.5Z" fill="black"/>
</g>
<defs>
<clipPath id="clip0_5_1529">
<rect width="16" height="16" fill="white"/>
</clipPath>
</defs>
</svg>
