<svg width="16" height="16" viewBox="0 0 16 16" fill="none" xmlns="http://www.w3.org/2000/svg">
<g clip-path="url(#clip0_5_1533)">
<path d="M13 2H3C2.73478 2 2.48043 2.10536 2.29289 2.29289C2.10536 2.48043 2 2.73478 2 3V13C2 13.2652 2.10536 13.5196 2.29289 13.7071C2.48043 13.8946 2.73478 14 3 14H13C13.2652 14 13.5196 13.8946 13.7071 13.7071C13.8946 13.5196 14 13.2652 14 13V3C14 2.73478 13.8946 2.48043 13.7071 2.29289C13.5196 2.10536 13.2652 2 13 2ZM10.3538 7.85375C10.3073 7.90024 10.2522 7.93712 10.1915 7.96228C10.1308 7.98744 10.0657 8.00039 10 8.00039C9.93429 8.00039 9.86923 7.98744 9.80853 7.96228C9.74783 7.93712 9.69269 7.90024 9.64625 7.85375L8.5 6.70687V10.5C8.5 10.6326 8.44732 10.7598 8.35355 10.8536C8.25979 10.9473 8.13261 11 8 11C7.86739 11 7.74021 10.9473 7.64645 10.8536C7.55268 10.7598 7.5 10.6326 7.5 10.5V6.70687L6.35375 7.85375C6.25993 7.94757 6.13268 8.00028 6 8.00028C5.86732 8.00028 5.74007 7.94757 5.64625 7.85375C5.55243 7.75993 5.49972 7.63268 5.49972 7.5C5.49972 7.36732 5.55243 7.24007 5.64625 7.14625L7.64625 5.14625C7.69269 5.09976 7.74783 5.06288 7.80853 5.03772C7.86923 5.01256 7.93429 4.99961 8 4.99961C8.06571 4.99961 8.13077 5.01256 8.19147 5.03772C8.25217 5.06288 8.30731 5.09976 8.35375 5.14625L10.3538 7.14625C10.4002 7.19269 10.4371 7.24783 10.4623 7.30853C10.4874 7.36923 10.5004 7.43429 10.5004 7.5C10.5004 7.56571 10.4874 7.63077 10.4623 7.69147C10.4371 7.75217 10.4002 7.80731 10.3538 7.85375Z" fill="black"/>
</g>
<defs>
<clipPath id="clip0_5_1533">
<rect width="16" height="16" fill="white"/>
</clipPath>
</defs>
</svg>
