<svg width="16" height="16" viewBox="0 0 16 16" fill="none" xmlns="http://www.w3.org/2000/svg">
<g clip-path="url(#clip0_5_1391)">
<path d="M14 8C14 8.13261 13.9473 8.25979 13.8536 8.35355C13.7598 8.44732 13.6326 8.5 13.5 8.5H2.5C2.36739 8.5 2.24021 8.44732 2.14645 8.35355C2.05268 8.25979 2 8.13261 2 8C2 7.86739 2.05268 7.74021 2.14645 7.64645C2.24021 7.55268 2.36739 7.5 2.5 7.5H13.5C13.6326 7.5 13.7598 7.55268 13.8536 7.64645C13.9473 7.74021 14 7.86739 14 8ZM7.64625 6.35375C7.69269 6.40024 7.74783 6.43712 7.80853 6.46228C7.86923 6.48744 7.93429 6.50039 8 6.50039C8.06571 6.50039 8.13077 6.48744 8.19147 6.46228C8.25217 6.43712 8.30731 6.40024 8.35375 6.35375L10.3538 4.35375C10.4238 4.28382 10.4714 4.1947 10.4908 4.09765C10.5101 4.00061 10.5002 3.90002 10.4623 3.8086C10.4244 3.71719 10.3603 3.63908 10.278 3.58414C10.1957 3.5292 10.0989 3.49992 10 3.5H8.5V1C8.5 0.867392 8.44732 0.740215 8.35355 0.646447C8.25979 0.552678 8.13261 0.5 8 0.5C7.86739 0.5 7.74021 0.552678 7.64645 0.646447C7.55268 0.740215 7.5 0.867392 7.5 1V3.5H6C5.90105 3.49992 5.80431 3.5292 5.72201 3.58414C5.63971 3.63908 5.57556 3.71719 5.53769 3.8086C5.49981 3.90002 5.48991 4.00061 5.50924 4.09765C5.52856 4.1947 5.57624 4.28382 5.64625 4.35375L7.64625 6.35375ZM8.35375 9.64625C8.30731 9.59976 8.25217 9.56288 8.19147 9.53772C8.13077 9.51256 8.06571 9.49961 8 9.49961C7.93429 9.49961 7.86923 9.51256 7.80853 9.53772C7.74783 9.56288 7.69269 9.59976 7.64625 9.64625L5.64625 11.6462C5.57624 11.7162 5.52856 11.8053 5.50924 11.9023C5.48991 11.9994 5.49981 12.1 5.53769 12.1914C5.57556 12.2828 5.63971 12.3609 5.72201 12.4159C5.80431 12.4708 5.90105 12.5001 6 12.5H7.5V15C7.5 15.1326 7.55268 15.2598 7.64645 15.3536C7.74021 15.4473 7.86739 15.5 8 15.5C8.13261 15.5 8.25979 15.4473 8.35355 15.3536C8.44732 15.2598 8.5 15.1326 8.5 15V12.5H10C10.0989 12.5001 10.1957 12.4708 10.278 12.4159C10.3603 12.3609 10.4244 12.2828 10.4623 12.1914C10.5002 12.1 10.5101 11.9994 10.4908 11.9023C10.4714 11.8053 10.4238 11.7162 10.3538 11.6462L8.35375 9.64625Z" fill="black"/>
</g>
<defs>
<clipPath id="clip0_5_1391">
<rect width="16" height="16" fill="white"/>
</clipPath>
</defs>
</svg>
