<svg width="16" height="16" viewBox="0 0 16 16" fill="none" xmlns="http://www.w3.org/2000/svg">
<g clip-path="url(#clip0_5_1438)">
<path d="M14.4999 9.00003C14.4987 10.0605 14.0769 11.0773 13.3271 11.8272C12.5772 12.5771 11.5604 12.9989 10.4999 13H4.99991C4.8673 13 4.74012 12.9473 4.64635 12.8536C4.55258 12.7598 4.49991 12.6326 4.49991 12.5C4.49991 12.3674 4.55258 12.2402 4.64635 12.1465C4.74012 12.0527 4.8673 12 4.99991 12H10.4999C11.2956 12 12.0586 11.684 12.6212 11.1213C13.1838 10.5587 13.4999 9.79568 13.4999 9.00003C13.4999 8.20438 13.1838 7.44132 12.6212 6.87871C12.0586 6.3161 11.2956 6.00003 10.4999 6.00003H5.49991V8.50003C5.49998 8.59898 5.4707 8.69572 5.41577 8.77802C5.36083 8.86032 5.28271 8.92446 5.1913 8.96234C5.09989 9.00021 4.99929 9.01012 4.90225 8.99079C4.80521 8.97147 4.71608 8.92378 4.64615 8.85378L1.64615 5.85378C1.59967 5.80734 1.56279 5.7522 1.53763 5.6915C1.51246 5.6308 1.49951 5.56574 1.49951 5.50003C1.49951 5.43432 1.51246 5.36926 1.53763 5.30856C1.56279 5.24786 1.59967 5.19271 1.64615 5.14628L4.64615 2.14628C4.71608 2.07627 4.80521 2.02859 4.90225 2.00926C4.99929 1.98994 5.09989 1.99984 5.1913 2.03772C5.28271 2.07559 5.36083 2.13974 5.41577 2.22204C5.4707 2.30433 5.49998 2.40108 5.49991 2.50003V5.00003H10.4999C11.5604 5.00119 12.5772 5.42299 13.3271 6.17288C14.0769 6.92277 14.4987 7.93952 14.4999 9.00003Z" fill="black"/>
</g>
<defs>
<clipPath id="clip0_5_1438">
<rect width="16" height="16" fill="white"/>
</clipPath>
</defs>
</svg>
