<svg width="16" height="16" viewBox="0 0 16 16" fill="none" xmlns="http://www.w3.org/2000/svg">
<g clip-path="url(#clip0_5_1456)">
<path d="M12.9999 5.5V11C12.9999 11.1326 12.9472 11.2598 12.8535 11.3536C12.7597 11.4473 12.6325 11.5 12.4999 11.5C12.3673 11.5 12.2401 11.4473 12.1464 11.3536C12.0526 11.2598 11.9999 11.1326 11.9999 11V5.5C11.9999 4.70435 11.6838 3.94129 11.1212 3.37868C10.5586 2.81607 9.79556 2.5 8.99991 2.5C8.20426 2.5 7.44119 2.81607 6.87859 3.37868C6.31598 3.94129 5.99991 4.70435 5.99991 5.5V10.5H8.49991C8.59885 10.4999 8.6956 10.5292 8.7779 10.5841C8.86019 10.6391 8.92434 10.7172 8.96222 10.8086C9.00009 10.9 9.01 11.0006 8.99067 11.0977C8.97134 11.1947 8.92366 11.2838 8.85366 11.3538L5.85366 14.3538C5.80722 14.4002 5.75207 14.4371 5.69138 14.4623C5.63068 14.4874 5.56561 14.5004 5.49991 14.5004C5.4342 14.5004 5.36913 14.4874 5.30844 14.4623C5.24774 14.4371 5.19259 14.4002 5.14616 14.3538L2.14616 11.3538C2.07615 11.2838 2.02847 11.1947 2.00914 11.0977C1.98982 11.0006 1.99972 10.9 2.03759 10.8086C2.07547 10.7172 2.13962 10.6391 2.22191 10.5841C2.30421 10.5292 2.40096 10.4999 2.49991 10.5H4.99991V5.5C4.99991 4.43913 5.42133 3.42172 6.17148 2.67157C6.92162 1.92143 7.93904 1.5 8.99991 1.5C10.0608 1.5 11.0782 1.92143 11.8283 2.67157C12.5785 3.42172 12.9999 4.43913 12.9999 5.5Z" fill="black"/>
</g>
<defs>
<clipPath id="clip0_5_1456">
<rect width="16" height="16" fill="white"/>
</clipPath>
</defs>
</svg>
