<svg width="16" height="16" viewBox="0 0 16 16" fill="none" xmlns="http://www.w3.org/2000/svg">
<g clip-path="url(#clip0_5_1688)">
<path d="M14.5 8C14.5 6.71442 14.1188 5.45772 13.4046 4.3888C12.6903 3.31988 11.6752 2.48676 10.4874 1.99479C9.29973 1.50282 7.99279 1.37409 6.73192 1.6249C5.47104 1.8757 4.31285 2.49477 3.40381 3.40381C2.49477 4.31285 1.8757 5.47104 1.6249 6.73192C1.37409 7.99279 1.50282 9.29973 1.99479 10.4874C2.48676 11.6752 3.31988 12.6903 4.3888 13.4046C5.45772 14.1188 6.71442 14.5 8 14.5C9.72335 14.4982 11.3756 13.8128 12.5942 12.5942C13.8128 11.3756 14.4982 9.72335 14.5 8ZM10.3538 7.85375C10.3073 7.90024 10.2522 7.93712 10.1915 7.96228C10.1308 7.98744 10.0657 8.0004 10 8.0004C9.93429 8.0004 9.86923 7.98744 9.80853 7.96228C9.74783 7.93712 9.69269 7.90024 9.64625 7.85375L8.5 6.70688V10.5C8.5 10.6326 8.44732 10.7598 8.35356 10.8536C8.25979 10.9473 8.13261 11 8 11C7.86739 11 7.74022 10.9473 7.64645 10.8536C7.55268 10.7598 7.5 10.6326 7.5 10.5V6.70688L6.35375 7.85375C6.25993 7.94757 6.13268 8.00028 6 8.00028C5.86732 8.00028 5.74007 7.94757 5.64625 7.85375C5.55243 7.75993 5.49972 7.63268 5.49972 7.5C5.49972 7.36732 5.55243 7.24007 5.64625 7.14625L7.64625 5.14625C7.69269 5.09976 7.74783 5.06289 7.80853 5.03772C7.86923 5.01256 7.9343 4.99961 8 4.99961C8.06571 4.99961 8.13077 5.01256 8.19147 5.03772C8.25217 5.06289 8.30732 5.09976 8.35375 5.14625L10.3538 7.14625C10.4002 7.19269 10.4371 7.24783 10.4623 7.30853C10.4874 7.36923 10.5004 7.4343 10.5004 7.5C10.5004 7.56571 10.4874 7.63077 10.4623 7.69147C10.4371 7.75217 10.4002 7.80732 10.3538 7.85375Z" fill="black"/>
</g>
<defs>
<clipPath id="clip0_5_1688">
<rect width="16" height="16" fill="white"/>
</clipPath>
</defs>
</svg>
