<svg width="16" height="16" viewBox="0 0 16 16" fill="none" xmlns="http://www.w3.org/2000/svg">
<g clip-path="url(#clip0_5_1666)">
<path d="M14.9998 3.49999V6.49999C14.9998 6.6326 14.9472 6.75977 14.8534 6.85354C14.7596 6.94731 14.6325 6.99999 14.4998 6.99999H11.4998C11.4009 7.00006 11.3041 6.97078 11.2219 6.91585C11.1396 6.86091 11.0754 6.78279 11.0375 6.69138C10.9997 6.59997 10.9898 6.49938 11.0091 6.40233C11.0284 6.30529 11.0761 6.21616 11.1461 6.14624L12.2086 5.08374L11.5492 4.48061L11.5336 4.46561C10.8386 3.77092 9.95439 3.2964 8.99131 3.10133C8.02824 2.90626 7.02903 2.99929 6.11853 3.3688C5.20802 3.73831 4.42657 4.36791 3.8718 5.17896C3.31704 5.99001 3.01355 6.94655 2.99926 7.92908C2.98496 8.9116 3.26049 9.87656 3.79143 10.7034C4.32236 11.5303 5.08516 12.1823 5.98453 12.5782C6.88391 12.974 7.87998 13.0961 8.84832 12.9291C9.81667 12.7621 10.7143 12.3135 11.4292 11.6394C11.5256 11.5482 11.6543 11.4991 11.7869 11.5027C11.9195 11.5064 12.0452 11.5627 12.1364 11.659C12.2276 11.7554 12.2767 11.8841 12.273 12.0167C12.2693 12.1493 12.2131 12.2751 12.1167 12.3662C11.005 13.419 9.53095 14.004 7.99984 14H7.91734C6.93468 13.9865 5.97036 13.7319 5.10915 13.2585C4.24794 12.7851 3.51621 12.1073 2.97825 11.2849C2.4403 10.4625 2.11261 9.52046 2.02397 8.54171C1.93533 7.56296 2.08846 6.57742 2.46991 5.67171C2.85136 4.766 3.44944 3.96786 4.21159 3.34742C4.97373 2.72699 5.87662 2.30326 6.84087 2.11348C7.80513 1.92371 8.80124 1.97369 9.74166 2.25904C10.6821 2.54439 11.538 3.05637 12.2342 3.74999L12.9173 4.37499L14.1461 3.14374C14.2162 3.07358 14.3055 3.02584 14.4028 3.00659C14.5001 2.98735 14.6009 2.99746 14.6924 3.03565C14.7839 3.07383 14.862 3.13837 14.9167 3.22105C14.9715 3.30373 15.0004 3.40083 14.9998 3.49999Z" fill="black"/>
</g>
<defs>
<clipPath id="clip0_5_1666">
<rect width="16" height="16" fill="white"/>
</clipPath>
</defs>
</svg>
