<svg width="16" height="16" viewBox="0 0 16 16" fill="none" xmlns="http://www.w3.org/2000/svg">
<g clip-path="url(#clip0_5_1700)">
<path d="M10.4619 12.3088C10.4998 12.4001 10.5098 12.5007 10.4905 12.5977C10.4713 12.6947 10.4237 12.7838 10.3538 12.8538L8.35378 14.8538C8.30734 14.9003 8.2522 14.9371 8.1915 14.9623C8.1308 14.9875 8.06574 15.0004 8.00003 15.0004C7.93432 15.0004 7.86926 14.9875 7.80856 14.9623C7.74786 14.9371 7.69271 14.9003 7.64628 14.8538L5.64628 12.8538C5.57627 12.7838 5.52859 12.6947 5.50926 12.5977C5.48994 12.5006 5.49984 12.4 5.53772 12.3086C5.57559 12.2172 5.63974 12.1391 5.72204 12.0842C5.80433 12.0292 5.90108 11.9999 6.00003 12H7.50003V4.00003H6.00003C5.90108 4.00011 5.80433 3.97082 5.72204 3.91589C5.63974 3.86095 5.57559 3.78283 5.53772 3.69142C5.49984 3.60001 5.48994 3.49942 5.50926 3.40237C5.52859 3.30533 5.57627 3.2162 5.64628 3.14628L7.64628 1.14628C7.69271 1.09979 7.74786 1.06291 7.80856 1.03775C7.86926 1.01259 7.93432 0.999634 8.00003 0.999634C8.06574 0.999634 8.1308 1.01259 8.1915 1.03775C8.2522 1.06291 8.30734 1.09979 8.35378 1.14628L10.3538 3.14628C10.4238 3.2162 10.4715 3.30533 10.4908 3.40237C10.5101 3.49942 10.5002 3.60001 10.4623 3.69142C10.4245 3.78283 10.3603 3.86095 10.278 3.91589C10.1957 3.97082 10.099 4.00011 10 4.00003H8.50003V12H10C10.0989 12 10.1956 12.0294 10.2778 12.0843C10.36 12.1393 10.4241 12.2174 10.4619 12.3088Z" fill="black"/>
</g>
<defs>
<clipPath id="clip0_5_1700">
<rect width="16" height="16" fill="white"/>
</clipPath>
</defs>
</svg>
