<svg width="16" height="16" viewBox="0 0 16 16" fill="none" xmlns="http://www.w3.org/2000/svg">
<g clip-path="url(#clip0_5_1523)">
<path d="M8.30875 14.4619C8.21738 14.4241 8.13928 14.36 8.08432 14.2778C8.02936 14.1956 8.00002 14.0989 8 14V11.5H6.5C6.36739 11.5 6.24021 11.4473 6.14645 11.3536C6.05268 11.2598 6 11.1326 6 11V5.00003C6 4.86742 6.05268 4.74024 6.14645 4.64647C6.24021 4.55271 6.36739 4.50003 6.5 4.50003H8V2.00003C7.99992 1.90108 8.0292 1.80433 8.08414 1.72204C8.13908 1.63974 8.21719 1.57559 8.30861 1.53772C8.40002 1.49984 8.50061 1.48994 8.59765 1.50926C8.6947 1.52859 8.78382 1.57627 8.85375 1.64628L14.8538 7.64628C14.9002 7.69271 14.9371 7.74786 14.9623 7.80856C14.9874 7.86926 15.0004 7.93432 15.0004 8.00003C15.0004 8.06574 14.9874 8.1308 14.9623 8.1915C14.9371 8.2522 14.9002 8.30734 14.8538 8.35378L8.85375 14.3538C8.78379 14.4237 8.69466 14.4713 8.59765 14.4905C8.50064 14.5098 8.4001 14.4998 8.30875 14.4619ZM3 11V5.00003C3 4.86742 2.94732 4.74024 2.85355 4.64647C2.75979 4.55271 2.63261 4.50003 2.5 4.50003C2.36739 4.50003 2.24021 4.55271 2.14645 4.64647C2.05268 4.74024 2 4.86742 2 5.00003V11C2 11.1326 2.05268 11.2598 2.14645 11.3536C2.24021 11.4473 2.36739 11.5 2.5 11.5C2.63261 11.5 2.75979 11.4473 2.85355 11.3536C2.94732 11.2598 3 11.1326 3 11ZM5 11V5.00003C5 4.86742 4.94732 4.74024 4.85355 4.64647C4.75979 4.55271 4.63261 4.50003 4.5 4.50003C4.36739 4.50003 4.24021 4.55271 4.14645 4.64647C4.05268 4.74024 4 4.86742 4 5.00003V11C4 11.1326 4.05268 11.2598 4.14645 11.3536C4.24021 11.4473 4.36739 11.5 4.5 11.5C4.63261 11.5 4.75979 11.4473 4.85355 11.3536C4.94732 11.2598 5 11.1326 5 11Z" fill="black"/>
</g>
<defs>
<clipPath id="clip0_5_1523">
<rect width="16" height="16" fill="white"/>
</clipPath>
</defs>
</svg>
