<svg width="16" height="16" viewBox="0 0 16 16" fill="none" xmlns="http://www.w3.org/2000/svg">
<g clip-path="url(#clip0_5_1555)">
<path d="M13.3538 11.3538L11.3538 13.3538C11.2838 13.4238 11.1947 13.4715 11.0977 13.4908C11.0006 13.5101 10.9 13.5002 10.8086 13.4623C10.7172 13.4245 10.6391 13.3603 10.5842 13.278C10.5292 13.1957 10.4999 13.099 10.5 13V11.5H3.00003C2.86742 11.5 2.74024 11.4473 2.64647 11.3536C2.55271 11.2598 2.50003 11.1326 2.50003 11C2.50003 10.8674 2.55271 10.7402 2.64647 10.6465C2.74024 10.5527 2.86742 10.5 3.00003 10.5H10.5V9.00003C10.4999 8.90108 10.5292 8.80433 10.5842 8.72204C10.6391 8.63974 10.7172 8.57559 10.8086 8.53772C10.9 8.49984 11.0006 8.48994 11.0977 8.50926C11.1947 8.52859 11.2838 8.57627 11.3538 8.64628L13.3538 10.6463C13.4003 10.6927 13.4371 10.7479 13.4623 10.8086C13.4875 10.8693 13.5004 10.9343 13.5004 11C13.5004 11.0657 13.4875 11.1308 13.4623 11.1915C13.4371 11.2522 13.4003 11.3073 13.3538 11.3538ZM4.64628 7.35378C4.7162 7.42378 4.80533 7.47147 4.90237 7.49079C4.99942 7.51012 5.10001 7.50022 5.19142 7.46234C5.28283 7.42446 5.36095 7.36032 5.41589 7.27802C5.47082 7.19572 5.50011 7.09898 5.50003 7.00003V5.50003H13C13.1326 5.50003 13.2598 5.44735 13.3536 5.35358C13.4473 5.25981 13.5 5.13264 13.5 5.00003C13.5 4.86742 13.4473 4.74024 13.3536 4.64647C13.2598 4.55271 13.1326 4.50003 13 4.50003H5.50003V3.00003C5.50011 2.90108 5.47082 2.80433 5.41589 2.72204C5.36095 2.63974 5.28283 2.57559 5.19142 2.53772C5.10001 2.49984 4.99942 2.48994 4.90237 2.50926C4.80533 2.52859 4.7162 2.57627 4.64628 2.64628L2.64628 4.64628C2.59979 4.69271 2.56291 4.74786 2.53775 4.80856C2.51259 4.86926 2.49963 4.93432 2.49963 5.00003C2.49963 5.06574 2.51259 5.1308 2.53775 5.1915C2.56291 5.2522 2.59979 5.30734 2.64628 5.35378L4.64628 7.35378Z" fill="black"/>
</g>
<defs>
<clipPath id="clip0_5_1555">
<rect width="16" height="16" fill="white"/>
</clipPath>
</defs>
</svg>
