<svg width="16" height="16" viewBox="0 0 16 16" fill="none" xmlns="http://www.w3.org/2000/svg">
<g clip-path="url(#clip0_5_1409)">
<path d="M7.46178 10.8088C7.49968 10.9001 7.50964 11.0007 7.49039 11.0977C7.47114 11.1947 7.42356 11.2838 7.35366 11.3538L5.35366 13.3538C5.30722 13.4003 5.25207 13.4371 5.19138 13.4623C5.13068 13.4875 5.06561 13.5004 4.99991 13.5004C4.9342 13.5004 4.86913 13.4875 4.80844 13.4623C4.74774 13.4371 4.69259 13.4003 4.64616 13.3538L2.64616 11.3538C2.57615 11.2838 2.52847 11.1947 2.50914 11.0977C2.48982 11.0006 2.49972 10.9 2.53759 10.8086C2.57547 10.7172 2.63962 10.6391 2.72191 10.5842C2.80421 10.5292 2.90096 10.4999 2.99991 10.5H4.49991V3.00003C4.49991 2.86742 4.55258 2.74024 4.64635 2.64647C4.74012 2.55271 4.8673 2.50003 4.99991 2.50003C5.13251 2.50003 5.25969 2.55271 5.35346 2.64647C5.44723 2.74024 5.49991 2.86742 5.49991 3.00003V10.5H6.99991C7.0988 10.5 7.19546 10.5294 7.27767 10.5843C7.35988 10.6393 7.42395 10.7174 7.46178 10.8088ZM13.3537 4.64628L11.3537 2.64628C11.3072 2.59979 11.2521 2.56291 11.1914 2.53775C11.1307 2.51259 11.0656 2.49963 10.9999 2.49963C10.9342 2.49963 10.8691 2.51259 10.8084 2.53775C10.7477 2.56291 10.6926 2.59979 10.6462 2.64628L8.64616 4.64628C8.57615 4.7162 8.52847 4.80533 8.50914 4.90237C8.48982 4.99942 8.49972 5.10001 8.53759 5.19142C8.57547 5.28283 8.63962 5.36095 8.72191 5.41589C8.80421 5.47082 8.90096 5.50011 8.99991 5.50003H10.4999V13C10.4999 13.1326 10.5526 13.2598 10.6464 13.3536C10.7401 13.4473 10.8673 13.5 10.9999 13.5C11.1325 13.5 11.2597 13.4473 11.3535 13.3536C11.4472 13.2598 11.4999 13.1326 11.4999 13V5.50003H12.9999C13.0989 5.50011 13.1956 5.47082 13.2779 5.41589C13.3602 5.36095 13.4243 5.28283 13.4622 5.19142C13.5001 5.10001 13.51 4.99942 13.4907 4.90237C13.4713 4.80533 13.4237 4.7162 13.3537 4.64628Z" fill="black"/>
</g>
<defs>
<clipPath id="clip0_5_1409">
<rect width="16" height="16" fill="white"/>
</clipPath>
</defs>
</svg>
