<svg width="16" height="16" viewBox="0 0 16 16" fill="none" xmlns="http://www.w3.org/2000/svg">
<g clip-path="url(#clip0_5_1500)">
<path d="M12.8538 8.64625C12.9238 8.71618 12.9714 8.8053 12.9908 8.90235C13.0101 8.99939 13.0002 9.09998 12.9623 9.19139C12.9244 9.28281 12.8603 9.36092 12.778 9.41586C12.6957 9.4708 12.5989 9.50008 12.5 9.5H8.5V14C8.5 14.1326 8.44732 14.2598 8.35355 14.3536C8.25979 14.4473 8.13261 14.5 8 14.5C7.86739 14.5 7.74021 14.4473 7.64645 14.3536C7.55268 14.2598 7.5 14.1326 7.5 14V9.5H3.5C3.40105 9.50008 3.30431 9.4708 3.22201 9.41586C3.13971 9.36092 3.07556 9.28281 3.03769 9.19139C2.99981 9.09998 2.98991 8.99939 3.00924 8.90235C3.02856 8.8053 3.07624 8.71618 3.14625 8.64625L7.64625 4.14625C7.69269 4.09976 7.74783 4.06288 7.80853 4.03772C7.86923 4.01256 7.93429 3.99961 8 3.99961C8.06571 3.99961 8.13077 4.01256 8.19147 4.03772C8.25217 4.06288 8.30731 4.09976 8.35375 4.14625L12.8538 8.64625ZM13.5 2H2.5C2.36739 2 2.24021 2.05268 2.14645 2.14645C2.05268 2.24021 2 2.36739 2 2.5C2 2.63261 2.05268 2.75979 2.14645 2.85355C2.24021 2.94732 2.36739 3 2.5 3H13.5C13.6326 3 13.7598 2.94732 13.8536 2.85355C13.9473 2.75979 14 2.63261 14 2.5C14 2.36739 13.9473 2.24021 13.8536 2.14645C13.7598 2.05268 13.6326 2 13.5 2Z" fill="black"/>
</g>
<defs>
<clipPath id="clip0_5_1500">
<rect width="16" height="16" fill="white"/>
</clipPath>
</defs>
</svg>
