<svg width="16" height="16" viewBox="0 0 16 16" fill="none" xmlns="http://www.w3.org/2000/svg">
<g clip-path="url(#clip0_5_1443)">
<path d="M13.9619 5.19128C13.924 5.28265 13.86 5.36075 13.7778 5.41571C13.6956 5.47066 13.5989 5.50001 13.5 5.50003H11V10.5C11 11.5609 10.5786 12.5783 9.82843 13.3285C9.07828 14.0786 8.06087 14.5 7 14.5C5.93913 14.5 4.92172 14.0786 4.17157 13.3285C3.42143 12.5783 3 11.5609 3 10.5V5.00003C3 4.86742 3.05268 4.74024 3.14645 4.64647C3.24021 4.55271 3.36739 4.50003 3.5 4.50003C3.63261 4.50003 3.75979 4.55271 3.85355 4.64647C3.94732 4.74024 4 4.86742 4 5.00003V10.5C4 11.2957 4.31607 12.0587 4.87868 12.6213C5.44129 13.184 6.20435 13.5 7 13.5C7.79565 13.5 8.55871 13.184 9.12132 12.6213C9.68393 12.0587 10 11.2957 10 10.5V5.50003H7.5C7.40105 5.5001 7.30431 5.47082 7.22201 5.41589C7.13971 5.36095 7.07556 5.28283 7.03769 5.19142C6.99981 5.10001 6.98991 4.99942 7.00924 4.90237C7.02856 4.80533 7.07624 4.7162 7.14625 4.64628L10.1462 1.64628C10.1927 1.59979 10.2478 1.56291 10.3085 1.53775C10.3692 1.51258 10.4343 1.49963 10.5 1.49963C10.5657 1.49963 10.6308 1.51258 10.6915 1.53775C10.7522 1.56291 10.8073 1.59979 10.8538 1.64628L13.8538 4.64628C13.9237 4.71624 13.9712 4.80537 13.9905 4.90238C14.0097 4.99939 13.9998 5.09993 13.9619 5.19128Z" fill="black"/>
</g>
<defs>
<clipPath id="clip0_5_1443">
<rect width="16" height="16" fill="white"/>
</clipPath>
</defs>
</svg>
