<svg width="16" height="16" viewBox="0 0 16 16" fill="none" xmlns="http://www.w3.org/2000/svg">
<g clip-path="url(#clip0_5_1460)">
<path d="M14 8.00003C14 8.13264 13.9473 8.25981 13.8536 8.35358C13.7598 8.44735 13.6326 8.50003 13.5 8.50003H2.5C2.36739 8.50003 2.24021 8.44735 2.14645 8.35358C2.05268 8.25981 2 8.13264 2 8.00003C2 7.86742 2.05268 7.74024 2.14645 7.64647C2.24021 7.55271 2.36739 7.50003 2.5 7.50003H13.5C13.6326 7.50003 13.7598 7.55271 13.8536 7.64647C13.9473 7.74024 14 7.86742 14 8.00003ZM6 3.50003H7.5V6.00003C7.5 6.13264 7.55268 6.25981 7.64645 6.35358C7.74021 6.44735 7.86739 6.50003 8 6.50003C8.13261 6.50003 8.25979 6.44735 8.35355 6.35358C8.44732 6.25981 8.5 6.13264 8.5 6.00003V3.50003H10C10.0989 3.50011 10.1957 3.47082 10.278 3.41589C10.3603 3.36095 10.4244 3.28283 10.4623 3.19142C10.5002 3.10001 10.5101 2.99942 10.4908 2.90237C10.4714 2.80533 10.4238 2.7162 10.3538 2.64628L8.35375 0.646277C8.30731 0.599789 8.25217 0.562909 8.19147 0.537747C8.13077 0.512585 8.06571 0.499634 8 0.499634C7.93429 0.499634 7.86923 0.512585 7.80853 0.537747C7.74783 0.562909 7.69269 0.599789 7.64625 0.646277L5.64625 2.64628C5.57624 2.7162 5.52856 2.80533 5.50924 2.90237C5.48991 2.99942 5.49981 3.10001 5.53769 3.19142C5.57556 3.28283 5.63971 3.36095 5.72201 3.41589C5.80431 3.47082 5.90105 3.50011 6 3.50003ZM10 12.5H8.5V10C8.5 9.86742 8.44732 9.74024 8.35355 9.64647C8.25979 9.5527 8.13261 9.50003 8 9.50003C7.86739 9.50003 7.74021 9.5527 7.64645 9.64647C7.55268 9.74024 7.5 9.86742 7.5 10V12.5H6C5.90105 12.4999 5.80431 12.5292 5.72201 12.5842C5.63971 12.6391 5.57556 12.7172 5.53769 12.8086C5.49981 12.9 5.48991 13.0006 5.50924 13.0977C5.52856 13.1947 5.57624 13.2838 5.64625 13.3538L7.64625 15.3538C7.69269 15.4003 7.74783 15.4371 7.80853 15.4623C7.86923 15.4875 7.93429 15.5004 8 15.5004C8.06571 15.5004 8.13077 15.4875 8.19147 15.4623C8.25217 15.4371 8.30731 15.4003 8.35375 15.3538L10.3538 13.3538C10.4238 13.2838 10.4714 13.1947 10.4908 13.0977C10.5101 13.0006 10.5002 12.9 10.4623 12.8086C10.4244 12.7172 10.3603 12.6391 10.278 12.5842C10.1957 12.5292 10.0989 12.4999 10 12.5Z" fill="black"/>
</g>
<defs>
<clipPath id="clip0_5_1460">
<rect width="16" height="16" fill="white"/>
</clipPath>
</defs>
</svg>
