<svg width="16" height="16" viewBox="0 0 16 16" fill="none" xmlns="http://www.w3.org/2000/svg">
<g clip-path="url(#clip0_5_1309)">
<path d="M14.3538 6.85378L11.3538 9.85378C11.2838 9.92378 11.1947 9.97147 11.0977 9.99079C11.0006 10.0101 10.9 10.0002 10.8086 9.96234C10.7172 9.92446 10.6391 9.86032 10.5841 9.77802C10.5292 9.69572 10.4999 9.59898 10.5 9.50003V7.00003H8C6.54182 7.00168 5.14383 7.58168 4.11274 8.61277C3.08165 9.64386 2.50165 11.0418 2.5 12.5C2.5 12.6326 2.44732 12.7598 2.35355 12.8536C2.25979 12.9473 2.13261 13 2 13C1.86739 13 1.74021 12.9473 1.64645 12.8536C1.55268 12.7598 1.5 12.6326 1.5 12.5C1.50182 10.7767 2.18722 9.12444 3.40582 7.90584C4.62441 6.68725 6.27665 6.00185 8 6.00003H10.5V3.50003C10.4999 3.40108 10.5292 3.30433 10.5841 3.22204C10.6391 3.13974 10.7172 3.07559 10.8086 3.03772C10.9 2.99984 11.0006 2.98994 11.0977 3.00926C11.1947 3.02859 11.2838 3.07627 11.3538 3.14628L14.3538 6.14628C14.4002 6.19271 14.4371 6.24786 14.4623 6.30856C14.4874 6.36926 14.5004 6.43432 14.5004 6.50003C14.5004 6.56574 14.4874 6.6308 14.4623 6.6915C14.4371 6.7522 14.4002 6.80734 14.3538 6.85378Z" fill="black"/>
</g>
<defs>
<clipPath id="clip0_5_1309">
<rect width="16" height="16" fill="white"/>
</clipPath>
</defs>
</svg>
