<svg width="16" height="16" viewBox="0 0 16 16" fill="none" xmlns="http://www.w3.org/2000/svg">
<g clip-path="url(#clip0_5_1521)">
<path d="M8.30875 14.4619C8.21738 14.4241 8.13928 14.36 8.08432 14.2778C8.02936 14.1956 8.00002 14.0989 8 14V11.5H3C2.73478 11.5 2.48043 11.3947 2.29289 11.2071C2.10536 11.0196 2 10.7652 2 10.5V5.50003C2 5.23481 2.10536 4.98046 2.29289 4.79292C2.48043 4.60538 2.73478 4.50003 3 4.50003H8V2.00003C7.99992 1.90108 8.0292 1.80433 8.08414 1.72204C8.13908 1.63974 8.21719 1.57559 8.30861 1.53772C8.40002 1.49984 8.50061 1.48994 8.59765 1.50926C8.6947 1.52859 8.78382 1.57627 8.85375 1.64628L14.8538 7.64628C14.9002 7.69271 14.9371 7.74786 14.9623 7.80856C14.9874 7.86926 15.0004 7.93432 15.0004 8.00003C15.0004 8.06574 14.9874 8.1308 14.9623 8.1915C14.9371 8.2522 14.9002 8.30734 14.8538 8.35378L8.85375 14.3538C8.78379 14.4237 8.69466 14.4713 8.59765 14.4905C8.50064 14.5098 8.4001 14.4998 8.30875 14.4619Z" fill="black"/>
</g>
<defs>
<clipPath id="clip0_5_1521">
<rect width="16" height="16" fill="white"/>
</clipPath>
</defs>
</svg>
