<svg width="16" height="16" viewBox="0 0 16 16" fill="none" xmlns="http://www.w3.org/2000/svg">
<g clip-path="url(#clip0_5_1613)">
<path d="M14.4619 7.69128C14.4241 7.78265 14.36 7.86075 14.2778 7.91571C14.1956 7.97066 14.0989 8.00001 14 8.00003H11.5V13C11.5 13.2652 11.3947 13.5196 11.2071 13.7071C11.0196 13.8947 10.7652 14 10.5 14H5.50003C5.23481 14 4.98046 13.8947 4.79292 13.7071C4.60538 13.5196 4.50003 13.2652 4.50003 13V8.00003H2.00003C1.90108 8.0001 1.80433 7.97082 1.72204 7.91589C1.63974 7.86095 1.57559 7.78283 1.53772 7.69142C1.49984 7.60001 1.48994 7.49942 1.50926 7.40237C1.52859 7.30533 1.57627 7.2162 1.64628 7.14628L7.64628 1.14628C7.69271 1.09979 7.74786 1.06291 7.80856 1.03775C7.86926 1.01259 7.93432 0.999634 8.00003 0.999634C8.06574 0.999634 8.1308 1.01259 8.1915 1.03775C8.2522 1.06291 8.30734 1.09979 8.35378 1.14628L14.3538 7.14628C14.4237 7.21624 14.4713 7.30537 14.4905 7.40238C14.5098 7.49939 14.4998 7.59993 14.4619 7.69128Z" fill="black"/>
</g>
<defs>
<clipPath id="clip0_5_1613">
<rect width="16" height="16" fill="white"/>
</clipPath>
</defs>
</svg>
