<svg width="16" height="16" viewBox="0 0 16 16" fill="none" xmlns="http://www.w3.org/2000/svg">
<g clip-path="url(#clip0_5_1405)">
<path d="M14.8537 8.35378L12.8537 10.3538C12.7837 10.4238 12.6946 10.4715 12.5976 10.4908C12.5005 10.5101 12.3999 10.5002 12.3085 10.4623C12.2171 10.4245 12.139 10.3603 12.084 10.278C12.0291 10.1957 11.9998 10.099 11.9999 10V8.50003H3.99991V10C3.99998 10.099 3.9707 10.1957 3.91577 10.278C3.86083 10.3603 3.78271 10.4245 3.6913 10.4623C3.59989 10.5002 3.49929 10.5101 3.40225 10.4908C3.30521 10.4715 3.21608 10.4238 3.14616 10.3538L1.14616 8.35378C1.09967 8.30734 1.06279 8.2522 1.03763 8.1915C1.01246 8.1308 0.999512 8.06574 0.999512 8.00003C0.999512 7.93432 1.01246 7.86926 1.03763 7.80856C1.06279 7.74786 1.09967 7.69271 1.14616 7.64628L3.14616 5.64628C3.21608 5.57627 3.30521 5.52859 3.40225 5.50926C3.49929 5.48994 3.59989 5.49984 3.6913 5.53772C3.78271 5.57559 3.86083 5.63974 3.91577 5.72204C3.9707 5.80433 3.99998 5.90108 3.99991 6.00003V7.50003H11.9999V6.00003C11.9998 5.90108 12.0291 5.80433 12.084 5.72204C12.139 5.63974 12.2171 5.57559 12.3085 5.53772C12.3999 5.49984 12.5005 5.48994 12.5976 5.50926C12.6946 5.52859 12.7837 5.57627 12.8537 5.64628L14.8537 7.64628C14.9001 7.69271 14.937 7.74786 14.9622 7.80856C14.9873 7.86926 15.0003 7.93432 15.0003 8.00003C15.0003 8.06574 14.9873 8.1308 14.9622 8.1915C14.937 8.2522 14.9001 8.30734 14.8537 8.35378Z" fill="black"/>
</g>
<defs>
<clipPath id="clip0_5_1405">
<rect width="16" height="16" fill="white"/>
</clipPath>
</defs>
</svg>
