<svg width="16" height="16" viewBox="0 0 16 16" fill="none" xmlns="http://www.w3.org/2000/svg">
<g clip-path="url(#clip0_5_1580)">
<path d="M12.5 5.49997V12C12.5 12.1326 12.4474 12.2598 12.3536 12.3535C12.2598 12.4473 12.1326 12.5 12 12.5H5.50003C5.40109 12.5001 5.30434 12.4708 5.22204 12.4158C5.13975 12.3609 5.0756 12.2828 5.03772 12.1914C4.99985 12.1 4.98994 11.9994 5.00927 11.9023C5.02859 11.8053 5.07628 11.7162 5.14628 11.6462L8.04316 8.74997L3.64628 4.35372C3.55246 4.2599 3.49976 4.13265 3.49976 3.99997C3.49976 3.86729 3.55246 3.74004 3.64628 3.64622C3.7401 3.5524 3.86735 3.49969 4.00003 3.49969C4.13272 3.49969 4.25996 3.5524 4.35378 3.64622L8.75003 8.0431L11.6463 5.14622C11.7162 5.07622 11.8053 5.02853 11.9024 5.00921C11.9994 4.98988 12.1 4.99979 12.1914 5.03766C12.2828 5.07554 12.361 5.13969 12.4159 5.22198C12.4708 5.30428 12.5001 5.40102 12.5 5.49997Z" fill="black"/>
</g>
<defs>
<clipPath id="clip0_5_1580">
<rect width="16" height="16" fill="white"/>
</clipPath>
</defs>
</svg>
