<svg width="16" height="16" viewBox="0 0 16 16" fill="none" xmlns="http://www.w3.org/2000/svg">
<g clip-path="url(#clip0_5_1643)">
<path d="M13 2C13 2.13261 12.9473 2.25979 12.8536 2.35355C12.7598 2.44732 12.6326 2.5 12.5 2.5C11.0418 2.50165 9.64386 3.08165 8.61277 4.11274C7.58168 5.14383 7.00168 6.54182 7.00003 8V10.5H9.50003C9.59898 10.4999 9.69572 10.5292 9.77802 10.5841C9.86032 10.6391 9.92446 10.7172 9.96234 10.8086C10.0002 10.9 10.0101 11.0006 9.99079 11.0977C9.97147 11.1947 9.92378 11.2838 9.85378 11.3538L6.85378 14.3538C6.80734 14.4002 6.7522 14.4371 6.6915 14.4623C6.6308 14.4874 6.56574 14.5004 6.50003 14.5004C6.43432 14.5004 6.36926 14.4874 6.30856 14.4623C6.24786 14.4371 6.19271 14.4002 6.14628 14.3538L3.14628 11.3538C3.07627 11.2838 3.02859 11.1947 3.00926 11.0977C2.98994 11.0006 2.99984 10.9 3.03772 10.8086C3.07559 10.7172 3.13974 10.6391 3.22204 10.5841C3.30433 10.5292 3.40108 10.4999 3.50003 10.5H6.00003V8C6.00185 6.27665 6.68725 4.62441 7.90584 3.40582C9.12444 2.18722 10.7767 1.50182 12.5 1.5C12.6326 1.5 12.7598 1.55268 12.8536 1.64645C12.9473 1.74021 13 1.86739 13 2Z" fill="black"/>
</g>
<defs>
<clipPath id="clip0_5_1643">
<rect width="16" height="16" fill="white"/>
</clipPath>
</defs>
</svg>
