<svg width="16" height="16" viewBox="0 0 16 16" fill="none" xmlns="http://www.w3.org/2000/svg">
<g clip-path="url(#clip0_5_1659)">
<path d="M14.3538 9.85375L11.3538 12.8538C11.2838 12.9238 11.1947 12.9714 11.0977 12.9908C11.0006 13.0101 10.9 13.0002 10.8086 12.9623C10.7172 12.9244 10.6391 12.8603 10.5841 12.778C10.5292 12.6957 10.4999 12.5989 10.5 12.5V10H8C6.27665 9.99818 4.62441 9.31278 3.40582 8.09418C2.18722 6.87559 1.50182 5.22335 1.5 3.5C1.5 3.36739 1.55268 3.24021 1.64645 3.14645C1.74021 3.05268 1.86739 3 2 3C2.13261 3 2.25979 3.05268 2.35355 3.14645C2.44732 3.24021 2.5 3.36739 2.5 3.5C2.50165 4.95818 3.08165 6.35617 4.11274 7.38726C5.14383 8.41835 6.54182 8.99835 8 9H10.5V6.5C10.4999 6.40105 10.5292 6.30431 10.5841 6.22201C10.6391 6.13971 10.7172 6.07556 10.8086 6.03769C10.9 5.99981 11.0006 5.98991 11.0977 6.00924C11.1947 6.02856 11.2838 6.07624 11.3538 6.14625L14.3538 9.14625C14.4002 9.19269 14.4371 9.24783 14.4623 9.30853C14.4874 9.36923 14.5004 9.43429 14.5004 9.5C14.5004 9.56571 14.4874 9.63077 14.4623 9.69147C14.4371 9.75217 14.4002 9.80731 14.3538 9.85375Z" fill="black"/>
</g>
<defs>
<clipPath id="clip0_5_1659">
<rect width="16" height="16" fill="white"/>
</clipPath>
</defs>
</svg>
