<svg width="16" height="16" viewBox="0 0 16 16" fill="none" xmlns="http://www.w3.org/2000/svg">
<g clip-path="url(#clip0_5_821)">
<path d="M14.5 3.5C14.4982 5.22335 13.8128 6.87559 12.5942 8.09418C11.3756 9.31278 9.72338 9.99818 8.00003 10H5.50003V12.5C5.5001 12.5989 5.47082 12.6957 5.41589 12.778C5.36095 12.8603 5.28283 12.9244 5.19142 12.9623C5.10001 13.0002 4.99942 13.0101 4.90237 12.9908C4.80533 12.9714 4.7162 12.9238 4.64628 12.8538L1.64628 9.85375C1.59979 9.80731 1.56291 9.75217 1.53775 9.69147C1.51258 9.63077 1.49963 9.56571 1.49963 9.5C1.49963 9.43429 1.51258 9.36923 1.53775 9.30853C1.56291 9.24783 1.59979 9.19269 1.64628 9.14625L4.64628 6.14625C4.7162 6.07624 4.80533 6.02856 4.90237 6.00924C4.99942 5.98991 5.10001 5.99981 5.19142 6.03769C5.28283 6.07556 5.36095 6.13971 5.41589 6.22201C5.47082 6.30431 5.5001 6.40105 5.50003 6.5V9H8.00003C9.45821 8.99835 10.8562 8.41835 11.8873 7.38726C12.9184 6.35617 13.4984 4.95818 13.5 3.5C13.5 3.36739 13.5527 3.24021 13.6465 3.14645C13.7402 3.05268 13.8674 3 14 3C14.1326 3 14.2598 3.05268 14.3536 3.14645C14.4473 3.24021 14.5 3.36739 14.5 3.5Z" fill="black"/>
</g>
<defs>
<clipPath id="clip0_5_821">
<rect width="16" height="16" fill="white"/>
</clipPath>
</defs>
</svg>
