<svg width="16" height="16" viewBox="0 0 16 16" fill="none" xmlns="http://www.w3.org/2000/svg">
<g clip-path="url(#clip0_5_1516)">
<path d="M14 8.00003C14 8.13264 13.9473 8.25981 13.8536 8.35358C13.7598 8.44735 13.6326 8.50003 13.5 8.50003H7.50003V12.5C7.5001 12.599 7.47082 12.6957 7.41589 12.778C7.36095 12.8603 7.28283 12.9245 7.19142 12.9623C7.10001 13.0002 6.99942 13.0101 6.90237 12.9908C6.80533 12.9715 6.7162 12.9238 6.64628 12.8538L2.14628 8.35378C2.09979 8.30734 2.06291 8.2522 2.03775 8.1915C2.01259 8.1308 1.99963 8.06574 1.99963 8.00003C1.99963 7.93432 2.01259 7.86926 2.03775 7.80856C2.06291 7.74786 2.09979 7.69271 2.14628 7.64628L6.64628 3.14628C6.7162 3.07627 6.80533 3.02859 6.90237 3.00926C6.99942 2.98994 7.10001 2.99984 7.19142 3.03772C7.28283 3.07559 7.36095 3.13974 7.41589 3.22204C7.47082 3.30433 7.5001 3.40108 7.50003 3.50003V7.50003H13.5C13.6326 7.50003 13.7598 7.55271 13.8536 7.64647C13.9473 7.74024 14 7.86742 14 8.00003Z" fill="black"/>
</g>
<defs>
<clipPath id="clip0_5_1516">
<rect width="16" height="16" fill="white"/>
</clipPath>
</defs>
</svg>
