<svg width="16" height="16" viewBox="0 0 16 16" fill="none" xmlns="http://www.w3.org/2000/svg">
<g clip-path="url(#clip0_5_1482)">
<path d="M13 2H3C2.73478 2 2.48043 2.10536 2.29289 2.29289C2.10536 2.48043 2 2.73478 2 3V13C2 13.2652 2.10536 13.5196 2.29289 13.7071C2.48043 13.8946 2.73478 14 3 14H13C13.2652 14 13.5196 13.8946 13.7071 13.7071C13.8946 13.5196 14 13.2652 14 13V3C14 2.73478 13.8946 2.48043 13.7071 2.29289C13.5196 2.10536 13.2652 2 13 2ZM10.3538 8.85375L8.35375 10.8538C8.30731 10.9002 8.25217 10.9371 8.19147 10.9623C8.13077 10.9874 8.06571 11.0004 8 11.0004C7.93429 11.0004 7.86923 10.9874 7.80853 10.9623C7.74783 10.9371 7.69269 10.9002 7.64625 10.8538L5.64625 8.85375C5.55243 8.75993 5.49972 8.63268 5.49972 8.5C5.49972 8.36732 5.55243 8.24007 5.64625 8.14625C5.74007 8.05243 5.86732 7.99972 6 7.99972C6.13268 7.99972 6.25993 8.05243 6.35375 8.14625L7.5 9.29313V5.5C7.5 5.36739 7.55268 5.24021 7.64645 5.14645C7.74021 5.05268 7.86739 5 8 5C8.13261 5 8.25979 5.05268 8.35355 5.14645C8.44732 5.24021 8.5 5.36739 8.5 5.5V9.29313L9.64625 8.14625C9.74007 8.05243 9.86732 7.99972 10 7.99972C10.1327 7.99972 10.2599 8.05243 10.3538 8.14625C10.4476 8.24007 10.5003 8.36732 10.5003 8.5C10.5003 8.63268 10.4476 8.75993 10.3538 8.85375Z" fill="black"/>
</g>
<defs>
<clipPath id="clip0_5_1482">
<rect width="16" height="16" fill="white"/>
</clipPath>
</defs>
</svg>
