<svg width="16" height="16" viewBox="0 0 16 16" fill="none" xmlns="http://www.w3.org/2000/svg">
<g clip-path="url(#clip0_5_1476)">
<path d="M13 2H3C2.73478 2 2.48043 2.10536 2.29289 2.29289C2.10536 2.48043 2 2.73478 2 3V13C2 13.2652 2.10536 13.5196 2.29289 13.7071C2.48043 13.8946 2.73478 14 3 14H13C13.2652 14 13.5196 13.8946 13.7071 13.7071C13.8946 13.5196 14 13.2652 14 13V3C14 2.73478 13.8946 2.48043 13.7071 2.29289C13.5196 2.10536 13.2652 2 13 2ZM10.5 10C10.5 10.1326 10.4473 10.2598 10.3536 10.3536C10.2598 10.4473 10.1326 10.5 10 10.5H7C6.86739 10.5 6.74021 10.4473 6.64645 10.3536C6.55268 10.2598 6.5 10.1326 6.5 10C6.5 9.86739 6.55268 9.74021 6.64645 9.64645C6.74021 9.55268 6.86739 9.5 7 9.5H8.79313L5.64625 6.35375C5.55243 6.25993 5.49972 6.13268 5.49972 6C5.49972 5.86732 5.55243 5.74007 5.64625 5.64625C5.74007 5.55243 5.86732 5.49972 6 5.49972C6.13268 5.49972 6.25993 5.55243 6.35375 5.64625L9.5 8.79313V7C9.5 6.86739 9.55268 6.74021 9.64645 6.64645C9.74021 6.55268 9.86739 6.5 10 6.5C10.1326 6.5 10.2598 6.55268 10.3536 6.64645C10.4473 6.74021 10.5 6.86739 10.5 7V10Z" fill="black"/>
</g>
<defs>
<clipPath id="clip0_5_1476">
<rect width="16" height="16" fill="white"/>
</clipPath>
</defs>
</svg>
