<svg width="16" height="16" viewBox="0 0 16 16" fill="none" xmlns="http://www.w3.org/2000/svg">
<g clip-path="url(#clip0_5_1387)">
<path d="M5.53815 3.69128C5.50025 3.59993 5.4903 3.49939 5.50954 3.40238C5.52879 3.30537 5.57637 3.21624 5.64628 3.14628L7.64628 1.14628C7.69271 1.09979 7.74786 1.06291 7.80856 1.03775C7.86926 1.01259 7.93432 0.999634 8.00003 0.999634C8.06573 0.999634 8.1308 1.01259 8.1915 1.03775C8.2522 1.06291 8.30734 1.09979 8.35378 1.14628L10.3538 3.14628C10.4238 3.2162 10.4715 3.30533 10.4908 3.40237C10.5101 3.49942 10.5002 3.60001 10.4623 3.69142C10.4245 3.78283 10.3603 3.86095 10.278 3.91589C10.1957 3.97082 10.099 4.00011 10 4.00003H8.50003V6.00003C8.50003 6.13264 8.44735 6.25981 8.35358 6.35358C8.25981 6.44735 8.13264 6.50003 8.00003 6.50003C7.86742 6.50003 7.74024 6.44735 7.64647 6.35358C7.55271 6.25981 7.50003 6.13264 7.50003 6.00003V4.00003H6.00003C5.90114 4.00001 5.80447 3.97066 5.72226 3.91571C5.64005 3.86075 5.57598 3.78265 5.53815 3.69128ZM10 12H8.50003V10C8.50003 9.86742 8.44735 9.74024 8.35358 9.64647C8.25981 9.5527 8.13264 9.50003 8.00003 9.50003C7.86742 9.50003 7.74024 9.5527 7.64647 9.64647C7.55271 9.74024 7.50003 9.86742 7.50003 10V12H6.00003C5.90108 11.9999 5.80433 12.0292 5.72204 12.0842C5.63974 12.1391 5.57559 12.2172 5.53772 12.3086C5.49984 12.4 5.48994 12.5006 5.50926 12.5977C5.52859 12.6947 5.57627 12.7838 5.64628 12.8538L7.64628 14.8538C7.69271 14.9003 7.74786 14.9371 7.80856 14.9623C7.86926 14.9875 7.93432 15.0004 8.00003 15.0004C8.06573 15.0004 8.1308 14.9875 8.1915 14.9623C8.2522 14.9371 8.30734 14.9003 8.35378 14.8538L10.3538 12.8538C10.4238 12.7838 10.4715 12.6947 10.4908 12.5977C10.5101 12.5006 10.5002 12.4 10.4623 12.3086C10.4245 12.2172 10.3603 12.1391 10.278 12.0842C10.1957 12.0292 10.099 11.9999 10 12ZM14.8538 7.64628L12.8538 5.64628C12.7838 5.57627 12.6947 5.52859 12.5977 5.50926C12.5006 5.48994 12.4 5.49984 12.3086 5.53772C12.2172 5.57559 12.1391 5.63974 12.0842 5.72204C12.0292 5.80433 11.9999 5.90108 12 6.00003V7.50003H10C9.86742 7.50003 9.74024 7.55271 9.64647 7.64647C9.5527 7.74024 9.50003 7.86742 9.50003 8.00003C9.50003 8.13264 9.5527 8.25981 9.64647 8.35358C9.74024 8.44735 9.86742 8.50003 10 8.50003H12V10C11.9999 10.099 12.0292 10.1957 12.0842 10.278C12.1391 10.3603 12.2172 10.4245 12.3086 10.4623C12.4 10.5002 12.5006 10.5101 12.5977 10.4908C12.6947 10.4715 12.7838 10.4238 12.8538 10.3538L14.8538 8.35378C14.9003 8.30734 14.9371 8.2522 14.9623 8.1915C14.9875 8.1308 15.0004 8.06573 15.0004 8.00003C15.0004 7.93432 14.9875 7.86926 14.9623 7.80856C14.9371 7.74786 14.9003 7.69271 14.8538 7.64628ZM6.00003 8.50003C6.13264 8.50003 6.25981 8.44735 6.35358 8.35358C6.44735 8.25981 6.50003 8.13264 6.50003 8.00003C6.50003 7.86742 6.44735 7.74024 6.35358 7.64647C6.25981 7.55271 6.13264 7.50003 6.00003 7.50003H4.00003V6.00003C4.00011 5.90108 3.97082 5.80433 3.91589 5.72204C3.86095 5.63974 3.78283 5.57559 3.69142 5.53772C3.60001 5.49984 3.49942 5.48994 3.40237 5.50926C3.30533 5.52859 3.2162 5.57627 3.14628 5.64628L1.14628 7.64628C1.09979 7.69271 1.06291 7.74786 1.03775 7.80856C1.01259 7.86926 0.999634 7.93432 0.999634 8.00003C0.999634 8.06573 1.01259 8.1308 1.03775 8.1915C1.06291 8.2522 1.09979 8.30734 1.14628 8.35378L3.14628 10.3538C3.2162 10.4238 3.30533 10.4715 3.40237 10.4908C3.49942 10.5101 3.60001 10.5002 3.69142 10.4623C3.78283 10.4245 3.86095 10.3603 3.91589 10.278C3.97082 10.1957 4.00011 10.099 4.00003 10V8.50003H6.00003Z" fill="black"/>
</g>
<defs>
<clipPath id="clip0_5_1387">
<rect width="16" height="16" fill="white"/>
</clipPath>
</defs>
</svg>
