<svg width="16" height="16" viewBox="0 0 16 16" fill="none" xmlns="http://www.w3.org/2000/svg">
<g clip-path="url(#clip0_5_1404)">
<path d="M5.64625 4.35375C5.57624 4.28382 5.52856 4.1947 5.50924 4.09765C5.48991 4.00061 5.49981 3.90002 5.53769 3.8086C5.57556 3.71719 5.63971 3.63908 5.72201 3.58414C5.80431 3.5292 5.90105 3.49992 6 3.5H7.5V1.5C7.5 1.36739 7.55268 1.24021 7.64645 1.14645C7.74021 1.05268 7.86739 1 8 1C8.13261 1 8.25979 1.05268 8.35355 1.14645C8.44732 1.24021 8.5 1.36739 8.5 1.5V3.5H10C10.0989 3.49992 10.1957 3.5292 10.278 3.58414C10.3603 3.63908 10.4244 3.71719 10.4623 3.8086C10.5002 3.90002 10.5101 4.00061 10.4908 4.09765C10.4714 4.1947 10.4238 4.28382 10.3538 4.35375L8.35375 6.35375C8.30731 6.40024 8.25217 6.43712 8.19147 6.46228C8.13077 6.48744 8.06571 6.50039 8 6.50039C7.93429 6.50039 7.86923 6.48744 7.80853 6.46228C7.74783 6.43712 7.69269 6.40024 7.64625 6.35375L5.64625 4.35375ZM8.35375 9.64625C8.30731 9.59976 8.25217 9.56288 8.19147 9.53772C8.13077 9.51256 8.06571 9.49961 8 9.49961C7.93429 9.49961 7.86923 9.51256 7.80853 9.53772C7.74783 9.56288 7.69269 9.59976 7.64625 9.64625L5.64625 11.6462C5.57624 11.7162 5.52856 11.8053 5.50924 11.9023C5.48991 11.9994 5.49981 12.1 5.53769 12.1914C5.57556 12.2828 5.63971 12.3609 5.72201 12.4159C5.80431 12.4708 5.90105 12.5001 6 12.5H7.5V14.5C7.5 14.6326 7.55268 14.7598 7.64645 14.8536C7.74021 14.9473 7.86739 15 8 15C8.13261 15 8.25979 14.9473 8.35355 14.8536C8.44732 14.7598 8.5 14.6326 8.5 14.5V12.5H10C10.0989 12.5001 10.1957 12.4708 10.278 12.4159C10.3603 12.3609 10.4244 12.2828 10.4623 12.1914C10.5002 12.1 10.5101 11.9994 10.4908 11.9023C10.4714 11.8053 10.4238 11.7162 10.3538 11.6462L8.35375 9.64625ZM14.5 7.5H12.5V6C12.5001 5.90105 12.4708 5.80431 12.4159 5.72201C12.3609 5.63971 12.2828 5.57556 12.1914 5.53769C12.1 5.49981 11.9994 5.48991 11.9023 5.50924C11.8053 5.52856 11.7162 5.57624 11.6462 5.64625L9.64625 7.64625C9.59976 7.69269 9.56288 7.74783 9.53772 7.80853C9.51256 7.86923 9.49961 7.93429 9.49961 8C9.49961 8.06571 9.51256 8.13077 9.53772 8.19147C9.56288 8.25217 9.59976 8.30731 9.64625 8.35375L11.6462 10.3538C11.7162 10.4238 11.8053 10.4714 11.9023 10.4908C11.9994 10.5101 12.1 10.5002 12.1914 10.4623C12.2828 10.4244 12.3609 10.3603 12.4159 10.278C12.4708 10.1957 12.5001 10.0989 12.5 10V8.5H14.5C14.6326 8.5 14.7598 8.44732 14.8536 8.35355C14.9473 8.25979 15 8.13261 15 8C15 7.86739 14.9473 7.74021 14.8536 7.64645C14.7598 7.55268 14.6326 7.5 14.5 7.5ZM6.35375 7.64625L4.35375 5.64625C4.28382 5.57624 4.1947 5.52856 4.09765 5.50924C4.00061 5.48991 3.90002 5.49981 3.8086 5.53769C3.71719 5.57556 3.63908 5.63971 3.58414 5.72201C3.5292 5.80431 3.49992 5.90105 3.5 6V7.5H1.5C1.36739 7.5 1.24021 7.55268 1.14645 7.64645C1.05268 7.74021 1 7.86739 1 8C1 8.13261 1.05268 8.25979 1.14645 8.35355C1.24021 8.44732 1.36739 8.5 1.5 8.5H3.5V10C3.49992 10.0989 3.5292 10.1957 3.58414 10.278C3.63908 10.3603 3.71719 10.4244 3.8086 10.4623C3.90002 10.5002 4.00061 10.5101 4.09765 10.4908C4.1947 10.4714 4.28382 10.4238 4.35375 10.3538L6.35375 8.35375C6.40024 8.30731 6.43712 8.25217 6.46228 8.19147C6.48744 8.13077 6.50039 8.06571 6.50039 8C6.50039 7.93429 6.48744 7.86923 6.46228 7.80853C6.43712 7.74783 6.40024 7.69269 6.35375 7.64625Z" fill="black"/>
</g>
<defs>
<clipPath id="clip0_5_1404">
<rect width="16" height="16" fill="white"/>
</clipPath>
</defs>
</svg>
