<svg width="16" height="16" viewBox="0 0 16 16" fill="none" xmlns="http://www.w3.org/2000/svg">
<g clip-path="url(#clip0_5_1472)">
<path d="M14 6.5C14.0001 6.59895 13.9708 6.69569 13.9159 6.77799C13.8609 6.86029 13.7828 6.92444 13.6914 6.96231C13.6 7.00019 13.4994 7.01009 13.4023 6.99076C13.3053 6.97144 13.2162 6.92376 13.1462 6.85375L11.5 5.20688L8.85375 7.85375C8.75993 7.94757 8.63268 8.00028 8.5 8.00028C8.36732 8.00028 8.24007 7.94757 8.14625 7.85375C8.05243 7.75993 7.99972 7.63268 7.99972 7.5C7.99972 7.36732 8.05243 7.24007 8.14625 7.14625L10.7931 4.5L9.14625 2.85375C9.07624 2.78382 9.02856 2.6947 9.00924 2.59765C8.98991 2.50061 8.99981 2.40002 9.03769 2.30861C9.07557 2.21719 9.13971 2.13908 9.22201 2.08414C9.30431 2.0292 9.40105 1.99992 9.5 2H13.5C13.6326 2 13.7598 2.05268 13.8536 2.14645C13.9473 2.24022 14 2.36739 14 2.5V6.5ZM11.5 8C11.3674 8 11.2402 8.05268 11.1464 8.14645C11.0527 8.24021 11 8.36739 11 8.5V13H3V5H7.5C7.63261 5 7.75979 4.94732 7.85355 4.85355C7.94732 4.75979 8 4.63261 8 4.5C8 4.36739 7.94732 4.24022 7.85355 4.14645C7.75979 4.05268 7.63261 4 7.5 4H3C2.73478 4 2.48043 4.10536 2.29289 4.29289C2.10536 4.48043 2 4.73478 2 5V13C2 13.2652 2.10536 13.5196 2.29289 13.7071C2.48043 13.8946 2.73478 14 3 14H11C11.2652 14 11.5196 13.8946 11.7071 13.7071C11.8946 13.5196 12 13.2652 12 13V8.5C12 8.36739 11.9473 8.24021 11.8536 8.14645C11.7598 8.05268 11.6326 8 11.5 8Z" fill="black"/>
</g>
<defs>
<clipPath id="clip0_5_1472">
<rect width="16" height="16" fill="white"/>
</clipPath>
</defs>
</svg>
