<svg width="16" height="16" viewBox="0 0 16 16" fill="none" xmlns="http://www.w3.org/2000/svg">
<g clip-path="url(#clip0_5_1415)">
<path d="M5.5 6.49999H2.5C2.36739 6.49999 2.24022 6.44731 2.14645 6.35354C2.05268 6.25977 2 6.13259 2 5.99999V2.99999C1.99992 2.90104 2.0292 2.80429 2.08414 2.72199C2.13908 2.6397 2.21719 2.57555 2.30861 2.53767C2.40002 2.4998 2.50061 2.4899 2.59765 2.50922C2.6947 2.52855 2.78382 2.57623 2.85375 2.64624L4 3.79374C5.10762 2.72477 6.58568 2.12548 8.125 2.12124H8.15812C9.72568 2.1172 11.2317 2.73088 12.35 3.82936C12.4413 3.92277 12.4924 4.04821 12.4924 4.17884C12.4925 4.30947 12.4413 4.43491 12.35 4.52833C12.2587 4.62175 12.1345 4.67574 12.0039 4.67873C11.8733 4.68173 11.7467 4.6335 11.6512 4.54436C10.7191 3.62941 9.46427 3.11817 8.15812 3.12124H8.13C6.85511 3.12484 5.63041 3.61848 4.70938 4.49999L5.85375 5.64624C5.92376 5.71616 5.97144 5.80529 5.99076 5.90233C6.01009 5.99937 6.00019 6.09997 5.96231 6.19138C5.92444 6.28279 5.86029 6.36091 5.77799 6.41585C5.69569 6.47078 5.59895 6.50006 5.5 6.49999ZM13.5 9.49999H10.5C10.4011 9.49991 10.3043 9.52919 10.222 9.58413C10.1397 9.63906 10.0756 9.71718 10.0377 9.80859C9.99981 9.9 9.98991 10.0006 10.0092 10.0976C10.0286 10.1947 10.0762 10.2838 10.1462 10.3537L11.2906 11.5C10.37 12.382 9.14556 12.8763 7.87063 12.8806H7.8425C6.53636 12.8837 5.28151 12.3724 4.34938 11.4575C4.3028 11.4098 4.24718 11.372 4.18578 11.3461C4.12437 11.3203 4.05842 11.307 3.99179 11.307C3.92517 11.307 3.85922 11.3203 3.79781 11.3462C3.73641 11.372 3.68079 11.4099 3.63423 11.4575C3.58766 11.5052 3.55109 11.5616 3.52665 11.6236C3.50222 11.6856 3.49042 11.7519 3.49195 11.8185C3.49348 11.8851 3.5083 11.9507 3.53555 12.0115C3.5628 12.0723 3.60192 12.127 3.65063 12.1725C4.76892 13.271 6.27495 13.8846 7.8425 13.8806H7.875C9.41432 13.8764 10.8924 13.2771 12 12.2081L13.1475 13.3556C13.2176 13.4253 13.3068 13.4726 13.4038 13.4917C13.5008 13.5107 13.6013 13.5005 13.6925 13.4625C13.7837 13.4244 13.8616 13.3602 13.9164 13.2778C13.9711 13.1955 14.0002 13.0988 14 13V9.99999C14 9.86738 13.9473 9.7402 13.8536 9.64643C13.7598 9.55266 13.6326 9.49999 13.5 9.49999Z" fill="black"/>
</g>
<defs>
<clipPath id="clip0_5_1415">
<rect width="16" height="16" fill="white"/>
</clipPath>
</defs>
</svg>
