<svg width="16" height="16" viewBox="0 0 16 16" fill="none" xmlns="http://www.w3.org/2000/svg">
<g clip-path="url(#clip0_5_1326)">
<path d="M13 14C13 14.1326 12.9473 14.2598 12.8536 14.3536C12.7598 14.4473 12.6326 14.5 12.5 14.5C10.7767 14.4982 9.12444 13.8128 7.90584 12.5942C6.68725 11.3756 6.00185 9.72338 6.00003 8.00003V5.50003H3.50003C3.40108 5.5001 3.30433 5.47082 3.22204 5.41589C3.13974 5.36095 3.07559 5.28283 3.03772 5.19142C2.99984 5.10001 2.98994 4.99942 3.00926 4.90237C3.02859 4.80533 3.07627 4.7162 3.14628 4.64628L6.14628 1.64628C6.19271 1.59979 6.24786 1.56291 6.30856 1.53775C6.36926 1.51258 6.43432 1.49963 6.50003 1.49963C6.56574 1.49963 6.6308 1.51258 6.6915 1.53775C6.7522 1.56291 6.80734 1.59979 6.85378 1.64628L9.85378 4.64628C9.92378 4.7162 9.97147 4.80533 9.99079 4.90237C10.0101 4.99942 10.0002 5.10001 9.96234 5.19142C9.92446 5.28283 9.86032 5.36095 9.77802 5.41589C9.69572 5.47082 9.59898 5.5001 9.50003 5.50003H7.00003V8.00003C7.00168 9.45821 7.58168 10.8562 8.61277 11.8873C9.64386 12.9184 11.0418 13.4984 12.5 13.5C12.6326 13.5 12.7598 13.5527 12.8536 13.6465C12.9473 13.7402 13 13.8674 13 14Z" fill="black"/>
</g>
<defs>
<clipPath id="clip0_5_1326">
<rect width="16" height="16" fill="white"/>
</clipPath>
</defs>
</svg>
