<svg width="16" height="16" viewBox="0 0 16 16" fill="none" xmlns="http://www.w3.org/2000/svg">
<g clip-path="url(#clip0_5_1590)">
<path d="M12.9619 5.19128C12.924 5.28265 12.86 5.36075 12.7778 5.41571C12.6956 5.47066 12.5989 5.50001 12.5 5.50003H10V8.00003C9.99818 9.72338 9.31278 11.3756 8.09418 12.5942C6.87559 13.8128 5.22335 14.4982 3.5 14.5C3.36739 14.5 3.24021 14.4473 3.14645 14.3536C3.05268 14.2598 3 14.1326 3 14C3 13.8674 3.05268 13.7402 3.14645 13.6465C3.24021 13.5527 3.36739 13.5 3.5 13.5C4.95818 13.4984 6.35617 12.9184 7.38726 11.8873C8.41835 10.8562 8.99835 9.45821 9 8.00003V5.50003H6.5C6.40105 5.5001 6.30431 5.47082 6.22201 5.41589C6.13971 5.36095 6.07556 5.28283 6.03769 5.19142C5.99981 5.10001 5.98991 4.99942 6.00924 4.90237C6.02856 4.80533 6.07624 4.7162 6.14625 4.64628L9.14625 1.64628C9.19269 1.59979 9.24783 1.56291 9.30853 1.53775C9.36923 1.51258 9.43429 1.49963 9.5 1.49963C9.56571 1.49963 9.63077 1.51258 9.69147 1.53775C9.75217 1.56291 9.80731 1.59979 9.85375 1.64628L12.8538 4.64628C12.9237 4.71624 12.9712 4.80537 12.9905 4.90238C13.0097 4.99939 12.9998 5.09993 12.9619 5.19128Z" fill="black"/>
</g>
<defs>
<clipPath id="clip0_5_1590">
<rect width="16" height="16" fill="white"/>
</clipPath>
</defs>
</svg>
