<svg width="16" height="16" viewBox="0 0 16 16" fill="none" xmlns="http://www.w3.org/2000/svg">
<g clip-path="url(#clip0_5_1502)">
<path d="M14.5 11.5C14.5 11.6326 14.4473 11.7598 14.3536 11.8536C14.2598 11.9473 14.1326 12 14 12C13.8674 12 13.7402 11.9473 13.6464 11.8536C13.5527 11.7598 13.5 11.6326 13.5 11.5C13.4996 10.425 13.1841 9.37369 12.5926 8.47604C12.0011 7.57838 11.1595 6.87374 10.1719 6.44924C9.1842 6.02474 8.0938 5.89898 7.03544 6.0875C5.97709 6.27603 4.99719 6.77059 4.21688 7.51003L5.85375 9.14628C5.92376 9.21621 5.97144 9.30533 5.99076 9.40237C6.01009 9.49942 6.00019 9.60001 5.96231 9.69142C5.92444 9.78283 5.86029 9.86095 5.77799 9.91589C5.69569 9.97082 5.59895 10.0001 5.5 10H1.5C1.36739 10 1.24021 9.94735 1.14645 9.85358C1.05268 9.75981 1 9.63264 1 9.50003V5.50003C0.999922 5.40108 1.0292 5.30433 1.08414 5.22204C1.13908 5.13974 1.21719 5.07559 1.30861 5.03772C1.40002 4.99984 1.50061 4.98994 1.59765 5.00926C1.6947 5.02859 1.78382 5.07627 1.85375 5.14628L3.50875 6.80128C4.42905 5.92163 5.5874 5.3316 6.84004 5.10441C8.09268 4.87722 9.38446 5.02288 10.5551 5.52331C11.7257 6.02374 12.7235 6.85691 13.4248 7.9194C14.1261 8.9819 14.5 10.227 14.5 11.5Z" fill="black"/>
</g>
<defs>
<clipPath id="clip0_5_1502">
<rect width="16" height="16" fill="white"/>
</clipPath>
</defs>
</svg>
