<svg width="16" height="16" viewBox="0 0 16 16" fill="none" xmlns="http://www.w3.org/2000/svg">
<g clip-path="url(#clip0_5_1492)">
<path d="M14 13.5C14 13.6326 13.9473 13.7598 13.8536 13.8536C13.7598 13.9473 13.6326 14 13.5 14H2.5C2.36739 14 2.24021 13.9473 2.14645 13.8536C2.05268 13.7598 2 13.6326 2 13.5C2 13.3674 2.05268 13.2402 2.14645 13.1464C2.24021 13.0527 2.36739 13 2.5 13H13.5C13.6326 13 13.7598 13.0527 13.8536 13.1464C13.9473 13.2402 14 13.3674 14 13.5ZM5 11C5.06568 11.0001 5.13073 10.9872 5.19142 10.9621C5.25212 10.937 5.30728 10.9002 5.35375 10.8538L9 7.20687L11.6462 9.85375C11.7162 9.92376 11.8053 9.97144 11.9023 9.99076C11.9994 10.0101 12.1 10.0002 12.1914 9.96231C12.2828 9.92443 12.3609 9.86029 12.4159 9.77799C12.4708 9.69569 12.5001 9.59895 12.5 9.5V3.5C12.5 3.36739 12.4473 3.24022 12.3536 3.14645C12.2598 3.05268 12.1326 3 12 3H6C5.90105 2.99992 5.80431 3.0292 5.72201 3.08414C5.63971 3.13908 5.57556 3.21719 5.53769 3.30861C5.49981 3.40002 5.48991 3.50061 5.50924 3.59765C5.52856 3.6947 5.57624 3.78382 5.64625 3.85375L8.29313 6.5L4.64625 10.1462C4.57624 10.2162 4.52856 10.3053 4.50924 10.4023C4.48991 10.4994 4.49981 10.6 4.53769 10.6914C4.57556 10.7828 4.63971 10.8609 4.72201 10.9159C4.80431 10.9708 4.90105 11.0001 5 11Z" fill="black"/>
</g>
<defs>
<clipPath id="clip0_5_1492">
<rect width="16" height="16" fill="white"/>
</clipPath>
</defs>
</svg>
