<svg width="16" height="16" viewBox="0 0 16 16" fill="none" xmlns="http://www.w3.org/2000/svg">
<g clip-path="url(#clip0_5_1418)">
<path d="M14 3.00002V6.00002C14 6.13263 13.9473 6.25981 13.8536 6.35358C13.7598 6.44735 13.6326 6.50002 13.5 6.50002H10.5C10.4011 6.5001 10.3043 6.47082 10.222 6.41588C10.1397 6.36095 10.0756 6.28283 10.0377 6.19142C9.99981 6.10001 9.98991 5.99941 10.0092 5.90237C10.0286 5.80533 10.0762 5.7162 10.1462 5.64627L11.2906 4.50002C10.37 3.61799 9.14556 3.12367 7.87063 3.1194H7.8425C6.53609 3.11684 5.28121 3.62876 4.34938 4.5444C4.25389 4.63354 4.12731 4.68177 3.99672 4.67877C3.86612 4.67578 3.74189 4.62179 3.65059 4.52837C3.55929 4.43495 3.50817 4.3095 3.50818 4.17888C3.50819 4.04825 3.55932 3.92281 3.65063 3.8294C4.76524 2.74039 6.25981 2.12774 7.8181 2.12109C9.37639 2.11444 10.8761 2.71431 12 3.79377L13.1475 2.64627C13.2175 2.5767 13.3065 2.52939 13.4033 2.51031C13.5002 2.49123 13.6005 2.50123 13.6916 2.53906C13.7828 2.57688 13.8607 2.64084 13.9156 2.72287C13.9705 2.8049 13.9998 2.90133 14 3.00002ZM11.6506 11.4556C10.7245 12.3602 9.48355 12.8703 8.18896 12.8786C6.89436 12.8869 5.64702 12.3927 4.70938 11.5L5.85375 10.3556C5.9244 10.2858 5.97266 10.1965 5.99236 10.0992C6.01205 10.0018 6.00231 9.90078 5.96435 9.80898C5.9264 9.71718 5.86196 9.63877 5.77926 9.58374C5.69655 9.52871 5.59934 9.49957 5.5 9.50002H2.5C2.36739 9.50002 2.24022 9.5527 2.14645 9.64647C2.05268 9.74024 2 9.86742 2 10V13C1.99992 13.099 2.0292 13.1957 2.08414 13.278C2.13908 13.3603 2.21719 13.4245 2.30861 13.4623C2.40002 13.5002 2.50061 13.5101 2.59765 13.4908C2.6947 13.4715 2.78382 13.4238 2.85375 13.3538L4 12.2063C5.10762 13.2752 6.58568 13.8745 8.125 13.8788H8.15812C9.72568 13.8828 11.2317 13.2691 12.35 12.1706C12.4413 12.0772 12.4924 11.9518 12.4924 11.8212C12.4925 11.6905 12.4413 11.5651 12.35 11.4717C12.2587 11.3783 12.1345 11.3243 12.0039 11.3213C11.8733 11.3183 11.7467 11.3665 11.6512 11.4556H11.6506Z" fill="black"/>
</g>
<defs>
<clipPath id="clip0_5_1418">
<rect width="16" height="16" fill="white"/>
</clipPath>
</defs>
</svg>
