<svg width="16" height="16" viewBox="0 0 16 16" fill="none" xmlns="http://www.w3.org/2000/svg">
<g clip-path="url(#clip0_5_1434)">
<path d="M12.9618 7.19128C12.924 7.28265 12.8599 7.36075 12.7777 7.41571C12.6955 7.47066 12.5988 7.50001 12.4999 7.50003H8.49991V13.5C8.49991 13.6326 8.44723 13.7598 8.35346 13.8536C8.25969 13.9473 8.13251 14 7.99991 14C7.8673 14 7.74012 13.9473 7.64635 13.8536C7.55258 13.7598 7.49991 13.6326 7.49991 13.5V7.50003H3.49991C3.40096 7.5001 3.30421 7.47082 3.22191 7.41589C3.13962 7.36095 3.07547 7.28283 3.03759 7.19142C2.99972 7.10001 2.98982 6.99942 3.00914 6.90237C3.02847 6.80533 3.07615 6.7162 3.14616 6.64628L7.64616 2.14628C7.69259 2.09979 7.74774 2.06291 7.80844 2.03775C7.86913 2.01259 7.9342 1.99963 7.99991 1.99963C8.06561 1.99963 8.13068 2.01259 8.19138 2.03775C8.25207 2.06291 8.30722 2.09979 8.35366 2.14628L12.8537 6.64628C12.9236 6.71624 12.9711 6.80537 12.9904 6.90238C13.0096 6.99939 12.9997 7.09993 12.9618 7.19128Z" fill="black"/>
</g>
<defs>
<clipPath id="clip0_5_1434">
<rect width="16" height="16" fill="white"/>
</clipPath>
</defs>
</svg>
