<svg width="16" height="16" viewBox="0 0 16 16" fill="none" xmlns="http://www.w3.org/2000/svg">
<g clip-path="url(#clip0_5_1478)">
<path d="M13 2H3C2.73478 2 2.48043 2.10536 2.29289 2.29289C2.10536 2.48043 2 2.73478 2 3V13C2 13.2652 2.10536 13.5196 2.29289 13.7071C2.48043 13.8946 2.73478 14 3 14H13C13.2652 14 13.5196 13.8946 13.7071 13.7071C13.8946 13.5196 14 13.2652 14 13V3C14 2.73478 13.8946 2.48043 13.7071 2.29289C13.5196 2.10536 13.2652 2 13 2ZM10.3538 6.35375L7.20687 9.5H9C9.13261 9.5 9.25979 9.55268 9.35355 9.64645C9.44732 9.74021 9.5 9.86739 9.5 10C9.5 10.1326 9.44732 10.2598 9.35355 10.3536C9.25979 10.4473 9.13261 10.5 9 10.5H6C5.86739 10.5 5.74021 10.4473 5.64645 10.3536C5.55268 10.2598 5.5 10.1326 5.5 10V7C5.5 6.86739 5.55268 6.74021 5.64645 6.64645C5.74021 6.55268 5.86739 6.5 6 6.5C6.13261 6.5 6.25979 6.55268 6.35355 6.64645C6.44732 6.74021 6.5 6.86739 6.5 7V8.79313L9.64625 5.64625C9.6927 5.59979 9.74786 5.56294 9.80855 5.5378C9.86925 5.51266 9.9343 5.49972 10 5.49972C10.0657 5.49972 10.1308 5.51266 10.1914 5.5378C10.2521 5.56294 10.3073 5.59979 10.3538 5.64625C10.4002 5.6927 10.4371 5.74786 10.4622 5.80855C10.4873 5.86925 10.5003 5.9343 10.5003 6C10.5003 6.0657 10.4873 6.13075 10.4622 6.19145C10.4371 6.25214 10.4002 6.3073 10.3538 6.35375Z" fill="black"/>
</g>
<defs>
<clipPath id="clip0_5_1478">
<rect width="16" height="16" fill="white"/>
</clipPath>
</defs>
</svg>
