<svg width="16" height="16" viewBox="0 0 16 16" fill="none" xmlns="http://www.w3.org/2000/svg">
<g clip-path="url(#clip0_5_1468)">
<path d="M13 2H3C2.73478 2 2.48043 2.10536 2.29289 2.29289C2.10536 2.48043 2 2.73478 2 3V13C2 13.2652 2.10536 13.5196 2.29289 13.7071C2.48043 13.8946 2.73478 14 3 14H13C13.2652 14 13.5196 13.8946 13.7071 13.7071C13.8946 13.5196 14 13.2652 14 13V3C14 2.73478 13.8946 2.48043 13.7071 2.29289C13.5196 2.10536 13.2652 2 13 2ZM10.8538 8.35375L8.85375 10.3538C8.75993 10.4476 8.63268 10.5003 8.5 10.5003C8.36732 10.5003 8.24007 10.4476 8.14625 10.3538C8.05243 10.2599 7.99972 10.1327 7.99972 10C7.99972 9.86732 8.05243 9.74007 8.14625 9.64625L9.29313 8.5H5.5C5.36739 8.5 5.24021 8.44732 5.14645 8.35355C5.05268 8.25979 5 8.13261 5 8C5 7.86739 5.05268 7.74021 5.14645 7.64645C5.24021 7.55268 5.36739 7.5 5.5 7.5H9.29313L8.14625 6.35375C8.05243 6.25993 7.99972 6.13268 7.99972 6C7.99972 5.86732 8.05243 5.74007 8.14625 5.64625C8.24007 5.55243 8.36732 5.49972 8.5 5.49972C8.63268 5.49972 8.75993 5.55243 8.85375 5.64625L10.8538 7.64625C10.9002 7.69269 10.9371 7.74783 10.9623 7.80853C10.9874 7.86923 11.0004 7.93429 11.0004 8C11.0004 8.06571 10.9874 8.13077 10.9623 8.19147C10.9371 8.25217 10.9002 8.30731 10.8538 8.35375Z" fill="black"/>
</g>
<defs>
<clipPath id="clip0_5_1468">
<rect width="16" height="16" fill="white"/>
</clipPath>
</defs>
</svg>
