<svg width="16" height="16" viewBox="0 0 16 16" fill="none" xmlns="http://www.w3.org/2000/svg">
<g clip-path="url(#clip0_5_1390)">
<path d="M13.3538 3.35372L11.2069 5.49997L12.3538 6.64622C12.4238 6.71615 12.4715 6.80528 12.4908 6.90232C12.5101 6.99936 12.5002 7.09996 12.4623 7.19137C12.4245 7.28278 12.3603 7.3609 12.278 7.41583C12.1957 7.47077 12.099 7.50005 12 7.49997H9.00003C8.86743 7.49997 8.74025 7.44729 8.64648 7.35353C8.55271 7.25976 8.50003 7.13258 8.50003 6.99997V3.99997C8.49996 3.90102 8.52924 3.80428 8.58417 3.72198C8.63911 3.63968 8.71723 3.57554 8.80864 3.53766C8.90005 3.49979 9.00064 3.48988 9.09769 3.50921C9.19473 3.52853 9.28386 3.57622 9.35378 3.64622L10.5 4.7931L12.6463 2.64622C12.7401 2.5524 12.8674 2.49969 13 2.49969C13.1327 2.49969 13.26 2.5524 13.3538 2.64622C13.4476 2.74004 13.5003 2.86729 13.5003 2.99997C13.5003 3.13265 13.4476 3.2599 13.3538 3.35372ZM7.00003 8.49997H4.00003C3.90109 8.4999 3.80434 8.52918 3.72204 8.58411C3.63975 8.63905 3.5756 8.71717 3.53772 8.80858C3.49985 8.89999 3.48994 9.00058 3.50927 9.09763C3.52859 9.19467 3.57628 9.2838 3.64628 9.35372L4.79316 10.5L2.64628 12.6462C2.55246 12.74 2.49976 12.8673 2.49976 13C2.49976 13.1327 2.55246 13.2599 2.64628 13.3537C2.7401 13.4475 2.86735 13.5003 3.00003 13.5003C3.13272 13.5003 3.25996 13.4475 3.35378 13.3537L5.50003 11.2068L6.64628 12.3537C6.71621 12.4237 6.80534 12.4714 6.90238 12.4907C6.99942 12.5101 7.10002 12.5002 7.19143 12.4623C7.28284 12.4244 7.36096 12.3603 7.41589 12.278C7.47083 12.1957 7.50011 12.0989 7.50003 12V8.99997C7.50003 8.86736 7.44736 8.74019 7.35359 8.64642C7.25982 8.55265 7.13264 8.49997 7.00003 8.49997Z" fill="black"/>
</g>
<defs>
<clipPath id="clip0_5_1390">
<rect width="16" height="16" fill="white"/>
</clipPath>
</defs>
</svg>
