<svg width="16" height="16" viewBox="0 0 16 16" fill="none" xmlns="http://www.w3.org/2000/svg">
<g clip-path="url(#clip0_5_1289)">
<path d="M8 1.5C6.71442 1.5 5.45772 1.88122 4.3888 2.59545C3.31988 3.30968 2.48676 4.32484 1.99479 5.51256C1.50282 6.70028 1.37409 8.00721 1.6249 9.26809C1.8757 10.529 2.49477 11.6872 3.40381 12.5962C4.31285 13.5052 5.47104 14.1243 6.73192 14.3751C7.99279 14.6259 9.29973 14.4972 10.4874 14.0052C11.6752 13.5132 12.6903 12.6801 13.4046 11.6112C14.1188 10.5423 14.5 9.28558 14.5 8C14.4982 6.27665 13.8128 4.62441 12.5942 3.40582C11.3756 2.18722 9.72335 1.50182 8 1.5ZM10.5 8.5H6.70688L7.85375 9.64625C7.90021 9.69271 7.93706 9.74786 7.9622 9.80855C7.98734 9.86925 8.00028 9.9343 8.00028 10C8.00028 10.0657 7.98734 10.1308 7.9622 10.1914C7.93706 10.2521 7.90021 10.3073 7.85375 10.3538C7.8073 10.4002 7.75215 10.4371 7.69145 10.4622C7.63075 10.4873 7.5657 10.5003 7.5 10.5003C7.43431 10.5003 7.36925 10.4873 7.30855 10.4622C7.24786 10.4371 7.19271 10.4002 7.14625 10.3538L5.14625 8.35375C5.09976 8.30731 5.06289 8.25217 5.03772 8.19147C5.01256 8.13077 4.99961 8.06571 4.99961 8C4.99961 7.93429 5.01256 7.86923 5.03772 7.80853C5.06289 7.74783 5.09976 7.69269 5.14625 7.64625L7.14625 5.64625C7.24007 5.55243 7.36732 5.49972 7.5 5.49972C7.63268 5.49972 7.75993 5.55243 7.85375 5.64625C7.94757 5.74007 8.00028 5.86732 8.00028 6C8.00028 6.13268 7.94757 6.25993 7.85375 6.35375L6.70688 7.5H10.5C10.6326 7.5 10.7598 7.55268 10.8536 7.64645C10.9473 7.74021 11 7.86739 11 8C11 8.13261 10.9473 8.25979 10.8536 8.35355C10.7598 8.44732 10.6326 8.5 10.5 8.5Z" fill="black"/>
</g>
<defs>
<clipPath id="clip0_5_1289">
<rect width="16" height="16" fill="white"/>
</clipPath>
</defs>
</svg>
