<svg width="16" height="16" viewBox="0 0 16 16" fill="none" xmlns="http://www.w3.org/2000/svg">
<g clip-path="url(#clip0_5_1574)">
<path d="M13.8538 11.3538L10.8538 14.3538C10.7838 14.4238 10.6947 14.4714 10.5977 14.4908C10.5006 14.5101 10.4 14.5002 10.3086 14.4623C10.2172 14.4244 10.1391 14.3603 10.0841 14.278C10.0292 14.1957 9.99992 14.0989 10 14V11.5H4.5C4.36739 11.5 4.24021 11.4473 4.14645 11.3536C4.05268 11.2598 4 11.1326 4 11V2C4 1.86739 4.05268 1.74021 4.14645 1.64645C4.24021 1.55268 4.36739 1.5 4.5 1.5C4.63261 1.5 4.75979 1.55268 4.85355 1.64645C4.94732 1.74021 5 1.86739 5 2V10.5H10V8C9.99992 7.90105 10.0292 7.80431 10.0841 7.72201C10.1391 7.63971 10.2172 7.57556 10.3086 7.53769C10.4 7.49981 10.5006 7.48991 10.5977 7.50924C10.6947 7.52856 10.7838 7.57624 10.8538 7.64625L13.8538 10.6462C13.9002 10.6927 13.9371 10.7478 13.9623 10.8085C13.9874 10.8692 14.0004 10.9343 14.0004 11C14.0004 11.0657 13.9874 11.1308 13.9623 11.1915C13.9371 11.2522 13.9002 11.3073 13.8538 11.3538Z" fill="black"/>
</g>
<defs>
<clipPath id="clip0_5_1574">
<rect width="16" height="16" fill="white"/>
</clipPath>
</defs>
</svg>
