<svg width="16" height="16" viewBox="0 0 16 16" fill="none" xmlns="http://www.w3.org/2000/svg">
<g clip-path="url(#clip0_5_1465)">
<path d="M13 2H3C2.73478 2 2.48043 2.10536 2.29289 2.29289C2.10536 2.48043 2 2.73478 2 3V13C2 13.2652 2.10536 13.5196 2.29289 13.7071C2.48043 13.8946 2.73478 14 3 14H13C13.2652 14 13.5196 13.8946 13.7071 13.7071C13.8946 13.5196 14 13.2652 14 13V3C14 2.73478 13.8946 2.48043 13.7071 2.29289C13.5196 2.10536 13.2652 2 13 2ZM10.5 9C10.5 9.13261 10.4473 9.25979 10.3536 9.35355C10.2598 9.44732 10.1326 9.5 10 9.5C9.86739 9.5 9.74021 9.44732 9.64645 9.35355C9.55268 9.25979 9.5 9.13261 9.5 9V7.20687L6.35375 10.3538C6.3073 10.4002 6.25214 10.4371 6.19145 10.4622C6.13075 10.4873 6.0657 10.5003 6 10.5003C5.9343 10.5003 5.86925 10.4873 5.80855 10.4622C5.74786 10.4371 5.6927 10.4002 5.64625 10.3538C5.59979 10.3073 5.56294 10.2521 5.5378 10.1914C5.51266 10.1308 5.49972 10.0657 5.49972 10C5.49972 9.9343 5.51266 9.86925 5.5378 9.80855C5.56294 9.74786 5.59979 9.6927 5.64625 9.64625L8.79313 6.5H7C6.86739 6.5 6.74021 6.44732 6.64645 6.35355C6.55268 6.25979 6.5 6.13261 6.5 6C6.5 5.86739 6.55268 5.74021 6.64645 5.64645C6.74021 5.55268 6.86739 5.5 7 5.5H10C10.1326 5.5 10.2598 5.55268 10.3536 5.64645C10.4473 5.74021 10.5 5.86739 10.5 6V9Z" fill="black"/>
</g>
<defs>
<clipPath id="clip0_5_1465">
<rect width="16" height="16" fill="white"/>
</clipPath>
</defs>
</svg>
