<svg width="16" height="16" viewBox="0 0 16 16" fill="none" xmlns="http://www.w3.org/2000/svg">
<g clip-path="url(#clip0_5_1450)">
<path d="M13.8538 11.3538L10.8538 14.3538C10.8073 14.4002 10.7522 14.4371 10.6915 14.4623C10.6308 14.4874 10.5657 14.5004 10.5 14.5004C10.4343 14.5004 10.3692 14.4874 10.3085 14.4623C10.2478 14.4371 10.1927 14.4002 10.1462 14.3538L7.14625 11.3538C7.07624 11.2838 7.02856 11.1947 7.00924 11.0977C6.98991 11.0006 6.99981 10.9 7.03769 10.8086C7.07556 10.7172 7.13971 10.6391 7.22201 10.5841C7.30431 10.5292 7.40105 10.4999 7.5 10.5H10V5.5C10 4.70435 9.68393 3.94129 9.12132 3.37868C8.55871 2.81607 7.79565 2.5 7 2.5C6.20435 2.5 5.44129 2.81607 4.87868 3.37868C4.31607 3.94129 4 4.70435 4 5.5V11C4 11.1326 3.94732 11.2598 3.85355 11.3536C3.75979 11.4473 3.63261 11.5 3.5 11.5C3.36739 11.5 3.24021 11.4473 3.14645 11.3536C3.05268 11.2598 3 11.1326 3 11V5.5C3 4.43913 3.42143 3.42172 4.17157 2.67157C4.92172 1.92143 5.93913 1.5 7 1.5C8.06087 1.5 9.07828 1.92143 9.82843 2.67157C10.5786 3.42172 11 4.43913 11 5.5V10.5H13.5C13.5989 10.4999 13.6957 10.5292 13.778 10.5841C13.8603 10.6391 13.9244 10.7172 13.9623 10.8086C14.0002 10.9 14.0101 11.0006 13.9908 11.0977C13.9714 11.1947 13.9238 11.2838 13.8538 11.3538Z" fill="black"/>
</g>
<defs>
<clipPath id="clip0_5_1450">
<rect width="16" height="16" fill="white"/>
</clipPath>
</defs>
</svg>
