<svg width="16" height="16" viewBox="0 0 16 16" fill="none" xmlns="http://www.w3.org/2000/svg">
<g clip-path="url(#clip0_5_1548)">
<path d="M14.3537 8.85375L8.35366 14.8538C8.30722 14.9002 8.25207 14.9371 8.19138 14.9623C8.13068 14.9874 8.06561 15.0004 7.99991 15.0004C7.9342 15.0004 7.86913 14.9874 7.80844 14.9623C7.74774 14.9371 7.69259 14.9002 7.64616 14.8538L1.64616 8.85375C1.57615 8.78382 1.52847 8.6947 1.50914 8.59765C1.48982 8.50061 1.49972 8.40002 1.53759 8.30861C1.57547 8.21719 1.63962 8.13908 1.72191 8.08414C1.80421 8.0292 1.90096 7.99992 1.99991 8H4.49991V3C4.49991 2.73478 4.60526 2.48043 4.7928 2.29289C4.98034 2.10536 5.23469 2 5.49991 2H10.4999C10.7651 2 11.0195 2.10536 11.207 2.29289C11.3945 2.48043 11.4999 2.73478 11.4999 3V8H13.9999C14.0989 7.99992 14.1956 8.0292 14.2779 8.08414C14.3602 8.13908 14.4243 8.21719 14.4622 8.30861C14.5001 8.40002 14.51 8.50061 14.4907 8.59765C14.4713 8.6947 14.4237 8.78382 14.3537 8.85375Z" fill="black"/>
</g>
<defs>
<clipPath id="clip0_5_1548">
<rect width="16" height="16" fill="white"/>
</clipPath>
</defs>
</svg>
