<svg width="16" height="16" viewBox="0 0 16 16" fill="none" xmlns="http://www.w3.org/2000/svg">
<g clip-path="url(#clip0_5_1424)">
<path d="M12.3538 12.3538C12.3073 12.4002 12.2522 12.4371 12.1915 12.4623C12.1308 12.4874 12.0657 12.5004 12 12.5004C11.9343 12.5004 11.8692 12.4874 11.8085 12.4623C11.7478 12.4371 11.6927 12.4002 11.6462 12.3538L7.25 7.95687L4.35375 10.8538C4.28382 10.9238 4.1947 10.9714 4.09765 10.9908C4.00061 11.0101 3.90002 11.0002 3.80861 10.9623C3.71719 10.9244 3.63908 10.8603 3.58414 10.778C3.5292 10.6957 3.49992 10.5989 3.5 10.5V4C3.5 3.86739 3.55268 3.74022 3.64645 3.64645C3.74022 3.55268 3.86739 3.5 4 3.5H10.5C10.5989 3.49992 10.6957 3.5292 10.778 3.58414C10.8603 3.63908 10.9244 3.71719 10.9623 3.80861C11.0002 3.90002 11.0101 4.00061 10.9908 4.09765C10.9714 4.1947 10.9238 4.28382 10.8538 4.35375L7.95687 7.25L12.3538 11.6462C12.4002 11.6927 12.4371 11.7478 12.4623 11.8085C12.4874 11.8692 12.5004 11.9343 12.5004 12C12.5004 12.0657 12.4874 12.1308 12.4623 12.1915C12.4371 12.2522 12.4002 12.3073 12.3538 12.3538Z" fill="black"/>
</g>
<defs>
<clipPath id="clip0_5_1424">
<rect width="16" height="16" fill="white"/>
</clipPath>
</defs>
</svg>
