<svg width="16" height="16" viewBox="0 0 16 16" fill="none" xmlns="http://www.w3.org/2000/svg">
<g clip-path="url(#clip0_5_1520)">
<path d="M12.3538 4.35372L7.95687 8.74997L10.8538 11.6462C10.9238 11.7162 10.9714 11.8053 10.9908 11.9023C11.0101 11.9994 11.0002 12.1 10.9623 12.1914C10.9244 12.2828 10.8603 12.3609 10.778 12.4158C10.6957 12.4708 10.5989 12.5001 10.5 12.5H4C3.86739 12.5 3.74022 12.4473 3.64645 12.3535C3.55268 12.2598 3.5 12.1326 3.5 12V5.49997C3.49992 5.40102 3.5292 5.30428 3.58414 5.22198C3.63908 5.13969 3.71719 5.07554 3.80861 5.03766C3.90002 4.99979 4.00061 4.98988 4.09765 5.00921C4.1947 5.02853 4.28382 5.07622 4.35375 5.14622L7.25 8.0431L11.6462 3.64622C11.6927 3.59977 11.7479 3.56292 11.8086 3.53778C11.8692 3.51263 11.9343 3.49969 12 3.49969C12.0657 3.49969 12.1308 3.51263 12.1914 3.53778C12.2521 3.56292 12.3073 3.59977 12.3538 3.64622C12.4002 3.69268 12.4371 3.74783 12.4622 3.80852C12.4873 3.86922 12.5003 3.93428 12.5003 3.99997C12.5003 4.06567 12.4873 4.13072 12.4622 4.19142C12.4371 4.25212 12.4002 4.30727 12.3538 4.35372Z" fill="black"/>
</g>
<defs>
<clipPath id="clip0_5_1520">
<rect width="16" height="16" fill="white"/>
</clipPath>
</defs>
</svg>
