<svg width="16" height="16" viewBox="0 0 16 16" fill="none" xmlns="http://www.w3.org/2000/svg">
<g clip-path="url(#clip0_5_830)">
<path d="M12.8537 9.35375L8.35366 13.8538C8.30722 13.9002 8.25207 13.9371 8.19138 13.9623C8.13068 13.9874 8.06561 14.0004 7.99991 14.0004C7.9342 14.0004 7.86913 13.9874 7.80844 13.9623C7.74774 13.9371 7.69259 13.9002 7.64616 13.8538L3.14616 9.35375C3.07615 9.28382 3.02847 9.1947 3.00914 9.09765C2.98982 9.00061 2.99972 8.90002 3.03759 8.80861C3.07547 8.71719 3.13962 8.63908 3.22191 8.58414C3.30421 8.5292 3.40096 8.49992 3.49991 8.5H7.49991V2.5C7.49991 2.36739 7.55258 2.24021 7.64635 2.14645C7.74012 2.05268 7.8673 2 7.99991 2C8.13251 2 8.25969 2.05268 8.35346 2.14645C8.44723 2.24021 8.49991 2.36739 8.49991 2.5V8.5H12.4999C12.5989 8.49992 12.6956 8.5292 12.7779 8.58414C12.8602 8.63908 12.9243 8.71719 12.9622 8.80861C13.0001 8.90002 13.01 9.00061 12.9907 9.09765C12.9713 9.1947 12.9237 9.28382 12.8537 9.35375Z" fill="black"/>
</g>
<defs>
<clipPath id="clip0_5_830">
<rect width="16" height="16" fill="white"/>
</clipPath>
</defs>
</svg>
