<svg width="16" height="16" viewBox="0 0 16 16" fill="none" xmlns="http://www.w3.org/2000/svg">
<g clip-path="url(#clip0_5_1563)">
<path d="M15 5V9.5C15.0001 9.59895 14.9708 9.69569 14.9159 9.77799C14.861 9.86029 14.7828 9.92443 14.6914 9.96231C14.6 10.0002 14.4994 10.0101 14.4024 9.99076C14.3053 9.97144 14.2162 9.92376 14.1463 9.85375L12.25 7.95688L7.85378 12.3538C7.80735 12.4002 7.7522 12.4371 7.6915 12.4623C7.63081 12.4874 7.56574 12.5004 7.50003 12.5004C7.43433 12.5004 7.36926 12.4874 7.30856 12.4623C7.24786 12.4371 7.19272 12.4002 7.14628 12.3538L1.14628 6.35375C1.05246 6.25993 0.999756 6.13268 0.999756 6C0.999756 5.86732 1.05246 5.74007 1.14628 5.64625C1.2401 5.55243 1.36735 5.49972 1.50003 5.49972C1.63272 5.49972 1.75996 5.55243 1.85378 5.64625L7.50003 11.2931L11.5432 7.25L9.64628 5.35375C9.57628 5.28382 9.52859 5.1947 9.50927 5.09765C9.48994 5.00061 9.49985 4.90002 9.53772 4.8086C9.5756 4.71719 9.63975 4.63908 9.72204 4.58414C9.80434 4.5292 9.90109 4.49992 10 4.5H14.5C14.6326 4.5 14.7598 4.55268 14.8536 4.64645C14.9474 4.74022 15 4.86739 15 5Z" fill="black"/>
</g>
<defs>
<clipPath id="clip0_5_1563">
<rect width="16" height="16" fill="white"/>
</clipPath>
</defs>
</svg>
