<svg width="16" height="16" viewBox="0 0 16 16" fill="none" xmlns="http://www.w3.org/2000/svg">
<g clip-path="url(#clip0_5_1419)">
<path d="M12.5 4V10.5C12.5001 10.5989 12.4708 10.6957 12.4159 10.778C12.361 10.8603 12.2828 10.9244 12.1914 10.9623C12.1 11.0002 11.9994 11.0101 11.9024 10.9908C11.8053 10.9714 11.7162 10.9238 11.6463 10.8538L8.75003 7.95687L4.35378 12.3538C4.25996 12.4476 4.13272 12.5003 4.00003 12.5003C3.86735 12.5003 3.7401 12.4476 3.64628 12.3538C3.55246 12.2599 3.49976 12.1327 3.49976 12C3.49976 11.8673 3.55246 11.7401 3.64628 11.6462L8.04316 7.25L5.14628 4.35375C5.07628 4.28382 5.02859 4.1947 5.00927 4.09765C4.98994 4.00061 4.99985 3.90002 5.03772 3.80861C5.0756 3.71719 5.13975 3.63908 5.22204 3.58414C5.30434 3.5292 5.40109 3.49992 5.50003 3.5H12C12.1326 3.5 12.2598 3.55268 12.3536 3.64645C12.4474 3.74022 12.5 3.86739 12.5 4Z" fill="black"/>
</g>
<defs>
<clipPath id="clip0_5_1419">
<rect width="16" height="16" fill="white"/>
</clipPath>
</defs>
</svg>
