<svg width="16" height="16" viewBox="0 0 16 16" fill="none" xmlns="http://www.w3.org/2000/svg">
<g clip-path="url(#clip0_5_1651)">
<path d="M14.5 3C14.5 3.13261 14.4473 3.25979 14.3536 3.35355C14.2598 3.44732 14.1326 3.5 14 3.5H3C2.86739 3.5 2.74021 3.44732 2.64645 3.35355C2.55268 3.25979 2.5 3.13261 2.5 3C2.5 2.86739 2.55268 2.74021 2.64645 2.64645C2.74021 2.55268 2.86739 2.5 3 2.5H14C14.1326 2.5 14.2598 2.55268 14.3536 2.64645C14.4473 2.74021 14.5 2.86739 14.5 3ZM11.1462 5.64625L7.5 9.29313L4.85375 6.64625C4.78382 6.57624 4.6947 6.52856 4.59765 6.50924C4.50061 6.48991 4.40002 6.49981 4.3086 6.53769C4.21719 6.57556 4.13908 6.63971 4.08414 6.72201C4.0292 6.80431 3.99992 6.90105 4 7V13C4 13.1326 4.05268 13.2598 4.14645 13.3536C4.24021 13.4473 4.36739 13.5 4.5 13.5H10.5C10.5989 13.5001 10.6957 13.4708 10.778 13.4159C10.8603 13.3609 10.9244 13.2828 10.9623 13.1914C11.0002 13.1 11.0101 12.9994 10.9908 12.9023C10.9714 12.8053 10.9238 12.7162 10.8538 12.6462L8.20687 10L11.8538 6.35375C11.9002 6.3073 11.9371 6.25214 11.9622 6.19145C11.9873 6.13075 12.0003 6.0657 12.0003 6C12.0003 5.9343 11.9873 5.86925 11.9622 5.80855C11.9371 5.74786 11.9002 5.6927 11.8538 5.64625C11.8073 5.59979 11.7521 5.56294 11.6914 5.5378C11.6308 5.51266 11.5657 5.49972 11.5 5.49972C11.4343 5.49972 11.3692 5.51266 11.3086 5.5378C11.2479 5.56294 11.1927 5.59979 11.1462 5.64625Z" fill="black"/>
</g>
<defs>
<clipPath id="clip0_5_1651">
<rect width="16" height="16" fill="white"/>
</clipPath>
</defs>
</svg>
