<svg width="16" height="16" viewBox="0 0 16 16" fill="none" xmlns="http://www.w3.org/2000/svg">
<g clip-path="url(#clip0_5_1389)">
<path d="M12 2.5V6.5C12.0001 6.56568 11.9872 6.63073 11.9621 6.69142C11.937 6.75212 11.9002 6.80728 11.8538 6.85375L8.5 10.2069V12H10C10.0989 11.9999 10.1957 12.0292 10.278 12.0841C10.3603 12.1391 10.4244 12.2172 10.4623 12.3086C10.5002 12.4 10.5101 12.5006 10.4908 12.5977C10.4714 12.6947 10.4238 12.7838 10.3538 12.8538L8.35375 14.8538C8.30731 14.9002 8.25217 14.9371 8.19147 14.9623C8.13077 14.9874 8.06571 15.0004 8 15.0004C7.93429 15.0004 7.86923 14.9874 7.80853 14.9623C7.74783 14.9371 7.69269 14.9002 7.64625 14.8538L5.64625 12.8538C5.57624 12.7838 5.52856 12.6947 5.50924 12.5977C5.48991 12.5006 5.49981 12.4 5.53769 12.3086C5.57557 12.2172 5.63971 12.1391 5.72201 12.0841C5.80431 12.0292 5.90105 11.9999 6 12H7.5V10.2069L4.14625 6.85375C4.09983 6.80728 4.06303 6.75212 4.03793 6.69142C4.01284 6.63073 3.99995 6.56568 4 6.5V2.5C4 2.36739 4.05268 2.24021 4.14645 2.14645C4.24022 2.05268 4.36739 2 4.5 2C4.63261 2 4.75979 2.05268 4.85355 2.14645C4.94732 2.24021 5 2.36739 5 2.5V6.29313L8 9.29313L11 6.29313V2.5C11 2.36739 11.0527 2.24021 11.1464 2.14645C11.2402 2.05268 11.3674 2 11.5 2C11.6326 2 11.7598 2.05268 11.8536 2.14645C11.9473 2.24021 12 2.36739 12 2.5Z" fill="black"/>
</g>
<defs>
<clipPath id="clip0_5_1389">
<rect width="16" height="16" fill="white"/>
</clipPath>
</defs>
</svg>
