<svg width="16" height="16" viewBox="0 0 16 16" fill="none" xmlns="http://www.w3.org/2000/svg">
<g clip-path="url(#clip0_5_1373)">
<path d="M14.3538 11.8538L12.3538 13.8538C12.3073 13.9002 12.2522 13.9371 12.1915 13.9623C12.1308 13.9874 12.0657 14.0004 12 14.0004C11.9343 14.0004 11.8693 13.9874 11.8086 13.9623C11.7479 13.9371 11.6927 13.9002 11.6463 13.8538L9.64628 11.8538C9.57627 11.7838 9.52859 11.6947 9.50926 11.5977C9.48994 11.5006 9.49984 11.4 9.53772 11.3086C9.57559 11.2172 9.63974 11.1391 9.72204 11.0841C9.80433 11.0292 9.90108 10.9999 10 11H11.5V8.70687L8.00003 5.20687L4.50003 8.70687V11H6.00003C6.09898 10.9999 6.19572 11.0292 6.27802 11.0841C6.36032 11.1391 6.42446 11.2172 6.46234 11.3086C6.50022 11.4 6.51012 11.5006 6.49079 11.5977C6.47147 11.6947 6.42378 11.7838 6.35378 11.8538L4.35378 13.8538C4.30734 13.9002 4.2522 13.9371 4.1915 13.9623C4.1308 13.9874 4.06574 14.0004 4.00003 14.0004C3.93432 14.0004 3.86926 13.9874 3.80856 13.9623C3.74786 13.9371 3.69271 13.9002 3.64628 13.8538L1.64628 11.8538C1.57627 11.7838 1.52859 11.6947 1.50926 11.5977C1.48994 11.5006 1.49984 11.4 1.53772 11.3086C1.57559 11.2172 1.63974 11.1391 1.72204 11.0841C1.80433 11.0292 1.90108 10.9999 2.00003 11H3.50003V8.5C3.49998 8.43432 3.51287 8.36927 3.53796 8.30857C3.56305 8.24788 3.59986 8.19272 3.64628 8.14625L7.50003 4.29313V1.5C7.50003 1.36739 7.55271 1.24021 7.64647 1.14645C7.74024 1.05268 7.86742 1 8.00003 1C8.13264 1 8.25981 1.05268 8.35358 1.14645C8.44735 1.24021 8.50003 1.36739 8.50003 1.5V4.29313L12.3538 8.14625C12.4002 8.19272 12.437 8.24788 12.4621 8.30857C12.4872 8.36927 12.5001 8.43432 12.5 8.5V11H14C14.099 10.9999 14.1957 11.0292 14.278 11.0841C14.3603 11.1391 14.4245 11.2172 14.4623 11.3086C14.5002 11.4 14.5101 11.5006 14.4908 11.5977C14.4715 11.6947 14.4238 11.7838 14.3538 11.8538Z" fill="black"/>
</g>
<defs>
<clipPath id="clip0_5_1373">
<rect width="16" height="16" fill="white"/>
</clipPath>
</defs>
</svg>
