<svg width="16" height="16" viewBox="0 0 16 16" fill="none" xmlns="http://www.w3.org/2000/svg">
<g clip-path="url(#clip0_5_1483)">
<path d="M13.8538 8.35378L9.35375 12.8538C9.28382 12.9238 9.1947 12.9715 9.09765 12.9908C9.00061 13.0101 8.90002 13.0002 8.80861 12.9623C8.71719 12.9245 8.63908 12.8603 8.58414 12.778C8.5292 12.6957 8.49992 12.599 8.5 12.5V8.50003H2.5C2.36739 8.50003 2.24021 8.44735 2.14645 8.35358C2.05268 8.25981 2 8.13264 2 8.00003C2 7.86742 2.05268 7.74024 2.14645 7.64647C2.24021 7.55271 2.36739 7.50003 2.5 7.50003H8.5V3.50003C8.49992 3.40108 8.5292 3.30433 8.58414 3.22204C8.63908 3.13974 8.71719 3.07559 8.80861 3.03772C8.90002 2.99984 9.00061 2.98994 9.09765 3.00926C9.1947 3.02859 9.28382 3.07627 9.35375 3.14628L13.8538 7.64628C13.9002 7.69271 13.9371 7.74786 13.9623 7.80856C13.9874 7.86926 14.0004 7.93432 14.0004 8.00003C14.0004 8.06574 13.9874 8.1308 13.9623 8.1915C13.9371 8.2522 13.9002 8.30734 13.8538 8.35378Z" fill="black"/>
</g>
<defs>
<clipPath id="clip0_5_1483">
<rect width="16" height="16" fill="white"/>
</clipPath>
</defs>
</svg>
