<svg width="16" height="16" viewBox="0 0 16 16" fill="none" xmlns="http://www.w3.org/2000/svg">
<g clip-path="url(#clip0_5_1396)">
<path d="M8.5 2.5V13.5C8.5 13.6326 8.44732 13.7598 8.35355 13.8536C8.25979 13.9473 8.13261 14 8 14C7.86739 14 7.74021 13.9473 7.64645 13.8536C7.55268 13.7598 7.5 13.6326 7.5 13.5V2.5C7.5 2.36739 7.55268 2.24021 7.64645 2.14645C7.74021 2.05268 7.86739 2 8 2C8.13261 2 8.25979 2.05268 8.35355 2.14645C8.44732 2.24021 8.5 2.36739 8.5 2.5ZM4.35375 5.64625C4.28382 5.57624 4.1947 5.52856 4.09765 5.50924C4.00061 5.48991 3.90002 5.49981 3.8086 5.53769C3.71719 5.57556 3.63908 5.63971 3.58414 5.72201C3.5292 5.80431 3.49992 5.90105 3.5 6V7.5H1C0.867392 7.5 0.740215 7.55268 0.646447 7.64645C0.552678 7.74021 0.5 7.86739 0.5 8C0.5 8.13261 0.552678 8.25979 0.646447 8.35355C0.740215 8.44732 0.867392 8.5 1 8.5H3.5V10C3.49992 10.0989 3.5292 10.1957 3.58414 10.278C3.63908 10.3603 3.71719 10.4244 3.8086 10.4623C3.90002 10.5002 4.00061 10.5101 4.09765 10.4908C4.1947 10.4714 4.28382 10.4238 4.35375 10.3538L6.35375 8.35375C6.40024 8.30731 6.43712 8.25217 6.46228 8.19147C6.48744 8.13077 6.50039 8.06571 6.50039 8C6.50039 7.93429 6.48744 7.86923 6.46228 7.80853C6.43712 7.74783 6.40024 7.69269 6.35375 7.64625L4.35375 5.64625ZM15 7.5H12.5V6C12.5001 5.90105 12.4708 5.80431 12.4159 5.72201C12.3609 5.63971 12.2828 5.57556 12.1914 5.53769C12.1 5.49981 11.9994 5.48991 11.9023 5.50924C11.8053 5.52856 11.7162 5.57624 11.6462 5.64625L9.64625 7.64625C9.59976 7.69269 9.56288 7.74783 9.53772 7.80853C9.51256 7.86923 9.49961 7.93429 9.49961 8C9.49961 8.06571 9.51256 8.13077 9.53772 8.19147C9.56288 8.25217 9.59976 8.30731 9.64625 8.35375L11.6462 10.3538C11.7162 10.4238 11.8053 10.4714 11.9023 10.4908C11.9994 10.5101 12.1 10.5002 12.1914 10.4623C12.2828 10.4244 12.3609 10.3603 12.4159 10.278C12.4708 10.1957 12.5001 10.0989 12.5 10V8.5H15C15.1326 8.5 15.2598 8.44732 15.3536 8.35355C15.4473 8.25979 15.5 8.13261 15.5 8C15.5 7.86739 15.4473 7.74021 15.3536 7.64645C15.2598 7.55268 15.1326 7.5 15 7.5Z" fill="black"/>
</g>
<defs>
<clipPath id="clip0_5_1396">
<rect width="16" height="16" fill="white"/>
</clipPath>
</defs>
</svg>
