<svg width="16" height="16" viewBox="0 0 16 16" fill="none" xmlns="http://www.w3.org/2000/svg">
<g clip-path="url(#clip0_5_1504)">
<path d="M14 2.5C14 2.63261 13.9473 2.75979 13.8536 2.85355C13.7598 2.94732 13.6326 3 13.5 3H2.5C2.36739 3 2.24021 2.94732 2.14645 2.85355C2.05268 2.75979 2 2.63261 2 2.5C2 2.36739 2.05268 2.24021 2.14645 2.14645C2.24021 2.05268 2.36739 2 2.5 2H13.5C13.6326 2 13.7598 2.05268 13.8536 2.14645C13.9473 2.24021 14 2.36739 14 2.5ZM12.1912 6.03813C12.0999 6.00023 11.9994 5.99027 11.9023 6.00952C11.8053 6.02876 11.7162 6.07635 11.6462 6.14625L9 8.79313L5.35375 5.14625C5.25993 5.05243 5.13268 4.99972 5 4.99972C4.86732 4.99972 4.74007 5.05243 4.64625 5.14625C4.55243 5.24007 4.49972 5.36732 4.49972 5.5C4.49972 5.63268 4.55243 5.75993 4.64625 5.85375L8.29313 9.5L5.64625 12.1462C5.57624 12.2162 5.52856 12.3053 5.50924 12.4023C5.48991 12.4994 5.49981 12.6 5.53769 12.6914C5.57556 12.7828 5.63971 12.8609 5.72201 12.9159C5.80431 12.9708 5.90105 13.0001 6 13H12C12.1326 13 12.2598 12.9473 12.3536 12.8536C12.4473 12.7598 12.5 12.6326 12.5 12.5V6.5C12.5 6.40111 12.4706 6.30445 12.4157 6.22223C12.3607 6.14002 12.2826 6.07595 12.1912 6.03813Z" fill="black"/>
</g>
<defs>
<clipPath id="clip0_5_1504">
<rect width="16" height="16" fill="white"/>
</clipPath>
</defs>
</svg>
