<svg width="16" height="16" viewBox="0 0 16 16" fill="none" xmlns="http://www.w3.org/2000/svg">
<g clip-path="url(#clip0_5_1379)">
<path d="M8.50003 2.5V13.5C8.50003 13.6326 8.44735 13.7598 8.35358 13.8536C8.25981 13.9473 8.13264 14 8.00003 14C7.86742 14 7.74024 13.9473 7.64647 13.8536C7.55271 13.7598 7.50003 13.6326 7.50003 13.5V2.5C7.50003 2.36739 7.55271 2.24021 7.64647 2.14645C7.74024 2.05268 7.86742 2 8.00003 2C8.13264 2 8.25981 2.05268 8.35358 2.14645C8.44735 2.24021 8.50003 2.36739 8.50003 2.5ZM6.00003 7.5H3.50003V6C3.50011 5.90105 3.47082 5.80431 3.41589 5.72201C3.36095 5.63971 3.28283 5.57556 3.19142 5.53769C3.10001 5.49981 2.99942 5.48991 2.90237 5.50924C2.80533 5.52856 2.7162 5.57624 2.64628 5.64625L0.646277 7.64625C0.599789 7.69269 0.562909 7.74783 0.537747 7.80853C0.512585 7.86923 0.499634 7.93429 0.499634 8C0.499634 8.06571 0.512585 8.13077 0.537747 8.19147C0.562909 8.25217 0.599789 8.30731 0.646277 8.35375L2.64628 10.3538C2.7162 10.4238 2.80533 10.4714 2.90237 10.4908C2.99942 10.5101 3.10001 10.5002 3.19142 10.4623C3.28283 10.4244 3.36095 10.3603 3.41589 10.278C3.47082 10.1957 3.50011 10.0989 3.50003 10V8.5H6.00003C6.13264 8.5 6.25981 8.44732 6.35358 8.35355C6.44735 8.25979 6.50003 8.13261 6.50003 8C6.50003 7.86739 6.44735 7.74021 6.35358 7.64645C6.25981 7.55268 6.13264 7.5 6.00003 7.5ZM15.3538 7.64625L13.3538 5.64625C13.2838 5.57624 13.1947 5.52856 13.0977 5.50924C13.0006 5.48991 12.9 5.49981 12.8086 5.53769C12.7172 5.57556 12.6391 5.63971 12.5842 5.72201C12.5292 5.80431 12.4999 5.90105 12.5 6V7.5H10C9.86742 7.5 9.74024 7.55268 9.64647 7.64645C9.5527 7.74021 9.50003 7.86739 9.50003 8C9.50003 8.13261 9.5527 8.25979 9.64647 8.35355C9.74024 8.44732 9.86742 8.5 10 8.5H12.5V10C12.4999 10.0989 12.5292 10.1957 12.5842 10.278C12.6391 10.3603 12.7172 10.4244 12.8086 10.4623C12.9 10.5002 13.0006 10.5101 13.0977 10.4908C13.1947 10.4714 13.2838 10.4238 13.3538 10.3538L15.3538 8.35375C15.4003 8.30731 15.4371 8.25217 15.4623 8.19147C15.4875 8.13077 15.5004 8.06571 15.5004 8C15.5004 7.93429 15.4875 7.86923 15.4623 7.80853C15.4371 7.74783 15.4003 7.69269 15.3538 7.64625Z" fill="black"/>
</g>
<defs>
<clipPath id="clip0_5_1379">
<rect width="16" height="16" fill="white"/>
</clipPath>
</defs>
</svg>
