<svg width="16" height="16" viewBox="0 0 16 16" fill="none" xmlns="http://www.w3.org/2000/svg">
<g clip-path="url(#clip0_5_1498)">
<path d="M14.5 13C14.5 13.1326 14.4473 13.2598 14.3536 13.3536C14.2598 13.4473 14.1326 13.5 14 13.5H3C2.86739 13.5 2.74021 13.4473 2.64645 13.3536C2.55268 13.2598 2.5 13.1326 2.5 13C2.5 12.8674 2.55268 12.7402 2.64645 12.6464C2.74021 12.5527 2.86739 12.5 3 12.5H14C14.1326 12.5 14.2598 12.5527 14.3536 12.6464C14.4473 12.7402 14.5 12.8674 14.5 13ZM4.30875 9.46187C4.4001 9.49977 4.50064 9.50973 4.59765 9.49048C4.69466 9.47124 4.78379 9.42365 4.85375 9.35375L7.5 6.70687L11.1462 10.3538C11.1927 10.4002 11.2479 10.4371 11.3086 10.4622C11.3692 10.4873 11.4343 10.5003 11.5 10.5003C11.5657 10.5003 11.6308 10.4873 11.6914 10.4622C11.7521 10.4371 11.8073 10.4002 11.8538 10.3538C11.9002 10.3073 11.9371 10.2521 11.9622 10.1914C11.9873 10.1308 12.0003 10.0657 12.0003 10C12.0003 9.9343 11.9873 9.86925 11.9622 9.80855C11.9371 9.74786 11.9002 9.6927 11.8538 9.64625L8.20687 6L10.8538 3.35375C10.9238 3.28382 10.9714 3.1947 10.9908 3.09765C11.0101 3.00061 11.0002 2.90002 10.9623 2.80861C10.9244 2.71719 10.8603 2.63908 10.778 2.58414C10.6957 2.5292 10.5989 2.49992 10.5 2.5H4.5C4.36739 2.5 4.24021 2.55268 4.14645 2.64645C4.05268 2.74022 4 2.86739 4 3V9C4.00002 9.09889 4.02936 9.19555 4.08432 9.27777C4.13928 9.35998 4.21738 9.42405 4.30875 9.46187Z" fill="black"/>
</g>
<defs>
<clipPath id="clip0_5_1498">
<rect width="16" height="16" fill="white"/>
</clipPath>
</defs>
</svg>
