<svg width="16" height="16" viewBox="0 0 16 16" fill="none" xmlns="http://www.w3.org/2000/svg">
<g clip-path="url(#clip0_5_1550)">
<path d="M13.9619 6.19128C13.924 6.28265 13.86 6.36075 13.7778 6.41571C13.6956 6.47066 13.5989 6.50001 13.5 6.50003H11V12C11 12.1326 10.9473 12.2598 10.8536 12.3536C10.7598 12.4473 10.6326 12.5 10.5 12.5H1.5C1.36739 12.5 1.24021 12.4473 1.14645 12.3536C1.05268 12.2598 1 12.1326 1 12C1 11.8674 1.05268 11.7402 1.14645 11.6465C1.24021 11.5527 1.36739 11.5 1.5 11.5H10V6.50003H7.5C7.40105 6.5001 7.30431 6.47082 7.22201 6.41589C7.13971 6.36095 7.07556 6.28283 7.03769 6.19142C6.99981 6.10001 6.98991 5.99942 7.00924 5.90237C7.02856 5.80533 7.07624 5.7162 7.14625 5.64628L10.1462 2.64628C10.1927 2.59979 10.2478 2.56291 10.3085 2.53775C10.3692 2.51259 10.4343 2.49963 10.5 2.49963C10.5657 2.49963 10.6308 2.51259 10.6915 2.53775C10.7522 2.56291 10.8073 2.59979 10.8538 2.64628L13.8538 5.64628C13.9237 5.71624 13.9712 5.80537 13.9905 5.90238C14.0097 5.99939 13.9998 6.09993 13.9619 6.19128Z" fill="black"/>
</g>
<defs>
<clipPath id="clip0_5_1550">
<rect width="16" height="16" fill="white"/>
</clipPath>
</defs>
</svg>
