<svg width="16" height="16" viewBox="0 0 16 16" fill="none" xmlns="http://www.w3.org/2000/svg">
<g clip-path="url(#clip0_5_815)">
<path d="M12.8538 11.3538L9.85375 14.3538C9.80731 14.4002 9.75217 14.4371 9.69147 14.4623C9.63077 14.4874 9.56571 14.5004 9.5 14.5004C9.43429 14.5004 9.36923 14.4874 9.30853 14.4623C9.24783 14.4371 9.19269 14.4002 9.14625 14.3538L6.14625 11.3538C6.07624 11.2838 6.02856 11.1947 6.00924 11.0977C5.98991 11.0006 5.99981 10.9 6.03769 10.8086C6.07556 10.7172 6.13971 10.6391 6.22201 10.5841C6.30431 10.5292 6.40105 10.4999 6.5 10.5H9V8C8.99835 6.54182 8.41835 5.14383 7.38726 4.11274C6.35617 3.08165 4.95818 2.50165 3.5 2.5C3.36739 2.5 3.24021 2.44732 3.14645 2.35355C3.05268 2.25979 3 2.13261 3 2C3 1.86739 3.05268 1.74021 3.14645 1.64645C3.24021 1.55268 3.36739 1.5 3.5 1.5C5.22335 1.50182 6.87559 2.18722 8.09418 3.40582C9.31278 4.62441 9.99818 6.27665 10 8V10.5H12.5C12.5989 10.4999 12.6957 10.5292 12.778 10.5841C12.8603 10.6391 12.9244 10.7172 12.9623 10.8086C13.0002 10.9 13.0101 11.0006 12.9908 11.0977C12.9714 11.1947 12.9238 11.2838 12.8538 11.3538Z" fill="black"/>
</g>
<defs>
<clipPath id="clip0_5_815">
<rect width="16" height="16" fill="white"/>
</clipPath>
</defs>
</svg>
