<svg width="16" height="16" viewBox="0 0 16 16" fill="none" xmlns="http://www.w3.org/2000/svg">
<g clip-path="url(#clip0_5_1437)">
<path d="M10.5 8.50003V6.00003H5.5C4.70435 6.00003 3.94129 6.3161 3.37868 6.87871C2.81607 7.44132 2.5 8.20438 2.5 9.00003C2.5 9.79568 2.81607 10.5587 3.37868 11.1213C3.94129 11.684 4.70435 12 5.5 12H11C11.1326 12 11.2598 12.0527 11.3536 12.1465C11.4473 12.2402 11.5 12.3674 11.5 12.5C11.5 12.6326 11.4473 12.7598 11.3536 12.8536C11.2598 12.9473 11.1326 13 11 13H5.5C4.43913 13 3.42172 12.5786 2.67157 11.8285C1.92143 11.0783 1.5 10.0609 1.5 9.00003C1.5 7.93916 1.92143 6.92175 2.67157 6.1716C3.42172 5.42145 4.43913 5.00003 5.5 5.00003H10.5V2.50003C10.4999 2.40108 10.5292 2.30433 10.5841 2.22204C10.6391 2.13974 10.7172 2.07559 10.8086 2.03772C10.9 1.99984 11.0006 1.98994 11.0977 2.00926C11.1947 2.02859 11.2838 2.07627 11.3538 2.14628L14.3538 5.14628C14.4002 5.19271 14.4371 5.24786 14.4623 5.30856C14.4874 5.36926 14.5004 5.43432 14.5004 5.50003C14.5004 5.56574 14.4874 5.6308 14.4623 5.6915C14.4371 5.7522 14.4002 5.80734 14.3538 5.85378L11.3538 8.85378C11.2838 8.92378 11.1947 8.97147 11.0977 8.99079C11.0006 9.01012 10.9 9.00021 10.8086 8.96234C10.7172 8.92446 10.6391 8.86032 10.5841 8.77802C10.5292 8.69572 10.4999 8.59898 10.5 8.50003Z" fill="black"/>
</g>
<defs>
<clipPath id="clip0_5_1437">
<rect width="16" height="16" fill="white"/>
</clipPath>
</defs>
</svg>
