<svg width="16" height="16" viewBox="0 0 16 16" fill="none" xmlns="http://www.w3.org/2000/svg">
<g clip-path="url(#clip0_5_1567)">
<path d="M8 1.5C6.71442 1.5 5.45772 1.88122 4.3888 2.59545C3.31988 3.30968 2.48676 4.32484 1.99479 5.51256C1.50282 6.70028 1.37409 8.00721 1.6249 9.26809C1.8757 10.529 2.49477 11.6872 3.40381 12.5962C4.31285 13.5052 5.47104 14.1243 6.73192 14.3751C7.99279 14.6259 9.29973 14.4972 10.4874 14.0052C11.6752 13.5132 12.6903 12.6801 13.4046 11.6112C14.1188 10.5423 14.5 9.28558 14.5 8C14.4982 6.27665 13.8128 4.62441 12.5942 3.40582C11.3756 2.18722 9.72335 1.50182 8 1.5ZM10.5 9C10.5 9.13261 10.4473 9.25979 10.3536 9.35355C10.2598 9.44732 10.1326 9.5 10 9.5C9.86739 9.5 9.74022 9.44732 9.64645 9.35355C9.55268 9.25979 9.5 9.13261 9.5 9V7.20687L6.35375 10.3538C6.3073 10.4002 6.25215 10.4371 6.19145 10.4622C6.13075 10.4873 6.0657 10.5003 6 10.5003C5.93431 10.5003 5.86925 10.4873 5.80855 10.4622C5.74786 10.4371 5.69271 10.4002 5.64625 10.3538C5.5998 10.3073 5.56295 10.2521 5.53781 10.1914C5.51266 10.1308 5.49972 10.0657 5.49972 10C5.49972 9.9343 5.51266 9.86925 5.53781 9.80855C5.56295 9.74786 5.5998 9.69271 5.64625 9.64625L8.79313 6.5H7C6.86739 6.5 6.74022 6.44732 6.64645 6.35355C6.55268 6.25979 6.5 6.13261 6.5 6C6.5 5.86739 6.55268 5.74021 6.64645 5.64645C6.74022 5.55268 6.86739 5.5 7 5.5H10C10.1326 5.5 10.2598 5.55268 10.3536 5.64645C10.4473 5.74021 10.5 5.86739 10.5 6V9Z" fill="black"/>
</g>
<defs>
<clipPath id="clip0_5_1567">
<rect width="16" height="16" fill="white"/>
</clipPath>
</defs>
</svg>
