<svg width="16" height="16" viewBox="0 0 16 16" fill="none" xmlns="http://www.w3.org/2000/svg">
<g clip-path="url(#clip0_5_1599)">
<path d="M15 5.50003V9.50003C15 9.63264 14.9473 9.75981 14.8536 9.85358C14.7598 9.94735 14.6326 10 14.5 10H10.5C10.4011 10.0001 10.3043 9.97082 10.222 9.91589C10.1397 9.86095 10.0756 9.78283 10.0377 9.69142C9.99981 9.60001 9.98991 9.49942 10.0092 9.40237C10.0286 9.30533 10.0762 9.21621 10.1462 9.14628L11.7831 7.51003C11.0028 6.77059 10.0229 6.27603 8.96456 6.0875C7.9062 5.89898 6.8158 6.02474 5.82815 6.44924C4.8405 6.87374 3.9989 7.57838 3.4074 8.47604C2.8159 9.37369 2.50044 10.425 2.5 11.5C2.5 11.6326 2.44732 11.7598 2.35355 11.8536C2.25979 11.9473 2.13261 12 2 12C1.86739 12 1.74021 11.9473 1.64645 11.8536C1.55268 11.7598 1.5 11.6326 1.5 11.5C1.50001 10.227 1.87386 8.9819 2.57517 7.9194C3.27647 6.85691 4.27434 6.02374 5.44494 5.52331C6.61554 5.02288 7.90732 4.87722 9.15996 5.10441C10.4126 5.3316 11.571 5.92163 12.4913 6.80128L14.1462 5.14628C14.2162 5.07627 14.3053 5.02859 14.4023 5.00926C14.4994 4.98994 14.6 4.99984 14.6914 5.03772C14.7828 5.07559 14.8609 5.13974 14.9159 5.22204C14.9708 5.30433 15.0001 5.40108 15 5.50003Z" fill="black"/>
</g>
<defs>
<clipPath id="clip0_5_1599">
<rect width="16" height="16" fill="white"/>
</clipPath>
</defs>
</svg>
