<svg width="16" height="16" viewBox="0 0 16 16" fill="none" xmlns="http://www.w3.org/2000/svg">
<g clip-path="url(#clip0_5_1495)">
<path d="M14.8538 6.35375L8.85375 12.3538C8.80731 12.4002 8.75217 12.4371 8.69147 12.4623C8.63077 12.4874 8.56571 12.5004 8.5 12.5004C8.43429 12.5004 8.36923 12.4874 8.30853 12.4623C8.24783 12.4371 8.19269 12.4002 8.14625 12.3538L3.75 7.95688L1.85375 9.85375C1.78382 9.92376 1.6947 9.97144 1.59765 9.99076C1.50061 10.0101 1.40002 10.0002 1.30861 9.96231C1.21719 9.92443 1.13908 9.86029 1.08414 9.77799C1.0292 9.69569 0.999922 9.59895 1 9.5V5C1 4.86739 1.05268 4.74022 1.14645 4.64645C1.24021 4.55268 1.36739 4.5 1.5 4.5H6C6.09895 4.49992 6.19569 4.5292 6.27799 4.58414C6.36029 4.63908 6.42444 4.71719 6.46231 4.8086C6.50019 4.90002 6.51009 5.00061 6.49076 5.09765C6.47144 5.1947 6.42376 5.28382 6.35375 5.35375L4.45688 7.25L8.5 11.2931L14.1462 5.64625C14.1927 5.59979 14.2479 5.56294 14.3086 5.5378C14.3692 5.51266 14.4343 5.49972 14.5 5.49972C14.5657 5.49972 14.6308 5.51266 14.6914 5.5378C14.7521 5.56294 14.8073 5.59979 14.8538 5.64625C14.9002 5.69271 14.9371 5.74786 14.9622 5.80855C14.9873 5.86925 15.0003 5.9343 15.0003 6C15.0003 6.0657 14.9873 6.13075 14.9622 6.19145C14.9371 6.25214 14.9002 6.3073 14.8538 6.35375Z" fill="black"/>
</g>
<defs>
<clipPath id="clip0_5_1495">
<rect width="16" height="16" fill="white"/>
</clipPath>
</defs>
</svg>
