<svg width="16" height="16" viewBox="0 0 16 16" fill="none" xmlns="http://www.w3.org/2000/svg">
<g clip-path="url(#clip0_5_1195)">
<path d="M12.4999 5.00003V14C12.4999 14.1326 12.4472 14.2598 12.3535 14.3536C12.2597 14.4473 12.1325 14.5 11.9999 14.5C11.8673 14.5 11.7401 14.4473 11.6464 14.3536C11.5526 14.2598 11.4999 14.1326 11.4999 14V5.50003H6.49991V8.00003C6.49998 8.09898 6.4707 8.19572 6.41577 8.27802C6.36083 8.36032 6.28271 8.42446 6.1913 8.46234C6.09989 8.50021 5.99929 8.51012 5.90225 8.49079C5.80521 8.47147 5.71608 8.42378 5.64615 8.35378L2.64616 5.35378C2.59967 5.30734 2.56279 5.2522 2.53763 5.1915C2.51246 5.1308 2.49951 5.06574 2.49951 5.00003C2.49951 4.93432 2.51246 4.86926 2.53763 4.80856C2.56279 4.74786 2.59967 4.69271 2.64616 4.64628L5.64615 1.64628C5.71608 1.57627 5.80521 1.52859 5.90225 1.50926C5.99929 1.48994 6.09989 1.49984 6.1913 1.53772C6.28271 1.57559 6.36083 1.63974 6.41577 1.72204C6.4707 1.80433 6.49998 1.90108 6.49991 2.00003V4.50003H11.9999C12.1325 4.50003 12.2597 4.55271 12.3535 4.64647C12.4472 4.74024 12.4999 4.86742 12.4999 5.00003Z" fill="black"/>
</g>
<defs>
<clipPath id="clip0_5_1195">
<rect width="16" height="16" fill="white"/>
</clipPath>
</defs>
</svg>
