<svg width="16" height="16" viewBox="0 0 16 16" fill="none" xmlns="http://www.w3.org/2000/svg">
<g clip-path="url(#clip0_5_1586)">
<path d="M14.4999 12.5C14.4999 12.6326 14.4472 12.7598 14.3535 12.8536C14.2597 12.9473 14.1325 13 13.9999 13C13.8673 13 13.7401 12.9473 13.6464 12.8536C13.5526 12.7598 13.4999 12.6326 13.4999 12.5C13.4983 11.0418 12.9183 9.64386 11.8872 8.61277C10.8561 7.58168 9.45809 7.00168 7.99991 7.00003H5.49991V9.50003C5.49998 9.59898 5.4707 9.69572 5.41577 9.77802C5.36083 9.86032 5.28271 9.92446 5.1913 9.96234C5.09989 10.0002 4.99929 10.0101 4.90225 9.99079C4.80521 9.97147 4.71608 9.92378 4.64615 9.85378L1.64615 6.85378C1.59967 6.80734 1.56279 6.7522 1.53763 6.6915C1.51246 6.6308 1.49951 6.56574 1.49951 6.50003C1.49951 6.43432 1.51246 6.36926 1.53763 6.30856C1.56279 6.24786 1.59967 6.19271 1.64615 6.14628L4.64615 3.14628C4.71608 3.07627 4.80521 3.02859 4.90225 3.00926C4.99929 2.98994 5.09989 2.99984 5.1913 3.03772C5.28271 3.07559 5.36083 3.13974 5.41577 3.22204C5.4707 3.30433 5.49998 3.40108 5.49991 3.50003V6.00003H7.99991C9.72325 6.00185 11.3755 6.68725 12.5941 7.90584C13.8127 9.12444 14.4981 10.7767 14.4999 12.5Z" fill="black"/>
</g>
<defs>
<clipPath id="clip0_5_1586">
<rect width="16" height="16" fill="white"/>
</clipPath>
</defs>
</svg>
