<svg width="16" height="16" viewBox="0 0 16 16" fill="none" xmlns="http://www.w3.org/2000/svg">
<g clip-path="url(#clip0_5_1622)">
<path d="M3.14625 7.35375C3.07624 7.28382 3.02856 7.1947 3.00924 7.09765C2.98991 7.00061 2.99981 6.90002 3.03769 6.8086C3.07556 6.71719 3.13971 6.63908 3.22201 6.58414C3.30431 6.5292 3.40105 6.49992 3.5 6.5H7.5V2C7.5 1.86739 7.55268 1.74021 7.64645 1.64645C7.74021 1.55268 7.86739 1.5 8 1.5C8.13261 1.5 8.25979 1.55268 8.35355 1.64645C8.44732 1.74021 8.5 1.86739 8.5 2V6.5H12.5C12.5989 6.49992 12.6957 6.5292 12.778 6.58414C12.8603 6.63908 12.9244 6.71719 12.9623 6.8086C13.0002 6.90002 13.0101 7.00061 12.9908 7.09765C12.9714 7.1947 12.9238 7.28382 12.8538 7.35375L8.35375 11.8538C8.30731 11.9002 8.25217 11.9371 8.19147 11.9623C8.13077 11.9874 8.06571 12.0004 8 12.0004C7.93429 12.0004 7.86923 11.9874 7.80853 11.9623C7.74783 11.9371 7.69269 11.9002 7.64625 11.8538L3.14625 7.35375ZM13.5 13H2.5C2.36739 13 2.24021 13.0527 2.14645 13.1464C2.05268 13.2402 2 13.3674 2 13.5C2 13.6326 2.05268 13.7598 2.14645 13.8536C2.24021 13.9473 2.36739 14 2.5 14H13.5C13.6326 14 13.7598 13.9473 13.8536 13.8536C13.9473 13.7598 14 13.6326 14 13.5C14 13.3674 13.9473 13.2402 13.8536 13.1464C13.7598 13.0527 13.6326 13 13.5 13Z" fill="black"/>
</g>
<defs>
<clipPath id="clip0_5_1622">
<rect width="16" height="16" fill="white"/>
</clipPath>
</defs>
</svg>
