<svg width="16" height="16" viewBox="0 0 16 16" fill="none" xmlns="http://www.w3.org/2000/svg">
<g clip-path="url(#clip0_5_1540)">
<path d="M13 2H3C2.73478 2 2.48043 2.10536 2.29289 2.29289C2.10536 2.48043 2 2.73478 2 3V13C2 13.2652 2.10536 13.5196 2.29289 13.7071C2.48043 13.8946 2.73478 14 3 14H13C13.2652 14 13.5196 13.8946 13.7071 13.7071C13.8946 13.5196 14 13.2652 14 13V3C14 2.73478 13.8946 2.48043 13.7071 2.29289C13.5196 2.10536 13.2652 2 13 2ZM10.5 8.5H6.70687L7.85375 9.64625C7.90021 9.6927 7.93706 9.74786 7.9622 9.80855C7.98734 9.86925 8.00028 9.9343 8.00028 10C8.00028 10.0657 7.98734 10.1308 7.9622 10.1914C7.93706 10.2521 7.90021 10.3073 7.85375 10.3538C7.8073 10.4002 7.75214 10.4371 7.69145 10.4622C7.63075 10.4873 7.5657 10.5003 7.5 10.5003C7.4343 10.5003 7.36925 10.4873 7.30855 10.4622C7.24786 10.4371 7.1927 10.4002 7.14625 10.3538L5.14625 8.35375C5.09976 8.30731 5.06288 8.25217 5.03772 8.19147C5.01256 8.13077 4.99961 8.06571 4.99961 8C4.99961 7.93429 5.01256 7.86923 5.03772 7.80853C5.06288 7.74783 5.09976 7.69269 5.14625 7.64625L7.14625 5.64625C7.24007 5.55243 7.36732 5.49972 7.5 5.49972C7.63268 5.49972 7.75993 5.55243 7.85375 5.64625C7.94757 5.74007 8.00028 5.86732 8.00028 6C8.00028 6.13268 7.94757 6.25993 7.85375 6.35375L6.70687 7.5H10.5C10.6326 7.5 10.7598 7.55268 10.8536 7.64645C10.9473 7.74021 11 7.86739 11 8C11 8.13261 10.9473 8.25979 10.8536 8.35355C10.7598 8.44732 10.6326 8.5 10.5 8.5Z" fill="black"/>
</g>
<defs>
<clipPath id="clip0_5_1540">
<rect width="16" height="16" fill="white"/>
</clipPath>
</defs>
</svg>
