<svg width="16" height="16" viewBox="0 0 16 16" fill="none" xmlns="http://www.w3.org/2000/svg">
<g clip-path="url(#clip0_5_1386)">
<path d="M13.5 3V6C13.5001 6.09895 13.4708 6.19569 13.4159 6.27799C13.3609 6.36029 13.2828 6.42444 13.1914 6.46231C13.1 6.50019 12.9994 6.51009 12.9023 6.49076C12.8053 6.47144 12.7162 6.42376 12.6462 6.35375L11.5 5.20688L9.85375 6.85375C9.75993 6.94757 9.63268 7.00028 9.5 7.00028C9.36732 7.00028 9.24007 6.94757 9.14625 6.85375C9.05243 6.75993 8.99972 6.63268 8.99972 6.5C8.99972 6.36732 9.05243 6.24007 9.14625 6.14625L10.7931 4.5L9.64625 3.35375C9.57624 3.28382 9.52856 3.1947 9.50924 3.09765C9.48991 3.00061 9.49981 2.90002 9.53769 2.80861C9.57557 2.71719 9.63971 2.63908 9.72201 2.58414C9.80431 2.5292 9.90105 2.49992 10 2.5H13C13.1326 2.5 13.2598 2.55268 13.3536 2.64645C13.4473 2.74022 13.5 2.86739 13.5 3ZM6.14625 9.14625L4.5 10.7931L3.35375 9.64625C3.28382 9.57624 3.1947 9.52856 3.09765 9.50924C3.00061 9.48991 2.90002 9.49981 2.80861 9.53769C2.71719 9.57557 2.63908 9.63971 2.58414 9.72201C2.5292 9.80431 2.49992 9.90105 2.5 10V13C2.5 13.1326 2.55268 13.2598 2.64645 13.3536C2.74022 13.4473 2.86739 13.5 3 13.5H6C6.09895 13.5001 6.19569 13.4708 6.27799 13.4159C6.36029 13.3609 6.42444 13.2828 6.46231 13.1914C6.50019 13.1 6.51009 12.9994 6.49076 12.9023C6.47144 12.8053 6.42376 12.7162 6.35375 12.6462L5.20688 11.5L6.85375 9.85375C6.94757 9.75993 7.00028 9.63268 7.00028 9.5C7.00028 9.36732 6.94757 9.24007 6.85375 9.14625C6.75993 9.05243 6.63268 8.99972 6.5 8.99972C6.36732 8.99972 6.24007 9.05243 6.14625 9.14625ZM13.1912 9.53813C13.0999 9.50023 12.9994 9.49027 12.9023 9.50952C12.8053 9.52876 12.7162 9.57635 12.6462 9.64625L11.5 10.7931L9.85375 9.14625C9.75993 9.05243 9.63268 8.99972 9.5 8.99972C9.36732 8.99972 9.24007 9.05243 9.14625 9.14625C9.05243 9.24007 8.99972 9.36732 8.99972 9.5C8.99972 9.63268 9.05243 9.75993 9.14625 9.85375L10.7931 11.5L9.64625 12.6462C9.57624 12.7162 9.52856 12.8053 9.50924 12.9023C9.48991 12.9994 9.49981 13.1 9.53769 13.1914C9.57557 13.2828 9.63971 13.3609 9.72201 13.4159C9.80431 13.4708 9.90105 13.5001 10 13.5H13C13.1326 13.5 13.2598 13.4473 13.3536 13.3536C13.4473 13.2598 13.5 13.1326 13.5 13V10C13.5 9.90111 13.4706 9.80445 13.4157 9.72223C13.3607 9.64002 13.2826 9.57595 13.1912 9.53813ZM5.20688 4.5L6.35375 3.35375C6.42376 3.28382 6.47144 3.1947 6.49076 3.09765C6.51009 3.00061 6.50019 2.90002 6.46231 2.80861C6.42444 2.71719 6.36029 2.63908 6.27799 2.58414C6.19569 2.5292 6.09895 2.49992 6 2.5H3C2.86739 2.5 2.74022 2.55268 2.64645 2.64645C2.55268 2.74022 2.5 2.86739 2.5 3V6C2.49992 6.09895 2.5292 6.19569 2.58414 6.27799C2.63908 6.36029 2.71719 6.42444 2.80861 6.46231C2.90002 6.50019 3.00061 6.51009 3.09765 6.49076C3.1947 6.47144 3.28382 6.42376 3.35375 6.35375L4.5 5.20688L6.14625 6.85375C6.24007 6.94757 6.36732 7.00028 6.5 7.00028C6.63268 7.00028 6.75993 6.94757 6.85375 6.85375C6.94757 6.75993 7.00028 6.63268 7.00028 6.5C7.00028 6.36732 6.94757 6.24007 6.85375 6.14625L5.20688 4.5Z" fill="black"/>
</g>
<defs>
<clipPath id="clip0_5_1386">
<rect width="16" height="16" fill="white"/>
</clipPath>
</defs>
</svg>
