<svg width="16" height="16" viewBox="0 0 16 16" fill="none" xmlns="http://www.w3.org/2000/svg">
<g clip-path="url(#clip0_5_1401)">
<path d="M9.00003 6.49997V3.99997C8.99996 3.90102 9.02924 3.80428 9.08417 3.72198C9.13911 3.63968 9.21723 3.57554 9.30864 3.53766C9.40005 3.49979 9.50064 3.48988 9.59769 3.50921C9.69473 3.52853 9.78386 3.57622 9.85378 3.64622L10.75 4.5431L12.6463 2.64622C12.7401 2.5524 12.8674 2.49969 13 2.49969C13.1327 2.49969 13.26 2.5524 13.3538 2.64622C13.4476 2.74004 13.5003 2.86729 13.5003 2.99997C13.5003 3.13265 13.4476 3.2599 13.3538 3.35372L11.4569 5.24997L12.3538 6.14622C12.4238 6.21615 12.4715 6.30528 12.4908 6.40232C12.5101 6.49936 12.5002 6.59996 12.4623 6.69137C12.4245 6.78278 12.3603 6.8609 12.278 6.91583C12.1957 6.97077 12.099 7.00005 12 6.99997H9.50003C9.36743 6.99997 9.24025 6.94729 9.14648 6.85353C9.05271 6.75976 9.00003 6.63258 9.00003 6.49997ZM6.50003 8.99997H4.00003C3.90109 8.9999 3.80434 9.02918 3.72204 9.08411C3.63975 9.13905 3.5756 9.21717 3.53772 9.30858C3.49985 9.39999 3.48994 9.50058 3.50927 9.59763C3.52859 9.69467 3.57628 9.7838 3.64628 9.85372L4.54316 10.75L2.64628 12.6462C2.55246 12.74 2.49976 12.8673 2.49976 13C2.49976 13.1327 2.55246 13.2599 2.64628 13.3537C2.7401 13.4475 2.86735 13.5003 3.00003 13.5003C3.13272 13.5003 3.25996 13.4475 3.35378 13.3537L5.25003 11.4568L6.14628 12.3537C6.21621 12.4237 6.30534 12.4714 6.40238 12.4907C6.49942 12.5101 6.60002 12.5002 6.69143 12.4623C6.78284 12.4244 6.86096 12.3603 6.91589 12.278C6.97083 12.1957 7.00011 12.0989 7.00003 12V9.49997C7.00003 9.36736 6.94736 9.24019 6.85359 9.14642C6.75982 9.05265 6.63264 8.99997 6.50003 8.99997ZM11.4569 10.75L12.3538 9.85372C12.4238 9.7838 12.4715 9.69467 12.4908 9.59763C12.5101 9.50058 12.5002 9.39999 12.4623 9.30858C12.4245 9.21717 12.3603 9.13905 12.278 9.08411C12.1957 9.02918 12.099 8.9999 12 8.99997H9.50003C9.36743 8.99997 9.24025 9.05265 9.14648 9.14642C9.05271 9.24019 9.00003 9.36736 9.00003 9.49997V12C8.99996 12.0989 9.02924 12.1957 9.08417 12.278C9.13911 12.3603 9.21723 12.4244 9.30864 12.4623C9.40005 12.5002 9.50064 12.5101 9.59769 12.4907C9.69473 12.4714 9.78386 12.4237 9.85378 12.3537L10.75 11.4568L12.6463 13.3537C12.6927 13.4002 12.7479 13.437 12.8086 13.4622C12.8693 13.4873 12.9343 13.5003 13 13.5003C13.0657 13.5003 13.1308 13.4873 13.1915 13.4622C13.2522 13.437 13.3073 13.4002 13.3538 13.3537C13.4002 13.3073 13.4371 13.2521 13.4622 13.1914C13.4874 13.1307 13.5003 13.0657 13.5003 13C13.5003 12.9343 13.4874 12.8692 13.4622 12.8085C13.4371 12.7478 13.4002 12.6927 13.3538 12.6462L11.4569 10.75ZM6.69128 3.5381C6.59993 3.5002 6.49939 3.49024 6.40238 3.50949C6.30537 3.52874 6.21625 3.57632 6.14628 3.64622L5.25003 4.5431L3.35378 2.64622C3.25996 2.5524 3.13272 2.49969 3.00003 2.49969C2.86735 2.49969 2.7401 2.5524 2.64628 2.64622C2.55246 2.74004 2.49976 2.86729 2.49976 2.99997C2.49976 3.13265 2.55246 3.2599 2.64628 3.35372L4.54316 5.24997L3.64628 6.14622C3.57628 6.21615 3.52859 6.30528 3.50927 6.40232C3.48994 6.49936 3.49985 6.59996 3.53772 6.69137C3.5756 6.78278 3.63975 6.8609 3.72204 6.91583C3.80434 6.97077 3.90109 7.00005 4.00003 6.99997H6.50003C6.63264 6.99997 6.75982 6.94729 6.85359 6.85353C6.94736 6.75976 7.00003 6.63258 7.00003 6.49997V3.99997C7.00001 3.90108 6.97067 3.80442 6.91571 3.72221C6.86076 3.63999 6.78265 3.57592 6.69128 3.5381Z" fill="black"/>
</g>
<defs>
<clipPath id="clip0_5_1401">
<rect width="16" height="16" fill="white"/>
</clipPath>
</defs>
</svg>
