<svg width="16" height="16" viewBox="0 0 16 16" fill="none" xmlns="http://www.w3.org/2000/svg">
<g clip-path="url(#clip0_5_1546)">
<path d="M13.9999 5.50003V10.5C13.9999 10.7652 13.8945 11.0196 13.707 11.2071C13.5195 11.3947 13.2651 11.5 12.9999 11.5H7.99991V14C7.99998 14.099 7.9707 14.1957 7.91577 14.278C7.86083 14.3603 7.78271 14.4245 7.6913 14.4623C7.59989 14.5002 7.49929 14.5101 7.40225 14.4908C7.30521 14.4715 7.21608 14.4238 7.14615 14.3538L1.14616 8.35378C1.09967 8.30734 1.06279 8.2522 1.03763 8.1915C1.01246 8.1308 0.999512 8.06574 0.999512 8.00003C0.999512 7.93432 1.01246 7.86926 1.03763 7.80856C1.06279 7.74786 1.09967 7.69271 1.14616 7.64628L7.14615 1.64628C7.21608 1.57627 7.30521 1.52859 7.40225 1.50926C7.49929 1.48994 7.59989 1.49984 7.6913 1.53772C7.78271 1.57559 7.86083 1.63974 7.91577 1.72204C7.9707 1.80433 7.99998 1.90108 7.99991 2.00003V4.50003H12.9999C13.2651 4.50003 13.5195 4.60538 13.707 4.79292C13.8945 4.98046 13.9999 5.23481 13.9999 5.50003Z" fill="black"/>
</g>
<defs>
<clipPath id="clip0_5_1546">
<rect width="16" height="16" fill="white"/>
</clipPath>
</defs>
</svg>
