<svg width="16" height="16" viewBox="0 0 16 16" fill="none" xmlns="http://www.w3.org/2000/svg">
<g clip-path="url(#clip0_5_1578)">
<path d="M8 1.5C6.71442 1.5 5.45772 1.88122 4.3888 2.59545C3.31988 3.30968 2.48676 4.32484 1.99479 5.51256C1.50282 6.70028 1.37409 8.00721 1.6249 9.26809C1.8757 10.529 2.49477 11.6872 3.40381 12.5962C4.31285 13.5052 5.47104 14.1243 6.73192 14.3751C7.99279 14.6259 9.29973 14.4972 10.4874 14.0052C11.6752 13.5132 12.6903 12.6801 13.4046 11.6112C14.1188 10.5423 14.5 9.28558 14.5 8C14.4982 6.27665 13.8128 4.62441 12.5942 3.40582C11.3756 2.18722 9.72335 1.50182 8 1.5ZM10.5 10C10.5 10.1326 10.4473 10.2598 10.3536 10.3536C10.2598 10.4473 10.1326 10.5 10 10.5H7C6.86739 10.5 6.74022 10.4473 6.64645 10.3536C6.55268 10.2598 6.5 10.1326 6.5 10C6.5 9.86739 6.55268 9.74021 6.64645 9.64645C6.74022 9.55268 6.86739 9.5 7 9.5H8.79313L5.64625 6.35375C5.55243 6.25993 5.49972 6.13268 5.49972 6C5.49972 5.86732 5.55243 5.74007 5.64625 5.64625C5.74007 5.55243 5.86732 5.49972 6 5.49972C6.13268 5.49972 6.25993 5.55243 6.35375 5.64625L9.5 8.79313V7C9.5 6.86739 9.55268 6.74021 9.64645 6.64645C9.74022 6.55268 9.86739 6.5 10 6.5C10.1326 6.5 10.2598 6.55268 10.3536 6.64645C10.4473 6.74021 10.5 6.86739 10.5 7V10Z" fill="black"/>
</g>
<defs>
<clipPath id="clip0_5_1578">
<rect width="16" height="16" fill="white"/>
</clipPath>
</defs>
</svg>
