<svg width="16" height="16" viewBox="0 0 16 16" fill="none" xmlns="http://www.w3.org/2000/svg">
<g clip-path="url(#clip0_5_1536)">
<path d="M7.14628 14.3538L1.14628 8.35378C1.09979 8.30734 1.06291 8.2522 1.03775 8.1915C1.01259 8.1308 0.999634 8.06574 0.999634 8.00003C0.999634 7.93432 1.01259 7.86926 1.03775 7.80856C1.06291 7.74786 1.09979 7.69271 1.14628 7.64628L7.14628 1.64628C7.2162 1.57627 7.30533 1.52859 7.40237 1.50926C7.49942 1.48994 7.60001 1.49984 7.69142 1.53772C7.78283 1.57559 7.86095 1.63974 7.91589 1.72204C7.97082 1.80433 8.0001 1.90108 8.00003 2.00003V4.50003H11.5C11.6326 4.50003 11.7598 4.55271 11.8536 4.64647C11.9473 4.74024 12 4.86742 12 5.00003V11C12 11.1326 11.9473 11.2598 11.8536 11.3536C11.7598 11.4473 11.6326 11.5 11.5 11.5H8.00003V14C8.0001 14.099 7.97082 14.1957 7.91589 14.278C7.86095 14.3603 7.78283 14.4245 7.69142 14.4623C7.60001 14.5002 7.49942 14.5101 7.40237 14.4908C7.30533 14.4715 7.2162 14.4238 7.14628 14.3538ZM13.5 11.5C13.6326 11.5 13.7598 11.4473 13.8536 11.3536C13.9473 11.2598 14 11.1326 14 11V5.00003C14 4.86742 13.9473 4.74024 13.8536 4.64647C13.7598 4.55271 13.6326 4.50003 13.5 4.50003C13.3674 4.50003 13.2402 4.55271 13.1465 4.64647C13.0527 4.74024 13 4.86742 13 5.00003V11C13 11.1326 13.0527 11.2598 13.1465 11.3536C13.2402 11.4473 13.3674 11.5 13.5 11.5Z" fill="black"/>
</g>
<defs>
<clipPath id="clip0_5_1536">
<rect width="16" height="16" fill="white"/>
</clipPath>
</defs>
</svg>
