<svg width="16" height="16" viewBox="0 0 16 16" fill="none" xmlns="http://www.w3.org/2000/svg">
<g clip-path="url(#clip0_5_1569)">
<path d="M14.9999 4.5C14.9999 4.63261 14.9472 4.75979 14.8535 4.85355C14.7597 4.94732 14.6325 5 14.4999 5H5.99991V10H8.49991C8.59885 9.99992 8.6956 10.0292 8.7779 10.0841C8.86019 10.1391 8.92434 10.2172 8.96222 10.3086C9.00009 10.4 9.01 10.5006 8.99067 10.5977C8.97134 10.6947 8.92366 10.7838 8.85366 10.8538L5.85366 13.8538C5.80722 13.9002 5.75207 13.9371 5.69138 13.9623C5.63068 13.9874 5.56561 14.0004 5.49991 14.0004C5.4342 14.0004 5.36913 13.9874 5.30844 13.9623C5.24774 13.9371 5.19259 13.9002 5.14616 13.8538L2.14616 10.8538C2.07615 10.7838 2.02847 10.6947 2.00914 10.5977C1.98982 10.5006 1.99972 10.4 2.03759 10.3086C2.07547 10.2172 2.13962 10.1391 2.22191 10.0841C2.30421 10.0292 2.40096 9.99992 2.49991 10H4.99991V4.5C4.99991 4.36739 5.05258 4.24021 5.14635 4.14645C5.24012 4.05268 5.3673 4 5.49991 4H14.4999C14.6325 4 14.7597 4.05268 14.8535 4.14645C14.9472 4.24021 14.9999 4.36739 14.9999 4.5Z" fill="black"/>
</g>
<defs>
<clipPath id="clip0_5_1569">
<rect width="16" height="16" fill="white"/>
</clipPath>
</defs>
</svg>
