<svg width="16" height="16" viewBox="0 0 16 16" fill="none" xmlns="http://www.w3.org/2000/svg">
<g clip-path="url(#clip0_5_1459)">
<path d="M14.3538 10.8538L11.3538 13.8538C11.2838 13.9238 11.1947 13.9714 11.0977 13.9908C11.0006 14.0101 10.9 14.0002 10.8086 13.9623C10.7172 13.9244 10.6391 13.8603 10.5841 13.778C10.5292 13.6957 10.4999 13.5989 10.5 13.5V11H5.5C4.43913 11 3.42172 10.5786 2.67157 9.82843C1.92143 9.07828 1.5 8.06087 1.5 7C1.5 5.93913 1.92143 4.92172 2.67157 4.17157C3.42172 3.42143 4.43913 3 5.5 3H11C11.1326 3 11.2598 3.05268 11.3536 3.14645C11.4473 3.24021 11.5 3.36739 11.5 3.5C11.5 3.63261 11.4473 3.75979 11.3536 3.85355C11.2598 3.94732 11.1326 4 11 4H5.5C4.70435 4 3.94129 4.31607 3.37868 4.87868C2.81607 5.44129 2.5 6.20435 2.5 7C2.5 7.79565 2.81607 8.55871 3.37868 9.12132C3.94129 9.68393 4.70435 10 5.5 10H10.5V7.5C10.4999 7.40105 10.5292 7.30431 10.5841 7.22201C10.6391 7.13971 10.7172 7.07556 10.8086 7.03769C10.9 6.99981 11.0006 6.98991 11.0977 7.00924C11.1947 7.02856 11.2838 7.07624 11.3538 7.14625L14.3538 10.1462C14.4002 10.1927 14.4371 10.2478 14.4623 10.3085C14.4874 10.3692 14.5004 10.4343 14.5004 10.5C14.5004 10.5657 14.4874 10.6308 14.4623 10.6915C14.4371 10.7522 14.4002 10.8073 14.3538 10.8538Z" fill="black"/>
</g>
<defs>
<clipPath id="clip0_5_1459">
<rect width="16" height="16" fill="white"/>
</clipPath>
</defs>
</svg>
