<svg width="16" height="16" viewBox="0 0 16 16" fill="none" xmlns="http://www.w3.org/2000/svg">
<g clip-path="url(#clip0_5_1206)">
<path d="M14.3538 10.3538L11.3538 13.3538C11.3073 13.4002 11.2522 13.4371 11.1915 13.4623C11.1308 13.4874 11.0657 13.5004 11 13.5004C10.9343 13.5004 10.8692 13.4874 10.8085 13.4623C10.7478 13.4371 10.6927 13.4002 10.6462 13.3538L7.64625 10.3538C7.57624 10.2838 7.52856 10.1947 7.50924 10.0977C7.48991 10.0006 7.49981 9.90002 7.53769 9.80861C7.57556 9.71719 7.63971 9.63908 7.72201 9.58414C7.80431 9.5292 7.90105 9.49992 8 9.5H10.5V4.5H2C1.86739 4.5 1.74021 4.44732 1.64645 4.35355C1.55268 4.25979 1.5 4.13261 1.5 4C1.5 3.86739 1.55268 3.74021 1.64645 3.64645C1.74021 3.55268 1.86739 3.5 2 3.5H11C11.1326 3.5 11.2598 3.55268 11.3536 3.64645C11.4473 3.74021 11.5 3.86739 11.5 4V9.5H14C14.0989 9.49992 14.1957 9.5292 14.278 9.58414C14.3603 9.63908 14.4244 9.71719 14.4623 9.80861C14.5002 9.90002 14.5101 10.0006 14.4908 10.0977C14.4714 10.1947 14.4238 10.2838 14.3538 10.3538Z" fill="black"/>
</g>
<defs>
<clipPath id="clip0_5_1206">
<rect width="16" height="16" fill="white"/>
</clipPath>
</defs>
</svg>
