<svg width="16" height="16" viewBox="0 0 16 16" fill="none" xmlns="http://www.w3.org/2000/svg">
<g clip-path="url(#clip0_5_1489)">
<path d="M14.9999 12C14.9999 12.1326 14.9472 12.2598 14.8535 12.3536C14.7597 12.4473 14.6325 12.5 14.4999 12.5H5.49991C5.3673 12.5 5.24012 12.4473 5.14635 12.3536C5.05258 12.2598 4.99991 12.1326 4.99991 12V6.50003H2.49991C2.40096 6.5001 2.30421 6.47082 2.22191 6.41589C2.13962 6.36095 2.07547 6.28283 2.03759 6.19142C1.99972 6.10001 1.98982 5.99942 2.00914 5.90237C2.02847 5.80533 2.07615 5.7162 2.14616 5.64628L5.14616 2.64628C5.19259 2.59979 5.24774 2.56291 5.30844 2.53775C5.36913 2.51259 5.4342 2.49963 5.49991 2.49963C5.56561 2.49963 5.63068 2.51259 5.69138 2.53775C5.75207 2.56291 5.80722 2.59979 5.85366 2.64628L8.85366 5.64628C8.92366 5.7162 8.97134 5.80533 8.99067 5.90237C9.01 5.99942 9.00009 6.10001 8.96222 6.19142C8.92434 6.28283 8.86019 6.36095 8.7779 6.41589C8.6956 6.47082 8.59885 6.5001 8.49991 6.50003H5.99991V11.5H14.4999C14.6325 11.5 14.7597 11.5527 14.8535 11.6465C14.9472 11.7402 14.9999 11.8674 14.9999 12Z" fill="black"/>
</g>
<defs>
<clipPath id="clip0_5_1489">
<rect width="16" height="16" fill="white"/>
</clipPath>
</defs>
</svg>
