<svg width="16" height="16" viewBox="0 0 16 16" fill="none" xmlns="http://www.w3.org/2000/svg">
<g clip-path="url(#clip0_5_1462)">
<path d="M14.4999 7C14.4987 8.06051 14.0769 9.07725 13.3271 9.82715C12.5772 10.577 11.5604 10.9988 10.4999 11H5.49991V13.5C5.49998 13.5989 5.4707 13.6957 5.41577 13.778C5.36083 13.8603 5.28271 13.9244 5.1913 13.9623C5.09989 14.0002 4.99929 14.0101 4.90225 13.9908C4.80521 13.9714 4.71608 13.9238 4.64615 13.8538L1.64615 10.8538C1.59967 10.8073 1.56279 10.7522 1.53763 10.6915C1.51246 10.6308 1.49951 10.5657 1.49951 10.5C1.49951 10.4343 1.51246 10.3692 1.53763 10.3085C1.56279 10.2478 1.59967 10.1927 1.64615 10.1462L4.64615 7.14625C4.71608 7.07624 4.80521 7.02856 4.90225 7.00924C4.99929 6.98991 5.09989 6.99981 5.1913 7.03769C5.28271 7.07556 5.36083 7.13971 5.41577 7.22201C5.4707 7.30431 5.49998 7.40105 5.49991 7.5V10H10.4999C11.2956 10 12.0586 9.68393 12.6212 9.12132C13.1838 8.55871 13.4999 7.79565 13.4999 7C13.4999 6.20435 13.1838 5.44129 12.6212 4.87868C12.0586 4.31607 11.2956 4 10.4999 4H4.99991C4.8673 4 4.74012 3.94732 4.64635 3.85355C4.55258 3.75979 4.49991 3.63261 4.49991 3.5C4.49991 3.36739 4.55258 3.24021 4.64635 3.14645C4.74012 3.05268 4.8673 3 4.99991 3H10.4999C11.5604 3.00116 12.5772 3.42296 13.3271 4.17285C14.0769 4.92275 14.4987 5.93949 14.4999 7Z" fill="black"/>
</g>
<defs>
<clipPath id="clip0_5_1462">
<rect width="16" height="16" fill="white"/>
</clipPath>
</defs>
</svg>
