<svg width="16" height="16" viewBox="0 0 16 16" fill="none" xmlns="http://www.w3.org/2000/svg">
<g clip-path="url(#clip0_5_1582)">
<path d="M8 1.5C6.71442 1.5 5.45772 1.88122 4.3888 2.59545C3.31988 3.30968 2.48676 4.32484 1.99479 5.51256C1.50282 6.70028 1.37409 8.00721 1.6249 9.26809C1.8757 10.529 2.49477 11.6872 3.40381 12.5962C4.31285 13.5052 5.47104 14.1243 6.73192 14.3751C7.99279 14.6259 9.29973 14.4972 10.4874 14.0052C11.6752 13.5132 12.6903 12.6801 13.4046 11.6112C14.1188 10.5423 14.5 9.28558 14.5 8C14.4982 6.27665 13.8128 4.62441 12.5942 3.40582C11.3756 2.18722 9.72335 1.50182 8 1.5ZM10.3538 6.35375L7.20688 9.5H9C9.13261 9.5 9.25979 9.55268 9.35356 9.64645C9.44732 9.74021 9.5 9.86739 9.5 10C9.5 10.1326 9.44732 10.2598 9.35356 10.3536C9.25979 10.4473 9.13261 10.5 9 10.5H6C5.86739 10.5 5.74022 10.4473 5.64645 10.3536C5.55268 10.2598 5.5 10.1326 5.5 10V7C5.5 6.86739 5.55268 6.74021 5.64645 6.64645C5.74022 6.55268 5.86739 6.5 6 6.5C6.13261 6.5 6.25979 6.55268 6.35356 6.64645C6.44732 6.74021 6.5 6.86739 6.5 7V8.79313L9.64625 5.64625C9.69271 5.59979 9.74786 5.56294 9.80855 5.5378C9.86925 5.51266 9.93431 5.49972 10 5.49972C10.0657 5.49972 10.1308 5.51266 10.1915 5.5378C10.2521 5.56294 10.3073 5.59979 10.3538 5.64625C10.4002 5.6927 10.4371 5.74786 10.4622 5.80855C10.4873 5.86925 10.5003 5.9343 10.5003 6C10.5003 6.0657 10.4873 6.13075 10.4622 6.19145C10.4371 6.25214 10.4002 6.3073 10.3538 6.35375Z" fill="black"/>
</g>
<defs>
<clipPath id="clip0_5_1582">
<rect width="16" height="16" fill="white"/>
</clipPath>
</defs>
</svg>
