<svg width="16" height="16" viewBox="0 0 16 16" fill="none" xmlns="http://www.w3.org/2000/svg">
<g clip-path="url(#clip0_5_1573)">
<path d="M8 1.5C6.71442 1.5 5.45772 1.88122 4.3888 2.59545C3.31988 3.30968 2.48676 4.32484 1.99479 5.51256C1.50282 6.70028 1.37409 8.00721 1.6249 9.26809C1.8757 10.529 2.49477 11.6872 3.40381 12.5962C4.31285 13.5052 5.47104 14.1243 6.73192 14.3751C7.99279 14.6259 9.29973 14.4972 10.4874 14.0052C11.6752 13.5132 12.6903 12.6801 13.4046 11.6112C14.1188 10.5423 14.5 9.28558 14.5 8C14.4982 6.27665 13.8128 4.62441 12.5942 3.40582C11.3756 2.18722 9.72335 1.50182 8 1.5ZM10.3538 10.3538C10.3073 10.4002 10.2522 10.4371 10.1915 10.4623C10.1308 10.4874 10.0657 10.5004 10 10.5004C9.93429 10.5004 9.86923 10.4874 9.80853 10.4623C9.74783 10.4371 9.69269 10.4002 9.64625 10.3538L6.5 7.20687V9C6.5 9.13261 6.44732 9.25979 6.35356 9.35355C6.25979 9.44732 6.13261 9.5 6 9.5C5.86739 9.5 5.74022 9.44732 5.64645 9.35355C5.55268 9.25979 5.5 9.13261 5.5 9V6C5.5 5.86739 5.55268 5.74021 5.64645 5.64645C5.74022 5.55268 5.86739 5.5 6 5.5H9C9.13261 5.5 9.25979 5.55268 9.35356 5.64645C9.44732 5.74021 9.5 5.86739 9.5 6C9.5 6.13261 9.44732 6.25979 9.35356 6.35355C9.25979 6.44732 9.13261 6.5 9 6.5H7.20688L10.3538 9.64625C10.4002 9.69269 10.4371 9.74783 10.4623 9.80853C10.4874 9.86923 10.5004 9.93429 10.5004 10C10.5004 10.0657 10.4874 10.1308 10.4623 10.1915C10.4371 10.2522 10.4002 10.3073 10.3538 10.3538Z" fill="black"/>
</g>
<defs>
<clipPath id="clip0_5_1573">
<rect width="16" height="16" fill="white"/>
</clipPath>
</defs>
</svg>
