<svg width="16" height="16" viewBox="0 0 16 16" fill="none" xmlns="http://www.w3.org/2000/svg">
<g clip-path="url(#clip0_5_1374)">
<path d="M13.5 3V6C13.5001 6.09895 13.4708 6.19569 13.4159 6.27799C13.3609 6.36029 13.2828 6.42444 13.1914 6.46231C13.1 6.50019 12.9994 6.51009 12.9023 6.49076C12.8053 6.47144 12.7162 6.42376 12.6462 6.35375L11.5 5.20688L9.35375 7.35375C9.25993 7.44757 9.13268 7.50028 9 7.50028C8.86732 7.50028 8.74007 7.44757 8.64625 7.35375C8.55243 7.25993 8.49972 7.13268 8.49972 7C8.49972 6.86732 8.55243 6.74007 8.64625 6.64625L10.7931 4.5L9.64625 3.35375C9.57624 3.28382 9.52856 3.1947 9.50924 3.09765C9.48991 3.00061 9.49981 2.90002 9.53769 2.80861C9.57557 2.71719 9.63971 2.63908 9.72201 2.58414C9.80431 2.5292 9.90105 2.49992 10 2.5H13C13.1326 2.5 13.2598 2.55268 13.3536 2.64645C13.4473 2.74022 13.5 2.86739 13.5 3ZM6.64625 8.64625L4.5 10.7931L3.35375 9.64625C3.28382 9.57624 3.1947 9.52856 3.09765 9.50924C3.00061 9.48991 2.90002 9.49981 2.80861 9.53769C2.71719 9.57557 2.63908 9.63971 2.58414 9.72201C2.5292 9.80431 2.49992 9.90105 2.5 10V13C2.5 13.1326 2.55268 13.2598 2.64645 13.3536C2.74022 13.4473 2.86739 13.5 3 13.5H6C6.09895 13.5001 6.19569 13.4708 6.27799 13.4159C6.36029 13.3609 6.42444 13.2828 6.46231 13.1914C6.50019 13.1 6.51009 12.9994 6.49076 12.9023C6.47144 12.8053 6.42376 12.7162 6.35375 12.6462L5.20688 11.5L7.35375 9.35375C7.44757 9.25993 7.50028 9.13268 7.50028 9C7.50028 8.86732 7.44757 8.74007 7.35375 8.64625C7.25993 8.55243 7.13268 8.49972 7 8.49972C6.86732 8.49972 6.74007 8.55243 6.64625 8.64625Z" fill="black"/>
</g>
<defs>
<clipPath id="clip0_5_1374">
<rect width="16" height="16" fill="white"/>
</clipPath>
</defs>
</svg>
