<svg width="16" height="16" viewBox="0 0 16 16" fill="none" xmlns="http://www.w3.org/2000/svg">
<g clip-path="url(#clip0_5_1454)">
<path d="M12.9999 5.00003V10.5C12.9999 11.5609 12.5785 12.5783 11.8283 13.3285C11.0782 14.0786 10.0608 14.5 8.99991 14.5C7.93904 14.5 6.92162 14.0786 6.17148 13.3285C5.42133 12.5783 4.99991 11.5609 4.99991 10.5V5.50003H2.49991C2.40096 5.5001 2.30421 5.47082 2.22191 5.41589C2.13962 5.36095 2.07547 5.28283 2.03759 5.19142C1.99972 5.10001 1.98982 4.99942 2.00914 4.90237C2.02847 4.80533 2.07615 4.7162 2.14616 4.64628L5.14616 1.64628C5.19259 1.59979 5.24774 1.56291 5.30844 1.53775C5.36913 1.51258 5.4342 1.49963 5.49991 1.49963C5.56561 1.49963 5.63068 1.51258 5.69138 1.53775C5.75207 1.56291 5.80722 1.59979 5.85366 1.64628L8.85366 4.64628C8.92366 4.7162 8.97134 4.80533 8.99067 4.90237C9.01 4.99942 9.00009 5.10001 8.96222 5.19142C8.92434 5.28283 8.86019 5.36095 8.7779 5.41589C8.6956 5.47082 8.59885 5.5001 8.49991 5.50003H5.99991V10.5C5.99991 11.2957 6.31598 12.0587 6.87859 12.6213C7.44119 13.184 8.20426 13.5 8.99991 13.5C9.79556 13.5 10.5586 13.184 11.1212 12.6213C11.6838 12.0587 11.9999 11.2957 11.9999 10.5V5.00003C11.9999 4.86742 12.0526 4.74024 12.1464 4.64647C12.2401 4.55271 12.3673 4.50003 12.4999 4.50003C12.6325 4.50003 12.7597 4.55271 12.8535 4.64647C12.9472 4.74024 12.9999 4.86742 12.9999 5.00003Z" fill="black"/>
</g>
<defs>
<clipPath id="clip0_5_1454">
<rect width="16" height="16" fill="white"/>
</clipPath>
</defs>
</svg>
