<svg width="16" height="16" viewBox="0 0 16 16" fill="none" xmlns="http://www.w3.org/2000/svg">
<g clip-path="url(#clip0_5_802)">
<path d="M13 2H3C2.73478 2 2.48043 2.10536 2.29289 2.29289C2.10536 2.48043 2 2.73478 2 3V13C2 13.2652 2.10536 13.5196 2.29289 13.7071C2.48043 13.8946 2.73478 14 3 14H13C13.2652 14 13.5196 13.8946 13.7071 13.7071C13.8946 13.5196 14 13.2652 14 13V3C14 2.73478 13.8946 2.48043 13.7071 2.29289C13.5196 2.10536 13.2652 2 13 2ZM10.3538 10.3538C10.3073 10.4002 10.2522 10.4371 10.1915 10.4623C10.1308 10.4874 10.0657 10.5004 10 10.5004C9.93429 10.5004 9.86923 10.4874 9.80853 10.4623C9.74783 10.4371 9.69269 10.4002 9.64625 10.3538L6.5 7.20687V9C6.5 9.13261 6.44732 9.25979 6.35355 9.35355C6.25979 9.44732 6.13261 9.5 6 9.5C5.86739 9.5 5.74021 9.44732 5.64645 9.35355C5.55268 9.25979 5.5 9.13261 5.5 9V6C5.5 5.86739 5.55268 5.74021 5.64645 5.64645C5.74021 5.55268 5.86739 5.5 6 5.5H9C9.13261 5.5 9.25979 5.55268 9.35355 5.64645C9.44732 5.74021 9.5 5.86739 9.5 6C9.5 6.13261 9.44732 6.25979 9.35355 6.35355C9.25979 6.44732 9.13261 6.5 9 6.5H7.20687L10.3538 9.64625C10.4002 9.69269 10.4371 9.74783 10.4623 9.80853C10.4874 9.86923 10.5004 9.93429 10.5004 10C10.5004 10.0657 10.4874 10.1308 10.4623 10.1915C10.4371 10.2522 10.4002 10.3073 10.3538 10.3538Z" fill="black"/>
</g>
<defs>
<clipPath id="clip0_5_802">
<rect width="16" height="16" fill="white"/>
</clipPath>
</defs>
</svg>
