<svg width="16" height="16" viewBox="0 0 16 16" fill="none" xmlns="http://www.w3.org/2000/svg">
<g clip-path="url(#clip0_5_1675)">
<path d="M5.35378 9.14628C5.4476 9.2401 5.50031 9.36735 5.50031 9.50003C5.50031 9.63271 5.4476 9.75996 5.35378 9.85378C5.25996 9.9476 5.13271 10.0003 5.00003 10.0003C4.86735 10.0003 4.7401 9.9476 4.64628 9.85378L1.64628 6.85378C1.59979 6.80734 1.56291 6.7522 1.53775 6.6915C1.51258 6.6308 1.49963 6.56574 1.49963 6.50003C1.49963 6.43432 1.51258 6.36926 1.53775 6.30856C1.56291 6.24786 1.59979 6.19271 1.64628 6.14628L4.64628 3.14628C4.7401 3.05246 4.86735 2.99975 5.00003 2.99975C5.13271 2.99975 5.25996 3.05246 5.35378 3.14628C5.4476 3.2401 5.50031 3.36735 5.50031 3.50003C5.50031 3.63271 5.4476 3.75996 5.35378 3.85378L2.7069 6.50003L5.35378 9.14628ZM8.50003 6.01878V3.50003C8.5001 3.40108 8.47082 3.30433 8.41589 3.22204C8.36095 3.13974 8.28283 3.07559 8.19142 3.03772C8.10001 2.99984 7.99942 2.98994 7.90237 3.00926C7.80533 3.02859 7.7162 3.07627 7.64628 3.14628L4.64628 6.14628C4.59979 6.19271 4.56291 6.24786 4.53775 6.30856C4.51259 6.36926 4.49963 6.43432 4.49963 6.50003C4.49963 6.56574 4.51259 6.6308 4.53775 6.6915C4.56291 6.7522 4.59979 6.80734 4.64628 6.85378L7.64628 9.85378C7.7162 9.92378 7.80533 9.97147 7.90237 9.99079C7.99942 10.0101 8.10001 10.0002 8.19142 9.96234C8.28283 9.92446 8.36095 9.86032 8.41589 9.77802C8.47082 9.69572 8.5001 9.59898 8.50003 9.50003V7.02315C9.86583 7.1494 11.1354 7.78081 12.0601 8.79379C12.9849 9.80677 13.4984 11.1284 13.5 12.5C13.5 12.6326 13.5527 12.7598 13.6465 12.8536C13.7402 12.9473 13.8674 13 14 13C14.1326 13 14.2598 12.9473 14.3536 12.8536C14.4473 12.7598 14.5 12.6326 14.5 12.5C14.498 10.8632 13.8794 9.28726 12.7674 8.08613C11.6555 6.885 10.1318 6.14686 8.50003 6.01878Z" fill="black"/>
</g>
<defs>
<clipPath id="clip0_5_1675">
<rect width="16" height="16" fill="white"/>
</clipPath>
</defs>
</svg>
