<svg width="16" height="16" viewBox="0 0 16 16" fill="none" xmlns="http://www.w3.org/2000/svg">
<g clip-path="url(#clip0_5_1635)">
<path d="M13.8538 5.35378L10.8538 8.35378C10.7838 8.42378 10.6947 8.47147 10.5977 8.49079C10.5006 8.51012 10.4 8.50021 10.3086 8.46234C10.2172 8.42446 10.1391 8.36032 10.0841 8.27802C10.0292 8.19572 9.99992 8.09898 10 8.00003V5.50003H5V14C5 14.1326 4.94732 14.2598 4.85355 14.3536C4.75979 14.4473 4.63261 14.5 4.5 14.5C4.36739 14.5 4.24021 14.4473 4.14645 14.3536C4.05268 14.2598 4 14.1326 4 14V5.00003C4 4.86742 4.05268 4.74024 4.14645 4.64647C4.24021 4.55271 4.36739 4.50003 4.5 4.50003H10V2.00003C9.99992 1.90108 10.0292 1.80433 10.0841 1.72204C10.1391 1.63974 10.2172 1.57559 10.3086 1.53772C10.4 1.49984 10.5006 1.48994 10.5977 1.50926C10.6947 1.52859 10.7838 1.57627 10.8538 1.64628L13.8538 4.64628C13.9002 4.69271 13.9371 4.74786 13.9623 4.80856C13.9874 4.86926 14.0004 4.93432 14.0004 5.00003C14.0004 5.06574 13.9874 5.1308 13.9623 5.1915C13.9371 5.2522 13.9002 5.30734 13.8538 5.35378Z" fill="black"/>
</g>
<defs>
<clipPath id="clip0_5_1635">
<rect width="16" height="16" fill="white"/>
</clipPath>
</defs>
</svg>
