<svg width="16" height="16" viewBox="0 0 16 16" fill="none" xmlns="http://www.w3.org/2000/svg">
<g clip-path="url(#clip0_5_1646)">
<path d="M14.3538 6.85378L11.3538 9.85378C11.2599 9.9476 11.1327 10.0003 11 10.0003C10.8673 10.0003 10.7401 9.9476 10.6462 9.85378C10.5524 9.75996 10.4997 9.63271 10.4997 9.50003C10.4997 9.36735 10.5524 9.2401 10.6462 9.14628L13.2931 6.50003L10.6462 3.85378C10.5998 3.80732 10.5629 3.75217 10.5378 3.69148C10.5127 3.63078 10.4997 3.56572 10.4997 3.50003C10.4997 3.43433 10.5127 3.36928 10.5378 3.30858C10.5629 3.24788 10.5998 3.19273 10.6462 3.14628C10.7401 3.05246 10.8673 2.99975 11 2.99975C11.0657 2.99975 11.1308 3.01269 11.1914 3.03783C11.2521 3.06297 11.3073 3.09982 11.3538 3.14628L14.3538 6.14628C14.4002 6.19271 14.4371 6.24786 14.4623 6.30856C14.4874 6.36926 14.5004 6.43432 14.5004 6.50003C14.5004 6.56574 14.4874 6.6308 14.4623 6.6915C14.4371 6.7522 14.4002 6.80734 14.3538 6.85378ZM11.3538 6.14628L8.35375 3.14628C8.28382 3.07627 8.1947 3.02859 8.09765 3.00926C8.00061 2.98994 7.90002 2.99984 7.8086 3.03772C7.71719 3.07559 7.63908 3.13974 7.58414 3.22204C7.5292 3.30433 7.49992 3.40108 7.5 3.50003V6.01878C5.86821 6.14686 4.34457 6.885 3.23262 8.08613C2.12068 9.28726 1.50205 10.8632 1.5 12.5C1.5 12.6326 1.55268 12.7598 1.64645 12.8536C1.74021 12.9473 1.86739 13 2 13C2.13261 13 2.25979 12.9473 2.35355 12.8536C2.44732 12.7598 2.5 12.6326 2.5 12.5C2.50165 11.1284 3.01511 9.80677 3.93989 8.79379C4.86467 7.78081 6.1342 7.1494 7.5 7.02315V9.50003C7.49992 9.59898 7.5292 9.69572 7.58414 9.77802C7.63908 9.86032 7.71719 9.92446 7.8086 9.96234C7.90002 10.0002 8.00061 10.0101 8.09765 9.99079C8.1947 9.97147 8.28382 9.92378 8.35375 9.85378L11.3538 6.85378C11.4002 6.80734 11.4371 6.7522 11.4623 6.6915C11.4874 6.6308 11.5004 6.56574 11.5004 6.50003C11.5004 6.43432 11.4874 6.36926 11.4623 6.30856C11.4371 6.24786 11.4002 6.19271 11.3538 6.14628Z" fill="black"/>
</g>
<defs>
<clipPath id="clip0_5_1646">
<rect width="16" height="16" fill="white"/>
</clipPath>
</defs>
</svg>
