<svg width="16" height="16" viewBox="0 0 16 16" fill="none" xmlns="http://www.w3.org/2000/svg">
<g clip-path="url(#clip0_5_1577)">
<path d="M12.4999 2V11C12.4999 11.1326 12.4472 11.2598 12.3535 11.3536C12.2597 11.4473 12.1325 11.5 11.9999 11.5H6.49991V14C6.49998 14.0989 6.4707 14.1957 6.41577 14.278C6.36083 14.3603 6.28271 14.4244 6.1913 14.4623C6.09989 14.5002 5.99929 14.5101 5.90225 14.4908C5.80521 14.4714 5.71608 14.4238 5.64615 14.3538L2.64616 11.3538C2.59967 11.3073 2.56279 11.2522 2.53763 11.1915C2.51246 11.1308 2.49951 11.0657 2.49951 11C2.49951 10.9343 2.51246 10.8692 2.53763 10.8085C2.56279 10.7478 2.59967 10.6927 2.64616 10.6462L5.64615 7.64625C5.71608 7.57624 5.80521 7.52856 5.90225 7.50924C5.99929 7.48991 6.09989 7.49981 6.1913 7.53769C6.28271 7.57556 6.36083 7.63971 6.41577 7.72201C6.4707 7.80431 6.49998 7.90105 6.49991 8V10.5H11.4999V2C11.4999 1.86739 11.5526 1.74021 11.6464 1.64645C11.7401 1.55268 11.8673 1.5 11.9999 1.5C12.1325 1.5 12.2597 1.55268 12.3535 1.64645C12.4472 1.74021 12.4999 1.86739 12.4999 2Z" fill="black"/>
</g>
<defs>
<clipPath id="clip0_5_1577">
<rect width="16" height="16" fill="white"/>
</clipPath>
</defs>
</svg>
