<svg width="16" height="16" viewBox="0 0 16 16" fill="none" xmlns="http://www.w3.org/2000/svg">
<g clip-path="url(#clip0_5_1537)">
<path d="M14.3537 8.85375L8.35366 14.8538C8.30722 14.9002 8.25207 14.9371 8.19138 14.9623C8.13068 14.9874 8.06561 15.0004 7.99991 15.0004C7.9342 15.0004 7.86913 14.9874 7.80844 14.9623C7.74774 14.9371 7.69259 14.9002 7.64616 14.8538L1.64616 8.85375C1.57615 8.78382 1.52847 8.6947 1.50914 8.59765C1.48982 8.50061 1.49972 8.40002 1.53759 8.30861C1.57547 8.21719 1.63962 8.13908 1.72191 8.08414C1.80421 8.0292 1.90096 7.99992 1.99991 8H4.49991V4.5C4.49991 4.36739 4.55258 4.24021 4.64635 4.14645C4.74012 4.05268 4.8673 4 4.99991 4H10.9999C11.1325 4 11.2597 4.05268 11.3535 4.14645C11.4472 4.24021 11.4999 4.36739 11.4999 4.5V8H13.9999C14.0989 7.99992 14.1956 8.0292 14.2779 8.08414C14.3602 8.13908 14.4243 8.21719 14.4622 8.30861C14.5001 8.40002 14.51 8.50061 14.4907 8.59765C14.4713 8.6947 14.4237 8.78382 14.3537 8.85375ZM11.4999 2.5C11.4999 2.36739 11.4472 2.24021 11.3535 2.14645C11.2597 2.05268 11.1325 2 10.9999 2H4.99991C4.8673 2 4.74012 2.05268 4.64635 2.14645C4.55258 2.24021 4.49991 2.36739 4.49991 2.5C4.49991 2.63261 4.55258 2.75979 4.64635 2.85355C4.74012 2.94732 4.8673 3 4.99991 3H10.9999C11.1325 3 11.2597 2.94732 11.3535 2.85355C11.4472 2.75979 11.4999 2.63261 11.4999 2.5Z" fill="black"/>
</g>
<defs>
<clipPath id="clip0_5_1537">
<rect width="16" height="16" fill="white"/>
</clipPath>
</defs>
</svg>
