<svg width="16" height="16" viewBox="0 0 16 16" fill="none" xmlns="http://www.w3.org/2000/svg">
<g clip-path="url(#clip0_5_1189)">
<path d="M13.5 2.5H2.5C2.23478 2.5 1.98043 2.60536 1.79289 2.79289C1.60536 2.98043 1.5 3.23478 1.5 3.5V12.5C1.5 12.7652 1.60536 13.0196 1.79289 13.2071C1.98043 13.3946 2.23478 13.5 2.5 13.5H13.5C13.7652 13.5 14.0196 13.3946 14.2071 13.2071C14.3946 13.0196 14.5 12.7652 14.5 12.5V3.5C14.5 3.23478 14.3946 2.98043 14.2071 2.79289C14.0196 2.60536 13.7652 2.5 13.5 2.5ZM4.5 9C4.49999 9.09832 4.47099 9.19446 4.41663 9.27639C4.36227 9.35832 4.28496 9.4224 4.19438 9.46062C4.13293 9.48683 4.06679 9.50023 4 9.5H3.25C3.11739 9.5 2.99021 9.44732 2.89645 9.35355C2.80268 9.25979 2.75 9.13261 2.75 9C2.75 8.86739 2.80268 8.74021 2.89645 8.64645C2.99021 8.55268 3.11739 8.5 3.25 8.5H3.5V5.5H3.25C3.11739 5.5 2.99021 5.44732 2.89645 5.35355C2.80268 5.25979 2.75 5.13261 2.75 5C2.75 4.86739 2.80268 4.74021 2.89645 4.64645C2.99021 4.55268 3.11739 4.5 3.25 4.5H4C4.08758 4.5002 4.17356 4.5234 4.24935 4.56727C4.32515 4.61115 4.38809 4.67416 4.43188 4.75L5.75 7.0075L7.06812 4.75C7.11191 4.67416 7.17485 4.61115 7.25065 4.56727C7.32644 4.5234 7.41242 4.5002 7.5 4.5H8.25C8.38261 4.5 8.50979 4.55268 8.60355 4.64645C8.69732 4.74021 8.75 4.86739 8.75 5C8.75 5.13261 8.69732 5.25979 8.60355 5.35355C8.50979 5.44732 8.38261 5.5 8.25 5.5H8V8.5H8.25C8.38261 8.5 8.50979 8.55268 8.60355 8.64645C8.69732 8.74021 8.75 8.86739 8.75 9C8.75 9.13261 8.69732 9.25979 8.60355 9.35355C8.50979 9.44732 8.38261 9.5 8.25 9.5H7.5C7.43321 9.50023 7.36707 9.48683 7.30562 9.46062C7.21504 9.4224 7.13773 9.35832 7.08337 9.27639C7.02901 9.19446 7.00001 9.09832 7 9V6.84937L6.18188 8.25C6.13784 8.32548 6.07479 8.3881 5.99902 8.43162C5.92324 8.47514 5.83738 8.49804 5.75 8.49804C5.66262 8.49804 5.57676 8.47514 5.50098 8.43162C5.42521 8.3881 5.36216 8.32548 5.31812 8.25L4.5 6.84937V9ZM12.5 11.5H5.5C5.36739 11.5 5.24021 11.4473 5.14645 11.3536C5.05268 11.2598 5 11.1326 5 11C5 10.8674 5.05268 10.7402 5.14645 10.6464C5.24021 10.5527 5.36739 10.5 5.5 10.5H12.5C12.6326 10.5 12.7598 10.5527 12.8536 10.6464C12.9473 10.7402 13 10.8674 13 11C13 11.1326 12.9473 11.2598 12.8536 11.3536C12.7598 11.4473 12.6326 11.5 12.5 11.5ZM12.5 9.5H10C9.86739 9.5 9.74021 9.44732 9.64645 9.35355C9.55268 9.25979 9.5 9.13261 9.5 9C9.5 8.86739 9.55268 8.74021 9.64645 8.64645C9.74021 8.55268 9.86739 8.5 10 8.5H12.5C12.6326 8.5 12.7598 8.55268 12.8536 8.64645C12.9473 8.74021 13 8.86739 13 9C13 9.13261 12.9473 9.25979 12.8536 9.35355C12.7598 9.44732 12.6326 9.5 12.5 9.5ZM12.5 7.5H10C9.86739 7.5 9.74021 7.44732 9.64645 7.35355C9.55268 7.25979 9.5 7.13261 9.5 7C9.5 6.86739 9.55268 6.74021 9.64645 6.64645C9.74021 6.55268 9.86739 6.5 10 6.5H12.5C12.6326 6.5 12.7598 6.55268 12.8536 6.64645C12.9473 6.74021 13 6.86739 13 7C13 7.13261 12.9473 7.25979 12.8536 7.35355C12.7598 7.44732 12.6326 7.5 12.5 7.5Z" fill="black"/>
</g>
<defs>
<clipPath id="clip0_5_1189">
<rect width="16" height="16" fill="white"/>
</clipPath>
</defs>
</svg>
