<svg width="16" height="16" viewBox="0 0 16 16" fill="none" xmlns="http://www.w3.org/2000/svg">
<g clip-path="url(#clip0_5_1185)">
<path d="M13.5 2.5H2.5C2.23478 2.5 1.98043 2.60536 1.79289 2.79289C1.60536 2.98043 1.5 3.23478 1.5 3.5V12.5C1.5 12.7652 1.60536 13.0196 1.79289 13.2071C1.98043 13.3946 2.23478 13.5 2.5 13.5H13.5C13.7652 13.5 14.0196 13.3946 14.2071 13.2071C14.3946 13.0196 14.5 12.7652 14.5 12.5V3.5C14.5 3.23478 14.3946 2.98043 14.2071 2.79289C14.0196 2.60536 13.7652 2.5 13.5 2.5ZM4 5.75C4 5.88261 3.94732 6.00979 3.85355 6.10355C3.75979 6.19732 3.63261 6.25 3.5 6.25C3.36739 6.25 3.24021 6.19732 3.14645 6.10355C3.05268 6.00979 3 5.88261 3 5.75V5C3 4.86739 3.05268 4.74021 3.14645 4.64645C3.24021 4.55268 3.36739 4.5 3.5 4.5H8C8.13261 4.5 8.25979 4.55268 8.35355 4.64645C8.44732 4.74021 8.5 4.86739 8.5 5V5.75C8.5 5.88261 8.44732 6.00979 8.35355 6.10355C8.25979 6.19732 8.13261 6.25 8 6.25C7.86739 6.25 7.74021 6.19732 7.64645 6.10355C7.55268 6.00979 7.5 5.88261 7.5 5.75V5.5H6.25V8.5H6.5C6.63261 8.5 6.75979 8.55268 6.85355 8.64645C6.94732 8.74021 7 8.86739 7 9C7 9.13261 6.94732 9.25979 6.85355 9.35355C6.75979 9.44732 6.63261 9.5 6.5 9.5H5C4.86739 9.5 4.74021 9.44732 4.64645 9.35355C4.55268 9.25979 4.5 9.13261 4.5 9C4.5 8.86739 4.55268 8.74021 4.64645 8.64645C4.74021 8.55268 4.86739 8.5 5 8.5H5.25V5.5H4V5.75ZM12.5 11.5H5C4.86739 11.5 4.74021 11.4473 4.64645 11.3536C4.55268 11.2598 4.5 11.1326 4.5 11C4.5 10.8674 4.55268 10.7402 4.64645 10.6464C4.74021 10.5527 4.86739 10.5 5 10.5H12.5C12.6326 10.5 12.7598 10.5527 12.8536 10.6464C12.9473 10.7402 13 10.8674 13 11C13 11.1326 12.9473 11.2598 12.8536 11.3536C12.7598 11.4473 12.6326 11.5 12.5 11.5ZM12.5 9.5H8.5C8.36739 9.5 8.24021 9.44732 8.14645 9.35355C8.05268 9.25979 8 9.13261 8 9C8 8.86739 8.05268 8.74021 8.14645 8.64645C8.24021 8.55268 8.36739 8.5 8.5 8.5H12.5C12.6326 8.5 12.7598 8.55268 12.8536 8.64645C12.9473 8.74021 13 8.86739 13 9C13 9.13261 12.9473 9.25979 12.8536 9.35355C12.7598 9.44732 12.6326 9.5 12.5 9.5ZM12.5 7.5H9.5C9.36739 7.5 9.24021 7.44732 9.14645 7.35355C9.05268 7.25979 9 7.13261 9 7C9 6.86739 9.05268 6.74021 9.14645 6.64645C9.24021 6.55268 9.36739 6.5 9.5 6.5H12.5C12.6326 6.5 12.7598 6.55268 12.8536 6.64645C12.9473 6.74021 13 6.86739 13 7C13 7.13261 12.9473 7.25979 12.8536 7.35355C12.7598 7.44732 12.6326 7.5 12.5 7.5Z" fill="black"/>
</g>
<defs>
<clipPath id="clip0_5_1185">
<rect width="16" height="16" fill="white"/>
</clipPath>
</defs>
</svg>
