<svg width="16" height="16" viewBox="0 0 16 16" fill="none" xmlns="http://www.w3.org/2000/svg">
<g clip-path="url(#clip0_5_1427)">
<path d="M8.5 8V12.5H9.22625C9.42253 12.5025 9.61227 12.4295 9.75627 12.2961C9.90026 12.1627 9.98752 11.979 10 11.7831C10.0058 11.6469 9.97439 11.5116 9.90908 11.3919C9.84378 11.2722 9.74708 11.1726 9.62938 11.1038C9.59077 11.0818 9.55859 11.0501 9.536 11.0118C9.51342 10.9735 9.50122 10.93 9.50062 10.8856V10.3363C9.50052 10.2967 9.50982 10.2576 9.52776 10.2223C9.54569 10.187 9.57175 10.1565 9.60379 10.1333C9.63583 10.11 9.67292 10.0947 9.71204 10.0886C9.75115 10.0825 9.79115 10.0858 9.82875 10.0981C10.1679 10.2175 10.4622 10.4383 10.6717 10.7305C10.8812 11.0228 10.9958 11.3723 11 11.7319C11.01 12.7044 10.1875 13.5 9.21313 13.5H8.5V14.5C8.5 14.6326 8.44732 14.7598 8.35355 14.8536C8.25979 14.9473 8.13261 15 8 15C7.86739 15 7.74021 14.9473 7.64645 14.8536C7.55268 14.7598 7.5 14.6326 7.5 14.5V13.5H6C5.93146 13.5002 5.86361 13.4862 5.80069 13.459C5.73776 13.4319 5.68109 13.392 5.6342 13.342C5.58731 13.292 5.5512 13.2329 5.52811 13.1684C5.50503 13.1039 5.49546 13.0353 5.5 12.9669C5.51106 12.8381 5.57055 12.7183 5.66648 12.6316C5.76241 12.545 5.88763 12.4979 6.01687 12.5H7.5V8H6.52875C5.99125 8 5.52875 8.4125 5.50125 8.94938C5.48901 9.18931 5.56356 9.42563 5.71127 9.61511C5.85897 9.80459 6.06996 9.93456 6.30562 9.98125C6.36107 9.99319 6.41068 10.0239 6.4461 10.0682C6.48151 10.1125 6.50055 10.1677 6.5 10.2244V10.75C6.5 10.8163 6.47366 10.8799 6.42678 10.9268C6.37989 10.9737 6.3163 11 6.25 11C5.94989 11.0001 5.6528 10.9401 5.37621 10.8237C5.09963 10.7072 4.84913 10.5366 4.63947 10.3219C4.42981 10.1072 4.26523 9.85266 4.15541 9.57337C4.04559 9.29408 3.99275 8.99564 4 8.69563C4.02938 7.4675 5.0625 6.5 6.2925 6.5H7.5V1.5C7.5 1.36739 7.55268 1.24021 7.64645 1.14645C7.74021 1.05268 7.86739 1 8 1C8.13261 1 8.25979 1.05268 8.35355 1.14645C8.44732 1.24021 8.5 1.36739 8.5 1.5V6.5H10.5C10.6357 6.50017 10.77 6.47273 10.8947 6.41934C11.0195 6.36595 11.1321 6.28773 11.2256 6.18944C11.3192 6.09115 11.3917 5.97485 11.4389 5.84762C11.4861 5.72039 11.5069 5.58489 11.5 5.44938C11.4725 4.9125 11.0087 4.5 10.4712 4.5H9.75C9.6837 4.5 9.62011 4.47366 9.57322 4.42678C9.52634 4.37989 9.5 4.3163 9.5 4.25V2.75C9.5 2.6837 9.52634 2.62011 9.57322 2.57322C9.62011 2.52634 9.6837 2.5 9.75 2.5H10.7013C12.24 2.5 13.5262 3.75938 13.4994 5.2975C13.4869 6.01847 13.1918 6.70571 12.6775 7.21119C12.1633 7.71667 11.4711 7.99994 10.75 8H8.5ZM5.79125 4.5H6.25C6.3163 4.5 6.37989 4.47366 6.42678 4.42678C6.47366 4.37989 6.5 4.3163 6.5 4.25V2.75C6.5 2.6837 6.47366 2.62011 6.42678 2.57322C6.37989 2.52634 6.3163 2.5 6.25 2.5H4C3.33696 2.5 2.70107 2.76339 2.23223 3.23223C1.76339 3.70107 1.5 4.33696 1.5 5V5.5C1.5 5.63261 1.55268 5.75979 1.64645 5.85355C1.74021 5.94732 1.86739 6 2 6H3.5C3.98644 5.99999 4.4623 5.85807 4.86928 5.59164C5.27626 5.3252 5.59668 4.94583 5.79125 4.5Z" fill="black"/>
</g>
<defs>
<clipPath id="clip0_5_1427">
<rect width="16" height="16" fill="white"/>
</clipPath>
</defs>
</svg>
