<svg width="16" height="16" viewBox="0 0 16 16" fill="none" xmlns="http://www.w3.org/2000/svg">
<g clip-path="url(#clip0_5_1180)">
<path d="M8 1.5C6.71442 1.5 5.45772 1.88122 4.3888 2.59545C3.31988 3.30968 2.48676 4.32484 1.99479 5.51256C1.50282 6.70028 1.37409 8.00721 1.6249 9.26809C1.8757 10.529 2.49477 11.6872 3.40381 12.5962C4.31285 13.5052 5.47104 14.1243 6.73192 14.3751C7.99279 14.6259 9.29973 14.4972 10.4874 14.0052C11.6752 13.5132 12.6903 12.6801 13.4046 11.6112C14.1188 10.5423 14.5 9.28558 14.5 8C14.4982 6.27665 13.8128 4.62441 12.5942 3.40582C11.3756 2.18722 9.72335 1.50182 8 1.5ZM11.9588 7.23938L8.80875 8.26313L10.7556 10.9425C10.7964 10.9955 10.8261 11.056 10.8431 11.1207C10.86 11.1853 10.8638 11.2527 10.8543 11.3189C10.8447 11.385 10.822 11.4486 10.7875 11.5058C10.753 11.563 10.7073 11.6127 10.6533 11.652C10.5992 11.6913 10.5378 11.7193 10.4727 11.7344C10.4076 11.7496 10.3402 11.7515 10.2743 11.7402C10.2085 11.7288 10.1456 11.7043 10.0893 11.6682C10.0331 11.6321 9.98464 11.5851 9.94688 11.53L8 8.85063L6.05313 11.53C5.97371 11.6332 5.85717 11.7013 5.7283 11.7199C5.59942 11.7385 5.46838 11.7061 5.36303 11.6296C5.25768 11.553 5.18634 11.4384 5.16419 11.3101C5.14203 11.1818 5.1708 11.0499 5.24438 10.9425L7.19125 8.26313L4.04125 7.23938C3.91511 7.19843 3.8104 7.10906 3.75015 6.99091C3.6899 6.87276 3.67906 6.73552 3.72 6.60938C3.76095 6.48323 3.85032 6.37852 3.96847 6.31827C4.08662 6.25803 4.22386 6.24718 4.35 6.28813L7.5 7.3125V4C7.5 3.86739 7.55268 3.74021 7.64645 3.64645C7.74022 3.55268 7.86739 3.5 8 3.5C8.13261 3.5 8.25979 3.55268 8.35356 3.64645C8.44732 3.74021 8.5 3.86739 8.5 4V7.3125L11.65 6.28875C11.7125 6.26848 11.7783 6.26071 11.8438 6.26588C11.9092 6.27105 11.973 6.28907 12.0315 6.3189C12.09 6.34873 12.1421 6.38979 12.1847 6.43974C12.2274 6.48968 12.2597 6.54754 12.28 6.61C12.3003 6.67246 12.308 6.7383 12.3029 6.80376C12.2977 6.86923 12.2797 6.93303 12.2499 6.99153C12.22 7.05003 12.179 7.10209 12.129 7.14472C12.0791 7.18735 12.0212 7.21973 11.9588 7.24V7.23938Z" fill="black"/>
</g>
<defs>
<clipPath id="clip0_5_1180">
<rect width="16" height="16" fill="white"/>
</clipPath>
</defs>
</svg>
