<svg width="16" height="16" viewBox="0 0 16 16" fill="none" xmlns="http://www.w3.org/2000/svg">
<g clip-path="url(#clip0_5_1430)">
<path d="M8 1.5C6.71442 1.5 5.45772 1.88122 4.3888 2.59545C3.31988 3.30968 2.48676 4.32484 1.99479 5.51256C1.50282 6.70028 1.37409 8.00721 1.6249 9.26809C1.8757 10.529 2.49477 11.6872 3.40381 12.5962C4.31285 13.5052 5.47104 14.1243 6.73192 14.3751C7.99279 14.6259 9.29973 14.4972 10.4874 14.0052C11.6752 13.5132 12.6903 12.6801 13.4046 11.6112C14.1188 10.5423 14.5 9.28558 14.5 8C14.4982 6.27665 13.8128 4.62441 12.5942 3.40582C11.3756 2.18722 9.72335 1.50182 8 1.5ZM11.7144 9.56688C11.8098 9.62188 11.8843 9.70684 11.9265 9.80855C11.9686 9.91026 11.976 10.023 11.9475 10.1294C11.919 10.2357 11.8562 10.3297 11.7689 10.3967C11.6815 10.4637 11.5745 10.5 11.4644 10.5C11.3766 10.5003 11.2903 10.4772 11.2144 10.4331L8.5 8.86625V12C8.5 12.1326 8.44732 12.2598 8.35356 12.3536C8.25979 12.4473 8.13261 12.5 8 12.5C7.86739 12.5 7.74022 12.4473 7.64645 12.3536C7.55268 12.2598 7.5 12.1326 7.5 12V8.86625L4.78563 10.4331C4.67082 10.4993 4.53445 10.5171 4.40649 10.4828C4.27852 10.4484 4.16941 10.3647 4.10313 10.25C4.03675 10.1352 4.01868 9.99875 4.0529 9.87064C4.08713 9.74253 4.17084 9.63327 4.28563 9.56688L7 8L4.28563 6.43313C4.17076 6.36682 4.08693 6.2576 4.05259 6.12949C4.03558 6.06605 4.03124 5.99989 4.0398 5.93478C4.04837 5.86967 4.06967 5.80688 4.1025 5.75C4.13533 5.69312 4.17905 5.64327 4.23114 5.60328C4.28324 5.56329 4.3427 5.53396 4.40614 5.51696C4.53425 5.48262 4.67076 5.50057 4.78563 5.56687L7.5 7.13375V4C7.5 3.86739 7.55268 3.74021 7.64645 3.64645C7.74022 3.55268 7.86739 3.5 8 3.5C8.13261 3.5 8.25979 3.55268 8.35356 3.64645C8.44732 3.74021 8.5 3.86739 8.5 4V7.13375L11.2144 5.56687C11.3292 5.50057 11.4658 5.48262 11.5939 5.51696C11.722 5.5513 11.8312 5.63513 11.8975 5.75C11.9638 5.86487 11.9818 6.00138 11.9474 6.12949C11.9131 6.2576 11.8292 6.36682 11.7144 6.43313L9 8L11.7144 9.56688Z" fill="black"/>
</g>
<defs>
<clipPath id="clip0_5_1430">
<rect width="16" height="16" fill="white"/>
</clipPath>
</defs>
</svg>
