<svg width="16" height="16" viewBox="0 0 16 16" fill="none" xmlns="http://www.w3.org/2000/svg">
<g clip-path="url(#clip0_5_1175)">
<path d="M14.5 7.99997C14.5 8.03185 14.5 8.06247 14.5 8.09497C14.4788 8.98622 14.1481 9.99997 12.75 9.99997C11.3038 9.99997 11 8.91247 11 7.99997V5.49997C11.0002 5.43143 10.9862 5.36359 10.959 5.30066C10.9319 5.23773 10.892 5.18106 10.842 5.13417C10.792 5.08728 10.7329 5.05117 10.6684 5.02809C10.6039 5.005 10.5353 4.99543 10.4669 4.99997C10.3381 5.01103 10.2183 5.07053 10.1316 5.16645C10.045 5.26238 9.99794 5.3876 10 5.51685V5.76685C9.54862 5.3623 8.98529 5.10397 8.38421 5.02589C7.78313 4.94781 7.17249 5.05363 6.63274 5.32942C6.09298 5.60521 5.64943 6.03804 5.3605 6.57088C5.07157 7.10371 4.95083 7.71158 5.01417 8.31439C5.07751 8.9172 5.32196 9.48669 5.71533 9.94784C6.1087 10.409 6.63253 10.7402 7.21782 10.8977C7.80311 11.0553 8.42241 11.0319 8.99413 10.8306C9.56586 10.6293 10.0632 10.2595 10.4206 9.76997C10.4831 9.87929 10.5537 9.98375 10.6319 10.0825C10.9675 10.5 11.6069 11 12.75 11C12.9431 11.0006 13.1358 10.9849 13.3263 10.9531C13.3733 10.9452 13.4217 10.951 13.4656 10.9698C13.5095 10.9885 13.5471 11.0194 13.5739 11.0589C13.6008 11.0983 13.6159 11.1446 13.6173 11.1923C13.6187 11.24 13.6064 11.2871 13.5819 11.3281C12.9942 12.3138 12.1562 13.1265 11.1529 13.6836C10.1496 14.2407 9.01675 14.5223 7.86938 14.5C4.44563 14.4312 1.6375 11.6787 1.505 8.25685C1.47111 7.39328 1.60977 6.53162 1.91288 5.72228C2.21598 4.91293 2.67744 4.17216 3.27026 3.5433C3.86308 2.91444 4.57536 2.41011 5.36542 2.05982C6.15548 1.70952 7.00747 1.5203 7.87154 1.50322C8.73561 1.48614 9.5944 1.64155 10.3977 1.96034C11.201 2.27914 11.9326 2.75493 12.5498 3.35987C13.1671 3.96481 13.6574 4.68677 13.9923 5.4835C14.3271 6.28023 14.4997 7.13574 14.5 7.99997ZM6 7.99997C6 8.39553 6.1173 8.78221 6.33706 9.11111C6.55682 9.44001 6.86918 9.69636 7.23463 9.84773C7.60009 9.99911 8.00222 10.0387 8.39018 9.96154C8.77814 9.88437 9.13451 9.69389 9.41421 9.41419C9.69392 9.13448 9.8844 8.77811 9.96157 8.39015C10.0387 8.00219 9.99913 7.60006 9.84776 7.23461C9.69638 6.86915 9.44004 6.5568 9.11114 6.33703C8.78224 6.11727 8.39556 5.99997 8 5.99997C7.46957 5.99997 6.96086 6.21069 6.58579 6.58576C6.21071 6.96083 6 7.46954 6 7.99997Z" fill="black"/>
</g>
<defs>
<clipPath id="clip0_5_1175">
<rect width="16" height="16" fill="white"/>
</clipPath>
</defs>
</svg>
