<svg width="16" height="16" viewBox="0 0 16 16" fill="none" xmlns="http://www.w3.org/2000/svg">
<g clip-path="url(#clip0_5_1648)">
<path d="M12.2575 8.00003C13.7982 5.8369 14.5838 3.60128 13.4913 2.50878C12.3988 1.41628 10.1632 2.2019 8.00003 3.74253C5.8369 2.2019 3.60128 1.41628 2.50878 2.50878C1.41628 3.60128 2.2019 5.8369 3.74253 8.00003C2.2019 10.1632 1.41628 12.3988 2.50878 13.4913C2.86065 13.8432 3.33065 14 3.87815 14C5.03253 14 6.53315 13.3019 8.00315 12.2575C9.4669 13.3019 10.9669 14 12.125 14C12.6725 14 13.1432 13.8425 13.4944 13.4913C14.5838 12.3988 13.7982 10.1632 12.2575 8.00003ZM12.7844 3.21565C13.2619 3.69315 12.9394 5.24065 11.6269 7.17065C11.2117 6.65664 10.7696 6.16492 10.3025 5.69753C9.83492 5.23127 9.34321 4.78983 8.8294 4.37503C10.7594 3.06253 12.3069 2.73815 12.7844 3.21565ZM3.21565 3.21565C3.35315 3.07753 3.58003 3.00628 3.8794 3.00628C4.61815 3.00628 5.79753 3.43753 7.17003 4.37503C6.65655 4.78998 6.16505 5.23141 5.69753 5.69753C5.23109 6.16497 4.78964 6.65669 4.37503 7.17065C3.06253 5.24065 2.73815 3.69315 3.21565 3.21565ZM3.21565 12.7844C2.73815 12.3069 3.06253 10.7594 4.37503 8.8294C4.79025 9.34341 5.23233 9.83514 5.6994 10.3025C6.16654 10.7686 6.65762 11.21 7.17065 11.625C5.24065 12.9375 3.69315 13.2619 3.21565 12.7844ZM8.00003 8.75003C7.85169 8.75003 7.70669 8.70604 7.58335 8.62363C7.46002 8.54122 7.36389 8.42409 7.30712 8.28704C7.25035 8.15 7.2355 7.9992 7.26444 7.85371C7.29338 7.70823 7.36481 7.57459 7.4697 7.4697C7.57459 7.36481 7.70823 7.29338 7.85371 7.26444C7.9992 7.2355 8.15 7.25035 8.28704 7.30712C8.42409 7.36389 8.54122 7.46002 8.62363 7.58335C8.70604 7.70669 8.75003 7.85169 8.75003 8.00003C8.75003 8.19894 8.67101 8.38971 8.53036 8.53036C8.38971 8.67101 8.19894 8.75003 8.00003 8.75003ZM12.7844 12.785C12.3069 13.2632 10.7594 12.94 8.8294 11.6275C9.34313 11.212 9.83484 10.7699 10.3025 10.3032C10.769 9.83552 11.2104 9.34358 11.625 8.8294C12.9375 10.7594 13.2619 12.3069 12.7844 12.7844V12.785Z" fill="black"/>
</g>
<defs>
<clipPath id="clip0_5_1648">
<rect width="16" height="16" fill="white"/>
</clipPath>
</defs>
</svg>
