<svg width="16" height="16" viewBox="0 0 16 16" fill="none" xmlns="http://www.w3.org/2000/svg">
<g clip-path="url(#clip0_5_1411)">
<path d="M13.1876 8.16622L11.3251 2.90435C11.0967 2.21047 10.6571 1.60542 10.0676 1.17398C9.47815 0.742545 8.76848 0.506349 8.03805 0.498494C7.30762 0.490638 6.59303 0.711517 5.99444 1.13018C5.39584 1.54884 4.94324 2.14429 4.70006 2.8331L2.85568 8.05185C2.54301 8.87944 2.4346 9.77025 2.53964 10.6487C2.64468 11.5271 2.96007 12.3673 3.45906 13.0978C3.95805 13.8283 4.6259 14.4277 5.40595 14.8451C6.18599 15.2625 7.05521 15.4855 7.93985 15.4953C8.82449 15.5051 9.69843 15.3014 10.4875 14.9014C11.2766 14.5014 11.9576 13.9169 12.4726 13.1976C12.9877 12.4783 13.3216 11.6453 13.446 10.7694C13.5705 9.89353 13.4818 9.00054 13.1876 8.16622ZM8.00006 12.5C7.5056 12.5 7.02225 12.3533 6.61113 12.0786C6.20001 11.8039 5.87958 11.4135 5.69036 10.9567C5.50114 10.4999 5.45163 9.9972 5.54809 9.51225C5.64456 9.02729 5.88266 8.58184 6.23229 8.2322C6.58192 7.88257 7.02738 7.64447 7.51233 7.54801C7.99728 7.45155 8.49995 7.50105 8.95677 7.69027C9.41358 7.87949 9.80403 8.19992 10.0787 8.61105C10.3534 9.02217 10.5001 9.50552 10.5001 9.99997C10.5001 10.663 10.2367 11.2989 9.76782 11.7677C9.29898 12.2366 8.6631 12.5 8.00006 12.5Z" fill="black"/>
</g>
<defs>
<clipPath id="clip0_5_1411">
<rect width="16" height="16" fill="white"/>
</clipPath>
</defs>
</svg>
