<svg width="16" height="16" viewBox="0 0 16 16" fill="none" xmlns="http://www.w3.org/2000/svg">
<g clip-path="url(#clip0_5_1357)">
<path d="M15.9468 6.10752C15.887 5.92933 15.7782 5.7716 15.6328 5.65243C15.4875 5.53326 15.3114 5.45748 15.125 5.43377C13.984 5.28048 12.8859 4.89779 11.8968 4.30877L12.5412 3.66502C12.8127 3.36811 12.9592 2.97793 12.9502 2.57573C12.9412 2.17352 12.7774 1.79028 12.4929 1.5058C12.2085 1.22133 11.8252 1.05754 11.423 1.04855C11.0208 1.03955 10.6306 1.18605 10.3337 1.45752L9.50872 2.28315C9.3631 2.10815 9.2706 1.98065 9.2331 1.92752C9.1494 1.80795 9.04055 1.70815 8.91418 1.63513C8.78781 1.56211 8.64699 1.51763 8.5016 1.50483C8.35621 1.49202 8.20978 1.5112 8.07259 1.56101C7.9354 1.61081 7.81078 1.69005 7.70747 1.79315L5.29247 4.21002C5.18946 4.31328 5.11027 4.43783 5.06048 4.57493C5.01069 4.71203 4.99149 4.85836 5.00423 5.00367C5.01698 5.14897 5.06136 5.28973 5.13425 5.41607C5.20715 5.54241 5.3068 5.65127 5.42622 5.73502C5.47997 5.77252 5.60747 5.86502 5.78247 6.01065L0.456849 11.3356C0.185374 11.6326 0.0388824 12.0227 0.0478763 12.4249C0.0568701 12.8271 0.220656 13.2104 0.505131 13.4949C0.789607 13.7793 1.17285 13.9431 1.57506 13.9521C1.97726 13.9611 2.36744 13.8146 2.66435 13.5431L7.8081 8.39877C8.39685 9.38798 8.77952 10.486 8.9331 11.6269C8.95709 11.813 9.03293 11.9885 9.15196 12.1335C9.27099 12.2785 9.4284 12.3871 9.60622 12.4469C9.70994 12.4819 9.81864 12.4998 9.9281 12.5C10.0589 12.5 10.1885 12.474 10.3092 12.4237C10.43 12.3734 10.5397 12.2997 10.6318 12.2069L15.7056 7.13252C15.838 7.00159 15.9309 6.83599 15.9736 6.6547C16.0163 6.47342 16.007 6.28378 15.9468 6.10752ZM11.0431 2.1644C11.0933 2.10468 11.1553 2.05605 11.2252 2.02159C11.2952 1.98712 11.3715 1.96758 11.4494 1.96419C11.5273 1.96081 11.6051 1.97366 11.6778 2.00193C11.7504 2.0302 11.8164 2.07328 11.8716 2.12841C11.9267 2.18355 11.9698 2.24956 11.9981 2.32223C12.0263 2.3949 12.0392 2.47266 12.0358 2.55057C12.0324 2.62847 12.0129 2.70483 11.9784 2.77478C11.9439 2.84472 11.8953 2.90674 11.8356 2.9569L11.0512 3.74127C10.7513 3.51566 10.465 3.27252 10.1937 3.01315L11.0431 2.1644ZM1.95685 12.8356C1.9067 12.8954 1.84468 12.944 1.77473 12.9785C1.70478 13.0129 1.62843 13.0325 1.55052 13.0358C1.47262 13.0392 1.39486 13.0264 1.32218 12.9981C1.24951 12.9698 1.18351 12.9268 1.12837 12.8716C1.07323 12.8165 1.03016 12.7505 1.00189 12.6778C0.973614 12.6051 0.960762 12.5274 0.964146 12.4495C0.967529 12.3716 0.987074 12.2952 1.02154 12.2253C1.056 12.1553 1.10464 12.0933 1.16435 12.0431L6.5131 6.6944C6.77278 6.96537 7.01593 7.25172 7.24122 7.5519L1.95685 12.8356Z" fill="black"/>
</g>
<defs>
<clipPath id="clip0_5_1357">
<rect width="16" height="16" fill="white"/>
</clipPath>
</defs>
</svg>
