<svg width="16" height="16" viewBox="0 0 16 16" fill="none" xmlns="http://www.w3.org/2000/svg">
<g clip-path="url(#clip0_5_1705)">
<path d="M13.4738 3.40938C13.4496 3.37966 13.4219 3.353 13.3912 3.33C12.4694 2.47431 11.2578 1.99916 10 2H9.5C9.23478 2 8.98043 2.10536 8.79289 2.29289C8.60536 2.48043 8.5 2.73478 8.5 3V6.5H3.45C3.33397 5.9357 3.02694 5.42865 2.58065 5.06433C2.13436 4.70001 1.57611 4.50071 1 4.5C0.867392 4.5 0.740215 4.55268 0.646447 4.64645C0.552678 4.74022 0.5 4.86739 0.5 5C0.5 5.13261 0.552678 5.25979 0.646447 5.35355C0.740215 5.44732 0.867392 5.5 1 5.5C1.39782 5.5 1.77936 5.65804 2.06066 5.93934C2.34196 6.22065 2.5 6.60218 2.5 7C2.50149 8.32563 3.02875 9.59653 3.96611 10.5339C4.90347 11.4713 6.17437 11.9985 7.5 12H10C10.9959 12.0007 11.9693 11.7037 12.7953 11.1472C13.6212 10.5907 14.262 9.80003 14.6353 8.87673C15.0087 7.95343 15.0976 6.93961 14.8906 5.96542C14.6836 4.99123 14.1902 4.10113 13.4738 3.40938ZM13.0419 4.40938C13.5481 5.00082 13.8699 5.72764 13.9675 6.5H10.4256L13.0419 4.40938ZM10 3C10.821 2.99923 11.622 3.25271 12.2931 3.72563L9.5 5.95938V3H10ZM6.5 14C6.5 14.1978 6.44135 14.3911 6.33147 14.5556C6.22159 14.72 6.06541 14.8482 5.88268 14.9239C5.69996 14.9996 5.49889 15.0194 5.30491 14.9808C5.11093 14.9422 4.93275 14.847 4.79289 14.7071C4.65304 14.5673 4.5578 14.3891 4.51921 14.1951C4.48063 14.0011 4.50043 13.8 4.57612 13.6173C4.65181 13.4346 4.77998 13.2784 4.94443 13.1685C5.10888 13.0587 5.30222 13 5.5 13C5.76522 13 6.01957 13.1054 6.20711 13.2929C6.39464 13.4804 6.5 13.7348 6.5 14ZM13 14C13 14.1978 12.9414 14.3911 12.8315 14.5556C12.7216 14.72 12.5654 14.8482 12.3827 14.9239C12.2 14.9996 11.9989 15.0194 11.8049 14.9808C11.6109 14.9422 11.4327 14.847 11.2929 14.7071C11.153 14.5673 11.0578 14.3891 11.0192 14.1951C10.9806 14.0011 11.0004 13.8 11.0761 13.6173C11.1518 13.4346 11.28 13.2784 11.4444 13.1685C11.6089 13.0587 11.8022 13 12 13C12.2652 13 12.5196 13.1054 12.7071 13.2929C12.8946 13.4804 13 13.7348 13 14Z" fill="black"/>
</g>
<defs>
<clipPath id="clip0_5_1705">
<rect width="16" height="16" fill="white"/>
</clipPath>
</defs>
</svg>
