<svg width="16" height="16" viewBox="0 0 16 16" fill="none" xmlns="http://www.w3.org/2000/svg">
<g clip-path="url(#clip0_5_1637)">
<path d="M8.38495 1.50626C8.3412 1.50397 8.29762 1.51322 8.25857 1.53307C8.21952 1.55292 8.18637 1.58269 8.16245 1.61939C7.5187 2.59251 7.49995 3.48689 7.49995 3.50001C7.50024 3.57442 7.51714 3.64782 7.54941 3.71487C7.58168 3.78192 7.6285 3.84092 7.68647 3.88757C7.74444 3.93422 7.81209 3.96734 7.88448 3.98452C7.95688 4.00171 8.0322 4.00251 8.10495 3.98689C8.2185 3.95969 8.31943 3.89471 8.3912 3.80262C8.46297 3.71052 8.50132 3.59677 8.49995 3.48001C8.50234 3.41162 8.51874 3.34445 8.54814 3.28266C8.57754 3.22086 8.61932 3.16576 8.67088 3.12076C8.72243 3.07577 8.78268 3.04183 8.84789 3.02106C8.91309 3.00029 8.98186 2.99313 9.04995 3.00001C9.17543 3.01458 9.291 3.07531 9.37418 3.17039C9.45736 3.26546 9.50219 3.38808 9.49995 3.51439C9.49771 3.91221 9.33753 4.29285 9.05464 4.57258C8.77176 4.8523 8.38934 5.00819 7.99151 5.00595C7.59369 5.00371 7.21304 4.84353 6.93332 4.56064C6.6536 4.27776 6.49771 3.89534 6.49995 3.49751C6.49995 3.45814 6.50557 2.82376 6.83995 1.99751C6.85688 1.95523 6.86195 1.90913 6.85459 1.86418C6.84723 1.81923 6.82774 1.77715 6.79821 1.74247C6.76868 1.7078 6.73024 1.68184 6.68704 1.66742C6.64383 1.653 6.59751 1.65065 6.55307 1.66064C5.07986 1.99904 3.77033 2.83955 2.84912 4.03799C1.92792 5.23642 1.45246 6.71808 1.50432 8.22876C1.62495 11.67 4.45182 14.4375 7.89495 14.4938C9.59345 14.5198 11.2346 13.8798 12.4672 12.7109C13.6998 11.5421 14.4258 9.93708 14.4899 8.23959C14.5539 6.54209 13.9509 4.88698 12.8099 3.62853C11.6689 2.37008 10.0806 1.6083 8.38495 1.50626ZM4.99995 7.99439C4.99995 7.84605 5.04394 7.70105 5.12635 7.57771C5.20876 7.45437 5.32589 7.35824 5.46294 7.30148C5.59998 7.24471 5.75078 7.22986 5.89627 7.2588C6.04175 7.28774 6.17539 7.35917 6.28028 7.46406C6.38517 7.56895 6.4566 7.70258 6.48554 7.84807C6.51448 7.99356 6.49962 8.14436 6.44286 8.2814C6.38609 8.41844 6.28996 8.53558 6.16663 8.61799C6.04329 8.7004 5.89828 8.74439 5.74995 8.74439C5.55104 8.74439 5.36027 8.66537 5.21962 8.52472C5.07897 8.38407 4.99995 8.1933 4.99995 7.99439ZM10.0168 11.4175C9.41173 11.7947 8.71299 11.9947 7.99995 11.9947C7.28691 11.9947 6.58816 11.7947 5.98307 11.4175C5.87085 11.3467 5.79135 11.2343 5.76204 11.1049C5.73274 10.9755 5.75604 10.8397 5.82682 10.7275C5.8976 10.6153 6.01006 10.5358 6.13946 10.5065C6.26886 10.4772 6.4046 10.5005 6.51682 10.5713C6.96214 10.8476 7.47583 10.9941 7.99995 10.9941C8.52406 10.9941 9.03775 10.8476 9.48307 10.5713C9.53864 10.5362 9.60056 10.5125 9.66531 10.5013C9.73006 10.4902 9.79636 10.492 9.86043 10.5065C9.92451 10.521 9.98509 10.548 10.0387 10.5859C10.0924 10.6238 10.138 10.6719 10.1731 10.7275C10.2081 10.7831 10.2319 10.845 10.243 10.9097C10.2541 10.9745 10.2524 11.0408 10.2379 11.1049C10.2233 11.1689 10.1964 11.2295 10.1584 11.2832C10.1205 11.3368 10.0724 11.3825 10.0168 11.4175ZM10.2499 8.74439C10.1016 8.74439 9.95661 8.7004 9.83327 8.61799C9.70993 8.53558 9.6138 8.41844 9.55704 8.2814C9.50027 8.14436 9.48542 7.99356 9.51436 7.84807C9.5433 7.70258 9.61473 7.56895 9.71962 7.46406C9.82451 7.35917 9.95815 7.28774 10.1036 7.2588C10.2491 7.22986 10.3999 7.24471 10.537 7.30148C10.674 7.35824 10.7911 7.45437 10.8736 7.57771C10.956 7.70105 10.9999 7.84605 10.9999 7.99439C10.9999 8.1933 10.9209 8.38407 10.7803 8.52472C10.6396 8.66537 10.4489 8.74439 10.2499 8.74439Z" fill="black"/>
</g>
<defs>
<clipPath id="clip0_5_1637">
<rect width="16" height="16" fill="white"/>
</clipPath>
</defs>
</svg>
