<svg width="16" height="16" viewBox="0 0 16 16" fill="none" xmlns="http://www.w3.org/2000/svg">
<g clip-path="url(#clip0_5_1168)">
<path d="M10.5 2.53625V2C10.5 1.60218 10.342 1.22064 10.0607 0.93934C9.77936 0.658035 9.39782 0.5 9 0.5H7C6.60218 0.5 6.22064 0.658035 5.93934 0.93934C5.65804 1.22064 5.5 1.60218 5.5 2V2.53625C4.66755 2.65758 3.90649 3.07422 3.35573 3.71012C2.80498 4.34601 2.50125 5.15875 2.5 6V13.5C2.5 13.7652 2.60536 14.0196 2.79289 14.2071C2.98043 14.3946 3.23478 14.5 3.5 14.5H12.5C12.7652 14.5 13.0196 14.3946 13.2071 14.2071C13.3946 14.0196 13.5 13.7652 13.5 13.5V6C13.4987 5.15875 13.195 4.34601 12.6443 3.71012C12.0935 3.07422 11.3324 2.65758 10.5 2.53625ZM6.5 2C6.5 1.86739 6.55268 1.74021 6.64645 1.64645C6.74021 1.55268 6.86739 1.5 7 1.5H9C9.13261 1.5 9.25979 1.55268 9.35355 1.64645C9.44732 1.74021 9.5 1.86739 9.5 2V2.5H6.5V2ZM7 4.5H9C9.13261 4.5 9.25979 4.55268 9.35355 4.64645C9.44732 4.74021 9.5 4.86739 9.5 5C9.5 5.13261 9.44732 5.25979 9.35355 5.35355C9.25979 5.44732 9.13261 5.5 9 5.5H7C6.86739 5.5 6.74021 5.44732 6.64645 5.35355C6.55268 5.25979 6.5 5.13261 6.5 5C6.5 4.86739 6.55268 4.74021 6.64645 4.64645C6.74021 4.55268 6.86739 4.5 7 4.5ZM11 13.5H5V11H8.5V11.5C8.5 11.6326 8.55268 11.7598 8.64645 11.8536C8.74021 11.9473 8.86739 12 9 12C9.13261 12 9.25979 11.9473 9.35355 11.8536C9.44732 11.7598 9.5 11.6326 9.5 11.5V11H11V13.5ZM11 10H5V9.5C5 9.23478 5.10536 8.98043 5.29289 8.79289C5.48043 8.60536 5.73478 8.5 6 8.5H10C10.2652 8.5 10.5196 8.60536 10.7071 8.79289C10.8946 8.98043 11 9.23478 11 9.5V10Z" fill="black"/>
</g>
<defs>
<clipPath id="clip0_5_1168">
<rect width="16" height="16" fill="white"/>
</clipPath>
</defs>
</svg>
