<svg width="16" height="16" viewBox="0 0 16 16" fill="none" xmlns="http://www.w3.org/2000/svg">
<g clip-path="url(#clip0_5_1607)">
<path d="M13.4999 2.5H4.28304C4.11048 2.50074 3.94101 2.54578 3.79086 2.63082C3.64071 2.71585 3.51492 2.83802 3.42554 2.98563L0.571161 7.7425C0.524439 7.82027 0.499756 7.90928 0.499756 8C0.499756 8.09072 0.524439 8.17973 0.571161 8.2575L3.42554 13.0144C3.51487 13.162 3.64065 13.2842 3.79081 13.3693C3.94097 13.4543 4.11047 13.4993 4.28304 13.5H13.4999C13.7651 13.5 14.0195 13.3946 14.207 13.2071C14.3946 13.0196 14.4999 12.7652 14.4999 12.5V3.5C14.4999 3.23478 14.3946 2.98043 14.207 2.79289C14.0195 2.60536 13.7651 2.5 13.4999 2.5ZM10.3537 9.14625C10.4001 9.1927 10.437 9.24786 10.4621 9.30855C10.4872 9.36925 10.5002 9.4343 10.5002 9.5C10.5002 9.5657 10.4872 9.63075 10.4621 9.69145C10.437 9.75214 10.4001 9.8073 10.3537 9.85375C10.3072 9.90021 10.2521 9.93706 10.1914 9.9622C10.1307 9.98734 10.0656 10.0003 9.99991 10.0003C9.93421 10.0003 9.86916 9.98734 9.80846 9.9622C9.74777 9.93706 9.69262 9.90021 9.64616 9.85375L8.49991 8.70687L7.35304 9.85375C7.25922 9.94749 7.132 10.0001 6.99938 10.0001C6.86675 10 6.73959 9.94726 6.64585 9.85344C6.55211 9.75962 6.49948 9.6324 6.49954 9.49978C6.4996 9.36716 6.55234 9.23999 6.64616 9.14625L7.79304 8L6.64616 6.85375C6.55234 6.76001 6.4996 6.63284 6.49954 6.50022C6.49951 6.43455 6.51242 6.36952 6.53752 6.30884C6.56262 6.24816 6.59943 6.19302 6.64585 6.14656C6.69226 6.10011 6.74737 6.06325 6.80803 6.03809C6.86869 6.01294 6.93371 5.99997 6.99938 5.99994C7.132 5.99988 7.25922 6.05251 7.35304 6.14625L8.49991 7.29313L9.64616 6.14625C9.69262 6.09979 9.74777 6.06294 9.80846 6.0378C9.86916 6.01266 9.93421 5.99972 9.99991 5.99972C10.0656 5.99972 10.1307 6.01266 10.1914 6.0378C10.2521 6.06294 10.3072 6.09979 10.3537 6.14625C10.4001 6.1927 10.437 6.24786 10.4621 6.30855C10.4872 6.36925 10.5002 6.4343 10.5002 6.5C10.5002 6.5657 10.4872 6.63075 10.4621 6.69145C10.437 6.75214 10.4001 6.8073 10.3537 6.85375L9.20679 8L10.3537 9.14625Z" fill="black"/>
</g>
<defs>
<clipPath id="clip0_5_1607">
<rect width="16" height="16" fill="white"/>
</clipPath>
</defs>
</svg>
