<svg width="16" height="16" viewBox="0 0 16 16" fill="none" xmlns="http://www.w3.org/2000/svg">
<g clip-path="url(#clip0_5_1356)">
<path d="M13.5 4H11C11 3.20435 10.6839 2.44129 10.1213 1.87868C9.55871 1.31607 8.79565 1 8 1C7.20435 1 6.44129 1.31607 5.87868 1.87868C5.31607 2.44129 5 3.20435 5 4H2.5C2.23478 4 1.98043 4.10536 1.79289 4.29289C1.60536 4.48043 1.5 4.73478 1.5 5V12.5C1.5 12.7652 1.60536 13.0196 1.79289 13.2071C1.98043 13.3946 2.23478 13.5 2.5 13.5H13.5C13.7652 13.5 14.0196 13.3946 14.2071 13.2071C14.3946 13.0196 14.5 12.7652 14.5 12.5V5C14.5 4.73478 14.3946 4.48043 14.2071 4.29289C14.0196 4.10536 13.7652 4 13.5 4ZM6 6.5C6 6.63261 5.94732 6.75979 5.85355 6.85355C5.75979 6.94732 5.63261 7 5.5 7C5.36739 7 5.24021 6.94732 5.14645 6.85355C5.05268 6.75979 5 6.63261 5 6.5V5.5C5 5.36739 5.05268 5.24021 5.14645 5.14645C5.24021 5.05268 5.36739 5 5.5 5C5.63261 5 5.75979 5.05268 5.85355 5.14645C5.94732 5.24021 6 5.36739 6 5.5V6.5ZM8 2C8.53043 2 9.03914 2.21071 9.41421 2.58579C9.78929 2.96086 10 3.46957 10 4H6C6 3.46957 6.21071 2.96086 6.58579 2.58579C6.96086 2.21071 7.46957 2 8 2ZM11 6.5C11 6.63261 10.9473 6.75979 10.8536 6.85355C10.7598 6.94732 10.6326 7 10.5 7C10.3674 7 10.2402 6.94732 10.1464 6.85355C10.0527 6.75979 10 6.63261 10 6.5V5.5C10 5.36739 10.0527 5.24021 10.1464 5.14645C10.2402 5.05268 10.3674 5 10.5 5C10.6326 5 10.7598 5.05268 10.8536 5.14645C10.9473 5.24021 11 5.36739 11 5.5V6.5Z" fill="black"/>
</g>
<defs>
<clipPath id="clip0_5_1356">
<rect width="16" height="16" fill="white"/>
</clipPath>
</defs>
</svg>
