<svg width="16" height="16" viewBox="0 0 16 16" fill="none" xmlns="http://www.w3.org/2000/svg">
<g clip-path="url(#clip0_5_1342)">
<path d="M8 8.75C8.41421 8.75 8.75 8.41421 8.75 8C8.75 7.58579 8.41421 7.25 8 7.25C7.58579 7.25 7.25 7.58579 7.25 8C7.25 8.41421 7.58579 8.75 8 8.75Z" fill="black"/>
<path d="M11.5356 8.00002L13.2675 6.26752C13.5062 6.0369 13.6967 5.76104 13.8277 5.45603C13.9587 5.15102 14.0277 4.82297 14.0306 4.49102C14.0335 4.15907 13.9702 3.82988 13.8445 3.52263C13.7188 3.21539 13.5332 2.93626 13.2984 2.70153C13.0637 2.4668 12.7846 2.28117 12.4773 2.15547C12.1701 2.02976 11.8409 1.96651 11.509 1.96939C11.177 1.97228 10.849 2.04124 10.5439 2.17227C10.2389 2.30329 9.96308 2.49374 9.73246 2.73252L7.99996 4.46439L6.26746 2.73252C6.03684 2.49374 5.76098 2.30329 5.45597 2.17227C5.15096 2.04124 4.82291 1.97228 4.49096 1.96939C4.15901 1.96651 3.82981 2.02976 3.52257 2.15547C3.21533 2.28117 2.9362 2.4668 2.70147 2.70153C2.46674 2.93626 2.28111 3.21539 2.1554 3.52263C2.0297 3.82988 1.96645 4.15907 1.96933 4.49102C1.97222 4.82297 2.04118 5.15102 2.17221 5.45603C2.30323 5.76104 2.49368 6.0369 2.73246 6.26752L4.46433 8.00002L2.73246 9.73252C2.49368 9.96314 2.30323 10.239 2.17221 10.544C2.04118 10.849 1.97222 11.1771 1.96933 11.509C1.96645 11.841 2.0297 12.1702 2.1554 12.4774C2.28111 12.7846 2.46674 13.0638 2.70147 13.2985C2.9362 13.5332 3.21533 13.7189 3.52257 13.8446C3.82981 13.9703 4.15901 14.0335 4.49096 14.0306C4.82291 14.0278 5.15096 13.9588 5.45597 13.8278C5.76098 13.6968 6.03684 13.5063 6.26746 13.2675L7.99996 11.5356L9.73246 13.2675C9.96308 13.5063 10.2389 13.6968 10.5439 13.8278C10.849 13.9588 11.177 14.0278 11.509 14.0306C11.8409 14.0335 12.1701 13.9703 12.4773 13.8446C12.7846 13.7189 13.0637 13.5332 13.2984 13.2985C13.5332 13.0638 13.7188 12.7846 13.8445 12.4774C13.9702 12.1702 14.0335 11.841 14.0306 11.509C14.0277 11.1771 13.9587 10.849 13.8277 10.544C13.6967 10.239 13.5062 9.96314 13.2675 9.73252L11.5356 8.00002ZM7.99996 5.87877L10.1212 8.00002L7.99996 10.1213L5.87871 8.00002L7.99996 5.87877ZM10.4375 3.44127C10.7188 3.15948 11.1005 3.00097 11.4986 3.00062C11.8968 3.00027 12.2788 3.1581 12.5606 3.43939C12.8424 3.72069 13.0009 4.10241 13.0012 4.50057C13.0016 4.89873 12.8438 5.28073 12.5625 5.56252L10.83 7.29502L8.70683 5.17189L10.4375 3.44127ZM5.56246 12.5625C5.42293 12.702 5.25728 12.8127 5.07498 12.8882C4.89268 12.9638 4.69728 13.0026 4.49996 13.0026C4.30263 13.0026 4.10724 12.9638 3.92494 12.8882C3.74263 12.8127 3.57699 12.702 3.43746 12.5625C3.29793 12.423 3.18725 12.2573 3.11174 12.075C3.03622 11.8927 2.99736 11.6973 2.99736 11.5C2.99736 11.3027 3.03622 11.1073 3.11174 10.925C3.18725 10.7427 3.29793 10.577 3.43746 10.4375L5.16996 8.70502L7.29121 10.8263L5.56246 12.5625Z" fill="black"/>
</g>
<defs>
<clipPath id="clip0_5_1342">
<rect width="16" height="16" fill="white"/>
</clipPath>
</defs>
</svg>
