<svg width="16" height="16" viewBox="0 0 16 16" fill="none" xmlns="http://www.w3.org/2000/svg">
<g clip-path="url(#clip0_5_1671)">
<path d="M15.5 13C15.5 13.1326 15.4473 13.2598 15.3536 13.3536C15.2598 13.4473 15.1326 13.5 15 13.5H1C0.867392 13.5 0.740215 13.4473 0.646447 13.3536C0.552678 13.2598 0.5 13.1326 0.5 13C0.5 12.8674 0.552678 12.7402 0.646447 12.6465C0.740215 12.5527 0.867392 12.5 1 12.5H15C15.1326 12.5 15.2598 12.5527 15.3536 12.6465C15.4473 12.7402 15.5 12.8674 15.5 13ZM1.01875 6.13626C0.989011 6.0314 0.994349 5.9197 1.03395 5.81816C1.07355 5.71662 1.14525 5.6308 1.23812 5.57376L7.73812 1.57376C7.81689 1.52533 7.90754 1.49969 8 1.49969C8.09246 1.49969 8.18311 1.52533 8.26188 1.57376L14.7619 5.57376C14.8548 5.63073 14.9265 5.71649 14.9662 5.81799C15.0059 5.91949 15.0113 6.03117 14.9817 6.13604C14.952 6.24091 14.8889 6.33322 14.802 6.39892C14.715 6.46462 14.609 6.50012 14.5 6.50001H13V10.5H14C14.1326 10.5 14.2598 10.5527 14.3536 10.6465C14.4473 10.7402 14.5 10.8674 14.5 11C14.5 11.1326 14.4473 11.2598 14.3536 11.3536C14.2598 11.4473 14.1326 11.5 14 11.5H2C1.86739 11.5 1.74021 11.4473 1.64645 11.3536C1.55268 11.2598 1.5 11.1326 1.5 11C1.5 10.8674 1.55268 10.7402 1.64645 10.6465C1.74021 10.5527 1.86739 10.5 2 10.5H3V6.50001H1.5C1.39112 6.50005 1.2852 6.46454 1.19834 6.39889C1.11148 6.33323 1.04842 6.24102 1.01875 6.13626ZM9 10C9 10.1326 9.05268 10.2598 9.14645 10.3536C9.24021 10.4473 9.36739 10.5 9.5 10.5C9.63261 10.5 9.75979 10.4473 9.85355 10.3536C9.94732 10.2598 10 10.1326 10 10V7.00001C10 6.8674 9.94732 6.74022 9.85355 6.64646C9.75979 6.55269 9.63261 6.50001 9.5 6.50001C9.36739 6.50001 9.24021 6.55269 9.14645 6.64646C9.05268 6.74022 9 6.8674 9 7.00001V10ZM6 10C6 10.1326 6.05268 10.2598 6.14645 10.3536C6.24021 10.4473 6.36739 10.5 6.5 10.5C6.63261 10.5 6.75979 10.4473 6.85355 10.3536C6.94732 10.2598 7 10.1326 7 10V7.00001C7 6.8674 6.94732 6.74022 6.85355 6.64646C6.75979 6.55269 6.63261 6.50001 6.5 6.50001C6.36739 6.50001 6.24021 6.55269 6.14645 6.64646C6.05268 6.74022 6 6.8674 6 7.00001V10Z" fill="black"/>
</g>
<defs>
<clipPath id="clip0_5_1671">
<rect width="16" height="16" fill="white"/>
</clipPath>
</defs>
</svg>
