<svg width="16" height="16" viewBox="0 0 16 16" fill="none" xmlns="http://www.w3.org/2000/svg">
<g clip-path="url(#clip0_5_1336)">
<path d="M12.5001 4V12C12.5001 12.2652 12.3948 12.5196 12.2072 12.7071C12.0197 12.8946 11.7653 13 11.5001 13H10.5001C10.2349 13 9.98055 12.8946 9.79302 12.7071C9.60548 12.5196 9.50012 12.2652 9.50012 12V8.5H6.50012V12C6.50012 12.2652 6.39476 12.5196 6.20723 12.7071C6.01969 12.8946 5.76534 13 5.50012 13H4.50012C4.23491 13 3.98055 12.8946 3.79302 12.7071C3.60548 12.5196 3.50012 12.2652 3.50012 12V4C3.50012 3.73478 3.60548 3.48043 3.79302 3.29289C3.98055 3.10536 4.23491 3 4.50012 3H5.50012C5.76534 3 6.01969 3.10536 6.20723 3.29289C6.39476 3.48043 6.50012 3.73478 6.50012 4V7.5H9.50012V4C9.50012 3.73478 9.60548 3.48043 9.79302 3.29289C9.98055 3.10536 10.2349 3 10.5001 3H11.5001C11.7653 3 12.0197 3.10536 12.2072 3.29289C12.3948 3.48043 12.5001 3.73478 12.5001 4ZM2.25012 4.5H2.00012C1.73491 4.5 1.48055 4.60536 1.29302 4.79289C1.10548 4.98043 1.00012 5.23478 1.00012 5.5V7.5H0.516997C0.387788 7.49809 0.26265 7.54518 0.166755 7.6318C0.0708607 7.71842 0.0113241 7.83814 0.000122029 7.96688C-0.00441917 8.03527 0.00515043 8.10387 0.0282364 8.1684C0.0513225 8.23294 0.0874318 8.29205 0.134322 8.34204C0.181211 8.39204 0.23788 8.43186 0.300808 8.45903C0.363736 8.48621 0.431578 8.50015 0.500122 8.5H1.00012V10.5C1.00012 10.7652 1.10548 11.0196 1.29302 11.2071C1.48055 11.3946 1.73491 11.5 2.00012 11.5H2.25012C2.31643 11.5 2.38001 11.4737 2.4269 11.4268C2.47378 11.3799 2.50012 11.3163 2.50012 11.25V4.75C2.50012 4.6837 2.47378 4.62011 2.4269 4.57322C2.38001 4.52634 2.31643 4.5 2.25012 4.5ZM16.0001 7.96688C15.9889 7.83836 15.9296 7.71882 15.8339 7.63223C15.7383 7.54564 15.6135 7.49841 15.4845 7.5H15.0001V5.5C15.0001 5.23478 14.8948 4.98043 14.7072 4.79289C14.5197 4.60536 14.2653 4.5 14.0001 4.5H13.7501C13.6838 4.5 13.6202 4.52634 13.5733 4.57322C13.5265 4.62011 13.5001 4.6837 13.5001 4.75V11.25C13.5001 11.3163 13.5265 11.3799 13.5733 11.4268C13.6202 11.4737 13.6838 11.5 13.7501 11.5H14.0001C14.2653 11.5 14.5197 11.3946 14.7072 11.2071C14.8948 11.0196 15.0001 10.7652 15.0001 10.5V8.5H15.5001C15.5687 8.50015 15.6365 8.48621 15.6994 8.45903C15.7624 8.43186 15.819 8.39204 15.8659 8.34204C15.9128 8.29205 15.9489 8.23294 15.972 8.1684C15.9951 8.10387 16.0047 8.03527 16.0001 7.96688Z" fill="black"/>
</g>
<defs>
<clipPath id="clip0_5_1336">
<rect width="16" height="16" fill="white"/>
</clipPath>
</defs>
</svg>
