<svg width="16" height="16" viewBox="0 0 16 16" fill="none" xmlns="http://www.w3.org/2000/svg">
<g clip-path="url(#clip0_5_1591)">
<path d="M15 12H14.5V8.16064L14.5931 8.29063C14.6299 8.34726 14.6778 8.39585 14.7339 8.43346C14.79 8.47107 14.8532 8.49693 14.9195 8.50947C14.9859 8.52201 15.0541 8.52097 15.1201 8.50642C15.186 8.49187 15.2483 8.46411 15.3033 8.42482C15.3582 8.38552 15.4046 8.3355 15.4397 8.27778C15.4747 8.22006 15.4978 8.15583 15.5073 8.08897C15.5169 8.02211 15.5128 7.95401 15.4953 7.88877C15.4778 7.82353 15.4473 7.76251 15.4056 7.70938L12.9056 4.20938C12.8714 4.16197 12.8291 4.12093 12.7806 4.08814L8.5625 1.17314L8.55625 1.16876C8.39192 1.05912 8.19879 1.00061 8.00125 1.00061C7.8037 1.00061 7.61058 1.05912 7.44625 1.16876L7.44 1.17314L3.21562 4.08876C3.16718 4.12155 3.12487 4.16259 3.09062 4.21001L0.590621 7.71001C0.548912 7.76313 0.518398 7.82415 0.500919 7.88939C0.483441 7.95463 0.479361 8.02274 0.488926 8.0896C0.498491 8.15645 0.521503 8.22068 0.556572 8.2784C0.591641 8.33613 0.638041 8.38614 0.692972 8.42544C0.747903 8.46474 0.810226 8.4925 0.87618 8.50705C0.942134 8.5216 1.01035 8.52263 1.07672 8.51009C1.14308 8.49755 1.20622 8.4717 1.26232 8.43409C1.31842 8.39648 1.36632 8.34789 1.40312 8.29126L1.5 8.16064V12H0.999996C0.867388 12 0.740211 12.0527 0.646443 12.1465C0.552675 12.2402 0.499996 12.3674 0.499996 12.5C0.499996 12.6326 0.552675 12.7598 0.646443 12.8536C0.740211 12.9473 0.867388 13 0.999996 13H15C15.1326 13 15.2598 12.9473 15.3535 12.8536C15.4473 12.7598 15.5 12.6326 15.5 12.5C15.5 12.3674 15.4473 12.2402 15.3535 12.1465C15.2598 12.0527 15.1326 12 15 12ZM7 5.00001H9C9.1326 5.00001 9.25978 5.05269 9.35355 5.14646C9.44732 5.24022 9.5 5.3674 9.5 5.50001C9.5 5.63262 9.44732 5.7598 9.35355 5.85356C9.25978 5.94733 9.1326 6.00001 9 6.00001H7C6.86739 6.00001 6.74021 5.94733 6.64644 5.85356C6.55267 5.7598 6.5 5.63262 6.5 5.50001C6.5 5.3674 6.55267 5.24022 6.64644 5.14646C6.74021 5.05269 6.86739 5.00001 7 5.00001ZM10.29 7.50001L8 9.13564L5.71 7.50001H10.29ZM4.5 7.86439L7.14 9.75001L4.5 11.6356V7.86439ZM5.71 12L8 10.3644L10.29 12H5.71ZM11.5 11.6356L8.86 9.75001L11.5 7.86439V11.6356Z" fill="black"/>
</g>
<defs>
<clipPath id="clip0_5_1591">
<rect width="16" height="16" fill="white"/>
</clipPath>
</defs>
</svg>
