<svg width="16" height="16" viewBox="0 0 16 16" fill="none" xmlns="http://www.w3.org/2000/svg">
<g clip-path="url(#clip0_5_1158)">
<path d="M14 4H2C1.73478 4 1.48043 4.10536 1.29289 4.29289C1.10536 4.48043 1 4.73478 1 5V9.5C1 9.76522 1.10536 10.0196 1.29289 10.2071C1.48043 10.3946 1.73478 10.5 2 10.5H3.5V12.5C3.5 12.6326 3.55268 12.7598 3.64645 12.8536C3.74021 12.9473 3.86739 13 4 13C4.13261 13 4.25979 12.9473 4.35355 12.8536C4.44732 12.7598 4.5 12.6326 4.5 12.5V10.5H11.5V12.5C11.5 12.6326 11.5527 12.7598 11.6464 12.8536C11.7402 12.9473 11.8674 13 12 13C12.1326 13 12.2598 12.9473 12.3536 12.8536C12.4473 12.7598 12.5 12.6326 12.5 12.5V10.5H14C14.2652 10.5 14.5196 10.3946 14.7071 10.2071C14.8946 10.0196 15 9.76522 15 9.5V5C15 4.73478 14.8946 4.48043 14.7071 4.29289C14.5196 4.10536 14.2652 4 14 4ZM2 9.5V5.75L5.75 9.5H2ZM14 9.5H10.4569L5.95687 5H10.25L14 8.75V9.5Z" fill="black"/>
</g>
<defs>
<clipPath id="clip0_5_1158">
<rect width="16" height="16" fill="white"/>
</clipPath>
</defs>
</svg>
