<svg width="16" height="16" viewBox="0 0 16 16" fill="none" xmlns="http://www.w3.org/2000/svg">
<g clip-path="url(#clip0_5_1316)">
<path d="M13.0843 3.95501C13.063 3.92844 13.0365 3.90649 13.0064 3.89052C12.9764 3.87455 12.9433 3.86489 12.9094 3.86214C12.8754 3.85939 12.8413 3.86361 12.809 3.87452C12.7768 3.88544 12.7471 3.90284 12.7218 3.92564C12.5102 4.11853 12.3137 4.32748 12.1343 4.55064C12.0552 4.6528 11.9403 4.72124 11.8128 4.74222C11.6853 4.76321 11.5545 4.73518 11.4468 4.66376C11.3902 4.62457 11.3422 4.5741 11.306 4.51551C11.2698 4.45693 11.2461 4.39149 11.2363 4.3233C11.2266 4.25511 11.231 4.18564 11.2494 4.11926C11.2678 4.05287 11.2996 3.991 11.3431 3.93751C11.541 3.69003 11.7568 3.45732 11.9887 3.24126C12.0154 3.21681 12.0365 3.18685 12.0505 3.15344C12.0645 3.12003 12.0711 3.08397 12.0698 3.04777C12.0685 3.01157 12.0593 2.97609 12.0429 2.94378C12.0266 2.91146 12.0034 2.8831 11.9749 2.86064C10.8376 1.9787 9.43917 1.50006 7.99993 1.50006C6.56068 1.50006 5.1623 1.9787 4.02493 2.86064C3.9965 2.8831 3.9733 2.91146 3.95692 2.94378C3.94055 2.97609 3.93139 3.01157 3.93008 3.04777C3.92877 3.08397 3.93535 3.12003 3.94935 3.15344C3.96335 3.18685 3.98445 3.21681 4.01118 3.24126C4.2389 3.4537 4.4513 3.68198 4.6468 3.92439C4.72567 4.02029 4.76694 4.1416 4.76291 4.2657C4.75889 4.38979 4.70984 4.50818 4.62493 4.59876C4.57548 4.64979 4.51573 4.68968 4.44966 4.7158C4.38358 4.74192 4.3127 4.75365 4.24173 4.75022C4.17076 4.74679 4.10134 4.72827 4.03809 4.69591C3.97485 4.66354 3.91922 4.61807 3.87493 4.56251C3.69214 4.33464 3.49173 4.12149 3.27555 3.92501C3.25023 3.90235 3.22055 3.88508 3.18833 3.87427C3.15611 3.86346 3.12203 3.85934 3.08816 3.86214C3.05429 3.86495 3.02135 3.87463 2.99135 3.8906C2.96135 3.90657 2.93492 3.92849 2.91368 3.95501C1.99718 5.10404 1.49805 6.53024 1.49805 8.00001C1.49805 9.46979 1.99718 10.896 2.91368 12.045C2.93497 12.0716 2.96147 12.0935 2.99155 12.1095C3.02162 12.1255 3.05465 12.1351 3.08859 12.1379C3.12254 12.1406 3.15668 12.1364 3.18894 12.1255C3.2212 12.1146 3.25088 12.0972 3.27618 12.0744C3.48782 11.8815 3.68423 11.6725 3.86368 11.4494C3.94283 11.3472 4.05769 11.2788 4.18521 11.2578C4.31273 11.2368 4.44347 11.2649 4.55118 11.3363C4.60796 11.3753 4.65606 11.4257 4.69246 11.4842C4.72886 11.5427 4.75277 11.6081 4.76269 11.6763C4.7726 11.7445 4.76832 11.814 4.7501 11.8805C4.73188 11.9469 4.70011 12.0089 4.6568 12.0625C4.45883 12.31 4.24305 12.5427 4.01118 12.7588C3.98445 12.7832 3.96335 12.8132 3.94935 12.8466C3.93535 12.88 3.92877 12.9161 3.93008 12.9523C3.93139 12.9885 3.94055 13.0239 3.95692 13.0563C3.9733 13.0886 3.9965 13.1169 4.02493 13.1394C5.1623 14.0213 6.56068 14.5 7.99993 14.5C9.43917 14.5 10.8376 14.0213 11.9749 13.1394C12.0034 13.1169 12.0266 13.0886 12.0429 13.0563C12.0593 13.0239 12.0685 12.9885 12.0698 12.9523C12.0711 12.9161 12.0645 12.88 12.0505 12.8466C12.0365 12.8132 12.0154 12.7832 11.9887 12.7588C11.7568 12.5427 11.541 12.31 11.3431 12.0625C11.3001 12.0089 11.2686 11.947 11.2506 11.8807C11.2326 11.8145 11.2285 11.7452 11.2385 11.6772C11.2484 11.6092 11.2723 11.544 11.3086 11.4857C11.3448 11.4274 11.3928 11.3771 11.4493 11.3381C11.557 11.2667 11.6877 11.2387 11.8153 11.2597C11.9428 11.2807 12.0577 11.3491 12.1368 11.4513C12.3162 11.6744 12.5127 11.8834 12.7243 12.0763C12.7496 12.0991 12.7793 12.1165 12.8115 12.1274C12.8438 12.1383 12.8779 12.1425 12.9119 12.1398C12.9458 12.137 12.9789 12.1274 13.0089 12.1114C13.039 12.0954 13.0655 12.0735 13.0868 12.0469C14.0033 10.8979 14.5024 9.47166 14.5024 8.00189C14.5024 6.53212 14.0033 5.10591 13.0868 3.95689L13.0843 3.95501ZM5.1068 5.51876C5.23169 5.48653 5.36415 5.50269 5.47762 5.564C5.5911 5.62532 5.6772 5.72726 5.71868 5.84939C5.83778 6.1907 5.92851 6.54127 5.98993 6.89751C6.00518 6.97034 6.00399 7.04566 5.98643 7.11797C5.96888 7.19028 5.93541 7.25776 5.88846 7.31549C5.84151 7.37322 5.78226 7.41974 5.71505 7.45167C5.64783 7.48359 5.57434 7.50011 5.49993 7.50001C5.37407 7.50043 5.25268 7.45336 5.16 7.36821C5.06731 7.28306 5.01015 7.16608 4.99993 7.04064C4.97618 6.76314 4.93055 6.48376 4.79993 6.23814C4.76424 6.172 4.74392 6.09867 4.74048 6.0236C4.73704 5.94853 4.75057 5.87364 4.78005 5.80452C4.80954 5.7354 4.85423 5.67381 4.9108 5.62433C4.96737 5.57486 5.03437 5.53878 5.1068 5.51876ZM5.98993 9.09939C5.92818 9.46245 5.83555 9.81958 5.71305 10.1669C5.68931 10.234 5.65152 10.2952 5.60221 10.3465C5.5529 10.3978 5.49321 10.438 5.42712 10.4644C5.36104 10.4908 5.29009 10.5027 5.219 10.4995C5.14792 10.4963 5.07834 10.4779 5.01493 10.4456C4.90563 10.3873 4.8212 10.2913 4.77729 10.1755C4.73339 10.0596 4.73299 9.93176 4.77618 9.81564C4.87824 9.5233 4.95539 9.22286 5.0068 8.91751C5.01847 8.84756 5.04488 8.78088 5.08429 8.72191C5.12369 8.66295 5.17519 8.61304 5.23537 8.5755C5.29555 8.53797 5.36302 8.51366 5.43331 8.5042C5.5036 8.49474 5.57509 8.50035 5.64305 8.52064C5.76136 8.55842 5.86185 8.63803 5.9257 8.74456C5.98955 8.85109 6.01238 8.97724 5.98993 9.09939ZM10.9849 10.4456C10.9215 10.4779 10.8519 10.4963 10.7809 10.4995C10.7098 10.5027 10.6388 10.4908 10.5727 10.4644C10.5066 10.438 10.447 10.3978 10.3976 10.3465C10.3483 10.2952 10.3105 10.234 10.2868 10.1669C10.1643 9.81958 10.0717 9.46245 10.0099 9.09939C9.98761 8.97725 10.0105 8.85116 10.0743 8.74466C10.1382 8.63817 10.2386 8.55854 10.3568 8.52064C10.4248 8.50035 10.4963 8.49474 10.5665 8.5042C10.6368 8.51366 10.7043 8.53797 10.7645 8.5755C10.8247 8.61304 10.8762 8.66295 10.9156 8.72191C10.955 8.78088 10.9814 8.84756 10.9931 8.91751C11.0445 9.22286 11.1216 9.5233 11.2237 9.81564C11.2669 9.93176 11.2665 10.0596 11.2226 10.1755C11.1787 10.2913 11.0942 10.3873 10.9849 10.4456ZM11.1981 6.23814C11.0674 6.48376 11.0218 6.76314 10.9981 7.04064C10.9917 7.11411 10.9691 7.18527 10.932 7.249C10.8949 7.31273 10.8442 7.36747 10.7834 7.40928C10.7227 7.4511 10.6534 7.47895 10.5806 7.49086C10.5078 7.50276 10.4333 7.49842 10.3624 7.47814C10.243 7.44171 10.1411 7.36273 10.076 7.25618C10.0109 7.14962 9.98719 7.0229 10.0093 6.90001C10.0704 6.54303 10.1613 6.19179 10.2812 5.85001C10.3224 5.72768 10.4084 5.6255 10.522 5.56404C10.6355 5.50258 10.7681 5.48641 10.8931 5.51876C10.9653 5.539 11.0321 5.57524 11.0885 5.6248C11.1448 5.67437 11.1893 5.73598 11.2186 5.80508C11.2479 5.87418 11.2613 5.94899 11.2577 6.02395C11.2541 6.09892 11.2338 6.17213 11.1981 6.23814Z" fill="black"/>
</g>
<defs>
<clipPath id="clip0_5_1316">
<rect width="16" height="16" fill="white"/>
</clipPath>
</defs>
</svg>
