<svg width="16" height="16" viewBox="0 0 16 16" fill="none" xmlns="http://www.w3.org/2000/svg">
<g clip-path="url(#clip0_5_1154)">
<path d="M8 1.5C6.2767 1.50198 4.62455 2.18744 3.406 3.406C2.18744 4.62455 1.50198 6.2767 1.5 8V11.5C1.5 11.8978 1.65804 12.2794 1.93934 12.5607C2.22064 12.842 2.60218 13 3 13C3.31865 12.9995 3.62893 12.8979 3.88625 12.71C4.64563 12.1581 5.975 11.5 8 11.5C10.025 11.5 11.3544 12.1575 12.1131 12.7094C12.3366 12.8732 12.6012 12.972 12.8774 12.9946C13.1536 13.0173 13.4307 12.963 13.678 12.8377C13.9252 12.7124 14.1329 12.5211 14.278 12.285C14.4231 12.0489 14.4999 11.7771 14.5 11.5V8C14.498 6.2767 13.8126 4.62455 12.594 3.406C11.3754 2.18744 9.7233 1.50198 8 1.5ZM2.5 8C2.50173 6.73919 2.93586 5.51712 3.72991 4.53778C4.52397 3.55843 5.6299 2.88107 6.86312 2.61875C5.87226 4.04308 5.2521 5.69197 5.05875 7.41625C4.15828 7.67844 3.29753 8.06151 2.5 8.555V8ZM13.5 11.5C13.5015 11.5921 13.4768 11.6827 13.4288 11.7612C13.3808 11.8398 13.3114 11.9031 13.2288 11.9438C13.1456 11.9866 13.0521 12.0053 12.9588 11.9977C12.8656 11.9901 12.7763 11.9564 12.7013 11.9006C11.8225 11.2625 10.2937 10.5 8 10.5C5.70625 10.5 4.1775 11.2625 3.29875 11.9012C3.22367 11.9571 3.13442 11.9907 3.04117 11.9983C2.94792 12.006 2.8544 11.9873 2.77125 11.9444C2.68852 11.9037 2.61908 11.8403 2.57104 11.7616C2.52301 11.6829 2.49837 11.5922 2.5 11.5V9.75438C3.44191 9.08165 4.49981 8.5884 5.62063 8.29937C5.64183 8.29549 5.66272 8.29006 5.68313 8.28312C7.20528 7.90562 8.7966 7.90562 10.3188 8.28312C10.3392 8.28999 10.3601 8.29563 10.3813 8.3C11.5014 8.58887 12.5587 9.08192 13.5 9.75438V11.5ZM13.5 8.55437C12.7025 8.06089 11.8417 7.67781 10.9412 7.41563C10.7478 5.69156 10.1276 4.0429 9.13688 2.61875C10.3701 2.88107 11.476 3.55843 12.2701 4.53778C13.0641 5.51712 13.4983 6.73919 13.5 8V8.55437Z" fill="black"/>
</g>
<defs>
<clipPath id="clip0_5_1154">
<rect width="16" height="16" fill="white"/>
</clipPath>
</defs>
</svg>
