<svg width="16" height="16" viewBox="0 0 16 16" fill="none" xmlns="http://www.w3.org/2000/svg">
<g clip-path="url(#clip0_5_1583)">
<path d="M15.5 7.49998H13.9813C13.8536 5.82308 13.081 4.26092 11.8258 3.14171C10.5705 2.02251 8.93033 1.43338 7.24982 1.49811C5.56932 1.56284 3.97931 2.27638 2.81387 3.48883C1.64843 4.70127 0.998272 6.31823 1 7.99998V9.49998C1.00133 10.6931 1.47586 11.8369 2.31948 12.6805C3.16311 13.5241 4.30694 13.9987 5.5 14H8C9.19307 13.9987 10.3369 13.5241 11.1805 12.6805C12.0241 11.8369 12.4987 10.6931 12.5 9.49998V8.49998H15.5C15.6326 8.49998 15.7598 8.4473 15.8536 8.35354C15.9473 8.25977 16 8.13259 16 7.99998C16 7.86737 15.9473 7.7402 15.8536 7.64643C15.7598 7.55266 15.6326 7.49998 15.5 7.49998ZM5.5 11.25C5.20333 11.25 4.91332 11.162 4.66665 10.9972C4.41997 10.8324 4.22772 10.5981 4.11418 10.324C4.00065 10.0499 3.97095 9.74832 4.02883 9.45735C4.0867 9.16637 4.22956 8.8991 4.43934 8.68932C4.64912 8.47954 4.9164 8.33668 5.20737 8.2788C5.49834 8.22093 5.79994 8.25063 6.07403 8.36416C6.34812 8.47769 6.58239 8.66995 6.74721 8.91663C6.91203 9.1633 7 9.45331 7 9.74998C7 10.1478 6.84197 10.5293 6.56066 10.8106C6.27936 11.0919 5.89783 11.25 5.5 11.25ZM11.5 9.49998C11.4991 10.368 11.176 11.2048 10.5933 11.8482C10.0107 12.4916 9.20993 12.8958 8.34625 12.9825C8.86312 12.5612 9.27969 12.03 9.56574 11.4277C9.85178 10.8253 10.0001 10.1668 10 9.49998V8.49998H11.5V9.49998Z" fill="black"/>
</g>
<defs>
<clipPath id="clip0_5_1583">
<rect width="16" height="16" fill="white"/>
</clipPath>
</defs>
</svg>
