<svg width="16" height="16" viewBox="0 0 16 16" fill="none" xmlns="http://www.w3.org/2000/svg">
<g clip-path="url(#clip0_5_1149)">
<path d="M14.875 5.17062C14.8282 5.11718 14.7706 5.07431 14.7059 5.04489C14.6413 5.01547 14.5711 5.00017 14.5 5H11.7269L8.37503 1.17062C8.32811 1.11742 8.27041 1.07481 8.20575 1.04562C8.1411 1.01644 8.07097 1.00134 8.00003 1.00134C7.9291 1.00134 7.85897 1.01644 7.79431 1.04562C7.72966 1.07481 7.67195 1.11742 7.62503 1.17062L4.27316 5H1.50003C1.42877 4.99999 1.35834 5.01522 1.29344 5.04466C1.22855 5.0741 1.1707 5.11707 1.12376 5.17069C1.07683 5.22431 1.0419 5.28734 1.02132 5.35556C1.00073 5.42378 0.994967 5.49562 1.00441 5.56625L1.94628 12.6325C1.97914 12.8723 2.09755 13.0922 2.2797 13.2516C2.46185 13.411 2.69548 13.4992 2.93753 13.5H13.0625C13.3046 13.4992 13.5382 13.411 13.7204 13.2516C13.9025 13.0922 14.0209 12.8723 14.0538 12.6325L14.9957 5.56625C15.0049 5.49552 14.999 5.42362 14.9782 5.35538C14.9574 5.28714 14.9222 5.22415 14.875 5.17062ZM5.10003 11.5C5.08317 11.5009 5.06627 11.5009 5.04941 11.5C4.92502 11.5006 4.80488 11.4549 4.71242 11.3717C4.61997 11.2884 4.56185 11.1738 4.54941 11.05L4.19941 7.55C4.18615 7.41805 4.22584 7.28625 4.30977 7.18357C4.39369 7.08089 4.51496 7.01576 4.64691 7.0025C4.77885 6.98924 4.91066 7.02894 5.01334 7.11286C5.11601 7.19678 5.18115 7.31805 5.19441 7.45L5.54441 10.95C5.55841 11.0819 5.51946 11.2139 5.43612 11.317C5.35279 11.4202 5.23189 11.486 5.10003 11.5ZM8.50003 11C8.50003 11.1326 8.44736 11.2598 8.35359 11.3536C8.25982 11.4473 8.13264 11.5 8.00003 11.5C7.86742 11.5 7.74025 11.4473 7.64648 11.3536C7.55271 11.2598 7.50003 11.1326 7.50003 11V7.5C7.50003 7.36739 7.55271 7.24021 7.64648 7.14645C7.74025 7.05268 7.86742 7 8.00003 7C8.13264 7 8.25982 7.05268 8.35359 7.14645C8.44736 7.24021 8.50003 7.36739 8.50003 7.5V11ZM5.60191 5L8.00003 2.25937L10.3982 5H5.60191ZM11.7975 7.55L11.4475 11.05C11.4351 11.1732 11.3775 11.2875 11.2857 11.3706C11.1939 11.4537 11.0745 11.4998 10.9507 11.5C10.9338 11.5009 10.9169 11.5009 10.9 11.5C10.8347 11.4934 10.7713 11.4741 10.7135 11.443C10.6556 11.4119 10.6044 11.3698 10.5629 11.3189C10.5213 11.2681 10.4902 11.2096 10.4713 11.1467C10.4523 11.0838 10.446 11.0178 10.4525 10.9525L10.8025 7.4525C10.8158 7.32055 10.8809 7.19928 10.9836 7.11536C11.0863 7.03144 11.2181 6.99174 11.35 7.005C11.482 7.01826 11.6033 7.08339 11.6872 7.18607C11.7711 7.28874 11.8108 7.42055 11.7975 7.5525V7.55Z" fill="black"/>
</g>
<defs>
<clipPath id="clip0_5_1149">
<rect width="16" height="16" fill="white"/>
</clipPath>
</defs>
</svg>
