<svg width="16" height="16" viewBox="0 0 16 16" fill="none" xmlns="http://www.w3.org/2000/svg">
<g clip-path="url(#clip0_5_1145)">
<path d="M3.97484 2.89939C4.91221 2.15651 6.03723 1.68811 7.22484 1.54627C7.25995 1.54229 7.29551 1.5458 7.32917 1.55657C7.36282 1.56734 7.39381 1.58513 7.42009 1.60875C7.44637 1.63237 7.46735 1.6613 7.48163 1.69362C7.49592 1.72594 7.50319 1.76093 7.50296 1.79627V7.50002H5.98109C5.85685 5.89014 5.13656 4.38449 3.96109 3.27752C3.93479 3.25307 3.91407 3.22326 3.90032 3.19009C3.88658 3.15692 3.88014 3.12118 3.88145 3.08531C3.88275 3.04943 3.89177 3.01425 3.90788 2.98217C3.924 2.95009 3.94683 2.92186 3.97484 2.89939ZM2.87484 4.00439C2.14581 4.93479 1.68561 6.04713 1.54421 7.22064C1.54005 7.25585 1.54342 7.29154 1.5541 7.32535C1.56478 7.35916 1.58254 7.39031 1.60618 7.41673C1.62982 7.44315 1.65882 7.46424 1.69124 7.4786C1.72366 7.49296 1.75876 7.50026 1.79421 7.50002H4.97671C4.85338 6.15121 4.23591 4.89556 3.24296 3.97439C3.21753 3.9507 3.18743 3.93258 3.1546 3.92118C3.12177 3.90978 3.08692 3.90535 3.05228 3.90817C3.01764 3.91099 2.98397 3.92101 2.95342 3.93758C2.92286 3.95414 2.8961 3.9769 2.87484 4.00439ZM12.0248 2.89939C11.0875 2.15651 9.96245 1.68811 8.77484 1.54627C8.73972 1.54229 8.70417 1.5458 8.67051 1.55657C8.63685 1.56734 8.60586 1.58513 8.57958 1.60875C8.5533 1.63237 8.53233 1.6613 8.51804 1.69362C8.50376 1.72594 8.49649 1.76093 8.49671 1.79627V7.50002H10.0155C10.1397 5.89014 10.86 4.38449 12.0355 3.27752C12.0619 3.25329 12.0829 3.22365 12.0969 3.19061C12.1109 3.15757 12.1176 3.1219 12.1166 3.08602C12.1156 3.05015 12.1069 3.01491 12.0911 2.98271C12.0752 2.9505 12.0526 2.92209 12.0248 2.89939ZM14.4536 7.22064C14.3127 6.04732 13.8532 4.93499 13.1248 4.00439C13.1036 3.97719 13.0769 3.95469 13.0465 3.93831C13.0161 3.92192 12.9827 3.91201 12.9483 3.90919C12.9139 3.90637 12.8793 3.91071 12.8466 3.92193C12.814 3.93315 12.784 3.95101 12.7586 3.97439C11.765 4.89527 11.1468 6.15094 11.023 7.50002H14.2048C14.2402 7.50008 14.2752 7.49265 14.3074 7.47822C14.3397 7.46378 14.3685 7.44266 14.392 7.41626C14.4155 7.38986 14.4332 7.35877 14.4438 7.32505C14.4544 7.29133 14.4577 7.25575 14.4536 7.22064ZM1.54609 8.77939C1.68694 9.95271 2.14648 11.065 2.87484 11.9956C2.8961 12.0228 2.92276 12.0453 2.95315 12.0617C2.98354 12.0781 3.01699 12.088 3.05139 12.0908C3.0858 12.0937 3.12042 12.0893 3.15307 12.0781C3.18571 12.0669 3.21568 12.049 3.24109 12.0256C4.23472 11.1048 4.85288 9.84909 4.97671 8.50002H1.79484C1.75949 8.49995 1.72452 8.50738 1.69226 8.52181C1.65999 8.53625 1.63115 8.55737 1.60764 8.58377C1.58413 8.61017 1.56649 8.64126 1.55588 8.67498C1.54527 8.7087 1.54193 8.74429 1.54609 8.77939ZM13.1248 11.9956C13.8539 11.0652 14.3141 9.9529 14.4555 8.77939C14.4596 8.74418 14.4563 8.70849 14.4456 8.67468C14.4349 8.64087 14.4171 8.60972 14.3935 8.5833C14.3699 8.55688 14.3409 8.53579 14.3084 8.52143C14.276 8.50707 14.2409 8.49977 14.2055 8.50002H11.023C11.1463 9.84882 11.7638 11.1045 12.7567 12.0256C12.7821 12.0493 12.8122 12.0674 12.8451 12.0788C12.8779 12.0903 12.9128 12.0947 12.9474 12.0919C12.982 12.089 13.0157 12.079 13.0463 12.0625C13.0768 12.0459 13.1036 12.0231 13.1248 11.9956ZM3.97484 13.1006C4.91221 13.8435 6.03723 14.3119 7.22484 14.4538C7.25995 14.4577 7.29551 14.4542 7.32917 14.4435C7.36282 14.4327 7.39381 14.4149 7.42009 14.3913C7.44637 14.3677 7.46735 14.3387 7.48163 14.3064C7.49592 14.2741 7.50319 14.2391 7.50296 14.2038V8.50002H5.98109C5.85685 10.1099 5.13656 11.6155 3.96109 12.7225C3.93479 12.747 3.91407 12.7768 3.90032 12.8099C3.88658 12.8431 3.88014 12.8788 3.88145 12.9147C3.88275 12.9506 3.89177 12.9858 3.90788 13.0179C3.924 13.0499 3.94683 13.0782 3.97484 13.1006ZM10.0186 8.50002H8.49984V14.205C8.49961 14.2404 8.50688 14.2753 8.52117 14.3077C8.53545 14.34 8.55643 14.3689 8.58271 14.3925C8.60899 14.4162 8.63998 14.4339 8.67364 14.4447C8.70729 14.4555 8.74285 14.459 8.77796 14.455C9.96557 14.3132 11.0906 13.8448 12.028 13.1019C12.056 13.0794 12.0788 13.0512 12.0949 13.0191C12.111 12.987 12.12 12.9519 12.1214 12.916C12.1227 12.8801 12.1162 12.8444 12.1025 12.8112C12.0887 12.778 12.068 12.7482 12.0417 12.7238C10.8648 11.617 10.1434 10.1108 10.0186 8.50002Z" fill="black"/>
</g>
<defs>
<clipPath id="clip0_5_1145">
<rect width="16" height="16" fill="white"/>
</clipPath>
</defs>
</svg>
