<svg width="16" height="16" viewBox="0 0 16 16" fill="none" xmlns="http://www.w3.org/2000/svg">
<g clip-path="url(#clip0_5_1298)">
<path d="M15 6.00002H13.5C13.5 5.86741 13.4473 5.74024 13.3536 5.64647C13.2598 5.5527 13.1326 5.50002 13 5.50002H8.5C8.36739 5.50002 8.24021 5.5527 8.14645 5.64647C8.05268 5.74024 8 5.86741 8 6.00002H4V3.25002C4 3.05111 4.07902 2.86034 4.21967 2.71969C4.36032 2.57904 4.55109 2.50002 4.75 2.50002C4.92578 2.4993 5.09662 2.55817 5.23464 2.66703C5.37267 2.77588 5.46973 2.92829 5.51 3.0994C5.53747 3.22825 5.61468 3.34106 5.72486 3.4133C5.83504 3.48554 5.96927 3.51137 6.09839 3.48519C6.22751 3.459 6.34108 3.38291 6.41441 3.27345C6.48774 3.164 6.5149 3.03002 6.49 2.90065C6.40511 2.50278 6.18575 2.1463 5.86884 1.8912C5.55193 1.6361 5.15682 1.49796 4.75 1.50002C4.28587 1.50002 3.84075 1.6844 3.51256 2.01259C3.18437 2.34077 3 2.78589 3 3.25002V6.00002H1C0.867392 6.00002 0.740215 6.0527 0.646447 6.14647C0.552678 6.24024 0.5 6.36741 0.5 6.50002V9.00002C0.500993 9.92798 0.87006 10.8176 1.52622 11.4738C2.18238 12.13 3.07205 12.499 4 12.5V13.5C4 13.6326 4.05268 13.7598 4.14645 13.8536C4.24021 13.9473 4.36739 14 4.5 14C4.63261 14 4.75979 13.9473 4.85355 13.8536C4.94732 13.7598 5 13.6326 5 13.5V12.5H11V13.5C11 13.6326 11.0527 13.7598 11.1464 13.8536C11.2402 13.9473 11.3674 14 11.5 14C11.6326 14 11.7598 13.9473 11.8536 13.8536C11.9473 13.7598 12 13.6326 12 13.5V12.5C12.928 12.499 13.8176 12.13 14.4738 11.4738C15.1299 10.8176 15.499 9.92798 15.5 9.00002V6.50002C15.5 6.36741 15.4473 6.24024 15.3536 6.14647C15.2598 6.0527 15.1326 6.00002 15 6.00002ZM12.5 6.50002V9.00002H9V6.50002H12.5Z" fill="black"/>
</g>
<defs>
<clipPath id="clip0_5_1298">
<rect width="16" height="16" fill="white"/>
</clipPath>
</defs>
</svg>
