<svg width="16" height="16" viewBox="0 0 16 16" fill="none" xmlns="http://www.w3.org/2000/svg">
<g clip-path="url(#clip0_5_1352)">
<path d="M12.5 3.5H2C1.60218 3.5 1.22064 3.65804 0.93934 3.93934C0.658035 4.22064 0.5 4.60218 0.5 5V11C0.5 11.3978 0.658035 11.7794 0.93934 12.0607C1.22064 12.342 1.60218 12.5 2 12.5H12.5C12.8978 12.5 13.2794 12.342 13.5607 12.0607C13.842 11.7794 14 11.3978 14 11V5C14 4.60218 13.842 4.22064 13.5607 3.93934C13.2794 3.65804 12.8978 3.5 12.5 3.5ZM9 8.5H7.75V9.75C7.75 9.88261 7.69732 10.0098 7.60355 10.1036C7.50979 10.1973 7.38261 10.25 7.25 10.25C7.11739 10.25 6.99021 10.1973 6.89645 10.1036C6.80268 10.0098 6.75 9.88261 6.75 9.75V8.5H5.5C5.36739 8.5 5.24021 8.44732 5.14645 8.35355C5.05268 8.25979 5 8.13261 5 8C5 7.86739 5.05268 7.74021 5.14645 7.64645C5.24021 7.55268 5.36739 7.5 5.5 7.5H6.75V6.25C6.75 6.11739 6.80268 5.99021 6.89645 5.89645C6.99021 5.80268 7.11739 5.75 7.25 5.75C7.38261 5.75 7.50979 5.80268 7.60355 5.89645C7.69732 5.99021 7.75 6.11739 7.75 6.25V7.5H9C9.13261 7.5 9.25979 7.55268 9.35355 7.64645C9.44732 7.74021 9.5 7.86739 9.5 8C9.5 8.13261 9.44732 8.25979 9.35355 8.35355C9.25979 8.44732 9.13261 8.5 9 8.5ZM16 6V10C16 10.1326 15.9473 10.2598 15.8536 10.3536C15.7598 10.4473 15.6326 10.5 15.5 10.5C15.3674 10.5 15.2402 10.4473 15.1464 10.3536C15.0527 10.2598 15 10.1326 15 10V6C15 5.86739 15.0527 5.74021 15.1464 5.64645C15.2402 5.55268 15.3674 5.5 15.5 5.5C15.6326 5.5 15.7598 5.55268 15.8536 5.64645C15.9473 5.74021 16 5.86739 16 6Z" fill="black"/>
</g>
<defs>
<clipPath id="clip0_5_1352">
<rect width="16" height="16" fill="white"/>
</clipPath>
</defs>
</svg>
