<svg width="16" height="16" viewBox="0 0 16 16" fill="none" xmlns="http://www.w3.org/2000/svg">
<g clip-path="url(#clip0_5_684)">
<path d="M12.5 3.5H2C1.60218 3.5 1.22064 3.65804 0.93934 3.93934C0.658035 4.22064 0.5 4.60218 0.5 5V11C0.5 11.3978 0.658035 11.7794 0.93934 12.0607C1.22064 12.342 1.60218 12.5 2 12.5H12.5C12.8978 12.5 13.2794 12.342 13.5607 12.0607C13.842 11.7794 14 11.3978 14 11V5C14 4.60218 13.842 4.22064 13.5607 3.93934C13.2794 3.65804 12.8978 3.5 12.5 3.5ZM6.75 5.5C6.75 5.36739 6.80268 5.24021 6.89645 5.14645C6.99021 5.05268 7.11739 5 7.25 5C7.38261 5 7.50979 5.05268 7.60355 5.14645C7.69732 5.24021 7.75 5.36739 7.75 5.5V8C7.75 8.13261 7.69732 8.25979 7.60355 8.35355C7.50979 8.44732 7.38261 8.5 7.25 8.5C7.11739 8.5 6.99021 8.44732 6.89645 8.35355C6.80268 8.25979 6.75 8.13261 6.75 8V5.5ZM7.25 11C7.10166 11 6.95666 10.956 6.83332 10.8736C6.70999 10.7912 6.61386 10.6741 6.55709 10.537C6.50032 10.4 6.48547 10.2492 6.51441 10.1037C6.54335 9.9582 6.61478 9.82456 6.71967 9.71967C6.82456 9.61478 6.9582 9.54335 7.10368 9.51441C7.24917 9.48547 7.39997 9.50033 7.53701 9.55709C7.67406 9.61386 7.79119 9.70999 7.8736 9.83332C7.95601 9.95666 8 10.1017 8 10.25C8 10.4489 7.92098 10.6397 7.78033 10.7803C7.63968 10.921 7.44891 11 7.25 11ZM16 6V10C16 10.1326 15.9473 10.2598 15.8536 10.3536C15.7598 10.4473 15.6326 10.5 15.5 10.5C15.3674 10.5 15.2402 10.4473 15.1464 10.3536C15.0527 10.2598 15 10.1326 15 10V6C15 5.86739 15.0527 5.74021 15.1464 5.64645C15.2402 5.55268 15.3674 5.5 15.5 5.5C15.6326 5.5 15.7598 5.55268 15.8536 5.64645C15.9473 5.74021 16 5.86739 16 6Z" fill="black"/>
</g>
<defs>
<clipPath id="clip0_5_684">
<rect width="16" height="16" fill="white"/>
</clipPath>
</defs>
</svg>
