<svg width="16" height="16" viewBox="0 0 16 16" fill="none" xmlns="http://www.w3.org/2000/svg">
<g clip-path="url(#clip0_5_1140)">
<path d="M11 2H5C4.60218 2 4.22064 2.15804 3.93934 2.43934C3.65804 2.72064 3.5 3.10218 3.5 3.5V14C3.5 14.3978 3.65804 14.7794 3.93934 15.0607C4.22064 15.342 4.60218 15.5 5 15.5H11C11.3978 15.5 11.7794 15.342 12.0607 15.0607C12.342 14.7794 12.5 14.3978 12.5 14V3.5C12.5 3.10218 12.342 2.72064 12.0607 2.43934C11.7794 2.15804 11.3978 2 11 2ZM9.4475 8.72375L8.4475 10.7238C8.41812 10.7825 8.37745 10.8349 8.32781 10.878C8.27817 10.921 8.22055 10.9539 8.15822 10.9746C8.09588 10.9954 8.03007 11.0037 7.96453 10.9991C7.899 10.9944 7.83502 10.9769 7.77625 10.9475C7.71748 10.9181 7.66508 10.8774 7.62203 10.8278C7.57898 10.7782 7.54613 10.7205 7.52535 10.6582C7.50458 10.5959 7.49628 10.5301 7.50094 10.4645C7.5056 10.399 7.52312 10.335 7.5525 10.2762L8.19125 9H7C6.91473 9.00006 6.83086 8.97831 6.75636 8.93682C6.68186 8.89533 6.61921 8.83548 6.57437 8.76295C6.52952 8.69042 6.50397 8.60763 6.50015 8.52244C6.49632 8.43726 6.51434 8.35251 6.5525 8.27625L7.5525 6.27625C7.61184 6.15757 7.7159 6.06732 7.84178 6.02535C7.96767 5.98339 8.10507 5.99316 8.22375 6.0525C8.34243 6.11184 8.43268 6.2159 8.47465 6.34178C8.51661 6.46767 8.50684 6.60507 8.4475 6.72375L7.80875 8H9C9.08527 7.99994 9.16914 8.02169 9.24364 8.06318C9.31814 8.10467 9.38079 8.16452 9.42563 8.23705C9.47048 8.30958 9.49603 8.39237 9.49985 8.47756C9.50368 8.56274 9.48566 8.64749 9.4475 8.72375ZM5.5 0.5C5.5 0.367392 5.55268 0.240215 5.64645 0.146447C5.74021 0.0526784 5.86739 0 6 0L10 0C10.1326 0 10.2598 0.0526784 10.3536 0.146447C10.4473 0.240215 10.5 0.367392 10.5 0.5C10.5 0.632608 10.4473 0.759785 10.3536 0.853553C10.2598 0.947322 10.1326 1 10 1H6C5.86739 1 5.74021 0.947322 5.64645 0.853553C5.55268 0.759785 5.5 0.632608 5.5 0.5Z" fill="black"/>
</g>
<defs>
<clipPath id="clip0_5_1140">
<rect width="16" height="16" fill="white"/>
</clipPath>
</defs>
</svg>
