<svg width="16" height="16" viewBox="0 0 16 16" fill="none" xmlns="http://www.w3.org/2000/svg">
<g clip-path="url(#clip0_5_1575)">
<path d="M16 6V10C16 10.1326 15.9473 10.2598 15.8536 10.3536C15.7598 10.4473 15.6326 10.5 15.5 10.5C15.3674 10.5 15.2402 10.4473 15.1464 10.3536C15.0527 10.2598 15 10.1326 15 10V6C15 5.86739 15.0527 5.74021 15.1464 5.64645C15.2402 5.55268 15.3674 5.5 15.5 5.5C15.6326 5.5 15.7598 5.55268 15.8536 5.64645C15.9473 5.74021 16 5.86739 16 6ZM14 5V11C14 11.3978 13.842 11.7794 13.5607 12.0607C13.2794 12.342 12.8978 12.5 12.5 12.5H2C1.60218 12.5 1.22064 12.342 0.93934 12.0607C0.658035 11.7794 0.5 11.3978 0.5 11V5C0.5 4.60218 0.658035 4.22064 0.93934 3.93934C1.22064 3.65804 1.60218 3.5 2 3.5H12.5C12.8978 3.5 13.2794 3.65804 13.5607 3.93934C13.842 4.22064 14 4.60218 14 5ZM8.67562 7.73688C8.63076 7.66438 8.5681 7.60456 8.49361 7.5631C8.41911 7.52164 8.33525 7.49992 8.25 7.5H7.05875L7.6975 6.22375C7.72688 6.16498 7.7444 6.101 7.74906 6.03547C7.75372 5.96993 7.74542 5.90412 7.72465 5.84178C7.70387 5.77945 7.67102 5.72182 7.62797 5.67219C7.58492 5.62255 7.53252 5.58188 7.47375 5.5525C7.41498 5.52312 7.351 5.5056 7.28547 5.50094C7.21993 5.49628 7.15412 5.50458 7.09178 5.52535C7.02945 5.54613 6.97182 5.57898 6.92219 5.62203C6.87255 5.66508 6.83188 5.71748 6.8025 5.77625L5.8025 7.77625C5.76434 7.85251 5.74632 7.93726 5.75015 8.02244C5.75397 8.10763 5.77952 8.19042 5.82437 8.26295C5.86921 8.33548 5.93186 8.39533 6.00636 8.43682C6.08086 8.47831 6.16473 8.50006 6.25 8.5H7.44125L6.8025 9.77625C6.77312 9.83502 6.7556 9.899 6.75094 9.96453C6.74628 10.0301 6.75458 10.0959 6.77535 10.1582C6.79613 10.2205 6.82898 10.2782 6.87203 10.3278C6.91508 10.3774 6.96748 10.4181 7.02625 10.4475C7.14493 10.5068 7.28233 10.5166 7.40822 10.4746C7.47055 10.4539 7.52818 10.421 7.57781 10.378C7.62745 10.3349 7.66812 10.2825 7.6975 10.2238L8.6975 8.22375C8.73569 8.14747 8.75373 8.06269 8.7499 7.97747C8.74607 7.89225 8.7205 7.80942 8.67562 7.73688Z" fill="black"/>
</g>
<defs>
<clipPath id="clip0_5_1575">
<rect width="16" height="16" fill="white"/>
</clipPath>
</defs>
</svg>
