<svg width="16" height="16" viewBox="0 0 16 16" fill="none" xmlns="http://www.w3.org/2000/svg">
<g clip-path="url(#clip0_5_1136)">
<path d="M12.5 3.5H2C1.60218 3.5 1.22064 3.65804 0.93934 3.93934C0.658035 4.22064 0.5 4.60218 0.5 5V11C0.5 11.3978 0.658035 11.7794 0.93934 12.0607C1.22064 12.342 1.60218 12.5 2 12.5H12.5C12.8978 12.5 13.2794 12.342 13.5607 12.0607C13.842 11.7794 14 11.3978 14 11V5C14 4.60218 13.842 4.22064 13.5607 3.93934C13.2794 3.65804 12.8978 3.5 12.5 3.5ZM13 11C13 11.1326 12.9473 11.2598 12.8536 11.3536C12.7598 11.4473 12.6326 11.5 12.5 11.5H2C1.86739 11.5 1.74021 11.4473 1.64645 11.3536C1.55268 11.2598 1.5 11.1326 1.5 11V5C1.5 4.86739 1.55268 4.74021 1.64645 4.64645C1.74021 4.55268 1.86739 4.5 2 4.5H12.5C12.6326 4.5 12.7598 4.55268 12.8536 4.64645C12.9473 4.74021 13 4.86739 13 5V11ZM16 6V10C16 10.1326 15.9473 10.2598 15.8536 10.3536C15.7598 10.4473 15.6326 10.5 15.5 10.5C15.3674 10.5 15.2402 10.4473 15.1464 10.3536C15.0527 10.2598 15 10.1326 15 10V6C15 5.86739 15.0527 5.74021 15.1464 5.64645C15.2402 5.55268 15.3674 5.5 15.5 5.5C15.6326 5.5 15.7598 5.55268 15.8536 5.64645C15.9473 5.74021 16 5.86739 16 6Z" fill="black"/>
</g>
<defs>
<clipPath id="clip0_5_1136">
<rect width="16" height="16" fill="white"/>
</clipPath>
</defs>
</svg>
