<svg width="16" height="16" viewBox="0 0 16 16" fill="none" xmlns="http://www.w3.org/2000/svg">
<g clip-path="url(#clip0_5_1263)">
<path d="M5.5 0.5C5.5 0.367392 5.55268 0.240215 5.64645 0.146447C5.74021 0.0526784 5.86739 0 6 0L10 0C10.1326 0 10.2598 0.0526784 10.3536 0.146447C10.4473 0.240215 10.5 0.367392 10.5 0.5C10.5 0.632608 10.4473 0.759785 10.3536 0.853553C10.2598 0.947322 10.1326 1 10 1H6C5.86739 1 5.74021 0.947322 5.64645 0.853553C5.55268 0.759785 5.5 0.632608 5.5 0.5ZM12.5 3.5V14C12.5 14.3978 12.342 14.7794 12.0607 15.0607C11.7794 15.342 11.3978 15.5 11 15.5H5C4.60218 15.5 4.22064 15.342 3.93934 15.0607C3.65804 14.7794 3.5 14.3978 3.5 14V3.5C3.5 3.10218 3.65804 2.72064 3.93934 2.43934C4.22064 2.15804 4.60218 2 5 2H11C11.3978 2 11.7794 2.15804 12.0607 2.43934C12.342 2.72064 12.5 3.10218 12.5 3.5ZM7.5 8.5C7.5 8.63261 7.55268 8.75979 7.64645 8.85355C7.74021 8.94732 7.86739 9 8 9C8.13261 9 8.25979 8.94732 8.35355 8.85355C8.44732 8.75979 8.5 8.63261 8.5 8.5V6C8.5 5.86739 8.44732 5.74021 8.35355 5.64645C8.25979 5.55268 8.13261 5.5 8 5.5C7.86739 5.5 7.74021 5.55268 7.64645 5.64645C7.55268 5.74021 7.5 5.86739 7.5 6V8.5ZM8.75 10.75C8.75 10.6017 8.70601 10.4567 8.6236 10.3333C8.54119 10.21 8.42406 10.1139 8.28701 10.0571C8.14997 10.0003 7.99917 9.98547 7.85368 10.0144C7.7082 10.0434 7.57456 10.1148 7.46967 10.2197C7.36478 10.3246 7.29335 10.4582 7.26441 10.6037C7.23547 10.7492 7.25032 10.9 7.30709 11.037C7.36386 11.1741 7.45999 11.2912 7.58332 11.3736C7.70666 11.456 7.85166 11.5 8 11.5C8.19891 11.5 8.38968 11.421 8.53033 11.2803C8.67098 11.1397 8.75 10.9489 8.75 10.75Z" fill="black"/>
</g>
<defs>
<clipPath id="clip0_5_1263">
<rect width="16" height="16" fill="white"/>
</clipPath>
</defs>
</svg>
