<svg width="16" height="16" viewBox="0 0 16 16" fill="none" xmlns="http://www.w3.org/2000/svg">
<g clip-path="url(#clip0_5_727)">
<path d="M5.5 0.5C5.5 0.367392 5.55268 0.240215 5.64645 0.146447C5.74021 0.0526784 5.86739 0 6 0L10 0C10.1326 0 10.2598 0.0526784 10.3536 0.146447C10.4473 0.240215 10.5 0.367392 10.5 0.5C10.5 0.632608 10.4473 0.759785 10.3536 0.853553C10.2598 0.947322 10.1326 1 10 1H6C5.86739 1 5.74021 0.947322 5.64645 0.853553C5.55268 0.759785 5.5 0.632608 5.5 0.5ZM12.5 3.5V14C12.5 14.3978 12.342 14.7794 12.0607 15.0607C11.7794 15.342 11.3978 15.5 11 15.5H5C4.60218 15.5 4.22064 15.342 3.93934 15.0607C3.65804 14.7794 3.5 14.3978 3.5 14V3.5C3.5 3.10218 3.65804 2.72064 3.93934 2.43934C4.22064 2.15804 4.60218 2 5 2H11C11.3978 2 11.7794 2.15804 12.0607 2.43934C12.342 2.72064 12.5 3.10218 12.5 3.5ZM10.25 8.75C10.25 8.61739 10.1973 8.49021 10.1036 8.39645C10.0098 8.30268 9.88261 8.25 9.75 8.25H8.5V7C8.5 6.86739 8.44732 6.74021 8.35355 6.64645C8.25979 6.55268 8.13261 6.5 8 6.5C7.86739 6.5 7.74021 6.55268 7.64645 6.64645C7.55268 6.74021 7.5 6.86739 7.5 7V8.25H6.25C6.11739 8.25 5.99021 8.30268 5.89645 8.39645C5.80268 8.49021 5.75 8.61739 5.75 8.75C5.75 8.88261 5.80268 9.00979 5.89645 9.10355C5.99021 9.19732 6.11739 9.25 6.25 9.25H7.5V10.5C7.5 10.6326 7.55268 10.7598 7.64645 10.8536C7.74021 10.9473 7.86739 11 8 11C8.13261 11 8.25979 10.9473 8.35355 10.8536C8.44732 10.7598 8.5 10.6326 8.5 10.5V9.25H9.75C9.88261 9.25 10.0098 9.19732 10.1036 9.10355C10.1973 9.00979 10.25 8.88261 10.25 8.75Z" fill="black"/>
</g>
<defs>
<clipPath id="clip0_5_727">
<rect width="16" height="16" fill="white"/>
</clipPath>
</defs>
</svg>
