<svg width="16" height="16" viewBox="0 0 16 16" fill="none" xmlns="http://www.w3.org/2000/svg">
<g clip-path="url(#clip0_5_722)">
<path d="M8 1.5C6.71442 1.5 5.45772 1.88122 4.3888 2.59545C3.31988 3.30968 2.48676 4.32484 1.99479 5.51256C1.50282 6.70028 1.37409 8.00721 1.6249 9.26809C1.8757 10.529 2.49477 11.6872 3.40381 12.5962C4.31285 13.5052 5.47104 14.1243 6.73192 14.3751C7.99279 14.6259 9.29973 14.4972 10.4874 14.0052C11.6752 13.5132 12.6903 12.6801 13.4046 11.6112C14.1188 10.5423 14.5 9.28558 14.5 8C14.4982 6.27665 13.8128 4.62441 12.5942 3.40582C11.3756 2.18722 9.72335 1.50182 8 1.5ZM13.215 6.25C12.2738 5.94594 11.2992 5.75706 10.3125 5.6875C10.2429 4.70083 10.0541 3.72622 9.75 2.785C10.5551 3.05727 11.2865 3.51154 11.8875 4.1125C12.4885 4.71345 12.9427 5.44491 13.215 6.25ZM5.3125 3.2025C6.87008 3.71725 8.30282 4.55198 9.51875 5.65312C7.01853 5.63141 4.57137 6.37415 2.505 7.78188C2.54285 6.84232 2.82077 5.92813 3.31224 5.12648C3.80371 4.32483 4.49236 3.66245 5.3125 3.2025ZM8.2175 13.495C9.62535 11.4285 10.3681 8.98106 10.3463 6.48063C11.4477 7.69668 12.2826 9.12965 12.7975 10.6875C12.3376 11.5076 11.6752 12.1963 10.8735 12.6878C10.0719 13.1792 9.15768 13.4571 8.21813 13.495H8.2175Z" fill="black"/>
</g>
<defs>
<clipPath id="clip0_5_722">
<rect width="16" height="16" fill="white"/>
</clipPath>
</defs>
</svg>
