<svg width="16" height="16" viewBox="0 0 16 16" fill="none" xmlns="http://www.w3.org/2000/svg">
<g clip-path="url(#clip0_5_1257)">
<path d="M14 10.135V8.99999C13.9975 7.66697 13.552 6.37258 12.7336 5.32039C11.9151 4.2682 10.7702 3.5179 9.47875 3.18749C9.64625 2.92282 9.73964 2.61804 9.74919 2.30497C9.75873 1.9919 9.68407 1.682 9.53301 1.40762C9.38194 1.13323 9.16 0.904427 8.89035 0.74507C8.6207 0.585713 8.31322 0.501648 8 0.501648C7.68678 0.501648 7.3793 0.585713 7.10965 0.74507C6.84 0.904427 6.61806 1.13323 6.46699 1.40762C6.31593 1.682 6.24127 1.9919 6.25081 2.30497C6.26036 2.61804 6.35375 2.92282 6.52125 3.18749C5.22982 3.5179 4.08486 4.2682 3.26641 5.32039C2.44797 6.37258 2.00248 7.66697 2 8.99999V10.135C1.84813 10.2227 1.72199 10.3487 1.63423 10.5006C1.54647 10.6524 1.50018 10.8246 1.5 11V13C1.5 13.2652 1.60536 13.5196 1.79289 13.7071C1.98043 13.8946 2.23478 14 2.5 14H13.5C13.7652 14 14.0196 13.8946 14.2071 13.7071C14.3946 13.5196 14.5 13.2652 14.5 13V11C14.4998 10.8246 14.4535 10.6524 14.3658 10.5006C14.278 10.3487 14.1519 10.2227 14 10.135ZM7.5 11V13H5V11H7.5ZM8.5 11H11V13H8.5V11ZM7.25 2.24999C7.25 2.10165 7.29399 1.95665 7.3764 1.83331C7.45881 1.70997 7.57594 1.61384 7.71299 1.55708C7.85003 1.50031 8.00083 1.48546 8.14632 1.5144C8.2918 1.54334 8.42544 1.61477 8.53033 1.71966C8.63522 1.82455 8.70665 1.95819 8.73559 2.10367C8.76453 2.24916 8.74967 2.39996 8.69291 2.537C8.63614 2.67405 8.54001 2.79118 8.41668 2.87359C8.29334 2.956 8.14834 2.99999 8 2.99999C7.80109 2.99999 7.61032 2.92097 7.46967 2.78032C7.32902 2.63967 7.25 2.4489 7.25 2.24999ZM2.5 11H4V13H2.5V11ZM13.5 13H12V11H13.5V13Z" fill="black"/>
</g>
<defs>
<clipPath id="clip0_5_1257">
<rect width="16" height="16" fill="white"/>
</clipPath>
</defs>
</svg>
