<svg width="16" height="16" viewBox="0 0 16 16" fill="none" xmlns="http://www.w3.org/2000/svg">
<g clip-path="url(#clip0_5_1243)">
<path d="M15.3537 2.64622L13.3537 0.646223C13.2599 0.552403 13.1327 0.499695 13 0.499695C12.8673 0.499695 12.74 0.552403 12.6462 0.646223C12.5524 0.740043 12.4997 0.867291 12.4997 0.999973C12.4997 1.13265 12.5524 1.2599 12.6462 1.35372L12.7387 1.4456L9.2906 4.03185L6.90185 4.50997C6.80513 4.52935 6.71623 4.57673 6.64622 4.64622L1.43747 9.85372C1.15619 10.135 0.998169 10.5165 0.998169 10.9143C0.998169 11.3122 1.15619 11.6937 1.43747 11.975L4.02497 14.5625C4.30628 14.8438 4.68779 15.0018 5.0856 15.0018C5.48341 15.0018 5.86492 14.8438 6.14622 14.5625L11.3537 9.3556C11.4234 9.2857 11.4708 9.19676 11.49 9.09997L11.9681 6.71122L14.5543 3.2631L14.6462 3.3556C14.6927 3.40205 14.7478 3.4389 14.8085 3.46404C14.8692 3.48919 14.9343 3.50213 15 3.50213C15.0657 3.50213 15.1307 3.48919 15.1914 3.46404C15.2521 3.4389 15.3073 3.40205 15.3537 3.3556C15.4002 3.30914 15.437 3.25399 15.4622 3.1933C15.4873 3.1326 15.5003 3.06755 15.5003 3.00185C15.5003 2.93615 15.4873 2.8711 15.4622 2.8104C15.437 2.7497 15.4002 2.69455 15.3537 2.6481V2.64622ZM5.0856 14C5.01999 14.0001 4.955 13.9873 4.89439 13.9622C4.83378 13.9371 4.77874 13.9002 4.73247 13.8537L2.14622 11.2675C2.05253 11.1737 1.99989 11.0466 1.99989 10.914C1.99989 10.7815 2.05253 10.6544 2.14622 10.5606L2.49997 10.2068L5.7931 13.5L5.43747 13.8537C5.34409 13.947 5.2176 13.9996 5.0856 14ZM11.1 6.19997C11.0551 6.25962 11.0244 6.32863 11.01 6.40185L10.5393 8.75372L9.99997 9.2931L6.70685 5.99997L7.24622 5.4606L9.5981 4.98997C9.67131 4.97557 9.74032 4.94481 9.79997 4.89997L13.4531 2.15997L13.84 2.54685L11.1 6.19997Z" fill="black"/>
</g>
<defs>
<clipPath id="clip0_5_1243">
<rect width="16" height="16" fill="white"/>
</clipPath>
</defs>
</svg>
