<svg width="16" height="16" viewBox="0 0 16 16" fill="none" xmlns="http://www.w3.org/2000/svg">
<g clip-path="url(#clip0_5_718)">
<path d="M13.5 5.5H12.5V4.5C12.5 3.83696 12.2366 3.20107 11.7678 2.73223C11.2989 2.26339 10.663 2 10 2H9.30125C8.55688 1.3625 7.55125 1 6.5 1C4.29437 1 2.5 2.57 2.5 4.5V13C2.5 13.2652 2.60536 13.5196 2.79289 13.7071C2.98043 13.8946 3.23478 14 3.5 14H11.5C11.7652 14 12.0196 13.8946 12.2071 13.7071C12.3946 13.5196 12.5 13.2652 12.5 13V12.5H13.5C13.8978 12.5 14.2794 12.342 14.5607 12.0607C14.842 11.7794 15 11.3978 15 11V7C15 6.60218 14.842 6.22064 14.5607 5.93934C14.2794 5.65804 13.8978 5.5 13.5 5.5ZM6.5 11.5C6.5 11.6326 6.44732 11.7598 6.35355 11.8536C6.25979 11.9473 6.13261 12 6 12C5.86739 12 5.74021 11.9473 5.64645 11.8536C5.55268 11.7598 5.5 11.6326 5.5 11.5V6.5C5.5 6.36739 5.55268 6.24021 5.64645 6.14645C5.74021 6.05268 5.86739 6 6 6C6.13261 6 6.25979 6.05268 6.35355 6.14645C6.44732 6.24021 6.5 6.36739 6.5 6.5V11.5ZM9.5 11.5C9.5 11.6326 9.44732 11.7598 9.35355 11.8536C9.25979 11.9473 9.13261 12 9 12C8.86739 12 8.74021 11.9473 8.64645 11.8536C8.55268 11.7598 8.5 11.6326 8.5 11.5V6.5C8.5 6.36739 8.55268 6.24021 8.64645 6.14645C8.74021 6.05268 8.86739 6 9 6C9.13261 6 9.25979 6.05268 9.35355 6.14645C9.44732 6.24021 9.5 6.36739 9.5 6.5V11.5ZM3.5625 4C3.84125 2.86 5.05312 2 6.5 2C7.36688 2 8.19125 2.3125 8.76313 2.86125C8.85617 2.95028 8.97997 2.99998 9.10875 3H10C10.3101 3.0001 10.6126 3.09631 10.8658 3.27539C11.1189 3.45447 11.3104 3.70762 11.4137 4H3.5625ZM14 11C14 11.1326 13.9473 11.2598 13.8536 11.3536C13.7598 11.4473 13.6326 11.5 13.5 11.5H12.5V6.5H13.5C13.6326 6.5 13.7598 6.55268 13.8536 6.64645C13.9473 6.74021 14 6.86739 14 7V11Z" fill="black"/>
</g>
<defs>
<clipPath id="clip0_5_718">
<rect width="16" height="16" fill="white"/>
</clipPath>
</defs>
</svg>
