<svg width="16" height="16" viewBox="0 0 16 16" fill="none" xmlns="http://www.w3.org/2000/svg">
<g clip-path="url(#clip0_5_1227)">
<path d="M5.75 7.5H4V6H5.75C5.94891 6 6.13968 6.07902 6.28033 6.21967C6.42098 6.36032 6.5 6.55109 6.5 6.75C6.5 6.94891 6.42098 7.13968 6.28033 7.28033C6.13968 7.42098 5.94891 7.5 5.75 7.5ZM6 8.5H4V10.5H6C6.26522 10.5 6.51957 10.3946 6.70711 10.2071C6.89464 10.0196 7 9.76522 7 9.5C7 9.23478 6.89464 8.98043 6.70711 8.79289C6.51957 8.60536 6.26522 8.5 6 8.5ZM11 7.5C10.6899 7.5001 10.3874 7.59631 10.1342 7.77539C9.88107 7.95447 9.68962 8.20762 9.58625 8.5H12.4137C12.3104 8.20762 12.1189 7.95447 11.8658 7.77539C11.6126 7.59631 11.3101 7.5001 11 7.5ZM15 3.5V12.5C15 12.7652 14.8946 13.0196 14.7071 13.2071C14.5196 13.3946 14.2652 13.5 14 13.5H2C1.73478 13.5 1.48043 13.3946 1.29289 13.2071C1.10536 13.0196 1 12.7652 1 12.5V3.5C1 3.23478 1.10536 2.98043 1.29289 2.79289C1.48043 2.60536 1.73478 2.5 2 2.5H14C14.2652 2.5 14.5196 2.60536 14.7071 2.79289C14.8946 2.98043 15 3.23478 15 3.5ZM9 5.5C9 5.63261 9.05268 5.75979 9.14645 5.85355C9.24021 5.94732 9.36739 6 9.5 6H12.5C12.6326 6 12.7598 5.94732 12.8536 5.85355C12.9473 5.75979 13 5.63261 13 5.5C13 5.36739 12.9473 5.24021 12.8536 5.14645C12.7598 5.05268 12.6326 5 12.5 5H9.5C9.36739 5 9.24021 5.05268 9.14645 5.14645C9.05268 5.24021 9 5.36739 9 5.5ZM8 9.5C7.99984 9.17243 7.91923 8.84991 7.76524 8.56079C7.61125 8.27167 7.38861 8.0248 7.11688 7.84188C7.32242 7.58443 7.45112 7.27419 7.48818 6.94685C7.52523 6.6195 7.46914 6.28835 7.32635 5.99147C7.18355 5.69459 6.95986 5.44404 6.681 5.26865C6.40214 5.09326 6.07943 5.00013 5.75 5H3.5C3.36739 5 3.24021 5.05268 3.14645 5.14645C3.05268 5.24021 3 5.36739 3 5.5V11C3 11.1326 3.05268 11.2598 3.14645 11.3536C3.24021 11.4473 3.36739 11.5 3.5 11.5H6C6.53043 11.5 7.03914 11.2893 7.41421 10.9142C7.78929 10.5391 8 10.0304 8 9.5ZM13.5 9C13.5 8.42833 13.304 7.87394 12.9448 7.42923C12.5856 6.98451 12.0848 6.67634 11.5259 6.55608C10.967 6.43582 10.3838 6.51073 9.87349 6.76833C9.36315 7.02592 8.9565 7.45064 8.72133 7.9717C8.48616 8.49276 8.43667 9.07867 8.58111 9.63179C8.72555 10.1849 9.0552 10.6718 9.5151 11.0114C9.97501 11.3509 10.5374 11.5226 11.1085 11.4978C11.6797 11.473 12.225 11.2532 12.6538 10.875C12.7532 10.7872 12.8137 10.6635 12.822 10.5312C12.8302 10.3988 12.7856 10.2685 12.6978 10.1691C12.6544 10.1198 12.6016 10.0796 12.5426 10.0507C12.4836 10.0219 12.4195 10.0049 12.354 10.0008C12.2216 9.99256 12.0913 10.0372 11.9919 10.125C11.8078 10.2872 11.5868 10.4017 11.3481 10.4586C11.1095 10.5155 10.8605 10.513 10.6231 10.4513C10.3857 10.3896 10.167 10.2706 9.9862 10.1048C9.80544 9.93892 9.66811 9.73126 9.58625 9.5H13C13.1326 9.5 13.2598 9.44732 13.3536 9.35355C13.4473 9.25979 13.5 9.13261 13.5 9Z" fill="black"/>
</g>
<defs>
<clipPath id="clip0_5_1227">
<rect width="16" height="16" fill="white"/>
</clipPath>
</defs>
</svg>
