<svg width="16" height="16" viewBox="0 0 16 16" fill="none" xmlns="http://www.w3.org/2000/svg">
<g clip-path="url(#clip0_5_1632)">
<path d="M13.8651 12C13.8558 12.0159 13.8429 12.0294 13.8274 12.0393C13.8118 12.0492 13.7942 12.0553 13.7758 12.057C13.7575 12.0587 13.739 12.056 13.7219 12.0492C13.7048 12.0423 13.6896 12.0314 13.6776 12.0175L5.20444 2.69935C5.18062 2.67249 5.16286 2.64083 5.15237 2.6065C5.14188 2.57217 5.13891 2.53599 5.14365 2.50041C5.1484 2.46483 5.16075 2.43069 5.17986 2.40031C5.19898 2.36993 5.22441 2.34402 5.25444 2.32435C6.08958 1.77199 7.07203 1.48466 8.07319 1.49997C10.8126 1.54122 12.9876 3.81872 13.0001 6.55747C13.0088 8.73747 13.5194 10.4037 13.8638 10.995C13.9534 11.1472 14.0007 11.3206 14.0009 11.4973C14.0012 11.674 13.9543 11.8475 13.8651 12ZM13.3701 13.1637C13.4592 13.2619 13.5058 13.3916 13.4994 13.5241C13.493 13.6566 13.4342 13.7811 13.336 13.8703C13.2378 13.9595 13.1082 14.006 12.9757 13.9996C12.8432 13.9932 12.7186 13.9344 12.6294 13.8362L11.4138 12.5H10.4476C10.3331 13.0655 10.0266 13.5739 9.57999 13.9392C9.13339 14.3045 8.5742 14.504 7.99725 14.504C7.4203 14.504 6.86111 14.3045 6.41451 13.9392C5.96791 13.5739 5.66139 13.0655 5.54694 12.5H2.99444C2.82393 12.5011 2.65605 12.4579 2.50719 12.3748C2.35832 12.2917 2.23355 12.1713 2.14506 12.0256C2.05109 11.8682 2.001 11.6884 2.00001 11.5051C1.99903 11.3218 2.04717 11.1415 2.13944 10.9831C2.48631 10.375 2.99569 8.6931 2.99569 6.49997C2.995 5.61807 3.22929 4.75191 3.67444 3.9906L2.62506 2.83622C2.57998 2.78779 2.54496 2.7309 2.52202 2.66883C2.49909 2.60677 2.4887 2.54077 2.49147 2.47466C2.49423 2.40855 2.51008 2.34365 2.53811 2.28372C2.56614 2.22378 2.60579 2.17001 2.65476 2.12551C2.70372 2.08101 2.76103 2.04667 2.82337 2.02448C2.8857 2.0023 2.95182 1.9927 3.01789 1.99626C3.08396 1.99981 3.14867 2.01644 3.20826 2.04519C3.26786 2.07394 3.32115 2.11422 3.36506 2.16372L13.3701 13.1637ZM9.41194 12.5H6.58256C6.68576 12.7928 6.87726 13.0463 7.13064 13.2256C7.38403 13.405 7.68681 13.5013 7.99725 13.5013C8.30768 13.5013 8.61047 13.405 8.86386 13.2256C9.11724 13.0463 9.30874 12.7928 9.41194 12.5Z" fill="black"/>
</g>
<defs>
<clipPath id="clip0_5_1632">
<rect width="16" height="16" fill="white"/>
</clipPath>
</defs>
</svg>
