<svg width="16" height="16" viewBox="0 0 16 16" fill="none" xmlns="http://www.w3.org/2000/svg">
<g clip-path="url(#clip0_5_1224)">
<path d="M14.0001 4.44376C13.8824 4.50471 13.7453 4.51644 13.619 4.47635C13.4926 4.43627 13.3874 4.34767 13.3263 4.23001C12.8491 3.2872 12.1267 2.49033 11.2351 1.92314C11.1795 1.88809 11.1314 1.84245 11.0935 1.7888C11.0556 1.73516 11.0286 1.67457 11.0141 1.6105C10.9996 1.54643 10.9978 1.48012 11.0089 1.41538C11.02 1.35063 11.0438 1.28871 11.0788 1.23314C11.1139 1.17757 11.1595 1.12946 11.2132 1.09153C11.2668 1.05361 11.3274 1.02662 11.3915 1.01211C11.4556 0.997602 11.5219 0.995855 11.5866 1.00697C11.6514 1.01808 11.7133 1.04184 11.7688 1.07689C12.808 1.74222 13.6517 2.67162 14.2138 3.77001C14.2748 3.88771 14.2865 4.0248 14.2464 4.15114C14.2064 4.27747 14.1177 4.38273 14.0001 4.44376ZM2.23197 4.50001C2.32357 4.49998 2.4134 4.47477 2.49166 4.42716C2.56991 4.37955 2.63358 4.31135 2.67572 4.23001C3.15297 3.2872 3.87535 2.49033 4.76697 1.92314C4.87919 1.85236 4.95869 1.7399 4.988 1.6105C5.0173 1.4811 4.994 1.34536 4.92322 1.23314C4.85244 1.12092 4.73998 1.04141 4.61058 1.01211C4.48118 0.982808 4.34544 1.00611 4.23322 1.07689C3.1941 1.74222 2.35033 2.67162 1.78822 3.77001C1.74874 3.84621 1.72954 3.93129 1.73247 4.01706C1.73539 4.10283 1.76035 4.1864 1.80492 4.25973C1.8495 4.33307 1.9122 4.39369 1.98699 4.43577C2.06179 4.47785 2.14615 4.49998 2.23197 4.50001ZM13.8632 10.9963C13.9518 11.1482 13.9988 11.3207 13.9994 11.4966C14 11.6724 13.9542 11.8453 13.8667 11.9978C13.7791 12.1503 13.6529 12.2771 13.5008 12.3652C13.3486 12.4534 13.1759 12.4999 13.0001 12.5H10.4501C10.3353 13.0652 10.0287 13.5733 9.58222 13.9382C9.13572 14.3032 8.57677 14.5025 8.00009 14.5025C7.42342 14.5025 6.86447 14.3032 6.41796 13.9382C5.97146 13.5733 5.66485 13.0652 5.55009 12.5H3.00009C2.82436 12.4997 2.65181 12.453 2.49985 12.3648C2.34788 12.2765 2.22186 12.1498 2.13447 11.9973C2.04708 11.8448 2.00142 11.672 2.00207 11.4963C2.00273 11.3205 2.04969 11.1481 2.13822 10.9963C2.70134 10.0244 3.00009 8.64251 3.00009 7.00001C3.00009 5.67393 3.52688 4.40216 4.46456 3.46448C5.40224 2.5268 6.67401 2.00001 8.00009 2.00001C9.32618 2.00001 10.5979 2.5268 11.5356 3.46448C12.4733 4.40216 13.0001 5.67393 13.0001 7.00001C13.0001 8.64189 13.2988 10.0238 13.8632 10.9963ZM9.41384 12.5H6.58634C6.68993 12.7921 6.88147 13.045 7.13463 13.2239C7.38779 13.4027 7.69014 13.4987 8.00009 13.4987C8.31005 13.4987 8.61239 13.4027 8.86555 13.2239C9.11871 13.045 9.31025 12.7921 9.41384 12.5Z" fill="black"/>
</g>
<defs>
<clipPath id="clip0_5_1224">
<rect width="16" height="16" fill="white"/>
</clipPath>
</defs>
</svg>
