<svg width="16" height="16" viewBox="0 0 16 16" fill="none" xmlns="http://www.w3.org/2000/svg">
<g clip-path="url(#clip0_5_1630)">
<path d="M13.8625 10.9963C13.5156 10.3988 13 8.70813 13 6.5C13 5.17392 12.4732 3.90215 11.5355 2.96447C10.5979 2.02678 9.32609 1.5 8.00001 1.5C6.67393 1.5 5.40216 2.02678 4.46447 2.96447C3.52679 3.90215 3.00001 5.17392 3.00001 6.5C3.00001 8.70875 2.48376 10.3988 2.13688 10.9963C2.0483 11.1482 2.00134 11.3207 2.00074 11.4966C2.00013 11.6724 2.04591 11.8453 2.13344 11.9978C2.22098 12.1503 2.34718 12.277 2.49932 12.3652C2.65146 12.4534 2.82417 12.4999 3.00001 12.5H5.55063C5.66599 13.0645 5.97277 13.5718 6.41909 13.9361C6.86541 14.3004 7.42387 14.4994 8.00001 14.4994C8.57615 14.4994 9.13461 14.3004 9.58092 13.9361C10.0272 13.5718 10.334 13.0645 10.4494 12.5H13C13.1758 12.4998 13.3484 12.4532 13.5005 12.365C13.6525 12.2768 13.7786 12.15 13.8661 11.9975C13.9536 11.845 13.9993 11.6722 13.9987 11.4964C13.998 11.3206 13.9511 11.1481 13.8625 10.9963ZM8.00001 13.5C7.6899 13.4999 7.38743 13.4037 7.13426 13.2246C6.88108 13.0455 6.68963 12.7924 6.58626 12.5H9.41376C9.31039 12.7924 9.11894 13.0455 8.86576 13.2246C8.61258 13.4037 8.31012 13.4999 8.00001 13.5ZM9.00001 9.5H7.00001C6.90952 9.49995 6.82074 9.47534 6.74314 9.42879C6.66553 9.38225 6.60202 9.31552 6.55936 9.23572C6.5167 9.15591 6.49649 9.06603 6.5009 8.97565C6.50531 8.88527 6.53416 8.79777 6.58438 8.7225L8.06563 6.5H7.00001C6.8674 6.5 6.74022 6.44732 6.64645 6.35355C6.55269 6.25979 6.50001 6.13261 6.50001 6C6.50001 5.86739 6.55269 5.74021 6.64645 5.64645C6.74022 5.55268 6.8674 5.5 7.00001 5.5H9.00001C9.0905 5.50005 9.17928 5.52466 9.25688 5.57121C9.33448 5.61775 9.398 5.68448 9.44066 5.76428C9.48332 5.84409 9.50352 5.93397 9.49911 6.02435C9.49471 6.11473 9.46585 6.20223 9.41563 6.2775L7.93751 8.5H9.00001C9.13262 8.5 9.25979 8.55268 9.35356 8.64645C9.44733 8.74021 9.50001 8.86739 9.50001 9C9.50001 9.13261 9.44733 9.25979 9.35356 9.35355C9.25979 9.44732 9.13262 9.5 9.00001 9.5Z" fill="black"/>
</g>
<defs>
<clipPath id="clip0_5_1630">
<rect width="16" height="16" fill="white"/>
</clipPath>
</defs>
</svg>
