<svg width="16" height="16" viewBox="0 0 16 16" fill="none" xmlns="http://www.w3.org/2000/svg">
<g clip-path="url(#clip0_5_754)">
<path d="M10.5001 14C10.5001 14.1326 10.4474 14.2598 10.3536 14.3535C10.2599 14.4473 10.1327 14.5 10.0001 14.5H6.00009C5.86749 14.5 5.74031 14.4473 5.64654 14.3535C5.55277 14.2598 5.50009 14.1326 5.50009 14C5.50009 13.8674 5.55277 13.7402 5.64654 13.6464C5.74031 13.5527 5.86749 13.5 6.00009 13.5H10.0001C10.1327 13.5 10.2599 13.5527 10.3536 13.6464C10.4474 13.7402 10.5001 13.8674 10.5001 14ZM14.212 3.76997C13.65 2.67163 12.8062 1.7424 11.767 1.07747C11.7114 1.042 11.6495 1.01786 11.5846 1.00642C11.5197 0.994992 11.4532 0.996497 11.3889 1.01085C11.3246 1.02521 11.2637 1.05214 11.2099 1.09008C11.156 1.12803 11.1102 1.17624 11.075 1.23196C11.0398 1.28768 11.016 1.3498 11.0049 1.41475C10.9938 1.4797 10.9957 1.5462 11.0104 1.61043C11.0251 1.67465 11.0524 1.73534 11.0906 1.789C11.1288 1.84266 11.1773 1.88823 11.2332 1.9231C12.1248 2.49028 12.8472 3.28715 13.3245 4.22997C13.3875 4.34393 13.4926 4.42878 13.6173 4.46647C13.7419 4.50416 13.8764 4.49172 13.992 4.43178C14.1077 4.37185 14.1954 4.26915 14.2364 4.14555C14.2775 4.02195 14.2687 3.8872 14.212 3.76997ZM2.23197 4.49997C2.32357 4.49993 2.4134 4.47473 2.49166 4.42712C2.56991 4.3795 2.63358 4.31131 2.67572 4.22997C3.15297 3.28715 3.87535 2.49028 4.76697 1.9231C4.82288 1.88823 4.87134 1.84266 4.90958 1.789C4.94781 1.73534 4.97507 1.67465 4.98977 1.61043C5.00448 1.5462 5.00634 1.4797 4.99526 1.41475C4.98418 1.3498 4.96037 1.28768 4.9252 1.23196C4.89003 1.17624 4.8442 1.12803 4.79033 1.09008C4.73647 1.05214 4.67563 1.02521 4.61133 1.01085C4.54702 0.996497 4.48051 0.994992 4.41562 1.00642C4.35073 1.01786 4.28875 1.042 4.23322 1.07747C3.19398 1.7424 2.35017 2.67163 1.78822 3.76997C1.74874 3.84617 1.72954 3.93125 1.73247 4.01702C1.73539 4.10279 1.76035 4.18636 1.80492 4.25969C1.8495 4.33302 1.9122 4.39365 1.98699 4.43573C2.06179 4.47781 2.14615 4.49994 2.23197 4.49997ZM13.0001 6.99997C13.0001 5.67389 12.4733 4.40212 11.5356 3.46444C10.5979 2.52676 9.32618 1.99997 8.00009 1.99997C6.67401 1.99997 5.40224 2.52676 4.46456 3.46444C3.52688 4.40212 3.00009 5.67389 3.00009 6.99997C3.00009 8.64247 2.70134 10.0243 2.13697 10.9962C2.04839 11.1481 2.00143 11.3207 2.00082 11.4965C2.00022 11.6724 2.04599 11.8453 2.13353 11.9978C2.22107 12.1503 2.34727 12.277 2.49941 12.3652C2.65155 12.4534 2.82425 12.4998 3.00009 12.5H13.0001C13.1758 12.4996 13.3484 12.453 13.5003 12.3647C13.6523 12.2765 13.7783 12.1497 13.8657 11.9972C13.9531 11.8448 13.9988 11.672 13.9981 11.4962C13.9975 11.3205 13.9505 11.148 13.862 10.9962C13.2988 10.0237 13.0001 8.64185 13.0001 6.99997Z" fill="black"/>
</g>
<defs>
<clipPath id="clip0_5_754">
<rect width="16" height="16" fill="white"/>
</clipPath>
</defs>
</svg>
