<svg width="16" height="16" viewBox="0 0 16 16" fill="none" xmlns="http://www.w3.org/2000/svg">
<g clip-path="url(#clip0_5_709)">
<path d="M10.5 14C10.5 14.1326 10.4473 14.2598 10.3536 14.3536C10.2598 14.4473 10.1326 14.5 10 14.5H6.00001C5.8674 14.5 5.74022 14.4473 5.64645 14.3536C5.55269 14.2598 5.50001 14.1326 5.50001 14C5.50001 13.8674 5.55269 13.7402 5.64645 13.6464C5.74022 13.5527 5.8674 13.5 6.00001 13.5H10C10.1326 13.5 10.2598 13.5527 10.3536 13.6464C10.4473 13.7402 10.5 13.8674 10.5 14ZM13.8631 10.9963C13.5156 10.3988 13 8.70813 13 6.5C13 5.17392 12.4732 3.90215 11.5355 2.96447C10.5979 2.02678 9.32609 1.5 8.00001 1.5C6.67393 1.5 5.40216 2.02678 4.46447 2.96447C3.52679 3.90215 3.00001 5.17392 3.00001 6.5C3.00001 8.70875 2.48376 10.3988 2.13688 10.9963C2.0483 11.1482 2.00134 11.3207 2.00074 11.4966C2.00013 11.6724 2.04591 11.8453 2.13344 11.9978C2.22098 12.1503 2.34718 12.277 2.49932 12.3652C2.65146 12.4534 2.82417 12.4999 3.00001 12.5H13C13.1758 12.4998 13.3484 12.4532 13.5005 12.365C13.6525 12.2768 13.7786 12.15 13.8661 11.9975C13.9536 11.845 13.9993 11.6722 13.9987 11.4964C13.998 11.3206 13.9511 11.1481 13.8625 10.9963H13.8631Z" fill="black"/>
</g>
<defs>
<clipPath id="clip0_5_709">
<rect width="16" height="16" fill="white"/>
</clipPath>
</defs>
</svg>
