<svg width="16" height="16" viewBox="0 0 16 16" fill="none" xmlns="http://www.w3.org/2000/svg">
<g clip-path="url(#clip0_5_1215)">
<path d="M13.8651 12C13.8558 12.0159 13.8429 12.0294 13.8274 12.0393C13.8118 12.0492 13.7942 12.0553 13.7758 12.057C13.7575 12.0587 13.739 12.056 13.7219 12.0492C13.7048 12.0423 13.6896 12.0314 13.6776 12.0175L5.20444 2.69935C5.18062 2.67249 5.16286 2.64083 5.15237 2.6065C5.14188 2.57217 5.13891 2.53599 5.14365 2.50041C5.1484 2.46483 5.16075 2.43069 5.17986 2.40031C5.19898 2.36993 5.22441 2.34402 5.25444 2.32435C6.08958 1.77199 7.07203 1.48466 8.07319 1.49997C10.8126 1.54122 12.9876 3.81872 13.0001 6.55747C13.0088 8.73747 13.5194 10.4037 13.8638 10.995C13.9534 11.1472 14.0007 11.3206 14.0009 11.4973C14.0012 11.674 13.9543 11.8475 13.8651 12ZM10.0001 13.5H6.01381C5.88518 13.499 5.7609 13.5465 5.6657 13.633C5.5705 13.7195 5.51137 13.8387 5.50006 13.9668C5.49552 14.0352 5.50509 14.1038 5.52818 14.1684C5.55126 14.2329 5.58737 14.292 5.63426 14.342C5.68115 14.392 5.73782 14.4318 5.80075 14.459C5.86368 14.4862 5.93152 14.5001 6.00006 14.5H9.98381C10.1129 14.5016 10.2378 14.4544 10.3335 14.3678C10.4292 14.2812 10.4887 14.1617 10.5001 14.0331C10.5046 13.9647 10.495 13.8961 10.4719 13.8316C10.4489 13.767 10.4128 13.7079 10.3659 13.6579C10.319 13.6079 10.2623 13.5681 10.1994 13.5409C10.1364 13.5138 10.0686 13.4998 10.0001 13.5ZM3.36506 2.16372C3.32115 2.11422 3.26786 2.07394 3.20826 2.04519C3.14867 2.01644 3.08396 1.99981 3.01789 1.99626C2.95182 1.9927 2.8857 2.0023 2.82337 2.02448C2.76103 2.04667 2.70372 2.08101 2.65476 2.12551C2.60579 2.17001 2.56614 2.22378 2.53811 2.28372C2.51008 2.34365 2.49423 2.40855 2.49147 2.47466C2.4887 2.54077 2.49909 2.60677 2.52202 2.66883C2.54496 2.7309 2.57998 2.78779 2.62506 2.83622L3.67444 3.9906C3.22929 4.75191 2.995 5.61807 2.99569 6.49997C2.99569 8.6931 2.48631 10.375 2.13944 10.9831C2.04717 11.1415 1.99903 11.3218 2.00001 11.5051C2.001 11.6884 2.05109 11.8682 2.14506 12.0256C2.23355 12.1713 2.35832 12.2917 2.50719 12.3748C2.65605 12.4579 2.82393 12.5011 2.99444 12.5H11.4138L12.6294 13.8362C12.7186 13.9344 12.8432 13.9932 12.9757 13.9996C13.1082 14.006 13.2378 13.9595 13.336 13.8703C13.4342 13.7811 13.493 13.6566 13.4994 13.5241C13.5058 13.3916 13.4592 13.2619 13.3701 13.1637L3.36506 2.16372Z" fill="black"/>
</g>
<defs>
<clipPath id="clip0_5_1215">
<rect width="16" height="16" fill="white"/>
</clipPath>
</defs>
</svg>
