<svg width="16" height="16" viewBox="0 0 16 16" fill="none" xmlns="http://www.w3.org/2000/svg">
<g clip-path="url(#clip0_5_1204)">
<path d="M4 5V11C4 11.1326 3.94732 11.2598 3.85355 11.3536C3.75979 11.4473 3.63261 11.5 3.5 11.5C3.36739 11.5 3.24021 11.4473 3.14645 11.3536C3.05268 11.2598 3 11.1326 3 11H0.5C0.367392 11 0.240215 10.9473 0.146447 10.8536C0.0526784 10.7598 0 10.6326 0 10.5V5.5C0 5.36739 0.0526784 5.24021 0.146447 5.14645C0.240215 5.05268 0.367392 5 0.5 5H3C3 4.86739 3.05268 4.74021 3.14645 4.64645C3.24021 4.55268 3.36739 4.5 3.5 4.5C3.63261 4.5 3.75979 4.55268 3.85355 4.64645C3.94732 4.74021 4 4.86739 4 5ZM16 5.5V10.5C16 10.6326 15.9473 10.7598 15.8536 10.8536C15.7598 10.9473 15.6326 11 15.5 11H11.8644C11.7767 11.1518 11.6508 11.2779 11.4991 11.3656C11.3474 11.4534 11.1753 11.4997 11 11.5H7C6.82474 11.4997 6.65264 11.4534 6.50094 11.3656C6.34923 11.2779 6.22325 11.1518 6.13562 11H5.25C5.1837 11 5.12011 10.9737 5.07322 10.9268C5.02634 10.8799 5 10.8163 5 10.75V5.25C5 5.1837 5.02634 5.12011 5.07322 5.07322C5.12011 5.02634 5.1837 5 5.25 5H6.13562C6.22325 4.84822 6.34923 4.72214 6.50094 4.63439C6.65264 4.54663 6.82474 4.50029 7 4.5H11C11.1753 4.50029 11.3474 4.54663 11.4991 4.63439C11.6508 4.72214 11.7767 4.84822 11.8644 5H15.5C15.6326 5 15.7598 5.05268 15.8536 5.14645C15.9473 5.24021 16 5.36739 16 5.5ZM11 10.4875V8.5H9C8.86739 8.5 8.74021 8.44732 8.64645 8.35355C8.55268 8.25979 8.5 8.13261 8.5 8C8.5 7.86739 8.55268 7.74021 8.64645 7.64645C8.74021 7.55268 8.86739 7.5 9 7.5H11V5.5H7V10.5H11C11 10.4956 11 10.4919 11 10.4875Z" fill="black"/>
</g>
<defs>
<clipPath id="clip0_5_1204">
<rect width="16" height="16" fill="white"/>
</clipPath>
</defs>
</svg>
