<svg width="16" height="16" viewBox="0 0 16 16" fill="none" xmlns="http://www.w3.org/2000/svg">
<g clip-path="url(#clip0_5_1198)">
<path d="M13.8125 9.02501C13.4445 7.58094 12.5536 6.32484 11.3125 5.50002H15C15.1326 5.50002 15.2598 5.44734 15.3536 5.35357C15.4473 5.2598 15.5 5.13262 15.5 5.00002C15.5 4.86741 15.4473 4.74023 15.3536 4.64646C15.2598 4.55269 15.1326 4.50002 15 4.50002H9.9375C9.82735 4.06981 9.57715 3.6885 9.22635 3.4162C8.87554 3.14389 8.44409 2.99609 8 2.99609C7.55591 2.99609 7.12446 3.14389 6.77365 3.4162C6.42285 3.6885 6.17265 4.06981 6.0625 4.50002H1C0.867392 4.50002 0.740215 4.55269 0.646447 4.64646C0.552678 4.74023 0.5 4.86741 0.5 5.00002C0.5 5.13262 0.552678 5.2598 0.646447 5.35357C0.740215 5.44734 0.867392 5.50002 1 5.50002H4.6875C3.44636 6.32484 2.5555 7.58094 2.1875 9.02501C1.83124 9.08155 1.4969 9.23338 1.21989 9.46442C0.942882 9.69547 0.733516 9.99713 0.613967 10.3375C0.494419 10.6778 0.469138 11.0441 0.540803 11.3976C0.612467 11.7512 0.778409 12.0787 1.02105 12.3456C1.2637 12.6126 1.57401 12.8089 1.91913 12.9138C2.26425 13.0187 2.63132 13.0284 2.98147 12.9417C3.33162 12.855 3.65181 12.6753 3.90814 12.4215C4.16446 12.1677 4.34737 11.8493 4.4375 11.5H11.5625C11.6526 11.8493 11.8355 12.1677 12.0919 12.4215C12.3482 12.6753 12.6684 12.855 13.0185 12.9417C13.3687 13.0284 13.7358 13.0187 14.0809 12.9138C14.426 12.8089 14.7363 12.6126 14.9789 12.3456C15.2216 12.0787 15.3875 11.7512 15.4592 11.3976C15.5309 11.0441 15.5056 10.6778 15.386 10.3375C15.2665 9.99713 15.0571 9.69547 14.7801 9.46442C14.5031 9.23338 14.1688 9.08155 13.8125 9.02501ZM2.5 12C2.30222 12 2.10888 11.9414 1.94443 11.8315C1.77998 11.7216 1.65181 11.5654 1.57612 11.3827C1.50043 11.2 1.48063 10.9989 1.51921 10.8049C1.5578 10.6109 1.65304 10.4328 1.79289 10.2929C1.93275 10.1531 2.11093 10.0578 2.30491 10.0192C2.49889 9.98064 2.69996 10.0004 2.88268 10.0761C3.06541 10.1518 3.22159 10.28 3.33147 10.4444C3.44135 10.6089 3.5 10.8022 3.5 11C3.5 11.2652 3.39464 11.5196 3.20711 11.7071C3.01957 11.8947 2.76522 12 2.5 12ZM8 4.00002C8.19778 4.00002 8.39112 4.05866 8.55557 4.16855C8.72002 4.27843 8.84819 4.43461 8.92388 4.61733C8.99957 4.80006 9.01937 5.00112 8.98079 5.19511C8.9422 5.38909 8.84696 5.56727 8.70711 5.70712C8.56725 5.84697 8.38907 5.94222 8.19509 5.9808C8.00111 6.01939 7.80004 5.99958 7.61732 5.9239C7.43459 5.84821 7.27841 5.72003 7.16853 5.55559C7.05865 5.39114 7 5.1978 7 5.00002C7 4.7348 7.10536 4.48045 7.29289 4.29291C7.48043 4.10537 7.73478 4.00002 8 4.00002ZM13.5 12C13.3022 12 13.1089 11.9414 12.9444 11.8315C12.78 11.7216 12.6518 11.5654 12.5761 11.3827C12.5004 11.2 12.4806 10.9989 12.5192 10.8049C12.5578 10.6109 12.653 10.4328 12.7929 10.2929C12.9327 10.1531 13.1109 10.0578 13.3049 10.0192C13.4989 9.98064 13.7 10.0004 13.8827 10.0761C14.0654 10.1518 14.2216 10.28 14.3315 10.4444C14.4414 10.6089 14.5 10.8022 14.5 11C14.5 11.2652 14.3946 11.5196 14.2071 11.7071C14.0196 11.8947 13.7652 12 13.5 12Z" fill="black"/>
</g>
<defs>
<clipPath id="clip0_5_1198">
<rect width="16" height="16" fill="white"/>
</clipPath>
</defs>
</svg>
