<svg width="16" height="16" viewBox="0 0 16 16" fill="none" xmlns="http://www.w3.org/2000/svg">
<g clip-path="url(#clip0_5_1517)">
<path d="M3.40369 10.2944L5.14557 7.90625C5.67047 8.44505 5.97381 9.16138 5.99547 9.91329C6.01713 10.6652 5.75553 11.3978 5.26252 11.9659C4.7695 12.534 4.08105 12.8962 3.33359 12.9807C2.58613 13.0652 1.83422 12.8658 1.22685 12.422C0.619483 11.9782 0.200991 11.3225 0.0543052 10.5847C-0.0923801 9.84691 0.0434468 9.08095 0.434869 8.4386C0.826292 7.79625 1.44474 7.32438 2.16767 7.1165C2.89059 6.90863 3.66523 6.97992 4.33807 7.31625L2.59619 9.70562C2.55466 9.75844 2.52421 9.81909 2.50664 9.88394C2.48907 9.94879 2.48476 10.0165 2.49395 10.0831C2.50315 10.1496 2.52566 10.2137 2.56015 10.2713C2.59463 10.329 2.64039 10.3791 2.69468 10.4187C2.74897 10.4583 2.81068 10.4865 2.87613 10.5017C2.94158 10.5169 3.00941 10.5188 3.07559 10.5072C3.14177 10.4955 3.20493 10.4707 3.26131 10.4342C3.31768 10.3976 3.3661 10.3501 3.40369 10.2944ZM12.9999 7C12.6385 6.99984 12.2799 7.06528 11.9418 7.19312L13.4318 9.75C13.4697 9.80685 13.4955 9.87085 13.5077 9.93806C13.5198 10.0053 13.5181 10.0743 13.5026 10.1408C13.487 10.2073 13.4581 10.2699 13.4174 10.3248C13.3767 10.3797 13.3253 10.4257 13.2661 10.4599C13.207 10.4941 13.1415 10.5158 13.0737 10.5238C13.0059 10.5317 12.9371 10.5256 12.8717 10.506C12.8063 10.4863 12.7456 10.4535 12.6934 10.4094C12.6412 10.3654 12.5985 10.3111 12.5681 10.25L11.0787 7.69625C10.5368 8.14829 10.1716 8.7769 10.0472 9.47156C9.92294 10.1662 10.0475 10.8825 10.399 11.4944C10.7506 12.1063 11.3066 12.5747 11.9693 12.8173C12.632 13.0598 13.359 13.0609 14.0225 12.8205C14.686 12.5801 15.2434 12.1134 15.5969 11.5026C15.9504 10.8918 16.0772 10.176 15.9551 9.48092C15.833 8.78586 15.4698 8.1561 14.9293 7.70235C14.3888 7.2486 13.7056 6.99991 12.9999 7ZM10.3706 4.5H11.9999C12.1325 4.5 12.2597 4.55268 12.3535 4.64645C12.4473 4.74021 12.4999 4.86739 12.4999 5C12.4999 5.13261 12.5526 5.25979 12.6464 5.35355C12.7402 5.44732 12.8673 5.5 12.9999 5.5C13.1325 5.5 13.2597 5.44732 13.3535 5.35355C13.4473 5.25979 13.4999 5.13261 13.4999 5C13.4999 4.60218 13.3419 4.22064 13.0606 3.93934C12.7793 3.65804 12.3978 3.5 11.9999 3.5H9.49994C9.41227 3.5002 9.32619 3.52345 9.25034 3.56741C9.17449 3.61138 9.11153 3.67452 9.06778 3.75049C9.02403 3.82647 9.00103 3.91261 9.00108 4.00028C9.00113 4.08796 9.02423 4.17407 9.06807 4.25L9.79619 5.5H6.20369L5.18182 3.75C5.13803 3.67416 5.07509 3.61115 4.9993 3.56727C4.9235 3.5234 4.83752 3.5002 4.74994 3.5H2.99994C2.86733 3.5 2.74016 3.55268 2.64639 3.64645C2.55262 3.74021 2.49994 3.86739 2.49994 4C2.49994 4.13261 2.55262 4.25979 2.64639 4.35355C2.74016 4.44732 2.86733 4.5 2.99994 4.5H4.46307L5.31994 5.96938L4.33807 7.31625C4.63843 7.46622 4.91141 7.66567 5.14557 7.90625L5.86994 6.9125L7.81807 10.25C7.84851 10.3111 7.89116 10.3654 7.94338 10.4094C7.9956 10.4535 8.05629 10.4863 8.1217 10.506C8.18711 10.5256 8.25586 10.5317 8.3237 10.5238C8.39154 10.5158 8.45704 10.4941 8.51615 10.4599C8.57526 10.4257 8.62674 10.3797 8.6674 10.3248C8.70806 10.2699 8.73705 10.2073 8.75257 10.1408C8.7681 10.0743 8.76982 10.0053 8.75766 9.93806C8.74549 9.87085 8.71968 9.80685 8.68182 9.75L6.78682 6.5H10.3793L11.0787 7.69812C11.3362 7.48279 11.6279 7.3121 11.9418 7.19312L10.3706 4.5Z" fill="black"/>
</g>
<defs>
<clipPath id="clip0_5_1517">
<rect width="16" height="16" fill="white"/>
</clipPath>
</defs>
</svg>
