<svg width="16" height="16" viewBox="0 0 16 16" fill="none" xmlns="http://www.w3.org/2000/svg">
<g clip-path="url(#clip0_5_1706)">
<path d="M10.5 10.5C10.5 10.7969 10.4306 11.0725 10.3094 11.2569C10.2656 11.3328 10.2022 11.3955 10.1257 11.4383C10.0492 11.4811 9.9626 11.5024 9.875 11.5C9.2675 11.5 9.25 10.6025 9.25 10.5C9.25 10.2037 9.31938 9.9275 9.44063 9.74312C9.48435 9.66718 9.54782 9.60448 9.62429 9.56167C9.70077 9.51887 9.7874 9.49756 9.875 9.5C10.4825 9.5 10.5 10.3975 10.5 10.5ZM14 3V13C14 13.2652 13.8946 13.5196 13.7071 13.7071C13.5196 13.8946 13.2652 14 13 14H3C2.73478 14 2.48043 13.8946 2.29289 13.7071C2.10536 13.5196 2 13.2652 2 13V3C2 2.73478 2.10536 2.48043 2.29289 2.29289C2.48043 2.10536 2.73478 2 3 2H13C13.2652 2 13.5196 2.10536 13.7071 2.29289C13.8946 2.48043 14 2.73478 14 3ZM8.8025 4.72375C8.83185 4.78255 8.8725 4.83498 8.92214 4.87805C8.97177 4.92112 9.0294 4.95399 9.09174 4.97477C9.15409 4.99555 9.21991 5.00384 9.28546 4.99916C9.35101 4.99448 9.41499 4.97693 9.47375 4.9475L9.75 4.80875V7C9.75 7.13261 9.80268 7.25979 9.89645 7.35355C9.99021 7.44732 10.1174 7.5 10.25 7.5C10.3826 7.5 10.5098 7.44732 10.6036 7.35355C10.6973 7.25979 10.75 7.13261 10.75 7V4C10.7501 3.91473 10.7283 3.83086 10.6868 3.75636C10.6453 3.68186 10.5855 3.61921 10.5129 3.57437C10.4404 3.52952 10.3576 3.50397 10.2724 3.50015C10.1873 3.49632 10.1025 3.51434 10.0262 3.5525L9.02625 4.0525C8.96745 4.08185 8.91502 4.1225 8.87195 4.17213C8.82888 4.22177 8.79601 4.2794 8.77523 4.34174C8.75445 4.40409 8.74616 4.46991 8.75084 4.53546C8.75552 4.60101 8.77307 4.66499 8.8025 4.72375ZM7 9C7.00006 8.91473 6.97831 8.83086 6.93682 8.75636C6.89533 8.68186 6.83548 8.61921 6.76295 8.57437C6.69042 8.52952 6.60763 8.50397 6.52244 8.50015C6.43726 8.49632 6.35251 8.51434 6.27625 8.5525L5.27625 9.0525C5.15757 9.11184 5.06732 9.2159 5.02535 9.34178C4.98339 9.46767 4.99316 9.60507 5.0525 9.72375C5.11184 9.84243 5.2159 9.93268 5.34178 9.97465C5.46767 10.0166 5.60507 10.0068 5.72375 9.9475L6 9.80875V12C6 12.1326 6.05268 12.2598 6.14645 12.3536C6.24021 12.4473 6.36739 12.5 6.5 12.5C6.63261 12.5 6.75979 12.4473 6.85355 12.3536C6.94732 12.2598 7 12.1326 7 12V9ZM8 5.5C8 4.3225 7.33187 3.5 6.375 3.5C5.41812 3.5 4.75 4.3225 4.75 5.5C4.75 6.6775 5.41812 7.5 6.375 7.5C7.33187 7.5 8 6.6775 8 5.5ZM11.5 10.5C11.5 9.3225 10.8319 8.5 9.875 8.5C8.91813 8.5 8.25 9.3225 8.25 10.5C8.25 11.6775 8.91813 12.5 9.875 12.5C10.8319 12.5 11.5 11.6775 11.5 10.5ZM6.375 4.5C6.28687 4.49699 6.19959 4.51803 6.12252 4.56086C6.04544 4.60369 5.98148 4.6667 5.9375 4.74312C5.81625 4.93062 5.75 5.20375 5.75 5.5C5.75 5.6025 5.7675 6.5 6.375 6.5C6.46313 6.50301 6.55041 6.48197 6.62748 6.43914C6.70456 6.39631 6.76852 6.3333 6.8125 6.25688C6.93375 6.06938 7 5.79688 7 5.5C7 5.3975 6.9825 4.5 6.375 4.5Z" fill="black"/>
</g>
<defs>
<clipPath id="clip0_5_1706">
<rect width="16" height="16" fill="white"/>
</clipPath>
</defs>
</svg>
