<svg width="16" height="16" viewBox="0 0 16 16" fill="none" xmlns="http://www.w3.org/2000/svg">
<g clip-path="url(#clip0_5_1639)">
<path d="M14.8262 9.49375V9.4875C14.8251 9.48281 14.8237 9.47821 14.8218 9.47375C14.7804 9.36056 14.7321 9.24995 14.6775 9.1425L12.0793 3.2375C12.0543 3.18062 12.0189 3.12891 11.975 3.085C11.7892 2.89924 11.5687 2.75188 11.3261 2.65134C11.0834 2.5508 10.8233 2.49905 10.5606 2.49905C10.2979 2.49905 10.0378 2.5508 9.79512 2.65134C9.55244 2.75188 9.33194 2.89924 9.14622 3.085C9.05278 3.17854 9.0002 3.30529 8.99997 3.4375V5H6.99997V3.4375C7.00002 3.37182 6.98713 3.30677 6.96204 3.24608C6.93694 3.18538 6.90014 3.13022 6.85372 3.08375C6.668 2.89799 6.4475 2.75063 6.20482 2.65009C5.96214 2.54955 5.70203 2.4978 5.43935 2.4978C5.17666 2.4978 4.91655 2.54955 4.67387 2.65009C4.43119 2.75063 4.21069 2.89799 4.02497 3.08375C3.98101 3.12766 3.94561 3.17937 3.9206 3.23625L1.32497 9.1425C1.2703 9.24995 1.22209 9.36056 1.1806 9.47375C1.17886 9.47803 1.1774 9.48241 1.17622 9.48688C1.17622 9.48688 1.17622 9.49188 1.17622 9.49375C0.918089 10.2396 0.964271 11.0571 1.30476 11.7691C1.64525 12.4812 2.25261 13.0303 2.99522 13.2976C3.73783 13.5649 4.55586 13.5288 5.27202 13.1971C5.98819 12.8654 6.5448 12.2649 6.82122 11.5256C6.94293 11.1936 7.00431 10.8424 7.00247 10.4888V6H9.00247V10.4894C9.00063 10.843 9.06201 11.1942 9.18372 11.5263C9.46014 12.2655 10.0167 12.8661 10.7329 13.1978C11.4491 13.5295 12.2671 13.5656 13.0097 13.2983C13.7523 13.031 14.3597 12.4818 14.7002 11.7698C15.0407 11.0577 15.0869 10.2402 14.8287 9.49438L14.8262 9.49375ZM5.87935 11.1813C5.69471 11.6739 5.32339 12.074 4.84584 12.2947C4.36829 12.5155 3.82298 12.5392 3.32806 12.3608C2.83314 12.1823 2.42849 11.816 2.20177 11.3412C1.97506 10.8665 1.94454 10.3215 2.11685 9.82438L2.22997 9.56625C2.43789 9.17103 2.77211 8.85676 3.17936 8.67353C3.58662 8.49029 4.04348 8.44863 4.47716 8.55518C4.91085 8.66173 5.29639 8.91037 5.57237 9.26146C5.84834 9.61256 5.99887 10.0459 5.99997 10.4925V10.5C5.99993 10.7332 5.95911 10.9646 5.87935 11.1838V11.1813ZM12.6875 12.3794C12.3851 12.49 12.0606 12.5261 11.7413 12.4845C11.4221 12.4428 11.1176 12.3248 10.8538 12.1403C10.59 11.9558 10.3746 11.7103 10.2259 11.4247C10.0773 11.1392 9.99977 10.8219 9.99997 10.5V10.4931C10.0016 10.0468 10.1525 9.61378 10.4287 9.26311C10.7049 8.91243 11.0904 8.66422 11.524 8.55799C11.9575 8.45177 12.4141 8.49362 12.8211 8.6769C13.2282 8.86017 13.5622 9.17434 13.77 9.56938L13.8831 9.8275C14.0609 10.3245 14.035 10.8717 13.8111 11.3498C13.5871 11.8278 13.1832 12.1979 12.6875 12.3794Z" fill="black"/>
</g>
<defs>
<clipPath id="clip0_5_1639">
<rect width="16" height="16" fill="white"/>
</clipPath>
</defs>
</svg>
