<svg width="16" height="16" viewBox="0 0 16 16" fill="none" xmlns="http://www.w3.org/2000/svg">
<g clip-path="url(#clip0_5_1485)">
<path d="M14.9892 9.97374C14.9229 9.09092 14.5468 8.25992 13.9273 7.62742C13.3078 6.99492 12.4849 6.6016 11.6036 6.51687C11.5471 6.39727 11.4846 6.28065 11.4161 6.16749C11.8125 5.29527 11.8597 4.30431 11.5479 3.39838C11.2361 2.49245 10.5891 1.7404 9.73985 1.29687L9.7311 1.29187C9.70815 1.28007 9.68433 1.27004 9.65985 1.26187C9.54054 1.22235 9.41073 1.22922 9.29626 1.2811C9.18178 1.33298 9.09104 1.42606 9.04211 1.54182C8.99317 1.65759 8.98962 1.78753 9.03217 1.90579C9.07473 2.02405 9.16025 2.12195 9.27173 2.17999H9.2761C9.34985 2.22312 10.4999 2.85812 10.4999 4.24999C10.5001 4.51602 10.4579 4.78039 10.3749 5.03312C9.68769 4.52397 8.85509 4.24913 7.99985 4.24913C7.14461 4.24913 6.31202 4.52397 5.62485 5.03312C5.54178 4.78039 5.49959 4.51602 5.49985 4.24999C5.49985 2.85312 6.65798 2.21812 6.72798 2.18124C6.84369 2.11929 6.93039 2.01432 6.96939 1.88899C7.00838 1.76366 6.99653 1.62803 6.93639 1.51136C6.87625 1.3947 6.77265 1.30636 6.64795 1.26541C6.52325 1.22446 6.38744 1.23419 6.26985 1.29249L6.26048 1.29749C5.41049 1.74143 4.76286 2.49413 4.45074 3.40086C4.13862 4.30758 4.18572 5.29942 4.58235 6.17249C4.5136 6.28499 4.44985 6.40124 4.39485 6.52062C3.51382 6.60589 2.69118 6.9995 2.07201 7.63205C1.45284 8.2646 1.07689 9.09546 1.01048 9.97812C1.00066 10.0793 0.997739 10.181 1.00173 10.2825C1.01253 10.4102 1.07193 10.5288 1.16766 10.6139C1.2634 10.6991 1.38817 10.7442 1.51622 10.7401C1.64427 10.7359 1.76583 10.6827 1.85582 10.5915C1.94582 10.5003 1.99737 10.3781 1.99985 10.25C1.99985 10.165 2.00423 10.0806 2.01173 9.99999C2.05735 9.60937 2.26548 8.80749 3.17673 8.28187C3.43404 8.13273 3.716 8.03092 4.00923 7.98124C4.00298 8.07062 3.99923 8.16124 3.99923 8.25249C4.00002 9.03753 4.23147 9.80503 4.66483 10.4596C5.09819 11.1142 5.71434 11.627 6.43673 11.9344C6.23298 12.2101 5.97445 12.4408 5.67735 12.6119C4.48548 13.2994 3.37235 12.6344 3.27798 12.5756L3.27048 12.5706C3.15926 12.5004 3.02486 12.4768 2.89638 12.505C2.7679 12.5332 2.6557 12.6108 2.58409 12.7212C2.51248 12.8315 2.48723 12.9656 2.51381 13.0944C2.5404 13.2232 2.61667 13.3364 2.7261 13.4094L2.7411 13.4187C3.15765 13.6832 3.62233 13.8627 4.10846 13.9471C4.59459 14.0315 5.09259 14.019 5.57389 13.9104C6.05519 13.8018 6.5103 13.5993 6.9131 13.3143C7.3159 13.0294 7.65845 12.6677 7.9211 12.25C7.94735 12.25 7.97298 12.25 7.99923 12.25C8.02548 12.25 8.05173 12.25 8.0786 12.25C8.34159 12.6674 8.68435 13.0288 9.08724 13.3135C9.49014 13.5982 9.94525 13.8006 10.4265 13.9091C10.9078 14.0176 11.4057 14.0301 11.8918 13.9459C12.3779 13.8616 12.8426 13.6823 13.2592 13.4181L13.2736 13.4087C13.383 13.3358 13.4593 13.2226 13.4859 13.0938C13.5125 12.965 13.4872 12.8309 13.4156 12.7205C13.344 12.6102 13.2318 12.5325 13.1033 12.5044C12.9748 12.4762 12.8404 12.4998 12.7292 12.57L12.7217 12.575C12.6274 12.6337 11.5142 13.2994 10.3224 12.6112C10.0248 12.4394 9.76606 12.2079 9.56235 11.9312C10.2846 11.624 10.9007 11.1112 11.3341 10.4568C11.7674 9.80229 11.9989 9.03493 11.9999 8.24999C11.9999 8.15874 11.9955 8.06874 11.9899 7.97937C12.2833 8.02879 12.5654 8.13039 12.823 8.27937C13.7274 8.80124 13.9392 9.59562 13.9874 9.98687C13.9955 10.0737 13.9999 10.1612 13.9999 10.25C13.998 10.3157 14.009 10.381 14.0324 10.4424C14.0558 10.5038 14.091 10.56 14.1361 10.6078C14.1812 10.6555 14.2353 10.6939 14.2952 10.7208C14.3552 10.7477 14.4198 10.7625 14.4855 10.7644C14.5511 10.7663 14.6165 10.7552 14.6779 10.7318C14.7393 10.7084 14.7955 10.6732 14.8432 10.6281C14.891 10.583 14.9294 10.5289 14.9563 10.469C14.9832 10.409 14.998 10.3444 14.9999 10.2787C15.0032 10.177 14.9997 10.0751 14.9892 9.97374ZM6.85798 11.0237C6.3087 10.7969 5.839 10.4124 5.50827 9.91866C5.17753 9.42494 5.0006 8.84425 4.99985 8.24999C4.99985 8.17062 5.00423 8.09187 5.01048 8.01374L5.07298 8.02937C5.70158 8.19809 6.2396 8.6053 6.57269 9.16446C6.90578 9.72362 7.00768 10.3906 6.85673 11.0237H6.85798ZM7.99985 8.38187L7.99298 8.36999H8.00673L7.99985 8.38187ZM7.99985 6.74999C7.64609 6.75014 7.29635 6.67504 6.97383 6.52968C6.65132 6.38432 6.36341 6.17202 6.12923 5.90687C6.65974 5.48165 7.31933 5.24993 7.99923 5.24993C8.67912 5.24993 9.33871 5.48165 9.86923 5.90687C9.63526 6.17195 9.34757 6.38422 9.02526 6.52959C8.70296 6.67495 8.35342 6.75009 7.99985 6.74999ZM9.14297 11.0231C9.06642 10.7043 9.05348 10.3736 9.1049 10.0498C9.15632 9.72596 9.27108 9.41547 9.44262 9.13607C9.61417 8.85667 9.83912 8.61384 10.1046 8.42147C10.3701 8.2291 10.6709 8.09098 10.9899 8.01499C10.9961 8.09249 10.9999 8.17062 10.9999 8.24999C10.9991 8.84409 10.8223 9.42463 10.4916 9.91823C10.161 10.4118 9.69146 10.7963 9.14235 11.0231H9.14297Z" fill="black"/>
</g>
<defs>
<clipPath id="clip0_5_1485">
<rect width="16" height="16" fill="white"/>
</clipPath>
</defs>
</svg>
