<svg width="16" height="16" viewBox="0 0 16 16" fill="none" xmlns="http://www.w3.org/2000/svg">
<g clip-path="url(#clip0_5_1487)">
<path d="M14.7775 4.58375L13.3256 3.61625C13.0848 2.85692 12.6084 2.19401 11.9655 1.72361C11.3226 1.25321 10.5466 0.999763 9.74997 1H9.73185C7.67435 1.01 5.99997 2.71688 5.99997 4.80563V6.03937L0.726847 12.3675L0.720597 12.375C0.602913 12.522 0.52912 12.6992 0.507708 12.8863C0.486296 13.0734 0.518136 13.2627 0.599563 13.4325C0.68099 13.6022 0.808697 13.7456 0.967987 13.846C1.12728 13.9464 1.31168 13.9998 1.49997 14H6.99997C8.72332 13.9982 10.3756 13.3128 11.5942 12.0942C12.8127 10.8756 13.4982 9.22335 13.5 7.5V6.2675L14.7775 5.41625C14.8461 5.37061 14.9023 5.30873 14.9412 5.23611C14.9801 5.16349 15.0005 5.08238 15.0005 5C15.0005 4.91762 14.9801 4.83651 14.9412 4.76389C14.9023 4.69127 14.8461 4.62939 14.7775 4.58375ZM7.88435 8.32L4.13435 12.82C4.0928 12.8719 4.04131 12.915 3.98291 12.9468C3.9245 12.9785 3.86035 12.9983 3.7942 13.005C3.72805 13.0117 3.66123 13.0051 3.59766 12.9856C3.53408 12.9662 3.47503 12.9342 3.42395 12.8917C3.37287 12.8491 3.33079 12.7968 3.30018 12.7378C3.26956 12.6788 3.25103 12.6142 3.24565 12.548C3.24027 12.4817 3.24817 12.415 3.26887 12.3518C3.28958 12.2887 3.32267 12.2302 3.36622 12.18L7.11622 7.68C7.15777 7.6281 7.20926 7.585 7.26766 7.55324C7.32607 7.52147 7.39022 7.50167 7.45637 7.495C7.52252 7.48832 7.58934 7.49491 7.65291 7.51437C7.71649 7.53383 7.77554 7.56578 7.82662 7.60834C7.8777 7.6509 7.91978 7.70321 7.95039 7.76223C7.98101 7.82125 7.99954 7.88578 8.00492 7.95205C8.0103 8.01831 8.0024 8.08499 7.9817 8.14817C7.96099 8.21135 7.9279 8.26976 7.88435 8.32ZM10.25 5C10.1016 5 9.95663 4.95601 9.83329 4.8736C9.70996 4.79119 9.61383 4.67406 9.55706 4.53701C9.5003 4.39997 9.48544 4.24917 9.51438 4.10368C9.54332 3.9582 9.61475 3.82456 9.71964 3.71967C9.82453 3.61478 9.95817 3.54335 10.1037 3.51441C10.2491 3.48547 10.3999 3.50032 10.537 3.55709C10.674 3.61386 10.7912 3.70999 10.8736 3.83332C10.956 3.95666 11 4.10166 11 4.25C11 4.44891 10.921 4.63968 10.7803 4.78033C10.6396 4.92098 10.4489 5 10.25 5Z" fill="black"/>
</g>
<defs>
<clipPath id="clip0_5_1487">
<rect width="16" height="16" fill="white"/>
</clipPath>
</defs>
</svg>
