<svg width="16" height="16" viewBox="0 0 16 16" fill="none" xmlns="http://www.w3.org/2000/svg">
<g clip-path="url(#clip0_5_1615)">
<path d="M12.5 11C12.5 11.0776 12.4819 11.1542 12.4472 11.2236C12.4125 11.293 12.3621 11.3534 12.3 11.4L8.3 14.4C8.21345 14.4649 8.10819 14.5 8 14.5C7.86739 14.5 7.74022 14.4473 7.64645 14.3536C7.55268 14.2598 7.5 14.1326 7.5 14V9L4.3 11.4C4.19392 11.4796 4.06057 11.5137 3.92929 11.495C3.79802 11.4762 3.67957 11.4061 3.6 11.3C3.52044 11.1939 3.48627 11.0606 3.50503 10.9293C3.52378 10.798 3.59392 10.6796 3.7 10.6L7.16688 8L3.7 5.4C3.59392 5.32044 3.52378 5.20199 3.50503 5.07071C3.48627 4.93944 3.52044 4.80609 3.6 4.7C3.67957 4.59391 3.79802 4.52378 3.92929 4.50503C4.06057 4.48627 4.19392 4.52044 4.3 4.6L7.5 7V2C7.5 1.90714 7.52586 1.81612 7.57468 1.73713C7.62349 1.65815 7.69334 1.59431 7.7764 1.55279C7.85945 1.51126 7.95242 1.49368 8.04491 1.50202C8.13739 1.51036 8.22572 1.54429 8.3 1.6L12.3 4.6C12.3621 4.64657 12.4125 4.70697 12.4472 4.77639C12.4819 4.84582 12.5 4.92238 12.5 5C12.5 5.07762 12.4819 5.15418 12.4472 5.22361C12.4125 5.29303 12.3621 5.35343 12.3 5.4L8.83313 8L12.3 10.6C12.3621 10.6466 12.4125 10.707 12.4472 10.7764C12.4819 10.8458 12.5 10.9224 12.5 11Z" fill="black"/>
</g>
<defs>
<clipPath id="clip0_5_1615">
<rect width="16" height="16" fill="white"/>
</clipPath>
</defs>
</svg>
