<svg width="16" height="16" viewBox="0 0 16 16" fill="none" xmlns="http://www.w3.org/2000/svg">
<g clip-path="url(#clip0_5_1501)">
<path d="M11.4999 11C11.4999 11.0776 11.4819 11.1542 11.4472 11.2236C11.4124 11.293 11.362 11.3534 11.2999 11.4L7.29995 14.4C7.2134 14.4649 7.10813 14.5 6.99995 14.5C6.90941 14.5002 6.82055 14.4756 6.74307 14.4287C6.66719 14.3813 6.60486 14.3151 6.56215 14.2364C6.51944 14.1578 6.4978 14.0695 6.49932 13.98V8.99999L3.29745 11.4C3.19191 11.4791 3.05939 11.5133 2.92875 11.4952C2.79811 11.477 2.67993 11.408 2.59995 11.3031C2.5214 11.193 2.48917 11.0565 2.51021 10.9229C2.53125 10.7894 2.60387 10.6694 2.71245 10.5887L6.1662 7.99999L2.7112 5.41062C2.60698 5.3345 2.53536 5.22183 2.51067 5.09516C2.48599 4.96849 2.51006 4.83717 2.57807 4.72749C2.6156 4.67024 2.66448 4.62131 2.72168 4.58372C2.77889 4.54613 2.84321 4.52069 2.91065 4.50897C2.97809 4.49725 3.04722 4.4995 3.11375 4.51559C3.18029 4.53168 3.24281 4.56126 3.29745 4.60249L6.49995 6.99999V2.01499C6.49869 1.94003 6.51388 1.86571 6.54444 1.79725C6.575 1.72879 6.62018 1.66786 6.67682 1.61874C6.76336 1.54504 6.87242 1.50302 6.98603 1.49961C7.09964 1.49621 7.21103 1.53161 7.30182 1.59999L9.40307 3.17499C9.43355 3.1986 9.45815 3.22894 9.47495 3.26363C9.49176 3.29833 9.50031 3.33644 9.49995 3.37499V6.62499C9.49995 6.6638 9.49091 6.70208 9.47355 6.73679C9.4562 6.77151 9.431 6.8017 9.39995 6.82499L7.8337 7.99999L11.3024 10.6C11.3641 10.6468 11.414 10.7073 11.4483 10.7767C11.4826 10.8462 11.5002 10.9226 11.4999 11ZM14.8418 6.13312L13.7106 4.99999L14.8424 3.86812C14.9377 3.77591 14.9935 3.65043 14.9983 3.51796C15.0031 3.38549 14.9564 3.25631 14.8681 3.15749C14.8222 3.10865 14.767 3.06952 14.7057 3.04243C14.6445 3.01535 14.5784 3.00085 14.5114 2.9998C14.4444 2.99875 14.3779 3.01117 14.3158 3.03633C14.2537 3.06148 14.1973 3.09886 14.1499 3.14624L13.0031 4.29312L11.8706 3.16124C11.7837 3.07141 11.6671 3.01628 11.5425 3.00616C11.4179 2.99604 11.2939 3.03161 11.1937 3.10624C11.1375 3.14984 11.0913 3.20491 11.0581 3.2678C11.0249 3.33068 11.0054 3.39993 11.0011 3.47091C10.9968 3.5419 11.0077 3.61299 11.033 3.67943C11.0584 3.74588 11.0976 3.80616 11.1481 3.85624L12.2956 4.99999L11.1612 6.13312C11.069 6.22291 11.0139 6.34413 11.007 6.47267C11 6.6012 11.0417 6.72765 11.1237 6.82687C11.1686 6.87888 11.2238 6.92108 11.2857 6.95082C11.3477 6.98057 11.4151 6.99722 11.4838 6.99974C11.5525 7.00226 11.6209 6.9906 11.6849 6.96548C11.7489 6.94036 11.807 6.90232 11.8556 6.85374L13.0031 5.70687L14.1499 6.85374C14.1986 6.90242 14.2567 6.94055 14.3207 6.96573C14.3848 6.99091 14.4533 7.0026 14.5221 7.00008C14.5908 6.99755 14.6583 6.98087 14.7203 6.95107C14.7823 6.92126 14.8375 6.87898 14.8824 6.82687C14.9642 6.72752 15.0057 6.60105 14.9987 6.47256C14.9916 6.34406 14.9365 6.2229 14.8443 6.13312H14.8418Z" fill="black"/>
</g>
<defs>
<clipPath id="clip0_5_1501">
<rect width="16" height="16" fill="white"/>
</clipPath>
</defs>
</svg>
