<svg width="16" height="16" viewBox="0 0 16 16" fill="none" xmlns="http://www.w3.org/2000/svg">
<g clip-path="url(#clip0_5_1559)">
<path d="M12.5 11C12.5 11.0776 12.4819 11.1542 12.4472 11.2236C12.4125 11.293 12.3621 11.3534 12.3 11.4L8.3 14.4C8.21345 14.4649 8.10819 14.5 8 14.5C7.86739 14.5 7.74022 14.4473 7.64645 14.3536C7.55268 14.2598 7.5 14.1326 7.5 14V9L4.3 11.4C4.19391 11.4796 4.06057 11.5137 3.92929 11.495C3.79801 11.4762 3.67957 11.4061 3.6 11.3C3.52044 11.1939 3.48627 11.0606 3.50503 10.9293C3.52378 10.798 3.59391 10.6796 3.7 10.6L7.16688 8L3.7 5.4C3.59391 5.32044 3.52378 5.20199 3.50503 5.07071C3.48627 4.93944 3.52044 4.80609 3.6 4.7C3.67957 4.59391 3.79801 4.52378 3.92929 4.50503C4.06057 4.48627 4.19391 4.52044 4.3 4.6L7.5 7V2C7.5 1.90714 7.52586 1.81612 7.57468 1.73713C7.62349 1.65815 7.69334 1.59431 7.77639 1.55279C7.85945 1.51126 7.95242 1.49368 8.0449 1.50202C8.13738 1.51036 8.22572 1.54429 8.3 1.6L12.3 4.6C12.3621 4.64657 12.4125 4.70697 12.4472 4.77639C12.4819 4.84582 12.5 4.92238 12.5 5C12.5 5.07762 12.4819 5.15418 12.4472 5.22361C12.4125 5.29303 12.3621 5.35343 12.3 5.4L8.83313 8L12.3 10.6C12.3621 10.6466 12.4125 10.707 12.4472 10.7764C12.4819 10.8458 12.5 10.9224 12.5 11ZM4.5 8C4.5 7.85166 4.45601 7.70666 4.3736 7.58332C4.29119 7.45999 4.17406 7.36386 4.03701 7.30709C3.89997 7.25032 3.74917 7.23547 3.60368 7.26441C3.4582 7.29335 3.32456 7.36478 3.21967 7.46967C3.11478 7.57456 3.04335 7.7082 3.01441 7.85368C2.98547 7.99917 3.00032 8.14997 3.05709 8.28701C3.11386 8.42406 3.20999 8.54119 3.33332 8.6236C3.45666 8.70601 3.60166 8.75 3.75 8.75C3.94891 8.75 4.13968 8.67098 4.28033 8.53033C4.42098 8.38968 4.5 8.19891 4.5 8ZM12.75 7.25C12.6017 7.25 12.4567 7.29399 12.3333 7.3764C12.21 7.45881 12.1139 7.57594 12.0571 7.71299C12.0003 7.85003 11.9855 8.00083 12.0144 8.14632C12.0434 8.2918 12.1148 8.42544 12.2197 8.53033C12.3246 8.63522 12.4582 8.70665 12.6037 8.73559C12.7492 8.76453 12.9 8.74967 13.037 8.69291C13.1741 8.63614 13.2912 8.54001 13.3736 8.41668C13.456 8.29334 13.5 8.14834 13.5 8C13.5 7.80109 13.421 7.61032 13.2803 7.46967C13.1397 7.32902 12.9489 7.25 12.75 7.25Z" fill="black"/>
</g>
<defs>
<clipPath id="clip0_5_1559">
<rect width="16" height="16" fill="white"/>
</clipPath>
</defs>
</svg>
