<svg width="16" height="16" viewBox="0 0 16 16" fill="none" xmlns="http://www.w3.org/2000/svg">
<g clip-path="url(#clip0_5_1493)">
<path d="M13.8361 13.87C13.738 13.9591 13.6085 14.0057 13.476 13.9994C13.3436 13.993 13.2191 13.9344 13.1299 13.8362L11.4768 12.0175L8.29988 14.4C8.22059 14.4594 8.12545 14.4939 8.02653 14.4991C7.9276 14.5043 7.82936 14.48 7.74425 14.4294C7.66821 14.3821 7.60573 14.3158 7.5629 14.2372C7.52007 14.1586 7.49835 14.0701 7.49988 13.9806V8.99998L4.29988 11.4C4.19434 11.4791 4.06182 11.5133 3.93118 11.4952C3.80054 11.477 3.68235 11.408 3.60238 11.3031C3.52389 11.1929 3.49177 11.0564 3.51292 10.9228C3.53408 10.7892 3.60682 10.6692 3.7155 10.5887L7.55737 7.70685L3.12988 2.83623C3.04256 2.73781 2.99756 2.60894 3.00463 2.47756C3.0117 2.34618 3.07026 2.22288 3.16763 2.13439C3.265 2.0459 3.39332 1.99936 3.52478 2.00485C3.65623 2.01034 3.78023 2.06743 3.86987 2.16373L13.8699 13.1637C13.959 13.2619 14.0056 13.3914 13.9993 13.5238C13.9929 13.6563 13.9342 13.7808 13.8361 13.87ZM9.68738 7.07623C9.72923 7.12228 9.78676 7.15107 9.84871 7.15697C9.91066 7.16286 9.97259 7.14544 10.0224 7.1081L12.2999 5.39998C12.362 5.35341 12.4124 5.29301 12.4471 5.22359C12.4818 5.15416 12.4999 5.0776 12.4999 4.99998C12.4999 4.92236 12.4818 4.8458 12.4471 4.77637C12.4124 4.70694 12.362 4.64655 12.2999 4.59998L8.29988 1.59998C8.20915 1.53151 8.09781 1.496 7.98419 1.49929C7.87058 1.50259 7.76148 1.54449 7.67488 1.6181C7.61863 1.66757 7.57384 1.72871 7.54361 1.79725C7.51339 1.86578 7.49847 1.94009 7.49988 2.01498V4.57373C7.4992 4.63557 7.52146 4.69547 7.56238 4.74185L9.68738 7.07623Z" fill="black"/>
</g>
<defs>
<clipPath id="clip0_5_1493">
<rect width="16" height="16" fill="white"/>
</clipPath>
</defs>
</svg>
