<svg width="16" height="16" viewBox="0 0 16 16" fill="none" xmlns="http://www.w3.org/2000/svg">
<g clip-path="url(#clip0_5_1596)">
<path d="M13.8162 6.91187L13 6.63938V3.5C13 3.23478 12.8946 2.98043 12.7071 2.79289C12.5196 2.60536 12.2652 2.5 12 2.5H8.5V1.5C8.5 1.36739 8.44732 1.24021 8.35355 1.14645C8.25979 1.05268 8.13261 1 8 1C7.86739 1 7.74021 1.05268 7.64645 1.14645C7.55268 1.24021 7.5 1.36739 7.5 1.5V2.5H4C3.73478 2.5 3.48043 2.60536 3.29289 2.79289C3.10536 2.98043 3 3.23478 3 3.5V6.63938L2.18375 6.91187C1.98463 6.97825 1.81145 7.1056 1.68873 7.27588C1.56601 7.44616 1.49998 7.65073 1.5 7.86062V9.5C1.5 13.3463 7.61812 14.92 7.87875 14.985C7.95836 15.0049 8.04164 15.0049 8.12125 14.985C8.38188 14.92 14.5 13.3463 14.5 9.5V7.86062C14.5 7.65073 14.434 7.44616 14.3113 7.27588C14.1886 7.1056 14.0154 6.97825 13.8162 6.91187ZM8.5 10.5C8.5 10.6326 8.44732 10.7598 8.35355 10.8536C8.25979 10.9473 8.13261 11 8 11C7.86739 11 7.74021 10.9473 7.64645 10.8536C7.55268 10.7598 7.5 10.6326 7.5 10.5V6.55438C7.5 6.42177 7.55268 6.29459 7.64645 6.20082C7.74021 6.10705 7.86739 6.05438 8 6.05438C8.13261 6.05438 8.25979 6.10705 8.35355 6.20082C8.44732 6.29459 8.5 6.42177 8.5 6.55438V10.5ZM12 6.30625L8.15812 5.02563C8.05548 4.99141 7.94452 4.99141 7.84188 5.02563L4 6.30625V3.5H12V6.30625Z" fill="black"/>
</g>
<defs>
<clipPath id="clip0_5_1596">
<rect width="16" height="16" fill="white"/>
</clipPath>
</defs>
</svg>
