<svg width="16" height="16" viewBox="0 0 16 16" fill="none" xmlns="http://www.w3.org/2000/svg">
<g clip-path="url(#clip0_5_1544)">
<path d="M14.445 6.73248C14.0935 7.13579 13.6094 7.40024 13.0801 7.47816C12.5508 7.55609 12.011 7.44236 11.5582 7.15748C11.5562 7.15671 11.5539 7.15671 11.5519 7.15748L7.15504 11.555C7.15504 11.555 7.15504 11.555 7.15504 11.56C7.33319 11.8469 7.44445 12.1703 7.48056 12.5062C7.51667 12.842 7.47671 13.1816 7.36364 13.4999C7.25057 13.8182 7.06729 14.1069 6.8274 14.3447C6.58751 14.5825 6.29717 14.7632 5.9779 14.8735C5.65864 14.9837 5.31865 15.0207 4.98315 14.9816C4.64765 14.9425 4.32526 14.8284 4.03988 14.6477C3.7545 14.4671 3.51346 14.2245 3.33464 13.9379C3.15582 13.6514 3.04381 13.3282 3.00692 12.9925C2.67117 12.9556 2.34804 12.8436 2.0615 12.6648C1.77495 12.4859 1.53234 12.2449 1.35166 11.9595C1.17098 11.6741 1.05687 11.3518 1.01779 11.0163C0.978718 10.6808 1.01568 10.3408 1.12593 10.0215C1.23618 9.70224 1.4169 9.41189 1.65468 9.172C1.89246 8.93211 2.1812 8.74883 2.49948 8.63576C2.81775 8.52269 3.1574 8.48273 3.49323 8.51884C3.82906 8.55495 4.15245 8.66621 4.43942 8.84436C4.44143 8.84513 4.44365 8.84513 4.44567 8.84436L8.84254 4.44686C8.84254 4.44686 8.84254 4.44686 8.84254 4.44186C8.66439 4.15489 8.55314 3.8315 8.51703 3.49567C8.48092 3.15984 8.52088 2.82019 8.63395 2.50192C8.74702 2.18364 8.93029 1.8949 9.17018 1.65712C9.41007 1.41934 9.70042 1.23863 10.0197 1.12837C10.3389 1.01812 10.6789 0.981159 11.0144 1.02024C11.3499 1.05931 11.6723 1.17342 11.9577 1.3541C12.2431 1.53478 12.4841 1.77739 12.6629 2.06394C12.8418 2.35048 12.9538 2.67361 12.9907 3.00936C13.401 3.05256 13.7916 3.20777 14.1197 3.45804C14.4478 3.7083 14.7008 4.04396 14.8509 4.42832C15.001 4.81267 15.0426 5.23092 14.971 5.6373C14.8994 6.04369 14.7175 6.42256 14.445 6.73248Z" fill="black"/>
</g>
<defs>
<clipPath id="clip0_5_1544">
<rect width="16" height="16" fill="white"/>
</clipPath>
</defs>
</svg>
