<svg width="16" height="16" viewBox="0 0 16 16" fill="none" xmlns="http://www.w3.org/2000/svg">
<g clip-path="url(#clip0_5_1171)">
<path d="M14.4781 12.1594L12.4038 2.29689C12.3769 2.16792 12.3249 2.04552 12.2506 1.93672C12.1763 1.82792 12.0813 1.73487 11.9709 1.66291C11.8606 1.59096 11.7371 1.54151 11.6076 1.51742C11.4781 1.49332 11.3451 1.49506 11.2163 1.52252L8.29062 2.15127C8.03184 2.20793 7.8059 2.36448 7.66194 2.58686C7.51798 2.80924 7.46764 3.07947 7.52187 3.33877L9.59625 13.2013C9.64248 13.4263 9.76477 13.6285 9.94255 13.774C10.1203 13.9194 10.3428 13.9993 10.5725 14C10.6435 13.9999 10.7143 13.9924 10.7837 13.9775L13.7094 13.3488C13.9685 13.292 14.1946 13.1351 14.3386 12.9123C14.4826 12.6896 14.5327 12.419 14.4781 12.1594ZM8.5 3.13439C8.5 3.13064 8.5 3.12877 8.5 3.12877L11.425 2.50377L11.6331 3.49564L8.70813 4.12502L8.5 3.13439ZM9.125 6.09564L8.91562 5.10189L11.8419 4.47314L12.0506 5.46689L9.125 6.09564ZM13.5 12.3713L10.575 12.9963L10.3669 12.0044L13.2919 11.375L13.5 12.3656C13.5 12.3694 13.5 12.3713 13.5 12.3713ZM6.5 2.00002H3.5C3.23478 2.00002 2.98043 2.10537 2.79289 2.29291C2.60536 2.48045 2.5 2.7348 2.5 3.00002V13C2.5 13.2652 2.60536 13.5196 2.79289 13.7071C2.98043 13.8947 3.23478 14 3.5 14H6.5C6.76522 14 7.01957 13.8947 7.20711 13.7071C7.39464 13.5196 7.5 13.2652 7.5 13V3.00002C7.5 2.7348 7.39464 2.48045 7.20711 2.29291C7.01957 2.10537 6.76522 2.00002 6.5 2.00002ZM3.5 3.00002H6.5V4.00002H3.5V3.00002ZM6.5 13H3.5V12H6.5V13Z" fill="black"/>
</g>
<defs>
<clipPath id="clip0_5_1171">
<rect width="16" height="16" fill="white"/>
</clipPath>
</defs>
</svg>
