<svg width="16" height="16" viewBox="0 0 16 16" fill="none" xmlns="http://www.w3.org/2000/svg">
<g clip-path="url(#clip0_5_1187)">
<path d="M15 4.99999V12.5C15 12.6326 14.9473 12.7598 14.8536 12.8535C14.7598 12.9473 14.6326 13 14.5 13H10C9.60282 13 9.22186 13.1575 8.94066 13.438C8.65947 13.7185 8.50099 14.0991 8.5 14.4962C8.502 14.5983 8.4723 14.6985 8.41499 14.783C8.35768 14.8675 8.27558 14.9322 8.18 14.9681C8.10412 14.9974 8.02225 15.0077 7.94147 14.9982C7.8607 14.9887 7.78347 14.9596 7.71648 14.9135C7.64948 14.8674 7.59475 14.8056 7.55703 14.7335C7.51931 14.6615 7.49973 14.5813 7.5 14.5C7.5 14.1022 7.34196 13.7206 7.06066 13.4393C6.77936 13.158 6.39782 13 6 13H1.5C1.36739 13 1.24021 12.9473 1.14645 12.8535C1.05268 12.7598 1 12.6326 1 12.5V4.99999C1 4.86738 1.05268 4.7402 1.14645 4.64643C1.24021 4.55267 1.36739 4.49999 1.5 4.49999H5.5C6.03043 4.49999 6.53914 4.7107 6.91421 5.08577C7.28929 5.46085 7.5 5.96955 7.5 6.49999V10.4831C7.49826 10.6121 7.54545 10.7371 7.63206 10.8327C7.71868 10.9284 7.8383 10.9877 7.96688 10.9987C8.03527 11.0033 8.10387 10.9937 8.1684 10.9706C8.23294 10.9475 8.29205 10.9114 8.34204 10.8645C8.39204 10.8176 8.43186 10.761 8.45903 10.6981C8.48621 10.6351 8.50015 10.5673 8.5 10.4987V6.49999C8.5 5.96955 8.71071 5.46085 9.08579 5.08577C9.46086 4.7107 9.96957 4.49999 10.5 4.49999H14.5C14.6326 4.49999 14.7598 4.55267 14.8536 4.64643C14.9473 4.7402 15 4.86738 15 4.99999ZM5.55062 3.49999H5.5625C5.99373 3.50855 6.41801 3.61016 6.80634 3.79785C7.19468 3.98554 7.53789 4.2549 7.8125 4.58749C7.83597 4.61493 7.86511 4.63697 7.89791 4.65207C7.93071 4.66718 7.96639 4.67501 8.0025 4.67501C8.03861 4.67501 8.07429 4.66718 8.10709 4.65207C8.13989 4.63697 8.16903 4.61493 8.1925 4.58749C8.46657 4.25553 8.80897 3.98655 9.19639 3.79888C9.58381 3.61122 10.0071 3.50927 10.4375 3.49999H10.4494C10.4922 3.49986 10.5343 3.48872 10.5716 3.46764C10.609 3.44655 10.6402 3.41623 10.6624 3.37958C10.6847 3.34293 10.6971 3.30119 10.6985 3.25835C10.6999 3.21552 10.6903 3.17304 10.6706 3.13499C10.419 2.64326 10.0365 2.23055 9.56525 1.94235C9.09402 1.65415 8.55237 1.50165 8 1.50165C7.44763 1.50165 6.90598 1.65415 6.43475 1.94235C5.96352 2.23055 5.58101 2.64326 5.32937 3.13499C5.30966 3.17304 5.30006 3.21552 5.30149 3.25835C5.30293 3.30119 5.31535 3.34293 5.33756 3.37958C5.35978 3.41623 5.39104 3.44655 5.42835 3.46764C5.46566 3.48872 5.50777 3.49986 5.55062 3.49999Z" fill="black"/>
</g>
<defs>
<clipPath id="clip0_5_1187">
<rect width="16" height="16" fill="white"/>
</clipPath>
</defs>
</svg>
