<svg width="16" height="16" viewBox="0 0 16 16" fill="none" xmlns="http://www.w3.org/2000/svg">
<g clip-path="url(#clip0_5_1366)">
<path d="M15 3.5V12.5C15 12.6326 14.9473 12.7598 14.8536 12.8536C14.7598 12.9473 14.6326 13 14.5 13H10C9.60282 13 9.22186 13.1575 8.94066 13.438C8.65947 13.7185 8.50099 14.0991 8.5 14.4963C8.502 14.5983 8.4723 14.6985 8.41499 14.783C8.35768 14.8676 8.27558 14.9322 8.18 14.9681C8.10412 14.9974 8.02225 15.0077 7.94147 14.9982C7.8607 14.9887 7.78347 14.9596 7.71648 14.9135C7.64948 14.8674 7.59475 14.8056 7.55703 14.7336C7.51931 14.6615 7.49973 14.5813 7.5 14.5C7.5 14.1022 7.34196 13.7206 7.06066 13.4393C6.77936 13.158 6.39782 13 6 13H1.5C1.36739 13 1.24021 12.9473 1.14645 12.8536C1.05268 12.7598 1 12.6326 1 12.5V3.5C1 3.36739 1.05268 3.24021 1.14645 3.14645C1.24021 3.05268 1.36739 3 1.5 3H5.5C6.03043 3 6.53914 3.21071 6.91421 3.58579C7.28929 3.96086 7.5 4.46957 7.5 5V10.4831C7.49826 10.6122 7.54545 10.7371 7.63206 10.8327C7.71868 10.9284 7.8383 10.9877 7.96688 10.9987C8.03527 11.0033 8.10387 10.9937 8.1684 10.9706C8.23294 10.9475 8.29205 10.9114 8.34204 10.8646C8.39204 10.8177 8.43186 10.761 8.45903 10.6981C8.48621 10.6351 8.50015 10.5673 8.5 10.4987V5C8.5 4.46957 8.71071 3.96086 9.08579 3.58579C9.46086 3.21071 9.96957 3 10.5 3H14.5C14.6326 3 14.7598 3.05268 14.8536 3.14645C14.9473 3.24021 15 3.36739 15 3.5Z" fill="black"/>
</g>
<defs>
<clipPath id="clip0_5_1366">
<rect width="16" height="16" fill="white"/>
</clipPath>
</defs>
</svg>
