<svg width="16" height="16" viewBox="0 0 16 16" fill="none" xmlns="http://www.w3.org/2000/svg">
<g clip-path="url(#clip0_5_1177)">
<path d="M10 3.5H4C3.73478 3.5 3.48043 3.60536 3.29289 3.79289C3.10536 3.98043 3 4.23478 3 4.5V14C3 14.0919 3.02531 14.182 3.07315 14.2604C3.12099 14.3388 3.18952 14.4026 3.27121 14.4446C3.35289 14.4866 3.44459 14.5054 3.53621 14.4987C3.62784 14.492 3.71587 14.4603 3.79063 14.4069L7 12.1144L10.21 14.4069C10.2848 14.4601 10.3727 14.4917 10.4642 14.4983C10.5558 14.5048 10.6474 14.4861 10.7289 14.4441C10.8105 14.4021 10.879 14.3384 10.9268 14.2601C10.9746 14.1817 10.9999 14.0918 11 14V4.5C11 4.23478 10.8946 3.98043 10.7071 3.79289C10.5196 3.60536 10.2652 3.5 10 3.5Z" fill="black"/>
<path d="M12 1.5H5.5C5.36739 1.5 5.24021 1.55268 5.14645 1.64645C5.05268 1.74021 5 1.86739 5 2C5 2.13261 5.05268 2.25979 5.14645 2.35355C5.24021 2.44732 5.36739 2.5 5.5 2.5H12V12C12 12.1326 12.0527 12.2598 12.1464 12.3536C12.2402 12.4473 12.3674 12.5 12.5 12.5C12.6326 12.5 12.7598 12.4473 12.8536 12.3536C12.9473 12.2598 13 12.1326 13 12V2.5C13 2.23478 12.8946 1.98043 12.7071 1.79289C12.5196 1.60536 12.2652 1.5 12 1.5Z" fill="black"/>
</g>
<defs>
<clipPath id="clip0_5_1177">
<rect width="16" height="16" fill="white"/>
</clipPath>
</defs>
</svg>
