<svg width="16" height="16" viewBox="0 0 16 16" fill="none" xmlns="http://www.w3.org/2000/svg">
<g clip-path="url(#clip0_5_1362)">
<path d="M11.5 2H4.5C4.23478 2 3.98043 2.10536 3.79289 2.29289C3.60536 2.48043 3.5 2.73478 3.5 3V14C3.50004 14.0892 3.52397 14.1768 3.56929 14.2537C3.6146 14.3306 3.67967 14.3939 3.75772 14.4371C3.83578 14.4804 3.92399 14.5019 4.01319 14.4996C4.10239 14.4972 4.18933 14.471 4.265 14.4237L8 12.0894L11.7356 14.4237C11.8113 14.4709 11.8982 14.4969 11.9873 14.4992C12.0764 14.5015 12.1645 14.4799 12.2424 14.4367C12.3204 14.3934 12.3854 14.3302 12.4307 14.2534C12.4759 14.1766 12.4999 14.0891 12.5 14V3C12.5 2.73478 12.3946 2.48043 12.2071 2.29289C12.0196 2.10536 11.7652 2 11.5 2Z" fill="black"/>
</g>
<defs>
<clipPath id="clip0_5_1362">
<rect width="16" height="16" fill="white"/>
</clipPath>
</defs>
</svg>
