<svg width="16" height="16" viewBox="0 0 16 16" fill="none" xmlns="http://www.w3.org/2000/svg">
<g clip-path="url(#clip0_5_1170)">
<path d="M12 7.00002H7.01691C6.88788 7.00176 6.76297 6.95458 6.66731 6.86796C6.57165 6.78134 6.51233 6.66172 6.50129 6.53315C6.49675 6.46486 6.50629 6.39637 6.5293 6.33191C6.55231 6.26746 6.5883 6.20841 6.63506 6.15844C6.68182 6.10846 6.73833 6.06861 6.80111 6.04136C6.86389 6.01411 6.9316 6.00004 7.00004 6.00002H9.75004C9.81634 6.00002 9.87993 5.97368 9.92682 5.9268C9.9737 5.87992 10 5.81633 10 5.75002V5.25002C10 5.18372 9.9737 5.12013 9.92682 5.07325C9.87993 5.02636 9.81634 5.00002 9.75004 5.00002H7.01691C6.88766 5.00208 6.76244 4.95504 6.66652 4.86839C6.57059 4.78174 6.5111 4.66194 6.50004 4.53315C6.4955 4.46475 6.50507 4.39616 6.52815 4.33162C6.55124 4.26708 6.58735 4.20798 6.63424 4.15798C6.68113 4.10798 6.7378 4.06816 6.80072 4.04099C6.86365 4.01382 6.93149 3.99987 7.00004 4.00002H9.75004C9.81634 4.00002 9.87993 3.97368 9.92682 3.9268C9.9737 3.87991 10 3.81633 10 3.75002V3.50002C10 3.23481 9.89468 2.98045 9.70714 2.79292C9.51961 2.60538 9.26525 2.50002 9.00004 2.50002H2.01379C1.89951 2.49796 1.78779 2.53403 1.69629 2.60252C1.61054 2.66809 1.54831 2.75966 1.5189 2.86352C1.4895 2.96739 1.4945 3.07798 1.53316 3.17877C2.22441 4.98127 2.08066 8.41065 1.51941 10.3619C1.50653 10.4068 1.50001 10.4533 1.50004 10.5V12.5C1.50004 12.7652 1.60539 13.0196 1.79293 13.2071C1.98047 13.3947 2.23482 13.5 2.50004 13.5H4.13191C4.28726 13.5001 4.44047 13.4639 4.57941 13.3944L5.36816 13H6.38191L7.17066 13.3944C7.3096 13.4639 7.46282 13.5001 7.61816 13.5H9.38191C9.53726 13.5001 9.69048 13.4639 9.82941 13.3944L10.6182 13H11.6319L12.4207 13.3944C12.5596 13.4639 12.7128 13.5001 12.8682 13.5H14.5C14.7653 13.5 15.0196 13.3947 15.2071 13.2071C15.3947 13.0196 15.5 12.7652 15.5 12.5V10.5C15.5 9.57176 15.1313 8.68153 14.4749 8.02515C13.8185 7.36877 12.9283 7.00002 12 7.00002ZM14.5 12.5H12.8682L12.0794 12.1056C11.9405 12.0362 11.7873 12 11.6319 12H10.6182C10.4628 12 10.3096 12.0362 10.1707 12.1056L9.38191 12.5H7.61816L6.82941 12.1056C6.69047 12.0362 6.53726 12 6.38191 12H5.36816C5.21282 12 5.0596 12.0362 4.92066 12.1056L4.13191 12.5H2.50004V11H14.5V12.5Z" fill="black"/>
</g>
<defs>
<clipPath id="clip0_5_1170">
<rect width="16" height="16" fill="white"/>
</clipPath>
</defs>
</svg>
