<svg width="16" height="16" viewBox="0 0 16 16" fill="none" xmlns="http://www.w3.org/2000/svg">
<g clip-path="url(#clip0_5_1169)">
<path d="M14.5 8C14.5 11.5394 11.5388 14.5 8 14.5C7.3315 14.5004 6.66697 14.3973 6.03 14.1944C5.98898 14.1815 5.95198 14.1582 5.92259 14.1268C5.8932 14.0953 5.87241 14.0569 5.86223 14.0151C5.85205 13.9733 5.85282 13.9296 5.86447 13.8882C5.87613 13.8468 5.89827 13.8091 5.92875 13.7788L13.7788 5.92813C13.8091 5.89764 13.8468 5.8755 13.8882 5.86385C13.9296 5.8522 13.9733 5.85142 14.0151 5.8616C14.0569 5.87178 14.0953 5.89257 14.1268 5.92197C14.1582 5.95136 14.1815 5.98835 14.1944 6.02938C14.3973 6.66655 14.5004 7.33129 14.5 8ZM13.49 4.52438C13.3729 4.33974 13.2465 4.16117 13.1113 3.98938C13.0893 3.96143 13.0616 3.93849 13.0301 3.92208C12.9986 3.90568 12.9639 3.89618 12.9284 3.89423C12.8929 3.89228 12.8574 3.89792 12.8243 3.91077C12.7912 3.92362 12.7611 3.94338 12.7363 3.96875L3.96875 12.7388C3.94338 12.7636 3.92362 12.7937 3.91077 12.8268C3.89792 12.8599 3.89228 12.8954 3.89423 12.9309C3.89618 12.9664 3.90568 13.0011 3.92208 13.0326C3.93849 13.0641 3.96143 13.0918 3.98938 13.1138C4.16117 13.249 4.33974 13.3754 4.52438 13.4925C4.57247 13.5235 4.62972 13.537 4.68659 13.5309C4.74346 13.5247 4.79651 13.4993 4.83688 13.4588L13.4563 4.83688C13.4968 4.79651 13.5222 4.74346 13.5284 4.68659C13.5345 4.62972 13.521 4.57247 13.49 4.52438ZM12.0106 2.88875C11.8388 2.75351 11.6603 2.6271 11.4756 2.51C11.4275 2.47903 11.3703 2.46548 11.3134 2.47162C11.2565 2.47776 11.2035 2.50322 11.1631 2.54375L2.54375 11.1638C2.50322 11.2041 2.47776 11.2572 2.47162 11.314C2.46548 11.3709 2.47903 11.4282 2.51 11.4763C2.6271 11.6609 2.75351 11.8395 2.88875 12.0113C2.91071 12.0392 2.93838 12.0621 2.96991 12.0785C3.00143 12.0949 3.0361 12.1044 3.07159 12.1064C3.10707 12.1083 3.14257 12.1027 3.17571 12.0899C3.20884 12.077 3.23886 12.0572 3.26375 12.0319L12.0313 3.26125C12.0562 3.23638 12.0756 3.20652 12.0882 3.17363C12.1008 3.14074 12.1063 3.10555 12.1044 3.07038C12.1024 3.03521 12.0931 3.00085 12.0769 2.96955C12.0608 2.93825 12.0382 2.91071 12.0106 2.88875ZM9.97063 1.80563C9.33346 1.60267 8.66871 1.49958 8 1.5C4.46125 1.5 1.5 4.46063 1.5 8C1.4996 8.66871 1.60269 9.33345 1.80563 9.97063C1.81855 10.0117 1.84184 10.0486 1.87325 10.078C1.90465 10.1074 1.94311 10.1282 1.9849 10.1384C2.02669 10.1486 2.0704 10.1478 2.11181 10.1362C2.15321 10.1245 2.19091 10.1024 2.22125 10.0719L10.0719 2.22125C10.1024 2.19091 10.1245 2.15321 10.1362 2.11181C10.1478 2.0704 10.1486 2.02669 10.1384 1.9849C10.1282 1.94311 10.1074 1.90465 10.078 1.87325C10.0486 1.84184 10.0117 1.81855 9.97063 1.80563Z" fill="black"/>
</g>
<defs>
<clipPath id="clip0_5_1169">
<rect width="16" height="16" fill="white"/>
</clipPath>
</defs>
</svg>
