<svg width="16" height="16" viewBox="0 0 16 16" fill="none" xmlns="http://www.w3.org/2000/svg">
<g clip-path="url(#clip0_5_1691)">
<path d="M5.11062 3.43751C5.445 3.02126 5.5275 2.74001 5.49312 2.61626C5.46688 2.52313 5.3425 2.47501 5.34125 2.47501C5.22807 2.43781 5.13189 2.36143 5.07003 2.25961C5.00818 2.15779 4.98471 2.03723 5.00385 1.91965C5.023 1.80206 5.0835 1.69518 5.17446 1.61824C5.26542 1.5413 5.38087 1.49938 5.5 1.50001C5.55043 1.50007 5.60056 1.50765 5.64875 1.52251C5.71125 1.54188 6.26813 1.73063 6.44812 2.32001C6.60187 2.82438 6.41375 3.41063 5.88938 4.06313C5.555 4.47938 5.4725 4.76063 5.50688 4.88438C5.53312 4.97751 5.655 5.02438 5.65625 5.02501C5.76922 5.06214 5.86526 5.13832 5.92713 5.23987C5.98899 5.34143 6.01264 5.46171 5.99383 5.57913C5.97501 5.69654 5.91496 5.80341 5.82445 5.88055C5.73395 5.95768 5.61892 6.00004 5.5 6.00001C5.44957 5.99995 5.39944 5.99236 5.35125 5.97751C5.28875 5.95813 4.73188 5.76938 4.55188 5.18001C4.39813 4.67563 4.58625 4.08938 5.11062 3.43751ZM7.05188 5.18063C7.23187 5.77001 7.78875 5.95876 7.85125 5.97813C7.89947 5.99278 7.9496 6.00015 8 6.00001C8.11892 6.00004 8.23395 5.95768 8.32445 5.88055C8.41496 5.80341 8.47501 5.69654 8.49383 5.57913C8.51264 5.46171 8.489 5.34143 8.42713 5.23987C8.36526 5.13832 8.26922 5.06214 8.15625 5.02501C8.15625 5.02501 8.03125 4.97751 8.00688 4.88438C7.9725 4.75938 8.055 4.47938 8.38937 4.06313C8.91375 3.41063 9.10187 2.82438 8.94812 2.32001C8.76813 1.73063 8.21188 1.54188 8.14875 1.52251C8.10056 1.50765 8.05043 1.50007 8 1.50001C7.8812 1.49983 7.76622 1.54196 7.67566 1.61885C7.5851 1.69573 7.52487 1.80235 7.50577 1.9196C7.48667 2.03686 7.50993 2.15708 7.57141 2.25874C7.63288 2.36039 7.72854 2.43684 7.84125 2.47438C7.84125 2.47438 7.96625 2.52251 7.99312 2.61563C8.0275 2.74063 7.945 3.02063 7.61062 3.43688C7.08625 4.08938 6.89813 4.67563 7.05188 5.18001V5.18063ZM9.55188 5.18063C9.73188 5.77001 10.2887 5.95876 10.3512 5.97813C10.3995 5.99278 10.4496 6.00015 10.5 6.00001C10.6189 6.00004 10.7339 5.95768 10.8245 5.88055C10.915 5.80341 10.975 5.69654 10.9938 5.57913C11.0126 5.46171 10.989 5.34143 10.9271 5.23987C10.8653 5.13832 10.7692 5.06214 10.6562 5.02501C10.6562 5.02501 10.5312 4.97751 10.5069 4.88438C10.4725 4.75938 10.555 4.47938 10.8894 4.06313C11.4137 3.41063 11.6019 2.82438 11.4481 2.32001C11.2681 1.73063 10.7119 1.54188 10.6488 1.52251C10.6006 1.50765 10.5504 1.50007 10.5 1.50001C10.3812 1.49983 10.2662 1.54196 10.1757 1.61885C10.0851 1.69573 10.0249 1.80235 10.0058 1.9196C9.98667 2.03686 10.0099 2.15708 10.0714 2.25874C10.1329 2.36039 10.2285 2.43684 10.3413 2.47438C10.3413 2.47438 10.4663 2.52251 10.4931 2.61563C10.5275 2.74063 10.445 3.02063 10.1106 3.43688C9.58625 4.08938 9.39813 4.67563 9.55188 5.18001V5.18063ZM14 7.00001H2C1.86739 7.00001 1.74021 7.05269 1.64645 7.14645C1.55268 7.24022 1.5 7.3674 1.5 7.50001C1.5022 8.68908 1.82943 9.85493 2.44632 10.8715C3.06321 11.888 3.94627 12.7166 5 13.2675V13.5C5 13.7652 5.10536 14.0196 5.29289 14.2071C5.48043 14.3946 5.73478 14.5 6 14.5H10C10.2652 14.5 10.5196 14.3946 10.7071 14.2071C10.8946 14.0196 11 13.7652 11 13.5V13.2675C12.0537 12.7166 12.9368 11.888 13.5537 10.8715C14.1706 9.85493 14.4978 8.68908 14.5 7.50001C14.5 7.3674 14.4473 7.24022 14.3536 7.14645C14.2598 7.05269 14.1326 7.00001 14 7.00001Z" fill="black"/>
</g>
<defs>
<clipPath id="clip0_5_1691">
<rect width="16" height="16" fill="white"/>
</clipPath>
</defs>
</svg>
