<svg width="16" height="16" viewBox="0 0 16 16" fill="none" xmlns="http://www.w3.org/2000/svg">
<g clip-path="url(#clip0_5_1165)">
<path d="M8 1.5C6.71442 1.5 5.45772 1.88122 4.3888 2.59545C3.31988 3.30968 2.48676 4.32484 1.99479 5.51256C1.50282 6.70028 1.37409 8.00721 1.6249 9.26809C1.8757 10.529 2.49477 11.6872 3.40381 12.5962C4.31285 13.5052 5.47104 14.1243 6.73192 14.3751C7.99279 14.6259 9.29973 14.4972 10.4874 14.0052C11.6752 13.5132 12.6903 12.6801 13.4046 11.6112C14.1188 10.5423 14.5 9.28558 14.5 8C14.4982 6.27665 13.8128 4.62441 12.5942 3.40582C11.3756 2.18722 9.72335 1.50182 8 1.5ZM8.25 8C8.10167 8 7.95666 7.95601 7.83333 7.8736C7.70999 7.79119 7.61386 7.67406 7.55709 7.53701C7.50033 7.39997 7.48548 7.24917 7.51441 7.10368C7.54335 6.9582 7.61478 6.82456 7.71967 6.71967C7.82456 6.61478 7.9582 6.54335 8.10369 6.51441C8.24917 6.48547 8.39997 6.50032 8.53701 6.55709C8.67406 6.61386 8.79119 6.70999 8.8736 6.83332C8.95602 6.95666 9 7.10166 9 7.25C9 7.44891 8.92098 7.63968 8.78033 7.78033C8.63968 7.92098 8.44892 8 8.25 8ZM9.5 5.75C9.5 5.60166 9.54399 5.45666 9.6264 5.33332C9.70881 5.20999 9.82595 5.11386 9.96299 5.05709C10.1 5.00032 10.2508 4.98547 10.3963 5.01441C10.5418 5.04335 10.6754 5.11478 10.7803 5.21967C10.8852 5.32456 10.9567 5.4582 10.9856 5.60368C11.0145 5.74917 10.9997 5.89997 10.9429 6.03701C10.8861 6.17406 10.79 6.29119 10.6667 6.3736C10.5433 6.45601 10.3983 6.5 10.25 6.5C10.0511 6.5 9.86033 6.42098 9.71967 6.28033C9.57902 6.13968 9.5 5.94891 9.5 5.75ZM10.75 9C10.6017 9 10.4567 8.95601 10.3333 8.8736C10.21 8.79119 10.1139 8.67406 10.0571 8.53701C10.0003 8.39997 9.98547 8.24917 10.0144 8.10368C10.0434 7.9582 10.1148 7.82456 10.2197 7.71967C10.3246 7.61478 10.4582 7.54335 10.6037 7.51441C10.7492 7.48547 10.9 7.50032 11.037 7.55709C11.1741 7.61386 11.2912 7.70999 11.3736 7.83332C11.456 7.95666 11.5 8.10166 11.5 8.25C11.5 8.44891 11.421 8.63968 11.2803 8.78033C11.1397 8.92098 10.9489 9 10.75 9Z" fill="black"/>
</g>
<defs>
<clipPath id="clip0_5_1165">
<rect width="16" height="16" fill="white"/>
</clipPath>
</defs>
</svg>
