<svg width="16" height="16" viewBox="0 0 16 16" fill="none" xmlns="http://www.w3.org/2000/svg">
<g clip-path="url(#clip0_5_1698)">
<path d="M14 6.50002H13.4769C13.3512 5.13432 12.7199 3.86482 11.7067 2.94053C10.6935 2.01624 9.37147 1.50385 8 1.50385C6.62853 1.50385 5.30654 2.01624 4.29332 2.94053C3.2801 3.86482 2.64876 5.13432 2.52312 6.50002H2C1.86739 6.50002 1.74021 6.5527 1.64645 6.64647C1.55268 6.74023 1.5 6.86741 1.5 7.00002C1.5022 8.18909 1.82943 9.35494 2.44632 10.3715C3.06321 11.388 3.94627 12.2166 5 12.7675V13C5 13.2652 5.10536 13.5196 5.29289 13.7071C5.48043 13.8947 5.73478 14 6 14H10C10.2652 14 10.5196 13.8947 10.7071 13.7071C10.8946 13.5196 11 13.2652 11 13V12.7675C12.0537 12.2166 12.9368 11.388 13.5537 10.3715C14.1706 9.35494 14.4978 8.18909 14.5 7.00002C14.5 6.86741 14.4473 6.74023 14.3536 6.64647C14.2598 6.5527 14.1326 6.50002 14 6.50002ZM10.8425 3.51439C10.9571 3.60814 11.0669 3.7071 11.1719 3.81127C9.84085 4.27949 8.74094 5.24177 8.1 6.49877H6.25625C6.56875 5.62279 7.14409 4.86465 7.90364 4.32792C8.6632 3.7912 9.56995 3.50206 10.5 3.50002C10.6144 3.50002 10.7287 3.50564 10.8425 3.51439ZM9.2575 6.50002C9.8637 5.59057 10.7808 4.93347 11.8369 4.65189C12.1822 5.21355 12.3988 5.8447 12.4712 6.50002H9.2575ZM8 2.50002C8.40123 2.50029 8.80062 2.55431 9.1875 2.66064C8.24527 2.89438 7.3813 3.37236 6.68267 4.04641C5.98404 4.72046 5.47544 5.56676 5.20813 6.50002H3.52875C3.65278 5.40056 4.17708 4.38519 5.00169 3.64748C5.82631 2.90978 6.89357 2.50134 8 2.50002Z" fill="black"/>
</g>
<defs>
<clipPath id="clip0_5_1698">
<rect width="16" height="16" fill="white"/>
</clipPath>
</defs>
</svg>
