<svg width="16" height="16" viewBox="0 0 16 16" fill="none" xmlns="http://www.w3.org/2000/svg">
<g clip-path="url(#clip0_5_1205)">
<path d="M13.9475 4.27625L12.9475 2.27625C12.9059 2.19318 12.842 2.12333 12.763 2.07454C12.684 2.02574 12.5929 1.99993 12.5 2H3.5C3.40711 1.99993 3.31604 2.02574 3.237 2.07454C3.15795 2.12333 3.09407 2.19318 3.0525 2.27625L2.0525 4.27625C2.01804 4.34581 2.00007 4.42237 2 4.5V13C2 13.2652 2.10536 13.5196 2.29289 13.7071C2.48043 13.8946 2.73478 14 3 14H13C13.2652 14 13.5196 13.8946 13.7071 13.7071C13.8946 13.5196 14 13.2652 14 13V4.5C13.9999 4.42237 13.982 4.34581 13.9475 4.27625ZM10.3538 8.85375C10.3073 8.90024 10.2522 8.93712 10.1915 8.96228C10.1308 8.98744 10.0657 9.00039 10 9.00039C9.93429 9.00039 9.86923 8.98744 9.80853 8.96228C9.74783 8.93712 9.69269 8.90024 9.64625 8.85375L8.5 7.70687V11.5C8.5 11.6326 8.44732 11.7598 8.35355 11.8536C8.25979 11.9473 8.13261 12 8 12C7.86739 12 7.74021 11.9473 7.64645 11.8536C7.55268 11.7598 7.5 11.6326 7.5 11.5V7.70687L6.35375 8.85375C6.3073 8.90021 6.25214 8.93706 6.19145 8.9622C6.13075 8.98734 6.0657 9.00028 6 9.00028C5.9343 9.00028 5.86925 8.98734 5.80855 8.9622C5.74786 8.93706 5.6927 8.90021 5.64625 8.85375C5.59979 8.8073 5.56294 8.75214 5.5378 8.69145C5.51266 8.63075 5.49972 8.5657 5.49972 8.5C5.49972 8.4343 5.51266 8.36925 5.5378 8.30855C5.56294 8.24786 5.59979 8.1927 5.64625 8.14625L7.64625 6.14625C7.69269 6.09976 7.74783 6.06288 7.80853 6.03772C7.86923 6.01256 7.93429 5.99961 8 5.99961C8.06571 5.99961 8.13077 6.01256 8.19147 6.03772C8.25217 6.06288 8.30731 6.09976 8.35375 6.14625L10.3538 8.14625C10.4002 8.19269 10.4371 8.24783 10.4623 8.30853C10.4874 8.36923 10.5004 8.43429 10.5004 8.5C10.5004 8.56571 10.4874 8.63077 10.4623 8.69147C10.4371 8.75217 10.4002 8.80731 10.3538 8.85375ZM3.30875 4L3.80875 3H12.1912L12.6912 4H3.30875Z" fill="black"/>
</g>
<defs>
<clipPath id="clip0_5_1205">
<rect width="16" height="16" fill="white"/>
</clipPath>
</defs>
</svg>
