<svg width="16" height="16" viewBox="0 0 16 16" fill="none" xmlns="http://www.w3.org/2000/svg">
<g clip-path="url(#clip0_5_1679)">
<path d="M10.5 1H7.5C6.57174 1 5.6815 1.36875 5.02513 2.02513C4.36875 2.6815 4 3.57174 4 4.5V6.48313C4.00206 6.61237 3.95502 6.73759 3.86837 6.83352C3.78172 6.92945 3.66192 6.98894 3.53312 7C3.46473 7.00454 3.39614 6.99497 3.3316 6.97189C3.26706 6.9488 3.20795 6.91269 3.15796 6.8658C3.10796 6.81891 3.06814 6.76224 3.04097 6.69931C3.01379 6.63639 2.99985 6.56854 3 6.5V4.91875C2.99997 4.87708 2.98953 4.83608 2.96962 4.79947C2.94971 4.76287 2.92096 4.73182 2.886 4.70915C2.85103 4.68649 2.81096 4.67292 2.76941 4.66968C2.72787 4.66645 2.68618 4.67365 2.64812 4.69063C2.30482 4.85224 2.01458 5.10819 1.81129 5.42857C1.60799 5.74895 1.50002 6.12056 1.5 6.5V8.32438C1.50051 8.55139 1.57758 8.77159 1.71875 8.94938C1.73125 8.96438 1.74437 8.97875 1.75812 8.9925L4 11.2087V13.5C4 13.7652 4.10536 14.0196 4.29289 14.2071C4.48043 14.3946 4.73478 14.5 5 14.5H12C12.2652 14.5 12.5196 14.3946 12.7071 14.2071C12.8946 14.0196 13 13.7652 13 13.5V11.07L13.9613 7.705C13.9869 7.61558 13.9999 7.52302 14 7.43V4.5C14 3.57174 13.6313 2.6815 12.9749 2.02513C12.3185 1.36875 11.4283 1 10.5 1ZM10.7238 11.5525C10.7825 11.5819 10.8349 11.6226 10.878 11.6722C10.921 11.7218 10.9539 11.7795 10.9746 11.8418C10.9954 11.9041 11.0037 11.9699 10.9991 12.0355C10.9944 12.101 10.9769 12.165 10.9475 12.2238C10.9181 12.2825 10.8774 12.3349 10.8278 12.378C10.7782 12.421 10.7205 12.4539 10.6582 12.4746C10.5959 12.4954 10.5301 12.5037 10.4645 12.4991C10.399 12.4944 10.335 12.4769 10.2762 12.4475L8.5 11.5588L6.72375 12.4475C6.66498 12.4769 6.601 12.4944 6.53547 12.4991C6.46993 12.5037 6.40412 12.4954 6.34178 12.4746C6.27945 12.4539 6.22182 12.421 6.17219 12.378C6.12255 12.3349 6.08188 12.2825 6.0525 12.2238C6.02312 12.165 6.0056 12.101 6.00094 12.0355C5.99628 11.9699 6.00458 11.9041 6.02535 11.8418C6.04613 11.7795 6.07898 11.7218 6.12203 11.6722C6.16508 11.6226 6.21748 11.5819 6.27625 11.5525L7.38188 11L6.27625 10.4475C6.21748 10.4181 6.16508 10.3774 6.12203 10.3278C6.07898 10.2782 6.04613 10.2205 6.02535 10.1582C6.00458 10.0959 5.99628 10.0301 6.00094 9.96453C6.0056 9.899 6.02312 9.83502 6.0525 9.77625C6.08188 9.71748 6.12255 9.66508 6.17219 9.62203C6.22182 9.57898 6.27945 9.54613 6.34178 9.52535C6.46767 9.48339 6.60507 9.49316 6.72375 9.5525L8.5 10.4412L10.2762 9.5525C10.335 9.52312 10.399 9.5056 10.4645 9.50094C10.5301 9.49628 10.5959 9.50458 10.6582 9.52535C10.7205 9.54613 10.7782 9.57898 10.8278 9.62203C10.8774 9.66508 10.9181 9.71748 10.9475 9.77625C10.9769 9.83502 10.9944 9.899 10.9991 9.96453C11.0037 10.0301 10.9954 10.0959 10.9746 10.1582C10.9539 10.2205 10.921 10.2782 10.878 10.3278C10.8349 10.3774 10.7825 10.4181 10.7238 10.4475L9.61812 11L10.7238 11.5525Z" fill="black"/>
</g>
<defs>
<clipPath id="clip0_5_1679">
<rect width="16" height="16" fill="white"/>
</clipPath>
</defs>
</svg>
