<svg width="16" height="16" viewBox="0 0 16 16" fill="none" xmlns="http://www.w3.org/2000/svg">
<g clip-path="url(#clip0_5_1161)">
<path d="M13.5 2.5H2.5C2.23478 2.5 1.98043 2.60536 1.79289 2.79289C1.60536 2.98043 1.5 3.23478 1.5 3.5V12.5C1.5 12.7652 1.60536 13.0196 1.79289 13.2071C1.98043 13.3946 2.23478 13.5 2.5 13.5H13.5C13.7652 13.5 14.0196 13.3946 14.2071 13.2071C14.3946 13.0196 14.5 12.7652 14.5 12.5V3.5C14.5 3.23478 14.3946 2.98043 14.2071 2.79289C14.0196 2.60536 13.7652 2.5 13.5 2.5ZM6.4375 11.25C6.5038 11.3656 6.52146 11.5028 6.48659 11.6315C6.45172 11.7601 6.36718 11.8696 6.25156 11.9359C6.13594 12.0022 5.99872 12.0199 5.87008 11.985C5.74145 11.9502 5.63193 11.8656 5.56563 11.75L3.56562 8.25C3.52243 8.17444 3.49971 8.08891 3.49971 8.00187C3.49971 7.91484 3.52243 7.82931 3.56562 7.75375L5.56563 4.25375C5.63143 4.13813 5.74047 4.05339 5.86876 4.01817C5.99705 3.98295 6.13407 4.00013 6.24969 4.06594C6.36531 4.13174 6.45005 4.24078 6.48527 4.36907C6.52049 4.49736 6.50331 4.63438 6.4375 4.75L4.57562 8L6.4375 11.25ZM12.4375 8.25L10.4375 11.75C10.3717 11.8652 10.2628 11.9495 10.1348 11.9845C10.0068 12.0194 9.8702 12.0021 9.755 11.9362C9.6398 11.8704 9.55545 11.7616 9.52052 11.6336C9.4856 11.5056 9.50294 11.369 9.56875 11.2537L11.4275 8.00375L9.56563 4.75C9.53279 4.69275 9.51156 4.6296 9.50314 4.56414C9.49471 4.49869 9.49927 4.43222 9.51653 4.36852C9.5338 4.30483 9.56344 4.24516 9.60377 4.19292C9.64409 4.14068 9.69431 4.09689 9.75156 4.06406C9.80881 4.03123 9.87196 4.01 9.93742 4.00158C10.0029 3.99315 10.0693 3.9977 10.133 4.01497C10.1967 4.03223 10.2564 4.06188 10.3086 4.1022C10.3609 4.14253 10.4047 4.19275 10.4375 4.25L12.4375 7.75C12.4814 7.82601 12.5045 7.91223 12.5045 8C12.5045 8.08777 12.4814 8.17399 12.4375 8.25Z" fill="black"/>
</g>
<defs>
<clipPath id="clip0_5_1161">
<rect width="16" height="16" fill="white"/>
</clipPath>
</defs>
</svg>
