<svg width="16" height="16" viewBox="0 0 16 16" fill="none" xmlns="http://www.w3.org/2000/svg">
<g clip-path="url(#clip0_5_1201)">
<path d="M13.5 2.5H2.5C2.23478 2.5 1.98043 2.60536 1.79289 2.79289C1.60536 2.98043 1.5 3.23478 1.5 3.5V12.5C1.5 12.7652 1.60536 13.0196 1.79289 13.2071C1.98043 13.3946 2.23478 13.5 2.5 13.5H13.5C13.7652 13.5 14.0196 13.3946 14.2071 13.2071C14.3946 13.0196 14.5 12.7652 14.5 12.5V3.5C14.5 3.23478 14.3946 2.98043 14.2071 2.79289C14.0196 2.60536 13.7652 2.5 13.5 2.5ZM5.5 9.74C5.51813 10.6312 5.52563 11 6.5 11C6.63261 11 6.75979 11.0527 6.85355 11.1464C6.94732 11.2402 7 11.3674 7 11.5C7 11.6326 6.94732 11.7598 6.85355 11.8536C6.75979 11.9473 6.63261 12 6.5 12C4.54562 12 4.5175 10.5981 4.5 9.76C4.48187 8.86875 4.47438 8.5 3.5 8.5C3.36739 8.5 3.24021 8.44732 3.14645 8.35355C3.05268 8.25979 3 8.13261 3 8C3 7.86739 3.05268 7.74021 3.14645 7.64645C3.24021 7.55268 3.36739 7.5 3.5 7.5C4.47438 7.5 4.48187 7.13125 4.5 6.24C4.5175 5.40187 4.54562 4 6.5 4C6.63261 4 6.75979 4.05268 6.85355 4.14645C6.94732 4.24021 7 4.36739 7 4.5C7 4.63261 6.94732 4.75979 6.85355 4.85355C6.75979 4.94732 6.63261 5 6.5 5C5.52563 5 5.51813 5.36875 5.5 6.26C5.48938 6.77938 5.47438 7.51562 5 8C5.47438 8.48438 5.48938 9.22062 5.5 9.74ZM12.5 8.5C11.5256 8.5 11.5181 8.86875 11.5 9.76C11.4825 10.5981 11.4544 12 9.5 12C9.36739 12 9.24021 11.9473 9.14645 11.8536C9.05268 11.7598 9 11.6326 9 11.5C9 11.3674 9.05268 11.2402 9.14645 11.1464C9.24021 11.0527 9.36739 11 9.5 11C10.4744 11 10.4819 10.6312 10.5 9.74C10.5106 9.22062 10.5256 8.48438 11 8C10.525 7.51562 10.51 6.77938 10.5 6.26C10.4819 5.36875 10.4744 5 9.5 5C9.36739 5 9.24021 4.94732 9.14645 4.85355C9.05268 4.75979 9 4.63261 9 4.5C9 4.36739 9.05268 4.24021 9.14645 4.14645C9.24021 4.05268 9.36739 4 9.5 4C11.4544 4 11.4825 5.40187 11.5 6.24C11.5181 7.13125 11.5256 7.5 12.5 7.5C12.6326 7.5 12.7598 7.55268 12.8536 7.64645C12.9473 7.74021 13 7.86739 13 8C13 8.13261 12.9473 8.25979 12.8536 8.35355C12.7598 8.44732 12.6326 8.5 12.5 8.5Z" fill="black"/>
</g>
<defs>
<clipPath id="clip0_5_1201">
<rect width="16" height="16" fill="white"/>
</clipPath>
</defs>
</svg>
