<svg width="16" height="16" viewBox="0 0 16 16" fill="none" xmlns="http://www.w3.org/2000/svg">
<g clip-path="url(#clip0_5_1194)">
<path d="M13.5 2.5H2.5C2.23478 2.5 1.98043 2.60536 1.79289 2.79289C1.60536 2.98043 1.5 3.23478 1.5 3.5V12.5C1.5 12.7652 1.60536 13.0196 1.79289 13.2071C1.98043 13.3946 2.23478 13.5 2.5 13.5H13.5C13.7652 13.5 14.0196 13.3946 14.2071 13.2071C14.3946 13.0196 14.5 12.7652 14.5 12.5V3.5C14.5 3.23478 14.3946 2.98043 14.2071 2.79289C14.0196 2.60536 13.7652 2.5 13.5 2.5ZM6.22563 11.0538C6.34414 11.1133 6.43414 11.2176 6.4758 11.3435C6.51747 11.4695 6.5074 11.6068 6.44781 11.7253C6.38822 11.8438 6.28399 11.9338 6.15805 11.9755C6.03211 12.0172 5.89477 12.0071 5.77625 11.9475C5.07642 11.5556 4.49546 10.9819 4.09479 10.2871C3.69412 9.5922 3.48861 8.80201 3.5 8C3.48861 7.19799 3.69412 6.4078 4.09479 5.71295C4.49546 5.0181 5.07642 4.4444 5.77625 4.0525C5.83493 4.02303 5.89885 4.00542 5.96434 4.00065C6.02983 3.99589 6.09562 4.00407 6.15796 4.02473C6.22029 4.04539 6.27794 4.07813 6.32762 4.12107C6.3773 4.16401 6.41804 4.21632 6.4475 4.275C6.47697 4.33368 6.49458 4.3976 6.49935 4.46309C6.50411 4.52858 6.49593 4.59437 6.47527 4.65671C6.45461 4.71904 6.42187 4.77669 6.37893 4.82637C6.33599 4.87605 6.28368 4.91678 6.225 4.94625C6.14812 4.98625 4.5 5.86 4.5 8C4.5 10.14 6.155 11.0175 6.22563 11.0538ZM10.2256 11.9475C10.1069 12.0068 9.96954 12.0166 9.84366 11.9746C9.71778 11.9327 9.61372 11.8424 9.55437 11.7238C9.49503 11.6051 9.48527 11.4677 9.52723 11.3418C9.56919 11.2159 9.65944 11.1118 9.77812 11.0525C9.84688 11.0175 11.5019 10.145 11.5019 8C11.5019 5.855 9.84688 4.9825 9.77625 4.94625C9.65773 4.88666 9.56774 4.78243 9.52607 4.65649C9.4844 4.53054 9.49447 4.39321 9.55406 4.27469C9.61365 4.15617 9.71789 4.06618 9.84383 4.02451C9.96977 3.98284 10.1071 3.99291 10.2256 4.0525C10.9251 4.44465 11.5057 5.01845 11.906 5.71328C12.3064 6.40811 12.5116 7.19817 12.5 8C12.5114 8.80201 12.3059 9.5922 11.9052 10.2871C11.5045 10.9819 10.9236 11.5556 10.2238 11.9475H10.2256Z" fill="black"/>
</g>
<defs>
<clipPath id="clip0_5_1194">
<rect width="16" height="16" fill="white"/>
</clipPath>
</defs>
</svg>
