<svg width="16" height="16" viewBox="0 0 16 16" fill="none" xmlns="http://www.w3.org/2000/svg">
<g clip-path="url(#clip0_5_1324)">
<path d="M13.25 4.75V4.5C13.2494 3.95828 13.0888 3.42882 12.7883 2.97806C12.4878 2.5273 12.0609 2.17532 11.5612 1.9663C11.0614 1.75727 10.511 1.70051 9.97911 1.80313C9.4472 1.90575 8.95744 2.16318 8.5713 2.54313C8.54846 2.56615 8.5304 2.59346 8.51817 2.6235C8.50595 2.65354 8.49978 2.6857 8.50005 2.71813V8.26313C8.50017 8.3082 8.51247 8.3524 8.53566 8.39106C8.55884 8.42971 8.59205 8.46137 8.63176 8.4827C8.67147 8.50403 8.7162 8.51423 8.76123 8.51221C8.80626 8.51019 8.84991 8.49604 8.88755 8.47125C9.36299 8.1664 9.91528 8.00297 10.48 8C10.6108 7.99757 10.7375 8.04533 10.8341 8.13344C10.9307 8.22156 10.9899 8.34334 10.9994 8.47375C11.003 8.54159 10.9927 8.60944 10.9692 8.67316C10.9456 8.73689 10.9094 8.79515 10.8626 8.8444C10.8158 8.89364 10.7595 8.93284 10.697 8.95959C10.6346 8.98634 10.5674 9.00009 10.4994 9C9.96899 9 9.46028 9.21071 9.08521 9.58579C8.71014 9.96086 8.49942 10.4696 8.49942 11V13.1175C8.49937 13.1549 8.50771 13.1918 8.52383 13.2256C8.53995 13.2593 8.56343 13.289 8.59255 13.3125C8.94735 13.6061 9.3651 13.814 9.81331 13.9199C10.2615 14.0258 10.7281 14.0269 11.1768 13.9232C11.6255 13.8194 12.0443 13.6136 12.4005 13.3217C12.7567 13.0297 13.0408 12.6596 13.2307 12.24C13.2498 12.1978 13.2568 12.1511 13.2509 12.1052C13.2451 12.0592 13.2266 12.0158 13.1974 11.9798C13.1683 11.9437 13.1298 11.9165 13.0861 11.9011C13.0424 11.8857 12.9953 11.8827 12.95 11.8925C12.6384 11.9639 12.3197 12 12 12H11.5169C11.3879 12.0016 11.2631 11.9544 11.1675 11.8678C11.0718 11.7812 11.0125 11.6616 11.0013 11.5331C10.9968 11.4647 11.0063 11.3961 11.0294 11.3316C11.0525 11.2671 11.0886 11.208 11.1355 11.158C11.1824 11.108 11.2391 11.0681 11.302 11.041C11.3649 11.0138 11.4328 10.9998 11.5013 11H12.0013C12.5237 11.0008 13.0384 10.8747 13.5013 10.6325C14.0494 10.347 14.5048 9.91117 14.814 9.37607C15.1232 8.84096 15.2735 8.22878 15.2471 7.61132C15.2207 6.99386 15.0188 6.39672 14.6651 5.88992C14.3114 5.38313 13.8205 4.9877 13.25 4.75ZM12.5 7H12.25C11.6533 7 11.081 6.76295 10.6591 6.34099C10.2371 5.91903 10 5.34674 10 4.75V4.5C10 4.36739 10.0527 4.24022 10.1465 4.14645C10.2403 4.05268 10.3674 4 10.5 4C10.6327 4 10.7598 4.05268 10.8536 4.14645C10.9474 4.24022 11 4.36739 11 4.5V4.75C11 4.91415 11.0324 5.0767 11.0952 5.22835C11.158 5.38001 11.2501 5.51781 11.3662 5.63388C11.6006 5.8683 11.9185 6 12.25 6H12.5C12.6327 6 12.7598 6.05268 12.8536 6.14645C12.9474 6.24021 13 6.36739 13 6.5C13 6.63261 12.9474 6.75979 12.8536 6.85355C12.7598 6.94732 12.6327 7 12.5 7ZM5.50005 1.75C4.77096 1.75083 4.07197 2.04082 3.55642 2.55637C3.04087 3.07192 2.75088 3.77091 2.75005 4.5V4.75C2.17963 4.98783 1.68885 5.38336 1.33525 5.89023C0.981653 6.39709 0.779905 6.99426 0.753664 7.61172C0.727423 8.22917 0.877777 8.84131 1.18709 9.37635C1.49641 9.91138 1.95187 10.3471 2.50005 10.6325C2.96291 10.8747 3.47766 11.0008 4.00005 11H4.48317C4.61238 10.9981 4.73752 11.0452 4.83342 11.1318C4.92931 11.2184 4.98885 11.3381 5.00005 11.4669C5.00459 11.5353 4.99502 11.6039 4.97194 11.6684C4.94885 11.7329 4.91274 11.792 4.86585 11.842C4.81896 11.892 4.76229 11.9319 4.69936 11.959C4.63644 11.9862 4.56859 12.0002 4.50005 12H4.00005C3.6801 12.0001 3.36117 11.9639 3.04942 11.8919C3.00418 11.882 2.95709 11.8849 2.91339 11.9002C2.8697 11.9156 2.83112 11.9427 2.80195 11.9787C2.77279 12.0146 2.75419 12.058 2.74822 12.1039C2.74226 12.1499 2.74917 12.1965 2.76817 12.2388C2.95801 12.6584 3.24207 13.0287 3.59829 13.3208C3.9545 13.6128 4.37327 13.8188 4.82204 13.9227C5.27081 14.0265 5.73749 14.0255 6.1858 13.9197C6.63411 13.8139 7.05198 13.6061 7.40692 13.3125C7.43604 13.289 7.45953 13.2593 7.47564 13.2256C7.49176 13.1918 7.5001 13.1549 7.50005 13.1175V11C7.50005 10.4696 7.28934 9.96086 6.91426 9.58579C6.53919 9.21071 6.03048 9 5.50005 9C5.43212 9.00009 5.36488 8.98634 5.30244 8.95959C5.24001 8.93284 5.18367 8.89364 5.13688 8.8444C5.09009 8.79515 5.05383 8.73689 5.0303 8.67316C5.00678 8.60944 4.99648 8.54159 5.00005 8.47375C5.00962 8.34324 5.06888 8.22136 5.16562 8.13323C5.26236 8.04509 5.38921 7.99741 5.52005 8C6.08482 8.00297 6.63711 8.1664 7.11255 8.47125C7.15019 8.49604 7.19384 8.51019 7.23887 8.51221C7.2839 8.51423 7.32863 8.50403 7.36834 8.4827C7.40805 8.46137 7.44126 8.42971 7.46444 8.39106C7.48763 8.3524 7.49993 8.3082 7.50005 8.26313V2.71813C7.50027 2.6525 7.47468 2.58942 7.4288 2.5425C6.91542 2.03452 6.22227 1.74971 5.50005 1.75ZM6.00005 4.75C6.00005 5.34674 5.763 5.91903 5.34104 6.34099C4.91908 6.76295 4.34679 7 3.75005 7H3.50005C3.36744 7 3.24026 6.94732 3.1465 6.85355C3.05273 6.75979 3.00005 6.63261 3.00005 6.5C3.00005 6.36739 3.05273 6.24021 3.1465 6.14645C3.24026 6.05268 3.36744 6 3.50005 6H3.75005C3.9142 6 4.07675 5.96767 4.2284 5.90485C4.38006 5.84203 4.51786 5.74996 4.63393 5.63388C4.75001 5.51781 4.84208 5.38001 4.9049 5.22835C4.96772 5.0767 5.00005 4.91415 5.00005 4.75V4.5C5.00005 4.36739 5.05273 4.24022 5.1465 4.14645C5.24026 4.05268 5.36744 4 5.50005 4C5.63266 4 5.75983 4.05268 5.8536 4.14645C5.94737 4.24022 6.00005 4.36739 6.00005 4.5V4.75Z" fill="black"/>
</g>
<defs>
<clipPath id="clip0_5_1324">
<rect width="16" height="16" fill="white"/>
</clipPath>
</defs>
</svg>
