<svg width="16" height="16" viewBox="0 0 16 16" fill="none" xmlns="http://www.w3.org/2000/svg">
<g clip-path="url(#clip0_5_1159)">
<path d="M14 5.5C14.0016 4.33779 13.6643 3.20034 13.0294 2.22688C12.984 2.15722 12.9219 2.09999 12.8488 2.06038C12.7756 2.02076 12.6938 2.00001 12.6106 2H3.38938C3.30622 2.00001 3.22438 2.02076 3.15126 2.06038C3.07814 2.09999 3.01606 2.15722 2.97063 2.22688C2.33574 3.20034 1.99844 4.33779 2.00001 5.5C2.00183 7.00418 2.56786 8.45295 3.58623 9.55996C4.6046 10.667 6.0012 11.3517 7.50001 11.4788V13.5H5.50001C5.3674 13.5 5.24022 13.5527 5.14645 13.6464C5.05268 13.7402 5.00001 13.8674 5.00001 14C5.00001 14.1326 5.05268 14.2598 5.14645 14.3536C5.24022 14.4473 5.3674 14.5 5.50001 14.5H10.5C10.6326 14.5 10.7598 14.4473 10.8536 14.3536C10.9473 14.2598 11 14.1326 11 14C11 13.8674 10.9473 13.7402 10.8536 13.6464C10.7598 13.5527 10.6326 13.5 10.5 13.5H8.50001V11.4788C9.99881 11.3517 11.3954 10.667 12.4138 9.55996C13.4322 8.45295 13.9982 7.00418 14 5.5ZM3.66876 3H12.3313C12.6859 3.61317 12.9054 4.29508 12.975 5H3.02501C3.09461 4.29508 3.3141 3.61317 3.66876 3Z" fill="black"/>
</g>
<defs>
<clipPath id="clip0_5_1159">
<rect width="16" height="16" fill="white"/>
</clipPath>
</defs>
</svg>
