<svg width="16" height="16" viewBox="0 0 16 16" fill="none" xmlns="http://www.w3.org/2000/svg">
<g clip-path="url(#clip0_5_1157)">
<path d="M12.5 2.5H2.99995C2.42587 2.50035 1.86941 2.69826 1.42403 3.06049C0.97866 3.42272 0.671522 3.92719 0.554217 4.48916C0.436911 5.05112 0.516587 5.63634 0.779857 6.14649C1.04313 6.65664 1.47395 7.06065 1.99995 7.29063V12.5C1.99995 12.7652 2.10531 13.0196 2.29285 13.2071C2.48038 13.3946 2.73474 13.5 2.99995 13.5H12.5C12.7652 13.5 13.0195 13.3946 13.2071 13.2071C13.3946 13.0196 13.5 12.7652 13.5 12.5V7.29063C14.026 7.06065 14.4568 6.65664 14.72 6.14649C14.9833 5.63634 15.063 5.05112 14.9457 4.48916C14.8284 3.92719 14.5212 3.42272 14.0759 3.06049C13.6305 2.69826 13.074 2.50035 12.5 2.5ZM8.99995 6.5C8.86734 6.5 8.74017 6.55268 8.6464 6.64645C8.55263 6.74021 8.49995 6.86739 8.49995 7C8.49995 7.13261 8.55263 7.25979 8.6464 7.35355C8.74017 7.44732 8.86734 7.5 8.99995 7.5V12.5H2.99995V7.5C3.13256 7.5 3.25974 7.44732 3.35351 7.35355C3.44727 7.25979 3.49995 7.13261 3.49995 7C3.49995 6.86739 3.44727 6.74021 3.35351 6.64645C3.25974 6.55268 3.13256 6.5 2.99995 6.5C2.60213 6.5 2.2206 6.34196 1.93929 6.06066C1.65799 5.77936 1.49995 5.39782 1.49995 5C1.49995 4.60218 1.65799 4.22064 1.93929 3.93934C2.2206 3.65804 2.60213 3.5 2.99995 3.5H8.99995C9.39778 3.5 9.77931 3.65804 10.0606 3.93934C10.3419 4.22064 10.5 4.60218 10.5 5C10.5 5.39782 10.3419 5.77936 10.0606 6.06066C9.77931 6.34196 9.39778 6.5 8.99995 6.5Z" fill="black"/>
</g>
<defs>
<clipPath id="clip0_5_1157">
<rect width="16" height="16" fill="white"/>
</clipPath>
</defs>
</svg>
