<svg width="16" height="16" viewBox="0 0 16 16" fill="none" xmlns="http://www.w3.org/2000/svg">
<g clip-path="url(#clip0_5_1315)">
<path d="M14.5 10H14V7.53125C14.1019 7.58187 14.2056 7.62937 14.3125 7.6725C14.4349 7.71966 14.5709 7.71684 14.6912 7.66464C14.8116 7.61244 14.9066 7.51505 14.9558 7.39346C15.005 7.27187 15.0044 7.13582 14.9542 7.01464C14.904 6.89345 14.8083 6.79684 14.6875 6.74563C14.0399 6.48568 13.4853 6.03739 13.0953 5.45876C12.7053 4.88013 12.4979 4.19778 12.5 3.5C12.5 3.36739 12.4473 3.24021 12.3536 3.14645C12.2598 3.05268 12.1326 3 12 3C11.8674 3 11.7402 3.05268 11.6464 3.14645C11.5527 3.24021 11.5 3.36739 11.5 3.5C11.5 4.42826 11.1313 5.3185 10.4749 5.97487C9.8185 6.63125 8.92826 7 8 7C7.07174 7 6.1815 6.63125 5.52513 5.97487C4.86875 5.3185 4.5 4.42826 4.5 3.5C4.5 3.36739 4.44732 3.24021 4.35355 3.14645C4.25979 3.05268 4.13261 3 4 3C3.86739 3 3.74021 3.05268 3.64645 3.14645C3.55268 3.24021 3.5 3.36739 3.5 3.5C3.50206 4.19778 3.29469 4.88013 2.9047 5.45876C2.51471 6.03739 1.96006 6.48568 1.3125 6.74563C1.19175 6.79684 1.09595 6.89345 1.04577 7.01464C0.995584 7.13582 0.995029 7.27187 1.04422 7.39346C1.09342 7.51505 1.18842 7.61244 1.30875 7.66464C1.42908 7.71684 1.56511 7.71966 1.6875 7.6725C1.79438 7.62937 1.89812 7.58187 2 7.53125V10H1.5375C1.14313 10 1 10.2987 1 10.5C1 10.6326 1.05268 10.7598 1.14645 10.8536C1.24021 10.9473 1.36739 11 1.5 11H3.5V12.5C3.5 12.6326 3.55268 12.7598 3.64645 12.8536C3.74021 12.9473 3.86739 13 4 13C4.13261 13 4.25979 12.9473 4.35355 12.8536C4.44732 12.7598 4.5 12.6326 4.5 12.5V11H11.5V12.5C11.5 12.6326 11.5527 12.7598 11.6464 12.8536C11.7402 12.9473 11.8674 13 12 13C12.1326 13 12.2598 12.9473 12.3536 12.8536C12.4473 12.7598 12.5 12.6326 12.5 12.5V11H14.5C14.6326 11 14.7598 10.9473 14.8536 10.8536C14.9473 10.7598 15 10.6326 15 10.5C15 10.3674 14.9473 10.2402 14.8536 10.1464C14.7598 10.0527 14.6326 10 14.5 10ZM4.5 9.5C4.5 9.63261 4.44732 9.75979 4.35355 9.85355C4.25979 9.94732 4.13261 10 4 10C3.86739 10 3.74021 9.94732 3.64645 9.85355C3.55268 9.75979 3.5 9.63261 3.5 9.5V6.5075C3.5 6.37489 3.55268 6.24771 3.64645 6.15395C3.74021 6.06018 3.86739 6.0075 4 6.0075C4.13261 6.0075 4.25979 6.06018 4.35355 6.15395C4.44732 6.24771 4.5 6.37489 4.5 6.5075V9.5ZM7 9.5C7 9.63261 6.94732 9.75979 6.85355 9.85355C6.75979 9.94732 6.63261 10 6.5 10C6.36739 10 6.24021 9.94732 6.14645 9.85355C6.05268 9.75979 6 9.63261 6 9.5V8.27C6 8.13739 6.05268 8.01021 6.14645 7.91645C6.24021 7.82268 6.36739 7.77 6.5 7.77C6.63261 7.77 6.75979 7.82268 6.85355 7.91645C6.94732 8.01021 7 8.13739 7 8.27V9.5ZM10 9.5C10 9.63261 9.94732 9.75979 9.85355 9.85355C9.75979 9.94732 9.63261 10 9.5 10C9.36739 10 9.24021 9.94732 9.14645 9.85355C9.05268 9.75979 9 9.63261 9 9.5V8.27C9 8.13739 9.05268 8.01021 9.14645 7.91645C9.24021 7.82268 9.36739 7.77 9.5 7.77C9.63261 7.77 9.75979 7.82268 9.85355 7.91645C9.94732 8.01021 10 8.13739 10 8.27V9.5ZM12.5 9.5C12.5 9.63261 12.4473 9.75979 12.3536 9.85355C12.2598 9.94732 12.1326 10 12 10C11.8674 10 11.7402 9.94732 11.6464 9.85355C11.5527 9.75979 11.5 9.63261 11.5 9.5V6.5075C11.5 6.37489 11.5527 6.24771 11.6464 6.15395C11.7402 6.06018 11.8674 6.0075 12 6.0075C12.1326 6.0075 12.2598 6.06018 12.3536 6.15395C12.4473 6.24771 12.5 6.37489 12.5 6.5075V9.5Z" fill="black"/>
</g>
<defs>
<clipPath id="clip0_5_1315">
<rect width="16" height="16" fill="white"/>
</clipPath>
</defs>
</svg>
