<svg width="16" height="16" viewBox="0 0 16 16" fill="none" xmlns="http://www.w3.org/2000/svg">
<g clip-path="url(#clip0_5_1152)">
<path d="M1.75 7H14.25C14.3163 7 14.3799 7.02634 14.4268 7.07322C14.4737 7.12011 14.5 7.1837 14.5 7.25V9.75C14.5 9.8163 14.4737 9.87989 14.4268 9.92678C14.3799 9.97366 14.3163 10 14.25 10H1.75C1.6837 10 1.62011 9.97366 1.57322 9.92678C1.52634 9.87989 1.5 9.8163 1.5 9.75V7.25C1.5 7.1837 1.52634 7.12011 1.57322 7.07322C1.62011 7.02634 1.6837 7 1.75 7ZM1.5 12.5C1.5 12.7652 1.60536 13.0196 1.79289 13.2071C1.98043 13.3946 2.23478 13.5 2.5 13.5H13.5C13.7652 13.5 14.0196 13.3946 14.2071 13.2071C14.3946 13.0196 14.5 12.7652 14.5 12.5V11.25C14.5 11.1837 14.4737 11.1201 14.4268 11.0732C14.3799 11.0263 14.3163 11 14.25 11H1.75C1.6837 11 1.62011 11.0263 1.57322 11.0732C1.52634 11.1201 1.5 11.1837 1.5 11.25V12.5ZM14.5 4.5V5.75C14.5 5.8163 14.4737 5.87989 14.4268 5.92678C14.3799 5.97366 14.3163 6 14.25 6H1.75C1.6837 6 1.62011 5.97366 1.57322 5.92678C1.52634 5.87989 1.5 5.8163 1.5 5.75V4.5C1.5 4.23478 1.60536 3.98043 1.79289 3.79289C1.98043 3.60536 2.23478 3.5 2.5 3.5H5V3C5 2.60218 5.15804 2.22064 5.43934 1.93934C5.72064 1.65804 6.10218 1.5 6.5 1.5H9.5C9.89782 1.5 10.2794 1.65804 10.5607 1.93934C10.842 2.22064 11 2.60218 11 3V3.5H13.5C13.7652 3.5 14.0196 3.60536 14.2071 3.79289C14.3946 3.98043 14.5 4.23478 14.5 4.5ZM10 3C10 2.86739 9.94732 2.74021 9.85355 2.64645C9.75979 2.55268 9.63261 2.5 9.5 2.5H6.5C6.36739 2.5 6.24021 2.55268 6.14645 2.64645C6.05268 2.74021 6 2.86739 6 3V3.5H10V3Z" fill="black"/>
</g>
<defs>
<clipPath id="clip0_5_1152">
<rect width="16" height="16" fill="white"/>
</clipPath>
</defs>
</svg>
