<svg width="16" height="16" viewBox="0 0 16 16" fill="none" xmlns="http://www.w3.org/2000/svg">
<g clip-path="url(#clip0_5_1297)">
<path d="M14.7056 13.5438C13.3038 12.8556 12.5 11.3825 12.5 9.5V8.41813C12.5005 8.21777 12.4406 8.0219 12.3281 7.8561C12.2156 7.69031 12.0558 7.56229 11.8694 7.48875L10.0788 6.7725C9.95608 6.7234 9.85783 6.62772 9.80548 6.50639C9.75313 6.38506 9.75094 6.24794 9.79939 6.125L11.1944 2.58313C11.5 1.79938 11.125 0.888129 10.3338 0.594379C9.96544 0.457404 9.55808 0.470438 9.19927 0.630676C8.84045 0.790914 8.55885 1.08556 8.41501 1.45125L7.01564 5.005C6.99152 5.06629 6.95552 5.12221 6.90973 5.16955C6.86393 5.21688 6.80923 5.2547 6.74877 5.28084C6.68832 5.30697 6.62329 5.3209 6.55743 5.32183C6.49158 5.32276 6.42618 5.31067 6.36501 5.28625L4.56939 4.5675C4.3861 4.49331 4.18486 4.47545 3.99137 4.51619C3.79788 4.55694 3.62094 4.65445 3.48314 4.79625C2.16751 6.15 1.50001 7.73188 1.50001 9.5C1.49657 11.3065 2.19457 13.0437 3.44689 14.3456C3.4942 14.3948 3.55101 14.4338 3.61386 14.4603C3.67671 14.4869 3.74429 14.5004 3.81251 14.5H14.5C14.6275 14.5002 14.7502 14.4518 14.8432 14.3645C14.9361 14.2773 14.9922 14.1579 15 14.0306C15.0044 13.9295 14.9789 13.8293 14.9265 13.7427C14.8741 13.656 14.7973 13.5868 14.7056 13.5438ZM7.19439 13.5C6.45468 12.7903 5.9293 11.887 5.67814 10.8931C5.64784 10.7679 5.57157 10.6587 5.46447 10.5872C5.35736 10.5156 5.22727 10.4869 5.10001 10.5069C5.03224 10.5191 4.96772 10.5452 4.91051 10.5836C4.85329 10.6219 4.80462 10.6717 4.76753 10.7297C4.73045 10.7877 4.70575 10.8528 4.69499 10.9208C4.68423 10.9888 4.68765 11.0584 4.70501 11.125C4.92337 11.986 5.31371 12.7939 5.85251 13.5H4.02751C3.04179 12.4011 2.49767 10.9762 2.50001 9.5C2.49385 8.71759 2.65873 7.94328 2.98314 7.23125L11.5956 10.6769C11.7831 11.8056 12.255 12.7706 12.9638 13.5013L7.19439 13.5Z" fill="black"/>
</g>
<defs>
<clipPath id="clip0_5_1297">
<rect width="16" height="16" fill="white"/>
</clipPath>
</defs>
</svg>
