<svg width="16" height="16" viewBox="0 0 16 16" fill="none" xmlns="http://www.w3.org/2000/svg">
<g clip-path="url(#clip0_5_1143)">
<path d="M13.5 2.5H4.5C4.23478 2.5 3.98043 2.60536 3.79289 2.79289C3.60536 2.98043 3.5 3.23478 3.5 3.5V4.5H2.5C2.23478 4.5 1.98043 4.60536 1.79289 4.79289C1.60536 4.98043 1.5 5.23478 1.5 5.5V12.5C1.5 12.7652 1.60536 13.0196 1.79289 13.2071C1.98043 13.3946 2.23478 13.5 2.5 13.5H11.5C11.7652 13.5 12.0196 13.3946 12.2071 13.2071C12.3946 13.0196 12.5 12.7652 12.5 12.5V11.5H13.5C13.7652 11.5 14.0196 11.3946 14.2071 11.2071C14.3946 11.0196 14.5 10.7652 14.5 10.5V3.5C14.5 3.23478 14.3946 2.98043 14.2071 2.79289C14.0196 2.60536 13.7652 2.5 13.5 2.5ZM11.5 5.5V6.5H2.5V5.5H11.5ZM13.5 10.5H12.5V5.5C12.5 5.23478 12.3946 4.98043 12.2071 4.79289C12.0196 4.60536 11.7652 4.5 11.5 4.5H4.5V3.5H13.5V10.5Z" fill="black"/>
</g>
<defs>
<clipPath id="clip0_5_1143">
<rect width="16" height="16" fill="white"/>
</clipPath>
</defs>
</svg>
