<svg width="16" height="16" viewBox="0 0 16 16" fill="none" xmlns="http://www.w3.org/2000/svg">
<g clip-path="url(#clip0_5_1135)">
<path d="M10.5 5.75C10.5 5.89833 10.456 6.04334 10.3736 6.16668C10.2912 6.29001 10.1741 6.38614 10.037 6.44291C9.89997 6.49967 9.74917 6.51453 9.60368 6.48559C9.4582 6.45665 9.32456 6.38522 9.21967 6.28033C9.11478 6.17544 9.04335 6.0418 9.01441 5.89632C8.98547 5.75083 9.00033 5.60003 9.05709 5.46299C9.11386 5.32594 9.20999 5.20881 9.33332 5.1264C9.45666 5.04398 9.60166 5 9.75 5C9.94891 5 10.1397 5.07902 10.2803 5.21967C10.421 5.36032 10.5 5.55109 10.5 5.75ZM6.25 5C6.10166 5 5.95666 5.04398 5.83332 5.1264C5.70999 5.20881 5.61386 5.32594 5.55709 5.46299C5.50032 5.60003 5.48547 5.75083 5.51441 5.89632C5.54335 6.0418 5.61478 6.17544 5.71967 6.28033C5.82456 6.38522 5.9582 6.45665 6.10368 6.48559C6.24917 6.51453 6.39997 6.49967 6.53701 6.44291C6.67406 6.38614 6.79119 6.29001 6.8736 6.16668C6.95601 6.04334 7 5.89833 7 5.75C7 5.55109 6.92098 5.36032 6.78033 5.21967C6.63968 5.07902 6.44891 5 6.25 5ZM13.5 9C13.5014 9.48535 13.4383 9.96874 13.3125 10.4375L14.7025 11.045C14.806 11.0922 14.8904 11.1732 14.9417 11.2748C14.9929 11.3764 15.008 11.4924 14.9844 11.6037C14.9608 11.715 14.8999 11.815 14.8118 11.887C14.7238 11.9591 14.6138 11.9989 14.5 12C14.4311 12.0002 14.363 11.9859 14.3 11.9581L12.9613 11.375C12.5134 12.311 11.8099 13.1012 10.932 13.6543C10.0541 14.2075 9.03762 14.501 8 14.501C6.96238 14.501 5.94592 14.2075 5.06803 13.6543C4.19014 13.1012 3.48663 12.311 3.03875 11.375L1.7 11.9581C1.63699 11.9859 1.56886 12.0002 1.5 12C1.38518 11.9999 1.27389 11.9603 1.18482 11.8879C1.09574 11.8155 1.03431 11.7146 1.01085 11.6022C0.987392 11.4898 1.00333 11.3727 1.05598 11.2707C1.10864 11.1687 1.1948 11.0879 1.3 11.0419L2.6875 10.4375C2.56167 9.96874 2.49862 9.48535 2.5 9V8.5H1C0.867392 8.5 0.740215 8.44732 0.646447 8.35355C0.552678 8.25978 0.5 8.13261 0.5 8C0.5 7.86739 0.552678 7.74021 0.646447 7.64644C0.740215 7.55268 0.867392 7.5 1 7.5H2.5V7C2.49862 6.51465 2.56167 6.03126 2.6875 5.5625L1.3 4.95812C1.2384 4.93283 1.18247 4.89549 1.1355 4.8483C1.08853 4.8011 1.05146 4.74499 1.02646 4.68327C1.00147 4.62155 0.989051 4.55546 0.989944 4.48888C0.990837 4.4223 1.00502 4.35657 1.03166 4.29554C1.0583 4.23451 1.09687 4.17942 1.14509 4.1335C1.19331 4.08758 1.25022 4.05175 1.31247 4.02813C1.37473 4.0045 1.44108 3.99354 1.50762 3.9959C1.57417 3.99826 1.63958 4.01389 1.7 4.04187L3.03875 4.625C3.48663 3.68902 4.19014 2.89882 5.06803 2.34568C5.94592 1.79254 6.96238 1.49902 8 1.49902C9.03762 1.49902 10.0541 1.79254 10.932 2.34568C11.8099 2.89882 12.5134 3.68902 12.9613 4.625L14.3 4.04C14.4209 3.99036 14.5564 3.99003 14.6776 4.0391C14.7987 4.08816 14.8958 4.1827 14.9481 4.30248C15.0004 4.42227 15.0037 4.55776 14.9574 4.67996C14.911 4.80215 14.8186 4.90133 14.7 4.95625L13.3125 5.56562C13.4383 6.03438 13.5014 6.51777 13.5 7.00312V7.50312H15C15.1326 7.50312 15.2598 7.5558 15.3536 7.64957C15.4473 7.74334 15.5 7.87051 15.5 8.00312C15.5 8.13573 15.4473 8.26291 15.3536 8.35668C15.2598 8.45044 15.1326 8.50312 15 8.50312H13.5V9ZM8.5 9C8.5 8.86739 8.44732 8.74021 8.35355 8.64644C8.25979 8.55268 8.13261 8.5 8 8.5C7.86739 8.5 7.74021 8.55268 7.64645 8.64644C7.55268 8.74021 7.5 8.86739 7.5 9V13C7.5 13.1326 7.55268 13.2598 7.64645 13.3536C7.74021 13.4473 7.86739 13.5 8 13.5C8.13261 13.5 8.25979 13.4473 8.35355 13.3536C8.44732 13.2598 8.5 13.1326 8.5 13V9ZM12.5 7C12.5 5.80652 12.0259 4.66193 11.182 3.81802C10.3381 2.9741 9.19347 2.5 8 2.5C6.80653 2.5 5.66193 2.9741 4.81802 3.81802C3.97411 4.66193 3.5 5.80652 3.5 7V7.5H12.5V7Z" fill="black"/>
</g>
<defs>
<clipPath id="clip0_5_1135">
<rect width="16" height="16" fill="white"/>
</clipPath>
</defs>
</svg>
