<svg width="16" height="16" viewBox="0 0 16 16" fill="none" xmlns="http://www.w3.org/2000/svg">
<g clip-path="url(#clip0_5_1278)">
<path d="M11.9894 3.21747L12.8538 2.35372C12.9476 2.2599 13.0003 2.13265 13.0003 1.99997C13.0003 1.86729 12.9476 1.74004 12.8538 1.64622C12.7599 1.5524 12.6327 1.49969 12.5 1.49969C12.3673 1.49969 12.2401 1.5524 12.1463 1.64622L11.2369 2.55622C10.2972 1.86991 9.16364 1.50005 8 1.50005C6.83636 1.50005 5.70283 1.86991 4.76313 2.55622L3.85375 1.64622C3.75993 1.5524 3.63268 1.49969 3.5 1.49969C3.36732 1.49969 3.24007 1.5524 3.14625 1.64622C3.05243 1.74004 2.99972 1.86729 2.99972 1.99997C2.99972 2.13265 3.05243 2.2599 3.14625 2.35372L4.01063 3.21747C3.04005 4.23755 2.49914 5.59194 2.5 6.99997V9.49997C2.5 10.9587 3.07946 12.3576 4.11091 13.3891C5.14236 14.4205 6.54131 15 8 15C9.45869 15 10.8576 14.4205 11.8891 13.3891C12.9205 12.3576 13.5 10.9587 13.5 9.49997V6.99997C13.5009 5.59194 12.96 4.23755 11.9894 3.21747ZM8 2.49997C9.19307 2.5013 10.3369 2.97583 11.1805 3.81945C12.0241 4.66308 12.4987 5.8069 12.5 6.99997V7.49997H3.5V6.99997C3.50132 5.8069 3.97586 4.66308 4.81948 3.81945C5.66311 2.97583 6.80693 2.5013 8 2.49997ZM9 5.74997C9 5.60164 9.04399 5.45663 9.1264 5.3333C9.20881 5.20996 9.32594 5.11383 9.46299 5.05706C9.60003 5.0003 9.75083 4.98544 9.89632 5.01438C10.0418 5.04332 10.1754 5.11475 10.2803 5.21964C10.3852 5.32453 10.4567 5.45817 10.4856 5.60365C10.5145 5.74914 10.4997 5.89994 10.4429 6.03699C10.3861 6.17403 10.29 6.29116 10.1667 6.37358C10.0433 6.45599 9.89834 6.49997 9.75 6.49997C9.55109 6.49997 9.36032 6.42096 9.21967 6.2803C9.07902 6.13965 9 5.94888 9 5.74997ZM5.5 5.74997C5.5 5.60164 5.54399 5.45663 5.6264 5.3333C5.70881 5.20996 5.82594 5.11383 5.96299 5.05706C6.10003 5.0003 6.25083 4.98544 6.39632 5.01438C6.5418 5.04332 6.67544 5.11475 6.78033 5.21964C6.88522 5.32453 6.95665 5.45817 6.98559 5.60365C7.01453 5.74914 6.99968 5.89994 6.94291 6.03699C6.88615 6.17403 6.79002 6.29116 6.66668 6.37358C6.54334 6.45599 6.39834 6.49997 6.25 6.49997C6.05109 6.49997 5.86032 6.42096 5.71967 6.2803C5.57902 6.13965 5.5 5.94888 5.5 5.74997Z" fill="black"/>
</g>
<defs>
<clipPath id="clip0_5_1278">
<rect width="16" height="16" fill="white"/>
</clipPath>
</defs>
</svg>
