<svg width="16" height="16" viewBox="0 0 16 16" fill="none" xmlns="http://www.w3.org/2000/svg">
<g clip-path="url(#clip0_5_1139)">
<path d="M14 7.49997H13V6.49997H14C14.1326 6.49997 14.2598 6.55265 14.3536 6.64642C14.4473 6.74019 14.5 6.86736 14.5 6.99997C14.5 7.13258 14.4473 7.25976 14.3536 7.35353C14.2598 7.44729 14.1326 7.49997 14 7.49997ZM2 6.49997C1.86739 6.49997 1.74021 6.55265 1.64645 6.64642C1.55268 6.74019 1.5 6.86736 1.5 6.99997C1.5 7.13258 1.55268 7.25976 1.64645 7.35353C1.74021 7.44729 1.86739 7.49997 2 7.49997H3V6.49997H2ZM13 9.99997C13 10.1687 12.9913 10.3356 12.975 10.5H14C14.1326 10.5 14.2598 10.5527 14.3536 10.6464C14.4473 10.7402 14.5 10.8674 14.5 11C14.5 11.1326 14.4473 11.2598 14.3536 11.3535C14.2598 11.4473 14.1326 11.5 14 11.5H12.77C12.451 12.5152 11.8163 13.4021 10.9584 14.0318C10.1006 14.6614 9.06416 15.0009 8 15.0009C6.93584 15.0009 5.89944 14.6614 5.04155 14.0318C4.18366 13.4021 3.54904 12.5152 3.23 11.5H2C1.86739 11.5 1.74021 11.4473 1.64645 11.3535C1.55268 11.2598 1.5 11.1326 1.5 11C1.5 10.8674 1.55268 10.7402 1.64645 10.6464C1.74021 10.5527 1.86739 10.5 2 10.5H3.025C3.00875 10.3356 3 10.1687 3 9.99997V9.49997H2C1.86739 9.49997 1.74021 9.44729 1.64645 9.35353C1.55268 9.25976 1.5 9.13258 1.5 8.99997C1.5 8.86736 1.55268 8.74019 1.64645 8.64642C1.74021 8.55265 1.86739 8.49997 2 8.49997H3V7.49997H13V8.49997H14C14.1326 8.49997 14.2598 8.55265 14.3536 8.64642C14.4473 8.74019 14.5 8.86736 14.5 8.99997C14.5 9.13258 14.4473 9.25976 14.3536 9.35353C14.2598 9.44729 14.1326 9.49997 14 9.49997H13V9.99997ZM8.5 8.99997C8.5 8.86736 8.44732 8.74019 8.35355 8.64642C8.25979 8.55265 8.13261 8.49997 8 8.49997C7.86739 8.49997 7.74021 8.55265 7.64645 8.64642C7.55268 8.74019 7.5 8.86736 7.5 8.99997V13C7.5 13.1326 7.55268 13.2598 7.64645 13.3535C7.74021 13.4473 7.86739 13.5 8 13.5C8.13261 13.5 8.25979 13.4473 8.35355 13.3535C8.44732 13.2598 8.5 13.1326 8.5 13V8.99997ZM4.365 3.57185C3.6067 4.37277 3.13544 5.40257 3.025 6.49997H12.975C12.8646 5.40257 12.3933 4.37277 11.635 3.57185L12.8538 2.35372C12.9476 2.2599 13.0003 2.13265 13.0003 1.99997C13.0003 1.86729 12.9476 1.74004 12.8538 1.64622C12.7599 1.5524 12.6327 1.49969 12.5 1.49969C12.3673 1.49969 12.2401 1.5524 12.1462 1.64622L10.8781 2.91497C10.0365 2.31961 9.03093 1.9999 8 1.9999C6.96907 1.9999 5.96351 2.31961 5.12187 2.91497L3.85375 1.64622C3.75993 1.5524 3.63268 1.49969 3.5 1.49969C3.36732 1.49969 3.24007 1.5524 3.14625 1.64622C3.05243 1.74004 2.99972 1.86729 2.99972 1.99997C2.99972 2.13265 3.05243 2.2599 3.14625 2.35372L4.365 3.57185Z" fill="black"/>
</g>
<defs>
<clipPath id="clip0_5_1139">
<rect width="16" height="16" fill="white"/>
</clipPath>
</defs>
</svg>
