<svg width="16" height="16" viewBox="0 0 16 16" fill="none" xmlns="http://www.w3.org/2000/svg">
<g clip-path="url(#clip0_5_1129)">
<path d="M15.5 13H14.5V6C14.6326 6 14.7598 5.94732 14.8536 5.85355C14.9473 5.75979 15 5.63261 15 5.5C15 5.36739 14.9473 5.24021 14.8536 5.14645C14.7598 5.05268 14.6326 5 14.5 5H11.5V3C11.6326 3 11.7598 2.94732 11.8536 2.85355C11.9473 2.75979 12 2.63261 12 2.5C12 2.36739 11.9473 2.24021 11.8536 2.14645C11.7598 2.05268 11.6326 2 11.5 2H2.5C2.36739 2 2.24021 2.05268 2.14645 2.14645C2.05268 2.24021 2 2.36739 2 2.5C2 2.63261 2.05268 2.75979 2.14645 2.85355C2.24021 2.94732 2.36739 3 2.5 3V13H1.5C1.36739 13 1.24021 13.0527 1.14645 13.1464C1.05268 13.2402 1 13.3674 1 13.5C1 13.6326 1.05268 13.7598 1.14645 13.8536C1.24021 13.9473 1.36739 14 1.5 14H15.5C15.6326 14 15.7598 13.9473 15.8536 13.8536C15.9473 13.7598 16 13.6326 16 13.5C16 13.3674 15.9473 13.2402 15.8536 13.1464C15.7598 13.0527 15.6326 13 15.5 13ZM5 4.5H6C6.13261 4.5 6.25979 4.55268 6.35355 4.64645C6.44732 4.74021 6.5 4.86739 6.5 5C6.5 5.13261 6.44732 5.25979 6.35355 5.35355C6.25979 5.44732 6.13261 5.5 6 5.5H5C4.86739 5.5 4.74021 5.44732 4.64645 5.35355C4.55268 5.25979 4.5 5.13261 4.5 5C4.5 4.86739 4.55268 4.74021 4.64645 4.64645C4.74021 4.55268 4.86739 4.5 5 4.5ZM4.5 7.5C4.5 7.36739 4.55268 7.24021 4.64645 7.14645C4.74021 7.05268 4.86739 7 5 7H6C6.13261 7 6.25979 7.05268 6.35355 7.14645C6.44732 7.24021 6.5 7.36739 6.5 7.5C6.5 7.63261 6.44732 7.75979 6.35355 7.85355C6.25979 7.94732 6.13261 8 6 8H5C4.86739 8 4.74021 7.94732 4.64645 7.85355C4.55268 7.75979 4.5 7.63261 4.5 7.5ZM8.5 13H5.5V10H8.5V13ZM9 8H8C7.86739 8 7.74021 7.94732 7.64645 7.85355C7.55268 7.75979 7.5 7.63261 7.5 7.5C7.5 7.36739 7.55268 7.24021 7.64645 7.14645C7.74021 7.05268 7.86739 7 8 7H9C9.13261 7 9.25979 7.05268 9.35355 7.14645C9.44732 7.24021 9.5 7.36739 9.5 7.5C9.5 7.63261 9.44732 7.75979 9.35355 7.85355C9.25979 7.94732 9.13261 8 9 8ZM9 5.5H8C7.86739 5.5 7.74021 5.44732 7.64645 5.35355C7.55268 5.25979 7.5 5.13261 7.5 5C7.5 4.86739 7.55268 4.74021 7.64645 4.64645C7.74021 4.55268 7.86739 4.5 8 4.5H9C9.13261 4.5 9.25979 4.55268 9.35355 4.64645C9.44732 4.74021 9.5 4.86739 9.5 5C9.5 5.13261 9.44732 5.25979 9.35355 5.35355C9.25979 5.44732 9.13261 5.5 9 5.5ZM13.5 13H11.5V6H13.5V13Z" fill="black"/>
</g>
<defs>
<clipPath id="clip0_5_1129">
<rect width="16" height="16" fill="white"/>
</clipPath>
</defs>
</svg>
