<svg width="16" height="16" viewBox="0 0 16 16" fill="none" xmlns="http://www.w3.org/2000/svg">
<g clip-path="url(#clip0_5_1133)">
<path d="M15 13H14.5V4.5C14.5 4.36739 14.4473 4.24021 14.3536 4.14645C14.2598 4.05268 14.1326 4 14 4H11.5V2.5C11.5 2.36739 11.4473 2.24021 11.3536 2.14645C11.2598 2.05268 11.1326 2 11 2H5C4.86739 2 4.74021 2.05268 4.64645 2.14645C4.55268 2.24021 4.5 2.36739 4.5 2.5V6H2C1.86739 6 1.74021 6.05268 1.64645 6.14645C1.55268 6.24021 1.5 6.36739 1.5 6.5V13H1C0.867392 13 0.740215 13.0527 0.646447 13.1464C0.552678 13.2402 0.5 13.3674 0.5 13.5C0.5 13.6326 0.552678 13.7598 0.646447 13.8536C0.740215 13.9473 0.867392 14 1 14H15C15.1326 14 15.2598 13.9473 15.3536 13.8536C15.4473 13.7598 15.5 13.6326 15.5 13.5C15.5 13.3674 15.4473 13.2402 15.3536 13.1464C15.2598 13.0527 15.1326 13 15 13ZM5 11H4C3.86739 11 3.74021 10.9473 3.64645 10.8536C3.55268 10.7598 3.5 10.6326 3.5 10.5C3.5 10.3674 3.55268 10.2402 3.64645 10.1464C3.74021 10.0527 3.86739 10 4 10H5C5.13261 10 5.25979 10.0527 5.35355 10.1464C5.44732 10.2402 5.5 10.3674 5.5 10.5C5.5 10.6326 5.44732 10.7598 5.35355 10.8536C5.25979 10.9473 5.13261 11 5 11ZM5 9H4C3.86739 9 3.74021 8.94732 3.64645 8.85355C3.55268 8.75979 3.5 8.63261 3.5 8.5C3.5 8.36739 3.55268 8.24021 3.64645 8.14645C3.74021 8.05268 3.86739 8 4 8H5C5.13261 8 5.25979 8.05268 5.35355 8.14645C5.44732 8.24021 5.5 8.36739 5.5 8.5C5.5 8.63261 5.44732 8.75979 5.35355 8.85355C5.25979 8.94732 5.13261 9 5 9ZM9 13H7V10.5H9V13ZM8.5 9H7.5C7.36739 9 7.24021 8.94732 7.14645 8.85355C7.05268 8.75979 7 8.63261 7 8.5C7 8.36739 7.05268 8.24021 7.14645 8.14645C7.24021 8.05268 7.36739 8 7.5 8H8.5C8.63261 8 8.75979 8.05268 8.85355 8.14645C8.94732 8.24021 9 8.36739 9 8.5C9 8.63261 8.94732 8.75979 8.85355 8.85355C8.75979 8.94732 8.63261 9 8.5 9ZM8.5 7H7.5C7.36739 7 7.24021 6.94732 7.14645 6.85355C7.05268 6.75979 7 6.63261 7 6.5C7 6.36739 7.05268 6.24021 7.14645 6.14645C7.24021 6.05268 7.36739 6 7.5 6H8.5C8.63261 6 8.75979 6.05268 8.85355 6.14645C8.94732 6.24021 9 6.36739 9 6.5C9 6.63261 8.94732 6.75979 8.85355 6.85355C8.75979 6.94732 8.63261 7 8.5 7ZM8.5 5H7.5C7.36739 5 7.24021 4.94732 7.14645 4.85355C7.05268 4.75979 7 4.63261 7 4.5C7 4.36739 7.05268 4.24021 7.14645 4.14645C7.24021 4.05268 7.36739 4 7.5 4H8.5C8.63261 4 8.75979 4.05268 8.85355 4.14645C8.94732 4.24021 9 4.36739 9 4.5C9 4.63261 8.94732 4.75979 8.85355 4.85355C8.75979 4.94732 8.63261 5 8.5 5ZM12 11H11C10.8674 11 10.7402 10.9473 10.6464 10.8536C10.5527 10.7598 10.5 10.6326 10.5 10.5C10.5 10.3674 10.5527 10.2402 10.6464 10.1464C10.7402 10.0527 10.8674 10 11 10H12C12.1326 10 12.2598 10.0527 12.3536 10.1464C12.4473 10.2402 12.5 10.3674 12.5 10.5C12.5 10.6326 12.4473 10.7598 12.3536 10.8536C12.2598 10.9473 12.1326 11 12 11ZM12 9H11C10.8674 9 10.7402 8.94732 10.6464 8.85355C10.5527 8.75979 10.5 8.63261 10.5 8.5C10.5 8.36739 10.5527 8.24021 10.6464 8.14645C10.7402 8.05268 10.8674 8 11 8H12C12.1326 8 12.2598 8.05268 12.3536 8.14645C12.4473 8.24021 12.5 8.36739 12.5 8.5C12.5 8.63261 12.4473 8.75979 12.3536 8.85355C12.2598 8.94732 12.1326 9 12 9ZM12 7H11C10.8674 7 10.7402 6.94732 10.6464 6.85355C10.5527 6.75979 10.5 6.63261 10.5 6.5C10.5 6.36739 10.5527 6.24021 10.6464 6.14645C10.7402 6.05268 10.8674 6 11 6H12C12.1326 6 12.2598 6.05268 12.3536 6.14645C12.4473 6.24021 12.5 6.36739 12.5 6.5C12.5 6.63261 12.4473 6.75979 12.3536 6.85355C12.2598 6.94732 12.1326 7 12 7Z" fill="black"/>
</g>
<defs>
<clipPath id="clip0_5_1133">
<rect width="16" height="16" fill="white"/>
</clipPath>
</defs>
</svg>
