<svg width="16" height="16" viewBox="0 0 16 16" fill="none" xmlns="http://www.w3.org/2000/svg">
<g clip-path="url(#clip0_5_1126)">
<path d="M14.9831 13H14V6.00001C14 5.7348 13.8946 5.48044 13.7071 5.2929C13.5196 5.10537 13.2652 5.00001 13 5.00001H10.25C10.1837 5.00001 10.1201 5.02635 10.0732 5.07323C10.0263 5.12012 10 5.18371 10 5.25001V13H9V2.02564C9.00166 1.86987 8.96785 1.71578 8.90115 1.57501C8.83445 1.43424 8.7366 1.3105 8.615 1.21314C8.44925 1.08391 8.247 1.01019 8.03697 1.00245C7.82694 0.994707 7.61981 1.05334 7.445 1.17001L2.445 4.50001C2.30784 4.59152 2.19543 4.71553 2.11779 4.861C2.04015 5.00647 1.99969 5.16887 2 5.33376V13H1.01687C0.887666 12.9981 0.762528 13.0452 0.666633 13.1318C0.570739 13.2184 0.511202 13.3382 0.5 13.4669C0.495459 13.5353 0.505028 13.6039 0.528114 13.6684C0.5512 13.733 0.58731 13.7921 0.634199 13.8421C0.681089 13.8921 0.737758 13.9319 0.800686 13.959C0.863613 13.9862 0.931456 14.0002 1 14H15C15.0685 14.0002 15.1364 13.9862 15.1993 13.959C15.2622 13.9319 15.3189 13.8921 15.3658 13.8421C15.4127 13.7921 15.4488 13.733 15.4719 13.6684C15.495 13.6039 15.5045 13.5353 15.5 13.4669C15.4888 13.3382 15.4293 13.2184 15.3334 13.1318C15.2375 13.0452 15.1123 12.9981 14.9831 13ZM4.75 11.5C4.75015 11.5686 4.73621 11.6364 4.70903 11.6993C4.68186 11.7623 4.64204 11.8189 4.59204 11.8658C4.54205 11.9127 4.48294 11.9488 4.4184 11.9719C4.35386 11.995 4.28527 12.0046 4.21688 12C4.08803 11.9888 3.96822 11.9292 3.88159 11.8331C3.79495 11.7371 3.74793 11.6118 3.75 11.4825V10.5169C3.74824 10.3877 3.79538 10.2627 3.88197 10.1668C3.96856 10.0709 4.08819 10.0114 4.21688 10C4.28527 9.99547 4.35386 10.005 4.4184 10.0281C4.48294 10.0512 4.54205 10.0873 4.59204 10.1342C4.64204 10.1811 4.68186 10.2378 4.70903 10.3007C4.73621 10.3636 4.75015 10.4315 4.75 10.5V11.5ZM4.75 8.00001C4.75015 8.06856 4.73621 8.1364 4.70903 8.19933C4.68186 8.26225 4.64204 8.31892 4.59204 8.36581C4.54205 8.4127 4.48294 8.44881 4.4184 8.4719C4.35386 8.49498 4.28527 8.50455 4.21688 8.50001C4.08808 8.48866 3.96836 8.42899 3.88176 8.333C3.79515 8.237 3.74808 8.11179 3.75 7.98251V7.01689C3.74824 6.88772 3.79538 6.76266 3.88197 6.6668C3.96856 6.57093 4.08819 6.51136 4.21688 6.50001C4.28527 6.49547 4.35386 6.50504 4.4184 6.52813C4.48294 6.55121 4.54205 6.58732 4.59204 6.63421C4.64204 6.6811 4.68186 6.73777 4.70903 6.8007C4.73621 6.86363 4.75015 6.93147 4.75 7.00001V8.00001ZM7.25 11.5C7.25015 11.5686 7.23621 11.6364 7.20903 11.6993C7.18186 11.7623 7.14204 11.8189 7.09204 11.8658C7.04205 11.9127 6.98294 11.9488 6.9184 11.9719C6.85386 11.995 6.78527 12.0046 6.71688 12C6.58825 11.9888 6.46862 11.9294 6.38202 11.8336C6.29541 11.7378 6.24825 11.6129 6.25 11.4838V10.5169C6.2484 10.3878 6.29561 10.2629 6.38219 10.1672C6.46876 10.0715 6.5883 10.012 6.71688 10.0006C6.78527 9.99609 6.85386 10.0057 6.9184 10.0288C6.98294 10.0518 7.04205 10.0879 7.09204 10.1348C7.14204 10.1817 7.18186 10.2384 7.20903 10.3013C7.23621 10.3643 7.25015 10.4321 7.25 10.5006V11.5ZM7.25 8.00001C7.25015 8.06856 7.23621 8.1364 7.20903 8.19933C7.18186 8.26225 7.14204 8.31892 7.09204 8.36581C7.04205 8.4127 6.98294 8.44881 6.9184 8.4719C6.85386 8.49498 6.78527 8.50455 6.71688 8.50001C6.5883 8.48867 6.46876 8.42918 6.38219 8.33345C6.29561 8.23772 6.2484 8.11282 6.25 7.98376V7.01689C6.2484 6.88783 6.29561 6.76292 6.38219 6.66719C6.46876 6.57146 6.5883 6.51197 6.71688 6.50064C6.78527 6.4961 6.85386 6.50566 6.9184 6.52875C6.98294 6.55184 7.04205 6.58795 7.09204 6.63484C7.14204 6.68173 7.18186 6.73839 7.20903 6.80132C7.23621 6.86425 7.25015 6.93209 7.25 7.00064V8.00001Z" fill="black"/>
</g>
<defs>
<clipPath id="clip0_5_1126">
<rect width="16" height="16" fill="white"/>
</clipPath>
</defs>
</svg>
