<svg width="16" height="16" viewBox="0 0 16 16" fill="none" xmlns="http://www.w3.org/2000/svg">
<g clip-path="url(#clip0_5_1553)">
<path d="M14.5 14H13V2H13.5C13.6326 2 13.7598 1.94732 13.8536 1.85355C13.9473 1.75979 14 1.63261 14 1.5C14 1.36739 13.9473 1.24021 13.8536 1.14645C13.7598 1.05268 13.6326 1 13.5 1H2.5C2.36739 1 2.24021 1.05268 2.14645 1.14645C2.05268 1.24021 2 1.36739 2 1.5C2 1.63261 2.05268 1.75979 2.14645 1.85355C2.24021 1.94732 2.36739 2 2.5 2H3V14H1.5C1.36739 14 1.24021 14.0527 1.14645 14.1464C1.05268 14.2402 1 14.3674 1 14.5C1 14.6326 1.05268 14.7598 1.14645 14.8536C1.24021 14.9473 1.36739 15 1.5 15H14.5C14.6326 15 14.7598 14.9473 14.8536 14.8536C14.9473 14.7598 15 14.6326 15 14.5C15 14.3674 14.9473 14.2402 14.8536 14.1464C14.7598 14.0527 14.6326 14 14.5 14ZM5.5 3.5H7C7.13261 3.5 7.25979 3.55268 7.35355 3.64645C7.44732 3.74021 7.5 3.86739 7.5 4C7.5 4.13261 7.44732 4.25979 7.35355 4.35355C7.25979 4.44732 7.13261 4.5 7 4.5H5.5C5.36739 4.5 5.24021 4.44732 5.14645 4.35355C5.05268 4.25979 5 4.13261 5 4C5 3.86739 5.05268 3.74021 5.14645 3.64645C5.24021 3.55268 5.36739 3.5 5.5 3.5ZM5.5 6H7C7.13261 6 7.25979 6.05268 7.35355 6.14645C7.44732 6.24021 7.5 6.36739 7.5 6.5C7.5 6.63261 7.44732 6.75979 7.35355 6.85355C7.25979 6.94732 7.13261 7 7 7H5.5C5.36739 7 5.24021 6.94732 5.14645 6.85355C5.05268 6.75979 5 6.63261 5 6.5C5 6.36739 5.05268 6.24021 5.14645 6.14645C5.24021 6.05268 5.36739 6 5.5 6ZM5 9C5 8.86739 5.05268 8.74021 5.14645 8.64645C5.24021 8.55268 5.36739 8.5 5.5 8.5H7C7.13261 8.5 7.25979 8.55268 7.35355 8.64645C7.44732 8.74021 7.5 8.86739 7.5 9C7.5 9.13261 7.44732 9.25979 7.35355 9.35355C7.25979 9.44732 7.13261 9.5 7 9.5H5.5C5.36739 9.5 5.24021 9.44732 5.14645 9.35355C5.05268 9.25979 5 9.13261 5 9ZM9.5 14H6.5V11.5H9.5V14ZM10.5 9.5H9C8.86739 9.5 8.74021 9.44732 8.64645 9.35355C8.55268 9.25979 8.5 9.13261 8.5 9C8.5 8.86739 8.55268 8.74021 8.64645 8.64645C8.74021 8.55268 8.86739 8.5 9 8.5H10.5C10.6326 8.5 10.7598 8.55268 10.8536 8.64645C10.9473 8.74021 11 8.86739 11 9C11 9.13261 10.9473 9.25979 10.8536 9.35355C10.7598 9.44732 10.6326 9.5 10.5 9.5ZM10.5 7H9C8.86739 7 8.74021 6.94732 8.64645 6.85355C8.55268 6.75979 8.5 6.63261 8.5 6.5C8.5 6.36739 8.55268 6.24021 8.64645 6.14645C8.74021 6.05268 8.86739 6 9 6H10.5C10.6326 6 10.7598 6.05268 10.8536 6.14645C10.9473 6.24021 11 6.36739 11 6.5C11 6.63261 10.9473 6.75979 10.8536 6.85355C10.7598 6.94732 10.6326 7 10.5 7ZM10.5 4.5H9C8.86739 4.5 8.74021 4.44732 8.64645 4.35355C8.55268 4.25979 8.5 4.13261 8.5 4C8.5 3.86739 8.55268 3.74021 8.64645 3.64645C8.74021 3.55268 8.86739 3.5 9 3.5H10.5C10.6326 3.5 10.7598 3.55268 10.8536 3.64645C10.9473 3.74021 11 3.86739 11 4C11 4.13261 10.9473 4.25979 10.8536 4.35355C10.7598 4.44732 10.6326 4.5 10.5 4.5Z" fill="black"/>
</g>
<defs>
<clipPath id="clip0_5_1553">
<rect width="16" height="16" fill="white"/>
</clipPath>
</defs>
</svg>
