<svg width="16" height="16" viewBox="0 0 16 16" fill="none" xmlns="http://www.w3.org/2000/svg">
<g clip-path="url(#clip0_5_1384)">
<path d="M15.5 12.5H15C14.8674 12.5 14.7402 12.4473 14.6464 12.3536C14.5527 12.2598 14.5 12.1326 14.5 12V10C14.5 9.86739 14.5527 9.74021 14.6464 9.64645C14.7402 9.55268 14.8674 9.5 15 9.5H15.5C15.6326 9.5 15.7598 9.44732 15.8536 9.35355C15.9473 9.25979 16 9.13261 16 9C16 8.86739 15.9473 8.74021 15.8536 8.64645C15.7598 8.55268 15.6326 8.5 15.5 8.5H15C14.6022 8.5 14.2206 8.65804 13.9393 8.93934C13.658 9.22064 13.5 9.60218 13.5 10V10.5H12.45C12.3455 9.99358 12.087 9.53187 11.7098 9.17817C11.3326 8.82448 10.8552 8.59611 10.3431 8.52437L8.09 3.11562C8.0141 2.93333 7.88593 2.77759 7.72165 2.66804C7.55737 2.55848 7.36434 2.50001 7.16688 2.5H1.5C1.23478 2.5 0.980431 2.60536 0.792894 2.79289C0.605358 2.98043 0.500001 3.23478 0.500001 3.5V9.5C0.221433 9.87142 0.0517978 10.3131 0.0101029 10.7755C-0.031592 11.2379 0.056301 11.7028 0.263933 12.118C0.471565 12.5333 0.790733 12.8825 1.18567 13.1266C1.58061 13.3707 2.03572 13.5 2.5 13.5H10C10.5761 13.4993 11.1344 13.3 11.5806 12.9357C12.0269 12.5714 12.334 12.0643 12.45 11.5H13.5V12C13.5 12.3978 13.658 12.7794 13.9393 13.0607C14.2206 13.342 14.6022 13.5 15 13.5H15.5C15.6326 13.5 15.7598 13.4473 15.8536 13.3536C15.9473 13.2598 16 13.1326 16 13C16 12.8674 15.9473 12.7402 15.8536 12.6464C15.7598 12.5527 15.6326 12.5 15.5 12.5ZM4 3.5H7.16688L9.25 8.5H4V3.5ZM1.5 3.5H3V8.5H2.5C2.15576 8.4997 1.81521 8.571 1.5 8.70938V3.5ZM10 11.5H2.5C2.36739 11.5 2.24022 11.4473 2.14645 11.3536C2.05268 11.2598 2 11.1326 2 11C2 10.8674 2.05268 10.7402 2.14645 10.6464C2.24022 10.5527 2.36739 10.5 2.5 10.5H10C10.1326 10.5 10.2598 10.5527 10.3536 10.6464C10.4473 10.7402 10.5 10.8674 10.5 11C10.5 11.1326 10.4473 11.2598 10.3536 11.3536C10.2598 11.4473 10.1326 11.5 10 11.5Z" fill="black"/>
</g>
<defs>
<clipPath id="clip0_5_1384">
<rect width="16" height="16" fill="white"/>
</clipPath>
</defs>
</svg>
