<svg width="16" height="16" viewBox="0 0 16 16" fill="none" xmlns="http://www.w3.org/2000/svg">
<g clip-path="url(#clip0_5_1377)">
<path d="M15.5 5V6.5C15.5 6.63261 15.4473 6.75979 15.3536 6.85355C15.2598 6.94732 15.1326 7 15 7C14.8674 7 14.7402 6.94732 14.6464 6.85355C14.5527 6.75979 14.5 6.63261 14.5 6.5V5C14.5 4.86739 14.5527 4.74021 14.6464 4.64645C14.7402 4.55268 14.8674 4.5 15 4.5C15.1326 4.5 15.2598 4.55268 15.3536 4.64645C15.4473 4.74021 15.5 4.86739 15.5 5ZM1 4.5C0.867392 4.5 0.740215 4.55268 0.646447 4.64645C0.552678 4.74021 0.5 4.86739 0.5 5V6.5C0.5 6.63261 0.552678 6.75979 0.646447 6.85355C0.740215 6.94732 0.867392 7 1 7C1.13261 7 1.25979 6.94732 1.35355 6.85355C1.44732 6.75979 1.5 6.63261 1.5 6.5V5C1.5 4.86739 1.44732 4.74021 1.35355 4.64645C1.25979 4.55268 1.13261 4.5 1 4.5ZM13.5 4V13C13.5 13.2652 13.3946 13.5196 13.2071 13.7071C13.0196 13.8946 12.7652 14 12.5 14H11.5C11.2348 14 10.9804 13.8946 10.7929 13.7071C10.6054 13.5196 10.5 13.2652 10.5 13V12.5H5.5V13C5.5 13.2652 5.39464 13.5196 5.20711 13.7071C5.01957 13.8946 4.76522 14 4.5 14H3.5C3.23478 14 2.98043 13.8946 2.79289 13.7071C2.60536 13.5196 2.5 13.2652 2.5 13V4C2.5 3.46957 2.71071 2.96086 3.08579 2.58579C3.46086 2.21071 3.96957 2 4.5 2H11.5C12.0304 2 12.5391 2.21071 12.9142 2.58579C13.2893 2.96086 13.5 3.46957 13.5 4ZM6.5 9.25C6.5 9.10166 6.45601 8.95666 6.3736 8.83332C6.29119 8.70999 6.17406 8.61386 6.03701 8.55709C5.89997 8.50033 5.74917 8.48547 5.60368 8.51441C5.4582 8.54335 5.32456 8.61478 5.21967 8.71967C5.11478 8.82456 5.04335 8.9582 5.01441 9.10368C4.98547 9.24917 5.00032 9.39997 5.05709 9.53701C5.11386 9.67406 5.20999 9.79119 5.33332 9.8736C5.45666 9.95601 5.60166 10 5.75 10C5.94891 10 6.13968 9.92098 6.28033 9.78033C6.42098 9.63968 6.5 9.44891 6.5 9.25ZM11 9.25C11 9.10166 10.956 8.95666 10.8736 8.83332C10.7912 8.70999 10.6741 8.61386 10.537 8.55709C10.4 8.50033 10.2492 8.48547 10.1037 8.51441C9.9582 8.54335 9.82456 8.61478 9.71967 8.71967C9.61478 8.82456 9.54335 8.9582 9.51441 9.10368C9.48547 9.24917 9.50033 9.39997 9.55709 9.53701C9.61386 9.67406 9.70999 9.79119 9.83332 9.8736C9.95666 9.95601 10.1017 10 10.25 10C10.4489 10 10.6397 9.92098 10.7803 9.78033C10.921 9.63968 11 9.44891 11 9.25ZM12.5 4.5H3.5V7H12.5V4.5Z" fill="black"/>
</g>
<defs>
<clipPath id="clip0_5_1377">
<rect width="16" height="16" fill="white"/>
</clipPath>
</defs>
</svg>
