<svg width="16" height="16" viewBox="0 0 16 16" fill="none" xmlns="http://www.w3.org/2000/svg">
<g clip-path="url(#clip0_5_1124)">
<path d="M8.00001 6.26062C7.85173 5.98609 7.68466 5.72213 7.50001 5.47062V3.5C7.50001 3.36739 7.55269 3.24021 7.64645 3.14645C7.74022 3.05268 7.8674 3 8.00001 3C8.13262 3 8.25979 3.05268 8.35356 3.14645C8.44733 3.24021 8.50001 3.36739 8.50001 3.5V5.47062C8.31535 5.72213 8.14829 5.98609 8.00001 6.26062ZM14.5438 3.155C14.3125 2.85625 13.865 2.5 13.0625 2.5C12.0094 2.5 10.6588 3.205 9.44938 4.385C9.10361 4.72015 8.78607 5.08326 8.50001 5.47062V11.25C8.50001 11.3826 8.44733 11.5098 8.35356 11.6036C8.25979 11.6973 8.13262 11.75 8.00001 11.75C7.8674 11.75 7.74022 11.6973 7.64645 11.6036C7.55269 11.5098 7.50001 11.3826 7.50001 11.25V5.47062C7.21474 5.08335 6.89805 4.72025 6.55313 4.385C5.34313 3.205 3.99251 2.5 2.93751 2.5C2.13501 2.5 1.68751 2.85625 1.45626 3.155C1.03001 3.70312 0.695008 4.66 1.44313 7.605C1.82126 9.09438 2.66251 9.6675 3.35751 9.88125C2.9785 10.4967 2.85701 11.2366 3.01934 11.9409C3.18166 12.6452 3.61474 13.2573 4.22488 13.6448C4.83503 14.0322 5.57319 14.1639 6.27968 14.0113C6.98616 13.8587 7.60417 13.4341 8.00001 12.8294C8.39585 13.4341 9.01385 13.8587 9.72034 14.0113C10.4268 14.1639 11.165 14.0322 11.7751 13.6448C12.3853 13.2573 12.8184 12.6452 12.9807 11.9409C13.143 11.2366 13.0215 10.4967 12.6425 9.88125C13.3375 9.66875 14.1781 9.09438 14.5569 7.605C14.9769 5.9525 15.3031 4.13125 14.5438 3.155Z" fill="black"/>
</g>
<defs>
<clipPath id="clip0_5_1124">
<rect width="16" height="16" fill="white"/>
</clipPath>
</defs>
</svg>
