<svg width="16" height="16" viewBox="0 0 16 16" fill="none" xmlns="http://www.w3.org/2000/svg">
<g clip-path="url(#clip0_5_1121)">
<path d="M15.4917 1.9119C15.4683 1.78149 15.394 1.66571 15.2853 1.59001C15.1765 1.5143 15.0422 1.48486 14.9117 1.50815L0.911709 4.00815C0.789067 4.03053 0.67921 4.09792 0.60368 4.1971C0.528149 4.29628 0.492395 4.4201 0.503428 4.54428C0.51446 4.66846 0.571485 4.78403 0.663318 4.86835C0.755151 4.95266 0.875168 4.99962 0.999834 5.00003C1.02957 4.99999 1.05926 4.99748 1.08858 4.99253L7.49983 3.84753V6.00003H3.99983C3.4694 6.00003 2.96069 6.21074 2.58562 6.58581C2.21055 6.96089 1.99983 7.46959 1.99983 8.00003V12C1.99983 12.5305 2.21055 13.0392 2.58562 13.4142C2.96069 13.7893 3.4694 14 3.99983 14H11.9998C12.5303 14 13.039 13.7893 13.414 13.4142C13.7891 13.0392 13.9998 12.5305 13.9998 12V8.00003C13.9998 7.46959 13.7891 6.96089 13.414 6.58581C13.039 6.21074 12.5303 6.00003 11.9998 6.00003H8.49983V3.66878L15.0873 2.49253C15.152 2.481 15.2138 2.45682 15.2692 2.42139C15.3245 2.38596 15.3723 2.33997 15.4099 2.28604C15.4474 2.23212 15.474 2.17131 15.488 2.10712C15.5021 2.04292 15.5033 1.97658 15.4917 1.9119ZM6.49983 10V7.00003H9.49983V10H6.49983ZM3.99983 7.00003H5.49983V10H2.99983V8.00003C2.99983 7.73481 3.10519 7.48046 3.29273 7.29292C3.48026 7.10539 3.73462 7.00003 3.99983 7.00003ZM12.9998 8.00003V10H10.4998V7.00003H11.9998C12.2651 7.00003 12.5194 7.10539 12.7069 7.29292C12.8945 7.48046 12.9998 7.73481 12.9998 8.00003Z" fill="black"/>
</g>
<defs>
<clipPath id="clip0_5_1121">
<rect width="16" height="16" fill="white"/>
</clipPath>
</defs>
</svg>
