<svg width="16" height="16" viewBox="0 0 16 16" fill="none" xmlns="http://www.w3.org/2000/svg">
<g clip-path="url(#clip0_5_1371)">
<path d="M14 13.5C14 13.6326 13.9473 13.7598 13.8536 13.8536C13.7598 13.9473 13.6326 14 13.5 14H2.5C2.36739 14 2.24021 13.9473 2.14645 13.8536C2.05268 13.7598 2 13.6326 2 13.5C2 13.3674 2.05268 13.2402 2.14645 13.1464C2.24021 13.0527 2.36739 13 2.5 13H5.5V8.5H5C3.93949 8.49884 2.92275 8.07704 2.17285 7.32715C1.42296 6.57725 1.00116 5.56051 1 4.5C1.00116 4.10167 1.16025 3.72005 1.44239 3.43885C1.72452 3.15766 2.10666 2.99983 2.505 3H2.53C2.91972 3.0005 3.29333 3.15553 3.5689 3.4311C3.84447 3.70667 3.9995 4.08028 4 4.47V4.5C4 4.76522 4.10536 5.01957 4.29289 5.20711C4.48043 5.39464 4.73478 5.5 5 5.5H5.5V3.5C5.5 2.83696 5.76339 2.20107 6.23223 1.73223C6.70107 1.26339 7.33696 1 8 1C8.66304 1 9.29893 1.26339 9.76777 1.73223C10.2366 2.20107 10.5 2.83696 10.5 3.5V8H11C11.2652 8 11.5196 7.89464 11.7071 7.70711C11.8946 7.51957 12 7.26522 12 7V6.97C12.0005 6.58028 12.1555 6.20667 12.4311 5.9311C12.7067 5.65553 13.0803 5.5005 13.47 5.5H13.495C13.8933 5.49983 14.2755 5.65766 14.5576 5.93885C14.8397 6.22005 14.9988 6.60167 15 7C14.9988 8.06051 14.577 9.07725 13.8271 9.82715C13.0773 10.577 12.0605 10.9988 11 11H10.5V13H13.5C13.6326 13 13.7598 13.0527 13.8536 13.1464C13.9473 13.2402 14 13.3674 14 13.5Z" fill="black"/>
</g>
<defs>
<clipPath id="clip0_5_1371">
<rect width="16" height="16" fill="white"/>
</clipPath>
</defs>
</svg>
