<svg width="16" height="16" viewBox="0 0 16 16" fill="none" xmlns="http://www.w3.org/2000/svg">
<g clip-path="url(#clip0_5_1267)">
<path d="M13 5.50002H8.5V4.93752C8.92916 4.82605 9.30923 4.57538 9.58066 4.22477C9.8521 3.87416 9.99958 3.44342 10 3.00002C10 1.25002 8.3475 0.130645 8.2775 0.0837696C8.19533 0.0289502 8.09877 -0.000305176 8 -0.000305176C7.90123 -0.000305176 7.80467 0.0289502 7.7225 0.0837696C7.6525 0.130645 6 1.25002 6 3.00002C6.00042 3.44342 6.1479 3.87416 6.41934 4.22477C6.69077 4.57538 7.07084 4.82605 7.5 4.93752V5.50002H3C2.60218 5.50002 2.22064 5.65805 1.93934 5.93936C1.65804 6.22066 1.5 6.60219 1.5 7.00002V8.45815C1.50051 9.0036 1.67574 9.53454 2 9.97315V12.5C2 12.8978 2.15804 13.2794 2.43934 13.5607C2.72064 13.842 3.10218 14 3.5 14H12.5C12.8978 14 13.2794 13.842 13.5607 13.5607C13.842 13.2794 14 12.8978 14 12.5V9.97315C14.3243 9.53454 14.4995 9.0036 14.5 8.45815V7.00002C14.5 6.60219 14.342 6.22066 14.0607 5.93936C13.7794 5.65805 13.3978 5.50002 13 5.50002ZM7 3.00002C7 2.15189 7.625 1.47127 8 1.13814C8.375 1.47127 9 2.15189 9 3.00002C9 3.26524 8.89464 3.51959 8.70711 3.70713C8.51957 3.89466 8.26522 4.00002 8 4.00002C7.73478 4.00002 7.48043 3.89466 7.29289 3.70713C7.10536 3.51959 7 3.26524 7 3.00002ZM13.5 8.45815C13.5 9.28627 12.8462 9.97752 12.0425 9.9994C11.842 10.0051 11.6424 9.9705 11.4556 9.8977C11.2687 9.82491 11.0983 9.71538 10.9545 9.57559C10.8107 9.43579 10.6964 9.26858 10.6183 9.08384C10.5402 8.8991 10.5 8.70058 10.5 8.50002C10.5 8.36741 10.4473 8.24023 10.3536 8.14647C10.2598 8.0527 10.1326 8.00002 10 8.00002C9.86739 8.00002 9.74021 8.0527 9.64645 8.14647C9.55268 8.24023 9.5 8.36741 9.5 8.50002C9.5 8.89784 9.34196 9.27938 9.06066 9.56068C8.77936 9.84198 8.39782 10 8 10C7.60218 10 7.22064 9.84198 6.93934 9.56068C6.65804 9.27938 6.5 8.89784 6.5 8.50002C6.5 8.36741 6.44732 8.24023 6.35355 8.14647C6.25979 8.0527 6.13261 8.00002 6 8.00002C5.86739 8.00002 5.74021 8.0527 5.64645 8.14647C5.55268 8.24023 5.5 8.36741 5.5 8.50002C5.50008 8.70063 5.45992 8.89922 5.38189 9.08403C5.30387 9.26885 5.18956 9.43614 5.04574 9.57599C4.90192 9.71585 4.73151 9.82544 4.54459 9.89827C4.35766 9.97111 4.15803 10.0057 3.9575 10C3.15375 9.97752 2.5 9.28627 2.5 8.45815V7.00002C2.5 6.86741 2.55268 6.74023 2.64645 6.64647C2.74021 6.5527 2.86739 6.50002 3 6.50002H13C13.1326 6.50002 13.2598 6.5527 13.3536 6.64647C13.4473 6.74023 13.5 6.86741 13.5 7.00002V8.45815Z" fill="black"/>
</g>
<defs>
<clipPath id="clip0_5_1267">
<rect width="16" height="16" fill="white"/>
</clipPath>
</defs>
</svg>
