<svg width="16" height="16" viewBox="0 0 16 16" fill="none" xmlns="http://www.w3.org/2000/svg">
<g clip-path="url(#clip0_5_1262)">
<path d="M12.5 1.5H3.5C3.23478 1.5 2.98043 1.60536 2.79289 1.79289C2.60536 1.98043 2.5 2.23478 2.5 2.5V13.5C2.5 13.7652 2.60536 14.0196 2.79289 14.2071C2.98043 14.3946 3.23478 14.5 3.5 14.5H12.5C12.7652 14.5 13.0196 14.3946 13.2071 14.2071C13.3946 14.0196 13.5 13.7652 13.5 13.5V2.5C13.5 2.23478 13.3946 1.98043 13.2071 1.79289C13.0196 1.60536 12.7652 1.5 12.5 1.5ZM5.5 12.5C5.35166 12.5 5.20666 12.456 5.08332 12.3736C4.95999 12.2912 4.86386 12.1741 4.80709 12.037C4.75032 11.9 4.73547 11.7492 4.76441 11.6037C4.79335 11.4582 4.86478 11.3246 4.96967 11.2197C5.07456 11.1148 5.2082 11.0434 5.35368 11.0144C5.49917 10.9855 5.64997 11.0003 5.78701 11.0571C5.92406 11.1139 6.04119 11.21 6.1236 11.3333C6.20601 11.4567 6.25 11.6017 6.25 11.75C6.25 11.9489 6.17098 12.1397 6.03033 12.2803C5.88968 12.421 5.69891 12.5 5.5 12.5ZM5.5 10C5.35166 10 5.20666 9.95601 5.08332 9.8736C4.95999 9.79119 4.86386 9.67406 4.80709 9.53701C4.75032 9.39997 4.73547 9.24917 4.76441 9.10368C4.79335 8.9582 4.86478 8.82456 4.96967 8.71967C5.07456 8.61478 5.2082 8.54335 5.35368 8.51441C5.49917 8.48547 5.64997 8.50033 5.78701 8.55709C5.92406 8.61386 6.04119 8.70999 6.1236 8.83332C6.20601 8.95666 6.25 9.10166 6.25 9.25C6.25 9.44891 6.17098 9.63968 6.03033 9.78033C5.88968 9.92098 5.69891 10 5.5 10ZM8 12.5C7.85166 12.5 7.70666 12.456 7.58332 12.3736C7.45999 12.2912 7.36386 12.1741 7.30709 12.037C7.25032 11.9 7.23547 11.7492 7.26441 11.6037C7.29335 11.4582 7.36478 11.3246 7.46967 11.2197C7.57456 11.1148 7.7082 11.0434 7.85368 11.0144C7.99917 10.9855 8.14997 11.0003 8.28701 11.0571C8.42406 11.1139 8.54119 11.21 8.6236 11.3333C8.70601 11.4567 8.75 11.6017 8.75 11.75C8.75 11.9489 8.67098 12.1397 8.53033 12.2803C8.38968 12.421 8.19891 12.5 8 12.5ZM8 10C7.85166 10 7.70666 9.95601 7.58332 9.8736C7.45999 9.79119 7.36386 9.67406 7.30709 9.53701C7.25032 9.39997 7.23547 9.24917 7.26441 9.10368C7.29335 8.9582 7.36478 8.82456 7.46967 8.71967C7.57456 8.61478 7.7082 8.54335 7.85368 8.51441C7.99917 8.48547 8.14997 8.50033 8.28701 8.55709C8.42406 8.61386 8.54119 8.70999 8.6236 8.83332C8.70601 8.95666 8.75 9.10166 8.75 9.25C8.75 9.44891 8.67098 9.63968 8.53033 9.78033C8.38968 9.92098 8.19891 10 8 10ZM10.5 12.5C10.3517 12.5 10.2067 12.456 10.0833 12.3736C9.95999 12.2912 9.86386 12.1741 9.80709 12.037C9.75033 11.9 9.73547 11.7492 9.76441 11.6037C9.79335 11.4582 9.86478 11.3246 9.96967 11.2197C10.0746 11.1148 10.2082 11.0434 10.3537 11.0144C10.4992 10.9855 10.65 11.0003 10.787 11.0571C10.9241 11.1139 11.0412 11.21 11.1236 11.3333C11.206 11.4567 11.25 11.6017 11.25 11.75C11.25 11.9489 11.171 12.1397 11.0303 12.2803C10.8897 12.421 10.6989 12.5 10.5 12.5ZM10.5 10C10.3517 10 10.2067 9.95601 10.0833 9.8736C9.95999 9.79119 9.86386 9.67406 9.80709 9.53701C9.75033 9.39997 9.73547 9.24917 9.76441 9.10368C9.79335 8.9582 9.86478 8.82456 9.96967 8.71967C10.0746 8.61478 10.2082 8.54335 10.3537 8.51441C10.4992 8.48547 10.65 8.50033 10.787 8.55709C10.9241 8.61386 11.0412 8.70999 11.1236 8.83332C11.206 8.95666 11.25 9.10166 11.25 9.25C11.25 9.44891 11.171 9.63968 11.0303 9.78033C10.8897 9.92098 10.6989 10 10.5 10ZM11.5 6.5C11.5 6.63261 11.4473 6.75979 11.3536 6.85355C11.2598 6.94732 11.1326 7 11 7H5C4.86739 7 4.74021 6.94732 4.64645 6.85355C4.55268 6.75979 4.5 6.63261 4.5 6.5V4C4.5 3.86739 4.55268 3.74021 4.64645 3.64645C4.74021 3.55268 4.86739 3.5 5 3.5H11C11.1326 3.5 11.2598 3.55268 11.3536 3.64645C11.4473 3.74021 11.5 3.86739 11.5 4V6.5Z" fill="black"/>
</g>
<defs>
<clipPath id="clip0_5_1262">
<rect width="16" height="16" fill="white"/>
</clipPath>
</defs>
</svg>
