<svg width="16" height="16" viewBox="0 0 16 16" fill="none" xmlns="http://www.w3.org/2000/svg">
<g clip-path="url(#clip0_5_1218)">
<path d="M14 3.00002V11.7231C14.0007 11.7742 13.9857 11.8243 13.9571 11.8666C13.9285 11.9089 13.8876 11.9414 13.84 11.9598C13.7923 11.9782 13.7402 11.9815 13.6906 11.9694C13.641 11.9573 13.5963 11.9302 13.5625 11.8919L7.3 5.00002H13V3.00002H11.5V3.50002C11.5001 3.56851 11.4862 3.63629 11.4591 3.69918C11.4319 3.76206 11.3922 3.8187 11.3423 3.86558C11.2923 3.91246 11.2333 3.94858 11.1688 3.97171C11.1044 3.99484 11.0358 4.00447 10.9675 4.00002C10.8387 3.98897 10.7188 3.9295 10.632 3.83358C10.5453 3.73767 10.4981 3.61245 10.5 3.48314V3.00002H5.48187L4.95312 2.41814C4.92041 2.38215 4.89891 2.33739 4.89125 2.28936C4.8836 2.24132 4.89012 2.1921 4.91002 2.14771C4.92993 2.10333 4.96234 2.06572 5.0033 2.03949C5.04426 2.01325 5.09199 1.99954 5.14062 2.00002H10.5V1.50002C10.4999 1.43153 10.5138 1.36375 10.5409 1.30086C10.5681 1.23798 10.6078 1.18134 10.6577 1.13446C10.7077 1.08758 10.7667 1.05146 10.8312 1.02833C10.8956 1.0052 10.9642 0.995568 11.0325 1.00002C11.1613 1.01107 11.2812 1.07054 11.368 1.16645C11.4547 1.26237 11.5019 1.38759 11.5 1.51689V2.00002H13C13.2652 2.00002 13.5196 2.10538 13.7071 2.29291C13.8946 2.48045 14 2.7348 14 3.00002ZM13.37 13.1638C13.4351 13.2354 13.478 13.3245 13.4935 13.4201C13.509 13.5157 13.4964 13.6138 13.4572 13.7023C13.418 13.7909 13.3539 13.8662 13.2728 13.919C13.1916 13.9719 13.0969 14 13 14H3C2.73478 14 2.48043 13.8947 2.29289 13.7071C2.10536 13.5196 2 13.2652 2 13V3.00002C2 2.7348 2.10536 2.48045 2.29289 2.29291C2.48043 2.10538 2.73478 2.00002 3 2.00002C3.06978 1.99994 3.13881 2.01447 3.20264 2.04267C3.26647 2.07087 3.3237 2.11212 3.37063 2.16377L13.37 13.1638ZM4.59688 5.00002L3 3.24314V5.00002H4.59688Z" fill="black"/>
</g>
<defs>
<clipPath id="clip0_5_1218">
<rect width="16" height="16" fill="white"/>
</clipPath>
</defs>
</svg>
