<svg width="16" height="16" viewBox="0 0 16 16" fill="none" xmlns="http://www.w3.org/2000/svg">
<g clip-path="url(#clip0_5_1236)">
<path d="M13 2H11.5V1.5C11.5 1.36739 11.4473 1.24021 11.3536 1.14645C11.2598 1.05268 11.1326 1 11 1C10.8674 1 10.7402 1.05268 10.6464 1.14645C10.5527 1.24021 10.5 1.36739 10.5 1.5V2H5.5V1.5C5.5 1.36739 5.44732 1.24021 5.35355 1.14645C5.25979 1.05268 5.13261 1 5 1C4.86739 1 4.74021 1.05268 4.64645 1.14645C4.55268 1.24021 4.5 1.36739 4.5 1.5V2H3C2.73478 2 2.48043 2.10536 2.29289 2.29289C2.10536 2.48043 2 2.73478 2 3V13C2 13.2652 2.10536 13.5196 2.29289 13.7071C2.48043 13.8946 2.73478 14 3 14H13C13.2652 14 13.5196 13.8946 13.7071 13.7071C13.8946 13.5196 14 13.2652 14 13V3C14 2.73478 13.8946 2.48043 13.7071 2.29289C13.5196 2.10536 13.2652 2 13 2ZM4.5 4V3.5C4.5 3.36739 4.55268 3.24021 4.64645 3.14645C4.74021 3.05268 4.86739 3 5 3C5.13261 3 5.25979 3.05268 5.35355 3.14645C5.44732 3.24021 5.5 3.36739 5.5 3.5V4C5.5 4.13261 5.44732 4.25979 5.35355 4.35355C5.25979 4.44732 5.13261 4.5 5 4.5C4.86739 4.5 4.74021 4.44732 4.64645 4.35355C4.55268 4.25979 4.5 4.13261 4.5 4ZM9.66 10.4419C9.18112 10.8386 8.66229 11.1844 8.11187 11.4738C8.07714 11.4911 8.03884 11.5002 8 11.5002C7.96116 11.5002 7.92286 11.4911 7.88812 11.4738C7.33771 11.1844 6.81888 10.8386 6.34 10.4419C5.285 9.5625 4.75 8.65688 4.75 7.75C4.75017 7.36745 4.87568 6.9955 5.10733 6.69106C5.33898 6.38662 5.664 6.16648 6.03266 6.06432C6.40132 5.96216 6.79329 5.98361 7.14859 6.12539C7.5039 6.26718 7.80296 6.52148 8 6.84937C8.19704 6.52148 8.4961 6.26718 8.85141 6.12539C9.20671 5.98361 9.59868 5.96216 9.96734 6.06432C10.336 6.16648 10.661 6.38662 10.8927 6.69106C11.1243 6.9955 11.2498 7.36745 11.25 7.75C11.25 8.65688 10.715 9.5625 9.66 10.4419ZM11.5 4C11.5 4.13261 11.4473 4.25979 11.3536 4.35355C11.2598 4.44732 11.1326 4.5 11 4.5C10.8674 4.5 10.7402 4.44732 10.6464 4.35355C10.5527 4.25979 10.5 4.13261 10.5 4V3.5C10.5 3.36739 10.5527 3.24021 10.6464 3.14645C10.7402 3.05268 10.8674 3 11 3C11.1326 3 11.2598 3.05268 11.3536 3.14645C11.4473 3.24021 11.5 3.36739 11.5 3.5V4Z" fill="black"/>
</g>
<defs>
<clipPath id="clip0_5_1236">
<rect width="16" height="16" fill="white"/>
</clipPath>
</defs>
</svg>
