<svg width="16" height="16" viewBox="0 0 16 16" fill="none" xmlns="http://www.w3.org/2000/svg">
<g clip-path="url(#clip0_5_1256)">
<path d="M13 2H11.5V1.5C11.5 1.36739 11.4473 1.24021 11.3536 1.14645C11.2598 1.05268 11.1326 1 11 1C10.8674 1 10.7402 1.05268 10.6464 1.14645C10.5527 1.24021 10.5 1.36739 10.5 1.5V2H5.5V1.5C5.5 1.36739 5.44732 1.24021 5.35355 1.14645C5.25979 1.05268 5.13261 1 5 1C4.86739 1 4.74021 1.05268 4.64645 1.14645C4.55268 1.24021 4.5 1.36739 4.5 1.5V2H3C2.73478 2 2.48043 2.10536 2.29289 2.29289C2.10536 2.48043 2 2.73478 2 3V13C2 13.2652 2.10536 13.5196 2.29289 13.7071C2.48043 13.8946 2.73478 14 3 14H13C13.2652 14 13.5196 13.8946 13.7071 13.7071C13.8946 13.5196 14 13.2652 14 13V3C14 2.73478 13.8946 2.48043 13.7071 2.29289C13.5196 2.10536 13.2652 2 13 2ZM10.6038 8.35375L7.60375 11.3538C7.55731 11.4002 7.50217 11.4371 7.44147 11.4623C7.38077 11.4874 7.31571 11.5004 7.25 11.5004C7.18429 11.5004 7.11923 11.4874 7.05853 11.4623C6.99783 11.4371 6.94269 11.4002 6.89625 11.3538L5.39625 9.85375C5.30243 9.75993 5.24972 9.63268 5.24972 9.5C5.24972 9.36732 5.30243 9.24007 5.39625 9.14625C5.49007 9.05243 5.61732 8.99972 5.75 8.99972C5.88268 8.99972 6.00993 9.05243 6.10375 9.14625L7.25 10.2931L9.89625 7.64625C9.9427 7.59979 9.99786 7.56294 10.0586 7.5378C10.1192 7.51266 10.1843 7.49972 10.25 7.49972C10.3157 7.49972 10.3808 7.51266 10.4414 7.5378C10.5021 7.56294 10.5573 7.59979 10.6038 7.64625C10.6502 7.6927 10.6871 7.74786 10.7122 7.80855C10.7373 7.86925 10.7503 7.9343 10.7503 8C10.7503 8.0657 10.7373 8.13075 10.7122 8.19145C10.6871 8.25214 10.6502 8.3073 10.6038 8.35375ZM3 5V3H4.5V3.5C4.5 3.63261 4.55268 3.75979 4.64645 3.85355C4.74021 3.94732 4.86739 4 5 4C5.13261 4 5.25979 3.94732 5.35355 3.85355C5.44732 3.75979 5.5 3.63261 5.5 3.5V3H10.5V3.5C10.5 3.63261 10.5527 3.75979 10.6464 3.85355C10.7402 3.94732 10.8674 4 11 4C11.1326 4 11.2598 3.94732 11.3536 3.85355C11.4473 3.75979 11.5 3.63261 11.5 3.5V3H13V5H3Z" fill="black"/>
</g>
<defs>
<clipPath id="clip0_5_1256">
<rect width="16" height="16" fill="white"/>
</clipPath>
</defs>
</svg>
