<svg width="16" height="16" viewBox="0 0 16 16" fill="none" xmlns="http://www.w3.org/2000/svg">
<g clip-path="url(#clip0_5_1247)">
<path d="M13 2H11.5V1.5C11.5 1.36739 11.4473 1.24021 11.3536 1.14645C11.2598 1.05268 11.1326 1 11 1C10.8674 1 10.7402 1.05268 10.6464 1.14645C10.5527 1.24021 10.5 1.36739 10.5 1.5V2H5.5V1.5C5.5 1.36739 5.44732 1.24021 5.35355 1.14645C5.25979 1.05268 5.13261 1 5 1C4.86739 1 4.74021 1.05268 4.64645 1.14645C4.55268 1.24021 4.5 1.36739 4.5 1.5V2H3C2.73478 2 2.48043 2.10536 2.29289 2.29289C2.10536 2.48043 2 2.73478 2 3V13C2 13.2652 2.10536 13.5196 2.29289 13.7071C2.48043 13.8946 2.73478 14 3 14H13C13.2652 14 13.5196 13.8946 13.7071 13.7071C13.8946 13.5196 14 13.2652 14 13V3C14 2.73478 13.8946 2.48043 13.7071 2.29289C13.5196 2.10536 13.2652 2 13 2ZM8 10.5C7.80222 10.5 7.60888 10.4414 7.44443 10.3315C7.27998 10.2216 7.15181 10.0654 7.07612 9.88268C7.00043 9.69996 6.98063 9.49889 7.01921 9.30491C7.0578 9.11093 7.15304 8.93275 7.29289 8.79289C7.43275 8.65304 7.61093 8.5578 7.80491 8.51921C7.99889 8.48063 8.19996 8.50043 8.38268 8.57612C8.56541 8.65181 8.72159 8.77998 8.83147 8.94443C8.94135 9.10888 9 9.30222 9 9.5C9 9.76522 8.89464 10.0196 8.70711 10.2071C8.51957 10.3946 8.26522 10.5 8 10.5ZM13 5H3V3H4.5V3.5C4.5 3.63261 4.55268 3.75979 4.64645 3.85355C4.74021 3.94732 4.86739 4 5 4C5.13261 4 5.25979 3.94732 5.35355 3.85355C5.44732 3.75979 5.5 3.63261 5.5 3.5V3H10.5V3.5C10.5 3.63261 10.5527 3.75979 10.6464 3.85355C10.7402 3.94732 10.8674 4 11 4C11.1326 4 11.2598 3.94732 11.3536 3.85355C11.4473 3.75979 11.5 3.63261 11.5 3.5V3H13V5Z" fill="black"/>
</g>
<defs>
<clipPath id="clip0_5_1247">
<rect width="16" height="16" fill="white"/>
</clipPath>
</defs>
</svg>
