<svg width="16" height="16" viewBox="0 0 16 16" fill="none" xmlns="http://www.w3.org/2000/svg">
<g clip-path="url(#clip0_5_1221)">
<path d="M13 2H11.5V1.5C11.5 1.36739 11.4473 1.24021 11.3536 1.14645C11.2598 1.05268 11.1326 1 11 1C10.8674 1 10.7402 1.05268 10.6464 1.14645C10.5527 1.24021 10.5 1.36739 10.5 1.5V2H5.5V1.5C5.5 1.36739 5.44732 1.24021 5.35355 1.14645C5.25979 1.05268 5.13261 1 5 1C4.86739 1 4.74021 1.05268 4.64645 1.14645C4.55268 1.24021 4.5 1.36739 4.5 1.5V2H3C2.73478 2 2.48043 2.10536 2.29289 2.29289C2.10536 2.48043 2 2.73478 2 3V13C2 13.2652 2.10536 13.5196 2.29289 13.7071C2.48043 13.8946 2.73478 14 3 14H13C13.2652 14 13.5196 13.8946 13.7071 13.7071C13.8946 13.5196 14 13.2652 14 13V3C14 2.73478 13.8946 2.48043 13.7071 2.29289C13.5196 2.10536 13.2652 2 13 2ZM4.5 4V3.5C4.5 3.36739 4.55268 3.24021 4.64645 3.14645C4.74021 3.05268 4.86739 3 5 3C5.13261 3 5.25979 3.05268 5.35355 3.14645C5.44732 3.24021 5.5 3.36739 5.5 3.5V4C5.5 4.13261 5.44732 4.25979 5.35355 4.35355C5.25979 4.44732 5.13261 4.5 5 4.5C4.86739 4.5 4.74021 4.44732 4.64645 4.35355C4.55268 4.25979 4.5 4.13261 4.5 4ZM11.1594 7.79375L9.63062 9.05562L10.0969 10.9375C10.1087 10.9853 10.1062 11.0355 10.0897 11.0819C10.0731 11.1282 10.0432 11.1687 10.0037 11.1981C9.96047 11.23 9.90815 11.2473 9.85437 11.2475C9.81041 11.2472 9.76729 11.2354 9.72937 11.2131L8 10.1987L6.2725 11.2156C6.22988 11.2409 6.18072 11.2529 6.13125 11.2502C6.08178 11.2474 6.03424 11.2301 5.99466 11.2003C5.95509 11.1705 5.92526 11.1296 5.90896 11.0828C5.89266 11.036 5.89063 10.9854 5.90312 10.9375L6.36938 9.05313L4.84062 7.79375C4.80203 7.76206 4.77382 7.71953 4.75962 7.67166C4.74541 7.62378 4.74587 7.57275 4.76094 7.52514C4.776 7.47753 4.80498 7.43552 4.84413 7.40453C4.88329 7.37353 4.93083 7.35498 4.98063 7.35125L6.99563 7.19562L7.77063 5.40125C7.79001 5.35652 7.82206 5.31844 7.86281 5.29169C7.90356 5.26494 7.95125 5.25068 8 5.25068C8.04875 5.25068 8.09644 5.26494 8.13719 5.29169C8.17794 5.31844 8.20999 5.35652 8.22937 5.40125L9.00438 7.19562L11.0194 7.35125C11.0692 7.35498 11.1167 7.37353 11.1559 7.40453C11.195 7.43552 11.224 7.47753 11.2391 7.52514C11.2541 7.57275 11.2546 7.62378 11.2404 7.67166C11.2262 7.71953 11.198 7.76206 11.1594 7.79375ZM11.5 4C11.5 4.13261 11.4473 4.25979 11.3536 4.35355C11.2598 4.44732 11.1326 4.5 11 4.5C10.8674 4.5 10.7402 4.44732 10.6464 4.35355C10.5527 4.25979 10.5 4.13261 10.5 4V3.5C10.5 3.36739 10.5527 3.24021 10.6464 3.14645C10.7402 3.05268 10.8674 3 11 3C11.1326 3 11.2598 3.05268 11.3536 3.14645C11.4473 3.24021 11.5 3.36739 11.5 3.5V4Z" fill="black"/>
</g>
<defs>
<clipPath id="clip0_5_1221">
<rect width="16" height="16" fill="white"/>
</clipPath>
</defs>
</svg>
