<svg width="16" height="16" viewBox="0 0 16 16" fill="none" xmlns="http://www.w3.org/2000/svg">
<g clip-path="url(#clip0_5_1566)">
<path d="M1 11C1 10.8674 1.05268 10.7402 1.14645 10.6464C1.24021 10.5527 1.36739 10.5 1.5 10.5H2V9.5C2.00182 7.99582 2.56785 6.54705 3.58622 5.44004C4.60459 4.33302 6.0012 3.64832 7.5 3.52125V2.5H6.5C6.36739 2.5 6.24021 2.44732 6.14645 2.35355C6.05268 2.25979 6 2.13261 6 2C6 1.86739 6.05268 1.74021 6.14645 1.64645C6.24021 1.55268 6.36739 1.5 6.5 1.5H9.5C9.63261 1.5 9.75979 1.55268 9.85355 1.64645C9.94732 1.74021 10 1.86739 10 2C10 2.13261 9.94732 2.25979 9.85355 2.35355C9.75979 2.44732 9.63261 2.5 9.5 2.5H8.5V3.52125C9.9988 3.64832 11.3954 4.33302 12.4138 5.44004C13.4321 6.54705 13.9982 7.99582 14 9.5V10.5H14.5C14.6326 10.5 14.7598 10.5527 14.8536 10.6464C14.9473 10.7402 15 10.8674 15 11C15 11.1326 14.9473 11.2598 14.8536 11.3536C14.7598 11.4473 14.6326 11.5 14.5 11.5H1.5C1.36739 11.5 1.24021 11.4473 1.14645 11.3536C1.05268 11.2598 1 11.1326 1 11ZM14.5 12.5H1.5C1.36739 12.5 1.24021 12.5527 1.14645 12.6464C1.05268 12.7402 1 12.8674 1 13C1 13.1326 1.05268 13.2598 1.14645 13.3536C1.24021 13.4473 1.36739 13.5 1.5 13.5H14.5C14.6326 13.5 14.7598 13.4473 14.8536 13.3536C14.9473 13.2598 15 13.1326 15 13C15 12.8674 14.9473 12.7402 14.8536 12.6464C14.7598 12.5527 14.6326 12.5 14.5 12.5Z" fill="black"/>
</g>
<defs>
<clipPath id="clip0_5_1566">
<rect width="16" height="16" fill="white"/>
</clipPath>
</defs>
</svg>
