<svg width="16" height="16" viewBox="0 0 16 16" fill="none" xmlns="http://www.w3.org/2000/svg">
<g clip-path="url(#clip0_5_1116)">
<path d="M14.5 4.99998V12C14.4999 12.0975 14.4905 12.1948 14.4719 12.2906C14.4638 12.3367 14.443 12.3796 14.4117 12.4144C14.3805 12.4492 14.3401 12.4746 14.2952 12.4876C14.2503 12.5006 14.2026 12.5008 14.1576 12.488C14.1126 12.4753 14.0721 12.4502 14.0406 12.4156L5.375 2.87998C5.33747 2.83874 5.31481 2.78613 5.31062 2.73052C5.30643 2.67492 5.32095 2.61951 5.35187 2.57311L5.58563 2.22248C5.63115 2.15425 5.69275 2.09827 5.76502 2.05947C5.83728 2.02066 5.91798 2.00024 6 1.99998H10C10.0823 1.99993 10.1634 2.02021 10.236 2.05902C10.3086 2.09784 10.3706 2.15399 10.4163 2.22248L11.2675 3.49998H13C13.3978 3.49998 13.7794 3.65802 14.0607 3.93932C14.342 4.22063 14.5 4.60216 14.5 4.99998ZM13.37 13.1637C13.4151 13.2122 13.4501 13.2691 13.473 13.3311C13.496 13.3932 13.5064 13.4592 13.5036 13.5253C13.5008 13.5914 13.485 13.6563 13.4569 13.7162C13.4289 13.7762 13.3893 13.8299 13.3403 13.8744C13.2913 13.9189 13.234 13.9533 13.1717 13.9755C13.1094 13.9977 13.0432 14.0072 12.9772 14.0037C12.9111 14.0001 12.8464 13.9835 12.7868 13.9548C12.7272 13.926 12.6739 13.8857 12.63 13.8362L12.3244 13.5H3C2.60218 13.5 2.22064 13.3419 1.93934 13.0606C1.65804 12.7793 1.5 12.3978 1.5 12V4.99998C1.5 4.60216 1.65804 4.22063 1.93934 3.93932C2.22064 3.65802 2.60218 3.49998 3 3.49998H3.23312L2.63 2.83623C2.58492 2.7878 2.54989 2.73091 2.52696 2.66884C2.50403 2.60678 2.49364 2.54078 2.4964 2.47467C2.49917 2.40856 2.51502 2.34366 2.54305 2.28373C2.57108 2.22379 2.61073 2.17002 2.65969 2.12552C2.70866 2.08102 2.76597 2.04668 2.82831 2.02449C2.89064 2.00231 2.95676 1.99271 3.02283 1.99627C3.0889 1.99982 3.15361 2.01645 3.2132 2.0452C3.27279 2.07395 3.32609 2.11423 3.37 2.16373L13.37 13.1637ZM9.25 10.12L6.2575 6.82748C5.91786 7.24515 5.73922 7.77074 5.75402 8.30887C5.76881 8.847 5.97605 9.36199 6.33813 9.76037C6.70021 10.1587 7.19311 10.4141 7.72739 10.4801C8.26166 10.5461 8.80188 10.4183 9.25 10.12Z" fill="black"/>
</g>
<defs>
<clipPath id="clip0_5_1116">
<rect width="16" height="16" fill="white"/>
</clipPath>
</defs>
</svg>
