<svg width="16" height="16" viewBox="0 0 16 16" fill="none" xmlns="http://www.w3.org/2000/svg">
<g clip-path="url(#clip0_5_1557)">
<path d="M13 3.5H11.2675L10.4156 2.2225C10.37 2.15409 10.3082 2.098 10.2357 2.05919C10.1632 2.02038 10.0822 2.00005 10 2H6C5.91777 2.00005 5.83682 2.02038 5.76432 2.05919C5.69182 2.098 5.63001 2.15409 5.58437 2.2225L4.73187 3.5H3C2.60218 3.5 2.22064 3.65804 1.93934 3.93934C1.65804 4.22064 1.5 4.60218 1.5 5V12C1.5 12.3978 1.65804 12.7794 1.93934 13.0607C2.22064 13.342 2.60218 13.5 3 13.5H13C13.3978 13.5 13.7794 13.342 14.0607 13.0607C14.342 12.7794 14.5 12.3978 14.5 12V5C14.5 4.60218 14.342 4.22064 14.0607 3.93934C13.7794 3.65804 13.3978 3.5 13 3.5ZM9.80062 10.4C9.24482 10.8138 8.56337 11.0234 7.87109 10.9934C7.17881 10.9635 6.51801 10.6959 6 10.2356V10.5C6 10.6326 5.94732 10.7598 5.85355 10.8536C5.75979 10.9473 5.63261 11 5.5 11C5.36739 11 5.24021 10.9473 5.14645 10.8536C5.05268 10.7598 5 10.6326 5 10.5V9C5 8.86739 5.05268 8.74021 5.14645 8.64645C5.24021 8.55268 5.36739 8.5 5.5 8.5H7C7.13261 8.5 7.25979 8.55268 7.35355 8.64645C7.44732 8.74021 7.5 8.86739 7.5 9C7.5 9.13261 7.44732 9.25979 7.35355 9.35355C7.25979 9.44732 7.13261 9.5 7 9.5H6.67812C7.0235 9.80258 7.46216 9.97762 7.92096 9.99594C8.37977 10.0142 8.83099 9.87472 9.19938 9.60063C9.30538 9.52089 9.43871 9.48654 9.57005 9.50512C9.70138 9.52369 9.81996 9.59368 9.89969 9.69969C9.97942 9.80569 10.0138 9.93903 9.9952 10.0704C9.97662 10.2017 9.90663 10.3203 9.80062 10.4ZM11 7.5C11 7.63261 10.9473 7.75979 10.8536 7.85355C10.7598 7.94732 10.6326 8 10.5 8H9C8.86739 8 8.74021 7.94732 8.64645 7.85355C8.55268 7.75979 8.5 7.63261 8.5 7.5C8.5 7.36739 8.55268 7.24021 8.64645 7.14645C8.74021 7.05268 8.86739 7 9 7H9.32187C8.9765 6.69742 8.53784 6.52238 8.07903 6.50406C7.62023 6.48575 7.16901 6.62528 6.80062 6.89937C6.69462 6.97911 6.56129 7.01346 6.42995 6.99488C6.29862 6.97631 6.18004 6.90632 6.10031 6.80031C6.02058 6.69431 5.98623 6.56097 6.0048 6.42964C6.02338 6.29831 6.09337 6.17973 6.19938 6.1C6.75518 5.68621 7.43663 5.47663 8.12891 5.50657C8.82119 5.53651 9.48199 5.80414 10 6.26438V6C10 5.86739 10.0527 5.74021 10.1464 5.64645C10.2402 5.55268 10.3674 5.5 10.5 5.5C10.6326 5.5 10.7598 5.55268 10.8536 5.64645C10.9473 5.74021 11 5.86739 11 6V7.5Z" fill="black"/>
</g>
<defs>
<clipPath id="clip0_5_1557">
<rect width="16" height="16" fill="white"/>
</clipPath>
</defs>
</svg>
