<svg width="16" height="16" viewBox="0 0 16 16" fill="none" xmlns="http://www.w3.org/2000/svg">
<g clip-path="url(#clip0_5_1114)">
<path d="M8.26186 1.57437C8.18309 1.52594 8.09244 1.50031 7.99998 1.50031C7.90752 1.50031 7.81687 1.52594 7.7381 1.57437C7.11095 1.98191 6.53277 2.46027 6.01498 2.99999C4.8606 4.19562 4.24998 5.49374 4.24998 6.74999C4.24998 7.74456 4.64507 8.69838 5.34833 9.40164C6.05159 10.1049 7.00542 10.5 7.99998 10.5C8.99454 10.5 9.94837 10.1049 10.6516 9.40164C11.3549 8.69838 11.75 7.74456 11.75 6.74999C11.75 3.75499 8.40436 1.66187 8.26186 1.57437ZM7.99998 9.49999C7.60216 9.49999 7.22062 9.34196 6.93932 9.06065C6.65802 8.77935 6.49998 8.39782 6.49998 7.99999C6.49998 6.49999 7.99998 5.49999 7.99998 5.49999C7.99998 5.49999 9.49998 6.49999 9.49998 7.99999C9.49998 8.39782 9.34194 8.77935 9.06064 9.06065C8.77934 9.34196 8.3978 9.49999 7.99998 9.49999ZM13.9762 14.1512C13.9563 14.2138 13.9243 14.2719 13.882 14.3221C13.8396 14.3723 13.7878 14.4137 13.7295 14.4439C13.6712 14.474 13.6075 14.4924 13.542 14.498C13.4766 14.5035 13.4107 14.4962 13.3481 14.4762L7.99998 12.7744L2.65185 14.4762C2.58927 14.4961 2.52338 14.5035 2.45795 14.498C2.39251 14.4924 2.32881 14.474 2.27048 14.4438C2.21216 14.4137 2.16034 14.3723 2.11801 14.3221C2.07567 14.2719 2.04363 14.2138 2.02373 14.1512C2.00383 14.0887 1.99644 14.0228 2.00201 13.9573C2.00757 13.8919 2.02596 13.8282 2.05614 13.7699C2.08632 13.7115 2.12769 13.6597 2.17789 13.6174C2.2281 13.5751 2.28615 13.543 2.34873 13.5231L6.34873 12.25L2.34873 10.9762C2.28442 10.9578 2.22445 10.9267 2.17239 10.8847C2.12033 10.8427 2.07722 10.7907 2.04562 10.7317C2.01402 10.6728 1.99458 10.6081 1.98844 10.5414C1.9823 10.4748 1.98959 10.4077 2.00987 10.3439C2.03016 10.2802 2.06303 10.2212 2.10654 10.1703C2.15005 10.1195 2.20331 10.078 2.26317 10.0481C2.32304 10.0183 2.38828 10.0007 2.45504 9.99653C2.52181 9.99234 2.58873 10.0016 2.65185 10.0237L7.99998 11.725L13.3481 10.0237C13.4112 10.0016 13.4782 9.99234 13.5449 9.99653C13.6117 10.0007 13.6769 10.0183 13.7368 10.0481C13.7966 10.078 13.8499 10.1195 13.8934 10.1703C13.9369 10.2212 13.9698 10.2802 13.9901 10.3439C14.0104 10.4077 14.0177 10.4748 14.0115 10.5414C14.0054 10.6081 13.9859 10.6728 13.9543 10.7317C13.9227 10.7907 13.8796 10.8427 13.8276 10.8847C13.7755 10.9267 13.7155 10.9578 13.6512 10.9762L9.65123 12.25L13.6512 13.5231C13.7138 13.543 13.7719 13.575 13.8221 13.6174C13.8723 13.6597 13.9137 13.7115 13.9438 13.7699C13.974 13.8282 13.9924 13.8919 13.998 13.9573C14.0035 14.0228 13.9961 14.0887 13.9762 14.1512Z" fill="black"/>
</g>
<defs>
<clipPath id="clip0_5_1114">
<rect width="16" height="16" fill="white"/>
</clipPath>
</defs>
</svg>
