<svg width="16" height="16" viewBox="0 0 16 16" fill="none" xmlns="http://www.w3.org/2000/svg">
<g clip-path="url(#clip0_5_1111)">
<path d="M14 4.5H13V3.5C13 3.23478 12.8946 2.98043 12.7071 2.79289C12.5196 2.60536 12.2652 2.5 12 2.5H10C9.73478 2.5 9.48043 2.60536 9.29289 2.79289C9.10536 2.98043 9 3.23478 9 3.5V4.5H7V3.5C7 3.23478 6.89464 2.98043 6.70711 2.79289C6.51957 2.60536 6.26522 2.5 6 2.5H4C3.73478 2.5 3.48043 2.60536 3.29289 2.79289C3.10536 2.98043 3 3.23478 3 3.5V4.5H2C1.73478 4.5 1.48043 4.60536 1.29289 4.79289C1.10536 4.98043 1 5.23478 1 5.5V11.5C1 11.7652 1.10536 12.0196 1.29289 12.2071C1.48043 12.3946 1.73478 12.5 2 12.5H14C14.2652 12.5 14.5196 12.3946 14.7071 12.2071C14.8946 12.0196 15 11.7652 15 11.5V5.5C15 5.23478 14.8946 4.98043 14.7071 4.79289C14.5196 4.60536 14.2652 4.5 14 4.5ZM4 3.5H6V4.5H4V3.5ZM6.5 9H4.5C4.36739 9 4.24021 8.94732 4.14645 8.85355C4.05268 8.75979 4 8.63261 4 8.5C4 8.36739 4.05268 8.24021 4.14645 8.14645C4.24021 8.05268 4.36739 8 4.5 8H6.5C6.63261 8 6.75979 8.05268 6.85355 8.14645C6.94732 8.24021 7 8.36739 7 8.5C7 8.63261 6.94732 8.75979 6.85355 8.85355C6.75979 8.94732 6.63261 9 6.5 9ZM11.5 9H11V9.5C11 9.63261 10.9473 9.75979 10.8536 9.85355C10.7598 9.94732 10.6326 10 10.5 10C10.3674 10 10.2402 9.94732 10.1464 9.85355C10.0527 9.75979 10 9.63261 10 9.5V9H9.5C9.36739 9 9.24021 8.94732 9.14645 8.85355C9.05268 8.75979 9 8.63261 9 8.5C9 8.36739 9.05268 8.24021 9.14645 8.14645C9.24021 8.05268 9.36739 8 9.5 8H10V7.5C10 7.36739 10.0527 7.24021 10.1464 7.14645C10.2402 7.05268 10.3674 7 10.5 7C10.6326 7 10.7598 7.05268 10.8536 7.14645C10.9473 7.24021 11 7.36739 11 7.5V8H11.5C11.6326 8 11.7598 8.05268 11.8536 8.14645C11.9473 8.24021 12 8.36739 12 8.5C12 8.63261 11.9473 8.75979 11.8536 8.85355C11.7598 8.94732 11.6326 9 11.5 9ZM12 4.5H10V3.5H12V4.5Z" fill="black"/>
</g>
<defs>
<clipPath id="clip0_5_1111">
<rect width="16" height="16" fill="white"/>
</clipPath>
</defs>
</svg>
