<svg width="16" height="16" viewBox="0 0 16 16" fill="none" xmlns="http://www.w3.org/2000/svg">
<g clip-path="url(#clip0_5_1109)">
<path d="M15 6.5H14.325L12.5887 2.59375C12.5102 2.41702 12.382 2.26686 12.2199 2.16148C12.0577 2.05609 11.8684 2 11.675 2H4.325C4.13159 2 3.94233 2.05609 3.78014 2.16148C3.61796 2.26686 3.48982 2.41702 3.41125 2.59375L1.675 6.5H1C0.867392 6.5 0.740215 6.55268 0.646447 6.64645C0.552678 6.74021 0.5 6.86739 0.5 7C0.5 7.13261 0.552678 7.25979 0.646447 7.35355C0.740215 7.44732 0.867392 7.5 1 7.5H1.5V12.5C1.5 12.7652 1.60536 13.0196 1.79289 13.2071C1.98043 13.3946 2.23478 13.5 2.5 13.5H4C4.26522 13.5 4.51957 13.3946 4.70711 13.2071C4.89464 13.0196 5 12.7652 5 12.5V12H11V12.5C11 12.7652 11.1054 13.0196 11.2929 13.2071C11.4804 13.3946 11.7348 13.5 12 13.5H13.5C13.7652 13.5 14.0196 13.3946 14.2071 13.2071C14.3946 13.0196 14.5 12.7652 14.5 12.5V7.5H15C15.1326 7.5 15.2598 7.44732 15.3536 7.35355C15.4473 7.25979 15.5 7.13261 15.5 7C15.5 6.86739 15.4473 6.74021 15.3536 6.64645C15.2598 6.55268 15.1326 6.5 15 6.5ZM5 9.5H3.5C3.36739 9.5 3.24021 9.44732 3.14645 9.35355C3.05268 9.25979 3 9.13261 3 9C3 8.86739 3.05268 8.74021 3.14645 8.64645C3.24021 8.55268 3.36739 8.5 3.5 8.5H5C5.13261 8.5 5.25979 8.55268 5.35355 8.64645C5.44732 8.74021 5.5 8.86739 5.5 9C5.5 9.13261 5.44732 9.25979 5.35355 9.35355C5.25979 9.44732 5.13261 9.5 5 9.5ZM12.5 9.5H11C10.8674 9.5 10.7402 9.44732 10.6464 9.35355C10.5527 9.25979 10.5 9.13261 10.5 9C10.5 8.86739 10.5527 8.74021 10.6464 8.64645C10.7402 8.55268 10.8674 8.5 11 8.5H12.5C12.6326 8.5 12.7598 8.55268 12.8536 8.64645C12.9473 8.74021 13 8.86739 13 9C13 9.13261 12.9473 9.25979 12.8536 9.35355C12.7598 9.44732 12.6326 9.5 12.5 9.5ZM2.76938 6.5L4.325 3H11.675L13.2306 6.5H2.76938Z" fill="black"/>
</g>
<defs>
<clipPath id="clip0_5_1109">
<rect width="16" height="16" fill="white"/>
</clipPath>
</defs>
</svg>
