<svg width="16" height="16" viewBox="0 0 16 16" fill="none" xmlns="http://www.w3.org/2000/svg">
<g clip-path="url(#clip0_5_1511)">
<path d="M13 3H3C2.60218 3 2.22064 3.15804 1.93934 3.43934C1.65804 3.72064 1.5 4.10218 1.5 4.5V11.5C1.5 11.8978 1.65804 12.2794 1.93934 12.5607C2.22064 12.842 2.60218 13 3 13H13C13.3978 13 13.7794 12.842 14.0607 12.5607C14.342 12.2794 14.5 11.8978 14.5 11.5V4.5C14.5 4.10218 14.342 3.72064 14.0607 3.43934C13.7794 3.15804 13.3978 3 13 3ZM9.5 7.5C9.5 7.89782 9.34196 8.27936 9.06066 8.56066C8.77936 8.84196 8.39782 9 8 9C7.60218 9 7.22064 8.84196 6.93934 8.56066C6.65804 8.27936 6.5 7.89782 6.5 7.5C6.5 7.36739 6.44732 7.24021 6.35355 7.14645C6.25979 7.05268 6.13261 7 6 7H2.5V6H13.5V7H10C9.86739 7 9.74021 7.05268 9.64645 7.14645C9.55268 7.24021 9.5 7.36739 9.5 7.5ZM3 4H13C13.1326 4 13.2598 4.05268 13.3536 4.14645C13.4473 4.24021 13.5 4.36739 13.5 4.5V5H2.5V4.5C2.5 4.36739 2.55268 4.24021 2.64645 4.14645C2.74021 4.05268 2.86739 4 3 4Z" fill="black"/>
</g>
<defs>
<clipPath id="clip0_5_1511">
<rect width="16" height="16" fill="white"/>
</clipPath>
</defs>
</svg>
