<svg width="16" height="16" viewBox="0 0 16 16" fill="none" xmlns="http://www.w3.org/2000/svg">
<g clip-path="url(#clip0_5_1562)">
<path d="M11.5 4.5H2.5C1.94772 4.5 1.5 4.94772 1.5 5.5V12.5C1.5 13.0523 1.94772 13.5 2.5 13.5H11.5C12.0523 13.5 12.5 13.0523 12.5 12.5V5.5C12.5 4.94772 12.0523 4.5 11.5 4.5Z" fill="black"/>
<path d="M13.5 2.5H4C3.86739 2.5 3.74021 2.55268 3.64645 2.64645C3.55268 2.74021 3.5 2.86739 3.5 3C3.5 3.13261 3.55268 3.25979 3.64645 3.35355C3.74021 3.44732 3.86739 3.5 4 3.5H13.5V11C13.5 11.1326 13.5527 11.2598 13.6464 11.3536C13.7402 11.4473 13.8674 11.5 14 11.5C14.1326 11.5 14.2598 11.4473 14.3536 11.3536C14.4473 11.2598 14.5 11.1326 14.5 11V3.5C14.5 3.23478 14.3946 2.98043 14.2071 2.79289C14.0196 2.60536 13.7652 2.5 13.5 2.5Z" fill="black"/>
</g>
<defs>
<clipPath id="clip0_5_1562">
<rect width="16" height="16" fill="white"/>
</clipPath>
</defs>
</svg>
