<svg width="16" height="16" viewBox="0 0 16 16" fill="none" xmlns="http://www.w3.org/2000/svg">
<g clip-path="url(#clip0_5_1107)">
<path d="M14 6.5V12.5C14 12.7652 13.8946 13.0196 13.7071 13.2071C13.5196 13.3946 13.2652 13.5 13 13.5H3C2.73478 13.5 2.48043 13.3946 2.29289 13.2071C2.10536 13.0196 2 12.7652 2 12.5V6.5C2 6.23478 2.10536 5.98043 2.29289 5.79289C2.48043 5.60536 2.73478 5.5 3 5.5H13C13.2652 5.5 13.5196 5.60536 13.7071 5.79289C13.8946 5.98043 14 6.23478 14 6.5ZM3.5 4.5H12.5C12.6326 4.5 12.7598 4.44732 12.8536 4.35355C12.9473 4.25979 13 4.13261 13 4C13 3.86739 12.9473 3.74021 12.8536 3.64645C12.7598 3.55268 12.6326 3.5 12.5 3.5H3.5C3.36739 3.5 3.24021 3.55268 3.14645 3.64645C3.05268 3.74021 3 3.86739 3 4C3 4.13261 3.05268 4.25979 3.14645 4.35355C3.24021 4.44732 3.36739 4.5 3.5 4.5ZM4.5 2.5H11.5C11.6326 2.5 11.7598 2.44732 11.8536 2.35355C11.9473 2.25979 12 2.13261 12 2C12 1.86739 11.9473 1.74021 11.8536 1.64645C11.7598 1.55268 11.6326 1.5 11.5 1.5H4.5C4.36739 1.5 4.24021 1.55268 4.14645 1.64645C4.05268 1.74021 4 1.86739 4 2C4 2.13261 4.05268 2.25979 4.14645 2.35355C4.24021 2.44732 4.36739 2.5 4.5 2.5Z" fill="black"/>
</g>
<defs>
<clipPath id="clip0_5_1107">
<rect width="16" height="16" fill="white"/>
</clipPath>
</defs>
</svg>
