<svg width="16" height="16" viewBox="0 0 16 16" fill="none" xmlns="http://www.w3.org/2000/svg">
<g clip-path="url(#clip0_5_1269)">
<path d="M2.64628 4.85375C2.57627 4.78382 2.52859 4.6947 2.50926 4.59765C2.48994 4.50061 2.49984 4.40002 2.53772 4.3086C2.57559 4.21719 2.63974 4.13908 2.72204 4.08414C2.80433 4.0292 2.90108 3.99992 3.00003 4H13C13.099 3.99992 13.1957 4.0292 13.278 4.08414C13.3603 4.13908 13.4245 4.21719 13.4623 4.3086C13.5002 4.40002 13.5101 4.50061 13.4908 4.59765C13.4715 4.6947 13.4238 4.78382 13.3538 4.85375L8.35378 9.85375C8.30734 9.90024 8.2522 9.93712 8.1915 9.96228C8.1308 9.98744 8.06574 10.0004 8.00003 10.0004C7.93432 10.0004 7.86926 9.98744 7.80856 9.96228C7.74786 9.93712 7.69271 9.90024 7.64628 9.85375L2.64628 4.85375ZM13 11.5H3.00003C2.86742 11.5 2.74024 11.5527 2.64647 11.6464C2.55271 11.7402 2.50003 11.8674 2.50003 12C2.50003 12.1326 2.55271 12.2598 2.64647 12.3536C2.74024 12.4473 2.86742 12.5 3.00003 12.5H13C13.1326 12.5 13.2598 12.4473 13.3536 12.3536C13.4473 12.2598 13.5 12.1326 13.5 12C13.5 11.8674 13.4473 11.7402 13.3536 11.6464C13.2598 11.5527 13.1326 11.5 13 11.5Z" fill="black"/>
</g>
<defs>
<clipPath id="clip0_5_1269">
<rect width="16" height="16" fill="white"/>
</clipPath>
</defs>
</svg>
