<svg width="16" height="16" viewBox="0 0 16 16" fill="none" xmlns="http://www.w3.org/2000/svg">
<g clip-path="url(#clip0_5_1711)">
<path d="M9.2069 8.00003H13C13.099 8.0001 13.1957 7.97082 13.278 7.91589C13.3603 7.86095 13.4245 7.78283 13.4623 7.69142C13.5002 7.60001 13.5101 7.49942 13.4908 7.40237C13.4715 7.30533 13.4238 7.2162 13.3538 7.14628L8.35378 2.14628C8.30734 2.09979 8.2522 2.06291 8.1915 2.03775C8.1308 2.01259 8.06574 1.99963 8.00003 1.99963C7.93432 1.99963 7.86926 2.01259 7.80856 2.03775C7.74786 2.06291 7.69271 2.09979 7.64628 2.14628L2.64628 7.14628C2.57627 7.2162 2.52859 7.30533 2.50926 7.40237C2.48994 7.49942 2.49984 7.60001 2.53772 7.69142C2.57559 7.78283 2.63974 7.86095 2.72204 7.91589C2.80433 7.97082 2.90108 8.0001 3.00003 8.00003H6.79315L2.64628 12.1463C2.57627 12.2162 2.52859 12.3053 2.50926 12.4024C2.48994 12.4994 2.49984 12.6 2.53772 12.6914C2.57559 12.7828 2.63974 12.861 2.72204 12.9159C2.80433 12.9708 2.90108 13.0001 3.00003 13H13C13.099 13.0001 13.1957 12.9708 13.278 12.9159C13.3603 12.861 13.4245 12.7828 13.4623 12.6914C13.5002 12.6 13.5101 12.4994 13.4908 12.4024C13.4715 12.3053 13.4238 12.2162 13.3538 12.1463L9.2069 8.00003Z" fill="black"/>
</g>
<defs>
<clipPath id="clip0_5_1711">
<rect width="16" height="16" fill="white"/>
</clipPath>
</defs>
</svg>
