<svg width="16" height="16" viewBox="0 0 16 16" fill="none" xmlns="http://www.w3.org/2000/svg">
<g clip-path="url(#clip0_5_1491)">
<path d="M9.35375 7.64628C9.40024 7.69271 9.43712 7.74786 9.46228 7.80856C9.48744 7.86926 9.50039 7.93432 9.50039 8.00003C9.50039 8.06574 9.48744 8.1308 9.46228 8.1915C9.43712 8.2522 9.40024 8.30734 9.35375 8.35378L4.35375 13.3538C4.28382 13.4238 4.1947 13.4715 4.09765 13.4908C4.00061 13.5101 3.90002 13.5002 3.80861 13.4623C3.71719 13.4245 3.63908 13.3603 3.58414 13.278C3.5292 13.1957 3.49992 13.099 3.5 13V3.00003C3.49992 2.90108 3.5292 2.80433 3.58414 2.72204C3.63908 2.63974 3.71719 2.57559 3.80861 2.53772C3.90002 2.49984 4.00061 2.48994 4.09765 2.50926C4.1947 2.52859 4.28382 2.57627 4.35375 2.64628L9.35375 7.64628ZM11.5 2.50003C11.3674 2.50003 11.2402 2.55271 11.1464 2.64647C11.0527 2.74024 11 2.86742 11 3.00003V13C11 13.1326 11.0527 13.2598 11.1464 13.3536C11.2402 13.4473 11.3674 13.5 11.5 13.5C11.6326 13.5 11.7598 13.4473 11.8536 13.3536C11.9473 13.2598 12 13.1326 12 13V3.00003C12 2.86742 11.9473 2.74024 11.8536 2.64647C11.7598 2.55271 11.6326 2.50003 11.5 2.50003Z" fill="black"/>
</g>
<defs>
<clipPath id="clip0_5_1491">
<rect width="16" height="16" fill="white"/>
</clipPath>
</defs>
</svg>
