<svg width="16" height="16" viewBox="0 0 16 16" fill="none" xmlns="http://www.w3.org/2000/svg">
<g clip-path="url(#clip0_5_1103)">
<path d="M12.5981 3.40126C11.6888 2.49285 10.5306 1.87442 9.2699 1.62413C8.0092 1.37384 6.70259 1.50293 5.51524 1.99509C4.32789 2.48724 3.31311 3.32037 2.59916 4.38915C1.88521 5.45793 1.50415 6.71439 1.50415 7.9997C1.50415 9.28501 1.88521 10.5415 2.59916 11.6102C3.31311 12.679 4.32789 13.5122 5.51524 14.0043C6.70259 14.4965 8.0092 14.6256 9.2699 14.3753C10.5306 14.125 11.6888 13.5065 12.5981 12.5981C13.8159 11.3776 14.4998 9.72384 14.4998 7.9997C14.4998 6.27555 13.8159 4.62181 12.5981 3.40126ZM7.85373 8.35376L5.85373 10.3538C5.80727 10.4002 5.75212 10.4371 5.69142 10.4622C5.63073 10.4873 5.56567 10.5003 5.49997 10.5003C5.43428 10.5003 5.36922 10.4873 5.30853 10.4622C5.24783 10.4371 5.19268 10.4002 5.14622 10.3538C5.09977 10.3073 5.06292 10.2522 5.03778 10.1915C5.01264 10.1308 4.9997 10.0657 4.9997 10C4.9997 9.93431 5.01264 9.86926 5.03778 9.80856C5.06292 9.74787 5.09977 9.69272 5.14622 9.64626L6.79247 8.00001L5.14497 6.35251C5.09852 6.30606 5.06167 6.2509 5.03653 6.19021C5.01139 6.12951 4.99845 6.06446 4.99845 5.99876C4.99845 5.93306 5.01139 5.86801 5.03653 5.80731C5.06167 5.74662 5.09852 5.69146 5.14497 5.64501C5.19143 5.59856 5.24658 5.5617 5.30728 5.53656C5.36797 5.51142 5.43303 5.49848 5.49873 5.49848C5.56442 5.49848 5.62948 5.51142 5.69017 5.53656C5.75087 5.5617 5.80602 5.59856 5.85248 5.64501L7.85248 7.64501C7.89923 7.69139 7.93637 7.74654 7.96175 7.80731C7.98713 7.86808 8.00025 7.93327 8.00037 7.99913C8.00049 8.06498 7.98759 8.13021 7.96243 8.19107C7.93726 8.25193 7.90032 8.30722 7.85373 8.35376ZM11.3537 8.35376L9.35373 10.3538C9.2599 10.4476 9.13266 10.5003 8.99998 10.5003C8.86729 10.5003 8.74005 10.4476 8.64622 10.3538C8.5524 10.2599 8.4997 10.1327 8.4997 10C8.4997 9.86733 8.5524 9.74008 8.64622 9.64626L10.2944 8.00001L8.64685 6.35251C8.6004 6.30606 8.56354 6.2509 8.5384 6.19021C8.51326 6.12951 8.50032 6.06446 8.50032 5.99876C8.50032 5.93306 8.51326 5.86801 8.5384 5.80731C8.56354 5.74662 8.6004 5.69146 8.64685 5.64501C8.69331 5.59856 8.74846 5.5617 8.80915 5.53656C8.86985 5.51142 8.9349 5.49848 9.0006 5.49848C9.0663 5.49848 9.13135 5.51142 9.19205 5.53656C9.25274 5.5617 9.3079 5.59856 9.35435 5.64501L11.3544 7.64501C11.4011 7.69143 11.4382 7.74662 11.4635 7.80741C11.4888 7.8682 11.5019 7.9334 11.5019 7.99926C11.502 8.06511 11.489 8.13033 11.4638 8.19117C11.4386 8.25201 11.4016 8.30726 11.355 8.35376H11.3537Z" fill="black"/>
</g>
<defs>
<clipPath id="clip0_5_1103">
<rect width="16" height="16" fill="white"/>
</clipPath>
</defs>
</svg>
