<svg width="16" height="16" viewBox="0 0 16 16" fill="none" xmlns="http://www.w3.org/2000/svg">
<g clip-path="url(#clip0_5_1709)">
<path d="M8 1.5C6.71442 1.5 5.45772 1.88122 4.3888 2.59545C3.31988 3.30968 2.48676 4.32484 1.99479 5.51256C1.50282 6.70028 1.37409 8.00721 1.6249 9.26809C1.8757 10.529 2.49477 11.6872 3.40381 12.5962C4.31285 13.5052 5.47104 14.1243 6.73192 14.3751C7.99279 14.6259 9.29973 14.4972 10.4874 14.0052C11.6752 13.5132 12.6903 12.6801 13.4046 11.6112C14.1188 10.5423 14.5 9.28558 14.5 8C14.4982 6.27665 13.8128 4.62441 12.5942 3.40582C11.3756 2.18722 9.72335 1.50182 8 1.5ZM10.8538 9.35375C10.8073 9.40024 10.7522 9.43712 10.6915 9.46228C10.6308 9.48744 10.5657 9.50039 10.5 9.50039C10.4343 9.50039 10.3692 9.48744 10.3085 9.46228C10.2478 9.43712 10.1927 9.40024 10.1463 9.35375L8 7.20687L5.85375 9.35375C5.8073 9.40021 5.75215 9.43706 5.69145 9.4622C5.63075 9.48734 5.5657 9.50028 5.5 9.50028C5.43431 9.50028 5.36925 9.48734 5.30855 9.4622C5.24786 9.43706 5.19271 9.40021 5.14625 9.35375C5.0998 9.3073 5.06295 9.25214 5.03781 9.19145C5.01266 9.13075 4.99972 9.0657 4.99972 9C4.99972 8.9343 5.01266 8.86925 5.03781 8.80855C5.06295 8.74786 5.0998 8.6927 5.14625 8.64625L7.64625 6.14625C7.69269 6.09976 7.74783 6.06288 7.80853 6.03772C7.86923 6.01256 7.9343 5.99961 8 5.99961C8.06571 5.99961 8.13077 6.01256 8.19147 6.03772C8.25217 6.06288 8.30732 6.09976 8.35375 6.14625L10.8538 8.64625C10.9002 8.69269 10.9371 8.74783 10.9623 8.80853C10.9874 8.86923 11.0004 8.93429 11.0004 9C11.0004 9.06571 10.9874 9.13077 10.9623 9.19147C10.9371 9.25217 10.9002 9.30731 10.8538 9.35375Z" fill="black"/>
</g>
<defs>
<clipPath id="clip0_5_1709">
<rect width="16" height="16" fill="white"/>
</clipPath>
</defs>
</svg>
