<svg width="16" height="16" viewBox="0 0 16 16" fill="none" xmlns="http://www.w3.org/2000/svg">
<g clip-path="url(#clip0_5_1608)">
<path d="M13 8H9.2069L13.3538 3.85375C13.4238 3.78382 13.4715 3.6947 13.4908 3.59765C13.5101 3.50061 13.5002 3.40002 13.4623 3.30861C13.4245 3.21719 13.3603 3.13908 13.278 3.08414C13.1957 3.0292 13.099 2.99992 13 3H3.00003C2.90108 2.99992 2.80433 3.0292 2.72204 3.08414C2.63974 3.13908 2.57559 3.21719 2.53772 3.30861C2.49984 3.40002 2.48994 3.50061 2.50926 3.59765C2.52859 3.6947 2.57627 3.78382 2.64628 3.85375L6.79315 8H3.00003C2.90108 7.99992 2.80433 8.0292 2.72204 8.08414C2.63974 8.13908 2.57559 8.21719 2.53772 8.30861C2.49984 8.40002 2.48994 8.50061 2.50926 8.59765C2.52859 8.6947 2.57627 8.78382 2.64628 8.85375L7.64628 13.8538C7.69271 13.9002 7.74786 13.9371 7.80856 13.9623C7.86926 13.9874 7.93432 14.0004 8.00003 14.0004C8.06574 14.0004 8.1308 13.9874 8.1915 13.9623C8.2522 13.9371 8.30734 13.9002 8.35378 13.8538L13.3538 8.85375C13.4238 8.78382 13.4715 8.6947 13.4908 8.59765C13.5101 8.50061 13.5002 8.40002 13.4623 8.30861C13.4245 8.21719 13.3603 8.13908 13.278 8.08414C13.1957 8.0292 13.099 7.99992 13 8Z" fill="black"/>
</g>
<defs>
<clipPath id="clip0_5_1608">
<rect width="16" height="16" fill="white"/>
</clipPath>
</defs>
</svg>
