<svg width="16" height="16" viewBox="0 0 16 16" fill="none" xmlns="http://www.w3.org/2000/svg">
<g clip-path="url(#clip0_5_1105)">
<path d="M3.4012 3.4019C2.49279 4.31119 1.87436 5.46939 1.62407 6.7301C1.37378 7.9908 1.50287 9.29741 1.99503 10.4848C2.48718 11.6721 3.32031 12.6869 4.38909 13.4008C5.45787 14.1148 6.71433 14.4958 7.99964 14.4958C9.28495 14.4958 10.5414 14.1148 11.6102 13.4008C12.679 12.6869 13.5121 11.6721 14.0042 10.4848C14.4964 9.29741 14.6255 7.9908 14.3752 6.7301C14.1249 5.46939 13.5065 4.31119 12.5981 3.4019C11.3775 2.18414 9.72378 1.50024 7.99964 1.50024C6.27549 1.50024 4.62175 2.18414 3.4012 3.4019ZM9.64682 8.6469C9.69328 8.60044 9.74843 8.56359 9.80913 8.53845C9.86982 8.51331 9.93488 8.50037 10.0006 8.50037C10.0663 8.50037 10.1313 8.51331 10.192 8.53845C10.2527 8.56359 10.3079 8.60044 10.3543 8.6469C10.4008 8.69335 10.4376 8.7485 10.4628 8.8092C10.4879 8.8699 10.5009 8.93495 10.5009 9.00065C10.5009 9.06635 10.4879 9.1314 10.4628 9.1921C10.4376 9.25279 10.4008 9.30794 10.3543 9.3544L8.35432 11.3544C8.30789 11.4009 8.25274 11.4378 8.19204 11.4629C8.13134 11.4881 8.06628 11.501 8.00057 11.501C7.93487 11.501 7.8698 11.4881 7.8091 11.4629C7.7484 11.4378 7.69326 11.4009 7.64682 11.3544L5.64682 9.3544C5.60037 9.30794 5.56352 9.25279 5.53838 9.1921C5.51324 9.1314 5.5003 9.06635 5.5003 9.00065C5.5003 8.93495 5.51324 8.8699 5.53838 8.8092C5.56352 8.7485 5.60037 8.69335 5.64682 8.6469C5.69328 8.60044 5.74843 8.56359 5.80913 8.53845C5.86982 8.51331 5.93488 8.50037 6.00057 8.50037C6.06627 8.50037 6.13133 8.51331 6.19202 8.53845C6.25272 8.56359 6.30787 8.60044 6.35432 8.6469L7.99995 10.2944L9.64682 8.6469ZM9.64682 5.1469C9.69328 5.10044 9.74843 5.06359 9.80913 5.03845C9.86982 5.01331 9.93488 5.00037 10.0006 5.00037C10.0663 5.00037 10.1313 5.01331 10.192 5.03845C10.2527 5.06359 10.3079 5.10044 10.3543 5.1469C10.4008 5.19335 10.4376 5.2485 10.4628 5.3092C10.4879 5.3699 10.5009 5.43495 10.5009 5.50065C10.5009 5.56635 10.4879 5.6314 10.4628 5.6921C10.4376 5.75279 10.4008 5.80794 10.3543 5.8544L8.35432 7.8544C8.30789 7.90089 8.25274 7.93777 8.19204 7.96293C8.13134 7.98809 8.06628 8.00104 8.00057 8.00104C7.93487 8.00104 7.8698 7.98809 7.8091 7.96293C7.7484 7.93777 7.69326 7.90089 7.64682 7.8544L5.64682 5.8544C5.60037 5.80794 5.56352 5.75279 5.53838 5.6921C5.51324 5.6314 5.5003 5.56635 5.5003 5.50065C5.5003 5.43495 5.51324 5.3699 5.53838 5.3092C5.56352 5.2485 5.60037 5.19335 5.64682 5.1469C5.69328 5.10044 5.74843 5.06359 5.80913 5.03845C5.86982 5.01331 5.93488 5.00037 6.00057 5.00037C6.06627 5.00037 6.13133 5.01331 6.19202 5.03845C6.25272 5.06359 6.30787 5.10044 6.35432 5.1469L7.99995 6.79252L9.64682 5.1469Z" fill="black"/>
</g>
<defs>
<clipPath id="clip0_5_1105">
<rect width="16" height="16" fill="white"/>
</clipPath>
</defs>
</svg>
