<svg width="16" height="16" viewBox="0 0 16 16" fill="none" xmlns="http://www.w3.org/2000/svg">
<g clip-path="url(#clip0_5_1090)">
<path d="M13.3538 11.6462C13.4238 11.7162 13.4715 11.8053 13.4908 11.9023C13.5101 11.9994 13.5002 12.1 13.4623 12.1914C13.4245 12.2828 13.3603 12.3609 13.278 12.4159C13.1957 12.4708 13.099 12.5001 13 12.5H3.00003C2.90108 12.5001 2.80433 12.4708 2.72204 12.4159C2.63974 12.3609 2.57559 12.2828 2.53772 12.1914C2.49984 12.1 2.48994 11.9994 2.50926 11.9023C2.52859 11.8053 2.57627 11.7162 2.64628 11.6462L7.64628 6.64625C7.69271 6.59976 7.74786 6.56288 7.80856 6.53772C7.86926 6.51256 7.93432 6.49961 8.00003 6.49961C8.06574 6.49961 8.1308 6.51256 8.1915 6.53772C8.2522 6.56288 8.30734 6.59976 8.35378 6.64625L13.3538 11.6462ZM3.00003 5H13C13.1326 5 13.2598 4.94732 13.3536 4.85355C13.4473 4.75979 13.5 4.63261 13.5 4.5C13.5 4.36739 13.4473 4.24021 13.3536 4.14645C13.2598 4.05268 13.1326 4 13 4H3.00003C2.86742 4 2.74024 4.05268 2.64647 4.14645C2.55271 4.24021 2.50003 4.36739 2.50003 4.5C2.50003 4.63261 2.55271 4.75979 2.64647 4.85355C2.74024 4.94732 2.86742 5 3.00003 5Z" fill="black"/>
</g>
<defs>
<clipPath id="clip0_5_1090">
<rect width="16" height="16" fill="white"/>
</clipPath>
</defs>
</svg>
