<svg width="16" height="16" viewBox="0 0 16 16" fill="none" xmlns="http://www.w3.org/2000/svg">
<g clip-path="url(#clip0_5_1628)">
<path d="M8 1.5C6.71442 1.5 5.45772 1.88122 4.3888 2.59545C3.31988 3.30968 2.48676 4.32484 1.99479 5.51256C1.50282 6.70028 1.37409 8.00721 1.6249 9.26809C1.8757 10.529 2.49477 11.6872 3.40381 12.5962C4.31285 13.5052 5.47104 14.1243 6.73192 14.3751C7.99279 14.6259 9.29973 14.4972 10.4874 14.0052C11.6752 13.5132 12.6903 12.6801 13.4046 11.6112C14.1188 10.5423 14.5 9.28558 14.5 8C14.4982 6.27665 13.8128 4.62441 12.5942 3.40582C11.3756 2.18722 9.72335 1.50182 8 1.5ZM9.35375 10.1462C9.40021 10.1927 9.43706 10.2479 9.4622 10.3086C9.48734 10.3692 9.50028 10.4343 9.50028 10.5C9.50028 10.5657 9.48734 10.6308 9.4622 10.6914C9.43706 10.7521 9.40021 10.8073 9.35375 10.8538C9.3073 10.9002 9.25215 10.9371 9.19145 10.9622C9.13075 10.9873 9.0657 11.0003 9 11.0003C8.93431 11.0003 8.86925 10.9873 8.80855 10.9622C8.74786 10.9371 8.69271 10.9002 8.64625 10.8538L6.14625 8.35375C6.09976 8.30731 6.06289 8.25217 6.03772 8.19147C6.01256 8.13077 5.99961 8.06571 5.99961 8C5.99961 7.93429 6.01256 7.86923 6.03772 7.80853C6.06289 7.74783 6.09976 7.69269 6.14625 7.64625L8.64625 5.14625C8.69271 5.09979 8.74786 5.06294 8.80855 5.0378C8.86925 5.01266 8.93431 4.99972 9 4.99972C9.0657 4.99972 9.13075 5.01266 9.19145 5.0378C9.25215 5.06294 9.3073 5.09979 9.35375 5.14625C9.40021 5.1927 9.43706 5.24786 9.4622 5.30855C9.48734 5.36925 9.50028 5.4343 9.50028 5.5C9.50028 5.5657 9.48734 5.63075 9.4622 5.69145C9.43706 5.75214 9.40021 5.8073 9.35375 5.85375L7.20688 8L9.35375 10.1462Z" fill="black"/>
</g>
<defs>
<clipPath id="clip0_5_1628">
<rect width="16" height="16" fill="white"/>
</clipPath>
</defs>
</svg>
