<svg width="16" height="16" viewBox="0 0 16 16" fill="none" xmlns="http://www.w3.org/2000/svg">
<g clip-path="url(#clip0_5_1099)">
<path d="M8 1.5C6.71442 1.5 5.45772 1.88122 4.3888 2.59545C3.31988 3.30968 2.48676 4.32484 1.99479 5.51256C1.50282 6.70028 1.37409 8.00721 1.6249 9.26809C1.8757 10.529 2.49477 11.6872 3.40381 12.5962C4.31285 13.5052 5.47104 14.1243 6.73192 14.3751C7.99279 14.6259 9.29973 14.4972 10.4874 14.0052C11.6752 13.5132 12.6903 12.6801 13.4046 11.6112C14.1188 10.5423 14.5 9.28558 14.5 8C14.4982 6.27665 13.8128 4.62441 12.5942 3.40582C11.3756 2.18722 9.72335 1.50182 8 1.5ZM10.8538 7.35375L8.35375 9.85375C8.30732 9.90024 8.25217 9.93712 8.19147 9.96228C8.13077 9.98744 8.06571 10.0004 8 10.0004C7.9343 10.0004 7.86923 9.98744 7.80853 9.96228C7.74783 9.93712 7.69269 9.90024 7.64625 9.85375L5.14625 7.35375C5.05243 7.25993 4.99972 7.13268 4.99972 7C4.99972 6.86732 5.05243 6.74007 5.14625 6.64625C5.24007 6.55243 5.36732 6.49972 5.5 6.49972C5.63268 6.49972 5.75993 6.55243 5.85375 6.64625L8 8.79313L10.1463 6.64625C10.1927 6.59979 10.2479 6.56294 10.3086 6.5378C10.3693 6.51266 10.4343 6.49972 10.5 6.49972C10.5657 6.49972 10.6308 6.51266 10.6915 6.5378C10.7521 6.56294 10.8073 6.59979 10.8538 6.64625C10.9002 6.6927 10.9371 6.74786 10.9622 6.80855C10.9873 6.86925 11.0003 6.9343 11.0003 7C11.0003 7.0657 10.9873 7.13075 10.9622 7.19145C10.9371 7.25214 10.9002 7.3073 10.8538 7.35375Z" fill="black"/>
</g>
<defs>
<clipPath id="clip0_5_1099">
<rect width="16" height="16" fill="white"/>
</clipPath>
</defs>
</svg>
