<svg width="16" height="16" viewBox="0 0 16 16" fill="none" xmlns="http://www.w3.org/2000/svg">
<g clip-path="url(#clip0_5_1703)">
<path d="M8 1.5C6.71442 1.5 5.45772 1.88122 4.3888 2.59545C3.31988 3.30968 2.48676 4.32484 1.99479 5.51256C1.50282 6.70028 1.37409 8.00721 1.6249 9.26809C1.8757 10.529 2.49477 11.6872 3.40381 12.5962C4.31285 13.5052 5.47104 14.1243 6.73192 14.3751C7.99279 14.6259 9.29973 14.4972 10.4874 14.0052C11.6752 13.5132 12.6903 12.6801 13.4046 11.6112C14.1188 10.5423 14.5 9.28558 14.5 8C14.4982 6.27665 13.8128 4.62441 12.5942 3.40582C11.3756 2.18722 9.72335 1.50182 8 1.5ZM10.3538 9.85375L8.35375 11.8538C8.30732 11.9002 8.25217 11.9371 8.19147 11.9623C8.13077 11.9874 8.06571 12.0004 8 12.0004C7.9343 12.0004 7.86923 11.9874 7.80853 11.9623C7.74783 11.9371 7.69269 11.9002 7.64625 11.8538L5.64625 9.85375C5.55243 9.75993 5.49972 9.63268 5.49972 9.5C5.49972 9.36732 5.55243 9.24007 5.64625 9.14625C5.74007 9.05243 5.86732 8.99972 6 8.99972C6.13268 8.99972 6.25993 9.05243 6.35375 9.14625L8 10.7931L9.64625 9.14625C9.74007 9.05243 9.86732 8.99972 10 8.99972C10.1327 8.99972 10.2599 9.05243 10.3538 9.14625C10.4476 9.24007 10.5003 9.36732 10.5003 9.5C10.5003 9.63268 10.4476 9.75993 10.3538 9.85375ZM10.3538 6.85375C10.3073 6.90024 10.2522 6.93712 10.1915 6.96228C10.1308 6.98744 10.0657 7.00039 10 7.00039C9.93429 7.00039 9.86923 6.98744 9.80853 6.96228C9.74783 6.93712 9.69269 6.90024 9.64625 6.85375L8 5.20687L6.35375 6.85375C6.25993 6.94757 6.13268 7.00028 6 7.00028C5.86732 7.00028 5.74007 6.94757 5.64625 6.85375C5.55243 6.75993 5.49972 6.63268 5.49972 6.5C5.49972 6.36732 5.55243 6.24007 5.64625 6.14625L7.64625 4.14625C7.69269 4.09976 7.74783 4.06288 7.80853 4.03772C7.86923 4.01256 7.9343 3.99961 8 3.99961C8.06571 3.99961 8.13077 4.01256 8.19147 4.03772C8.25217 4.06288 8.30732 4.09976 8.35375 4.14625L10.3538 6.14625C10.4002 6.19269 10.4371 6.24783 10.4623 6.30853C10.4874 6.36923 10.5004 6.43429 10.5004 6.5C10.5004 6.56571 10.4874 6.63077 10.4623 6.69147C10.4371 6.75217 10.4002 6.80731 10.3538 6.85375Z" fill="black"/>
</g>
<defs>
<clipPath id="clip0_5_1703">
<rect width="16" height="16" fill="white"/>
</clipPath>
</defs>
</svg>
