<svg width="16" height="16" viewBox="0 0 16 16" fill="none" xmlns="http://www.w3.org/2000/svg">
<g clip-path="url(#clip0_5_1543)">
<path d="M12.5981 3.40126C11.6888 2.49285 10.5306 1.87442 9.2699 1.62413C8.0092 1.37384 6.70259 1.50293 5.51524 1.99509C4.32789 2.48724 3.31311 3.32037 2.59916 4.38915C1.88521 5.45793 1.50415 6.71439 1.50415 7.9997C1.50415 9.28501 1.88521 10.5415 2.59916 11.6102C3.31311 12.679 4.32789 13.5122 5.51524 14.0043C6.70259 14.4965 8.0092 14.6256 9.2699 14.3753C10.5306 14.125 11.6888 13.5065 12.5981 12.5981C13.8159 11.3776 14.4998 9.72384 14.4998 7.9997C14.4998 6.27555 13.8159 4.62181 12.5981 3.40126ZM7.3531 9.64689C7.39955 9.69334 7.43641 9.74849 7.46155 9.80919C7.48669 9.86988 7.49963 9.93494 7.49963 10.0006C7.49963 10.0663 7.48669 10.1314 7.46155 10.1921C7.43641 10.2528 7.39955 10.3079 7.3531 10.3544C7.30664 10.4008 7.25149 10.4377 7.1908 10.4628C7.1301 10.488 7.06505 10.5009 6.99935 10.5009C6.93365 10.5009 6.8686 10.488 6.8079 10.4628C6.7472 10.4377 6.69206 10.4008 6.6456 10.3544L4.6456 8.35438C4.59911 8.30795 4.56223 8.2528 4.53707 8.1921C4.51191 8.13141 4.49896 8.06634 4.49896 8.00063C4.49896 7.93493 4.51191 7.86986 4.53707 7.80917C4.56223 7.74847 4.59911 7.69332 4.6456 7.64688L6.6456 5.64688C6.69206 5.60043 6.7472 5.56358 6.8079 5.53844C6.8686 5.5133 6.93365 5.50036 6.99935 5.50036C7.06505 5.50036 7.1301 5.5133 7.1908 5.53844C7.25149 5.56358 7.30664 5.60043 7.3531 5.64688C7.39955 5.69334 7.43641 5.74849 7.46155 5.80919C7.48669 5.86988 7.49963 5.93494 7.49963 6.00064C7.49963 6.06633 7.48669 6.13139 7.46155 6.19208C7.43641 6.25278 7.39955 6.30793 7.3531 6.35438L5.7056 8.00001L7.3531 9.64689ZM10.8531 9.64689C10.8996 9.69334 10.9364 9.74849 10.9615 9.80919C10.9867 9.86988 10.9996 9.93494 10.9996 10.0006C10.9996 10.0663 10.9867 10.1314 10.9615 10.1921C10.9364 10.2528 10.8996 10.3079 10.8531 10.3544C10.8066 10.4008 10.7515 10.4377 10.6908 10.4628C10.6301 10.488 10.565 10.5009 10.4994 10.5009C10.4337 10.5009 10.3686 10.488 10.3079 10.4628C10.2472 10.4377 10.1921 10.4008 10.1456 10.3544L8.1456 8.35438C8.09911 8.30795 8.06223 8.2528 8.03707 8.1921C8.01191 8.13141 7.99896 8.06634 7.99896 8.00063C7.99896 7.93493 8.01191 7.86986 8.03707 7.80917C8.06223 7.74847 8.09911 7.69332 8.1456 7.64688L10.1456 5.64688C10.1921 5.60043 10.2472 5.56358 10.3079 5.53844C10.3686 5.5133 10.4337 5.50036 10.4994 5.50036C10.565 5.50036 10.6301 5.5133 10.6908 5.53844C10.7515 5.56358 10.8066 5.60043 10.8531 5.64688C10.8996 5.69334 10.9364 5.74849 10.9615 5.80919C10.9867 5.86988 10.9996 5.93494 10.9996 6.00064C10.9996 6.06633 10.9867 6.13139 10.9615 6.19208C10.9364 6.25278 10.8996 6.30793 10.8531 6.35438L9.20748 8.00001L10.8531 9.64689Z" fill="black"/>
</g>
<defs>
<clipPath id="clip0_5_1543">
<rect width="16" height="16" fill="white"/>
</clipPath>
</defs>
</svg>
