<svg width="16" height="16" viewBox="0 0 16 16" fill="none" xmlns="http://www.w3.org/2000/svg">
<g clip-path="url(#clip0_5_1101)">
<path d="M12.5988 12.5981C13.5072 11.6888 14.1256 10.5306 14.3759 9.2699C14.6262 8.0092 14.4971 6.70259 14.005 5.51524C13.5128 4.32789 12.6797 3.31311 11.6109 2.59916C10.5421 1.88521 9.28568 1.50415 8.00037 1.50415C6.71506 1.50415 5.4586 1.88521 4.38982 2.59916C3.32104 3.31311 2.48792 4.32789 1.99576 5.51524C1.5036 6.70259 1.37451 8.0092 1.6248 9.2699C1.87509 10.5306 2.49353 11.6888 3.40193 12.5981C4.62248 13.8159 6.27623 14.4998 8.00037 14.4998C9.72451 14.4998 11.3783 13.8159 12.5988 12.5981ZM6.35318 7.3531C6.30673 7.39955 6.25158 7.43641 6.19088 7.46155C6.13018 7.48669 6.06513 7.49963 5.99943 7.49963C5.93373 7.49963 5.86868 7.48669 5.80798 7.46155C5.74729 7.43641 5.69214 7.39955 5.64568 7.3531C5.59923 7.30664 5.56238 7.25149 5.53724 7.1908C5.51209 7.1301 5.49915 7.06505 5.49915 6.99935C5.49915 6.93365 5.51209 6.8686 5.53724 6.8079C5.56238 6.7472 5.59923 6.69206 5.64568 6.6456L7.64568 4.6456C7.69212 4.59911 7.74726 4.56223 7.80796 4.53707C7.86866 4.51191 7.93372 4.49896 7.99943 4.49896C8.06514 4.49896 8.1302 4.51191 8.1909 4.53707C8.2516 4.56223 8.30675 4.59911 8.35318 4.6456L10.3532 6.6456C10.447 6.73942 10.4997 6.86667 10.4997 6.99935C10.4997 7.13203 10.447 7.25928 10.3532 7.3531C10.2594 7.44692 10.1321 7.49963 9.99943 7.49963C9.86675 7.49963 9.7395 7.44692 9.64568 7.3531L8.00006 5.7056L6.35318 7.3531ZM6.35318 10.8531C6.30673 10.8996 6.25158 10.9364 6.19088 10.9615C6.13018 10.9867 6.06513 10.9996 5.99943 10.9996C5.93373 10.9996 5.86868 10.9867 5.80798 10.9615C5.74729 10.9364 5.69214 10.8996 5.64568 10.8531C5.59923 10.8066 5.56238 10.7515 5.53724 10.6908C5.51209 10.6301 5.49915 10.565 5.49915 10.4994C5.49915 10.4337 5.51209 10.3686 5.53724 10.3079C5.56238 10.2472 5.59923 10.1921 5.64568 10.1456L7.64568 8.1456C7.69212 8.09911 7.74726 8.06223 7.80796 8.03707C7.86866 8.01191 7.93372 7.99896 7.99943 7.99896C8.06514 7.99896 8.1302 8.01191 8.1909 8.03707C8.2516 8.06223 8.30675 8.09911 8.35318 8.1456L10.3532 10.1456C10.447 10.2394 10.4997 10.3667 10.4997 10.4994C10.4997 10.632 10.447 10.7593 10.3532 10.8531C10.2594 10.9469 10.1321 10.9996 9.99943 10.9996C9.86675 10.9996 9.7395 10.9469 9.64568 10.8531L8.00006 9.20748L6.35318 10.8531Z" fill="black"/>
</g>
<defs>
<clipPath id="clip0_5_1101">
<rect width="16" height="16" fill="white"/>
</clipPath>
</defs>
</svg>
