<svg width="16" height="16" viewBox="0 0 16 16" fill="none" xmlns="http://www.w3.org/2000/svg">
<g clip-path="url(#clip0_5_1349)">
<path d="M13.8538 7.64628L8.85375 2.64628C8.78382 2.57627 8.6947 2.52859 8.59765 2.50926C8.50061 2.48994 8.40002 2.49984 8.30861 2.53772C8.21719 2.57559 8.13908 2.63974 8.08414 2.72204C8.0292 2.80433 7.99992 2.90108 8 3.00003V6.79315L3.85375 2.64628C3.78382 2.57627 3.6947 2.52859 3.59765 2.50926C3.50061 2.48994 3.40002 2.49984 3.30861 2.53772C3.21719 2.57559 3.13908 2.63974 3.08414 2.72204C3.0292 2.80433 2.99992 2.90108 3 3.00003V13C2.99992 13.099 3.0292 13.1957 3.08414 13.278C3.13908 13.3603 3.21719 13.4245 3.30861 13.4623C3.40002 13.5002 3.50061 13.5101 3.59765 13.4908C3.6947 13.4715 3.78382 13.4238 3.85375 13.3538L8 9.2069V13C7.99992 13.099 8.0292 13.1957 8.08414 13.278C8.13908 13.3603 8.21719 13.4245 8.30861 13.4623C8.40002 13.5002 8.50061 13.5101 8.59765 13.4908C8.6947 13.4715 8.78382 13.4238 8.85375 13.3538L13.8538 8.35378C13.9002 8.30734 13.9371 8.2522 13.9623 8.1915C13.9874 8.1308 14.0004 8.06574 14.0004 8.00003C14.0004 7.93432 13.9874 7.86926 13.9623 7.80856C13.9371 7.74786 13.9002 7.69271 13.8538 7.64628Z" fill="black"/>
</g>
<defs>
<clipPath id="clip0_5_1349">
<rect width="16" height="16" fill="white"/>
</clipPath>
</defs>
</svg>
