<svg width="16" height="16" viewBox="0 0 16 16" fill="none" xmlns="http://www.w3.org/2000/svg">
<g clip-path="url(#clip0_5_1092)">
<path d="M12.5 3.00003V13C12.5001 13.099 12.4708 13.1957 12.4159 13.278C12.3609 13.3603 12.2828 13.4245 12.1914 13.4623C12.1 13.5002 11.9994 13.5101 11.9023 13.4908C11.8053 13.4715 11.7162 13.4238 11.6462 13.3538L6.64625 8.35378C6.59976 8.30734 6.56288 8.2522 6.53772 8.1915C6.51256 8.1308 6.49961 8.06574 6.49961 8.00003C6.49961 7.93432 6.51256 7.86926 6.53772 7.80856C6.56288 7.74786 6.59976 7.69271 6.64625 7.64628L11.6462 2.64628C11.7162 2.57627 11.8053 2.52859 11.9023 2.50926C11.9994 2.48994 12.1 2.49984 12.1914 2.53772C12.2828 2.57559 12.3609 2.63974 12.4159 2.72204C12.4708 2.80433 12.5001 2.90108 12.5 3.00003ZM4.5 2.50003C4.36739 2.50003 4.24021 2.55271 4.14645 2.64647C4.05268 2.74024 4 2.86742 4 3.00003V13C4 13.1326 4.05268 13.2598 4.14645 13.3536C4.24021 13.4473 4.36739 13.5 4.5 13.5C4.63261 13.5 4.75979 13.4473 4.85355 13.3536C4.94732 13.2598 5 13.1326 5 13V3.00003C5 2.86742 4.94732 2.74024 4.85355 2.64647C4.75979 2.55271 4.63261 2.50003 4.5 2.50003Z" fill="black"/>
</g>
<defs>
<clipPath id="clip0_5_1092">
<rect width="16" height="16" fill="white"/>
</clipPath>
</defs>
</svg>
