<svg width="16" height="16" viewBox="0 0 16 16" fill="none" xmlns="http://www.w3.org/2000/svg">
<g clip-path="url(#clip0_5_1086)">
<path d="M11.4618 10.8088C11.4997 10.9001 11.5096 11.0007 11.4904 11.0977C11.4711 11.1947 11.4236 11.2838 11.3537 11.3538L8.35366 14.3538C8.30722 14.4003 8.25207 14.4371 8.19138 14.4623C8.13068 14.4875 8.06561 14.5004 7.99991 14.5004C7.9342 14.5004 7.86913 14.4875 7.80844 14.4623C7.74774 14.4371 7.69259 14.4003 7.64616 14.3538L4.64616 11.3538C4.57615 11.2838 4.52847 11.1947 4.50914 11.0977C4.48982 11.0006 4.49972 10.9 4.53759 10.8086C4.57547 10.7172 4.63962 10.6391 4.72191 10.5842C4.80421 10.5292 4.90096 10.4999 4.99991 10.5H10.9999C11.0988 10.5 11.1955 10.5294 11.2777 10.5843C11.3599 10.6393 11.424 10.7174 11.4618 10.8088ZM4.99991 5.50003H10.9999C11.0989 5.5001 11.1956 5.47082 11.2779 5.41589C11.3602 5.36095 11.4243 5.28283 11.4622 5.19142C11.5001 5.10001 11.51 4.99942 11.4907 4.90237C11.4713 4.80533 11.4237 4.7162 11.3537 4.64628L8.35366 1.64628C8.30722 1.59979 8.25207 1.56291 8.19138 1.53775C8.13068 1.51258 8.06561 1.49963 7.99991 1.49963C7.9342 1.49963 7.86913 1.51258 7.80844 1.53775C7.74774 1.56291 7.69259 1.59979 7.64616 1.64628L4.64616 4.64628C4.57615 4.7162 4.52847 4.80533 4.50914 4.90237C4.48982 4.99942 4.49972 5.10001 4.53759 5.19142C4.57547 5.28283 4.63962 5.36095 4.72191 5.41589C4.80421 5.47082 4.90096 5.5001 4.99991 5.50003Z" fill="black"/>
</g>
<defs>
<clipPath id="clip0_5_1086">
<rect width="16" height="16" fill="white"/>
</clipPath>
</defs>
</svg>
