<svg width="16" height="16" viewBox="0 0 16 16" fill="none" xmlns="http://www.w3.org/2000/svg">
<g clip-path="url(#clip0_5_1602)">
<path d="M12.6913 2.53815C12.5999 2.50025 12.4994 2.4903 12.4024 2.50954C12.3054 2.52879 12.2162 2.57637 12.1463 2.64628L8.00003 6.79315V3.00003C8.0001 2.90108 7.97082 2.80433 7.91589 2.72204C7.86095 2.63974 7.78283 2.57559 7.69142 2.53772C7.60001 2.49984 7.49942 2.48994 7.40237 2.50926C7.30533 2.52859 7.2162 2.57627 7.14628 2.64628L2.14628 7.64628C2.09979 7.69271 2.06291 7.74786 2.03775 7.80856C2.01259 7.86926 1.99963 7.93432 1.99963 8.00003C1.99963 8.06574 2.01259 8.1308 2.03775 8.1915C2.06291 8.2522 2.09979 8.30734 2.14628 8.35378L7.14628 13.3538C7.2162 13.4238 7.30533 13.4715 7.40237 13.4908C7.49942 13.5101 7.60001 13.5002 7.69142 13.4623C7.78283 13.4245 7.86095 13.3603 7.91589 13.278C7.97082 13.1957 8.0001 13.099 8.00003 13V9.2069L12.1463 13.3538C12.2162 13.4238 12.3053 13.4715 12.4024 13.4908C12.4994 13.5101 12.6 13.5002 12.6914 13.4623C12.7828 13.4245 12.861 13.3603 12.9159 13.278C12.9708 13.1957 13.0001 13.099 13 13V3.00003C13 2.90114 12.9707 2.80447 12.9157 2.72226C12.8607 2.64005 12.7826 2.57598 12.6913 2.53815Z" fill="black"/>
</g>
<defs>
<clipPath id="clip0_5_1602">
<rect width="16" height="16" fill="white"/>
</clipPath>
</defs>
</svg>
