<svg width="16" height="16" viewBox="0 0 16 16" fill="none" xmlns="http://www.w3.org/2000/svg">
<g clip-path="url(#clip0_5_1083)">
<path d="M14.5 4.99998H12.465C12.9052 5.76271 13.0814 6.64939 12.9662 7.52246C12.8511 8.39554 12.451 9.20622 11.8281 9.82873C11.2956 10.3719 10.6025 10.8862 9.8375 11.3606C9.78962 11.3898 9.73334 11.402 9.67768 11.3953C9.62203 11.3886 9.57024 11.3634 9.53063 11.3237L7.35313 9.14623C7.30577 9.09885 7.24936 9.06147 7.18727 9.03632C7.12518 9.01116 7.05867 8.99874 6.99168 8.99979C6.9247 9.00084 6.85861 9.01534 6.79734 9.04243C6.73606 9.06951 6.68086 9.10864 6.635 9.15748C6.54677 9.25648 6.50017 9.38573 6.50495 9.51825C6.50972 9.65078 6.5655 9.77634 6.66063 9.86873L8.52813 11.7362C8.55602 11.7641 8.57694 11.7981 8.58917 11.8356C8.6014 11.8731 8.6046 11.9129 8.59851 11.9518C8.59241 11.9908 8.5772 12.0277 8.55411 12.0596C8.53101 12.0916 8.5007 12.1176 8.46563 12.1356C5.98375 13.4244 3.3125 14.2837 2.92375 14.405C2.73779 14.4916 2.52967 14.519 2.32764 14.4833C2.1256 14.4476 1.93943 14.3507 1.79436 14.2056C1.64929 14.0606 1.55235 13.8744 1.51669 13.6723C1.48103 13.4703 1.50837 13.2622 1.595 13.0762C1.76563 12.5319 3.4075 7.43436 5.64875 4.74186C5.67103 4.71521 5.69861 4.69351 5.72973 4.67811C5.76086 4.66272 5.79486 4.65398 5.82955 4.65245C5.86424 4.65092 5.89887 4.65664 5.93123 4.66923C5.96359 4.68183 5.99297 4.70103 6.0175 4.72561L8.64563 7.35436C8.69424 7.40294 8.75234 7.44097 8.81631 7.46609C8.88028 7.49122 8.94874 7.50288 9.01742 7.50036C9.0861 7.49783 9.15352 7.48118 9.21548 7.45144C9.27743 7.42169 9.33259 7.3795 9.3775 7.32748C9.45966 7.22833 9.50143 7.10185 9.49448 6.97327C9.48753 6.84469 9.43237 6.72345 9.34 6.63373L6.755 4.04873C6.72865 4.02248 6.70848 3.99068 6.69597 3.95565C6.68346 3.92062 6.67892 3.88324 6.6827 3.84623C6.68647 3.80922 6.69845 3.77352 6.71777 3.74173C6.73709 3.70995 6.76327 3.68287 6.79438 3.66248C7.41451 3.25314 8.1364 3.02461 8.87912 3.00254C9.62184 2.98046 10.356 3.16569 10.9994 3.53748V1.49998C10.9992 1.43138 11.0132 1.36348 11.0404 1.30051C11.0676 1.23754 11.1075 1.18084 11.1575 1.13394C11.2076 1.08704 11.2668 1.05094 11.3314 1.0279C11.396 1.00485 11.4647 0.99535 11.5331 0.999981C11.6619 1.01118 11.7816 1.07072 11.8682 1.16661C11.9548 1.26251 12.0019 1.38765 12 1.51686V3.29311L13.6463 1.64623C13.6927 1.59978 13.7479 1.56293 13.8086 1.53778C13.8693 1.51264 13.9343 1.4997 14 1.4997C14.0657 1.4997 14.1308 1.51264 14.1915 1.53778C14.2521 1.56293 14.3073 1.59978 14.3538 1.64623C14.4002 1.69269 14.4371 1.74784 14.4622 1.80853C14.4873 1.86923 14.5003 1.93428 14.5003 1.99998C14.5003 2.06568 14.4873 2.13073 14.4622 2.19143C14.4371 2.25213 14.4002 2.30728 14.3538 2.35373L12.7069 3.99998H14.4831C14.6123 3.99807 14.7375 4.04516 14.8334 4.13178C14.9293 4.2184 14.9888 4.33812 15 4.46686C15.0045 4.53525 14.995 4.60385 14.9719 4.66839C14.9488 4.73292 14.9127 4.79203 14.8658 4.84202C14.8189 4.89202 14.7622 4.93184 14.6993 4.95901C14.6364 4.98619 14.5685 5.00013 14.5 4.99998Z" fill="black"/>
</g>
<defs>
<clipPath id="clip0_5_1083">
<rect width="16" height="16" fill="white"/>
</clipPath>
</defs>
</svg>
