<svg width="16" height="16" viewBox="0 0 16 16" fill="none" xmlns="http://www.w3.org/2000/svg">
<g clip-path="url(#clip0_5_1082)">
<path d="M14.985 9.87875L13.58 4.2575C13.5259 4.04106 13.401 3.84892 13.2251 3.71166C13.0492 3.5744 12.8325 3.49989 12.6094 3.5H8.5V2.5C8.5 2.23478 8.39464 1.98043 8.20711 1.79289C8.01957 1.60536 7.76522 1.5 7.5 1.5H5C4.73478 1.5 4.48043 1.60536 4.29289 1.79289C4.10536 1.98043 4 2.23478 4 2.5V3.5H3.39062C3.16752 3.49989 2.95079 3.5744 2.77491 3.71166C2.59903 3.84892 2.4741 4.04106 2.42 4.2575L1.015 9.87875C1.00502 9.91839 0.99998 9.95912 1 10V12C1 12.2652 1.10536 12.5196 1.29289 12.7071C1.48043 12.8946 1.73478 13 2 13H14C14.2652 13 14.5196 12.8946 14.7071 12.7071C14.8946 12.5196 15 12.2652 15 12V10C15 9.95912 14.995 9.91839 14.985 9.87875ZM10.5 5.5H11.5C11.6326 5.5 11.7598 5.55268 11.8536 5.64645C11.9473 5.74021 12 5.86739 12 6C12 6.13261 11.9473 6.25979 11.8536 6.35355C11.7598 6.44732 11.6326 6.5 11.5 6.5H10.5C10.3674 6.5 10.2402 6.44732 10.1464 6.35355C10.0527 6.25979 10 6.13261 10 6C10 5.86739 10.0527 5.74021 10.1464 5.64645C10.2402 5.55268 10.3674 5.5 10.5 5.5ZM10.5 7.5H11.5C11.6326 7.5 11.7598 7.55268 11.8536 7.64645C11.9473 7.74021 12 7.86739 12 8C12 8.13261 11.9473 8.25979 11.8536 8.35355C11.7598 8.44732 11.6326 8.5 11.5 8.5H10.5C10.3674 8.5 10.2402 8.44732 10.1464 8.35355C10.0527 8.25979 10 8.13261 10 8C10 7.86739 10.0527 7.74021 10.1464 7.64645C10.2402 7.55268 10.3674 7.5 10.5 7.5ZM8.5 5.5C8.63261 5.5 8.75979 5.55268 8.85355 5.64645C8.94732 5.74021 9 5.86739 9 6C9 6.13261 8.94732 6.25979 8.85355 6.35355C8.75979 6.44732 8.63261 6.5 8.5 6.5H7.5C7.36739 6.5 7.24021 6.44732 7.14645 6.35355C7.05268 6.25979 7 6.13261 7 6C7 5.86739 7.05268 5.74021 7.14645 5.64645C7.24021 5.55268 7.36739 5.5 7.5 5.5H8.5ZM9 8C9 8.13261 8.94732 8.25979 8.85355 8.35355C8.75979 8.44732 8.63261 8.5 8.5 8.5H7.5C7.36739 8.5 7.24021 8.44732 7.14645 8.35355C7.05268 8.25979 7 8.13261 7 8C7 7.86739 7.05268 7.74021 7.14645 7.64645C7.24021 7.55268 7.36739 7.5 7.5 7.5H8.5C8.63261 7.5 8.75979 7.55268 8.85355 7.64645C8.94732 7.74021 9 7.86739 9 8ZM5 2.5H7.5V3.5H5V2.5ZM4.5 5.5H5.5C5.63261 5.5 5.75979 5.55268 5.85355 5.64645C5.94732 5.74021 6 5.86739 6 6C6 6.13261 5.94732 6.25979 5.85355 6.35355C5.75979 6.44732 5.63261 6.5 5.5 6.5H4.5C4.36739 6.5 4.24021 6.44732 4.14645 6.35355C4.05268 6.25979 4 6.13261 4 6C4 5.86739 4.05268 5.74021 4.14645 5.64645C4.24021 5.55268 4.36739 5.5 4.5 5.5ZM4.5 7.5H5.5C5.63261 7.5 5.75979 7.55268 5.85355 7.64645C5.94732 7.74021 6 7.86739 6 8C6 8.13261 5.94732 8.25979 5.85355 8.35355C5.75979 8.44732 5.63261 8.5 5.5 8.5H4.5C4.36739 8.5 4.24021 8.44732 4.14645 8.35355C4.05268 8.25979 4 8.13261 4 8C4 7.86739 4.05268 7.74021 4.14645 7.64645C4.24021 7.55268 4.36739 7.5 4.5 7.5ZM14 12H2V10.5H14V12Z" fill="black"/>
</g>
<defs>
<clipPath id="clip0_5_1082">
<rect width="16" height="16" fill="white"/>
</clipPath>
</defs>
</svg>
