<svg width="16" height="16" viewBox="0 0 16 16" fill="none" xmlns="http://www.w3.org/2000/svg">
<g clip-path="url(#clip0_5_1079)">
<path d="M9.76875 6C9.59272 6.30387 9.50002 6.64882 9.50002 7C9.50002 7.35117 9.59272 7.69613 9.76875 8H6.23125C6.40728 7.69613 6.49998 7.35117 6.49998 7C6.49998 6.64882 6.40728 6.30387 6.23125 6H9.76875ZM4.5 6C4.30222 6 4.10888 6.05865 3.94443 6.16853C3.77998 6.27841 3.65181 6.43459 3.57612 6.61732C3.50043 6.80004 3.48063 7.00111 3.51921 7.19509C3.5578 7.38907 3.65304 7.56725 3.79289 7.70711C3.93275 7.84696 4.11093 7.9422 4.30491 7.98079C4.49889 8.01937 4.69996 7.99957 4.88268 7.92388C5.06541 7.84819 5.22159 7.72002 5.33147 7.55557C5.44135 7.39112 5.5 7.19778 5.5 7C5.5 6.73478 5.39464 6.48043 5.20711 6.29289C5.01957 6.10536 4.76522 6 4.5 6ZM15 4V12C15 12.2652 14.8946 12.5196 14.7071 12.7071C14.5196 12.8946 14.2652 13 14 13H2C1.73478 13 1.48043 12.8946 1.29289 12.7071C1.10536 12.5196 1 12.2652 1 12V4C1 3.73478 1.10536 3.48043 1.29289 3.29289C1.48043 3.10536 1.73478 3 2 3H14C14.2652 3 14.5196 3.10536 14.7071 3.29289C14.8946 3.48043 15 3.73478 15 4ZM11.625 12L10.65 10.7C10.6034 10.6379 10.543 10.5875 10.4736 10.5528C10.4042 10.5181 10.3276 10.5 10.25 10.5H5.75C5.67238 10.5 5.59582 10.5181 5.52639 10.5528C5.45697 10.5875 5.39657 10.6379 5.35 10.7L4.375 12H11.625ZM13.5 7C13.5 6.46957 13.2893 5.96086 12.9142 5.58579C12.5391 5.21071 12.0304 5 11.5 5H4.5C3.96957 5 3.46086 5.21071 3.08579 5.58579C2.71071 5.96086 2.5 6.46957 2.5 7C2.5 7.53043 2.71071 8.03914 3.08579 8.41421C3.46086 8.78929 3.96957 9 4.5 9H11.5C12.0304 9 12.5391 8.78929 12.9142 8.41421C13.2893 8.03914 13.5 7.53043 13.5 7ZM11.5 6C11.3022 6 11.1089 6.05865 10.9444 6.16853C10.78 6.27841 10.6518 6.43459 10.5761 6.61732C10.5004 6.80004 10.4806 7.00111 10.5192 7.19509C10.5578 7.38907 10.653 7.56725 10.7929 7.70711C10.9327 7.84696 11.1109 7.9422 11.3049 7.98079C11.4989 8.01937 11.7 7.99957 11.8827 7.92388C12.0654 7.84819 12.2216 7.72002 12.3315 7.55557C12.4414 7.39112 12.5 7.19778 12.5 7C12.5 6.73478 12.3946 6.48043 12.2071 6.29289C12.0196 6.10536 11.7652 6 11.5 6Z" fill="black"/>
</g>
<defs>
<clipPath id="clip0_5_1079">
<rect width="16" height="16" fill="white"/>
</clipPath>
</defs>
</svg>
