<svg width="16" height="16" viewBox="0 0 16 16" fill="none" xmlns="http://www.w3.org/2000/svg">
<g clip-path="url(#clip0_5_1539)">
<path d="M13.5 13.5H12.5V7.20687L13.2069 6.5C13.3001 6.40748 13.3741 6.29734 13.4244 6.17599C13.4747 6.05464 13.5004 5.9245 13.5 5.79313V3C13.5 2.73478 13.3946 2.48043 13.2071 2.29289C13.0196 2.10536 12.7652 2 12.5 2H11.25C11.1174 2 10.9902 2.05268 10.8964 2.14645C10.8027 2.24021 10.75 2.36739 10.75 2.5V4H9.25V2.5C9.25 2.36739 9.19732 2.24021 9.10355 2.14645C9.00979 2.05268 8.88261 2 8.75 2H7.25C7.11739 2 6.99021 2.05268 6.89645 2.14645C6.80268 2.24021 6.75 2.36739 6.75 2.5V4H5.25V2.5C5.25 2.36739 5.19732 2.24021 5.10355 2.14645C5.00979 2.05268 4.88261 2 4.75 2H3.5C3.23478 2 2.98043 2.10536 2.79289 2.29289C2.60536 2.48043 2.5 2.73478 2.5 3V5.79313C2.49958 5.9245 2.52528 6.05464 2.5756 6.17599C2.62592 6.29734 2.69986 6.40748 2.79312 6.5L3.5 7.20687V13.5H2.5C2.36739 13.5 2.24021 13.5527 2.14645 13.6464C2.05268 13.7402 2 13.8674 2 14C2 14.1326 2.05268 14.2598 2.14645 14.3536C2.24021 14.4473 2.36739 14.5 2.5 14.5H13.5C13.6326 14.5 13.7598 14.4473 13.8536 14.3536C13.9473 14.2598 14 14.1326 14 14C14 13.8674 13.9473 13.7402 13.8536 13.6464C13.7598 13.5527 13.6326 13.5 13.5 13.5ZM7 10.5C7 10.2348 7.10536 9.98043 7.29289 9.79289C7.48043 9.60536 7.73478 9.5 8 9.5C8.26522 9.5 8.51957 9.60536 8.70711 9.79289C8.89464 9.98043 9 10.2348 9 10.5V13.5H7V10.5Z" fill="black"/>
</g>
<defs>
<clipPath id="clip0_5_1539">
<rect width="16" height="16" fill="white"/>
</clipPath>
</defs>
</svg>
