<svg width="16" height="16" viewBox="0 0 16 16" fill="none" xmlns="http://www.w3.org/2000/svg">
<g clip-path="url(#clip0_5_1074)">
<path d="M13.927 2.09627C13.7407 2.00834 13.5318 1.98006 13.3289 2.01529C13.126 2.05053 12.9389 2.14757 12.7932 2.29315C12.7845 2.3019 12.7769 2.31002 12.7695 2.31877L11.6907 3.56252C10.5847 2.8705 9.30631 2.50352 8.00164 2.50352C6.69696 2.50352 5.4186 2.8705 4.31258 3.56252L3.2307 2.31877C3.2232 2.31002 3.2157 2.3019 3.20695 2.29315C3.06125 2.14757 2.87416 2.05053 2.67123 2.01529C2.4683 1.98006 2.25945 2.00834 2.0732 2.09627C1.89931 2.18166 1.75318 2.31458 1.65175 2.47962C1.55031 2.64466 1.49772 2.83506 1.50008 3.02877V8.50002C1.50008 11.5625 4.00383 14.1019 7.22258 14.4575C7.25764 14.4614 7.29313 14.4578 7.32671 14.447C7.36029 14.4362 7.3912 14.4184 7.41741 14.3948C7.44362 14.3712 7.46454 14.3423 7.47879 14.31C7.49303 14.2777 7.50029 14.2428 7.50008 14.2075V12.2075L6.66133 11.3681C6.56623 11.2759 6.51048 11.1504 6.5057 11.018C6.50093 10.8856 6.5475 10.7564 6.6357 10.6575C6.68156 10.6087 6.73676 10.5696 6.79803 10.5425C6.8593 10.5154 6.9254 10.5009 6.99238 10.4998C7.05937 10.4988 7.12588 10.5112 7.18797 10.5364C7.25006 10.5615 7.30646 10.5989 7.35383 10.6463L8.00008 11.2925L8.64633 10.6456C8.69369 10.5983 8.75009 10.5609 8.81218 10.5357C8.87427 10.5106 8.94079 10.4982 9.00777 10.4992C9.07476 10.5002 9.14085 10.5148 9.20212 10.5418C9.26339 10.5689 9.31859 10.6081 9.36445 10.6569C9.45265 10.7558 9.49922 10.8849 9.49445 11.0174C9.48967 11.1498 9.43392 11.2752 9.33883 11.3675L8.50008 12.2069V14.2069C8.49986 14.2422 8.50712 14.2771 8.52136 14.3094C8.53561 14.3416 8.55653 14.3705 8.58274 14.3942C8.60895 14.4178 8.63986 14.4356 8.67344 14.4464C8.70702 14.4572 8.74251 14.4608 8.77758 14.4569C11.9963 14.1013 14.5001 11.5625 14.5001 8.50002V3.02877C14.5024 2.83506 14.4498 2.64466 14.3484 2.47962C14.247 2.31458 14.1008 2.18166 13.927 2.09627ZM5.25008 9.50002C5.10174 9.50002 4.95673 9.45603 4.8334 9.37362C4.71006 9.29121 4.61393 9.17408 4.55717 9.03703C4.5004 8.89999 4.48555 8.74919 4.51449 8.6037C4.54343 8.45822 4.61486 8.32458 4.71975 8.21969C4.82463 8.1148 4.95827 8.04337 5.10376 8.01443C5.24924 7.98549 5.40004 8.00035 5.53709 8.05711C5.67413 8.11388 5.79127 8.21001 5.87368 8.33334C5.95609 8.45668 6.00008 8.60168 6.00008 8.75002C6.00008 8.94893 5.92106 9.1397 5.78041 9.28035C5.63975 9.421 5.44899 9.50002 5.25008 9.50002ZM6.50008 5.50002C6.50008 5.63263 6.4474 5.75981 6.35363 5.85357C6.25986 5.94734 6.13268 6.00002 6.00008 6.00002C5.86747 6.00002 5.74029 5.94734 5.64652 5.85357C5.55275 5.75981 5.50008 5.63263 5.50008 5.50002V4.31252C5.50008 4.17991 5.55275 4.05274 5.64652 3.95897C5.74029 3.8652 5.86747 3.81252 6.00008 3.81252C6.13268 3.81252 6.25986 3.8652 6.35363 3.95897C6.4474 4.05274 6.50008 4.17991 6.50008 4.31252V5.50002ZM8.50008 5.50002C8.50008 5.63263 8.4474 5.75981 8.35363 5.85357C8.25986 5.94734 8.13268 6.00002 8.00008 6.00002C7.86747 6.00002 7.74029 5.94734 7.64652 5.85357C7.55275 5.75981 7.50008 5.63263 7.50008 5.50002V4.00002C7.50008 3.86741 7.55275 3.74024 7.64652 3.64647C7.74029 3.5527 7.86747 3.50002 8.00008 3.50002C8.13268 3.50002 8.25986 3.5527 8.35363 3.64647C8.4474 3.74024 8.50008 3.86741 8.50008 4.00002V5.50002ZM9.50008 5.50002V4.31252C9.50008 4.17991 9.55275 4.05274 9.64652 3.95897C9.74029 3.8652 9.86747 3.81252 10.0001 3.81252C10.1327 3.81252 10.2599 3.8652 10.3536 3.95897C10.4474 4.05274 10.5001 4.17991 10.5001 4.31252V5.50002C10.5001 5.63263 10.4474 5.75981 10.3536 5.85357C10.2599 5.94734 10.1327 6.00002 10.0001 6.00002C9.86747 6.00002 9.74029 5.94734 9.64652 5.85357C9.55275 5.75981 9.50008 5.63263 9.50008 5.50002ZM10.7501 9.50002C10.6017 9.50002 10.4567 9.45603 10.3334 9.37362C10.2101 9.29121 10.1139 9.17408 10.0572 9.03703C10.0004 8.89999 9.98555 8.74919 10.0145 8.6037C10.0434 8.45822 10.1149 8.32458 10.2197 8.21969C10.3246 8.1148 10.4583 8.04337 10.6038 8.01443C10.7492 7.98549 10.9 8.00035 11.0371 8.05711C11.1741 8.11388 11.2913 8.21001 11.3737 8.33334C11.4561 8.45668 11.5001 8.60168 11.5001 8.75002C11.5001 8.94893 11.4211 9.1397 11.2804 9.28035C11.1398 9.421 10.949 9.50002 10.7501 9.50002Z" fill="black"/>
</g>
<defs>
<clipPath id="clip0_5_1074">
<rect width="16" height="16" fill="white"/>
</clipPath>
</defs>
</svg>
