<svg width="16" height="16" viewBox="0 0 16 16" fill="none" xmlns="http://www.w3.org/2000/svg">
<g clip-path="url(#clip0_5_1070)">
<path d="M12.3827 1.57688C12.2 1.50109 11.9989 1.48117 11.8049 1.51967C11.6108 1.55816 11.4326 1.65333 11.2927 1.79313L1.29266 11.7931C1.15287 11.933 1.05769 12.1112 1.01916 12.3052C0.980632 12.4992 1.00049 12.7002 1.07621 12.8829C1.15194 13.0656 1.28014 13.2218 1.4446 13.3316C1.60906 13.4414 1.80239 13.5 2.00016 13.5H12.0002C12.2654 13.5 12.5197 13.3947 12.7073 13.2071C12.8948 13.0196 13.0002 12.7652 13.0002 12.5V2.50001C13.0005 2.30222 12.9419 2.10881 12.832 1.94442C12.722 1.78002 12.5656 1.65208 12.3827 1.57688ZM12.0002 12.5H2.00016L12.0002 2.50001V12.5Z" fill="black"/>
</g>
<defs>
<clipPath id="clip0_5_1070">
<rect width="16" height="16" fill="white"/>
</clipPath>
</defs>
</svg>
