<svg width="16" height="16" viewBox="0 0 16 16" fill="none" xmlns="http://www.w3.org/2000/svg">
<g clip-path="url(#clip0_5_1605)">
<path d="M8.44737 5.27626C8.4059 5.19305 8.34205 5.12306 8.263 5.07413C8.18395 5.02521 8.09283 4.99929 7.99987 4.99929C7.9069 4.99929 7.81578 5.02521 7.73673 5.07413C7.65768 5.12306 7.59383 5.19305 7.55237 5.27626L3.05237 14.2763C2.99302 14.3949 2.98323 14.5322 3.02513 14.658C3.06703 14.7838 3.1572 14.8879 3.2758 14.9472C3.3944 15.0065 3.53172 15.0163 3.65755 14.9744C3.78337 14.9325 3.8874 14.8424 3.94674 14.7238L4.81237 13H11.1936L12.0555 14.7238C12.0968 14.8064 12.1602 14.8759 12.2387 14.9246C12.3171 14.9734 12.4075 14.9995 12.4999 15C12.5851 15 12.6689 14.9781 12.7433 14.9366C12.8177 14.8951 12.8803 14.8352 12.925 14.7627C12.9698 14.6902 12.9953 14.6074 12.9991 14.5223C13.0029 14.4372 12.9849 14.3525 12.9467 14.2763L8.44737 5.27626ZM7.99987 6.61813L9.69112 10H6.30862L7.99987 6.61813ZM9.96799 5.85876C10.0195 5.57086 10.0072 5.27517 9.93205 4.99253C9.85688 4.7099 9.72063 4.44718 9.53292 4.22291C9.3452 3.99863 9.11058 3.81826 8.8456 3.69449C8.58061 3.57073 8.29171 3.50659 7.99924 3.50659C7.70678 3.50659 7.41787 3.57073 7.15288 3.69449C6.8879 3.81826 6.65328 3.99863 6.46556 4.22291C6.27785 4.44718 6.1416 4.7099 6.06643 4.99253C5.99126 5.27517 5.97899 5.57086 6.03049 5.85876C6.04383 5.92401 6.044 5.99128 6.03098 6.05661C6.01797 6.12193 5.99203 6.184 5.95469 6.23916C5.91736 6.29432 5.86938 6.34147 5.81357 6.37783C5.75776 6.41419 5.69525 6.43903 5.62971 6.4509C5.56416 6.46277 5.49691 6.46142 5.4319 6.44694C5.36688 6.43245 5.30542 6.40512 5.25111 6.36656C5.1968 6.32799 5.15075 6.27896 5.11565 6.22234C5.08056 6.16573 5.05713 6.10267 5.04674 6.03688C4.96837 5.60464 4.98589 5.16045 5.09805 4.73572C5.21021 4.31099 5.41428 3.91607 5.69584 3.57887C5.97739 3.24168 6.32957 2.97043 6.72748 2.78429C7.12539 2.59816 7.55932 2.50169 7.99862 2.50169C8.43791 2.50169 8.87184 2.59816 9.26975 2.78429C9.66766 2.97043 10.0198 3.24168 10.3014 3.57887C10.583 3.91607 10.787 4.31099 10.8992 4.73572C11.0113 5.16045 11.0289 5.60464 10.9505 6.03688C10.9297 6.1521 10.8692 6.25637 10.7794 6.33152C10.6896 6.40667 10.5763 6.44794 10.4592 6.44813C10.4293 6.44788 10.3994 6.44516 10.3699 6.44001C10.2395 6.41614 10.124 6.34152 10.0487 6.23254C9.97331 6.12355 9.94429 5.98912 9.96799 5.85876ZM4.00924 8.51313C3.44899 7.77097 3.10681 6.88727 3.02113 5.96135C2.93546 5.03542 3.10969 4.10394 3.52425 3.27158C3.93881 2.43922 4.57727 1.73895 5.36789 1.24947C6.15852 0.759982 7.06998 0.500671 7.99987 0.500671C8.92975 0.500671 9.84121 0.759982 10.6318 1.24947C11.4225 1.73895 12.0609 2.43922 12.4755 3.27158C12.89 4.10394 13.0643 5.03542 12.9786 5.96135C12.8929 6.88727 12.5507 7.77097 11.9905 8.51313C11.9097 8.61662 11.7915 8.68418 11.6613 8.70123C11.5311 8.71828 11.3995 8.68345 11.2948 8.60426C11.19 8.52507 11.1207 8.40788 11.1016 8.27798C11.0826 8.14809 11.1154 8.01592 11.193 7.91001C11.641 7.31623 11.9145 6.6093 11.9829 5.86863C12.0513 5.12796 11.9118 4.3829 11.5801 3.71713C11.2484 3.05136 10.7377 2.49127 10.1052 2.09977C9.47277 1.70827 8.74368 1.50087 7.99987 1.50087C7.25605 1.50087 6.52696 1.70827 5.89451 2.09977C5.26206 2.49127 4.7513 3.05136 4.4196 3.71713C4.08791 4.3829 3.94842 5.12796 4.01681 5.86863C4.08519 6.6093 4.35875 7.31623 4.80674 7.91001C4.88432 8.01592 4.91713 8.14809 4.89809 8.27798C4.87905 8.40788 4.80969 8.52507 4.70498 8.60426C4.60026 8.68345 4.46861 8.71828 4.33844 8.70123C4.20827 8.68418 4.09002 8.61662 4.00924 8.51313Z" fill="black"/>
</g>
<defs>
<clipPath id="clip0_5_1605">
<rect width="16" height="16" fill="white"/>
</clipPath>
</defs>
</svg>
