<svg width="16" height="16" viewBox="0 0 16 16" fill="none" xmlns="http://www.w3.org/2000/svg">
<g clip-path="url(#clip0_5_1532)">
<path d="M12.3824 1.57688C12.1997 1.50109 11.9986 1.48117 11.8046 1.51967C11.6106 1.55816 11.4323 1.65333 11.2924 1.79313L1.29242 11.7931C1.15262 11.933 1.05744 12.1112 1.01892 12.3052C0.980388 12.4992 1.00024 12.7002 1.07597 12.8829C1.1517 13.0656 1.2799 13.2218 1.44435 13.3316C1.60881 13.4414 1.80215 13.5 1.99992 13.5H11.9999C12.2651 13.5 12.5195 13.3947 12.707 13.2071C12.8946 13.0196 12.9999 12.7652 12.9999 12.5V2.50001C13.0003 2.30222 12.9417 2.10881 12.8317 1.94442C12.7218 1.78002 12.5654 1.65208 12.3824 1.57688ZM11.9999 12.5H5.49992V9.00001L11.9999 2.50001V12.5Z" fill="black"/>
</g>
<defs>
<clipPath id="clip0_5_1532">
<rect width="16" height="16" fill="white"/>
</clipPath>
</defs>
</svg>
