<svg width="16" height="16" viewBox="0 0 16 16" fill="none" xmlns="http://www.w3.org/2000/svg">
<g clip-path="url(#clip0_5_1073)">
<path d="M13 2.50003V12.5C13 12.7652 12.8947 13.0196 12.7071 13.2071C12.5196 13.3947 12.2652 13.5 12 13.5H2.00003C1.80224 13.4999 1.60892 13.4412 1.44451 13.3312C1.28011 13.2213 1.15201 13.065 1.07641 12.8822C1.00082 12.6995 0.981117 12.4984 1.01981 12.3044C1.0585 12.1104 1.15384 11.9323 1.29378 11.7925L11.2938 1.79253C11.4337 1.65294 11.6118 1.55795 11.8057 1.51955C11.9996 1.48115 12.2005 1.50105 12.3831 1.57675C12.5656 1.65245 12.7217 1.78056 12.8315 1.94488C12.9413 2.10921 12.9999 2.30239 13 2.50003Z" fill="black"/>
</g>
<defs>
<clipPath id="clip0_5_1073">
<rect width="16" height="16" fill="white"/>
</clipPath>
</defs>
</svg>
