<svg width="16" height="16" viewBox="0 0 16 16" fill="none" xmlns="http://www.w3.org/2000/svg">
<g clip-path="url(#clip0_5_1069)">
<path d="M13.3362 13.87C13.2381 13.9592 13.1086 14.0057 12.9761 13.9994C12.8437 13.993 12.7192 13.9344 12.63 13.8362L12.2856 13.4575C12.1929 13.4853 12.0967 13.4996 12 13.5H1.99999C1.79403 13.5 1.5931 13.4365 1.42463 13.318C1.25616 13.1995 1.12837 13.0319 1.05874 12.8381C0.996628 12.6551 0.987555 12.4582 1.03256 12.2702C1.07757 12.0822 1.17483 11.9107 1.31311 11.7756L6.25874 6.83062L2.64124 2.85124C2.55065 2.75446 2.50098 2.62641 2.50262 2.49386C2.50425 2.36131 2.55705 2.23452 2.64999 2.13999C2.69812 2.09346 2.75511 2.05706 2.81758 2.03297C2.88004 2.00887 2.94671 1.99757 3.01363 1.99972C3.08055 2.00188 3.14635 2.01745 3.20713 2.04552C3.26792 2.07359 3.32245 2.11358 3.36749 2.16312L13.3675 13.1631C13.4119 13.2116 13.4463 13.2683 13.4688 13.33C13.4912 13.3918 13.5013 13.4574 13.4984 13.523C13.4955 13.5887 13.4797 13.6531 13.4519 13.7127C13.424 13.7722 13.3847 13.8257 13.3362 13.87ZM12.5625 10.7912C12.5962 10.8295 12.6409 10.8565 12.6904 10.8687C12.74 10.8809 12.7921 10.8776 12.8397 10.8593C12.8873 10.841 12.9282 10.8085 12.9568 10.7663C12.9855 10.7241 13.0006 10.6741 13 10.6231V2.49999C13.0001 2.3021 12.9416 2.10861 12.8317 1.94401C12.7218 1.77942 12.5656 1.65112 12.3828 1.57537C12.2 1.49962 11.9988 1.47981 11.8047 1.51846C11.6106 1.55712 11.4323 1.65248 11.2925 1.79249L7.84186 5.24249C7.79643 5.28794 7.77024 5.34913 7.76872 5.41337C7.76721 5.47761 7.79049 5.53996 7.83374 5.58749L12.5625 10.7912Z" fill="black"/>
</g>
<defs>
<clipPath id="clip0_5_1069">
<rect width="16" height="16" fill="white"/>
</clipPath>
</defs>
</svg>
