<svg width="16" height="16" viewBox="0 0 16 16" fill="none" xmlns="http://www.w3.org/2000/svg">
<g clip-path="url(#clip0_5_1068)">
<path d="M13.3538 12.1463C13.4002 12.1927 13.4371 12.2479 13.4622 12.3086C13.4874 12.3693 13.5003 12.4343 13.5003 12.5C13.5003 12.5657 13.4874 12.6308 13.4622 12.6915C13.4371 12.7522 13.4002 12.8073 13.3538 12.8538C13.3073 12.9002 13.2522 12.9371 13.1915 12.9622C13.1308 12.9874 13.0657 13.0003 13 13.0003C12.9343 13.0003 12.8693 12.9874 12.8086 12.9622C12.7479 12.9371 12.6927 12.9002 12.6463 12.8538L11.5 11.7069L10.3538 12.8538C10.2599 12.9476 10.1327 13.0003 10 13.0003C9.86733 13.0003 9.74008 12.9476 9.64626 12.8538C9.55244 12.7599 9.49973 12.6327 9.49973 12.5C9.49973 12.3673 9.55244 12.2401 9.64626 12.1463L10.7931 11L9.64626 9.85377C9.55244 9.75995 9.49973 9.6327 9.49973 9.50002C9.49973 9.36734 9.55244 9.24009 9.64626 9.14627C9.74008 9.05245 9.86733 8.99974 10 8.99974C10.1327 8.99974 10.2599 9.05245 10.3538 9.14627L11.5 10.2931L12.6463 9.14627C12.7401 9.05245 12.8673 8.99974 13 8.99974C13.1327 8.99974 13.2599 9.05245 13.3538 9.14627C13.4476 9.24009 13.5003 9.36734 13.5003 9.50002C13.5003 9.6327 13.4476 9.75995 13.3538 9.85377L12.2069 11L13.3538 12.1463ZM9.83814 7.50627C10.1084 7.4844 10.3803 7.51773 10.6373 7.60422C10.8943 7.69071 11.1311 7.82856 11.3331 8.00939C11.379 8.0505 11.4384 8.07324 11.5 8.07324C11.5616 8.07324 11.621 8.0505 11.6669 8.00939C11.9758 7.73089 12.3642 7.55605 12.7775 7.50939C12.8389 7.5026 12.8957 7.47328 12.9368 7.42712C12.9779 7.38095 13.0004 7.3212 13 7.25939V2.52877C13.0024 2.3349 12.9497 2.14435 12.8481 1.97919C12.7466 1.81404 12.6003 1.68105 12.4263 1.59564C12.24 1.50779 12.0311 1.47961 11.8281 1.51496C11.6252 1.55031 11.4381 1.64746 11.2925 1.79314L1.29251 11.7931C1.14686 11.9386 1.04967 12.1256 1.01421 12.3284C0.978753 12.5312 1.00675 12.74 1.09439 12.9263C1.17982 13.1006 1.313 13.247 1.47841 13.3486C1.64382 13.4502 1.83467 13.5027 2.02876 13.5H7.87876C7.91856 13.5 7.95777 13.4905 7.99314 13.4722C8.02851 13.454 8.05902 13.4276 8.08212 13.3952C8.10523 13.3628 8.12027 13.3253 8.12599 13.286C8.13171 13.2466 8.12795 13.2064 8.11501 13.1688C7.99539 12.8307 7.96888 12.4666 8.03827 12.1148C8.10765 11.7629 8.27037 11.4362 8.50939 11.1688C8.5505 11.1229 8.57324 11.0635 8.57324 11.0019C8.57324 10.9403 8.5505 10.8809 8.50939 10.835C8.26116 10.5575 8.09531 10.2162 8.03052 9.84961C7.96573 9.48297 8.00457 9.10552 8.14267 8.75976C8.28077 8.414 8.51264 8.11365 8.81218 7.89253C9.11172 7.6714 9.46704 7.53828 9.83814 7.50814V7.50627Z" fill="black"/>
</g>
<defs>
<clipPath id="clip0_5_1068">
<rect width="16" height="16" fill="white"/>
</clipPath>
</defs>
</svg>
