<svg width="16" height="16" viewBox="0 0 16 16" fill="none" xmlns="http://www.w3.org/2000/svg">
<g clip-path="url(#clip0_5_1353)">
<path d="M14.5 5.40812V3.5C14.5 3.23478 14.3946 2.98043 14.2071 2.79289C14.0196 2.60536 13.7652 2.5 13.5 2.5H2.5C2.23478 2.5 1.98043 2.60536 1.79289 2.79289C1.60536 2.98043 1.5 3.23478 1.5 3.5V11.5C1.5 11.7652 1.60536 12.0196 1.79289 12.2071C1.98043 12.3946 2.23478 12.5 2.5 12.5H10V14C9.99921 14.0881 10.0217 14.1749 10.0653 14.2516C10.1089 14.3282 10.1719 14.392 10.248 14.4364C10.3242 14.4808 10.4107 14.5043 10.4989 14.5045C10.587 14.5047 10.6737 14.4816 10.75 14.4375L12.25 13.5787L13.75 14.4375C13.8263 14.4816 13.913 14.5047 14.0011 14.5045C14.0893 14.5043 14.1758 14.4808 14.252 14.4364C14.3281 14.392 14.3911 14.3282 14.4347 14.2516C14.4783 14.1749 14.5008 14.0881 14.5 14V10.0919C14.8161 9.7892 15.0676 9.42567 15.2394 9.0232C15.4113 8.62072 15.4999 8.18762 15.4999 7.75C15.4999 7.31238 15.4113 6.87928 15.2394 6.47681C15.0676 6.07433 14.8161 5.7108 14.5 5.40812ZM8 9H4.5C4.36739 9 4.24021 8.94732 4.14645 8.85355C4.05268 8.75979 4 8.63261 4 8.5C4 8.36739 4.05268 8.24021 4.14645 8.14645C4.24021 8.05268 4.36739 8 4.5 8H8C8.13261 8 8.25979 8.05268 8.35355 8.14645C8.44732 8.24021 8.5 8.36739 8.5 8.5C8.5 8.63261 8.44732 8.75979 8.35355 8.85355C8.25979 8.94732 8.13261 9 8 9ZM8 7H4.5C4.36739 7 4.24021 6.94732 4.14645 6.85355C4.05268 6.75979 4 6.63261 4 6.5C4 6.36739 4.05268 6.24021 4.14645 6.14645C4.24021 6.05268 4.36739 6 4.5 6H8C8.13261 6 8.25979 6.05268 8.35355 6.14645C8.44732 6.24021 8.5 6.36739 8.5 6.5C8.5 6.63261 8.44732 6.75979 8.35355 6.85355C8.25979 6.94732 8.13261 7 8 7ZM13.5 13.1381L12.5 12.5656C12.4244 12.5224 12.3389 12.4997 12.2519 12.4997C12.1648 12.4997 12.0793 12.5224 12.0037 12.5656L11.0037 13.1381V10.75C11.3997 10.9154 11.8246 11.0006 12.2537 11.0006C12.6829 11.0006 13.1078 10.9154 13.5037 10.75L13.5 13.1381ZM12.25 10C11.805 10 11.37 9.86804 11 9.62081C10.63 9.37357 10.3416 9.02217 10.1713 8.61104C10.001 8.1999 9.95642 7.7475 10.0432 7.31105C10.13 6.87459 10.3443 6.47368 10.659 6.15901C10.9737 5.84434 11.3746 5.63005 11.811 5.54323C12.2475 5.45642 12.6999 5.50097 13.111 5.67127C13.5222 5.84157 13.8736 6.12996 14.1208 6.49997C14.368 6.86998 14.5 7.30499 14.5 7.75C14.5 8.04547 14.4418 8.33805 14.3287 8.61104C14.2157 8.88402 14.0499 9.13206 13.841 9.34099C13.6321 9.54992 13.384 9.71566 13.111 9.82873C12.8381 9.9418 12.5455 10 12.25 10Z" fill="black"/>
</g>
<defs>
<clipPath id="clip0_5_1353">
<rect width="16" height="16" fill="white"/>
</clipPath>
</defs>
</svg>
