<svg width="16" height="16" viewBox="0 0 16 16" fill="none" xmlns="http://www.w3.org/2000/svg">
<g clip-path="url(#clip0_5_1343)">
<path d="M13 8.5H11V6.5H12C12.2652 6.5 12.5196 6.39464 12.7071 6.20711C12.8946 6.01957 13 5.76522 13 5.5V2.5C13 2.23478 12.8946 1.98043 12.7071 1.79289C12.5196 1.60536 12.2652 1.5 12 1.5H4C3.73478 1.5 3.48043 1.60536 3.29289 1.79289C3.10536 1.98043 3 2.23478 3 2.5V5.5C3 5.76522 3.10536 6.01957 3.29289 6.20711C3.48043 6.39464 3.73478 6.5 4 6.5H5V8.5H3C2.73478 8.5 2.48043 8.60536 2.29289 8.79289C2.10536 8.98043 2 9.23478 2 9.5V10.5C2 10.7652 2.10536 11.0196 2.29289 11.2071C2.48043 11.3946 2.73478 11.5 3 11.5H3.5V14C3.5 14.1326 3.55268 14.2598 3.64645 14.3536C3.74021 14.4473 3.86739 14.5 4 14.5C4.13261 14.5 4.25979 14.4473 4.35355 14.3536C4.44732 14.2598 4.5 14.1326 4.5 14V11.5H11.5V14C11.5 14.1326 11.5527 14.2598 11.6464 14.3536C11.7402 14.4473 11.8674 14.5 12 14.5C12.1326 14.5 12.2598 14.4473 12.3536 14.3536C12.4473 14.2598 12.5 14.1326 12.5 14V11.5H13C13.2652 11.5 13.5196 11.3946 13.7071 11.2071C13.8946 11.0196 14 10.7652 14 10.5V9.5C14 9.23478 13.8946 8.98043 13.7071 8.79289C13.5196 8.60536 13.2652 8.5 13 8.5ZM10 8.5H6V6.5H10V8.5Z" fill="black"/>
</g>
<defs>
<clipPath id="clip0_5_1343">
<rect width="16" height="16" fill="white"/>
</clipPath>
</defs>
</svg>
