<svg width="16" height="16" viewBox="0 0 16 16" fill="none" xmlns="http://www.w3.org/2000/svg">
<g clip-path="url(#clip0_5_1065)">
<path d="M13.5 2.5H2.5C2.23478 2.5 1.98043 2.60536 1.79289 2.79289C1.60536 2.98043 1.5 3.23478 1.5 3.5V12.5C1.5 12.7652 1.60536 13.0196 1.79289 13.2071C1.98043 13.3946 2.23478 13.5 2.5 13.5H3.33687C3.4315 13.5 3.5242 13.4732 3.60419 13.4226C3.68418 13.3721 3.74818 13.2999 3.78875 13.2144C4.03189 12.701 4.41576 12.2673 4.89572 11.9635C5.37568 11.6598 5.932 11.4986 6.5 11.4986C7.068 11.4986 7.62432 11.6598 8.10428 11.9635C8.58424 12.2673 8.96811 12.701 9.21125 13.2144C9.25182 13.2999 9.31582 13.3721 9.39581 13.4226C9.4758 13.4732 9.5685 13.5 9.66313 13.5H13.5C13.7652 13.5 14.0196 13.3946 14.2071 13.2071C14.3946 13.0196 14.5 12.7652 14.5 12.5V3.5C14.5 3.23478 14.3946 2.98043 14.2071 2.79289C14.0196 2.60536 13.7652 2.5 13.5 2.5ZM6.5 10.5C6.10444 10.5 5.71776 10.3827 5.38886 10.1629C5.05996 9.94318 4.80362 9.63082 4.65224 9.26537C4.50087 8.89991 4.46126 8.49778 4.53843 8.10982C4.6156 7.72186 4.80608 7.36549 5.08579 7.08579C5.36549 6.80608 5.72186 6.6156 6.10982 6.53843C6.49778 6.46126 6.89991 6.50087 7.26537 6.65224C7.63082 6.80362 7.94318 7.05996 8.16294 7.38886C8.3827 7.71776 8.5 8.10444 8.5 8.5C8.5 9.03043 8.28929 9.53914 7.91421 9.91421C7.53914 10.2893 7.03043 10.5 6.5 10.5ZM13.5 12.5H9.96437C9.7464 12.1242 9.46859 11.7864 9.14188 11.5H12C12.1326 11.5 12.2598 11.4473 12.3536 11.3536C12.4473 11.2598 12.5 11.1326 12.5 11V5C12.5 4.86739 12.4473 4.74021 12.3536 4.64645C12.2598 4.55268 12.1326 4.5 12 4.5H4C3.86739 4.5 3.74021 4.55268 3.64645 4.64645C3.55268 4.74021 3.5 4.86739 3.5 5V11C3.49994 11.1109 3.53675 11.2187 3.60464 11.3063C3.67252 11.394 3.76763 11.4567 3.875 11.4844C3.54076 11.774 3.25709 12.1172 3.03562 12.5H2.5V3.5H13.5V12.5Z" fill="black"/>
</g>
<defs>
<clipPath id="clip0_5_1065">
<rect width="16" height="16" fill="white"/>
</clipPath>
</defs>
</svg>
