<svg width="16" height="16" viewBox="0 0 16 16" fill="none" xmlns="http://www.w3.org/2000/svg">
<g clip-path="url(#clip0_5_1067)">
<path d="M15 12H14.5V3.5C14.5 3.23478 14.3946 2.98043 14.2071 2.79289C14.0196 2.60536 13.7652 2.5 13.5 2.5H2.5C2.23478 2.5 1.98043 2.60536 1.79289 2.79289C1.60536 2.98043 1.5 3.23478 1.5 3.5V12H1C0.867392 12 0.740215 12.0527 0.646447 12.1464C0.552678 12.2402 0.5 12.3674 0.5 12.5C0.5 12.6326 0.552678 12.7598 0.646447 12.8536C0.740215 12.9473 0.867392 13 1 13H15C15.1326 13 15.2598 12.9473 15.3536 12.8536C15.4473 12.7598 15.5 12.6326 15.5 12.5C15.5 12.3674 15.4473 12.2402 15.3536 12.1464C15.2598 12.0527 15.1326 12 15 12ZM13.5 12H9V11C9 10.8674 9.05268 10.7402 9.14645 10.6464C9.24021 10.5527 9.36739 10.5 9.5 10.5H13C13.1326 10.5 13.2598 10.5527 13.3536 10.6464C13.4473 10.7402 13.5 10.8674 13.5 11V12Z" fill="black"/>
</g>
<defs>
<clipPath id="clip0_5_1067">
<rect width="16" height="16" fill="white"/>
</clipPath>
</defs>
</svg>
