<svg width="16" height="16" viewBox="0 0 16 16" fill="none" xmlns="http://www.w3.org/2000/svg">
<g clip-path="url(#clip0_5_1064)">
<path d="M9.36941 0.845625C9.3368 0.745163 9.27322 0.657608 9.18777 0.595517C9.10232 0.533426 8.99941 0.499989 8.89379 0.5H6.10691C6.00129 0.499989 5.89838 0.533426 5.81293 0.595517C5.72749 0.657608 5.6639 0.745163 5.63129 0.845625C5.25087 2.06777 4.95415 3.3144 4.74316 4.57688C4.28941 7.3425 4.47129 9.31188 5.28379 10.4306C5.48317 10.7119 5.73856 10.9488 6.03391 11.1266C6.32927 11.3044 6.6582 11.4192 7.00004 11.4637V14.5H6.00004C5.86743 14.5 5.74025 14.5527 5.64649 14.6464C5.55272 14.7402 5.50004 14.8674 5.50004 15C5.50004 15.1326 5.55272 15.2598 5.64649 15.3536C5.74025 15.4473 5.86743 15.5 6.00004 15.5H9.00004C9.13265 15.5 9.25983 15.4473 9.35359 15.3536C9.44736 15.2598 9.50004 15.1326 9.50004 15C9.50004 14.8674 9.44736 14.7402 9.35359 14.6464C9.25983 14.5527 9.13265 14.5 9.00004 14.5H8.00004V11.4637C8.34195 11.4194 8.67096 11.3047 8.96634 11.1269C9.26173 10.9491 9.51707 10.712 9.71629 10.4306C10.5288 9.31188 10.7113 7.3425 10.2575 4.57688C10.0466 3.3144 9.74983 2.06777 9.36941 0.845625ZM5.86254 4C6.05004 3.02625 6.28316 2.13688 6.47441 1.5H8.52629C8.71754 2.13688 8.94941 3.02625 9.13879 4H5.86254ZM14.5 3.25C14.5 3.39834 14.4561 3.54334 14.3736 3.66668C14.2912 3.79001 14.1741 3.88614 14.0371 3.94291C13.9 3.99968 13.7492 4.01453 13.6037 3.98559C13.4582 3.95665 13.3246 3.88522 13.2197 3.78033C13.1148 3.67544 13.0434 3.5418 13.0145 3.39632C12.9855 3.25083 13.0004 3.10003 13.0571 2.96299C13.1139 2.82594 13.21 2.70881 13.3334 2.6264C13.4567 2.54399 13.6017 2.5 13.75 2.5C13.949 2.5 14.1397 2.57902 14.2804 2.71967C14.421 2.86032 14.5 3.05109 14.5 3.25ZM11.5 1.25C11.5 1.10166 11.544 0.95666 11.6264 0.833323C11.7088 0.709986 11.826 0.613856 11.963 0.557091C12.1001 0.500325 12.2509 0.485472 12.3964 0.514411C12.5418 0.54335 12.6755 0.614781 12.7804 0.71967C12.8853 0.82456 12.9567 0.958197 12.9856 1.10368C13.0146 1.24917 12.9997 1.39997 12.9429 1.53701C12.8862 1.67406 12.7901 1.79119 12.6667 1.8736C12.5434 1.95601 12.3984 2 12.25 2C12.0511 2 11.8604 1.92098 11.7197 1.78033C11.5791 1.63968 11.5 1.44891 11.5 1.25ZM13 6.25C13 6.39834 12.9561 6.54334 12.8736 6.66668C12.7912 6.79001 12.6741 6.88614 12.5371 6.94291C12.4 6.99968 12.2492 7.01453 12.1037 6.98559C11.9582 6.95665 11.8246 6.88522 11.7197 6.78033C11.6148 6.67544 11.5434 6.5418 11.5145 6.39632C11.4855 6.25083 11.5004 6.10003 11.5571 5.96299C11.6139 5.82594 11.71 5.70881 11.8334 5.6264C11.9567 5.54399 12.1017 5.5 12.25 5.5C12.449 5.5 12.6397 5.57902 12.7804 5.71967C12.921 5.86032 13 6.05109 13 6.25Z" fill="black"/>
</g>
<defs>
<clipPath id="clip0_5_1064">
<rect width="16" height="16" fill="white"/>
</clipPath>
</defs>
</svg>
