<svg width="16" height="16" viewBox="0 0 16 16" fill="none" xmlns="http://www.w3.org/2000/svg">
<g clip-path="url(#clip0_5_1062)">
<path d="M14.5 7V9C14.5 9.13261 14.4473 9.25979 14.3536 9.35355C14.2598 9.44732 14.1326 9.5 14 9.5H3.5V10.5H9C9.13261 10.5 9.25979 10.5527 9.35355 10.6464C9.44732 10.7402 9.5 10.8674 9.5 11V12.5C9.5 12.6326 9.44732 12.7598 9.35355 12.8536C9.25979 12.9473 9.13261 13 9 13H3.5V13.5C3.5 13.6326 3.44732 13.7598 3.35355 13.8536C3.25979 13.9473 3.13261 14 3 14C2.86739 14 2.74021 13.9473 2.64645 13.8536C2.55268 13.7598 2.5 13.6326 2.5 13.5V2.5C2.5 2.36739 2.55268 2.24021 2.64645 2.14645C2.74021 2.05268 2.86739 2 3 2C3.13261 2 3.25979 2.05268 3.35355 2.14645C3.44732 2.24021 3.5 2.36739 3.5 2.5V3H11C11.1326 3 11.2598 3.05268 11.3536 3.14645C11.4473 3.24021 11.5 3.36739 11.5 3.5V5C11.5 5.13261 11.4473 5.25979 11.3536 5.35355C11.2598 5.44732 11.1326 5.5 11 5.5H3.5V6.5H14C14.1326 6.5 14.2598 6.55268 14.3536 6.64645C14.4473 6.74021 14.5 6.86739 14.5 7Z" fill="black"/>
</g>
<defs>
<clipPath id="clip0_5_1062">
<rect width="16" height="16" fill="white"/>
</clipPath>
</defs>
</svg>
