<svg width="16" height="16" viewBox="0 0 16 16" fill="none" xmlns="http://www.w3.org/2000/svg">
<g clip-path="url(#clip0_5_1408)">
<path d="M13.5 2.5H2.5C2.23478 2.5 1.98043 2.60536 1.79289 2.79289C1.60536 2.98043 1.5 3.23478 1.5 3.5V12.5C1.5 12.7652 1.60536 13.0196 1.79289 13.2071C1.98043 13.3946 2.23478 13.5 2.5 13.5H13.5C13.7652 13.5 14.0196 13.3946 14.2071 13.2071C14.3946 13.0196 14.5 12.7652 14.5 12.5V3.5C14.5 3.23478 14.3946 2.98043 14.2071 2.79289C14.0196 2.60536 13.7652 2.5 13.5 2.5ZM12.5 12H3.5C3.36739 12 3.24021 11.9473 3.14645 11.8536C3.05268 11.7598 3 11.6326 3 11.5V4.5C3 4.36739 3.05268 4.24021 3.14645 4.14645C3.24021 4.05268 3.36739 4 3.5 4C3.63261 4 3.75979 4.05268 3.85355 4.14645C3.94732 4.24021 4 4.36739 4 4.5V5.79313L6 7.79313L8.14625 5.64625C8.19269 5.59976 8.24783 5.56288 8.30853 5.53772C8.36923 5.51256 8.43429 5.49961 8.5 5.49961C8.56571 5.49961 8.63077 5.51256 8.69147 5.53772C8.75217 5.56288 8.80731 5.59976 8.85375 5.64625L11 7.79313V6.5C11 6.36739 11.0527 6.24021 11.1464 6.14645C11.2402 6.05268 11.3674 6 11.5 6C11.6326 6 11.7598 6.05268 11.8536 6.14645C11.9473 6.24021 12 6.36739 12 6.5V9C12 9.13261 11.9473 9.25979 11.8536 9.35355C11.7598 9.44732 11.6326 9.5 11.5 9.5H9C8.86739 9.5 8.74021 9.44732 8.64645 9.35355C8.55268 9.25979 8.5 9.13261 8.5 9C8.5 8.86739 8.55268 8.74021 8.64645 8.64645C8.74021 8.55268 8.86739 8.5 9 8.5H10.2931L8.5 6.70687L6.35375 8.85375C6.30731 8.90024 6.25217 8.93712 6.19147 8.96228C6.13077 8.98744 6.06571 9.00039 6 9.00039C5.93429 9.00039 5.86923 8.98744 5.80853 8.96228C5.74783 8.93712 5.69269 8.90024 5.64625 8.85375L4 7.20687V11H12.5C12.6326 11 12.7598 11.0527 12.8536 11.1464C12.9473 11.2402 13 11.3674 13 11.5C13 11.6326 12.9473 11.7598 12.8536 11.8536C12.7598 11.9473 12.6326 12 12.5 12Z" fill="black"/>
</g>
<defs>
<clipPath id="clip0_5_1408">
<rect width="16" height="16" fill="white"/>
</clipPath>
</defs>
</svg>
