<svg width="16" height="16" viewBox="0 0 16 16" fill="none" xmlns="http://www.w3.org/2000/svg">
<g clip-path="url(#clip0_5_1056)">
<path d="M13.5 2.5H2.5C2.23478 2.5 1.98043 2.60536 1.79289 2.79289C1.60536 2.98043 1.5 3.23478 1.5 3.5V12.5C1.5 12.7652 1.60536 13.0196 1.79289 13.2071C1.98043 13.3946 2.23478 13.5 2.5 13.5H13.5C13.7652 13.5 14.0196 13.3946 14.2071 13.2071C14.3946 13.0196 14.5 12.7652 14.5 12.5V3.5C14.5 3.23478 14.3946 2.98043 14.2071 2.79289C14.0196 2.60536 13.7652 2.5 13.5 2.5ZM11.75 4.5C11.8983 4.5 12.0433 4.54399 12.1667 4.6264C12.29 4.70881 12.3861 4.82594 12.4429 4.96299C12.4997 5.10003 12.5145 5.25083 12.4856 5.39632C12.4566 5.5418 12.3852 5.67544 12.2803 5.78033C12.1754 5.88522 12.0418 5.95665 11.8963 5.98559C11.7508 6.01453 11.6 5.99968 11.463 5.94291C11.3259 5.88614 11.2088 5.79001 11.1264 5.66668C11.044 5.54334 11 5.39834 11 5.25C11 5.05109 11.079 4.86032 11.2197 4.71967C11.3603 4.57902 11.5511 4.5 11.75 4.5ZM11.75 8C11.8983 8 12.0433 8.04399 12.1667 8.1264C12.29 8.20881 12.3861 8.32594 12.4429 8.46299C12.4997 8.60003 12.5145 8.75083 12.4856 8.89632C12.4566 9.0418 12.3852 9.17544 12.2803 9.28033C12.1754 9.38522 12.0418 9.45665 11.8963 9.48559C11.7508 9.51453 11.6 9.49967 11.463 9.44291C11.3259 9.38614 11.2088 9.29001 11.1264 9.16668C11.044 9.04334 11 8.89834 11 8.75C11 8.55109 11.079 8.36032 11.2197 8.21967C11.3603 8.07902 11.5511 8 11.75 8ZM9.25 7C9.39834 7 9.54334 7.04399 9.66668 7.1264C9.79001 7.20881 9.88614 7.32594 9.94291 7.46299C9.99967 7.60003 10.0145 7.75083 9.98559 7.89632C9.95665 8.0418 9.88522 8.17544 9.78033 8.28033C9.67544 8.38522 9.5418 8.45665 9.39632 8.48559C9.25083 8.51453 9.10003 8.49967 8.96299 8.44291C8.82594 8.38614 8.70881 8.29001 8.6264 8.16668C8.54399 8.04334 8.5 7.89834 8.5 7.75C8.5 7.55109 8.57902 7.36032 8.71967 7.21967C8.86032 7.07902 9.05109 7 9.25 7ZM7.75 4.5C7.89834 4.5 8.04334 4.54399 8.16668 4.6264C8.29001 4.70881 8.38614 4.82594 8.44291 4.96299C8.49967 5.10003 8.51453 5.25083 8.48559 5.39632C8.45665 5.5418 8.38522 5.67544 8.28033 5.78033C8.17544 5.88522 8.0418 5.95665 7.89632 5.98559C7.75083 6.01453 7.60003 5.99968 7.46299 5.94291C7.32594 5.88614 7.20881 5.79001 7.1264 5.66668C7.04399 5.54334 7 5.39834 7 5.25C7 5.05109 7.07902 4.86032 7.21967 4.71967C7.36032 4.57902 7.55109 4.5 7.75 4.5ZM6.25 8C6.39834 8 6.54334 8.04399 6.66668 8.1264C6.79001 8.20881 6.88614 8.32594 6.94291 8.46299C6.99968 8.60003 7.01453 8.75083 6.98559 8.89632C6.95665 9.0418 6.88522 9.17544 6.78033 9.28033C6.67544 9.38522 6.5418 9.45665 6.39632 9.48559C6.25083 9.51453 6.10003 9.49967 5.96299 9.44291C5.82594 9.38614 5.70881 9.29001 5.6264 9.16668C5.54399 9.04334 5.5 8.89834 5.5 8.75C5.5 8.55109 5.57902 8.36032 5.71967 8.21967C5.86032 8.07902 6.05109 8 6.25 8ZM12.5 12H3.5C3.36739 12 3.24021 11.9473 3.14645 11.8536C3.05268 11.7598 3 11.6326 3 11.5V4.5C3 4.36739 3.05268 4.24021 3.14645 4.14645C3.24021 4.05268 3.36739 4 3.5 4C3.63261 4 3.75979 4.05268 3.85355 4.14645C3.94732 4.24021 4 4.36739 4 4.5V11H12.5C12.6326 11 12.7598 11.0527 12.8536 11.1464C12.9473 11.2402 13 11.3674 13 11.5C13 11.6326 12.9473 11.7598 12.8536 11.8536C12.7598 11.9473 12.6326 12 12.5 12Z" fill="black"/>
</g>
<defs>
<clipPath id="clip0_5_1056">
<rect width="16" height="16" fill="white"/>
</clipPath>
</defs>
</svg>
