<svg width="16" height="16" viewBox="0 0 16 16" fill="none" xmlns="http://www.w3.org/2000/svg">
<g clip-path="url(#clip0_5_1060)">
<path d="M13.5 2.5H2.5C2.23478 2.5 1.98043 2.60536 1.79289 2.79289C1.60536 2.98043 1.5 3.23478 1.5 3.5V12.5C1.5 12.7652 1.60536 13.0196 1.79289 13.2071C1.98043 13.3946 2.23478 13.5 2.5 13.5H13.5C13.7652 13.5 14.0196 13.3946 14.2071 13.2071C14.3946 13.0196 14.5 12.7652 14.5 12.5V3.5C14.5 3.23478 14.3946 2.98043 14.2071 2.79289C14.0196 2.60536 13.7652 2.5 13.5 2.5ZM12.5 11C12.6326 11 12.7598 11.0527 12.8536 11.1464C12.9473 11.2402 13 11.3674 13 11.5C13 11.6326 12.9473 11.7598 12.8536 11.8536C12.7598 11.9473 12.6326 12 12.5 12H3.5C3.36739 12 3.24021 11.9473 3.14645 11.8536C3.05268 11.7598 3 11.6326 3 11.5V4.5C3 4.36739 3.05268 4.24021 3.14645 4.14645C3.24021 4.05268 3.36739 4 3.5 4C3.63261 4 3.75979 4.05268 3.85355 4.14645C3.94732 4.24021 4 4.36739 4 4.5V8.4325L6.18 6.61562C6.26284 6.54659 6.36578 6.50619 6.47346 6.50045C6.58114 6.4947 6.68779 6.52392 6.7775 6.58375L9.465 8.37687L12.1781 6.11562C12.2801 6.03076 12.4115 5.98986 12.5436 6.00193C12.6757 6.014 12.7976 6.07806 12.8825 6.18C12.9674 6.28194 13.0083 6.41342 12.9962 6.54552C12.9841 6.67762 12.9201 6.79951 12.8181 6.88438L9.81812 9.38437C9.73529 9.45341 9.63235 9.49381 9.52467 9.49955C9.41699 9.5053 9.31034 9.47608 9.22062 9.41625L6.53312 7.62313L4 9.73438V11H12.5Z" fill="black"/>
</g>
<defs>
<clipPath id="clip0_5_1060">
<rect width="16" height="16" fill="white"/>
</clipPath>
</defs>
</svg>
