<svg width="16" height="16" viewBox="0 0 16 16" fill="none" xmlns="http://www.w3.org/2000/svg">
<g clip-path="url(#clip0_5_1061)">
<path d="M7.5 10.1213V14.205C7.50024 14.2404 7.49295 14.2755 7.47863 14.3078C7.46431 14.3402 7.44328 14.3692 7.41693 14.3928C7.39057 14.4164 7.3595 14.4342 7.32577 14.4449C7.29204 14.4556 7.25641 14.4591 7.22125 14.455C6.06591 14.3131 4.96965 13.8644 4.0464 13.1555C3.12315 12.4466 2.40662 11.5033 1.97125 10.4238C1.95824 10.3909 1.95232 10.3557 1.9539 10.3205C1.95547 10.2852 1.96449 10.2507 1.98038 10.2191C1.99626 10.1876 2.01864 10.1598 2.04605 10.1375C2.07345 10.1153 2.10526 10.0991 2.13938 10.09L6.0825 9.03126C6.13298 9.01802 6.18633 9.0209 6.23509 9.03951C6.28385 9.05811 6.32556 9.09151 6.35438 9.13501C6.59313 9.4804 6.93377 9.7426 7.32875 9.88501C7.37844 9.9015 7.42169 9.93318 7.45242 9.97556C7.48314 10.018 7.49979 10.0689 7.5 10.1213ZM8.00375 1.50001C7.93778 1.49952 7.87235 1.51209 7.81126 1.53699C7.75016 1.5619 7.6946 1.59865 7.64777 1.64513C7.60094 1.69161 7.56378 1.74689 7.53842 1.8078C7.51306 1.86871 7.5 1.93404 7.5 2.00001V5.50001C7.499 5.63152 7.55025 5.75805 7.64247 5.8518C7.7347 5.94555 7.86037 5.99886 7.99188 6.00001C8.46409 5.99798 8.9218 6.16309 9.28396 6.46612C9.64612 6.76916 9.88937 7.19056 9.97066 7.65573C10.0519 8.1209 9.96601 8.59983 9.72807 9.00773C9.49014 9.41562 9.11555 9.72617 8.67063 9.88439C8.62096 9.90102 8.57776 9.93283 8.54715 9.97534C8.51653 10.0178 8.50004 10.0689 8.5 10.1213V14.205C8.49978 14.2404 8.50705 14.2753 8.52133 14.3077C8.53562 14.34 8.55659 14.3689 8.58287 14.3925C8.60915 14.4162 8.64014 14.4339 8.6738 14.4447C8.70746 14.4555 8.74301 14.459 8.77813 14.455C10.4253 14.2602 11.9357 13.4431 13 12.1709C14.0643 10.8988 14.6021 9.26786 14.5031 7.61216C14.4041 5.95646 13.6759 4.40123 12.4677 3.26493C11.2594 2.12863 9.66241 1.49723 8.00375 1.50001ZM6.00375 7.84314C6.02702 7.5478 6.11561 7.26131 6.26313 7.00439V7.00001C6.31267 6.91444 6.33573 6.8161 6.32939 6.71742C6.32305 6.61875 6.28759 6.52417 6.2275 6.44564C6.18547 6.39162 6.13323 6.34639 6.07375 6.31251L3.05313 4.56626C2.99621 4.53345 2.93339 4.51217 2.86825 4.50364C2.80311 4.49511 2.73693 4.49951 2.67349 4.51657C2.61004 4.53364 2.55059 4.56304 2.49851 4.60309C2.44644 4.64315 2.40277 4.69307 2.37 4.75001C1.64257 6.00987 1.35827 7.47714 1.5625 8.91751C1.56732 8.95267 1.57957 8.98639 1.59843 9.01645C1.61729 9.04651 1.64234 9.0722 1.6719 9.09183C1.70146 9.11146 1.73486 9.12457 1.76988 9.13029C1.8049 9.13601 1.84073 9.13421 1.875 9.12501L5.82625 8.06251C5.87522 8.04898 5.9188 8.02064 5.95103 7.98136C5.98325 7.94209 6.00254 7.89381 6.00625 7.84314H6.00375Z" fill="black"/>
</g>
<defs>
<clipPath id="clip0_5_1061">
<rect width="16" height="16" fill="white"/>
</clipPath>
</defs>
</svg>
