<svg width="16" height="16" viewBox="0 0 16 16" fill="none" xmlns="http://www.w3.org/2000/svg">
<g clip-path="url(#clip0_5_1057)">
<path d="M7.49997 12.4713V14.205C7.5002 14.2404 7.49292 14.2755 7.47859 14.3078C7.46427 14.3402 7.44324 14.3692 7.41689 14.3928C7.39054 14.4164 7.35947 14.4342 7.32574 14.4449C7.292 14.4557 7.25638 14.4591 7.22122 14.455C5.77748 14.2785 4.43437 13.6238 3.40589 12.5953C2.37741 11.5669 1.72275 10.2238 1.54621 8.78003C1.54214 8.74486 1.54559 8.70924 1.55631 8.67551C1.56704 8.64177 1.58481 8.6107 1.60844 8.58435C1.63208 8.558 1.66104 8.53697 1.69341 8.52265C1.72578 8.50833 1.76082 8.50104 1.79621 8.50128H3.52871C3.64375 9.51474 4.09915 10.4592 4.8205 11.1803C5.54184 11.9015 6.48646 12.3566 7.49997 12.4713ZM11.4637 8.50003H8.49997V11.4638C9.24723 11.3547 9.93933 11.0074 10.4733 10.4734C11.0073 9.93939 11.3547 9.24729 11.4637 8.50003ZM8.49997 4.53628V7.50003H11.4637C11.3547 6.75276 11.0073 6.06066 10.4733 5.52666C9.93933 4.99267 9.24723 4.64532 8.49997 4.53628ZM14.205 8.50003H12.4712C12.3564 9.51372 11.9012 10.4585 11.1798 11.1799C10.4584 11.9012 9.51366 12.3565 8.49997 12.4713V14.205C8.49973 14.2404 8.50701 14.2755 8.52134 14.3078C8.53566 14.3402 8.55669 14.3692 8.58304 14.3928C8.60939 14.4164 8.64046 14.4342 8.67419 14.4449C8.70793 14.4557 8.74355 14.4591 8.77872 14.455C10.2224 14.2785 11.5656 13.6238 12.594 12.5953C13.6225 11.5669 14.2772 10.2238 14.4537 8.78003C14.458 8.74487 14.4547 8.70922 14.4441 8.67542C14.4336 8.64162 14.4159 8.61046 14.3924 8.58399C14.3689 8.55751 14.34 8.53634 14.3077 8.52187C14.2754 8.50739 14.2404 8.49995 14.205 8.50003ZM12.4712 7.50003H14.205C14.2404 7.50026 14.2754 7.49298 14.3078 7.47866C14.3401 7.46433 14.3691 7.4433 14.3927 7.41695C14.4164 7.3906 14.4341 7.35953 14.4449 7.3258C14.4556 7.29206 14.459 7.25644 14.455 7.22128C14.2784 5.77754 13.6238 4.43443 12.5953 3.40595C11.5668 2.37748 10.2237 1.72281 8.77996 1.54628C8.7448 1.5422 8.70918 1.54565 8.67545 1.55637C8.64171 1.5671 8.61064 1.58487 8.58429 1.6085C8.55794 1.63214 8.53691 1.6611 8.52259 1.69347C8.50826 1.72584 8.50098 1.76088 8.50122 1.79628V3.52878C9.51468 3.64381 10.4592 4.09921 11.1803 4.82056C11.9014 5.5419 12.3565 6.48652 12.4712 7.50003ZM7.22122 1.54628C5.77748 1.72281 4.43437 2.37748 3.40589 3.40595C2.37741 4.43443 1.72275 5.77754 1.54621 7.22128C1.54214 7.25644 1.54559 7.29206 1.55631 7.3258C1.56704 7.35953 1.58481 7.3906 1.60844 7.41695C1.63208 7.4433 1.66104 7.46433 1.69341 7.47866C1.72578 7.49298 1.76082 7.50026 1.79621 7.50003H3.52871C3.64348 6.48633 4.09877 5.54157 4.82014 4.8202C5.54151 4.09883 6.48627 3.64354 7.49997 3.52878V1.79503C7.50002 1.75973 7.49261 1.72483 7.47821 1.69261C7.46381 1.66039 7.44275 1.63159 7.41642 1.60809C7.39009 1.58459 7.35908 1.56693 7.32544 1.55628C7.29179 1.54563 7.25627 1.54222 7.22122 1.54628ZM4.53622 7.50003H7.49997V4.53628C6.7527 4.64532 6.0606 4.99267 5.5266 5.52666C4.99261 6.06066 4.64526 6.75276 4.53622 7.50003ZM7.49997 11.4638V8.50003H4.53622C4.64526 9.24729 4.99261 9.93939 5.5266 10.4734C6.0606 11.0074 6.7527 11.3547 7.49997 11.4638Z" fill="black"/>
</g>
<defs>
<clipPath id="clip0_5_1057">
<rect width="16" height="16" fill="white"/>
</clipPath>
</defs>
</svg>
