<svg width="16" height="16" viewBox="0 0 16 16" fill="none" xmlns="http://www.w3.org/2000/svg">
<g clip-path="url(#clip0_5_1058)">
<path d="M8 1.5C6.71442 1.5 5.45772 1.88122 4.3888 2.59545C3.31988 3.30968 2.48676 4.32484 1.99479 5.51256C1.50282 6.70028 1.37409 8.00721 1.6249 9.26809C1.8757 10.529 2.49477 11.6872 3.40381 12.5962C4.31285 13.5052 5.47104 14.1243 6.73192 14.3751C7.99279 14.6259 9.29973 14.4972 10.4874 14.0052C11.6752 13.5132 12.6903 12.6801 13.4046 11.6112C14.1188 10.5423 14.5 9.28558 14.5 8C14.4982 6.27665 13.8128 4.62441 12.5942 3.40582C11.3756 2.18722 9.72335 1.50182 8 1.5ZM8 2.5C8.88051 2.50036 9.74806 2.71212 10.5297 3.11746C11.3114 3.52281 11.9843 4.1099 12.4919 4.82937L8 7.4225V2.5ZM8 13.5C7.1195 13.4996 6.25194 13.2879 5.47029 12.8825C4.68863 12.4772 4.01572 11.8901 3.50813 11.1706L12.9931 5.695C13.3799 6.53297 13.5496 7.4548 13.4866 8.37558C13.4236 9.29636 13.1298 10.1865 12.6325 10.9639C12.1351 11.7414 11.4501 12.3812 10.6406 12.8244C9.831 13.2676 8.92293 13.4999 8 13.5Z" fill="black"/>
</g>
<defs>
<clipPath id="clip0_5_1058">
<rect width="16" height="16" fill="white"/>
</clipPath>
</defs>
</svg>
