<svg width="16" height="16" viewBox="0 0 16 16" fill="none" xmlns="http://www.w3.org/2000/svg">
<g clip-path="url(#clip0_5_1047)">
<path d="M13.37 13.1638C13.4151 13.2122 13.4501 13.2691 13.473 13.3311C13.496 13.3932 13.5063 13.4592 13.5036 13.5253C13.5008 13.5914 13.485 13.6563 13.4569 13.7163C13.4289 13.7762 13.3893 13.83 13.3403 13.8745C13.2913 13.919 13.234 13.9533 13.1717 13.9755C13.1094 13.9977 13.0432 14.0073 12.9772 14.0037C12.9111 14.0002 12.8464 13.9835 12.7868 13.9548C12.7272 13.926 12.6739 13.8858 12.63 13.8363L11.9887 13.1306C10.9986 13.9009 9.80663 14.3682 8.55678 14.4761C7.30692 14.584 6.05254 14.3279 4.94499 13.7388L2.81687 14.4481C2.64067 14.5069 2.45159 14.5154 2.27082 14.4728C2.09005 14.4301 1.92473 14.3379 1.7934 14.2066C1.66206 14.0753 1.5699 13.91 1.52724 13.7292C1.48458 13.5484 1.49311 13.3593 1.55187 13.1831L2.26124 11.055C1.62283 9.85428 1.37685 8.48364 1.55791 7.13585C1.73897 5.78806 2.33795 4.53093 3.27062 3.54126L2.62999 2.83626C2.58491 2.78783 2.54988 2.73094 2.52695 2.66887C2.50402 2.60681 2.49363 2.54081 2.4964 2.4747C2.49916 2.40859 2.51501 2.34369 2.54304 2.28376C2.57107 2.22382 2.61072 2.17005 2.65969 2.12555C2.70865 2.08105 2.76596 2.04671 2.8283 2.02452C2.89063 2.00234 2.95675 1.99274 3.02282 1.9963C3.08889 1.99985 3.1536 2.01648 3.21319 2.04523C3.27279 2.07398 3.32608 2.11426 3.36999 2.16376L13.37 13.1638ZM7.99999 1.50001C7.13431 1.49842 6.27714 1.67079 5.47937 2.00689C5.40574 2.03796 5.34063 2.08624 5.28951 2.14766C5.23838 2.20909 5.20273 2.28187 5.18552 2.35992C5.16832 2.43796 5.17008 2.51899 5.19065 2.59622C5.21122 2.67344 5.25 2.74461 5.30374 2.80376L12.9162 11.1788C12.97 11.2384 13.0373 11.2842 13.1125 11.3123C13.1878 11.3404 13.2686 11.35 13.3483 11.3403C13.428 11.3305 13.5042 11.3017 13.5704 11.2563C13.6366 11.2109 13.6909 11.1502 13.7287 11.0794C14.2616 10.0888 14.5283 8.97691 14.5028 7.85239C14.4772 6.72787 14.1603 5.62923 13.583 4.66387C13.0057 3.69852 12.1878 2.8995 11.2092 2.34493C10.2306 1.79037 9.1248 1.49924 7.99999 1.50001Z" fill="black"/>
</g>
<defs>
<clipPath id="clip0_5_1047">
<rect width="16" height="16" fill="white"/>
</clipPath>
</defs>
</svg>
