<svg width="16" height="16" viewBox="0 0 16 16" fill="none" xmlns="http://www.w3.org/2000/svg">
<g clip-path="url(#clip0_5_1046)">
<path d="M7.99995 1.5C6.87775 1.49976 5.77459 1.79006 4.79786 2.34264C3.82113 2.89523 3.00411 3.69128 2.42631 4.65331C1.84851 5.61534 1.52963 6.71058 1.5007 7.83241C1.47176 8.95425 1.73377 10.0645 2.2612 11.055L1.55183 13.1831C1.49307 13.3593 1.48454 13.5484 1.5272 13.7292C1.56986 13.9099 1.66203 14.0753 1.79336 14.2066C1.9247 14.3379 2.09001 14.4301 2.27078 14.4728C2.45155 14.5154 2.64063 14.5069 2.81683 14.4481L4.94495 13.7388C5.81668 14.2024 6.78259 14.4614 7.76935 14.496C8.7561 14.5306 9.73779 14.34 10.6399 13.9386C11.542 13.5372 12.3407 12.9355 12.9756 12.1793C13.6104 11.4231 14.0647 10.5322 14.3038 9.57421C14.5429 8.61624 14.5606 7.61638 14.3557 6.65052C14.1507 5.68467 13.7283 4.77821 13.1207 3.99995C12.5131 3.22169 11.7362 2.59208 10.8489 2.15891C9.96162 1.72574 8.98732 1.50041 7.99995 1.5ZM9.99995 9.5H5.99995C5.86735 9.5 5.74017 9.44732 5.6464 9.35355C5.55263 9.25979 5.49995 9.13261 5.49995 9C5.49995 8.86739 5.55263 8.74021 5.6464 8.64645C5.74017 8.55268 5.86735 8.5 5.99995 8.5H9.99995C10.1326 8.5 10.2597 8.55268 10.3535 8.64645C10.4473 8.74021 10.5 8.86739 10.5 9C10.5 9.13261 10.4473 9.25979 10.3535 9.35355C10.2597 9.44732 10.1326 9.5 9.99995 9.5ZM9.99995 7.5H5.99995C5.86735 7.5 5.74017 7.44732 5.6464 7.35355C5.55263 7.25979 5.49995 7.13261 5.49995 7C5.49995 6.86739 5.55263 6.74021 5.6464 6.64645C5.74017 6.55268 5.86735 6.5 5.99995 6.5H9.99995C10.1326 6.5 10.2597 6.55268 10.3535 6.64645C10.4473 6.74021 10.5 6.86739 10.5 7C10.5 7.13261 10.4473 7.25979 10.3535 7.35355C10.2597 7.44732 10.1326 7.5 9.99995 7.5Z" fill="black"/>
</g>
<defs>
<clipPath id="clip0_5_1046">
<rect width="16" height="16" fill="white"/>
</clipPath>
</defs>
</svg>
