<svg width="16" height="16" viewBox="0 0 16 16" fill="none" xmlns="http://www.w3.org/2000/svg">
<g clip-path="url(#clip0_5_1043)">
<path d="M13.37 13.1631C13.4151 13.2115 13.4501 13.2684 13.4731 13.3305C13.496 13.3926 13.5064 13.4586 13.5036 13.5247C13.5009 13.5908 13.485 13.6557 13.457 13.7156C13.4289 13.7755 13.3893 13.8293 13.3403 13.8738C13.2914 13.9183 13.234 13.9527 13.1717 13.9748C13.1094 13.997 13.0433 14.0066 12.9772 14.0031C12.9111 13.9995 12.8464 13.9829 12.7868 13.9541C12.7272 13.9254 12.6739 13.8851 12.63 13.8356L11.87 13H5.18752L3.15002 14.76L3.14502 14.7644C2.96473 14.9169 2.73615 15.0004 2.50002 15C2.35312 14.9997 2.20807 14.9672 2.07502 14.905C1.90243 14.8252 1.75645 14.6975 1.65449 14.537C1.55253 14.3765 1.49891 14.1901 1.50002 14V3.99998C1.50002 3.73476 1.60537 3.48041 1.79291 3.29287C1.98045 3.10534 2.2348 2.99998 2.50002 2.99998H2.77877L2.63002 2.83623C2.58493 2.7878 2.54991 2.73091 2.52698 2.66884C2.50405 2.60678 2.49366 2.54078 2.49642 2.47467C2.49918 2.40856 2.51504 2.34366 2.54307 2.28373C2.5711 2.22379 2.61074 2.17002 2.65971 2.12552C2.70868 2.08102 2.76599 2.04668 2.82832 2.02449C2.89066 2.00231 2.95678 1.99271 3.02285 1.99627C3.08891 1.99982 3.15362 2.01645 3.21322 2.0452C3.27281 2.07395 3.32611 2.11423 3.37002 2.16373L13.37 13.1631ZM13.5 2.99998H6.04689C5.99825 2.9995 5.95053 3.01321 5.90957 3.03945C5.86861 3.06568 5.83619 3.10329 5.81629 3.14768C5.79639 3.19206 5.78987 3.24128 5.79752 3.28932C5.80518 3.33735 5.82668 3.38211 5.85939 3.41811L14.0625 12.4412C14.0963 12.4795 14.1409 12.5065 14.1905 12.5187C14.24 12.5308 14.2921 12.5276 14.3397 12.5093C14.3873 12.491 14.4282 12.4585 14.4569 12.4163C14.4855 12.3741 14.5006 12.3241 14.5 12.2731V3.99998C14.5 3.73476 14.3947 3.48041 14.2071 3.29287C14.0196 3.10534 13.7652 2.99998 13.5 2.99998Z" fill="black"/>
</g>
<defs>
<clipPath id="clip0_5_1043">
<rect width="16" height="16" fill="white"/>
</clipPath>
</defs>
</svg>
