<svg width="16" height="16" viewBox="0 0 16 16" fill="none" xmlns="http://www.w3.org/2000/svg">
<g clip-path="url(#clip0_5_1052)">
<path d="M14.5 3.50001V11.5C14.5 11.6331 14.4734 11.7648 14.4216 11.8874C14.3699 12.01 14.2941 12.121 14.1987 12.2138C14.1745 12.2362 14.146 12.2536 14.115 12.265C14.084 12.2763 14.051 12.2815 14.018 12.28C13.985 12.2785 13.9526 12.2706 13.9227 12.2565C13.8928 12.2425 13.8659 12.2226 13.8438 12.1981L5.4075 2.91813C5.37479 2.88214 5.35328 2.83738 5.34563 2.78934C5.33797 2.74131 5.3445 2.69208 5.3644 2.6477C5.3843 2.60332 5.41672 2.56571 5.45768 2.53947C5.49864 2.51324 5.54636 2.49952 5.595 2.50001H13.5C13.7652 2.50001 14.0196 2.60536 14.2071 2.7929C14.3946 2.98044 14.5 3.23479 14.5 3.50001ZM3.37 2.16376C3.30212 2.08908 3.21324 2.03669 3.11503 2.01347C3.01682 1.99026 2.91388 1.9973 2.81975 2.03368C2.72562 2.07006 2.6447 2.13408 2.58763 2.21731C2.53056 2.30054 2.50001 2.39909 2.5 2.50001C2.23478 2.50001 1.98043 2.60536 1.79289 2.7929C1.60536 2.98044 1.5 3.23479 1.5 3.50001V11.5C1.5 11.7652 1.60536 12.0196 1.79289 12.2071C1.98043 12.3947 2.23478 12.5 2.5 12.5H6.27688L7.13188 13.9963C7.21936 14.1493 7.34572 14.2764 7.49818 14.3649C7.65063 14.4533 7.82375 14.4999 8 14.4999C8.17625 14.4999 8.34937 14.4533 8.50182 14.3649C8.65428 14.2764 8.78064 14.1493 8.86812 13.9963L9.72313 12.5H11.415L12.63 13.8363C12.6739 13.8858 12.7272 13.926 12.7868 13.9548C12.8464 13.9835 12.9111 14.0002 12.9772 14.0037C13.0432 14.0073 13.1094 13.9977 13.1717 13.9755C13.234 13.9533 13.2913 13.919 13.3403 13.8745C13.3893 13.83 13.4289 13.7762 13.4569 13.7163C13.485 13.6563 13.5008 13.5914 13.5036 13.5253C13.5064 13.4592 13.496 13.3932 13.473 13.3311C13.4501 13.2691 13.4151 13.2122 13.37 13.1638L3.37 2.16376Z" fill="black"/>
</g>
<defs>
<clipPath id="clip0_5_1052">
<rect width="16" height="16" fill="white"/>
</clipPath>
</defs>
</svg>
