<svg width="16" height="16" viewBox="0 0 16 16" fill="none" xmlns="http://www.w3.org/2000/svg">
<g clip-path="url(#clip0_5_1188)">
<path d="M8.25 1.5C6.59296 1.50182 5.0043 2.16088 3.83259 3.33259C2.66088 4.5043 2.00182 6.09296 2 7.75V13C2 13.2652 2.10536 13.5196 2.29289 13.7071C2.48043 13.8946 2.73478 14 3 14H8.25C9.9076 14 11.4973 13.3415 12.6694 12.1694C13.8415 10.9973 14.5 9.4076 14.5 7.75C14.5 6.0924 13.8415 4.50269 12.6694 3.33058C11.4973 2.15848 9.9076 1.5 8.25 1.5ZM5.5 8.75C5.35166 8.75 5.20666 8.70601 5.08332 8.6236C4.95999 8.54119 4.86386 8.42406 4.80709 8.28701C4.75032 8.14997 4.73547 7.99917 4.76441 7.85368C4.79335 7.7082 4.86478 7.57456 4.96967 7.46967C5.07456 7.36478 5.2082 7.29335 5.35368 7.26441C5.49917 7.23547 5.64997 7.25032 5.78701 7.30709C5.92406 7.36386 6.04119 7.45999 6.1236 7.58332C6.20601 7.70666 6.25 7.85166 6.25 8C6.25 8.19891 6.17098 8.38968 6.03033 8.53033C5.88968 8.67098 5.69891 8.75 5.5 8.75ZM8.25 8.75C8.10166 8.75 7.95666 8.70601 7.83332 8.6236C7.70999 8.54119 7.61386 8.42406 7.55709 8.28701C7.50032 8.14997 7.48547 7.99917 7.51441 7.85368C7.54335 7.7082 7.61478 7.57456 7.71967 7.46967C7.82456 7.36478 7.9582 7.29335 8.10368 7.26441C8.24917 7.23547 8.39997 7.25032 8.53701 7.30709C8.67406 7.36386 8.79119 7.45999 8.8736 7.58332C8.95601 7.70666 9 7.85166 9 8C9 8.19891 8.92098 8.38968 8.78033 8.53033C8.63968 8.67098 8.44891 8.75 8.25 8.75ZM11 8.75C10.8517 8.75 10.7067 8.70601 10.5833 8.6236C10.46 8.54119 10.3639 8.42406 10.3071 8.28701C10.2503 8.14997 10.2355 7.99917 10.2644 7.85368C10.2934 7.7082 10.3648 7.57456 10.4697 7.46967C10.5746 7.36478 10.7082 7.29335 10.8537 7.26441C10.9992 7.23547 11.15 7.25032 11.287 7.30709C11.4241 7.36386 11.5412 7.45999 11.6236 7.58332C11.706 7.70666 11.75 7.85166 11.75 8C11.75 8.19891 11.671 8.38968 11.5303 8.53033C11.3897 8.67098 11.1989 8.75 11 8.75Z" fill="black"/>
</g>
<defs>
<clipPath id="clip0_5_1188">
<rect width="16" height="16" fill="white"/>
</clipPath>
</defs>
</svg>
