<svg width="16" height="16" viewBox="0 0 16 16" fill="none" xmlns="http://www.w3.org/2000/svg">
<g clip-path="url(#clip0_5_1054)">
<path d="M14.5 3.5V11.5C14.5 11.7652 14.3946 12.0196 14.2071 12.2071C14.0196 12.3946 13.7652 12.5 13.5 12.5H9.72313L8.86812 13.9963C8.78064 14.1493 8.65428 14.2764 8.50182 14.3649C8.34937 14.4533 8.17625 14.4999 8 14.4999C7.82375 14.4999 7.65063 14.4533 7.49818 14.3649C7.34572 14.2764 7.21936 14.1493 7.13188 13.9963L6.27688 12.5H2.5C2.23478 12.5 1.98043 12.3946 1.79289 12.2071C1.60536 12.0196 1.5 11.7652 1.5 11.5V3.5C1.5 3.23478 1.60536 2.98043 1.79289 2.79289C1.98043 2.60536 2.23478 2.5 2.5 2.5H13.5C13.7652 2.5 14.0196 2.60536 14.2071 2.79289C14.3946 2.98043 14.5 3.23478 14.5 3.5Z" fill="black"/>
</g>
<defs>
<clipPath id="clip0_5_1054">
<rect width="16" height="16" fill="white"/>
</clipPath>
</defs>
</svg>
