<svg width="16" height="16" viewBox="0 0 16 16" fill="none" xmlns="http://www.w3.org/2000/svg">
<g clip-path="url(#clip0_5_1425)">
<path d="M13.37 13.1638C13.4151 13.2122 13.4501 13.2691 13.473 13.3312C13.496 13.3932 13.5064 13.4592 13.5036 13.5253C13.5008 13.5914 13.485 13.6563 13.457 13.7163C13.4289 13.7762 13.3893 13.83 13.3403 13.8745C13.2913 13.919 13.234 13.9533 13.1717 13.9755C13.1094 13.9977 13.0432 14.0073 12.9772 14.0037C12.9111 14.0002 12.8464 13.9836 12.7868 13.9548C12.7272 13.9261 12.6739 13.8858 12.63 13.8363L11.7819 12.9038C10.7432 13.6192 9.51128 14.0016 8.25 14H3C2.73479 14 2.48043 13.8947 2.2929 13.7071C2.10536 13.5196 2 13.2652 2 13V7.75003C1.99861 6.2853 2.51408 4.86705 3.45563 3.74503L2.63 2.83628C2.58499 2.78675 2.55038 2.72869 2.52822 2.66554C2.50606 2.60239 2.4968 2.53543 2.501 2.46864C2.50519 2.40184 2.52276 2.33657 2.55265 2.27669C2.58254 2.2168 2.62414 2.16353 2.675 2.12003C2.77799 2.03659 2.90923 1.99618 3.04131 2.00724C3.17339 2.01831 3.29609 2.07999 3.38375 2.1794L13.37 13.1638ZM13.0219 11.2944C13.0471 11.3222 13.0783 11.3439 13.1131 11.358C13.1479 11.3721 13.1854 11.3782 13.2229 11.3758C13.2604 11.3734 13.2968 11.3626 13.3295 11.3441C13.3622 11.3257 13.3904 11.3002 13.4119 11.2694C14.2011 10.1087 14.5766 8.71609 14.4779 7.31596C14.3792 5.91583 13.8121 4.58968 12.868 3.5511C11.9238 2.51252 10.6575 1.82199 9.2731 1.59073C7.88868 1.35948 6.46671 1.60096 5.23625 2.27628C5.20346 2.29469 5.17525 2.32026 5.15371 2.35109C5.13217 2.38192 5.11787 2.41721 5.11186 2.45433C5.10585 2.49146 5.1083 2.52946 5.11902 2.5655C5.12973 2.60155 5.14844 2.63472 5.17375 2.66253L13.0219 11.2944Z" fill="black"/>
</g>
<defs>
<clipPath id="clip0_5_1425">
<rect width="16" height="16" fill="white"/>
</clipPath>
</defs>
</svg>
