<svg width="16" height="16" viewBox="0 0 16 16" fill="none" xmlns="http://www.w3.org/2000/svg">
<g clip-path="url(#clip0_5_1049)">
<path d="M14.5 8.00002C14.5002 9.12223 14.2099 10.2254 13.6574 11.2021C13.1048 12.1788 12.3087 12.9959 11.3467 13.5737C10.3847 14.1515 9.28942 14.4703 8.16759 14.4993C7.04575 14.5282 5.93554 14.2662 4.945 13.7388L2.81687 14.4481C2.64068 14.5069 2.4516 14.5154 2.27083 14.4728C2.09006 14.4301 1.92474 14.3379 1.79341 14.2066C1.66207 14.0753 1.56991 13.91 1.52725 13.7292C1.48459 13.5484 1.49312 13.3593 1.55187 13.1831L2.26125 11.055C1.79759 10.1833 1.53862 9.21739 1.504 8.23063C1.46937 7.24387 1.66 6.26219 2.06142 5.3601C2.46283 4.45802 3.06448 3.65924 3.8207 3.02439C4.57691 2.38954 5.46782 1.93532 6.42579 1.69619C7.38376 1.45707 8.38362 1.43932 9.34948 1.64431C10.3153 1.8493 11.2218 2.27163 12.0001 2.87925C12.7783 3.48687 13.4079 4.2638 13.8411 5.15108C14.2743 6.03835 14.4996 7.01265 14.5 8.00002Z" fill="black"/>
</g>
<defs>
<clipPath id="clip0_5_1049">
<rect width="16" height="16" fill="white"/>
</clipPath>
</defs>
</svg>
