<svg width="16" height="16" viewBox="0 0 16 16" fill="none" xmlns="http://www.w3.org/2000/svg">
<g clip-path="url(#clip0_5_1445)">
<path d="M14.5 4V12C14.5 12.2652 14.3947 12.5196 14.2071 12.7071C14.0196 12.8946 13.7652 13 13.5 13H5.18752L3.15002 14.76L3.14439 14.7644C2.96441 14.917 2.73598 15.0005 2.50002 15C2.35331 14.9997 2.20845 14.9673 2.07564 14.905C1.9029 14.8254 1.75674 14.6977 1.65466 14.5372C1.55257 14.3767 1.49889 14.1902 1.50002 14V4C1.50002 3.73478 1.60537 3.48043 1.79291 3.29289C1.98045 3.10536 2.2348 3 2.50002 3H13.5C13.7652 3 14.0196 3.10536 14.2071 3.29289C14.3947 3.48043 14.5 3.73478 14.5 4Z" fill="black"/>
</g>
<defs>
<clipPath id="clip0_5_1445">
<rect width="16" height="16" fill="white"/>
</clipPath>
</defs>
</svg>
