<svg width="16" height="16" viewBox="0 0 16 16" fill="none" xmlns="http://www.w3.org/2000/svg">
<g clip-path="url(#clip0_5_1055)">
<path d="M13.5 2.5H2.5C2.23478 2.5 1.98043 2.60536 1.79289 2.79289C1.60536 2.98043 1.5 3.23478 1.5 3.5V11.5C1.5 11.7652 1.60536 12.0196 1.79289 12.2071C1.98043 12.3946 2.23478 12.5 2.5 12.5H6.27688L7.13188 13.9963C7.21936 14.1493 7.34572 14.2764 7.49818 14.3649C7.65063 14.4533 7.82375 14.4999 8 14.4999C8.17625 14.4999 8.34937 14.4533 8.50182 14.3649C8.65428 14.2764 8.78064 14.1493 8.86812 13.9963L9.72313 12.5H13.5C13.7652 12.5 14.0196 12.3946 14.2071 12.2071C14.3946 12.0196 14.5 11.7652 14.5 11.5V3.5C14.5 3.23478 14.3946 2.98043 14.2071 2.79289C14.0196 2.60536 13.7652 2.5 13.5 2.5ZM5.25 8.25C5.10166 8.25 4.95666 8.20601 4.83332 8.1236C4.70999 8.04119 4.61386 7.92406 4.55709 7.78701C4.50032 7.64997 4.48547 7.49917 4.51441 7.35368C4.54335 7.2082 4.61478 7.07456 4.71967 6.96967C4.82456 6.86478 4.9582 6.79335 5.10368 6.76441C5.24917 6.73547 5.39997 6.75032 5.53701 6.80709C5.67406 6.86386 5.79119 6.95999 5.8736 7.08332C5.95601 7.20666 6 7.35166 6 7.5C6 7.69891 5.92098 7.88968 5.78033 8.03033C5.63968 8.17098 5.44891 8.25 5.25 8.25ZM8 8.25C7.85166 8.25 7.70666 8.20601 7.58332 8.1236C7.45999 8.04119 7.36386 7.92406 7.30709 7.78701C7.25032 7.64997 7.23547 7.49917 7.26441 7.35368C7.29335 7.2082 7.36478 7.07456 7.46967 6.96967C7.57456 6.86478 7.7082 6.79335 7.85368 6.76441C7.99917 6.73547 8.14997 6.75032 8.28701 6.80709C8.42406 6.86386 8.54119 6.95999 8.6236 7.08332C8.70601 7.20666 8.75 7.35166 8.75 7.5C8.75 7.69891 8.67098 7.88968 8.53033 8.03033C8.38968 8.17098 8.19891 8.25 8 8.25ZM10.75 8.25C10.6017 8.25 10.4567 8.20601 10.3333 8.1236C10.21 8.04119 10.1139 7.92406 10.0571 7.78701C10.0003 7.64997 9.98547 7.49917 10.0144 7.35368C10.0434 7.2082 10.1148 7.07456 10.2197 6.96967C10.3246 6.86478 10.4582 6.79335 10.6037 6.76441C10.7492 6.73547 10.9 6.75032 11.037 6.80709C11.1741 6.86386 11.2912 6.95999 11.3736 7.08332C11.456 7.20666 11.5 7.35166 11.5 7.5C11.5 7.69891 11.421 7.88968 11.2803 8.03033C11.1397 8.17098 10.9489 8.25 10.75 8.25Z" fill="black"/>
</g>
<defs>
<clipPath id="clip0_5_1055">
<rect width="16" height="16" fill="white"/>
</clipPath>
</defs>
</svg>
