<svg width="16" height="16" viewBox="0 0 16 16" fill="none" xmlns="http://www.w3.org/2000/svg">
<g clip-path="url(#clip0_5_1173)">
<path d="M14.5044 11.6725C14.8499 10.9559 15.0194 10.1672 14.9989 9.372C14.9783 8.57676 14.7684 7.79789 14.3864 7.10009C14.0044 6.40229 13.4614 5.80572 12.8025 5.35991C12.1437 4.91411 11.388 4.63194 10.5981 4.53686C10.3353 3.92584 9.95327 3.3734 9.4743 2.91188C8.99533 2.45036 8.42909 2.08904 7.80874 1.84909C7.18839 1.60914 6.5264 1.49537 5.86154 1.51445C5.19667 1.53353 4.54229 1.68507 3.93672 1.9602C3.33116 2.23534 2.78657 2.62853 2.33486 3.11676C1.88314 3.60498 1.53338 4.17843 1.30605 4.80352C1.07872 5.42861 0.978399 6.09277 1.01095 6.75711C1.04351 7.42145 1.20829 8.07262 1.49564 8.67249L1.04127 10.2169C0.990463 10.3893 0.987066 10.5722 1.03143 10.7464C1.0758 10.9205 1.16629 11.0795 1.29338 11.2066C1.42047 11.3337 1.57947 11.4242 1.75365 11.4686C1.92782 11.5129 2.11073 11.5095 2.28314 11.4587L3.82752 11.0044C4.32341 11.2426 4.85507 11.3978 5.40127 11.4637C5.66663 12.0855 6.05532 12.647 6.54383 13.1143C7.03235 13.5815 7.61054 13.9449 8.24347 14.1824C8.8764 14.4198 9.55091 14.5265 10.2262 14.4959C10.9016 14.4653 11.5637 14.2981 12.1725 14.0044L13.7169 14.4587C13.8892 14.5095 14.0721 14.5129 14.2462 14.4685C14.4203 14.4242 14.5792 14.3337 14.7063 14.2067C14.8333 14.0797 14.9238 13.9208 14.9683 13.7468C15.0127 13.5727 15.0094 13.3899 14.9588 13.2175L14.5044 11.6725ZM13.4888 11.7644L14 13.5L12.265 12.9894C12.1397 12.953 12.0051 12.9672 11.89 13.0287C10.9693 13.5204 9.89294 13.633 8.8904 13.3425C7.88786 13.052 7.03842 12.3815 6.52314 11.4737C7.20775 11.4023 7.87021 11.1901 8.46896 10.8506C9.0677 10.511 9.58982 10.0514 10.0025 9.5005C10.4153 8.94963 10.7097 8.31942 10.8674 7.64939C11.025 6.97936 11.0425 6.28398 10.9188 5.60686C11.5153 5.74747 12.0715 6.02325 12.5445 6.41293C13.0175 6.80261 13.3946 7.29576 13.6468 7.85432C13.8989 8.41288 14.0194 9.02191 13.9988 9.6344C13.9782 10.2469 13.8172 10.8465 13.5281 11.3869C13.4659 11.5026 13.4518 11.6382 13.4888 11.7644Z" fill="black"/>
</g>
<defs>
<clipPath id="clip0_5_1173">
<rect width="16" height="16" fill="white"/>
</clipPath>
</defs>
</svg>
