<svg width="16" height="16" viewBox="0 0 16 16" fill="none" xmlns="http://www.w3.org/2000/svg">
<g clip-path="url(#clip0_5_1050)">
<path d="M7.99995 1.5C6.87775 1.49976 5.77459 1.79006 4.79786 2.34264C3.82113 2.89523 3.00411 3.69128 2.42631 4.65331C1.84851 5.61534 1.52963 6.71058 1.5007 7.83241C1.47176 8.95425 1.73377 10.0645 2.2612 11.055L1.55183 13.1831C1.49307 13.3593 1.48454 13.5484 1.5272 13.7292C1.56986 13.9099 1.66203 14.0753 1.79336 14.2066C1.9247 14.3379 2.09001 14.4301 2.27078 14.4728C2.45155 14.5154 2.64063 14.5069 2.81683 14.4481L4.94495 13.7388C5.81668 14.2024 6.78259 14.4614 7.76935 14.496C8.7561 14.5306 9.73779 14.34 10.6399 13.9386C11.542 13.5372 12.3407 12.9355 12.9756 12.1793C13.6104 11.4231 14.0647 10.5322 14.3038 9.57421C14.5429 8.61624 14.5606 7.61638 14.3557 6.65052C14.1507 5.68467 13.7283 4.77821 13.1207 3.99995C12.5131 3.22169 11.7362 2.59208 10.8489 2.15891C9.96162 1.72574 8.98732 1.50041 7.99995 1.5ZM5.24995 8.75C5.10162 8.75 4.95661 8.70601 4.83328 8.6236C4.70994 8.54119 4.61381 8.42406 4.55704 8.28701C4.50028 8.14997 4.48543 7.99917 4.51436 7.85368C4.5433 7.7082 4.61473 7.57456 4.71962 7.46967C4.82451 7.36478 4.95815 7.29335 5.10364 7.26441C5.24912 7.23547 5.39992 7.25032 5.53697 7.30709C5.67401 7.36386 5.79114 7.45999 5.87356 7.58332C5.95597 7.70666 5.99995 7.85166 5.99995 8C5.99995 8.19891 5.92094 8.38968 5.78028 8.53033C5.63963 8.67098 5.44887 8.75 5.24995 8.75ZM7.99995 8.75C7.85162 8.75 7.70661 8.70601 7.58328 8.6236C7.45994 8.54119 7.36381 8.42406 7.30704 8.28701C7.25028 8.14997 7.23543 7.99917 7.26436 7.85368C7.2933 7.7082 7.36473 7.57456 7.46962 7.46967C7.57451 7.36478 7.70815 7.29335 7.85364 7.26441C7.99912 7.23547 8.14992 7.25032 8.28697 7.30709C8.42401 7.36386 8.54114 7.45999 8.62356 7.58332C8.70597 7.70666 8.74995 7.85166 8.74995 8C8.74995 8.19891 8.67094 8.38968 8.53028 8.53033C8.38963 8.67098 8.19887 8.75 7.99995 8.75ZM10.75 8.75C10.6016 8.75 10.4566 8.70601 10.3333 8.6236C10.2099 8.54119 10.1138 8.42406 10.057 8.28701C10.0003 8.14997 9.98543 7.99917 10.0144 7.85368C10.0433 7.7082 10.1147 7.57456 10.2196 7.46967C10.3245 7.36478 10.4582 7.29335 10.6036 7.26441C10.7491 7.23547 10.8999 7.25032 11.037 7.30709C11.174 7.36386 11.2911 7.45999 11.3736 7.58332C11.456 7.70666 11.5 7.85166 11.5 8C11.5 8.19891 11.4209 8.38968 11.2803 8.53033C11.1396 8.67098 10.9489 8.75 10.75 8.75Z" fill="black"/>
</g>
<defs>
<clipPath id="clip0_5_1050">
<rect width="16" height="16" fill="white"/>
</clipPath>
</defs>
</svg>
