<svg width="16" height="16" viewBox="0 0 16 16" fill="none" xmlns="http://www.w3.org/2000/svg">
<g clip-path="url(#clip0_5_1037)">
<path d="M10.5981 4.53687C10.1456 3.47747 9.34119 2.60682 8.32081 2.07211C7.30043 1.5374 6.12671 1.37143 4.99808 1.60227C3.86945 1.83312 2.85516 2.4466 2.12667 3.33901C1.39818 4.23142 1.0002 5.34801 1 6.5V10.5C1 10.7652 1.10536 11.0196 1.29289 11.2071C1.48043 11.3946 1.73478 11.5 2 11.5H5.41687C5.80705 12.391 6.44821 13.1492 7.26207 13.6819C8.07593 14.2147 9.02729 14.4989 10 14.5H14C14.2652 14.5 14.5196 14.3946 14.7071 14.2071C14.8946 14.0196 15 13.7652 15 13.5V9.5C14.9998 8.27766 14.5518 7.09776 13.7407 6.18328C12.9296 5.2688 11.8117 4.6831 10.5981 4.53687ZM14 13.5H10C9.2927 13.4992 8.5982 13.3113 7.987 12.9553C7.37581 12.5993 6.86968 12.0879 6.52 11.4731C7.20482 11.4021 7.86756 11.1902 8.46663 10.8509C9.06569 10.5115 9.58813 10.052 10.0012 9.50115C10.4142 8.95031 10.7089 8.32003 10.8668 7.64988C11.0247 6.97973 11.0424 6.28418 10.9187 5.60687C11.7958 5.81385 12.5773 6.31092 13.1365 7.01752C13.6957 7.72412 14 8.59886 14 9.5V13.5Z" fill="black"/>
</g>
<defs>
<clipPath id="clip0_5_1037">
<rect width="16" height="16" fill="white"/>
</clipPath>
</defs>
</svg>
