<svg width="16" height="16" viewBox="0 0 16 16" fill="none" xmlns="http://www.w3.org/2000/svg">
<g clip-path="url(#clip0_5_1027)">
<path d="M14 3H2C1.73478 3 1.48043 3.10536 1.29289 3.29289C1.10536 3.48043 1 3.73478 1 4V12C1 12.2652 1.10536 12.5196 1.29289 12.7071C1.48043 12.8946 1.73478 13 2 13H14C14.2652 13 14.5196 12.8946 14.7071 12.7071C14.8946 12.5196 15 12.2652 15 12V4C15 3.73478 14.8946 3.48043 14.7071 3.29289C14.5196 3.10536 14.2652 3 14 3ZM4.5 10.5C4.43432 10.5001 4.36927 10.4872 4.30858 10.4621C4.24788 10.437 4.19272 10.4002 4.14625 10.3538L2.64625 8.85375C2.55243 8.75993 2.49972 8.63268 2.49972 8.5C2.49972 8.36732 2.55243 8.24007 2.64625 8.14625C2.74007 8.05243 2.86732 7.99972 3 7.99972C3.13268 7.99972 3.25993 8.05243 3.35375 8.14625L4.5 9.29313L8.14625 5.64625C8.1927 5.59979 8.24786 5.56294 8.30855 5.5378C8.36925 5.51266 8.4343 5.49972 8.5 5.49972C8.5657 5.49972 8.63075 5.51266 8.69145 5.5378C8.75214 5.56294 8.8073 5.59979 8.85375 5.64625C8.90021 5.6927 8.93706 5.74786 8.9622 5.80855C8.98734 5.86925 9.00028 5.9343 9.00028 6C9.00028 6.0657 8.98734 6.13075 8.9622 6.19145C8.93706 6.25214 8.90021 6.3073 8.85375 6.35375L4.85375 10.3538C4.80728 10.4002 4.75212 10.437 4.69142 10.4621C4.63073 10.4872 4.56568 10.5001 4.5 10.5ZM13.3538 6.35375L9.35375 10.3538C9.30731 10.4002 9.25217 10.4371 9.19147 10.4623C9.13077 10.4874 9.06571 10.5004 9 10.5004C8.93429 10.5004 8.86923 10.4874 8.80853 10.4623C8.74783 10.4371 8.69269 10.4002 8.64625 10.3538L7.64625 9.35375C7.55243 9.25993 7.49972 9.13268 7.49972 9C7.49972 8.86732 7.55243 8.74007 7.64625 8.64625C7.74007 8.55243 7.86732 8.49972 8 8.49972C8.13268 8.49972 8.25993 8.55243 8.35375 8.64625L9 9.29313L12.6462 5.64625C12.6927 5.59979 12.7479 5.56294 12.8086 5.5378C12.8692 5.51266 12.9343 5.49972 13 5.49972C13.0657 5.49972 13.1308 5.51266 13.1914 5.5378C13.2521 5.56294 13.3073 5.59979 13.3538 5.64625C13.4002 5.6927 13.4371 5.74786 13.4622 5.80855C13.4873 5.86925 13.5003 5.9343 13.5003 6C13.5003 6.0657 13.4873 6.13075 13.4622 6.19145C13.4371 6.25214 13.4002 6.3073 13.3538 6.35375Z" fill="black"/>
</g>
<defs>
<clipPath id="clip0_5_1027">
<rect width="16" height="16" fill="white"/>
</clipPath>
</defs>
</svg>
