<svg width="16" height="16" viewBox="0 0 16 16" fill="none" xmlns="http://www.w3.org/2000/svg">
<g clip-path="url(#clip0_5_1033)">
<path d="M15.2069 5.68188L7.18186 13.7069C6.99434 13.8943 6.74009 13.9995 6.47499 13.9995C6.20988 13.9995 5.95563 13.8943 5.76811 13.7069L1.29186 9.20688C1.10466 9.01938 0.999512 8.76526 0.999512 8.50031C0.999512 8.23536 1.10466 7.98124 1.29186 7.79375L2.54186 6.54375C2.72928 6.35712 2.98299 6.25234 3.24749 6.25234C3.51198 6.25234 3.7657 6.35712 3.95311 6.54375L6.49999 9.01375L12.5475 3.04063C12.7349 2.85381 12.9888 2.7489 13.2534 2.7489C13.5181 2.7489 13.7719 2.85381 13.9594 3.04063L15.2062 4.26188C15.3 4.3548 15.3744 4.46537 15.4253 4.5872C15.4761 4.70904 15.5023 4.83974 15.5023 4.97175C15.5024 5.10376 15.4763 5.23448 15.4256 5.35636C15.3749 5.47824 15.3005 5.58887 15.2069 5.68188Z" fill="black"/>
</g>
<defs>
<clipPath id="clip0_5_1033">
<rect width="16" height="16" fill="white"/>
</clipPath>
</defs>
</svg>
