<svg width="16" height="16" viewBox="0 0 16 16" fill="none" xmlns="http://www.w3.org/2000/svg">
<g clip-path="url(#clip0_5_1397)">
<path d="M13.5 2.5H2.5C2.23478 2.5 1.98043 2.60536 1.79289 2.79289C1.60536 2.98043 1.5 3.23478 1.5 3.5V12.5C1.5 12.7652 1.60536 13.0196 1.79289 13.2071C1.98043 13.3946 2.23478 13.5 2.5 13.5H13.5C13.7652 13.5 14.0196 13.3946 14.2071 13.2071C14.3946 13.0196 14.5 12.7652 14.5 12.5V3.5C14.5 3.23478 14.3946 2.98043 14.2071 2.79289C14.0196 2.60536 13.7652 2.5 13.5 2.5ZM12.8538 5.35375L6.85375 11.3538C6.80731 11.4002 6.75217 11.4371 6.69147 11.4623C6.63077 11.4874 6.56571 11.5004 6.5 11.5004C6.43429 11.5004 6.36923 11.4874 6.30853 11.4623C6.24783 11.4371 6.19269 11.4002 6.14625 11.3538L3.64625 8.85375C3.55243 8.75993 3.49972 8.63268 3.49972 8.5C3.49972 8.36732 3.55243 8.24007 3.64625 8.14625C3.74007 8.05243 3.86732 7.99972 4 7.99972C4.13268 7.99972 4.25993 8.05243 4.35375 8.14625L6.5 10.2931L12.1462 4.64625C12.2401 4.55243 12.3673 4.49972 12.5 4.49972C12.6327 4.49972 12.7599 4.55243 12.8538 4.64625C12.9476 4.74007 13.0003 4.86732 13.0003 5C13.0003 5.13268 12.9476 5.25993 12.8538 5.35375Z" fill="black"/>
</g>
<defs>
<clipPath id="clip0_5_1397">
<rect width="16" height="16" fill="white"/>
</clipPath>
</defs>
</svg>
