<svg width="16" height="16" viewBox="0 0 16 16" fill="none" xmlns="http://www.w3.org/2000/svg">
<g clip-path="url(#clip0_5_1031)">
<path d="M13 2H3C2.73478 2 2.48043 2.10536 2.29289 2.29289C2.10536 2.48043 2 2.73478 2 3V13C2 13.2652 2.10536 13.5196 2.29289 13.7071C2.48043 13.8946 2.73478 14 3 14H13C13.2652 14 13.5196 13.8946 13.7071 13.7071C13.8946 13.5196 14 13.2652 14 13V3C14 2.73478 13.8946 2.48043 13.7071 2.29289C13.5196 2.10536 13.2652 2 13 2ZM5 12.5C4.93432 12.5001 4.86927 12.4872 4.80858 12.4621C4.74788 12.437 4.69272 12.4002 4.64625 12.3538L3.64625 11.3538C3.55243 11.2599 3.49972 11.1327 3.49972 11C3.49972 10.8673 3.55243 10.7401 3.64625 10.6462C3.74007 10.5524 3.86732 10.4997 4 10.4997C4.13268 10.4997 4.25993 10.5524 4.35375 10.6462L5 11.2931L7.14625 9.14625C7.24007 9.05243 7.36732 8.99972 7.5 8.99972C7.63268 8.99972 7.75993 9.05243 7.85375 9.14625C7.94757 9.24007 8.00028 9.36732 8.00028 9.5C8.00028 9.63268 7.94757 9.75993 7.85375 9.85375L5.35375 12.3538C5.30728 12.4002 5.25212 12.437 5.19142 12.4621C5.13073 12.4872 5.06568 12.5001 5 12.5ZM12.5 12C12.5 12.1326 12.4473 12.2598 12.3536 12.3536C12.2598 12.4473 12.1326 12.5 12 12.5H8.5C8.36739 12.5 8.24021 12.4473 8.14645 12.3536C8.05268 12.2598 8 12.1326 8 12C8 11.8674 8.05268 11.7402 8.14645 11.6464C8.24021 11.5527 8.36739 11.5 8.5 11.5H11.5V4.5H4.5V8.5C4.5 8.63261 4.44732 8.75979 4.35355 8.85355C4.25979 8.94732 4.13261 9 4 9C3.86739 9 3.74021 8.94732 3.64645 8.85355C3.55268 8.75979 3.5 8.63261 3.5 8.5V4C3.5 3.86739 3.55268 3.74021 3.64645 3.64645C3.74021 3.55268 3.86739 3.5 4 3.5H12C12.1326 3.5 12.2598 3.55268 12.3536 3.64645C12.4473 3.74021 12.5 3.86739 12.5 4V12Z" fill="black"/>
</g>
<defs>
<clipPath id="clip0_5_1031">
<rect width="16" height="16" fill="white"/>
</clipPath>
</defs>
</svg>
