<svg width="16" height="16" viewBox="0 0 16 16" fill="none" xmlns="http://www.w3.org/2000/svg">
<g clip-path="url(#clip0_5_1163)">
<path d="M13.3706 13.3713L12.2675 13.6669L11.6163 11.2363C12.1314 10.9783 12.5418 10.5506 12.7782 10.0253C13.0147 9.49995 13.0628 8.90915 12.9144 8.3525C12.1269 5.415 10.4906 2.83875 10.4213 2.73063C10.3648 2.64239 10.2821 2.57411 10.1847 2.53542C10.0874 2.49673 9.98037 2.48959 9.87875 2.515L8.5125 2.85688C8.5125 2.34125 8.50125 2.0175 8.49938 1.97688C8.49439 1.86947 8.45491 1.76652 8.3868 1.68332C8.31868 1.60012 8.22556 1.5411 8.12125 1.515L6.12125 1.015C6.01963 0.98959 5.9126 0.996732 5.81526 1.03542C5.71793 1.07411 5.63519 1.14239 5.57875 1.23063C5.50938 1.33875 3.87313 3.91375 3.08562 6.85563C2.93721 7.41227 2.98529 8.00307 3.22177 8.52839C3.45824 9.05372 3.86864 9.48142 4.38375 9.73938L3.7325 12.1669L2.62937 11.8713C2.50124 11.8369 2.36473 11.8549 2.24986 11.9213C2.13499 11.9876 2.05119 12.0969 2.01688 12.225C1.98256 12.3531 2.00056 12.4897 2.0669 12.6045C2.13324 12.7194 2.24249 12.8032 2.37063 12.8375L5.37063 13.6413C5.41286 13.6523 5.45633 13.658 5.5 13.6581C5.62141 13.6583 5.73872 13.6142 5.83004 13.5342C5.92136 13.4542 5.98046 13.3437 5.9963 13.2234C6.01214 13.103 5.98364 12.981 5.91613 12.8801C5.84861 12.7792 5.74669 12.7063 5.62937 12.675L4.69812 12.425L5.34937 9.99438C5.4 9.9975 5.45 9.99938 5.5 9.99938C5.99604 9.99798 6.48052 9.8495 6.89215 9.5727C7.30379 9.29591 7.62408 8.90324 7.8125 8.44438C7.88625 8.8425 7.975 9.24563 8.08187 9.64563C8.22495 10.1776 8.5394 10.6476 8.97654 10.9828C9.41367 11.318 9.94912 11.4998 10.5 11.5C10.55 11.5 10.6 11.5 10.6506 11.495L11.3019 13.9256L10.3706 14.1756C10.2539 14.2074 10.1526 14.2804 10.0855 14.3811C10.0185 14.4818 9.99022 14.6034 10.006 14.7234C10.0218 14.8434 10.0806 14.9535 10.1714 15.0335C10.2623 15.1134 10.379 15.1577 10.5 15.1581C10.5437 15.158 10.5871 15.1523 10.6294 15.1413L13.6294 14.3375C13.7575 14.3032 13.8668 14.2194 13.9331 14.1045C13.9994 13.9897 14.0174 13.8531 13.9831 13.725C13.9488 13.5969 13.865 13.4876 13.7501 13.4213C13.6353 13.3549 13.4988 13.3369 13.3706 13.3713ZM9.76375 3.57438C9.9375 3.86813 10.2156 4.35813 10.5262 4.97813L8.5 5.48563C8.47375 4.86063 8.47625 4.345 8.48438 3.99875C8.48438 3.96375 8.4875 3.92875 8.48938 3.89375L9.76375 3.57438ZM6.23625 2.07438L7.50938 2.3925C7.51312 2.66 7.50938 3.05938 7.49625 3.54688C7.4925 3.6225 7.48625 3.74625 7.48187 3.91188C7.48187 3.97438 7.47563 4.03688 7.47188 4.09938L5.41813 3.58938C5.75 2.91688 6.0525 2.385 6.23625 2.07438ZM11.5525 2.72375C11.5231 2.66499 11.5055 2.60101 11.5008 2.53546C11.4962 2.46992 11.5044 2.40409 11.5252 2.34175C11.546 2.2794 11.5789 2.22177 11.6219 2.17214C11.665 2.12251 11.7175 2.08185 11.7762 2.0525L12.7762 1.5525C12.835 1.52312 12.899 1.5056 12.9645 1.50094C13.0301 1.49628 13.0959 1.50458 13.1582 1.52536C13.2205 1.54613 13.2782 1.57898 13.3278 1.62203C13.3774 1.66508 13.4181 1.71749 13.4475 1.77625C13.4769 1.83502 13.4944 1.899 13.4991 1.96454C13.5037 2.03007 13.4954 2.09589 13.4746 2.15822C13.4539 2.22055 13.421 2.27818 13.378 2.32781C13.3349 2.37745 13.2825 2.41812 13.2238 2.4475L12.2238 2.9475C12.165 2.97693 12.101 2.99448 12.0355 2.99916C11.9699 3.00384 11.9041 2.99555 11.8417 2.97477C11.7794 2.95399 11.7218 2.92113 11.6721 2.87805C11.6225 2.83498 11.5819 2.78255 11.5525 2.72375ZM14.5 4.5C14.5 4.63261 14.4473 4.75979 14.3536 4.85356C14.2598 4.94732 14.1326 5 14 5H13C12.8674 5 12.7402 4.94732 12.6464 4.85356C12.5527 4.75979 12.5 4.63261 12.5 4.5C12.5 4.36739 12.5527 4.24022 12.6464 4.14645C12.7402 4.05268 12.8674 4 13 4H14C14.1326 4 14.2598 4.05268 14.3536 4.14645C14.4473 4.24022 14.5 4.36739 14.5 4.5ZM2.0525 1.27625C2.08185 1.21746 2.1225 1.16502 2.17213 1.12195C2.22177 1.07888 2.2794 1.04601 2.34174 1.02523C2.40409 1.00445 2.46991 0.996163 2.53546 1.00084C2.60101 1.00552 2.66499 1.02308 2.72375 1.0525L3.72375 1.5525C3.78252 1.58189 3.83492 1.62256 3.87797 1.67219C3.92102 1.72183 3.95387 1.77946 3.97465 1.84179C3.99542 1.90412 4.00372 1.96993 3.99906 2.03547C3.9944 2.10101 3.97688 2.16499 3.9475 2.22375C3.91812 2.28252 3.87745 2.33492 3.82781 2.37797C3.77818 2.42102 3.72055 2.45387 3.65822 2.47465C3.53233 2.51661 3.39493 2.50684 3.27625 2.4475L2.27625 1.9475C2.21745 1.91815 2.16502 1.8775 2.12195 1.82787C2.07888 1.77824 2.04601 1.7206 2.02523 1.65826C2.00445 1.59592 1.99616 1.53009 2.00084 1.46454C2.00552 1.39899 2.02307 1.33501 2.0525 1.27625ZM2.5 4.5H1.5C1.36739 4.5 1.24021 4.44732 1.14645 4.35356C1.05268 4.25979 1 4.13261 1 4C1 3.86739 1.05268 3.74022 1.14645 3.64645C1.24021 3.55268 1.36739 3.5 1.5 3.5H2.5C2.63261 3.5 2.75979 3.55268 2.85355 3.64645C2.94732 3.74022 3 3.86739 3 4C3 4.13261 2.94732 4.25979 2.85355 4.35356C2.75979 4.44732 2.63261 4.5 2.5 4.5Z" fill="black"/>
</g>
<defs>
<clipPath id="clip0_5_1163">
<rect width="16" height="16" fill="white"/>
</clipPath>
</defs>
</svg>
