<svg width="16" height="16" viewBox="0 0 16 16" fill="none" xmlns="http://www.w3.org/2000/svg">
<g clip-path="url(#clip0_5_1025)">
<path d="M11.5 2C11.4513 1.99987 11.4028 2.00704 11.3562 2.02125L1.35625 5.02125C1.2533 5.05216 1.16304 5.11542 1.09887 5.20165C1.0347 5.28789 1.00003 5.39251 1 5.5V6.5C1 6.63261 1.05268 6.75979 1.14645 6.85356C1.24021 6.94732 1.36739 7 1.5 7H1.96625C2.80687 7 3.51562 7.6875 3.5 8.52875C3.49247 8.92157 3.33112 9.29576 3.05062 9.57088C2.77013 9.84599 2.39289 10.0001 2 10H1.5C1.36739 10 1.24021 10.0527 1.14645 10.1464C1.05268 10.2402 1 10.3674 1 10.5V12C1 12.1326 1.05268 12.2598 1.14645 12.3536C1.24021 12.4473 1.36739 12.5 1.5 12.5H14C14.2652 12.5 14.5196 12.3946 14.7071 12.2071C14.8946 12.0196 15 11.7652 15 11.5V5.5C14.999 4.57205 14.6299 3.68239 13.9738 3.02622C13.3176 2.37006 12.428 2.00099 11.5 2ZM5 11.5C5 10.9696 5.21071 10.4609 5.58579 10.0858C5.96086 9.71072 6.46957 9.5 7 9.5C7.53043 9.5 8.03914 9.71072 8.41421 10.0858C8.78929 10.4609 9 10.9696 9 11.5H5ZM10.5 8.5C10.1947 8.50016 9.89338 8.4304 9.61918 8.29609C9.34499 8.16178 9.10519 7.96648 8.91816 7.72515C8.73113 7.48382 8.60184 7.20287 8.54019 6.90384C8.47854 6.6048 8.48617 6.29563 8.5625 6H12.4375C12.5138 6.29563 12.5215 6.6048 12.4598 6.90384C12.3982 7.20287 12.2689 7.48382 12.0818 7.72515C11.8948 7.96648 11.655 8.16178 11.3808 8.29609C11.1066 8.4304 10.8053 8.50016 10.5 8.5ZM4.90688 5L11.57 3C12.1339 3.01654 12.6757 3.22305 13.1076 3.58607C13.5395 3.94908 13.8361 4.44731 13.9494 5H4.90688Z" fill="black"/>
</g>
<defs>
<clipPath id="clip0_5_1025">
<rect width="16" height="16" fill="white"/>
</clipPath>
</defs>
</svg>
