<svg width="16" height="16" viewBox="0 0 16 16" fill="none" xmlns="http://www.w3.org/2000/svg">
<g clip-path="url(#clip0_5_1023)">
<path d="M15.0001 7.00003C14.9991 6.07207 14.6301 5.18241 13.9739 4.52625C13.3177 3.87009 12.4281 3.50102 11.5001 3.50003C11.3895 3.50003 11.2789 3.50628 11.1695 3.51628C10.8873 2.91395 10.4393 2.40451 9.87799 2.04764C9.31668 1.69076 8.66529 1.50122 8.00013 1.50122C7.33497 1.50122 6.68359 1.69076 6.12228 2.04764C5.56096 2.40451 5.11296 2.91395 4.83076 3.51628C4.72138 3.50628 4.61076 3.50003 4.50013 3.50003C3.70562 3.50022 2.93481 3.77073 2.31443 4.26708C1.69404 4.76344 1.26099 5.4561 1.08646 6.23121C0.91194 7.00631 1.00633 7.81774 1.35411 8.53209C1.70189 9.24644 2.28238 9.8212 3.00013 10.1619V13C3.00013 13.2652 3.10549 13.5196 3.29303 13.7071C3.48056 13.8947 3.73492 14 4.00013 14H12.0001C12.2653 14 12.5197 13.8947 12.7072 13.7071C12.8948 13.5196 13.0001 13.2652 13.0001 13V10.1619C13.5981 9.87753 14.1032 9.42964 14.4572 8.87007C14.8111 8.3105 14.9994 7.66214 15.0001 7.00003ZM9.51513 8.87878L10.0151 6.87878C10.0491 6.75213 10.1315 6.6439 10.2445 6.5774C10.3575 6.51091 10.4921 6.49147 10.6193 6.52327C10.7465 6.55507 10.8562 6.63557 10.9246 6.74743C10.993 6.85928 11.0147 6.99354 10.9851 7.12128L10.4851 9.12128C10.4581 9.22945 10.3957 9.32547 10.3078 9.3941C10.2199 9.46272 10.1116 9.50001 10.0001 9.50003C9.95905 9.49997 9.91813 9.49493 9.87826 9.48503C9.74975 9.45271 9.63933 9.37072 9.57124 9.25704C9.50316 9.14337 9.48298 9.00732 9.51513 8.87878ZM7.50013 7.00003C7.50013 6.86742 7.55281 6.74024 7.64658 6.64647C7.74035 6.5527 7.86752 6.50003 8.00013 6.50003C8.13274 6.50003 8.25992 6.5527 8.35369 6.64647C8.44745 6.74024 8.50013 6.86742 8.50013 7.00003V9.00003C8.50013 9.13263 8.44745 9.25981 8.35369 9.35358C8.25992 9.44735 8.13274 9.50003 8.00013 9.50003C7.86752 9.50003 7.74035 9.44735 7.64658 9.35358C7.55281 9.25981 7.50013 9.13263 7.50013 9.00003V7.00003ZM5.37888 6.51503C5.50751 6.48289 5.64364 6.50315 5.75733 6.57137C5.87102 6.63958 5.95296 6.75016 5.98513 6.87878L6.48513 8.87878C6.51727 9.0074 6.497 9.14353 6.42879 9.25722C6.36058 9.37091 6.25 9.45285 6.12138 9.48503C6.0805 9.49519 6.03851 9.50023 5.99638 9.50003C5.88499 9.49987 5.77684 9.46252 5.68909 9.39391C5.60134 9.32529 5.53902 9.22934 5.51201 9.12128L5.01201 7.12128C4.99614 7.05737 4.99306 6.99097 5.00292 6.92587C5.01279 6.86078 5.03542 6.79827 5.06951 6.74194C5.10359 6.68561 5.14847 6.63657 5.20156 6.59763C5.25465 6.55869 5.31491 6.53062 5.37888 6.51503ZM12.0001 13H4.00013V10.4638C4.16571 10.4879 4.33281 10.5 4.50013 10.5H11.5001C11.6675 10.5 11.8346 10.4879 12.0001 10.4638V13Z" fill="black"/>
</g>
<defs>
<clipPath id="clip0_5_1023">
<rect width="16" height="16" fill="white"/>
</clipPath>
</defs>
</svg>
