<svg width="16" height="16" viewBox="0 0 16 16" fill="none" xmlns="http://www.w3.org/2000/svg">
<g clip-path="url(#clip0_5_1020)">
<path d="M11.1513 4.50002C10.9383 4.49326 10.7251 4.50098 10.5132 4.52314C10.162 3.92307 9.7048 3.39175 9.16381 2.95502C6.79881 1.04939 3.56568 1.48564 3.42943 1.50502C3.3161 1.52089 3.21164 1.57516 3.1335 1.65876C3.05535 1.74237 3.00825 1.85025 3.00006 1.96439C2.99492 2.05419 3.01352 2.14376 3.05401 2.22407C3.0945 2.30439 3.15544 2.37262 3.23068 2.42189C4.31818 3.15189 4.81631 4.35377 5.02443 5.52502C3.87995 5.64497 2.82476 6.19833 2.07534 7.07159C1.32592 7.94485 0.939078 9.07179 0.994187 10.2212C1.0493 11.3706 1.54217 12.4554 2.37171 13.253C3.20124 14.0505 4.30453 14.5004 5.45523 14.5103C6.60594 14.5202 7.71681 14.0894 8.55995 13.3062C9.40309 12.5231 9.91457 11.447 9.98947 10.2987C10.0644 9.15036 9.69698 8.01693 8.96271 7.13089C8.22843 6.24486 7.18293 5.67341 6.04068 5.53377C5.84631 4.28689 5.41006 3.25002 4.75006 2.46064C5.79193 2.50564 7.32756 2.75939 8.54006 3.74064C8.90184 4.0335 9.21782 4.37877 9.47756 4.76502C9.35881 4.80814 9.24068 4.85502 9.12443 4.90814C9.06094 4.93557 9.00347 4.97524 8.95532 5.0249C8.90716 5.07455 8.86927 5.13321 8.84381 5.19752C8.80702 5.29526 8.80177 5.40207 8.82878 5.50296C8.8558 5.60384 8.91372 5.69373 8.99443 5.76002C9.3088 6.01964 9.59364 6.31307 9.84381 6.63502C9.85558 6.65022 9.86923 6.66387 9.88443 6.67564C10.0001 6.75939 10.3644 7.00002 11.0001 7.00002C11.7594 7.00002 12.1363 6.65564 12.1519 6.64064L12.1463 6.64627C12.1928 6.59981 12.2479 6.56296 12.3086 6.53782C12.3693 6.51268 12.4344 6.49974 12.5001 6.49974C12.5658 6.49974 12.6308 6.51268 12.6915 6.53782C12.7522 6.56296 12.8074 6.59981 12.8538 6.64627C12.9003 6.69272 12.9371 6.74787 12.9623 6.80857C12.9874 6.86927 13.0003 6.93432 13.0003 7.00002C13.0003 7.06571 12.9874 7.13077 12.9623 7.19147C12.9371 7.25216 12.9003 7.30731 12.8538 7.35377C12.7876 7.42002 12.1732 8.00002 11.0001 8.00002H10.8994C10.8685 7.99823 10.8377 8.00411 10.8096 8.01715C10.7816 8.03018 10.7572 8.04995 10.7386 8.0747C10.72 8.09946 10.7079 8.12842 10.7032 8.15901C10.6986 8.1896 10.7016 8.22086 10.7119 8.25002C10.9587 8.9846 11.0473 9.76307 10.9719 10.5343C10.8965 11.3056 10.6588 12.0521 10.2744 12.725C10.2036 12.8419 10.1811 12.9818 10.2119 13.115C10.2378 13.2165 10.295 13.3073 10.3753 13.3746C10.4556 13.4419 10.555 13.4823 10.6594 13.49C10.7707 13.4981 10.8838 13.5025 10.9951 13.5025C12.1885 13.5226 13.3411 13.0677 14.1992 12.238C15.0573 11.4082 15.5506 10.2716 15.5707 9.07814C15.5907 7.88467 15.1359 6.73211 14.3061 5.87401C13.4764 5.01592 12.3398 4.52257 11.1463 4.50252L11.1513 4.50002ZM6.65131 7.63814L6.64568 7.64377C6.7395 7.54995 6.86675 7.49724 6.99943 7.49724C7.13211 7.49724 7.25936 7.54995 7.35318 7.64377C7.447 7.73759 7.49971 7.86484 7.49971 7.99752C7.49971 8.1302 7.447 8.25745 7.35318 8.35127C7.28756 8.42002 6.67318 9.00002 5.50006 9.00002C4.32693 9.00002 3.71256 8.42002 3.64631 8.35377C3.59985 8.30731 3.563 8.25216 3.53786 8.19147C3.51272 8.13077 3.49978 8.06571 3.49978 8.00002C3.49978 7.86734 3.55249 7.74009 3.64631 7.64627C3.74013 7.55245 3.86738 7.49974 4.00006 7.49974C4.13274 7.49974 4.25999 7.55245 4.35381 7.64627L4.34818 7.64064C4.36381 7.65564 4.74068 8.00002 5.50006 8.00002C6.25943 8.00002 6.63631 7.65564 6.65193 7.64064L6.65131 7.63814Z" fill="black"/>
</g>
<defs>
<clipPath id="clip0_5_1020">
<rect width="16" height="16" fill="white"/>
</clipPath>
</defs>
</svg>
