<svg width="16" height="16" viewBox="0 0 16 16" fill="none" xmlns="http://www.w3.org/2000/svg">
<g clip-path="url(#clip0_5_993)">
<path d="M14.2575 9.07125L12 7.71688V6.5C12.0008 6.41147 11.9781 6.32432 11.9341 6.24745C11.8902 6.17059 11.8267 6.10676 11.75 6.0625L8.5 4.21V3H9.5C9.63261 3 9.75979 2.94732 9.85355 2.85355C9.94732 2.75979 10 2.63261 10 2.5C10 2.36739 9.94732 2.24021 9.85355 2.14645C9.75979 2.05268 9.63261 2 9.5 2H8.5V1C8.5 0.867392 8.44732 0.740215 8.35355 0.646447C8.25979 0.552678 8.13261 0.5 8 0.5C7.86739 0.5 7.74021 0.552678 7.64645 0.646447C7.55268 0.740215 7.5 0.867392 7.5 1V2H6.5C6.36739 2 6.24021 2.05268 6.14645 2.14645C6.05268 2.24021 6 2.36739 6 2.5C6 2.63261 6.05268 2.75979 6.14645 2.85355C6.24021 2.94732 6.36739 3 6.5 3H7.5V4.21L4.25 6.06563C4.17333 6.10989 4.10978 6.17371 4.06586 6.25058C4.02193 6.32745 3.99921 6.4146 4 6.50313V7.72L1.7425 9.07125C1.66851 9.1157 1.60729 9.17856 1.56479 9.25369C1.52229 9.32882 1.49997 9.41368 1.5 9.5V13.5C1.5 13.6326 1.55268 13.7598 1.64645 13.8536C1.74021 13.9473 1.86739 14 2 14H6.5C6.63261 14 6.75979 13.9473 6.85355 13.8536C6.94732 13.7598 7 13.6326 7 13.5V10.5C7 10.2348 7.10536 9.98043 7.29289 9.79289C7.48043 9.60536 7.73478 9.5 8 9.5C8.26522 9.5 8.51957 9.60536 8.70711 9.79289C8.89464 9.98043 9 10.2348 9 10.5V13.5C9 13.6326 9.05268 13.7598 9.14645 13.8536C9.24021 13.9473 9.36739 14 9.5 14H14C14.1326 14 14.2598 13.9473 14.3536 13.8536C14.4473 13.7598 14.5 13.6326 14.5 13.5V9.5C14.5 9.41368 14.4777 9.32882 14.4352 9.25369C14.3927 9.17856 14.3315 9.1157 14.2575 9.07125ZM4 13H2.5V9.78312L4 8.88313V13ZM13.5 13H12V8.88313L13.5 9.78312V13Z" fill="black"/>
</g>
<defs>
<clipPath id="clip0_5_993">
<rect width="16" height="16" fill="white"/>
</clipPath>
</defs>
</svg>
