<svg width="16" height="16" viewBox="0 0 16 16" fill="none" xmlns="http://www.w3.org/2000/svg">
<g clip-path="url(#clip0_5_1328)">
<path d="M12.5625 3.75497C13.0625 2.8656 13.0262 2.3981 12.96 2.1981C12.931 2.10268 12.8734 2.01847 12.795 1.95685C12.7347 1.93038 12.6802 1.89225 12.6347 1.84466C12.5892 1.79707 12.5535 1.74096 12.5297 1.67954C12.5059 1.61813 12.4945 1.55262 12.4961 1.48678C12.4978 1.42095 12.5124 1.35607 12.5391 1.2959C12.5659 1.23572 12.6042 1.18142 12.652 1.13612C12.6998 1.09081 12.7561 1.0554 12.8176 1.03191C12.8792 1.00842 12.9447 0.997316 13.0106 0.999236C13.0764 1.00116 13.1412 1.01606 13.2013 1.0431C13.3694 1.12869 13.5186 1.24714 13.6401 1.39142C13.7616 1.5357 13.853 1.70289 13.9087 1.8831C14.1187 2.51685 13.9594 3.31122 13.4338 4.24497C12.9338 5.13435 12.97 5.60247 13.0363 5.80247C13.0654 5.89766 13.1229 5.98164 13.2013 6.0431C13.2616 6.06957 13.316 6.1077 13.3616 6.15529C13.4071 6.20287 13.4428 6.25899 13.4665 6.3204C13.4903 6.38182 13.5017 6.44733 13.5001 6.51316C13.4985 6.579 13.4839 6.64387 13.4571 6.70405C13.4304 6.76423 13.392 6.81853 13.3442 6.86383C13.2964 6.90913 13.2401 6.94455 13.1786 6.96804C13.1171 6.99153 13.0515 7.00263 12.9857 7.00071C12.9199 6.99879 12.8551 6.98388 12.795 6.95685C12.6268 6.87137 12.4775 6.75297 12.356 6.60867C12.2344 6.46437 12.1431 6.29712 12.0875 6.11685C11.8794 5.4831 12.0387 4.68747 12.5625 3.75497ZM9.5875 6.11685C9.64314 6.29712 9.73444 6.46437 9.85598 6.60867C9.97752 6.75297 10.1268 6.87137 10.295 6.95685C10.3551 6.98388 10.4199 6.99879 10.4857 7.00071C10.5515 7.00263 10.6171 6.99153 10.6786 6.96804C10.7401 6.94455 10.7964 6.90913 10.8442 6.86383C10.892 6.81853 10.9304 6.76423 10.9571 6.70405C10.9839 6.64387 10.9985 6.579 11.0001 6.51316C11.0017 6.44733 10.9903 6.38182 10.9665 6.3204C10.9428 6.25899 10.9071 6.20287 10.8616 6.15529C10.816 6.1077 10.7616 6.06957 10.7013 6.0431C10.6229 5.98164 10.5654 5.89766 10.5363 5.80247C10.47 5.60247 10.4338 5.13435 10.9338 4.24497C11.4594 3.31122 11.6212 2.51685 11.4087 1.8831C11.353 1.70289 11.2616 1.5357 11.1401 1.39142C11.0186 1.24714 10.8694 1.12869 10.7013 1.0431C10.6412 1.01606 10.5764 1.00116 10.5106 0.999236C10.4447 0.997316 10.3792 1.00842 10.3176 1.03191C10.2561 1.0554 10.1998 1.09081 10.152 1.13612C10.1042 1.18142 10.0659 1.23572 10.0391 1.2959C10.0124 1.35607 9.99775 1.42095 9.99614 1.48678C9.99452 1.55262 10.0059 1.61813 10.0297 1.67954C10.0535 1.74096 10.0892 1.79707 10.1347 1.84466C10.1802 1.89225 10.2347 1.93038 10.295 1.95685C10.3734 2.01847 10.431 2.10268 10.46 2.1981C10.5262 2.3981 10.5625 2.8656 10.0625 3.75497C9.53875 4.68747 9.37937 5.4831 9.58937 6.11685H9.5875ZM13.3681 13.1637C13.4132 13.2122 13.4482 13.269 13.4712 13.3311C13.4941 13.3932 13.5045 13.4592 13.5017 13.5253C13.499 13.5914 13.4831 13.6563 13.4551 13.7162C13.427 13.7762 13.3874 13.8299 13.3384 13.8744C13.2895 13.9189 13.2322 13.9533 13.1698 13.9755C13.1075 13.9976 13.0414 14.0072 12.9753 14.0037C12.9092 14.0001 12.8445 13.9835 12.7849 13.9548C12.7253 13.926 12.672 13.8857 12.6281 13.8362L10.9606 12H2C1.73478 12 1.48043 11.8946 1.29289 11.7071C1.10536 11.5195 1 11.2652 1 11V8.99997C1 8.73476 1.10536 8.4804 1.29289 8.29287C1.48043 8.10533 1.73478 7.99997 2 7.99997H7.32438L2.63 2.83622C2.58492 2.78779 2.54989 2.7309 2.52696 2.66884C2.50403 2.60677 2.49364 2.54077 2.4964 2.47466C2.49917 2.40856 2.51502 2.34366 2.54305 2.28372C2.57108 2.22379 2.61073 2.17001 2.65969 2.12551C2.70866 2.08101 2.76597 2.04667 2.82831 2.02449C2.89064 2.0023 2.95676 1.9927 3.02283 1.99626C3.0889 1.99981 3.15361 2.01645 3.2132 2.04519C3.27279 2.07394 3.32609 2.11423 3.37 2.16372L13.3681 13.1637ZM10.0513 11L8.23312 8.99997H6V11H10.0513ZM14 7.99997H11.1575C11.0249 7.99997 10.8977 8.05265 10.8039 8.14642C10.7102 8.24019 10.6575 8.36736 10.6575 8.49997C10.6575 8.63258 10.7102 8.75976 10.8039 8.85353C10.8977 8.9473 11.0249 8.99997 11.1575 8.99997H14V11H13.885C13.7524 11 13.6252 11.0527 13.5314 11.1464C13.4377 11.2402 13.385 11.3674 13.385 11.5C13.385 11.6326 13.4377 11.7598 13.5314 11.8535C13.6252 11.9473 13.7524 12 13.885 12H14C14.2652 12 14.5196 11.8946 14.7071 11.7071C14.8946 11.5195 15 11.2652 15 11V8.99997C15 8.73476 14.8946 8.4804 14.7071 8.29287C14.5196 8.10533 14.2652 7.99997 14 7.99997Z" fill="black"/>
</g>
<defs>
<clipPath id="clip0_5_1328">
<rect width="16" height="16" fill="white"/>
</clipPath>
</defs>
</svg>
