<svg width="16" height="16" viewBox="0 0 16 16" fill="none" xmlns="http://www.w3.org/2000/svg">
<g clip-path="url(#clip0_5_1016)">
<path d="M8 1.5C6.71442 1.5 5.45772 1.88122 4.3888 2.59545C3.31988 3.30968 2.48676 4.32484 1.99479 5.51256C1.50282 6.70028 1.37409 8.00721 1.6249 9.26809C1.8757 10.529 2.49477 11.6872 3.40381 12.5962C4.31285 13.5052 5.47104 14.1243 6.73192 14.3751C7.99279 14.6259 9.29973 14.4972 10.4874 14.0052C11.6752 13.5132 12.6903 12.6801 13.4046 11.6112C14.1188 10.5423 14.5 9.28558 14.5 8C14.4982 6.27665 13.8128 4.62441 12.5942 3.40582C11.3756 2.18722 9.72335 1.50182 8 1.5ZM11.4119 4.3125C11.5113 4.22475 11.6414 4.18007 11.7737 4.18827C11.9061 4.19648 12.0297 4.2569 12.1175 4.35625C12.6086 4.91051 12.9828 5.55825 13.2175 6.26062C13.2596 6.38644 13.25 6.52382 13.1908 6.64256C13.1316 6.76129 13.0277 6.85165 12.9019 6.89375C12.7761 6.93585 12.6387 6.92625 12.5199 6.86706C12.4012 6.80787 12.3109 6.70394 12.2688 6.57812C12.0774 6.00181 11.7713 5.47027 11.3688 5.01562C11.2817 4.91645 11.2374 4.78689 11.2455 4.65518C11.2535 4.52347 11.3134 4.40029 11.4119 4.3125ZM4.58813 11.6906C4.48874 11.7784 4.35858 11.8231 4.22626 11.8149C4.09393 11.8066 3.97029 11.7462 3.8825 11.6469C3.39137 11.0926 3.01722 10.4449 2.7825 9.7425C2.7404 9.61669 2.75 9.4793 2.80919 9.36057C2.86838 9.24184 2.97232 9.15148 3.09813 9.10938C3.22394 9.06727 3.36132 9.07687 3.48006 9.13606C3.59879 9.19525 3.68915 9.29919 3.73125 9.425C3.92294 10.0002 4.22909 10.5307 4.63125 10.9844C4.67483 11.0336 4.70829 11.0909 4.72971 11.153C4.75113 11.2151 4.7601 11.2808 4.75609 11.3464C4.75209 11.412 4.73519 11.4762 4.70637 11.5353C4.67755 11.5943 4.63737 11.6471 4.58813 11.6906ZM4.63125 5.01562C4.22872 5.47027 3.92256 6.00181 3.73125 6.57812C3.71041 6.64042 3.67749 6.698 3.63439 6.74758C3.59129 6.79715 3.53885 6.83775 3.48006 6.86706C3.42127 6.89637 3.35728 6.91381 3.29175 6.91839C3.22622 6.92297 3.16042 6.9146 3.09813 6.89375C3.03583 6.8729 2.97825 6.83999 2.92868 6.79689C2.8791 6.75379 2.8385 6.70135 2.80919 6.64256C2.77988 6.58376 2.76244 6.51978 2.75786 6.45424C2.75328 6.38871 2.76166 6.32292 2.7825 6.26062C3.01722 5.55825 3.39137 4.91051 3.8825 4.35625C3.97036 4.25679 4.09412 4.19631 4.22657 4.18811C4.35901 4.1799 4.4893 4.22465 4.58875 4.3125C4.68821 4.40035 4.74869 4.52412 4.7569 4.65656C4.7651 4.78901 4.72036 4.91929 4.6325 5.01875L4.63125 5.01562ZM9.09938 13.3906C8.37397 13.539 7.62604 13.539 6.90063 13.3906C6.77177 13.3632 6.65897 13.2859 6.58673 13.1758C6.51449 13.0656 6.48865 12.9314 6.51484 12.8022C6.54103 12.6731 6.61712 12.5595 6.72657 12.4862C6.83603 12.4129 6.97 12.3857 7.09938 12.4106C7.69367 12.5319 8.30633 12.5319 8.90063 12.4106C9.03 12.3857 9.16398 12.4129 9.27343 12.4862C9.38289 12.5595 9.45898 12.6731 9.48517 12.8022C9.51135 12.9314 9.48552 13.0656 9.41328 13.1758C9.34104 13.2859 9.22823 13.3632 9.09938 13.3906ZM9.49 3.20312C9.46644 3.3156 9.40486 3.41653 9.31562 3.48892C9.22638 3.56132 9.11492 3.60077 9 3.60063C8.96642 3.60071 8.93291 3.59736 8.9 3.59063C8.30571 3.46937 7.69305 3.46937 7.09875 3.59063C7.03413 3.6044 6.96741 3.60523 6.90246 3.59306C6.83751 3.5809 6.77562 3.55598 6.72036 3.51975C6.6651 3.48352 6.61757 3.43669 6.58052 3.38198C6.54347 3.32727 6.51763 3.26575 6.50449 3.20099C6.49136 3.13623 6.49119 3.06951 6.504 3.00468C6.51681 2.93986 6.54234 2.87822 6.57912 2.82332C6.6159 2.76842 6.66319 2.72136 6.71827 2.68485C6.77335 2.64834 6.83512 2.62312 6.9 2.61063C7.62543 2.46249 8.37332 2.46249 9.09875 2.61063C9.16316 2.62361 9.22437 2.64915 9.27889 2.68581C9.33342 2.72246 9.38018 2.7695 9.41652 2.82423C9.45285 2.87897 9.47804 2.94033 9.49065 3.0048C9.50326 3.06928 9.50304 3.13561 9.49 3.2V3.20312ZM13.2175 9.74562C12.9828 10.448 12.6086 11.0957 12.1175 11.65C12.074 11.6992 12.0212 11.7394 11.9622 11.7683C11.9032 11.7971 11.839 11.8141 11.7734 11.8181C11.7079 11.8222 11.6421 11.8133 11.58 11.792C11.5178 11.7706 11.4605 11.7373 11.4113 11.6938C11.362 11.6503 11.3218 11.5975 11.293 11.5384C11.2641 11.4794 11.2472 11.4153 11.2431 11.3497C11.239 11.2841 11.2479 11.2184 11.2693 11.1562C11.2906 11.0941 11.324 11.0367 11.3675 10.9875C11.7697 10.5338 12.0758 10.0033 12.2675 9.42813C12.3096 9.30231 12.4 9.19838 12.5187 9.13919C12.6374 9.08 12.7748 9.0704 12.9006 9.1125C13.0264 9.1546 13.1304 9.24496 13.1896 9.36369C13.2488 9.48243 13.2584 9.61981 13.2163 9.74562H13.2175Z" fill="black"/>
</g>
<defs>
<clipPath id="clip0_5_1016">
<rect width="16" height="16" fill="white"/>
</clipPath>
</defs>
</svg>
