<svg width="16" height="16" viewBox="0 0 16 16" fill="none" xmlns="http://www.w3.org/2000/svg">
<g clip-path="url(#clip0_5_1014)">
<path d="M8 1.5C6.71442 1.5 5.45772 1.88122 4.3888 2.59545C3.31988 3.30968 2.48676 4.32484 1.99479 5.51256C1.50282 6.70028 1.37409 8.00721 1.6249 9.26809C1.8757 10.529 2.49477 11.6872 3.40381 12.5962C4.31285 13.5052 5.47104 14.1243 6.73192 14.3751C7.99279 14.6259 9.29973 14.4972 10.4874 14.0052C11.6752 13.5132 12.6903 12.6801 13.4046 11.6112C14.1188 10.5423 14.5 9.28558 14.5 8C14.4982 6.27665 13.8128 4.62441 12.5942 3.40582C11.3756 2.18722 9.72335 1.50182 8 1.5ZM8 12.5C7.00928 12.5001 6.04619 12.1733 5.26015 11.5703C4.47411 10.9672 3.90906 10.1216 3.65266 9.16464C3.39625 8.20766 3.46282 7.19282 3.84203 6.27754C4.22125 5.36227 4.89192 4.59772 5.75 4.1025C5.86453 4.04031 5.99882 4.02529 6.12426 4.06065C6.2497 4.09601 6.35638 4.17896 6.42157 4.29181C6.48675 4.40467 6.5053 4.53851 6.47325 4.66484C6.44121 4.79117 6.3611 4.89999 6.25 4.96812C5.58276 5.35336 5.06127 5.948 4.76642 6.65982C4.47158 7.37164 4.41985 8.16086 4.61926 8.90508C4.81868 9.6493 5.25808 10.3069 5.86934 10.776C6.48059 11.245 7.22953 11.4992 8 11.4992C8.77047 11.4992 9.51941 11.245 10.1307 10.776C10.7419 10.3069 11.1813 9.6493 11.3807 8.90508C11.5802 8.16086 11.5284 7.37164 11.2336 6.65982C10.9387 5.948 10.4172 5.35336 9.75 4.96812C9.6389 4.89999 9.5588 4.79117 9.52675 4.66484C9.49471 4.53851 9.51325 4.40467 9.57844 4.29181C9.64363 4.17896 9.7503 4.09601 9.87574 4.06065C10.0012 4.02529 10.1355 4.04031 10.25 4.1025C11.1081 4.59772 11.7788 5.36227 12.158 6.27754C12.5372 7.19282 12.6038 8.20766 12.3474 9.16464C12.0909 10.1216 11.5259 10.9672 10.7399 11.5703C9.95381 12.1733 8.99073 12.5001 8 12.5Z" fill="black"/>
</g>
<defs>
<clipPath id="clip0_5_1014">
<rect width="16" height="16" fill="white"/>
</clipPath>
</defs>
</svg>
