<svg width="16" height="16" viewBox="0 0 16 16" fill="none" xmlns="http://www.w3.org/2000/svg">
<g clip-path="url(#clip0_5_1301)">
<path d="M8 7.5C7.4561 7.5 6.92442 7.33872 6.47218 7.03654C6.01995 6.73437 5.66747 6.30488 5.45933 5.80238C5.25119 5.29988 5.19673 4.74695 5.30284 4.2135C5.40895 3.68005 5.67086 3.19005 6.05546 2.80546C6.44005 2.42086 6.93006 2.15895 7.4635 2.05284C7.99695 1.94673 8.54988 2.00119 9.05238 2.20933C9.55488 2.41747 9.98437 2.76995 10.2865 3.22218C10.5887 3.67442 10.75 4.2061 10.75 4.75C10.7492 5.47909 10.4592 6.17809 9.94363 6.69363C9.42809 7.20918 8.72909 7.49917 8 7.5ZM11.75 8C11.2061 8 10.6744 8.16129 10.2222 8.46346C9.76995 8.76563 9.41747 9.19513 9.20933 9.69762C9.00119 10.2001 8.94673 10.7531 9.05284 11.2865C9.15895 11.8199 9.42086 12.31 9.80546 12.6945C10.1901 13.0791 10.6801 13.3411 11.2135 13.4472C11.747 13.5533 12.2999 13.4988 12.8024 13.2907C13.3049 13.0825 13.7344 12.7301 14.0365 12.2778C14.3387 11.8256 14.5 11.2939 14.5 10.75C14.4992 10.0209 14.2092 9.32192 13.6936 8.80637C13.1781 8.29083 12.4791 8.00083 11.75 8ZM4.25 8C3.7061 8 3.17442 8.16129 2.72218 8.46346C2.26995 8.76563 1.91747 9.19513 1.70933 9.69762C1.50119 10.2001 1.44673 10.7531 1.55284 11.2865C1.65895 11.8199 1.92086 12.31 2.30546 12.6945C2.69005 13.0791 3.18006 13.3411 3.7135 13.4472C4.24695 13.5533 4.79988 13.4988 5.30238 13.2907C5.80488 13.0825 6.23437 12.7301 6.53654 12.2778C6.83872 11.8256 7 11.2939 7 10.75C6.99917 10.0209 6.70918 9.32192 6.19363 8.80637C5.67809 8.29083 4.97909 8.00083 4.25 8Z" fill="black"/>
</g>
<defs>
<clipPath id="clip0_5_1301">
<rect width="16" height="16" fill="white"/>
</clipPath>
</defs>
</svg>
