<svg width="16" height="16" viewBox="0 0 16 16" fill="none" xmlns="http://www.w3.org/2000/svg">
<g clip-path="url(#clip0_5_1293)">
<path d="M7.5 5C7.5 5.49445 7.35338 5.9778 7.07867 6.38893C6.80397 6.80005 6.41352 7.12048 5.95671 7.3097C5.49989 7.49892 4.99723 7.54843 4.51228 7.45196C4.02732 7.3555 3.58187 7.1174 3.23223 6.76777C2.8826 6.41814 2.6445 5.97268 2.54804 5.48773C2.45157 5.00277 2.50108 4.50011 2.6903 4.04329C2.87952 3.58648 3.19995 3.19603 3.61108 2.92133C4.0222 2.64662 4.50555 2.5 5 2.5C5.66304 2.5 6.29893 2.76339 6.76777 3.23223C7.23661 3.70108 7.5 4.33696 7.5 5ZM11 7.5C11.4945 7.5 11.9778 7.35338 12.3889 7.07867C12.8 6.80397 13.1205 6.41352 13.3097 5.95671C13.4989 5.49989 13.5484 4.99723 13.452 4.51228C13.3555 4.02732 13.1174 3.58187 12.7678 3.23223C12.4181 2.8826 11.9727 2.6445 11.4877 2.54804C11.0028 2.45157 10.5001 2.50108 10.0433 2.6903C9.58648 2.87952 9.19603 3.19995 8.92133 3.61108C8.64662 4.0222 8.5 4.50555 8.5 5C8.5 5.66304 8.76339 6.29893 9.23223 6.76777C9.70108 7.23661 10.337 7.5 11 7.5ZM5 8.5C4.50555 8.5 4.0222 8.64662 3.61108 8.92133C3.19995 9.19603 2.87952 9.58648 2.6903 10.0433C2.50108 10.5001 2.45157 11.0028 2.54804 11.4877C2.6445 11.9727 2.8826 12.4181 3.23223 12.7678C3.58187 13.1174 4.02732 13.3555 4.51228 13.452C4.99723 13.5484 5.49989 13.4989 5.95671 13.3097C6.41352 13.1205 6.80397 12.8 7.07867 12.3889C7.35338 11.9778 7.5 11.4945 7.5 11C7.5 10.337 7.23661 9.70108 6.76777 9.23223C6.29893 8.76339 5.66304 8.5 5 8.5ZM13 10.5H11.5V9C11.5 8.86739 11.4473 8.74022 11.3536 8.64645C11.2598 8.55268 11.1326 8.5 11 8.5C10.8674 8.5 10.7402 8.55268 10.6464 8.64645C10.5527 8.74022 10.5 8.86739 10.5 9V10.5H9C8.86739 10.5 8.74022 10.5527 8.64645 10.6464C8.55268 10.7402 8.5 10.8674 8.5 11C8.5 11.1326 8.55268 11.2598 8.64645 11.3536C8.74022 11.4473 8.86739 11.5 9 11.5H10.5V13C10.5 13.1326 10.5527 13.2598 10.6464 13.3536C10.7402 13.4473 10.8674 13.5 11 13.5C11.1326 13.5 11.2598 13.4473 11.3536 13.3536C11.4473 13.2598 11.5 13.1326 11.5 13V11.5H13C13.1326 11.5 13.2598 11.4473 13.3536 11.3536C13.4473 11.2598 13.5 11.1326 13.5 11C13.5 10.8674 13.4473 10.7402 13.3536 10.6464C13.2598 10.5527 13.1326 10.5 13 10.5Z" fill="black"/>
</g>
<defs>
<clipPath id="clip0_5_1293">
<rect width="16" height="16" fill="white"/>
</clipPath>
</defs>
</svg>
