<svg width="16" height="16" viewBox="0 0 16 16" fill="none" xmlns="http://www.w3.org/2000/svg">
<g clip-path="url(#clip0_5_1311)">
<path d="M8 1.5C6.71442 1.5 5.45772 1.88122 4.3888 2.59545C3.31988 3.30968 2.48676 4.32484 1.99479 5.51256C1.50282 6.70028 1.37409 8.00721 1.6249 9.26809C1.8757 10.529 2.49477 11.6872 3.40381 12.5962C4.31285 13.5052 5.47104 14.1243 6.73192 14.3751C7.99279 14.6259 9.29973 14.4972 10.4874 14.0052C11.6752 13.5132 12.6903 12.6801 13.4046 11.6112C14.1188 10.5423 14.5 9.28558 14.5 8C14.4982 6.27665 13.8128 4.62441 12.5942 3.40582C11.3756 2.18722 9.72335 1.50182 8 1.5ZM2.5 8C2.50063 6.91266 2.82354 5.84991 3.42793 4.94602C4.03232 4.04214 4.89107 3.33768 5.89567 2.92166C6.90028 2.50564 8.00565 2.39672 9.07213 2.60868C10.1386 2.82064 11.1183 3.34395 11.8875 4.1125L4.1125 11.8875C3.60102 11.3776 3.19527 10.7717 2.91856 10.1046C2.64184 9.43744 2.4996 8.72224 2.5 8Z" fill="black"/>
</g>
<defs>
<clipPath id="clip0_5_1311">
<rect width="16" height="16" fill="white"/>
</clipPath>
</defs>
</svg>
