<svg width="16" height="16" viewBox="0 0 16 16" fill="none" xmlns="http://www.w3.org/2000/svg">
<g clip-path="url(#clip0_5_1010)">
<path d="M5.5 6.95687L8.5 9.95687V13.75C8.5 13.8163 8.47366 13.8799 8.42678 13.9268C8.37989 13.9737 8.3163 14 8.25 14H3C2.73478 14 2.48043 13.8946 2.29289 13.7071C2.10536 13.5196 2 13.2652 2 13V3C2 2.73478 2.10536 2.48043 2.29289 2.29289C2.48043 2.10536 2.73478 2 3 2H4.25C4.3163 2 4.37989 2.02634 4.42678 2.07322C4.47366 2.12011 4.5 2.1837 4.5 2.25V9.58625C4.16639 9.7042 3.88522 9.93629 3.70618 10.2415C3.52715 10.5467 3.46177 10.9054 3.5216 11.2541C3.58144 11.6029 3.76264 11.9192 4.03317 12.1473C4.3037 12.3754 4.64616 12.5005 5 12.5005C5.35384 12.5005 5.6963 12.3754 5.96683 12.1473C6.23736 11.9192 6.41856 11.6029 6.4784 11.2541C6.53823 10.9054 6.47285 10.5467 6.29382 10.2415C6.11478 9.93629 5.83361 9.7042 5.5 9.58625V6.95687ZM5 11.5C5.09889 11.5 5.19556 11.4707 5.27779 11.4157C5.36001 11.3608 5.4241 11.2827 5.46194 11.1913C5.49978 11.1 5.50969 10.9994 5.49039 10.9025C5.4711 10.8055 5.42348 10.7164 5.35355 10.6464C5.28363 10.5765 5.19454 10.5289 5.09755 10.5096C5.00055 10.4903 4.90002 10.5002 4.80866 10.5381C4.7173 10.5759 4.63921 10.64 4.58427 10.7222C4.52932 10.8044 4.5 10.9011 4.5 11C4.5 11.1326 4.55268 11.2598 4.64645 11.3536C4.74021 11.4473 4.86739 11.5 5 11.5ZM11.5 6.5C11.5 6.40111 11.4707 6.30444 11.4157 6.22221C11.3608 6.13999 11.2827 6.0759 11.1913 6.03806C11.1 6.00022 10.9994 5.99031 10.9025 6.00961C10.8055 6.0289 10.7164 6.07652 10.6464 6.14645C10.5765 6.21637 10.5289 6.30546 10.5096 6.40245C10.4903 6.49945 10.5002 6.59998 10.5381 6.69134C10.5759 6.7827 10.64 6.86079 10.7222 6.91573C10.8044 6.97068 10.9011 7 11 7C11.1326 7 11.2598 6.94732 11.3536 6.85355C11.4473 6.75979 11.5 6.63261 11.5 6.5ZM13 2H9.75C9.6837 2 9.62011 2.02634 9.57322 2.07322C9.52634 2.12011 9.5 2.1837 9.5 2.25V4.29313L10.3538 5.14687C10.673 4.99434 11.036 4.95959 11.3784 5.04878C11.7209 5.13797 12.0207 5.34535 12.225 5.63426C12.4294 5.92317 12.525 6.27501 12.4949 6.6276C12.4649 6.98018 12.3112 7.3108 12.061 7.56101C11.8108 7.81123 11.4802 7.96493 11.1276 7.99495C10.775 8.02496 10.4232 7.92937 10.1343 7.72505C9.84535 7.52073 9.63797 7.22085 9.54878 6.87842C9.45959 6.53598 9.49434 6.17304 9.64688 5.85375L8.64688 4.85375C8.60035 4.80733 8.56342 4.7522 8.53822 4.6915C8.51302 4.6308 8.50003 4.56572 8.5 4.5V2.25C8.5 2.1837 8.47366 2.12011 8.42678 2.07322C8.37989 2.02634 8.3163 2 8.25 2H5.75C5.6837 2 5.62011 2.02634 5.57322 2.07322C5.52634 2.12011 5.5 2.1837 5.5 2.25V5.54313L9.35375 9.39625C9.40017 9.44272 9.43697 9.49788 9.46207 9.55857C9.48716 9.61927 9.50005 9.68432 9.5 9.75V13.75C9.5 13.8163 9.52634 13.8799 9.57322 13.9268C9.62011 13.9737 9.6837 14 9.75 14H13C13.2652 14 13.5196 13.8946 13.7071 13.7071C13.8946 13.5196 14 13.2652 14 13V3C14 2.73478 13.8946 2.48043 13.7071 2.29289C13.5196 2.10536 13.2652 2 13 2Z" fill="black"/>
</g>
<defs>
<clipPath id="clip0_5_1010">
<rect width="16" height="16" fill="white"/>
</clipPath>
</defs>
</svg>
