<svg width="16" height="16" viewBox="0 0 16 16" fill="none" xmlns="http://www.w3.org/2000/svg">
<g clip-path="url(#clip0_5_1284)">
<path d="M15 13H14.5V5.5C14.5 5.36739 14.4473 5.24021 14.3536 5.14645C14.2598 5.05268 14.1326 5 14 5H10C9.86739 5 9.74021 5.05268 9.64645 5.14645C9.55268 5.24021 9.5 5.36739 9.5 5.5V8H6.5V2.5C6.5 2.36739 6.44732 2.24021 6.35355 2.14645C6.25979 2.05268 6.13261 2 6 2H2C1.86739 2 1.74021 2.05268 1.64645 2.14645C1.55268 2.24021 1.5 2.36739 1.5 2.5V13H1C0.867392 13 0.740215 13.0527 0.646447 13.1464C0.552678 13.2402 0.5 13.3674 0.5 13.5C0.5 13.6326 0.552678 13.7598 0.646447 13.8536C0.740215 13.9473 0.867392 14 1 14H15C15.1326 14 15.2598 13.9473 15.3536 13.8536C15.4473 13.7598 15.5 13.6326 15.5 13.5C15.5 13.3674 15.4473 13.2402 15.3536 13.1464C15.2598 13.0527 15.1326 13 15 13ZM4.5 11.5C4.5 11.6326 4.44732 11.7598 4.35355 11.8536C4.25979 11.9473 4.13261 12 4 12C3.86739 12 3.74021 11.9473 3.64645 11.8536C3.55268 11.7598 3.5 11.6326 3.5 11.5V10.5C3.5 10.3674 3.55268 10.2402 3.64645 10.1464C3.74021 10.0527 3.86739 10 4 10C4.13261 10 4.25979 10.0527 4.35355 10.1464C4.44732 10.2402 4.5 10.3674 4.5 10.5V11.5ZM4.5 8.5C4.5 8.63261 4.44732 8.75979 4.35355 8.85355C4.25979 8.94732 4.13261 9 4 9C3.86739 9 3.74021 8.94732 3.64645 8.85355C3.55268 8.75979 3.5 8.63261 3.5 8.5V7.5C3.5 7.36739 3.55268 7.24021 3.64645 7.14645C3.74021 7.05268 3.86739 7 4 7C4.13261 7 4.25979 7.05268 4.35355 7.14645C4.44732 7.24021 4.5 7.36739 4.5 7.5V8.5ZM4.5 5.5C4.5 5.63261 4.44732 5.75979 4.35355 5.85355C4.25979 5.94732 4.13261 6 4 6C3.86739 6 3.74021 5.94732 3.64645 5.85355C3.55268 5.75979 3.5 5.63261 3.5 5.5V4.5C3.5 4.36739 3.55268 4.24021 3.64645 4.14645C3.74021 4.05268 3.86739 4 4 4C4.13261 4 4.25979 4.05268 4.35355 4.14645C4.44732 4.24021 4.5 4.36739 4.5 4.5V5.5ZM8.5 11.5C8.5 11.6326 8.44732 11.7598 8.35355 11.8536C8.25979 11.9473 8.13261 12 8 12C7.86739 12 7.74021 11.9473 7.64645 11.8536C7.55268 11.7598 7.5 11.6326 7.5 11.5V10.5C7.5 10.3674 7.55268 10.2402 7.64645 10.1464C7.74021 10.0527 7.86739 10 8 10C8.13261 10 8.25979 10.0527 8.35355 10.1464C8.44732 10.2402 8.5 10.3674 8.5 10.5V11.5ZM12.5 11.5C12.5 11.6326 12.4473 11.7598 12.3536 11.8536C12.2598 11.9473 12.1326 12 12 12C11.8674 12 11.7402 11.9473 11.6464 11.8536C11.5527 11.7598 11.5 11.6326 11.5 11.5V10.5C11.5 10.3674 11.5527 10.2402 11.6464 10.1464C11.7402 10.0527 11.8674 10 12 10C12.1326 10 12.2598 10.0527 12.3536 10.1464C12.4473 10.2402 12.5 10.3674 12.5 10.5V11.5ZM12.5 8.5C12.5 8.63261 12.4473 8.75979 12.3536 8.85355C12.2598 8.94732 12.1326 9 12 9C11.8674 9 11.7402 8.94732 11.6464 8.85355C11.5527 8.75979 11.5 8.63261 11.5 8.5V7.5C11.5 7.36739 11.5527 7.24021 11.6464 7.14645C11.7402 7.05268 11.8674 7 12 7C12.1326 7 12.2598 7.05268 12.3536 7.14645C12.4473 7.24021 12.5 7.36739 12.5 7.5V8.5Z" fill="black"/>
</g>
<defs>
<clipPath id="clip0_5_1284">
<rect width="16" height="16" fill="white"/>
</clipPath>
</defs>
</svg>
