<svg width="16" height="16" viewBox="0 0 16 16" fill="none" xmlns="http://www.w3.org/2000/svg">
<g clip-path="url(#clip0_5_1275)">
<path d="M12.5 1.99997H10.2338C9.95281 1.68542 9.6086 1.43376 9.22367 1.26144C8.83873 1.08913 8.42174 1.00006 8 1.00006C7.57826 1.00006 7.16127 1.08913 6.77633 1.26144C6.39139 1.43376 6.04719 1.68542 5.76625 1.99997H3.5C3.23478 1.99997 2.98043 2.10533 2.79289 2.29286C2.60536 2.4804 2.5 2.73475 2.5 2.99997V13.5C2.5 13.7652 2.60536 14.0195 2.79289 14.2071C2.98043 14.3946 3.23478 14.5 3.5 14.5H12.5C12.7652 14.5 13.0196 14.3946 13.2071 14.2071C13.3946 14.0195 13.5 13.7652 13.5 13.5V2.99997C13.5 2.73475 13.3946 2.4804 13.2071 2.29286C13.0196 2.10533 12.7652 1.99997 12.5 1.99997ZM8 1.99997C8.53043 1.99997 9.03914 2.21068 9.41421 2.58576C9.78929 2.96083 10 3.46954 10 3.99997H6C6 3.46954 6.21071 2.96083 6.58579 2.58576C6.96086 2.21068 7.46957 1.99997 8 1.99997ZM10 9.99997H6C5.86739 9.99997 5.74021 9.94729 5.64645 9.85352C5.55268 9.75976 5.5 9.63258 5.5 9.49997C5.5 9.36736 5.55268 9.24018 5.64645 9.14642C5.74021 9.05265 5.86739 8.99997 6 8.99997H10C10.1326 8.99997 10.2598 9.05265 10.3536 9.14642C10.4473 9.24018 10.5 9.36736 10.5 9.49997C10.5 9.63258 10.4473 9.75976 10.3536 9.85352C10.2598 9.94729 10.1326 9.99997 10 9.99997ZM10 7.99997H6C5.86739 7.99997 5.74021 7.94729 5.64645 7.85352C5.55268 7.75976 5.5 7.63258 5.5 7.49997C5.5 7.36736 5.55268 7.24019 5.64645 7.14642C5.74021 7.05265 5.86739 6.99997 6 6.99997H10C10.1326 6.99997 10.2598 7.05265 10.3536 7.14642C10.4473 7.24019 10.5 7.36736 10.5 7.49997C10.5 7.63258 10.4473 7.75976 10.3536 7.85352C10.2598 7.94729 10.1326 7.99997 10 7.99997Z" fill="black"/>
</g>
<defs>
<clipPath id="clip0_5_1275">
<rect width="16" height="16" fill="white"/>
</clipPath>
</defs>
</svg>
