<svg width="16" height="16" viewBox="0 0 16 16" fill="none" xmlns="http://www.w3.org/2000/svg">
<g clip-path="url(#clip0_5_1283)">
<path d="M12.5 1.99997H10.2338C9.95281 1.68542 9.6086 1.43376 9.22367 1.26144C8.83873 1.08913 8.42174 1.00006 8 1.00006C7.57826 1.00006 7.16127 1.08913 6.77633 1.26144C6.39139 1.43376 6.04719 1.68542 5.76625 1.99997H3.5C3.23478 1.99997 2.98043 2.10533 2.79289 2.29286C2.60536 2.4804 2.5 2.73475 2.5 2.99997V13.5C2.5 13.7652 2.60536 14.0195 2.79289 14.2071C2.98043 14.3946 3.23478 14.5 3.5 14.5H12.5C12.7652 14.5 13.0196 14.3946 13.2071 14.2071C13.3946 14.0195 13.5 13.7652 13.5 13.5V2.99997C13.5 2.73475 13.3946 2.4804 13.2071 2.29286C13.0196 2.10533 12.7652 1.99997 12.5 1.99997ZM8 1.99997C8.53043 1.99997 9.03914 2.21068 9.41421 2.58576C9.78929 2.96083 10 3.46954 10 3.99997H6C6 3.46954 6.21071 2.96083 6.58579 2.58576C6.96086 2.21068 7.46957 1.99997 8 1.99997Z" fill="black"/>
</g>
<defs>
<clipPath id="clip0_5_1283">
<rect width="16" height="16" fill="white"/>
</clipPath>
</defs>
</svg>
