<svg width="16" height="16" viewBox="0 0 16 16" fill="none" xmlns="http://www.w3.org/2000/svg">
<g clip-path="url(#clip0_5_1134)">
<path d="M8.49998 4.99997V7.71685L10.7575 9.07122C10.8712 9.13952 10.9531 9.25018 10.9852 9.37888C11.0173 9.50758 10.997 9.64376 10.9287 9.75747C10.8604 9.87118 10.7498 9.95311 10.6211 9.98522C10.4924 10.0173 10.3562 9.99702 10.2425 9.92872L7.74248 8.42872C7.66849 8.38427 7.60726 8.32142 7.56477 8.24628C7.52227 8.17115 7.49995 8.08629 7.49998 7.99997V4.99997C7.49998 4.86736 7.55266 4.74019 7.64643 4.64642C7.74019 4.55265 7.86737 4.49997 7.99998 4.49997C8.13259 4.49997 8.25976 4.55265 8.35353 4.64642C8.4473 4.74019 8.49998 4.86736 8.49998 4.99997ZM14.1912 3.5381C14.0999 3.5002 13.9993 3.49024 13.9023 3.50949C13.8053 3.52874 13.7162 3.57632 13.6462 3.64622L12.875 4.41935C12.6731 4.19997 12.465 3.98185 12.2437 3.75747C11.4099 2.92354 10.3488 2.35382 9.193 2.11951C8.03721 1.88519 6.83801 1.99667 5.74522 2.44001C4.65243 2.88336 3.71452 3.6389 3.04869 4.61225C2.38285 5.58559 2.01861 6.73357 2.00149 7.91274C1.98436 9.09191 2.3151 10.25 2.95239 11.2423C3.58968 12.2345 4.50525 13.017 5.5847 13.4919C6.66415 13.9668 7.85961 14.113 9.02171 13.9124C10.1838 13.7117 11.261 13.1731 12.1187 12.3637C12.1665 12.3186 12.2049 12.2645 12.2318 12.2045C12.2586 12.1445 12.2734 12.0798 12.2753 12.0141C12.2771 11.9484 12.266 11.883 12.2426 11.8216C12.2192 11.7602 12.1839 11.704 12.1387 11.6562C12.0936 11.6085 12.0395 11.57 11.9795 11.5432C11.9195 11.5163 11.8548 11.5016 11.7891 11.4997C11.7234 11.4978 11.658 11.5089 11.5966 11.5324C11.5352 11.5558 11.479 11.5911 11.4312 11.6362C10.7165 12.3106 9.81897 12.7594 8.85067 12.9267C7.88237 13.0939 6.88626 12.9721 5.98678 12.5765C5.0873 12.1809 4.32433 11.529 3.79318 10.7023C3.26203 9.87557 2.98625 8.91069 3.00028 7.92815C3.01432 6.94562 3.31756 5.989 3.87212 5.17781C4.42667 4.36661 5.20796 3.7368 6.11837 3.36706C7.02879 2.99731 8.02797 2.90402 8.99109 3.09884C9.95422 3.29366 10.8386 3.76796 11.5337 4.46247C11.755 4.68622 11.9631 4.90622 12.1656 5.12685L11.1462 6.14622C11.0762 6.21615 11.0285 6.30528 11.0092 6.40232C10.9899 6.49936 10.9998 6.59996 11.0377 6.69137C11.0755 6.78278 11.1397 6.8609 11.222 6.91583C11.3043 6.97077 11.401 7.00005 11.5 6.99997H14C14.1326 6.99997 14.2598 6.94729 14.3535 6.85353C14.4473 6.75976 14.5 6.63258 14.5 6.49997V3.99997C14.5 3.90108 14.4706 3.80442 14.4157 3.72221C14.3607 3.63999 14.2826 3.57592 14.1912 3.5381Z" fill="black"/>
</g>
<defs>
<clipPath id="clip0_5_1134">
<rect width="16" height="16" fill="white"/>
</clipPath>
</defs>
</svg>
