<svg width="16" height="16" viewBox="0 0 16 16" fill="none" xmlns="http://www.w3.org/2000/svg">
<g clip-path="url(#clip0_5_1007)">
<path d="M8 1.5C6.71442 1.5 5.45772 1.88122 4.3888 2.59545C3.31988 3.30968 2.48676 4.32484 1.99479 5.51256C1.50282 6.70028 1.37409 8.00721 1.6249 9.26809C1.8757 10.529 2.49477 11.6872 3.40381 12.5962C4.31285 13.5052 5.47104 14.1243 6.73192 14.3751C7.99279 14.6259 9.29973 14.4972 10.4874 14.0052C11.6752 13.5132 12.6903 12.6801 13.4046 11.6112C14.1188 10.5423 14.5 9.28558 14.5 8C14.4982 6.27665 13.8128 4.62441 12.5942 3.40582C11.3756 2.18722 9.72335 1.50182 8 1.5ZM11.5 8.5H9.20688L10.8538 10.1462C10.9002 10.1927 10.9371 10.2479 10.9622 10.3086C10.9873 10.3692 11.0003 10.4343 11.0003 10.5C11.0003 10.5657 10.9873 10.6308 10.9622 10.6914C10.9371 10.7521 10.9002 10.8073 10.8538 10.8538C10.8073 10.9002 10.7521 10.9371 10.6915 10.9622C10.6308 10.9873 10.5657 11.0003 10.5 11.0003C10.4343 11.0003 10.3693 10.9873 10.3086 10.9622C10.2479 10.9371 10.1927 10.9002 10.1463 10.8538L7.64625 8.35375C7.57625 8.28382 7.52856 8.1947 7.50924 8.09765C7.48991 8.00061 7.49982 7.90002 7.53769 7.8086C7.57557 7.71719 7.63972 7.63908 7.72201 7.58414C7.80431 7.5292 7.90105 7.49992 8 7.5H11.5C11.6326 7.5 11.7598 7.55268 11.8536 7.64645C11.9473 7.74021 12 7.86739 12 8C12 8.13261 11.9473 8.25979 11.8536 8.35355C11.7598 8.44732 11.6326 8.5 11.5 8.5Z" fill="black"/>
</g>
<defs>
<clipPath id="clip0_5_1007">
<rect width="16" height="16" fill="white"/>
</clipPath>
</defs>
</svg>
