<svg width="16" height="16" viewBox="0 0 16 16" fill="none" xmlns="http://www.w3.org/2000/svg">
<g clip-path="url(#clip0_5_1004)">
<path d="M14.5 8.54124C14.3937 9.77622 13.937 10.9552 13.1835 11.9394C12.43 12.9236 11.4111 13.6722 10.2466 14.097C9.0821 14.5218 7.82051 14.6052 6.61025 14.3373C5.39999 14.0695 4.29141 13.4615 3.41492 12.585C2.53843 11.7086 1.9305 10.6 1.66265 9.38971C1.39481 8.17945 1.47819 6.91786 1.90299 5.75338C2.32779 4.5889 3.07634 3.56997 4.06056 2.81646C5.04478 2.06295 6.22374 1.60622 7.45872 1.49999C7.52438 1.49457 7.59047 1.50214 7.6532 1.52226C7.71594 1.54239 7.7741 1.57467 7.82436 1.61727C7.87462 1.65987 7.91599 1.71195 7.94613 1.77054C7.97626 1.82913 7.99455 1.89308 7.99997 1.95874C8.00539 2.0244 7.99782 2.09049 7.9777 2.15322C7.95757 2.21596 7.92529 2.27412 7.88269 2.32437C7.84009 2.37463 7.78801 2.41601 7.72942 2.44614C7.67083 2.47628 7.60688 2.49457 7.54122 2.49999C6.49596 2.5898 5.4981 2.97628 4.66504 3.61397C3.83198 4.25165 3.19838 5.11401 2.8388 6.09957C2.47922 7.08513 2.4086 8.15289 2.63527 9.17722C2.86194 10.2016 3.37647 11.1398 4.1183 11.8817C4.86013 12.6235 5.79841 13.138 6.82274 13.3647C7.84707 13.5914 8.91483 13.5207 9.90039 13.1612C10.886 12.8016 11.7483 12.168 12.386 11.3349C13.0237 10.5019 13.4102 9.504 13.5 8.45874C13.5109 8.32613 13.5741 8.2033 13.6756 8.11727C13.7771 8.03124 13.9086 7.98905 14.0412 7.99999C14.1738 8.01093 14.2967 8.0741 14.3827 8.1756C14.4687 8.27711 14.5109 8.40863 14.5 8.54124ZM9.99997 2.99999C10.1483 2.99999 10.2933 2.956 10.4166 2.87359C10.54 2.79118 10.6361 2.67405 10.6929 2.537C10.7496 2.39996 10.7645 2.24916 10.7356 2.10367C10.7066 1.95819 10.6352 1.82455 10.5303 1.71966C10.4254 1.61477 10.2918 1.54334 10.1463 1.5144C10.0008 1.48546 9.85 1.50031 9.71296 1.55708C9.57591 1.61385 9.45878 1.70998 9.37637 1.83331C9.29396 1.95665 9.24997 2.10165 9.24997 2.24999C9.24997 2.4489 9.32899 2.63967 9.46964 2.78032C9.61029 2.92097 9.80106 2.99999 9.99997 2.99999ZM12.25 4.49999C12.3983 4.49999 12.5433 4.456 12.6666 4.37359C12.79 4.29118 12.8861 4.17405 12.9429 4.037C12.9996 3.89996 13.0145 3.74916 12.9856 3.60367C12.9566 3.45819 12.8852 3.32455 12.7803 3.21966C12.6754 3.11477 12.5418 3.04334 12.3963 3.0144C12.2508 2.98546 12.1 3.00031 11.963 3.05708C11.8259 3.11385 11.7088 3.20998 11.6264 3.33331C11.544 3.45665 11.5 3.60165 11.5 3.74999C11.5 3.9489 11.579 4.13967 11.7196 4.28032C11.8603 4.42097 12.0511 4.49999 12.25 4.49999ZM13.75 6.74999C13.8983 6.74999 14.0433 6.706 14.1666 6.62359C14.29 6.54118 14.3861 6.42405 14.4429 6.287C14.4996 6.14996 14.5145 5.99916 14.4856 5.85367C14.4566 5.70819 14.3852 5.57455 14.2803 5.46966C14.1754 5.36477 14.0418 5.29334 13.8963 5.2644C13.7508 5.23546 13.6 5.25031 13.463 5.30708C13.3259 5.36385 13.2088 5.45998 13.1264 5.58331C13.044 5.70665 13 5.85165 13 5.99999C13 6.1989 13.079 6.38967 13.2196 6.53032C13.3603 6.67097 13.5511 6.74999 13.75 6.74999ZM7.99997 3.49999C8.88999 3.49999 9.76002 3.76391 10.5 4.25838C11.2401 4.75284 11.8168 5.45565 12.1574 6.27791C12.498 7.10018 12.5871 8.00498 12.4135 8.8779C12.2399 9.75081 11.8113 10.5526 11.182 11.182C10.5526 11.8113 9.75079 12.2399 8.87788 12.4135C8.00496 12.5872 7.10016 12.498 6.2779 12.1574C5.45563 11.8169 4.75282 11.2401 4.25836 10.5001C3.76389 9.76003 3.49997 8.89001 3.49997 7.99999C3.50129 6.80692 3.97583 5.6631 4.81945 4.81947C5.66308 3.97584 6.8069 3.50131 7.99997 3.49999ZM7.49997 7.99999C7.49997 8.1326 7.55265 8.25978 7.64642 8.35354C7.74019 8.44731 7.86736 8.49999 7.99997 8.49999H11C11.1326 8.49999 11.2598 8.44731 11.3535 8.35354C11.4473 8.25978 11.5 8.1326 11.5 7.99999C11.5 7.86738 11.4473 7.7402 11.3535 7.64644C11.2598 7.55267 11.1326 7.49999 11 7.49999H8.49997V4.99999C8.49997 4.86738 8.44729 4.7402 8.35353 4.64644C8.25976 4.55267 8.13258 4.49999 7.99997 4.49999C7.86736 4.49999 7.74019 4.55267 7.64642 4.64644C7.55265 4.7402 7.49997 4.86738 7.49997 4.99999V7.99999Z" fill="black"/>
</g>
<defs>
<clipPath id="clip0_5_1004">
<rect width="16" height="16" fill="white"/>
</clipPath>
</defs>
</svg>
