<svg width="16" height="16" viewBox="0 0 16 16" fill="none" xmlns="http://www.w3.org/2000/svg">
<g clip-path="url(#clip0_5_1076)">
<path d="M8.5 4.5V7.19125L10.7763 6.0525C10.835 6.02312 10.899 6.0056 10.9645 6.00094C11.0301 5.99628 11.0959 6.00458 11.1582 6.02536C11.2205 6.04613 11.2782 6.07899 11.3278 6.12203C11.3774 6.16508 11.4181 6.21749 11.4475 6.27625C11.4769 6.33502 11.4944 6.399 11.4991 6.46454C11.5037 6.53007 11.4954 6.59589 11.4746 6.65822C11.4539 6.72055 11.421 6.77818 11.378 6.82781C11.3349 6.87745 11.2825 6.91812 11.2238 6.9475L8.22375 8.4475C8.1475 8.48566 8.06275 8.50368 7.97756 8.49986C7.89237 8.49603 7.80958 8.47048 7.73705 8.42563C7.66453 8.38079 7.60467 8.31814 7.56318 8.24364C7.52169 8.16915 7.49994 8.08528 7.5 8V4.5C7.5 4.36739 7.55268 4.24022 7.64645 4.14645C7.74022 4.05268 7.86739 4 8 4C8.13261 4 8.25979 4.05268 8.35356 4.14645C8.44732 4.24022 8.5 4.36739 8.5 4.5ZM8 13.5C6.91221 13.5 5.84884 13.1774 4.94437 12.5731C4.0399 11.9687 3.33495 11.1098 2.91867 10.1048C2.50238 9.09977 2.39347 7.9939 2.60568 6.92701C2.8179 5.86011 3.34173 4.8801 4.11092 4.11092C4.8801 3.34173 5.86011 2.8179 6.92701 2.60568C7.9939 2.39347 9.09977 2.50238 10.1048 2.91867C11.1098 3.33495 11.9687 4.0399 12.5731 4.94437C13.1774 5.84884 13.5 6.91221 13.5 8C13.5 8.13261 13.5527 8.25979 13.6464 8.35356C13.7402 8.44732 13.8674 8.5 14 8.5C14.1326 8.5 14.2598 8.44732 14.3536 8.35356C14.4473 8.25979 14.5 8.13261 14.5 8C14.5 6.71442 14.1188 5.45772 13.4046 4.3888C12.6903 3.31988 11.6752 2.48676 10.4874 1.99479C9.29973 1.50282 7.99279 1.37409 6.73192 1.6249C5.47104 1.8757 4.31285 2.49477 3.40381 3.40381C2.49477 4.31285 1.8757 5.47104 1.6249 6.73192C1.37409 7.99279 1.50282 9.29973 1.99479 10.4874C2.48676 11.6752 3.31988 12.6903 4.3888 13.4046C5.45772 14.1188 6.71442 14.5 8 14.5C8.13261 14.5 8.25979 14.4473 8.35356 14.3536C8.44732 14.2598 8.5 14.1326 8.5 14C8.5 13.8674 8.44732 13.7402 8.35356 13.6464C8.25979 13.5527 8.13261 13.5 8 13.5ZM13.4138 12.4138C13.6936 12.1341 13.8842 11.7777 13.9615 11.3897C14.0388 11.0017 13.9992 10.5995 13.8479 10.234C13.6966 9.86848 13.4402 9.55605 13.1113 9.33623C12.7824 9.11641 12.3956 8.99908 12 8.99908C11.6044 8.99908 11.2177 9.11641 10.8887 9.33623C10.5598 9.55605 10.3035 9.86848 10.1521 10.234C10.0008 10.5995 9.96125 11.0017 10.0385 11.3897C10.1158 11.7777 10.3064 12.1341 10.5863 12.4138C10.0597 12.7501 9.67822 13.2714 9.51688 13.875C9.49782 13.9488 9.49589 14.026 9.51124 14.1007C9.52658 14.1753 9.55879 14.2455 9.60541 14.3058C9.65203 14.3661 9.71182 14.415 9.78021 14.4486C9.8486 14.4823 9.92378 14.4999 10 14.5H14C14.0766 14.5 14.1522 14.4824 14.221 14.4485C14.2897 14.4146 14.3498 14.3654 14.3965 14.3046C14.4432 14.2439 14.4753 14.1732 14.4903 14.098C14.5053 14.0229 14.5029 13.9453 14.4831 13.8713C14.3209 13.269 13.9395 12.7492 13.4138 12.4138Z" fill="black"/>
</g>
<defs>
<clipPath id="clip0_5_1076">
<rect width="16" height="16" fill="white"/>
</clipPath>
</defs>
</svg>
