<svg width="16" height="16" viewBox="0 0 16 16" fill="none" xmlns="http://www.w3.org/2000/svg">
<g clip-path="url(#clip0_5_1538)">
<path d="M14 3H2C1.73478 3 1.48043 3.10536 1.29289 3.29289C1.10536 3.48043 1 3.73478 1 4V12C1 12.2652 1.10536 12.5196 1.29289 12.7071C1.48043 12.8946 1.73478 13 2 13H14C14.2652 13 14.5196 12.8946 14.7071 12.7071C14.8946 12.5196 15 12.2652 15 12V4C15 3.73478 14.8946 3.48043 14.7071 3.29289C14.5196 3.10536 14.2652 3 14 3ZM7.25 10.165C6.86995 10.3844 6.43884 10.5 5.99999 10.5C5.56113 10.5 5.13001 10.3845 4.74995 10.1651C4.36988 9.94568 4.05427 9.63008 3.83484 9.25003C3.61541 8.86997 3.49989 8.43885 3.49989 8C3.49989 7.56115 3.61541 7.13003 3.83484 6.74997C4.05427 6.36992 4.36988 6.05432 4.74995 5.8349C5.13001 5.61549 5.56113 5.49998 5.99999 5.5C6.43884 5.50002 6.86995 5.61555 7.25 5.835C7.30868 5.86686 7.36038 5.91015 7.40205 5.96232C7.44373 6.01449 7.47453 6.07447 7.49264 6.13874C7.51076 6.203 7.51582 6.27024 7.50753 6.33649C7.49924 6.40275 7.47776 6.46667 7.44436 6.52448C7.41097 6.5823 7.36633 6.63284 7.31308 6.67313C7.25984 6.71342 7.19906 6.74263 7.13434 6.75905C7.06962 6.77547 7.00227 6.77875 6.93626 6.76872C6.87025 6.75869 6.80692 6.73553 6.75 6.70062C6.52196 6.5691 6.26333 6.49991 6.00008 6.5C5.73683 6.50009 5.47824 6.56946 5.25029 6.70113C5.02234 6.83281 4.83306 7.02215 4.70146 7.25015C4.56986 7.47814 4.50058 7.73675 4.50058 8C4.50058 8.26325 4.56986 8.52186 4.70146 8.74985C4.83306 8.97785 5.02234 9.16719 5.25029 9.29887C5.47824 9.43054 5.73683 9.49991 6.00008 9.5C6.26333 9.50009 6.52196 9.4309 6.75 9.29937C6.86453 9.23718 6.99882 9.22217 7.12426 9.25753C7.2497 9.29289 7.35638 9.37583 7.42156 9.48869C7.48675 9.60154 7.50529 9.73539 7.47325 9.86171C7.4412 9.98804 7.3611 10.0969 7.25 10.165ZM12.25 10.165C11.87 10.3844 11.4388 10.5 11 10.5C10.5611 10.5 10.13 10.3845 9.74994 10.1651C9.36988 9.94568 9.05427 9.63008 8.83484 9.25003C8.61541 8.86997 8.49989 8.43885 8.49989 8C8.49989 7.56115 8.61541 7.13003 8.83484 6.74997C9.05427 6.36992 9.36988 6.05432 9.74994 5.8349C10.13 5.61549 10.5611 5.49998 11 5.5C11.4388 5.50002 11.87 5.61555 12.25 5.835C12.3087 5.86686 12.3604 5.91015 12.4021 5.96232C12.4437 6.01449 12.4745 6.07447 12.4926 6.13874C12.5108 6.203 12.5158 6.27024 12.5075 6.33649C12.4992 6.40275 12.4778 6.46667 12.4444 6.52448C12.411 6.5823 12.3663 6.63284 12.3131 6.67313C12.2598 6.71342 12.1991 6.74263 12.1343 6.75905C12.0696 6.77547 12.0023 6.77875 11.9363 6.76872C11.8703 6.75869 11.8069 6.73553 11.75 6.70062C11.522 6.5691 11.2633 6.49991 11.0001 6.5C10.7368 6.50009 10.4782 6.56946 10.2503 6.70113C10.0223 6.83281 9.83306 7.02215 9.70146 7.25015C9.56986 7.47814 9.50058 7.73675 9.50058 8C9.50058 8.26325 9.56986 8.52186 9.70146 8.74985C9.83306 8.97785 10.0223 9.16719 10.2503 9.29887C10.4782 9.43054 10.7368 9.49991 11.0001 9.5C11.2633 9.50009 11.522 9.4309 11.75 9.29937C11.8645 9.23718 11.9988 9.22217 12.1243 9.25753C12.2497 9.29289 12.3564 9.37583 12.4216 9.48869C12.4867 9.60154 12.5053 9.73539 12.4732 9.86171C12.4412 9.98804 12.3611 10.0969 12.25 10.165Z" fill="black"/>
</g>
<defs>
<clipPath id="clip0_5_1538">
<rect width="16" height="16" fill="white"/>
</clipPath>
</defs>
</svg>
