<svg width="16" height="16" viewBox="0 0 16 16" fill="none" xmlns="http://www.w3.org/2000/svg">
<g clip-path="url(#clip0_5_1017)">
<path d="M10.25 4.50001C9.82213 4.49975 9.39622 4.55714 8.98371 4.67063C8.82088 4.40495 8.62307 4.16236 8.39559 3.94938L8.98996 3.10126C9.02764 3.04746 9.05434 2.98676 9.06856 2.92264C9.08278 2.85852 9.08422 2.79222 9.07282 2.72754C9.06142 2.66286 9.03738 2.60106 9.0021 2.54566C8.96681 2.49027 8.92095 2.44237 8.86715 2.40469C8.81335 2.36702 8.75266 2.34031 8.68853 2.3261C8.62441 2.31188 8.55812 2.31043 8.49344 2.32184C8.42875 2.33324 8.36695 2.35727 8.31156 2.39256C8.25616 2.42785 8.20826 2.47371 8.17059 2.52751L7.57621 3.37501C7.08744 3.12822 6.54751 2.99976 5.99996 3.00001C5.96309 3.00001 5.92746 3.00001 5.89121 3.00001L5.71059 1.98188C5.70111 1.91554 5.67839 1.85178 5.64378 1.7944C5.60917 1.73701 5.56338 1.68717 5.50913 1.64783C5.45488 1.60849 5.39327 1.58046 5.32797 1.5654C5.26267 1.55034 5.19501 1.54856 5.12901 1.56017C5.06301 1.57178 5.00001 1.59654 4.94377 1.63297C4.88753 1.66941 4.83918 1.71677 4.80161 1.77226C4.76403 1.82775 4.738 1.89023 4.72504 1.95598C4.71209 2.02173 4.71249 2.08941 4.72621 2.15501L4.90621 3.17626C4.35169 3.35967 3.85176 3.6787 3.45184 4.10438L2.60059 3.50876C2.54683 3.47016 2.48594 3.44262 2.42146 3.42773C2.35698 3.41284 2.29018 3.4109 2.22494 3.42202C2.1597 3.43314 2.09732 3.4571 2.04141 3.49252C1.9855 3.52793 1.93718 3.57409 1.89925 3.62832C1.86132 3.68255 1.83453 3.74377 1.82044 3.80844C1.80634 3.8731 1.80523 3.93992 1.81716 4.00501C1.82908 4.07011 1.85381 4.13219 1.88991 4.18766C1.92602 4.24312 1.97277 4.29087 2.02746 4.32813L2.87496 4.92313C2.6273 5.41181 2.4988 5.95216 2.49996 6.50001C2.49996 6.53563 2.49996 6.57188 2.49996 6.60751L1.48184 6.78751C1.35861 6.80909 1.24794 6.8761 1.1717 6.97529C1.09545 7.07448 1.05916 7.19865 1.06999 7.32329C1.08083 7.44793 1.13799 7.56399 1.2302 7.64854C1.32242 7.73309 1.44298 7.78 1.56809 7.78001C1.59721 7.77997 1.62627 7.77746 1.65496 7.77251L2.67496 7.59251C2.76458 7.86536 2.8876 8.12609 3.04121 8.36876C2.56296 8.81298 2.22955 9.39093 2.0844 10.0273C1.93926 10.6637 1.9891 11.3291 2.22745 11.9367C2.46579 12.5444 2.88159 13.0662 3.4207 13.4342C3.9598 13.8022 4.59723 13.9994 5.24996 14H10.25C11.5097 14 12.7179 13.4996 13.6087 12.6088C14.4995 11.718 15 10.5098 15 9.25001C15 7.99023 14.4995 6.78205 13.6087 5.89125C12.7179 5.00045 11.5097 4.50001 10.25 4.50001ZM5.80746 7.54751C5.15018 7.43405 4.47391 7.52502 3.86996 7.80813C3.53577 7.25614 3.42795 6.59631 3.56906 5.96666C3.71017 5.33701 4.08927 4.7863 4.62708 4.42973C5.16488 4.07316 5.81973 3.93834 6.45464 4.05348C7.08956 4.16862 7.65536 4.5248 8.03371 5.04751C7.01377 5.58426 6.22287 6.47241 5.80746 7.54751Z" fill="black"/>
</g>
<defs>
<clipPath id="clip0_5_1017">
<rect width="16" height="16" fill="white"/>
</clipPath>
</defs>
</svg>
