<svg width="16" height="16" viewBox="0 0 16 16" fill="none" xmlns="http://www.w3.org/2000/svg">
<g clip-path="url(#clip0_5_674)">
<path d="M15.4956 7.7825C15.3819 4.84625 12.9419 2.5 10.0037 2.5C8.98168 2.50016 7.97983 2.78479 7.11034 3.32202C6.24086 3.85925 5.53806 4.62789 5.08063 5.54187C4.70044 6.29961 4.50166 7.13537 4.5 7.98313C4.50196 8.11194 4.45521 8.23674 4.36912 8.33258C4.28302 8.42841 4.16391 8.4882 4.03562 8.5C3.96703 8.5049 3.89816 8.4956 3.83333 8.47267C3.76849 8.44975 3.70908 8.4137 3.65881 8.36677C3.60854 8.31984 3.56849 8.26305 3.54116 8.19994C3.51384 8.13684 3.49983 8.06877 3.5 8C3.49947 7.30065 3.61218 6.60582 3.83375 5.9425C3.84835 5.89997 3.8512 5.85429 3.84202 5.81027C3.83283 5.76625 3.81194 5.72552 3.78155 5.69238C3.75116 5.65923 3.71239 5.6349 3.66933 5.62194C3.62627 5.60899 3.58051 5.60788 3.53688 5.61875C2.67051 5.83469 1.90114 6.33389 1.35092 7.03708C0.800715 7.74027 0.501218 8.60713 0.5 9.5C0.5 11.6994 2.35938 13.5 4.5625 13.5H10C10.7403 13.4992 11.4729 13.3491 12.1539 13.0587C12.8349 12.7682 13.4504 12.3434 13.9634 11.8097C14.4764 11.2759 14.8766 10.6442 15.1398 9.9522C15.4031 9.26024 15.5241 8.5223 15.4956 7.7825ZM12.3538 7.35375L9.35375 10.3538C9.30731 10.4002 9.25217 10.4371 9.19147 10.4623C9.13077 10.4874 9.06571 10.5004 9 10.5004C8.93429 10.5004 8.86923 10.4874 8.80853 10.4623C8.74783 10.4371 8.69269 10.4002 8.64625 10.3538L7.14625 8.85375C7.05243 8.75993 6.99972 8.63268 6.99972 8.5C6.99972 8.36732 7.05243 8.24007 7.14625 8.14625C7.24007 8.05243 7.36732 7.99972 7.5 7.99972C7.63268 7.99972 7.75993 8.05243 7.85375 8.14625L9 9.29313L11.6462 6.64625C11.6927 6.59979 11.7479 6.56294 11.8086 6.5378C11.8692 6.51266 11.9343 6.49972 12 6.49972C12.0657 6.49972 12.1308 6.51266 12.1914 6.5378C12.2521 6.56294 12.3073 6.59979 12.3538 6.64625C12.4002 6.6927 12.4371 6.74786 12.4622 6.80855C12.4873 6.86925 12.5003 6.9343 12.5003 7C12.5003 7.0657 12.4873 7.13075 12.4622 7.19145C12.4371 7.25214 12.4002 7.3073 12.3538 7.35375Z" fill="black"/>
</g>
<defs>
<clipPath id="clip0_5_674">
<rect width="16" height="16" fill="white"/>
</clipPath>
</defs>
</svg>
