<svg width="16" height="16" viewBox="0 0 16 16" fill="none" xmlns="http://www.w3.org/2000/svg">
<g clip-path="url(#clip0_5_1466)">
<path d="M10.5001 14.5C10.5001 14.6326 10.4474 14.7598 10.3536 14.8536C10.2598 14.9473 10.1327 15 10.0001 15H6.50006C6.36745 15 6.24027 14.9473 6.1465 14.8536C6.05273 14.7598 6.00006 14.6326 6.00006 14.5C6.00006 14.3674 6.05273 14.2402 6.1465 14.1465C6.24027 14.0527 6.36745 14 6.50006 14H10.0001C10.1327 14 10.2598 14.0527 10.3536 14.1465C10.4474 14.2402 10.5001 14.3674 10.5001 14.5ZM8.00006 12.5C8.00006 12.3674 7.94738 12.2402 7.85361 12.1465C7.75984 12.0527 7.63266 12 7.50006 12H4.50006C4.36745 12 4.24027 12.0527 4.1465 12.1465C4.05273 12.2402 4.00006 12.3674 4.00006 12.5C4.00006 12.6326 4.05273 12.7598 4.1465 12.8536C4.24027 12.9473 4.36745 13 4.50006 13H7.50006C7.63266 13 7.75984 12.9473 7.85361 12.8536C7.94738 12.7598 8.00006 12.6326 8.00006 12.5ZM11.5001 12H10.0001C9.86745 12 9.74027 12.0527 9.6465 12.1465C9.55273 12.2402 9.50006 12.3674 9.50006 12.5C9.50006 12.6326 9.55273 12.7598 9.6465 12.8536C9.74027 12.9473 9.86745 13 10.0001 13H11.5001C11.6327 13 11.7598 12.9473 11.8536 12.8536C11.9474 12.7598 12.0001 12.6326 12.0001 12.5C12.0001 12.3674 11.9474 12.2402 11.8536 12.1465C11.7598 12.0527 11.6327 12 11.5001 12ZM14.4919 5.97189C14.421 4.75823 13.8874 3.61798 13.001 2.78592C12.1146 1.95387 10.9429 1.49335 9.72718 1.4992C8.51147 1.50505 7.34427 1.97681 6.46593 2.81736C5.58759 3.6579 5.06497 4.80323 5.00568 6.01751C4.99839 6.14709 4.94209 6.26905 4.84819 6.35865C4.75429 6.44825 4.62984 6.49879 4.50006 6.50001H4.46256C4.33056 6.48822 4.20838 6.42539 4.12201 6.32489C4.03563 6.22439 3.99188 6.09415 4.00006 5.96189C4.01743 5.61424 4.06617 5.26888 4.14568 4.93001C4.15594 4.88746 4.15485 4.84296 4.14251 4.80097C4.13018 4.75898 4.10704 4.72095 4.0754 4.69071C4.04376 4.66046 4.00474 4.63906 3.96223 4.62862C3.91973 4.61819 3.87523 4.6191 3.83318 4.63126C3.15636 4.83122 2.56285 5.2457 2.14204 5.81226C1.72124 6.37882 1.49593 7.06678 1.50006 7.77251C1.51256 9.56689 3.00756 11 4.80256 11H9.75006C10.397 10.9993 11.0371 10.8665 11.631 10.6099C12.2249 10.3532 12.7602 9.97809 13.2041 9.5074C13.648 9.0367 13.9912 8.48037 14.2126 7.87245C14.434 7.26453 14.5291 6.61781 14.4919 5.97189Z" fill="black"/>
</g>
<defs>
<clipPath id="clip0_5_1466">
<rect width="16" height="16" fill="white"/>
</clipPath>
</defs>
</svg>
