<svg width="16" height="16" viewBox="0 0 16 16" fill="none" xmlns="http://www.w3.org/2000/svg">
<g clip-path="url(#clip0_5_670)">
<path d="M10.7501 4.5C10.4913 4.49986 10.2329 4.52076 9.97755 4.5625C9.88672 3.62398 9.50309 2.73777 8.88093 2.02925C8.25878 1.32073 7.42959 0.825764 6.51068 0.614379C6.42815 0.59542 6.34216 0.597729 6.26077 0.621092C6.17939 0.644454 6.10526 0.688103 6.04536 0.747947C5.98545 0.80779 5.94172 0.881868 5.91828 0.963232C5.89483 1.0446 5.89243 1.13058 5.9113 1.21313C6.02907 1.72617 6.02971 2.25915 5.91317 2.77247C5.79662 3.28579 5.5659 3.76625 5.23814 4.17814C4.91038 4.59003 4.49402 4.92277 4.01998 5.15161C3.54595 5.38046 3.02644 5.49954 2.50005 5.5C2.23526 5.50004 1.97131 5.47027 1.71318 5.41125C1.63059 5.39225 1.54453 5.39456 1.46307 5.41795C1.38162 5.44134 1.30745 5.48505 1.24752 5.54497C1.1876 5.6049 1.14389 5.67907 1.1205 5.76052C1.09711 5.84198 1.0948 5.92804 1.1138 6.01063C1.24813 6.58984 1.49556 7.1368 1.84189 7.6201C2.18823 8.1034 2.62663 8.51351 3.13193 8.82688C2.77655 9.31102 2.56228 9.88416 2.51288 10.4827C2.46348 11.0812 2.5809 11.6817 2.85209 12.2176C3.12329 12.7534 3.53765 13.2037 4.04921 13.5183C4.56076 13.8329 5.14949 13.9997 5.75005 14H10.7501C12.0098 14 13.218 13.4996 14.1088 12.6088C14.9996 11.718 15.5001 10.5098 15.5001 9.25C15.5001 7.99023 14.9996 6.78204 14.1088 5.89125C13.218 5.00045 12.0098 4.5 10.7501 4.5ZM2.33568 6.5C2.39005 6.5 2.44505 6.5 2.50005 6.5C3.69312 6.49868 4.83695 6.02415 5.68057 5.18052C6.5242 4.3369 6.99873 3.19307 7.00005 2C7.00005 1.94438 7.00005 1.88875 7.00005 1.83313C7.57623 2.10287 8.06737 2.5255 8.42002 3.05501C8.77266 3.58452 8.97328 4.20063 9.00005 4.83625C8.38958 5.07916 7.8358 5.44544 7.37337 5.91217C6.91093 6.37891 6.5498 6.93605 6.31255 7.54875C6.12681 7.51634 5.93861 7.50003 5.75005 7.5C5.07792 7.49988 4.42249 7.7094 3.87505 8.09938C3.20258 7.7466 2.6625 7.18547 2.33568 6.5Z" fill="black"/>
</g>
<defs>
<clipPath id="clip0_5_670">
<rect width="16" height="16" fill="white"/>
</clipPath>
</defs>
</svg>
