<svg width="16" height="16" viewBox="0 0 16 16" fill="none" xmlns="http://www.w3.org/2000/svg">
<g clip-path="url(#clip0_5_1470)">
<path d="M15.4956 7.7825C15.3819 4.84625 12.9419 2.5 10.0037 2.5C8.98168 2.50016 7.97983 2.78479 7.11034 3.32202C6.24086 3.85925 5.53806 4.62789 5.08063 5.54187C4.70044 6.29961 4.50166 7.13537 4.5 7.98313C4.50196 8.11194 4.45521 8.23674 4.36912 8.33258C4.28302 8.42841 4.16391 8.4882 4.03562 8.5C3.96703 8.5049 3.89816 8.4956 3.83333 8.47267C3.76849 8.44975 3.70908 8.4137 3.65881 8.36677C3.60854 8.31984 3.56849 8.26305 3.54116 8.19994C3.51384 8.13684 3.49983 8.06877 3.5 8C3.49947 7.30065 3.61218 6.60582 3.83375 5.9425C3.84835 5.89997 3.8512 5.85429 3.84202 5.81027C3.83283 5.76625 3.81194 5.72552 3.78155 5.69238C3.75116 5.65923 3.71239 5.6349 3.66933 5.62194C3.62627 5.60899 3.58051 5.60788 3.53688 5.61875C2.67051 5.83469 1.90114 6.33389 1.35092 7.03708C0.800715 7.74027 0.501218 8.60713 0.5 9.5C0.5 11.6994 2.35938 13.5 4.5625 13.5H10C10.7403 13.4992 11.4729 13.3491 12.1539 13.0587C12.8349 12.7682 13.4504 12.3434 13.9634 11.8097C14.4764 11.2759 14.8766 10.6442 15.1398 9.9522C15.4031 9.26024 15.5241 8.5223 15.4956 7.7825ZM12.3538 8.35375C12.3073 8.40024 12.2522 8.43712 12.1915 8.46228C12.1308 8.48744 12.0657 8.50039 12 8.50039C11.9343 8.50039 11.8692 8.48744 11.8085 8.46228C11.7478 8.43712 11.6927 8.40024 11.6462 8.35375L10.5 7.20687V11C10.5 11.1326 10.4473 11.2598 10.3536 11.3536C10.2598 11.4473 10.1326 11.5 10 11.5C9.86739 11.5 9.74021 11.4473 9.64645 11.3536C9.55268 11.2598 9.5 11.1326 9.5 11V7.20687L8.35375 8.35375C8.25993 8.44757 8.13268 8.50028 8 8.50028C7.86732 8.50028 7.74007 8.44757 7.64625 8.35375C7.55243 8.25993 7.49972 8.13268 7.49972 8C7.49972 7.86732 7.55243 7.74007 7.64625 7.64625L9.64625 5.64625C9.69269 5.59976 9.74783 5.56288 9.80853 5.53772C9.86923 5.51256 9.93429 5.49961 10 5.49961C10.0657 5.49961 10.1308 5.51256 10.1915 5.53772C10.2522 5.56288 10.3073 5.59976 10.3538 5.64625L12.3538 7.64625C12.4002 7.69269 12.4371 7.74783 12.4623 7.80853C12.4874 7.86923 12.5004 7.93429 12.5004 8C12.5004 8.06571 12.4874 8.13077 12.4623 8.19147C12.4371 8.25217 12.4002 8.30731 12.3538 8.35375Z" fill="black"/>
</g>
<defs>
<clipPath id="clip0_5_1470">
<rect width="16" height="16" fill="white"/>
</clipPath>
</defs>
</svg>
