<svg width="16" height="16" viewBox="0 0 16 16" fill="none" xmlns="http://www.w3.org/2000/svg">
<g clip-path="url(#clip0_5_668)">
<path d="M9.91631 12.2775L7.91631 15.2775C7.87986 15.3322 7.83301 15.3791 7.77843 15.4157C7.72384 15.4522 7.66259 15.4777 7.59817 15.4906C7.46806 15.5166 7.33295 15.4899 7.22256 15.4163C7.11216 15.3427 7.03552 15.2282 7.0095 15.0981C6.98348 14.968 7.01021 14.8329 7.08381 14.7225L9.08381 11.7225C9.1574 11.6121 9.27184 11.5355 9.40194 11.5095C9.53205 11.4834 9.66716 11.5102 9.77756 11.5838C9.88795 11.6574 9.96459 11.7718 9.99061 11.9019C10.0166 12.032 9.9899 12.1671 9.91631 12.2775ZM14.4919 5.47189C14.421 4.25823 13.8874 3.11798 13.001 2.28592C12.1146 1.45387 10.9429 0.993353 9.72718 0.999201C8.51147 1.00505 7.34427 1.47681 6.46593 2.31736C5.58759 3.1579 5.06497 4.30323 5.00568 5.51751C4.99839 5.64709 4.94209 5.76905 4.84819 5.85865C4.75429 5.94825 4.62984 5.99879 4.50006 6.00001H4.46256C4.33056 5.98822 4.20838 5.92539 4.12201 5.82489C4.03563 5.72439 3.99188 5.59415 4.00006 5.46189C4.01743 5.11424 4.06617 4.76888 4.14568 4.43001C4.15594 4.38746 4.15485 4.34296 4.14251 4.30097C4.13018 4.25898 4.10704 4.22095 4.0754 4.19071C4.04376 4.16046 4.00474 4.13906 3.96223 4.12862C3.91973 4.11819 3.87523 4.1191 3.83318 4.13126C3.15636 4.33122 2.56285 4.7457 2.14204 5.31226C1.72124 5.87882 1.49593 6.56678 1.50006 7.27251C1.51256 9.06689 3.00756 10.5 4.80256 10.5H7.06568L5.58381 12.7225C5.51021 12.8329 5.48348 12.968 5.5095 13.0981C5.53552 13.2282 5.61216 13.3427 5.72256 13.4163C5.83295 13.4899 5.96806 13.5166 6.09817 13.4906C6.22827 13.4645 6.34271 13.3879 6.41631 13.2775L8.26756 10.5H9.75006C10.397 10.4993 11.0371 10.3665 11.631 10.1099C12.2249 9.85324 12.7602 9.47809 13.2041 9.00739C13.648 8.5367 13.9912 7.98037 14.2126 7.37245C14.434 6.76453 14.5291 6.11781 14.4919 5.47189Z" fill="black"/>
</g>
<defs>
<clipPath id="clip0_5_668">
<rect width="16" height="16" fill="white"/>
</clipPath>
</defs>
</svg>
