<svg width="16" height="16" viewBox="0 0 16 16" fill="none" xmlns="http://www.w3.org/2000/svg">
<g clip-path="url(#clip0_5_665)">
<path d="M15.4956 7.7825C15.3819 4.84625 12.9419 2.5 10.0037 2.5C8.98168 2.50016 7.97983 2.78479 7.11034 3.32202C6.24086 3.85925 5.53806 4.62789 5.08063 5.54187C4.70044 6.29961 4.50166 7.13537 4.5 7.98313C4.50196 8.11194 4.45521 8.23674 4.36912 8.33258C4.28302 8.42841 4.16391 8.4882 4.03562 8.5C3.96703 8.5049 3.89816 8.4956 3.83333 8.47267C3.76849 8.44975 3.70908 8.4137 3.65881 8.36677C3.60854 8.31984 3.56849 8.26305 3.54116 8.19994C3.51384 8.13684 3.49983 8.06877 3.5 8C3.49947 7.30065 3.61218 6.60582 3.83375 5.9425C3.84835 5.89997 3.8512 5.85429 3.84202 5.81027C3.83283 5.76625 3.81194 5.72552 3.78155 5.69238C3.75116 5.65923 3.71239 5.6349 3.66933 5.62194C3.62627 5.60899 3.58051 5.60788 3.53688 5.61875C2.67051 5.83469 1.90114 6.33389 1.35092 7.03708C0.800715 7.74027 0.501218 8.60713 0.5 9.5C0.5 11.6994 2.35938 13.5 4.5625 13.5H10C10.7403 13.4992 11.4729 13.3491 12.1539 13.0587C12.8349 12.7682 13.4504 12.3434 13.9634 11.8097C14.4764 11.2759 14.8766 10.6442 15.1398 9.9522C15.4031 9.26024 15.5241 8.5223 15.4956 7.7825ZM9.5 5.5C9.5 5.36739 9.55268 5.24021 9.64645 5.14645C9.74021 5.05268 9.86739 5 10 5C10.1326 5 10.2598 5.05268 10.3536 5.14645C10.4473 5.24021 10.5 5.36739 10.5 5.5V8C10.5 8.13261 10.4473 8.25979 10.3536 8.35355C10.2598 8.44732 10.1326 8.5 10 8.5C9.86739 8.5 9.74021 8.44732 9.64645 8.35355C9.55268 8.25979 9.5 8.13261 9.5 8V5.5ZM10 11C9.85166 11 9.70666 10.956 9.58332 10.8736C9.45999 10.7912 9.36386 10.6741 9.30709 10.537C9.25033 10.4 9.23547 10.2492 9.26441 10.1037C9.29335 9.9582 9.36478 9.82456 9.46967 9.71967C9.57456 9.61478 9.7082 9.54335 9.85368 9.51441C9.99917 9.48547 10.15 9.50033 10.287 9.55709C10.4241 9.61386 10.5412 9.70999 10.6236 9.83332C10.706 9.95666 10.75 10.1017 10.75 10.25C10.75 10.4489 10.671 10.6397 10.5303 10.7803C10.3897 10.921 10.1989 11 10 11Z" fill="black"/>
</g>
<defs>
<clipPath id="clip0_5_665">
<rect width="16" height="16" fill="white"/>
</clipPath>
</defs>
</svg>
