<svg width="16" height="16" viewBox="0 0 16 16" fill="none" xmlns="http://www.w3.org/2000/svg">
<g clip-path="url(#clip0_5_996)">
<path d="M15.5 8.04498C15.4893 9.48189 14.915 10.8572 13.9006 11.875C13.8766 11.8986 13.8481 11.9172 13.8167 11.9296C13.7854 11.9419 13.7519 11.9478 13.7182 11.9469C13.6845 11.9459 13.6514 11.9382 13.6207 11.9241C13.5901 11.91 13.5627 11.8899 13.54 11.865L6.48626 4.10436C6.46356 4.07943 6.44615 4.05018 6.43505 4.01835C6.42395 3.98653 6.41941 3.95279 6.42168 3.91916C6.42396 3.88553 6.43301 3.85271 6.4483 3.82267C6.46359 3.79263 6.48479 3.76599 6.51063 3.74436C7.50879 2.92574 8.76355 2.48513 10.0544 2.49998C13.0719 2.52936 15.5238 5.02686 15.5 8.04498ZM3.37001 2.16373C3.3261 2.11423 3.2728 2.07395 3.21321 2.0452C3.15361 2.01645 3.0889 1.99982 3.02283 1.99627C2.95676 1.99271 2.89065 2.00231 2.82831 2.02449C2.76598 2.04668 2.70867 2.08102 2.6597 2.12552C2.61073 2.17002 2.57109 2.22379 2.54306 2.28373C2.51503 2.34366 2.49917 2.40856 2.49641 2.47467C2.49365 2.54078 2.50403 2.60678 2.52697 2.66884C2.5499 2.73091 2.58492 2.7878 2.63001 2.83623L5.08313 5.53498L5.07938 5.54186C4.50591 5.45783 3.92102 5.49944 3.36522 5.6638C2.80941 5.82816 2.29596 6.11134 1.86041 6.49375C1.42487 6.87615 1.07763 7.34864 0.842731 7.8785C0.607835 8.40837 0.490895 8.98295 0.500006 9.56248C0.533131 11.7575 2.36501 13.5 4.56251 13.5H10C10.6794 13.5003 11.353 13.3742 11.9863 13.1281L12.63 13.8362C12.6743 13.885 12.7278 13.9246 12.7874 13.9526C12.847 13.9806 12.9115 13.9966 12.9773 13.9997C13.0431 14.0027 13.1089 13.9927 13.1708 13.9702C13.2327 13.9477 13.2896 13.9132 13.3381 13.8687C13.4335 13.7743 13.4886 13.6466 13.492 13.5124C13.4954 13.3782 13.4468 13.2479 13.3563 13.1487L3.37001 2.16373Z" fill="black"/>
</g>
<defs>
<clipPath id="clip0_5_996">
<rect width="16" height="16" fill="white"/>
</clipPath>
</defs>
</svg>
