<svg width="16" height="16" viewBox="0 0 16 16" fill="none" xmlns="http://www.w3.org/2000/svg">
<g clip-path="url(#clip0_5_995)">
<path d="M5.50006 12.25C5.50006 12.3983 5.45607 12.5434 5.37366 12.6667C5.29125 12.79 5.17411 12.8862 5.03707 12.9429C4.90002 12.9997 4.74922 13.0145 4.60374 12.9856C4.45825 12.9567 4.32462 12.8852 4.21973 12.7803C4.11484 12.6755 4.04341 12.5418 4.01447 12.3963C3.98553 12.2508 4.00038 12.1 4.05715 11.963C4.11391 11.826 4.21004 11.7088 4.33338 11.6264C4.45672 11.544 4.60172 11.5 4.75006 11.5C4.94897 11.5 5.13973 11.579 5.28039 11.7197C5.42104 11.8603 5.50006 12.0511 5.50006 12.25ZM7.25006 12.5C7.10172 12.5 6.95672 12.544 6.83338 12.6264C6.71004 12.7088 6.61391 12.826 6.55715 12.963C6.50038 13.1 6.48553 13.2508 6.51447 13.3963C6.54341 13.5418 6.61484 13.6755 6.71973 13.7803C6.82462 13.8852 6.95825 13.9567 7.10374 13.9856C7.24922 14.0145 7.40002 13.9997 7.53707 13.9429C7.67411 13.8862 7.79125 13.79 7.87366 13.6667C7.95607 13.5434 8.00006 13.3983 8.00006 13.25C8.00006 13.0511 7.92104 12.8603 7.78039 12.7197C7.63973 12.579 7.44897 12.5 7.25006 12.5ZM10.2501 11.5C10.1017 11.5 9.95671 11.544 9.83338 11.6264C9.71004 11.7088 9.61391 11.826 9.55715 11.963C9.50038 12.1 9.48553 12.2508 9.51447 12.3963C9.54341 12.5418 9.61484 12.6755 9.71973 12.7803C9.82461 12.8852 9.95825 12.9567 10.1037 12.9856C10.2492 13.0145 10.4 12.9997 10.5371 12.9429C10.6741 12.8862 10.7912 12.79 10.8737 12.6667C10.9561 12.5434 11.0001 12.3983 11.0001 12.25C11.0001 12.0511 10.921 11.8603 10.7804 11.7197C10.6397 11.579 10.449 11.5 10.2501 11.5ZM4.25006 14C4.10172 14 3.95671 14.044 3.83338 14.1264C3.71004 14.2088 3.61391 14.326 3.55715 14.463C3.50038 14.6 3.48553 14.7508 3.51447 14.8963C3.54341 15.0418 3.61484 15.1755 3.71973 15.2803C3.82462 15.3852 3.95825 15.4567 4.10374 15.4856C4.24922 15.5145 4.40002 15.4997 4.53707 15.4429C4.67411 15.3862 4.79125 15.29 4.87366 15.1667C4.95607 15.0434 5.00006 14.8983 5.00006 14.75C5.00006 14.5511 4.92104 14.3603 4.78039 14.2197C4.63973 14.079 4.44897 14 4.25006 14ZM9.75006 14C9.60172 14 9.45672 14.044 9.33338 14.1264C9.21004 14.2088 9.11391 14.326 9.05715 14.463C9.00038 14.6 8.98553 14.7508 9.01447 14.8963C9.04341 15.0418 9.11484 15.1755 9.21973 15.2803C9.32462 15.3852 9.45825 15.4567 9.60374 15.4856C9.74922 15.5145 9.90002 15.4997 10.0371 15.4429C10.1741 15.3862 10.2912 15.29 10.3737 15.1667C10.4561 15.0434 10.5001 14.8983 10.5001 14.75C10.5001 14.5511 10.421 14.3603 10.2804 14.2197C10.1397 14.079 9.94897 14 9.75006 14ZM14.4919 5.47189C14.421 4.25823 13.8874 3.11798 13.001 2.28592C12.1146 1.45387 10.9429 0.993353 9.72718 0.999201C8.51147 1.00505 7.34427 1.47681 6.46593 2.31736C5.58759 3.1579 5.06497 4.30323 5.00568 5.51751C4.99839 5.64709 4.94209 5.76905 4.84819 5.85865C4.75429 5.94825 4.62984 5.99879 4.50006 6.00001H4.46256C4.33056 5.98822 4.20838 5.92539 4.12201 5.82489C4.03563 5.72439 3.99188 5.59415 4.00006 5.46189C4.01743 5.11424 4.06617 4.76888 4.14568 4.43001C4.15594 4.38746 4.15485 4.34296 4.14251 4.30097C4.13018 4.25898 4.10704 4.22095 4.0754 4.19071C4.04376 4.16046 4.00474 4.13906 3.96223 4.12862C3.91973 4.11819 3.87523 4.1191 3.83318 4.13126C3.15636 4.33122 2.56285 4.7457 2.14204 5.31226C1.72124 5.87882 1.49593 6.56678 1.50006 7.27251C1.51256 9.06689 3.00756 10.5 4.80256 10.5H9.75006C10.397 10.4993 11.0371 10.3665 11.631 10.1099C12.2249 9.85324 12.7602 9.47809 13.2041 9.00739C13.648 8.5367 13.9912 7.98037 14.2126 7.37245C14.434 6.76453 14.5291 6.11781 14.4919 5.47189Z" fill="black"/>
</g>
<defs>
<clipPath id="clip0_5_995">
<rect width="16" height="16" fill="white"/>
</clipPath>
</defs>
</svg>
