<svg width="16" height="16" viewBox="0 0 16 16" fill="none" xmlns="http://www.w3.org/2000/svg">
<g clip-path="url(#clip0_5_1473)">
<path d="M15.4956 7.7825C15.3819 4.84625 12.9419 2.5 10.0037 2.5C8.98168 2.50016 7.97983 2.78479 7.11034 3.32202C6.24086 3.85925 5.53806 4.62789 5.08063 5.54187C4.70044 6.29961 4.50166 7.13537 4.5 7.98313C4.50196 8.11194 4.45521 8.23674 4.36912 8.33258C4.28302 8.42841 4.16391 8.4882 4.03562 8.5C3.96703 8.5049 3.89816 8.4956 3.83333 8.47267C3.76849 8.44975 3.70908 8.4137 3.65881 8.36677C3.60854 8.31984 3.56849 8.26305 3.54116 8.19994C3.51384 8.13684 3.49983 8.06877 3.5 8C3.49947 7.30065 3.61218 6.60582 3.83375 5.9425C3.84835 5.89997 3.8512 5.85429 3.84202 5.81027C3.83283 5.76625 3.81194 5.72552 3.78155 5.69238C3.75116 5.65923 3.71239 5.6349 3.66933 5.62194C3.62627 5.60899 3.58051 5.60788 3.53688 5.61875C2.67051 5.83469 1.90114 6.33389 1.35092 7.03708C0.800715 7.74027 0.501218 8.60713 0.5 9.5C0.5 11.6994 2.35938 13.5 4.5625 13.5H10C10.7403 13.4992 11.4729 13.3491 12.1539 13.0587C12.8349 12.7682 13.4504 12.3434 13.9634 11.8097C14.4764 11.2759 14.8766 10.6442 15.1398 9.9522C15.4031 9.26024 15.5241 8.5223 15.4956 7.7825ZM12.3538 9.35375L10.3538 11.3538C10.3073 11.4002 10.2522 11.4371 10.1915 11.4623C10.1308 11.4874 10.0657 11.5004 10 11.5004C9.93429 11.5004 9.86923 11.4874 9.80853 11.4623C9.74783 11.4371 9.69269 11.4002 9.64625 11.3538L7.64625 9.35375C7.55243 9.25993 7.49972 9.13268 7.49972 9C7.49972 8.86732 7.55243 8.74007 7.64625 8.64625C7.74007 8.55243 7.86732 8.49972 8 8.49972C8.13268 8.49972 8.25993 8.55243 8.35375 8.64625L9.5 9.79313V6C9.5 5.86739 9.55268 5.74021 9.64645 5.64645C9.74021 5.55268 9.86739 5.5 10 5.5C10.1326 5.5 10.2598 5.55268 10.3536 5.64645C10.4473 5.74021 10.5 5.86739 10.5 6V9.79313L11.6462 8.64625C11.7401 8.55243 11.8673 8.49972 12 8.49972C12.1327 8.49972 12.2599 8.55243 12.3538 8.64625C12.4476 8.74007 12.5003 8.86732 12.5003 9C12.5003 9.13268 12.4476 9.25993 12.3538 9.35375Z" fill="black"/>
</g>
<defs>
<clipPath id="clip0_5_1473">
<rect width="16" height="16" fill="white"/>
</clipPath>
</defs>
</svg>
