<svg width="16" height="16" viewBox="0 0 16 16" fill="none" xmlns="http://www.w3.org/2000/svg">
<g clip-path="url(#clip0_5_998)">
<path d="M9.75005 10.5H8.28318L7.38318 12H9.00005C9.08857 12 9.17551 12.0234 9.25199 12.068C9.32847 12.1126 9.39174 12.1767 9.43534 12.2537C9.47895 12.3307 9.50132 12.418 9.50017 12.5065C9.49902 12.595 9.47439 12.6816 9.4288 12.7575L7.9288 15.2575C7.89499 15.3138 7.85041 15.3629 7.79763 15.402C7.74484 15.4411 7.68487 15.4694 7.62115 15.4853C7.55742 15.5012 7.49119 15.5044 7.42623 15.4947C7.36127 15.485 7.29886 15.4626 7.24255 15.4288C7.18625 15.3949 7.13716 15.3504 7.09808 15.2976C7.059 15.2448 7.0307 15.1848 7.0148 15.1211C6.9989 15.0574 6.9957 14.9911 7.0054 14.9262C7.01509 14.8612 7.03749 14.7988 7.0713 14.7425L8.11693 13H6.50005C6.41153 13 6.32459 12.9766 6.24812 12.932C6.17164 12.8874 6.10837 12.8233 6.06476 12.7463C6.02116 12.6693 5.99879 12.582 5.99994 12.4935C6.00109 12.405 6.02572 12.3184 6.0713 12.2425L7.11693 10.5H4.80443C3.00755 10.5 1.51255 9.06688 1.50005 7.2725C1.496 6.56661 1.72149 5.87853 2.14254 5.31195C2.56359 4.74537 3.15738 4.33099 3.83443 4.13125C3.87647 4.11909 3.92097 4.11818 3.96348 4.12861C4.00599 4.13905 4.04501 4.16045 4.07665 4.1907C4.10829 4.22094 4.13143 4.25897 4.14376 4.30096C4.15609 4.34295 4.15719 4.38745 4.14693 4.43C4.06699 4.76883 4.01784 5.1142 4.00005 5.46188C3.99188 5.59424 4.03572 5.72456 4.12223 5.82508C4.20874 5.9256 4.33107 5.98836 4.46318 6H4.50068C4.63035 5.99862 4.75465 5.94801 4.84842 5.85843C4.94218 5.76884 4.99839 5.64698 5.00568 5.5175C5.05118 4.58906 5.36809 3.69437 5.91716 2.9443C6.46622 2.19423 7.2233 1.62175 8.09458 1.2978C8.96586 0.97384 9.91304 0.912648 10.8188 1.1218C11.7245 1.33096 12.5489 1.80127 13.1899 2.47445C13.8309 3.14764 14.2604 3.99411 14.4249 4.90898C14.5895 5.82385 14.4821 6.7669 14.1159 7.62128C13.7497 8.47567 13.1408 9.20382 12.3648 9.71553C11.5887 10.2272 10.6796 10.5 9.75005 10.5Z" fill="black"/>
</g>
<defs>
<clipPath id="clip0_5_998">
<rect width="16" height="16" fill="white"/>
</clipPath>
</defs>
</svg>
