<svg width="16" height="16" viewBox="0 0 16 16" fill="none" xmlns="http://www.w3.org/2000/svg">
<g clip-path="url(#clip0_5_992)">
<path d="M15.4956 7.7825C15.3819 4.84625 12.9419 2.5 10.0037 2.5C8.98168 2.50016 7.97983 2.78479 7.11034 3.32202C6.24086 3.85925 5.53806 4.62789 5.08063 5.54187C4.70044 6.29961 4.50166 7.13537 4.5 7.98313C4.50196 8.11194 4.45521 8.23674 4.36912 8.33258C4.28302 8.42841 4.16391 8.4882 4.03562 8.5C3.96703 8.5049 3.89816 8.4956 3.83333 8.47267C3.76849 8.44975 3.70908 8.4137 3.65881 8.36677C3.60854 8.31984 3.56849 8.26305 3.54116 8.19994C3.51384 8.13684 3.49983 8.06877 3.5 8C3.49947 7.30065 3.61218 6.60582 3.83375 5.9425C3.84835 5.89997 3.8512 5.85429 3.84202 5.81027C3.83283 5.76625 3.81194 5.72552 3.78155 5.69238C3.75116 5.65923 3.71239 5.6349 3.66933 5.62194C3.62627 5.60899 3.58051 5.60788 3.53688 5.61875C2.67051 5.83469 1.90114 6.33389 1.35092 7.03708C0.800715 7.74027 0.501218 8.60713 0.5 9.5C0.5 11.6994 2.35938 13.5 4.5625 13.5H10C10.7403 13.4992 11.4729 13.3491 12.1539 13.0587C12.8349 12.7682 13.4504 12.3434 13.9634 11.8097C14.4764 11.2759 14.8766 10.6442 15.1398 9.9522C15.4031 9.26024 15.5241 8.5223 15.4956 7.7825ZM11.8538 9.64625C11.9002 9.6927 11.9371 9.74786 11.9622 9.80855C11.9873 9.86925 12.0003 9.9343 12.0003 10C12.0003 10.0657 11.9873 10.1308 11.9622 10.1914C11.9371 10.2521 11.9002 10.3073 11.8538 10.3538C11.8073 10.4002 11.7521 10.4371 11.6914 10.4622C11.6308 10.4873 11.5657 10.5003 11.5 10.5003C11.4343 10.5003 11.3692 10.4873 11.3086 10.4622C11.2479 10.4371 11.1927 10.4002 11.1462 10.3538L10 9.20687L8.85375 10.3538C8.75993 10.4476 8.63268 10.5003 8.5 10.5003C8.36732 10.5003 8.24007 10.4476 8.14625 10.3538C8.05243 10.2599 7.99972 10.1327 7.99972 10C7.99972 9.86732 8.05243 9.74007 8.14625 9.64625L9.29313 8.5L8.14625 7.35375C8.05243 7.25993 7.99972 7.13268 7.99972 7C7.99972 6.86732 8.05243 6.74007 8.14625 6.64625C8.24007 6.55243 8.36732 6.49972 8.5 6.49972C8.63268 6.49972 8.75993 6.55243 8.85375 6.64625L10 7.79313L11.1462 6.64625C11.1927 6.59979 11.2479 6.56294 11.3086 6.5378C11.3692 6.51266 11.4343 6.49972 11.5 6.49972C11.5657 6.49972 11.6308 6.51266 11.6914 6.5378C11.7521 6.56294 11.8073 6.59979 11.8538 6.64625C11.9002 6.6927 11.9371 6.74786 11.9622 6.80855C11.9873 6.86925 12.0003 6.9343 12.0003 7C12.0003 7.0657 11.9873 7.13075 11.9622 7.19145C11.9371 7.25214 11.9002 7.3073 11.8538 7.35375L10.7069 8.5L11.8538 9.64625Z" fill="black"/>
</g>
<defs>
<clipPath id="clip0_5_992">
<rect width="16" height="16" fill="white"/>
</clipPath>
</defs>
</svg>
