<svg width="16" height="16" viewBox="0 0 16 16" fill="none" xmlns="http://www.w3.org/2000/svg">
<g clip-path="url(#clip0_5_1320)">
<path d="M14.25 7.5C14.25 8.91437 13.875 9.795 13.1294 10.1169C12.9119 10.2083 12.6778 10.2536 12.4419 10.25C12.2654 10.2484 12.0895 10.229 11.9169 10.1919C11.8532 10.1792 11.7968 10.1425 11.7594 10.0894C10.8814 8.84214 9.8817 7.68521 8.775 6.63562C8.67869 6.54446 8.55011 6.49528 8.41755 6.49891C8.28499 6.50255 8.15929 6.55869 8.06812 6.655C7.97696 6.75131 7.92778 6.87989 7.93141 7.01245C7.93505 7.14501 7.99119 7.27071 8.0875 7.36188C9.015 8.23125 12.0956 11.33 12.9825 14.8787C13.0146 15.0074 12.9944 15.1435 12.9262 15.2572C12.8579 15.3709 12.7474 15.4528 12.6187 15.485C12.5799 15.4947 12.54 15.4997 12.5 15.5C12.3886 15.4998 12.2805 15.4625 12.1927 15.3939C12.105 15.3253 12.0426 15.2293 12.0156 15.1213C11.7581 14.0919 11.2875 13.0913 10.7369 12.1781C10.7193 12.3333 10.6793 12.4851 10.6181 12.6287C10.295 13.375 9.41437 13.75 8 13.75C6.58563 13.75 5.705 13.375 5.3825 12.6287C5.04188 11.8425 5.35813 10.7025 6.32 9.24063C6.3625 9.17813 6.405 9.11563 6.445 9.05313L6.2575 9.17813C5.1775 9.89188 4.27187 10.25 3.55562 10.25C3.31972 10.2536 3.08562 10.2083 2.86812 10.1169C2.125 9.795 1.75 8.91437 1.75 7.5C1.75 6.08563 2.125 5.205 2.87063 4.8825C3.6575 4.54188 4.7975 4.85813 6.25938 5.82L6.44688 5.945C6.40521 5.8825 6.36354 5.82 6.32188 5.7575C5.35875 4.29563 5.0425 3.15563 5.38438 2.36875C5.705 1.625 6.58563 1.25 8 1.25C9.41437 1.25 10.295 1.625 10.6175 2.37063C10.9581 3.1575 10.6419 4.2975 9.68 5.75938C9.63833 5.82312 9.59667 5.88562 9.555 5.94688L9.7425 5.82188C11.2044 4.85875 12.3444 4.5425 13.1313 4.88438C13.875 5.205 14.25 6.08563 14.25 7.5Z" fill="black"/>
</g>
<defs>
<clipPath id="clip0_5_1320">
<rect width="16" height="16" fill="white"/>
</clipPath>
</defs>
</svg>
