<svg width="16" height="16" viewBox="0 0 16 16" fill="none" xmlns="http://www.w3.org/2000/svg">
<g clip-path="url(#clip0_5_991)">
<path d="M15 9C14.9997 9.61925 14.8352 10.2274 14.5232 10.7622C14.2112 11.2971 13.7628 11.7397 13.2239 12.0447C12.685 12.3497 12.0748 12.5063 11.4556 12.4984C10.8364 12.4906 10.2303 12.3186 9.69933 12H9.42183L9.9787 13.8562C10.0011 13.9309 10.0058 14.0098 9.99227 14.0865C9.97878 14.1633 9.94754 14.2358 9.90102 14.2984C9.85451 14.3609 9.79402 14.4117 9.72439 14.4467C9.65475 14.4817 9.57789 14.5 9.49995 14.5H6.49995C6.42201 14.5 6.34515 14.4817 6.27552 14.4467C6.20588 14.4117 6.14539 14.3609 6.09888 14.2984C6.05237 14.2358 6.02112 14.1633 6.00764 14.0865C5.99415 14.0098 5.99879 13.9309 6.0212 13.8562L6.57808 12H6.30058C5.83812 12.2779 5.31768 12.4451 4.7799 12.4886C4.24212 12.5321 3.70157 12.4507 3.20047 12.2507C2.69937 12.0507 2.25129 11.7376 1.89122 11.3358C1.53116 10.9339 1.26887 10.4543 1.12483 9.93438C0.980795 9.41442 0.958915 8.86821 1.0609 8.33841C1.16289 7.8086 1.38598 7.30954 1.71275 6.88022C2.03952 6.4509 2.46112 6.10293 2.94461 5.8635C3.42811 5.62407 3.96042 5.49967 4.49995 5.5C4.5487 5.5 4.59683 5.5 4.64558 5.5C4.49 4.97764 4.45856 4.42616 4.55377 3.8895C4.64898 3.35285 4.86821 2.84584 5.19399 2.40888C5.51978 1.97192 5.94311 1.61709 6.43026 1.37265C6.91741 1.12821 7.45491 1.00092 7.99995 1.00092C8.54499 1.00092 9.0825 1.12821 9.56965 1.37265C10.0568 1.61709 10.4801 1.97192 10.8059 2.40888C11.1317 2.84584 11.3509 3.35285 11.4461 3.8895C11.5413 4.42616 11.5099 4.97764 11.3543 5.5C11.4025 5.5 11.4512 5.5 11.5 5.5C12.4279 5.50099 13.3176 5.87006 13.9737 6.52622C14.6299 7.18238 14.999 8.07205 15 9Z" fill="black"/>
</g>
<defs>
<clipPath id="clip0_5_991">
<rect width="16" height="16" fill="white"/>
</clipPath>
</defs>
</svg>
