<svg width="16" height="16" viewBox="0 0 16 16" fill="none" xmlns="http://www.w3.org/2000/svg">
<g clip-path="url(#clip0_5_663)">
<path d="M8.5 8C8.5 8.66304 8.76339 9.29893 9.23223 9.76777C9.70107 10.2366 10.337 10.5 11 10.5H11.02C11.5094 10.5188 11.895 10.4087 12.3475 10.1181C12.4608 10.0461 12.5914 10.0057 12.7256 10.0014C12.8599 9.997 12.9928 10.0288 13.1106 10.0933C13.2283 10.1579 13.3266 10.2529 13.3951 10.3684C13.4636 10.4839 13.4998 10.6157 13.5 10.75V13C13.5 13.2652 13.3946 13.5196 13.2071 13.7071C13.0196 13.8946 12.7652 14 12.5 14H3.5C3.23478 14 2.98043 13.8946 2.79289 13.7071C2.60536 13.5196 2.5 13.2652 2.5 13V3C2.5 2.73478 2.60536 2.48043 2.79289 2.29289C2.98043 2.10536 3.23478 2 3.5 2H12.5C12.7652 2 13.0196 2.10536 13.2071 2.29289C13.3946 2.48043 13.5 2.73478 13.5 3V5.25C13.4999 5.38453 13.4637 5.51657 13.395 5.63228C13.3264 5.74798 13.2279 5.84309 13.1098 5.90764C12.9918 5.97219 12.8586 6.0038 12.7241 5.99915C12.5897 5.99451 12.4589 5.95379 12.3456 5.88125C11.966 5.64432 11.53 5.51299 11.0827 5.50082C10.6354 5.48865 10.1929 5.59608 9.801 5.81201C9.40907 6.02795 9.08186 6.34457 8.85316 6.7292C8.62445 7.11383 8.50254 7.55252 8.5 8Z" fill="black"/>
</g>
<defs>
<clipPath id="clip0_5_663">
<rect width="16" height="16" fill="white"/>
</clipPath>
</defs>
</svg>
