<svg width="16" height="16" viewBox="0 0 16 16" fill="none" xmlns="http://www.w3.org/2000/svg">
<g clip-path="url(#clip0_5_984)">
<path d="M14.3681 4.51565C14.2768 4.35618 14.1431 4.22509 13.9819 4.1369L8.48 1.12503C8.33294 1.04417 8.16783 1.00177 8 1.00177C7.83217 1.00177 7.66706 1.04417 7.52 1.12503L2.02 4.13628C1.85876 4.22446 1.72508 4.35555 1.63375 4.51503C1.54669 4.66597 1.50059 4.83703 1.5 5.01128V10.9888C1.50041 11.1678 1.54888 11.3435 1.64034 11.4974C1.73181 11.6513 1.86293 11.7778 2.02 11.8638L7.52 14.8744C7.66695 14.9556 7.83211 14.9982 8 14.9982C8.16789 14.9982 8.33305 14.9556 8.48 14.8744L13.98 11.8638C14.1371 11.7778 14.2682 11.6513 14.3597 11.4974C14.4511 11.3435 14.4996 11.1678 14.5 10.9888V5.01128C14.4999 4.83742 14.4544 4.66659 14.3681 4.51565ZM7.5 13.7257L5.5 12.6307V9.50003C5.4998 9.41051 5.47556 9.32268 5.42983 9.24572C5.38409 9.16877 5.31853 9.1055 5.24 9.06253L2.5 7.56253V5.56253L7.5 8.30003V13.7257ZM8 7.43003L3.04125 4.71503L5.19625 3.53565L7.75875 4.93878C7.83234 4.97904 7.91487 5.00014 7.99875 5.00014C8.08263 5.00014 8.16516 4.97904 8.23875 4.93878L10.8013 3.53565L12.9563 4.71503L8 7.43003ZM13.5 7.56128L10.76 9.06128C10.6815 9.10425 10.6159 9.16752 10.5702 9.24447C10.5244 9.32143 10.5002 9.40926 10.5 9.49878V12.6294L8.5 13.7244V8.29628L13.5 5.55878V7.56128Z" fill="black"/>
</g>
<defs>
<clipPath id="clip0_5_984">
<rect width="16" height="16" fill="white"/>
</clipPath>
</defs>
</svg>
