<svg width="16" height="16" viewBox="0 0 16 16" fill="none" xmlns="http://www.w3.org/2000/svg">
<g clip-path="url(#clip0_5_985)">
<path d="M14.7369 5.56248L8.23687 2.06248C8.16406 2.02331 8.08268 2.00281 8 2.00281C7.91732 2.00281 7.83594 2.02331 7.76312 2.06248L1.26312 5.56248C1.18401 5.60504 1.11782 5.66813 1.07152 5.74511C1.02521 5.8221 1.00051 5.91014 1 5.99998V9.99998C1.00051 10.0898 1.02521 10.1779 1.07152 10.2548C1.11782 10.3318 1.18401 10.3949 1.26312 10.4375L7.13125 13.6C7.16933 13.6205 7.2121 13.6309 7.25537 13.6299C7.29864 13.629 7.34092 13.6168 7.37809 13.5947C7.41525 13.5725 7.44603 13.5411 7.4674 13.5034C7.48877 13.4658 7.5 13.4233 7.5 13.38V9.79873L4.15938 7.99998L2 9.1631V6.83685L4.15938 7.99998L5.21438 7.43185L2.55437 5.99998L7.5 3.33685V6.20123L5.21438 7.43185L8 8.93185L10.7856 7.43185L11.8406 7.99998L14 6.83685V9.1631L11.8406 7.99998L8.5 9.79873V13.38C8.5 13.4233 8.51123 13.4658 8.5326 13.5034C8.55397 13.5411 8.58475 13.5725 8.62191 13.5947C8.65908 13.6168 8.70136 13.629 8.74463 13.6299C8.7879 13.6309 8.83067 13.6205 8.86875 13.6L14.7369 10.4375C14.816 10.3949 14.8822 10.3318 14.9285 10.2548C14.9748 10.1779 14.9995 10.0898 15 9.99998V5.99998C14.9995 5.91014 14.9748 5.8221 14.9285 5.74511C14.8822 5.66813 14.816 5.60504 14.7369 5.56248ZM10.7856 7.43748L8.5 6.20123V3.33685L13.4456 5.99998L10.7856 7.43748Z" fill="black"/>
</g>
<defs>
<clipPath id="clip0_5_985">
<rect width="16" height="16" fill="white"/>
</clipPath>
</defs>
</svg>
