<svg width="16" height="16" viewBox="0 0 16 16" fill="none" xmlns="http://www.w3.org/2000/svg">
<g clip-path="url(#clip0_5_988)">
<path d="M12.5 2.5H10.5C10.5 2.23478 10.3946 1.98043 10.2071 1.79289C10.0196 1.60536 9.76522 1.5 9.5 1.5H2C1.73478 1.5 1.48043 1.60536 1.29289 1.79289C1.10536 1.98043 1 2.23478 1 2.5V7.5C1 7.76522 1.10536 8.01957 1.29289 8.20711C1.48043 8.39464 1.73478 8.5 2 8.5H2.5V12.5C2.5 12.7652 2.60536 13.0196 2.79289 13.2071C2.98043 13.3946 3.23478 13.5 3.5 13.5H12.5C12.7652 13.5 13.0196 13.3946 13.2071 13.2071C13.3946 13.0196 13.5 12.7652 13.5 12.5V3.5C13.5 3.23478 13.3946 2.98043 13.2071 2.79289C13.0196 2.60536 12.7652 2.5 12.5 2.5ZM6.64625 3.85375C6.55243 3.75993 6.49972 3.63268 6.49972 3.5C6.49972 3.36732 6.55243 3.24007 6.64625 3.14625C6.74007 3.05243 6.86732 2.99972 7 2.99972C7.13268 2.99972 7.25993 3.05243 7.35375 3.14625L8.85375 4.64625C8.90024 4.69269 8.93712 4.74783 8.96228 4.80853C8.98744 4.86923 9.00039 4.93429 9.00039 5C9.00039 5.06571 8.98744 5.13077 8.96228 5.19147C8.93712 5.25217 8.90024 5.30731 8.85375 5.35375L7.35375 6.85375C7.25993 6.94757 7.13268 7.00028 7 7.00028C6.86732 7.00028 6.74007 6.94757 6.64625 6.85375C6.55243 6.75993 6.49972 6.63268 6.49972 6.5C6.49972 6.36732 6.55243 6.24007 6.64625 6.14625L7.79313 5L6.64625 3.85375ZM2.64625 5.35375C2.59976 5.30731 2.56288 5.25217 2.53772 5.19147C2.51256 5.13077 2.49961 5.06571 2.49961 5C2.49961 4.93429 2.51256 4.86923 2.53772 4.80853C2.56288 4.74783 2.59976 4.69269 2.64625 4.64625L4.14625 3.14625C4.24007 3.05243 4.36732 2.99972 4.5 2.99972C4.63268 2.99972 4.75993 3.05243 4.85375 3.14625C4.94757 3.24007 5.00028 3.36732 5.00028 3.5C5.00028 3.63268 4.94757 3.75993 4.85375 3.85375L3.70688 5L4.85375 6.14625C4.94757 6.24007 5.00028 6.36732 5.00028 6.5C5.00028 6.63268 4.94757 6.75993 4.85375 6.85375C4.75993 6.94757 4.63268 7.00028 4.5 7.00028C4.36732 7.00028 4.24007 6.94757 4.14625 6.85375L2.64625 5.35375ZM12.5 12.5H3.5V8.5H9.5C9.76522 8.5 10.0196 8.39464 10.2071 8.20711C10.3946 8.01957 10.5 7.76522 10.5 7.5V3.5H12.5V12.5Z" fill="black"/>
</g>
<defs>
<clipPath id="clip0_5_988">
<rect width="16" height="16" fill="white"/>
</clipPath>
</defs>
</svg>
