<svg width="16" height="16" viewBox="0 0 16 16" fill="none" xmlns="http://www.w3.org/2000/svg">
<g clip-path="url(#clip0_5_987)">
<path d="M13.5 2.5H2.5C2.23478 2.5 1.98043 2.60536 1.79289 2.79289C1.60536 2.98043 1.5 3.23478 1.5 3.5V12.5C1.5 12.7652 1.60536 13.0196 1.79289 13.2071C1.98043 13.3946 2.23478 13.5 2.5 13.5H13.5C13.7652 13.5 14.0196 13.3946 14.2071 13.2071C14.3946 13.0196 14.5 12.7652 14.5 12.5V3.5C14.5 3.23478 14.3946 2.98043 14.2071 2.79289C14.0196 2.60536 13.7652 2.5 13.5 2.5ZM6.35375 10.1462C6.40021 10.1927 6.43706 10.2479 6.4622 10.3086C6.48734 10.3692 6.50028 10.4343 6.50028 10.5C6.50028 10.5657 6.48734 10.6308 6.4622 10.6914C6.43706 10.7521 6.40021 10.8073 6.35375 10.8538C6.3073 10.9002 6.25214 10.9371 6.19145 10.9622C6.13075 10.9873 6.0657 11.0003 6 11.0003C5.9343 11.0003 5.86925 10.9873 5.80855 10.9622C5.74786 10.9371 5.6927 10.9002 5.64625 10.8538L3.14625 8.35375C3.09976 8.30731 3.06288 8.25217 3.03772 8.19147C3.01256 8.13077 2.99961 8.06571 2.99961 8C2.99961 7.93429 3.01256 7.86923 3.03772 7.80853C3.06288 7.74783 3.09976 7.69269 3.14625 7.64625L5.64625 5.14625C5.74007 5.05243 5.86732 4.99972 6 4.99972C6.13268 4.99972 6.25993 5.05243 6.35375 5.14625C6.44757 5.24007 6.50028 5.36732 6.50028 5.5C6.50028 5.63268 6.44757 5.75993 6.35375 5.85375L4.20687 8L6.35375 10.1462ZM12.8538 8.35375L10.3538 10.8538C10.2599 10.9476 10.1327 11.0003 10 11.0003C9.86732 11.0003 9.74007 10.9476 9.64625 10.8538C9.55243 10.7599 9.49972 10.6327 9.49972 10.5C9.49972 10.3673 9.55243 10.2401 9.64625 10.1462L11.7931 8L9.64625 5.85375C9.55243 5.75993 9.49972 5.63268 9.49972 5.5C9.49972 5.36732 9.55243 5.24007 9.64625 5.14625C9.74007 5.05243 9.86732 4.99972 10 4.99972C10.1327 4.99972 10.2599 5.05243 10.3538 5.14625L12.8538 7.64625C12.9002 7.69269 12.9371 7.74783 12.9623 7.80853C12.9874 7.86923 13.0004 7.93429 13.0004 8C13.0004 8.06571 12.9874 8.13077 12.9623 8.19147C12.9371 8.25217 12.9002 8.30731 12.8538 8.35375Z" fill="black"/>
</g>
<defs>
<clipPath id="clip0_5_987">
<rect width="16" height="16" fill="white"/>
</clipPath>
</defs>
</svg>
