<svg width="16" height="16" viewBox="0 0 16 16" fill="none" xmlns="http://www.w3.org/2000/svg">
<g clip-path="url(#clip0_5_982)">
<path d="M13 5H2C1.86739 5 1.74021 5.05268 1.64645 5.14645C1.55268 5.24021 1.5 5.36739 1.5 5.5V8.5C1.50149 9.35124 1.68354 10.1925 2.03411 10.9682C2.38468 11.7439 2.89581 12.4364 3.53375 13H2C1.86739 13 1.74021 13.0527 1.64645 13.1464C1.55268 13.2402 1.5 13.3674 1.5 13.5C1.5 13.6326 1.55268 13.7598 1.64645 13.8536C1.74021 13.9473 1.86739 14 2 14H13C13.1326 14 13.2598 13.9473 13.3536 13.8536C13.4473 13.7598 13.5 13.6326 13.5 13.5C13.5 13.3674 13.4473 13.2402 13.3536 13.1464C13.2598 13.0527 13.1326 13 13 13H11.4663C12.232 12.3213 12.8127 11.4591 13.1538 10.4944C13.7888 10.4552 14.3851 10.1754 14.821 9.71198C15.2569 9.24852 15.4998 8.63627 15.5 8V7.5C15.5 6.83696 15.2366 6.20107 14.7678 5.73223C14.2989 5.26339 13.663 5 13 5ZM14.5 8C14.4998 8.32349 14.395 8.63824 14.2013 8.8973C14.0075 9.15636 13.7352 9.34585 13.425 9.4375C13.4745 9.12745 13.4996 8.81398 13.5 8.5V6.08625C13.7924 6.18962 14.0455 6.38107 14.2246 6.63425C14.4037 6.88743 14.4999 7.18989 14.5 7.5V8ZM7 3.5V1.5C7 1.36739 7.05268 1.24021 7.14645 1.14645C7.24021 1.05268 7.36739 1 7.5 1C7.63261 1 7.75979 1.05268 7.85355 1.14645C7.94732 1.24021 8 1.36739 8 1.5V3.5C8 3.63261 7.94732 3.75979 7.85355 3.85355C7.75979 3.94732 7.63261 4 7.5 4C7.36739 4 7.24021 3.94732 7.14645 3.85355C7.05268 3.75979 7 3.63261 7 3.5ZM9 3.5V1.5C9 1.36739 9.05268 1.24021 9.14645 1.14645C9.24021 1.05268 9.36739 1 9.5 1C9.63261 1 9.75979 1.05268 9.85355 1.14645C9.94732 1.24021 10 1.36739 10 1.5V3.5C10 3.63261 9.94732 3.75979 9.85355 3.85355C9.75979 3.94732 9.63261 4 9.5 4C9.36739 4 9.24021 3.94732 9.14645 3.85355C9.05268 3.75979 9 3.63261 9 3.5ZM5 3.5V1.5C5 1.36739 5.05268 1.24021 5.14645 1.14645C5.24021 1.05268 5.36739 1 5.5 1C5.63261 1 5.75979 1.05268 5.85355 1.14645C5.94732 1.24021 6 1.36739 6 1.5V3.5C6 3.63261 5.94732 3.75979 5.85355 3.85355C5.75979 3.94732 5.63261 4 5.5 4C5.36739 4 5.24021 3.94732 5.14645 3.85355C5.05268 3.75979 5 3.63261 5 3.5Z" fill="black"/>
</g>
<defs>
<clipPath id="clip0_5_982">
<rect width="16" height="16" fill="white"/>
</clipPath>
</defs>
</svg>
