<svg width="16" height="16" viewBox="0 0 16 16" fill="none" xmlns="http://www.w3.org/2000/svg">
<g clip-path="url(#clip0_5_661)">
<path d="M4.45126 11.9044C3.78181 12.2082 3.06756 12.4015 2.33626 12.4769C2.28798 12.4819 2.23927 12.4727 2.1961 12.4505C2.15293 12.4283 2.11715 12.3941 2.09314 12.3519C1.55126 11.3969 1.37314 10.2087 1.59314 8.90499C1.87376 7.22249 2.78626 5.53812 4.16314 4.16124C5.54001 2.78437 7.22564 1.87187 8.90689 1.59124C10.3313 1.35437 11.6175 1.59124 12.6125 2.25374C12.6532 2.28048 12.6852 2.31854 12.7046 2.36323C12.724 2.40792 12.7299 2.4573 12.7216 2.5053C12.7133 2.5533 12.6912 2.59783 12.6579 2.63342C12.6247 2.669 12.5817 2.6941 12.5344 2.70562C12.066 2.81726 11.6093 2.97339 11.1706 3.17187C9.81001 3.79062 8.07064 5.11312 7.51314 7.90312C7.13126 9.79562 6.10189 11.1419 4.45126 11.9044ZM13.9069 3.64874C13.8829 3.60666 13.8472 3.57244 13.8042 3.55025C13.7611 3.52806 13.7126 3.51885 13.6644 3.52374C12.9328 3.5986 12.2183 3.79196 11.5488 4.09624C9.89814 4.85874 8.86876 6.20499 8.49001 8.09624C7.93189 10.8862 6.19314 12.2087 4.83251 12.8275C4.39381 13.026 3.93715 13.1821 3.46876 13.2937C3.42037 13.3047 3.37631 13.3297 3.34221 13.3658C3.30811 13.4018 3.2855 13.4472 3.27725 13.4961C3.26901 13.545 3.27551 13.5953 3.29592 13.6405C3.31634 13.6857 3.34974 13.7238 3.39189 13.75C4.13376 14.245 5.03689 14.5 6.03876 14.5C6.39313 14.499 6.74682 14.4689 7.09626 14.41C8.77814 14.1294 10.4631 13.2169 11.84 11.84C13.2169 10.4631 14.1294 8.77749 14.41 7.09624C14.625 5.79249 14.4488 4.60374 13.9069 3.64874Z" fill="black"/>
</g>
<defs>
<clipPath id="clip0_5_661">
<rect width="16" height="16" fill="white"/>
</clipPath>
</defs>
</svg>
