<svg width="16" height="16" viewBox="0 0 16 16" fill="none" xmlns="http://www.w3.org/2000/svg">
<g clip-path="url(#clip0_5_975)">
<path d="M9 3V13C9 13.2652 8.89464 13.5196 8.70711 13.7071C8.51957 13.8946 8.26522 14 8 14H6.5C6.23478 14 5.98043 13.8946 5.79289 13.7071C5.60536 13.5196 5.5 13.2652 5.5 13V3C5.5 2.73478 5.60536 2.48043 5.79289 2.29289C5.98043 2.10536 6.23478 2 6.5 2H8C8.26522 2 8.51957 2.10536 8.70711 2.29289C8.89464 2.48043 9 2.73478 9 3ZM12.5 2H11C10.7348 2 10.4804 2.10536 10.2929 2.29289C10.1054 2.48043 10 2.73478 10 3V13C10 13.2652 10.1054 13.5196 10.2929 13.7071C10.4804 13.8946 10.7348 14 11 14H12.5C12.7652 14 13.0196 13.8946 13.2071 13.7071C13.3946 13.5196 13.5 13.2652 13.5 13V3C13.5 2.73478 13.3946 2.48043 13.2071 2.29289C13.0196 2.10536 12.7652 2 12.5 2ZM4 7.5H3V6.5C3 6.36739 2.94732 6.24021 2.85355 6.14645C2.75979 6.05268 2.63261 6 2.5 6C2.36739 6 2.24021 6.05268 2.14645 6.14645C2.05268 6.24021 2 6.36739 2 6.5V7.5H1C0.867392 7.5 0.740215 7.55268 0.646447 7.64645C0.552678 7.74021 0.5 7.86739 0.5 8C0.5 8.13261 0.552678 8.25979 0.646447 8.35355C0.740215 8.44732 0.867392 8.5 1 8.5H2V9.5C2 9.63261 2.05268 9.75979 2.14645 9.85355C2.24021 9.94732 2.36739 10 2.5 10C2.63261 10 2.75979 9.94732 2.85355 9.85355C2.94732 9.75979 3 9.63261 3 9.5V8.5H4C4.13261 8.5 4.25979 8.44732 4.35355 8.35355C4.44732 8.25979 4.5 8.13261 4.5 8C4.5 7.86739 4.44732 7.74021 4.35355 7.64645C4.25979 7.55268 4.13261 7.5 4 7.5Z" fill="black"/>
</g>
<defs>
<clipPath id="clip0_5_975">
<rect width="16" height="16" fill="white"/>
</clipPath>
</defs>
</svg>
