<svg width="16" height="16" viewBox="0 0 16 16" fill="none" xmlns="http://www.w3.org/2000/svg">
<g clip-path="url(#clip0_5_977)">
<path d="M7.5 3V13C7.5 13.2652 7.39464 13.5196 7.20711 13.7071C7.01957 13.8946 6.76522 14 6.5 14H4C3.73478 14 3.48043 13.8946 3.29289 13.7071C3.10536 13.5196 3 13.2652 3 13V3C3 2.73478 3.10536 2.48043 3.29289 2.29289C3.48043 2.10536 3.73478 2 4 2H6.5C6.76522 2 7.01957 2.10536 7.20711 2.29289C7.39464 2.48043 7.5 2.73478 7.5 3ZM12 2H9.5C9.23478 2 8.98043 2.10536 8.79289 2.29289C8.60536 2.48043 8.5 2.73478 8.5 3V13C8.5 13.2652 8.60536 13.5196 8.79289 13.7071C8.98043 13.8946 9.23478 14 9.5 14H12C12.2652 14 12.5196 13.8946 12.7071 13.7071C12.8946 13.5196 13 13.2652 13 13V3C13 2.73478 12.8946 2.48043 12.7071 2.29289C12.5196 2.10536 12.2652 2 12 2Z" fill="black"/>
</g>
<defs>
<clipPath id="clip0_5_977">
<rect width="16" height="16" fill="white"/>
</clipPath>
</defs>
</svg>
