<svg width="16" height="16" viewBox="0 0 16 16" fill="none" xmlns="http://www.w3.org/2000/svg">
<g clip-path="url(#clip0_5_653)">
<path d="M7.25 7.25H8.75V8.75H7.25V7.25ZM5.375 4.5C5.14294 4.5 4.92038 4.59219 4.75628 4.75628C4.59219 4.92038 4.5 5.14294 4.5 5.375C4.5 5.60706 4.59219 5.82962 4.75628 5.99372C4.92038 6.15781 5.14294 6.25 5.375 6.25H6.25V5.375C6.25 5.14294 6.15781 4.92038 5.99372 4.75628C5.82962 4.59219 5.60706 4.5 5.375 4.5ZM11.5 5.375C11.5 5.14294 11.4078 4.92038 11.2437 4.75628C11.0796 4.59219 10.8571 4.5 10.625 4.5C10.3929 4.5 10.1704 4.59219 10.0063 4.75628C9.84219 4.92038 9.75 5.14294 9.75 5.375V6.25H10.625C10.8571 6.25 11.0796 6.15781 11.2437 5.99372C11.4078 5.82962 11.5 5.60706 11.5 5.375ZM4.5 10.625C4.5 10.8571 4.59219 11.0796 4.75628 11.2437C4.92038 11.4078 5.14294 11.5 5.375 11.5C5.60706 11.5 5.82962 11.4078 5.99372 11.2437C6.15781 11.0796 6.25 10.8571 6.25 10.625V9.75H5.375C5.14294 9.75 4.92038 9.84219 4.75628 10.0063C4.59219 10.1704 4.5 10.3929 4.5 10.625ZM14 3V13C14 13.2652 13.8946 13.5196 13.7071 13.7071C13.5196 13.8946 13.2652 14 13 14H3C2.73478 14 2.48043 13.8946 2.29289 13.7071C2.10536 13.5196 2 13.2652 2 13V3C2 2.73478 2.10536 2.48043 2.29289 2.29289C2.48043 2.10536 2.73478 2 3 2H13C13.2652 2 13.5196 2.10536 13.7071 2.29289C13.8946 2.48043 14 2.73478 14 3ZM9.75 8.75V7.25H10.625C10.9958 7.25 11.3584 7.14003 11.6667 6.93401C11.975 6.72798 12.2154 6.43514 12.3573 6.09253C12.4992 5.74992 12.5363 5.37292 12.464 5.00921C12.3916 4.64549 12.213 4.3114 11.9508 4.04917C11.6886 3.78695 11.3545 3.60837 10.9908 3.53603C10.6271 3.46368 10.2501 3.50081 9.90747 3.64273C9.56486 3.78464 9.27202 4.02496 9.06599 4.33331C8.85997 4.64165 8.75 5.00416 8.75 5.375V6.25H7.25V5.375C7.25 5.00416 7.14003 4.64165 6.93401 4.33331C6.72798 4.02496 6.43514 3.78464 6.09253 3.64273C5.74992 3.50081 5.37292 3.46368 5.00921 3.53603C4.64549 3.60837 4.3114 3.78695 4.04917 4.04917C3.78695 4.3114 3.60837 4.64549 3.53603 5.00921C3.46368 5.37292 3.50081 5.74992 3.64273 6.09253C3.78464 6.43514 4.02496 6.72798 4.33331 6.93401C4.64165 7.14003 5.00416 7.25 5.375 7.25H6.25V8.75H5.375C5.00416 8.75 4.64165 8.85997 4.33331 9.06599C4.02496 9.27202 3.78464 9.56486 3.64273 9.90747C3.50081 10.2501 3.46368 10.6271 3.53603 10.9908C3.60837 11.3545 3.78695 11.6886 4.04917 11.9508C4.3114 12.213 4.64549 12.3916 5.00921 12.464C5.37292 12.5363 5.74992 12.4992 6.09253 12.3573C6.43514 12.2154 6.72798 11.975 6.93401 11.6667C7.14003 11.3584 7.25 10.9958 7.25 10.625V9.75H8.75V10.625C8.75 10.9958 8.85997 11.3584 9.06599 11.6667C9.27202 11.975 9.56486 12.2154 9.90747 12.3573C10.2501 12.4992 10.6271 12.5363 10.9908 12.464C11.3545 12.3916 11.6886 12.213 11.9508 11.9508C12.213 11.6886 12.3916 11.3545 12.464 10.9908C12.5363 10.6271 12.4992 10.2501 12.3573 9.90747C12.2154 9.56486 11.975 9.27202 11.6667 9.06599C11.3584 8.85997 10.9958 8.75 10.625 8.75H9.75ZM9.75 10.625C9.75 10.7981 9.80132 10.9672 9.89746 11.1111C9.99361 11.255 10.1303 11.3672 10.2902 11.4334C10.45 11.4996 10.626 11.5169 10.7957 11.4832C10.9654 11.4494 11.1213 11.3661 11.2437 11.2437C11.3661 11.1213 11.4494 10.9654 11.4832 10.7957C11.5169 10.626 11.4996 10.45 11.4334 10.2902C11.3672 10.1303 11.255 9.99361 11.1111 9.89746C10.9672 9.80132 10.7981 9.75 10.625 9.75H9.75V10.625Z" fill="black"/>
</g>
<defs>
<clipPath id="clip0_5_653">
<rect width="16" height="16" fill="white"/>
</clipPath>
</defs>
</svg>
