<svg width="16" height="16" viewBox="0 0 16 16" fill="none" xmlns="http://www.w3.org/2000/svg">
<g clip-path="url(#clip0_5_1088)">
<path d="M12 1.5H4C3.73478 1.5 3.48043 1.60536 3.29289 1.79289C3.10536 1.98043 3 2.23478 3 2.5V13.5C3 13.7652 3.10536 14.0196 3.29289 14.2071C3.48043 14.3946 3.73478 14.5 4 14.5H12C12.2652 14.5 12.5196 14.3946 12.7071 14.2071C12.8946 14.0196 13 13.7652 13 13.5V2.5C13 2.23478 12.8946 1.98043 12.7071 1.79289C12.5196 1.60536 12.2652 1.5 12 1.5ZM8 12C7.85166 12 7.70666 11.956 7.58332 11.8736C7.45999 11.7912 7.36386 11.6741 7.30709 11.537C7.25032 11.4 7.23547 11.2492 7.26441 11.1037C7.29335 10.9582 7.36478 10.8246 7.46967 10.7197C7.57456 10.6148 7.7082 10.5434 7.85368 10.5144C7.99917 10.4855 8.14997 10.5003 8.28701 10.5571C8.42406 10.6139 8.54119 10.71 8.6236 10.8333C8.70601 10.9567 8.75 11.1017 8.75 11.25C8.75 11.4489 8.67098 11.6397 8.53033 11.7803C8.38968 11.921 8.19891 12 8 12ZM10 7H6C5.86739 7 5.74021 6.94732 5.64645 6.85355C5.55268 6.75979 5.5 6.63261 5.5 6.5C5.5 6.36739 5.55268 6.24021 5.64645 6.14645C5.74021 6.05268 5.86739 6 6 6H10C10.1326 6 10.2598 6.05268 10.3536 6.14645C10.4473 6.24021 10.5 6.36739 10.5 6.5C10.5 6.63261 10.4473 6.75979 10.3536 6.85355C10.2598 6.94732 10.1326 7 10 7ZM10 5H6C5.86739 5 5.74021 4.94732 5.64645 4.85355C5.55268 4.75979 5.5 4.63261 5.5 4.5C5.5 4.36739 5.55268 4.24021 5.64645 4.14645C5.74021 4.05268 5.86739 4 6 4H10C10.1326 4 10.2598 4.05268 10.3536 4.14645C10.4473 4.24021 10.5 4.36739 10.5 4.5C10.5 4.63261 10.4473 4.75979 10.3536 4.85355C10.2598 4.94732 10.1326 5 10 5Z" fill="black"/>
</g>
<defs>
<clipPath id="clip0_5_1088">
<rect width="16" height="16" fill="white"/>
</clipPath>
</defs>
</svg>
