<svg width="16" height="16" viewBox="0 0 16 16" fill="none" xmlns="http://www.w3.org/2000/svg">
<g clip-path="url(#clip0_5_1490)">
<path d="M15.6212 7.51499L13.9306 7.09249C13.7386 5.82893 13.1476 4.65989 12.2438 3.75616C11.3401 2.85243 10.171 2.26138 8.90749 2.06937L8.48499 0.381866C8.45789 0.273752 8.39545 0.177791 8.30758 0.109225C8.21971 0.0406586 8.11145 0.00341797 7.99999 0.00341797C7.88853 0.00341797 7.78027 0.0406586 7.6924 0.109225C7.60453 0.177791 7.54209 0.273752 7.51499 0.381866L7.09249 2.07249C5.82893 2.26451 4.65989 2.85556 3.75616 3.75928C2.85243 4.66301 2.26138 5.83206 2.06937 7.09562L0.381866 7.51812C0.273752 7.54521 0.177791 7.60765 0.109225 7.69553C0.0406586 7.7834 0.00341797 7.89166 0.00341797 8.00312C0.00341797 8.11457 0.0406586 8.22283 0.109225 8.31071C0.177791 8.39858 0.273752 8.46102 0.381866 8.48812L2.07249 8.91062C2.26451 10.1742 2.85556 11.3432 3.75928 12.2469C4.66301 13.1507 5.83206 13.7417 7.09562 13.9337L7.51812 15.6244C7.54521 15.7325 7.60765 15.8284 7.69553 15.897C7.7834 15.9656 7.89166 16.0028 8.00312 16.0028C8.11457 16.0028 8.22283 15.9656 8.31071 15.897C8.39858 15.8284 8.46102 15.7325 8.48812 15.6244L8.91062 13.9337C10.1742 13.7417 11.3432 13.1507 12.2469 12.2469C13.1507 11.3432 13.7417 10.1742 13.9337 8.91062L15.6244 8.48812C15.7325 8.46102 15.8284 8.39858 15.897 8.31071C15.9656 8.22283 16.0028 8.11457 16.0028 8.00312C16.0028 7.89166 15.9656 7.7834 15.897 7.69553C15.8284 7.60765 15.7325 7.54521 15.6244 7.51812L15.6212 7.51499ZM12.8606 6.82749L9.91249 6.08749L9.17499 3.13937C10.0692 3.35459 10.8866 3.81266 11.537 4.46302C12.1873 5.11339 12.6454 5.93077 12.8606 6.82499V6.82749ZM6.82499 3.13999L6.08749 6.08749L3.13937 6.82499C3.35459 5.93077 3.81266 5.11339 4.46302 4.46302C5.11339 3.81266 5.93077 3.35459 6.82499 3.13937V3.13999ZM3.13749 9.17562L6.08749 9.91249L6.82499 12.8606C5.93077 12.6454 5.11339 12.1873 4.46302 11.537C3.81266 10.8866 3.35459 10.0692 3.13937 9.17499L3.13749 9.17562ZM9.17312 12.8631L9.91062 9.91499L12.8587 9.17749C12.6433 10.071 12.1853 10.8877 11.5353 11.5376C10.8853 12.1875 10.0686 12.6453 9.17499 12.8606L9.17312 12.8631Z" fill="black"/>
</g>
<defs>
<clipPath id="clip0_5_1490">
<rect width="16" height="16" fill="white"/>
</clipPath>
</defs>
</svg>
