<svg width="16" height="16" viewBox="0 0 16 16" fill="none" xmlns="http://www.w3.org/2000/svg">
<g clip-path="url(#clip0_5_1085)">
<path d="M6.96817 3.28938C6.85074 3.17225 6.7057 3.08659 6.54643 3.0403C6.38716 2.99401 6.2188 2.98858 6.05688 3.02451C5.89496 3.06045 5.7447 3.13659 5.61996 3.2459C5.49523 3.35522 5.40004 3.49419 5.34317 3.65L2.06255 12.6737C2.00865 12.8226 1.99125 12.9821 2.01178 13.139C2.03232 13.296 2.09021 13.4457 2.18058 13.5756C2.27095 13.7055 2.39117 13.8119 2.53115 13.8857C2.67113 13.9596 2.82679 13.9988 2.98505 14C3.10157 13.9992 3.21706 13.9781 3.3263 13.9375L12.3494 10.6562C12.5053 10.5995 12.6443 10.5043 12.7537 10.3796C12.8631 10.2549 12.9393 10.1047 12.9753 9.94273C13.0113 9.7808 13.0059 9.61242 12.9597 9.45311C12.9134 9.29381 12.8278 9.14873 12.7107 9.03125L6.96817 3.28938ZM4.0713 10.0706L5.2713 6.77125L9.2288 10.7288L5.9288 11.9288L4.0713 10.0706ZM10 4.5C10.0094 4.16198 10.0913 3.82992 10.24 3.52625C10.5713 2.86437 11.1963 2.5 12 2.5C12.4188 2.5 12.6875 2.35688 12.8532 2.04938C12.9404 1.87734 12.9904 1.68889 13 1.49625C13.0005 1.36364 13.0537 1.23666 13.1478 1.14325C13.2419 1.04983 13.3693 0.997628 13.5019 0.998125C13.6345 0.998622 13.7615 1.05178 13.8549 1.1459C13.9483 1.24002 14.0005 1.36739 14 1.5C14 2.30375 13.4675 3.5 12 3.5C11.5813 3.5 11.3125 3.64313 11.1469 3.95062C11.0597 4.12266 11.0097 4.31111 11 4.50375C10.9998 4.56941 10.9866 4.63438 10.9613 4.69495C10.9359 4.75552 10.8989 4.8105 10.8523 4.85675C10.8057 4.90301 10.7504 4.93963 10.6897 4.96453C10.6289 4.98943 10.5638 5.00212 10.4982 5.00187C10.4325 5.00163 10.3675 4.98845 10.307 4.9631C10.2464 4.93774 10.1914 4.90071 10.1452 4.8541C10.0989 4.8075 10.0623 4.75224 10.0374 4.69148C10.0125 4.63073 9.9998 4.56566 10 4.5ZM8.50005 2.5V1C8.50005 0.867392 8.55273 0.740215 8.64649 0.646447C8.74026 0.552678 8.86744 0.5 9.00005 0.5C9.13266 0.5 9.25983 0.552678 9.3536 0.646447C9.44737 0.740215 9.50005 0.867392 9.50005 1V2.5C9.50005 2.63261 9.44737 2.75979 9.3536 2.85355C9.25983 2.94732 9.13266 3 9.00005 3C8.86744 3 8.74026 2.94732 8.64649 2.85355C8.55273 2.75979 8.50005 2.63261 8.50005 2.5ZM14.8538 7.64625C14.9002 7.6927 14.937 7.74785 14.9621 7.80853C14.9872 7.86921 15.0001 7.93424 15.0001 7.99991C15.0001 8.06558 14.9871 8.1306 14.962 8.19126C14.9368 8.25191 14.8999 8.30702 14.8535 8.35344C14.807 8.39985 14.7519 8.43666 14.6912 8.46176C14.6305 8.48687 14.5655 8.49977 14.4998 8.49974C14.4342 8.49972 14.3691 8.48675 14.3085 8.4616C14.2478 8.43644 14.1927 8.39958 14.1463 8.35312L13.1463 7.35313C13.0525 7.25931 12.9998 7.13206 12.9998 6.99937C12.9998 6.86669 13.0525 6.73945 13.1463 6.64563C13.2401 6.5518 13.3674 6.4991 13.5 6.4991C13.6327 6.4991 13.76 6.5518 13.8538 6.64563L14.8538 7.64625ZM15.1582 4.97437L13.6582 5.47437C13.5324 5.51631 13.395 5.50655 13.2764 5.44725C13.1578 5.38794 13.0676 5.28394 13.0257 5.15812C12.9837 5.03231 12.9935 4.89499 13.0528 4.77638C13.1121 4.65776 13.2161 4.56756 13.3419 4.52563L14.8419 4.02563C14.9677 3.98369 15.1051 3.99345 15.2237 4.05275C15.3423 4.11206 15.4325 4.21606 15.4744 4.34188C15.5164 4.46769 15.5066 4.60501 15.4473 4.72362C15.388 4.84224 15.284 4.93244 15.1582 4.97437Z" fill="black"/>
</g>
<defs>
<clipPath id="clip0_5_1085">
<rect width="16" height="16" fill="white"/>
</clipPath>
</defs>
</svg>
