<svg width="16" height="16" viewBox="0 0 16 16" fill="none" xmlns="http://www.w3.org/2000/svg">
<g clip-path="url(#clip0_5_970)">
<path d="M12.9618 7.69128C12.924 7.78265 12.8599 7.86075 12.7777 7.91571C12.6955 7.97066 12.5988 8.00001 12.4999 8.00003H3.49991C3.40096 8.0001 3.30421 7.97082 3.22191 7.91589C3.13962 7.86095 3.07547 7.78283 3.03759 7.69142C2.99972 7.60001 2.98982 7.49942 3.00914 7.40237C3.02847 7.30533 3.07615 7.2162 3.14616 7.14628L7.64616 2.64628C7.69259 2.59979 7.74774 2.56291 7.80844 2.53775C7.86913 2.51259 7.9342 2.49963 7.99991 2.49963C8.06561 2.49963 8.13068 2.51259 8.19138 2.53775C8.25207 2.56291 8.30722 2.59979 8.35366 2.64628L12.8537 7.14628C12.9236 7.21624 12.9711 7.30537 12.9904 7.40238C13.0096 7.49939 12.9997 7.59993 12.9618 7.69128Z" fill="black"/>
</g>
<defs>
<clipPath id="clip0_5_970">
<rect width="16" height="16" fill="white"/>
</clipPath>
</defs>
</svg>
