<svg width="16" height="16" viewBox="0 0 16 16" fill="none" xmlns="http://www.w3.org/2000/svg">
<g clip-path="url(#clip0_5_1496)">
<path d="M8 1.5C6.71442 1.5 5.45772 1.88122 4.3888 2.59545C3.31988 3.30968 2.48676 4.32484 1.99479 5.51256C1.50282 6.70028 1.37409 8.00721 1.6249 9.26809C1.8757 10.529 2.49477 11.6872 3.40381 12.5962C4.31285 13.5052 5.47104 14.1243 6.73192 14.3751C7.99279 14.6259 9.29973 14.4972 10.4874 14.0052C11.6752 13.5132 12.6903 12.6801 13.4046 11.6112C14.1188 10.5423 14.5 9.28558 14.5 8C14.4982 6.27665 13.8128 4.62441 12.5942 3.40582C11.3756 2.18722 9.72335 1.50182 8 1.5ZM6.06688 9.73375C6.03699 9.79319 5.99554 9.84608 5.94496 9.8893C5.89438 9.93252 5.83568 9.96521 5.7723 9.98545C5.70892 10.0057 5.64214 10.0131 5.57587 10.0072C5.5096 10.0013 5.44517 9.98224 5.38636 9.95113C5.32754 9.92002 5.27553 9.87748 5.23337 9.82602C5.19121 9.77455 5.15974 9.71518 5.14081 9.6514C5.12189 9.58761 5.11588 9.52069 5.12315 9.45456C5.13041 9.38842 5.1508 9.3244 5.18313 9.26625C5.39237 8.87699 5.50189 8.44194 5.50189 8C5.50189 7.55806 5.39237 7.12301 5.18313 6.73375C5.12437 6.61688 5.11375 6.48163 5.15356 6.35702C5.19336 6.23241 5.28042 6.12836 5.39605 6.06719C5.51168 6.00602 5.64668 5.99261 5.77209 6.02982C5.8975 6.06703 6.00333 6.15191 6.06688 6.26625C6.34944 6.80047 6.49715 7.39566 6.49715 8C6.49715 8.60434 6.34944 9.19953 6.06688 9.73375ZM7.81688 10.7338C7.78668 10.7929 7.74502 10.8454 7.69431 10.8882C7.64361 10.9311 7.58488 10.9634 7.52155 10.9833C7.45823 11.0032 7.39157 11.0103 7.32547 11.0042C7.25937 10.9981 7.19516 10.9788 7.13657 10.9476C7.07797 10.9164 7.02618 10.8739 6.98421 10.8224C6.94224 10.771 6.91094 10.7117 6.89212 10.6481C6.8733 10.5844 6.86734 10.5176 6.8746 10.4517C6.88185 10.3857 6.90217 10.3218 6.93438 10.2638C7.30584 9.56656 7.50013 8.78872 7.50013 7.99875C7.50013 7.20878 7.30584 6.43094 6.93438 5.73375C6.90217 5.6757 6.88185 5.61182 6.8746 5.54584C6.86734 5.47986 6.8733 5.41309 6.89212 5.34943C6.91094 5.28577 6.94224 5.2265 6.98421 5.17507C7.02618 5.12363 7.07797 5.08108 7.13657 5.04987C7.19516 5.01867 7.25937 4.99944 7.32547 4.99332C7.39157 4.98719 7.45823 4.99429 7.52155 5.0142C7.58488 5.03411 7.64361 5.06643 7.69431 5.10928C7.74502 5.15212 7.78668 5.20463 7.81688 5.26375C8.26587 6.10571 8.50067 7.04526 8.50057 7.99945C8.50046 8.95365 8.26544 9.89314 7.81625 10.735L7.81688 10.7338ZM9.56688 11.7338C9.49902 11.8396 9.3938 11.9159 9.27218 11.9476C9.15056 11.9793 9.02145 11.9641 8.91057 11.9049C8.79968 11.8457 8.71516 11.7469 8.67382 11.6282C8.63248 11.5095 8.63737 11.3796 8.6875 11.2644C9.22529 10.2603 9.50668 9.13899 9.50668 8C9.50668 6.86101 9.22529 5.73966 8.6875 4.73562C8.62501 4.6186 8.61157 4.48154 8.65013 4.3546C8.68869 4.22766 8.7761 4.12124 8.89313 4.05875C9.01015 3.99626 9.14721 3.98282 9.27415 4.02138C9.40109 4.05994 9.50751 4.14735 9.57 4.26438C10.1845 5.41375 10.5057 6.69706 10.5052 8.00039C10.5047 9.30373 10.1823 10.5868 9.56688 11.7356V11.7338Z" fill="black"/>
</g>
<defs>
<clipPath id="clip0_5_1496">
<rect width="16" height="16" fill="white"/>
</clipPath>
</defs>
</svg>
