<svg width="16" height="16" viewBox="0 0 16 16" fill="none" xmlns="http://www.w3.org/2000/svg">
<g clip-path="url(#clip0_5_1078)">
<path d="M5.5 3V1C5.5 0.867392 5.55268 0.740215 5.64645 0.646447C5.74022 0.552678 5.86739 0.5 6 0.5C6.13261 0.5 6.25979 0.552678 6.35356 0.646447C6.44732 0.740215 6.5 0.867392 6.5 1V3C6.5 3.13261 6.44732 3.25979 6.35356 3.35355C6.25979 3.44732 6.13261 3.5 6 3.5C5.86739 3.5 5.74022 3.44732 5.64645 3.35355C5.55268 3.25979 5.5 3.13261 5.5 3ZM8 3.5C8.13261 3.5 8.25979 3.44732 8.35356 3.35355C8.44732 3.25979 8.5 3.13261 8.5 3V1C8.5 0.867392 8.44732 0.740215 8.35356 0.646447C8.25979 0.552678 8.13261 0.5 8 0.5C7.86739 0.5 7.74022 0.552678 7.64645 0.646447C7.55268 0.740215 7.5 0.867392 7.5 1V3C7.5 3.13261 7.55268 3.25979 7.64645 3.35355C7.74022 3.44732 7.86739 3.5 8 3.5ZM10 3.5C10.1326 3.5 10.2598 3.44732 10.3536 3.35355C10.4473 3.25979 10.5 3.13261 10.5 3V1C10.5 0.867392 10.4473 0.740215 10.3536 0.646447C10.2598 0.552678 10.1326 0.5 10 0.5C9.86739 0.5 9.74022 0.552678 9.64645 0.646447C9.55268 0.740215 9.5 0.867392 9.5 1V3C9.5 3.13261 9.55268 3.25979 9.64645 3.35355C9.74022 3.44732 9.86739 3.5 10 3.5ZM15.9 5.7C15.8204 5.59391 15.702 5.52378 15.5707 5.50503C15.4394 5.48627 15.3061 5.52043 15.2 5.6L14 6.5V5C14 4.86739 13.9473 4.74021 13.8536 4.64645C13.7598 4.55268 13.6326 4.5 13.5 4.5H2.5C2.36739 4.5 2.24022 4.55268 2.14645 4.64645C2.05268 4.74021 2 4.86739 2 5V6.5L0.800002 5.6C0.693915 5.52043 0.560567 5.48627 0.429291 5.50503C0.298016 5.52378 0.179567 5.59391 0.100002 5.7C0.0204371 5.80609 -0.0137263 5.93944 0.0050273 6.07071C0.0237809 6.20199 0.0939155 6.32044 0.200002 6.4L2 7.75V11.5C2 12.0304 2.21072 12.5391 2.58579 12.9142C2.96086 13.2893 3.46957 13.5 4 13.5H12C12.5304 13.5 13.0391 13.2893 13.4142 12.9142C13.7893 12.5391 14 12.0304 14 11.5V7.75L15.8 6.4C15.8525 6.3606 15.8968 6.31125 15.9302 6.25475C15.9637 6.19825 15.9857 6.13571 15.995 6.07071C16.0043 6.00571 16.0007 5.93952 15.9844 5.87591C15.9681 5.8123 15.9394 5.75253 15.9 5.7Z" fill="black"/>
</g>
<defs>
<clipPath id="clip0_5_1078">
<rect width="16" height="16" fill="white"/>
</clipPath>
</defs>
</svg>
