<svg width="16" height="16" viewBox="0 0 16 16" fill="none" xmlns="http://www.w3.org/2000/svg">
<g clip-path="url(#clip0_5_1081)">
<path d="M14 7.5C13.337 7.5 12.7011 7.23661 12.2322 6.76777C11.7634 6.29893 11.5 5.66304 11.5 5C11.5 4.86739 11.4473 4.74021 11.3536 4.64645C11.2598 4.55268 11.1326 4.5 11 4.5C10.337 4.5 9.70108 4.23661 9.23224 3.76777C8.76339 3.29893 8.5 2.66304 8.5 2C8.5 1.86739 8.44732 1.74021 8.35356 1.64645C8.25979 1.55268 8.13261 1.5 8 1.5C6.71442 1.5 5.45772 1.88122 4.3888 2.59545C3.31988 3.30968 2.48676 4.32484 1.99479 5.51256C1.50282 6.70028 1.37409 8.00721 1.6249 9.26809C1.8757 10.529 2.49477 11.6872 3.40381 12.5962C4.31285 13.5052 5.47104 14.1243 6.73192 14.3751C7.99279 14.6259 9.29973 14.4972 10.4874 14.0052C11.6752 13.5132 12.6903 12.6801 13.4046 11.6112C14.1188 10.5423 14.5 9.28558 14.5 8C14.5 7.86739 14.4473 7.74021 14.3536 7.64645C14.2598 7.55268 14.1326 7.5 14 7.5ZM4.71938 6.21938C4.82437 6.11475 4.95801 6.04357 5.10343 6.01485C5.24884 5.98612 5.39951 6.00112 5.5364 6.05796C5.67329 6.11481 5.79027 6.21094 5.87257 6.33422C5.95487 6.4575 5.99879 6.6024 5.99879 6.75063C5.99879 6.89885 5.95487 7.04375 5.87257 7.16703C5.79027 7.29031 5.67329 7.38644 5.5364 7.44329C5.39951 7.50013 5.24884 7.51513 5.10343 7.4864C4.95801 7.45768 4.82437 7.3865 4.71938 7.28188C4.64946 7.2122 4.59398 7.1294 4.55613 7.03824C4.51827 6.94708 4.49879 6.84934 4.49879 6.75063C4.49879 6.65191 4.51827 6.55417 4.55613 6.46301C4.59398 6.37185 4.64946 6.28905 4.71938 6.21938ZM6.28188 10.7819C6.17689 10.8865 6.04324 10.9577 5.89783 10.9864C5.75241 11.0151 5.60175 11.0001 5.46486 10.9433C5.32796 10.8864 5.21098 10.7903 5.12869 10.667C5.04639 10.5438 5.00247 10.3988 5.00247 10.2506C5.00247 10.1024 5.04639 9.9575 5.12869 9.83422C5.21098 9.71094 5.32796 9.61481 5.46486 9.55796C5.60175 9.50112 5.75241 9.48612 5.89783 9.51485C6.04324 9.54357 6.17689 9.61475 6.28188 9.71937C6.35153 9.78911 6.40675 9.87189 6.44439 9.96299C6.48202 10.0541 6.50133 10.1517 6.50122 10.2503C6.5011 10.3488 6.48156 10.4464 6.44371 10.5374C6.40586 10.6284 6.35044 10.7111 6.28063 10.7806L6.28188 10.7819ZM7.71938 8.28187C7.61475 8.17688 7.54358 8.04324 7.51485 7.89783C7.48612 7.75241 7.50113 7.60175 7.55797 7.46485C7.61481 7.32796 7.71094 7.21098 7.83422 7.12868C7.9575 7.04639 8.1024 7.00247 8.25063 7.00247C8.39885 7.00247 8.54375 7.04639 8.66704 7.12868C8.79032 7.21098 8.88645 7.32796 8.94329 7.46485C9.00013 7.60175 9.01513 7.75241 8.98641 7.89783C8.95768 8.04324 8.88651 8.17688 8.78188 8.28187C8.71212 8.35171 8.62926 8.40709 8.53805 8.44484C8.44684 8.48259 8.34908 8.50196 8.25037 8.50184C8.15166 8.50173 8.05394 8.48212 7.96282 8.44416C7.8717 8.4062 7.78897 8.35063 7.71938 8.28063V8.28187ZM10.2819 11.2819C10.1769 11.3865 10.0432 11.4577 9.89783 11.4864C9.75241 11.5151 9.60175 11.5001 9.46486 11.4433C9.32796 11.3864 9.21098 11.2903 9.12869 11.167C9.04639 11.0438 9.00247 10.8988 9.00247 10.7506C9.00247 10.6024 9.04639 10.4575 9.12869 10.3342C9.21098 10.2109 9.32796 10.1148 9.46486 10.058C9.60175 10.0011 9.75241 9.98612 9.89783 10.0148C10.0432 10.0436 10.1769 10.1147 10.2819 10.2194C10.3515 10.2891 10.4068 10.3719 10.4444 10.463C10.482 10.5541 10.5013 10.6517 10.5012 10.7503C10.5011 10.8488 10.4816 10.9464 10.4437 11.0374C10.4059 11.1284 10.3504 11.2111 10.2806 11.2806L10.2819 11.2819Z" fill="black"/>
</g>
<defs>
<clipPath id="clip0_5_1081">
<rect width="16" height="16" fill="white"/>
</clipPath>
</defs>
</svg>
