<svg width="16" height="16" viewBox="0 0 16 16" fill="none" xmlns="http://www.w3.org/2000/svg">
<g clip-path="url(#clip0_5_964)">
<path d="M8 3.5C7.10999 3.5 6.23996 3.76392 5.49994 4.25839C4.75992 4.75285 4.18314 5.45566 3.84255 6.27792C3.50195 7.10019 3.41284 8.00499 3.58647 8.87791C3.7601 9.75082 4.18869 10.5526 4.81802 11.182C5.44736 11.8113 6.24918 12.2399 7.1221 12.4135C7.99501 12.5872 8.89981 12.4981 9.72208 12.1575C10.5443 11.8169 11.2471 11.2401 11.7416 10.5001C12.2361 9.76005 12.5 8.89002 12.5 8C12.4987 6.80693 12.0241 5.66311 11.1805 4.81948C10.3369 3.97585 9.19307 3.50132 8 3.5ZM8 11C7.53403 11.0017 7.07415 10.8941 6.65732 10.6858C6.2405 10.4775 5.87835 10.1743 5.6 9.80062C5.52035 9.69454 5.48611 9.56116 5.50481 9.42982C5.5235 9.29849 5.5936 9.17996 5.69969 9.10031C5.80578 9.02066 5.93916 8.98642 6.07049 9.00512C6.20183 9.02381 6.32035 9.09391 6.4 9.2C6.65186 9.53581 7.003 9.78387 7.40367 9.90903C7.80434 10.0342 8.23423 10.0301 8.63246 9.89737C9.03068 9.76463 9.37705 9.50995 9.62249 9.16942C9.86793 8.82889 10 8.41976 10 8C10 7.58024 9.86793 7.17111 9.62249 6.83058C9.37705 6.49005 9.03068 6.23537 8.63246 6.10263C8.23423 5.96989 7.80434 5.96581 7.40367 6.09097C7.003 6.21613 6.65186 6.46419 6.4 6.8C6.32035 6.90609 6.20183 6.97619 6.07049 6.99488C5.93916 7.01358 5.80578 6.97934 5.69969 6.89969C5.5936 6.82004 5.5235 6.70151 5.50481 6.57018C5.48611 6.43884 5.52035 6.30546 5.6 6.19938C5.9069 5.7904 6.31323 5.46666 6.78043 5.25887C7.24762 5.05109 7.76017 4.96617 8.26942 5.01216C8.77866 5.05816 9.2677 5.23356 9.6901 5.5217C10.1125 5.80983 10.4542 6.20115 10.6829 6.6585C10.9115 7.11585 11.0195 7.62404 10.9965 8.13484C10.9735 8.64565 10.8204 9.14209 10.5516 9.57706C10.2828 10.012 9.90727 10.3711 9.4607 10.6201C9.01413 10.8692 8.51132 10.9999 8 11ZM8 1.5C6.71442 1.5 5.45772 1.88122 4.3888 2.59545C3.31988 3.30968 2.48676 4.32484 1.99479 5.51256C1.50282 6.70028 1.37409 8.00721 1.6249 9.26809C1.8757 10.529 2.49477 11.6872 3.40381 12.5962C4.31285 13.5052 5.47104 14.1243 6.73192 14.3751C7.99279 14.6259 9.29973 14.4972 10.4874 14.0052C11.6752 13.5132 12.6903 12.6801 13.4046 11.6112C14.1188 10.5423 14.5 9.28558 14.5 8C14.5 6.27609 13.8152 4.62279 12.5962 3.40381C11.3772 2.18482 9.72391 1.5 8 1.5ZM8 13.5C6.91221 13.5 5.84884 13.1774 4.94437 12.5731C4.0399 11.9687 3.33495 11.1098 2.91867 10.1048C2.50238 9.09977 2.39347 7.9939 2.60568 6.927C2.8179 5.86011 3.34173 4.8801 4.11092 4.11091C4.8801 3.34172 5.86011 2.8179 6.92701 2.60568C7.9939 2.39346 9.09977 2.50238 10.1048 2.91866C11.1098 3.33494 11.9687 4.03989 12.5731 4.94436C13.1774 5.84883 13.5 6.9122 13.5 8C13.4983 9.45818 12.9184 10.8562 11.8873 11.8873C10.8562 12.9184 9.45819 13.4983 8 13.5Z" fill="black"/>
</g>
<defs>
<clipPath id="clip0_5_964">
<rect width="16" height="16" fill="white"/>
</clipPath>
</defs>
</svg>
