<svg width="16" height="16" viewBox="0 0 16 16" fill="none" xmlns="http://www.w3.org/2000/svg">
<g clip-path="url(#clip0_5_963)">
<path d="M8 3.5C7.10999 3.5 6.23996 3.76392 5.49994 4.25839C4.75992 4.75285 4.18314 5.45566 3.84255 6.27792C3.50195 7.10019 3.41284 8.00499 3.58647 8.87791C3.7601 9.75082 4.18869 10.5526 4.81802 11.182C5.44736 11.8113 6.24918 12.2399 7.1221 12.4135C7.99501 12.5872 8.89981 12.4981 9.72208 12.1575C10.5443 11.8169 11.2471 11.2401 11.7416 10.5001C12.2361 9.76005 12.5 8.89002 12.5 8C12.4987 6.80693 12.0241 5.66311 11.1805 4.81948C10.3369 3.97585 9.19307 3.50132 8 3.5ZM8 10C8.31077 10.0011 8.61746 9.92926 8.89544 9.79033C9.17342 9.65139 9.41495 9.4492 9.60063 9.2C9.63963 9.14635 9.68891 9.101 9.74561 9.06658C9.8023 9.03217 9.86528 9.00938 9.93087 8.99954C9.99646 8.9897 10.0634 8.993 10.1277 9.00927C10.192 9.02553 10.2524 9.05442 10.3054 9.09426C10.3584 9.13411 10.403 9.1841 10.4365 9.24133C10.47 9.29857 10.4918 9.3619 10.5006 9.42763C10.5094 9.49337 10.5051 9.56021 10.4878 9.62424C10.4705 9.68828 10.4407 9.74823 10.4 9.80062C10.0221 10.3041 9.49534 10.676 8.89437 10.8635C8.2934 11.051 7.64867 11.0447 7.05147 10.8456C6.45426 10.6464 5.93486 10.2643 5.56681 9.75358C5.19876 9.24283 5.00071 8.62924 5.00071 7.99969C5.00071 7.37014 5.19876 6.75655 5.56681 6.24579C5.93486 5.73504 6.45426 5.35302 7.05147 5.15382C7.64867 4.95463 8.2934 4.94835 8.89437 5.13588C9.49534 5.32342 10.0221 5.69526 10.4 6.19875C10.4407 6.25114 10.4705 6.3111 10.4878 6.37513C10.5051 6.43917 10.5094 6.506 10.5006 6.57174C10.4918 6.63748 10.47 6.70081 10.4365 6.75804C10.403 6.81528 10.3584 6.86527 10.3054 6.90511C10.2524 6.94495 10.192 6.97385 10.1277 6.99011C10.0634 7.00637 9.99646 7.00968 9.93087 6.99984C9.86528 6.99 9.8023 6.96721 9.74561 6.93279C9.68891 6.89838 9.63963 6.85302 9.60063 6.79938C9.39602 6.52679 9.12515 6.31101 8.81371 6.17253C8.50228 6.03405 8.16063 5.97745 7.82117 6.00811C7.48172 6.03877 7.15574 6.15567 6.87416 6.34772C6.59259 6.53977 6.36476 6.80059 6.21231 7.10543C6.05986 7.41027 5.98785 7.74901 6.0031 8.08951C6.01835 8.43 6.12037 8.76094 6.29947 9.05093C6.47856 9.34092 6.7288 9.58032 7.02642 9.74642C7.32404 9.91253 7.65917 9.99981 8 10ZM8 1.5C6.71442 1.5 5.45772 1.88122 4.3888 2.59545C3.31988 3.30968 2.48676 4.32484 1.99479 5.51256C1.50282 6.70028 1.37409 8.00721 1.6249 9.26809C1.8757 10.529 2.49477 11.6872 3.40381 12.5962C4.31285 13.5052 5.47104 14.1243 6.73192 14.3751C7.99279 14.6259 9.29973 14.4972 10.4874 14.0052C11.6752 13.5132 12.6903 12.6801 13.4046 11.6112C14.1188 10.5423 14.5 9.28558 14.5 8C14.4982 6.27665 13.8128 4.62441 12.5942 3.40582C11.3756 2.18722 9.72335 1.50182 8 1.5ZM8 13.5C6.91221 13.5 5.84884 13.1774 4.94437 12.5731C4.0399 11.9687 3.33495 11.1098 2.91867 10.1048C2.50238 9.09977 2.39347 7.9939 2.60568 6.927C2.8179 5.86011 3.34173 4.8801 4.11092 4.11091C4.8801 3.34172 5.86011 2.8179 6.92701 2.60568C7.9939 2.39346 9.09977 2.50238 10.1048 2.91866C11.1098 3.33494 11.9687 4.03989 12.5731 4.94436C13.1774 5.84883 13.5 6.9122 13.5 8C13.4983 9.45818 12.9184 10.8562 11.8873 11.8873C10.8562 12.9184 9.45819 13.4983 8 13.5Z" fill="black"/>
</g>
<defs>
<clipPath id="clip0_5_963">
<rect width="16" height="16" fill="white"/>
</clipPath>
</defs>
</svg>
