<svg width="16" height="16" viewBox="0 0 16 16" fill="none" xmlns="http://www.w3.org/2000/svg">
<g clip-path="url(#clip0_5_961)">
<path d="M9.50003 6.00003V3.00003C9.49995 2.90108 9.52923 2.80433 9.58417 2.72204C9.6391 2.63974 9.71722 2.57559 9.80863 2.53772C9.90004 2.49984 10.0006 2.48994 10.0977 2.50926C10.1947 2.52859 10.2839 2.57627 10.3538 2.64628L13.3538 5.64628C13.4238 5.71621 13.4715 5.80533 13.4908 5.90237C13.5101 5.99942 13.5002 6.10001 13.4623 6.19142C13.4245 6.28283 13.3603 6.36095 13.278 6.41589C13.1957 6.47082 13.099 6.50011 13 6.50003H10C9.86742 6.50003 9.74024 6.44735 9.64647 6.35358C9.55271 6.25981 9.50003 6.13264 9.50003 6.00003ZM6.00003 9.50003H3.00003C2.90108 9.49995 2.80433 9.52923 2.72204 9.58417C2.63974 9.6391 2.57559 9.71722 2.53772 9.80863C2.49984 9.90004 2.48994 10.0006 2.50926 10.0977C2.52859 10.1947 2.57627 10.2839 2.64628 10.3538L5.64628 13.3538C5.71621 13.4238 5.80533 13.4715 5.90237 13.4908C5.99942 13.5101 6.10001 13.5002 6.19142 13.4623C6.28283 13.4245 6.36095 13.3603 6.41589 13.278C6.47082 13.1957 6.50011 13.099 6.50003 13V10C6.50003 9.86742 6.44735 9.74024 6.35358 9.64647C6.25981 9.55271 6.13264 9.50003 6.00003 9.50003ZM6.19128 2.53815C6.09993 2.50025 5.99939 2.4903 5.90238 2.50954C5.80537 2.52879 5.71624 2.57637 5.64628 2.64628L2.64628 5.64628C2.57627 5.71621 2.52859 5.80533 2.50926 5.90237C2.48994 5.99942 2.49984 6.10001 2.53772 6.19142C2.57559 6.28283 2.63974 6.36095 2.72204 6.41589C2.80433 6.47082 2.90108 6.50011 3.00003 6.50003H6.00003C6.13264 6.50003 6.25981 6.44735 6.35358 6.35358C6.44735 6.25981 6.50003 6.13264 6.50003 6.00003V3.00003C6.50001 2.90114 6.47066 2.80447 6.41571 2.72226C6.36075 2.64005 6.28265 2.57598 6.19128 2.53815ZM13 9.50003H10C9.86742 9.50003 9.74024 9.55271 9.64647 9.64647C9.55271 9.74024 9.50003 9.86742 9.50003 10V13C9.49995 13.099 9.52923 13.1957 9.58417 13.278C9.6391 13.3603 9.71722 13.4245 9.80863 13.4623C9.90004 13.5002 10.0006 13.5101 10.0977 13.4908C10.1947 13.4715 10.2839 13.4238 10.3538 13.3538L13.3538 10.3538C13.4238 10.2839 13.4715 10.1947 13.4908 10.0977C13.5101 10.0006 13.5002 9.90004 13.4623 9.80863C13.4245 9.71722 13.3603 9.6391 13.278 9.58417C13.1957 9.52923 13.099 9.49995 13 9.50003Z" fill="black"/>
</g>
<defs>
<clipPath id="clip0_5_961">
<rect width="16" height="16" fill="white"/>
</clipPath>
</defs>
</svg>
