<svg width="16" height="16" viewBox="0 0 16 16" fill="none" xmlns="http://www.w3.org/2000/svg">
<g clip-path="url(#clip0_5_960)">
<path d="M13.5 3V5.5C13.5001 5.59895 13.4708 5.69569 13.4159 5.77799C13.3609 5.86029 13.2828 5.92444 13.1914 5.96231C13.1 6.00019 12.9994 6.01009 12.9023 5.99076C12.8053 5.97144 12.7162 5.92376 12.6462 5.85375L10.1462 3.35375C10.0762 3.28382 10.0286 3.1947 10.0092 3.09765C9.98991 3.00061 9.99981 2.90002 10.0377 2.80861C10.0756 2.71719 10.1397 2.63908 10.222 2.58414C10.3043 2.5292 10.4011 2.49992 10.5 2.5H13C13.1326 2.5 13.2598 2.55268 13.3536 2.64645C13.4473 2.74022 13.5 2.86739 13.5 3ZM3.35375 10.1462C3.28382 10.0762 3.1947 10.0286 3.09765 10.0092C3.00061 9.98991 2.90002 9.99981 2.80861 10.0377C2.71719 10.0756 2.63908 10.1397 2.58414 10.222C2.5292 10.3043 2.49992 10.4011 2.5 10.5V13C2.5 13.1326 2.55268 13.2598 2.64645 13.3536C2.74022 13.4473 2.86739 13.5 3 13.5H5.5C5.59895 13.5001 5.69569 13.4708 5.77799 13.4159C5.86029 13.3609 5.92444 13.2828 5.96231 13.1914C6.00019 13.1 6.01009 12.9994 5.99076 12.9023C5.97144 12.8053 5.92376 12.7162 5.85375 12.6462L3.35375 10.1462ZM13.1912 10.0381C13.0999 10.0002 12.9994 9.99027 12.9023 10.0095C12.8053 10.0288 12.7162 10.0763 12.6462 10.1462L10.1462 12.6462C10.0762 12.7162 10.0286 12.8053 10.0092 12.9023C9.98991 12.9994 9.99981 13.1 10.0377 13.1914C10.0756 13.2828 10.1397 13.3609 10.222 13.4159C10.3043 13.4708 10.4011 13.5001 10.5 13.5H13C13.1326 13.5 13.2598 13.4473 13.3536 13.3536C13.4473 13.2598 13.5 13.1326 13.5 13V10.5C13.5 10.4011 13.4706 10.3044 13.4157 10.2222C13.3607 10.14 13.2826 10.076 13.1912 10.0381ZM5.5 2.5H3C2.86739 2.5 2.74022 2.55268 2.64645 2.64645C2.55268 2.74022 2.5 2.86739 2.5 3V5.5C2.49992 5.59895 2.5292 5.69569 2.58414 5.77799C2.63908 5.86029 2.71719 5.92444 2.80861 5.96231C2.90002 6.00019 3.00061 6.01009 3.09765 5.99076C3.1947 5.97144 3.28382 5.92376 3.35375 5.85375L5.85375 3.35375C5.92376 3.28382 5.97144 3.1947 5.99076 3.09765C6.01009 3.00061 6.00019 2.90002 5.96231 2.80861C5.92444 2.71719 5.86029 2.63908 5.77799 2.58414C5.69569 2.5292 5.59895 2.49992 5.5 2.5Z" fill="black"/>
</g>
<defs>
<clipPath id="clip0_5_960">
<rect width="16" height="16" fill="white"/>
</clipPath>
</defs>
</svg>
