<svg width="16" height="16" viewBox="0 0 16 16" fill="none" xmlns="http://www.w3.org/2000/svg">
<g clip-path="url(#clip0_5_958)">
<path d="M1 6.25V4.5C1 4.23478 1.10536 3.98043 1.29289 3.79289C1.48043 3.60536 1.73478 3.5 2 3.5H7.25C7.3163 3.5 7.37989 3.52634 7.42678 3.57322C7.47366 3.62011 7.5 3.6837 7.5 3.75V8.5H4C4 7.96957 3.78929 7.46086 3.41421 7.08579C3.03914 6.71071 2.53043 6.5 2 6.5H1.25C1.1837 6.5 1.12011 6.47366 1.07322 6.42678C1.02634 6.37989 1 6.3163 1 6.25ZM14 6.5H14.75C14.8163 6.5 14.8799 6.47366 14.9268 6.42678C14.9737 6.37989 15 6.3163 15 6.25V4.5C15 4.23478 14.8946 3.98043 14.7071 3.79289C14.5196 3.60536 14.2652 3.5 14 3.5H8.75C8.6837 3.5 8.62011 3.52634 8.57322 3.57322C8.52634 3.62011 8.5 3.6837 8.5 3.75V8.5H12C12 7.96957 12.2107 7.46086 12.5858 7.08579C12.9609 6.71071 13.4696 6.5 14 6.5ZM14.5 7.5H14C13.7348 7.5 13.4804 7.60536 13.2929 7.79289C13.1054 7.98043 13 8.23478 13 8.5V9C13 9.13261 12.9473 9.25979 12.8536 9.35355C12.7598 9.44732 12.6326 9.5 12.5 9.5H3.5C3.36739 9.5 3.24021 9.44732 3.14645 9.35355C3.05268 9.25979 3 9.13261 3 9V8.5C3 8.23478 2.89464 7.98043 2.70711 7.79289C2.51957 7.60536 2.26522 7.5 2 7.5H1.5C1.23478 7.5 0.98043 7.60536 0.792893 7.79289C0.605357 7.98043 0.5 8.23478 0.5 8.5V10.5C0.5 10.7652 0.605357 11.0196 0.792893 11.2071C0.98043 11.3946 1.23478 11.5 1.5 11.5H2V12.4831C1.99809 12.6123 2.04518 12.7375 2.1318 12.8334C2.21842 12.9293 2.33814 12.9888 2.46688 13C2.53527 13.0045 2.60386 12.995 2.6684 12.9719C2.73294 12.9488 2.79205 12.9127 2.84204 12.8658C2.89204 12.8189 2.93186 12.7622 2.95903 12.6993C2.98621 12.6364 3.00015 12.5685 3 12.5V11.5H13V12.4831C12.9983 12.6122 13.0454 12.7371 13.1321 12.8327C13.2187 12.9284 13.3383 12.9877 13.4669 12.9987C13.5353 13.0033 13.6039 12.9937 13.6684 12.9706C13.7329 12.9475 13.792 12.9114 13.842 12.8646C13.892 12.8177 13.9319 12.761 13.959 12.6981C13.9862 12.6351 14.0002 12.5673 14 12.4987V11.5H14.5C14.7652 11.5 15.0196 11.3946 15.2071 11.2071C15.3946 11.0196 15.5 10.7652 15.5 10.5V8.5C15.5 8.23478 15.3946 7.98043 15.2071 7.79289C15.0196 7.60536 14.7652 7.5 14.5 7.5Z" fill="black"/>
</g>
<defs>
<clipPath id="clip0_5_958">
<rect width="16" height="16" fill="white"/>
</clipPath>
</defs>
</svg>
