<svg width="16" height="16" viewBox="0 0 16 16" fill="none" xmlns="http://www.w3.org/2000/svg">
<g clip-path="url(#clip0_5_956)">
<path d="M15 5.76438V10.2356C15.0002 10.2707 14.993 10.3055 14.9788 10.3376C14.9647 10.3697 14.944 10.3985 14.918 10.4221C14.892 10.4457 14.8613 10.4635 14.8279 10.4745C14.7946 10.4854 14.7593 10.4892 14.7244 10.4856C14.1124 10.4183 13.5468 10.1275 13.1359 9.66891C12.725 9.21036 12.4978 8.61632 12.4978 8.00062C12.4978 7.38493 12.725 6.79089 13.1359 6.33234C13.5468 5.87378 14.1124 5.58297 14.7244 5.51562C14.7592 5.51204 14.7944 5.5158 14.8276 5.52667C14.8609 5.53754 14.8915 5.55527 14.9175 5.57871C14.9435 5.60216 14.9643 5.6308 14.9785 5.66279C14.9927 5.69477 15 5.72938 15 5.76438ZM1.27563 10.485C1.88763 10.4177 2.45325 10.1268 2.86412 9.66829C3.27498 9.20974 3.50218 8.61569 3.50218 8C3.50218 7.38431 3.27498 6.79026 2.86412 6.33171C2.45325 5.87316 1.88763 5.58234 1.27563 5.515C1.24071 5.5114 1.20543 5.5152 1.17207 5.52614C1.13872 5.53708 1.10804 5.55492 1.08204 5.57851C1.05604 5.60209 1.0353 5.63089 1.02116 5.66302C1.00703 5.69515 0.999819 5.7299 1 5.765V10.2362C0.999994 10.2712 1.00733 10.3059 1.02154 10.3378C1.03576 10.3698 1.05653 10.3985 1.08251 10.4219C1.10849 10.4454 1.1391 10.4631 1.17237 10.474C1.20564 10.4848 1.24082 10.4886 1.27563 10.485ZM7.25 3H2C1.73479 3 1.48043 3.10536 1.2929 3.29289C1.10536 3.48043 1 3.73478 1 4V4.25812C0.999923 4.32232 1.02454 4.38408 1.06875 4.43062C1.11297 4.47717 1.17339 4.50492 1.2375 4.50812C2.12244 4.56853 2.95144 4.96267 3.55691 5.61088C4.16238 6.25909 4.49916 7.113 4.49916 8C4.49916 8.887 4.16238 9.74091 3.55691 10.3891C2.95144 11.0373 2.12244 11.4315 1.2375 11.4919C1.17339 11.4951 1.11297 11.5228 1.06875 11.5694C1.02454 11.6159 0.999923 11.6777 1 11.7419V12C1 12.2652 1.10536 12.5196 1.2929 12.7071C1.48043 12.8946 1.73479 13 2 13H7.25C7.31631 13 7.3799 12.9737 7.42678 12.9268C7.47366 12.8799 7.5 12.8163 7.5 12.75V3.25C7.5 3.1837 7.47366 3.12011 7.42678 3.07322C7.3799 3.02634 7.31631 3 7.25 3ZM14 3H8.75C8.6837 3 8.62011 3.02634 8.57323 3.07322C8.52634 3.12011 8.5 3.1837 8.5 3.25V12.75C8.5 12.8163 8.52634 12.8799 8.57323 12.9268C8.62011 12.9737 8.6837 13 8.75 13H14C14.2652 13 14.5196 12.8946 14.7071 12.7071C14.8946 12.5196 15 12.2652 15 12V11.7419C15.0001 11.6777 14.9755 11.6159 14.9313 11.5694C14.887 11.5228 14.8266 11.4951 14.7625 11.4919C13.8776 11.4315 13.0486 11.0373 12.4431 10.3891C11.8376 9.74091 11.5008 8.887 11.5008 8C11.5008 7.113 11.8376 6.25909 12.4431 5.61088C13.0486 4.96267 13.8776 4.56853 14.7625 4.50812C14.8266 4.50492 14.887 4.47717 14.9313 4.43062C14.9755 4.38408 15.0001 4.32232 15 4.25812V4C15 3.73478 14.8946 3.48043 14.7071 3.29289C14.5196 3.10536 14.2652 3 14 3Z" fill="black"/>
</g>
<defs>
<clipPath id="clip0_5_956">
<rect width="16" height="16" fill="white"/>
</clipPath>
</defs>
</svg>
