<svg width="16" height="16" viewBox="0 0 16 16" fill="none" xmlns="http://www.w3.org/2000/svg">
<g clip-path="url(#clip0_5_954)">
<path d="M6.49995 12C6.49995 12.1326 6.44727 12.2598 6.3535 12.3536C6.25973 12.4473 6.13256 12.5 5.99995 12.5H4.99995C4.86734 12.5 4.74016 12.4473 4.64639 12.3536C4.55263 12.2598 4.49995 12.1326 4.49995 12C4.49995 11.8674 4.55263 11.7402 4.64639 11.6464C4.74016 11.5527 4.86734 11.5 4.99995 11.5H5.99995C6.13256 11.5 6.25973 11.5527 6.3535 11.6464C6.44727 11.7402 6.49995 11.8674 6.49995 12ZM10.9999 11.5H9.99995C9.86734 11.5 9.74016 11.5527 9.64639 11.6464C9.55263 11.7402 9.49995 11.8674 9.49995 12C9.49995 12.1326 9.55263 12.2598 9.64639 12.3536C9.74016 12.4473 9.86734 12.5 9.99995 12.5H10.9999C11.1326 12.5 11.2597 12.4473 11.3535 12.3536C11.4473 12.2598 11.4999 12.1326 11.4999 12C11.4999 11.8674 11.4473 11.7402 11.3535 11.6464C11.2597 11.5527 11.1326 11.5 10.9999 11.5ZM15.2743 7.6325C15.1806 7.74733 15.0624 7.83987 14.9285 7.90343C14.7946 7.96699 14.6482 7.99997 14.4999 8H12.4999V10C12.9197 10.3148 13.2298 10.7537 13.3862 11.2546C13.5427 11.7554 13.5376 12.2928 13.3717 12.7906C13.2057 13.2883 12.8874 13.7213 12.4617 14.0281C12.0361 14.3349 11.5247 14.5 10.9999 14.5H4.99995C4.47524 14.5 3.96384 14.3349 3.53817 14.0281C3.11251 13.7213 2.79417 13.2883 2.62824 12.7906C2.46231 12.2928 2.45721 11.7554 2.61366 11.2546C2.77011 10.7537 3.08018 10.3148 3.49995 10V8H1.49995C1.35287 7.99976 1.20766 7.96708 1.07467 7.90429C0.941671 7.8415 0.824161 7.75015 0.730513 7.63675C0.636864 7.52334 0.569383 7.39068 0.532879 7.24821C0.496375 7.10573 0.491746 6.95696 0.519323 6.8125C0.679644 6.02003 1.10878 5.30726 1.73413 4.79476C2.35949 4.28227 3.14267 4.00152 3.9512 4H4.0537C3.72003 3.67476 3.45489 3.28598 3.27391 2.8566C3.09292 2.42723 2.99977 1.96596 2.99995 1.5C2.99995 1.36739 3.05263 1.24021 3.14639 1.14645C3.24016 1.05268 3.36734 1 3.49995 1C3.63256 1 3.75973 1.05268 3.8535 1.14645C3.94727 1.24021 3.99995 1.36739 3.99995 1.5C3.99995 2.16304 4.26334 2.79893 4.73218 3.26777C5.20102 3.73661 5.83691 4 6.49995 4H9.49995C9.82825 4 10.1533 3.93534 10.4567 3.8097C10.76 3.68406 11.0356 3.49991 11.2677 3.26777C11.4999 3.03562 11.684 2.76002 11.8096 2.45671C11.9353 2.15339 11.9999 1.8283 11.9999 1.5C11.9999 1.36739 12.0526 1.24021 12.1464 1.14645C12.2402 1.05268 12.3673 1 12.4999 1C12.6326 1 12.7597 1.05268 12.8535 1.14645C12.9473 1.24021 12.9999 1.36739 12.9999 1.5C13.0001 1.96596 12.907 2.42723 12.726 2.8566C12.545 3.28598 12.2799 3.67476 11.9462 4H12.0487C12.8572 4.00152 13.6404 4.28227 14.2658 4.79476C14.8911 5.30726 15.3203 6.02003 15.4806 6.8125C15.509 6.95593 15.5052 7.10387 15.4695 7.24566C15.4339 7.38745 15.3672 7.51957 15.2743 7.6325ZM8.99995 7.75C8.99995 7.89834 9.04393 8.04334 9.12635 8.16668C9.20876 8.29001 9.32589 8.38614 9.46294 8.44291C9.59998 8.49967 9.75078 8.51453 9.89627 8.48559C10.0418 8.45665 10.1754 8.38522 10.2803 8.28033C10.3852 8.17544 10.4566 8.0418 10.4855 7.89632C10.5145 7.75083 10.4996 7.60003 10.4429 7.46299C10.3861 7.32594 10.29 7.20881 10.1666 7.1264C10.0433 7.04399 9.89828 7 9.74995 7C9.55103 7 9.36027 7.07902 9.21962 7.21967C9.07897 7.36032 8.99995 7.55109 8.99995 7.75ZM5.49995 7.75C5.49995 7.89834 5.54393 8.04334 5.62635 8.16668C5.70876 8.29001 5.82589 8.38614 5.96293 8.44291C6.09998 8.49967 6.25078 8.51453 6.39627 8.48559C6.54175 8.45665 6.67539 8.38522 6.78028 8.28033C6.88517 8.17544 6.9566 8.0418 6.98554 7.89632C7.01448 7.75083 6.99962 7.60003 6.94286 7.46299C6.88609 7.32594 6.78996 7.20881 6.66663 7.1264C6.54329 7.04399 6.39828 7 6.24995 7C6.05104 7 5.86027 7.07902 5.71962 7.21967C5.57897 7.36032 5.49995 7.55109 5.49995 7.75ZM3.49995 7V6.5C3.49909 5.95894 3.67462 5.43234 3.99995 5H3.94995C3.3739 5.00094 2.81577 5.20033 2.36953 5.56461C1.92329 5.92889 1.61619 6.4358 1.49995 7H3.49995ZM12.4999 12C12.4999 11.6022 12.3419 11.2206 12.0606 10.9393C11.7793 10.658 11.3978 10.5 10.9999 10.5H4.99995C4.60212 10.5 4.22059 10.658 3.93929 10.9393C3.65798 11.2206 3.49995 11.6022 3.49995 12C3.49995 12.3978 3.65798 12.7794 3.93929 13.0607C4.22059 13.342 4.60212 13.5 4.99995 13.5H10.9999C11.3978 13.5 11.7793 13.342 12.0606 13.0607C12.3419 12.7794 12.4999 12.3978 12.4999 12ZM14.4999 7C14.3838 6.43575 14.0767 5.92877 13.6305 5.56447C13.1842 5.20017 12.626 5.00082 12.0499 5H11.9999C12.3253 5.43234 12.5008 5.95894 12.4999 6.5V7H14.4999Z" fill="black"/>
</g>
<defs>
<clipPath id="clip0_5_954">
<rect width="16" height="16" fill="white"/>
</clipPath>
</defs>
</svg>
