<svg width="16" height="16" viewBox="0 0 16 16" fill="none" xmlns="http://www.w3.org/2000/svg">
<g clip-path="url(#clip0_5_1653)">
<path d="M13.5 7.5C13.4152 7.50004 13.3319 7.52163 13.2578 7.56274C13.1836 7.60385 13.1212 7.66313 13.0763 7.735C12.8153 8.15436 12.5269 8.55606 12.2131 8.9375L12.1112 8.40188L11.145 3.31688C11.1132 3.14718 11.038 2.98861 10.9268 2.85659C10.8156 2.72456 10.672 2.62359 10.5102 2.56349C10.3483 2.5034 10.1737 2.48623 10.0032 2.51366C9.83277 2.54108 9.67233 2.61217 9.5375 2.72L9.52938 2.72625L8 4L6.47062 2.72625L6.4625 2.72C6.32776 2.61218 6.1674 2.54106 5.99704 2.51357C5.82667 2.48607 5.65208 2.50313 5.49026 2.56309C5.32844 2.62305 5.18489 2.72387 5.07357 2.85574C4.96225 2.98761 4.88695 3.14604 4.855 3.31563L3.88937 8.39875L3.78688 8.9375C3.47295 8.55593 3.18461 8.15401 2.92375 7.73438C2.87875 7.66262 2.81626 7.60346 2.74214 7.56247C2.66802 7.52147 2.5847 7.49998 2.5 7.5C1.83696 7.5 1.20107 7.76339 0.732233 8.23224C0.263392 8.70108 0 9.33696 0 10C0 10.663 0.263392 11.2989 0.732233 11.7678C1.20107 12.2366 1.83696 12.5 2.5 12.5H13.5C14.163 12.5 14.7989 12.2366 15.2678 11.7678C15.7366 11.2989 16 10.663 16 10C16 9.33696 15.7366 8.70108 15.2678 8.23224C14.7989 7.76339 14.163 7.5 13.5 7.5ZM4.7925 9H11.2069L11.3656 9.83438C10.8574 10.3123 10.2814 10.7124 9.65625 11.0219C8.69375 11.4856 8.00375 11.5 8 11.5C7.97937 11.5 6.40688 11.475 4.63375 9.8375L4.7925 9Z" fill="black"/>
</g>
<defs>
<clipPath id="clip0_5_1653">
<rect width="16" height="16" fill="white"/>
</clipPath>
</defs>
</svg>
