<svg width="16" height="16" viewBox="0 0 16 16" fill="none" xmlns="http://www.w3.org/2000/svg">
<g clip-path="url(#clip0_5_1518)">
<path d="M7.98313 13H7V10.25C7 10.1837 6.97366 10.1201 6.92678 10.0732C6.87989 10.0263 6.8163 10 6.75 10H2.75C2.6837 10 2.62011 10.0263 2.57322 10.0732C2.52634 10.1201 2.5 10.1837 2.5 10.25V13H1.51687C1.38763 12.9979 1.26241 13.045 1.16648 13.1316C1.07055 13.2183 1.01106 13.3381 1 13.4669C0.995459 13.5353 1.00503 13.6039 1.02811 13.6684C1.0512 13.7329 1.08731 13.792 1.1342 13.842C1.18109 13.892 1.23776 13.9319 1.30069 13.959C1.36361 13.9862 1.43146 14.0002 1.5 14H8C8.06854 14.0002 8.13639 13.9862 8.19931 13.959C8.26224 13.9319 8.31891 13.892 8.3658 13.842C8.41269 13.792 8.4488 13.7329 8.47189 13.6684C8.49497 13.6039 8.50454 13.5353 8.5 13.4669C8.48894 13.3381 8.42945 13.2183 8.33352 13.1316C8.23759 13.045 8.11237 12.9979 7.98313 13Z" fill="black"/>
<path d="M14.9831 5H6.80875L5.4475 2.27625C5.40593 2.19318 5.34205 2.12333 5.263 2.07454C5.18396 2.02574 5.09289 1.99993 5 2H3C2.86739 2 2.74021 2.05268 2.64645 2.14645C2.55268 2.24022 2.5 2.36739 2.5 2.5V5H1.51687C1.38763 4.99794 1.26241 5.04498 1.16648 5.13163C1.07055 5.21828 1.01106 5.33808 1 5.46688C0.995459 5.53527 1.00503 5.60387 1.02811 5.6684C1.0512 5.73294 1.08731 5.79205 1.1342 5.84204C1.18109 5.89204 1.23776 5.93186 1.30069 5.95903C1.36361 5.98621 1.43146 6.00015 1.5 6H2.5V8.75C2.5 8.8163 2.52634 8.87989 2.57322 8.92678C2.62011 8.97366 2.6837 9 2.75 9H6.75C6.8163 9 6.87989 8.97366 6.92678 8.92678C6.97366 8.87989 7 8.8163 7 8.75V6H13V11.5H12V11.0169C12.0016 10.8879 11.9544 10.7631 11.8678 10.6674C11.7812 10.5718 11.6616 10.5124 11.5331 10.5013C11.4647 10.4967 11.3961 10.5063 11.3316 10.5294C11.2671 10.5525 11.208 10.5886 11.158 10.6354C11.108 10.6823 11.0681 10.739 11.041 10.8019C11.0138 10.8649 10.9998 10.9327 11 11.0013V11.5013C11 11.7665 11.1054 12.0208 11.2929 12.2084C11.4804 12.3959 11.7348 12.5013 12 12.5013H13C13.2652 12.5013 13.5196 12.3959 13.7071 12.2084C13.8946 12.0208 14 11.7665 14 11.5013V6H15C15.0685 6.00015 15.1364 5.98621 15.1993 5.95903C15.2622 5.93186 15.3189 5.89204 15.3658 5.84204C15.4127 5.79205 15.4488 5.73294 15.4719 5.6684C15.495 5.60387 15.5045 5.53527 15.5 5.46688C15.4889 5.33808 15.4294 5.21828 15.3335 5.13163C15.2376 5.04498 15.1124 4.99794 14.9831 5ZM3.5 5V3H4.69125L5.69125 5H3.5Z" fill="black"/>
</g>
<defs>
<clipPath id="clip0_5_1518">
<rect width="16" height="16" fill="white"/>
</clipPath>
</defs>
</svg>
