<svg width="16" height="16" viewBox="0 0 16 16" fill="none" xmlns="http://www.w3.org/2000/svg">
<g clip-path="url(#clip0_5_951)">
<path d="M14.2575 1.07128C14.1835 1.02685 14.0992 1.00235 14.0129 1.00016C13.9266 0.99797 13.8412 1.01817 13.765 1.05878L6.375 5.00003H2C1.73478 5.00003 1.48043 5.10539 1.29289 5.29292C1.10536 5.48046 1 5.73481 1 6.00003V12.5C1 12.7652 1.10536 13.0196 1.29289 13.2071C1.48043 13.3947 1.73478 13.5 2 13.5H7.5C7.76522 13.5 8.01957 13.3947 8.20711 13.2071C8.39464 13.0196 8.5 12.7652 8.5 12.5V10.5C8.49991 10.4781 8.49824 10.4561 8.495 10.4344V10.4194C8.49153 10.3983 8.48694 10.3775 8.48125 10.3569C8.48154 10.3559 8.48154 10.3548 8.48125 10.3538C8.48117 10.3523 8.48117 10.3509 8.48125 10.3494L7.09625 5.75003L13.5 2.33315V10H12.5V9.50003C12.5 9.36742 12.4473 9.24024 12.3536 9.14647C12.2598 9.05271 12.1326 9.00003 12 9.00003C11.8674 9.00003 11.7402 9.05271 11.6464 9.14647C11.5527 9.24024 11.5 9.36742 11.5 9.50003V10C11.5 10.2652 11.6054 10.5196 11.7929 10.7071C11.9804 10.8947 12.2348 11 12.5 11H13.5C13.7652 11 14.0196 10.8947 14.2071 10.7071C14.3946 10.5196 14.5 10.2652 14.5 10V1.50003C14.5 1.41371 14.4777 1.32885 14.4352 1.25372C14.3927 1.17859 14.3315 1.11573 14.2575 1.07128ZM3 6.00003V10H2V6.00003H3ZM2 12.5V11H7.5V12.5H2Z" fill="black"/>
</g>
<defs>
<clipPath id="clip0_5_951">
<rect width="16" height="16" fill="white"/>
</clipPath>
</defs>
</svg>
