<svg width="16" height="16" viewBox="0 0 16 16" fill="none" xmlns="http://www.w3.org/2000/svg">
<g clip-path="url(#clip0_5_1690)">
<path d="M15.2069 5.0856L11.9144 1.7931C11.8215 1.70021 11.7113 1.62653 11.5899 1.57626C11.4686 1.526 11.3385 1.50012 11.2072 1.50012C11.0758 1.50012 10.9458 1.526 10.8245 1.57626C10.7031 1.62653 10.5929 1.70021 10.5 1.7931L3.79312 8.49997C3.70024 8.59283 3.62656 8.70308 3.57629 8.82442C3.52602 8.94576 3.50015 9.07582 3.50015 9.20716C3.50015 9.3385 3.52602 9.46855 3.57629 9.5899C3.62656 9.71124 3.70024 9.82149 3.79312 9.91435L5.08563 11.2068L2.14812 14.1443C2.0543 14.2382 2.0016 14.3654 2.0016 14.4981C2.0016 14.6308 2.0543 14.758 2.14812 14.8518C2.24195 14.9457 2.36919 14.9984 2.50187 14.9984C2.63456 14.9984 2.7618 14.9457 2.85562 14.8518L5.79313 11.9143L7.08563 13.2068C7.17849 13.2997 7.28874 13.3734 7.41008 13.4237C7.53142 13.4739 7.66147 13.4998 7.79281 13.4998C7.92415 13.4998 8.05421 13.4739 8.17555 13.4237C8.29689 13.3734 8.40714 13.2997 8.5 13.2068L15.2069 6.49997C15.2998 6.40711 15.3734 6.29686 15.4237 6.17552C15.474 6.05418 15.4998 5.92412 15.4998 5.79278C15.4998 5.66144 15.474 5.53139 15.4237 5.41005C15.3734 5.28871 15.2998 5.17846 15.2069 5.0856ZM7.79313 12.5L6.5 11.2068L8.35375 9.35372C8.44757 9.2599 8.50028 9.13265 8.50028 8.99997C8.50028 8.86729 8.44757 8.74004 8.35375 8.64622C8.25993 8.5524 8.13268 8.49969 8 8.49969C7.86732 8.49969 7.74007 8.5524 7.64625 8.64622L5.79313 10.5L4.5 9.20685L6.70687 6.99997H10V10.2931L7.79313 12.5ZM2 3.74997C2 3.40385 2.10264 3.06551 2.29493 2.77772C2.48722 2.48994 2.76053 2.26564 3.0803 2.13318C3.40007 2.00073 3.75194 1.96607 4.09141 2.0336C4.43088 2.10112 4.74269 2.26779 4.98744 2.51253C5.23218 2.75728 5.39885 3.0691 5.46637 3.40856C5.5339 3.74803 5.49924 4.0999 5.36679 4.41967C5.23434 4.73944 5.01003 5.01275 4.72225 5.20504C4.43446 5.39734 4.09612 5.49997 3.75 5.49997C3.28587 5.49997 2.84075 5.3156 2.51256 4.98741C2.18437 4.65922 2 4.2141 2 3.74997Z" fill="black"/>
</g>
<defs>
<clipPath id="clip0_5_1690">
<rect width="16" height="16" fill="white"/>
</clipPath>
</defs>
</svg>
