<svg width="16" height="16" viewBox="0 0 16 16" fill="none" xmlns="http://www.w3.org/2000/svg">
<g clip-path="url(#clip0_5_947)">
<path d="M13 2H3C2.73478 2 2.48043 2.10536 2.29289 2.29289C2.10536 2.48043 2 2.73478 2 3V13C2 13.2652 2.10536 13.5196 2.29289 13.7071C2.48043 13.8946 2.73478 14 3 14H13C13.2652 14 13.5196 13.8946 13.7071 13.7071C13.8946 13.5196 14 13.2652 14 13V3C14 2.73478 13.8946 2.48043 13.7071 2.29289C13.5196 2.10536 13.2652 2 13 2ZM7.5 5H10.5C10.6326 5 10.7598 5.05268 10.8536 5.14645C10.9473 5.24021 11 5.36739 11 5.5V8.5C11 8.63261 10.9473 8.75979 10.8536 8.85355C10.7598 8.94732 10.6326 9 10.5 9C10.3674 9 10.2402 8.94732 10.1464 8.85355C10.0527 8.75979 10 8.63261 10 8.5V6H7.5C7.36739 6 7.24021 5.94732 7.14645 5.85355C7.05268 5.75979 7 5.63261 7 5.5C7 5.36739 7.05268 5.24021 7.14645 5.14645C7.24021 5.05268 7.36739 5 7.5 5ZM12 11H11V12C11 12.1326 10.9473 12.2598 10.8536 12.3536C10.7598 12.4473 10.6326 12.5 10.5 12.5C10.3674 12.5 10.2402 12.4473 10.1464 12.3536C10.0527 12.2598 10 12.1326 10 12V11H5.5C5.36739 11 5.24021 10.9473 5.14645 10.8536C5.05268 10.7598 5 10.6326 5 10.5V6H4C3.86739 6 3.74021 5.94732 3.64645 5.85355C3.55268 5.75979 3.5 5.63261 3.5 5.5C3.5 5.36739 3.55268 5.24021 3.64645 5.14645C3.74021 5.05268 3.86739 5 4 5H5V4C5 3.86739 5.05268 3.74021 5.14645 3.64645C5.24021 3.55268 5.36739 3.5 5.5 3.5C5.63261 3.5 5.75979 3.55268 5.85355 3.64645C5.94732 3.74021 6 3.86739 6 4V10H12C12.1326 10 12.2598 10.0527 12.3536 10.1464C12.4473 10.2402 12.5 10.3674 12.5 10.5C12.5 10.6326 12.4473 10.7598 12.3536 10.8536C12.2598 10.9473 12.1326 11 12 11Z" fill="black"/>
</g>
<defs>
<clipPath id="clip0_5_947">
<rect width="16" height="16" fill="white"/>
</clipPath>
</defs>
</svg>
