<svg width="16" height="16" viewBox="0 0 16 16" fill="none" xmlns="http://www.w3.org/2000/svg">
<g clip-path="url(#clip0_5_946)">
<path d="M13.5 5.75V7.25C13.5 7.51522 13.3946 7.76957 13.2071 7.95711C13.0196 8.14464 12.7652 8.25 12.5 8.25H9.75V14C9.75 14.2652 9.64464 14.5196 9.45711 14.7071C9.26957 14.8946 9.01522 15 8.75 15H7.25C6.98478 15 6.73043 14.8946 6.54289 14.7071C6.35536 14.5196 6.25 14.2652 6.25 14V8.25H3.5C3.23478 8.25 2.98043 8.14464 2.79289 7.95711C2.60536 7.76957 2.5 7.51522 2.5 7.25V5.75C2.5 5.48478 2.60536 5.23043 2.79289 5.04289C2.98043 4.85536 3.23478 4.75 3.5 4.75H6.25V2C6.25 1.73478 6.35536 1.48043 6.54289 1.29289C6.73043 1.10536 6.98478 1 7.25 1H8.75C9.01522 1 9.26957 1.10536 9.45711 1.29289C9.64464 1.48043 9.75 1.73478 9.75 2V4.75H12.5C12.7652 4.75 13.0196 4.85536 13.2071 5.04289C13.3946 5.23043 13.5 5.48478 13.5 5.75Z" fill="black"/>
</g>
<defs>
<clipPath id="clip0_5_946">
<rect width="16" height="16" fill="white"/>
</clipPath>
</defs>
</svg>
