<svg width="16" height="16" viewBox="0 0 16 16" fill="none" xmlns="http://www.w3.org/2000/svg">
<g clip-path="url(#clip0_5_1676)">
<path d="M8 1.5C6.71442 1.5 5.45772 1.88122 4.3888 2.59545C3.31988 3.30968 2.48676 4.32484 1.99479 5.51256C1.50282 6.70028 1.37409 8.00721 1.6249 9.26809C1.8757 10.529 2.49477 11.6872 3.40381 12.5962C4.31285 13.5052 5.47104 14.1243 6.73192 14.3751C7.99279 14.6259 9.29973 14.4972 10.4874 14.0052C11.6752 13.5132 12.6903 12.6801 13.4046 11.6112C14.1188 10.5423 14.5 9.28558 14.5 8C14.4982 6.27665 13.8128 4.62441 12.5942 3.40582C11.3756 2.18722 9.72335 1.50182 8 1.5ZM8 13.5C6.91221 13.5 5.84884 13.1774 4.94437 12.5731C4.0399 11.9687 3.33495 11.1098 2.91867 10.1048C2.50238 9.09977 2.39347 7.9939 2.60568 6.927C2.8179 5.86011 3.34173 4.8801 4.11092 4.11091C4.8801 3.34172 5.86011 2.8179 6.92701 2.60568C7.9939 2.39346 9.09977 2.50238 10.1048 2.91866C11.1098 3.33494 11.9687 4.03989 12.5731 4.94436C13.1774 5.84883 13.5 6.9122 13.5 8C13.4983 9.45818 12.9184 10.8562 11.8873 11.8873C10.8562 12.9184 9.45819 13.4983 8 13.5ZM11 8.5H12.4713C12.3565 9.51369 11.9012 10.4585 11.1798 11.1798C10.4585 11.9012 9.51369 12.3565 8.5 12.4712V11C8.5 10.8674 8.44732 10.7402 8.35356 10.6464C8.25979 10.5527 8.13261 10.5 8 10.5C7.86739 10.5 7.74022 10.5527 7.64645 10.6464C7.55268 10.7402 7.5 10.8674 7.5 11V12.4712C6.48631 12.3565 5.54154 11.9012 4.82018 11.1798C4.09881 10.4585 3.64352 9.51369 3.52875 8.5H5C5.13261 8.5 5.25979 8.44732 5.35356 8.35355C5.44732 8.25979 5.5 8.13261 5.5 8C5.5 7.86739 5.44732 7.74021 5.35356 7.64645C5.25979 7.55268 5.13261 7.5 5 7.5H3.52875C3.64352 6.48631 4.09881 5.54154 4.82018 4.82017C5.54154 4.09881 6.48631 3.64352 7.5 3.52875V5C7.5 5.13261 7.55268 5.25979 7.64645 5.35355C7.74022 5.44732 7.86739 5.5 8 5.5C8.13261 5.5 8.25979 5.44732 8.35356 5.35355C8.44732 5.25979 8.5 5.13261 8.5 5V3.52875C9.51369 3.64352 10.4585 4.09881 11.1798 4.82017C11.9012 5.54154 12.3565 6.48631 12.4713 7.5H11C10.8674 7.5 10.7402 7.55268 10.6464 7.64645C10.5527 7.74021 10.5 7.86739 10.5 8C10.5 8.13261 10.5527 8.25979 10.6464 8.35355C10.7402 8.44732 10.8674 8.5 11 8.5Z" fill="black"/>
</g>
<defs>
<clipPath id="clip0_5_1676">
<rect width="16" height="16" fill="white"/>
</clipPath>
</defs>
</svg>
