<svg width="16" height="16" viewBox="0 0 16 16" fill="none" xmlns="http://www.w3.org/2000/svg">
<g clip-path="url(#clip0_5_1012)">
<path d="M14.9844 5.67563C14.9844 5.6825 14.9844 5.68875 14.98 5.69563L13.5625 12.1875C13.5189 12.4161 13.3969 12.6223 13.2176 12.7706C13.0382 12.9189 12.8128 13.0001 12.58 13H3.41941C3.18679 12.9999 2.96149 12.9187 2.78227 12.7704C2.60306 12.6221 2.48115 12.416 2.43753 12.1875L1.02003 5.69563C1.02003 5.68875 1.01691 5.6825 1.01566 5.67563C0.976864 5.46069 1.0095 5.23896 1.10859 5.04432C1.20768 4.84968 1.36777 4.69284 1.56439 4.59775C1.76102 4.50266 1.98336 4.47456 2.19746 4.51774C2.41156 4.56092 2.60564 4.67301 2.75003 4.83688L4.85441 7.105L7.09191 2.08688C7.09201 2.0848 7.09201 2.08271 7.09191 2.08063C7.17192 1.9071 7.29997 1.76012 7.46091 1.6571C7.62185 1.55408 7.80894 1.49933 8.00003 1.49933C8.19112 1.49933 8.37821 1.55408 8.53915 1.6571C8.70009 1.76012 8.82815 1.9071 8.90816 2.08063C8.90805 2.08271 8.90805 2.0848 8.90816 2.08688L11.1457 7.105L13.25 4.83688C13.3947 4.67423 13.5886 4.56324 13.8021 4.52076C14.0156 4.47828 14.2371 4.50664 14.4331 4.60153C14.629 4.69642 14.7886 4.85266 14.8877 5.04651C14.9867 5.24037 15.0198 5.46125 14.9819 5.67563H14.9844Z" fill="black"/>
</g>
<defs>
<clipPath id="clip0_5_1012">
<rect width="16" height="16" fill="white"/>
</clipPath>
</defs>
</svg>
