<svg width="16" height="16" viewBox="0 0 16 16" fill="none" xmlns="http://www.w3.org/2000/svg">
<g clip-path="url(#clip0_5_942)">
<path d="M15.5 5C15.5002 4.72591 15.4361 4.45559 15.3127 4.21083C15.1893 3.96607 15.0102 3.75371 14.7898 3.59086C14.5693 3.42801 14.3137 3.31922 14.0434 3.27325C13.7732 3.22729 13.496 3.24543 13.2341 3.32623C12.9722 3.40703 12.7329 3.54821 12.5356 3.73842C12.3382 3.92862 12.1883 4.16252 12.0979 4.42127C12.0075 4.68002 11.9791 4.95639 12.0151 5.22811C12.0511 5.49983 12.1504 5.7593 12.305 5.98562L10.6306 8.04812L9.12497 4.5875C9.39957 4.35638 9.59646 4.04643 9.68897 3.69964C9.78148 3.35285 9.76512 2.98601 9.64211 2.64884C9.5191 2.31166 9.2954 2.02046 9.00132 1.81471C8.70724 1.60895 8.35701 1.4986 7.99809 1.4986C7.63918 1.4986 7.28895 1.60895 6.99487 1.81471C6.70079 2.02046 6.47709 2.31166 6.35408 2.64884C6.23107 2.98601 6.21471 3.35285 6.30722 3.69964C6.39972 4.04643 6.59662 4.35638 6.87122 4.5875L5.36934 8.04625L3.69497 5.98375C3.91006 5.66859 4.01625 5.29177 3.99737 4.91068C3.97849 4.52958 3.83558 4.1651 3.5904 3.87274C3.34521 3.58039 3.0112 3.37617 2.63922 3.2912C2.26724 3.20623 1.87769 3.24516 1.52988 3.40207C1.18207 3.55897 0.89508 3.82525 0.712606 4.16035C0.530132 4.49545 0.462177 4.881 0.519092 5.2583C0.576007 5.63559 0.754673 5.98394 1.02788 6.2503C1.30108 6.51665 1.65386 6.68642 2.03247 6.73375L2.93747 12.1644C2.97638 12.3978 3.09684 12.61 3.27743 12.763C3.45802 12.916 3.68702 13 3.92372 13H12.0762C12.3129 13 12.5419 12.916 12.7225 12.763C12.9031 12.61 13.0236 12.3978 13.0625 12.1644L13.9668 6.73625C14.3901 6.68339 14.7794 6.47778 15.0618 6.15806C15.3441 5.83834 15.4999 5.42652 15.5 5ZM7.99997 2.5C8.14831 2.5 8.29331 2.54398 8.41665 2.62639C8.53998 2.7088 8.63611 2.82594 8.69288 2.96298C8.74964 3.10003 8.7645 3.25083 8.73556 3.39631C8.70662 3.5418 8.63519 3.67544 8.5303 3.78033C8.42541 3.88522 8.29177 3.95665 8.14629 3.98559C8.0008 4.01452 7.85 3.99967 7.71296 3.94291C7.57591 3.88614 7.45878 3.79001 7.37637 3.66667C7.29396 3.54334 7.24997 3.39833 7.24997 3.25C7.24997 3.05108 7.32899 2.86032 7.46964 2.71967C7.61029 2.57901 7.80106 2.5 7.99997 2.5ZM1.49997 5C1.49997 4.85166 1.54396 4.70666 1.62637 4.58332C1.70878 4.45998 1.82591 4.36385 1.96296 4.30709C2.1 4.25032 2.2508 4.23547 2.39629 4.26441C2.54177 4.29335 2.67541 4.36478 2.7803 4.46967C2.88519 4.57456 2.95662 4.70819 2.98556 4.85368C3.0145 4.99916 2.99964 5.14996 2.94288 5.28701C2.88611 5.42405 2.78998 5.54119 2.66665 5.6236C2.54331 5.70601 2.39831 5.75 2.24997 5.75C2.05106 5.75 1.86029 5.67098 1.71964 5.53033C1.57899 5.38967 1.49997 5.19891 1.49997 5ZM13.75 5.75C13.6016 5.75 13.4566 5.70601 13.3333 5.6236C13.21 5.54119 13.1138 5.42405 13.0571 5.28701C13.0003 5.14996 12.9854 4.99916 13.0144 4.85368C13.0433 4.70819 13.1148 4.57456 13.2196 4.46967C13.3245 4.36478 13.4582 4.29335 13.6037 4.26441C13.7491 4.23547 13.8999 4.25032 14.037 4.30709C14.174 4.36385 14.2912 4.45998 14.3736 4.58332C14.456 4.70666 14.5 4.85166 14.5 5C14.5 5.19891 14.421 5.38967 14.2803 5.53033C14.1396 5.67098 13.9489 5.75 13.75 5.75Z" fill="black"/>
</g>
<defs>
<clipPath id="clip0_5_942">
<rect width="16" height="16" fill="white"/>
</clipPath>
</defs>
</svg>
