<svg width="16" height="16" viewBox="0 0 16 16" fill="none" xmlns="http://www.w3.org/2000/svg">
<g clip-path="url(#clip0_5_944)">
<path d="M8 5.20125C7.85903 4.97246 7.69117 4.76137 7.5 4.5725V2.5H6.5C6.36739 2.5 6.24021 2.44732 6.14645 2.35355C6.05268 2.25979 6 2.13261 6 2C6 1.86739 6.05268 1.74021 6.14645 1.64645C6.24021 1.55268 6.36739 1.5 6.5 1.5H7.5V0.5C7.5 0.367392 7.55268 0.240215 7.64645 0.146447C7.74021 0.0526784 7.86739 0 8 0C8.13261 0 8.25979 0.0526784 8.35355 0.146447C8.44732 0.240215 8.5 0.367392 8.5 0.5V1.5H9.5C9.63261 1.5 9.75979 1.55268 9.85355 1.64645C9.94732 1.74021 10 1.86739 10 2C10 2.13261 9.94732 2.25979 9.85355 2.35355C9.75979 2.44732 9.63261 2.5 9.5 2.5H8.5V4.5725C8.30883 4.76137 8.14097 4.97246 8 5.20125ZM11.25 3.5C10.1412 3.5 9.17437 3.905 8.5 4.5725V11C8.5 11.1326 8.44732 11.2598 8.35355 11.3536C8.25979 11.4473 8.13261 11.5 8 11.5C7.86739 11.5 7.74021 11.4473 7.64645 11.3536C7.55268 11.2598 7.5 11.1326 7.5 11V4.5725C6.82562 3.905 5.85875 3.5 4.75 3.5C3.75579 3.50116 2.80264 3.89662 2.09963 4.59963C1.39662 5.30264 1.00116 6.25579 1 7.25C1 9.11625 1.90875 10.3031 2.67062 10.97C3.07099 11.3189 3.51852 11.6097 4 11.8337V13C4 13.2652 4.10536 13.5196 4.29289 13.7071C4.48043 13.8946 4.73478 14 5 14H11C11.2652 14 11.5196 13.8946 11.7071 13.7071C11.8946 13.5196 12 13.2652 12 13V11.8337C12.4815 11.6097 12.929 11.3189 13.3294 10.97C14.0913 10.3031 15 9.11625 15 7.25C14.9988 6.25579 14.6034 5.30264 13.9004 4.59963C13.1974 3.89662 12.2442 3.50116 11.25 3.5Z" fill="black"/>
</g>
<defs>
<clipPath id="clip0_5_944">
<rect width="16" height="16" fill="white"/>
</clipPath>
</defs>
</svg>
