<svg width="16" height="16" viewBox="0 0 16 16" fill="none" xmlns="http://www.w3.org/2000/svg">
<g clip-path="url(#clip0_5_1292)">
<path d="M6.50001 9.5V6.5H9.50001V9.5H6.50001ZM2.00001 3.3125V9.25C2.00001 9.3163 2.02635 9.37989 2.07323 9.42678C2.12012 9.47366 2.1837 9.5 2.25001 9.5H5.50001V6.20687L2.42688 3.13375C2.39181 3.09863 2.34707 3.07475 2.29837 3.06514C2.24968 3.05554 2.19922 3.06065 2.15344 3.07982C2.10766 3.09899 2.06861 3.13136 2.04129 3.1728C2.01397 3.21423 1.9996 3.26287 2.00001 3.3125ZM13.75 6.5H10.5V9.79313L13.5731 12.8663C13.6082 12.9014 13.6529 12.9253 13.7016 12.9349C13.7503 12.9445 13.8008 12.9394 13.8466 12.9202C13.8924 12.901 13.9314 12.8686 13.9587 12.8272C13.9861 12.7858 14.0004 12.7371 14 12.6875V6.75C14 6.6837 13.9737 6.62011 13.9268 6.57322C13.8799 6.52634 13.8163 6.5 13.75 6.5ZM9.50001 2.25C9.50001 2.1837 9.47367 2.12011 9.42679 2.07322C9.3799 2.02634 9.31631 2 9.25001 2H3.31251C3.26303 1.99996 3.21466 2.0146 3.17351 2.04207C3.13236 2.06954 3.10029 2.1086 3.08135 2.1543C3.06242 2.20001 3.05746 2.25031 3.06713 2.29883C3.07679 2.34735 3.10063 2.39191 3.13563 2.42688L6.20688 5.5H9.50001V2.25ZM13.2806 5.07312L10.9269 2.71937C10.8919 2.68437 10.8474 2.66053 10.7988 2.65087C10.7503 2.64121 10.7 2.64616 10.6543 2.66509C10.6086 2.68403 10.5695 2.71611 10.5421 2.75725C10.5146 2.7984 10.5 2.84678 10.5 2.89625V5.5H13.1038C13.1532 5.50004 13.2016 5.4854 13.2428 5.45793C13.2839 5.43046 13.316 5.3914 13.3349 5.3457C13.3539 5.29999 13.3588 5.24969 13.3491 5.20117C13.3395 5.15265 13.3156 5.10809 13.2806 5.07312ZM9.79313 10.5H6.50001V13.75C6.50001 13.8163 6.52635 13.8799 6.57323 13.9268C6.62012 13.9737 6.6837 14 6.75001 14H12.6875C12.737 14 12.7854 13.9854 12.8265 13.9579C12.8677 13.9305 12.8997 13.8914 12.9187 13.8457C12.9376 13.8 12.9426 13.7497 12.9329 13.7012C12.9232 13.6527 12.8994 13.6081 12.8644 13.5731L9.79313 10.5ZM2.71938 10.9269L5.07313 13.2806C5.1081 13.3156 5.15266 13.3395 5.20118 13.3491C5.2497 13.3588 5.3 13.3538 5.34571 13.3349C5.39141 13.316 5.43047 13.2839 5.45794 13.2427C5.48541 13.2016 5.50005 13.1532 5.50001 13.1038V10.5H2.89626C2.84678 10.5 2.79841 10.5146 2.75726 10.5421C2.71611 10.5695 2.68404 10.6086 2.6651 10.6543C2.64616 10.7 2.64121 10.7503 2.65088 10.7988C2.66054 10.8473 2.68438 10.8919 2.71938 10.9269Z" fill="black"/>
</g>
<defs>
<clipPath id="clip0_5_1292">
<rect width="16" height="16" fill="white"/>
</clipPath>
</defs>
</svg>
