<svg width="16" height="16" viewBox="0 0 16 16" fill="none" xmlns="http://www.w3.org/2000/svg">
<g clip-path="url(#clip0_5_1300)">
<path d="M14.5 3V5.5C14.5 5.63261 14.4473 5.75979 14.3536 5.85355C14.2598 5.94732 14.1326 6 14 6C13.8674 6 13.7402 5.94732 13.6464 5.85355C13.5527 5.75979 13.5 5.63261 13.5 5.5V3.5H11.5C11.3674 3.5 11.2402 3.44732 11.1464 3.35355C11.0527 3.25979 11 3.13261 11 3C11 2.86739 11.0527 2.74021 11.1464 2.64645C11.2402 2.55268 11.3674 2.5 11.5 2.5H14C14.1326 2.5 14.2598 2.55268 14.3536 2.64645C14.4473 2.74021 14.5 2.86739 14.5 3ZM4.5 12.5H2.5V10.5C2.5 10.3674 2.44732 10.2402 2.35355 10.1464C2.25979 10.0527 2.13261 10 2 10C1.86739 10 1.74021 10.0527 1.64645 10.1464C1.55268 10.2402 1.5 10.3674 1.5 10.5V13C1.5 13.1326 1.55268 13.2598 1.64645 13.3536C1.74021 13.4473 1.86739 13.5 2 13.5H4.5C4.63261 13.5 4.75979 13.4473 4.85355 13.3536C4.94732 13.2598 5 13.1326 5 13C5 12.8674 4.94732 12.7402 4.85355 12.6464C4.75979 12.5527 4.63261 12.5 4.5 12.5ZM14 10C13.8674 10 13.7402 10.0527 13.6464 10.1464C13.5527 10.2402 13.5 10.3674 13.5 10.5V12.5H11.5C11.3674 12.5 11.2402 12.5527 11.1464 12.6464C11.0527 12.7402 11 12.8674 11 13C11 13.1326 11.0527 13.2598 11.1464 13.3536C11.2402 13.4473 11.3674 13.5 11.5 13.5H14C14.1326 13.5 14.2598 13.4473 14.3536 13.3536C14.4473 13.2598 14.5 13.1326 14.5 13V10.5C14.5 10.3674 14.4473 10.2402 14.3536 10.1464C14.2598 10.0527 14.1326 10 14 10ZM2 6C2.13261 6 2.25979 5.94732 2.35355 5.85355C2.44732 5.75979 2.5 5.63261 2.5 5.5V3.5H4.5C4.63261 3.5 4.75979 3.44732 4.85355 3.35355C4.94732 3.25979 5 3.13261 5 3C5 2.86739 4.94732 2.74021 4.85355 2.64645C4.75979 2.55268 4.63261 2.5 4.5 2.5H2C1.86739 2.5 1.74021 2.55268 1.64645 2.64645C1.55268 2.74021 1.5 2.86739 1.5 3V5.5C1.5 5.63261 1.55268 5.75979 1.64645 5.85355C1.74021 5.94732 1.86739 6 2 6ZM11.12 5.20687L8.25 3.56562C8.17444 3.52243 8.08891 3.49971 8.00187 3.49971C7.91484 3.49971 7.82931 3.52243 7.75375 3.56562L4.88 5.20687C4.84092 5.22849 4.80835 5.26019 4.78567 5.29866C4.76299 5.33713 4.75103 5.38097 4.75103 5.42562C4.75103 5.47028 4.76299 5.51412 4.78567 5.55259C4.80835 5.59106 4.84092 5.62276 4.88 5.64437L8 7.42438L11.12 5.64125C11.1583 5.6194 11.1902 5.5878 11.2124 5.54965C11.2345 5.51151 11.2462 5.46818 11.2462 5.42406C11.2462 5.37995 11.2345 5.33662 11.2124 5.29847C11.1902 5.26033 11.1583 5.22872 11.12 5.20687ZM4 6.72062V10C3.99921 10.0885 4.02193 10.1757 4.06586 10.2525C4.10978 10.3294 4.17333 10.3932 4.25 10.4375L7.125 12.0794C7.16303 12.1013 7.20618 12.1129 7.25009 12.1129C7.29401 12.1129 7.33714 12.1013 7.37516 12.0793C7.41318 12.0573 7.44473 12.0257 7.46664 11.9876C7.48856 11.9496 7.50006 11.9064 7.5 11.8625V8.29L4.375 6.50375C4.33697 6.48179 4.29382 6.47024 4.24991 6.47026C4.20599 6.47027 4.16286 6.48186 4.12484 6.50384C4.08682 6.52583 4.05527 6.55744 4.03336 6.5955C4.01144 6.63355 3.99994 6.67671 4 6.72062ZM12 10V6.72062C12.0001 6.67671 11.9886 6.63355 11.9666 6.5955C11.9447 6.55744 11.9132 6.52583 11.8752 6.50384C11.8371 6.48186 11.794 6.47027 11.7501 6.47026C11.7062 6.47024 11.663 6.48179 11.625 6.50375L8.5 8.29V11.8594C8.49994 11.9033 8.51144 11.9464 8.53336 11.9845C8.55527 12.0226 8.58682 12.0542 8.62484 12.0762C8.66286 12.0981 8.70599 12.1097 8.74991 12.1097C8.79382 12.1098 8.83697 12.0982 8.875 12.0763L11.75 10.4375C11.8267 10.3932 11.8902 10.3294 11.9341 10.2525C11.9781 10.1757 12.0008 10.0885 12 10Z" fill="black"/>
</g>
<defs>
<clipPath id="clip0_5_1300">
<rect width="16" height="16" fill="white"/>
</clipPath>
</defs>
</svg>
