<svg width="16" height="16" viewBox="0 0 16 16" fill="none" xmlns="http://www.w3.org/2000/svg">
<g clip-path="url(#clip0_5_1042)">
<path d="M8 1.5C6.71442 1.5 5.45772 1.88122 4.3888 2.59545C3.31988 3.30968 2.48676 4.32484 1.99479 5.51256C1.50282 6.70028 1.37409 8.00721 1.6249 9.26809C1.8757 10.529 2.49477 11.6872 3.40381 12.5962C4.31285 13.5052 5.47104 14.1243 6.73192 14.3751C7.99279 14.6259 9.29973 14.4972 10.4874 14.0052C11.6752 13.5132 12.6903 12.6801 13.4046 11.6112C14.1188 10.5423 14.5 9.28558 14.5 8C14.4982 6.27665 13.8128 4.62441 12.5942 3.40582C11.3756 2.18722 9.72335 1.50182 8 1.5ZM11.4 4.8L9 8H10C10.1326 8 10.2598 8.05268 10.3536 8.14645C10.4473 8.24021 10.5 8.36739 10.5 8.5C10.5 8.63261 10.4473 8.75979 10.3536 8.85355C10.2598 8.94732 10.1326 9 10 9H8.5V10H10C10.1326 10 10.2598 10.0527 10.3536 10.1464C10.4473 10.2402 10.5 10.3674 10.5 10.5C10.5 10.6326 10.4473 10.7598 10.3536 10.8536C10.2598 10.9473 10.1326 11 10 11H8.5V12C8.5 12.1326 8.44732 12.2598 8.35356 12.3536C8.25979 12.4473 8.13261 12.5 8 12.5C7.86739 12.5 7.74022 12.4473 7.64645 12.3536C7.55268 12.2598 7.5 12.1326 7.5 12V11H6C5.86739 11 5.74022 10.9473 5.64645 10.8536C5.55268 10.7598 5.5 10.6326 5.5 10.5C5.5 10.3674 5.55268 10.2402 5.64645 10.1464C5.74022 10.0527 5.86739 10 6 10H7.5V9H6C5.86739 9 5.74022 8.94732 5.64645 8.85355C5.55268 8.75979 5.5 8.63261 5.5 8.5C5.5 8.36739 5.55268 8.24021 5.64645 8.14645C5.74022 8.05268 5.86739 8 6 8H7L4.6 4.8C4.56061 4.74747 4.53194 4.6877 4.51565 4.62409C4.49935 4.56048 4.49574 4.49429 4.50503 4.42929C4.51431 4.36429 4.53631 4.30175 4.56977 4.24525C4.60322 4.18875 4.64747 4.1394 4.7 4.1C4.75253 4.0606 4.81231 4.03194 4.87591 4.01564C4.93952 3.99935 5.00571 3.99574 5.07071 4.00503C5.13571 4.01431 5.19825 4.03631 5.25475 4.06976C5.31125 4.10322 5.36061 4.14747 5.4 4.2L8 7.66687L10.6 4.2C10.6796 4.09391 10.798 4.02378 10.9293 4.00503C10.9943 3.99574 11.0605 3.99935 11.1241 4.01564C11.1877 4.03194 11.2475 4.0606 11.3 4.1C11.3525 4.1394 11.3968 4.18875 11.4302 4.24525C11.4637 4.30175 11.4857 4.36429 11.495 4.42929C11.5043 4.49429 11.5007 4.56048 11.4844 4.62409C11.4681 4.6877 11.4394 4.74747 11.4 4.8Z" fill="black"/>
</g>
<defs>
<clipPath id="clip0_5_1042">
<rect width="16" height="16" fill="white"/>
</clipPath>
</defs>
</svg>
