<svg width="16" height="16" viewBox="0 0 16 16" fill="none" xmlns="http://www.w3.org/2000/svg">
<g clip-path="url(#clip0_5_931)">
<path d="M8 1.5C6.71442 1.5 5.45772 1.88122 4.3888 2.59545C3.31988 3.30968 2.48676 4.32484 1.99479 5.51256C1.50282 6.70028 1.37409 8.00721 1.6249 9.26809C1.8757 10.529 2.49477 11.6872 3.40381 12.5962C4.31285 13.5052 5.47104 14.1243 6.73192 14.3751C7.99279 14.6259 9.29973 14.4972 10.4874 14.0052C11.6752 13.5132 12.6903 12.6801 13.4046 11.6112C14.1188 10.5423 14.5 9.28558 14.5 8C14.4982 6.27665 13.8128 4.62441 12.5942 3.40582C11.3756 2.18722 9.72335 1.50182 8 1.5ZM11 7.5H8.5V12C8.5 12.1326 8.44732 12.2598 8.35356 12.3536C8.25979 12.4473 8.13261 12.5 8 12.5C7.86739 12.5 7.74022 12.4473 7.64645 12.3536C7.55268 12.2598 7.5 12.1326 7.5 12V7.5H5C4.86739 7.5 4.74022 7.44732 4.64645 7.35355C4.55268 7.25979 4.5 7.13261 4.5 7C4.5 6.86739 4.55268 6.74021 4.64645 6.64645C4.74022 6.55268 4.86739 6.5 5 6.5H11C11.1326 6.5 11.2598 6.55268 11.3536 6.64645C11.4473 6.74021 11.5 6.86739 11.5 7C11.5 7.13261 11.4473 7.25979 11.3536 7.35355C11.2598 7.44732 11.1326 7.5 11 7.5ZM11 5.5H5C4.86739 5.5 4.74022 5.44732 4.64645 5.35355C4.55268 5.25979 4.5 5.13261 4.5 5C4.5 4.86739 4.55268 4.74021 4.64645 4.64645C4.74022 4.55268 4.86739 4.5 5 4.5H11C11.1326 4.5 11.2598 4.55268 11.3536 4.64645C11.4473 4.74021 11.5 4.86739 11.5 5C11.5 5.13261 11.4473 5.25979 11.3536 5.35355C11.2598 5.44732 11.1326 5.5 11 5.5Z" fill="black"/>
</g>
<defs>
<clipPath id="clip0_5_931">
<rect width="16" height="16" fill="white"/>
</clipPath>
</defs>
</svg>
