<svg width="16" height="16" viewBox="0 0 16 16" fill="none" xmlns="http://www.w3.org/2000/svg">
<g clip-path="url(#clip0_5_934)">
<path d="M8 1.5C6.71442 1.5 5.45772 1.88122 4.3888 2.59545C3.31988 3.30968 2.48676 4.32484 1.99479 5.51256C1.50282 6.70028 1.37409 8.00721 1.6249 9.26809C1.8757 10.529 2.49477 11.6872 3.40381 12.5962C4.31285 13.5052 5.47104 14.1243 6.73192 14.3751C7.99279 14.6259 9.29973 14.4972 10.4874 14.0052C11.6752 13.5132 12.6903 12.6801 13.4046 11.6112C14.1188 10.5423 14.5 9.28558 14.5 8C14.4982 6.27665 13.8128 4.62441 12.5942 3.40582C11.3756 2.18722 9.72335 1.50182 8 1.5ZM10.395 6H11C11.1326 6 11.2598 6.05268 11.3536 6.14645C11.4473 6.24021 11.5 6.36739 11.5 6.5C11.5 6.63261 11.4473 6.75979 11.3536 6.85355C11.2598 6.94732 11.1326 7 11 7H10.4881C10.4249 7.68282 10.1093 8.3175 9.60285 8.77987C9.09644 9.24224 8.43574 9.49903 7.75 9.5H6.9575L10.3069 12.1056C10.3612 12.145 10.4071 12.1949 10.4418 12.2524C10.4764 12.3098 10.4991 12.3737 10.5086 12.4401C10.5181 12.5066 10.514 12.5742 10.4968 12.6391C10.4795 12.7039 10.4494 12.7647 10.4082 12.8176C10.367 12.8706 10.3155 12.9147 10.2569 12.9474C10.1983 12.98 10.1337 13.0005 10.0669 13.0077C10.0002 13.0149 9.93273 13.0085 9.86851 12.9891C9.80429 12.9696 9.74464 12.9374 9.69313 12.8944L5.19313 9.39437C5.11101 9.33038 5.05092 9.24234 5.02124 9.14256C4.99155 9.04277 4.99376 8.9362 5.02755 8.83773C5.06134 8.73925 5.12502 8.65378 5.20972 8.59324C5.29441 8.5327 5.39589 8.5001 5.5 8.5H7.75C8.17079 8.49996 8.57747 8.3483 8.89554 8.07282C9.21361 7.79733 9.42177 7.41647 9.48188 7H5.5C5.36739 7 5.24022 6.94732 5.14645 6.85355C5.05268 6.75979 5 6.63261 5 6.5C5 6.36739 5.05268 6.24021 5.14645 6.14645C5.24022 6.05268 5.36739 6 5.5 6H9.33063C9.18874 5.70087 8.96491 5.44813 8.68512 5.27112C8.40534 5.09411 8.08108 5.0001 7.75 5H5.5C5.36739 5 5.24022 4.94732 5.14645 4.85355C5.05268 4.75979 5 4.63261 5 4.5C5 4.36739 5.05268 4.24021 5.14645 4.14645C5.24022 4.05268 5.36739 4 5.5 4H11C11.1326 4 11.2598 4.05268 11.3536 4.14645C11.4473 4.24021 11.5 4.36739 11.5 4.5C11.5 4.63261 11.4473 4.75979 11.3536 4.85355C11.2598 4.94732 11.1326 5 11 5H9.87C10.1125 5.29329 10.2913 5.63384 10.395 6Z" fill="black"/>
</g>
<defs>
<clipPath id="clip0_5_934">
<rect width="16" height="16" fill="white"/>
</clipPath>
</defs>
</svg>
