<svg width="16" height="16" viewBox="0 0 16 16" fill="none" xmlns="http://www.w3.org/2000/svg">
<g clip-path="url(#clip0_5_1008)">
<path d="M11 9.5C11 9.76522 10.8946 10.0196 10.7071 10.2071C10.5196 10.3946 10.2652 10.5 10 10.5H7V8.5H10C10.2652 8.5 10.5196 8.60536 10.7071 8.79289C10.8946 8.98043 11 9.23478 11 9.5ZM15 8C15 9.28558 14.6188 10.5423 13.9046 11.6112C13.1903 12.6801 12.1752 13.5132 10.9874 14.0052C9.79973 14.4972 8.49279 14.6259 7.23192 14.3751C5.97104 14.1243 4.81285 13.5052 3.90381 12.5962C2.99477 11.6872 2.3757 10.529 2.1249 9.26809C1.87409 8.00721 2.00282 6.70028 2.49479 5.51256C2.98676 4.32484 3.81988 3.30968 4.8888 2.59545C5.95772 1.88122 7.21442 1.5 8.5 1.5C10.2234 1.50182 11.8756 2.18722 13.0942 3.40582C14.3128 4.62441 14.9982 6.27665 15 8ZM12 9.5C12 9.155 11.9107 8.81587 11.7408 8.51558C11.5709 8.21528 11.3263 7.96404 11.0306 7.78625C11.2482 7.52756 11.3966 7.21794 11.4621 6.88633C11.5276 6.55471 11.5079 6.21191 11.405 5.88995C11.302 5.56799 11.1192 5.27737 10.8735 5.04523C10.6278 4.81309 10.3273 4.64701 10 4.5625V4C10 3.86739 9.94732 3.74021 9.85356 3.64645C9.75979 3.55268 9.63261 3.5 9.5 3.5C9.36739 3.5 9.24022 3.55268 9.14645 3.64645C9.05268 3.74021 9 3.86739 9 4V4.5H8V4C8 3.86739 7.94732 3.74021 7.85356 3.64645C7.75979 3.55268 7.63261 3.5 7.5 3.5C7.36739 3.5 7.24022 3.55268 7.14645 3.64645C7.05268 3.74021 7 3.86739 7 4V4.5H6C5.86739 4.5 5.74022 4.55268 5.64645 4.64645C5.55268 4.74021 5.5 4.86739 5.5 5C5.5 5.13261 5.55268 5.25979 5.64645 5.35355C5.74022 5.44732 5.86739 5.5 6 5.5V10.5C5.86739 10.5 5.74022 10.5527 5.64645 10.6464C5.55268 10.7402 5.5 10.8674 5.5 11C5.5 11.1326 5.55268 11.2598 5.64645 11.3536C5.74022 11.4473 5.86739 11.5 6 11.5H7V12C7 12.1326 7.05268 12.2598 7.14645 12.3536C7.24022 12.4473 7.36739 12.5 7.5 12.5C7.63261 12.5 7.75979 12.4473 7.85356 12.3536C7.94732 12.2598 8 12.1326 8 12V11.5H9V12C9 12.1326 9.05268 12.2598 9.14645 12.3536C9.24022 12.4473 9.36739 12.5 9.5 12.5C9.63261 12.5 9.75979 12.4473 9.85356 12.3536C9.94732 12.2598 10 12.1326 10 12V11.5C10.5304 11.5 11.0391 11.2893 11.4142 10.9142C11.7893 10.5391 12 10.0304 12 9.5ZM10.5 6.5C10.5 6.23478 10.3946 5.98043 10.2071 5.79289C10.0196 5.60536 9.76522 5.5 9.5 5.5H7V7.5H9.5C9.76522 7.5 10.0196 7.39464 10.2071 7.20711C10.3946 7.01957 10.5 6.76522 10.5 6.5Z" fill="black"/>
</g>
<defs>
<clipPath id="clip0_5_1008">
<rect width="16" height="16" fill="white"/>
</clipPath>
</defs>
</svg>
