<svg width="16" height="16" viewBox="0 0 16 16" fill="none" xmlns="http://www.w3.org/2000/svg">
<g clip-path="url(#clip0_5_935)">
<path d="M13.893 7.69123L8.39296 0.691229C8.34618 0.631697 8.28648 0.583568 8.21838 0.550474C8.15028 0.517379 8.07556 0.500183 7.99984 0.500183C7.92412 0.500183 7.8494 0.517379 7.7813 0.550474C7.7132 0.583568 7.6535 0.631697 7.60671 0.691229L2.10671 7.69123C2.03758 7.77929 2 7.88802 2 7.99998C2 8.11194 2.03758 8.22066 2.10671 8.30873L7.60671 15.3087C7.6535 15.3683 7.7132 15.4164 7.7813 15.4495C7.8494 15.4826 7.92412 15.4998 7.99984 15.4998C8.07556 15.4998 8.15028 15.4826 8.21838 15.4495C8.28648 15.4164 8.34618 15.3683 8.39296 15.3087L13.893 8.30873C13.9621 8.22066 13.9997 8.11194 13.9997 7.99998C13.9997 7.88802 13.9621 7.77929 13.893 7.69123ZM8.49984 9.72373V2.4456L12.7136 7.8081L8.49984 9.72373ZM7.49984 9.72373L3.28609 7.8081L7.49984 2.4456V9.72373ZM7.49984 10.8219V13.5544L4.16046 9.30435L7.49984 10.8219Z" fill="black"/>
</g>
<defs>
<clipPath id="clip0_5_935">
<rect width="16" height="16" fill="white"/>
</clipPath>
</defs>
</svg>
