<svg width="16" height="16" viewBox="0 0 16 16" fill="none" xmlns="http://www.w3.org/2000/svg">
<g clip-path="url(#clip0_5_933)">
<path d="M8 1.5C6.71442 1.5 5.45772 1.88122 4.3888 2.59545C3.31988 3.30968 2.48676 4.32484 1.99479 5.51256C1.50282 6.70028 1.37409 8.00721 1.6249 9.26809C1.8757 10.529 2.49477 11.6872 3.40381 12.5962C4.31285 13.5052 5.47104 14.1243 6.73192 14.3751C7.99279 14.6259 9.29973 14.4972 10.4874 14.0052C11.6752 13.5132 12.6903 12.6801 13.4046 11.6112C14.1188 10.5423 14.5 9.28558 14.5 8C14.4982 6.27665 13.8128 4.62441 12.5942 3.40582C11.3756 2.18722 9.72335 1.50182 8 1.5ZM12.5 9H11.3388L10.4638 11.1875C10.4267 11.2804 10.3626 11.36 10.2798 11.4161C10.1971 11.4722 10.0994 11.5021 9.99938 11.5021C9.89939 11.5021 9.80169 11.4722 9.71891 11.4161C9.63613 11.36 9.57207 11.2804 9.535 11.1875L8 7.34625L6.46438 11.1875C6.42731 11.2804 6.36325 11.36 6.28047 11.4161C6.19769 11.4722 6.1 11.5021 6 11.5021C5.90001 11.5021 5.80232 11.4722 5.71954 11.4161C5.63676 11.36 5.5727 11.2804 5.53563 11.1875L4.66063 9H3.5C3.36739 9 3.24022 8.94732 3.14645 8.85355C3.05268 8.75979 3 8.63261 3 8.5C3 8.36739 3.05268 8.24021 3.14645 8.14645C3.24022 8.05268 3.36739 8 3.5 8H4.26125L3.53563 6.1875C3.511 6.12652 3.49863 6.06128 3.49922 5.99552C3.49981 5.92976 3.51335 5.86475 3.53906 5.80422C3.59098 5.68197 3.68934 5.58535 3.8125 5.53562C3.93566 5.4859 4.07353 5.48713 4.19578 5.53905C4.31803 5.59098 4.41465 5.68934 4.46438 5.8125L6 9.65375L7.53563 5.8125C7.5727 5.71963 7.63676 5.64001 7.71954 5.58392C7.80232 5.52783 7.90001 5.49785 8 5.49785C8.1 5.49785 8.19769 5.52783 8.28047 5.58392C8.36325 5.64001 8.42731 5.71963 8.46438 5.8125L10 9.65375L11.5356 5.8125C11.5854 5.68934 11.682 5.59098 11.8042 5.53905C11.9265 5.48713 12.0643 5.4859 12.1875 5.53562C12.3107 5.58535 12.409 5.68197 12.4609 5.80422C12.5129 5.92647 12.5141 6.06434 12.4644 6.1875L11.7388 8H12.5C12.6326 8 12.7598 8.05268 12.8536 8.14645C12.9473 8.24021 13 8.36739 13 8.5C13 8.63261 12.9473 8.75979 12.8536 8.85355C12.7598 8.94732 12.6326 9 12.5 9Z" fill="black"/>
</g>
<defs>
<clipPath id="clip0_5_933">
<rect width="16" height="16" fill="white"/>
</clipPath>
</defs>
</svg>
