<svg width="16" height="16" viewBox="0 0 16 16" fill="none" xmlns="http://www.w3.org/2000/svg">
<g clip-path="url(#clip0_5_1000)">
<path d="M8 1.5C6.71442 1.5 5.45772 1.88122 4.3888 2.59545C3.31988 3.30968 2.48676 4.32484 1.99479 5.51256C1.50282 6.70028 1.37409 8.00721 1.6249 9.26809C1.8757 10.529 2.49477 11.6872 3.40381 12.5962C4.31285 13.5052 5.47104 14.1243 6.73192 14.3751C7.99279 14.6259 9.29973 14.4972 10.4874 14.0052C11.6752 13.5132 12.6903 12.6801 13.4046 11.6112C14.1188 10.5423 14.5 9.28558 14.5 8C14.4982 6.27665 13.8128 4.62441 12.5942 3.40582C11.3756 2.18722 9.72335 1.50182 8 1.5ZM10.5 11.5H5.5C5.36739 11.5 5.24022 11.4473 5.14645 11.3536C5.05268 11.2598 5 11.1326 5 11C5 10.8674 5.05268 10.7402 5.14645 10.6464C5.24022 10.5527 5.36739 10.5 5.5 10.5C5.76522 10.5 6.01957 10.3946 6.20711 10.2071C6.39465 10.0196 6.5 9.76522 6.5 9.5V8.5H5.5C5.36739 8.5 5.24022 8.44732 5.14645 8.35355C5.05268 8.25979 5 8.13261 5 8C5 7.86739 5.05268 7.74021 5.14645 7.64645C5.24022 7.55268 5.36739 7.5 5.5 7.5H6.5V6C6.50001 5.56116 6.61554 5.13006 6.83496 4.75002C7.05439 4.36998 7.36998 4.0544 7.75003 3.83498C8.13008 3.61557 8.56118 3.50006 9.00002 3.50006C9.43886 3.50007 9.86996 3.61558 10.25 3.835C10.3611 3.90314 10.4412 4.01196 10.4733 4.13829C10.5053 4.26461 10.4868 4.39846 10.4216 4.51131C10.3564 4.62417 10.2497 4.70711 10.1243 4.74247C9.99882 4.77783 9.86453 4.76282 9.75 4.70062C9.52195 4.56896 9.26325 4.49965 8.99992 4.49966C8.73659 4.49968 8.4779 4.56902 8.24986 4.70071C8.02182 4.8324 7.83247 5.02181 7.70084 5.24988C7.56921 5.47796 7.49994 5.73667 7.5 6V7.5H8.5C8.63261 7.5 8.75979 7.55268 8.85356 7.64645C8.94732 7.74021 9 7.86739 9 8C9 8.13261 8.94732 8.25979 8.85356 8.35355C8.75979 8.44732 8.63261 8.5 8.5 8.5H7.5V9.5C7.50043 9.85132 7.40746 10.1964 7.23063 10.5H10.5C10.6326 10.5 10.7598 10.5527 10.8536 10.6464C10.9473 10.7402 11 10.8674 11 11C11 11.1326 10.9473 11.2598 10.8536 11.3536C10.7598 11.4473 10.6326 11.5 10.5 11.5Z" fill="black"/>
</g>
<defs>
<clipPath id="clip0_5_1000">
<rect width="16" height="16" fill="white"/>
</clipPath>
</defs>
</svg>
