<svg width="16" height="16" viewBox="0 0 16 16" fill="none" xmlns="http://www.w3.org/2000/svg">
<g clip-path="url(#clip0_5_929)">
<path d="M8.97188 8.5H10V9.9375L8.97188 8.5ZM6 7.5H7.02813L6 6.0625V7.5ZM14.5 8C14.5 9.28558 14.1188 10.5423 13.4046 11.6112C12.6903 12.6801 11.6752 13.5132 10.4874 14.0052C9.29973 14.4972 7.99279 14.6259 6.73192 14.3751C5.47104 14.1243 4.31285 13.5052 3.40381 12.5962C2.49477 11.6872 1.8757 10.529 1.6249 9.26809C1.37409 8.00721 1.50282 6.70028 1.99479 5.51256C2.48676 4.32484 3.31988 3.30968 4.3888 2.59545C5.45772 1.88122 6.71442 1.5 8 1.5C9.72335 1.50182 11.3756 2.18722 12.5942 3.40582C13.8128 4.62441 14.4982 6.27665 14.5 8ZM12.5 8C12.5 7.86739 12.4473 7.74021 12.3536 7.64645C12.2598 7.55268 12.1326 7.5 12 7.5H11V4.5C11 4.36739 10.9473 4.24021 10.8536 4.14645C10.7598 4.05268 10.6326 4 10.5 4C10.3674 4 10.2402 4.05268 10.1464 4.14645C10.0527 4.24021 10 4.36739 10 4.5V7.5H8.2575L5.90688 4.20937C5.84531 4.12317 5.75794 4.05875 5.65739 4.0254C5.55684 3.99205 5.4483 3.99151 5.34741 4.02384C5.24653 4.05616 5.15852 4.1197 5.09608 4.20528C5.03364 4.29086 5 4.39406 5 4.5V7.5H4C3.86739 7.5 3.74022 7.55268 3.64645 7.64645C3.55268 7.74021 3.5 7.86739 3.5 8C3.5 8.13261 3.55268 8.25979 3.64645 8.35355C3.74022 8.44732 3.86739 8.5 4 8.5H5V11.5C5 11.6326 5.05268 11.7598 5.14645 11.8536C5.24022 11.9473 5.36739 12 5.5 12C5.63261 12 5.75979 11.9473 5.85356 11.8536C5.94732 11.7598 6 11.6326 6 11.5V8.5H7.7425L10.0931 11.7906C10.1394 11.8554 10.2004 11.9082 10.2712 11.9446C10.342 11.981 10.4204 12 10.5 12C10.5518 12.0001 10.6032 11.9921 10.6525 11.9762C10.7534 11.9439 10.8415 11.8804 10.9039 11.7948C10.9664 11.7092 11 11.606 11 11.5V8.5H12C12.1326 8.5 12.2598 8.44732 12.3536 8.35355C12.4473 8.25979 12.5 8.13261 12.5 8Z" fill="black"/>
</g>
<defs>
<clipPath id="clip0_5_929">
<rect width="16" height="16" fill="white"/>
</clipPath>
</defs>
</svg>
