<svg width="16" height="16" viewBox="0 0 16 16" fill="none" xmlns="http://www.w3.org/2000/svg">
<g clip-path="url(#clip0_5_1039)">
<path d="M10.5 6.5C10.5 6.89782 10.342 7.27936 10.0607 7.56066C9.77936 7.84196 9.39783 8 9 8H7V5H9C9.39783 5 9.77936 5.15804 10.0607 5.43934C10.342 5.72064 10.5 6.10218 10.5 6.5ZM14.5 8C14.5 9.28558 14.1188 10.5423 13.4046 11.6112C12.6903 12.6801 11.6752 13.5132 10.4874 14.0052C9.29973 14.4972 7.99279 14.6259 6.73192 14.3751C5.47104 14.1243 4.31285 13.5052 3.40381 12.5962C2.49477 11.6872 1.8757 10.529 1.6249 9.26809C1.37409 8.00721 1.50282 6.70028 1.99479 5.51256C2.48676 4.32484 3.31988 3.30968 4.3888 2.59545C5.45772 1.88122 6.71442 1.5 8 1.5C9.72335 1.50182 11.3756 2.18722 12.5942 3.40582C13.8128 4.62441 14.4982 6.27665 14.5 8ZM11.5 6.5C11.5 6.1717 11.4353 5.84661 11.3097 5.54329C11.1841 5.23998 10.9999 4.96438 10.7678 4.73223C10.5356 4.50009 10.26 4.31594 9.95671 4.1903C9.6534 4.06466 9.32831 4 9 4H6.5C6.36739 4 6.24022 4.05268 6.14645 4.14645C6.05268 4.24021 6 4.36739 6 4.5V8H5.5C5.36739 8 5.24022 8.05268 5.14645 8.14645C5.05268 8.24021 5 8.36739 5 8.5C5 8.63261 5.05268 8.75979 5.14645 8.85355C5.24022 8.94732 5.36739 9 5.5 9H6V10H5.5C5.36739 10 5.24022 10.0527 5.14645 10.1464C5.05268 10.2402 5 10.3674 5 10.5C5 10.6326 5.05268 10.7598 5.14645 10.8536C5.24022 10.9473 5.36739 11 5.5 11H6V12C6 12.1326 6.05268 12.2598 6.14645 12.3536C6.24022 12.4473 6.36739 12.5 6.5 12.5C6.63261 12.5 6.75979 12.4473 6.85356 12.3536C6.94732 12.2598 7 12.1326 7 12V11H9.5C9.63261 11 9.75979 10.9473 9.85356 10.8536C9.94732 10.7598 10 10.6326 10 10.5C10 10.3674 9.94732 10.2402 9.85356 10.1464C9.75979 10.0527 9.63261 10 9.5 10H7V9H9C9.32831 9 9.6534 8.93534 9.95671 8.8097C10.26 8.68406 10.5356 8.49991 10.7678 8.26777C10.9999 8.03562 11.1841 7.76002 11.3097 7.45671C11.4353 7.15339 11.5 6.8283 11.5 6.5Z" fill="black"/>
</g>
<defs>
<clipPath id="clip0_5_1039">
<rect width="16" height="16" fill="white"/>
</clipPath>
</defs>
</svg>
