<svg width="16" height="16" viewBox="0 0 16 16" fill="none" xmlns="http://www.w3.org/2000/svg">
<g clip-path="url(#clip0_5_1282)">
<path d="M8 1C6.71442 1 5.45772 1.38122 4.3888 2.09545C3.31988 2.80968 2.48676 3.82484 1.99479 5.01256C1.50282 6.20028 1.37409 7.50721 1.6249 8.76809C1.8757 10.029 2.49477 11.1872 3.40381 12.0962C4.31285 13.0052 5.47104 13.6243 6.73192 13.8751C7.99279 14.1259 9.29973 13.9972 10.4874 13.5052C11.6752 13.0132 12.6903 12.1801 13.4046 11.1112C14.1188 10.0423 14.5 8.78558 14.5 7.5C14.4982 5.77665 13.8128 4.12441 12.5942 2.90582C11.3756 1.68722 9.72335 1.00182 8 1ZM5.5 4.5H10.5C10.6326 4.5 10.7598 4.55268 10.8536 4.64645C10.9473 4.74021 11 4.86739 11 5C11 5.13261 10.9473 5.25979 10.8536 5.35355C10.7598 5.44732 10.6326 5.5 10.5 5.5H5.5C5.36739 5.5 5.24022 5.44732 5.14645 5.35355C5.05268 5.25979 5 5.13261 5 5C5 4.86739 5.05268 4.74021 5.14645 4.64645C5.24022 4.55268 5.36739 4.5 5.5 4.5ZM12 10C12 10.1326 11.9473 10.2598 11.8536 10.3536C11.7598 10.4473 11.6326 10.5 11.5 10.5H10C9.60218 10.5 9.22065 10.342 8.93934 10.0607C8.65804 9.77936 8.5 9.39782 8.5 9V7.5H7.5C7.49918 8.2954 7.18284 9.05798 6.62041 9.62041C6.05798 10.1828 5.2954 10.4992 4.5 10.5C4.36739 10.5 4.24022 10.4473 4.14645 10.3536C4.05268 10.2598 4 10.1326 4 10C4 9.86739 4.05268 9.74021 4.14645 9.64645C4.24022 9.55268 4.36739 9.5 4.5 9.5C5.03044 9.5 5.53914 9.28929 5.91422 8.91421C6.28929 8.53914 6.5 8.03043 6.5 7.5H5C4.86739 7.5 4.74022 7.44732 4.64645 7.35355C4.55268 7.25979 4.5 7.13261 4.5 7C4.5 6.86739 4.55268 6.74021 4.64645 6.64645C4.74022 6.55268 4.86739 6.5 5 6.5H11C11.1326 6.5 11.2598 6.55268 11.3536 6.64645C11.4473 6.74021 11.5 6.86739 11.5 7C11.5 7.13261 11.4473 7.25979 11.3536 7.35355C11.2598 7.44732 11.1326 7.5 11 7.5H9.5V9C9.5 9.13261 9.55268 9.25979 9.64645 9.35355C9.74022 9.44732 9.86739 9.5 10 9.5H11V9C11 8.86739 11.0527 8.74021 11.1464 8.64645C11.2402 8.55268 11.3674 8.5 11.5 8.5C11.6326 8.5 11.7598 8.55268 11.8536 8.64645C11.9473 8.74021 12 8.86739 12 9V10Z" fill="black"/>
</g>
<defs>
<clipPath id="clip0_5_1282">
<rect width="16" height="16" fill="white"/>
</clipPath>
</defs>
</svg>
