<svg width="16" height="16" viewBox="0 0 16 16" fill="none" xmlns="http://www.w3.org/2000/svg">
<g clip-path="url(#clip0_5_923)">
<path d="M8 1C5.47688 1 3.5 2.20812 3.5 3.75V12.25C3.5 13.7919 5.47688 15 8 15C10.5231 15 12.5 13.7919 12.5 12.25V3.75C12.5 2.20812 10.5231 1 8 1ZM8 14C6.13562 14 4.5 13.1825 4.5 12.25V4.83938C5.1825 5.53125 6.49375 6 8 6C9.50625 6 10.8175 5.53125 11.5 4.83938V12.25C11.5 13.1825 9.86438 14 8 14Z" fill="black"/>
</g>
<defs>
<clipPath id="clip0_5_923">
<rect width="16" height="16" fill="white"/>
</clipPath>
</defs>
</svg>
