<svg width="16" height="16" viewBox="0 0 16 16" fill="none" xmlns="http://www.w3.org/2000/svg">
<g clip-path="url(#clip0_5_1260)">
<path d="M15.5 4H0.5C0.367392 4 0.240215 4.05268 0.146447 4.14645C0.0526784 4.24021 0 4.36739 0 4.5C0 4.63261 0.0526784 4.75979 0.146447 4.85355C0.240215 4.94732 0.367392 5 0.5 5H1V12C1 12.1326 1.05268 12.2598 1.14645 12.3536C1.24021 12.4473 1.36739 12.5 1.5 12.5C1.63261 12.5 1.75979 12.4473 1.85355 12.3536C1.94732 12.2598 2 12.1326 2 12V9H14V12C14 12.1326 14.0527 12.2598 14.1464 12.3536C14.2402 12.4473 14.3674 12.5 14.5 12.5C14.6326 12.5 14.7598 12.4473 14.8536 12.3536C14.9473 12.2598 15 12.1326 15 12V5H15.5C15.6326 5 15.7598 4.94732 15.8536 4.85355C15.9473 4.75979 16 4.63261 16 4.5C16 4.36739 15.9473 4.24021 15.8536 4.14645C15.7598 4.05268 15.6326 4 15.5 4ZM5 7H3.5C3.36739 7 3.24021 6.94732 3.14645 6.85355C3.05268 6.75979 3 6.63261 3 6.5C3 6.36739 3.05268 6.24021 3.14645 6.14645C3.24021 6.05268 3.36739 6 3.5 6H5C5.13261 6 5.25979 6.05268 5.35355 6.14645C5.44732 6.24021 5.5 6.36739 5.5 6.5C5.5 6.63261 5.44732 6.75979 5.35355 6.85355C5.25979 6.94732 5.13261 7 5 7ZM8.5 7.5C8.5 7.63261 8.44732 7.75979 8.35355 7.85355C8.25979 7.94732 8.13261 8 8 8C7.86739 8 7.74021 7.94732 7.64645 7.85355C7.55268 7.75979 7.5 7.63261 7.5 7.5V5.5C7.5 5.36739 7.55268 5.24021 7.64645 5.14645C7.74021 5.05268 7.86739 5 8 5C8.13261 5 8.25979 5.05268 8.35355 5.14645C8.44732 5.24021 8.5 5.36739 8.5 5.5V7.5ZM12.5 7H11C10.8674 7 10.7402 6.94732 10.6464 6.85355C10.5527 6.75979 10.5 6.63261 10.5 6.5C10.5 6.36739 10.5527 6.24021 10.6464 6.14645C10.7402 6.05268 10.8674 6 11 6H12.5C12.6326 6 12.7598 6.05268 12.8536 6.14645C12.9473 6.24021 13 6.36739 13 6.5C13 6.63261 12.9473 6.75979 12.8536 6.85355C12.7598 6.94732 12.6326 7 12.5 7Z" fill="black"/>
</g>
<defs>
<clipPath id="clip0_5_1260">
<rect width="16" height="16" fill="white"/>
</clipPath>
</defs>
</svg>
