<svg width="16" height="16" viewBox="0 0 16 16" fill="none" xmlns="http://www.w3.org/2000/svg">
<g clip-path="url(#clip0_5_920)">
<path d="M7.5 4.75V11.75C7.5 11.8163 7.47366 11.8799 7.42678 11.9268C7.37989 11.9737 7.3163 12 7.25 12H6V13H6.98313C7.11212 12.9984 7.23695 13.0456 7.33257 13.1322C7.4282 13.2188 7.48756 13.3384 7.49875 13.4669C7.50329 13.5353 7.49372 13.6039 7.47064 13.6684C7.44755 13.7329 7.41144 13.792 7.36455 13.842C7.31766 13.892 7.26099 13.9319 7.19806 13.959C7.13514 13.9862 7.06729 14.0002 6.99875 14H4.01687C3.88767 14.0019 3.76253 13.9548 3.66663 13.8682C3.57074 13.7816 3.5112 13.6619 3.5 13.5331C3.49546 13.4647 3.50503 13.3961 3.52811 13.3316C3.5512 13.2671 3.58731 13.208 3.6342 13.158C3.68109 13.108 3.73776 13.0681 3.80069 13.041C3.86361 13.0138 3.93146 12.9998 4 13H5V12H2C1.60218 12 1.22064 11.842 0.93934 11.5607C0.658035 11.2794 0.5 10.8978 0.5 10.5V6C0.5 5.60218 0.658035 5.22064 0.93934 4.93934C1.22064 4.65804 1.60218 4.5 2 4.5H7.25C7.3163 4.5 7.37989 4.52634 7.42678 4.57322C7.47366 4.62011 7.5 4.6837 7.5 4.75ZM15.5 3V13C15.5 13.2652 15.3946 13.5196 15.2071 13.7071C15.0196 13.8946 14.7652 14 14.5 14H9.5C9.23478 14 8.98043 13.8946 8.79289 13.7071C8.60536 13.5196 8.5 13.2652 8.5 13V3C8.5 2.73478 8.60536 2.48043 8.79289 2.29289C8.98043 2.10536 9.23478 2 9.5 2H14.5C14.7652 2 15.0196 2.10536 15.2071 2.29289C15.3946 2.48043 15.5 2.73478 15.5 3ZM12.7437 11.3481C12.7642 11.1928 12.7355 11.0349 12.6617 10.8967C12.5879 10.7585 12.4726 10.6469 12.3321 10.5775C12.1916 10.5082 12.0329 10.4846 11.8783 10.5101C11.7237 10.5355 11.581 10.6088 11.4701 10.7195C11.3593 10.8302 11.2859 10.9729 11.2603 11.1275C11.2347 11.2821 11.2581 11.4408 11.3273 11.5814C11.3965 11.722 11.508 11.8373 11.6462 11.9113C11.7843 11.9852 11.9421 12.0141 12.0975 11.9937C12.2613 11.9723 12.4134 11.8974 12.5303 11.7807C12.6471 11.6639 12.7222 11.5119 12.7437 11.3481ZM14 6.46688C13.9888 6.33814 13.9293 6.21842 13.8334 6.1318C13.7375 6.04518 13.6123 5.99809 13.4831 6H10.5169C10.3879 5.99841 10.2631 6.04564 10.1674 6.13223C10.0718 6.21882 10.0124 6.33836 10.0013 6.46688C9.99671 6.53527 10.0063 6.60386 10.0294 6.6684C10.0525 6.73294 10.0886 6.79205 10.1354 6.84204C10.1823 6.89204 10.239 6.93186 10.3019 6.95903C10.3649 6.98621 10.4327 7.00015 10.5013 7H13.5013C13.5697 6.99998 13.6374 6.98591 13.7002 6.95866C13.763 6.93141 13.8195 6.89156 13.8662 6.84159C13.913 6.79161 13.949 6.73256 13.972 6.66811C13.995 6.60365 14.0045 6.53516 14 6.46688ZM14 4.46688C13.9888 4.33814 13.9293 4.21842 13.8334 4.1318C13.7375 4.04518 13.6123 3.99809 13.4831 4H10.5169C10.3877 3.99809 10.2625 4.04518 10.1666 4.1318C10.0707 4.21842 10.0112 4.33814 10 4.46688C9.99546 4.53527 10.005 4.60386 10.0281 4.6684C10.0512 4.73294 10.0873 4.79205 10.1342 4.84204C10.1811 4.89204 10.2378 4.93186 10.3007 4.95903C10.3636 4.98621 10.4315 5.00015 10.5 5H13.5C13.5685 5.00015 13.6364 4.98621 13.6993 4.95903C13.7622 4.93186 13.8189 4.89204 13.8658 4.84204C13.9127 4.79205 13.9488 4.73294 13.9719 4.6684C13.995 4.60386 14.0045 4.53527 14 4.46688Z" fill="black"/>
</g>
<defs>
<clipPath id="clip0_5_920">
<rect width="16" height="16" fill="white"/>
</clipPath>
</defs>
</svg>
