<svg width="16" height="16" viewBox="0 0 16 16" fill="none" xmlns="http://www.w3.org/2000/svg">
<g clip-path="url(#clip0_5_1240)">
<path d="M16 7.5C16 7.63261 15.9473 7.75978 15.8536 7.85355C15.7598 7.94732 15.6326 8 15.5 8H0.5C0.367392 8 0.240215 7.94732 0.146447 7.85355C0.0526784 7.75978 0 7.63261 0 7.5C0 7.36739 0.0526784 7.24021 0.146447 7.14645C0.240215 7.05268 0.367392 7 0.5 7H2.245L5.21375 2.91187C5.30371 2.78836 5.42079 2.6871 5.55598 2.61588C5.69118 2.54465 5.84089 2.50536 5.99364 2.50101C6.14639 2.49667 6.2981 2.52739 6.43712 2.59081C6.57614 2.65423 6.69879 2.74867 6.79563 2.86687L7.59875 3.79812L7.61125 3.8125C7.65779 3.87096 7.71691 3.91817 7.78421 3.95062C7.85152 3.98307 7.92528 3.99993 8 3.99993C8.07472 3.99993 8.14848 3.98307 8.21579 3.95062C8.28309 3.91817 8.34221 3.87096 8.38875 3.8125L8.40125 3.79812L9.20438 2.86687C9.30122 2.74867 9.42385 2.65423 9.56288 2.59081C9.7019 2.52739 9.85361 2.49667 10.0064 2.50101C10.1591 2.50536 10.3088 2.54465 10.444 2.61588C10.5792 2.6871 10.6963 2.78836 10.7863 2.91187L13.755 7H15.5C15.6326 7 15.7598 7.05268 15.8536 7.14645C15.9473 7.24021 16 7.36739 16 7.5ZM11.25 9C10.6966 9.00011 10.1627 9.20414 9.75028 9.5731C9.33785 9.94205 9.07586 10.4501 9.01437 11H6.98562C6.924 10.4506 6.66222 9.94304 6.25026 9.5743C5.8383 9.20556 5.30499 9.0014 4.7521 9.0008C4.19921 9.0002 3.66546 9.20319 3.25269 9.57103C2.83993 9.93887 2.57705 10.4458 2.51422 10.9951C2.45139 11.5444 2.59302 12.0976 2.91207 12.5492C3.23112 13.0007 3.70525 13.319 4.244 13.4432C4.78274 13.5675 5.34837 13.489 5.83296 13.2228C6.31754 12.9566 6.68715 12.5213 6.87125 12H9.12875C9.26625 12.3889 9.50802 12.7325 9.82763 12.9933C10.1472 13.2541 10.5324 13.422 10.941 13.4787C11.3496 13.5353 11.7659 13.4786 12.1444 13.3146C12.5229 13.1507 12.8491 12.8858 13.0872 12.549C13.3254 12.2122 13.4663 11.8164 13.4947 11.4049C13.5231 10.9934 13.4378 10.582 13.2482 10.2156C13.0586 9.8493 12.7719 9.54216 12.4195 9.32776C12.0671 9.11337 11.6625 8.99999 11.25 9Z" fill="black"/>
</g>
<defs>
<clipPath id="clip0_5_1240">
<rect width="16" height="16" fill="white"/>
</clipPath>
</defs>
</svg>
