<svg width="16" height="16" viewBox="0 0 16 16" fill="none" xmlns="http://www.w3.org/2000/svg">
<g clip-path="url(#clip0_5_911)">
<path d="M12.8538 13.8538L11.3538 15.3538C11.2838 15.4238 11.1947 15.4715 11.0977 15.4908C11.0006 15.5101 10.9 15.5002 10.8086 15.4623C10.7172 15.4245 10.6391 15.3603 10.5842 15.278C10.5292 15.1957 10.4999 15.099 10.5 15V14H5.00003C4.6022 14 4.22067 13.842 3.93937 13.5607C3.65806 13.2794 3.50003 12.8979 3.50003 12.5V6.50003C3.50003 6.36742 3.55271 6.24024 3.64647 6.14647C3.74024 6.05271 3.86742 6.00003 4.00003 6.00003C4.13264 6.00003 4.25981 6.05271 4.35358 6.14647C4.44735 6.24024 4.50003 6.36742 4.50003 6.50003V12.5C4.50003 12.6326 4.55271 12.7598 4.64647 12.8536C4.74024 12.9473 4.86742 13 5.00003 13H10.5V12C10.4999 11.9011 10.5292 11.8043 10.5842 11.722C10.6391 11.6397 10.7172 11.5756 10.8086 11.5377C10.9 11.4998 11.0006 11.4899 11.0977 11.5093C11.1947 11.5286 11.2838 11.5763 11.3538 11.6463L12.8538 13.1463C12.9003 13.1927 12.9371 13.2479 12.9623 13.3086C12.9875 13.3693 13.0004 13.4343 13.0004 13.5C13.0004 13.5657 12.9875 13.6308 12.9623 13.6915C12.9371 13.7522 12.9003 13.8073 12.8538 13.8538ZM5.00003 4.50003C5.13264 4.50003 5.25981 4.44735 5.35358 4.35358C5.44735 4.25981 5.50003 4.13264 5.50003 4.00003V3.00003H11C11.1326 3.00003 11.2598 3.05271 11.3536 3.14647C11.4473 3.24024 11.5 3.36742 11.5 3.50003V9.50003C11.5 9.63264 11.5527 9.75981 11.6465 9.85358C11.7402 9.94735 11.8674 10 12 10C12.1326 10 12.2598 9.94735 12.3536 9.85358C12.4473 9.75981 12.5 9.63264 12.5 9.50003V3.50003C12.5 3.1022 12.342 2.72067 12.0607 2.43937C11.7794 2.15806 11.3979 2.00003 11 2.00003H5.50003V1.00003C5.50011 0.90108 5.47082 0.804333 5.41589 0.722036C5.36095 0.639739 5.28283 0.575593 5.19142 0.537716C5.10001 0.49984 4.99942 0.489938 4.90237 0.509263C4.80533 0.528588 4.7162 0.576272 4.64628 0.646277L3.14628 2.14628C3.09979 2.19271 3.06291 2.24786 3.03775 2.30856C3.01259 2.36926 2.99963 2.43432 2.99963 2.50003C2.99963 2.56574 3.01259 2.6308 3.03775 2.6915C3.06291 2.7522 3.09979 2.80734 3.14628 2.85378L4.64628 4.35378C4.69275 4.40019 4.7479 4.437 4.8086 4.4621C4.8693 4.48719 4.93435 4.50008 5.00003 4.50003Z" fill="black"/>
</g>
<defs>
<clipPath id="clip0_5_911">
<rect width="16" height="16" fill="white"/>
</clipPath>
</defs>
</svg>
