<svg width="16" height="16" viewBox="0 0 16 16" fill="none" xmlns="http://www.w3.org/2000/svg">
<g clip-path="url(#clip0_5_910)">
<path d="M12 1.5H4C3.60218 1.5 3.22064 1.65804 2.93934 1.93934C2.65804 2.22064 2.5 2.60218 2.5 3V13C2.5 13.3978 2.65804 13.7794 2.93934 14.0607C3.22064 14.342 3.60218 14.5 4 14.5H12C12.3978 14.5 12.7794 14.342 13.0607 14.0607C13.342 13.7794 13.5 13.3978 13.5 13V3C13.5 2.60218 13.342 2.22064 13.0607 1.93934C12.7794 1.65804 12.3978 1.5 12 1.5ZM4 2.5H12C12.1326 2.5 12.2598 2.55268 12.3536 2.64645C12.4473 2.74021 12.5 2.86739 12.5 3V3.5H3.5V3C3.5 2.86739 3.55268 2.74021 3.64645 2.64645C3.74021 2.55268 3.86739 2.5 4 2.5ZM12 13.5H4C3.86739 13.5 3.74021 13.4473 3.64645 13.3536C3.55268 13.2598 3.5 13.1326 3.5 13V12.5H12.5V13C12.5 13.1326 12.4473 13.2598 12.3536 13.3536C12.2598 13.4473 12.1326 13.5 12 13.5Z" fill="black"/>
</g>
<defs>
<clipPath id="clip0_5_910">
<rect width="16" height="16" fill="white"/>
</clipPath>
</defs>
</svg>
