<svg width="16" height="16" viewBox="0 0 16 16" fill="none" xmlns="http://www.w3.org/2000/svg">
<g clip-path="url(#clip0_5_1457)">
<path d="M12 1.5H4C3.60218 1.5 3.22064 1.65804 2.93934 1.93934C2.65804 2.22064 2.5 2.60218 2.5 3V13C2.5 13.3978 2.65804 13.7794 2.93934 14.0607C3.22064 14.342 3.60218 14.5 4 14.5H12C12.3978 14.5 12.7794 14.342 13.0607 14.0607C13.342 13.7794 13.5 13.3978 13.5 13V3C13.5 2.60218 13.342 2.22064 13.0607 1.93934C12.7794 1.65804 12.3978 1.5 12 1.5ZM8 5C7.85166 5 7.70666 4.95601 7.58332 4.8736C7.45999 4.79119 7.36386 4.67406 7.30709 4.53701C7.25032 4.39997 7.23547 4.24917 7.26441 4.10368C7.29335 3.9582 7.36478 3.82456 7.46967 3.71967C7.57456 3.61478 7.7082 3.54335 7.85368 3.51441C7.99917 3.48547 8.14997 3.50032 8.28701 3.55709C8.42406 3.61386 8.54119 3.70999 8.6236 3.83332C8.70601 3.95666 8.75 4.10166 8.75 4.25C8.75 4.44891 8.67098 4.63968 8.53033 4.78033C8.38968 4.92098 8.19891 5 8 5Z" fill="black"/>
</g>
<defs>
<clipPath id="clip0_5_1457">
<rect width="16" height="16" fill="white"/>
</clipPath>
</defs>
</svg>
