<svg width="16" height="16" viewBox="0 0 16 16" fill="none" xmlns="http://www.w3.org/2000/svg">
<g clip-path="url(#clip0_5_908)">
<path d="M12 1.5H4C3.60218 1.5 3.22064 1.65804 2.93934 1.93934C2.65804 2.22064 2.5 2.60218 2.5 3V13C2.5 13.3978 2.65804 13.7794 2.93934 14.0607C3.22064 14.342 3.60218 14.5 4 14.5H12C12.3978 14.5 12.7794 14.342 13.0607 14.0607C13.342 13.7794 13.5 13.3978 13.5 13V3C13.5 2.60218 13.342 2.22064 13.0607 1.93934C12.7794 1.65804 12.3978 1.5 12 1.5ZM10 4.5H6C5.86739 4.5 5.74021 4.44732 5.64645 4.35355C5.55268 4.25979 5.5 4.13261 5.5 4C5.5 3.86739 5.55268 3.74021 5.64645 3.64645C5.74021 3.55268 5.86739 3.5 6 3.5H10C10.1326 3.5 10.2598 3.55268 10.3536 3.64645C10.4473 3.74021 10.5 3.86739 10.5 4C10.5 4.13261 10.4473 4.25979 10.3536 4.35355C10.2598 4.44732 10.1326 4.5 10 4.5Z" fill="black"/>
</g>
<defs>
<clipPath id="clip0_5_908">
<rect width="16" height="16" fill="white"/>
</clipPath>
</defs>
</svg>
