<svg width="16" height="16" viewBox="0 0 16 16" fill="none" xmlns="http://www.w3.org/2000/svg">
<g clip-path="url(#clip0_5_1665)">
<path d="M11 1H5C4.60218 1 4.22064 1.15804 3.93934 1.43934C3.65804 1.72064 3.5 2.10218 3.5 2.5V13.5C3.5 13.8978 3.65804 14.2794 3.93934 14.5607C4.22064 14.842 4.60218 15 5 15H11C11.3978 15 11.7794 14.842 12.0607 14.5607C12.342 14.2794 12.5 13.8978 12.5 13.5V2.5C12.5 2.10218 12.342 1.72064 12.0607 1.43934C11.7794 1.15804 11.3978 1 11 1ZM8 4.5C7.85166 4.5 7.70666 4.45601 7.58332 4.3736C7.45999 4.29119 7.36386 4.17406 7.30709 4.03701C7.25032 3.89997 7.23547 3.74917 7.26441 3.60368C7.29335 3.4582 7.36478 3.32456 7.46967 3.21967C7.57456 3.11478 7.7082 3.04335 7.85368 3.01441C7.99917 2.98547 8.14997 3.00032 8.28701 3.05709C8.42406 3.11386 8.54119 3.20999 8.6236 3.33332C8.70601 3.45666 8.75 3.60166 8.75 3.75C8.75 3.94891 8.67098 4.13968 8.53033 4.28033C8.38968 4.42098 8.19891 4.5 8 4.5Z" fill="black"/>
</g>
<defs>
<clipPath id="clip0_5_1665">
<rect width="16" height="16" fill="white"/>
</clipPath>
</defs>
</svg>
