<svg width="16" height="16" viewBox="0 0 16 16" fill="none" xmlns="http://www.w3.org/2000/svg">
<g clip-path="url(#clip0_5_906)">
<path d="M14 4.5H13V4C13 3.60218 12.842 3.22064 12.5607 2.93934C12.2794 2.65804 11.8978 2.5 11.5 2.5H2.5C2.10218 2.5 1.72064 2.65804 1.43934 2.93934C1.15804 3.22064 1 3.60218 1 4V10C1 10.3978 1.15804 10.7794 1.43934 11.0607C1.72064 11.342 2.10218 11.5 2.5 11.5H9.5V12C9.5 12.3978 9.65804 12.7794 9.93934 13.0607C10.2206 13.342 10.6022 13.5 11 13.5H14C14.3978 13.5 14.7794 13.342 15.0607 13.0607C15.342 12.7794 15.5 12.3978 15.5 12V6C15.5 5.60218 15.342 5.22064 15.0607 4.93934C14.7794 4.65804 14.3978 4.5 14 4.5ZM14.5 12C14.5 12.1326 14.4473 12.2598 14.3536 12.3536C14.2598 12.4473 14.1326 12.5 14 12.5H11C10.8674 12.5 10.7402 12.4473 10.6464 12.3536C10.5527 12.2598 10.5 12.1326 10.5 12V6C10.5 5.86739 10.5527 5.74021 10.6464 5.64645C10.7402 5.55268 10.8674 5.5 11 5.5H14C14.1326 5.5 14.2598 5.55268 14.3536 5.64645C14.4473 5.74021 14.5 5.86739 14.5 6V12ZM8.5 13C8.5 13.1326 8.44732 13.2598 8.35355 13.3536C8.25979 13.4473 8.13261 13.5 8 13.5H5.5C5.36739 13.5 5.24021 13.4473 5.14645 13.3536C5.05268 13.2598 5 13.1326 5 13C5 12.8674 5.05268 12.7402 5.14645 12.6464C5.24021 12.5527 5.36739 12.5 5.5 12.5H8C8.13261 12.5 8.25979 12.5527 8.35355 12.6464C8.44732 12.7402 8.5 12.8674 8.5 13ZM13.5 7C13.5 7.13261 13.4473 7.25979 13.3536 7.35355C13.2598 7.44732 13.1326 7.5 13 7.5H12C11.8674 7.5 11.7402 7.44732 11.6464 7.35355C11.5527 7.25979 11.5 7.13261 11.5 7C11.5 6.86739 11.5527 6.74021 11.6464 6.64645C11.7402 6.55268 11.8674 6.5 12 6.5H13C13.1326 6.5 13.2598 6.55268 13.3536 6.64645C13.4473 6.74021 13.5 6.86739 13.5 7Z" fill="black"/>
</g>
<defs>
<clipPath id="clip0_5_906">
<rect width="16" height="16" fill="white"/>
</clipPath>
</defs>
</svg>
