<svg width="16" height="16" viewBox="0 0 16 16" fill="none" xmlns="http://www.w3.org/2000/svg">
<g clip-path="url(#clip0_5_913)">
<path d="M11 1H5C4.60218 1 4.22064 1.15804 3.93934 1.43934C3.65804 1.72064 3.5 2.10218 3.5 2.5V13.5C3.5 13.8978 3.65804 14.2794 3.93934 14.5607C4.22064 14.842 4.60218 15 5 15H11C11.3978 15 11.7794 14.842 12.0607 14.5607C12.342 14.2794 12.5 13.8978 12.5 13.5V2.5C12.5 2.10218 12.342 1.72064 12.0607 1.43934C11.7794 1.15804 11.3978 1 11 1ZM10 4H6C5.86739 4 5.74021 3.94732 5.64645 3.85355C5.55268 3.75979 5.5 3.63261 5.5 3.5C5.5 3.36739 5.55268 3.24021 5.64645 3.14645C5.74021 3.05268 5.86739 3 6 3H10C10.1326 3 10.2598 3.05268 10.3536 3.14645C10.4473 3.24021 10.5 3.36739 10.5 3.5C10.5 3.63261 10.4473 3.75979 10.3536 3.85355C10.2598 3.94732 10.1326 4 10 4Z" fill="black"/>
</g>
<defs>
<clipPath id="clip0_5_913">
<rect width="16" height="16" fill="white"/>
</clipPath>
</defs>
</svg>
