<svg width="16" height="16" viewBox="0 0 16 16" fill="none" xmlns="http://www.w3.org/2000/svg">
<g clip-path="url(#clip0_5_915)">
<path d="M13.3363 13.87C13.2381 13.9592 13.1086 14.0057 12.9761 13.9994C12.8437 13.993 12.7192 13.9344 12.63 13.8363L12.4888 13.6812C12.4445 14.045 12.2686 14.3799 11.9944 14.6228C11.7201 14.8658 11.3664 14.9999 11 15H5C4.60218 15 4.22065 14.842 3.93934 14.5607C3.65804 14.2794 3.5 13.8978 3.5 13.5V3.79312L2.63 2.83625C2.58492 2.78782 2.5499 2.73093 2.52696 2.66886C2.50403 2.6068 2.49365 2.5408 2.49641 2.47469C2.49917 2.40858 2.51503 2.34368 2.54306 2.28375C2.57108 2.22381 2.61073 2.17004 2.6597 2.12554C2.70866 2.08104 2.76597 2.0467 2.82831 2.02451C2.89064 2.00233 2.95676 1.99273 3.02283 1.99629C3.0889 1.99984 3.15361 2.01647 3.2132 2.04522C3.2728 2.07397 3.32609 2.11425 3.37 2.16375L13.37 13.1637C13.4592 13.2619 13.5057 13.3914 13.4994 13.5239C13.4931 13.6563 13.4344 13.7808 13.3363 13.87ZM11.63 9.76313C11.6979 9.8378 11.7868 9.89019 11.885 9.91341C11.9832 9.93663 12.0861 9.92958 12.1803 9.8932C12.2744 9.85682 12.3553 9.79281 12.4124 9.70957C12.4694 9.62634 12.5 9.52779 12.5 9.42688V2.5C12.5 2.10218 12.342 1.72064 12.0607 1.43934C11.7794 1.15804 11.3978 1 11 1H4.79375C4.6969 1.00001 4.60214 1.02815 4.52098 1.08099C4.43981 1.13384 4.37575 1.20912 4.33656 1.29769C4.29737 1.38626 4.28475 1.48431 4.30023 1.57991C4.31571 1.67552 4.35862 1.76457 4.42375 1.83625L11.63 9.76313Z" fill="black"/>
</g>
<defs>
<clipPath id="clip0_5_915">
<rect width="16" height="16" fill="white"/>
</clipPath>
</defs>
</svg>
