<svg width="16" height="16" viewBox="0 0 16 16" fill="none" xmlns="http://www.w3.org/2000/svg">
<g clip-path="url(#clip0_5_1442)">
<path d="M14.9999 7.99997C15.0003 8.13094 14.9747 8.26069 14.9246 8.3817C14.8745 8.50271 14.8009 8.61259 14.7081 8.70497L8.70494 14.7087C8.51758 14.895 8.26413 14.9995 7.99994 14.9995C7.73576 14.9995 7.48231 14.895 7.29494 14.7087L1.29494 8.70497C1.10869 8.51761 1.00415 8.26416 1.00415 7.99997C1.00415 7.73578 1.10869 7.48233 1.29494 7.29497L7.29807 1.29122C7.48543 1.10497 7.73888 1.00043 8.00307 1.00043C8.26725 1.00043 8.52071 1.10497 8.70807 1.29122L14.7112 7.29497C14.8035 7.38761 14.8765 7.4976 14.9261 7.6186C14.9756 7.7396 15.0007 7.86922 14.9999 7.99997Z" fill="black"/>
</g>
<defs>
<clipPath id="clip0_5_1442">
<rect width="16" height="16" fill="white"/>
</clipPath>
</defs>
</svg>
