<svg width="16" height="16" viewBox="0 0 16 16" fill="none" xmlns="http://www.w3.org/2000/svg">
<g clip-path="url(#clip0_5_905)">
<path d="M5.14628 4.35378C5.09979 4.30734 5.06291 4.2522 5.03775 4.1915C5.01259 4.1308 4.99963 4.06573 4.99963 4.00003C4.99963 3.93432 5.01259 3.86926 5.03775 3.80856C5.06291 3.74786 5.09979 3.69271 5.14628 3.64628L7.64628 1.14628C7.69271 1.09979 7.74786 1.06291 7.80856 1.03775C7.86926 1.01259 7.93432 0.999634 8.00003 0.999634C8.06573 0.999634 8.1308 1.01259 8.1915 1.03775C8.2522 1.06291 8.30734 1.09979 8.35378 1.14628L10.8538 3.64628C10.9003 3.69271 10.9371 3.74786 10.9623 3.80856C10.9875 3.86926 11.0004 3.93432 11.0004 4.00003C11.0004 4.06573 10.9875 4.1308 10.9623 4.1915C10.9371 4.2522 10.9003 4.30734 10.8538 4.35378L8.35378 6.85378C8.30734 6.90027 8.2522 6.93714 8.1915 6.96231C8.1308 6.98747 8.06573 7.00042 8.00003 7.00042C7.93432 7.00042 7.86926 6.98747 7.80856 6.96231C7.74786 6.93714 7.69271 6.90027 7.64628 6.85378L5.14628 4.35378ZM8.35378 9.14628C8.30734 9.09979 8.2522 9.06291 8.1915 9.03775C8.1308 9.01258 8.06573 8.99963 8.00003 8.99963C7.93432 8.99963 7.86926 9.01258 7.80856 9.03775C7.74786 9.06291 7.69271 9.09979 7.64628 9.14628L5.14628 11.6463C5.09979 11.6927 5.06291 11.7479 5.03775 11.8086C5.01259 11.8693 4.99963 11.9343 4.99963 12C4.99963 12.0657 5.01259 12.1308 5.03775 12.1915C5.06291 12.2522 5.09979 12.3073 5.14628 12.3538L7.64628 14.8538C7.69271 14.9003 7.74786 14.9371 7.80856 14.9623C7.86926 14.9875 7.93432 15.0004 8.00003 15.0004C8.06573 15.0004 8.1308 14.9875 8.1915 14.9623C8.2522 14.9371 8.30734 14.9003 8.35378 14.8538L10.8538 12.3538C10.9003 12.3073 10.9371 12.2522 10.9623 12.1915C10.9875 12.1308 11.0004 12.0657 11.0004 12C11.0004 11.9343 10.9875 11.8693 10.9623 11.8086C10.9371 11.7479 10.9003 11.6927 10.8538 11.6463L8.35378 9.14628ZM14.8538 7.64628L12.3538 5.14628C12.3073 5.09979 12.2522 5.06291 12.1915 5.03775C12.1308 5.01259 12.0657 4.99963 12 4.99963C11.9343 4.99963 11.8693 5.01259 11.8086 5.03775C11.7479 5.06291 11.6927 5.09979 11.6463 5.14628L9.14628 7.64628C9.09979 7.69271 9.06291 7.74786 9.03775 7.80856C9.01258 7.86926 8.99963 7.93432 8.99963 8.00003C8.99963 8.06573 9.01258 8.1308 9.03775 8.1915C9.06291 8.2522 9.09979 8.30734 9.14628 8.35378L11.6463 10.8538C11.6927 10.9003 11.7479 10.9371 11.8086 10.9623C11.8693 10.9875 11.9343 11.0004 12 11.0004C12.0657 11.0004 12.1308 10.9875 12.1915 10.9623C12.2522 10.9371 12.3073 10.9003 12.3538 10.8538L14.8538 8.35378C14.9003 8.30734 14.9371 8.2522 14.9623 8.1915C14.9875 8.1308 15.0004 8.06573 15.0004 8.00003C15.0004 7.93432 14.9875 7.86926 14.9623 7.80856C14.9371 7.74786 14.9003 7.69271 14.8538 7.64628ZM6.85378 7.64628L4.35378 5.14628C4.30734 5.09979 4.2522 5.06291 4.1915 5.03775C4.1308 5.01259 4.06573 4.99963 4.00003 4.99963C3.93432 4.99963 3.86926 5.01259 3.80856 5.03775C3.74786 5.06291 3.69271 5.09979 3.64628 5.14628L1.14628 7.64628C1.09979 7.69271 1.06291 7.74786 1.03775 7.80856C1.01259 7.86926 0.999634 7.93432 0.999634 8.00003C0.999634 8.06573 1.01259 8.1308 1.03775 8.1915C1.06291 8.2522 1.09979 8.30734 1.14628 8.35378L3.64628 10.8538C3.69271 10.9003 3.74786 10.9371 3.80856 10.9623C3.86926 10.9875 3.93432 11.0004 4.00003 11.0004C4.06573 11.0004 4.1308 10.9875 4.1915 10.9623C4.2522 10.9371 4.30734 10.9003 4.35378 10.8538L6.85378 8.35378C6.90027 8.30734 6.93714 8.2522 6.96231 8.1915C6.98747 8.1308 7.00042 8.06573 7.00042 8.00003C7.00042 7.93432 6.98747 7.86926 6.96231 7.80856C6.93714 7.74786 6.90027 7.69271 6.85378 7.64628Z" fill="black"/>
</g>
<defs>
<clipPath id="clip0_5_905">
<rect width="16" height="16" fill="white"/>
</clipPath>
</defs>
</svg>
