<svg width="16" height="16" viewBox="0 0 16 16" fill="none" xmlns="http://www.w3.org/2000/svg">
<g clip-path="url(#clip0_5_900)">
<path d="M12 2H4C3.46957 2 2.96086 2.21071 2.58579 2.58579C2.21071 2.96086 2 3.46957 2 4V12C2 12.5304 2.21071 13.0391 2.58579 13.4142C2.96086 13.7893 3.46957 14 4 14H12C12.5304 14 13.0391 13.7893 13.4142 13.4142C13.7893 13.0391 14 12.5304 14 12V4C14 3.46957 13.7893 2.96086 13.4142 2.58579C13.0391 2.21071 12.5304 2 12 2ZM5.75 11.5C5.60166 11.5 5.45666 11.456 5.33332 11.3736C5.20999 11.2912 5.11386 11.1741 5.05709 11.037C5.00032 10.9 4.98547 10.7492 5.01441 10.6037C5.04335 10.4582 5.11478 10.3246 5.21967 10.2197C5.32456 10.1148 5.4582 10.0434 5.60368 10.0144C5.74917 9.98547 5.89997 10.0003 6.03701 10.0571C6.17406 10.1139 6.29119 10.21 6.3736 10.3333C6.45601 10.4567 6.5 10.6017 6.5 10.75C6.5 10.9489 6.42098 11.1397 6.28033 11.2803C6.13968 11.421 5.94891 11.5 5.75 11.5ZM5.75 8.75C5.60166 8.75 5.45666 8.70601 5.33332 8.6236C5.20999 8.54119 5.11386 8.42406 5.05709 8.28701C5.00032 8.14997 4.98547 7.99917 5.01441 7.85368C5.04335 7.7082 5.11478 7.57456 5.21967 7.46967C5.32456 7.36478 5.4582 7.29335 5.60368 7.26441C5.74917 7.23547 5.89997 7.25032 6.03701 7.30709C6.17406 7.36386 6.29119 7.45999 6.3736 7.58332C6.45601 7.70666 6.5 7.85166 6.5 8C6.5 8.19891 6.42098 8.38968 6.28033 8.53033C6.13968 8.67098 5.94891 8.75 5.75 8.75ZM5.75 6C5.60166 6 5.45666 5.95601 5.33332 5.8736C5.20999 5.79119 5.11386 5.67406 5.05709 5.53701C5.00032 5.39997 4.98547 5.24917 5.01441 5.10368C5.04335 4.9582 5.11478 4.82456 5.21967 4.71967C5.32456 4.61478 5.4582 4.54335 5.60368 4.51441C5.74917 4.48547 5.89997 4.50032 6.03701 4.55709C6.17406 4.61386 6.29119 4.70999 6.3736 4.83332C6.45601 4.95666 6.5 5.10166 6.5 5.25C6.5 5.44891 6.42098 5.63968 6.28033 5.78033C6.13968 5.92098 5.94891 6 5.75 6ZM10.25 11.5C10.1017 11.5 9.95666 11.456 9.83332 11.3736C9.70999 11.2912 9.61386 11.1741 9.55709 11.037C9.50033 10.9 9.48547 10.7492 9.51441 10.6037C9.54335 10.4582 9.61478 10.3246 9.71967 10.2197C9.82456 10.1148 9.9582 10.0434 10.1037 10.0144C10.2492 9.98547 10.4 10.0003 10.537 10.0571C10.6741 10.1139 10.7912 10.21 10.8736 10.3333C10.956 10.4567 11 10.6017 11 10.75C11 10.9489 10.921 11.1397 10.7803 11.2803C10.6397 11.421 10.4489 11.5 10.25 11.5ZM10.25 8.75C10.1017 8.75 9.95666 8.70601 9.83332 8.6236C9.70999 8.54119 9.61386 8.42406 9.55709 8.28701C9.50033 8.14997 9.48547 7.99917 9.51441 7.85368C9.54335 7.7082 9.61478 7.57456 9.71967 7.46967C9.82456 7.36478 9.9582 7.29335 10.1037 7.26441C10.2492 7.23547 10.4 7.25032 10.537 7.30709C10.6741 7.36386 10.7912 7.45999 10.8736 7.58332C10.956 7.70666 11 7.85166 11 8C11 8.19891 10.921 8.38968 10.7803 8.53033C10.6397 8.67098 10.4489 8.75 10.25 8.75ZM10.25 6C10.1017 6 9.95666 5.95601 9.83332 5.8736C9.70999 5.79119 9.61386 5.67406 9.55709 5.53701C9.50033 5.39997 9.48547 5.24917 9.51441 5.10368C9.54335 4.9582 9.61478 4.82456 9.71967 4.71967C9.82456 4.61478 9.9582 4.54335 10.1037 4.51441C10.2492 4.48547 10.4 4.50032 10.537 4.55709C10.6741 4.61386 10.7912 4.70999 10.8736 4.83332C10.956 4.95666 11 5.10166 11 5.25C11 5.44891 10.921 5.63968 10.7803 5.78033C10.6397 5.92098 10.4489 6 10.25 6Z" fill="black"/>
</g>
<defs>
<clipPath id="clip0_5_900">
<rect width="16" height="16" fill="white"/>
</clipPath>
</defs>
</svg>
