<svg width="16" height="16" viewBox="0 0 16 16" fill="none" xmlns="http://www.w3.org/2000/svg">
<g clip-path="url(#clip0_5_901)">
<path d="M12 2H4C3.46957 2 2.96086 2.21071 2.58579 2.58579C2.21071 2.96086 2 3.46957 2 4V12C2 12.5304 2.21071 13.0391 2.58579 13.4142C2.96086 13.7893 3.46957 14 4 14H12C12.5304 14 13.0391 13.7893 13.4142 13.4142C13.7893 13.0391 14 12.5304 14 12V4C14 3.46957 13.7893 2.96086 13.4142 2.58579C13.0391 2.21071 12.5304 2 12 2ZM6.25 10.5C6.10166 10.5 5.95666 10.456 5.83332 10.3736C5.70999 10.2912 5.61386 10.1741 5.55709 10.037C5.50032 9.89997 5.48547 9.74917 5.51441 9.60368C5.54335 9.4582 5.61478 9.32456 5.71967 9.21967C5.82456 9.11478 5.9582 9.04335 6.10368 9.01441C6.24917 8.98547 6.39997 9.00033 6.53701 9.05709C6.67406 9.11386 6.79119 9.20999 6.8736 9.33332C6.95601 9.45666 7 9.60166 7 9.75C7 9.94891 6.92098 10.1397 6.78033 10.2803C6.63968 10.421 6.44891 10.5 6.25 10.5ZM6.25 7C6.10166 7 5.95666 6.95601 5.83332 6.8736C5.70999 6.79119 5.61386 6.67406 5.55709 6.53701C5.50032 6.39997 5.48547 6.24917 5.51441 6.10368C5.54335 5.9582 5.61478 5.82456 5.71967 5.71967C5.82456 5.61478 5.9582 5.54335 6.10368 5.51441C6.24917 5.48547 6.39997 5.50032 6.53701 5.55709C6.67406 5.61386 6.79119 5.70999 6.8736 5.83332C6.95601 5.95666 7 6.10166 7 6.25C7 6.44891 6.92098 6.63968 6.78033 6.78033C6.63968 6.92098 6.44891 7 6.25 7ZM9.75 10.5C9.60166 10.5 9.45666 10.456 9.33332 10.3736C9.20999 10.2912 9.11386 10.1741 9.05709 10.037C9.00033 9.89997 8.98547 9.74917 9.01441 9.60368C9.04335 9.4582 9.11478 9.32456 9.21967 9.21967C9.32456 9.11478 9.4582 9.04335 9.60368 9.01441C9.74917 8.98547 9.89997 9.00033 10.037 9.05709C10.1741 9.11386 10.2912 9.20999 10.3736 9.33332C10.456 9.45666 10.5 9.60166 10.5 9.75C10.5 9.94891 10.421 10.1397 10.2803 10.2803C10.1397 10.421 9.94891 10.5 9.75 10.5ZM9.75 7C9.60166 7 9.45666 6.95601 9.33332 6.8736C9.20999 6.79119 9.11386 6.67406 9.05709 6.53701C9.00033 6.39997 8.98547 6.24917 9.01441 6.10368C9.04335 5.9582 9.11478 5.82456 9.21967 5.71967C9.32456 5.61478 9.4582 5.54335 9.60368 5.51441C9.74917 5.48547 9.89997 5.50032 10.037 5.55709C10.1741 5.61386 10.2912 5.70999 10.3736 5.83332C10.456 5.95666 10.5 6.10166 10.5 6.25C10.5 6.44891 10.421 6.63968 10.2803 6.78033C10.1397 6.92098 9.94891 7 9.75 7Z" fill="black"/>
</g>
<defs>
<clipPath id="clip0_5_901">
<rect width="16" height="16" fill="white"/>
</clipPath>
</defs>
</svg>
