<svg width="16" height="16" viewBox="0 0 16 16" fill="none" xmlns="http://www.w3.org/2000/svg">
<g clip-path="url(#clip0_5_903)">
<path d="M12 2H4C3.46957 2 2.96086 2.21071 2.58579 2.58579C2.21071 2.96086 2 3.46957 2 4V12C2 12.5304 2.21071 13.0391 2.58579 13.4142C2.96086 13.7893 3.46957 14 4 14H12C12.5304 14 13.0391 13.7893 13.4142 13.4142C13.7893 13.0391 14 12.5304 14 12V4C14 3.46957 13.7893 2.96086 13.4142 2.58579C13.0391 2.21071 12.5304 2 12 2ZM5.75 11C5.60166 11 5.45666 10.956 5.33332 10.8736C5.20999 10.7912 5.11386 10.6741 5.05709 10.537C5.00032 10.4 4.98547 10.2492 5.01441 10.1037C5.04335 9.9582 5.11478 9.82456 5.21967 9.71967C5.32456 9.61478 5.4582 9.54335 5.60368 9.51441C5.74917 9.48547 5.89997 9.50033 6.03701 9.55709C6.17406 9.61386 6.29119 9.70999 6.3736 9.83332C6.45601 9.95666 6.5 10.1017 6.5 10.25C6.5 10.4489 6.42098 10.6397 6.28033 10.7803C6.13968 10.921 5.94891 11 5.75 11ZM5.75 6.5C5.60166 6.5 5.45666 6.45601 5.33332 6.3736C5.20999 6.29119 5.11386 6.17406 5.05709 6.03701C5.00032 5.89997 4.98547 5.74917 5.01441 5.60368C5.04335 5.4582 5.11478 5.32456 5.21967 5.21967C5.32456 5.11478 5.4582 5.04335 5.60368 5.01441C5.74917 4.98547 5.89997 5.00032 6.03701 5.05709C6.17406 5.11386 6.29119 5.20999 6.3736 5.33332C6.45601 5.45666 6.5 5.60166 6.5 5.75C6.5 5.94891 6.42098 6.13968 6.28033 6.28033C6.13968 6.42098 5.94891 6.5 5.75 6.5ZM8 8.75C7.85166 8.75 7.70666 8.70601 7.58332 8.6236C7.45999 8.54119 7.36386 8.42406 7.30709 8.28701C7.25032 8.14997 7.23547 7.99917 7.26441 7.85368C7.29335 7.7082 7.36478 7.57456 7.46967 7.46967C7.57456 7.36478 7.7082 7.29335 7.85368 7.26441C7.99917 7.23547 8.14997 7.25032 8.28701 7.30709C8.42406 7.36386 8.54119 7.45999 8.6236 7.58332C8.70601 7.70666 8.75 7.85166 8.75 8C8.75 8.19891 8.67098 8.38968 8.53033 8.53033C8.38968 8.67098 8.19891 8.75 8 8.75ZM10.25 11C10.1017 11 9.95666 10.956 9.83332 10.8736C9.70999 10.7912 9.61386 10.6741 9.55709 10.537C9.50033 10.4 9.48547 10.2492 9.51441 10.1037C9.54335 9.9582 9.61478 9.82456 9.71967 9.71967C9.82456 9.61478 9.9582 9.54335 10.1037 9.51441C10.2492 9.48547 10.4 9.50033 10.537 9.55709C10.6741 9.61386 10.7912 9.70999 10.8736 9.83332C10.956 9.95666 11 10.1017 11 10.25C11 10.4489 10.921 10.6397 10.7803 10.7803C10.6397 10.921 10.4489 11 10.25 11ZM10.25 6.5C10.1017 6.5 9.95666 6.45601 9.83332 6.3736C9.70999 6.29119 9.61386 6.17406 9.55709 6.03701C9.50033 5.89997 9.48547 5.74917 9.51441 5.60368C9.54335 5.4582 9.61478 5.32456 9.71967 5.21967C9.82456 5.11478 9.9582 5.04335 10.1037 5.01441C10.2492 4.98547 10.4 5.00032 10.537 5.05709C10.6741 5.11386 10.7912 5.20999 10.8736 5.33332C10.956 5.45666 11 5.60166 11 5.75C11 5.94891 10.921 6.13968 10.7803 6.28033C10.6397 6.42098 10.4489 6.5 10.25 6.5Z" fill="black"/>
</g>
<defs>
<clipPath id="clip0_5_903">
<rect width="16" height="16" fill="white"/>
</clipPath>
</defs>
</svg>
