<svg width="16" height="16" viewBox="0 0 16 16" fill="none" xmlns="http://www.w3.org/2000/svg">
<g clip-path="url(#clip0_5_1624)">
<path d="M15.4694 10.8994L13.625 3.625C13.5765 3.43562 13.4738 3.26451 13.3295 3.13263C13.1851 3.00075 13.0055 2.91383 12.8125 2.8825L10.5588 2.5125C10.3103 2.47254 10.0559 2.52641 9.84496 2.66365C9.63402 2.80088 9.48167 3.01166 9.41753 3.255L9.40441 3.30813C9.39591 3.34188 9.39455 3.37703 9.40042 3.41134C9.40629 3.44564 9.41926 3.47835 9.4385 3.50735C9.45774 3.53636 9.48282 3.56102 9.51215 3.57978C9.54147 3.59853 9.57438 3.61095 9.60878 3.61625C10.1259 3.69215 10.6361 3.80961 11.1344 3.9675C11.259 4.00509 11.3646 4.08864 11.4298 4.20123C11.495 4.31381 11.515 4.44699 11.4857 4.57375C11.4688 4.63981 11.4386 4.70172 11.3969 4.75567C11.3552 4.80963 11.303 4.8545 11.2433 4.88751C11.1837 4.92053 11.1179 4.94099 11.0501 4.94766C10.9822 4.95432 10.9137 4.94703 10.8488 4.92625C8.99992 4.35924 7.02389 4.35706 5.17378 4.92C5.04858 4.9621 4.91197 4.95435 4.79232 4.89837C4.67268 4.84239 4.57919 4.74247 4.53128 4.61938C4.50851 4.55621 4.49869 4.4891 4.50242 4.42206C4.50615 4.35502 4.52334 4.28941 4.55297 4.22916C4.5826 4.16891 4.62406 4.11524 4.67489 4.07136C4.72571 4.02747 4.78485 3.99428 4.84878 3.97375C5.35328 3.81306 5.86997 3.6935 6.39378 3.61625C6.42818 3.61095 6.46109 3.59853 6.49042 3.57978C6.51974 3.56102 6.54482 3.53636 6.56406 3.50735C6.5833 3.47835 6.59627 3.44564 6.60214 3.41134C6.60801 3.37703 6.60665 3.34188 6.59816 3.30813L6.58503 3.255C6.52087 3.01146 6.36831 2.80054 6.15708 2.66338C5.94585 2.52622 5.69111 2.47266 5.44253 2.51313L3.18753 2.88313C2.99464 2.9144 2.81505 3.00124 2.67074 3.133C2.52644 3.26476 2.42367 3.43574 2.37503 3.625L0.530656 10.8994C0.472826 11.128 0.497995 11.3698 0.601683 11.5816C0.705372 11.7935 0.880854 11.9616 1.09691 12.0562L5.28441 13.9131C5.41032 13.9691 5.54635 13.9987 5.68414 14.0002C5.82192 14.0017 5.95856 13.975 6.08564 13.9217C6.21272 13.8684 6.32757 13.7897 6.42312 13.6905C6.51867 13.5912 6.59292 13.4734 6.64128 13.3444L6.85941 12.7537C6.8724 12.7184 6.87723 12.6805 6.87354 12.643C6.86984 12.6055 6.85771 12.5693 6.83805 12.5372C6.8184 12.505 6.79173 12.4777 6.76003 12.4573C6.72834 12.4369 6.69244 12.4239 6.65503 12.4194C6.04787 12.3459 5.44884 12.2161 4.86566 12.0319C4.7416 11.9942 4.63645 11.9109 4.57139 11.7987C4.50632 11.6866 4.48619 11.5539 4.51503 11.4275C4.53175 11.3613 4.56187 11.2991 4.60352 11.245C4.64518 11.1908 4.69749 11.1458 4.75723 11.1127C4.81696 11.0795 4.88286 11.059 4.95085 11.0523C5.01884 11.0456 5.08748 11.0529 5.15253 11.0737C7.00833 11.6421 8.99173 11.6421 10.8475 11.0737C10.9125 11.053 10.981 11.0457 11.0489 11.0524C11.1168 11.0591 11.1826 11.0796 11.2423 11.1127C11.3019 11.1458 11.3542 11.1907 11.3958 11.2448C11.4375 11.2988 11.4676 11.3608 11.4844 11.4269C11.5136 11.5534 11.4936 11.6862 11.4285 11.7986C11.3634 11.9109 11.2581 11.9943 11.1338 12.0319C10.5508 12.2162 9.952 12.3459 9.34503 12.4194C9.30762 12.4239 9.27172 12.4369 9.24003 12.4573C9.20834 12.4777 9.18166 12.505 9.16201 12.5372C9.14235 12.5693 9.13022 12.6055 9.12653 12.643C9.12283 12.6805 9.12766 12.7184 9.14066 12.7537L9.35878 13.3444C9.40722 13.4733 9.48151 13.5911 9.57707 13.6903C9.67264 13.7895 9.78748 13.8682 9.91453 13.9214C10.0416 13.9747 10.1782 14.0014 10.316 14C10.4537 13.9986 10.5897 13.969 10.7157 13.9131L14.9032 12.0562C15.1192 11.9616 15.2947 11.7935 15.3984 11.5816C15.5021 11.3698 15.5272 11.128 15.4694 10.8994ZM5.75003 9.5C5.6017 9.5 5.45669 9.45601 5.33335 9.3736C5.21002 9.29119 5.11389 9.17406 5.05712 9.03701C5.00036 8.89997 4.9855 8.74917 5.01444 8.60368C5.04338 8.4582 5.11481 8.32456 5.2197 8.21967C5.32459 8.11478 5.45823 8.04335 5.60371 8.01441C5.7492 7.98547 5.9 8.00033 6.03704 8.05709C6.17409 8.11386 6.29122 8.20999 6.37363 8.33332C6.45605 8.45666 6.50003 8.60166 6.50003 8.75C6.50003 8.94891 6.42101 9.13968 6.28036 9.28033C6.13971 9.42098 5.94894 9.5 5.75003 9.5ZM10.25 9.5C10.1017 9.5 9.95669 9.45601 9.83335 9.3736C9.71002 9.29119 9.61389 9.17406 9.55712 9.03701C9.50036 8.89997 9.4855 8.74917 9.51444 8.60368C9.54338 8.4582 9.61481 8.32456 9.7197 8.21967C9.82459 8.11478 9.95823 8.04335 10.1037 8.01441C10.2492 7.98547 10.4 8.00033 10.537 8.05709C10.6741 8.11386 10.7912 8.20999 10.8736 8.33332C10.956 8.45666 11 8.60166 11 8.75C11 8.94891 10.921 9.13968 10.7804 9.28033C10.6397 9.42098 10.4489 9.5 10.25 9.5Z" fill="black"/>
</g>
<defs>
<clipPath id="clip0_5_1624">
<rect width="16" height="16" fill="white"/>
</clipPath>
</defs>
</svg>
