<svg width="16" height="16" viewBox="0 0 16 16" fill="none" xmlns="http://www.w3.org/2000/svg">
<g clip-path="url(#clip0_5_898)">
<path d="M11.7688 2.70689C11.7558 2.69578 11.7422 2.68535 11.7281 2.67564C11.7138 2.66564 11.6988 2.65626 11.6838 2.64751C10.2924 1.64174 8.55914 1.22821 6.86353 1.49745C5.16792 1.76669 3.64806 2.69676 2.63664 4.08406C1.62522 5.47137 1.20465 7.20289 1.467 8.89958C1.72934 10.5963 2.65323 12.1199 4.03641 13.1369C5.4196 14.154 7.14939 14.5816 8.84713 14.3261C10.5449 14.0707 12.0723 13.153 13.0949 11.774C14.1176 10.3949 14.5522 8.66689 14.3036 6.96812C14.0551 5.26936 13.1436 3.73827 11.7688 2.71001V2.70689ZM8.00001 9.50001C7.70333 9.50001 7.41332 9.41204 7.16665 9.24722C6.91998 9.08239 6.72772 8.84812 6.61419 8.57404C6.50066 8.29995 6.47095 7.99835 6.52883 7.70738C6.58671 7.4164 6.72957 7.14913 6.93935 6.93935C7.14912 6.72957 7.4164 6.58671 7.70737 6.52883C7.99834 6.47095 8.29994 6.50066 8.57403 6.61419C8.84812 6.72772 9.08239 6.91998 9.24721 7.16666C9.41203 7.41333 9.50001 7.70334 9.50001 8.00001C9.50001 8.39784 9.34197 8.77937 9.06067 9.06067C8.77936 9.34198 8.39783 9.50001 8.00001 9.50001ZM13.5 8.00001C13.5 8.15439 13.4931 8.30751 13.4806 8.45876L10.5 7.93251C10.4832 7.31615 10.2382 6.72796 9.81251 6.28189L11.5488 3.80251C12.1602 4.31776 12.6516 4.9604 12.9886 5.68545C13.3257 6.4105 13.5002 7.20045 13.5 8.00001Z" fill="black"/>
</g>
<defs>
<clipPath id="clip0_5_898">
<rect width="16" height="16" fill="white"/>
</clipPath>
</defs>
</svg>
