<svg width="16" height="16" viewBox="0 0 16 16" fill="none" xmlns="http://www.w3.org/2000/svg">
<g clip-path="url(#clip0_5_1714)">
<path d="M12.4999 12.7812V14.5C12.4999 14.6326 12.4473 14.7598 12.3535 14.8536C12.2597 14.9473 12.1326 15 11.9999 15C11.8673 15 11.7402 14.9473 11.6464 14.8536C11.5526 14.7598 11.4999 14.6326 11.4999 14.5V12.7812C11.5024 12.0378 11.2965 11.3086 10.9057 10.6762C10.5149 10.0437 9.95471 9.53345 9.28869 9.20312L6.26369 7.69125C5.43121 7.27836 4.73105 6.64052 4.24257 5.85002C3.75409 5.05952 3.49682 4.14799 3.49994 3.21875V1.5C3.49994 1.36739 3.55262 1.24021 3.64639 1.14645C3.74016 1.05268 3.86733 1 3.99994 1C4.13255 1 4.25973 1.05268 4.3535 1.14645C4.44726 1.24021 4.49994 1.36739 4.49994 1.5V3.21875C4.49749 3.96218 4.70335 4.69143 5.09417 5.32385C5.485 5.95627 6.04517 6.46655 6.71119 6.79688L9.73619 8.30875C10.5687 8.72164 11.2688 9.35948 11.7573 10.15C12.2458 10.9405 12.5031 11.852 12.4999 12.7812ZM10.1987 12H5.24432C5.17577 12.0002 5.10793 11.9862 5.045 11.959C4.98208 11.9319 4.92541 11.892 4.87852 11.842C4.83163 11.792 4.79552 11.7329 4.77243 11.6684C4.74935 11.6039 4.73978 11.5353 4.74432 11.4669C4.75552 11.3381 4.81506 11.2184 4.91095 11.1318C5.00685 11.0452 5.13198 10.9981 5.26119 11H9.35619C9.40616 10.9999 9.45496 10.9849 9.4963 10.9568C9.53764 10.9288 9.56962 10.889 9.58812 10.8426C9.60661 10.7961 9.61078 10.7453 9.60008 10.6964C9.58937 10.6476 9.56429 10.6032 9.52807 10.5688C9.32178 10.3808 9.09041 10.2224 8.84057 10.0981L5.92494 8.63937C5.88469 8.61926 5.83975 8.61038 5.79486 8.61368C5.74998 8.61698 5.70682 8.63234 5.66994 8.65812C4.99881 9.11569 4.45007 9.7308 4.07177 10.4496C3.69346 11.1684 3.49713 11.969 3.49994 12.7812V14.4831C3.49789 14.6124 3.54493 14.7376 3.63157 14.8335C3.71822 14.9294 3.83803 14.9889 3.96682 15C4.03521 15.0045 4.10381 14.995 4.16835 14.9719C4.23289 14.9488 4.29199 14.9127 4.34199 14.8658C4.39198 14.8189 4.4318 14.7622 4.45898 14.6993C4.48615 14.6364 4.50009 14.5685 4.49994 14.5V13.5H10.2499C10.3162 13.5 10.3798 13.4737 10.4267 13.4268C10.4736 13.3799 10.4999 13.3163 10.4999 13.25V12.7812C10.4999 12.5857 10.4811 12.3907 10.4437 12.1987C10.4319 12.1425 10.4011 12.092 10.3565 12.0559C10.3119 12.0197 10.2562 11.9999 10.1987 12ZM11.9668 1C11.838 1.01106 11.7182 1.07055 11.6316 1.16648C11.5449 1.26241 11.4979 1.38763 11.4999 1.51687V2.5H5.74994C5.68364 2.5 5.62005 2.52634 5.57317 2.57322C5.52628 2.62011 5.49994 2.6837 5.49994 2.75V3.21875C5.49996 3.41427 5.5188 3.60934 5.55619 3.80125C5.56797 3.85749 5.59876 3.90795 5.64338 3.94415C5.68801 3.98035 5.74373 4.00007 5.80119 4H10.7387C10.8677 3.99841 10.9925 4.04564 11.0881 4.13223C11.1838 4.21882 11.2431 4.33836 11.2543 4.46688C11.2589 4.53527 11.2493 4.60386 11.2262 4.6684C11.2031 4.73294 11.167 4.79205 11.1201 4.84204C11.0732 4.89204 11.0166 4.93186 10.9536 4.95903C10.8907 4.98621 10.8229 5.00015 10.7543 5H6.64369C6.59373 5.00006 6.54493 5.01509 6.50359 5.04316C6.46225 5.07122 6.43027 5.11103 6.41177 5.15744C6.39327 5.20386 6.3891 5.25475 6.39981 5.30355C6.41051 5.35236 6.43559 5.39684 6.47182 5.43125C6.6781 5.61919 6.90948 5.77757 7.15932 5.90188L10.0762 7.36062C10.1164 7.38074 10.1614 7.38962 10.2063 7.38632C10.2512 7.38302 10.2943 7.36766 10.3312 7.34188C11.0021 6.88416 11.5506 6.26899 11.9287 5.5502C12.3068 4.83141 12.5029 4.03091 12.4999 3.21875V1.5C12.5001 1.43146 12.4861 1.36361 12.459 1.30069C12.4318 1.23776 12.392 1.18109 12.342 1.1342C12.292 1.08731 12.2329 1.0512 12.1683 1.02811C12.1038 1.00503 12.0352 0.995459 11.9668 1Z" fill="black"/>
</g>
<defs>
<clipPath id="clip0_5_1714">
<rect width="16" height="16" fill="white"/>
</clipPath>
</defs>
</svg>
