<svg width="16" height="16" viewBox="0 0 16 16" fill="none" xmlns="http://www.w3.org/2000/svg">
<g clip-path="url(#clip0_5_1598)">
<path d="M14.9819 7.81248L13.9557 2.31248C13.9306 2.17841 13.8784 2.0509 13.8022 1.93777C13.726 1.82464 13.6275 1.72829 13.5127 1.65464C13.3979 1.581 13.2692 1.53162 13.1346 1.50953C13 1.48745 12.8624 1.49313 12.73 1.52623L12.7107 1.53185L9.42817 2.49998H6.57192L3.28942 1.53498L3.27004 1.52935C3.13773 1.49626 3.00004 1.49057 2.86545 1.51266C2.73086 1.53474 2.60221 1.58412 2.48741 1.65777C2.37262 1.73141 2.2741 1.82776 2.19791 1.94089C2.12173 2.05402 2.06949 2.18154 2.04442 2.3156L1.01817 7.81248C0.974281 8.03262 1.00686 8.26115 1.1105 8.46027C1.21415 8.65938 1.38267 8.81715 1.58817 8.90748C1.71977 8.96784 1.86276 8.99937 2.00754 8.99998C2.18084 8.9999 2.35093 8.95327 2.50004 8.86498V11.5C2.50004 12.163 2.76343 12.7989 3.23227 13.2677C3.70112 13.7366 4.337 14 5.00004 14H11C11.6631 14 12.299 13.7366 12.7678 13.2677C13.2366 12.7989 13.5 12.163 13.5 11.5V8.8656C13.649 8.95374 13.8188 9.00035 13.9919 9.0006C14.1369 9.00019 14.28 8.96886 14.4119 8.90873C14.6177 8.81836 14.7864 8.66039 14.89 8.46101C14.9937 8.26163 15.0261 8.03281 14.9819 7.81248ZM11 13H8.50004V12.2069L9.35379 11.3537C9.44761 11.2599 9.50032 11.1327 9.50032 11C9.50032 10.8673 9.44761 10.7401 9.35379 10.6462C9.25997 10.5524 9.13272 10.4997 9.00004 10.4997C8.86736 10.4997 8.74011 10.5524 8.64629 10.6462L8.00004 11.2931L7.35379 10.6462C7.25997 10.5524 7.13272 10.4997 7.00004 10.4997C6.86736 10.4997 6.74011 10.5524 6.64629 10.6462C6.55247 10.7401 6.49976 10.8673 6.49976 11C6.49976 11.1327 6.55247 11.2599 6.64629 11.3537L7.50004 12.2069V13H5.00004C4.60222 13 4.22069 12.8419 3.93938 12.5606C3.65808 12.2793 3.50004 11.8978 3.50004 11.5V7.69435L6.74567 3.49998H9.25442L12.5 7.69435V11.5C12.5 11.8978 12.342 12.2793 12.0607 12.5606C11.7794 12.8419 11.3979 13 11 13ZM6.50004 8.74998C6.50004 8.89832 6.45605 9.04332 6.37364 9.16666C6.29123 9.28999 6.1741 9.38612 6.03705 9.44289C5.90001 9.49965 5.74921 9.51451 5.60372 9.48557C5.45824 9.45663 5.3246 9.3852 5.21971 9.28031C5.11482 9.17542 5.04339 9.04178 5.01445 8.8963C4.98551 8.75081 5.00037 8.60001 5.05713 8.46297C5.1139 8.32592 5.21003 8.20879 5.33336 8.12638C5.4567 8.04397 5.60171 7.99998 5.75004 7.99998C5.94895 7.99998 6.13972 8.079 6.28037 8.21965C6.42102 8.3603 6.50004 8.55107 6.50004 8.74998ZM11 8.74998C11 8.89832 10.9561 9.04332 10.8736 9.16666C10.7912 9.28999 10.6741 9.38612 10.5371 9.44289C10.4 9.49965 10.2492 9.51451 10.1037 9.48557C9.95824 9.45663 9.8246 9.3852 9.71971 9.28031C9.61482 9.17542 9.54339 9.04178 9.51445 8.8963C9.48551 8.75081 9.50037 8.60001 9.55713 8.46297C9.6139 8.32592 9.71003 8.20879 9.83336 8.12638C9.9567 8.04397 10.1017 7.99998 10.25 7.99998C10.449 7.99998 10.6397 8.079 10.7804 8.21965C10.921 8.3603 11 8.55107 11 8.74998Z" fill="black"/>
</g>
<defs>
<clipPath id="clip0_5_1598">
<rect width="16" height="16" fill="white"/>
</clipPath>
</defs>
</svg>
