<svg width="16" height="16" viewBox="0 0 16 16" fill="none" xmlns="http://www.w3.org/2000/svg">
<g clip-path="url(#clip0_5_1325)">
<path d="M14 5H2C1.73478 5 1.48043 5.10536 1.29289 5.29289C1.10536 5.48043 1 5.73478 1 6V10C1 10.2652 1.10536 10.5196 1.29289 10.7071C1.48043 10.8946 1.73478 11 2 11H14C14.2652 11 14.5196 10.8946 14.7071 10.7071C14.8946 10.5196 15 10.2652 15 10V6C15 5.73478 14.8946 5.48043 14.7071 5.29289C14.5196 5.10536 14.2652 5 14 5ZM3.75 8.75C3.60166 8.75 3.45666 8.70601 3.33332 8.6236C3.20999 8.54119 3.11386 8.42406 3.05709 8.28701C3.00032 8.14997 2.98547 7.99917 3.01441 7.85368C3.04335 7.7082 3.11478 7.57456 3.21967 7.46967C3.32456 7.36478 3.4582 7.29335 3.60368 7.26441C3.74917 7.23547 3.89997 7.25032 4.03701 7.30709C4.17406 7.36386 4.29119 7.45999 4.3736 7.58332C4.45601 7.70666 4.5 7.85166 4.5 8C4.5 8.19891 4.42098 8.38968 4.28033 8.53033C4.13968 8.67098 3.94891 8.75 3.75 8.75ZM8 8.75C7.85166 8.75 7.70666 8.70601 7.58332 8.6236C7.45999 8.54119 7.36386 8.42406 7.30709 8.28701C7.25032 8.14997 7.23547 7.99917 7.26441 7.85368C7.29335 7.7082 7.36478 7.57456 7.46967 7.46967C7.57456 7.36478 7.7082 7.29335 7.85368 7.26441C7.99917 7.23547 8.14997 7.25032 8.28701 7.30709C8.42406 7.36386 8.54119 7.45999 8.6236 7.58332C8.70601 7.70666 8.75 7.85166 8.75 8C8.75 8.19891 8.67098 8.38968 8.53033 8.53033C8.38968 8.67098 8.19891 8.75 8 8.75ZM12.25 8.75C12.1017 8.75 11.9567 8.70601 11.8333 8.6236C11.71 8.54119 11.6139 8.42406 11.5571 8.28701C11.5003 8.14997 11.4855 7.99917 11.5144 7.85368C11.5434 7.7082 11.6148 7.57456 11.7197 7.46967C11.8246 7.36478 11.9582 7.29335 12.1037 7.26441C12.2492 7.23547 12.4 7.25032 12.537 7.30709C12.6741 7.36386 12.7912 7.45999 12.8736 7.58332C12.956 7.70666 13 7.85166 13 8C13 8.19891 12.921 8.38968 12.7803 8.53033C12.6397 8.67098 12.4489 8.75 12.25 8.75Z" fill="black"/>
</g>
<defs>
<clipPath id="clip0_5_1325">
<rect width="16" height="16" fill="white"/>
</clipPath>
</defs>
</svg>
