<svg width="16" height="16" viewBox="0 0 16 16" fill="none" xmlns="http://www.w3.org/2000/svg">
<g clip-path="url(#clip0_5_1673)">
<path d="M13 2H3C2.73478 2 2.48043 2.10536 2.29289 2.29289C2.10536 2.48043 2 2.73478 2 3V13C2 13.2652 2.10536 13.5196 2.29289 13.7071C2.48043 13.8946 2.73478 14 3 14H13C13.2652 14 13.5196 13.8946 13.7071 13.7071C13.8946 13.5196 14 13.2652 14 13V3C14 2.73478 13.8946 2.48043 13.7071 2.29289C13.5196 2.10536 13.2652 2 13 2ZM4.75 12C4.60166 12 4.45666 11.956 4.33332 11.8736C4.20999 11.7912 4.11386 11.6741 4.05709 11.537C4.00032 11.4 3.98547 11.2492 4.01441 11.1037C4.04335 10.9582 4.11478 10.8246 4.21967 10.7197C4.32456 10.6148 4.4582 10.5434 4.60368 10.5144C4.74917 10.4855 4.89997 10.5003 5.03701 10.5571C5.17406 10.6139 5.29119 10.71 5.3736 10.8333C5.45601 10.9567 5.5 11.1017 5.5 11.25C5.5 11.4489 5.42098 11.6397 5.28033 11.7803C5.13968 11.921 4.94891 12 4.75 12ZM4.75 8.75C4.60166 8.75 4.45666 8.70601 4.33332 8.6236C4.20999 8.54119 4.11386 8.42406 4.05709 8.28701C4.00032 8.14997 3.98547 7.99917 4.01441 7.85368C4.04335 7.7082 4.11478 7.57456 4.21967 7.46967C4.32456 7.36478 4.4582 7.29335 4.60368 7.26441C4.74917 7.23547 4.89997 7.25032 5.03701 7.30709C5.17406 7.36386 5.29119 7.45999 5.3736 7.58332C5.45601 7.70666 5.5 7.85166 5.5 8C5.5 8.19891 5.42098 8.38968 5.28033 8.53033C5.13968 8.67098 4.94891 8.75 4.75 8.75ZM4.75 5.5C4.60166 5.5 4.45666 5.45601 4.33332 5.3736C4.20999 5.29119 4.11386 5.17406 4.05709 5.03701C4.00032 4.89997 3.98547 4.74917 4.01441 4.60368C4.04335 4.4582 4.11478 4.32456 4.21967 4.21967C4.32456 4.11478 4.4582 4.04335 4.60368 4.01441C4.74917 3.98547 4.89997 4.00032 5.03701 4.05709C5.17406 4.11386 5.29119 4.20999 5.3736 4.33332C5.45601 4.45666 5.5 4.60166 5.5 4.75C5.5 4.94891 5.42098 5.13968 5.28033 5.28033C5.13968 5.42098 4.94891 5.5 4.75 5.5ZM8 12C7.85166 12 7.70666 11.956 7.58332 11.8736C7.45999 11.7912 7.36386 11.6741 7.30709 11.537C7.25032 11.4 7.23547 11.2492 7.26441 11.1037C7.29335 10.9582 7.36478 10.8246 7.46967 10.7197C7.57456 10.6148 7.7082 10.5434 7.85368 10.5144C7.99917 10.4855 8.14997 10.5003 8.28701 10.5571C8.42406 10.6139 8.54119 10.71 8.6236 10.8333C8.70601 10.9567 8.75 11.1017 8.75 11.25C8.75 11.4489 8.67098 11.6397 8.53033 11.7803C8.38968 11.921 8.19891 12 8 12ZM8 8.75C7.85166 8.75 7.70666 8.70601 7.58332 8.6236C7.45999 8.54119 7.36386 8.42406 7.30709 8.28701C7.25032 8.14997 7.23547 7.99917 7.26441 7.85368C7.29335 7.7082 7.36478 7.57456 7.46967 7.46967C7.57456 7.36478 7.7082 7.29335 7.85368 7.26441C7.99917 7.23547 8.14997 7.25032 8.28701 7.30709C8.42406 7.36386 8.54119 7.45999 8.6236 7.58332C8.70601 7.70666 8.75 7.85166 8.75 8C8.75 8.19891 8.67098 8.38968 8.53033 8.53033C8.38968 8.67098 8.19891 8.75 8 8.75ZM8 5.5C7.85166 5.5 7.70666 5.45601 7.58332 5.3736C7.45999 5.29119 7.36386 5.17406 7.30709 5.03701C7.25032 4.89997 7.23547 4.74917 7.26441 4.60368C7.29335 4.4582 7.36478 4.32456 7.46967 4.21967C7.57456 4.11478 7.7082 4.04335 7.85368 4.01441C7.99917 3.98547 8.14997 4.00032 8.28701 4.05709C8.42406 4.11386 8.54119 4.20999 8.6236 4.33332C8.70601 4.45666 8.75 4.60166 8.75 4.75C8.75 4.94891 8.67098 5.13968 8.53033 5.28033C8.38968 5.42098 8.19891 5.5 8 5.5ZM11.25 12C11.1017 12 10.9567 11.956 10.8333 11.8736C10.71 11.7912 10.6139 11.6741 10.5571 11.537C10.5003 11.4 10.4855 11.2492 10.5144 11.1037C10.5434 10.9582 10.6148 10.8246 10.7197 10.7197C10.8246 10.6148 10.9582 10.5434 11.1037 10.5144C11.2492 10.4855 11.4 10.5003 11.537 10.5571C11.6741 10.6139 11.7912 10.71 11.8736 10.8333C11.956 10.9567 12 11.1017 12 11.25C12 11.4489 11.921 11.6397 11.7803 11.7803C11.6397 11.921 11.4489 12 11.25 12ZM11.25 8.75C11.1017 8.75 10.9567 8.70601 10.8333 8.6236C10.71 8.54119 10.6139 8.42406 10.5571 8.28701C10.5003 8.14997 10.4855 7.99917 10.5144 7.85368C10.5434 7.7082 10.6148 7.57456 10.7197 7.46967C10.8246 7.36478 10.9582 7.29335 11.1037 7.26441C11.2492 7.23547 11.4 7.25032 11.537 7.30709C11.6741 7.36386 11.7912 7.45999 11.8736 7.58332C11.956 7.70666 12 7.85166 12 8C12 8.19891 11.921 8.38968 11.7803 8.53033C11.6397 8.67098 11.4489 8.75 11.25 8.75ZM11.25 5.5C11.1017 5.5 10.9567 5.45601 10.8333 5.3736C10.71 5.29119 10.6139 5.17406 10.5571 5.03701C10.5003 4.89997 10.4855 4.74917 10.5144 4.60368C10.5434 4.4582 10.6148 4.32456 10.7197 4.21967C10.8246 4.11478 10.9582 4.04335 11.1037 4.01441C11.2492 3.98547 11.4 4.00032 11.537 4.05709C11.6741 4.11386 11.7912 4.20999 11.8736 4.33332C11.956 4.45666 12 4.60166 12 4.75C12 4.94891 11.921 5.13968 11.7803 5.28033C11.6397 5.42098 11.4489 5.5 11.25 5.5Z" fill="black"/>
</g>
<defs>
<clipPath id="clip0_5_1673">
<rect width="16" height="16" fill="white"/>
</clipPath>
</defs>
</svg>
