<svg width="16" height="16" viewBox="0 0 16 16" fill="none" xmlns="http://www.w3.org/2000/svg">
<g clip-path="url(#clip0_5_1642)">
<path d="M14.5 8C14.5 6.71442 14.1188 5.45772 13.4046 4.3888C12.6903 3.31988 11.6752 2.48676 10.4874 1.99479C9.29973 1.50282 7.99279 1.37409 6.73192 1.6249C5.47104 1.8757 4.31285 2.49477 3.40381 3.40381C2.49477 4.31285 1.8757 5.47104 1.6249 6.73192C1.37409 7.99279 1.50282 9.29973 1.99479 10.4874C2.48676 11.6752 3.31988 12.6903 4.3888 13.4046C5.45772 14.1188 6.71442 14.5 8 14.5C9.72325 14.4979 11.3753 13.8123 12.5938 12.5938C13.8123 11.3753 14.4979 9.72325 14.5 8ZM7.25 5.25C7.25 5.10167 7.29399 4.95666 7.3764 4.83333C7.45881 4.70999 7.57595 4.61386 7.71299 4.55709C7.85003 4.50033 8.00083 4.48547 8.14632 4.51441C8.29181 4.54335 8.42544 4.61478 8.53033 4.71967C8.63522 4.82456 8.70665 4.9582 8.73559 5.10368C8.76453 5.24917 8.74968 5.39997 8.69291 5.53702C8.63615 5.67406 8.54002 5.79119 8.41668 5.87361C8.29334 5.95602 8.14834 6 8 6C7.80109 6 7.61032 5.92099 7.46967 5.78033C7.32902 5.63968 7.25 5.44892 7.25 5.25ZM7.25 8C7.25 7.85167 7.29399 7.70666 7.3764 7.58333C7.45881 7.45999 7.57595 7.36386 7.71299 7.30709C7.85003 7.25033 8.00083 7.23548 8.14632 7.26441C8.29181 7.29335 8.42544 7.36478 8.53033 7.46967C8.63522 7.57456 8.70665 7.7082 8.73559 7.85368C8.76453 7.99917 8.74968 8.14997 8.69291 8.28701C8.63615 8.42406 8.54002 8.54119 8.41668 8.6236C8.29334 8.70602 8.14834 8.75 8 8.75C7.80109 8.75 7.61032 8.67098 7.46967 8.53033C7.32902 8.38968 7.25 8.19892 7.25 8ZM7.25 10.75C7.25 10.6017 7.29399 10.4567 7.3764 10.3333C7.45881 10.21 7.57595 10.1139 7.71299 10.0571C7.85003 10.0003 8.00083 9.98547 8.14632 10.0144C8.29181 10.0434 8.42544 10.1148 8.53033 10.2197C8.63522 10.3246 8.70665 10.4582 8.73559 10.6037C8.76453 10.7492 8.74968 10.9 8.69291 11.037C8.63615 11.1741 8.54002 11.2912 8.41668 11.3736C8.29334 11.456 8.14834 11.5 8 11.5C7.80109 11.5 7.61032 11.421 7.46967 11.2803C7.32902 11.1397 7.25 10.9489 7.25 10.75Z" fill="black"/>
</g>
<defs>
<clipPath id="clip0_5_1642">
<rect width="16" height="16" fill="white"/>
</clipPath>
</defs>
</svg>
