<svg width="16" height="16" viewBox="0 0 16 16" fill="none" xmlns="http://www.w3.org/2000/svg">
<g clip-path="url(#clip0_5_1585)">
<path d="M10 1H6C5.73478 1 5.48043 1.10536 5.29289 1.29289C5.10536 1.48043 5 1.73478 5 2V14C5 14.2652 5.10536 14.5196 5.29289 14.7071C5.48043 14.8946 5.73478 15 6 15H10C10.2652 15 10.5196 14.8946 10.7071 14.7071C10.8946 14.5196 11 14.2652 11 14V2C11 1.73478 10.8946 1.48043 10.7071 1.29289C10.5196 1.10536 10.2652 1 10 1ZM8 13C7.85166 13 7.70666 12.956 7.58332 12.8736C7.45999 12.7912 7.36386 12.6741 7.30709 12.537C7.25032 12.4 7.23547 12.2492 7.26441 12.1037C7.29335 11.9582 7.36478 11.8246 7.46967 11.7197C7.57456 11.6148 7.7082 11.5434 7.85368 11.5144C7.99917 11.4855 8.14997 11.5003 8.28701 11.5571C8.42406 11.6139 8.54119 11.71 8.6236 11.8333C8.70601 11.9567 8.75 12.1017 8.75 12.25C8.75 12.4489 8.67098 12.6397 8.53033 12.7803C8.38968 12.921 8.19891 13 8 13ZM8 8.75C7.85166 8.75 7.70666 8.70601 7.58332 8.6236C7.45999 8.54119 7.36386 8.42406 7.30709 8.28701C7.25032 8.14997 7.23547 7.99917 7.26441 7.85368C7.29335 7.7082 7.36478 7.57456 7.46967 7.46967C7.57456 7.36478 7.7082 7.29335 7.85368 7.26441C7.99917 7.23547 8.14997 7.25032 8.28701 7.30709C8.42406 7.36386 8.54119 7.45999 8.6236 7.58332C8.70601 7.70666 8.75 7.85166 8.75 8C8.75 8.19891 8.67098 8.38968 8.53033 8.53033C8.38968 8.67098 8.19891 8.75 8 8.75ZM8 4.5C7.85166 4.5 7.70666 4.45601 7.58332 4.3736C7.45999 4.29119 7.36386 4.17406 7.30709 4.03701C7.25032 3.89997 7.23547 3.74917 7.26441 3.60368C7.29335 3.4582 7.36478 3.32456 7.46967 3.21967C7.57456 3.11478 7.7082 3.04335 7.85368 3.01441C7.99917 2.98547 8.14997 3.00032 8.28701 3.05709C8.42406 3.11386 8.54119 3.20999 8.6236 3.33332C8.70601 3.45666 8.75 3.60166 8.75 3.75C8.75 3.94891 8.67098 4.13968 8.53033 4.28033C8.38968 4.42098 8.19891 4.5 8 4.5Z" fill="black"/>
</g>
<defs>
<clipPath id="clip0_5_1585">
<rect width="16" height="16" fill="white"/>
</clipPath>
</defs>
</svg>
