<svg width="16" height="16" viewBox="0 0 16 16" fill="none" xmlns="http://www.w3.org/2000/svg">
<g clip-path="url(#clip0_5_1645)">
<path d="M14 3H2C1.73478 3 1.48043 3.10536 1.29289 3.29289C1.10536 3.48043 1 3.73478 1 4V12C1 12.2652 1.10536 12.5196 1.29289 12.7071C1.48043 12.8946 1.73478 13 2 13H14C14.2652 13 14.5196 12.8946 14.7071 12.7071C14.8946 12.5196 15 12.2652 15 12V4C15 3.73478 14.8946 3.48043 14.7071 3.29289C14.5196 3.10536 14.2652 3 14 3ZM4.25 10.5C4.10166 10.5 3.95666 10.456 3.83332 10.3736C3.70999 10.2912 3.61386 10.1741 3.55709 10.037C3.50032 9.89997 3.48547 9.74917 3.51441 9.60368C3.54335 9.4582 3.61478 9.32456 3.71967 9.21967C3.82456 9.11478 3.9582 9.04335 4.10368 9.01441C4.24917 8.98547 4.39997 9.00033 4.53701 9.05709C4.67406 9.11386 4.79119 9.20999 4.8736 9.33332C4.95601 9.45666 5 9.60166 5 9.75C5 9.94891 4.92098 10.1397 4.78033 10.2803C4.63968 10.421 4.44891 10.5 4.25 10.5ZM4.25 7C4.10166 7 3.95666 6.95601 3.83332 6.8736C3.70999 6.79119 3.61386 6.67406 3.55709 6.53701C3.50032 6.39997 3.48547 6.24917 3.51441 6.10368C3.54335 5.9582 3.61478 5.82456 3.71967 5.71967C3.82456 5.61478 3.9582 5.54335 4.10368 5.51441C4.24917 5.48547 4.39997 5.50032 4.53701 5.55709C4.67406 5.61386 4.79119 5.70999 4.8736 5.83332C4.95601 5.95666 5 6.10166 5 6.25C5 6.44891 4.92098 6.63968 4.78033 6.78033C4.63968 6.92098 4.44891 7 4.25 7ZM8 10.5C7.85166 10.5 7.70666 10.456 7.58332 10.3736C7.45999 10.2912 7.36386 10.1741 7.30709 10.037C7.25032 9.89997 7.23547 9.74917 7.26441 9.60368C7.29335 9.4582 7.36478 9.32456 7.46967 9.21967C7.57456 9.11478 7.7082 9.04335 7.85368 9.01441C7.99917 8.98547 8.14997 9.00033 8.28701 9.05709C8.42406 9.11386 8.54119 9.20999 8.6236 9.33332C8.70601 9.45666 8.75 9.60166 8.75 9.75C8.75 9.94891 8.67098 10.1397 8.53033 10.2803C8.38968 10.421 8.19891 10.5 8 10.5ZM8 7C7.85166 7 7.70666 6.95601 7.58332 6.8736C7.45999 6.79119 7.36386 6.67406 7.30709 6.53701C7.25032 6.39997 7.23547 6.24917 7.26441 6.10368C7.29335 5.9582 7.36478 5.82456 7.46967 5.71967C7.57456 5.61478 7.7082 5.54335 7.85368 5.51441C7.99917 5.48547 8.14997 5.50032 8.28701 5.55709C8.42406 5.61386 8.54119 5.70999 8.6236 5.83332C8.70601 5.95666 8.75 6.10166 8.75 6.25C8.75 6.44891 8.67098 6.63968 8.53033 6.78033C8.38968 6.92098 8.19891 7 8 7ZM11.75 10.5C11.6017 10.5 11.4567 10.456 11.3333 10.3736C11.21 10.2912 11.1139 10.1741 11.0571 10.037C11.0003 9.89997 10.9855 9.74917 11.0144 9.60368C11.0434 9.4582 11.1148 9.32456 11.2197 9.21967C11.3246 9.11478 11.4582 9.04335 11.6037 9.01441C11.7492 8.98547 11.9 9.00033 12.037 9.05709C12.1741 9.11386 12.2912 9.20999 12.3736 9.33332C12.456 9.45666 12.5 9.60166 12.5 9.75C12.5 9.94891 12.421 10.1397 12.2803 10.2803C12.1397 10.421 11.9489 10.5 11.75 10.5ZM11.75 7C11.6017 7 11.4567 6.95601 11.3333 6.8736C11.21 6.79119 11.1139 6.67406 11.0571 6.53701C11.0003 6.39997 10.9855 6.24917 11.0144 6.10368C11.0434 5.9582 11.1148 5.82456 11.2197 5.71967C11.3246 5.61478 11.4582 5.54335 11.6037 5.51441C11.7492 5.48547 11.9 5.50032 12.037 5.55709C12.1741 5.61386 12.2912 5.70999 12.3736 5.83332C12.456 5.95666 12.5 6.10166 12.5 6.25C12.5 6.44891 12.421 6.63968 12.2803 6.78033C12.1397 6.92098 11.9489 7 11.75 7Z" fill="black"/>
</g>
<defs>
<clipPath id="clip0_5_1645">
<rect width="16" height="16" fill="white"/>
</clipPath>
</defs>
</svg>
