<svg width="16" height="16" viewBox="0 0 16 16" fill="none" xmlns="http://www.w3.org/2000/svg">
<g clip-path="url(#clip0_5_1588)">
<path d="M9.75 8C9.75 8.34612 9.64736 8.68446 9.45507 8.97225C9.26278 9.26003 8.98947 9.48434 8.6697 9.61679C8.34993 9.74924 7.99806 9.7839 7.65859 9.71638C7.31913 9.64885 7.00731 9.48218 6.76256 9.23744C6.51782 8.9927 6.35115 8.68088 6.28363 8.34141C6.2161 8.00194 6.25076 7.65008 6.38321 7.33031C6.51566 7.01053 6.73997 6.73722 7.02775 6.54493C7.31554 6.35264 7.65388 6.25 8 6.25C8.46413 6.25 8.90925 6.43438 9.23744 6.76256C9.56563 7.09075 9.75 7.53587 9.75 8ZM8 4.75C8.34612 4.75 8.68446 4.64737 8.97225 4.45507C9.26004 4.26278 9.48434 3.98947 9.61679 3.6697C9.74924 3.34993 9.7839 2.99806 9.71638 2.65859C9.64885 2.31913 9.48218 2.00731 9.23744 1.76256C8.9927 1.51782 8.68088 1.35115 8.34141 1.28363C8.00194 1.2161 7.65008 1.25076 7.33031 1.38321C7.01053 1.51566 6.73722 1.73997 6.54493 2.02775C6.35264 2.31554 6.25 2.65388 6.25 3C6.25 3.46413 6.43438 3.90925 6.76256 4.23744C7.09075 4.56563 7.53587 4.75 8 4.75ZM8 11.25C7.65388 11.25 7.31554 11.3526 7.02775 11.5449C6.73997 11.7372 6.51566 12.0105 6.38321 12.3303C6.25076 12.6501 6.2161 13.0019 6.28363 13.3414C6.35115 13.6809 6.51782 13.9927 6.76256 14.2374C7.00731 14.4822 7.31913 14.6489 7.65859 14.7164C7.99806 14.7839 8.34993 14.7492 8.6697 14.6168C8.98947 14.4843 9.26278 14.26 9.45507 13.9722C9.64736 13.6845 9.75 13.3461 9.75 13C9.75 12.5359 9.56563 12.0908 9.23744 11.7626C8.90925 11.4344 8.46413 11.25 8 11.25Z" fill="black"/>
</g>
<defs>
<clipPath id="clip0_5_1588">
<rect width="16" height="16" fill="white"/>
</clipPath>
</defs>
</svg>
