<svg width="16" height="16" viewBox="0 0 16 16" fill="none" xmlns="http://www.w3.org/2000/svg">
<g clip-path="url(#clip0_5_1681)">
<path d="M12 1H4C3.73478 1 3.48043 1.10536 3.29289 1.29289C3.10536 1.48043 3 1.73478 3 2V14C3 14.2652 3.10536 14.5196 3.29289 14.7071C3.48043 14.8946 3.73478 15 4 15H12C12.2652 15 12.5196 14.8946 12.7071 14.7071C12.8946 14.5196 13 14.2652 13 14V2C13 1.73478 12.8946 1.48043 12.7071 1.29289C12.5196 1.10536 12.2652 1 12 1ZM6.25 12.5C6.10166 12.5 5.95666 12.456 5.83332 12.3736C5.70999 12.2912 5.61386 12.1741 5.55709 12.037C5.50032 11.9 5.48547 11.7492 5.51441 11.6037C5.54335 11.4582 5.61478 11.3246 5.71967 11.2197C5.82456 11.1148 5.9582 11.0434 6.10368 11.0144C6.24917 10.9855 6.39997 11.0003 6.53701 11.0571C6.67406 11.1139 6.79119 11.21 6.8736 11.3333C6.95601 11.4567 7 11.6017 7 11.75C7 11.9489 6.92098 12.1397 6.78033 12.2803C6.63968 12.421 6.44891 12.5 6.25 12.5ZM6.25 8.75C6.10166 8.75 5.95666 8.70601 5.83332 8.6236C5.70999 8.54119 5.61386 8.42406 5.55709 8.28701C5.50032 8.14997 5.48547 7.99917 5.51441 7.85368C5.54335 7.7082 5.61478 7.57456 5.71967 7.46967C5.82456 7.36478 5.9582 7.29335 6.10368 7.26441C6.24917 7.23547 6.39997 7.25032 6.53701 7.30709C6.67406 7.36386 6.79119 7.45999 6.8736 7.58332C6.95601 7.70666 7 7.85166 7 8C7 8.19891 6.92098 8.38968 6.78033 8.53033C6.63968 8.67098 6.44891 8.75 6.25 8.75ZM6.25 5C6.10166 5 5.95666 4.95601 5.83332 4.8736C5.70999 4.79119 5.61386 4.67406 5.55709 4.53701C5.50032 4.39997 5.48547 4.24917 5.51441 4.10368C5.54335 3.9582 5.61478 3.82456 5.71967 3.71967C5.82456 3.61478 5.9582 3.54335 6.10368 3.51441C6.24917 3.48547 6.39997 3.50032 6.53701 3.55709C6.67406 3.61386 6.79119 3.70999 6.8736 3.83332C6.95601 3.95666 7 4.10166 7 4.25C7 4.44891 6.92098 4.63968 6.78033 4.78033C6.63968 4.92098 6.44891 5 6.25 5ZM9.75 12.5C9.60166 12.5 9.45666 12.456 9.33332 12.3736C9.20999 12.2912 9.11386 12.1741 9.05709 12.037C9.00033 11.9 8.98547 11.7492 9.01441 11.6037C9.04335 11.4582 9.11478 11.3246 9.21967 11.2197C9.32456 11.1148 9.4582 11.0434 9.60368 11.0144C9.74917 10.9855 9.89997 11.0003 10.037 11.0571C10.1741 11.1139 10.2912 11.21 10.3736 11.3333C10.456 11.4567 10.5 11.6017 10.5 11.75C10.5 11.9489 10.421 12.1397 10.2803 12.2803C10.1397 12.421 9.94891 12.5 9.75 12.5ZM9.75 8.75C9.60166 8.75 9.45666 8.70601 9.33332 8.6236C9.20999 8.54119 9.11386 8.42406 9.05709 8.28701C9.00033 8.14997 8.98547 7.99917 9.01441 7.85368C9.04335 7.7082 9.11478 7.57456 9.21967 7.46967C9.32456 7.36478 9.4582 7.29335 9.60368 7.26441C9.74917 7.23547 9.89997 7.25032 10.037 7.30709C10.1741 7.36386 10.2912 7.45999 10.3736 7.58332C10.456 7.70666 10.5 7.85166 10.5 8C10.5 8.19891 10.421 8.38968 10.2803 8.53033C10.1397 8.67098 9.94891 8.75 9.75 8.75ZM9.75 5C9.60166 5 9.45666 4.95601 9.33332 4.8736C9.20999 4.79119 9.11386 4.67406 9.05709 4.53701C9.00033 4.39997 8.98547 4.24917 9.01441 4.10368C9.04335 3.9582 9.11478 3.82456 9.21967 3.71967C9.32456 3.61478 9.4582 3.54335 9.60368 3.51441C9.74917 3.48547 9.89997 3.50032 10.037 3.55709C10.1741 3.61386 10.2912 3.70999 10.3736 3.83332C10.456 3.95666 10.5 4.10166 10.5 4.25C10.5 4.44891 10.421 4.63968 10.2803 4.78033C10.1397 4.92098 9.94891 5 9.75 5Z" fill="black"/>
</g>
<defs>
<clipPath id="clip0_5_1681">
<rect width="16" height="16" fill="white"/>
</clipPath>
</defs>
</svg>
