<svg width="16" height="16" viewBox="0 0 16 16" fill="none" xmlns="http://www.w3.org/2000/svg">
<g clip-path="url(#clip0_5_1657)">
<path d="M8 1.5C6.71442 1.5 5.45772 1.88122 4.3888 2.59545C3.31988 3.30968 2.48676 4.32484 1.99479 5.51256C1.50282 6.70028 1.37409 8.00721 1.6249 9.26809C1.8757 10.529 2.49477 11.6872 3.40381 12.5962C4.31285 13.5052 5.47104 14.1243 6.73192 14.3751C7.99279 14.6259 9.29973 14.4972 10.4874 14.0052C11.6752 13.5132 12.6903 12.6801 13.4046 11.6112C14.1188 10.5423 14.5 9.28558 14.5 8C14.4979 6.27675 13.8123 4.6247 12.5938 3.40618C11.3753 2.18766 9.72325 1.50215 8 1.5ZM5.25 8.75C5.10167 8.75 4.95666 8.70601 4.83333 8.6236C4.70999 8.54119 4.61386 8.42406 4.55709 8.28701C4.50033 8.14997 4.48547 7.99917 4.51441 7.85368C4.54335 7.7082 4.61478 7.57456 4.71967 7.46967C4.82456 7.36478 4.9582 7.29335 5.10368 7.26441C5.24917 7.23547 5.39997 7.25032 5.53702 7.30709C5.67406 7.36386 5.79119 7.45999 5.87361 7.58332C5.95602 7.70666 6 7.85166 6 8C6 8.19891 5.92099 8.38968 5.78033 8.53033C5.63968 8.67098 5.44892 8.75 5.25 8.75ZM8 8.75C7.85167 8.75 7.70666 8.70601 7.58333 8.6236C7.45999 8.54119 7.36386 8.42406 7.30709 8.28701C7.25033 8.14997 7.23548 7.99917 7.26441 7.85368C7.29335 7.7082 7.36478 7.57456 7.46967 7.46967C7.57456 7.36478 7.7082 7.29335 7.85368 7.26441C7.99917 7.23547 8.14997 7.25032 8.28701 7.30709C8.42406 7.36386 8.54119 7.45999 8.6236 7.58332C8.70602 7.70666 8.75 7.85166 8.75 8C8.75 8.19891 8.67098 8.38968 8.53033 8.53033C8.38968 8.67098 8.19892 8.75 8 8.75ZM10.75 8.75C10.6017 8.75 10.4567 8.70601 10.3333 8.6236C10.21 8.54119 10.1139 8.42406 10.0571 8.28701C10.0003 8.14997 9.98547 7.99917 10.0144 7.85368C10.0434 7.7082 10.1148 7.57456 10.2197 7.46967C10.3246 7.36478 10.4582 7.29335 10.6037 7.26441C10.7492 7.23547 10.9 7.25032 11.037 7.30709C11.1741 7.36386 11.2912 7.45999 11.3736 7.58332C11.456 7.70666 11.5 7.85166 11.5 8C11.5 8.19891 11.421 8.38968 11.2803 8.53033C11.1397 8.67098 10.9489 8.75 10.75 8.75Z" fill="black"/>
</g>
<defs>
<clipPath id="clip0_5_1657">
<rect width="16" height="16" fill="white"/>
</clipPath>
</defs>
</svg>
