<svg width="16" height="16" viewBox="0 0 16 16" fill="none" xmlns="http://www.w3.org/2000/svg">
<g clip-path="url(#clip0_5_891)">
<path d="M4.64625 5.35375C4.55243 5.25993 4.49972 5.13268 4.49972 5C4.49972 4.86732 4.55243 4.74007 4.64625 4.64625C4.74007 4.55243 4.86732 4.49972 5 4.49972C5.13268 4.49972 5.25993 4.55243 5.35375 4.64625L7.5 6.79313V1.5C7.5 1.36739 7.55268 1.24021 7.64645 1.14645C7.74021 1.05268 7.86739 1 8 1C8.13261 1 8.25979 1.05268 8.35355 1.14645C8.44732 1.24021 8.5 1.36739 8.5 1.5V6.79313L10.6462 4.64625C10.7401 4.55243 10.8673 4.49972 11 4.49972C11.1327 4.49972 11.2599 4.55243 11.3538 4.64625C11.4476 4.74007 11.5003 4.86732 11.5003 5C11.5003 5.13268 11.4476 5.25993 11.3538 5.35375L8.35375 8.35375C8.30731 8.40024 8.25217 8.43712 8.19147 8.46228C8.13077 8.48744 8.06571 8.50039 8 8.50039C7.93429 8.50039 7.86923 8.48744 7.80853 8.46228C7.74783 8.43712 7.69269 8.40024 7.64625 8.35375L4.64625 5.35375ZM15 8.5V12.5C15 12.7652 14.8946 13.0196 14.7071 13.2071C14.5196 13.3946 14.2652 13.5 14 13.5H2C1.73478 13.5 1.48043 13.3946 1.29289 13.2071C1.10536 13.0196 1 12.7652 1 12.5V8.5C1 8.23478 1.10536 7.98043 1.29289 7.79289C1.48043 7.60536 1.73478 7.5 2 7.5H5.275C5.30784 7.49997 5.34036 7.50642 5.37071 7.51897C5.40106 7.53151 5.42864 7.54992 5.45188 7.57312L6.9375 9.0625C7.07686 9.20234 7.24244 9.3133 7.42477 9.389C7.6071 9.46471 7.80258 9.50368 8 9.50368C8.19742 9.50368 8.3929 9.46471 8.57523 9.389C8.75756 9.3133 8.92314 9.20234 9.0625 9.0625L10.55 7.575C10.5962 7.5279 10.6591 7.50094 10.725 7.5H14C14.2652 7.5 14.5196 7.60536 14.7071 7.79289C14.8946 7.98043 15 8.23478 15 8.5ZM12.5 10.5C12.5 10.3517 12.456 10.2067 12.3736 10.0833C12.2912 9.95999 12.1741 9.86386 12.037 9.80709C11.9 9.75033 11.7492 9.73547 11.6037 9.76441C11.4582 9.79335 11.3246 9.86478 11.2197 9.96967C11.1148 10.0746 11.0434 10.2082 11.0144 10.3537C10.9855 10.4992 11.0003 10.65 11.0571 10.787C11.1139 10.9241 11.21 11.0412 11.3333 11.1236C11.4567 11.206 11.6017 11.25 11.75 11.25C11.9489 11.25 12.1397 11.171 12.2803 11.0303C12.421 10.8897 12.5 10.6989 12.5 10.5Z" fill="black"/>
</g>
<defs>
<clipPath id="clip0_5_891">
<rect width="16" height="16" fill="white"/>
</clipPath>
</defs>
</svg>
