<svg width="16" height="16" viewBox="0 0 16 16" fill="none" xmlns="http://www.w3.org/2000/svg">
<g clip-path="url(#clip0_5_885)">
<path d="M12.5 1.5H3.5C3.23478 1.5 2.98043 1.60536 2.79289 1.79289C2.60536 1.98043 2.5 2.23478 2.5 2.5V5C2.5 5.0663 2.52634 5.12989 2.57322 5.17678C2.62011 5.22366 2.6837 5.25 2.75 5.25H13.25C13.3163 5.25 13.3799 5.22366 13.4268 5.17678C13.4737 5.12989 13.5 5.0663 13.5 5V2.5C13.5 2.23478 13.3946 1.98043 13.2071 1.79289C13.0196 1.60536 12.7652 1.5 12.5 1.5ZM8.5 4H7.5C7.36739 4 7.24021 3.94732 7.14645 3.85355C7.05268 3.75979 7 3.63261 7 3.5C7 3.36739 7.05268 3.24021 7.14645 3.14645C7.24021 3.05268 7.36739 3 7.5 3H8.5C8.63261 3 8.75979 3.05268 8.85355 3.14645C8.94732 3.24021 9 3.36739 9 3.5C9 3.63261 8.94732 3.75979 8.85355 3.85355C8.75979 3.94732 8.63261 4 8.5 4ZM13.25 6.25H2.75C2.6837 6.25 2.62011 6.27634 2.57322 6.32322C2.52634 6.37011 2.5 6.4337 2.5 6.5V9.5C2.5 9.5663 2.52634 9.62989 2.57322 9.67678C2.62011 9.72366 2.6837 9.75 2.75 9.75H13.25C13.3163 9.75 13.3799 9.72366 13.4268 9.67678C13.4737 9.62989 13.5 9.5663 13.5 9.5V6.5C13.5 6.4337 13.4737 6.37011 13.4268 6.32322C13.3799 6.27634 13.3163 6.25 13.25 6.25ZM8.5 8.5H7.51687C7.38788 8.50159 7.26305 8.45436 7.16743 8.36777C7.0718 8.28118 7.01244 8.16164 7.00125 8.03312C6.99671 7.96473 7.00628 7.89614 7.02936 7.8316C7.05245 7.76706 7.08856 7.70795 7.13545 7.65796C7.18234 7.60796 7.23901 7.56814 7.30194 7.54097C7.36486 7.51379 7.43271 7.49985 7.50125 7.5H8.48438C8.61337 7.49841 8.7382 7.54564 8.83383 7.63223C8.92945 7.71882 8.98881 7.83836 9 7.96688C9.00454 8.03527 8.99497 8.10387 8.97189 8.1684C8.9488 8.23294 8.91269 8.29205 8.8658 8.34204C8.81891 8.39204 8.76224 8.43186 8.69931 8.45903C8.63639 8.48621 8.56854 8.50015 8.5 8.5ZM13.25 10.75H2.75C2.6837 10.75 2.62011 10.7763 2.57322 10.8232C2.52634 10.8701 2.5 10.9337 2.5 11V13.5C2.5 13.7652 2.60536 14.0196 2.79289 14.2071C2.98043 14.3946 3.23478 14.5 3.5 14.5H12.5C12.7652 14.5 13.0196 14.3946 13.2071 14.2071C13.3946 14.0196 13.5 13.7652 13.5 13.5V11C13.5 10.9337 13.4737 10.8701 13.4268 10.8232C13.3799 10.7763 13.3163 10.75 13.25 10.75ZM8.5 13H7.5C7.36739 13 7.24021 12.9473 7.14645 12.8536C7.05268 12.7598 7 12.6326 7 12.5C7 12.3674 7.05268 12.2402 7.14645 12.1464C7.24021 12.0527 7.36739 12 7.5 12H8.5C8.63261 12 8.75979 12.0527 8.85355 12.1464C8.94732 12.2402 9 12.3674 9 12.5C9 12.6326 8.94732 12.7598 8.85355 12.8536C8.75979 12.9473 8.63261 13 8.5 13Z" fill="black"/>
</g>
<defs>
<clipPath id="clip0_5_885">
<rect width="16" height="16" fill="white"/>
</clipPath>
</defs>
</svg>
