<svg width="16" height="16" viewBox="0 0 16 16" fill="none" xmlns="http://www.w3.org/2000/svg">
<g clip-path="url(#clip0_5_888)">
<path d="M4.14119 5.01438C4.07225 4.90165 4.02749 4.77583 4.00973 4.64489C3.99198 4.51396 4.00163 4.38076 4.03807 4.25375C4.06285 4.14831 4.1051 4.04775 4.16307 3.95625L5.49994 2.04375V0.5C5.49979 0.431456 5.51374 0.363613 5.54091 0.300686C5.56808 0.237758 5.6079 0.181089 5.6579 0.134199C5.7079 0.0873097 5.767 0.0512004 5.83154 0.0281144C5.89608 0.00502836 5.96467 -0.00454124 6.03307 -4.16767e-08C6.16186 0.011059 6.28166 0.0705531 6.36831 0.16648C6.45496 0.262406 6.502 0.387626 6.49994 0.516875V2.02625L6.82807 2.4375C6.9709 2.61664 7.15302 2.76054 7.36033 2.85807C7.56765 2.95561 7.79462 3.00417 8.02369 3C8.24992 2.9936 8.47196 2.93748 8.67406 2.83562C8.87615 2.73376 9.05335 2.58866 9.19307 2.41062L9.49994 2.02625V0.5C9.49979 0.431456 9.51374 0.363613 9.54091 0.300686C9.56808 0.237758 9.6079 0.181089 9.6579 0.134199C9.7079 0.0873097 9.767 0.0512004 9.83154 0.0281144C9.89608 0.00502836 9.96467 -0.00454124 10.0331 -4.16767e-08C10.1619 0.011059 10.2817 0.0705531 10.3683 0.16648C10.455 0.262406 10.502 0.387626 10.4999 0.516875V2.04375L11.8387 3.95625C11.8967 4.04775 11.9389 4.14831 11.9637 4.25375C12.0001 4.38076 12.0098 4.51396 11.992 4.64489C11.9743 4.77583 11.9295 4.90165 11.8606 5.01438C11.8581 5.01798 11.8558 5.02174 11.8537 5.02563L10.9881 6.38438C10.9653 6.42015 10.9337 6.44953 10.8965 6.46975C10.8592 6.48998 10.8174 6.50039 10.7749 6.5H5.22494C5.18284 6.50007 5.14141 6.48951 5.10448 6.4693C5.06755 6.44909 5.03632 6.41988 5.01369 6.38438L4.14807 5.02563C4.14601 5.02174 4.14371 5.01798 4.14119 5.01438ZM13.4224 13.1119C13.4198 13.1046 13.4167 13.0975 13.4131 13.0906L10.8556 7.64375C10.8353 7.60069 10.8033 7.56428 10.7631 7.53882C10.7229 7.51336 10.6763 7.49989 10.6287 7.5H5.37119C5.32362 7.49989 5.277 7.51336 5.23681 7.53882C5.19662 7.56428 5.16454 7.60069 5.14432 7.64375L2.58682 13.0906C2.58317 13.0975 2.58004 13.1046 2.57744 13.1119C2.52292 13.2433 2.49674 13.3848 2.50062 13.5271C2.5045 13.6694 2.53834 13.8092 2.59994 13.9375C2.68205 14.1063 2.81001 14.2485 2.96916 14.348C3.12832 14.4475 3.31226 14.5001 3.49994 14.5H12.4999C12.6875 14.5 12.8713 14.4473 13.0304 14.3478C13.1894 14.2484 13.3173 14.1062 13.3993 13.9375C13.461 13.8092 13.495 13.6694 13.499 13.5272C13.5029 13.3849 13.4769 13.2434 13.4224 13.1119Z" fill="black"/>
</g>
<defs>
<clipPath id="clip0_5_888">
<rect width="16" height="16" fill="white"/>
</clipPath>
</defs>
</svg>
