<svg width="16" height="16" viewBox="0 0 16 16" fill="none" xmlns="http://www.w3.org/2000/svg">
<g clip-path="url(#clip0_5_884)">
<path d="M5.82951 2.30374C5.78919 2.27879 5.75679 2.2429 5.7361 2.20024C5.7154 2.15757 5.70727 2.10991 5.71264 2.0628C5.71801 2.01569 5.73667 1.97108 5.76644 1.93417C5.79621 1.89726 5.83586 1.86959 5.88076 1.85436C6.79264 1.54017 7.76303 1.43296 8.7215 1.54053C9.67997 1.64809 10.6025 1.96773 11.422 2.47624C11.4517 2.49496 11.4771 2.51973 11.4966 2.54893C11.5161 2.57814 11.5292 2.61112 11.5351 2.64573C11.541 2.68034 11.5396 2.7158 11.5308 2.74981C11.5221 2.78382 11.5063 2.81561 11.4845 2.84311C10.7609 3.76784 9.87341 4.5517 8.86639 5.15561C8.05292 4.01327 7.02066 3.04389 5.82951 2.30374ZM7.97389 5.62499C7.06107 4.37943 5.86017 3.37346 4.47389 2.69311C4.43419 2.67383 4.39004 2.66558 4.34606 2.6692C4.30208 2.67283 4.25989 2.68821 4.22389 2.71374C3.10163 3.51649 2.2627 4.65431 1.82764 5.96374C1.81671 5.99722 1.81297 6.03263 1.81669 6.06766C1.8204 6.10268 1.83146 6.13653 1.84917 6.16698C1.86687 6.19742 1.89081 6.22379 1.91941 6.24434C1.94801 6.26489 1.98063 6.27917 2.01514 6.28624C2.66748 6.42685 3.33281 6.4985 4.00014 6.49999C5.37259 6.50073 6.72868 6.20213 7.97389 5.62499ZM14.4614 7.29311C14.3025 5.84344 13.6598 4.48959 12.637 3.44999C12.6121 3.42466 12.582 3.40493 12.5489 3.39213C12.5157 3.37933 12.4802 3.37375 12.4447 3.37577C12.4092 3.37778 12.3746 3.38733 12.3431 3.4038C12.3116 3.42026 12.2839 3.44325 12.262 3.47124C11.471 4.47898 10.5034 5.33455 9.40639 5.99624C9.7491 6.58996 10.0328 7.21588 10.2533 7.86499C11.1487 7.62224 12.0724 7.4995 13.0001 7.49999C13.3969 7.5 13.7934 7.52233 14.1876 7.56686C14.2243 7.57052 14.2614 7.56602 14.2961 7.55368C14.3309 7.54134 14.3625 7.52146 14.3886 7.49548C14.4148 7.4695 14.4349 7.43805 14.4475 7.40338C14.46 7.36872 14.4648 7.3317 14.4614 7.29499V7.29311ZM10.5295 8.82436C10.7148 9.61239 10.8081 10.4192 10.8076 11.2287C10.8073 12.0036 10.7211 12.776 10.5508 13.5319C10.5399 13.5782 10.5424 13.6266 10.5581 13.6715C10.5738 13.7164 10.6019 13.7559 10.6393 13.7854C10.6766 13.8148 10.7216 13.833 10.7689 13.8378C10.8162 13.8426 10.8639 13.8338 10.9064 13.8125C11.8543 13.337 12.6718 12.6372 13.288 11.7741C13.9041 10.9109 14.3003 9.91037 14.442 8.85936C14.4463 8.82659 14.444 8.79329 14.4354 8.76139C14.4267 8.72949 14.4118 8.69963 14.3915 8.67353C14.3712 8.64744 14.346 8.62562 14.3172 8.60935C14.2884 8.59308 14.2567 8.58267 14.2239 8.57874C12.9879 8.41966 11.7328 8.5046 10.5295 8.82874V8.82436ZM9.30201 8.17124C9.10049 7.58026 8.84111 7.01062 8.52764 6.47061C7.1149 7.14931 5.56745 7.50114 4.00014 7.49999C3.26751 7.50003 2.53688 7.42357 1.82014 7.27186C1.78556 7.26457 1.74982 7.26469 1.71529 7.27221C1.68076 7.27974 1.64821 7.2945 1.61981 7.31553C1.5914 7.33655 1.56777 7.36336 1.55048 7.39419C1.53319 7.42502 1.52264 7.45916 1.51951 7.49436C1.5066 7.66103 1.49993 7.82957 1.49951 7.99999C1.49918 8.89002 1.68214 9.77059 2.03698 10.5868C2.39182 11.4031 2.91095 12.1375 3.56201 12.7444C3.58947 12.7695 3.62222 12.7882 3.65784 12.7991C3.69347 12.81 3.73107 12.8128 3.76792 12.8073C3.80476 12.8018 3.83991 12.7881 3.87078 12.7673C3.90166 12.7464 3.92749 12.719 3.94639 12.6869C5.16627 10.617 7.0554 9.02479 9.30201 8.17311V8.17124ZM4.73076 13.3281C4.71433 13.3568 4.70376 13.3884 4.69964 13.4212C4.69553 13.454 4.69796 13.4873 4.70679 13.5192C4.71563 13.551 4.73069 13.5808 4.75111 13.6068C4.77153 13.6328 4.79691 13.6545 4.82576 13.6706C6.13284 14.4034 7.65318 14.6616 9.12889 14.4012C9.17279 14.3936 9.21379 14.3741 9.24748 14.3449C9.28117 14.3158 9.30628 14.278 9.32014 14.2356C9.64248 13.2665 9.80708 12.2519 9.80764 11.2306C9.80777 10.527 9.72936 9.82558 9.57389 9.13936C7.52595 9.93729 5.81556 11.4166 4.73076 13.3281Z" fill="black"/>
</g>
<defs>
<clipPath id="clip0_5_884">
<rect width="16" height="16" fill="white"/>
</clipPath>
</defs>
</svg>
