<svg width="16" height="16" viewBox="0 0 16 16" fill="none" xmlns="http://www.w3.org/2000/svg">
<g clip-path="url(#clip0_5_883)">
<path d="M11.8537 4.85374L10 6.70686V9.29311L11.8537 11.1462C11.9002 11.1927 11.9371 11.2478 11.9622 11.3085C11.9873 11.3692 12.0003 11.4343 12.0003 11.5C12.0003 11.5657 11.9873 11.6307 11.9622 11.6914C11.9371 11.7521 11.9002 11.8073 11.8537 11.8537C11.8073 11.9002 11.7521 11.937 11.6914 11.9622C11.6308 11.9873 11.5657 12.0003 11.5 12.0003C11.4343 12.0003 11.3692 11.9873 11.3086 11.9622C11.2479 11.937 11.1927 11.9002 11.1462 11.8537L9.29312 9.99999H6.70687L4.85375 11.8537C4.75993 11.9476 4.63268 12.0003 4.5 12.0003C4.36732 12.0003 4.24007 11.9476 4.14625 11.8537C4.05243 11.7599 3.99972 11.6327 3.99972 11.5C3.99972 11.3673 4.05243 11.2401 4.14625 11.1462L6 9.29311V6.70686L4.14625 4.85374C4.05243 4.75992 3.99972 4.63267 3.99972 4.49999C3.99972 4.36731 4.05243 4.24006 4.14625 4.14624C4.24007 4.05242 4.36732 3.99971 4.5 3.99971C4.63268 3.99971 4.75993 4.05242 4.85375 4.14624L6.70687 5.99999H9.29312L11.1462 4.14624C11.2401 4.05242 11.3673 3.99971 11.5 3.99971C11.6327 3.99971 11.7599 4.05242 11.8537 4.14624C11.9476 4.24006 12.0003 4.36731 12.0003 4.49999C12.0003 4.63267 11.9476 4.75992 11.8537 4.85374ZM8.96125 4.47124C9.08623 4.51547 9.22367 4.50826 9.34334 4.45118C9.463 4.3941 9.5551 4.29183 9.59937 4.16686C9.69802 3.88826 9.86562 3.63918 10.0865 3.44286C10.3075 3.24653 10.5745 3.10936 10.8628 3.04413C11.151 2.9789 11.4511 2.98773 11.735 3.06981C12.019 3.1519 12.2775 3.30455 12.4865 3.51353C12.6954 3.72252 12.8481 3.98103 12.9302 4.26495C13.0123 4.54887 13.0211 4.84896 12.9559 5.13722C12.8906 5.42548 12.7535 5.69252 12.5571 5.91344C12.3608 6.13436 12.1117 6.30197 11.8331 6.40061C11.7197 6.43833 11.6235 6.51544 11.5621 6.61797C11.5006 6.72049 11.4779 6.84165 11.4981 6.95947C11.5182 7.0773 11.58 7.18399 11.6721 7.26022C11.7641 7.33645 11.8805 7.37717 12 7.37499C12.0569 7.37514 12.1133 7.36541 12.1669 7.34624C12.6047 7.19126 12.9962 6.92791 13.3047 6.58075C13.6133 6.2336 13.8289 5.81395 13.9314 5.36095C14.034 4.90795 14.0201 4.43636 13.8911 3.99017C13.7621 3.54398 13.5222 3.13772 13.1938 2.8093C12.8654 2.48088 12.4591 2.24099 12.0129 2.11201C11.5668 1.98303 11.0952 1.96916 10.6422 2.0717C10.1892 2.17423 9.76951 2.38983 9.42236 2.69839C9.0752 3.00694 8.81185 3.3984 8.65687 3.83624C8.6136 3.96083 8.62131 4.09747 8.67832 4.21641C8.73533 4.33534 8.83702 4.42694 8.96125 4.47124ZM12.1669 8.65874C12.0426 8.61714 11.9069 8.62604 11.789 8.68351C11.6712 8.74098 11.5807 8.84242 11.5369 8.966C11.4931 9.08958 11.4997 9.2254 11.5551 9.34421C11.6105 9.46303 11.7103 9.55533 11.8331 9.60124C12.1117 9.69988 12.3608 9.86748 12.5571 10.0884C12.7535 10.3093 12.8906 10.5764 12.9559 10.8646C13.0211 11.1529 13.0123 11.453 12.9302 11.7369C12.8481 12.0208 12.6954 12.2793 12.4865 12.4883C12.2775 12.6973 12.019 12.85 11.735 12.932C11.4511 13.0141 11.151 13.023 10.8628 12.9577C10.5745 12.8925 10.3075 12.7553 10.0865 12.559C9.86562 12.3627 9.69802 12.1136 9.59937 11.835C9.55346 11.7122 9.46116 11.6123 9.34235 11.5569C9.22354 11.5015 9.08772 11.495 8.96414 11.5388C8.84056 11.5825 8.73911 11.6731 8.68164 11.7909C8.62417 11.9087 8.61528 12.0444 8.65687 12.1687C8.81185 12.6066 9.0752 12.998 9.42236 13.3066C9.76951 13.6151 10.1892 13.8307 10.6422 13.9333C11.0952 14.0358 11.5668 14.0219 12.0129 13.893C12.4591 13.764 12.8654 13.5241 13.1938 13.1957C13.5222 12.8672 13.7621 12.461 13.8911 12.0148C14.0201 11.5686 14.034 11.097 13.9314 10.644C13.8289 10.191 13.6133 9.77138 13.3047 9.42422C12.9962 9.07707 12.6047 8.81372 12.1669 8.65874ZM7.04187 11.5337C6.91689 11.4895 6.77945 11.4967 6.65979 11.5538C6.54012 11.6109 6.44802 11.7131 6.40375 11.8381C6.3051 12.1167 6.1375 12.3658 5.91658 12.5621C5.69566 12.7584 5.42862 12.8956 5.14036 12.9608C4.8521 13.0261 4.55201 13.0172 4.26809 12.9352C3.98416 12.8531 3.72566 12.7004 3.51667 12.4914C3.30769 12.2825 3.15503 12.0239 3.07295 11.74C2.99087 11.4561 2.98203 11.156 3.04726 10.8678C3.1125 10.5795 3.24967 10.3125 3.446 10.0915C3.64232 9.87061 3.8914 9.70301 4.17 9.60436C4.29279 9.55845 4.39265 9.46615 4.44805 9.34734C4.50345 9.22852 4.50998 9.0927 4.46622 8.96913C4.42246 8.84555 4.33191 8.7441 4.21409 8.68663C4.09626 8.62916 3.96057 8.62027 3.83625 8.66186C3.39841 8.81684 3.00695 9.08019 2.6984 9.42734C2.38985 9.7745 2.17424 10.1941 2.07171 10.6471C1.96917 11.1001 1.98304 11.5717 2.11202 12.0179C2.241 12.4641 2.48089 12.8704 2.80931 13.1988C3.13774 13.5272 3.54399 13.7671 3.99018 13.8961C4.43637 14.0251 4.90796 14.0389 5.36096 13.9364C5.81396 13.8339 6.23361 13.6183 6.58077 13.3097C6.92792 13.0012 7.19127 12.6097 7.34625 12.1719C7.36885 12.1095 7.37881 12.0432 7.37554 11.977C7.37228 11.9107 7.35586 11.8457 7.32724 11.7859C7.29862 11.726 7.25837 11.6725 7.20884 11.6283C7.15931 11.5842 7.10149 11.5503 7.03875 11.5287L7.04187 11.5337ZM3.83625 7.34624C3.8888 7.36505 3.94418 7.37478 4 7.37499C4.11789 7.37493 4.23197 7.33323 4.32209 7.25723C4.41221 7.18124 4.47259 7.07584 4.49255 6.95965C4.51251 6.84347 4.49078 6.72396 4.43119 6.62225C4.3716 6.52053 4.27798 6.44314 4.16687 6.40374C3.88827 6.30509 3.6392 6.13749 3.44287 5.91657C3.24655 5.69565 3.10937 5.4286 3.04414 5.14034C2.97891 4.85208 2.98775 4.552 3.06983 4.26807C3.15191 3.98415 3.30456 3.72564 3.51355 3.51666C3.72253 3.30767 3.98104 3.15502 4.26496 3.07294C4.54888 2.99086 4.84897 2.98202 5.13723 3.04725C5.42549 3.11248 5.69254 3.24966 5.91346 3.44598C6.13438 3.64231 6.30198 3.89139 6.40062 4.16999C6.42169 4.23295 6.45509 4.29109 6.49887 4.34101C6.54264 4.39093 6.59592 4.43163 6.6556 4.46073C6.71527 4.48984 6.78015 4.50677 6.84644 4.51053C6.91273 4.5143 6.9791 4.50482 7.04169 4.48266C7.10428 4.4605 7.16182 4.42609 7.21097 4.38145C7.26012 4.33681 7.29988 4.28282 7.32794 4.22265C7.356 4.16248 7.3718 4.09732 7.3744 4.03097C7.37701 3.96463 7.36638 3.89843 7.34312 3.83624C7.18815 3.3984 6.9248 3.00694 6.57764 2.69839C6.23049 2.38983 5.81084 2.17423 5.35784 2.0717C4.90484 1.96916 4.43325 1.98303 3.98706 2.11201C3.54087 2.24099 3.13461 2.48088 2.80619 2.8093C2.47777 3.13772 2.23788 3.54398 2.1089 3.99017C1.97992 4.43636 1.96605 4.90795 2.06858 5.36095C2.17112 5.81395 2.38672 6.2336 2.69528 6.58075C3.00383 6.92791 3.39528 7.19126 3.83312 7.34624H3.83625Z" fill="black"/>
</g>
<defs>
<clipPath id="clip0_5_883">
<rect width="16" height="16" fill="white"/>
</clipPath>
</defs>
</svg>
