<svg width="16" height="16" viewBox="0 0 16 16" fill="none" xmlns="http://www.w3.org/2000/svg">
<g clip-path="url(#clip0_5_873)">
<path d="M11.7498 7.50003L7.99984 5.00003L11.4723 2.68753C11.5545 2.63271 11.6511 2.60345 11.7498 2.60345C11.8486 2.60345 11.9452 2.63271 12.0273 2.68753L14.8748 4.58378C14.9434 4.62942 14.9997 4.6913 15.0386 4.76392C15.0775 4.83654 15.0978 4.91765 15.0978 5.00003C15.0978 5.08241 15.0775 5.16352 15.0386 5.23614C14.9997 5.30876 14.9434 5.37064 14.8748 5.41628L11.7498 7.50003ZM4.52734 2.68753C4.44518 2.63271 4.34862 2.60345 4.24984 2.60345C4.15107 2.60345 4.05451 2.63271 3.97234 2.68753L1.12484 4.58378C1.05626 4.62942 1.00002 4.6913 0.961114 4.76392C0.922212 4.83654 0.901855 4.91765 0.901855 5.00003C0.901855 5.08241 0.922212 5.16352 0.961114 5.23614C1.00002 5.30876 1.05626 5.37064 1.12484 5.41628L4.24984 7.50003L7.99984 5.00003L4.52734 2.68753ZM14.8748 9.58378L11.7498 7.50003L7.99984 10L11.4723 12.3125C11.5545 12.3673 11.6511 12.3966 11.7498 12.3966C11.8486 12.3966 11.9452 12.3673 12.0273 12.3125L14.8748 10.4163C14.9434 10.3706 14.9997 10.3088 15.0386 10.2361C15.0775 10.1635 15.0978 10.0824 15.0978 10C15.0978 9.91765 15.0775 9.83654 15.0386 9.76392C14.9997 9.6913 14.9434 9.62942 14.8748 9.58378ZM1.12484 9.58378C1.05626 9.62942 1.00002 9.6913 0.961114 9.76392C0.922212 9.83654 0.901855 9.91765 0.901855 10C0.901855 10.0824 0.922212 10.1635 0.961114 10.2361C1.00002 10.3088 1.05626 10.3706 1.12484 10.4163L3.97234 12.3125C4.05451 12.3673 4.15107 12.3966 4.24984 12.3966C4.34862 12.3966 4.44518 12.3673 4.52734 12.3125L7.99984 10L4.24984 7.50003L1.12484 9.58378ZM10.538 12.8932L8.13984 11.2944C8.09876 11.267 8.05048 11.2524 8.00109 11.2524C7.95171 11.2524 7.90343 11.267 7.86234 11.2944L5.46297 12.8932C5.42881 12.916 5.4008 12.9469 5.38144 12.9832C5.36207 13.0194 5.35194 13.0599 5.35194 13.101C5.35194 13.1421 5.36207 13.1825 5.38144 13.2188C5.4008 13.255 5.42881 13.2859 5.46297 13.3088L7.72234 14.8125C7.80451 14.8673 7.90107 14.8966 7.99984 14.8966C8.09862 14.8966 8.19518 14.8673 8.27734 14.8125L10.5367 13.3063C10.5704 13.2833 10.5979 13.2525 10.6169 13.2165C10.6359 13.1805 10.6459 13.1404 10.6459 13.0997C10.6459 13.059 10.6359 13.0189 10.6169 12.9829C10.5979 12.9469 10.5704 12.9161 10.5367 12.8932H10.538Z" fill="black"/>
</g>
<defs>
<clipPath id="clip0_5_873">
<rect width="16" height="16" fill="white"/>
</clipPath>
</defs>
</svg>
