<svg width="16" height="16" viewBox="0 0 16 16" fill="none" xmlns="http://www.w3.org/2000/svg">
<g clip-path="url(#clip0_5_876)">
<path d="M13.3699 13.1637C13.415 13.2122 13.45 13.2691 13.4729 13.3311C13.4959 13.3932 13.5063 13.4592 13.5035 13.5253C13.5007 13.5914 13.4849 13.6563 13.4569 13.7162C13.4288 13.7762 13.3892 13.8299 13.3402 13.8744C13.2912 13.9189 13.2339 13.9533 13.1716 13.9755C13.1093 13.9977 13.0431 14.0073 12.9771 14.0037C12.911 14.0001 12.8463 13.9835 12.7867 13.9548C12.7271 13.926 12.6738 13.8857 12.6299 13.8362L11.8237 12.9494C10.7997 13.9445 9.42779 14.5008 7.9999 14.5C4.9999 14.5 2.53178 12.0669 2.4999 9.06998C2.48303 7.54873 3.01365 5.95498 4.04553 4.39436L2.64365 2.85186C2.55321 2.755 2.50364 2.62698 2.50527 2.49448C2.5069 2.36197 2.55961 2.23521 2.6524 2.14061C2.70054 2.09407 2.75753 2.05767 2.81999 2.03358C2.88246 2.00948 2.94913 1.99818 3.01605 2.00034C3.08296 2.00249 3.14877 2.01807 3.20955 2.04613C3.27034 2.0742 3.32486 2.11419 3.3699 2.16373L13.3699 13.1637ZM12.7405 10.985C12.7693 11.0166 12.8057 11.0404 12.8462 11.0539C12.8868 11.0675 12.9301 11.0705 12.9721 11.0625C13.0141 11.0545 13.0534 11.0359 13.0862 11.0085C13.1189 10.981 13.1441 10.9456 13.1593 10.9056C13.385 10.2957 13.5004 9.65037 13.4999 8.99998C13.4999 7.03748 12.593 4.95748 10.8749 2.98436C10.1029 2.09275 9.23399 1.28989 8.28428 0.590607C8.20021 0.531714 8.10005 0.500122 7.9974 0.500122C7.89476 0.500122 7.7946 0.531714 7.71053 0.590607C6.89229 1.1939 6.13457 1.87522 5.44803 2.62498C5.40569 2.6711 5.3822 2.73144 5.3822 2.79404C5.3822 2.85665 5.40569 2.91698 5.44803 2.96311L12.7405 10.985Z" fill="black"/>
</g>
<defs>
<clipPath id="clip0_5_876">
<rect width="16" height="16" fill="white"/>
</clipPath>
</defs>
</svg>
