<svg width="16" height="16" viewBox="0 0 16 16" fill="none" xmlns="http://www.w3.org/2000/svg">
<g clip-path="url(#clip0_5_878)">
<path d="M10.875 2.98436C10.103 2.09275 9.23409 1.28989 8.28438 0.590607C8.2003 0.531714 8.10015 0.500122 7.9975 0.500122C7.89485 0.500122 7.7947 0.531714 7.71063 0.590607C6.76266 1.29018 5.89545 2.09303 5.125 2.98436C3.40688 4.95748 2.5 7.03748 2.5 8.99998C2.5 10.4587 3.07946 11.8576 4.11091 12.8891C5.14236 13.9205 6.54131 14.5 8 14.5C9.45869 14.5 10.8576 13.9205 11.8891 12.8891C12.9205 11.8576 13.5 10.4587 13.5 8.99998C13.5 7.03748 12.5931 4.95748 10.875 2.98436ZM3.5 8.99998C3.5 5.42311 6.96688 2.43748 8 1.62498V13.5C6.80693 13.4987 5.66311 13.0241 4.81948 12.1805C3.97585 11.3369 3.50132 10.1931 3.5 8.99998Z" fill="black"/>
</g>
<defs>
<clipPath id="clip0_5_878">
<rect width="16" height="16" fill="white"/>
</clipPath>
</defs>
</svg>
