<svg width="16" height="16" viewBox="0 0 16 16" fill="none" xmlns="http://www.w3.org/2000/svg">
<g clip-path="url(#clip0_5_872)">
<path d="M8 1.5C6.71442 1.5 5.45772 1.88122 4.3888 2.59545C3.31988 3.30968 2.48676 4.32484 1.99479 5.51256C1.50282 6.70028 1.37409 8.00721 1.6249 9.26809C1.8757 10.529 2.49477 11.6872 3.40381 12.5962C4.31285 13.5052 5.47104 14.1243 6.73192 14.3751C7.99279 14.6259 9.29973 14.4972 10.4874 14.0052C11.6752 13.5132 12.6903 12.6801 13.4046 11.6112C14.1188 10.5423 14.5 9.28558 14.5 8C14.4982 6.27665 13.8128 4.62441 12.5942 3.40582C11.3756 2.18722 9.72335 1.50182 8 1.5ZM9.25 9.5C9.27827 9.49991 9.30634 9.49527 9.33313 9.48625C9.45745 9.44465 9.59314 9.45355 9.71097 9.51102C9.82879 9.56849 9.91934 9.66994 9.9631 9.79351C10.0069 9.91709 10.0003 10.0529 9.94493 10.1717C9.88952 10.2905 9.78967 10.3828 9.66688 10.4288C9.47831 10.4955 9.27648 10.5159 9.07836 10.4885C8.88023 10.461 8.69159 10.3864 8.52828 10.2709C8.36497 10.1554 8.23175 10.0024 8.13983 9.82478C8.0479 9.64713 7.99995 9.45002 8 9.25C8 8.69688 8.29813 8.29812 8.5625 7.94562C8.79813 7.63312 9 7.35938 9 7C9 6.73478 8.89465 6.48043 8.70711 6.29289C8.51957 6.10536 8.26522 6 8 6C7.73479 6 7.48043 6.10536 7.2929 6.29289C7.10536 6.48043 7 6.73478 7 7C7 7.13261 6.94732 7.25979 6.85356 7.35355C6.75979 7.44732 6.63261 7.5 6.5 7.5C6.36739 7.5 6.24022 7.44732 6.14645 7.35355C6.05268 7.25979 6 7.13261 6 7C6 6.46957 6.21072 5.96086 6.58579 5.58579C6.96086 5.21071 7.46957 5 8 5C8.53044 5 9.03914 5.21071 9.41422 5.58579C9.78929 5.96086 10 6.46957 10 7C10 7.69187 9.64625 8.16438 9.3625 8.54438C9.1375 8.845 9 9.04 9 9.25C9 9.3163 9.02634 9.37989 9.07323 9.42678C9.12011 9.47366 9.1837 9.5 9.25 9.5ZM11.5 7.5C11.3674 7.5 11.2402 7.44732 11.1464 7.35355C11.0527 7.25979 11 7.13261 11 7C11 6.20435 10.6839 5.44129 10.1213 4.87868C9.55871 4.31607 8.79565 4 8 4C7.20435 4 6.44129 4.31607 5.87868 4.87868C5.31607 5.44129 5 6.20435 5 7C5 7.74375 5.41938 8.28125 5.86375 8.85C6.30125 9.4075 6.75 9.98438 6.75 10.75C6.74992 10.9962 6.82253 11.2369 6.95875 11.442C7.09496 11.6471 7.28871 11.8074 7.51567 11.9028C7.74264 11.9982 7.99273 12.0244 8.23455 11.9782C8.47638 11.932 8.69918 11.8155 8.875 11.6431C8.92122 11.5943 8.97683 11.5552 9.03848 11.5284C9.10014 11.5015 9.16658 11.4874 9.23383 11.4868C9.30109 11.4862 9.36777 11.4992 9.42989 11.5249C9.492 11.5507 9.54828 11.5888 9.59535 11.6368C9.64242 11.6848 9.67932 11.7419 9.70383 11.8045C9.72834 11.8671 9.73997 11.9341 9.73801 12.0013C9.73605 12.0685 9.72055 12.1347 9.69243 12.1958C9.66432 12.2569 9.62417 12.3117 9.57438 12.3569C9.25791 12.6668 8.857 12.8765 8.42188 12.9595C7.98677 13.0426 7.53682 12.9954 7.12844 12.8238C6.72005 12.6522 6.3714 12.3639 6.12619 11.995C5.88098 11.6261 5.75011 11.193 5.75 10.75C5.75 10.3287 5.4375 9.92875 5.07563 9.46562C4.59625 8.85187 4 8.08813 4 7C4 5.93913 4.42143 4.92172 5.17158 4.17157C5.92172 3.42143 6.93914 3 8 3C9.06087 3 10.0783 3.42143 10.8284 4.17157C11.5786 4.92172 12 5.93913 12 7C12 7.13261 11.9473 7.25979 11.8536 7.35355C11.7598 7.44732 11.6326 7.5 11.5 7.5Z" fill="black"/>
</g>
<defs>
<clipPath id="clip0_5_872">
<rect width="16" height="16" fill="white"/>
</clipPath>
</defs>
</svg>
