<svg width="16" height="16" viewBox="0 0 16 16" fill="none" xmlns="http://www.w3.org/2000/svg">
<g clip-path="url(#clip0_5_1685)">
<path d="M13.37 13.1638C13.415 13.2122 13.4501 13.2691 13.473 13.3312C13.4959 13.3932 13.5063 13.4592 13.5036 13.5253C13.5008 13.5914 13.4849 13.6563 13.4569 13.7163C13.4289 13.7762 13.3892 13.83 13.3403 13.8745C13.2913 13.919 13.234 13.9533 13.1717 13.9755C13.1093 13.9977 13.0432 14.0073 12.9771 14.0037C12.9111 14.0002 12.8464 13.9836 12.7868 13.9548C12.7272 13.9261 12.6739 13.8858 12.63 13.8363L11.9875 13.1294C12.251 12.9245 12.4982 12.6994 12.7268 12.4563L13.37 13.1638ZM4.01246 2.87065L3.36996 2.16377C3.32605 2.11428 3.27275 2.07399 3.21316 2.04524C3.15356 2.01649 3.08886 1.99986 3.02279 1.99631C2.95672 1.99275 2.8906 2.00235 2.82826 2.02453C2.76593 2.04672 2.70862 2.08106 2.65965 2.12556C2.61069 2.17006 2.57104 2.22383 2.54301 2.28377C2.51498 2.3437 2.49912 2.40861 2.49636 2.47471C2.4936 2.54082 2.50399 2.60682 2.52692 2.66888C2.54985 2.73095 2.58488 2.78784 2.62996 2.83627L3.27308 3.54377C3.50175 3.3006 3.74895 3.07555 4.01246 2.87065ZM12.7268 12.4563L4.01246 2.87065C5.3043 1.86486 6.92827 1.38394 8.55946 1.52411C10.1907 1.66427 11.7088 2.41519 12.8101 3.62661C13.9114 4.83803 14.5147 6.42063 14.4993 8.05776C14.4838 9.6949 13.8508 11.2658 12.7268 12.4563ZM9.93746 6.50002C9.85624 6.18522 9.6995 5.89497 9.48082 5.6544C9.26214 5.41383 8.98811 5.23019 8.68246 5.1194C8.56084 5.08479 8.43063 5.09754 8.31804 5.15509C8.20545 5.21264 8.11884 5.31071 8.07566 5.42956C8.03248 5.5484 8.03593 5.67919 8.08532 5.7956C8.13471 5.912 8.22636 6.00537 8.34183 6.0569C8.49387 6.11237 8.63017 6.2039 8.73903 6.32365C8.84789 6.4434 8.92606 6.58778 8.96683 6.7444C8.99453 6.85166 9.05707 6.94669 9.14462 7.01457C9.23218 7.08244 9.3398 7.11932 9.45058 7.1194C9.49278 7.1195 9.53481 7.11404 9.57558 7.10315C9.70317 7.07053 9.81274 6.9889 9.8805 6.87597C9.94826 6.76305 9.96872 6.62795 9.93746 6.50002ZM12 7.00002C12.0002 6.35687 11.8453 5.72315 11.5484 5.1526C11.2516 4.58205 10.8215 4.09149 10.2948 3.72251C9.76797 3.35354 9.15998 3.11703 8.52234 3.03303C7.88469 2.94904 7.2362 3.02004 6.63183 3.24002C6.51561 3.29118 6.4232 3.38465 6.37337 3.50145C6.32354 3.61826 6.32002 3.74965 6.36353 3.86895C6.40703 3.98825 6.49431 4.08653 6.60763 4.14384C6.72095 4.20115 6.85183 4.21319 6.97371 4.17752C7.42719 4.01243 7.9138 3.95918 8.39225 4.02229C8.87071 4.0854 9.32687 4.263 9.72204 4.54002C10.1172 4.81704 10.4397 5.18531 10.6622 5.61356C10.8846 6.04182 11.0005 6.51743 11 7.00002C11 7.13263 11.0526 7.25981 11.1464 7.35358C11.2402 7.44734 11.3674 7.50002 11.5 7.50002C11.6326 7.50002 11.7597 7.44734 11.8535 7.35358C11.9473 7.25981 12 7.13263 12 7.00002ZM9.24996 10.5C8.91844 10.5 8.6005 10.3683 8.36608 10.1339C8.13166 9.89949 7.99996 9.58154 7.99996 9.25002C7.99918 9.10191 8.02024 8.95449 8.06246 8.81252L6.78433 7.40627C6.70151 7.46617 6.60216 7.49892 6.49996 7.50002C6.36735 7.50002 6.24017 7.44734 6.14641 7.35358C6.05264 7.25981 5.99996 7.13263 5.99996 7.00002C5.99997 6.86226 6.01421 6.72486 6.04246 6.59002L5.27433 5.74502C5.09255 6.13837 4.99891 6.5667 4.99996 7.00002C4.99996 7.74377 5.41933 8.28127 5.86371 8.85002C6.30121 9.40752 6.74996 9.9844 6.74996 10.75C6.74987 10.9962 6.82249 11.237 6.9587 11.4421C7.09492 11.6471 7.28866 11.8074 7.51563 11.9028C7.7426 11.9982 7.99268 12.0245 8.23451 11.9783C8.47634 11.9321 8.69914 11.8155 8.87496 11.6431C8.92118 11.5943 8.97678 11.5553 9.03844 11.5284C9.10009 11.5015 9.16654 11.4874 9.23379 11.4868C9.30104 11.4862 9.36772 11.4992 9.42984 11.525C9.49196 11.5507 9.54824 11.5888 9.59531 11.6368C9.64238 11.6849 9.67927 11.7419 9.70379 11.8045C9.7283 11.8672 9.73992 11.9341 9.73797 12.0013C9.73601 12.0686 9.72051 12.1347 9.69239 12.1958C9.66427 12.2569 9.62412 12.3117 9.57433 12.3569C9.25787 12.6669 8.85695 12.8765 8.42184 12.9596C7.98673 13.0426 7.53678 12.9954 7.12839 12.8238C6.72001 12.6522 6.37136 12.3639 6.12614 11.995C5.88093 11.6261 5.75007 11.193 5.74996 10.75C5.74996 10.3288 5.43746 9.92877 5.07558 9.46565C4.59621 8.8519 3.99996 8.08815 3.99996 7.00002C3.99915 6.28122 4.19357 5.5757 4.56246 4.95877L3.27308 3.54377C2.14912 4.73421 1.51609 6.30515 1.50066 7.94228C1.48522 9.57942 2.08851 11.162 3.18982 12.3734C4.29114 13.5849 5.80926 14.3358 7.44046 14.4759C9.07165 14.6161 10.6956 14.1352 11.9875 13.1294L9.56246 10.4606C9.46039 10.487 9.35538 10.5002 9.24996 10.5Z" fill="black"/>
</g>
<defs>
<clipPath id="clip0_5_1685">
<rect width="16" height="16" fill="white"/>
</clipPath>
</defs>
</svg>
