<svg width="16" height="16" viewBox="0 0 16 16" fill="none" xmlns="http://www.w3.org/2000/svg">
<g clip-path="url(#clip0_5_871)">
<path d="M13.4999 9.5C13.4981 10.956 12.9198 12.352 11.8915 13.3827C10.8631 14.4134 9.46841 14.9949 8.01245 15C4.8462 15.0075 2.37432 12.3125 2.50495 9.14875C2.58057 7.32313 3.23682 5.365 4.33182 3.7225C5.4687 2.01813 6.83932 1 7.99995 1C8.82807 1 9.76432 1.52 10.6462 2.4375C10.6898 2.48302 10.7147 2.54334 10.7157 2.6064C10.7168 2.66945 10.6939 2.73057 10.6518 2.7775L7.62495 6.16687C7.5676 6.23097 7.52775 6.30878 7.50926 6.39278C7.49077 6.47678 7.49426 6.56413 7.5194 6.64639C7.54453 6.72864 7.59046 6.80303 7.65275 6.86234C7.71503 6.92166 7.79156 6.96391 7.87495 6.985L9.41307 7.36938L9.0062 9.40187C8.98026 9.53191 9.00705 9.66693 9.08065 9.77722C9.15426 9.88751 9.26866 9.96405 9.3987 9.99C9.432 9.9969 9.46594 10.0003 9.49995 10C9.61537 9.99979 9.72716 9.95966 9.81636 9.88641C9.90556 9.81316 9.96667 9.7113 9.98932 9.59813L10.4893 7.09812C10.5145 6.97217 10.4903 6.84134 10.4216 6.73277C10.353 6.6242 10.2452 6.54622 10.1206 6.515L8.92307 6.21562L11.2287 3.6325C11.254 3.60417 11.2854 3.58196 11.3205 3.56757C11.3557 3.55318 11.3936 3.54699 11.4315 3.54946C11.4694 3.55193 11.5062 3.563 11.5392 3.58183C11.5722 3.60066 11.6004 3.62675 11.6218 3.65812C11.6368 3.67937 11.6512 3.70062 11.6656 3.72062C12.8312 5.47125 13.4999 7.57687 13.4999 9.5Z" fill="black"/>
</g>
<defs>
<clipPath id="clip0_5_871">
<rect width="16" height="16" fill="white"/>
</clipPath>
</defs>
</svg>
