<svg width="16" height="16" viewBox="0 0 16 16" fill="none" xmlns="http://www.w3.org/2000/svg">
<g clip-path="url(#clip0_5_868)">
<path d="M14.5 12.5C14.5 12.6326 14.4473 12.7598 14.3536 12.8535C14.2598 12.9473 14.1326 13 14 13H2C1.86739 13 1.74021 12.9473 1.64645 12.8535C1.55268 12.7598 1.5 12.6326 1.5 12.5C1.5 12.3674 1.55268 12.2402 1.64645 12.1464C1.74021 12.0527 1.86739 12 2 12H14C14.1326 12 14.2598 12.0527 14.3536 12.1464C14.4473 12.2402 14.5 12.3674 14.5 12.5ZM2.50563 9.99999H13.4944C13.6842 9.99959 13.8701 9.94549 14.0305 9.84393C14.1909 9.74238 14.3193 9.59751 14.4009 9.42607C14.4825 9.25462 14.5139 9.0636 14.4915 8.87507C14.4691 8.68653 14.3938 8.50818 14.2744 8.36061L9.17125 2.05874C9.02999 1.88422 8.85151 1.74348 8.64886 1.6468C8.44622 1.55011 8.22453 1.49994 8 1.49994C7.77547 1.49994 7.55378 1.55011 7.35114 1.6468C7.14849 1.74348 6.97002 1.88422 6.82875 2.05874L1.72563 8.36061C1.60617 8.50818 1.53089 8.68653 1.5085 8.87507C1.48611 9.0636 1.51752 9.25462 1.59909 9.42607C1.68066 9.59751 1.80907 9.74238 1.96948 9.84393C2.12989 9.94549 2.31577 9.99959 2.50563 9.99999Z" fill="black"/>
</g>
<defs>
<clipPath id="clip0_5_868">
<rect width="16" height="16" fill="white"/>
</clipPath>
</defs>
</svg>
