<svg width="16" height="16" viewBox="0 0 16 16" fill="none" xmlns="http://www.w3.org/2000/svg">
<g clip-path="url(#clip0_5_869)">
<path d="M2.08188 7.89002C2.00417 7.71261 1.9811 7.51606 2.01561 7.32548C2.05012 7.13489 2.14064 6.95892 2.27562 6.82002L6.88375 1.97565C7.02816 1.82524 7.20149 1.70557 7.39331 1.62382C7.58513 1.54208 7.79149 1.49994 8 1.49994C8.20851 1.49994 8.41487 1.54208 8.60669 1.62382C8.79851 1.70557 8.97184 1.82524 9.11625 1.97565L13.7244 6.82002C13.8594 6.95892 13.9499 7.13489 13.9844 7.32548C14.0189 7.51606 13.9958 7.71261 13.9181 7.89002C13.8395 8.07195 13.7091 8.22677 13.5432 8.33522C13.3773 8.44367 13.1832 8.50098 12.985 8.50002H3.015C2.8168 8.50098 2.62269 8.44367 2.45679 8.33522C2.29089 8.22677 2.16052 8.07195 2.08188 7.89002ZM13 9.50002H3C2.73478 9.50002 2.48043 9.60538 2.29289 9.79291C2.10536 9.98045 2 10.2348 2 10.5V11.5C2 11.7652 2.10536 12.0196 2.29289 12.2071C2.48043 12.3947 2.73478 12.5 3 12.5H13C13.2652 12.5 13.5196 12.3947 13.7071 12.2071C13.8946 12.0196 14 11.7652 14 11.5V10.5C14 10.2348 13.8946 9.98045 13.7071 9.79291C13.5196 9.60538 13.2652 9.50002 13 9.50002Z" fill="black"/>
</g>
<defs>
<clipPath id="clip0_5_869">
<rect width="16" height="16" fill="white"/>
</clipPath>
</defs>
</svg>
