<svg width="16" height="16" viewBox="0 0 16 16" fill="none" xmlns="http://www.w3.org/2000/svg">
<g clip-path="url(#clip0_5_1335)">
<path d="M10.6556 5.72437C11.2009 6.36349 11.4981 7.17741 11.4929 8.0175C11.4877 8.85758 11.1806 9.66779 10.6275 10.3002C10.0744 10.9325 9.31238 11.3449 8.48046 11.4619C7.64855 11.5789 6.8023 11.3928 6.09625 10.9375L10.6556 5.72437ZM8 4.5C7.33118 4.50069 6.67657 4.693 6.11364 5.05415C5.55071 5.41531 5.10305 5.93019 4.82365 6.53786C4.54425 7.14552 4.4448 7.82051 4.53709 8.48294C4.62937 9.14536 4.90953 9.76747 5.34438 10.2756L9.90688 5.065C9.33976 4.69515 8.67706 4.49879 8 4.5ZM14.5 8C14.5 9.28558 14.1188 10.5423 13.4046 11.6112C12.6903 12.6801 11.6752 13.5132 10.4874 14.0052C9.29973 14.4972 7.99279 14.6259 6.73192 14.3751C5.47104 14.1243 4.31285 13.5052 3.40381 12.5962C2.49477 11.6872 1.8757 10.529 1.6249 9.26809C1.37409 8.00721 1.50282 6.70028 1.99479 5.51256C2.48676 4.32484 3.31988 3.30968 4.3888 2.59545C5.45772 1.88122 6.71442 1.5 8 1.5C9.72325 1.50215 11.3753 2.18766 12.5938 3.40618C13.8123 4.6247 14.4979 6.27675 14.5 8ZM12.5 8C12.5009 6.87627 12.0796 5.79322 11.3194 4.96562L11.625 4.57937C11.673 4.53093 11.7105 4.47319 11.7353 4.4097C11.7602 4.34621 11.7717 4.27831 11.7694 4.21019C11.767 4.14206 11.7507 4.07513 11.7215 4.01353C11.6923 3.95193 11.6508 3.89694 11.5996 3.85195C11.5484 3.80697 11.4885 3.77293 11.4237 3.75193C11.3588 3.73093 11.2904 3.72342 11.2225 3.72985C11.1546 3.73628 11.0888 3.75652 11.029 3.78933C10.9693 3.82214 10.9169 3.86682 10.875 3.92062L10.5681 4.30688C9.65936 3.68076 8.5522 3.41042 7.45714 3.54724C6.36207 3.68407 5.35547 4.21852 4.62869 5.04898C3.90192 5.87945 3.50565 6.94803 3.51522 8.05157C3.5248 9.1551 3.93955 10.2166 4.68063 11.0344L4.375 11.4206C4.29675 11.5212 4.25986 11.6479 4.27189 11.7748C4.28391 11.9017 4.34394 12.0192 4.4397 12.1033C4.53546 12.1874 4.65972 12.2318 4.7871 12.2273C4.91447 12.2229 5.03534 12.17 5.125 12.0794L5.43188 11.6931C6.10638 12.1632 6.89684 12.4394 7.71734 12.4917C8.53783 12.5439 9.35695 12.3702 10.0856 11.9895C10.8143 11.6087 11.4247 11.0355 11.8503 10.3321C12.276 9.62877 12.5007 8.82215 12.5 8Z" fill="black"/>
</g>
<defs>
<clipPath id="clip0_5_1335">
<rect width="16" height="16" fill="white"/>
</clipPath>
</defs>
</svg>
