<svg width="16" height="16" viewBox="0 0 16 16" fill="none" xmlns="http://www.w3.org/2000/svg">
<g clip-path="url(#clip0_5_1330)">
<path d="M16 7.5V10.5C16 10.7652 15.8946 11.0196 15.7071 11.2071C15.5196 11.3946 15.2652 11.5 15 11.5H14.2069L12 13.7069C11.9075 13.8001 11.7973 13.8741 11.676 13.9244C11.5546 13.9747 11.4245 14.0004 11.2931 14H6.45687C6.3255 14.0004 6.19536 13.9747 6.07401 13.9244C5.95266 13.8741 5.84252 13.8001 5.75 13.7069L3.29312 11.25C3.19986 11.1575 3.12592 11.0473 3.0756 10.926C3.02528 10.8046 2.99958 10.6745 3 10.5431V9.25H1.5V10.75C1.5 10.8826 1.44732 11.0098 1.35355 11.1036C1.25979 11.1973 1.13261 11.25 1 11.25C0.867392 11.25 0.740215 11.1973 0.646447 11.1036C0.552678 11.0098 0.5 10.8826 0.5 10.75V6.75C0.5 6.61739 0.552678 6.49021 0.646447 6.39645C0.740215 6.30268 0.867392 6.25 1 6.25C1.13261 6.25 1.25979 6.30268 1.35355 6.39645C1.44732 6.49021 1.5 6.61739 1.5 6.75V8.25H3V5C3 4.73478 3.10536 4.48043 3.29289 4.29289C3.48043 4.10536 3.73478 4 4 4H7.75V2.5H6.25C6.11739 2.5 5.99021 2.44732 5.89645 2.35355C5.80268 2.25979 5.75 2.13261 5.75 2C5.75 1.86739 5.80268 1.74021 5.89645 1.64645C5.99021 1.55268 6.11739 1.5 6.25 1.5H10.25C10.3826 1.5 10.5098 1.55268 10.6036 1.64645C10.6973 1.74021 10.75 1.86739 10.75 2C10.75 2.13261 10.6973 2.25979 10.6036 2.35355C10.5098 2.44732 10.3826 2.5 10.25 2.5H8.75V4H11.2931C11.4245 3.99958 11.5546 4.02528 11.676 4.0756C11.7973 4.12592 11.9075 4.19986 12 4.29313L14.2069 6.5H15C15.2652 6.5 15.5196 6.60536 15.7071 6.79289C15.8946 6.98043 16 7.23478 16 7.5Z" fill="black"/>
</g>
<defs>
<clipPath id="clip0_5_1330">
<rect width="16" height="16" fill="white"/>
</clipPath>
</defs>
</svg>
