<svg width="16" height="16" viewBox="0 0 16 16" fill="none" xmlns="http://www.w3.org/2000/svg">
<g clip-path="url(#clip0_5_858)">
<path d="M14.2775 5.58377L8.2775 1.58377C8.19533 1.52895 8.09877 1.49969 8 1.49969C7.90123 1.49969 7.80467 1.52895 7.7225 1.58377L1.7225 5.58377C1.65401 5.62947 1.59786 5.69137 1.55904 5.76399C1.52023 5.8366 1.49995 5.91768 1.5 6.00002V12.5C1.5 12.7652 1.60536 13.0196 1.79289 13.2071C1.98043 13.3947 2.23478 13.5 2.5 13.5H13.5C13.7652 13.5 14.0196 13.3947 14.2071 13.2071C14.3946 13.0196 14.5 12.7652 14.5 12.5V6.00002C14.5001 5.91768 14.4798 5.8366 14.441 5.76399C14.4021 5.69137 14.346 5.62947 14.2775 5.58377ZM2.5 12.5V6.97064L6.61875 9.90814C6.70355 9.96871 6.80516 10.0013 6.90938 10.0013H9.09062C9.19484 10.0013 9.29645 9.96871 9.38125 9.90814L13.5 6.97064V12.5H2.5Z" fill="black"/>
</g>
<defs>
<clipPath id="clip0_5_858">
<rect width="16" height="16" fill="white"/>
</clipPath>
</defs>
</svg>
