<svg width="16" height="16" viewBox="0 0 16 16" fill="none" xmlns="http://www.w3.org/2000/svg">
<g clip-path="url(#clip0_5_853)">
<path d="M14.0625 5.02497L11.475 2.43747C11.1937 2.15619 10.8122 1.99817 10.4143 1.99817C10.0165 1.99817 9.63503 2.15619 9.35372 2.43747L1.93747 9.85372C1.65619 10.135 1.49817 10.5165 1.49817 10.9143C1.49817 11.3122 1.65619 11.6937 1.93747 11.975L3.81622 13.8537C3.86284 13.9003 3.9182 13.9372 3.97913 13.9623C4.04005 13.9874 4.10533 14.0002 4.17122 14H13.5C13.6326 14 13.7598 13.9473 13.8535 13.8535C13.9473 13.7598 14 13.6326 14 13.5C14 13.3674 13.9473 13.2402 13.8535 13.1464C13.7598 13.0527 13.6326 13 13.5 13H8.20622L14.0625 7.14622C14.3438 6.86492 14.5018 6.48341 14.5018 6.0856C14.5018 5.68779 14.3438 5.30628 14.0625 5.02497ZM13.3543 6.43747L9.99997 9.7931L6.70685 6.49997L10.0625 3.14622C10.1089 3.09974 10.1641 3.06286 10.2248 3.03769C10.2855 3.01253 10.3505 2.99958 10.4162 2.99958C10.4819 2.99958 10.547 3.01253 10.6077 3.03769C10.6684 3.06286 10.7235 3.09974 10.77 3.14622L13.3562 5.73247C13.4499 5.82623 13.5026 5.95336 13.5026 6.08591C13.5026 6.21846 13.4499 6.34559 13.3562 6.43935L13.3543 6.43747Z" fill="black"/>
</g>
<defs>
<clipPath id="clip0_5_853">
<rect width="16" height="16" fill="white"/>
</clipPath>
</defs>
</svg>
