<svg width="16" height="16" viewBox="0 0 16 16" fill="none" xmlns="http://www.w3.org/2000/svg">
<g clip-path="url(#clip0_5_851)">
<path d="M15 3.5V6C15 6.26522 14.8946 6.51957 14.7071 6.70711C14.5196 6.89464 14.2652 7 14 7H11.7188L5.8675 13.3394C5.82065 13.3901 5.76381 13.4305 5.70056 13.4581C5.63731 13.4858 5.56903 13.5 5.5 13.5H2C1.73478 13.5 1.48043 13.3946 1.29289 13.2071C1.10536 13.0196 1 12.7652 1 12.5V10C1 9.73478 1.10536 9.48043 1.29289 9.29289C1.48043 9.10536 1.73478 9 2 9H4.28125L10.1325 2.66063C10.1794 2.60993 10.2362 2.56949 10.2994 2.54185C10.3627 2.51421 10.431 2.49996 10.5 2.5H14C14.2652 2.5 14.5196 2.60536 14.7071 2.79289C14.8946 2.98043 15 3.23478 15 3.5ZM12.8538 9.14625C12.8073 9.09976 12.7522 9.06288 12.6915 9.03772C12.6308 9.01256 12.5657 8.99961 12.5 8.99961C12.4343 8.99961 12.3692 9.01256 12.3085 9.03772C12.2478 9.06288 12.1927 9.09976 12.1462 9.14625L10.6462 10.6462C10.5524 10.7401 10.4997 10.8673 10.4997 11C10.4997 11.1327 10.5524 11.2599 10.6462 11.3538C10.7401 11.4476 10.8673 11.5003 11 11.5003C11.1327 11.5003 11.2599 11.4476 11.3538 11.3538L12 10.7069V13C12 13.1326 12.0527 13.2598 12.1464 13.3536C12.2402 13.4473 12.3674 13.5 12.5 13.5C12.6326 13.5 12.7598 13.4473 12.8536 13.3536C12.9473 13.2598 13 13.1326 13 13V10.7069L13.6462 11.3538C13.6927 11.4002 13.7479 11.4371 13.8086 11.4622C13.8692 11.4873 13.9343 11.5003 14 11.5003C14.0657 11.5003 14.1308 11.4873 14.1914 11.4622C14.2521 11.4371 14.3073 11.4002 14.3538 11.3538C14.4002 11.3073 14.4371 11.2521 14.4622 11.1914C14.4873 11.1308 14.5003 11.0657 14.5003 11C14.5003 10.9343 14.4873 10.8692 14.4622 10.8086C14.4371 10.7479 14.4002 10.6927 14.3538 10.6462L12.8538 9.14625Z" fill="black"/>
</g>
<defs>
<clipPath id="clip0_5_851">
<rect width="16" height="16" fill="white"/>
</clipPath>
</defs>
</svg>
