<svg width="16" height="16" viewBox="0 0 16 16" fill="none" xmlns="http://www.w3.org/2000/svg">
<g clip-path="url(#clip0_5_852)">
<path d="M10.6462 5.35375C10.5524 5.25993 10.4997 5.13268 10.4997 5C10.4997 4.86732 10.5524 4.74007 10.6462 4.64625C10.7401 4.55243 10.8673 4.49972 11 4.49972C11.1327 4.49972 11.2599 4.55243 11.3538 4.64625L12 5.29313V3C12 2.86739 12.0527 2.74022 12.1464 2.64645C12.2402 2.55268 12.3674 2.5 12.5 2.5C12.6326 2.5 12.7598 2.55268 12.8536 2.64645C12.9473 2.74022 13 2.86739 13 3V5.29313L13.6462 4.64625C13.7401 4.55243 13.8673 4.49972 14 4.49972C14.1327 4.49972 14.2599 4.55243 14.3538 4.64625C14.4476 4.74007 14.5003 4.86732 14.5003 5C14.5003 5.13268 14.4476 5.25993 14.3538 5.35375L12.8538 6.85375C12.8073 6.90024 12.7522 6.93712 12.6915 6.96228C12.6308 6.98744 12.5657 7.00039 12.5 7.00039C12.4343 7.00039 12.3692 6.98744 12.3085 6.96228C12.2478 6.93712 12.1927 6.90024 12.1462 6.85375L10.6462 5.35375ZM14 9H11.7188L5.8675 2.66063C5.82065 2.60993 5.76381 2.56949 5.70056 2.54185C5.63731 2.51421 5.56903 2.49996 5.5 2.5H2C1.73478 2.5 1.48043 2.60536 1.29289 2.79289C1.10536 2.98043 1 3.23478 1 3.5V6C1 6.26522 1.10536 6.51957 1.29289 6.70711C1.48043 6.89464 1.73478 7 2 7H4.28125L10.1325 13.3394C10.1794 13.3901 10.2362 13.4305 10.2994 13.4581C10.3627 13.4858 10.431 13.5 10.5 13.5H14C14.2652 13.5 14.5196 13.3946 14.7071 13.2071C14.8946 13.0196 15 12.7652 15 12.5V10C15 9.73478 14.8946 9.48043 14.7071 9.29289C14.5196 9.10536 14.2652 9 14 9Z" fill="black"/>
</g>
<defs>
<clipPath id="clip0_5_852">
<rect width="16" height="16" fill="white"/>
</clipPath>
</defs>
</svg>
