<svg width="16" height="16" viewBox="0 0 16 16" fill="none" xmlns="http://www.w3.org/2000/svg">
<g clip-path="url(#clip0_5_843)">
<path d="M5.5 5.5V10.5H2.5C2.36739 10.5 2.24021 10.4473 2.14645 10.3536C2.05268 10.2598 2 10.1326 2 10V2.5C2 2.36739 2.05268 2.24021 2.14645 2.14645C2.24021 2.05268 2.36739 2 2.5 2H10C10.1326 2 10.2598 2.05268 10.3536 2.14645C10.4473 2.24021 10.5 2.36739 10.5 2.5V5.5H5.5ZM13.5 5.5H10.5V10.5H5.5V13.5C5.5 13.6326 5.55268 13.7598 5.64645 13.8536C5.74021 13.9473 5.86739 14 6 14H13.5C13.6326 14 13.7598 13.9473 13.8536 13.8536C13.9473 13.7598 14 13.6326 14 13.5V6C14 5.86739 13.9473 5.74021 13.8536 5.64645C13.7598 5.55268 13.6326 5.5 13.5 5.5Z" fill="black"/>
</g>
<defs>
<clipPath id="clip0_5_843">
<rect width="16" height="16" fill="white"/>
</clipPath>
</defs>
</svg>
