<svg width="16" height="16" viewBox="0 0 16 16" fill="none" xmlns="http://www.w3.org/2000/svg">
<g clip-path="url(#clip0_5_847)">
<path d="M12.5 1.5H3.5C3.23478 1.5 2.98043 1.60536 2.79289 1.79289C2.60536 1.98043 2.5 2.23478 2.5 2.5V13.5C2.5 13.7652 2.60536 14.0196 2.79289 14.2071C2.98043 14.3946 3.23478 14.5 3.5 14.5H12.5C12.7652 14.5 13.0196 14.3946 13.2071 14.2071C13.3946 14.0196 13.5 13.7652 13.5 13.5V2.5C13.5 2.23478 13.3946 1.98043 13.2071 1.79289C13.0196 1.60536 12.7652 1.5 12.5 1.5ZM8 10C8.14834 10 8.29334 10.044 8.41668 10.1264C8.54001 10.2088 8.63614 10.3259 8.69291 10.463C8.74967 10.6 8.76453 10.7508 8.73559 10.8963C8.70665 11.0418 8.63522 11.1754 8.53033 11.2803C8.42544 11.3852 8.2918 11.4566 8.14632 11.4856C8.00083 11.5145 7.85003 11.4997 7.71299 11.4429C7.57594 11.3861 7.45881 11.29 7.3764 11.1667C7.29399 11.0433 7.25 10.8983 7.25 10.75C7.25 10.5511 7.32902 10.3603 7.46967 10.2197C7.61032 10.079 7.80109 10 8 10ZM7.5 8.5V5C7.5 4.86739 7.55268 4.74021 7.64645 4.64645C7.74021 4.55268 7.86739 4.5 8 4.5C8.13261 4.5 8.25979 4.55268 8.35355 4.64645C8.44732 4.74021 8.5 4.86739 8.5 5V8.5C8.5 8.63261 8.44732 8.75979 8.35355 8.85355C8.25979 8.94732 8.13261 9 8 9C7.86739 9 7.74021 8.94732 7.64645 8.85355C7.55268 8.75979 7.5 8.63261 7.5 8.5Z" fill="black"/>
</g>
<defs>
<clipPath id="clip0_5_847">
<rect width="16" height="16" fill="white"/>
</clipPath>
</defs>
</svg>
