<svg width="16" height="16" viewBox="0 0 16 16" fill="none" xmlns="http://www.w3.org/2000/svg">
<g clip-path="url(#clip0_5_845)">
<path d="M15 10C14.9992 11.246 14.5332 12.4469 13.6934 13.3673C12.8535 14.2877 11.7002 14.8613 10.4594 14.9758C9.21869 15.0903 7.97989 14.7375 6.98574 13.9863C5.9916 13.2351 5.31374 12.1399 5.08496 10.915C5.883 11.0635 6.70517 11.0154 7.48046 10.7749C8.25574 10.5344 8.96083 10.1088 9.5348 9.53486C10.1088 8.96089 10.5344 8.2558 10.7748 7.48052C11.0153 6.70523 11.0634 5.88306 10.915 5.08502C12.0625 5.29863 13.0991 5.90699 13.8452 6.80467C14.5913 7.70235 14.9998 8.83277 15 10ZM9.99996 5.00002C10.3069 5.00031 10.6132 5.02876 10.915 5.08502C10.7484 4.18965 10.3405 3.35677 9.73522 2.67628C9.12994 1.9958 8.3503 1.49355 7.48046 1.22376C6.61061 0.953966 5.68359 0.926877 4.79947 1.14541C3.91535 1.36395 3.10772 1.81981 2.46373 2.46379C1.81975 3.10778 1.36389 3.91542 1.14535 4.79953C0.926815 5.68365 0.953905 6.61067 1.2237 7.48052C1.49349 8.35037 1.99573 9.13001 2.67622 9.73528C3.35671 10.3406 4.18959 10.7485 5.08496 10.915C4.95062 10.1933 4.97685 9.45093 5.16176 8.74052C5.34667 8.03012 5.68575 7.36914 6.15489 6.80454C6.62404 6.23994 7.21175 5.78557 7.87629 5.4737C8.54083 5.16183 9.26588 5.00011 9.99996 5.00002Z" fill="black"/>
</g>
<defs>
<clipPath id="clip0_5_845">
<rect width="16" height="16" fill="white"/>
</clipPath>
</defs>
</svg>
