<svg width="16" height="16" viewBox="0 0 16 16" fill="none" xmlns="http://www.w3.org/2000/svg">
<g clip-path="url(#clip0_5_1621)">
<path d="M14.4337 10.25C14.5 10.3651 14.5179 10.5019 14.4834 10.6302C14.4488 10.7584 14.3648 10.8678 14.2497 10.9341C14.1927 10.9669 14.1298 10.9882 14.0645 10.9967C13.9993 11.0052 13.933 11.0008 13.8695 10.9837C13.7412 10.9492 13.6319 10.8651 13.5656 10.75L12.3781 8.675C11.6883 9.14162 10.9274 9.49327 10.125 9.71625L10.4918 11.9175C10.5027 11.9823 10.5006 12.0486 10.4858 12.1126C10.471 12.1766 10.4437 12.2371 10.4055 12.2905C10.3673 12.344 10.319 12.3894 10.2632 12.4242C10.2075 12.4589 10.1454 12.4824 10.0806 12.4931C10.0539 12.4975 10.027 12.4998 9.99998 12.5C9.88169 12.4998 9.7673 12.4577 9.67713 12.3812C9.58696 12.3046 9.52684 12.1986 9.50747 12.0819L9.14685 9.92062C8.38635 10.0265 7.61485 10.0265 6.85435 9.92062L6.49373 12.0819C6.47432 12.1988 6.41403 12.305 6.3236 12.3816C6.23317 12.4581 6.11848 12.5001 5.99998 12.5C5.97234 12.4999 5.94475 12.4976 5.91748 12.4931C5.85266 12.4824 5.79061 12.4589 5.73486 12.4242C5.6791 12.3894 5.63075 12.344 5.59256 12.2905C5.55436 12.2371 5.52708 12.1766 5.51227 12.1126C5.49745 12.0486 5.4954 11.9823 5.50623 11.9175L5.87498 9.71625C5.07224 9.49275 4.3111 9.14046 3.62123 8.67313L2.43748 10.75C2.37117 10.8655 2.26169 10.95 2.13311 10.9848C2.00453 11.0196 1.86739 11.0019 1.75185 10.9356C1.63632 10.8693 1.55185 10.7598 1.51704 10.6313C1.48223 10.5027 1.49992 10.3655 1.56623 10.25L2.81623 8.0625C2.377 7.68334 1.97325 7.26495 1.60998 6.8125C1.53803 6.72352 1.49878 6.61255 1.49878 6.49813C1.49878 6.3837 1.53803 6.27273 1.60998 6.18375C2.78498 4.7325 4.84685 3 7.99998 3C11.1531 3 13.215 4.7325 14.3887 6.1875C14.4607 6.27648 14.4999 6.38745 14.4999 6.50187C14.4999 6.6163 14.4607 6.72727 14.3887 6.81625C14.0255 7.2687 13.6217 7.68709 13.1825 8.06625L14.4337 10.25Z" fill="black"/>
</g>
<defs>
<clipPath id="clip0_5_1621">
<rect width="16" height="16" fill="white"/>
</clipPath>
</defs>
</svg>
