<svg width="16" height="16" viewBox="0 0 16 16" fill="none" xmlns="http://www.w3.org/2000/svg">
<g clip-path="url(#clip0_5_1503)">
<path d="M14 4.20628C13.9966 3.90536 13.9325 3.60823 13.8116 3.33266C13.6907 3.0571 13.5154 2.80876 13.2963 2.60253C12.4213 1.77253 11.0013 1.80378 10.1325 2.67315L8.67501 4.13753C8.38984 3.87761 8.01548 3.73759 7.62974 3.74655C7.244 3.75551 6.87655 3.91278 6.60376 4.18565L6.29126 4.49815C6.19828 4.59102 6.12452 4.70131 6.0742 4.82271C6.02387 4.94411 5.99797 5.07423 5.99797 5.20565C5.99797 5.33707 6.02387 5.46719 6.0742 5.58859C6.12452 5.70999 6.19828 5.82028 6.29126 5.91315L6.41626 6.0419L3.22876 9.2294C2.92194 9.53382 2.69986 9.91302 2.58444 10.3295C2.46902 10.7461 2.46426 11.1855 2.57063 11.6044L2.07063 12.755C2.0009 12.9131 1.98071 13.0887 2.01273 13.2585C2.04475 13.4283 2.12748 13.5844 2.25001 13.7063C2.39173 13.8489 2.57336 13.9453 2.77096 13.9827C2.96855 14.0201 3.17284 13.9967 3.35688 13.9157L4.45188 13.4375C4.86327 13.5306 5.29156 13.5178 5.69665 13.4003C6.10175 13.2828 6.47041 13.0644 6.76813 12.7657L9.95563 9.57815L10.0844 9.7069C10.2719 9.8943 10.5262 9.99956 10.7913 9.99956C11.0564 9.99956 11.3106 9.8943 11.4981 9.7069L11.8106 9.3944C12.084 9.12125 12.2414 8.75314 12.25 8.36681C12.2586 7.98047 12.1178 7.60572 11.8569 7.32065L13.3413 5.82878C13.5547 5.61662 13.723 5.36356 13.8362 5.08475C13.9494 4.80594 14.0051 4.50714 14 4.20628ZM6.06251 12.0625C5.87009 12.2553 5.62881 12.3921 5.36455 12.4582C5.10028 12.5243 4.82302 12.5171 4.56251 12.4375C4.44828 12.4023 4.32522 12.4092 4.21563 12.4569L3.08438 12.9513L3.56251 11.8382C3.61212 11.7244 3.61769 11.5964 3.57813 11.4788C3.48752 11.214 3.47317 10.9291 3.53672 10.6566C3.60026 10.3841 3.73914 10.1349 3.93751 9.93753L7.12501 6.75003L9.24626 8.87503L6.06251 12.0625Z" fill="black"/>
</g>
<defs>
<clipPath id="clip0_5_1503">
<rect width="16" height="16" fill="white"/>
</clipPath>
</defs>
</svg>
