<svg width="16" height="16" viewBox="0 0 16 16" fill="none" xmlns="http://www.w3.org/2000/svg">
<g clip-path="url(#clip0_5_1593)">
<path d="M14.0001 4.20628C13.9967 3.90536 13.9326 3.60823 13.8117 3.33266C13.6907 3.0571 13.5155 2.80876 13.2963 2.60253C12.4213 1.77253 11.0013 1.80378 10.1326 2.67315L8.67505 4.13753C8.38988 3.87761 8.01552 3.73759 7.62978 3.74655C7.24404 3.75551 6.87659 3.91278 6.6038 4.18565L6.2913 4.49815C6.19833 4.59102 6.12457 4.70131 6.07424 4.82271C6.02392 4.94411 5.99802 5.07423 5.99802 5.20565C5.99802 5.33707 6.02392 5.46719 6.07424 5.58859C6.12457 5.70999 6.19833 5.82028 6.2913 5.91315L6.4163 6.0419L3.2288 9.2294C2.92199 9.53382 2.6999 9.91302 2.58448 10.3295C2.46907 10.7461 2.46431 11.1855 2.57068 11.6044L2.07068 12.755C2.00082 12.913 1.98057 13.0885 2.0126 13.2582C2.04463 13.428 2.12743 13.584 2.25005 13.7057C2.39161 13.8486 2.57322 13.9452 2.77086 13.9827C2.96849 14.0202 3.17286 13.9968 3.35693 13.9157L4.45255 13.4375C4.86385 13.5304 5.292 13.5175 5.69696 13.4C6.10193 13.2825 6.47048 13.0643 6.76818 12.7657L9.95568 9.57815L10.0844 9.7069C10.2719 9.8943 10.5262 9.99956 10.7913 9.99956C11.0564 9.99956 11.3107 9.8943 11.4982 9.7069L11.8107 9.3944C12.084 9.12125 12.2414 8.75314 12.25 8.36681C12.2586 7.98047 12.1178 7.60572 11.8569 7.32065L13.3413 5.82878C13.5547 5.61662 13.723 5.36356 13.8362 5.08475C13.9494 4.80594 14.0052 4.50714 14.0001 4.20628ZM8.62505 9.50003H4.37943L7.12943 6.75003L9.25068 8.87503L8.62505 9.50003Z" fill="black"/>
</g>
<defs>
<clipPath id="clip0_5_1593">
<rect width="16" height="16" fill="white"/>
</clipPath>
</defs>
</svg>
