<svg width="16" height="16" viewBox="0 0 16 16" fill="none" xmlns="http://www.w3.org/2000/svg">
<g clip-path="url(#clip0_5_1650)">
<path d="M14.5 4.5V10.25C14.4987 10.9568 14.2252 11.6359 13.7365 12.1464C13.2477 12.657 12.5812 12.9598 11.8751 12.9919C11.1691 13.0241 10.4778 12.7832 9.94464 12.3192C9.4115 11.8552 9.07747 11.2037 9.01188 10.5H6.98812C6.92253 11.2037 6.5885 11.8552 6.05536 12.3192C5.52222 12.7832 4.8309 13.0241 4.12485 12.9919C3.41881 12.9598 2.75226 12.657 2.26351 12.1464C1.77476 11.6359 1.50135 10.9568 1.5 10.25V4.5C1.5 3.96957 1.71071 3.46086 2.08579 3.08579C2.46086 2.71071 2.96957 2.5 3.5 2.5C3.63261 2.5 3.75979 2.55268 3.85355 2.64645C3.94732 2.74021 4 2.86739 4 3C4 3.13261 3.94732 3.25979 3.85355 3.35355C3.75979 3.44732 3.63261 3.5 3.5 3.5C3.23478 3.5 2.98043 3.60536 2.79289 3.79289C2.60536 3.98043 2.5 4.23478 2.5 4.5V8.13C2.8525 7.83928 3.27189 7.64098 3.72026 7.55302C4.16864 7.46505 4.63186 7.49019 5.06808 7.62617C5.5043 7.76215 5.89976 8.00467 6.21873 8.33183C6.5377 8.65899 6.77012 9.06048 6.895 9.5H9.105C9.22988 9.06048 9.4623 8.65899 9.78127 8.33183C10.1002 8.00467 10.4957 7.76215 10.9319 7.62617C11.3681 7.49019 11.8314 7.46505 12.2797 7.55302C12.7281 7.64098 13.1475 7.83928 13.5 8.13V4.5C13.5 4.23478 13.3946 3.98043 13.2071 3.79289C13.0196 3.60536 12.7652 3.5 12.5 3.5C12.3674 3.5 12.2402 3.44732 12.1464 3.35355C12.0527 3.25979 12 3.13261 12 3C12 2.86739 12.0527 2.74021 12.1464 2.64645C12.2402 2.55268 12.3674 2.5 12.5 2.5C13.0304 2.5 13.5391 2.71071 13.9142 3.08579C14.2893 3.46086 14.5 3.96957 14.5 4.5Z" fill="black"/>
</g>
<defs>
<clipPath id="clip0_5_1650">
<rect width="16" height="16" fill="white"/>
</clipPath>
</defs>
</svg>
