<svg width="16" height="16" viewBox="0 0 16 16" fill="none" xmlns="http://www.w3.org/2000/svg">
<g clip-path="url(#clip0_5_835)">
<path d="M11 2C9.71187 2 8.6075 3.135 8 4.86562C7.3925 3.135 6.28813 2 5 2C3.0375 2 1.5 4.63562 1.5 8C1.5 11.3644 3.0375 14 5 14C6.28813 14 7.3925 12.865 8 11.1344C8.6075 12.865 9.71187 14 11 14C12.9625 14 14.5 11.3644 14.5 8C14.5 4.63562 12.9625 2 11 2ZM6.6825 11.6494C6.21438 12.5075 5.60125 13 5 13C4.39875 13 3.78562 12.5075 3.3175 11.6494C3.01487 11.0755 2.79918 10.4598 2.6775 9.8225C2.98211 9.96018 3.31638 10.0193 3.64974 9.99448C3.9831 9.96965 4.30492 9.86167 4.58578 9.68039C4.86664 9.49911 5.09758 9.25033 5.2575 8.95678C5.41742 8.66323 5.50121 8.33428 5.50121 8C5.50121 7.66572 5.41742 7.33677 5.2575 7.04322C5.09758 6.74967 4.86664 6.50089 4.58578 6.31961C4.30492 6.13833 3.9831 6.03035 3.64974 6.00552C3.31638 5.9807 2.98211 6.03982 2.6775 6.1775C2.79918 5.54021 3.01487 4.92453 3.3175 4.35063C3.78562 3.4925 4.39875 3 5 3C5.60125 3 6.21438 3.4925 6.6825 4.35063C7.20937 5.31687 7.5 6.61312 7.5 8C7.5 9.38688 7.20937 10.6831 6.6825 11.6494ZM12.6825 11.6494C12.2144 12.5075 11.6012 13 11 13C10.3988 13 9.78563 12.5075 9.3175 11.6494C9.01487 11.0755 8.79918 10.4598 8.6775 9.8225C8.98211 9.96018 9.31638 10.0193 9.64974 9.99448C9.9831 9.96965 10.3049 9.86167 10.5858 9.68039C10.8666 9.49911 11.0976 9.25033 11.2575 8.95678C11.4174 8.66323 11.5012 8.33428 11.5012 8C11.5012 7.66572 11.4174 7.33677 11.2575 7.04322C11.0976 6.74967 10.8666 6.50089 10.5858 6.31961C10.3049 6.13833 9.9831 6.03035 9.64974 6.00552C9.31638 5.9807 8.98211 6.03982 8.6775 6.1775C8.79918 5.54021 9.01487 4.92453 9.3175 4.35063C9.78563 3.4925 10.3988 3 11 3C11.6012 3 12.2144 3.4925 12.6825 4.35063C13.2094 5.31687 13.5 6.61312 13.5 8C13.5 9.38688 13.2094 10.6831 12.6825 11.6494Z" fill="black"/>
</g>
<defs>
<clipPath id="clip0_5_835">
<rect width="16" height="16" fill="white"/>
</clipPath>
</defs>
</svg>
