<svg width="16" height="16" viewBox="0 0 16 16" fill="none" xmlns="http://www.w3.org/2000/svg">
<g clip-path="url(#clip0_5_831)">
<path d="M14.5 7.99998C14.4979 9.58862 13.9151 11.1217 12.8612 12.3104C11.8072 13.4991 10.355 14.2614 8.7781 14.4537C8.74298 14.4577 8.70743 14.4542 8.67377 14.4434C8.64011 14.4327 8.60912 14.4149 8.58284 14.3912C8.55656 14.3676 8.53559 14.3387 8.5213 14.3064C8.50702 14.2741 8.49975 14.2391 8.49997 14.2037V9.49998H9.99997C10.0685 9.50013 10.1364 9.48619 10.1993 9.45902C10.2622 9.43184 10.3189 9.39202 10.3658 9.34203C10.4127 9.29203 10.4488 9.23293 10.4719 9.16839C10.4949 9.10385 10.5045 9.03525 10.5 8.96686C10.4889 8.83829 10.4296 8.71866 10.3339 8.63205C10.2383 8.54543 10.1134 8.49825 9.98435 8.49998H8.49997V6.99998C8.49997 6.73477 8.60533 6.48041 8.79286 6.29288C8.9804 6.10534 9.23476 5.99998 9.49997 5.99998H10.5C10.5685 6.00013 10.6364 5.98619 10.6993 5.95902C10.7622 5.93184 10.8189 5.89202 10.8658 5.84203C10.9127 5.79203 10.9488 5.73293 10.9719 5.66839C10.9949 5.60385 11.0045 5.53525 11 5.46686C10.9889 5.33807 10.9294 5.21826 10.8335 5.13162C10.7376 5.04497 10.6123 4.99793 10.4831 4.99998H9.49997C8.96954 4.99998 8.46083 5.2107 8.08576 5.58577C7.71069 5.96084 7.49997 6.46955 7.49997 6.99998V8.49998H5.99997C5.93143 8.49983 5.86358 8.51378 5.80066 8.54095C5.73773 8.56812 5.68106 8.60794 5.63417 8.65794C5.58728 8.70794 5.55117 8.76704 5.52809 8.83158C5.505 8.89612 5.49543 8.96472 5.49997 9.03311C5.51103 9.1619 5.57052 9.28171 5.66645 9.36835C5.76238 9.455 5.8876 9.50204 6.01685 9.49998H7.49997V14.205C7.50019 14.2403 7.49293 14.2752 7.47868 14.3075C7.46444 14.3397 7.44352 14.3686 7.41731 14.3922C7.3911 14.4159 7.36019 14.4337 7.32661 14.4445C7.29303 14.4553 7.25754 14.4589 7.22247 14.455C5.60332 14.2578 4.1172 13.4599 3.05827 12.2193C1.99934 10.9786 1.44477 9.38564 1.50435 7.75561C1.62935 4.38061 4.3631 1.63686 7.7406 1.50561C8.61503 1.47174 9.48731 1.61458 10.3053 1.92559C11.1232 2.2366 11.87 2.70938 12.5011 3.31567C13.1321 3.92196 13.6344 4.64929 13.9778 5.45416C14.3213 6.25903 14.4989 7.1249 14.5 7.99998Z" fill="black"/>
</g>
<defs>
<clipPath id="clip0_5_831">
<rect width="16" height="16" fill="white"/>
</clipPath>
</defs>
</svg>
