<svg width="16" height="16" viewBox="0 0 16 16" fill="none" xmlns="http://www.w3.org/2000/svg">
<g clip-path="url(#clip0_5_1499)">
<path d="M14 4.50002H13.9469C13.8996 4.357 13.8207 4.22651 13.7159 4.11829C13.6111 4.01007 13.4833 3.92691 13.3419 3.87502L8.34188 2.06252C8.12098 1.9825 7.87902 1.9825 7.65812 2.06252L2.65812 3.88064C2.51672 3.93253 2.38887 4.01569 2.28411 4.12391C2.17935 4.23214 2.10039 4.36263 2.05312 4.50564H2C1.47054 4.50564 0.962683 4.71558 0.587771 5.08944C0.21286 5.4633 0.00148911 5.97056 0 6.50002L0 8.00002C0 8.53045 0.210714 9.03916 0.585786 9.41423C0.960859 9.7893 1.46957 10 2 10H2.32437C2.77375 10.9875 3.68625 11.8394 5.02625 12.51C5.94186 12.9591 6.9112 13.289 7.91062 13.4919C7.96972 13.5027 8.03028 13.5027 8.08937 13.4919C9.0888 13.289 10.0581 12.9591 10.9738 12.51C12.3138 11.8394 13.2238 10.9875 13.6756 10H14C14.5304 10 15.0391 9.7893 15.4142 9.41423C15.7893 9.03916 16 8.53045 16 8.00002V6.50002C16 5.96958 15.7893 5.46088 15.4142 5.0858C15.0391 4.71073 14.5304 4.50002 14 4.50002ZM2 9.00002C1.73478 9.00002 1.48043 8.89466 1.29289 8.70712C1.10536 8.51959 1 8.26523 1 8.00002V6.50002C1 6.2348 1.10536 5.98045 1.29289 5.79291C1.48043 5.60537 1.73478 5.50002 2 5.50002V8.50002C2.00006 8.66727 2.01154 8.83433 2.03437 9.00002H2ZM10.5 9.00002H5.5C5.36739 9.00002 5.24021 8.94734 5.14645 8.85357C5.05268 8.7598 5 8.63263 5 8.50002C5 8.36741 5.05268 8.24023 5.14645 8.14646C5.24021 8.0527 5.36739 8.00002 5.5 8.00002H10.5C10.6326 8.00002 10.7598 8.0527 10.8536 8.14646C10.9473 8.24023 11 8.36741 11 8.50002C11 8.63263 10.9473 8.7598 10.8536 8.85357C10.7598 8.94734 10.6326 9.00002 10.5 9.00002ZM10.5 7.00002H5.5C5.36739 7.00002 5.24021 6.94734 5.14645 6.85357C5.05268 6.7598 5 6.63263 5 6.50002C5 6.36741 5.05268 6.24023 5.14645 6.14646C5.24021 6.0527 5.36739 6.00002 5.5 6.00002H10.5C10.6326 6.00002 10.7598 6.0527 10.8536 6.14646C10.9473 6.24023 11 6.36741 11 6.50002C11 6.63263 10.9473 6.7598 10.8536 6.85357C10.7598 6.94734 10.6326 7.00002 10.5 7.00002ZM15 8.00002C15 8.26523 14.8946 8.51959 14.7071 8.70712C14.5196 8.89466 14.2652 9.00002 14 9.00002H13.9656C13.9885 8.83433 13.9999 8.66727 14 8.50002V5.50002C14.2652 5.50002 14.5196 5.60537 14.7071 5.79291C14.8946 5.98045 15 6.2348 15 6.50002V8.00002Z" fill="black"/>
</g>
<defs>
<clipPath id="clip0_5_1499">
<rect width="16" height="16" fill="white"/>
</clipPath>
</defs>
</svg>
