<svg width="16" height="16" viewBox="0 0 16 16" fill="none" xmlns="http://www.w3.org/2000/svg">
<g clip-path="url(#clip0_5_829)">
<path d="M14.5 13H14V8.5C14 8.49688 14 8.49438 14 8.49125C14 8.48813 14 8.47313 14 8.46438C14 8.45563 14 8.44688 14 8.43875C14.0003 8.43563 14.0003 8.43249 14 8.42938L13.0625 1.85875C13.0274 1.61979 12.9073 1.40147 12.7244 1.24377C12.5414 1.08607 12.3078 0.999534 12.0662 1H10.9338C10.6933 1.00103 10.4612 1.08824 10.2795 1.24581C10.0979 1.40338 9.97874 1.62085 9.94375 1.85875L9.22125 6.91563L6.8 5.1C6.72572 5.04429 6.63738 5.01036 6.5449 5.00202C6.45242 4.99368 6.35945 5.01126 6.27639 5.05279C6.19334 5.09431 6.12349 5.15815 6.07467 5.23714C6.02586 5.31612 6 5.40715 6 5.5V7.5L2.8 5.1C2.72572 5.04429 2.63738 5.01036 2.5449 5.00202C2.45242 4.99368 2.35945 5.01126 2.27639 5.05279C2.19334 5.09431 2.12349 5.15815 2.07467 5.23714C2.02586 5.31612 2 5.40715 2 5.5V13H1.5C1.36739 13 1.24021 13.0527 1.14645 13.1464C1.05268 13.2402 1 13.3674 1 13.5C1 13.6326 1.05268 13.7598 1.14645 13.8536C1.24021 13.9473 1.36739 14 1.5 14H14.5C14.6326 14 14.7598 13.9473 14.8536 13.8536C14.9473 13.7598 15 13.6326 15 13.5C15 13.3674 14.9473 13.2402 14.8536 13.1464C14.7598 13.0527 14.6326 13 14.5 13ZM6.75 11.5H5C4.86739 11.5 4.74021 11.4473 4.64645 11.3536C4.55268 11.2598 4.5 11.1326 4.5 11C4.5 10.8674 4.55268 10.7402 4.64645 10.6464C4.74021 10.5527 4.86739 10.5 5 10.5H6.75C6.88261 10.5 7.00979 10.5527 7.10355 10.6464C7.19732 10.7402 7.25 10.8674 7.25 11C7.25 11.1326 7.19732 11.2598 7.10355 11.3536C7.00979 11.4473 6.88261 11.5 6.75 11.5ZM11 11.5H9.25C9.11739 11.5 8.99021 11.4473 8.89645 11.3536C8.80268 11.2598 8.75 11.1326 8.75 11C8.75 10.8674 8.80268 10.7402 8.89645 10.6464C8.99021 10.5527 9.11739 10.5 9.25 10.5H11C11.1326 10.5 11.2598 10.5527 11.3536 10.6464C11.4473 10.7402 11.5 10.8674 11.5 11C11.5 11.1326 11.4473 11.2598 11.3536 11.3536C11.2598 11.4473 11.1326 11.5 11 11.5ZM10.6669 8L10.1337 7.6L10.9338 2H12.0662L12.9237 8H10.6669Z" fill="black"/>
</g>
<defs>
<clipPath id="clip0_5_829">
<rect width="16" height="16" fill="white"/>
</clipPath>
</defs>
</svg>
