<svg width="16" height="16" viewBox="0 0 16 16" fill="none" xmlns="http://www.w3.org/2000/svg">
<g clip-path="url(#clip0_5_1463)">
<path d="M11.5 5C11.5 4.86739 11.5527 4.74021 11.6464 4.64645C11.7402 4.55268 11.8674 4.5 12 4.5H13.5C13.6326 4.5 13.7598 4.55268 13.8536 4.64645C13.9473 4.74021 14 4.86739 14 5C14 5.13261 13.9473 5.25979 13.8536 5.35355C13.7598 5.44732 13.6326 5.5 13.5 5.5H12C11.8674 5.5 11.7402 5.44732 11.6464 5.35355C11.5527 5.25979 11.5 5.13261 11.5 5ZM2.5 5.5H8.5V6.5C8.5 6.63261 8.55268 6.75979 8.64645 6.85355C8.74021 6.94732 8.86739 7 9 7H10C10.1326 7 10.2598 6.94732 10.3536 6.85355C10.4473 6.75979 10.5 6.63261 10.5 6.5V3.5C10.5 3.36739 10.4473 3.24021 10.3536 3.14645C10.2598 3.05268 10.1326 3 10 3H9C8.86739 3 8.74021 3.05268 8.64645 3.14645C8.55268 3.24021 8.5 3.36739 8.5 3.5V4.5H2.5C2.36739 4.5 2.24021 4.55268 2.14645 4.64645C2.05268 4.74021 2 4.86739 2 5C2 5.13261 2.05268 5.25979 2.14645 5.35355C2.24021 5.44732 2.36739 5.5 2.5 5.5ZM13.5 10.5H8C7.86739 10.5 7.74021 10.5527 7.64645 10.6464C7.55268 10.7402 7.5 10.8674 7.5 11C7.5 11.1326 7.55268 11.2598 7.64645 11.3536C7.74021 11.4473 7.86739 11.5 8 11.5H13.5C13.6326 11.5 13.7598 11.4473 13.8536 11.3536C13.9473 11.2598 14 11.1326 14 11C14 10.8674 13.9473 10.7402 13.8536 10.6464C13.7598 10.5527 13.6326 10.5 13.5 10.5ZM6 9H5C4.86739 9 4.74021 9.05268 4.64645 9.14645C4.55268 9.24021 4.5 9.36739 4.5 9.5V10.5H2.5C2.36739 10.5 2.24021 10.5527 2.14645 10.6464C2.05268 10.7402 2 10.8674 2 11C2 11.1326 2.05268 11.2598 2.14645 11.3536C2.24021 11.4473 2.36739 11.5 2.5 11.5H4.5V12.5C4.5 12.6326 4.55268 12.7598 4.64645 12.8536C4.74021 12.9473 4.86739 13 5 13H6C6.13261 13 6.25979 12.9473 6.35355 12.8536C6.44732 12.7598 6.5 12.6326 6.5 12.5V9.5C6.5 9.36739 6.44732 9.24021 6.35355 9.14645C6.25979 9.05268 6.13261 9 6 9Z" fill="black"/>
</g>
<defs>
<clipPath id="clip0_5_1463">
<rect width="16" height="16" fill="white"/>
</clipPath>
</defs>
</svg>
