<svg width="16" height="16" viewBox="0 0 16 16" fill="none" xmlns="http://www.w3.org/2000/svg">
<g clip-path="url(#clip0_5_1461)">
<path d="M14.4964 7.78437C14.3857 4.37874 11.6214 1.61437 8.21574 1.50374C7.32658 1.47508 6.44098 1.62908 5.61369 1.95624C4.7864 2.2834 4.035 2.77676 3.40594 3.40582C2.77688 4.03488 2.28352 4.78628 1.95636 5.61357C1.62921 6.44086 1.4752 7.32645 1.50387 8.21562C1.61449 11.6212 4.37887 14.3856 7.78449 14.4962C8.67366 14.5249 9.55925 14.3709 10.3865 14.0437C11.2138 13.7166 11.9652 13.2232 12.5943 12.5942C13.2234 11.9651 13.7167 11.2137 14.0439 10.3864C14.371 9.55913 14.525 8.67354 14.4964 7.78437ZM12.3989 8.84187L10.9332 10.8937C10.884 10.9626 10.819 11.0188 10.7436 11.0575C10.6683 11.0963 10.5848 11.1165 10.5001 11.1165C10.4154 11.1165 10.3319 11.0963 10.2566 11.0575C10.1813 11.0188 10.1163 10.9626 10.067 10.8937L8.00012 7.99999L5.93324 10.8937C5.88397 10.9626 5.81896 11.0188 5.74364 11.0575C5.66831 11.0963 5.58482 11.1165 5.50012 11.1165C5.41541 11.1165 5.33193 11.0963 5.2566 11.0575C5.18127 11.0188 5.11627 10.9626 5.06699 10.8937L3.60137 8.84187C3.54455 8.76227 3.51074 8.66855 3.50367 8.57101C3.4966 8.47346 3.51652 8.37585 3.56127 8.28889C3.60601 8.20192 3.67384 8.12895 3.75732 8.07799C3.84079 8.02703 3.93669 8.00005 4.03449 7.99999H8.00012L6.10137 5.34187C6.04455 5.26227 6.01074 5.16855 6.00367 5.07101C5.9966 4.97346 6.01652 4.87585 6.06127 4.78889C6.10601 4.70192 6.17384 4.62895 6.25732 4.57799C6.34079 4.52703 6.43669 4.50005 6.53449 4.49999H9.46574C9.56354 4.50005 9.65944 4.52703 9.74292 4.57799C9.82639 4.62895 9.89422 4.70192 9.93897 4.78889C9.98371 4.87585 10.0036 4.97346 9.99656 5.07101C9.98949 5.16855 9.95569 5.26227 9.89887 5.34187L8.00012 7.99999H11.9657C12.0635 8.00005 12.1594 8.02703 12.2429 8.07799C12.3264 8.12895 12.3942 8.20192 12.439 8.28889C12.4837 8.37585 12.5036 8.47346 12.4966 8.57101C12.4895 8.66855 12.4557 8.76227 12.3989 8.84187Z" fill="black"/>
</g>
<defs>
<clipPath id="clip0_5_1461">
<rect width="16" height="16" fill="white"/>
</clipPath>
</defs>
</svg>
