<svg width="16" height="16" viewBox="0 0 16 16" fill="none" xmlns="http://www.w3.org/2000/svg">
<g clip-path="url(#clip0_5_827)">
<path d="M14.5626 8.43749C14.4112 7.87191 14.1295 7.34964 13.7399 6.91251C13.3504 6.47538 12.864 6.13552 12.3195 5.92016C11.7751 5.7048 11.1878 5.61992 10.6046 5.67231C10.0215 5.7247 9.45871 5.9129 8.96136 6.22186L9.98574 2.13186C10.0112 2.03024 10.004 1.92321 9.96532 1.82587C9.92663 1.72854 9.85835 1.64581 9.77011 1.58936C9.34486 1.32083 8.86993 1.14059 8.37359 1.05936C7.87724 0.978135 7.36964 0.997579 6.88096 1.11654C6.39229 1.2355 5.93254 1.45154 5.52907 1.75181C5.1256 2.05209 4.78665 2.43045 4.5324 2.8644C4.27815 3.29834 4.11379 3.779 4.04909 4.27776C3.9844 4.77653 4.02069 5.28321 4.15582 5.76766C4.29095 6.25211 4.52215 6.70443 4.83566 7.0977C5.14917 7.49098 5.53859 7.81716 5.98074 8.05686L1.92636 9.21499C1.82564 9.24367 1.73647 9.30326 1.67142 9.38535C1.60638 9.46743 1.56876 9.56787 1.56386 9.67249C1.52538 10.5262 1.77964 11.3674 2.28452 12.0569C2.7894 12.7464 3.51463 13.2427 4.34011 13.4637C4.6585 13.5492 4.9867 13.5927 5.31636 13.5931C5.81871 13.5918 6.31569 13.4897 6.77785 13.2928C7.24001 13.0959 7.65796 12.8083 8.00694 12.4469C8.35592 12.0856 8.62884 11.6579 8.80953 11.1892C8.99022 10.7204 9.07501 10.2202 9.05886 9.71811L12.0889 12.6506C12.1642 12.7235 12.2606 12.7709 12.3643 12.786C12.4681 12.8012 12.5739 12.7833 12.667 12.735C13.4251 12.3416 14.0263 11.7012 14.371 10.9198C14.7157 10.1383 14.7833 9.2626 14.5626 8.43749ZM8.15261 9.24061C7.90723 9.27078 7.65841 9.22751 7.43763 9.11627C7.21684 9.00502 7.03399 8.83081 6.91222 8.61565C6.79045 8.40049 6.73521 8.15405 6.7535 7.9075C6.77178 7.66094 6.86277 7.42535 7.01496 7.23051C7.16714 7.03567 7.37368 6.89033 7.60847 6.81288C7.84325 6.73543 8.09573 6.72933 8.33398 6.79537C8.57222 6.86142 8.78553 6.99662 8.94694 7.1839C9.10834 7.37117 9.21058 7.6021 9.24074 7.84749C9.28118 8.17652 9.18925 8.50814 8.98519 8.7694C8.78113 9.03066 8.48164 9.20016 8.15261 9.24061Z" fill="black"/>
</g>
<defs>
<clipPath id="clip0_5_827">
<rect width="16" height="16" fill="white"/>
</clipPath>
</defs>
</svg>
