<svg width="16" height="16" viewBox="0 0 16 16" fill="none" xmlns="http://www.w3.org/2000/svg">
<g clip-path="url(#clip0_5_826)">
<path d="M8.55188 13.7769C8.47843 13.8873 8.36415 13.9639 8.23417 13.9901C8.10419 14.0162 7.96915 13.9897 7.85875 13.9163C5.9751 12.6632 3.76238 11.9963 1.5 12C1.36739 12 1.24021 11.9473 1.14645 11.8536C1.05268 11.7598 1 11.6326 1 11.5C1 11.3674 1.05268 11.2402 1.14645 11.1464C1.24021 11.0527 1.36739 11 1.5 11C3.95945 10.9962 6.36487 11.7213 8.4125 13.0837C8.52288 13.1572 8.59957 13.2715 8.62571 13.4015C8.65184 13.5314 8.62529 13.6665 8.55188 13.7769ZM1.5 9C1.36739 9 1.24021 9.05268 1.14645 9.14645C1.05268 9.24021 1 9.36739 1 9.5C1 9.63261 1.05268 9.75979 1.14645 9.85355C1.24021 9.94732 1.36739 10 1.5 10C5.03427 9.99191 8.42917 11.3778 10.9481 13.8569C10.9946 13.9047 11.0502 13.9427 11.1115 13.9687C11.1729 13.9947 11.2389 14.0081 11.3055 14.0083C11.3722 14.0084 11.4382 13.9952 11.4997 13.9695C11.5612 13.9438 11.6169 13.906 11.6636 13.8584C11.7102 13.8108 11.7469 13.7544 11.7715 13.6924C11.796 13.6304 11.8079 13.5641 11.8065 13.4975C11.805 13.4309 11.7903 13.3652 11.7631 13.3043C11.7359 13.2435 11.6968 13.1887 11.6481 13.1431C8.94276 10.48 5.29623 8.9912 1.5 9ZM14.5 10C13.478 9.99933 12.4592 10.1144 11.4631 10.3431C11.8065 10.6035 12.1398 10.8777 12.4631 11.1656C13.1365 11.0553 13.8177 10.9999 14.5 11C14.6326 11 14.7598 11.0527 14.8536 11.1464C14.9473 11.2402 15 11.3674 15 11.5C15 11.6326 14.9473 11.7598 14.8536 11.8536C14.7598 11.9473 14.6326 12 14.5 12C14.125 12 13.7544 12.0181 13.3844 12.0538C13.731 12.415 14.0631 12.7929 14.3806 13.1875C14.4241 13.2384 14.4569 13.2976 14.4771 13.3614C14.4973 13.4253 14.5045 13.4926 14.4982 13.5592C14.4919 13.6259 14.4722 13.6907 14.4404 13.7496C14.4086 13.8085 14.3653 13.8605 14.313 13.9024C14.2608 13.9443 14.2006 13.9752 14.1362 13.9934C14.0717 14.0116 14.0043 14.0166 13.9378 14.0083C13.8714 13.9999 13.8073 13.9782 13.7493 13.9446C13.6914 13.911 13.6409 13.866 13.6006 13.8125C12.1514 11.9952 10.3104 10.5285 8.21519 9.52209C6.11993 8.51564 3.82444 7.99534 1.5 8C1.36739 8 1.24021 7.94732 1.14645 7.85355C1.05268 7.75979 1 7.63261 1 7.5C1 7.36739 1.05268 7.24021 1.14645 7.14645C1.24021 7.05268 1.36739 7 1.5 7C2.50623 7.00008 3.51037 7.09171 4.5 7.27375V5C4.5 4.92238 4.51807 4.84582 4.55279 4.77639C4.5875 4.70697 4.6379 4.64657 4.7 4.6L8.7 1.6C8.78655 1.53509 8.89181 1.5 9 1.5C9.10818 1.5 9.21345 1.53509 9.3 1.6L13.3 4.6C13.3621 4.64657 13.4125 4.70697 13.4472 4.77639C13.4819 4.84582 13.5 4.92238 13.5 5V7.03125C13.8319 7.01125 14.165 7 14.5 7C14.6326 7 14.7598 7.05268 14.8536 7.14645C14.9473 7.24021 15 7.36739 15 7.5C15 7.63261 14.9473 7.75979 14.8536 7.85355C14.7598 7.94732 14.6326 8 14.5 8C12.7045 7.99657 10.9222 8.3073 9.23375 8.91813C9.62708 9.12646 10.0117 9.35104 10.3875 9.59188C11.7228 9.19836 13.1079 8.99902 14.5 9C14.6326 9 14.7598 9.05268 14.8536 9.14645C14.9473 9.24021 15 9.36739 15 9.5C15 9.63261 14.9473 9.75979 14.8536 9.85355C14.7598 9.94732 14.6326 10 14.5 10ZM8.00438 8.32938C8.81227 7.98229 9.64685 7.70095 10.5 7.48812V6H7.5V8.125C7.66937 8.1875 7.8375 8.25813 8.00438 8.32938Z" fill="black"/>
</g>
<defs>
<clipPath id="clip0_5_826">
<rect width="16" height="16" fill="white"/>
</clipPath>
</defs>
</svg>
