<svg width="16" height="16" viewBox="0 0 16 16" fill="none" xmlns="http://www.w3.org/2000/svg">
<g clip-path="url(#clip0_5_1448)">
<path d="M16 7.99998C16.0003 8.16633 15.9584 8.33003 15.8783 8.47583C15.7982 8.62162 15.6824 8.74475 15.5419 8.83373L10.03 12.3437C9.88001 12.4396 9.70703 12.4935 9.52911 12.4997C9.3512 12.5059 9.17488 12.4643 9.01856 12.3791C8.86224 12.2939 8.73165 12.1683 8.64044 12.0154C8.54922 11.8626 8.50072 11.688 8.5 11.51V9.17873L3.53 12.3437C3.38001 12.4396 3.20703 12.4935 3.02911 12.4997C2.8512 12.5059 2.67488 12.4643 2.51856 12.3791C2.36224 12.2939 2.23165 12.1683 2.14044 12.0154C2.04922 11.8626 2.00072 11.688 2 11.51V4.48998C2.00072 4.31195 2.04922 4.13739 2.14044 3.98451C2.23165 3.83163 2.36224 3.70604 2.51856 3.62086C2.67488 3.53568 2.8512 3.49402 3.02911 3.50024C3.20703 3.50646 3.38001 3.56033 3.53 3.65623L8.5 6.82123V4.48998C8.50072 4.31195 8.54922 4.13739 8.64044 3.98451C8.73165 3.83163 8.86224 3.70604 9.01856 3.62086C9.17488 3.53568 9.3512 3.49402 9.52911 3.50024C9.70703 3.50646 9.88001 3.56033 10.03 3.65623L15.5419 7.16623C15.6824 7.25521 15.7982 7.37834 15.8783 7.52413C15.9584 7.66992 16.0003 7.83363 16 7.99998Z" fill="black"/>
</g>
<defs>
<clipPath id="clip0_5_1448">
<rect width="16" height="16" fill="white"/>
</clipPath>
</defs>
</svg>
