<svg width="16" height="16" viewBox="0 0 16 16" fill="none" xmlns="http://www.w3.org/2000/svg">
<g clip-path="url(#clip0_5_1452)">
<path d="M8 1.5C6.71442 1.5 5.45772 1.88122 4.3888 2.59545C3.31988 3.30968 2.48676 4.32484 1.99479 5.51256C1.50282 6.70028 1.37409 8.00721 1.6249 9.26809C1.8757 10.529 2.49477 11.6872 3.40381 12.5962C4.31285 13.5052 5.47104 14.1243 6.73192 14.3751C7.99279 14.6259 9.29973 14.4972 10.4874 14.0052C11.6752 13.5132 12.6903 12.6801 13.4046 11.6112C14.1188 10.5423 14.5 9.28558 14.5 8C14.4982 6.27665 13.8128 4.62441 12.5942 3.40582C11.3756 2.18722 9.72335 1.50182 8 1.5ZM12.3 8.4L9.3 10.65C9.21346 10.7149 9.10819 10.75 9 10.75C8.86739 10.75 8.74022 10.6973 8.64645 10.6036C8.55268 10.5098 8.5 10.3826 8.5 10.25V8C8.5 8.07762 8.48193 8.15418 8.44722 8.22361C8.4125 8.29303 8.3621 8.35343 8.3 8.4L5.3 10.65C5.21345 10.7149 5.10819 10.75 5 10.75C4.86739 10.75 4.74022 10.6973 4.64645 10.6036C4.55268 10.5098 4.5 10.3826 4.5 10.25V5.75C4.5 5.65714 4.52586 5.56612 4.57468 5.48713C4.62349 5.40815 4.69334 5.34431 4.7764 5.30279C4.85945 5.26126 4.95243 5.24368 5.04491 5.25202C5.13739 5.26036 5.22572 5.29429 5.3 5.35L8.3 7.6C8.3621 7.64657 8.4125 7.70697 8.44722 7.77639C8.48193 7.84582 8.5 7.92238 8.5 8V5.75C8.5 5.65714 8.52586 5.56612 8.57468 5.48713C8.62349 5.40815 8.69334 5.34431 8.7764 5.30279C8.85945 5.26126 8.95243 5.24368 9.04491 5.25202C9.13739 5.26036 9.22572 5.29429 9.3 5.35L12.3 7.6C12.3621 7.64657 12.4125 7.70697 12.4472 7.77639C12.4819 7.84582 12.5 7.92238 12.5 8C12.5 8.07762 12.4819 8.15418 12.4472 8.22361C12.4125 8.29303 12.3621 8.35343 12.3 8.4Z" fill="black"/>
</g>
<defs>
<clipPath id="clip0_5_1452">
<rect width="16" height="16" fill="white"/>
</clipPath>
</defs>
</svg>
