<svg width="16" height="16" viewBox="0 0 16 16" fill="none" xmlns="http://www.w3.org/2000/svg">
<g clip-path="url(#clip0_5_825)">
<path d="M13.24 8.4256L9.50316 12.205C9.41163 12.2976 9.30263 12.3712 9.18247 12.4214C9.06231 12.4716 8.93339 12.4974 8.80316 12.4975H4.70753L2.85378 14.3537C2.80733 14.4002 2.75218 14.437 2.69148 14.4622C2.63079 14.4873 2.56573 14.5003 2.50003 14.5003C2.43434 14.5003 2.36928 14.4873 2.30859 14.4622C2.24789 14.437 2.19274 14.4002 2.14628 14.3537C2.09983 14.3073 2.06298 14.2521 2.03784 14.1914C2.0127 14.1307 1.99976 14.0657 1.99976 14C1.99976 13.9343 2.0127 13.8692 2.03784 13.8085C2.06298 13.7478 2.09983 13.6927 2.14628 13.6462L3.55816 12.235L7.79378 7.99998H13.0625C13.1118 8.00006 13.16 8.0147 13.2009 8.04206C13.2419 8.06942 13.2739 8.10828 13.2929 8.15375C13.3118 8.19923 13.3169 8.24929 13.3075 8.29766C13.2981 8.34603 13.2746 8.39054 13.24 8.4256ZM13.5438 1.9106C12.7766 1.27925 11.8019 0.956017 10.8095 1.00385C9.81705 1.05168 8.87795 1.46715 8.17503 2.16935L7.57503 2.76185C7.52778 2.80816 7.50081 2.87132 7.50003 2.93748V6.87498L10.9375 3.43748C11.0321 3.34767 11.1579 3.29834 11.2883 3.30001C11.4187 3.30168 11.5433 3.35421 11.6355 3.44641C11.7277 3.53861 11.7802 3.66319 11.7819 3.79357C11.7835 3.92395 11.7342 4.04982 11.6444 4.14435L8.79441 6.99998H14.3182C14.3641 7.00007 14.4091 6.98753 14.4484 6.96371C14.4876 6.9399 14.5195 6.90574 14.5407 6.86498C14.9691 6.05036 15.1039 5.11303 14.9223 4.21071C14.7408 3.30838 14.2539 2.49612 13.5438 1.9106ZM3.92691 10.4519L6.50003 7.87873V4.42248C6.49995 4.37321 6.48531 4.32506 6.45795 4.28408C6.43059 4.2431 6.39174 4.21112 6.34626 4.19216C6.30078 4.1732 6.25072 4.16809 6.20235 4.17749C6.15399 4.18689 6.10947 4.21037 6.07441 4.24498L3.79316 6.49998C3.70001 6.59258 3.62614 6.70274 3.57583 6.82407C3.52551 6.9454 3.49975 7.0755 3.50003 7.20685V10.275C3.49999 10.3245 3.51464 10.3728 3.5421 10.414C3.56957 10.4551 3.60863 10.4872 3.65434 10.5061C3.70004 10.5251 3.75034 10.53 3.79886 10.5204C3.84738 10.5107 3.89195 10.4869 3.92691 10.4519Z" fill="black"/>
</g>
<defs>
<clipPath id="clip0_5_825">
<rect width="16" height="16" fill="white"/>
</clipPath>
</defs>
</svg>
