<svg width="16" height="16" viewBox="0 0 16 16" fill="none" xmlns="http://www.w3.org/2000/svg">
<g clip-path="url(#clip0_5_860)">
<path d="M13.2499 6.00002C13.0249 5.99883 12.8018 6.04128 12.593 6.12502L10.6874 3.74627C10.844 3.52066 10.9454 3.26135 10.9832 2.9893C11.021 2.71726 10.9943 2.44014 10.9052 2.18034C10.816 1.92055 10.667 1.68538 10.4701 1.49386C10.2733 1.30234 10.0341 1.15985 9.77193 1.07791C9.50978 0.995978 9.23202 0.976898 8.96113 1.02222C8.69023 1.06754 8.43381 1.17598 8.2126 1.33878C7.99139 1.50158 7.8116 1.71416 7.68778 1.95933C7.56397 2.2045 7.4996 2.47536 7.49988 2.75002C7.49985 2.81139 7.50298 2.87272 7.50925 2.93377L4.60488 4.14377C4.42992 3.92918 4.20655 3.75917 3.9531 3.64769C3.69966 3.53622 3.42339 3.48648 3.14698 3.50254C2.87057 3.51861 2.60192 3.60003 2.3631 3.74012C2.12428 3.88021 1.92211 4.07496 1.7732 4.30838C1.62429 4.5418 1.53288 4.80722 1.5065 5.08283C1.48012 5.35845 1.5195 5.63639 1.62143 5.89382C1.72335 6.15125 1.88491 6.38082 2.09281 6.56367C2.30071 6.74652 2.54904 6.87743 2.81738 6.94565L2.933 9.8444C2.66805 9.93486 2.42867 10.0876 2.23497 10.2897C2.04126 10.4919 1.89888 10.7375 1.81978 11.0061C1.74067 11.2746 1.72716 11.5583 1.78037 11.8331C1.83358 12.108 1.95196 12.3661 2.12557 12.5857C2.29918 12.8054 2.52296 12.9801 2.77811 13.0954C3.03326 13.2106 3.31233 13.263 3.5919 13.248C3.87147 13.2331 4.14337 13.1513 4.38478 13.0095C4.62618 12.8677 4.83005 12.67 4.97925 12.4331L7.99988 13.2794C8.00412 13.5609 8.0762 13.8372 8.21 14.0848C8.3438 14.3325 8.53538 14.5442 8.76847 14.7021C9.00156 14.8599 9.26929 14.9592 9.54893 14.9915C9.82858 15.0238 10.1119 14.9881 10.3748 14.8876C10.6377 14.787 10.8725 14.6245 11.0593 14.4138C11.246 14.2032 11.3791 13.9506 11.4474 13.6775C11.5157 13.4044 11.5171 13.1189 11.4515 12.8451C11.3859 12.5714 11.2552 12.3175 11.0705 12.105L12.7711 9.43315C13.0118 9.50167 13.2644 9.51777 13.5119 9.48036C13.7593 9.44295 13.9959 9.35289 14.2056 9.21628C14.4153 9.07966 14.5932 8.89966 14.7274 8.68841C14.8616 8.47716 14.9489 8.23959 14.9835 7.99172C15.0181 7.74385 14.9991 7.49145 14.9278 7.25155C14.8565 7.01165 14.7346 6.78983 14.5703 6.60106C14.406 6.41229 14.2031 6.26096 13.9753 6.15727C13.7475 6.05359 13.5001 5.99997 13.2499 6.00002ZM4.44925 6.52252L7.10738 8.06252L4.51613 10.0763C4.34004 9.95032 4.1421 9.85813 3.93238 9.8044L3.81675 6.90565C4.05247 6.82445 4.26812 6.69383 4.44925 6.52252ZM9.348 4.50002C9.53988 4.48954 9.7287 4.4473 9.90675 4.37502L11.8124 6.75377C11.6908 6.92829 11.6023 7.1236 11.5511 7.33002L8.6405 7.46877L9.348 4.50002ZM5.1305 10.8656L7.74988 8.82877L8.74613 11.8181C8.55641 11.9519 8.39499 12.1218 8.27113 12.3181L5.24988 11.4706C5.24621 11.2635 5.20579 11.0587 5.1305 10.8656ZM9.74988 11.5H9.69425L8.683 8.4669L11.5986 8.32815C11.6723 8.53471 11.7843 8.72553 11.9286 8.89065L10.228 11.5625C10.0723 11.5197 9.91137 11.4987 9.74988 11.5ZM7.89488 3.85627C8.02924 4.02004 8.1918 4.15846 8.37488 4.26502L7.66863 7.23065L4.95175 5.65752C4.98372 5.52405 4.99987 5.38727 4.99988 5.25002C4.9999 5.18865 4.99677 5.12732 4.9905 5.06627L7.89488 3.85627Z" fill="black"/>
</g>
<defs>
<clipPath id="clip0_5_860">
<rect width="16" height="16" fill="white"/>
</clipPath>
</defs>
</svg>
