<svg width="16" height="16" viewBox="0 0 16 16" fill="none" xmlns="http://www.w3.org/2000/svg">
<g clip-path="url(#clip0_5_1436)">
<path d="M12 6C12.4198 5.68518 12.7298 5.24626 12.8863 4.74542C13.0427 4.24458 13.0376 3.70721 12.8717 3.20943C12.7058 2.71165 12.3874 2.2787 11.9618 1.97189C11.5361 1.66509 11.0247 1.5 10.5 1.5H6C5.4753 1.5 4.96389 1.66509 4.53823 1.97189C4.11257 2.2787 3.79422 2.71165 3.6283 3.20943C3.46237 3.70721 3.45727 4.24458 3.61372 4.74542C3.77017 5.24626 4.08024 5.68518 4.5 6C4.18218 6.23819 3.92568 6.54867 3.75175 6.90573C3.57781 7.26279 3.49145 7.65615 3.49982 8.05323C3.50819 8.45032 3.61105 8.83969 3.79987 9.18911C3.9887 9.53852 4.25805 9.83792 4.58563 10.0625C4.21303 10.3458 3.9189 10.7195 3.73109 11.1482C3.54328 11.5769 3.46801 12.0465 3.5124 12.5125C3.5568 12.9784 3.71939 13.4253 3.98478 13.8109C4.25017 14.1964 4.60957 14.5079 5.02897 14.7157C5.44836 14.9235 5.91386 15.0209 6.38139 14.9985C6.84892 14.9761 7.303 14.8348 7.70064 14.5879C8.09829 14.341 8.42633 13.9967 8.65371 13.5876C8.88109 13.1785 9.00028 12.7181 9 12.25V10C9.53044 10.3978 10.1972 10.5686 10.8536 10.4749C11.5099 10.3811 12.1022 10.0304 12.5 9.5C12.8978 8.96957 13.0686 8.30282 12.9749 7.64645C12.8811 6.99007 12.5304 6.39782 12 6ZM8 9.5H6C5.60218 9.5 5.22065 9.34196 4.93934 9.06066C4.65804 8.77936 4.5 8.39782 4.5 8C4.5 7.60218 4.65804 7.22064 4.93934 6.93934C5.22065 6.65804 5.60218 6.5 6 6.5H8V9.5ZM10.5 5.5H9V2.5H10.5C10.8978 2.5 11.2794 2.65804 11.5607 2.93934C11.842 3.22064 12 3.60218 12 4C12 4.39782 11.842 4.77936 11.5607 5.06066C11.2794 5.34196 10.8978 5.5 10.5 5.5Z" fill="black"/>
</g>
<defs>
<clipPath id="clip0_5_1436">
<rect width="16" height="16" fill="white"/>
</clipPath>
</defs>
</svg>
