<svg width="16" height="16" viewBox="0 0 16 16" fill="none" xmlns="http://www.w3.org/2000/svg">
<g clip-path="url(#clip0_5_814)">
<path d="M2.74999 7.5H13.25C13.3163 7.5 13.3799 7.47366 13.4268 7.42678C13.4736 7.37989 13.5 7.3163 13.5 7.25V5.5C13.5 5.43432 13.4871 5.36927 13.4621 5.30858C13.437 5.24788 13.4002 5.19272 13.3537 5.14625L9.85374 1.64625C9.80727 1.59983 9.75211 1.56303 9.69141 1.53793C9.63071 1.51284 9.56567 1.49995 9.49999 1.5H3.49999C3.23477 1.5 2.98042 1.60536 2.79288 1.79289C2.60534 1.98043 2.49999 2.23478 2.49999 2.5V7.25C2.49999 7.3163 2.52632 7.37989 2.57321 7.42678C2.62009 7.47366 2.68368 7.5 2.74999 7.5ZM9.49999 2.75L12.25 5.5H9.49999V2.75ZM7.49999 9H6.49999C6.36738 9 6.2402 9.05268 6.14643 9.14645C6.05266 9.24021 5.99999 9.36739 5.99999 9.5V12.9831C5.99825 13.1122 6.04543 13.2371 6.13205 13.3327C6.21866 13.4284 6.33829 13.4877 6.46686 13.4987C6.53525 13.5033 6.60385 13.4937 6.66839 13.4706C6.73293 13.4475 6.79203 13.4114 6.84203 13.3646C6.89202 13.3177 6.93185 13.261 6.95902 13.1981C6.98619 13.1351 7.00014 13.0673 6.99999 12.9987V12.4987H7.46249C8.41499 12.4987 9.22061 11.7537 9.24936 10.8019C9.2563 10.5678 9.21619 10.3347 9.1314 10.1164C9.0466 9.89808 8.91886 9.69902 8.75572 9.53099C8.59259 9.36296 8.39739 9.22939 8.18169 9.13818C7.96599 9.04697 7.73418 8.99998 7.49999 9ZM7.47811 11.5H6.99999V10H7.49999C7.60457 10 7.70799 10.0219 7.80361 10.0643C7.89923 10.1067 7.98492 10.1686 8.0552 10.246C8.12547 10.3235 8.17877 10.4148 8.21167 10.5141C8.24457 10.6133 8.25635 10.7184 8.24624 10.8225C8.22475 11.0105 8.13431 11.1838 7.99243 11.3089C7.85054 11.4341 7.66729 11.5022 7.47811 11.5ZM13.5 12.5544C13.4999 12.6844 13.4493 12.8092 13.3587 12.9025C13.1848 13.0893 12.9746 13.2387 12.741 13.3414C12.5074 13.4442 12.2552 13.4981 12 13.5C10.8975 13.5 9.99999 12.4906 9.99999 11.25C9.99999 10.0094 10.8975 9 12 9C12.3576 9.00109 12.7072 9.10666 13.0056 9.30375C13.1141 9.37134 13.1934 9.47697 13.2281 9.59996C13.2627 9.72295 13.2503 9.85446 13.1931 9.96875C13.1602 10.0308 13.1147 10.0851 13.0594 10.1284C13.0042 10.1716 12.9404 10.2027 12.8723 10.2197C12.8042 10.2367 12.7333 10.2392 12.6642 10.2269C12.5951 10.2147 12.5294 10.1881 12.4712 10.1488C12.333 10.0522 12.1686 10.0003 12 10C11.4487 10 11 10.5625 11 11.25C11 11.9375 11.4487 12.5 12 12.5C12.1804 12.4979 12.3555 12.4386 12.5 12.3306V12C12.4314 12.0002 12.3636 11.9862 12.3007 11.959C12.2377 11.9319 12.1811 11.892 12.1342 11.842C12.0873 11.792 12.0512 11.7329 12.0281 11.6684C12.005 11.6039 11.9954 11.5353 12 11.4669C12.011 11.3383 12.0703 11.2187 12.166 11.1321C12.2617 11.0454 12.3866 10.9983 12.5156 11H13C13.1326 11 13.2598 11.0527 13.3535 11.1464C13.4473 11.2402 13.5 11.3674 13.5 11.5V12.5544ZM4.99999 9.5V11.8381C4.99999 12.7269 4.30124 13.4794 3.41186 13.4994C3.19736 13.5043 2.98402 13.4666 2.78415 13.3886C2.58427 13.3107 2.40182 13.1939 2.24731 13.045C2.09281 12.8961 1.96932 12.7181 1.88396 12.5213C1.7986 12.3245 1.75307 12.1127 1.74999 11.8981C1.74612 11.7694 1.79106 11.6439 1.87578 11.5469C1.96051 11.4499 2.07877 11.3885 2.20686 11.375C2.27723 11.3689 2.3481 11.3777 2.41479 11.401C2.48149 11.4242 2.54251 11.4613 2.59382 11.5099C2.64514 11.5584 2.68559 11.6173 2.7125 11.6826C2.73942 11.7479 2.75219 11.8182 2.74999 11.8888C2.74376 11.9867 2.76361 12.0847 2.80753 12.1725C2.85144 12.2603 2.91785 12.3349 2.99999 12.3888C3.49061 12.69 3.99999 12.3419 3.99999 11.8763V9.51688C3.99793 9.38763 4.04497 9.26241 4.13162 9.16648C4.21826 9.07055 4.33807 9.01106 4.46686 9C4.53525 8.99546 4.60385 9.00503 4.66839 9.02811C4.73293 9.0512 4.79203 9.08731 4.84203 9.1342C4.89202 9.18109 4.93185 9.23776 4.95902 9.30069C4.98619 9.36361 5.00014 9.43146 4.99999 9.5Z" fill="black"/>
</g>
<defs>
<clipPath id="clip0_5_814">
<rect width="16" height="16" fill="white"/>
</clipPath>
</defs>
</svg>
