<svg width="16" height="16" viewBox="0 0 16 16" fill="none" xmlns="http://www.w3.org/2000/svg">
<g clip-path="url(#clip0_5_803)">
<path d="M13.3537 5.14625L9.85373 1.64625C9.80727 1.59983 9.75211 1.56303 9.69141 1.53793C9.63071 1.51284 9.56567 1.49995 9.49998 1.5H3.49998C3.23477 1.5 2.98041 1.60536 2.79288 1.79289C2.60534 1.98043 2.49998 2.23478 2.49998 2.5V7.25C2.49998 7.3163 2.52632 7.37989 2.57321 7.42678C2.62009 7.47366 2.68368 7.5 2.74998 7.5H13.25C13.3163 7.5 13.3799 7.47366 13.4268 7.42678C13.4736 7.37989 13.5 7.3163 13.5 7.25V5.5C13.5 5.43432 13.4871 5.36927 13.4621 5.30858C13.437 5.24788 13.4002 5.19272 13.3537 5.14625ZM9.49998 5.5V2.75L12.25 5.5H9.49998ZM5.48873 12.2694C5.46925 12.4606 5.40763 12.6452 5.30832 12.8097C5.20901 12.9743 5.07446 13.1149 4.91436 13.2212C4.58998 13.4375 4.18748 13.5 3.82123 13.5C3.50184 13.498 3.18395 13.456 2.87498 13.375C2.74879 13.338 2.64223 13.2528 2.57839 13.1379C2.51455 13.0229 2.49858 12.8874 2.53392 12.7608C2.56926 12.6341 2.65308 12.5265 2.76722 12.4612C2.88136 12.3959 3.01663 12.3782 3.14373 12.4119C3.41748 12.4869 4.07811 12.5806 4.36561 12.3894C4.42061 12.3525 4.47998 12.2944 4.49936 12.1438C4.52123 11.9769 4.45498 11.8875 3.70061 11.6694C3.11623 11.5006 2.13811 11.2175 2.26311 10.225C2.28256 10.0375 2.34304 9.85662 2.44026 9.69514C2.53747 9.53366 2.66903 9.39555 2.82561 9.29062C3.56561 8.79062 4.74561 9.08375 4.87748 9.11812C5.00578 9.15186 5.11543 9.23517 5.1823 9.34975C5.24916 9.46432 5.26778 9.60076 5.23405 9.72906C5.20032 9.85736 5.117 9.967 5.00243 10.0339C4.88785 10.1007 4.75141 10.1194 4.62311 10.0856C4.34311 10.0125 3.67123 9.92562 3.38373 10.1206C3.34605 10.146 3.31502 10.1802 3.29327 10.2201C3.27152 10.26 3.25967 10.3046 3.25873 10.35C3.25186 10.4062 3.24998 10.4181 3.32873 10.4688C3.47311 10.5619 3.73123 10.6362 3.98186 10.7087C4.59373 10.8856 5.62873 11.1875 5.48873 12.2694ZM9.47123 9.66813L8.22748 13.1506C8.19752 13.2396 8.14385 13.3186 8.07226 13.3793C8.00067 13.44 7.91388 13.48 7.82123 13.495C7.70707 13.5114 7.59076 13.4878 7.492 13.4282C7.39325 13.3686 7.31813 13.2767 7.27936 13.1681L6.03686 9.6875C5.9903 9.56339 5.99358 9.42607 6.046 9.30432C6.09843 9.18257 6.19594 9.08583 6.31811 9.03438C6.38044 9.00998 6.44703 8.99835 6.51393 9.00017C6.58084 9.00199 6.6467 9.01722 6.7076 9.04496C6.76851 9.07271 6.82323 9.1124 6.86852 9.16168C6.9138 9.21097 6.94873 9.26884 6.97123 9.33187L7.74998 11.5131L8.52874 9.33187C8.57332 9.20697 8.6657 9.1049 8.78555 9.04811C8.9054 8.99133 9.0429 8.98447 9.1678 9.02906C9.2927 9.07365 9.39477 9.16603 9.45156 9.28588C9.50835 9.40573 9.5152 9.54322 9.47061 9.66813H9.47123ZM13.5 11.5V12.5544C13.4999 12.6844 13.4493 12.8092 13.3587 12.9025C13.1848 13.0893 12.9746 13.2387 12.741 13.3414C12.5074 13.4442 12.2552 13.4981 12 13.5C10.8975 13.5 9.99998 12.4906 9.99998 11.25C9.99998 10.0094 10.8975 9 12 9C12.3576 9.00109 12.7072 9.10666 13.0056 9.30375C13.1139 9.37144 13.1932 9.47707 13.2278 9.60002C13.2625 9.72298 13.2501 9.85443 13.1931 9.96875C13.1602 10.0307 13.1147 10.085 13.0595 10.1281C13.0043 10.1713 12.9406 10.2024 12.8726 10.2194C12.8046 10.2364 12.7337 10.2388 12.6647 10.2267C12.5957 10.2145 12.53 10.188 12.4719 10.1488C12.3334 10.0523 12.1687 10.0004 12 10C11.4487 10 11 10.5625 11 11.25C11 11.9375 11.4487 12.5 12 12.5C12.1806 12.499 12.356 12.4396 12.5 12.3306V12C12.4314 12.0002 12.3636 11.9862 12.3007 11.959C12.2377 11.9319 12.1811 11.892 12.1342 11.842C12.0873 11.792 12.0512 11.7329 12.0281 11.6684C12.005 11.6039 11.9954 11.5353 12 11.4669C12.0112 11.3382 12.0706 11.2186 12.1664 11.132C12.2622 11.0454 12.3871 10.9983 12.5162 11H13C13.1326 11 13.2598 11.0527 13.3535 11.1464C13.4473 11.2402 13.5 11.3674 13.5 11.5Z" fill="black"/>
</g>
<defs>
<clipPath id="clip0_5_803">
<rect width="16" height="16" fill="white"/>
</clipPath>
</defs>
</svg>
