<svg width="16" height="16" viewBox="0 0 16 16" fill="none" xmlns="http://www.w3.org/2000/svg">
<g clip-path="url(#clip0_5_922)">
<path d="M9 9.25C9 9.49723 8.92669 9.7389 8.78934 9.94446C8.65199 10.15 8.45676 10.3102 8.22835 10.4048C7.99995 10.4995 7.74861 10.5242 7.50614 10.476C7.26366 10.4278 7.04093 10.3087 6.86612 10.1339C6.6913 9.95907 6.57225 9.73634 6.52402 9.49386C6.47579 9.25139 6.50054 9.00005 6.59515 8.77165C6.68976 8.54324 6.84998 8.34801 7.05554 8.21066C7.2611 8.07331 7.50277 8 7.75 8C8.08152 8 8.39946 8.1317 8.63388 8.36612C8.8683 8.60054 9 8.91848 9 9.25ZM13.5 5.5V13.5C13.5 13.7652 13.3946 14.0196 13.2071 14.2071C13.0196 14.3946 12.7652 14.5 12.5 14.5H3.5C3.23478 14.5 2.98043 14.3946 2.79289 14.2071C2.60536 14.0196 2.5 13.7652 2.5 13.5V2.5C2.5 2.23478 2.60536 1.98043 2.79289 1.79289C2.98043 1.60536 3.23478 1.5 3.5 1.5H9.5C9.56568 1.49995 9.63073 1.51284 9.69143 1.53793C9.75212 1.56303 9.80728 1.59983 9.85375 1.64625L13.3538 5.14625C13.4002 5.19272 13.437 5.24788 13.4621 5.30858C13.4872 5.36927 13.5001 5.43432 13.5 5.5ZM10.3538 11.1462L9.65375 10.4469C9.94883 9.97798 10.0608 9.4168 9.9683 8.87056C9.87578 8.32432 9.58525 7.83131 9.15222 7.48574C8.71919 7.14016 8.17402 6.96624 7.62087 6.99721C7.06772 7.02818 6.54536 7.26186 6.15361 7.65361C5.76186 8.04536 5.52818 8.56772 5.49721 9.12087C5.46624 9.67402 5.64016 10.2192 5.98574 10.6522C6.33131 11.0853 6.82432 11.3758 7.37056 11.4683C7.9168 11.5608 8.47798 11.4488 8.94687 11.1538L9.64625 11.8538C9.6927 11.9002 9.74786 11.9371 9.80855 11.9622C9.86925 11.9873 9.9343 12.0003 10 12.0003C10.0657 12.0003 10.1308 11.9873 10.1914 11.9622C10.2521 11.9371 10.3073 11.9002 10.3538 11.8538C10.4002 11.8073 10.4371 11.7521 10.4622 11.6914C10.4873 11.6308 10.5003 11.5657 10.5003 11.5C10.5003 11.4343 10.4873 11.3692 10.4622 11.3086C10.4371 11.2479 10.4002 11.1927 10.3538 11.1462ZM12.25 5.5L9.5 2.75V5.5H12.25Z" fill="black"/>
</g>
<defs>
<clipPath id="clip0_5_922">
<rect width="16" height="16" fill="white"/>
</clipPath>
</defs>
</svg>
