<svg width="16" height="16" viewBox="0 0 16 16" fill="none" xmlns="http://www.w3.org/2000/svg">
<g clip-path="url(#clip0_5_800)">
<path d="M13.3538 5.14625L9.85375 1.64625C9.80728 1.59983 9.75212 1.56303 9.69143 1.53793C9.63073 1.51284 9.56568 1.49995 9.5 1.5H3.5C3.23478 1.5 2.98043 1.60536 2.79289 1.79289C2.60536 1.98043 2.5 2.23478 2.5 2.5V7.25C2.5 7.3163 2.52634 7.37989 2.57322 7.42678C2.62011 7.47366 2.6837 7.5 2.75 7.5H10.25C10.3163 7.5 10.3799 7.52634 10.4268 7.57322C10.4737 7.62011 10.5 7.6837 10.5 7.75V14.25C10.5 14.3163 10.5263 14.3799 10.5732 14.4268C10.6201 14.4737 10.6837 14.5 10.75 14.5H12.5C12.7652 14.5 13.0196 14.3946 13.2071 14.2071C13.3946 14.0196 13.5 13.7652 13.5 13.5V5.5C13.5001 5.43432 13.4872 5.36927 13.4621 5.30858C13.437 5.24788 13.4002 5.19272 13.3538 5.14625ZM9.5 5.5V2.75L12.25 5.5H9.5ZM9.23812 12.2694C9.21864 12.4606 9.15702 12.6452 9.05771 12.8097C8.9584 12.9743 8.82385 13.1149 8.66375 13.2212C8.33937 13.4375 7.9375 13.5 7.57062 13.5C7.25143 13.498 6.93375 13.456 6.625 13.375C6.56101 13.358 6.50104 13.3285 6.44855 13.2882C6.39606 13.2478 6.3521 13.1975 6.31922 13.14C6.28635 13.0826 6.26521 13.0191 6.25704 12.9535C6.24887 12.8878 6.25382 12.8211 6.27161 12.7573C6.2894 12.6936 6.31968 12.634 6.36069 12.582C6.40169 12.53 6.45261 12.4867 6.51049 12.4546C6.56836 12.4225 6.63204 12.4021 6.69783 12.3948C6.76363 12.3875 6.83022 12.3933 6.89375 12.4119C7.1675 12.4869 7.83125 12.5806 8.11563 12.3894C8.17063 12.3525 8.23 12.2944 8.24938 12.1438C8.27125 11.9769 8.205 11.8875 7.45062 11.6694C6.86625 11.5006 5.88812 11.2175 6.01312 10.225C6.03262 10.0375 6.09312 9.85665 6.19033 9.69518C6.28754 9.5337 6.41908 9.39559 6.57562 9.29062C7.31563 8.79062 8.495 9.08375 8.6275 9.11812C8.7558 9.15186 8.86544 9.23517 8.93231 9.34975C8.99918 9.46432 9.01779 9.60076 8.98406 9.72906C8.95033 9.85736 8.86701 9.967 8.75244 10.0339C8.63787 10.1007 8.50142 10.1194 8.37313 10.0856C8.0925 10.0125 7.42125 9.92562 7.13375 10.1206C7.09606 10.146 7.06504 10.1802 7.04328 10.2201C7.02153 10.26 7.00969 10.3046 7.00875 10.35C7.00125 10.4062 7 10.4181 7.07812 10.4688C7.2225 10.5619 7.48125 10.6362 7.73125 10.7087C8.34312 10.8856 9.37812 11.1875 9.23812 12.2694ZM5.5 9.53312C5.48894 9.66192 5.42945 9.78172 5.33352 9.86837C5.23759 9.95502 5.11237 10.0021 4.98313 10H4.25V12.9831C4.25206 13.1124 4.20502 13.2376 4.11837 13.3335C4.03172 13.4294 3.91192 13.4889 3.78312 13.5C3.71473 13.5045 3.64614 13.495 3.5816 13.4719C3.51706 13.4488 3.45795 13.4127 3.40796 13.3658C3.35796 13.3189 3.31814 13.2622 3.29097 13.1993C3.26379 13.1364 3.24985 13.0685 3.25 13V10H2.51687C2.38763 10.0021 2.26241 9.95502 2.16648 9.86837C2.07055 9.78172 2.01106 9.66192 2 9.53312C1.99546 9.46473 2.00503 9.39613 2.02811 9.3316C2.0512 9.26706 2.08731 9.20795 2.1342 9.15796C2.18109 9.10796 2.23776 9.06814 2.30069 9.04097C2.36361 9.01379 2.43146 8.99985 2.5 9H5C5.06854 8.99985 5.13639 9.01379 5.19931 9.04097C5.26224 9.06814 5.31891 9.10796 5.3658 9.15796C5.41269 9.20795 5.4488 9.26706 5.47189 9.3316C5.49497 9.39613 5.50454 9.46473 5.5 9.53312Z" fill="black"/>
</g>
<defs>
<clipPath id="clip0_5_800">
<rect width="16" height="16" fill="white"/>
</clipPath>
</defs>
</svg>
