<svg width="16" height="16" viewBox="0 0 16 16" fill="none" xmlns="http://www.w3.org/2000/svg">
<g clip-path="url(#clip0_5_809)">
<path d="M13.3537 5.14625L9.8537 1.64625C9.80723 1.59983 9.75207 1.56303 9.69138 1.53793C9.63068 1.51284 9.56563 1.49995 9.49995 1.5H3.49995C3.23473 1.5 2.98038 1.60536 2.79284 1.79289C2.60531 1.98043 2.49995 2.23478 2.49995 2.5V7.25C2.49995 7.3163 2.52629 7.37989 2.57317 7.42678C2.62006 7.47366 2.68365 7.5 2.74995 7.5H12.25C12.3163 7.5 12.3798 7.52634 12.4267 7.57322C12.4736 7.62011 12.5 7.6837 12.5 7.75V14C12.5 14.0719 12.5155 14.143 12.5455 14.2084C12.5755 14.2738 12.6192 14.332 12.6738 14.3789C12.7283 14.4258 12.7923 14.4604 12.8614 14.4804C12.9306 14.5003 13.0032 14.5051 13.0743 14.4944C13.1946 14.4743 13.3036 14.4119 13.3817 14.3183C13.4598 14.2247 13.5018 14.1062 13.5 13.9844V5.5C13.5 5.43432 13.4871 5.36927 13.462 5.30858C13.4369 5.24788 13.4001 5.19272 13.3537 5.14625ZM9.49995 5.5V2.75L12.25 5.5H9.49995ZM8.99995 9H7.99995C7.86734 9 7.74017 9.05268 7.6464 9.14645C7.55263 9.24021 7.49995 9.36739 7.49995 9.5V13C7.49995 13.1326 7.55263 13.2598 7.6464 13.3536C7.74017 13.4473 7.86734 13.5 7.99995 13.5H8.95745C10.1862 13.5 11.2206 12.5325 11.2493 11.3044C11.2566 11.0044 11.2038 10.706 11.094 10.4268C10.9842 10.1475 10.8197 9.89306 10.6101 9.67834C10.4005 9.46362 10.1501 9.293 9.87354 9.1765C9.59703 9.06001 9.3 9 8.99995 9ZM8.96933 12.5H8.49995V10H8.99995C9.16823 9.99988 9.33481 10.0337 9.48969 10.0995C9.64457 10.1653 9.78457 10.2617 9.90129 10.383C10.018 10.5042 10.1091 10.6477 10.169 10.805C10.2289 10.9622 10.2564 11.13 10.25 11.2981C10.2237 11.9744 9.6462 12.5 8.96933 12.5ZM6.49995 9.5V12.9831C6.50201 13.1124 6.45497 13.2376 6.36832 13.3335C6.28167 13.4294 6.16187 13.4889 6.03308 13.5C5.96468 13.5045 5.89609 13.495 5.83155 13.4719C5.76701 13.4488 5.7079 13.4127 5.65791 13.3658C5.60791 13.3189 5.56809 13.2622 5.54092 13.1993C5.51374 13.1364 5.4998 13.0685 5.49995 13V11.0863L4.66745 12.2738C4.60405 12.3672 4.51189 12.4374 4.40495 12.4738C4.30345 12.5066 4.19411 12.5061 4.09291 12.4724C3.9917 12.4386 3.90394 12.3734 3.84245 12.2863L2.99995 11.0863V12.9831C3.00201 13.1124 2.95497 13.2376 2.86832 13.3335C2.78167 13.4294 2.66187 13.4889 2.53308 13.5C2.46468 13.5045 2.39609 13.495 2.33155 13.4719C2.26701 13.4488 2.2079 13.4127 2.15791 13.3658C2.10791 13.3189 2.06809 13.2622 2.04092 13.1993C2.01374 13.1364 1.9998 13.0685 1.99995 13V9.51937C1.99832 9.42205 2.02421 9.32625 2.07463 9.24299C2.12505 9.15973 2.19795 9.0924 2.28495 9.04875C2.39173 8.99776 2.51314 8.9863 2.62758 9.01639C2.74201 9.04649 2.84207 9.1162 2.90995 9.21313L4.24995 11.1281L5.57932 9.22875C5.63391 9.14812 5.71014 9.08453 5.79925 9.04528C5.88836 9.00603 5.98674 8.99272 6.08308 9.00688C6.19964 9.02653 6.30547 9.08684 6.38179 9.17712C6.45811 9.26739 6.49997 9.38179 6.49995 9.5Z" fill="black"/>
</g>
<defs>
<clipPath id="clip0_5_809">
<rect width="16" height="16" fill="white"/>
</clipPath>
</defs>
</svg>
