<svg width="16" height="16" viewBox="0 0 16 16" fill="none" xmlns="http://www.w3.org/2000/svg">
<g clip-path="url(#clip0_5_817)">
<path d="M2.75 8H13.25C13.3163 8 13.3799 7.97366 13.4268 7.92678C13.4737 7.87989 13.5 7.8163 13.5 7.75V5.5C13.5001 5.43432 13.4872 5.36927 13.4621 5.30858C13.437 5.24788 13.4002 5.19272 13.3538 5.14625L9.85375 1.64625C9.80728 1.59983 9.75212 1.56303 9.69143 1.53793C9.63073 1.51284 9.56568 1.49995 9.5 1.5H3.5C3.23478 1.5 2.98043 1.60536 2.79289 1.79289C2.60536 1.98043 2.5 2.23478 2.5 2.5V7.75C2.5 7.8163 2.52634 7.87989 2.57322 7.92678C2.62011 7.97366 2.6837 8 2.75 8ZM9.5 2.75L12.25 5.5H9.5V2.75ZM4.25 10V13C4.25 13.1326 4.19732 13.2598 4.10355 13.3536C4.00979 13.4473 3.88261 13.5 3.75 13.5C3.61739 13.5 3.49021 13.4473 3.39645 13.3536C3.30268 13.2598 3.25 13.1326 3.25 13V12H2V13C2 13.1326 1.94732 13.2598 1.85355 13.3536C1.75979 13.4473 1.63261 13.5 1.5 13.5C1.36739 13.5 1.24021 13.4473 1.14645 13.3536C1.05268 13.2598 1 13.1326 1 13V10C1 9.86739 1.05268 9.74021 1.14645 9.64645C1.24021 9.55268 1.36739 9.5 1.5 9.5C1.63261 9.5 1.75979 9.55268 1.85355 9.64645C1.94732 9.74021 2 9.86739 2 10V11H3.25V10C3.25 9.86739 3.30268 9.74021 3.39645 9.64645C3.49021 9.55268 3.61739 9.5 3.75 9.5C3.88261 9.5 4.00979 9.55268 4.10355 9.64645C4.19732 9.74021 4.25 9.86739 4.25 10ZM7.75 10C7.75 10.1326 7.69732 10.2598 7.60355 10.3536C7.50979 10.4473 7.38261 10.5 7.25 10.5H6.75V13C6.75 13.1326 6.69732 13.2598 6.60355 13.3536C6.50979 13.4473 6.38261 13.5 6.25 13.5C6.11739 13.5 5.99021 13.4473 5.89645 13.3536C5.80268 13.2598 5.75 13.1326 5.75 13V10.5H5.25C5.11739 10.5 4.99021 10.4473 4.89645 10.3536C4.80268 10.2598 4.75 10.1326 4.75 10C4.75 9.86739 4.80268 9.74021 4.89645 9.64645C4.99021 9.55268 5.11739 9.5 5.25 9.5H7.25C7.38261 9.5 7.50979 9.55268 7.60355 9.64645C7.69732 9.74021 7.75 9.86739 7.75 10ZM12.25 10V13C12.25 13.1326 12.1973 13.2598 12.1036 13.3536C12.0098 13.4473 11.8826 13.5 11.75 13.5C11.6174 13.5 11.4902 13.4473 11.3964 13.3536C11.3027 13.2598 11.25 13.1326 11.25 13V11.5L10.65 12.3C10.6034 12.3621 10.543 12.4125 10.4736 12.4472C10.4042 12.4819 10.3276 12.5 10.25 12.5C10.1724 12.5 10.0958 12.4819 10.0264 12.4472C9.95697 12.4125 9.89657 12.3621 9.85 12.3L9.25 11.5V13C9.25 13.1326 9.19732 13.2598 9.10355 13.3536C9.00979 13.4473 8.88261 13.5 8.75 13.5C8.61739 13.5 8.49021 13.4473 8.39645 13.3536C8.30268 13.2598 8.25 13.1326 8.25 13V10C8.25 9.89506 8.28302 9.79278 8.34438 9.70764C8.40574 9.62251 8.49233 9.55884 8.59189 9.52566C8.69144 9.49247 8.79892 9.49145 8.89908 9.52274C8.99925 9.55403 9.08704 9.61605 9.15 9.7L10.25 11.1669L11.35 9.7C11.413 9.61605 11.5007 9.55403 11.6009 9.52274C11.7011 9.49145 11.8086 9.49247 11.9081 9.52566C12.0077 9.55884 12.0943 9.62251 12.1556 9.70764C12.217 9.79278 12.25 9.89506 12.25 10ZM15.75 13C15.75 13.1326 15.6973 13.2598 15.6036 13.3536C15.5098 13.4473 15.3826 13.5 15.25 13.5H13.5C13.3674 13.5 13.2402 13.4473 13.1464 13.3536C13.0527 13.2598 13 13.1326 13 13V10C13 9.86739 13.0527 9.74021 13.1464 9.64645C13.2402 9.55268 13.3674 9.5 13.5 9.5C13.6326 9.5 13.7598 9.55268 13.8536 9.64645C13.9473 9.74021 14 9.86739 14 10V12.5H15.25C15.3826 12.5 15.5098 12.5527 15.6036 12.6464C15.6973 12.7402 15.75 12.8674 15.75 13Z" fill="black"/>
</g>
<defs>
<clipPath id="clip0_5_817">
<rect width="16" height="16" fill="white"/>
</clipPath>
</defs>
</svg>
