<svg width="16" height="16" viewBox="0 0 16 16" fill="none" xmlns="http://www.w3.org/2000/svg">
<g clip-path="url(#clip0_5_823)">
<path d="M3 11.25C3 11.9375 3.44875 12.5 4 12.5C4.11849 12.4978 4.23532 12.4718 4.34347 12.4233C4.45163 12.3749 4.54887 12.3051 4.62937 12.2181C4.71598 12.1268 4.8332 12.0706 4.95864 12.0602C5.08408 12.0498 5.20894 12.086 5.30937 12.1619C5.36408 12.205 5.40917 12.2591 5.44176 12.3207C5.47434 12.3823 5.49369 12.45 5.49858 12.5195C5.50346 12.589 5.49377 12.6587 5.47012 12.7242C5.44647 12.7898 5.40939 12.8496 5.36125 12.9C5.18715 13.0874 4.97661 13.2373 4.74254 13.3405C4.50847 13.4436 4.25579 13.4979 4 13.5C2.89688 13.5 2 12.4906 2 11.25C2 10.0094 2.89688 9 4 9C4.24976 9.00191 4.49662 9.05371 4.72609 9.15234C4.95555 9.25098 5.163 9.39446 5.33625 9.57438C5.42894 9.66337 5.48506 9.78377 5.49361 9.91198C5.50217 10.0402 5.46254 10.167 5.3825 10.2675C5.3373 10.3212 5.2813 10.3648 5.21814 10.3954C5.15498 10.426 5.08608 10.443 5.01592 10.4453C4.94576 10.4475 4.87592 10.435 4.81094 10.4084C4.74595 10.3819 4.68729 10.342 4.63875 10.2913C4.55759 10.2019 4.45911 10.1301 4.3493 10.08C4.2395 10.0299 4.12065 10.0027 4 10C3.44875 10 3 10.5625 3 11.25ZM13.5 5.5V13.9844C13.5018 14.1062 13.4599 14.2247 13.3818 14.3183C13.3037 14.4119 13.1946 14.4743 13.0744 14.4944C13.0032 14.5051 12.9306 14.5003 12.8615 14.4804C12.7924 14.4604 12.7284 14.4258 12.6738 14.3789C12.6193 14.332 12.5755 14.2738 12.5455 14.2084C12.5155 14.143 12.5 14.0719 12.5 14V7.75C12.5 7.6837 12.4737 7.62011 12.4268 7.57322C12.3799 7.52634 12.3163 7.5 12.25 7.5H2.75C2.6837 7.5 2.62011 7.47366 2.57322 7.42678C2.52634 7.37989 2.5 7.3163 2.5 7.25V2.5C2.5 2.23478 2.60536 1.98043 2.79289 1.79289C2.98043 1.60536 3.23478 1.5 3.5 1.5H9.5C9.56568 1.49995 9.63073 1.51284 9.69143 1.53793C9.75212 1.56303 9.80728 1.59983 9.85375 1.64625L13.3538 5.14625C13.4002 5.19272 13.437 5.24788 13.4621 5.30858C13.4872 5.36927 13.5001 5.43432 13.5 5.5ZM12.25 5.5L9.5 2.75V5.5H12.25ZM10.5 10.5V11.5H10.9831C11.1122 11.4983 11.2371 11.5454 11.3327 11.6321C11.4284 11.7187 11.4877 11.8383 11.4987 11.9669C11.5033 12.0353 11.4937 12.1039 11.4706 12.1684C11.4475 12.2329 11.4114 12.292 11.3646 12.342C11.3177 12.392 11.261 12.4319 11.1981 12.459C11.1351 12.4862 11.0673 12.5002 10.9987 12.5H10.4987V12.9831C10.5005 13.1122 10.4533 13.2371 10.3667 13.3327C10.2801 13.4284 10.1604 13.4877 10.0319 13.4987C9.96348 13.5033 9.89489 13.4937 9.83035 13.4706C9.76581 13.4475 9.7067 13.4114 9.65671 13.3646C9.60671 13.3177 9.56689 13.261 9.53972 13.1981C9.51254 13.1351 9.4986 13.0673 9.49875 12.9987V12.4987H8.5V12.9819C8.50174 13.1109 8.45455 13.2358 8.36794 13.3315C8.28132 13.4271 8.1617 13.4865 8.03312 13.4975C7.96473 13.502 7.89614 13.4925 7.8316 13.4694C7.76706 13.4463 7.70795 13.4102 7.65796 13.3633C7.60796 13.3164 7.56814 13.2597 7.54097 13.1968C7.51379 13.1339 7.49985 13.066 7.5 12.9975V12.4975H7.01687C6.88784 12.4992 6.76293 12.4521 6.66727 12.3654C6.57161 12.2788 6.51229 12.1592 6.50125 12.0306C6.49671 11.9622 6.50628 11.8936 6.52936 11.8291C6.55245 11.7646 6.58856 11.7055 6.63545 11.6555C6.68234 11.6055 6.73901 11.5656 6.80194 11.5385C6.86486 11.5113 6.93271 11.4973 7.00125 11.4975H7.50125V10.5H7.01813C6.88909 10.5017 6.76418 10.4546 6.66852 10.3679C6.57286 10.2813 6.51355 10.1617 6.5025 10.0331C6.49796 9.96473 6.50753 9.89613 6.53061 9.8316C6.5537 9.76706 6.58981 9.70795 6.6367 9.65796C6.68359 9.60796 6.74026 9.56814 6.80319 9.54097C6.86611 9.51379 6.93396 9.49985 7.0025 9.5H7.5025V9.01688C7.50076 8.88784 7.54795 8.76293 7.63456 8.66727C7.72118 8.57161 7.8408 8.5123 7.96938 8.50125C8.03777 8.49671 8.10636 8.50628 8.1709 8.52936C8.23544 8.55245 8.29455 8.58856 8.34454 8.63545C8.39454 8.68234 8.43436 8.73901 8.46153 8.80194C8.48871 8.86486 8.50265 8.93271 8.5025 9.00125V9.50125H9.5025V9.01812C9.50076 8.88909 9.54795 8.76418 9.63456 8.66852C9.72118 8.57286 9.8408 8.51354 9.96937 8.5025C10.0378 8.49796 10.1064 8.50753 10.1709 8.53061C10.2354 8.5537 10.2945 8.58981 10.3445 8.6367C10.3945 8.68359 10.4344 8.74026 10.4615 8.80319C10.4887 8.86611 10.5027 8.93396 10.5025 9.0025V9.5025H10.9856C11.1147 9.50076 11.2396 9.54795 11.3352 9.63456C11.4309 9.72118 11.4902 9.8408 11.5013 9.96937C11.5058 10.0378 11.4962 10.1064 11.4731 10.1709C11.4501 10.2354 11.4139 10.2945 11.3671 10.3445C11.3202 10.3945 11.2635 10.4344 11.2006 10.4615C11.1376 10.4887 11.0698 10.5027 11.0013 10.5025L10.5 10.5ZM9.5 10.5H8.5V11.5H9.5V10.5Z" fill="black"/>
</g>
<defs>
<clipPath id="clip0_5_823">
<rect width="16" height="16" fill="white"/>
</clipPath>
</defs>
</svg>
