<svg width="16" height="16" viewBox="0 0 16 16" fill="none" xmlns="http://www.w3.org/2000/svg">
<g clip-path="url(#clip0_5_1351)">
<path d="M9.9162 13.7225C9.96645 13.7978 9.99531 13.8854 9.99969 13.9758C10.0041 14.0662 9.98381 14.1562 9.94108 14.236C9.89834 14.3158 9.83474 14.3825 9.75704 14.429C9.67935 14.4755 9.59049 14.5001 9.49995 14.5H1.49995C1.41012 14.5 1.32193 14.4759 1.24467 14.43C1.1674 14.3842 1.10392 14.3184 1.06088 14.2396C1.01784 14.1607 0.996836 14.0717 1.00008 13.9819C1.00333 13.8922 1.0307 13.8049 1.07933 13.7294L3.32933 10.2294C3.3746 10.1589 3.43683 10.101 3.51033 10.0609C3.58382 10.0207 3.66621 9.9997 3.74995 9.9997C3.83369 9.9997 3.91608 10.0207 3.98957 10.0609C4.06307 10.101 4.1253 10.1589 4.17058 10.2294L4.78058 11.1781L6.0837 9.2225C6.12934 9.15392 6.19122 9.09767 6.26384 9.05877C6.33646 9.01987 6.41757 8.99951 6.49995 8.99951C6.58233 8.99951 6.66344 9.01987 6.73606 9.05877C6.80868 9.09767 6.87056 9.15392 6.9162 9.2225L9.9162 13.7225ZM13.5 5.5V13.5C13.5 13.7652 13.3946 14.0196 13.2071 14.2071C13.0195 14.3946 12.7652 14.5 12.5 14.5H12C11.8673 14.5 11.7402 14.4473 11.6464 14.3536C11.5526 14.2598 11.5 14.1326 11.5 14C11.5 13.8674 11.5526 13.7402 11.6464 13.6464C11.7402 13.5527 11.8673 13.5 12 13.5H12.5V6H9.49995C9.36734 6 9.24016 5.94732 9.1464 5.85355C9.05263 5.75979 8.99995 5.63261 8.99995 5.5V2.5H3.49995V8C3.49995 8.13261 3.44727 8.25979 3.3535 8.35355C3.25974 8.44732 3.13256 8.5 2.99995 8.5C2.86734 8.5 2.74016 8.44732 2.6464 8.35355C2.55263 8.25979 2.49995 8.13261 2.49995 8V2.5C2.49995 2.23478 2.60531 1.98043 2.79284 1.79289C2.98038 1.60536 3.23473 1.5 3.49995 1.5H9.49995C9.56563 1.49995 9.63068 1.51284 9.69138 1.53793C9.75207 1.56303 9.80723 1.59983 9.8537 1.64625L13.3537 5.14625C13.4001 5.19272 13.4369 5.24788 13.462 5.30858C13.4871 5.36927 13.5 5.43432 13.5 5.5ZM9.99995 5H11.7931L9.99995 3.20688V5Z" fill="black"/>
</g>
<defs>
<clipPath id="clip0_5_1351">
<rect width="16" height="16" fill="white"/>
</clipPath>
</defs>
</svg>
