<svg width="16" height="16" viewBox="0 0 16 16" fill="none" xmlns="http://www.w3.org/2000/svg">
<g clip-path="url(#clip0_5_1403)">
<path d="M13.3538 5.14625L9.85375 1.64625C9.80728 1.59983 9.75212 1.56303 9.69143 1.53793C9.63073 1.51284 9.56568 1.49995 9.5 1.5H3.5C3.23478 1.5 2.98043 1.60536 2.79289 1.79289C2.60536 1.98043 2.5 2.23478 2.5 2.5V13.5C2.5 13.7652 2.60536 14.0196 2.79289 14.2071C2.98043 14.3946 3.23478 14.5 3.5 14.5H12.5C12.7652 14.5 13.0196 14.3946 13.2071 14.2071C13.3946 14.0196 13.5 13.7652 13.5 13.5V5.5C13.5001 5.43432 13.4872 5.36927 13.4621 5.30858C13.437 5.24788 13.4002 5.19272 13.3538 5.14625ZM6.85375 10.6462C6.90021 10.6927 6.93706 10.7479 6.9622 10.8086C6.98734 10.8692 7.00028 10.9343 7.00028 11C7.00028 11.0657 6.98734 11.1308 6.9622 11.1914C6.93706 11.2521 6.90021 11.3073 6.85375 11.3538C6.8073 11.4002 6.75214 11.4371 6.69145 11.4622C6.63075 11.4873 6.5657 11.5003 6.5 11.5003C6.4343 11.5003 6.36925 11.4873 6.30855 11.4622C6.24786 11.4371 6.1927 11.4002 6.14625 11.3538L4.64625 9.85375C4.59976 9.80731 4.56288 9.75217 4.53772 9.69147C4.51256 9.63077 4.49961 9.56571 4.49961 9.5C4.49961 9.43429 4.51256 9.36923 4.53772 9.30853C4.56288 9.24783 4.59976 9.19269 4.64625 9.14625L6.14625 7.64625C6.24007 7.55243 6.36732 7.49972 6.5 7.49972C6.63268 7.49972 6.75993 7.55243 6.85375 7.64625C6.94757 7.74007 7.00028 7.86732 7.00028 8C7.00028 8.13268 6.94757 8.25993 6.85375 8.35375L5.70687 9.5L6.85375 10.6462ZM11.3538 9.85375L9.85375 11.3538C9.75993 11.4476 9.63268 11.5003 9.5 11.5003C9.36732 11.5003 9.24007 11.4476 9.14625 11.3538C9.05243 11.2599 8.99972 11.1327 8.99972 11C8.99972 10.8673 9.05243 10.7401 9.14625 10.6462L10.2931 9.5L9.14625 8.35375C9.05243 8.25993 8.99972 8.13268 8.99972 8C8.99972 7.86732 9.05243 7.74007 9.14625 7.64625C9.24007 7.55243 9.36732 7.49972 9.5 7.49972C9.63268 7.49972 9.75993 7.55243 9.85375 7.64625L11.3538 9.14625C11.4002 9.19269 11.4371 9.24783 11.4623 9.30853C11.4874 9.36923 11.5004 9.43429 11.5004 9.5C11.5004 9.56571 11.4874 9.63077 11.4623 9.69147C11.4371 9.75217 11.4002 9.80731 11.3538 9.85375ZM9.5 5.5V2.75L12.25 5.5H9.5Z" fill="black"/>
</g>
<defs>
<clipPath id="clip0_5_1403">
<rect width="16" height="16" fill="white"/>
</clipPath>
</defs>
</svg>
