<svg width="16" height="16" viewBox="0 0 16 16" fill="none" xmlns="http://www.w3.org/2000/svg">
<g clip-path="url(#clip0_5_1413)">
<path d="M3 11.25C3 11.9375 3.44875 12.5 4 12.5C4.11849 12.4978 4.23532 12.4718 4.34347 12.4233C4.45163 12.3749 4.54887 12.3051 4.62937 12.2181C4.71598 12.1268 4.8332 12.0706 4.95864 12.0602C5.08408 12.0498 5.20894 12.086 5.30937 12.1619C5.36408 12.205 5.40917 12.2591 5.44176 12.3207C5.47434 12.3823 5.49369 12.45 5.49858 12.5195C5.50346 12.589 5.49377 12.6587 5.47012 12.7242C5.44647 12.7898 5.40939 12.8496 5.36125 12.9C5.18715 13.0874 4.97661 13.2373 4.74254 13.3405C4.50847 13.4436 4.25579 13.4979 4 13.5C2.89688 13.5 2 12.4906 2 11.25C2 10.0094 2.89688 9 4 9C4.24987 9.00183 4.49684 9.05358 4.72642 9.15222C4.956 9.25086 5.16355 9.39439 5.33687 9.57438C5.42934 9.66353 5.48526 9.78395 5.49369 9.91212C5.50213 10.0403 5.46249 10.167 5.3825 10.2675C5.3373 10.3212 5.2813 10.3648 5.21814 10.3954C5.15498 10.426 5.08608 10.443 5.01592 10.4453C4.94576 10.4475 4.87592 10.435 4.81094 10.4084C4.74595 10.3819 4.68729 10.342 4.63875 10.2913C4.55759 10.2019 4.45911 10.1301 4.3493 10.08C4.2395 10.0299 4.12065 10.0027 4 10C3.44875 10 3 10.5625 3 11.25ZM13.5 5.5V13.5C13.5 13.7652 13.3946 14.0196 13.2071 14.2071C13.0196 14.3946 12.7652 14.5 12.5 14.5H7.25C7.1837 14.5 7.12011 14.4737 7.07322 14.4268C7.02634 14.3799 7 14.3163 7 14.25V7.75C7 7.6837 6.97366 7.62011 6.92678 7.57322C6.87989 7.52634 6.8163 7.5 6.75 7.5H2.75C2.6837 7.5 2.62011 7.47366 2.57322 7.42678C2.52634 7.37989 2.5 7.3163 2.5 7.25V2.5C2.5 2.23478 2.60536 1.98043 2.79289 1.79289C2.98043 1.60536 3.23478 1.5 3.5 1.5H9.5C9.56568 1.49995 9.63073 1.51284 9.69143 1.53793C9.75212 1.56303 9.80728 1.59983 9.85375 1.64625L13.3538 5.14625C13.4002 5.19272 13.437 5.24788 13.4621 5.30858C13.4872 5.36927 13.5001 5.43432 13.5 5.5ZM12.25 5.5L9.5 2.75V5.5H12.25Z" fill="black"/>
</g>
<defs>
<clipPath id="clip0_5_1413">
<rect width="16" height="16" fill="white"/>
</clipPath>
</defs>
</svg>
