<svg width="16" height="16" viewBox="0 0 16 16" fill="none" xmlns="http://www.w3.org/2000/svg">
<g clip-path="url(#clip0_5_806)">
<path d="M2.74995 7.5H13.25C13.3163 7.5 13.3798 7.47366 13.4267 7.42678C13.4736 7.37989 13.5 7.3163 13.5 7.25V5.5C13.5 5.43432 13.4871 5.36927 13.462 5.30858C13.4369 5.24788 13.4001 5.19272 13.3537 5.14625L9.8537 1.64625C9.80723 1.59983 9.75208 1.56303 9.69138 1.53793C9.63068 1.51284 9.56563 1.49995 9.49995 1.5H3.49995C3.23474 1.5 2.98038 1.60536 2.79285 1.79289C2.60531 1.98043 2.49995 2.23478 2.49995 2.5V7.25C2.49995 7.3163 2.52629 7.37989 2.57318 7.42678C2.62006 7.47366 2.68365 7.5 2.74995 7.5ZM9.49995 2.75L12.25 5.5H9.49995V2.75ZM3.74995 9H2.74995C2.61734 9 2.49017 9.05268 2.3964 9.14645C2.30263 9.24021 2.24995 9.36739 2.24995 9.5V12.9825C2.24774 13.1119 2.29471 13.2372 2.38137 13.3333C2.46803 13.4294 2.58793 13.4889 2.71683 13.5C2.78522 13.5045 2.85382 13.495 2.91836 13.4719C2.9829 13.4488 3.042 13.4127 3.092 13.3658C3.14199 13.3189 3.18181 13.2622 3.20899 13.1993C3.23616 13.1364 3.2501 13.0685 3.24995 13V12.5H3.71245C4.66495 12.5 5.4712 11.755 5.49933 10.8031C5.50644 10.5689 5.46645 10.3357 5.38174 10.1172C5.29702 9.8988 5.1693 9.69959 5.00615 9.53143C4.843 9.36326 4.64774 9.22957 4.43196 9.13829C4.21617 9.047 3.98425 8.99998 3.74995 9ZM3.72808 11.5H3.24995V10H3.74995C3.85485 9.99951 3.95869 10.021 4.05476 10.0632C4.15082 10.1053 4.23698 10.1671 4.30766 10.2446C4.37834 10.3222 4.43197 10.4136 4.4651 10.5132C4.49822 10.6127 4.51009 10.7181 4.49995 10.8225C4.47813 11.011 4.38708 11.1847 4.24446 11.3099C4.10185 11.4351 3.91782 11.5028 3.72808 11.5ZM14 12.5544C13.9999 12.6844 13.9493 12.8092 13.8587 12.9025C13.6847 13.0891 13.4744 13.2383 13.2408 13.3411C13.0072 13.4438 12.7551 13.4979 12.5 13.5C11.3975 13.5 10.5 12.4906 10.5 11.25C10.5 10.0094 11.3975 9 12.5 9C12.8576 9.00109 13.2071 9.10666 13.5056 9.30375C13.614 9.37134 13.6933 9.47697 13.728 9.59996C13.7627 9.72295 13.7502 9.85446 13.6931 9.96875C13.6602 10.0308 13.6147 10.0851 13.5594 10.1284C13.5041 10.1716 13.4404 10.2027 13.3723 10.2197C13.3042 10.2367 13.2333 10.2392 13.1642 10.2269C13.0951 10.2147 13.0293 10.1881 12.9712 10.1488C12.833 10.0522 12.6685 10.0003 12.5 10C11.9487 10 11.5 10.5625 11.5 11.25C11.5 11.9375 11.9487 12.5 12.5 12.5C12.6805 12.498 12.8556 12.4384 13 12.33V12C12.9314 12.0002 12.8636 11.9862 12.8006 11.959C12.7377 11.9319 12.681 11.892 12.6342 11.842C12.5873 11.792 12.5512 11.7329 12.5281 11.6684C12.505 11.6039 12.4954 11.5353 12.5 11.4669C12.511 11.3383 12.5703 11.2187 12.666 11.1321C12.7616 11.0454 12.8865 10.9983 13.0156 11H13.5C13.6326 11 13.7597 11.0527 13.8535 11.1464C13.9473 11.2402 14 11.3674 14 11.5V12.5544ZM9.74995 9.5V12.985C9.75123 13.0765 9.72804 13.1667 9.68277 13.2463C9.6375 13.3258 9.57179 13.3919 9.49245 13.4375C9.38506 13.497 9.25952 13.5149 9.13977 13.4879C9.02001 13.4608 8.9144 13.3906 8.84308 13.2906L7.24995 11.0625V12.985C7.25185 13.1141 7.20474 13.2392 7.11811 13.335C7.03147 13.4308 6.91176 13.4902 6.78308 13.5013C6.71468 13.5058 6.64609 13.4962 6.58155 13.4731C6.51701 13.4501 6.45791 13.4139 6.40791 13.3671C6.35791 13.3202 6.31809 13.2635 6.29092 13.2006C6.26375 13.1376 6.2498 13.0698 6.24995 13.0013V9.51937C6.24827 9.42236 6.27393 9.32682 6.324 9.2437C6.37407 9.16059 6.44653 9.09324 6.53308 9.04937C6.63937 8.99795 6.76044 8.9858 6.87484 9.01509C6.98923 9.04437 7.08957 9.1132 7.15808 9.20938L8.74995 11.4375V9.51688C8.74822 9.38784 8.7954 9.26293 8.88202 9.16727C8.96863 9.07161 9.08825 9.0123 9.21683 9.00125C9.28512 8.99672 9.35361 9.00625 9.41806 9.02926C9.48252 9.05227 9.54156 9.08827 9.59154 9.13502C9.64152 9.18178 9.68136 9.2383 9.70861 9.30108C9.73586 9.36386 9.74993 9.43156 9.74995 9.5Z" fill="black"/>
</g>
<defs>
<clipPath id="clip0_5_806">
<rect width="16" height="16" fill="white"/>
</clipPath>
</defs>
</svg>
