<svg width="16" height="16" viewBox="0 0 16 16" fill="none" xmlns="http://www.w3.org/2000/svg">
<g clip-path="url(#clip0_5_1417)">
<path d="M9.5 11.25C9.49949 11.691 9.38391 12.1242 9.16468 12.5069C8.94546 12.8896 8.63018 13.2084 8.25 13.4319C8.13615 13.4886 8.00498 13.4997 7.88319 13.4631C7.7614 13.4265 7.65813 13.3448 7.59442 13.2348C7.53071 13.1247 7.51133 12.9945 7.54023 12.8707C7.56914 12.7468 7.64415 12.6386 7.75 12.5681C7.97923 12.4328 8.1692 12.2401 8.30118 12.0089C8.43316 11.7778 8.50258 11.5162 8.50258 11.25C8.50258 10.9838 8.43316 10.7222 8.30118 10.4911C8.1692 10.2599 7.97923 10.0672 7.75 9.93188C7.64415 9.86138 7.56914 9.7532 7.54023 9.62935C7.51133 9.5055 7.53071 9.37529 7.59442 9.26522C7.65813 9.15515 7.7614 9.0735 7.88319 9.03689C8.00498 9.00027 8.13615 9.01144 8.25 9.06812C8.63018 9.29162 8.94546 9.61045 9.16468 9.9931C9.38391 10.3758 9.49949 10.809 9.5 11.25ZM6.19125 8.03813C6.0999 8.00023 5.99936 7.99027 5.90235 8.00952C5.80534 8.02876 5.71621 8.07635 5.64625 8.14625L4.29313 9.5H3C2.86739 9.5 2.74021 9.55268 2.64645 9.64645C2.55268 9.74021 2.5 9.86739 2.5 10V12.5C2.5 12.6326 2.55268 12.7598 2.64645 12.8536C2.74021 12.9473 2.86739 13 3 13H4.29313L5.64625 14.3538C5.71618 14.4238 5.8053 14.4714 5.90235 14.4908C5.99939 14.5101 6.09998 14.5002 6.1914 14.4623C6.28281 14.4244 6.36092 14.3603 6.41586 14.278C6.4708 14.1957 6.50008 14.0989 6.5 14V8.5C6.49998 8.40111 6.47064 8.30445 6.41568 8.22223C6.36072 8.14002 6.28262 8.07595 6.19125 8.03813ZM13.5 5.5V13.5C13.5 13.7652 13.3946 14.0196 13.2071 14.2071C13.0196 14.3946 12.7652 14.5 12.5 14.5H10.5C10.3674 14.5 10.2402 14.4473 10.1464 14.3536C10.0527 14.2598 10 14.1326 10 14C10 13.8674 10.0527 13.7402 10.1464 13.6464C10.2402 13.5527 10.3674 13.5 10.5 13.5H12.5V6H9.5C9.36739 6 9.24021 5.94732 9.14645 5.85355C9.05268 5.75979 9 5.63261 9 5.5V2.5H3.5V7.5C3.5 7.63261 3.44732 7.75979 3.35355 7.85355C3.25979 7.94732 3.13261 8 3 8C2.86739 8 2.74021 7.94732 2.64645 7.85355C2.55268 7.75979 2.5 7.63261 2.5 7.5V2.5C2.5 2.23478 2.60536 1.98043 2.79289 1.79289C2.98043 1.60536 3.23478 1.5 3.5 1.5H9.5C9.56568 1.49995 9.63073 1.51284 9.69143 1.53793C9.75212 1.56303 9.80728 1.59983 9.85375 1.64625L13.3538 5.14625C13.4002 5.19272 13.437 5.24788 13.4621 5.30858C13.4872 5.36927 13.5001 5.43432 13.5 5.5ZM10 5H11.7931L10 3.20688V5Z" fill="black"/>
</g>
<defs>
<clipPath id="clip0_5_1417">
<rect width="16" height="16" fill="white"/>
</clipPath>
</defs>
</svg>
