<svg width="16" height="16" viewBox="0 0 16 16" fill="none" xmlns="http://www.w3.org/2000/svg">
<g clip-path="url(#clip0_5_867)">
<path d="M13.3537 5.14625L9.85373 1.64625C9.80726 1.59983 9.7521 1.56303 9.69141 1.53793C9.63071 1.51284 9.56566 1.49995 9.49998 1.5H3.49998C3.23476 1.5 2.98041 1.60536 2.79287 1.79289C2.60534 1.98043 2.49998 2.23478 2.49998 2.5V7.25C2.49998 7.3163 2.52632 7.37989 2.5732 7.42678C2.62009 7.47366 2.68368 7.5 2.74998 7.5H13.25C13.3163 7.5 13.3799 7.47366 13.4268 7.42678C13.4736 7.37989 13.5 7.3163 13.5 7.25V5.5C13.5 5.43432 13.4871 5.36927 13.462 5.30858C13.437 5.24788 13.4001 5.19272 13.3537 5.14625ZM9.49998 5.5V2.75L12.25 5.5H9.49998ZM5.45998 9.6875L4.21686 13.1681C4.18233 13.2655 4.11848 13.3498 4.03409 13.4094C3.94971 13.469 3.84892 13.501 3.74561 13.501C3.64229 13.501 3.54151 13.469 3.45712 13.4094C3.37273 13.3498 3.30889 13.2655 3.27436 13.1681L2.03123 9.6875C1.98467 9.56339 1.98795 9.42607 2.04037 9.30432C2.0928 9.18257 2.19032 9.08583 2.31248 9.03438C2.37484 9.00988 2.44149 8.99817 2.50847 8.99994C2.57544 9.00171 2.64138 9.01692 2.70236 9.04467C2.76334 9.07243 2.81812 9.11215 2.86345 9.16149C2.90878 9.21082 2.94373 9.26877 2.96623 9.33187L3.74561 11.5131L4.52498 9.33187C4.54748 9.26877 4.58243 9.21082 4.62776 9.16149C4.67309 9.11215 4.72787 9.07243 4.78885 9.04467C4.84983 9.01692 4.91577 9.00171 4.98275 8.99994C5.04972 8.99817 5.11637 9.00988 5.17873 9.03438C5.30079 9.08596 5.3982 9.18271 5.45062 9.30441C5.50303 9.42612 5.50638 9.56338 5.45998 9.6875ZM11.5 10V10.75H12.4831C12.6122 10.7484 12.7371 10.7956 12.8328 10.8822C12.9285 10.9688 12.988 11.0883 12.9994 11.2169C13.0039 11.2853 12.9943 11.3539 12.9712 11.4184C12.9482 11.4829 12.912 11.542 12.8652 11.592C12.8183 11.642 12.7616 11.6819 12.6987 11.709C12.6357 11.7362 12.5679 11.7502 12.4994 11.75H11.5V12.5H12.9831C13.1122 12.4983 13.2372 12.5454 13.333 12.632C13.4287 12.7186 13.4882 12.8382 13.4994 12.9669C13.5039 13.0353 13.4943 13.1039 13.4712 13.1684C13.4482 13.2329 13.412 13.292 13.3652 13.342C13.3183 13.392 13.2616 13.4319 13.1987 13.459C13.1357 13.4862 13.0679 13.5002 12.9994 13.5H11C10.8674 13.5 10.7402 13.4473 10.6464 13.3536C10.5527 13.2598 10.5 13.1326 10.5 13V9.5C10.5 9.36739 10.5527 9.24021 10.6464 9.14645C10.7402 9.05268 10.8674 9 11 9H12.9837C13.1128 8.99825 13.2378 9.04541 13.3336 9.13202C13.4293 9.21862 13.4888 9.33825 13.5 9.46688C13.5045 9.53527 13.495 9.60387 13.4719 9.6684C13.4488 9.73294 13.4127 9.79205 13.3658 9.84204C13.3189 9.89204 13.2622 9.93186 13.1993 9.95903C13.1364 9.98621 13.0685 10.0002 13 10H11.5ZM9.49998 9.5V11.8406C9.49998 12.7244 8.80811 13.4731 7.92373 13.4994C7.70632 13.5059 7.48981 13.4687 7.28703 13.39C7.08426 13.3113 6.89935 13.1927 6.74326 13.0412C6.58717 12.8897 6.46308 12.7085 6.37835 12.5081C6.29362 12.3078 6.24997 12.0925 6.24998 11.875V9.51688C6.24839 9.38788 6.29563 9.26305 6.38221 9.16743C6.4688 9.0718 6.58834 9.01244 6.71686 9.00125C6.7853 8.99662 6.85396 9.00612 6.91858 9.02917C6.98319 9.05221 7.04237 9.08831 7.09244 9.13521C7.1425 9.18211 7.18238 9.23881 7.20959 9.30178C7.2368 9.36475 7.25076 9.43265 7.25061 9.50125V11.8544C7.24831 12.015 7.30658 12.1706 7.41382 12.2903C7.52107 12.4099 7.66941 12.4848 7.82936 12.5C7.91519 12.5063 8.00139 12.4948 8.08257 12.4662C8.16374 12.4376 8.23814 12.3926 8.3011 12.3339C8.36406 12.2752 8.41422 12.2042 8.44844 12.1252C8.48266 12.0462 8.50021 11.9611 8.49998 11.875V9.51688C8.49839 9.38788 8.54563 9.26305 8.63221 9.16743C8.7188 9.0718 8.83834 9.01244 8.96686 9.00125C9.03514 8.99672 9.10364 9.00625 9.16809 9.02926C9.23254 9.05227 9.29159 9.08827 9.34157 9.13502C9.39154 9.18178 9.43139 9.2383 9.45864 9.30108C9.48589 9.36386 9.49996 9.43156 9.49998 9.5Z" fill="black"/>
</g>
<defs>
<clipPath id="clip0_5_867">
<rect width="16" height="16" fill="white"/>
</clipPath>
</defs>
</svg>
