<svg width="16" height="16" viewBox="0 0 16 16" fill="none" xmlns="http://www.w3.org/2000/svg">
<g clip-path="url(#clip0_5_1271)">
<path d="M13.3537 5.14625L9.85374 1.64625C9.80727 1.59983 9.75211 1.56303 9.69141 1.53793C9.63071 1.51284 9.56567 1.49995 9.49999 1.5H3.49999C3.23477 1.5 2.98042 1.60536 2.79288 1.79289C2.60534 1.98043 2.49999 2.23478 2.49999 2.5V7.25C2.49999 7.3163 2.52632 7.37989 2.57321 7.42678C2.62009 7.47366 2.68368 7.5 2.74999 7.5H13.25C13.3163 7.5 13.3799 7.47366 13.4268 7.42678C13.4736 7.37989 13.5 7.3163 13.5 7.25V5.5C13.5 5.43432 13.4871 5.36927 13.4621 5.30858C13.437 5.24788 13.4002 5.19272 13.3537 5.14625ZM9.49999 5.5V2.75L12.25 5.5H9.49999ZM9.23811 12.2694C9.21862 12.4606 9.15701 12.6452 9.0577 12.8097C8.95838 12.9743 8.82384 13.1149 8.66374 13.2212C8.33936 13.4375 7.93749 13.5 7.57061 13.5C7.25014 13.4986 6.93114 13.4566 6.62124 13.375C6.49352 13.3393 6.38522 13.2543 6.32017 13.1387C6.25512 13.0231 6.23864 12.8865 6.27436 12.7587C6.31008 12.631 6.39508 12.5227 6.51065 12.4577C6.62621 12.3926 6.76289 12.3762 6.89061 12.4119C7.16436 12.4875 7.82811 12.5813 8.11249 12.39C8.16749 12.3525 8.22686 12.295 8.24624 12.1444C8.26749 11.9775 8.20124 11.8881 7.44749 11.67C6.86311 11.5013 5.88499 11.2181 6.00999 10.225C6.02965 10.0377 6.09023 9.85694 6.18743 9.69559C6.28462 9.53424 6.41607 9.39621 6.57249 9.29125C7.31311 8.79125 8.49249 9.08437 8.62499 9.11875C8.75328 9.15248 8.86293 9.2358 8.9298 9.35037C8.99666 9.46495 9.01528 9.60139 8.98155 9.72969C8.94782 9.85799 8.8645 9.96763 8.74993 10.0345C8.63535 10.1014 8.49891 10.12 8.37061 10.0863C8.08999 10.0131 7.41874 9.92625 7.13124 10.1213C7.09366 10.1468 7.06272 10.1809 7.04098 10.2208C7.01924 10.2607 7.00733 10.3052 7.00624 10.3506C6.99936 10.4069 6.99811 10.4181 7.07624 10.4694C7.22061 10.5625 7.47936 10.6369 7.72936 10.7094C8.34311 10.8856 9.37499 11.1875 9.23811 12.2694ZM4.99999 9.5V11.8375C4.99999 12.7269 4.30124 13.4794 3.41186 13.4994C3.19736 13.5043 2.98402 13.4666 2.78415 13.3886C2.58427 13.3107 2.40182 13.1939 2.24731 13.045C2.09281 12.8961 1.96932 12.7181 1.88396 12.5213C1.7986 12.3245 1.75307 12.1127 1.74999 11.8981C1.74612 11.7694 1.79106 11.6439 1.87578 11.5469C1.96051 11.4499 2.07877 11.3885 2.20686 11.375C2.27723 11.3689 2.3481 11.3777 2.41479 11.401C2.48149 11.4242 2.54251 11.4613 2.59382 11.5099C2.64514 11.5584 2.68559 11.6173 2.7125 11.6826C2.73942 11.7479 2.75219 11.8182 2.74999 11.8888C2.74376 11.9867 2.76361 12.0847 2.80753 12.1725C2.85144 12.2603 2.91785 12.3349 2.99999 12.3888C3.49061 12.69 3.99999 12.3413 3.99999 11.8763V9.51688C3.99793 9.38763 4.04497 9.26241 4.13162 9.16648C4.21826 9.07055 4.33807 9.01106 4.46686 9C4.53525 8.99546 4.60385 9.00503 4.66839 9.02811C4.73293 9.0512 4.79203 9.08731 4.84203 9.1342C4.89202 9.18109 4.93185 9.23776 4.95902 9.30069C4.98619 9.36361 5.00014 9.43146 4.99999 9.5ZM13.4069 9.79062L12.3644 11.25L13.4069 12.7094C13.477 12.8173 13.5028 12.9482 13.4789 13.0747C13.455 13.2012 13.3833 13.3136 13.2785 13.3885C13.1738 13.4634 13.0443 13.495 12.9168 13.4768C12.7894 13.4586 12.6739 13.3919 12.5944 13.2906L11.75 12.11L10.9069 13.2906C10.8701 13.3473 10.8222 13.3958 10.7661 13.4335C10.71 13.4711 10.6468 13.4969 10.5805 13.5095C10.5141 13.522 10.4459 13.521 10.3799 13.5064C10.314 13.4919 10.2516 13.4641 10.1967 13.4248C10.1418 13.3855 10.0954 13.3355 10.0603 13.2778C10.0252 13.22 10.0022 13.1558 9.99267 13.089C9.9831 13.0221 9.98718 12.954 10.0047 12.8888C10.0221 12.8235 10.0527 12.7625 10.0944 12.7094L11.1356 11.25L10.0931 9.79062C10.023 9.68268 9.99714 9.55183 10.021 9.42532C10.0449 9.29881 10.1167 9.1864 10.2214 9.1115C10.3261 9.03659 10.4557 9.00496 10.5832 9.02319C10.7106 9.04142 10.8261 9.10811 10.9056 9.20938L11.75 10.39L12.5931 9.20938C12.6726 9.10811 12.7881 9.04142 12.9156 9.02319C13.043 9.00496 13.1726 9.03659 13.2773 9.1115C13.382 9.1864 13.4538 9.29881 13.4777 9.42532C13.5016 9.55183 13.4758 9.68268 13.4056 9.79062H13.4069Z" fill="black"/>
</g>
<defs>
<clipPath id="clip0_5_1271">
<rect width="16" height="16" fill="white"/>
</clipPath>
</defs>
</svg>
