<svg width="16" height="16" viewBox="0 0 16 16" fill="none" xmlns="http://www.w3.org/2000/svg">
<g clip-path="url(#clip0_5_1355)">
<path d="M9.6445 9.8075L8.6145 11.25L9.64762 12.6962C9.72335 12.7996 9.75754 12.9275 9.74342 13.0549C9.7293 13.1822 9.6679 13.2995 9.57137 13.3837C9.51856 13.428 9.45716 13.4609 9.39103 13.4804C9.3249 13.4998 9.25547 13.5053 9.18709 13.4966C9.11872 13.4879 9.05288 13.4652 8.99371 13.4299C8.93454 13.3945 8.88331 13.3473 8.84325 13.2913L8.00012 12.11L7.157 13.2906C7.11698 13.3467 7.06582 13.3938 7.00673 13.4292C6.94764 13.4645 6.88188 13.4873 6.81358 13.496C6.74528 13.5048 6.67591 13.4993 6.60982 13.48C6.54373 13.4607 6.48234 13.4279 6.4295 13.3837C6.33275 13.2997 6.27114 13.1824 6.2569 13.055C6.24266 12.9276 6.27683 12.7996 6.35262 12.6962L7.38575 11.25L6.35575 9.8075C6.27714 9.70089 6.24275 9.56803 6.25975 9.43667C6.27675 9.30531 6.34384 9.18559 6.447 9.1025C6.50025 9.06189 6.56111 9.03239 6.62598 9.01576C6.69085 8.99912 6.7584 8.99568 6.82462 9.00565C6.89084 9.01562 6.95438 9.03879 7.01148 9.07379C7.06858 9.10878 7.11806 9.15489 7.157 9.20938L8.00012 10.39L8.84325 9.20938C8.88218 9.15489 8.93167 9.10878 8.98876 9.07379C9.04586 9.03879 9.1094 9.01562 9.17562 9.00565C9.24185 8.99568 9.3094 8.99912 9.37426 9.01576C9.43913 9.03239 9.5 9.06189 9.55325 9.1025C9.65641 9.18559 9.72349 9.30531 9.74049 9.43667C9.7575 9.56803 9.7231 9.70089 9.6445 9.8075ZM5.25012 9H2.767C2.63779 8.99809 2.51265 9.04518 2.41676 9.1318C2.32086 9.21842 2.26132 9.33814 2.25012 9.46688C2.24558 9.53527 2.25515 9.60387 2.27824 9.6684C2.30132 9.73294 2.33743 9.79205 2.38432 9.84204C2.43121 9.89204 2.48788 9.93186 2.55081 9.95903C2.61374 9.98621 2.68158 10.0002 2.75012 10H3.50012V12.9831C3.49807 13.1124 3.54511 13.2376 3.63175 13.3335C3.7184 13.4294 3.83821 13.4889 3.967 13.5C4.03539 13.5045 4.10399 13.495 4.16853 13.4719C4.23307 13.4488 4.29217 13.4127 4.34216 13.3658C4.39216 13.3189 4.43198 13.2622 4.45916 13.1993C4.48633 13.1364 4.50027 13.0685 4.50012 13V10H5.23325C5.36246 10.0019 5.48759 9.95482 5.58349 9.8682C5.67938 9.78158 5.73892 9.66186 5.75012 9.53312C5.75466 9.46473 5.74509 9.39613 5.72201 9.3316C5.69892 9.26706 5.66281 9.20795 5.61592 9.15796C5.56903 9.10796 5.51236 9.06814 5.44944 9.04097C5.38651 9.01379 5.31867 8.99985 5.25012 9ZM13.2501 9H10.767C10.638 8.99841 10.5132 9.04564 10.4175 9.13223C10.3219 9.21882 10.2626 9.33836 10.2514 9.46688C10.2468 9.53527 10.2564 9.60387 10.2795 9.6684C10.3026 9.73294 10.3387 9.79205 10.3856 9.84204C10.4325 9.89204 10.4891 9.93186 10.5521 9.95903C10.615 9.98621 10.6828 10.0002 10.7514 10H11.5014V12.9831C11.4996 13.1122 11.5468 13.2371 11.6334 13.3327C11.72 13.4284 11.8397 13.4877 11.9682 13.4987C12.0366 13.5033 12.1052 13.4937 12.1698 13.4706C12.2343 13.4475 12.2934 13.4114 12.3434 13.3646C12.3934 13.3177 12.4332 13.261 12.4604 13.1981C12.4876 13.1351 12.5015 13.0673 12.5014 12.9987V10H13.2345C13.3635 10.0016 13.4883 9.95436 13.5839 9.86777C13.6796 9.78118 13.7389 9.66164 13.7501 9.53312C13.7547 9.46473 13.7451 9.39613 13.722 9.3316C13.6989 9.26706 13.6628 9.20795 13.6159 9.15796C13.569 9.10796 13.5124 9.06814 13.4494 9.04097C13.3865 9.01379 13.3187 8.99985 13.2501 9ZM2.50012 7.25V2.5C2.50012 2.23478 2.60548 1.98043 2.79302 1.79289C2.98055 1.60536 3.23491 1.5 3.50012 1.5H9.50012C9.5658 1.49995 9.63085 1.51284 9.69155 1.53793C9.75224 1.56303 9.8074 1.59983 9.85387 1.64625L13.3539 5.14625C13.4003 5.19272 13.4371 5.24788 13.4622 5.30858C13.4873 5.36927 13.5002 5.43432 13.5001 5.5V7.25C13.5001 7.3163 13.4738 7.37989 13.4269 7.42678C13.38 7.47366 13.3164 7.5 13.2501 7.5H2.75012C2.68382 7.5 2.62023 7.47366 2.57335 7.42678C2.52646 7.37989 2.50012 7.3163 2.50012 7.25ZM9.50012 5.5H12.2501L9.50012 2.75V5.5Z" fill="black"/>
</g>
<defs>
<clipPath id="clip0_5_1355">
<rect width="16" height="16" fill="white"/>
</clipPath>
</defs>
</svg>
