<svg width="16" height="16" viewBox="0 0 16 16" fill="none" xmlns="http://www.w3.org/2000/svg">
<g clip-path="url(#clip0_5_1233)">
<path d="M13.3537 5.14625L9.85369 1.64625C9.80722 1.59983 9.75207 1.56303 9.69137 1.53793C9.63067 1.51284 9.56562 1.49995 9.49994 1.5H3.49994C3.23473 1.5 2.98037 1.60536 2.79284 1.79289C2.6053 1.98043 2.49994 2.23478 2.49994 2.5V7.25C2.49994 7.3163 2.52628 7.37989 2.57317 7.42678C2.62005 7.47366 2.68364 7.5 2.74994 7.5H10.7499C10.8162 7.5 10.8798 7.52634 10.9267 7.57322C10.9736 7.62011 10.9999 7.6837 10.9999 7.75V14.25C10.9999 14.3163 11.0263 14.3799 11.0732 14.4268C11.1201 14.4737 11.1836 14.5 11.2499 14.5H12.4999C12.7652 14.5 13.0195 14.3946 13.207 14.2071C13.3946 14.0196 13.4999 13.7652 13.4999 13.5V5.5C13.5 5.43432 13.4871 5.36927 13.462 5.30858C13.4369 5.24788 13.4001 5.19272 13.3537 5.14625ZM9.49994 5.5V2.75L12.2499 5.5H9.49994ZM3.99994 9H2.99994C2.86733 9 2.74016 9.05268 2.64639 9.14645C2.55262 9.24021 2.49994 9.36739 2.49994 9.5V12.9831C2.49789 13.1124 2.54493 13.2376 2.63157 13.3335C2.71822 13.4294 2.83803 13.4889 2.96682 13.5C3.03521 13.5045 3.10381 13.495 3.16835 13.4719C3.23289 13.4488 3.29199 13.4127 3.34199 13.3658C3.39198 13.3189 3.4318 13.2622 3.45898 13.1993C3.48615 13.1364 3.50009 13.0685 3.49994 13V12.5H3.96244C4.91494 12.5 5.72119 11.755 5.74932 10.8031C5.75643 10.5689 5.71644 10.3357 5.63173 10.1172C5.54701 9.8988 5.41929 9.69959 5.25614 9.53143C5.09299 9.36326 4.89773 9.22957 4.68195 9.13829C4.46616 9.047 4.23424 8.99998 3.99994 9ZM3.97807 11.5H3.49994V10H3.99994C4.10484 9.99951 4.20868 10.021 4.30474 10.0632C4.40081 10.1053 4.48697 10.1671 4.55765 10.2446C4.62833 10.3222 4.68196 10.4136 4.71509 10.5132C4.74821 10.6127 4.76008 10.7181 4.74994 10.8225C4.72812 11.011 4.63707 11.1847 4.49445 11.3099C4.35184 11.4351 4.16781 11.5028 3.97807 11.5ZM9.66557 9.7825L8.49994 11.6431V12.9831C8.50168 13.1122 8.4545 13.2371 8.36788 13.3327C8.28126 13.4284 8.16164 13.4877 8.03307 13.4987C7.96467 13.5033 7.89608 13.4937 7.83154 13.4706C7.767 13.4475 7.7079 13.4114 7.6579 13.3646C7.6079 13.3177 7.56808 13.261 7.54091 13.1981C7.51374 13.1351 7.49979 13.0673 7.49994 12.9987V11.6431L6.33682 9.7825C6.26495 9.67118 6.23887 9.5364 6.26403 9.40631C6.28918 9.27622 6.36363 9.16088 6.47182 9.08438C6.52747 9.04716 6.59004 9.02151 6.6558 9.00893C6.72155 8.99636 6.78917 8.99712 6.85463 9.01117C6.92009 9.02521 6.98206 9.05226 7.03687 9.09071C7.09168 9.12916 7.1382 9.17823 7.17369 9.235L7.99994 10.5569L8.82619 9.235C8.86168 9.17823 8.90821 9.12916 8.96302 9.09071C9.01783 9.05226 9.0798 9.02521 9.14526 9.01117C9.21072 8.99712 9.27833 8.99636 9.34409 9.00893C9.40985 9.02151 9.47241 9.04716 9.52807 9.08438C9.63625 9.16088 9.7107 9.27622 9.73586 9.40631C9.76101 9.5364 9.73494 9.67118 9.66307 9.7825H9.66557Z" fill="black"/>
</g>
<defs>
<clipPath id="clip0_5_1233">
<rect width="16" height="16" fill="white"/>
</clipPath>
</defs>
</svg>
