<svg width="16" height="16" viewBox="0 0 16 16" fill="none" xmlns="http://www.w3.org/2000/svg">
<g clip-path="url(#clip0_5_1695)">
<path d="M2.75 7.5H13.2544C13.3207 7.5 13.3843 7.47366 13.4312 7.42678C13.478 7.3799 13.5044 7.31631 13.5044 7.25V5.5C13.5044 5.43432 13.4915 5.36928 13.4664 5.30858C13.4413 5.24788 13.4045 5.19272 13.3581 5.14625L9.85812 1.64625C9.81151 1.59969 9.75615 1.56279 9.69522 1.53769C9.6343 1.5126 9.56902 1.49979 9.50313 1.5H3.5C3.23478 1.5 2.98043 1.60536 2.79289 1.7929C2.60536 1.98043 2.5 2.23479 2.5 2.5V7.25C2.5 7.31631 2.52634 7.3799 2.57322 7.42678C2.62011 7.47366 2.6837 7.5 2.75 7.5ZM9.5 2.75L12.25 5.5H9.5V2.75ZM3.25 9H2.25C2.11739 9 1.99021 9.05268 1.89645 9.14645C1.80268 9.24022 1.75 9.36739 1.75 9.5V13C1.75 13.1326 1.80268 13.2598 1.89645 13.3536C1.99021 13.4473 2.11739 13.5 2.25 13.5H3.20813C4.4375 13.5 5.47187 12.5325 5.5 11.3044C5.50725 11.0044 5.45441 10.7059 5.34459 10.4266C5.23477 10.1473 5.07019 9.89285 4.86053 9.67812C4.65087 9.46339 4.40037 9.29278 4.12379 9.17632C3.8472 9.05986 3.55011 8.99992 3.25 9ZM3.21937 12.5H2.75V10H3.25C3.41828 9.99988 3.58486 10.0337 3.73974 10.0995C3.89462 10.1653 4.03462 10.2617 4.15134 10.383C4.26807 10.5042 4.35912 10.6477 4.41903 10.805C4.47894 10.9622 4.50648 11.13 4.5 11.2981C4.47438 11.9744 3.89687 12.5 3.22 12.5H3.21937ZM13.8862 12.2325C13.9662 12.333 14.0059 12.4597 13.9974 12.5879C13.989 12.7161 13.9331 12.8365 13.8406 12.9256C13.6672 13.1057 13.4596 13.2493 13.2299 13.3479C13.0002 13.4465 12.7531 13.4983 12.5031 13.5C11.4 13.5 10.5031 12.4906 10.5031 11.25C10.5031 10.0094 11.4006 9 12.5031 9C12.7531 9.00175 13.0002 9.05346 13.2299 9.1521C13.4596 9.25074 13.6672 9.39431 13.8406 9.57438C13.9331 9.66353 13.989 9.78395 13.9974 9.91212C14.0059 10.0403 13.9662 10.167 13.8862 10.2675C13.841 10.3212 13.785 10.3648 13.7219 10.3954C13.6587 10.426 13.5898 10.443 13.5197 10.4453C13.4495 10.4475 13.3797 10.435 13.3147 10.4084C13.2497 10.3819 13.191 10.342 13.1425 10.2913C13.0614 10.2018 12.9629 10.1299 12.8531 10.0798C12.7433 10.0298 12.6244 10.0026 12.5037 10C11.9525 10 11.5037 10.5625 11.5037 11.25C11.5037 11.9375 11.9525 12.5 12.5037 12.5C12.6245 12.4973 12.7435 12.4702 12.8534 12.4201C12.9633 12.37 13.0619 12.2981 13.1431 12.2088C13.1917 12.158 13.2503 12.1181 13.3153 12.0916C13.3803 12.065 13.4501 12.0525 13.5203 12.0547C13.5905 12.057 13.6594 12.074 13.7225 12.1046C13.7857 12.1352 13.8417 12.1788 13.8869 12.2325H13.8862ZM8 9C6.89687 9 6 10.0094 6 11.25C6 12.4906 6.89813 13.5 8 13.5C9.10187 13.5 10 12.4906 10 11.25C10 10.0094 9.10563 9 8 9ZM8 12.5C7.44812 12.5 7 11.9375 7 11.25C7 10.5625 7.44875 10 8 10C8.55125 10 9 10.5625 9 11.25C9 11.9375 8.55375 12.5 8 12.5Z" fill="black"/>
</g>
<defs>
<clipPath id="clip0_5_1695">
<rect width="16" height="16" fill="white"/>
</clipPath>
</defs>
</svg>
