<svg width="16" height="16" viewBox="0 0 16 16" fill="none" xmlns="http://www.w3.org/2000/svg">
<g clip-path="url(#clip0_5_1399)">
<path d="M2.75 7.5H13.25C13.3163 7.5 13.3799 7.47366 13.4268 7.42678C13.4737 7.37989 13.5 7.3163 13.5 7.25V5.5C13.5001 5.43432 13.4872 5.36927 13.4621 5.30858C13.437 5.24788 13.4002 5.19272 13.3538 5.14625L9.85375 1.64625C9.80728 1.59983 9.75212 1.56303 9.69143 1.53793C9.63073 1.51284 9.56568 1.49995 9.5 1.5H3.5C3.23478 1.5 2.98043 1.60536 2.79289 1.79289C2.60536 1.98043 2.5 2.23478 2.5 2.5V7.25C2.5 7.3163 2.52634 7.37989 2.57322 7.42678C2.62011 7.47366 2.6837 7.5 2.75 7.5ZM9.5 2.75L12.25 5.5H9.5V2.75ZM3 11.25C3 11.9375 3.44875 12.5 4 12.5C4.11849 12.4978 4.23532 12.4718 4.34347 12.4233C4.45163 12.3749 4.54887 12.3051 4.62937 12.2181C4.71598 12.1268 4.8332 12.0706 4.95864 12.0602C5.08408 12.0498 5.20894 12.086 5.30937 12.1619C5.36408 12.205 5.40917 12.2591 5.44176 12.3207C5.47434 12.3823 5.49369 12.45 5.49858 12.5195C5.50346 12.589 5.49377 12.6587 5.47012 12.7242C5.44647 12.7898 5.40939 12.8496 5.36125 12.9C5.18715 13.0874 4.97661 13.2373 4.74254 13.3405C4.50847 13.4436 4.25579 13.4979 4 13.5C2.89688 13.5 2 12.4906 2 11.25C2 10.0094 2.89688 9 4 9C4.24991 9.00191 4.49692 9.05376 4.7265 9.15251C4.95608 9.25125 5.16361 9.3949 5.33687 9.575C5.42943 9.66397 5.48541 9.78431 5.49385 9.91241C5.50229 10.0405 5.46258 10.1672 5.3825 10.2675C5.3373 10.3212 5.2813 10.3648 5.21814 10.3954C5.15498 10.426 5.08608 10.443 5.01592 10.4453C4.94576 10.4475 4.87592 10.435 4.81094 10.4084C4.74595 10.3819 4.68729 10.342 4.63875 10.2913C4.55773 10.2018 4.45928 10.1298 4.34944 10.0797C4.2396 10.0296 4.12069 10.0025 4 10C3.44875 10 3 10.5625 3 11.25ZM9.75 11.2831C9.73881 11.4116 9.67945 11.5312 9.58383 11.6178C9.4882 11.7044 9.36337 11.7516 9.23438 11.75H8.5V12.4831C8.50174 12.6122 8.45455 12.7371 8.36794 12.8327C8.28132 12.9284 8.1617 12.9877 8.03312 12.9987C7.96473 13.0033 7.89614 12.9937 7.8316 12.9706C7.76706 12.9475 7.70795 12.9114 7.65796 12.8646C7.60796 12.8177 7.56814 12.761 7.54097 12.6981C7.51379 12.6351 7.49985 12.5673 7.5 12.4987V11.75H6.76687C6.63788 11.7516 6.51305 11.7044 6.41743 11.6178C6.3218 11.5312 6.26244 11.4116 6.25125 11.2831C6.24671 11.2147 6.25628 11.1461 6.27936 11.0816C6.30245 11.0171 6.33856 10.958 6.38545 10.908C6.43234 10.858 6.48901 10.8181 6.55194 10.791C6.61486 10.7638 6.68271 10.7498 6.75125 10.75H7.50125V10.0169C7.49951 9.88784 7.5467 9.76293 7.63331 9.66727C7.71993 9.57161 7.83955 9.51229 7.96812 9.50125C8.03652 9.49671 8.10511 9.50628 8.16965 9.52936C8.23419 9.55245 8.2933 9.58856 8.34329 9.63545C8.39329 9.68234 8.43311 9.73901 8.46028 9.80194C8.48746 9.86486 8.5014 9.93271 8.50125 10.0013V10.7513H9.25125C9.31958 10.7513 9.38717 10.7653 9.44986 10.7925C9.51255 10.8197 9.56901 10.8594 9.61575 10.9092C9.66248 10.9591 9.69851 11.018 9.7216 11.0823C9.74469 11.1466 9.75436 11.2149 9.75 11.2831ZM14 11.2831C13.9888 11.4116 13.9295 11.5312 13.8338 11.6178C13.7382 11.7044 13.6134 11.7516 13.4844 11.75H12.75V12.4831C12.7517 12.6122 12.7046 12.7371 12.6179 12.8327C12.5313 12.9284 12.4117 12.9877 12.2831 12.9987C12.2147 13.0033 12.1461 12.9937 12.0816 12.9706C12.0171 12.9475 11.958 12.9114 11.908 12.8646C11.858 12.8177 11.8181 12.761 11.791 12.6981C11.7638 12.6351 11.7498 12.5673 11.75 12.4987V11.75H11.0169C10.8879 11.7516 10.7631 11.7044 10.6674 11.6178C10.5718 11.5312 10.5124 11.4116 10.5013 11.2831C10.4967 11.2147 10.5063 11.1461 10.5294 11.0816C10.5525 11.0171 10.5886 10.958 10.6354 10.908C10.6823 10.858 10.739 10.8181 10.8019 10.791C10.8649 10.7638 10.9327 10.7498 11.0013 10.75H11.7513V10.0169C11.7495 9.88784 11.7967 9.76293 11.8833 9.66727C11.9699 9.57161 12.0896 9.51229 12.2181 9.50125C12.2865 9.49671 12.3551 9.50628 12.4197 9.52936C12.4842 9.55245 12.5433 9.58856 12.5933 9.63545C12.6433 9.68234 12.6831 9.73901 12.7103 9.80194C12.7375 9.86486 12.7514 9.93271 12.7513 10.0013V10.7513H13.5013C13.5696 10.7513 13.6372 10.7653 13.6999 10.7925C13.7626 10.8197 13.819 10.8594 13.8657 10.9092C13.9125 10.9591 13.9485 11.018 13.9716 11.0823C13.9947 11.1466 14.0044 11.2149 14 11.2831Z" fill="black"/>
</g>
<defs>
<clipPath id="clip0_5_1399">
<rect width="16" height="16" fill="white"/>
</clipPath>
</defs>
</svg>
