<svg width="16" height="16" viewBox="0 0 16 16" fill="none" xmlns="http://www.w3.org/2000/svg">
<g clip-path="url(#clip0_5_1329)">
<path d="M11.5 9H10.5C10.3674 9 10.2402 9.05268 10.1464 9.14645C10.0527 9.24021 10 9.36739 10 9.5V12.9831C9.99826 13.1122 10.0454 13.2371 10.1321 13.3327C10.2187 13.4284 10.3383 13.4877 10.4669 13.4987C10.5353 13.5033 10.6039 13.4937 10.6684 13.4706C10.7329 13.4475 10.792 13.4114 10.842 13.3646C10.892 13.3177 10.9319 13.261 10.959 13.1981C10.9862 13.1351 11.0002 13.0673 11 12.9987V12.4987H11.4625C12.415 12.4987 13.2213 11.7537 13.2494 10.8019C13.2563 10.5678 13.2162 10.3347 13.1314 10.1164C13.0466 9.89808 12.9189 9.69902 12.7557 9.53099C12.5926 9.36296 12.3974 9.22939 12.1817 9.13818C11.966 9.04697 11.7342 8.99998 11.5 9ZM11.4781 11.5H11V10H11.5C11.6049 9.99951 11.7087 10.021 11.8048 10.0632C11.9009 10.1053 11.987 10.1671 12.0577 10.2446C12.1284 10.3222 12.182 10.4136 12.2151 10.5132C12.2483 10.6127 12.2601 10.7181 12.25 10.8225C12.2282 11.011 12.1371 11.1847 11.9945 11.3099C11.8519 11.4351 11.6679 11.5028 11.4781 11.5ZM8.5 9.5V12.9831C8.50174 13.1122 8.45455 13.2371 8.36794 13.3327C8.28132 13.4284 8.1617 13.4877 8.03312 13.4987C7.96473 13.5033 7.89614 13.4937 7.8316 13.4706C7.76706 13.4475 7.70795 13.4114 7.65796 13.3646C7.60796 13.3177 7.56814 13.261 7.54097 13.1981C7.51379 13.1351 7.49985 13.0673 7.5 12.9987V9.51688C7.49826 9.38784 7.54545 9.26293 7.63206 9.16727C7.71868 9.07161 7.8383 9.0123 7.96688 9.00125C8.03516 8.99672 8.10366 9.00625 8.16811 9.02926C8.23256 9.05227 8.29161 9.08827 8.34159 9.13502C8.39156 9.18178 8.43141 9.2383 8.45866 9.30108C8.48591 9.36386 8.49998 9.43156 8.5 9.5ZM6 13.0331C5.98894 13.1619 5.92945 13.2817 5.83352 13.3684C5.73759 13.455 5.61237 13.5021 5.48313 13.5H3.51437C3.44456 13.5006 3.37533 13.4871 3.31088 13.4603C3.24643 13.4334 3.18809 13.3938 3.13937 13.3438C3.0647 13.266 3.01718 13.1661 3.00389 13.0591C2.9906 12.9521 3.01225 12.8437 3.06562 12.75L4.63812 10H3.51688C3.38763 10.0021 3.26241 9.95502 3.16648 9.86837C3.07055 9.78172 3.01106 9.66192 3 9.53312C2.99546 9.46473 3.00503 9.39613 3.02811 9.3316C3.0512 9.26706 3.08731 9.20795 3.1342 9.15796C3.18109 9.10796 3.23776 9.06814 3.30069 9.04097C3.36361 9.01379 3.43146 8.99985 3.5 9H5.48562C5.55544 8.99937 5.62467 9.01288 5.68912 9.03974C5.75357 9.06659 5.81191 9.10623 5.86062 9.15625C5.93579 9.23367 5.9839 9.33333 5.99775 9.44035C6.01161 9.54736 5.99047 9.65599 5.9375 9.75L4.36188 12.5H5.5C5.56854 12.4998 5.63639 12.5138 5.69931 12.541C5.76224 12.5681 5.81891 12.608 5.8658 12.658C5.91269 12.708 5.9488 12.7671 5.97189 12.8316C5.99497 12.8961 6.00454 12.9647 6 13.0331ZM13.3538 5.14625L9.85375 1.64625C9.80728 1.59983 9.75212 1.56303 9.69143 1.53793C9.63073 1.51284 9.56568 1.49995 9.5 1.5H3.5C3.23478 1.5 2.98043 1.60536 2.79289 1.79289C2.60536 1.98043 2.5 2.23478 2.5 2.5V7.25C2.5 7.3163 2.52634 7.37989 2.57322 7.42678C2.62011 7.47366 2.6837 7.5 2.75 7.5H13.25C13.3163 7.5 13.3799 7.47366 13.4268 7.42678C13.4737 7.37989 13.5 7.3163 13.5 7.25V5.5C13.5001 5.43432 13.4872 5.36927 13.4621 5.30858C13.437 5.24788 13.4002 5.19272 13.3538 5.14625ZM9.5 5.5V2.75L12.25 5.5H9.5Z" fill="black"/>
</g>
<defs>
<clipPath id="clip0_5_1329">
<rect width="16" height="16" fill="white"/>
</clipPath>
</defs>
</svg>
