<svg width="16" height="16" viewBox="0 0 16 16" fill="none" xmlns="http://www.w3.org/2000/svg">
<g clip-path="url(#clip0_5_798)">
<path d="M13.3538 5.14625L9.85375 1.64625C9.80728 1.59983 9.75212 1.56303 9.69143 1.53793C9.63073 1.51284 9.56568 1.49995 9.5 1.5H3.5C3.23478 1.5 2.98043 1.60536 2.79289 1.79289C2.60536 1.98043 2.5 2.23478 2.5 2.5V13.5C2.5 13.7652 2.60536 14.0196 2.79289 14.2071C2.98043 14.3946 3.23478 14.5 3.5 14.5H12.5C12.7652 14.5 13.0196 14.3946 13.2071 14.2071C13.3946 14.0196 13.5 13.7652 13.5 13.5V5.5C13.5001 5.43432 13.4872 5.36927 13.4621 5.30858C13.437 5.24788 13.4002 5.19272 13.3538 5.14625ZM9.85375 10.6462C9.90021 10.6927 9.93706 10.7479 9.9622 10.8086C9.98734 10.8692 10.0003 10.9343 10.0003 11C10.0003 11.0657 9.98734 11.1308 9.9622 11.1914C9.93706 11.2521 9.90021 11.3073 9.85375 11.3538C9.8073 11.4002 9.75214 11.4371 9.69145 11.4622C9.63075 11.4873 9.5657 11.5003 9.5 11.5003C9.4343 11.5003 9.36925 11.4873 9.30855 11.4622C9.24786 11.4371 9.1927 11.4002 9.14625 11.3538L8 10.2069L6.85375 11.3538C6.8073 11.4002 6.75214 11.4371 6.69145 11.4622C6.63075 11.4873 6.5657 11.5003 6.5 11.5003C6.4343 11.5003 6.36925 11.4873 6.30855 11.4622C6.24786 11.4371 6.1927 11.4002 6.14625 11.3538C6.09979 11.3073 6.06294 11.2521 6.0378 11.1914C6.01266 11.1308 5.99972 11.0657 5.99972 11C5.99972 10.9343 6.01266 10.8692 6.0378 10.8086C6.06294 10.7479 6.09979 10.6927 6.14625 10.6462L7.29313 9.5L6.14625 8.35375C6.05243 8.25993 5.99972 8.13268 5.99972 8C5.99972 7.86732 6.05243 7.74007 6.14625 7.64625C6.24007 7.55243 6.36732 7.49972 6.5 7.49972C6.63268 7.49972 6.75993 7.55243 6.85375 7.64625L8 8.79313L9.14625 7.64625C9.1927 7.59979 9.24786 7.56294 9.30855 7.5378C9.36925 7.51266 9.4343 7.49972 9.5 7.49972C9.5657 7.49972 9.63075 7.51266 9.69145 7.5378C9.75214 7.56294 9.8073 7.59979 9.85375 7.64625C9.90021 7.6927 9.93706 7.74786 9.9622 7.80855C9.98734 7.86925 10.0003 7.9343 10.0003 8C10.0003 8.0657 9.98734 8.13075 9.9622 8.19145C9.93706 8.25214 9.90021 8.3073 9.85375 8.35375L8.70687 9.5L9.85375 10.6462ZM9.5 5.5V2.75L12.25 5.5H9.5Z" fill="black"/>
</g>
<defs>
<clipPath id="clip0_5_798">
<rect width="16" height="16" fill="white"/>
</clipPath>
</defs>
</svg>
