<svg width="16" height="16" viewBox="0 0 16 16" fill="none" xmlns="http://www.w3.org/2000/svg">
<g clip-path="url(#clip0_5_799)">
<path d="M13.3538 5.14625L9.85375 1.64625C9.80728 1.59983 9.75212 1.56303 9.69143 1.53793C9.63073 1.51284 9.56568 1.49995 9.5 1.5H3.5C3.23478 1.5 2.98043 1.60536 2.79289 1.79289C2.60536 1.98043 2.5 2.23478 2.5 2.5V7.25C2.5 7.3163 2.52634 7.37989 2.57322 7.42678C2.62011 7.47366 2.6837 7.5 2.75 7.5H13.25C13.3163 7.5 13.3799 7.47366 13.4268 7.42678C13.4737 7.37989 13.5 7.3163 13.5 7.25V5.5C13.5001 5.43432 13.4872 5.36927 13.4621 5.30858C13.437 5.24788 13.4002 5.19272 13.3538 5.14625ZM9.5 5.5V2.75L12.25 5.5H9.5ZM13.4069 9.79062L12.3644 11.25L13.4069 12.7094C13.477 12.8173 13.5028 12.9482 13.4789 13.0747C13.455 13.2012 13.3833 13.3136 13.2786 13.3885C13.1738 13.4634 13.0443 13.495 12.9168 13.4768C12.7894 13.4586 12.6739 13.3919 12.5944 13.2906L11.75 12.11L10.9069 13.2906C10.8701 13.3473 10.8222 13.3958 10.7661 13.4335C10.71 13.4711 10.6468 13.4969 10.5805 13.5095C10.5141 13.522 10.4459 13.521 10.3799 13.5064C10.314 13.4919 10.2517 13.4641 10.1967 13.4248C10.1418 13.3855 10.0954 13.3355 10.0603 13.2778C10.0253 13.22 10.0022 13.1558 9.99268 13.089C9.98311 13.0221 9.98719 12.954 10.0047 12.8888C10.0222 12.8235 10.0527 12.7625 10.0944 12.7094L11.1356 11.25L10.0931 9.79062C10.0533 9.73492 10.0253 9.67161 10.0109 9.60464C9.99652 9.53767 9.99606 9.46846 10.0095 9.4013C10.023 9.33414 10.0502 9.27047 10.0893 9.21423C10.1284 9.15799 10.1786 9.11039 10.2369 9.07438C10.3481 9.00886 10.48 8.98779 10.6061 9.01537C10.7321 9.04296 10.8432 9.11716 10.9169 9.22313L11.75 10.39L12.5931 9.20938C12.6726 9.10811 12.7881 9.04142 12.9156 9.02319C13.043 9.00496 13.1726 9.03659 13.2773 9.1115C13.382 9.1864 13.4538 9.29881 13.4777 9.42532C13.5016 9.55183 13.4758 9.68268 13.4056 9.79062H13.4069ZM9.23812 12.2694C9.21864 12.4606 9.15702 12.6452 9.05771 12.8097C8.9584 12.9743 8.82385 13.1149 8.66375 13.2212C8.33937 13.4375 7.9375 13.5 7.57062 13.5C7.2514 13.4985 6.93366 13.4565 6.625 13.375C6.56101 13.358 6.50104 13.3285 6.44855 13.2882C6.39606 13.2478 6.3521 13.1975 6.31922 13.14C6.28635 13.0826 6.26521 13.0191 6.25704 12.9535C6.24887 12.8878 6.25382 12.8211 6.27161 12.7573C6.2894 12.6936 6.31968 12.634 6.36069 12.582C6.40169 12.53 6.45261 12.4867 6.51049 12.4546C6.56836 12.4225 6.63204 12.4021 6.69783 12.3948C6.76363 12.3875 6.83022 12.3933 6.89375 12.4119C7.1675 12.4875 7.83125 12.5813 8.11563 12.39C8.17063 12.3525 8.23 12.295 8.24938 12.1444C8.27063 11.9775 8.20437 11.8881 7.45062 11.67C6.86625 11.5013 5.88812 11.2181 6.01312 10.225C6.03279 10.0377 6.09337 9.85694 6.19057 9.69559C6.28776 9.53424 6.41921 9.39621 6.57562 9.29125C7.31625 8.79125 8.49563 9.08437 8.62813 9.11875C8.75642 9.15248 8.86607 9.2358 8.93294 9.35037C8.9998 9.46495 9.01842 9.60139 8.98469 9.72969C8.95096 9.85799 8.86764 9.96763 8.75307 10.0345C8.63849 10.1014 8.50205 10.12 8.37375 10.0863C8.09312 10.0131 7.42188 9.92625 7.13438 10.1213C7.09669 10.1467 7.06566 10.1808 7.04391 10.2207C7.02216 10.2606 7.01031 10.3052 7.00938 10.3506C7.00187 10.4069 7.00063 10.4181 7.07875 10.4694C7.22312 10.5625 7.48187 10.6369 7.73187 10.7094C8.34312 10.8856 9.375 11.1875 9.23812 12.2694ZM5.5 9.53312C5.4888 9.66186 5.42926 9.78158 5.33337 9.8682C5.23747 9.95482 5.11233 10.0019 4.98313 10H4.25V12.9825C4.25207 13.1118 4.20505 13.2371 4.11841 13.3331C4.03178 13.4292 3.91197 13.4888 3.78312 13.5C3.71473 13.5045 3.64614 13.495 3.5816 13.4719C3.51706 13.4488 3.45795 13.4127 3.40796 13.3658C3.35796 13.3189 3.31814 13.2622 3.29097 13.1993C3.26379 13.1364 3.24985 13.0685 3.25 13V10H2.51687C2.38767 10.0019 2.26253 9.95482 2.16663 9.8682C2.07074 9.78158 2.0112 9.66186 2 9.53312C1.99546 9.46473 2.00503 9.39613 2.02811 9.3316C2.0512 9.26706 2.08731 9.20795 2.1342 9.15796C2.18109 9.10796 2.23776 9.06814 2.30069 9.04097C2.36361 9.01379 2.43146 8.99985 2.5 9H5C5.06854 8.99985 5.13639 9.01379 5.19931 9.04097C5.26224 9.06814 5.31891 9.10796 5.3658 9.15796C5.41269 9.20795 5.4488 9.26706 5.47189 9.3316C5.49497 9.39613 5.50454 9.46473 5.5 9.53312Z" fill="black"/>
</g>
<defs>
<clipPath id="clip0_5_799">
<rect width="16" height="16" fill="white"/>
</clipPath>
</defs>
</svg>
