<svg width="16" height="16" viewBox="0 0 16 16" fill="none" xmlns="http://www.w3.org/2000/svg">
<g clip-path="url(#clip0_5_1238)">
<path d="M14 9.53312C13.989 9.6617 13.9296 9.78132 13.834 9.86794C13.7383 9.95455 13.6134 10.0017 13.4844 10H12.75V12.9831C12.7517 13.1122 12.7046 13.2371 12.6179 13.3327C12.5313 13.4284 12.4117 13.4877 12.2831 13.4987C12.2147 13.5033 12.1461 13.4937 12.0816 13.4706C12.0171 13.4475 11.958 13.4114 11.908 13.3646C11.858 13.3177 11.8181 13.261 11.791 13.1981C11.7638 13.1351 11.7499 13.0673 11.75 12.9987V10H11.0169C10.8878 10.0017 10.7629 9.95455 10.6673 9.86794C10.5716 9.78132 10.5123 9.6617 10.5013 9.53312C10.4967 9.46473 10.5063 9.39613 10.5294 9.3316C10.5525 9.26706 10.5886 9.20795 10.6355 9.15796C10.6823 9.10796 10.739 9.06814 10.8019 9.04097C10.8649 9.01379 10.9327 8.99985 11.0013 9H13.5013C13.5697 9.00002 13.6374 9.01409 13.7002 9.04134C13.763 9.06859 13.8195 9.10844 13.8662 9.15841C13.913 9.20839 13.949 9.26744 13.972 9.33189C13.995 9.39634 14.0045 9.46484 14 9.53312ZM5.75 10.8031C5.72125 11.755 4.915 12.5 3.9625 12.5H3.5V12.9831C3.50206 13.1124 3.45502 13.2376 3.36837 13.3335C3.28172 13.4294 3.16192 13.4889 3.03313 13.5C2.96473 13.5045 2.89614 13.495 2.8316 13.4719C2.76706 13.4488 2.70795 13.4127 2.65796 13.3658C2.60796 13.3189 2.56814 13.2622 2.54097 13.1993C2.51379 13.1364 2.49985 13.0685 2.5 13V9.5C2.5 9.36739 2.55268 9.24021 2.64645 9.14645C2.74022 9.05268 2.86739 9 3 9H4C4.23435 8.99989 4.46634 9.04686 4.6822 9.1381C4.89806 9.22935 5.09339 9.36303 5.25661 9.5312C5.41982 9.69937 5.5476 9.89861 5.63235 10.1171C5.71711 10.3356 5.75712 10.5689 5.75 10.8031ZM4.75 10.6781C4.72832 10.4895 4.63734 10.3157 4.4947 10.1904C4.35207 10.0651 4.16797 9.99721 3.97813 10H3.5V11.5H4C4.1049 11.5005 4.20874 11.479 4.3048 11.4368C4.40087 11.3947 4.48702 11.3329 4.55771 11.2554C4.62839 11.1778 4.68202 11.0864 4.71515 10.9868C4.74827 10.8873 4.76014 10.7819 4.75 10.6775V10.6781ZM10 10.8031C9.97125 11.755 9.165 12.5 8.2125 12.5H7.75V12.9831C7.75174 13.1122 7.70455 13.2371 7.61794 13.3327C7.53132 13.4284 7.4117 13.4877 7.28313 13.4987C7.21473 13.5033 7.14614 13.4937 7.0816 13.4706C7.01706 13.4475 6.95795 13.4114 6.90796 13.3646C6.85796 13.3177 6.81814 13.261 6.79097 13.1981C6.76379 13.1351 6.74985 13.0673 6.75 12.9987V9.5C6.75 9.36739 6.80268 9.24021 6.89645 9.14645C6.99022 9.05268 7.11739 9 7.25 9H8.25C8.48435 8.99989 8.71634 9.04686 8.9322 9.1381C9.14806 9.22935 9.34339 9.36303 9.50661 9.5312C9.66982 9.69937 9.7976 9.89861 9.88235 10.1171C9.96711 10.3356 10.0071 10.5689 10 10.8031ZM9 10.6781C8.97832 10.4895 8.88734 10.3157 8.7447 10.1904C8.60207 10.0651 8.41797 9.99721 8.22813 10H7.75V11.5H8.25C8.3549 11.5005 8.45874 11.479 8.5548 11.4368C8.65087 11.3947 8.73703 11.3329 8.80771 11.2554C8.87839 11.1778 8.93202 11.0864 8.96515 10.9868C8.99827 10.8873 9.01014 10.7819 9 10.6775V10.6781ZM2.5 7.25V2.5C2.5 2.23478 2.60536 1.98043 2.79289 1.79289C2.98043 1.60536 3.23478 1.5 3.5 1.5H9.5C9.56568 1.49995 9.63073 1.51284 9.69143 1.53793C9.75212 1.56303 9.80728 1.59983 9.85375 1.64625L13.3538 5.14625C13.4002 5.19272 13.437 5.24788 13.4621 5.30858C13.4872 5.36927 13.5001 5.43432 13.5 5.5V7.25C13.5 7.3163 13.4737 7.37989 13.4268 7.42678C13.3799 7.47366 13.3163 7.5 13.25 7.5H2.75C2.6837 7.5 2.62011 7.47366 2.57322 7.42678C2.52634 7.37989 2.5 7.3163 2.5 7.25ZM9.5 5.5H12.25L9.5 2.75V5.5Z" fill="black"/>
</g>
<defs>
<clipPath id="clip0_5_1238">
<rect width="16" height="16" fill="white"/>
</clipPath>
</defs>
</svg>
