<svg width="16" height="16" viewBox="0 0 16 16" fill="none" xmlns="http://www.w3.org/2000/svg">
<g clip-path="url(#clip0_5_848)">
<path d="M10 11.3125C9.98267 12.1633 9.63275 12.9734 9.02523 13.5692C8.41771 14.1651 7.60094 14.4992 6.75 14.5H3.795C2.55438 14.5 1.5 13.4856 1.5 12.245C1.50104 11.8355 1.61381 11.4341 1.82616 11.084C2.0385 10.7338 2.34236 10.4483 2.705 10.2581C2.74681 10.2364 2.79392 10.2269 2.8409 10.2307C2.88787 10.2346 2.9328 10.2516 2.97051 10.2799C3.00821 10.3082 3.03714 10.3466 3.05397 10.3906C3.0708 10.4346 3.07484 10.4825 3.06562 10.5288C3.02433 10.7587 3.00341 10.9919 3.00312 11.2256C2.99992 11.3563 3.04662 11.4832 3.1337 11.5806C3.22078 11.678 3.34171 11.7386 3.47187 11.75C3.53986 11.7538 3.60792 11.7437 3.67186 11.7203C3.73581 11.6969 3.7943 11.6607 3.84375 11.6139C3.8932 11.5671 3.93257 11.5106 3.95944 11.4481C3.9863 11.3855 4.00011 11.3181 4 11.25C3.9992 10.8184 4.09241 10.3919 4.27313 10C4.56045 9.37264 5.05527 8.86351 5.67417 8.5584C6.29308 8.2533 6.99825 8.17087 7.67084 8.32502C8.34343 8.47916 8.94232 8.86046 9.36659 9.40464C9.79086 9.94882 10.0146 10.6226 10 11.3125ZM13.5 5.5V13.5C13.5 13.7652 13.3946 14.0196 13.2071 14.2071C13.0196 14.3946 12.7652 14.5 12.5 14.5H11C10.8674 14.5 10.7402 14.4473 10.6464 14.3536C10.5527 14.2598 10.5 14.1326 10.5 14C10.5 13.8674 10.5527 13.7402 10.6464 13.6464C10.7402 13.5527 10.8674 13.5 11 13.5H12.5V6H9.5C9.36739 6 9.24021 5.94732 9.14645 5.85355C9.05268 5.75979 9 5.63261 9 5.5V2.5H3.5V8C3.5 8.13261 3.44732 8.25979 3.35355 8.35355C3.25979 8.44732 3.13261 8.5 3 8.5C2.86739 8.5 2.74021 8.44732 2.64645 8.35355C2.55268 8.25979 2.5 8.13261 2.5 8V2.5C2.5 2.23478 2.60536 1.98043 2.79289 1.79289C2.98043 1.60536 3.23478 1.5 3.5 1.5H9.5C9.56568 1.49995 9.63073 1.51284 9.69143 1.53793C9.75212 1.56303 9.80728 1.59983 9.85375 1.64625L13.3538 5.14625C13.4002 5.19272 13.437 5.24788 13.4621 5.30858C13.4872 5.36927 13.5001 5.43432 13.5 5.5ZM11.7931 5L10 3.20688V5H11.7931Z" fill="black"/>
</g>
<defs>
<clipPath id="clip0_5_848">
<rect width="16" height="16" fill="white"/>
</clipPath>
</defs>
</svg>
