<svg width="16" height="16" viewBox="0 0 16 16" fill="none" xmlns="http://www.w3.org/2000/svg">
<g clip-path="url(#clip0_5_1334)">
<path d="M2.75015 7.5H13.2502C13.3165 7.5 13.38 7.47366 13.4269 7.42678C13.4738 7.37989 13.5002 7.3163 13.5002 7.25V5.5C13.5002 5.43432 13.4873 5.36927 13.4622 5.30858C13.4371 5.24788 13.4003 5.19272 13.3539 5.14625L9.8539 1.64625C9.80743 1.59983 9.75228 1.56303 9.69158 1.53793C9.63088 1.51284 9.56583 1.49995 9.50015 1.5H3.50015C3.23494 1.5 2.98058 1.60536 2.79305 1.79289C2.60551 1.98043 2.50015 2.23478 2.50015 2.5V7.25C2.50015 7.3163 2.52649 7.37989 2.57338 7.42678C2.62026 7.47366 2.68385 7.5 2.75015 7.5ZM9.50015 2.75L12.2502 5.5H9.50015V2.75ZM9.75015 13.0331C9.73897 13.1616 9.67961 13.2812 9.58398 13.3678C9.48835 13.4544 9.36352 13.5016 9.23453 13.5H7.50015C7.36754 13.5 7.24037 13.4473 7.1466 13.3536C7.05283 13.2598 7.00015 13.1326 7.00015 13V9.51688C6.99856 9.38788 7.0458 9.26305 7.13238 9.16743C7.21897 9.0718 7.33851 9.01244 7.46703 9.00125C7.53542 8.99671 7.60402 9.00628 7.66856 9.02936C7.7331 9.05245 7.7922 9.08856 7.8422 9.13545C7.89219 9.18234 7.93201 9.23901 7.95919 9.30194C7.98636 9.36486 8.0003 9.43271 8.00015 9.50125V12.5013H9.25015C9.31858 12.5011 9.38632 12.515 9.44915 12.5421C9.51199 12.5692 9.5686 12.6089 9.61547 12.6588C9.66234 12.7086 9.69848 12.7676 9.72165 12.832C9.74481 12.8964 9.75452 12.9648 9.75015 13.0331ZM5.90703 9.79062L4.86453 11.25L5.90703 12.7094C5.97719 12.8173 6.003 12.9482 5.9791 13.0747C5.9552 13.2012 5.88342 13.3136 5.77871 13.3885C5.674 13.4634 5.54443 13.495 5.41698 13.4768C5.28954 13.4586 5.17403 13.3919 5.09453 13.2906L4.25015 12.11L3.40703 13.2906C3.37022 13.3473 3.32232 13.3958 3.26623 13.4335C3.21013 13.4711 3.14699 13.4969 3.08062 13.5095C3.01426 13.522 2.94604 13.521 2.88009 13.5064C2.81413 13.4919 2.75181 13.4641 2.69688 13.4248C2.64195 13.3855 2.59555 13.3355 2.56048 13.2778C2.52541 13.22 2.5024 13.1558 2.49283 13.089C2.48327 13.0221 2.48735 12.954 2.50483 12.8888C2.5223 12.8235 2.55282 12.7625 2.59453 12.7094L3.63578 11.25L2.59328 9.79062C2.55342 9.73492 2.52543 9.67161 2.51106 9.60464C2.49668 9.53767 2.49621 9.46846 2.50969 9.4013C2.52317 9.33414 2.5503 9.27047 2.58941 9.21423C2.62852 9.15799 2.67876 9.11039 2.73703 9.07438C2.84825 9.00886 2.98011 8.98779 3.1062 9.01537C3.2323 9.04296 3.34332 9.11716 3.41703 9.22313L4.25015 10.39L5.09328 9.20938C5.17278 9.10811 5.28829 9.04142 5.41573 9.02319C5.54318 9.00496 5.67275 9.03659 5.77746 9.1115C5.88217 9.1864 5.95395 9.29881 5.97785 9.42532C6.00175 9.55183 5.97594 9.68268 5.90578 9.79062H5.90703ZM13.487 12.2694C13.4677 12.4606 13.4062 12.6451 13.3069 12.8097C13.2077 12.9743 13.0733 13.1148 12.9133 13.2212C12.5889 13.4375 12.1839 13.5 11.8202 13.5C11.4997 13.4986 11.1807 13.4566 10.8708 13.375C10.7431 13.3393 10.6348 13.2543 10.5697 13.1387C10.5047 13.0231 10.4882 12.8865 10.5239 12.7587C10.5596 12.631 10.6446 12.5227 10.7602 12.4577C10.8758 12.3926 11.0124 12.3762 11.1402 12.4119C11.4139 12.4875 12.0739 12.5813 12.3614 12.39C12.417 12.3525 12.4764 12.295 12.4958 12.1444C12.517 11.9775 12.4508 11.8881 11.697 11.67C11.1127 11.5013 10.1345 11.2181 10.2595 10.225C10.2788 10.0379 10.3389 9.85737 10.4356 9.69604C10.5322 9.53471 10.6631 9.39653 10.8189 9.29125C11.5589 8.79125 12.7389 9.08437 12.8708 9.11875C12.9991 9.15248 13.1087 9.2358 13.1756 9.35037C13.2425 9.46495 13.2611 9.60139 13.2273 9.72969C13.1936 9.85799 13.1103 9.96763 12.9957 10.0345C12.8811 10.1014 12.7447 10.12 12.6164 10.0863C12.3364 10.0131 11.6652 9.92625 11.3777 10.1213C11.34 10.1467 11.3089 10.1808 11.2872 10.2207C11.2654 10.2606 11.2536 10.3052 11.2527 10.3506C11.2458 10.4069 11.2445 10.4181 11.3227 10.4694C11.467 10.5625 11.7258 10.6369 11.9758 10.7094C12.5927 10.8856 13.6252 11.1875 13.487 12.2694Z" fill="black"/>
</g>
<defs>
<clipPath id="clip0_5_1334">
<rect width="16" height="16" fill="white"/>
</clipPath>
</defs>
</svg>
