<svg width="16" height="16" viewBox="0 0 16 16" fill="none" xmlns="http://www.w3.org/2000/svg">
<g clip-path="url(#clip0_5_812)">
<path d="M13.3537 5.14625L9.85374 1.64625C9.80727 1.59983 9.75211 1.56303 9.69141 1.53793C9.63071 1.51284 9.56567 1.49995 9.49999 1.5H3.49999C3.23477 1.5 2.98042 1.60536 2.79288 1.79289C2.60534 1.98043 2.49999 2.23478 2.49999 2.5V7.25C2.49999 7.3163 2.52632 7.37989 2.57321 7.42678C2.62009 7.47366 2.68368 7.5 2.74999 7.5H10.25C10.3163 7.5 10.3799 7.52634 10.4268 7.57322C10.4736 7.62011 10.5 7.6837 10.5 7.75V14.25C10.5 14.3163 10.5263 14.3799 10.5732 14.4268C10.6201 14.4737 10.6837 14.5 10.75 14.5H12.5C12.7652 14.5 13.0196 14.3946 13.2071 14.2071C13.3946 14.0196 13.5 13.7652 13.5 13.5V5.5C13.5 5.43432 13.4871 5.36927 13.4621 5.30858C13.437 5.24788 13.4002 5.19272 13.3537 5.14625ZM9.49999 5.5V2.75L12.25 5.5H9.49999ZM9.23811 12.2694C9.21862 12.4606 9.15701 12.6452 9.0577 12.8097C8.95838 12.9743 8.82384 13.1149 8.66374 13.2212C8.33936 13.4375 7.93749 13.5 7.57061 13.5C7.25017 13.4982 6.93123 13.4562 6.62124 13.375C6.49352 13.3393 6.38522 13.2543 6.32017 13.1387C6.25512 13.0231 6.23864 12.8865 6.27436 12.7587C6.31008 12.631 6.39508 12.5227 6.51065 12.4577C6.62621 12.3926 6.76289 12.3762 6.89061 12.4119C7.16436 12.4869 7.82811 12.5806 8.11249 12.3894C8.16749 12.3525 8.22686 12.2944 8.24624 12.1438C8.26749 11.9769 8.20124 11.8875 7.44749 11.6694C6.86311 11.5006 5.88499 11.2175 6.00999 10.225C6.02957 10.0376 6.0901 9.85671 6.1873 9.69524C6.2845 9.53378 6.416 9.39565 6.57249 9.29062C7.31311 8.79062 8.49249 9.08375 8.62499 9.11812C8.75328 9.15186 8.86293 9.23517 8.9298 9.34975C8.99666 9.46432 9.01528 9.60076 8.98155 9.72906C8.94782 9.85736 8.8645 9.967 8.74993 10.0339C8.63535 10.1007 8.49891 10.1194 8.37061 10.0856C8.08999 10.0125 7.41874 9.92562 7.13124 10.1206C7.09366 10.1462 7.06272 10.1803 7.04098 10.2202C7.01924 10.2601 7.00733 10.3046 7.00624 10.35C6.99936 10.4062 6.99811 10.4181 7.07624 10.4688C7.22061 10.5619 7.47936 10.6362 7.72936 10.7087C8.34311 10.8856 9.37499 11.1875 9.23811 12.2694ZM4.99999 9.5V11.8381C4.99999 12.7269 4.30124 13.4794 3.41186 13.4994C3.19736 13.5043 2.98402 13.4666 2.78415 13.3886C2.58427 13.3107 2.40182 13.1939 2.24731 13.045C2.09281 12.8961 1.96932 12.7181 1.88396 12.5213C1.7986 12.3245 1.75307 12.1127 1.74999 11.8981C1.74612 11.7694 1.79106 11.6439 1.87578 11.5469C1.96051 11.4499 2.07877 11.3885 2.20686 11.375C2.27723 11.3689 2.3481 11.3777 2.41479 11.401C2.48149 11.4242 2.54251 11.4613 2.59382 11.5099C2.64514 11.5584 2.68559 11.6173 2.7125 11.6826C2.73942 11.7479 2.75219 11.8182 2.74999 11.8888C2.74376 11.9867 2.76361 12.0847 2.80753 12.1725C2.85144 12.2603 2.91785 12.3349 2.99999 12.3888C3.49061 12.69 3.99999 12.3419 3.99999 11.8763V9.51688C3.99793 9.38763 4.04497 9.26241 4.13162 9.16648C4.21826 9.07055 4.33807 9.01106 4.46686 9C4.53525 8.99546 4.60385 9.00503 4.66839 9.02811C4.73293 9.0512 4.79203 9.08731 4.84203 9.1342C4.89202 9.18109 4.93185 9.23776 4.95902 9.30069C4.98619 9.36361 5.00014 9.43146 4.99999 9.5Z" fill="black"/>
</g>
<defs>
<clipPath id="clip0_5_812">
<rect width="16" height="16" fill="white"/>
</clipPath>
</defs>
</svg>
