<svg width="16" height="16" viewBox="0 0 16 16" fill="none" xmlns="http://www.w3.org/2000/svg">
<g clip-path="url(#clip0_5_1432)">
<path d="M13.3538 5.14625L9.85375 1.64625C9.80728 1.59983 9.75212 1.56303 9.69143 1.53793C9.63073 1.51284 9.56568 1.49995 9.5 1.5H3.5C3.23478 1.5 2.98043 1.60536 2.79289 1.79289C2.60536 1.98043 2.5 2.23478 2.5 2.5V13.5C2.5 13.7652 2.60536 14.0196 2.79289 14.2071C2.98043 14.3946 3.23478 14.5 3.5 14.5H5.75C5.8163 14.5 5.87989 14.4737 5.92678 14.4268C5.97366 14.3799 6 14.3163 6 14.25V13H5.51687C5.38763 13.0021 5.26241 12.955 5.16648 12.8684C5.07055 12.7817 5.01106 12.6619 5 12.5331C4.99546 12.4647 5.00503 12.3961 5.02811 12.3316C5.0512 12.2671 5.08731 12.208 5.1342 12.158C5.18109 12.108 5.23776 12.0681 5.30069 12.041C5.36361 12.0138 5.43146 11.9998 5.5 12H6V11H5.51687C5.38763 11.0021 5.26241 10.955 5.16648 10.8684C5.07055 10.7817 5.01106 10.6619 5 10.5331C4.99546 10.4647 5.00503 10.3961 5.02811 10.3316C5.0512 10.2671 5.08731 10.208 5.1342 10.158C5.18109 10.108 5.23776 10.0681 5.30069 10.041C5.36361 10.0138 5.43146 9.99985 5.5 10H6V9H5.51687C5.38763 9.00206 5.26241 8.95502 5.16648 8.86837C5.07055 8.78172 5.01106 8.66192 5 8.53312C4.99546 8.46473 5.00503 8.39613 5.02811 8.3316C5.0512 8.26706 5.08731 8.20795 5.1342 8.15796C5.18109 8.10796 5.23776 8.06814 5.30069 8.04097C5.36361 8.01379 5.43146 7.99985 5.5 8H6V7.51687C5.99841 7.38788 6.04564 7.26305 6.13223 7.16743C6.21882 7.0718 6.33836 7.01244 6.46688 7.00125C6.53527 6.99671 6.60386 7.00628 6.6684 7.02936C6.73294 7.05245 6.79205 7.08856 6.84204 7.13545C6.89204 7.18234 6.93186 7.23901 6.95903 7.30194C6.98621 7.36486 7.00015 7.43271 7 7.50125V8.00125H7.48313C7.61216 7.99951 7.73707 8.0467 7.83273 8.13331C7.92839 8.21993 7.98771 8.33955 7.99875 8.46813C8.00329 8.53652 7.99372 8.60511 7.97064 8.66965C7.94755 8.73419 7.91144 8.7933 7.86455 8.84329C7.81766 8.89329 7.76099 8.93311 7.69806 8.96028C7.63514 8.98746 7.56729 9.0014 7.49875 9.00125H6.99875V10.0013H7.48187C7.61091 9.99951 7.73582 10.0467 7.83148 10.1333C7.92714 10.2199 7.98645 10.3396 7.9975 10.4681C8.00204 10.5365 7.99247 10.6051 7.96939 10.6697C7.9463 10.7342 7.91019 10.7933 7.8633 10.8433C7.81641 10.8933 7.75974 10.9331 7.69681 10.9603C7.63389 10.9875 7.56604 11.0014 7.4975 11.0013H6.9975V12.0013H7.48063C7.60966 11.9995 7.73457 12.0467 7.83023 12.1333C7.92589 12.2199 7.98521 12.3396 7.99625 12.4681C8.00079 12.5365 7.99122 12.6051 7.96814 12.6697C7.94505 12.7342 7.90894 12.7933 7.86205 12.8433C7.81516 12.8933 7.75849 12.9331 7.69556 12.9603C7.63264 12.9875 7.56479 13.0014 7.49625 13.0013H6.99625V14.2513C6.99625 14.3176 7.02259 14.3811 7.06947 14.428C7.11636 14.4749 7.17995 14.5013 7.24625 14.5013H12.4963C12.7615 14.5013 13.0158 14.3959 13.2034 14.2084C13.3909 14.0208 13.4963 13.7665 13.4963 13.5013V5.5C13.4974 5.36789 13.4461 5.24071 13.3538 5.14625ZM9.5 5.5V2.75L12.25 5.5H9.5Z" fill="black"/>
</g>
<defs>
<clipPath id="clip0_5_1432">
<rect width="16" height="16" fill="white"/>
</clipPath>
</defs>
</svg>
