<svg width="16" height="16" viewBox="0 0 16 16" fill="none" xmlns="http://www.w3.org/2000/svg">
<g clip-path="url(#clip0_5_1663)">
<path d="M7.5 11H7V10.75C7 10.2859 6.81563 9.84075 6.48744 9.51256C6.15925 9.18437 5.71413 9 5.25 9C4.78587 9 4.34075 9.18437 4.01256 9.51256C3.68437 9.84075 3.5 10.2859 3.5 10.75V11H3C2.86739 11 2.74021 11.0527 2.64645 11.1464C2.55268 11.2402 2.5 11.3674 2.5 11.5V14C2.5 14.1326 2.55268 14.2598 2.64645 14.3536C2.74021 14.4473 2.86739 14.5 3 14.5H7.5C7.63261 14.5 7.75979 14.4473 7.85355 14.3536C7.94732 14.2598 8 14.1326 8 14V11.5C8 11.3674 7.94732 11.2402 7.85355 11.1464C7.75979 11.0527 7.63261 11 7.5 11ZM6 11H4.5V10.75C4.5 10.5511 4.57902 10.3603 4.71967 10.2197C4.86032 10.079 5.05109 10 5.25 10C5.44891 10 5.63968 10.079 5.78033 10.2197C5.92098 10.3603 6 10.5511 6 10.75V11ZM13.3538 5.14625L9.85375 1.64625C9.80728 1.59983 9.75212 1.56303 9.69143 1.53793C9.63073 1.51284 9.56568 1.49995 9.5 1.5H3.5C3.23478 1.5 2.98043 1.60536 2.79289 1.79289C2.60536 1.98043 2.5 2.23478 2.5 2.5V8C2.5 8.13261 2.55268 8.25979 2.64645 8.35355C2.74021 8.44732 2.86739 8.5 3 8.5C3.13261 8.5 3.25979 8.44732 3.35355 8.35355C3.44732 8.25979 3.5 8.13261 3.5 8V2.5H9V5.5C9 5.63261 9.05268 5.75979 9.14645 5.85355C9.24021 5.94732 9.36739 6 9.5 6H12.5V13.5H10C9.86739 13.5 9.74021 13.5527 9.64645 13.6464C9.55268 13.7402 9.5 13.8674 9.5 14C9.5 14.1326 9.55268 14.2598 9.64645 14.3536C9.74021 14.4473 9.86739 14.5 10 14.5H12.5C12.7652 14.5 13.0196 14.3946 13.2071 14.2071C13.3946 14.0196 13.5 13.7652 13.5 13.5V5.5C13.5001 5.43432 13.4872 5.36927 13.4621 5.30858C13.437 5.24788 13.4002 5.19272 13.3538 5.14625ZM10 3.20688L11.7931 5H10V3.20688Z" fill="black"/>
</g>
<defs>
<clipPath id="clip0_5_1663">
<rect width="16" height="16" fill="white"/>
</clipPath>
</defs>
</svg>
