<svg width="16" height="16" viewBox="0 0 16 16" fill="none" xmlns="http://www.w3.org/2000/svg">
<g clip-path="url(#clip0_5_1467)">
<path d="M2.75 7.5H13.25C13.3163 7.5 13.3799 7.47366 13.4268 7.42678C13.4737 7.37989 13.5 7.3163 13.5 7.25V5.5C13.5001 5.43432 13.4872 5.36927 13.4621 5.30858C13.437 5.24788 13.4002 5.19272 13.3538 5.14625L9.85375 1.64625C9.80728 1.59983 9.75212 1.56303 9.69143 1.53793C9.63073 1.51284 9.56568 1.49995 9.5 1.5H3.5C3.23478 1.5 2.98043 1.60536 2.79289 1.79289C2.60536 1.98043 2.5 2.23478 2.5 2.5V7.25C2.5 7.3163 2.52634 7.37989 2.57322 7.42678C2.62011 7.47366 2.6837 7.5 2.75 7.5ZM9.5 2.75L12.25 5.5H9.5V2.75ZM14.25 13.0331C14.2388 13.1616 14.1795 13.2812 14.0838 13.3678C13.9882 13.4544 13.8634 13.5016 13.7344 13.5H12C11.8674 13.5 11.7402 13.4473 11.6464 13.3536C11.5527 13.2598 11.5 13.1326 11.5 13V9.51688C11.4984 9.38788 11.5456 9.26305 11.6322 9.16743C11.7188 9.0718 11.8384 9.01244 11.9669 9.00125C12.0353 8.99671 12.1039 9.00628 12.1684 9.02936C12.2329 9.05245 12.292 9.08856 12.342 9.13545C12.392 9.18234 12.4319 9.23901 12.459 9.30194C12.4862 9.36486 12.5002 9.43271 12.5 9.50125V12.5013H13.75C13.8184 12.5011 13.8862 12.515 13.949 12.5421C14.0118 12.5692 14.0684 12.6089 14.1153 12.6588C14.1622 12.7086 14.1983 12.7676 14.2215 12.832C14.2447 12.8964 14.2544 12.9648 14.25 13.0331ZM5.73875 12.2694C5.71926 12.4606 5.65765 12.6452 5.55833 12.8097C5.45902 12.9743 5.32448 13.1149 5.16437 13.2212C4.84 13.4375 4.4375 13.5 4.07125 13.5C3.75183 13.4983 3.4339 13.4563 3.125 13.375C2.9988 13.338 2.89224 13.2528 2.82841 13.1379C2.76457 13.0229 2.74859 12.8874 2.78393 12.7608C2.81928 12.6341 2.9031 12.5265 3.01724 12.4612C3.13138 12.3959 3.26665 12.3782 3.39375 12.4119C3.6675 12.4869 4.32812 12.5806 4.61562 12.3894C4.67125 12.3525 4.73 12.2944 4.74937 12.1438C4.77125 11.9769 4.705 11.8875 3.95062 11.6694C3.36625 11.5006 2.38812 11.2175 2.51312 10.225C2.53258 10.0375 2.59306 9.85662 2.69027 9.69514C2.78749 9.53366 2.91905 9.39555 3.07562 9.29062C3.81562 8.79062 4.99563 9.08375 5.1275 9.11812C5.19103 9.13487 5.25063 9.16396 5.30292 9.20374C5.3552 9.24352 5.39914 9.29321 5.43222 9.34997C5.4653 9.40673 5.48688 9.46945 5.49572 9.53455C5.50456 9.59965 5.50049 9.66585 5.48375 9.72937C5.46701 9.7929 5.43791 9.85251 5.39813 9.90479C5.35836 9.95708 5.30867 10.001 5.25191 10.0341C5.19515 10.0672 5.13243 10.0888 5.06733 10.0976C5.00223 10.1064 4.93603 10.1024 4.8725 10.0856C4.59188 10.0125 3.92125 9.92562 3.63375 10.1206C3.59606 10.146 3.56504 10.1802 3.54328 10.2201C3.52153 10.26 3.50969 10.3046 3.50875 10.35C3.50125 10.4062 3.5 10.4175 3.57875 10.4688C3.72312 10.5619 3.98125 10.6362 4.23187 10.7087C4.84375 10.8856 5.87875 11.1875 5.73875 12.2694ZM10.1763 12.4712C10.3895 12.0996 10.5011 11.6784 10.5 11.25C10.5 10.0094 9.60313 9 8.5 9C7.39687 9 6.5 10.0094 6.5 11.25C6.5 12.4906 7.39687 13.5 8.5 13.5C8.85319 13.4987 9.19842 13.395 9.49375 13.2013L9.64625 13.3538C9.69486 13.4023 9.75296 13.4404 9.81693 13.4655C9.8809 13.4906 9.94936 13.5023 10.018 13.4998C10.0867 13.4972 10.1541 13.4806 10.2161 13.4508C10.2781 13.4211 10.3332 13.3789 10.3781 13.3269C10.4602 13.2277 10.5018 13.1013 10.4947 12.9728C10.4877 12.8444 10.4324 12.7233 10.34 12.6337L10.1763 12.4712ZM8.5 12.5C7.94875 12.5 7.5 11.9375 7.5 11.25C7.5 10.5625 7.94875 10 8.5 10C9.05125 10 9.5 10.5625 9.5 11.25C9.50008 11.4093 9.4752 11.5677 9.42625 11.7194L9.36812 11.6613C9.27584 11.5662 9.15038 11.5104 9.01796 11.5056C8.88554 11.5009 8.75639 11.5474 8.6575 11.6356C8.60866 11.6815 8.56953 11.7367 8.54244 11.798C8.51535 11.8592 8.50085 11.9253 8.49981 11.9923C8.49876 12.0593 8.51118 12.1258 8.53634 12.1879C8.56149 12.25 8.59887 12.3064 8.64625 12.3538L8.75125 12.4581C8.67024 12.4853 8.58544 12.4994 8.5 12.5Z" fill="black"/>
</g>
<defs>
<clipPath id="clip0_5_1467">
<rect width="16" height="16" fill="white"/>
</clipPath>
</defs>
</svg>
