<svg width="16" height="16" viewBox="0 0 16 16" fill="none" xmlns="http://www.w3.org/2000/svg">
<g clip-path="url(#clip0_5_1683)">
<path d="M3.00006 9.5V12.9831C3.00212 13.1124 2.95508 13.2376 2.86843 13.3335C2.78179 13.4294 2.66198 13.4889 2.53319 13.5C2.4648 13.5045 2.3962 13.495 2.33166 13.4719C2.26712 13.4488 2.20802 13.4127 2.15802 13.3658C2.10803 13.3189 2.0682 13.2622 2.04103 13.1993C2.01386 13.1364 1.99991 13.0685 2.00006 13V9.51688C1.99801 9.38763 2.04505 9.26241 2.1317 9.16648C2.21834 9.07055 2.33815 9.01106 2.46694 9C2.53533 8.99546 2.60393 9.00503 2.66847 9.02811C2.73301 9.0512 2.79211 9.08731 2.84211 9.1342C2.8921 9.18109 2.93193 9.23776 2.9591 9.30069C2.98627 9.36361 3.00022 9.43146 3.00006 9.5ZM7.46694 9C7.33837 9.01104 7.21874 9.07036 7.13213 9.16602C7.04551 9.26168 6.99833 9.38659 7.00006 9.51562V11.4375L5.41819 9.225C5.36345 9.1457 5.28761 9.08329 5.19925 9.04485C5.11088 9.00642 5.01353 8.99348 4.91819 9.0075C4.8015 9.02687 4.69546 9.08698 4.6189 9.17715C4.54235 9.26732 4.50024 9.38171 4.50006 9.5V12.9831C4.49801 13.1124 4.54505 13.2376 4.6317 13.3335C4.71834 13.4294 4.83815 13.4889 4.96694 13.5C5.03533 13.5045 5.10393 13.495 5.16847 13.4719C5.23301 13.4488 5.29211 13.4127 5.34211 13.3658C5.3921 13.3189 5.43193 13.2622 5.4591 13.1993C5.48627 13.1364 5.50022 13.0685 5.50006 13V11.0625L7.09319 13.2931C7.16486 13.3925 7.27051 13.4621 7.39011 13.4887C7.5097 13.5153 7.6349 13.4971 7.74194 13.4375C7.82145 13.3918 7.8873 13.3257 7.93268 13.2461C7.97807 13.1664 8.00133 13.0761 8.00006 12.9844V9.5C8.00022 9.43146 7.98627 9.36361 7.9591 9.30069C7.93193 9.23776 7.8921 9.18109 7.84211 9.1342C7.79211 9.08731 7.73301 9.0512 7.66847 9.02811C7.60393 9.00503 7.53533 8.99546 7.46694 9ZM9.96694 9C9.83837 9.01104 9.71874 9.07036 9.63213 9.16602C9.54551 9.26168 9.49833 9.38659 9.50006 9.51562V12.9819C9.49833 13.1109 9.54551 13.2358 9.63213 13.3315C9.71874 13.4271 9.83837 13.4865 9.96694 13.4975C10.0353 13.502 10.1039 13.4925 10.1685 13.4694C10.233 13.4463 10.2921 13.4102 10.3421 13.3633C10.3921 13.3164 10.4319 13.2597 10.4591 13.1968C10.4863 13.1339 10.5002 13.066 10.5001 12.9975V9.5C10.5002 9.43146 10.4863 9.36361 10.4591 9.30069C10.4319 9.23776 10.3921 9.18109 10.3421 9.1342C10.2921 9.08731 10.233 9.0512 10.1685 9.02811C10.1039 9.00503 10.0353 8.99546 9.96694 9ZM13.5001 5.5V13.9844C13.5019 14.1062 13.4599 14.2247 13.3818 14.3183C13.3037 14.4119 13.1947 14.4743 13.0744 14.4944C13.0033 14.5051 12.9307 14.5003 12.8616 14.4804C12.7924 14.4604 12.7284 14.4258 12.6739 14.3789C12.6194 14.332 12.5756 14.2738 12.5456 14.2084C12.5156 14.143 12.5001 14.0719 12.5001 14V7.75C12.5001 7.6837 12.4737 7.62011 12.4268 7.57322C12.38 7.52634 12.3164 7.5 12.2501 7.5H2.75006C2.68376 7.5 2.62017 7.47366 2.57329 7.42678C2.5264 7.37989 2.50006 7.3163 2.50006 7.25V2.5C2.50006 2.23478 2.60542 1.98043 2.79296 1.79289C2.98049 1.60536 3.23485 1.5 3.50006 1.5H9.50006C9.56575 1.49995 9.63079 1.51284 9.69149 1.53793C9.75219 1.56303 9.80735 1.59983 9.85382 1.64625L13.3538 5.14625C13.4002 5.19272 13.437 5.24788 13.4621 5.30858C13.4872 5.36927 13.5001 5.43432 13.5001 5.5ZM12.2501 5.5L9.50006 2.75V5.5H12.2501Z" fill="black"/>
</g>
<defs>
<clipPath id="clip0_5_1683">
<rect width="16" height="16" fill="white"/>
</clipPath>
</defs>
</svg>
