<svg width="16" height="16" viewBox="0 0 16 16" fill="none" xmlns="http://www.w3.org/2000/svg">
<g clip-path="url(#clip0_5_822)">
<path d="M13.3538 5.14625L9.85375 1.64625C9.80728 1.59983 9.75212 1.56303 9.69143 1.53793C9.63073 1.51284 9.56568 1.49995 9.5 1.5H3.5C3.23478 1.5 2.98043 1.60536 2.79289 1.79289C2.60536 1.98043 2.5 2.23478 2.5 2.5V7.25C2.5 7.3163 2.52634 7.37989 2.57322 7.42678C2.62011 7.47366 2.6837 7.5 2.75 7.5H13.25C13.3163 7.5 13.3799 7.47366 13.4268 7.42678C13.4737 7.37989 13.5 7.3163 13.5 7.25V5.5C13.5001 5.43432 13.4872 5.36927 13.4621 5.30858C13.437 5.24788 13.4002 5.19272 13.3538 5.14625ZM9.5 5.5V2.75L12.25 5.5H9.5ZM3 11.25C3 11.9375 3.44875 12.5 4 12.5C4.11827 12.4975 4.23483 12.4713 4.34282 12.423C4.4508 12.3747 4.54802 12.3052 4.62875 12.2188C4.71548 12.1272 4.83287 12.0708 4.95852 12.0603C5.08418 12.0499 5.2093 12.086 5.31 12.1619C5.36467 12.2051 5.4097 12.2592 5.44223 12.3208C5.47476 12.3824 5.49405 12.4501 5.49887 12.5196C5.5037 12.5891 5.49395 12.6588 5.47025 12.7243C5.44655 12.7898 5.40942 12.8497 5.36125 12.9C5.18715 13.0874 4.97661 13.2373 4.74254 13.3405C4.50847 13.4436 4.25579 13.4979 4 13.5C2.8975 13.5 2 12.4906 2 11.25C2 10.0094 2.8975 9 4 9C4.24987 9.00183 4.49684 9.05358 4.72642 9.15222C4.956 9.25086 5.16355 9.39439 5.33687 9.57438C5.42934 9.66353 5.48526 9.78395 5.49369 9.91212C5.50213 10.0403 5.46249 10.167 5.3825 10.2675C5.3373 10.3212 5.2813 10.3648 5.21814 10.3954C5.15498 10.426 5.08608 10.443 5.01592 10.4453C4.94576 10.4475 4.87592 10.435 4.81094 10.4084C4.74595 10.3819 4.68729 10.342 4.63875 10.2913C4.55775 10.2017 4.45931 10.1297 4.34947 10.0796C4.23962 10.0295 4.1207 10.0024 4 10C3.44875 10 3 10.5625 3 11.25ZM9.48812 12.2694C9.46864 12.4606 9.40702 12.6452 9.30771 12.8097C9.2084 12.9743 9.07385 13.1149 8.91375 13.2212C8.58937 13.4375 8.1875 13.5 7.82062 13.5C7.50143 13.498 7.18375 13.456 6.875 13.375C6.81101 13.358 6.75104 13.3285 6.69855 13.2882C6.64606 13.2478 6.6021 13.1975 6.56922 13.14C6.53635 13.0826 6.51521 13.0191 6.50704 12.9535C6.49887 12.8878 6.50382 12.8211 6.52161 12.7573C6.5394 12.6936 6.56968 12.634 6.61069 12.582C6.65169 12.53 6.70261 12.4867 6.76049 12.4546C6.81836 12.4225 6.88204 12.4021 6.94783 12.3948C7.01363 12.3875 7.08022 12.3933 7.14375 12.4119C7.4175 12.4869 8.07813 12.5806 8.36563 12.3894C8.42063 12.3525 8.48 12.2944 8.49938 12.1438C8.52125 11.9769 8.455 11.8875 7.70062 11.6694C7.11625 11.5006 6.13812 11.2175 6.26312 10.225C6.28262 10.0375 6.34312 9.85665 6.44033 9.69518C6.53754 9.5337 6.66908 9.39559 6.82562 9.29062C7.56563 8.79062 8.745 9.08375 8.8775 9.11812C9.0058 9.15186 9.11544 9.23517 9.18231 9.34975C9.24918 9.46432 9.26779 9.60076 9.23406 9.72906C9.20033 9.85736 9.11701 9.967 9.00244 10.0339C8.88787 10.1007 8.75142 10.1194 8.62313 10.0856C8.3425 10.0125 7.67125 9.92562 7.38375 10.1206C7.34606 10.146 7.31504 10.1802 7.29328 10.2201C7.27153 10.26 7.25969 10.3046 7.25875 10.35C7.25125 10.4062 7.25 10.4181 7.32812 10.4688C7.4725 10.5619 7.73125 10.6362 7.98125 10.7087C8.59312 10.8856 9.62812 11.1875 9.48812 12.2694ZM13.4637 9.6875L12.2206 13.1675C12.1858 13.2644 12.122 13.3483 12.0377 13.4076C11.9535 13.4668 11.853 13.4986 11.75 13.4986C11.647 13.4986 11.5465 13.4668 11.4623 13.4076C11.378 13.3483 11.3142 13.2644 11.2794 13.1675L10.0363 9.6875C9.98969 9.56339 9.99297 9.42607 10.0454 9.30432C10.0978 9.18257 10.1953 9.08583 10.3175 9.03438C10.3798 9.00998 10.4464 8.99835 10.5133 9.00017C10.5802 9.00199 10.6461 9.01722 10.707 9.04496C10.7679 9.07271 10.8226 9.1124 10.8679 9.16168C10.9132 9.21097 10.9481 9.26884 10.9706 9.33187L11.75 11.5131L12.5294 9.33187C12.5519 9.26884 12.5868 9.21097 12.6321 9.16168C12.6774 9.1124 12.7321 9.07271 12.793 9.04496C12.8539 9.01722 12.9198 9.00199 12.9867 9.00017C13.0536 8.99835 13.1202 9.00998 13.1825 9.03438C13.3045 9.08608 13.4018 9.18284 13.4542 9.30451C13.5066 9.42618 13.51 9.56336 13.4637 9.6875Z" fill="black"/>
</g>
<defs>
<clipPath id="clip0_5_822">
<rect width="16" height="16" fill="white"/>
</clipPath>
</defs>
</svg>
