<svg width="16" height="16" viewBox="0 0 16 16" fill="none" xmlns="http://www.w3.org/2000/svg">
<g clip-path="url(#clip0_5_1253)">
<path d="M2.74994 7.5H13.2499C13.3162 7.5 13.3798 7.47366 13.4267 7.42678C13.4736 7.37989 13.4999 7.3163 13.4999 7.25V5.5C13.5 5.43432 13.4871 5.36927 13.462 5.30858C13.4369 5.24788 13.4001 5.19272 13.3537 5.14625L9.85369 1.64625C9.80722 1.59983 9.75207 1.56303 9.69137 1.53793C9.63067 1.51284 9.56562 1.49995 9.49994 1.5H3.49994C3.23473 1.5 2.98037 1.60536 2.79284 1.79289C2.6053 1.98043 2.49994 2.23478 2.49994 2.5V7.25C2.49994 7.3163 2.52628 7.37989 2.57317 7.42678C2.62005 7.47366 2.68364 7.5 2.74994 7.5ZM9.49994 2.75L12.2499 5.5H9.49994V2.75ZM13.9999 9.53312C13.9888 9.66164 13.9294 9.78118 13.8338 9.86777C13.7381 9.95436 13.6133 10.0016 13.4843 10H11.9999V11H12.9831C13.1121 10.9983 13.237 11.0454 13.3327 11.1321C13.4283 11.2187 13.4876 11.3383 13.4987 11.4669C13.5032 11.5353 13.4937 11.6039 13.4706 11.6684C13.4475 11.7329 13.4114 11.792 13.3645 11.842C13.3176 11.892 13.2609 11.9319 13.198 11.959C13.1351 11.9862 13.0672 12.0002 12.9987 12H11.9999V12.9831C12.0017 13.1122 11.9545 13.2371 11.8679 13.3327C11.7813 13.4284 11.6616 13.4877 11.5331 13.4987C11.4647 13.5033 11.3961 13.4937 11.3315 13.4706C11.267 13.4475 11.2079 13.4114 11.1579 13.3646C11.1079 13.3177 11.0681 13.261 11.0409 13.1981C11.0137 13.1351 10.9998 13.0673 10.9999 12.9987V9.5C10.9999 9.36739 11.0526 9.24021 11.1464 9.14645C11.2402 9.05268 11.3673 9 11.4999 9H13.4999C13.5685 8.99985 13.6363 9.01379 13.6993 9.04097C13.7622 9.06814 13.8189 9.10796 13.8657 9.15796C13.9126 9.20795 13.9487 9.26706 13.9718 9.3316C13.9949 9.39613 14.0045 9.46473 13.9999 9.53312ZM3.99994 9H2.99994C2.86733 9 2.74016 9.05268 2.64639 9.14645C2.55262 9.24021 2.49994 9.36739 2.49994 9.5V12.9831C2.49789 13.1124 2.54493 13.2376 2.63157 13.3335C2.71822 13.4294 2.83803 13.4889 2.96682 13.5C3.03521 13.5045 3.10381 13.495 3.16835 13.4719C3.23289 13.4488 3.29199 13.4127 3.34199 13.3658C3.39198 13.3189 3.4318 13.2622 3.45898 13.1993C3.48615 13.1364 3.50009 13.0685 3.49994 13V12.5H3.96244C4.91494 12.5 5.72119 11.755 5.74932 10.8031C5.75643 10.5689 5.71644 10.3357 5.63173 10.1172C5.54701 9.8988 5.41929 9.69959 5.25614 9.53143C5.09299 9.36326 4.89773 9.22957 4.68195 9.13829C4.46616 9.047 4.23424 8.99998 3.99994 9ZM3.97807 11.5H3.49994V10H3.99994C4.10484 9.99951 4.20868 10.021 4.30474 10.0632C4.40081 10.1053 4.48697 10.1671 4.55765 10.2446C4.62833 10.3222 4.68196 10.4136 4.71509 10.5132C4.74821 10.6127 4.76008 10.7181 4.74994 10.8225C4.72812 11.011 4.63707 11.1847 4.49445 11.3099C4.35184 11.4351 4.16781 11.5028 3.97807 11.5ZM7.99994 9H6.99994C6.86733 9 6.74016 9.05268 6.64639 9.14645C6.55262 9.24021 6.49994 9.36739 6.49994 9.5V13C6.49994 13.1326 6.55262 13.2598 6.64639 13.3536C6.74016 13.4473 6.86733 13.5 6.99994 13.5H7.95744C9.18619 13.5 10.2206 12.5325 10.2493 11.3044C10.2566 11.0044 10.2037 10.706 10.094 10.4268C9.98418 10.1475 9.81966 9.89306 9.61006 9.67834C9.40047 9.46362 9.15005 9.293 8.87354 9.1765C8.59702 9.06001 8.3 9 7.99994 9ZM7.96932 12.5H7.49994V10H7.99994C8.16822 9.99988 8.3348 10.0337 8.48968 10.0995C8.64456 10.1653 8.78456 10.2617 8.90129 10.383C9.01801 10.5042 9.10906 10.6477 9.16897 10.805C9.22888 10.9622 9.25642 11.13 9.24994 11.2981C9.22369 11.9744 8.64619 12.5 7.96932 12.5Z" fill="black"/>
</g>
<defs>
<clipPath id="clip0_5_1253">
<rect width="16" height="16" fill="white"/>
</clipPath>
</defs>
</svg>
