<svg width="16" height="16" viewBox="0 0 16 16" fill="none" xmlns="http://www.w3.org/2000/svg">
<g clip-path="url(#clip0_5_916)">
<path d="M13.3537 5.14625L9.85369 1.64625C9.80722 1.59983 9.75207 1.56303 9.69137 1.53793C9.63067 1.51284 9.56562 1.49995 9.49994 1.5H3.49994C3.23473 1.5 2.98037 1.60536 2.79284 1.79289C2.6053 1.98043 2.49994 2.23478 2.49994 2.5V7.25C2.49994 7.3163 2.52628 7.37989 2.57317 7.42678C2.62005 7.47366 2.68364 7.5 2.74994 7.5H10.7499C10.8162 7.5 10.8798 7.52634 10.9267 7.57322C10.9736 7.62011 10.9999 7.6837 10.9999 7.75V14.25C10.9999 14.3163 11.0263 14.3799 11.0732 14.4268C11.1201 14.4737 11.1836 14.5 11.2499 14.5H12.4999C12.7652 14.5 13.0195 14.3946 13.207 14.2071C13.3946 14.0196 13.4999 13.7652 13.4999 13.5V5.5C13.5 5.43432 13.4871 5.36927 13.462 5.30858C13.4369 5.24788 13.4001 5.19272 13.3537 5.14625ZM9.49994 5.5V2.75L12.2499 5.5H9.49994ZM3.96369 9H2.99994C2.86733 9 2.74016 9.05268 2.64639 9.14645C2.55262 9.24021 2.49994 9.36739 2.49994 9.5V12.9831C2.49789 13.1124 2.54493 13.2376 2.63157 13.3335C2.71822 13.4294 2.83803 13.4889 2.96682 13.5C3.03521 13.5045 3.10381 13.495 3.16835 13.4719C3.23289 13.4488 3.29199 13.4127 3.34199 13.3658C3.39198 13.3189 3.4318 13.2622 3.45898 13.1993C3.48615 13.1364 3.50009 13.0685 3.49994 13V12.5H3.99994C4.12026 12.4998 4.24025 12.4875 4.35807 12.4631L4.81807 13.25C4.8539 13.3115 4.90245 13.3647 4.96048 13.4059C5.01851 13.4472 5.08467 13.4755 5.15455 13.4891C5.22443 13.5028 5.29641 13.5013 5.36568 13.4848C5.43494 13.4684 5.4999 13.4373 5.55619 13.3938C5.65242 13.317 5.71755 13.2079 5.7395 13.0868C5.76145 12.9656 5.73874 12.8407 5.67557 12.735L5.23807 11.985C5.40523 11.8182 5.53678 11.6192 5.62477 11.4C5.71275 11.1808 5.75534 10.9461 5.74994 10.71C5.72807 9.75313 4.92119 9 3.96369 9ZM3.97807 11.5H3.49994V10H3.99994C4.10484 9.99951 4.20868 10.021 4.30474 10.0632C4.40081 10.1053 4.48697 10.1671 4.55765 10.2446C4.62833 10.3222 4.68196 10.4136 4.71509 10.5132C4.74821 10.6127 4.76008 10.7181 4.74994 10.8225C4.72812 11.011 4.63707 11.1847 4.49445 11.3099C4.35184 11.4351 4.16781 11.5028 3.97807 11.5ZM9.73807 12.2694C9.71858 12.4606 9.65697 12.6452 9.55765 12.8097C9.45834 12.9743 9.3238 13.1149 9.16369 13.2212C8.83932 13.4375 8.43744 13.5 8.07057 13.5C7.75138 13.498 7.43369 13.456 7.12494 13.375C7.06096 13.358 7.00098 13.3285 6.94849 13.2882C6.896 13.2478 6.85204 13.1975 6.81917 13.14C6.78629 13.0826 6.76515 13.0191 6.75698 12.9535C6.74881 12.8878 6.75376 12.8211 6.77155 12.7573C6.78935 12.6936 6.81962 12.634 6.86063 12.582C6.90164 12.53 6.95255 12.4867 7.01043 12.4546C7.0683 12.4225 7.13199 12.4021 7.19778 12.3948C7.26357 12.3875 7.33016 12.3933 7.39369 12.4119C7.66744 12.4869 8.32807 12.5806 8.61557 12.3894C8.67057 12.3525 8.72994 12.2944 8.74932 12.1438C8.77119 11.9769 8.70494 11.8875 7.95057 11.6694C7.36619 11.5006 6.38807 11.2175 6.51307 10.225C6.53256 10.0375 6.59306 9.85665 6.69027 9.69518C6.78748 9.5337 6.91902 9.39559 7.07557 9.29062C7.81557 8.79062 8.99494 9.08375 9.12744 9.11812C9.25574 9.15186 9.36538 9.23517 9.43225 9.34975C9.49912 9.46432 9.51774 9.60076 9.484 9.72906C9.45027 9.85736 9.36696 9.967 9.25238 10.0339C9.13781 10.1007 9.00137 10.1194 8.87307 10.0856C8.59244 10.0125 7.92119 9.92562 7.63369 10.1206C7.59601 10.146 7.56498 10.1802 7.54323 10.2201C7.52147 10.26 7.50963 10.3046 7.50869 10.35C7.50119 10.4062 7.49994 10.4181 7.57807 10.4688C7.72244 10.5619 7.98119 10.6362 8.23119 10.7087C8.84307 10.8856 9.87807 11.1875 9.73807 12.2694Z" fill="black"/>
</g>
<defs>
<clipPath id="clip0_5_916">
<rect width="16" height="16" fill="white"/>
</clipPath>
</defs>
</svg>
