<svg width="16" height="16" viewBox="0 0 16 16" fill="none" xmlns="http://www.w3.org/2000/svg">
<g clip-path="url(#clip0_5_1526)">
<path d="M3 11.25C3 11.9375 3.44875 12.5 4 12.5C4.11827 12.4975 4.23483 12.4713 4.34282 12.423C4.4508 12.3747 4.54802 12.3052 4.62875 12.2188C4.71541 12.1271 4.83281 12.0706 4.95851 12.0601C5.0842 12.0496 5.20935 12.0859 5.31 12.1619C5.36462 12.2051 5.40961 12.2593 5.44208 12.3209C5.47455 12.3825 5.49378 12.4502 5.49855 12.5197C5.50331 12.5892 5.49351 12.659 5.46976 12.7244C5.44601 12.7899 5.40883 12.8497 5.36062 12.9C5.18674 13.0875 4.97633 13.2375 4.74234 13.3407C4.50835 13.4438 4.25572 13.4981 4 13.5C2.89688 13.5 2 12.4906 2 11.25C2 10.0094 2.89688 9 4 9C4.24976 9.00191 4.49662 9.05371 4.72609 9.15234C4.95555 9.25098 5.163 9.39446 5.33625 9.57438C5.42881 9.66345 5.48484 9.78382 5.49339 9.91199C5.50195 10.0402 5.46241 10.1669 5.3825 10.2675C5.3373 10.3212 5.2813 10.3648 5.21814 10.3954C5.15498 10.426 5.08608 10.443 5.01592 10.4453C4.94576 10.4475 4.87592 10.435 4.81094 10.4084C4.74595 10.3819 4.68729 10.342 4.63875 10.2913C4.55768 10.2018 4.45922 10.1299 4.3494 10.0798C4.23957 10.0297 4.12068 10.0026 4 10C3.44875 10 3 10.5625 3 11.25ZM7.975 10.7069C7.725 10.6344 7.46625 10.56 7.32188 10.4669C7.24312 10.4163 7.245 10.4044 7.25187 10.3481C7.25281 10.3027 7.26466 10.2581 7.28641 10.2182C7.30816 10.1783 7.33919 10.1442 7.37687 10.1187C7.66437 9.92375 8.33625 10.0106 8.61625 10.0837C8.74455 10.1175 8.88099 10.0989 8.99557 10.032C9.11014 9.96513 9.19345 9.85549 9.22719 9.72719C9.26092 9.59889 9.2423 9.46244 9.17544 9.34787C9.10857 9.2333 8.99892 9.14998 8.87062 9.11625C8.73812 9.08187 7.55813 8.79 6.81875 9.28875C6.66217 9.39368 6.53061 9.53179 6.4334 9.69327C6.33618 9.85475 6.2757 10.0356 6.25625 10.2231C6.13125 11.2156 7.10875 11.4987 7.69375 11.6675C8.44812 11.8856 8.51438 11.975 8.4925 12.1419C8.47313 12.2925 8.41375 12.3506 8.35875 12.3875C8.07125 12.5787 7.41062 12.485 7.13688 12.41C7.00977 12.3763 6.8745 12.394 6.76036 12.4593C6.64622 12.5246 6.5624 12.6322 6.52706 12.7589C6.49172 12.8856 6.50769 13.021 6.57153 13.136C6.63537 13.251 6.74193 13.3362 6.86812 13.3731C7.1779 13.4543 7.49664 13.4963 7.81687 13.4981C8.18125 13.4981 8.58562 13.4356 8.91 13.2194C9.0701 13.113 9.20465 12.9725 9.30396 12.8079C9.40327 12.6433 9.46489 12.4587 9.48438 12.2675C9.625 11.1875 8.5925 10.8856 7.975 10.7069ZM11.975 10.7069C11.725 10.6344 11.4662 10.56 11.3219 10.4669C11.2437 10.4163 11.245 10.4044 11.2519 10.3481C11.2528 10.3027 11.2647 10.2581 11.2864 10.2182C11.3082 10.1783 11.3392 10.1442 11.3769 10.1187C11.6644 9.92375 12.3356 10.0106 12.6156 10.0837C12.7439 10.1175 12.8804 10.0989 12.9949 10.032C13.1095 9.96513 13.1928 9.85549 13.2266 9.72719C13.2603 9.59889 13.2417 9.46244 13.1748 9.34787C13.1079 9.2333 12.9983 9.14998 12.87 9.11625C12.7381 9.08187 11.5575 8.79 10.8181 9.28875C10.6622 9.3941 10.5313 9.53237 10.4347 9.69382C10.338 9.85526 10.278 10.0359 10.2587 10.2231C10.1337 11.2156 11.1119 11.4987 11.6962 11.6675C12.45 11.8856 12.5162 11.975 12.495 12.1419C12.4756 12.2925 12.4163 12.3506 12.3606 12.3875C12.0731 12.5787 11.4131 12.485 11.1394 12.41C11.0114 12.3744 10.8745 12.391 10.7588 12.4563C10.6432 12.5216 10.5581 12.6302 10.5225 12.7581C10.4869 12.8861 10.5035 13.023 10.5688 13.1387C10.6341 13.2543 10.7427 13.3394 10.8706 13.375C11.1806 13.4562 11.4996 13.4982 11.82 13.5C12.1838 13.5 12.5887 13.4375 12.9131 13.2212C13.0731 13.1148 13.2076 12.9743 13.3068 12.8097C13.406 12.6451 13.4675 12.4606 13.4869 12.2694C13.625 11.1875 12.5925 10.8856 11.9744 10.7069H11.975ZM2.5 7.25V2.5C2.5 2.23478 2.60536 1.98043 2.79289 1.79289C2.98043 1.60536 3.23478 1.5 3.5 1.5H9.5C9.56568 1.49995 9.63073 1.51284 9.69143 1.53793C9.75212 1.56303 9.80728 1.59983 9.85375 1.64625L13.3538 5.14625C13.4002 5.19272 13.437 5.24788 13.4621 5.30858C13.4872 5.36927 13.5001 5.43432 13.5 5.5V7.25C13.5 7.3163 13.4737 7.37989 13.4268 7.42678C13.3799 7.47366 13.3163 7.5 13.25 7.5H2.75C2.6837 7.5 2.62011 7.47366 2.57322 7.42678C2.52634 7.37989 2.5 7.3163 2.5 7.25ZM9.5 5.5H12.25L9.5 2.75V5.5Z" fill="black"/>
</g>
<defs>
<clipPath id="clip0_5_1526">
<rect width="16" height="16" fill="white"/>
</clipPath>
</defs>
</svg>
