<svg width="16" height="16" viewBox="0 0 16 16" fill="none" xmlns="http://www.w3.org/2000/svg">
<g clip-path="url(#clip0_5_1153)">
<path d="M12.5 1.5H3.5C3.23478 1.5 2.98043 1.60536 2.79289 1.79289C2.60536 1.98043 2.5 2.23478 2.5 2.5V13.5C2.5 13.7652 2.60536 14.0196 2.79289 14.2071C2.98043 14.3946 3.23478 14.5 3.5 14.5H12.5C12.7652 14.5 13.0196 14.3946 13.2071 14.2071C13.3946 14.0196 13.5 13.7652 13.5 13.5V2.5C13.5 2.23478 13.3946 1.98043 13.2071 1.79289C13.0196 1.60536 12.7652 1.5 12.5 1.5ZM4.75 11.75C4.60166 11.75 4.45666 11.706 4.33332 11.6236C4.20999 11.5412 4.11386 11.4241 4.05709 11.287C4.00032 11.15 3.98547 10.9992 4.01441 10.8537C4.04335 10.7082 4.11478 10.5746 4.21967 10.4697C4.32456 10.3648 4.4582 10.2934 4.60368 10.2644C4.74917 10.2355 4.89997 10.2503 5.03701 10.3071C5.17406 10.3639 5.29119 10.46 5.3736 10.5833C5.45601 10.7067 5.5 10.8517 5.5 11C5.5 11.1989 5.42098 11.3897 5.28033 11.5303C5.13968 11.671 4.94891 11.75 4.75 11.75ZM4.75 8.75C4.60166 8.75 4.45666 8.70601 4.33332 8.6236C4.20999 8.54119 4.11386 8.42406 4.05709 8.28701C4.00032 8.14997 3.98547 7.99917 4.01441 7.85368C4.04335 7.7082 4.11478 7.57456 4.21967 7.46967C4.32456 7.36478 4.4582 7.29335 4.60368 7.26441C4.74917 7.23547 4.89997 7.25032 5.03701 7.30709C5.17406 7.36386 5.29119 7.45999 5.3736 7.58332C5.45601 7.70666 5.5 7.85166 5.5 8C5.5 8.19891 5.42098 8.38968 5.28033 8.53033C5.13968 8.67098 4.94891 8.75 4.75 8.75ZM4.75 5.75C4.60166 5.75 4.45666 5.70601 4.33332 5.6236C4.20999 5.54119 4.11386 5.42406 4.05709 5.28701C4.00032 5.14997 3.98547 4.99917 4.01441 4.85368C4.04335 4.7082 4.11478 4.57456 4.21967 4.46967C4.32456 4.36478 4.4582 4.29335 4.60368 4.26441C4.74917 4.23547 4.89997 4.25032 5.03701 4.30709C5.17406 4.36386 5.29119 4.45999 5.3736 4.58332C5.45601 4.70666 5.5 4.85166 5.5 5C5.5 5.19891 5.42098 5.38968 5.28033 5.53033C5.13968 5.67098 4.94891 5.75 4.75 5.75Z" fill="black"/>
</g>
<defs>
<clipPath id="clip0_5_1153">
<rect width="16" height="16" fill="white"/>
</clipPath>
</defs>
</svg>
