<svg width="16" height="16" viewBox="0 0 16 16" fill="none" xmlns="http://www.w3.org/2000/svg">
<g clip-path="url(#clip0_5_1312)">
<path d="M13.5 6.50002H6.38059L13.125 4.71939C13.1888 4.70257 13.2487 4.67328 13.3011 4.63319C13.3536 4.59311 13.3976 4.54304 13.4306 4.48586C13.4636 4.42868 13.485 4.36554 13.4934 4.30006C13.5019 4.23459 13.4973 4.16809 13.48 4.10439L12.97 2.22939C12.8998 1.97714 12.733 1.76268 12.5059 1.63248C12.2787 1.50228 12.0094 1.46682 11.7562 1.53377L2.23809 4.04627C2.11136 4.07917 1.99247 4.13702 1.88837 4.21643C1.78427 4.29585 1.69706 4.39523 1.63184 4.50877C1.56627 4.62091 1.5239 4.74509 1.50725 4.87393C1.49061 5.00277 1.50004 5.13364 1.53497 5.25877L1.99997 6.97252C1.99997 6.98127 1.99997 6.99064 1.99997 7.00002V12.5C1.99997 12.7652 2.10533 13.0196 2.29286 13.2071C2.4804 13.3947 2.73475 13.5 2.99997 13.5H13C13.2652 13.5 13.5195 13.3947 13.7071 13.2071C13.8946 13.0196 14 12.7652 14 12.5V7.00002C14 6.86741 13.9473 6.74023 13.8535 6.64647C13.7598 6.5527 13.6326 6.50002 13.5 6.50002ZM12.01 2.50002L12.385 3.87939L10.2856 4.43752L8.52747 3.42002L12.01 2.50002ZM4.84684 4.39189L6.60434 5.40689L2.87934 6.39002L2.50434 5.01002L4.84684 4.39189Z" fill="black"/>
</g>
<defs>
<clipPath id="clip0_5_1312">
<rect width="16" height="16" fill="white"/>
</clipPath>
</defs>
</svg>
