<svg width="16" height="16" viewBox="0 0 16 16" fill="none" xmlns="http://www.w3.org/2000/svg">
<g clip-path="url(#clip0_5_796)">
<path d="M14.5001 13.5H11.4601C12.7847 12.6655 13.7633 11.3807 14.2161 9.88208C14.6689 8.38345 14.5653 6.77172 13.9244 5.34338C13.2835 3.91505 12.1484 2.76617 10.7279 2.10809C9.30735 1.45002 7.69699 1.327 6.19301 1.76168C4.68903 2.19636 3.39258 3.15949 2.54216 4.4739C1.69173 5.78832 1.34453 7.36561 1.56442 8.91563C1.78431 10.4656 2.5565 11.8841 3.73894 12.9102C4.92139 13.9362 6.43455 14.5008 8.00009 14.5H14.5001C14.6327 14.5 14.7599 14.4473 14.8536 14.3535C14.9474 14.2598 15.0001 14.1326 15.0001 14C15.0001 13.8674 14.9474 13.7402 14.8536 13.6464C14.7599 13.5527 14.6327 13.5 14.5001 13.5ZM5.00009 9.24998C4.75286 9.24998 4.51119 9.17667 4.30563 9.03932C4.10007 8.90196 3.93985 8.70674 3.84524 8.47833C3.75063 8.24993 3.72588 7.99859 3.77411 7.75612C3.82234 7.51364 3.94139 7.29091 4.11621 7.1161C4.29102 6.94128 4.51375 6.82223 4.75623 6.774C4.9987 6.72577 5.25004 6.75052 5.47845 6.84513C5.70685 6.93974 5.90208 7.09995 6.03943 7.30552C6.17678 7.51108 6.25009 7.75275 6.25009 7.99998C6.25009 8.3315 6.11839 8.64944 5.88397 8.88386C5.64955 9.11828 5.33161 9.24998 5.00009 9.24998ZM8.00009 12.25C7.75286 12.25 7.51119 12.1767 7.30563 12.0393C7.10007 11.902 6.93985 11.7067 6.84524 11.4783C6.75063 11.2499 6.72588 10.9986 6.77411 10.7561C6.82234 10.5136 6.94139 10.2909 7.11621 10.1161C7.29102 9.94128 7.51375 9.82223 7.75623 9.774C7.9987 9.72577 8.25004 9.75052 8.47845 9.84513C8.70685 9.93974 8.90208 10.1 9.03943 10.3055C9.17678 10.5111 9.25009 10.7528 9.25009 11C9.25009 11.3315 9.11839 11.6494 8.88397 11.8839C8.64955 12.1183 8.33161 12.25 8.00009 12.25ZM8.00009 6.24998C7.75286 6.24998 7.51119 6.17667 7.30563 6.03932C7.10007 5.90196 6.93985 5.70674 6.84524 5.47833C6.75063 5.24993 6.72588 4.99859 6.77411 4.75612C6.82234 4.51364 6.94139 4.29091 7.11621 4.1161C7.29102 3.94128 7.51375 3.82223 7.75623 3.774C7.9987 3.72577 8.25004 3.75052 8.47845 3.84513C8.70685 3.93974 8.90208 4.09996 9.03943 4.30552C9.17678 4.51108 9.25009 4.75275 9.25009 4.99998C9.25009 5.3315 9.11839 5.64944 8.88397 5.88386C8.64955 6.11828 8.33161 6.24998 8.00009 6.24998ZM9.75009 7.99998C9.75009 7.75275 9.8234 7.51108 9.96075 7.30552C10.0981 7.09995 10.2933 6.93974 10.5217 6.84513C10.7501 6.75052 11.0015 6.72577 11.244 6.774C11.4864 6.82223 11.7092 6.94128 11.884 7.1161C12.0588 7.29091 12.1778 7.51364 12.2261 7.75612C12.2743 7.99859 12.2495 8.24993 12.1549 8.47833C12.0603 8.70674 11.9001 8.90196 11.6946 9.03932C11.489 9.17667 11.2473 9.24998 11.0001 9.24998C10.6686 9.24998 10.3506 9.11828 10.1162 8.88386C9.88179 8.64944 9.75009 8.3315 9.75009 7.99998Z" fill="black"/>
</g>
<defs>
<clipPath id="clip0_5_796">
<rect width="16" height="16" fill="white"/>
</clipPath>
</defs>
</svg>
