<svg width="16" height="16" viewBox="0 0 16 16" fill="none" xmlns="http://www.w3.org/2000/svg">
<g clip-path="url(#clip0_5_1144)">
<path d="M7.9008 1.50002C4.42018 1.55315 1.5758 4.3794 1.50018 7.8594C1.4738 9.02986 1.76564 10.1855 2.34455 11.2031C2.36726 11.243 2.40048 11.2758 2.44059 11.298C2.48069 11.3202 2.52613 11.331 2.57194 11.3291C2.61775 11.3273 2.66217 11.3128 2.70033 11.2874C2.73848 11.262 2.76892 11.2266 2.7883 11.185C3.2579 10.189 3.50101 9.10123 3.50018 8.00002C3.49974 6.91232 3.89366 5.86134 4.60893 5.0419C4.68978 4.9456 4.80315 4.8823 4.92755 4.86398C5.05195 4.84567 5.17875 4.87361 5.28393 4.94252C5.34253 4.98262 5.39193 5.03474 5.42882 5.09541C5.46572 5.15608 5.48926 5.22392 5.4979 5.2944C5.50653 5.36489 5.50005 5.4364 5.47889 5.50418C5.45773 5.57197 5.42237 5.63447 5.37518 5.68752C4.81149 6.32599 4.50033 7.14832 4.50018 8.00002C4.50205 9.50025 4.10425 10.9739 3.34768 12.2694C3.31963 12.317 3.30815 12.3726 3.31505 12.4275C3.32195 12.4823 3.34683 12.5333 3.3858 12.5725C3.63394 12.8241 3.90211 13.055 4.18768 13.2631C4.21593 13.2839 4.24821 13.2984 4.28245 13.3058C4.31668 13.3133 4.35209 13.3134 4.38638 13.3063C4.42068 13.2992 4.45309 13.2849 4.48153 13.2644C4.50996 13.244 4.53377 13.2178 4.55143 13.1875C4.81949 12.7479 5.0531 12.2882 5.25018 11.8125C5.27521 11.7518 5.31196 11.6966 5.35833 11.65C5.4047 11.6035 5.45978 11.5666 5.52043 11.5413C5.58108 11.5161 5.64611 11.503 5.7118 11.5029C5.77749 11.5028 5.84257 11.5156 5.9033 11.5406C5.96404 11.5657 6.01925 11.6024 6.06578 11.6488C6.11232 11.6952 6.14926 11.7503 6.17451 11.8109C6.19975 11.8715 6.21281 11.9366 6.21292 12.0023C6.21304 12.068 6.20021 12.133 6.17518 12.1938C5.96523 12.7019 5.71767 13.1937 5.43455 13.665C5.41619 13.6958 5.40466 13.7301 5.40073 13.7657C5.39679 13.8013 5.40055 13.8373 5.41176 13.8713C5.42296 13.9054 5.44134 13.9366 5.46565 13.9629C5.48996 13.9892 5.51964 14.0099 5.55268 14.0238C6.05393 14.2282 6.57887 14.3689 7.11518 14.4425C7.16525 14.4499 7.21637 14.4419 7.26179 14.4196C7.30721 14.3972 7.34479 14.3617 7.36955 14.3175C8.28567 12.6717 8.8311 10.8456 8.96768 8.9669C8.97044 8.89997 8.98662 8.83429 9.01525 8.77373C9.04389 8.71318 9.0844 8.659 9.13438 8.61441C9.18436 8.56982 9.24279 8.53572 9.3062 8.51415C9.36962 8.49258 9.43672 8.48396 9.50352 8.48882C9.57032 8.49368 9.63547 8.51191 9.6951 8.54243C9.75472 8.57296 9.8076 8.61515 9.8506 8.6665C9.8936 8.71785 9.92585 8.77733 9.94543 8.84138C9.965 8.90544 9.9715 8.97278 9.96455 9.0394C9.83733 10.7917 9.3797 12.5041 8.6158 14.0863C8.59583 14.1267 8.58718 14.1719 8.59077 14.2168C8.59436 14.2618 8.61007 14.305 8.63621 14.3418C8.66235 14.3785 8.69797 14.4076 8.73927 14.4257C8.78057 14.4439 8.82602 14.4506 8.8708 14.445C9.3094 14.3861 9.74082 14.2824 10.1583 14.1356C10.1912 14.1239 10.2212 14.1055 10.2465 14.0815C10.2718 14.0575 10.2918 14.0285 10.3052 13.9963C11.0846 12.1312 11.4906 10.1314 11.5002 8.11002C11.5139 6.19502 10.0377 4.56815 8.12518 4.5019C7.7884 4.49023 7.45168 4.52663 7.12518 4.61002C7.05922 4.62695 6.99051 4.63024 6.92324 4.61967C6.85597 4.6091 6.79157 4.5849 6.73399 4.54856C6.67641 4.51222 6.62685 4.4645 6.58837 4.40833C6.54988 4.35216 6.52327 4.28872 6.51018 4.2219C6.48839 4.09238 6.51698 3.95943 6.59007 3.85031C6.66317 3.74119 6.77524 3.66416 6.9033 3.63502C7.567 3.46884 8.25985 3.45608 8.92922 3.59771C9.59859 3.73934 10.2269 4.03164 10.7664 4.4524C11.3059 4.87317 11.7424 5.41134 12.0429 6.02604C12.3433 6.64075 12.4997 7.31583 12.5002 8.00002C12.5017 9.57863 12.2773 11.1493 11.8339 12.6644C11.8184 12.7164 11.8203 12.7719 11.8392 12.8228C11.858 12.8736 11.8929 12.9169 11.9385 12.9462C11.9842 12.9755 12.0381 12.9891 12.0922 12.9851C12.1462 12.981 12.1975 12.9595 12.2383 12.9238C13.2496 12.0525 13.9681 10.8911 14.2962 9.59725C14.6243 8.30342 14.5462 6.93993 14.0724 5.69205C13.5986 4.44418 12.7521 3.37242 11.6479 2.62242C10.5438 1.87242 9.23546 1.48054 7.9008 1.50002ZM8.00018 6.00002C8.28154 6.00026 8.5597 6.05976 8.81653 6.17466C9.07336 6.28957 9.30311 6.45728 9.4908 6.6669C9.53733 6.71892 9.57245 6.78011 9.5939 6.84652C9.61535 6.91293 9.62267 6.9831 9.61537 7.05251C9.60807 7.12192 9.58632 7.18903 9.55151 7.24953C9.51671 7.31003 9.46963 7.36257 9.4133 7.40377C9.30932 7.47537 9.18271 7.50639 9.05741 7.49096C8.93211 7.47553 8.8168 7.41471 8.7333 7.32002C8.60273 7.17928 8.43441 7.0791 8.24844 7.03145C8.06247 6.98379 7.86672 6.99067 7.68455 7.05127C7.48177 7.12187 7.3063 7.2544 7.18294 7.43014C7.05957 7.60588 6.99455 7.81594 6.99705 8.03065C6.99531 8.72287 6.92856 9.4134 6.79768 10.0931C6.7762 10.2065 6.71617 10.309 6.62777 10.3831C6.53937 10.4573 6.42805 10.4986 6.31268 10.5C6.28122 10.5002 6.24981 10.4972 6.21893 10.4913C6.08773 10.4614 5.97325 10.3818 5.89967 10.2691C5.82609 10.1565 5.79915 10.0197 5.82455 9.88752C5.94231 9.26528 6.00112 8.63331 6.00018 8.00002C6.00018 7.46959 6.21089 6.96088 6.58596 6.58581C6.96104 6.21073 7.46974 6.00002 8.00018 6.00002Z" fill="black"/>
</g>
<defs>
<clipPath id="clip0_5_1144">
<rect width="16" height="16" fill="white"/>
</clipPath>
</defs>
</svg>
