<svg width="16" height="16" viewBox="0 0 16 16" fill="none" xmlns="http://www.w3.org/2000/svg">
<g clip-path="url(#clip0_5_794)">
<path d="M7.90119 1.50001C4.42057 1.55313 1.57557 4.38063 1.49994 7.86313C1.47346 9.03448 1.76552 10.191 2.34494 11.2094C2.3677 11.2492 2.40097 11.282 2.44111 11.3041C2.48125 11.3263 2.52671 11.337 2.57253 11.3351C2.61834 11.3331 2.66274 11.3186 2.70086 11.2932C2.73899 11.2677 2.76937 11.2322 2.78869 11.1906C3.2581 10.1937 3.50079 9.10508 3.49932 8.00313C3.49821 7.32818 3.64944 6.66167 3.94173 6.05329C4.23402 5.4449 4.65983 4.91032 5.18744 4.48938C5.23919 4.44892 5.29841 4.41904 5.3617 4.40146C5.425 4.38388 5.49113 4.37894 5.55634 4.38692C5.62154 4.3949 5.68453 4.41565 5.74172 4.44797C5.79891 4.4803 5.84917 4.52357 5.88963 4.57532C5.9301 4.62707 5.95997 4.68628 5.97755 4.74957C5.99513 4.81287 6.00007 4.87901 5.99209 4.94421C5.98411 5.00941 5.96337 5.07241 5.93104 5.1296C5.89872 5.18678 5.85544 5.23704 5.80369 5.27751C5.39582 5.60518 5.06686 6.0204 4.84118 6.49242C4.6155 6.96445 4.49888 7.48118 4.49994 8.00438C4.50159 9.50545 4.10359 10.9799 3.34682 12.2763C3.31877 12.3239 3.30729 12.3795 3.31419 12.4343C3.32109 12.4892 3.34597 12.5402 3.38494 12.5794C3.50994 12.7044 3.64057 12.8294 3.77557 12.9431C3.80324 12.9664 3.83561 12.9833 3.87047 12.9929C3.90533 13.0024 3.94183 13.0042 3.97747 12.9983C4.01312 12.9924 4.04705 12.9788 4.07693 12.9585C4.10681 12.9381 4.13194 12.9116 4.15057 12.8806C4.70387 11.9621 5.09677 10.956 5.31244 9.90563C5.33888 9.77567 5.41586 9.66154 5.52645 9.58835C5.63704 9.51515 5.77218 9.48888 5.90213 9.51532C6.03209 9.54176 6.14622 9.61874 6.21942 9.72933C6.29261 9.83991 6.31888 9.97505 6.29244 10.105C6.05068 11.2903 5.60511 12.4246 4.97557 13.4575C4.95781 13.4869 4.9463 13.5196 4.94173 13.5536C4.93716 13.5876 4.93965 13.6222 4.94903 13.6552C4.95841 13.6882 4.97449 13.7189 4.99626 13.7455C5.01803 13.772 5.04502 13.7937 5.07557 13.8094C5.22994 13.8875 5.38807 13.96 5.54869 14.0263C5.60416 14.05 5.66634 14.0529 5.72378 14.0344C5.78121 14.0159 5.83002 13.9773 5.86119 13.9256C6.93495 12.1421 7.50156 10.0993 7.49994 8.01751C7.49866 7.88916 7.54582 7.76504 7.63201 7.66993C7.7182 7.57481 7.83709 7.5157 7.96494 7.50438C8.03349 7.49957 8.10229 7.50894 8.16705 7.5319C8.23181 7.55487 8.29115 7.59094 8.34135 7.63785C8.39155 7.68477 8.43154 7.74153 8.45883 7.80459C8.48612 7.86766 8.50011 7.93567 8.49994 8.00438C8.50242 10.13 7.95995 12.2207 6.92432 14.0769C6.90438 14.1124 6.89344 14.1523 6.89245 14.1931C6.89145 14.2338 6.90044 14.2742 6.91862 14.3107C6.9368 14.3471 6.96362 14.3786 6.99675 14.4024C7.02988 14.4261 7.06831 14.4414 7.10869 14.4469C7.29828 14.4731 7.49015 14.491 7.68432 14.5006C7.731 14.5024 7.77723 14.491 7.81777 14.4678C7.85831 14.4446 7.89154 14.4105 7.91369 14.3694C8.95314 12.4251 9.49792 10.2547 9.49994 8.05001C9.50307 7.22188 8.85619 6.51938 8.0287 6.50376C7.82962 6.49994 7.63178 6.53579 7.44671 6.60923C7.26163 6.68267 7.09303 6.79221 6.95074 6.93149C6.80844 7.07076 6.69529 7.23697 6.6179 7.42042C6.5405 7.60387 6.50041 7.8009 6.49994 8.00001C6.49903 8.12487 6.452 8.24498 6.3679 8.33727C6.2838 8.42957 6.16856 8.48752 6.04432 8.50001C5.97503 8.50618 5.90521 8.49783 5.83932 8.47548C5.77344 8.45313 5.71295 8.41728 5.66172 8.37022C5.61048 8.32316 5.56963 8.26593 5.54177 8.20218C5.51392 8.13843 5.49967 8.06957 5.49994 8.00001C5.49993 7.66948 5.56545 7.34223 5.69273 7.03719C5.82 6.73216 6.0065 6.45539 6.24143 6.22289C6.47637 5.9904 6.75507 5.8068 7.06142 5.68272C7.36777 5.55864 7.69569 5.49654 8.02619 5.50001C9.40119 5.51438 10.5062 6.69813 10.4993 8.07251C10.4932 10.1111 10.0562 12.1253 9.21682 13.9831C9.19775 14.0259 9.19108 14.0732 9.19758 14.1196C9.20408 14.166 9.22349 14.2096 9.25359 14.2455C9.28369 14.2814 9.32328 14.3082 9.36783 14.3227C9.41238 14.3371 9.46011 14.3388 9.50557 14.3275C9.72241 14.2761 9.93644 14.2135 10.1468 14.14C10.1796 14.1284 10.2096 14.11 10.2349 14.0861C10.2602 14.0622 10.2802 14.0333 10.2937 14.0013C10.5847 13.3115 10.8246 12.6013 11.0112 11.8763C11.0276 11.8126 11.0564 11.7529 11.0959 11.7004C11.1354 11.6479 11.1849 11.6037 11.2415 11.5704C11.298 11.537 11.3606 11.5151 11.4257 11.5059C11.4907 11.4967 11.557 11.5005 11.6206 11.5169C11.6842 11.5333 11.7439 11.5621 11.7964 11.6016C11.8489 11.6411 11.8931 11.6906 11.9265 11.7471C11.9598 11.8037 11.9817 11.8663 11.9909 11.9314C12.0001 11.9964 11.9964 12.0626 11.9799 12.1263C11.9333 12.3083 11.8833 12.4896 11.8299 12.67C11.8142 12.722 11.8159 12.7776 11.8346 12.8285C11.8533 12.8795 11.8881 12.9229 11.9337 12.9524C11.9793 12.9818 12.0332 12.9956 12.0873 12.9917C12.1414 12.9877 12.1928 12.9663 12.2337 12.9306C13.2473 12.0603 13.968 10.8988 14.2979 9.60417C14.6277 8.30957 14.5507 6.94477 14.0772 5.69553C13.6037 4.44629 12.7568 3.37329 11.6517 2.62257C10.5466 1.87185 9.23701 1.47988 7.90119 1.50001ZM12.3749 10.0675C12.3597 10.1882 12.3011 10.2991 12.21 10.3796C12.1189 10.4602 12.0015 10.5047 11.8799 10.505C11.8591 10.505 11.8382 10.5037 11.8174 10.5013C11.7523 10.4931 11.6893 10.4723 11.6322 10.4398C11.5751 10.4074 11.525 10.364 11.4846 10.3122C11.4443 10.2603 11.4146 10.2011 11.3971 10.1378C11.3797 10.0744 11.3749 10.0083 11.3831 9.94313C11.4628 9.30037 11.5029 8.65331 11.5031 8.00563C11.5017 7.07778 11.1326 6.18831 10.4765 5.53222C9.82039 4.87613 8.93092 4.50695 8.00307 4.50563C7.85682 4.50557 7.71071 4.51454 7.56557 4.53251C7.43387 4.54908 7.30099 4.51266 7.19614 4.43126C7.0913 4.34986 7.02308 4.23014 7.00651 4.09844C6.98993 3.96675 7.02635 3.83386 7.10775 3.72901C7.18916 3.62417 7.30887 3.55596 7.44057 3.53938C8.07411 3.46057 8.71716 3.51728 9.32713 3.70575C9.9371 3.89423 10.5001 4.21015 10.9787 4.63261C11.4574 5.05507 11.8408 5.57441 12.1036 6.15624C12.3664 6.73806 12.5026 7.36908 12.5031 8.00751C12.5029 8.69616 12.4601 9.38414 12.3749 10.0675Z" fill="black"/>
</g>
<defs>
<clipPath id="clip0_5_794">
<rect width="16" height="16" fill="white"/>
</clipPath>
</defs>
</svg>
