<svg width="16" height="16" viewBox="0 0 16 16" fill="none" xmlns="http://www.w3.org/2000/svg">
<g clip-path="url(#clip0_5_1294)">
<path d="M11 9.24997C11 9.39831 10.956 9.54331 10.8736 9.66665C10.7912 9.78999 10.6741 9.88612 10.537 9.94288C10.4 9.99965 10.2492 10.0145 10.1037 9.98556C9.9582 9.95662 9.82456 9.88519 9.71967 9.7803C9.61479 9.67541 9.54335 9.54178 9.51441 9.39629C9.48548 9.25081 9.50033 9.10001 9.55709 8.96296C9.61386 8.82592 9.70999 8.70878 9.83333 8.62637C9.95666 8.54396 10.1017 8.49997 10.25 8.49997C10.4489 8.49997 10.6397 8.57899 10.7803 8.71964C10.921 8.8603 11 9.05106 11 9.24997ZM5.75 8.49997C5.60167 8.49997 5.45666 8.54396 5.33333 8.62637C5.20999 8.70878 5.11386 8.82592 5.05709 8.96296C5.00033 9.10001 4.98548 9.25081 5.01441 9.39629C5.04335 9.54178 5.11478 9.67541 5.21967 9.7803C5.32456 9.88519 5.4582 9.95662 5.60369 9.98556C5.74917 10.0145 5.89997 9.99965 6.03702 9.94288C6.17406 9.88612 6.29119 9.78999 6.37361 9.66665C6.45602 9.54331 6.5 9.39831 6.5 9.24997C6.5 9.05106 6.42099 8.8603 6.28033 8.71964C6.13968 8.57899 5.94892 8.49997 5.75 8.49997ZM15 4.49997V9.49997C14.9987 10.693 14.5241 11.8369 13.6805 12.6805C12.8369 13.5241 11.6931 13.9987 10.5 14H5.5C4.30694 13.9987 3.16311 13.5241 2.31949 12.6805C1.47586 11.8369 1.00133 10.693 1 9.49997V4.49997C0.999044 4.0125 1.17616 3.54146 1.49805 3.17537C1.81995 2.80929 2.26446 2.57338 2.74806 2.51197C3.23165 2.45056 3.72102 2.56789 4.1242 2.8419C4.52737 3.11591 4.81659 3.52773 4.9375 3.99997H11.0625C11.1834 3.52773 11.4726 3.11591 11.8758 2.8419C12.279 2.56789 12.7684 2.45056 13.252 2.51197C13.7355 2.57338 14.1801 2.80929 14.502 3.17537C14.8239 3.54146 15.001 4.0125 15 4.49997ZM12.5 8.99997C12.5 8.46954 12.2893 7.96083 11.9142 7.58576C11.5391 7.21069 11.0304 6.99997 10.5 6.99997H5.5C4.96957 6.99997 4.46086 7.21069 4.08579 7.58576C3.71072 7.96083 3.5 8.46954 3.5 8.99997V9.49997C3.5 10.0304 3.71072 10.5391 4.08579 10.9142C4.46086 11.2893 4.96957 11.5 5.5 11.5H10.5C11.0304 11.5 11.5391 11.2893 11.9142 10.9142C12.2893 10.5391 12.5 10.0304 12.5 9.49997V8.99997Z" fill="black"/>
</g>
<defs>
<clipPath id="clip0_5_1294">
<rect width="16" height="16" fill="white"/>
</clipPath>
</defs>
</svg>
