<svg width="16" height="16" viewBox="0 0 16 16" fill="none" xmlns="http://www.w3.org/2000/svg">
<g clip-path="url(#clip0_5_844)">
<path d="M15.9644 7.3125L15.0894 5.125C15.0151 4.93982 14.8869 4.78123 14.7214 4.66978C14.5559 4.55834 14.3608 4.49919 14.1613 4.5H12V4C12 3.86739 11.9473 3.74021 11.8536 3.64645C11.7598 3.55268 11.6326 3.5 11.5 3.5C11.3674 3.5 11.2402 3.55268 11.1464 3.64645C11.0527 3.74021 11 3.86739 11 4V8H1.5C1.36739 8 1.24021 8.05268 1.14645 8.14645C1.05268 8.24021 1 8.36739 1 8.5V11.5C1 11.7652 1.10536 12.0196 1.29289 12.2071C1.48043 12.3946 1.73478 12.5 2 12.5H3.0625C3.17265 12.9302 3.42285 13.3115 3.77366 13.5838C4.12446 13.8561 4.55591 14.0039 5 14.0039C5.44409 14.0039 5.87554 13.8561 6.22635 13.5838C6.57715 13.3115 6.82735 12.9302 6.9375 12.5H10.0625C10.1727 12.9302 10.4229 13.3115 10.7737 13.5838C11.1245 13.8561 11.5559 14.0039 12 14.0039C12.4441 14.0039 12.8755 13.8561 13.2263 13.5838C13.5771 13.3115 13.8273 12.9302 13.9375 12.5H15C15.2652 12.5 15.5196 12.3946 15.7071 12.2071C15.8946 12.0196 16 11.7652 16 11.5V7.5C16.0004 7.43578 15.9883 7.3721 15.9644 7.3125ZM5 13C4.80222 13 4.60888 12.9414 4.44443 12.8315C4.27998 12.7216 4.15181 12.5654 4.07612 12.3827C4.00043 12.2 3.98063 11.9989 4.01921 11.8049C4.0578 11.6109 4.15304 11.4327 4.29289 11.2929C4.43275 11.153 4.61093 11.0578 4.80491 11.0192C4.99889 10.9806 5.19996 11.0004 5.38268 11.0761C5.56541 11.1518 5.72159 11.28 5.83147 11.4444C5.94135 11.6089 6 11.8022 6 12C6 12.2652 5.89464 12.5196 5.70711 12.7071C5.51957 12.8946 5.26522 13 5 13ZM12 13C11.8022 13 11.6089 12.9414 11.4444 12.8315C11.28 12.7216 11.1518 12.5654 11.0761 12.3827C11.0004 12.2 10.9806 11.9989 11.0192 11.8049C11.0578 11.6109 11.153 11.4327 11.2929 11.2929C11.4327 11.153 11.6109 11.0578 11.8049 11.0192C11.9989 10.9806 12.2 11.0004 12.3827 11.0761C12.5654 11.1518 12.7216 11.28 12.8315 11.4444C12.9414 11.6089 13 11.8022 13 12C13 12.2652 12.8946 12.5196 12.7071 12.7071C12.5196 12.8946 12.2652 13 12 13ZM12 7V5.5H14.1613L14.7612 7H12ZM1.5 6C1.36739 6 1.24021 6.05268 1.14645 6.14645C1.05268 6.24021 1 6.36739 1 6.5C1 6.63261 1.05268 6.75979 1.14645 6.85355C1.24021 6.94732 1.36739 7 1.5 7H9.5C9.63261 7 9.75979 6.94732 9.85355 6.85355C9.94732 6.75979 10 6.63261 10 6.5C10 6.36739 9.94732 6.24021 9.85355 6.14645C9.75979 6.05268 9.63261 6 9.5 6H8.5V4.5H9.5C9.63261 4.5 9.75979 4.44732 9.85355 4.35355C9.94732 4.25979 10 4.13261 10 4C10 3.86739 9.94732 3.74021 9.85355 3.64645C9.75979 3.55268 9.63261 3.5 9.5 3.5H1.5C1.36739 3.5 1.24021 3.55268 1.14645 3.64645C1.05268 3.74021 1 3.86739 1 4C1 4.13261 1.05268 4.25979 1.14645 4.35355C1.24021 4.44732 1.36739 4.5 1.5 4.5H2.5V6H1.5ZM6 4.5H7.5V6H6V4.5ZM3.5 4.5H5V6H3.5V4.5Z" fill="black"/>
</g>
<defs>
<clipPath id="clip0_5_844">
<rect width="16" height="16" fill="white"/>
</clipPath>
</defs>
</svg>
