<svg width="16" height="16" viewBox="0 0 16 16" fill="none" xmlns="http://www.w3.org/2000/svg">
<g clip-path="url(#clip0_5_1286)">
<path d="M13.6438 3.02124L9.85125 1.88374L11.7262 0.94624C11.8447 0.886566 11.9346 0.782288 11.9761 0.656346C12.0177 0.530403 12.0075 0.393113 11.9478 0.274677C11.8881 0.156242 11.7839 0.066362 11.6579 0.0248109C11.532 -0.0167401 11.3947 -0.00655888 11.2762 0.0531148L8.375 1.50311C7.07112 1.53699 5.83197 2.07854 4.92142 3.01243C4.01087 3.94633 3.50086 5.19879 3.5 6.50312V13C3.5 13.1326 3.55268 13.2598 3.64645 13.3535C3.74021 13.4473 3.86739 13.5 4 13.5C4.13261 13.5 4.25979 13.4473 4.35355 13.3535C4.44732 13.2598 4.5 13.1326 4.5 13V11H5.5V14.5C5.5 14.7652 5.60536 15.0196 5.79289 15.2071C5.98043 15.3946 6.23478 15.5 6.5 15.5H10.5C10.7652 15.5 11.0196 15.3946 11.2071 15.2071C11.3946 15.0196 11.5 14.7652 11.5 14.5V6.49999C11.499 5.79136 11.2476 5.10589 10.7901 4.5647C10.3326 4.02352 9.69857 3.66145 9 3.54249V2.67186L13.3562 3.97874C13.4196 3.99938 13.4865 4.00714 13.5529 4.00158C13.6193 3.99601 13.6839 3.97723 13.7429 3.94633C13.802 3.91544 13.8542 3.87305 13.8967 3.82167C13.9391 3.77028 13.9708 3.71093 13.99 3.64711C14.0091 3.58329 14.0154 3.51628 14.0083 3.45003C14.0012 3.38377 13.9809 3.3196 13.9486 3.26129C13.9164 3.20298 13.8728 3.15171 13.8204 3.11048C13.7681 3.06926 13.708 3.03892 13.6438 3.02124ZM4.5 9.99999V6.49999C4.50121 5.52618 4.85724 4.58618 5.50146 3.85591C6.14568 3.12564 7.03394 2.65515 8 2.53249V3.54249C7.30143 3.66145 6.66739 4.02352 6.20992 4.5647C5.75245 5.10589 5.501 5.79136 5.5 6.49999V9.99999H4.5ZM10.5 6.49999V9.99999H6.5V6.49999C6.5 5.96956 6.71071 5.46085 7.08579 5.08578C7.46086 4.7107 7.96957 4.49999 8.5 4.49999C9.03043 4.49999 9.53914 4.7107 9.91421 5.08578C10.2893 5.46085 10.5 5.96956 10.5 6.49999Z" fill="black"/>
</g>
<defs>
<clipPath id="clip0_5_1286">
<rect width="16" height="16" fill="white"/>
</clipPath>
</defs>
</svg>
