<svg width="16" height="16" viewBox="0 0 16 16" fill="none" xmlns="http://www.w3.org/2000/svg">
<g clip-path="url(#clip0_5_846)">
<path d="M8.96125 1.11565C8.89961 1.0644 8.82656 1.02873 8.74824 1.01163C8.66993 0.994531 8.58865 0.996513 8.51127 1.01741C8.43388 1.0383 8.36265 1.07749 8.30359 1.13168C8.24452 1.18587 8.19935 1.25347 8.17188 1.32877L6.79688 5.1044L5.28687 3.64127C5.23616 3.59209 5.17561 3.55421 5.10919 3.53013C5.04278 3.50605 4.97201 3.49631 4.90157 3.50157C4.83112 3.50682 4.76258 3.52695 4.70047 3.56062C4.63837 3.59429 4.5841 3.64073 4.54125 3.6969C3.1875 5.47065 2.5 7.25502 2.5 9.00002C2.5 10.4587 3.07946 11.8577 4.11091 12.8891C5.14236 13.9206 6.54131 14.5 8 14.5C9.45869 14.5 10.8576 13.9206 11.8891 12.8891C12.9205 11.8577 13.5 10.4587 13.5 9.00002C13.5 5.2844 10.3256 2.25002 8.96125 1.11565Z" fill="black"/>
</g>
<defs>
<clipPath id="clip0_5_846">
<rect width="16" height="16" fill="white"/>
</clipPath>
</defs>
</svg>
