<svg width="16" height="16" viewBox="0 0 16 16" fill="none" xmlns="http://www.w3.org/2000/svg">
<g clip-path="url(#clip0_5_841)">
<path d="M14.5 6.75V9.25C14.5 9.51522 14.3946 9.76957 14.2071 9.95711C14.0196 10.1446 13.7652 10.25 13.5 10.25H10.25V13.5C10.25 13.7652 10.1446 14.0196 9.95711 14.2071C9.76957 14.3946 9.51522 14.5 9.25 14.5H6.75C6.48478 14.5 6.23043 14.3946 6.04289 14.2071C5.85536 14.0196 5.75 13.7652 5.75 13.5V10.25H2.5C2.23478 10.25 1.98043 10.1446 1.79289 9.95711C1.60536 9.76957 1.5 9.51522 1.5 9.25V6.75C1.5 6.48478 1.60536 6.23043 1.79289 6.04289C1.98043 5.85536 2.23478 5.75 2.5 5.75H5.75V2.5C5.75 2.23478 5.85536 1.98043 6.04289 1.79289C6.23043 1.60536 6.48478 1.5 6.75 1.5H9.25C9.51522 1.5 9.76957 1.60536 9.95711 1.79289C10.1446 1.98043 10.25 2.23478 10.25 2.5V5.75H13.5C13.7652 5.75 14.0196 5.85536 14.2071 6.04289C14.3946 6.23043 14.5 6.48478 14.5 6.75Z" fill="black"/>
</g>
<defs>
<clipPath id="clip0_5_841">
<rect width="16" height="16" fill="white"/>
</clipPath>
</defs>
</svg>
