<svg width="16" height="16" viewBox="0 0 16 16" fill="none" xmlns="http://www.w3.org/2000/svg">
<g clip-path="url(#clip0_5_791)">
<path d="M13.5 3.5H11V3C11 2.60218 10.842 2.22064 10.5607 1.93934C10.2794 1.65804 9.89782 1.5 9.5 1.5H6.5C6.10218 1.5 5.72064 1.65804 5.43934 1.93934C5.15804 2.22064 5 2.60218 5 3V3.5H2.5C2.23478 3.5 1.98043 3.60536 1.79289 3.79289C1.60536 3.98043 1.5 4.23478 1.5 4.5V12.5C1.5 12.7652 1.60536 13.0196 1.79289 13.2071C1.98043 13.3946 2.23478 13.5 2.5 13.5H13.5C13.7652 13.5 14.0196 13.3946 14.2071 13.2071C14.3946 13.0196 14.5 12.7652 14.5 12.5V4.5C14.5 4.23478 14.3946 3.98043 14.2071 3.79289C14.0196 3.60536 13.7652 3.5 13.5 3.5ZM9.5 9H8.5V10C8.5 10.1326 8.44732 10.2598 8.35355 10.3536C8.25979 10.4473 8.13261 10.5 8 10.5C7.86739 10.5 7.74021 10.4473 7.64645 10.3536C7.55268 10.2598 7.5 10.1326 7.5 10V9H6.5C6.36739 9 6.24021 8.94732 6.14645 8.85355C6.05268 8.75979 6 8.63261 6 8.5C6 8.36739 6.05268 8.24021 6.14645 8.14645C6.24021 8.05268 6.36739 8 6.5 8H7.5V7C7.5 6.86739 7.55268 6.74021 7.64645 6.64645C7.74021 6.55268 7.86739 6.5 8 6.5C8.13261 6.5 8.25979 6.55268 8.35355 6.64645C8.44732 6.74021 8.5 6.86739 8.5 7V8H9.5C9.63261 8 9.75979 8.05268 9.85355 8.14645C9.94732 8.24021 10 8.36739 10 8.5C10 8.63261 9.94732 8.75979 9.85355 8.85355C9.75979 8.94732 9.63261 9 9.5 9ZM10 3.5H6V3C6 2.86739 6.05268 2.74021 6.14645 2.64645C6.24021 2.55268 6.36739 2.5 6.5 2.5H9.5C9.63261 2.5 9.75979 2.55268 9.85355 2.64645C9.94732 2.74021 10 2.86739 10 3V3.5Z" fill="black"/>
</g>
<defs>
<clipPath id="clip0_5_791">
<rect width="16" height="16" fill="white"/>
</clipPath>
</defs>
</svg>
