<svg width="16" height="16" viewBox="0 0 16 16" fill="none" xmlns="http://www.w3.org/2000/svg">
<g clip-path="url(#clip0_5_1611)">
<path d="M10.4999 4.75C10.4999 4.89834 10.4559 5.04334 10.3735 5.16668C10.2911 5.29002 10.1739 5.38615 10.0369 5.44291C9.89985 5.49968 9.74905 5.51453 9.60357 5.48559C9.45808 5.45665 9.32445 5.38522 9.21956 5.28033C9.11467 5.17544 9.04324 5.0418 9.0143 4.89632C8.98536 4.75083 9.00021 4.60003 9.05698 4.46299C9.11374 4.32594 9.20987 4.20881 9.33321 4.1264C9.45655 4.04399 9.60155 4 9.74989 4C9.9488 4 10.1396 4.07902 10.2802 4.21967C10.4209 4.36032 10.4999 4.55109 10.4999 4.75ZM13.1249 9.6925C12.1824 10.995 10.7793 11.8725 8.95614 12.3013C7.70114 12.5963 6.23489 12.6763 4.57364 12.5469C4.67364 13.2894 4.81364 14.0715 4.99364 14.8931C5.0219 15.0226 4.99762 15.158 4.92613 15.2695C4.85465 15.3811 4.7418 15.4597 4.61239 15.4881C4.5771 15.4961 4.54105 15.5 4.50489 15.5C4.3909 15.4999 4.28036 15.4609 4.19158 15.3894C4.10281 15.3179 4.04113 15.2182 4.01676 15.1069C3.81301 14.1752 3.65864 13.2873 3.55364 12.4431C2.71114 12.3385 1.82405 12.1842 0.892386 11.98C0.828244 11.9659 0.767502 11.9394 0.713629 11.9018C0.659755 11.8643 0.613806 11.8165 0.578403 11.7611C0.506905 11.6494 0.482709 11.5139 0.511136 11.3844C0.539564 11.2548 0.618288 11.1419 0.729989 11.0704C0.841691 10.9989 0.97722 10.9747 1.10676 11.0031C1.92759 11.1831 2.70884 11.3233 3.45051 11.4238C3.31989 9.76375 3.40176 8.29875 3.69614 7.045C4.12489 5.22188 5.00301 3.81875 6.30489 2.875C7.18739 2.235 8.75864 1.4775 11.2043 1.5C12.5286 1.51313 13.7561 1.77063 13.9424 1.88C14.0154 1.92302 14.0762 1.98388 14.1193 2.05688C14.2286 2.24438 14.4861 3.46875 14.4993 4.79313C14.513 6.14438 14.2855 8.09 13.1249 9.6925ZM13.2768 2.7225C12.4705 2.55778 11.6482 2.4842 10.8255 2.50313C9.30426 2.54313 8.03114 2.90875 7.02801 3.59C7.16436 4.97077 7.77504 6.2616 8.75608 7.24276C9.73712 8.22391 11.0279 8.83474 12.4086 8.97125C13.0905 7.97125 13.4561 6.695 13.4961 5.17375C13.5152 4.35105 13.4419 3.52882 13.2774 2.7225H13.2768Z" fill="black"/>
</g>
<defs>
<clipPath id="clip0_5_1611">
<rect width="16" height="16" fill="white"/>
</clipPath>
</defs>
</svg>
