<svg width="16" height="16" viewBox="0 0 16 16" fill="none" xmlns="http://www.w3.org/2000/svg">
<g clip-path="url(#clip0_5_1620)">
<path d="M10.5001 4.75002C10.5001 4.89835 10.4561 5.04336 10.3737 5.1667C10.2913 5.29003 10.1742 5.38616 10.0371 5.44293C9.90007 5.49969 9.74927 5.51455 9.60378 5.48561C9.45829 5.45667 9.32466 5.38524 9.21977 5.28035C9.11488 5.17546 9.04345 5.04182 9.01451 4.89634C8.98557 4.75085 9.00042 4.60005 9.05719 4.46301C9.11395 4.32596 9.21008 4.20883 9.33342 4.12642C9.45676 4.04401 9.60176 4.00002 9.7501 4.00002C9.94901 4.00002 10.1398 4.07904 10.2804 4.21969C10.4211 4.36034 10.5001 4.55111 10.5001 4.75002ZM13.5451 8.97752C12.3345 11.1588 10.0801 12.3375 6.8426 12.4838L5.4676 15.6969C5.42895 15.7871 5.36461 15.864 5.28259 15.9179C5.20057 15.9718 5.1045 16.0003 5.00635 16H4.97447C4.87144 15.9936 4.77293 15.9554 4.69247 15.8907C4.61201 15.826 4.55354 15.738 4.5251 15.6388L3.6001 12.3994L0.362598 11.4725C0.26308 11.4446 0.174671 11.3865 0.10954 11.3062C0.0444086 11.2259 0.0057564 11.1274 -0.00109687 11.0243C-0.00795014 10.9212 0.0173324 10.8184 0.0712711 10.7302C0.12521 10.6421 0.205153 10.5728 0.300098 10.5319L3.51322 9.15689C3.6601 5.92064 4.83885 3.66689 7.01885 2.45564C8.56572 1.59689 10.3151 1.46564 11.5113 1.50689C12.6763 1.54689 13.7613 1.77377 13.9401 1.88189C14.0131 1.92491 14.074 1.98578 14.117 2.05877C14.2226 2.23689 14.4501 3.32189 14.492 4.48689C14.5345 5.68064 14.4038 7.43064 13.5451 8.97752ZM13.2763 2.72314C12.392 2.53564 9.2701 2.03564 7.0076 3.64502C6.63312 3.91221 6.29671 4.22907 6.0076 4.58689C5.98391 4.9134 6.03175 5.24114 6.14779 5.54724C6.26382 5.85335 6.44526 6.13045 6.67943 6.35921C6.9136 6.58796 7.19487 6.76287 7.50361 6.87171C7.81234 6.98055 8.14111 7.02071 8.46697 6.98939C8.54038 6.98232 8.61445 6.99158 8.68386 7.0165C8.75327 7.04142 8.81631 7.08139 8.86845 7.13354C8.9206 7.18569 8.96057 7.24872 8.98549 7.31813C9.01041 7.38755 9.01967 7.46161 9.0126 7.53502C8.98134 7.861 9.02161 8.18987 9.13061 8.49868C9.2396 8.80748 9.41469 9.08877 9.64364 9.3229C9.8726 9.55704 10.1499 9.73837 10.4562 9.85424C10.7625 9.97012 11.0904 10.0177 11.417 9.99377C11.7735 9.70459 12.0889 9.36816 12.3545 8.99377C13.9638 6.73314 13.4638 3.60877 13.2763 2.72314Z" fill="black"/>
</g>
<defs>
<clipPath id="clip0_5_1620">
<rect width="16" height="16" fill="white"/>
</clipPath>
</defs>
</svg>
