<svg width="16" height="16" viewBox="0 0 16 16" fill="none" xmlns="http://www.w3.org/2000/svg">
<g clip-path="url(#clip0_5_1592)">
<path d="M14.2075 3.04685C14.1202 3.00721 14.0234 2.99351 13.9285 3.00736C13.8337 3.02121 13.7448 3.06203 13.6725 3.12497C11.9225 4.63872 10.44 3.90497 8.72188 3.05435C6.94188 2.17247 4.92375 1.17435 2.6725 3.12497C2.61871 3.17159 2.5755 3.22917 2.54575 3.29384C2.516 3.35851 2.5004 3.42879 2.5 3.49997V14C2.5 14.1326 2.55268 14.2598 2.64645 14.3535C2.74021 14.4473 2.86739 14.5 3 14.5C3.13261 14.5 3.25979 14.4473 3.35355 14.3535C3.44732 14.2598 3.5 14.1326 3.5 14V11.2356C5.17438 9.9131 6.61687 10.6262 8.27812 11.4487C9.30312 11.9556 10.4069 12.5018 11.5906 12.5018C12.4613 12.5018 13.3744 12.205 14.3294 11.3768C14.3832 11.3302 14.4264 11.2726 14.4561 11.208C14.4859 11.1433 14.5015 11.073 14.5019 11.0018V3.49997C14.5014 3.40418 14.4734 3.31055 14.4212 3.23022C14.369 3.14989 14.2948 3.08624 14.2075 3.04685ZM3.5 10.0275V6.86747C4.55312 6.16247 5.54 6.1431 6.5 6.40872V9.64247C5.55437 9.40435 4.55438 9.41935 3.5 10.0275ZM6.5 3.17935C7.07812 3.35622 7.66313 3.64497 8.27812 3.94934C8.98187 4.29747 9.7225 4.66372 10.5 4.85935V8.0931C11.4594 8.35872 12.4462 8.33934 13.5 7.63372V10.7656C12.4456 11.5981 11.4831 11.6231 10.5 11.3225V8.0931C9.14875 7.7181 7.85125 6.78059 6.5 6.40872V3.17935Z" fill="black"/>
</g>
<defs>
<clipPath id="clip0_5_1592">
<rect width="16" height="16" fill="white"/>
</clipPath>
</defs>
</svg>
