<svg width="16" height="16" viewBox="0 0 16 16" fill="none" xmlns="http://www.w3.org/2000/svg">
<g clip-path="url(#clip0_5_833)">
<path d="M15.5 6.49999C15.5001 6.60385 15.4678 6.70515 15.4076 6.78982C15.3475 6.8745 15.2625 6.93834 15.1644 6.97249L4 10.8556V13.5C4 13.6326 3.94732 13.7598 3.85355 13.8535C3.75979 13.9473 3.63261 14 3.5 14C3.36739 14 3.24021 13.9473 3.14645 13.8535C3.05268 13.7598 3 13.6326 3 13.5V2.49999C2.99995 2.42018 3.01901 2.34152 3.05558 2.27058C3.09216 2.19964 3.14518 2.13849 3.21022 2.09223C3.27525 2.04598 3.35042 2.01596 3.42943 2.0047C3.50844 1.99344 3.589 2.00125 3.66438 2.02749L15.1644 6.02749C15.2625 6.06163 15.3475 6.12547 15.4076 6.21015C15.4678 6.29482 15.5001 6.39612 15.5 6.49999Z" fill="black"/>
</g>
<defs>
<clipPath id="clip0_5_833">
<rect width="16" height="16" fill="white"/>
</clipPath>
</defs>
</svg>
