<svg width="16" height="16" viewBox="0 0 16 16" fill="none" xmlns="http://www.w3.org/2000/svg">
<g clip-path="url(#clip0_5_837)">
<path d="M14.9512 3.715L12.0993 9.70375C12.0963 9.71101 12.093 9.7181 12.0893 9.725L9.95116 14.215C9.92395 14.2759 9.88484 14.3307 9.83612 14.3762C9.78741 14.4218 9.73007 14.4571 9.6675 14.4802C9.60492 14.5032 9.53837 14.5135 9.47175 14.5105C9.40514 14.5074 9.3398 14.4911 9.2796 14.4624C9.2194 14.4337 9.16554 14.3933 9.1212 14.3435C9.07686 14.2936 9.04293 14.2355 9.02141 14.1723C8.99989 14.1092 8.99122 14.0424 8.9959 13.9759C9.00058 13.9094 9.01851 13.8445 9.04866 13.785L10.8512 10H2.49991C2.40096 10.0001 2.30421 9.9708 2.22191 9.91586C2.13962 9.86092 2.07547 9.78281 2.03759 9.69139C1.99972 9.59998 1.98982 9.49939 2.00914 9.40235C2.02847 9.3053 2.07615 9.21618 2.14616 9.14625L4.79303 6.5L2.14616 3.85375C2.07615 3.78382 2.02847 3.6947 2.00914 3.59765C1.98982 3.50061 1.99972 3.40002 2.03759 3.30861C2.07547 3.21719 2.13962 3.13908 2.22191 3.08414C2.30421 3.0292 2.40096 2.99992 2.49991 3H14.4999C14.5843 3.00003 14.6673 3.02142 14.7412 3.06219C14.8151 3.10295 14.8775 3.16177 14.9226 3.23314C14.9676 3.30452 14.9939 3.38614 14.9989 3.47039C15.0039 3.55465 14.9874 3.6388 14.9512 3.715Z" fill="black"/>
</g>
<defs>
<clipPath id="clip0_5_837">
<rect width="16" height="16" fill="white"/>
</clipPath>
</defs>
</svg>
