<svg width="16" height="16" viewBox="0 0 16 16" fill="none" xmlns="http://www.w3.org/2000/svg">
<g clip-path="url(#clip0_5_887)">
<path d="M10.8619 3.21747C10.0846 2.39841 9.21 1.67762 8.2575 1.07122C8.17973 1.0245 8.09072 0.999817 8 0.999817C7.90928 0.999817 7.82027 1.0245 7.7425 1.07122C6.79 1.67762 5.91537 2.39841 5.13812 3.21747C3.41187 5.02997 2.5 7.02935 2.5 8.99997C2.5 10.4587 3.07946 11.8576 4.11091 12.8891C5.14236 13.9205 6.54131 14.5 8 14.5C9.45869 14.5 10.8576 13.9205 11.8891 12.8891C12.9205 11.8576 13.5 10.4587 13.5 8.99997C13.5 7.02935 12.5881 5.02997 10.8619 3.21747ZM6 11.5C6 9.7706 7.40812 8.54497 8 8.10622C8.5925 8.54372 10 9.7706 10 11.5C10 12.0304 9.78929 12.5391 9.41421 12.9142C9.03914 13.2893 8.53043 13.5 8 13.5C7.46957 13.5 6.96086 13.2893 6.58579 12.9142C6.21071 12.5391 6 12.0304 6 11.5Z" fill="black"/>
</g>
<defs>
<clipPath id="clip0_5_887">
<rect width="16" height="16" fill="white"/>
</clipPath>
</defs>
</svg>
