<svg width="16" height="16" viewBox="0 0 16 16" fill="none" xmlns="http://www.w3.org/2000/svg">
<g clip-path="url(#clip0_5_1477)">
<path d="M13.8556 12.4856L10 6.0575V2.5H10.5C10.6326 2.5 10.7598 2.44732 10.8536 2.35355C10.9473 2.25979 11 2.13261 11 2C11 1.86739 10.9473 1.74021 10.8536 1.64645C10.7598 1.55268 10.6326 1.5 10.5 1.5H5.50001C5.36741 1.5 5.24023 1.55268 5.14646 1.64645C5.05269 1.74021 5.00001 1.86739 5.00001 2C5.00001 2.13261 5.05269 2.25979 5.14646 2.35355C5.24023 2.44732 5.36741 2.5 5.50001 2.5H6.00001V6.0575L2.14439 12.4856C2.05345 12.6372 2.00434 12.8102 2.00204 12.987C1.99974 13.1638 2.04435 13.338 2.13131 13.4919C2.21827 13.6458 2.34449 13.7739 2.49709 13.8632C2.64969 13.9525 2.82323 13.9997 3.00001 14H13C13.177 14 13.3507 13.953 13.5036 13.8639C13.6565 13.7748 13.7829 13.6467 13.8701 13.4927C13.9573 13.3388 14.0021 13.1644 13.9999 12.9875C13.9977 12.8105 13.9485 12.6374 13.8575 12.4856H13.8556ZM8.22564 9.80375C7.23126 9.30062 6.28501 9.03375 5.39939 9.00313L6.92876 6.45312C6.97553 6.37561 7.00017 6.28678 7.00001 6.19625V2.5H9.00001V6.19625C8.99986 6.28678 9.0245 6.37561 9.07126 6.45312L11.46 10.4375C10.7125 10.5837 9.64314 10.5212 8.22564 9.80375Z" fill="black"/>
</g>
<defs>
<clipPath id="clip0_5_1477">
<rect width="16" height="16" fill="white"/>
</clipPath>
</defs>
</svg>
