<svg width="16" height="16" viewBox="0 0 16 16" fill="none" xmlns="http://www.w3.org/2000/svg">
<g clip-path="url(#clip0_5_787)">
<path d="M7.49996 2.49998V12.5C7.49996 12.7652 7.39461 13.0195 7.20707 13.2071C7.01953 13.3946 6.76518 13.5 6.49996 13.5H2.49996C2.33531 13.5001 2.17318 13.4595 2.02797 13.3819C1.88276 13.3043 1.75896 13.192 1.66757 13.055C1.57618 12.9181 1.52002 12.7607 1.50409 12.5968C1.48815 12.4329 1.51292 12.2676 1.57621 12.1156L5.57621 2.11998L5.57996 2.11123C5.67019 1.89942 5.83074 1.72523 6.0345 1.61807C6.23827 1.51091 6.47277 1.47734 6.69841 1.52302C6.92406 1.56871 7.12703 1.69086 7.27306 1.86885C7.41909 2.04683 7.49924 2.26975 7.49996 2.49998ZM14.3331 13.0525C14.2419 13.19 14.1181 13.3029 13.9728 13.3809C13.8274 13.459 13.665 13.4999 13.5 13.5H9.49996C9.23475 13.5 8.98039 13.3946 8.79286 13.2071C8.60532 13.0195 8.49996 12.7652 8.49996 12.5V2.49998C8.49987 2.26917 8.57962 2.04544 8.72568 1.86673C8.87174 1.68803 9.07513 1.56534 9.30133 1.5195C9.52754 1.47365 9.76264 1.50747 9.96676 1.61521C10.1709 1.72295 10.3314 1.89797 10.4212 2.1106L10.425 2.11935L14.425 12.115C14.4878 12.2668 14.5124 12.4317 14.4963 12.5952C14.4803 12.7587 14.4242 12.9158 14.3331 13.0525ZM13.5 12.5L13.4962 12.4906L9.49996 2.49998V12.5H13.5Z" fill="black"/>
</g>
<defs>
<clipPath id="clip0_5_787">
<rect width="16" height="16" fill="white"/>
</clipPath>
</defs>
</svg>
