<svg width="16" height="16" viewBox="0 0 16 16" fill="none" xmlns="http://www.w3.org/2000/svg">
<g clip-path="url(#clip0_5_881)">
<path d="M3.5 7.50001H13.5C13.7308 7.5001 13.9545 7.42035 14.1332 7.27429C14.312 7.12823 14.4346 6.92485 14.4805 6.69864C14.5263 6.47243 14.4925 6.23733 14.3848 6.03322C14.277 5.8291 14.102 5.66854 13.8894 5.57876L13.8806 5.57501L3.885 1.57501C3.73287 1.51155 3.56741 1.48667 3.40334 1.50261C3.23927 1.51854 3.08169 1.57479 2.94461 1.66634C2.80753 1.75789 2.69521 1.88191 2.61764 2.02735C2.54007 2.1728 2.49966 2.33517 2.5 2.50001V6.50001C2.5 6.76523 2.60536 7.01958 2.7929 7.20712C2.98043 7.39465 3.23479 7.50001 3.5 7.50001ZM3.5 2.50001L3.50938 2.50376L13.5 6.50001H3.5V2.50001ZM14.4794 9.30126C14.5271 9.52753 14.4942 9.76338 14.3864 9.96794C14.2785 10.1725 14.1024 10.3329 13.8888 10.4213L13.88 10.425L3.88438 14.425C3.73227 14.4883 3.56688 14.5131 3.4029 14.4971C3.23892 14.4811 3.08143 14.4248 2.94443 14.3333C2.80744 14.2418 2.69519 14.1178 2.61765 13.9724C2.54012 13.8271 2.4997 13.6648 2.5 13.5V9.50001C2.5 9.23479 2.60536 8.98044 2.7929 8.7929C2.98043 8.60537 3.23479 8.50001 3.5 8.50001H13.5C13.7311 8.49837 13.9554 8.57757 14.1343 8.72389C14.3131 8.87021 14.4352 9.07444 14.4794 9.30126Z" fill="black"/>
</g>
<defs>
<clipPath id="clip0_5_881">
<rect width="16" height="16" fill="white"/>
</clipPath>
</defs>
</svg>
