<svg width="16" height="16" viewBox="0 0 16 16" fill="none" xmlns="http://www.w3.org/2000/svg">
<g clip-path="url(#clip0_5_1481)">
<path d="M13 2.00001H5.20688C5.07551 1.99959 4.94537 2.02528 4.82402 2.0756C4.70266 2.12593 4.59253 2.19987 4.50001 2.29313L2.29313 4.50001C2.19987 4.59253 2.12593 4.70266 2.0756 4.82402C2.02528 4.94537 1.99959 5.07551 2.00001 5.20688V13C2.00001 13.2652 2.10536 13.5196 2.2929 13.7071C2.48043 13.8946 2.73479 14 3.00001 14H13C13.2652 14 13.5196 13.8946 13.7071 13.7071C13.8946 13.5196 14 13.2652 14 13V3.00001C14 2.73479 13.8946 2.48043 13.7071 2.2929C13.5196 2.10536 13.2652 2.00001 13 2.00001ZM8.00001 11.5C7.60444 11.5 7.21776 11.3827 6.88886 11.1629C6.55997 10.9432 6.30362 10.6308 6.15225 10.2654C6.00087 9.89992 5.96126 9.49779 6.03843 9.10982C6.1156 8.72186 6.30609 8.3655 6.58579 8.08579C6.8655 7.80609 7.22186 7.6156 7.60982 7.53843C7.99779 7.46126 8.39992 7.50087 8.76537 7.65225C9.13082 7.80362 9.44318 8.05997 9.66294 8.38886C9.88271 8.71776 10 9.10444 10 9.50001C10 10.0304 9.78929 10.5391 9.41422 10.9142C9.03915 11.2893 8.53044 11.5 8.00001 11.5ZM10.75 5.00001C10.75 5.06631 10.7237 5.1299 10.6768 5.17678C10.6299 5.22367 10.5663 5.25001 10.5 5.25001H5.50001C5.4337 5.25001 5.37011 5.22367 5.32323 5.17678C5.27634 5.1299 5.25001 5.06631 5.25001 5.00001V3.00001H10.75V5.00001Z" fill="black"/>
</g>
<defs>
<clipPath id="clip0_5_1481">
<rect width="16" height="16" fill="white"/>
</clipPath>
</defs>
</svg>
