<svg width="16" height="16" viewBox="0 0 16 16" fill="none" xmlns="http://www.w3.org/2000/svg">
<g clip-path="url(#clip0_5_785)">
<path d="M15.3537 5.35372L13.3537 7.35372C13.2599 7.44754 13.1327 7.50025 13 7.50025C12.8673 7.50025 12.74 7.44754 12.6462 7.35372C12.5524 7.2599 12.4997 7.13265 12.4997 6.99997C12.4997 6.86729 12.5524 6.74004 12.6462 6.64622L13.7931 5.49997H13C10.5831 5.49997 10.0881 6.68747 9.46122 8.19247C8.81559 9.74247 8.08309 11.5 4.99997 11.5H4.93747C4.81577 11.9713 4.52635 12.3821 4.12346 12.6553C3.72058 12.9285 3.23188 13.0454 2.74897 12.984C2.26606 12.9227 1.8221 12.6873 1.50031 12.3221C1.17851 11.9568 1.00098 11.4868 1.00098 11C1.00098 10.5132 1.17851 10.0431 1.50031 9.67786C1.8221 9.3126 2.26606 9.07725 2.74897 9.01591C3.23188 8.95458 3.72058 9.07147 4.12346 9.34467C4.52635 9.61788 4.81577 10.0286 4.93747 10.5H4.99997C7.41684 10.5 7.91184 9.31247 8.53872 7.80747C9.18747 6.25747 9.91684 4.49997 13 4.49997H13.7931L12.6462 3.35372C12.5524 3.2599 12.4997 3.13265 12.4997 2.99997C12.4997 2.86729 12.5524 2.74004 12.6462 2.64622C12.74 2.5524 12.8673 2.49969 13 2.49969C13.1327 2.49969 13.2599 2.5524 13.3537 2.64622L15.3537 4.64622C15.4002 4.69266 15.4371 4.7478 15.4622 4.8085C15.4874 4.8692 15.5004 4.93427 15.5004 4.99997C15.5004 5.06568 15.4874 5.13074 15.4622 5.19144C15.4371 5.25214 15.4002 5.30729 15.3537 5.35372Z" fill="black"/>
</g>
<defs>
<clipPath id="clip0_5_785">
<rect width="16" height="16" fill="white"/>
</clipPath>
</defs>
</svg>
