<svg width="16" height="16" viewBox="0 0 16 16" fill="none" xmlns="http://www.w3.org/2000/svg">
<g clip-path="url(#clip0_5_1471)">
<path d="M15.3644 7.60187C15.3006 7.48982 15.2152 7.3916 15.113 7.31294C15.0108 7.23428 14.894 7.17677 14.7694 7.14375C14.3173 7.0274 13.85 6.98062 13.3838 7.005C13.6338 5.76438 13.4463 4.78313 13.2588 4.20125C13.1823 3.96226 13.0196 3.76027 12.8025 3.63458C12.5853 3.50889 12.3291 3.4685 12.0838 3.52125C11.4478 3.66289 10.8431 3.91961 10.2994 4.27875C9.90125 3.4654 9.32155 2.7544 8.60503 2.20062C8.4314 2.0704 8.2202 2 8.00316 2C7.78611 2 7.57492 2.0704 7.40128 2.20062C6.68363 2.75405 6.10284 3.46508 5.70378 4.27875C5.16013 3.91961 4.55539 3.66289 3.91941 3.52125C3.67415 3.46823 3.41793 3.50852 3.20078 3.63426C2.98363 3.75999 2.82114 3.96215 2.74503 4.20125C2.55753 4.78313 2.37003 5.76375 2.61628 7.005C2.15004 6.98062 1.68281 7.0274 1.23066 7.14375C1.10602 7.17677 0.989218 7.23428 0.887059 7.31294C0.7849 7.3916 0.699436 7.48982 0.635658 7.60187C0.568994 7.71658 0.525821 7.8434 0.508653 7.97495C0.491485 8.1065 0.500664 8.24016 0.535658 8.36812C0.747533 9.15438 1.39816 10.6488 3.36878 11.8263C5.33941 13.0037 7.07066 13 8.00316 13C8.93566 13 10.67 13 12.6282 11.8263C14.5988 10.6488 15.2494 9.15438 15.4613 8.36812C15.4967 8.24036 15.5064 8.10682 15.4898 7.97527C15.4732 7.84372 15.4305 7.7168 15.3644 7.60187ZM3.88128 10.9681C2.21691 9.97313 1.67628 8.75312 1.50003 8.10625C1.95987 7.99271 2.43715 7.96789 2.90628 8.03312C3.06291 8.45267 3.25419 8.85845 3.47816 9.24625C4.02807 10.1943 4.74851 11.0326 5.60316 11.7188C4.99882 11.545 4.41991 11.2926 3.88128 10.9681ZM8.00003 11.9C7.41691 11.4662 6.00003 10.1356 6.00003 7.44812C6.00003 4.79375 7.39878 3.4525 8.00003 3C8.60128 3.45375 10 4.795 10 7.44938C10 10.1356 8.58316 11.4662 8.00003 11.9ZM14.5 8.1075C14.3269 8.7475 13.7875 9.97063 12.1194 10.9681C11.5807 11.2924 11.0018 11.5446 10.3975 11.7181C11.2522 11.032 11.9726 10.1937 12.5225 9.24562C12.7465 8.85782 12.9378 8.45205 13.0944 8.0325C13.5634 7.96787 14.0405 7.99312 14.5 8.10688V8.1075Z" fill="black"/>
</g>
<defs>
<clipPath id="clip0_5_1471">
<rect width="16" height="16" fill="white"/>
</clipPath>
</defs>
</svg>
