<svg width="16" height="16" viewBox="0 0 16 16" fill="none" xmlns="http://www.w3.org/2000/svg">
<g clip-path="url(#clip0_5_783)">
<path d="M13 2.99999C12.239 2.99931 11.4863 3.15747 10.79 3.46437C9.84625 1.87874 8.295 1.08937 8.22375 1.05249C8.15428 1.01773 8.07768 0.999634 8 0.999634C7.92232 0.999634 7.84572 1.01773 7.77625 1.05249C7.705 1.08874 6.15125 1.87874 5.21 3.46437C4.51368 3.15747 3.76096 2.99931 3 2.99999C2.86739 2.99999 2.74021 3.05267 2.64645 3.14644C2.55268 3.24021 2.5 3.36738 2.5 3.49999V5.99999C2.50165 7.37161 3.01511 8.69325 3.93989 9.70623C4.86467 10.7192 6.1342 11.3506 7.5 11.4769V13.6912L5.22375 12.5525C5.16498 12.5231 5.101 12.5056 5.03547 12.5009C4.96993 12.4963 4.90412 12.5046 4.84178 12.5253C4.77945 12.5461 4.72182 12.579 4.67219 12.622C4.62255 12.6651 4.58188 12.7175 4.5525 12.7762C4.52312 12.835 4.5056 12.899 4.50094 12.9645C4.49628 13.0301 4.50458 13.0959 4.52535 13.1582C4.54613 13.2205 4.57898 13.2782 4.62203 13.3278C4.66508 13.3774 4.71748 13.4181 4.77625 13.4475L7.77625 14.9475C7.84572 14.9823 7.92232 15.0003 8 15.0003C8.07768 15.0003 8.15428 14.9823 8.22375 14.9475L11.2238 13.4475C11.3424 13.3881 11.4327 13.2841 11.4746 13.1582C11.5166 13.0323 11.5068 12.8949 11.4475 12.7762C11.3882 12.6576 11.2841 12.5673 11.1582 12.5253C11.0323 12.4834 10.8949 12.4931 10.7762 12.5525L8.5 13.6912V11.4769C9.8658 11.3506 11.1353 10.7192 12.0601 9.70623C12.9849 8.69325 13.4984 7.37161 13.5 5.99999V3.49999C13.5 3.36738 13.4473 3.24021 13.3536 3.14644C13.2598 3.05267 13.1326 2.99999 13 2.99999ZM3.5 5.99999V4.02749C4.59957 4.15181 5.61495 4.67636 6.35263 5.50118C7.09032 6.326 7.49872 7.39342 7.5 8.49999V10.4725C6.40043 10.3482 5.38505 9.82362 4.64737 8.9988C3.90968 8.17398 3.50128 7.10656 3.5 5.99999ZM12.5 5.99999C12.4987 7.10656 12.0903 8.17398 11.3526 8.9988C10.615 9.82362 9.59957 10.3482 8.5 10.4725V8.49999C8.50128 7.39342 8.90968 6.326 9.64736 5.50118C10.385 4.67636 11.4004 4.15181 12.5 4.02749V5.99999Z" fill="black"/>
</g>
<defs>
<clipPath id="clip0_5_783">
<rect width="16" height="16" fill="white"/>
</clipPath>
</defs>
</svg>
