<svg width="16" height="16" viewBox="0 0 16 16" fill="none" xmlns="http://www.w3.org/2000/svg">
<g clip-path="url(#clip0_5_875)">
<path d="M13.1469 8.08501C13.0962 8.05564 13.0406 8.02751 12.9831 8.00001C13.0406 7.97251 13.0962 7.94439 13.1469 7.91501C13.4335 7.75206 13.685 7.53402 13.887 7.27345C14.089 7.01288 14.2375 6.71493 14.3239 6.39674C14.4103 6.07856 14.4329 5.74643 14.3904 5.41948C14.3479 5.09254 14.2411 4.77722 14.0763 4.49169C13.9114 4.20617 13.6917 3.95607 13.4298 3.7558C13.1679 3.55553 12.869 3.40904 12.5502 3.32476C12.2315 3.24049 11.8992 3.2201 11.5725 3.26477C11.2459 3.30943 10.9313 3.41827 10.6469 3.58501C10.5962 3.61439 10.5437 3.64751 10.4919 3.68439C10.4969 3.62189 10.5 3.55939 10.5 3.49689C10.5 2.83385 10.2366 2.19796 9.76775 1.72912C9.29891 1.26028 8.66302 0.996887 7.99998 0.996887C7.33694 0.996887 6.70106 1.26028 6.23221 1.72912C5.76337 2.19796 5.49998 2.83385 5.49998 3.49689C5.49998 3.55564 5.49998 3.61814 5.50811 3.68439C5.45623 3.64876 5.40373 3.61439 5.35311 3.58501C5.06868 3.41827 4.75408 3.30943 4.42742 3.26477C4.10076 3.2201 3.76849 3.24049 3.44974 3.32476C3.13099 3.40904 2.83206 3.55553 2.57016 3.7558C2.30825 3.95607 2.08855 4.20617 1.9237 4.49169C1.75884 4.77722 1.6521 5.09254 1.6096 5.41948C1.5671 5.74643 1.5897 6.07856 1.67608 6.39674C1.76247 6.71493 1.91093 7.01288 2.11294 7.27345C2.31494 7.53402 2.56649 7.75206 2.85311 7.91501C2.90373 7.94439 2.95936 7.97251 3.01686 8.00001C2.95936 8.02751 2.90373 8.05564 2.85311 8.08501C2.56649 8.24797 2.31494 8.46601 2.11294 8.72658C1.91093 8.98715 1.76247 9.2851 1.67608 9.60328C1.5897 9.92146 1.5671 10.2536 1.6096 10.5805C1.6521 10.9075 1.75884 11.2228 1.9237 11.5083C2.08855 11.7939 2.30825 12.044 2.57016 12.2442C2.83206 12.4445 3.13099 12.591 3.44974 12.6753C3.76849 12.7595 4.10076 12.7799 4.42742 12.7353C4.75408 12.6906 5.06868 12.5818 5.35311 12.415C5.40373 12.3856 5.45623 12.3525 5.50811 12.3156C5.50311 12.3781 5.49998 12.4406 5.49998 12.5C5.49998 13.1631 5.76337 13.7989 6.23221 14.2678C6.70106 14.7366 7.33694 15 7.99998 15C8.66302 15 9.29891 14.7366 9.76775 14.2678C10.2366 13.7989 10.5 13.1631 10.5 12.5C10.5 12.4413 10.4969 12.3788 10.4919 12.3156C10.5437 12.3513 10.5962 12.3856 10.6469 12.415C11.0256 12.6344 11.4554 12.75 11.8931 12.75C12.113 12.7497 12.332 12.7207 12.5444 12.6638C13.022 12.5358 13.4509 12.269 13.7769 11.8972C14.1029 11.5254 14.3113 11.0653 14.3758 10.5751C14.4403 10.0848 14.3579 9.58646 14.1392 9.14301C13.9204 8.69956 13.5751 8.33094 13.1469 8.08376V8.08501ZM7.99998 9.75001C7.65386 9.75001 7.31552 9.64738 7.02773 9.45508C6.73995 9.26279 6.51565 8.98948 6.38319 8.66971C6.25074 8.34994 6.21608 7.99807 6.28361 7.6586C6.35113 7.31914 6.5178 7.00732 6.76254 6.76258C7.00729 6.51783 7.31911 6.35116 7.65857 6.28364C7.99804 6.21611 8.34991 6.25077 8.66968 6.38322C8.98945 6.51568 9.26276 6.73998 9.45505 7.02776C9.64735 7.31555 9.74998 7.65389 9.74998 8.00001C9.74998 8.46414 9.56561 8.90926 9.23742 9.23745C8.90923 9.56564 8.46411 9.75001 7.99998 9.75001Z" fill="black"/>
</g>
<defs>
<clipPath id="clip0_5_875">
<rect width="16" height="16" fill="white"/>
</clipPath>
</defs>
</svg>
