<svg width="16" height="16" viewBox="0 0 16 16" fill="none" xmlns="http://www.w3.org/2000/svg">
<g clip-path="url(#clip0_5_781)">
<path d="M11.4744 13.3419C11.5163 13.4677 11.5066 13.605 11.4472 13.7237C11.3879 13.8423 11.2839 13.9325 11.1581 13.9744C11.0323 14.0163 10.895 14.0066 10.7764 13.9473C10.6578 13.888 10.5676 13.784 10.5256 13.6582L10.0256 12.1582C10.0049 12.0959 9.99657 12.0301 10.0012 11.9646C10.0059 11.8991 10.0234 11.8351 10.0528 11.7764C10.0821 11.7177 10.1228 11.6653 10.1724 11.6223C10.222 11.5793 10.2796 11.5464 10.3419 11.5257C10.4042 11.5049 10.4699 11.4966 10.5354 11.5013C10.6009 11.5059 10.6649 11.5234 10.7236 11.5528C10.7824 11.5822 10.8347 11.6228 10.8778 11.6724C10.9208 11.722 10.9536 11.7796 10.9744 11.8419L11.4744 13.3419ZM8 11.5C7.86739 11.5 7.74021 11.5527 7.64645 11.6465C7.55268 11.7402 7.5 11.8674 7.5 12V14C7.5 14.1326 7.55268 14.2598 7.64645 14.3536C7.74021 14.4474 7.86739 14.5 8 14.5C8.13261 14.5 8.25979 14.4474 8.35355 14.3536C8.44732 14.2598 8.5 14.1326 8.5 14V12C8.5 11.8674 8.44732 11.7402 8.35355 11.6465C8.25979 11.5527 8.13261 11.5 8 11.5ZM5.65812 11.5257C5.59583 11.5049 5.53005 11.4966 5.46455 11.5012C5.39905 11.5059 5.33511 11.5234 5.27637 11.5528C5.21764 11.5821 5.16526 11.6228 5.12224 11.6724C5.07922 11.722 5.04639 11.7796 5.02563 11.8419L4.52563 13.3419C4.48369 13.4677 4.49345 13.605 4.55275 13.7237C4.61206 13.8423 4.71606 13.9325 4.84188 13.9744C4.96769 14.0163 5.10501 14.0066 5.22362 13.9473C5.34224 13.888 5.43244 13.784 5.47437 13.6582L5.97437 12.1582C5.99514 12.0959 6.00344 12.0301 5.99879 11.9646C5.99413 11.8991 5.97662 11.8351 5.94726 11.7764C5.91789 11.7177 5.87724 11.6653 5.82763 11.6223C5.77802 11.5792 5.72042 11.5464 5.65812 11.5257ZM15.5 7.00003C15.5 8.01378 14.6644 8.93065 13.1469 9.58065C11.7638 10.1738 9.9375 10.5 8 10.5C6.0625 10.5 4.23625 10.1738 2.85313 9.58065C1.33563 8.93065 0.5 8.01378 0.5 7.00003C0.5 6.4769 0.729375 5.70065 1.82313 4.96878C2.53375 4.49315 3.50688 4.10878 4.64687 3.85315C4.96478 3.34947 5.39175 2.92361 5.89626 2.60702C6.40077 2.29042 6.96994 2.09118 7.56175 2.02399C8.15357 1.9568 8.75292 2.02338 9.31556 2.21881C9.87821 2.41425 10.3898 2.73355 10.8125 3.15315C11.0281 3.36652 11.2191 3.60342 11.3819 3.8594C13.9644 4.44315 15.5 5.60878 15.5 7.00003ZM11 6.00003C11.001 5.48914 10.8706 4.98658 10.6213 4.54065L10.6175 4.53503C10.3534 4.06393 9.9672 3.67273 9.49953 3.40261C9.03187 3.13248 8.50003 2.99341 7.96 3.00003C6.32812 3.02128 5 4.39065 5 6.0519V6.2394C4.99936 6.35172 5.03694 6.46091 5.10656 6.54905C5.17619 6.63718 5.27371 6.69902 5.38312 6.7244C6.24237 6.91384 7.12015 7.0063 8 7.00003C8.87935 7.0071 9.75671 6.91549 10.6156 6.7269C10.7252 6.70166 10.823 6.6399 10.8928 6.55177C10.9627 6.46363 11.0005 6.35436 11 6.2419V6.00003Z" fill="black"/>
</g>
<defs>
<clipPath id="clip0_5_781">
<rect width="16" height="16" fill="white"/>
</clipPath>
</defs>
</svg>
