<svg width="16" height="16" viewBox="0 0 16 16" fill="none" xmlns="http://www.w3.org/2000/svg">
<g clip-path="url(#clip0_5_779)">
<path d="M13.5 4.5H8.20687L6.5 2.79313C6.40744 2.69992 6.29729 2.62602 6.17595 2.5757C6.05461 2.52538 5.92449 2.49965 5.79313 2.5H2.5C2.23478 2.5 1.98043 2.60536 1.79289 2.7929C1.60536 2.98043 1.5 3.23479 1.5 3.5V12.5388C1.5005 12.7936 1.60202 13.038 1.78231 13.2181C1.96261 13.3983 2.20698 13.4997 2.46187 13.5H13.5556C13.806 13.4997 14.046 13.4001 14.223 13.223C14.4001 13.046 14.4997 12.806 14.5 12.5556V5.5C14.5 5.23479 14.3946 4.98043 14.2071 4.7929C14.0196 4.60536 13.7652 4.5 13.5 4.5ZM2.5 3.5H5.79313L6.79313 4.5H2.5V3.5ZM9.5 9.5H6.5C6.36739 9.5 6.24021 9.44733 6.14645 9.35356C6.05268 9.25979 6 9.13261 6 9C6 8.86739 6.05268 8.74022 6.14645 8.64645C6.24021 8.55268 6.36739 8.5 6.5 8.5H9.5C9.63261 8.5 9.75979 8.55268 9.85355 8.64645C9.94732 8.74022 10 8.86739 10 9C10 9.13261 9.94732 9.25979 9.85355 9.35356C9.75979 9.44733 9.63261 9.5 9.5 9.5Z" fill="black"/>
</g>
<defs>
<clipPath id="clip0_5_779">
<rect width="16" height="16" fill="white"/>
</clipPath>
</defs>
</svg>
