<svg width="16" height="16" viewBox="0 0 16 16" fill="none" xmlns="http://www.w3.org/2000/svg">
<g clip-path="url(#clip0_5_773)">
<path d="M14.4831 13.8713C14.5029 13.9453 14.5053 14.0229 14.4903 14.098C14.4753 14.1732 14.4432 14.2439 14.3965 14.3046C14.3498 14.3654 14.2897 14.4146 14.221 14.4485C14.1522 14.4824 14.0766 14.5 14 14.5H10C9.92378 14.4998 9.84859 14.4823 9.7802 14.4486C9.71181 14.415 9.65203 14.3661 9.60541 14.3058C9.55879 14.2455 9.52658 14.1753 9.51123 14.1007C9.49589 14.026 9.49782 13.9488 9.51688 13.875C9.67892 13.2726 10.0603 12.7525 10.5863 12.4169C10.3064 12.1372 10.1158 11.7809 10.0385 11.3929C9.96125 11.0049 10.0008 10.6027 10.1521 10.2371C10.3035 9.87161 10.5598 9.55917 10.8887 9.33935C11.2177 9.11953 11.6044 9.0022 12 9.0022C12.3956 9.0022 12.7823 9.11953 13.1113 9.33935C13.4402 9.55917 13.6965 9.87161 13.8479 10.2371C13.9992 10.6027 14.0388 11.0049 13.9615 11.3929C13.8842 11.7809 13.6936 12.1372 13.4137 12.4169C13.9389 12.7516 14.3202 13.2702 14.4831 13.8713ZM13.5 4.5H8.16687L6.43313 3.2C6.25978 3.07066 6.04941 3.00054 5.83313 3H2.5C2.23478 3 1.98043 3.10536 1.79289 3.29289C1.60536 3.48043 1.5 3.73478 1.5 4V12.5C1.5 12.7652 1.60536 13.0196 1.79289 13.2071C1.98043 13.3946 2.23478 13.5 2.5 13.5H7.5C7.63261 13.5 7.75979 13.4473 7.85355 13.3536C7.94732 13.2598 8 13.1326 8 13C8 12.8674 7.94732 12.7402 7.85355 12.6464C7.75979 12.5527 7.63261 12.5 7.5 12.5H2.5V4H5.83313L7.56687 5.3C7.74022 5.42934 7.95059 5.49946 8.16687 5.5H13.5V7.5C13.5 7.63261 13.5527 7.75979 13.6464 7.85355C13.7402 7.94732 13.8674 8 14 8C14.1326 8 14.2598 7.94732 14.3536 7.85355C14.4473 7.75979 14.5 7.63261 14.5 7.5V5.5C14.5 5.23478 14.3946 4.98043 14.2071 4.79289C14.0196 4.60536 13.7652 4.5 13.5 4.5Z" fill="black"/>
</g>
<defs>
<clipPath id="clip0_5_773">
<rect width="16" height="16" fill="white"/>
</clipPath>
</defs>
</svg>
