<svg width="16" height="16" viewBox="0 0 16 16" fill="none" xmlns="http://www.w3.org/2000/svg">
<g clip-path="url(#clip0_5_775)">
<path d="M14 10H13.5V9.75C13.5 9.28587 13.3156 8.84075 12.9874 8.51256C12.6592 8.18437 12.2141 8 11.75 8C11.2859 8 10.8408 8.18437 10.5126 8.51256C10.1844 8.84075 10 9.28587 10 9.75V10H9.5C9.36739 10 9.24021 10.0527 9.14645 10.1464C9.05268 10.2402 9 10.3674 9 10.5V13C9 13.1326 9.05268 13.2598 9.14645 13.3536C9.24021 13.4473 9.36739 13.5 9.5 13.5H14C14.1326 13.5 14.2598 13.4473 14.3536 13.3536C14.4473 13.2598 14.5 13.1326 14.5 13V10.5C14.5 10.3674 14.4473 10.2402 14.3536 10.1464C14.2598 10.0527 14.1326 10 14 10ZM12.5 10H11V9.75C11 9.55109 11.079 9.36032 11.2197 9.21967C11.3603 9.07902 11.5511 9 11.75 9C11.9489 9 12.1397 9.07902 12.2803 9.21967C12.421 9.36032 12.5 9.55109 12.5 9.75V10ZM14.5 5.5V6.5C14.5 6.63261 14.4473 6.75979 14.3536 6.85355C14.2598 6.94732 14.1326 7 14 7C13.8674 7 13.7402 6.94732 13.6464 6.85355C13.5527 6.75979 13.5 6.63261 13.5 6.5V5.5H8.16687C7.95059 5.49946 7.74022 5.42934 7.56687 5.3L5.83313 4H2.5V12.5H7C7.13261 12.5 7.25979 12.5527 7.35355 12.6464C7.44732 12.7402 7.5 12.8674 7.5 13C7.5 13.1326 7.44732 13.2598 7.35355 13.3536C7.25979 13.4473 7.13261 13.5 7 13.5H2.5C2.23478 13.5 1.98043 13.3946 1.79289 13.2071C1.60536 13.0196 1.5 12.7652 1.5 12.5V4C1.5 3.73478 1.60536 3.48043 1.79289 3.29289C1.98043 3.10536 2.23478 3 2.5 3H5.83313C6.04941 3.00054 6.25978 3.07066 6.43313 3.2L8.16687 4.5H13.5C13.7652 4.5 14.0196 4.60536 14.2071 4.79289C14.3946 4.98043 14.5 5.23478 14.5 5.5Z" fill="black"/>
</g>
<defs>
<clipPath id="clip0_5_775">
<rect width="16" height="16" fill="white"/>
</clipPath>
</defs>
</svg>
