<svg width="16" height="16" viewBox="0 0 16 16" fill="none" xmlns="http://www.w3.org/2000/svg">
<g clip-path="url(#clip0_5_1614)">
<path d="M14.4831 13.8713C14.5029 13.9453 14.5053 14.0229 14.4903 14.098C14.4753 14.1732 14.4432 14.2439 14.3965 14.3047C14.3498 14.3654 14.2897 14.4146 14.221 14.4485C14.1522 14.4824 14.0766 14.5 14 14.5H10C9.92378 14.4999 9.84859 14.4823 9.7802 14.4486C9.71181 14.415 9.65203 14.3661 9.60541 14.3058C9.55879 14.2455 9.52658 14.1753 9.51123 14.1007C9.49589 14.026 9.49782 13.9488 9.51688 13.875C9.67892 13.2726 10.0603 12.7525 10.5863 12.4169C10.3064 12.1372 10.1158 11.7809 10.0385 11.3929C9.96125 11.0049 10.0008 10.6027 10.1521 10.2371C10.3035 9.87161 10.5598 9.55918 10.8887 9.33935C11.2177 9.11953 11.6044 9.0022 12 9.0022C12.3956 9.0022 12.7823 9.11953 13.1113 9.33935C13.4402 9.55918 13.6965 9.87161 13.8479 10.2371C13.9992 10.6027 14.0388 11.0049 13.9615 11.3929C13.8842 11.7809 13.6936 12.1372 13.4137 12.4169C13.9389 12.7516 14.3202 13.2702 14.4831 13.8713ZM14.5 5.50001V7.50001C14.5 7.63261 14.4473 7.75979 14.3536 7.85356C14.2598 7.94733 14.1326 8.00001 14 8.00001C13.8674 8.00001 13.7402 7.94733 13.6464 7.85356C13.5527 7.75979 13.5 7.63261 13.5 7.50001V5.50001H2.5V12.5H7.535C7.66761 12.5 7.79479 12.5527 7.88855 12.6465C7.98232 12.7402 8.035 12.8674 8.035 13C8.035 13.1326 7.98232 13.2598 7.88855 13.3536C7.79479 13.4473 7.66761 13.5 7.535 13.5H2.46125C2.20641 13.4997 1.96211 13.3983 1.78191 13.2181C1.60171 13.0379 1.50033 12.7936 1.5 12.5388V3.50001C1.5 3.23479 1.60536 2.98043 1.79289 2.7929C1.98043 2.60536 2.23478 2.50001 2.5 2.50001H5.79313C5.9245 2.49959 6.05464 2.52528 6.17599 2.5756C6.29734 2.62593 6.40748 2.69987 6.5 2.79313L8.20687 4.50001H13.5C13.7652 4.50001 14.0196 4.60536 14.2071 4.7929C14.3946 4.98043 14.5 5.23479 14.5 5.50001ZM6.79313 4.50001L5.79313 3.50001H2.5V4.50001H6.79313Z" fill="black"/>
</g>
<defs>
<clipPath id="clip0_5_1614">
<rect width="16" height="16" fill="white"/>
</clipPath>
</defs>
</svg>
