<svg width="16" height="16" viewBox="0 0 16 16" fill="none" xmlns="http://www.w3.org/2000/svg">
<g clip-path="url(#clip0_5_777)">
<path d="M14.5 5.5V12.5556C14.4997 12.806 14.4001 13.046 14.223 13.223C14.046 13.4001 13.806 13.4997 13.5556 13.5H2.5C2.23478 13.5 1.98043 13.3946 1.79289 13.2071C1.60536 13.0196 1.5 12.7652 1.5 12.5V4C1.5 3.73478 1.60536 3.48043 1.79289 3.29289C1.98043 3.10536 2.23478 3 2.5 3H5.83313C6.04941 3.00054 6.25978 3.07066 6.43313 3.2L8.16687 4.5H13.5C13.7652 4.5 14.0196 4.60536 14.2071 4.79289C14.3946 4.98043 14.5 5.23478 14.5 5.5Z" fill="black"/>
</g>
<defs>
<clipPath id="clip0_5_777">
<rect width="16" height="16" fill="white"/>
</clipPath>
</defs>
</svg>
