<svg width="16" height="16" viewBox="0 0 16 16" fill="none" xmlns="http://www.w3.org/2000/svg">
<g clip-path="url(#clip0_5_1211)">
<path d="M6 13C6 13.1326 5.94732 13.2598 5.85355 13.3536C5.75979 13.4473 5.63261 13.5 5.5 13.5H2.46125C2.20641 13.4997 1.96211 13.3983 1.78191 13.2181C1.60171 13.0379 1.50033 12.7936 1.5 12.5388V12C1.5 11.8674 1.55268 11.7402 1.64645 11.6465C1.74021 11.5527 1.86739 11.5 2 11.5C2.13261 11.5 2.25979 11.5527 2.35355 11.6465C2.44732 11.7402 2.5 11.8674 2.5 12V12.5H5.5C5.63261 12.5 5.75979 12.5527 5.85355 12.6465C5.94732 12.7402 6 12.8674 6 13ZM10 12.5H8C7.86739 12.5 7.74021 12.5527 7.64645 12.6465C7.55268 12.7402 7.5 12.8674 7.5 13C7.5 13.1326 7.55268 13.2598 7.64645 13.3536C7.74021 13.4473 7.86739 13.5 8 13.5H10C10.1326 13.5 10.2598 13.4473 10.3536 13.3536C10.4473 13.2598 10.5 13.1326 10.5 13C10.5 12.8674 10.4473 12.7402 10.3536 12.6465C10.2598 12.5527 10.1326 12.5 10 12.5ZM14 9.00001C13.8674 9.00001 13.7402 9.05268 13.6464 9.14645C13.5527 9.24022 13.5 9.3674 13.5 9.50001V12.5H12.5C12.3674 12.5 12.2402 12.5527 12.1464 12.6465C12.0527 12.7402 12 12.8674 12 13C12 13.1326 12.0527 13.2598 12.1464 13.3536C12.2402 13.4473 12.3674 13.5 12.5 13.5H13.5556C13.806 13.4997 14.046 13.4001 14.223 13.223C14.4001 13.046 14.4997 12.806 14.5 12.5556V9.50001C14.5 9.3674 14.4473 9.24022 14.3536 9.14645C14.2598 9.05268 14.1326 9.00001 14 9.00001ZM13.5 4.50001H10.5C10.3674 4.50001 10.2402 4.55268 10.1464 4.64645C10.0527 4.74022 10 4.8674 10 5.00001C10 5.13261 10.0527 5.25979 10.1464 5.35356C10.2402 5.44733 10.3674 5.50001 10.5 5.50001H13.5V7.00001C13.5 7.13261 13.5527 7.25979 13.6464 7.35356C13.7402 7.44733 13.8674 7.50001 14 7.50001C14.1326 7.50001 14.2598 7.44733 14.3536 7.35356C14.4473 7.25979 14.5 7.13261 14.5 7.00001V5.50001C14.5 5.23479 14.3946 4.98043 14.2071 4.7929C14.0196 4.60536 13.7652 4.50001 13.5 4.50001ZM2 5.50001H8C8.09895 5.50008 8.19569 5.4708 8.27799 5.41587C8.36029 5.36093 8.42443 5.28281 8.46231 5.1914C8.50019 5.09999 8.51009 4.99939 8.49076 4.90235C8.47144 4.80531 8.42376 4.71618 8.35375 4.64625L6.5 2.79313C6.40748 2.69987 6.29734 2.62593 6.17599 2.5756C6.05464 2.52528 5.9245 2.49959 5.79313 2.50001H2.5C2.23478 2.50001 1.98043 2.60536 1.79289 2.7929C1.60536 2.98043 1.5 3.23479 1.5 3.50001V5.00001C1.5 5.13261 1.55268 5.25979 1.64645 5.35356C1.74021 5.44733 1.86739 5.50001 2 5.50001ZM2 10C2.13261 10 2.25979 9.94733 2.35355 9.85356C2.44732 9.75979 2.5 9.63261 2.5 9.50001V7.50001C2.5 7.3674 2.44732 7.24022 2.35355 7.14645C2.25979 7.05268 2.13261 7.00001 2 7.00001C1.86739 7.00001 1.74021 7.05268 1.64645 7.14645C1.55268 7.24022 1.5 7.3674 1.5 7.50001V9.50001C1.5 9.63261 1.55268 9.75979 1.64645 9.85356C1.74021 9.94733 1.86739 10 2 10Z" fill="black"/>
</g>
<defs>
<clipPath id="clip0_5_1211">
<rect width="16" height="16" fill="white"/>
</clipPath>
</defs>
</svg>
