<svg width="16" height="16" viewBox="0 0 16 16" fill="none" xmlns="http://www.w3.org/2000/svg">
<g clip-path="url(#clip0_5_1558)">
<path d="M14.8181 10.4863L13.4113 11.6481L13.8394 13.38C13.8629 13.4755 13.8577 13.5758 13.8245 13.6684C13.7913 13.7609 13.7315 13.8416 13.6527 13.9004C13.5738 13.9592 13.4794 13.9934 13.3812 13.9988C13.283 14.0041 13.1854 13.9804 13.1006 13.9306L11.5 12.9888L9.89937 13.9306C9.81458 13.9804 9.71698 14.0041 9.61879 13.9988C9.5206 13.9934 9.42618 13.9592 9.34733 13.9004C9.26848 13.8416 9.20872 13.7609 9.17551 13.6684C9.1423 13.5758 9.13712 13.4755 9.16063 13.38L9.58875 11.6481L8.18188 10.4863C8.10515 10.4228 8.04913 10.3379 8.02096 10.2424C7.9928 10.1469 7.99378 10.0452 8.02379 9.95025C8.0538 9.85532 8.11147 9.77151 8.18941 9.70956C8.26734 9.6476 8.362 9.61033 8.46125 9.60251L10.3263 9.45813L11.0406 7.80188C11.0792 7.71206 11.1433 7.63552 11.225 7.58174C11.3066 7.52796 11.4022 7.4993 11.5 7.4993C11.5978 7.4993 11.6934 7.52796 11.775 7.58174C11.8567 7.63552 11.9208 7.71206 11.9594 7.80188L12.6737 9.45813L14.5387 9.60251C14.638 9.61033 14.7327 9.6476 14.8106 9.70956C14.8885 9.77151 14.9462 9.85532 14.9762 9.95025C15.0062 10.0452 15.0072 10.1469 14.979 10.2424C14.9509 10.3379 14.8948 10.4228 14.8181 10.4863ZM8.035 13C8.035 13.1326 7.98232 13.2598 7.88855 13.3536C7.79479 13.4473 7.66761 13.5 7.535 13.5H2.46125C2.20641 13.4997 1.96211 13.3983 1.78191 13.2181C1.60171 13.0379 1.50033 12.7936 1.5 12.5388V3.50001C1.5 3.23479 1.60536 2.98043 1.79289 2.7929C1.98043 2.60536 2.23478 2.50001 2.5 2.50001H5.79313C5.9245 2.49959 6.05464 2.52528 6.17599 2.5756C6.29734 2.62593 6.40748 2.69987 6.5 2.79313L8.20687 4.50001H13.5C13.7652 4.50001 14.0196 4.60536 14.2071 4.7929C14.3946 4.98043 14.5 5.23479 14.5 5.50001V7.50001C14.5 7.63261 14.4473 7.75979 14.3536 7.85356C14.2598 7.94733 14.1326 8.00001 14 8.00001C13.8674 8.00001 13.7402 7.94733 13.6464 7.85356C13.5527 7.75979 13.5 7.63261 13.5 7.50001V5.50001H2.5V12.5H7.535C7.66761 12.5 7.79479 12.5527 7.88855 12.6465C7.98232 12.7402 8.035 12.8674 8.035 13ZM2.5 4.50001H6.79313L5.79313 3.50001H2.5V4.50001Z" fill="black"/>
</g>
<defs>
<clipPath id="clip0_5_1558">
<rect width="16" height="16" fill="white"/>
</clipPath>
</defs>
</svg>
