<svg width="16" height="16" viewBox="0 0 16 16" fill="none" xmlns="http://www.w3.org/2000/svg">
<g clip-path="url(#clip0_5_1197)">
<path d="M1.5 5V4C1.5 3.73478 1.60536 3.48043 1.79289 3.29289C1.98043 3.10536 2.23478 3 2.5 3H5.83313C6.04941 3.00054 6.25978 3.07066 6.43313 3.2L8.3 4.6C8.38395 4.66296 8.44597 4.75075 8.47726 4.85092C8.50855 4.95108 8.50753 5.05856 8.47434 5.15811C8.44116 5.25767 8.37749 5.34426 8.29236 5.40562C8.20722 5.46698 8.10494 5.5 8 5.5H2C1.86739 5.5 1.74021 5.44732 1.64645 5.35355C1.55268 5.25979 1.5 5.13261 1.5 5ZM5.5 12.5H2.5V12C2.5 11.8674 2.44732 11.7402 2.35355 11.6464C2.25979 11.5527 2.13261 11.5 2 11.5C1.86739 11.5 1.74021 11.5527 1.64645 11.6464C1.55268 11.7402 1.5 11.8674 1.5 12V12.5387C1.50033 12.7936 1.60171 13.0379 1.78191 13.2181C1.96211 13.3983 2.20641 13.4997 2.46125 13.5H5.5C5.63261 13.5 5.75979 13.4473 5.85355 13.3536C5.94732 13.2598 6 13.1326 6 13C6 12.8674 5.94732 12.7402 5.85355 12.6464C5.75979 12.5527 5.63261 12.5 5.5 12.5ZM10 12.5H8C7.86739 12.5 7.74021 12.5527 7.64645 12.6464C7.55268 12.7402 7.5 12.8674 7.5 13C7.5 13.1326 7.55268 13.2598 7.64645 13.3536C7.74021 13.4473 7.86739 13.5 8 13.5H10C10.1326 13.5 10.2598 13.4473 10.3536 13.3536C10.4473 13.2598 10.5 13.1326 10.5 13C10.5 12.8674 10.4473 12.7402 10.3536 12.6464C10.2598 12.5527 10.1326 12.5 10 12.5ZM14 9C13.8674 9 13.7402 9.05268 13.6464 9.14645C13.5527 9.24021 13.5 9.36739 13.5 9.5V12.5H12.5C12.3674 12.5 12.2402 12.5527 12.1464 12.6464C12.0527 12.7402 12 12.8674 12 13C12 13.1326 12.0527 13.2598 12.1464 13.3536C12.2402 13.4473 12.3674 13.5 12.5 13.5H13.5556C13.806 13.4997 14.046 13.4001 14.223 13.223C14.4001 13.046 14.4997 12.806 14.5 12.5556V9.5C14.5 9.36739 14.4473 9.24021 14.3536 9.14645C14.2598 9.05268 14.1326 9 14 9ZM13.5 4.5H10.5C10.3674 4.5 10.2402 4.55268 10.1464 4.64645C10.0527 4.74021 10 4.86739 10 5C10 5.13261 10.0527 5.25979 10.1464 5.35355C10.2402 5.44732 10.3674 5.5 10.5 5.5H13.5V7C13.5 7.13261 13.5527 7.25979 13.6464 7.35355C13.7402 7.44732 13.8674 7.5 14 7.5C14.1326 7.5 14.2598 7.44732 14.3536 7.35355C14.4473 7.25979 14.5 7.13261 14.5 7V5.5C14.5 5.23478 14.3946 4.98043 14.2071 4.79289C14.0196 4.60536 13.7652 4.5 13.5 4.5ZM2 10C2.13261 10 2.25979 9.94732 2.35355 9.85355C2.44732 9.75979 2.5 9.63261 2.5 9.5V7.5C2.5 7.36739 2.44732 7.24021 2.35355 7.14645C2.25979 7.05268 2.13261 7 2 7C1.86739 7 1.74021 7.05268 1.64645 7.14645C1.55268 7.24021 1.5 7.36739 1.5 7.5V9.5C1.5 9.63261 1.55268 9.75979 1.64645 9.85355C1.74021 9.94732 1.86739 10 2 10Z" fill="black"/>
</g>
<defs>
<clipPath id="clip0_5_1197">
<rect width="16" height="16" fill="white"/>
</clipPath>
</defs>
</svg>
