<svg width="16" height="16" viewBox="0 0 16 16" fill="none" xmlns="http://www.w3.org/2000/svg">
<g clip-path="url(#clip0_5_1595)">
<path d="M13.5 10H10.3625L9.91938 8.50002H13.5C13.6326 8.50002 13.7598 8.44734 13.8536 8.35357C13.9473 8.25981 14 8.13263 14 8.00002V7.75002C14.0001 6.92174 13.8355 6.1017 13.5159 5.33757C13.1963 4.57344 12.728 3.88047 12.1382 3.29893C11.5484 2.71739 10.8488 2.25888 10.0803 1.95006C9.31173 1.64123 8.48945 1.48826 7.66125 1.50002C4.265 1.54814 1.5 4.35065 1.5 7.75002C1.49991 8.76743 1.7482 9.76948 2.2233 10.6692C2.6984 11.5688 3.38596 12.3389 4.22625 12.9125C4.30944 12.9695 4.40791 13 4.50875 13H7.5C7.64975 13 7.79758 12.9664 7.9326 12.9016C8.06761 12.8369 8.18635 12.7426 8.28006 12.6258C8.37377 12.509 8.44004 12.3726 8.474 12.2268C8.50796 12.0809 8.50873 11.9293 8.47625 11.7831C8.47371 11.7717 8.47058 11.7605 8.46688 11.7494L8.24438 10.9994H9.615L10.2894 13.2825C10.3513 13.4893 10.4782 13.6708 10.6512 13.8C10.8241 13.9292 11.0341 13.9993 11.25 14H13.5C13.7652 14 14.0196 13.8947 14.2071 13.7071C14.3946 13.5196 14.5 13.2652 14.5 13V11C14.5 10.7348 14.3946 10.4804 14.2071 10.2929C14.0196 10.1054 13.7652 10 13.5 10ZM5.25 11C5.10166 11 4.95666 10.956 4.83332 10.8736C4.70999 10.7912 4.61386 10.6741 4.55709 10.537C4.50032 10.4 4.48547 10.2492 4.51441 10.1037C4.54335 9.95822 4.61478 9.82458 4.71967 9.71969C4.82456 9.6148 4.9582 9.54337 5.10368 9.51443C5.24917 9.48549 5.39997 9.50035 5.53701 9.55711C5.67406 9.61388 5.79119 9.71001 5.8736 9.83334C5.95601 9.95668 6 10.1017 6 10.25C6 10.4489 5.92098 10.6397 5.78033 10.7803C5.63968 10.921 5.44891 11 5.25 11ZM7.9475 10L7.5 8.50002H8.875L9.31812 10H7.9475ZM13.5 13H11.25L10.6587 11H13.5V13Z" fill="black"/>
</g>
<defs>
<clipPath id="clip0_5_1595">
<rect width="16" height="16" fill="white"/>
</clipPath>
</defs>
</svg>
