<svg width="16" height="16" viewBox="0 0 16 16" fill="none" xmlns="http://www.w3.org/2000/svg">
<g clip-path="url(#clip0_5_769)">
<path d="M14.3161 3.36812C14.2447 2.94734 14.0442 2.55917 13.7424 2.25739C13.4406 1.9556 13.0525 1.75513 12.6317 1.68374C10.608 1.34062 6.79483 1.18374 3.98983 3.98999C1.18483 6.79624 1.34045 10.6087 1.68358 12.6319C1.75516 13.0531 1.95609 13.4416 2.25848 13.7434C2.56087 14.0452 2.94973 14.2454 3.37108 14.3162C4.07992 14.4371 4.79763 14.4986 5.5167 14.5C7.52233 14.5 10.0198 14 12.0098 12.01C14.8155 9.20499 14.6592 5.39124 14.3161 3.36812ZM3.53483 13.3312C3.31847 13.2944 3.11888 13.1913 2.96369 13.0361C2.8085 12.8809 2.70538 12.6814 2.66858 12.465C2.49704 11.4978 2.4527 10.5124 2.5367 9.53374L6.46608 13.4631C5.48743 13.5471 4.50199 13.5028 3.53483 13.3312ZM10.3523 6.35437L9.45608 7.24999L9.85233 7.64624C9.90174 7.69196 9.9414 7.74718 9.96896 7.80859C9.99651 7.87001 10.0114 7.93636 10.0127 8.00366C10.014 8.07096 10.0016 8.13782 9.97647 8.20025C9.95129 8.26268 9.91377 8.31938 9.86615 8.36695C9.81853 8.41453 9.7618 8.452 9.69935 8.47712C9.6369 8.50224 9.57002 8.51449 9.50272 8.51314C9.43543 8.51179 9.36909 8.49687 9.3077 8.46926C9.24631 8.44166 9.19113 8.40194 9.14545 8.35249L8.74983 7.95687L7.9567 8.74999L8.35295 9.14624C8.4024 9.19191 8.44212 9.2471 8.46972 9.30849C8.49733 9.36988 8.51225 9.43621 8.5136 9.50351C8.51495 9.57081 8.5027 9.63769 8.47758 9.70014C8.45246 9.76259 8.41499 9.81932 8.36741 9.86694C8.31984 9.91456 8.26314 9.95208 8.20071 9.97725C8.13828 10.0024 8.07142 10.0147 8.00412 10.0135C7.93682 10.0122 7.87047 9.99729 7.80906 9.96974C7.74764 9.94219 7.69242 9.90252 7.6467 9.85312L7.24983 9.45624L6.35358 10.3525C6.30761 10.4009 6.25242 10.4396 6.19127 10.4663C6.13011 10.493 6.06422 10.5072 5.99749 10.5081C5.93076 10.5089 5.86453 10.4964 5.80271 10.4713C5.74089 10.4461 5.68473 10.4089 5.63754 10.3617C5.59035 10.3145 5.55308 10.2583 5.52794 10.1965C5.50279 10.1347 5.49028 10.0684 5.49113 10.0017C5.49199 9.93497 5.50619 9.86909 5.53291 9.80793C5.55963 9.74677 5.59832 9.69159 5.6467 9.64562L6.54358 8.74999L6.14733 8.35374C6.05966 8.25882 6.01214 8.13365 6.01473 8.00446C6.01732 7.87528 6.06983 7.75211 6.16123 7.66078C6.25264 7.56946 6.37585 7.51706 6.50504 7.51459C6.63423 7.51211 6.75936 7.55974 6.8542 7.64749L7.25045 8.04374L8.04295 7.24999L7.6467 6.85374C7.55895 6.7589 7.51132 6.63377 7.5138 6.50458C7.51627 6.37539 7.56867 6.25218 7.65999 6.16077C7.75132 6.06936 7.87449 6.01686 8.00367 6.01427C8.13286 6.01168 8.25803 6.0592 8.35295 6.14687L8.74983 6.54374L9.64608 5.64749C9.69205 5.59911 9.74724 5.56042 9.80839 5.5337C9.86955 5.50698 9.93544 5.49277 10.0022 5.49192C10.0689 5.49107 10.1351 5.50358 10.1969 5.52872C10.2588 5.55387 10.3149 5.59113 10.3621 5.63833C10.4093 5.68552 10.4466 5.74168 10.4717 5.8035C10.4969 5.86532 10.5094 5.93155 10.5085 5.99828C10.5077 6.06501 10.4935 6.1309 10.4667 6.19206C10.44 6.25321 10.4013 6.3084 10.353 6.35437H10.3523ZM13.463 6.46624L9.53358 2.53687C9.83108 2.50937 10.1411 2.49374 10.4655 2.49374C11.1358 2.49611 11.8048 2.55465 12.4655 2.66874C12.6817 2.70566 12.8811 2.80884 13.0362 2.96402C13.1913 3.1192 13.2943 3.31872 13.3311 3.53499C13.5026 4.50215 13.547 5.48759 13.463 6.46624Z" fill="black"/>
</g>
<defs>
<clipPath id="clip0_5_769">
<rect width="16" height="16" fill="white"/>
</clipPath>
</defs>
</svg>
