<svg width="16" height="16" viewBox="0 0 16 16" fill="none" xmlns="http://www.w3.org/2000/svg">
<g clip-path="url(#clip0_5_1192)">
<path d="M13.5038 12V12.75C13.5038 13.3472 13.2666 13.92 12.8442 14.3423C12.4219 14.7646 11.8492 15.0019 11.2519 15.0019C10.6547 15.0019 10.0819 14.7646 9.65961 14.3423C9.2373 13.92 9.00005 13.3472 9.00005 12.75V12C9.00005 11.8674 9.05273 11.7402 9.1465 11.6464C9.24027 11.5527 9.36745 11.5 9.50005 11.5H13.0001C13.066 11.4995 13.1315 11.5121 13.1925 11.537C13.2536 11.5619 13.3092 11.5986 13.356 11.6451C13.4029 11.6916 13.44 11.7469 13.4654 11.8078C13.4907 11.8687 13.5038 11.934 13.5038 12ZM6.50005 10H3.00005C2.86745 10 2.74027 10.0527 2.6465 10.1464C2.55273 10.2402 2.50005 10.3674 2.50005 10.5V11.25C2.50005 11.8467 2.73711 12.419 3.15906 12.841C3.58102 13.2629 4.15332 13.5 4.75005 13.5C5.34679 13.5 5.91909 13.2629 6.34104 12.841C6.763 12.419 7.00005 11.8467 7.00005 11.25V10.5C7.00005 10.3674 6.94738 10.2402 6.85361 10.1464C6.75984 10.0527 6.63266 10 6.50005 10ZM4.75005 1C4.02255 1 3.31693 1.64437 2.76255 2.8125C1.89193 4.64875 1.60255 7.375 2.78068 8.8125C2.82766 8.86984 2.88679 8.91602 2.95381 8.94769C3.02083 8.97936 3.09405 8.99573 3.16818 8.99562H6.32755C6.40168 8.99573 6.4749 8.97936 6.54192 8.94769C6.60894 8.91602 6.66808 8.86984 6.71505 8.8125C7.89318 7.375 7.6038 4.64687 6.73318 2.8125C6.17818 1.64437 5.47318 1 4.75005 1ZM9.67505 10.5H12.8344C12.9086 10.5001 12.9818 10.4837 13.0488 10.4521C13.1158 10.4204 13.175 10.3742 13.2219 10.3169C14.4001 8.87938 14.1107 6.15125 13.2401 4.31687C12.6832 3.14437 11.9776 2.5 11.2501 2.5C10.5226 2.5 9.81943 3.14437 9.26443 4.3125C8.3938 6.14875 8.10443 8.875 9.28255 10.3125C9.32937 10.371 9.38872 10.4182 9.45622 10.4506C9.52372 10.4831 9.59765 10.5 9.67255 10.5H9.67505Z" fill="black"/>
</g>
<defs>
<clipPath id="clip0_5_1192">
<rect width="16" height="16" fill="white"/>
</clipPath>
</defs>
</svg>
