<svg width="16" height="16" viewBox="0 0 16 16" fill="none" xmlns="http://www.w3.org/2000/svg">
<g clip-path="url(#clip0_5_1279)">
<path d="M13.5 2.49999V14C13.5 14.1326 13.4473 14.2598 13.3536 14.3535C13.2598 14.4473 13.1326 14.5 13 14.5C12.8674 14.5 12.7402 14.4473 12.6464 14.3535C12.5527 14.2598 12.5 14.1326 12.5 14V11H9.5C9.36739 11 9.24021 10.9473 9.14645 10.8535C9.05268 10.7598 9 10.6326 9 10.5C9.02322 9.30229 9.1745 8.11051 9.45125 6.94499C10.0625 4.41437 11.2213 2.71812 12.8031 2.04062C12.8792 2.00805 12.9621 1.99485 13.0445 2.00221C13.1269 2.00957 13.2061 2.03725 13.2752 2.08277C13.3442 2.12829 13.4009 2.19024 13.4402 2.26305C13.4794 2.33587 13.5 2.41728 13.5 2.49999ZM7.49312 2.41812C7.48333 2.35247 7.46056 2.28942 7.42615 2.23266C7.39174 2.1759 7.34636 2.12656 7.29268 2.08751C7.239 2.04847 7.17807 2.02051 7.11347 2.00526C7.04887 1.99001 6.98187 1.98777 6.9164 1.99869C6.85092 2.0096 6.78827 2.03344 6.73211 2.06882C6.67594 2.1042 6.62738 2.15041 6.58926 2.20475C6.55114 2.25909 6.52422 2.32048 6.51008 2.38534C6.49593 2.45019 6.49485 2.51721 6.50688 2.58249L6.99312 5.49999H5.5V2.49999C5.5 2.36739 5.44732 2.24021 5.35355 2.14644C5.25979 2.05267 5.13261 1.99999 5 1.99999C4.86739 1.99999 4.74021 2.05267 4.64645 2.14644C4.55268 2.24021 4.5 2.36739 4.5 2.49999V5.49999H3.00688L3.49312 2.58249C3.50515 2.51721 3.50407 2.45019 3.48992 2.38534C3.47578 2.32048 3.44886 2.25909 3.41074 2.20475C3.37262 2.15041 3.32406 2.1042 3.26789 2.06882C3.21173 2.03344 3.14908 2.0096 3.0836 1.99869C3.01813 1.98777 2.95113 1.99001 2.88653 2.00526C2.82192 2.02051 2.761 2.04847 2.70732 2.08751C2.65364 2.12656 2.60826 2.1759 2.57385 2.23266C2.53944 2.28942 2.51667 2.35247 2.50688 2.41812L2.00688 5.41812C2.00239 5.44518 2.00009 5.47256 2 5.49999C2.001 6.20863 2.25245 6.8941 2.70992 7.43528C3.16739 7.97647 3.80143 8.33853 4.5 8.4575V14C4.5 14.1326 4.55268 14.2598 4.64645 14.3535C4.74021 14.4473 4.86739 14.5 5 14.5C5.13261 14.5 5.25979 14.4473 5.35355 14.3535C5.44732 14.2598 5.5 14.1326 5.5 14V8.4575C6.19857 8.33853 6.83261 7.97647 7.29008 7.43528C7.74755 6.8941 7.999 6.20863 8 5.49999C7.99991 5.47256 7.99761 5.44518 7.99312 5.41812L7.49312 2.41812Z" fill="black"/>
</g>
<defs>
<clipPath id="clip0_5_1279">
<rect width="16" height="16" fill="white"/>
</clipPath>
</defs>
</svg>
