<svg width="16" height="16" viewBox="0 0 16 16" fill="none" xmlns="http://www.w3.org/2000/svg">
<g clip-path="url(#clip0_5_1131)">
<path d="M4.97188 8.5L6 7.0625V8.5H4.97188ZM14.5 3.5V12.5C14.5 12.7652 14.3946 13.0196 14.2071 13.2071C14.0196 13.3946 13.7652 13.5 13.5 13.5H2.5C2.23478 13.5 1.98043 13.3946 1.79289 13.2071C1.60536 13.0196 1.5 12.7652 1.5 12.5V3.5C1.5 3.23478 1.60536 2.98043 1.79289 2.79289C1.98043 2.60536 2.23478 2.5 2.5 2.5H13.5C13.7652 2.5 14.0196 2.60536 14.2071 2.79289C14.3946 2.98043 14.5 3.23478 14.5 3.5ZM7.75 9C7.75 8.86739 7.69732 8.74021 7.60355 8.64645C7.50979 8.55268 7.38261 8.5 7.25 8.5H7V5.5C7 5.39406 6.96636 5.29086 6.90392 5.20528C6.84148 5.1197 6.75347 5.05616 6.65259 5.02384C6.55171 4.99151 6.44316 4.99205 6.34261 5.0254C6.24206 5.05875 6.1547 5.12317 6.09312 5.20937L3.59313 8.70938C3.53973 8.78413 3.50795 8.87216 3.5013 8.96379C3.49465 9.05541 3.51337 9.14711 3.5554 9.22879C3.59744 9.31048 3.66118 9.37901 3.73961 9.42685C3.81803 9.47469 3.90813 9.5 4 9.5H6V10.5C6 10.6326 6.05268 10.7598 6.14645 10.8536C6.24021 10.9473 6.36739 11 6.5 11C6.63261 11 6.75979 10.9473 6.85355 10.8536C6.94732 10.7598 7 10.6326 7 10.5V9.5H7.25C7.38261 9.5 7.50979 9.44732 7.60355 9.35355C7.69732 9.25979 7.75 9.13261 7.75 9ZM10.8494 7.61062L12.3794 5.82562C12.4637 5.72475 12.5049 5.59472 12.494 5.4637C12.4832 5.33267 12.4211 5.2112 12.3214 5.12557C12.2216 5.03994 12.0921 4.99705 11.961 5.00618C11.8298 5.01532 11.7076 5.07574 11.6206 5.17438L9.8625 7.225L9.5 7.64813V5.5C9.5 5.36739 9.44732 5.24021 9.35355 5.14645C9.25979 5.05268 9.13261 5 9 5C8.86739 5 8.74021 5.05268 8.64645 5.14645C8.55268 5.24021 8.5 5.36739 8.5 5.5V10.5C8.5 10.6326 8.55268 10.7598 8.64645 10.8536C8.74021 10.9473 8.86739 11 9 11C9.13261 11 9.25979 10.9473 9.35355 10.8536C9.44732 10.7598 9.5 10.6326 9.5 10.5V9.1875L10.1637 8.41313L11.5712 10.76C11.6051 10.8163 11.6496 10.8654 11.7024 10.9045C11.7552 10.9436 11.8152 10.9719 11.8789 10.9878C11.9426 11.0037 12.0089 11.0068 12.0738 10.9972C12.1388 10.9875 12.2012 10.9651 12.2575 10.9312C12.3138 10.8974 12.3629 10.8529 12.402 10.8001C12.4411 10.7473 12.4694 10.6873 12.4853 10.6236C12.5012 10.5599 12.5043 10.4936 12.4947 10.4287C12.485 10.3637 12.4626 10.3013 12.4288 10.245L10.8494 7.61062Z" fill="black"/>
</g>
<defs>
<clipPath id="clip0_5_1131">
<rect width="16" height="16" fill="white"/>
</clipPath>
</defs>
</svg>
