<svg width="16" height="16" viewBox="0 0 16 16" fill="none" xmlns="http://www.w3.org/2000/svg">
<g clip-path="url(#clip0_5_1554)">
<path d="M12.4999 7H9.31244L12.8293 10.125C12.9054 10.1921 12.9593 10.2808 12.9838 10.3792C13.0083 10.4776 13.0023 10.5812 12.9665 10.6762C12.9308 10.7711 12.867 10.8529 12.7837 10.9108C12.7003 10.9686 12.6014 10.9997 12.4999 11H8.49994V15C8.50001 15.0989 8.47073 15.1957 8.4158 15.278C8.36086 15.3603 8.28274 15.4244 8.19133 15.4623C8.09992 15.5002 7.99933 15.5101 7.90228 15.4908C7.80524 15.4714 7.71611 15.4238 7.64619 15.3538L3.14619 10.8538C3.09977 10.8073 3.06296 10.7521 3.03787 10.6914C3.01277 10.6307 2.99989 10.5657 2.99994 10.5V6.5C2.99994 6.36739 3.05262 6.24022 3.14638 6.14645C3.24015 6.05268 3.36733 6 3.49994 6H6.68744L3.16806 2.875C3.09182 2.80776 3.03788 2.71888 3.01344 2.6202C2.989 2.52152 2.99522 2.41774 3.03128 2.32268C3.06733 2.22763 3.1315 2.14583 3.21523 2.08818C3.29896 2.03052 3.39828 1.99977 3.49994 2H12.4999C12.6325 2 12.7597 2.05268 12.8535 2.14645C12.9473 2.24022 12.9999 2.36739 12.9999 2.5V6.5C12.9999 6.63261 12.9473 6.75979 12.8535 6.85355C12.7597 6.94732 12.6325 7 12.4999 7Z" fill="black"/>
</g>
<defs>
<clipPath id="clip0_5_1554">
<rect width="16" height="16" fill="white"/>
</clipPath>
</defs>
</svg>
