<svg width="16" height="16" viewBox="0 0 16 16" fill="none" xmlns="http://www.w3.org/2000/svg">
<g clip-path="url(#clip0_5_766)">
<path d="M13 2H3C2.73478 2 2.48043 2.10536 2.29289 2.29289C2.10536 2.48043 2 2.73478 2 3V13C2 13.2652 2.10536 13.5196 2.29289 13.7071C2.48043 13.8946 2.73478 14 3 14H13C13.2652 14 13.5196 13.8946 13.7071 13.7071C13.8946 13.5196 14 13.2652 14 13V3C14 2.73478 13.8946 2.48043 13.7071 2.29289C13.5196 2.10536 13.2652 2 13 2ZM11 4.5H9.995C9.76217 4.4998 9.53657 4.58085 9.35709 4.72917C9.17762 4.8775 9.05553 5.0838 9.01188 5.3125L8.6025 7.5H10.5C10.6326 7.5 10.7598 7.55268 10.8536 7.64645C10.9473 7.74021 11 7.86739 11 8C11 8.13261 10.9473 8.25979 10.8536 8.35355C10.7598 8.44732 10.6326 8.5 10.5 8.5H8.415L7.97062 10.8687C7.88462 11.3272 7.64109 11.7412 7.28215 12.039C6.92321 12.3369 6.47144 12.5 6.005 12.5H5C4.86739 12.5 4.74021 12.4473 4.64645 12.3536C4.55268 12.2598 4.5 12.1326 4.5 12C4.5 11.8674 4.55268 11.7402 4.64645 11.6464C4.74021 11.5527 4.86739 11.5 5 11.5H6.005C6.23783 11.5002 6.46343 11.4192 6.64291 11.2708C6.82238 11.1225 6.94447 10.9162 6.98812 10.6875L7.3975 8.5H5.5C5.36739 8.5 5.24021 8.44732 5.14645 8.35355C5.05268 8.25979 5 8.13261 5 8C5 7.86739 5.05268 7.74021 5.14645 7.64645C5.24021 7.55268 5.36739 7.5 5.5 7.5H7.585L8.02938 5.13125C8.11538 4.6728 8.35891 4.25883 8.71785 3.96095C9.07679 3.66307 9.52856 3.50002 9.995 3.5H11C11.1326 3.5 11.2598 3.55268 11.3536 3.64645C11.4473 3.74021 11.5 3.86739 11.5 4C11.5 4.13261 11.4473 4.25979 11.3536 4.35355C11.2598 4.44732 11.1326 4.5 11 4.5Z" fill="black"/>
</g>
<defs>
<clipPath id="clip0_5_766">
<rect width="16" height="16" fill="white"/>
</clipPath>
</defs>
</svg>
