<svg width="16" height="16" viewBox="0 0 16 16" fill="none" xmlns="http://www.w3.org/2000/svg">
<g clip-path="url(#clip0_5_1385)">
<path d="M13.5 2.5H2.5C2.23478 2.5 1.98043 2.60536 1.79289 2.79289C1.60536 2.98043 1.5 3.23478 1.5 3.5V12.5C1.5 12.7652 1.60536 13.0196 1.79289 13.2071C1.98043 13.3946 2.23478 13.5 2.5 13.5H13.5C13.7652 13.5 14.0196 13.3946 14.2071 13.2071C14.3946 13.0196 14.5 12.7652 14.5 12.5V3.5C14.5 3.23478 14.3946 2.98043 14.2071 2.79289C14.0196 2.60536 13.7652 2.5 13.5 2.5ZM9 11H7C6.86739 11 6.74021 10.9473 6.64645 10.8536C6.55268 10.7598 6.5 10.6326 6.5 10.5C6.5 10.3674 6.55268 10.2402 6.64645 10.1464C6.74021 10.0527 6.86739 10 7 10H9C9.13261 10 9.25979 10.0527 9.35355 10.1464C9.44732 10.2402 9.5 10.3674 9.5 10.5C9.5 10.6326 9.44732 10.7598 9.35355 10.8536C9.25979 10.9473 9.13261 11 9 11ZM11 8.5H5C4.86739 8.5 4.74021 8.44732 4.64645 8.35355C4.55268 8.25979 4.5 8.13261 4.5 8C4.5 7.86739 4.55268 7.74021 4.64645 7.64645C4.74021 7.55268 4.86739 7.5 5 7.5H11C11.1326 7.5 11.2598 7.55268 11.3536 7.64645C11.4473 7.74021 11.5 7.86739 11.5 8C11.5 8.13261 11.4473 8.25979 11.3536 8.35355C11.2598 8.44732 11.1326 8.5 11 8.5ZM13 6H3C2.86739 6 2.74021 5.94732 2.64645 5.85355C2.55268 5.75979 2.5 5.63261 2.5 5.5C2.5 5.36739 2.55268 5.24021 2.64645 5.14645C2.74021 5.05268 2.86739 5 3 5H13C13.1326 5 13.2598 5.05268 13.3536 5.14645C13.4473 5.24021 13.5 5.36739 13.5 5.5C13.5 5.63261 13.4473 5.75979 13.3536 5.85355C13.2598 5.94732 13.1326 6 13 6Z" fill="black"/>
</g>
<defs>
<clipPath id="clip0_5_1385">
<rect width="16" height="16" fill="white"/>
</clipPath>
</defs>
</svg>
