<svg width="16" height="16" viewBox="0 0 16 16" fill="none" xmlns="http://www.w3.org/2000/svg">
<g clip-path="url(#clip0_5_764)">
<path d="M14.2331 4.17812L9.99998 8.69812V12.1663C10.0002 12.3312 9.95967 12.4936 9.88192 12.6391C9.80417 12.7846 9.69164 12.9086 9.55436 13L7.55436 14.3337C7.40364 14.4341 7.22849 14.4917 7.0476 14.5003C6.86672 14.509 6.68688 14.4683 6.5273 14.3827C6.36771 14.2971 6.23437 14.1698 6.1415 14.0143C6.04863 13.8589 5.99971 13.6811 5.99998 13.5V8.69812L1.76686 4.17812L1.76186 4.1725C1.6317 4.02926 1.54591 3.85133 1.51488 3.66029C1.48386 3.46924 1.50894 3.27331 1.58709 3.09624C1.66523 2.91917 1.79308 2.76859 1.95512 2.66275C2.11717 2.55692 2.30644 2.50038 2.49998 2.5H13.5C13.6937 2.50002 13.8832 2.55629 14.0455 2.66199C14.2079 2.76768 14.336 2.91825 14.4144 3.09538C14.4927 3.27252 14.518 3.46861 14.487 3.65982C14.4561 3.85104 14.3702 4.02914 14.24 4.1725L14.2331 4.17812ZM14.2069 12L15.3537 10.8538C15.4476 10.7599 15.5003 10.6327 15.5003 10.5C15.5003 10.3673 15.4476 10.2401 15.3537 10.1462C15.2599 10.0524 15.1327 9.99972 15 9.99972C14.8673 9.99972 14.7401 10.0524 14.6462 10.1462L13.5 11.2931L12.3537 10.1462C12.2599 10.0524 12.1327 9.99972 12 9.99972C11.8673 9.99972 11.7401 10.0524 11.6462 10.1462C11.5524 10.2401 11.4997 10.3673 11.4997 10.5C11.4997 10.6327 11.5524 10.7599 11.6462 10.8538L12.7931 12L11.6462 13.1462C11.5524 13.2401 11.4997 13.3673 11.4997 13.5C11.4997 13.6327 11.5524 13.7599 11.6462 13.8538C11.7401 13.9476 11.8673 14.0003 12 14.0003C12.1327 14.0003 12.2599 13.9476 12.3537 13.8538L13.5 12.7069L14.6462 13.8538C14.7401 13.9476 14.8673 14.0003 15 14.0003C15.1327 14.0003 15.2599 13.9476 15.3537 13.8538C15.4476 13.7599 15.5003 13.6327 15.5003 13.5C15.5003 13.3673 15.4476 13.2401 15.3537 13.1462L14.2069 12Z" fill="black"/>
</g>
<defs>
<clipPath id="clip0_5_764">
<rect width="16" height="16" fill="white"/>
</clipPath>
</defs>
</svg>
