<svg width="16" height="16" viewBox="0 0 16 16" fill="none" xmlns="http://www.w3.org/2000/svg">
<g clip-path="url(#clip0_5_1368)">
<path d="M15.4651 10.8594C15.4654 10.8565 15.4654 10.8535 15.4651 10.8506L14.4407 5.59C14.4407 5.58625 14.4407 5.5825 14.4407 5.57875C14.2825 4.71503 13.8267 3.93405 13.1525 3.37157C12.4782 2.80909 11.6281 2.5007 10.7501 2.5H5.24318C4.36264 2.49966 3.51018 2.80981 2.83573 3.37589C2.16128 3.94198 1.70802 4.72775 1.55568 5.595L0.536301 10.8506C0.536 10.8535 0.536 10.8565 0.536301 10.8594C0.453327 11.3305 0.522681 11.8158 0.734292 12.2449C0.945903 12.6739 1.28876 13.0244 1.71307 13.2453C2.13739 13.4662 2.62108 13.5462 3.09392 13.4735C3.56676 13.4009 4.00414 13.1794 4.34255 12.8413L4.36443 12.8181L6.84505 10H9.15755L11.6394 12.8181C11.6463 12.8263 11.6538 12.8338 11.6613 12.8413C12.0831 13.2621 12.6542 13.4989 13.2501 13.5C13.5785 13.4998 13.9029 13.4277 14.2005 13.2887C14.498 13.1498 14.7616 12.9474 14.9726 12.6957C15.1837 12.4441 15.337 12.1493 15.422 11.8321C15.507 11.5148 15.5214 11.1828 15.4644 10.8594H15.4651ZM6.50005 7H6.00005V7.5C6.00005 7.63261 5.94737 7.75979 5.8536 7.85355C5.75984 7.94732 5.63266 8 5.50005 8C5.36744 8 5.24027 7.94732 5.1465 7.85355C5.05273 7.75979 5.00005 7.63261 5.00005 7.5V7H4.50005C4.36744 7 4.24027 6.94732 4.1465 6.85355C4.05273 6.75979 4.00005 6.63261 4.00005 6.5C4.00005 6.36739 4.05273 6.24022 4.1465 6.14645C4.24027 6.05268 4.36744 6 4.50005 6H5.00005V5.5C5.00005 5.36739 5.05273 5.24022 5.1465 5.14645C5.24027 5.05268 5.36744 5 5.50005 5C5.63266 5 5.75984 5.05268 5.8536 5.14645C5.94737 5.24022 6.00005 5.36739 6.00005 5.5V6H6.50005C6.63266 6 6.75984 6.05268 6.8536 6.14645C6.94737 6.24022 7.00005 6.36739 7.00005 6.5C7.00005 6.63261 6.94737 6.75979 6.8536 6.85355C6.75984 6.94732 6.63266 7 6.50005 7ZM9.00005 6.5C9.00005 6.36739 9.05273 6.24022 9.1465 6.14645C9.24026 6.05268 9.36744 6 9.50005 6H11.0001C11.1327 6 11.2598 6.05268 11.3536 6.14645C11.4474 6.24022 11.5001 6.36739 11.5001 6.5C11.5001 6.63261 11.4474 6.75979 11.3536 6.85355C11.2598 6.94732 11.1327 7 11.0001 7H9.50005C9.36744 7 9.24026 6.94732 9.1465 6.85355C9.05273 6.75979 9.00005 6.63261 9.00005 6.5ZM14.2732 11.9669C14.1795 12.1017 14.06 12.2166 13.9216 12.3049C13.7832 12.3932 13.6287 12.4532 13.4669 12.4812C13.2713 12.5155 13.0703 12.5028 12.8804 12.4442C12.6906 12.3857 12.5174 12.2829 12.3751 12.1444L10.4876 10H10.7501C11.3884 10.0001 12.0162 9.83722 12.574 9.52682C13.1318 9.21642 13.6011 8.76876 13.9376 8.22625L14.4838 11.0387C14.5116 11.1997 14.5073 11.3646 14.4712 11.5238C14.435 11.6831 14.3677 11.8337 14.2732 11.9669Z" fill="black"/>
</g>
<defs>
<clipPath id="clip0_5_1368">
<rect width="16" height="16" fill="white"/>
</clipPath>
</defs>
</svg>
