<svg width="16" height="16" viewBox="0 0 16 16" fill="none" xmlns="http://www.w3.org/2000/svg">
<g clip-path="url(#clip0_5_1372)">
<path d="M15 12H14.5V6.16687C14.5 6.0023 14.4594 5.84027 14.3818 5.69516C14.3041 5.55005 14.1919 5.42634 14.055 5.335L8.555 1.66812C8.39074 1.55862 8.19773 1.50018 8.00031 1.50018C7.80289 1.50018 7.60989 1.55862 7.44562 1.66812L1.94562 5.335C1.80861 5.42627 1.69625 5.54995 1.61851 5.69506C1.54077 5.84018 1.50006 6.00225 1.5 6.16687V12H1C0.867392 12 0.740215 12.0527 0.646447 12.1464C0.552678 12.2402 0.5 12.3674 0.5 12.5C0.5 12.6326 0.552678 12.7598 0.646447 12.8536C0.740215 12.9473 0.867392 13 1 13H15C15.1326 13 15.2598 12.9473 15.3536 12.8536C15.4473 12.7598 15.5 12.6326 15.5 12.5C15.5 12.3674 15.4473 12.2402 15.3536 12.1464C15.2598 12.0527 15.1326 12 15 12ZM8.5 8H12V9.5H8.5V8ZM7.5 9.5H4V8H7.5V9.5ZM4 10.5H7.5V12H4V10.5ZM8.5 10.5H12V12H8.5V10.5Z" fill="black"/>
</g>
<defs>
<clipPath id="clip0_5_1372">
<rect width="16" height="16" fill="white"/>
</clipPath>
</defs>
</svg>
