<svg width="16" height="16" viewBox="0 0 16 16" fill="none" xmlns="http://www.w3.org/2000/svg">
<g clip-path="url(#clip0_5_1364)">
<path d="M15.0625 4.35375L13.8538 3.14625C13.7599 3.05243 13.6327 2.99972 13.5 2.99972C13.3673 2.99972 13.2401 3.05243 13.1462 3.14625C13.0524 3.24007 12.9997 3.36732 12.9997 3.5C12.9997 3.63268 13.0524 3.75993 13.1462 3.85375L14.3538 5.0625C14.447 5.15589 14.4996 5.28238 14.5 5.41437V10.5C14.5 10.6326 14.4473 10.7598 14.3536 10.8536C14.2598 10.9473 14.1326 11 14 11C13.8674 11 13.7402 10.9473 13.6464 10.8536C13.5527 10.7598 13.5 10.6326 13.5 10.5V8C13.5 7.60218 13.342 7.22064 13.0607 6.93934C12.7794 6.65804 12.3978 6.5 12 6.5H11V3.5C11 3.10218 10.842 2.72064 10.5607 2.43934C10.2794 2.15804 9.89782 2 9.5 2H4.5C4.10218 2 3.72064 2.15804 3.43934 2.43934C3.15804 2.72064 3 3.10218 3 3.5V13H2C1.86739 13 1.74021 13.0527 1.64645 13.1464C1.55268 13.2402 1.5 13.3674 1.5 13.5C1.5 13.6326 1.55268 13.7598 1.64645 13.8536C1.74021 13.9473 1.86739 14 2 14H12C12.1326 14 12.2598 13.9473 12.3536 13.8536C12.4473 13.7598 12.5 13.6326 12.5 13.5C12.5 13.3674 12.4473 13.2402 12.3536 13.1464C12.2598 13.0527 12.1326 13 12 13H11V7.5H12C12.1326 7.5 12.2598 7.55268 12.3536 7.64645C12.4473 7.74021 12.5 7.86739 12.5 8V10.5C12.5 10.8978 12.658 11.2794 12.9393 11.5607C13.2206 11.842 13.6022 12 14 12C14.3978 12 14.7794 11.842 15.0607 11.5607C15.342 11.2794 15.5 10.8978 15.5 10.5V5.41437C15.5008 5.21745 15.4625 5.02233 15.3874 4.84028C15.3123 4.65824 15.2019 4.49288 15.0625 4.35375ZM9 7.5H5C4.86739 7.5 4.74021 7.44732 4.64645 7.35355C4.55268 7.25979 4.5 7.13261 4.5 7C4.5 6.86739 4.55268 6.74021 4.64645 6.64645C4.74021 6.55268 4.86739 6.5 5 6.5H9C9.13261 6.5 9.25979 6.55268 9.35355 6.64645C9.44732 6.74021 9.5 6.86739 9.5 7C9.5 7.13261 9.44732 7.25979 9.35355 7.35355C9.25979 7.44732 9.13261 7.5 9 7.5Z" fill="black"/>
</g>
<defs>
<clipPath id="clip0_5_1364">
<rect width="16" height="16" fill="white"/>
</clipPath>
</defs>
</svg>
