<svg width="16" height="16" viewBox="0 0 16 16" fill="none" xmlns="http://www.w3.org/2000/svg">
<g clip-path="url(#clip0_5_1699)">
<path d="M12.5 1.50001H7.70688C7.57551 1.49959 7.44537 1.52528 7.32402 1.5756C7.20267 1.62593 7.09253 1.69987 7.00001 1.79313L6.35376 2.43751L5.70688 1.79313C5.51936 1.60574 5.26511 1.50047 5.00001 1.50047C4.7349 1.50047 4.48065 1.60574 4.29313 1.79313L2.79313 3.29313C2.60574 3.48065 2.50047 3.7349 2.50047 4.00001C2.50047 4.26511 2.60574 4.51936 2.79313 4.70688L3.43751 5.35376L2.79313 6.00001C2.69987 6.09253 2.62593 6.20267 2.5756 6.32402C2.52528 6.44537 2.49959 6.57551 2.50001 6.70688V13.5C2.50001 13.7652 2.60536 14.0196 2.7929 14.2071C2.98043 14.3946 3.23479 14.5 3.50001 14.5H12.5C12.7652 14.5 13.0196 14.3946 13.2071 14.2071C13.3946 14.0196 13.5 13.7652 13.5 13.5V2.50001C13.5 2.23479 13.3946 1.98043 13.2071 1.7929C13.0196 1.60536 12.7652 1.50001 12.5 1.50001ZM3.50001 4.00001L5.00001 2.50001L5.64625 3.14626L4.14625 4.64625L3.50001 4.00001ZM11.3 11.6C11.3525 11.6394 11.3968 11.6888 11.4302 11.7453C11.4637 11.8018 11.4857 11.8643 11.495 11.9293C11.5043 11.9943 11.5007 12.0605 11.4844 12.1241C11.4681 12.1877 11.4394 12.2475 11.4 12.3C11.3606 12.3525 11.3113 12.3968 11.2548 12.4302C11.1983 12.4637 11.1357 12.4857 11.0707 12.495C11.0057 12.5043 10.9395 12.5007 10.8759 12.4844C10.8123 12.4681 10.7525 12.4394 10.7 12.4L8.00001 10.375L5.30001 12.4C5.19392 12.4796 5.06057 12.5137 4.92929 12.495C4.79802 12.4762 4.67957 12.4061 4.6 12.3C4.52044 12.1939 4.48628 12.0606 4.50503 11.9293C4.52378 11.798 4.59392 11.6796 4.7 11.6L7.16688 9.75L4.7 7.90001C4.59392 7.82044 4.52378 7.70199 4.50503 7.57072C4.48628 7.43944 4.52044 7.30609 4.6 7.20001C4.67957 7.09392 4.79802 7.02378 4.92929 7.00503C5.06057 6.98628 5.19392 7.02044 5.30001 7.10001L8.00001 9.12501L10.7 7.10001C10.8061 7.02044 10.9394 6.98628 11.0707 7.00503C11.202 7.02378 11.3204 7.09392 11.4 7.20001C11.4796 7.30609 11.5137 7.43944 11.495 7.57072C11.4762 7.70199 11.4061 7.82044 11.3 7.90001L8.83313 9.75L11.3 11.6ZM11 4.50001H8.50001C8.3674 4.50001 8.24022 4.44733 8.14645 4.35356C8.05268 4.25979 8.00001 4.13261 8.00001 4.00001C8.00001 3.8674 8.05268 3.74022 8.14645 3.64645C8.24022 3.55268 8.3674 3.50001 8.50001 3.50001H11C11.1326 3.50001 11.2598 3.55268 11.3536 3.64645C11.4473 3.74022 11.5 3.8674 11.5 4.00001C11.5 4.13261 11.4473 4.25979 11.3536 4.35356C11.2598 4.44733 11.1326 4.50001 11 4.50001Z" fill="black"/>
</g>
<defs>
<clipPath id="clip0_5_1699">
<rect width="16" height="16" fill="white"/>
</clipPath>
</defs>
</svg>
