<svg width="16" height="16" viewBox="0 0 16 16" fill="none" xmlns="http://www.w3.org/2000/svg">
<g clip-path="url(#clip0_5_762)">
<path d="M15 9.49998V11C15 11.2652 14.8946 11.5196 14.7071 11.7071C14.5196 11.8946 14.2652 12 14 12H7.24563C7.19951 12 7.15428 11.9873 7.11495 11.9632C7.07561 11.9392 7.0437 11.9047 7.02274 11.8636C7.00178 11.8225 6.9926 11.7765 6.99619 11.7305C6.99979 11.6845 7.01603 11.6404 7.04313 11.6031L10.8919 6.31248C10.9716 6.20652 11.0073 6.07378 10.9913 5.94211C10.9754 5.81044 10.909 5.69006 10.8062 5.60623C10.7534 5.5652 10.6928 5.53521 10.6281 5.51802C10.5634 5.50084 10.4959 5.49683 10.4297 5.50621C10.3634 5.51559 10.2997 5.53819 10.2423 5.57266C10.1849 5.60712 10.135 5.65276 10.0956 5.70685L5.59562 11.8981C5.57204 11.9302 5.54113 11.9562 5.50547 11.9739C5.46981 11.9916 5.43044 12.0006 5.39062 12H2C1.73478 12 1.48043 11.8946 1.29289 11.7071C1.10536 11.5196 1 11.2652 1 11V9.5706C1 9.45873 1 9.34748 1.00812 9.23748C1.01133 9.17337 1.03908 9.11294 1.08562 9.06873C1.13217 9.02452 1.19393 8.9999 1.25812 8.99998H3C3.06854 9.00013 3.13639 8.98619 3.19931 8.95901C3.26224 8.93184 3.31891 8.89202 3.3658 8.84202C3.41269 8.79203 3.4488 8.73292 3.47189 8.66838C3.49497 8.60384 3.50454 8.53525 3.5 8.46685C3.48894 8.33806 3.42945 8.21826 3.33352 8.13161C3.23759 8.04496 3.11237 7.99792 2.98312 7.99998H1.495C1.45686 7.99995 1.41923 7.9912 1.385 7.97439C1.35077 7.95758 1.32083 7.93316 1.29749 7.903C1.27414 7.87284 1.25801 7.83774 1.25032 7.80038C1.24263 7.76303 1.24359 7.72441 1.25312 7.68748C2.00312 4.94748 4.35687 2.86685 7.22312 2.54498C7.25814 2.54119 7.29356 2.54485 7.32707 2.5557C7.36057 2.56656 7.39141 2.58437 7.41755 2.60798C7.44369 2.63158 7.46455 2.66044 7.47875 2.69267C7.49296 2.72489 7.5002 2.75976 7.5 2.79498V4.49998C7.49985 4.56852 7.51379 4.63637 7.54097 4.69929C7.56814 4.76222 7.60796 4.81889 7.65796 4.86578C7.70795 4.91267 7.76706 4.94878 7.8316 4.97187C7.89614 4.99495 7.96473 5.00452 8.03312 4.99998C8.16192 4.98892 8.28172 4.92943 8.36837 4.8335C8.45502 4.73757 8.50206 4.61235 8.5 4.4831V2.79185C8.4998 2.75663 8.50704 2.72177 8.52125 2.68954C8.53545 2.65732 8.55631 2.62846 8.58245 2.60485C8.60859 2.58125 8.63943 2.56344 8.67293 2.55258C8.70644 2.54172 8.74186 2.53807 8.77687 2.54185C10.1762 2.6991 11.4958 3.27405 12.5637 4.19184C13.6316 5.10962 14.3985 6.32771 14.7644 7.68748C14.7739 7.72446 14.7749 7.76313 14.7671 7.80054C14.7594 7.83794 14.7432 7.87307 14.7198 7.90325C14.6964 7.93342 14.6664 7.95783 14.6321 7.97459C14.5978 7.99136 14.5601 8.00005 14.5219 7.99998H13.0169C12.8878 7.99824 12.7629 8.04543 12.6673 8.13204C12.5716 8.21866 12.5123 8.33828 12.5013 8.46685C12.4967 8.53525 12.5063 8.60384 12.5294 8.66838C12.5525 8.73292 12.5886 8.79203 12.6354 8.84202C12.6823 8.89202 12.739 8.93184 12.8019 8.95901C12.8649 8.98619 12.9327 9.00013 13.0013 8.99998H14.7463C14.8111 8.99994 14.8734 9.02507 14.92 9.07008C14.9666 9.11509 14.994 9.17645 14.9963 9.24123C15 9.32685 15 9.4131 15 9.49998Z" fill="black"/>
</g>
<defs>
<clipPath id="clip0_5_762">
<rect width="16" height="16" fill="white"/>
</clipPath>
</defs>
</svg>
