<svg width="16" height="16" viewBox="0 0 16 16" fill="none" xmlns="http://www.w3.org/2000/svg">
<g clip-path="url(#clip0_5_1184)">
<path d="M3.29309 6.20687C3.20021 6.11401 3.12653 6.00376 3.07626 5.88242C3.02599 5.76108 3.00011 5.63103 3.00011 5.49969C3.00011 5.36835 3.02599 5.23829 3.07626 5.11695C3.12653 4.99561 3.20021 4.88536 3.29309 4.7925L7.29309 0.792499C7.48065 0.604942 7.73503 0.499573 8.00028 0.499573C8.26552 0.499573 8.51991 0.604942 8.70746 0.792499C8.89502 0.980057 9.00039 1.23444 9.00039 1.49969C9.00039 1.76493 8.89502 2.01932 8.70746 2.20687L4.70746 6.20687C4.6146 6.29976 4.50435 6.37344 4.38301 6.42371C4.26167 6.47398 4.13162 6.49985 4.00028 6.49985C3.86893 6.49985 3.73888 6.47398 3.61754 6.42371C3.4962 6.37344 3.38595 6.29976 3.29309 6.20687ZM15.2075 7.2925C15.1146 7.19962 15.0044 7.12594 14.883 7.07567C14.7617 7.0254 14.6316 6.99953 14.5003 6.99953C14.3689 6.99953 14.2389 7.0254 14.1175 7.07567C13.9962 7.12594 13.8859 7.19962 13.7931 7.2925L9.79309 11.2925C9.7002 11.3854 9.62652 11.4956 9.57626 11.617C9.52599 11.7383 9.50011 11.8683 9.50011 11.9997C9.50011 12.131 9.52599 12.2611 9.57626 12.3824C9.62652 12.5038 9.7002 12.614 9.79309 12.7069C9.88595 12.7998 9.9962 12.8734 10.1175 12.9237C10.2389 12.974 10.3689 12.9998 10.5003 12.9998C10.6316 12.9998 10.7617 12.974 10.883 12.9237C11.0044 12.8734 11.1146 12.7998 11.2075 12.7069L15.2075 8.70687C15.3003 8.61401 15.374 8.50376 15.4243 8.38242C15.4746 8.26108 15.5004 8.13103 15.5004 7.99969C15.5004 7.86835 15.4746 7.73829 15.4243 7.61695C15.374 7.49561 15.3003 7.38536 15.2075 7.2925ZM13.0131 6.305L9.69496 2.98687C9.67174 2.96363 9.64417 2.94519 9.61382 2.93261C9.58347 2.92003 9.55094 2.91355 9.51809 2.91355C9.48523 2.91355 9.4527 2.92003 9.42235 2.93261C9.392 2.94519 9.36443 2.96363 9.34121 2.98687L5.48746 6.84062C5.46422 6.86384 5.44578 6.89141 5.4332 6.92176C5.42062 6.95211 5.41414 6.98465 5.41414 7.0175C5.41414 7.05035 5.42062 7.08288 5.4332 7.11323C5.44578 7.14358 5.46422 7.17116 5.48746 7.19437L6.43746 8.14625L1.79309 12.7931C1.61347 12.9822 1.51481 13.2339 1.51815 13.4947C1.52149 13.7555 1.62656 14.0046 1.81096 14.189C1.99536 14.3734 2.2445 14.4785 2.50526 14.4818C2.76603 14.4852 3.01778 14.3865 3.20684 14.2069L7.85371 9.5625L8.80559 10.5144C8.82881 10.5376 8.85638 10.5561 8.88673 10.5686C8.91708 10.5812 8.94961 10.5877 8.98246 10.5877C9.01532 10.5877 9.04785 10.5812 9.0782 10.5686C9.10855 10.5561 9.13612 10.5376 9.15934 10.5144L13.0131 6.66062C13.0366 6.63737 13.0553 6.60968 13.068 6.57916C13.0808 6.54864 13.0874 6.51589 13.0874 6.48281C13.0874 6.44973 13.0808 6.41699 13.068 6.38646C13.0553 6.35594 13.0366 6.32825 13.0131 6.305Z" fill="black"/>
</g>
<defs>
<clipPath id="clip0_5_1184">
<rect width="16" height="16" fill="white"/>
</clipPath>
</defs>
</svg>
