<svg width="16" height="16" viewBox="0 0 16 16" fill="none" xmlns="http://www.w3.org/2000/svg">
<g clip-path="url(#clip0_5_760)">
<path d="M14.8712 6.70063C14.8573 6.63022 14.8284 6.56364 14.7864 6.5054C14.7445 6.44717 14.6905 6.39864 14.6281 6.36313L12.7637 5.30063L12.7562 3.19938C12.756 3.12702 12.7401 3.05556 12.7096 2.98995C12.679 2.92435 12.6346 2.86615 12.5794 2.81938C11.9031 2.24732 11.1243 1.80892 10.2844 1.52751C10.2182 1.50512 10.1481 1.49684 10.0786 1.50319C10.0091 1.50954 9.94161 1.53038 9.88062 1.56438L8 2.61563L6.1175 1.56251C6.05647 1.52832 5.98894 1.50731 5.91929 1.50085C5.84963 1.4944 5.7794 1.50262 5.71312 1.52501C4.87373 1.80823 4.09577 2.24832 3.42062 2.82188C3.36548 2.86858 3.32111 2.92668 3.29057 2.99217C3.26004 3.05766 3.24406 3.129 3.24375 3.20126L3.23437 5.30438L1.37 6.36688C1.30762 6.40239 1.25362 6.45092 1.21167 6.50915C1.16972 6.56739 1.1408 6.63397 1.12687 6.70438C0.956245 7.56181 0.956245 8.44446 1.12687 9.30188C1.1408 9.37229 1.16972 9.43888 1.21167 9.49712C1.25362 9.55535 1.30762 9.60387 1.37 9.63938L3.23437 10.7019L3.24187 12.8038C3.2421 12.8761 3.25803 12.9476 3.28857 13.0132C3.31911 13.0788 3.36352 13.137 3.41875 13.1838C4.09504 13.7558 4.87384 14.1942 5.71375 14.4756C5.77989 14.498 5.84999 14.5063 5.91953 14.5C5.98907 14.4936 6.0565 14.4728 6.1175 14.4388L8 13.3844L9.8825 14.4375C9.957 14.479 10.041 14.5005 10.1262 14.5C10.1809 14.5 10.2351 14.4911 10.2869 14.4738C11.1261 14.1907 11.904 13.751 12.5794 13.1781C12.6345 13.1314 12.6789 13.0733 12.7094 13.0078C12.74 12.9424 12.7559 12.871 12.7562 12.7988L12.7656 10.6956L14.63 9.63313C14.6924 9.59762 14.7464 9.5491 14.7883 9.49087C14.8303 9.43263 14.8592 9.36604 14.8731 9.29563C15.0428 8.43889 15.0422 7.55713 14.8712 6.70063ZM8 10.5C7.50554 10.5 7.02219 10.3534 6.61107 10.0787C6.19995 9.80398 5.87952 9.41353 5.6903 8.95672C5.50108 8.4999 5.45157 7.99724 5.54803 7.51228C5.6445 7.02733 5.8826 6.58187 6.23223 6.23224C6.58186 5.88261 7.02732 5.64451 7.51227 5.54805C7.99722 5.45158 8.49989 5.50109 8.95671 5.69031C9.41352 5.87953 9.80397 6.19996 10.0787 6.61108C10.3534 7.02221 10.5 7.50556 10.5 8.00001C10.5 8.66305 10.2366 9.29893 9.76776 9.76778C9.29892 10.2366 8.66304 10.5 8 10.5Z" fill="black"/>
</g>
<defs>
<clipPath id="clip0_5_760">
<rect width="16" height="16" fill="white"/>
</clipPath>
</defs>
</svg>
