<svg width="16" height="16" viewBox="0 0 16 16" fill="none" xmlns="http://www.w3.org/2000/svg">
<g clip-path="url(#clip0_5_1426)">
<path d="M13.5 8.13503C13.5025 8.04503 13.5025 7.95503 13.5 7.86503L14.4325 6.70003C14.4814 6.63886 14.5153 6.56706 14.5313 6.49042C14.5474 6.41378 14.5452 6.33443 14.525 6.25878C14.3719 5.68425 14.1432 5.13256 13.845 4.61815C13.806 4.55085 13.7517 4.4936 13.6866 4.45096C13.6215 4.40832 13.5473 4.38146 13.47 4.37253L11.9875 4.20753C11.9259 4.14253 11.8634 4.08003 11.8 4.02003L11.625 2.53378C11.616 2.45641 11.5891 2.38222 11.5463 2.31711C11.5036 2.252 11.4462 2.19779 11.3788 2.15878C10.8644 1.86081 10.3127 1.63256 9.73815 1.48003C9.6625 1.45982 9.58315 1.45766 9.50651 1.47372C9.42987 1.48979 9.35807 1.52363 9.2969 1.57253L8.13503 2.50003C8.04503 2.50003 7.95503 2.50003 7.86503 2.50003L6.70003 1.5694C6.63886 1.52051 6.56706 1.48666 6.49042 1.4706C6.41378 1.45453 6.33443 1.45669 6.25878 1.4769C5.68425 1.63005 5.13256 1.85871 4.61815 2.1569C4.55085 2.19598 4.4936 2.25023 4.45096 2.31533C4.40832 2.38044 4.38146 2.45459 4.37253 2.5319L4.20753 4.0169C4.14253 4.07899 4.08003 4.14149 4.02003 4.2044L2.53378 4.37503C2.45641 4.38403 2.38222 4.41098 2.31711 4.45373C2.252 4.49649 2.19779 4.55386 2.15878 4.62128C1.86087 5.13576 1.63242 5.68743 1.4794 6.2619C1.45928 6.33761 1.45722 6.41698 1.47339 6.49362C1.48957 6.57027 1.52353 6.64204 1.57253 6.70315L2.50003 7.86503C2.50003 7.95503 2.50003 8.04503 2.50003 8.13503L1.5694 9.30003C1.52051 9.3612 1.48666 9.43299 1.4706 9.50964C1.45453 9.58628 1.45669 9.66562 1.4769 9.74128C1.63005 10.3158 1.85871 10.8675 2.1569 11.3819C2.19598 11.4492 2.25023 11.5065 2.31533 11.5491C2.38044 11.5917 2.45459 11.6186 2.5319 11.6275L4.0144 11.7925C4.07649 11.8575 4.13899 11.92 4.2019 11.98L4.37503 13.4663C4.38403 13.5436 4.41098 13.6178 4.45373 13.6829C4.49649 13.7481 4.55386 13.8023 4.62128 13.8413C5.13576 14.1392 5.68743 14.3676 6.2619 14.5207C6.33761 14.5408 6.41698 14.5428 6.49362 14.5267C6.57027 14.5105 6.64204 14.4765 6.70315 14.4275L7.86503 13.5C7.95503 13.5025 8.04503 13.5025 8.13503 13.5L9.30003 14.4325C9.3612 14.4814 9.43299 14.5153 9.50964 14.5313C9.58628 14.5474 9.66562 14.5452 9.74128 14.525C10.3159 14.3722 10.8676 14.1435 11.3819 13.845C11.4492 13.806 11.5065 13.7517 11.5491 13.6866C11.5917 13.6215 11.6186 13.5473 11.6275 13.47L11.7925 11.9875C11.8575 11.9259 11.92 11.8634 11.98 11.8L13.4663 11.625C13.5436 11.616 13.6178 11.5891 13.6829 11.5463C13.7481 11.5036 13.8023 11.4462 13.8413 11.3788C14.1392 10.8643 14.3676 10.3126 14.5207 9.73815C14.5408 9.66245 14.5428 9.58308 14.5267 9.50643C14.5105 9.42979 14.4765 9.35802 14.4275 9.2969L13.5 8.13503ZM8.00003 10.5C7.50558 10.5 7.02223 10.3534 6.6111 10.0787C6.19998 9.804 5.87955 9.41355 5.69033 8.95674C5.50111 8.49992 5.4516 7.99726 5.54807 7.5123C5.64453 7.02735 5.88263 6.58189 6.23226 6.23226C6.58189 5.88263 7.02735 5.64453 7.5123 5.54807C7.99726 5.4516 8.49992 5.50111 8.95674 5.69033C9.41355 5.87955 9.804 6.19998 10.0787 6.6111C10.3534 7.02223 10.5 7.50558 10.5 8.00003C10.5 8.66307 10.2366 9.29895 9.7678 9.7678C9.29895 10.2366 8.66307 10.5 8.00003 10.5Z" fill="black"/>
</g>
<defs>
<clipPath id="clip0_5_1426">
<rect width="16" height="16" fill="white"/>
</clipPath>
</defs>
</svg>
