<svg width="16" height="16" viewBox="0 0 16 16" fill="none" xmlns="http://www.w3.org/2000/svg">
<g clip-path="url(#clip0_5_1359)">
<path d="M14.5 7.5H13.9788C13.9203 6.78699 13.7335 6.09039 13.4275 5.44375L13.8794 5.18313C13.9942 5.11682 14.0781 5.0076 14.1124 4.87949C14.1468 4.75138 14.1288 4.61487 14.0625 4.5C13.9962 4.38513 13.887 4.3013 13.7589 4.26696C13.6308 4.23262 13.4942 4.25057 13.3794 4.31687L12.9263 4.57875C12.5173 3.99226 12.0077 3.48274 11.4213 3.07375L11.6831 2.62063C11.7494 2.50575 11.7674 2.36925 11.733 2.24114C11.6987 2.11303 11.6149 2.0038 11.5 1.9375C11.3851 1.8712 11.2486 1.85324 11.1205 1.88758C10.9924 1.92193 10.8832 2.00575 10.8169 2.12063L10.5562 2.5725C9.90961 2.26646 9.21301 2.07971 8.5 2.02125V1.5C8.5 1.36739 8.44732 1.24021 8.35355 1.14645C8.25979 1.05268 8.13261 1 8 1C7.86739 1 7.74021 1.05268 7.64645 1.14645C7.55268 1.24021 7.5 1.36739 7.5 1.5V2.02125C6.78699 2.07971 6.09039 2.26646 5.44375 2.5725L5.18313 2.12063C5.11682 2.00575 5.0076 1.92193 4.87949 1.88758C4.75138 1.85324 4.61487 1.8712 4.5 1.9375C4.38513 2.0038 4.3013 2.11303 4.26696 2.24114C4.23262 2.36925 4.25057 2.50575 4.31687 2.62063L4.57875 3.07375C3.99226 3.48274 3.48274 3.99226 3.07375 4.57875L2.62063 4.31687C2.56375 4.28404 2.50096 4.26274 2.43585 4.25417C2.37073 4.24561 2.30457 4.24995 2.24114 4.26696C2.11303 4.3013 2.0038 4.38513 1.9375 4.5C1.8712 4.61487 1.85324 4.75138 1.88758 4.87949C1.92193 5.0076 2.00575 5.11682 2.12063 5.18313L2.5725 5.44375C2.26646 6.09039 2.07971 6.78699 2.02125 7.5H1.5C1.36739 7.5 1.24021 7.55268 1.14645 7.64645C1.05268 7.74021 1 7.86739 1 8C1 8.13261 1.05268 8.25979 1.14645 8.35355C1.24021 8.44732 1.36739 8.5 1.5 8.5H2.02125C2.07971 9.21301 2.26646 9.90961 2.5725 10.5562L2.12063 10.8169C2.02525 10.8719 1.9507 10.9568 1.90854 11.0585C1.86638 11.1603 1.85897 11.273 1.88746 11.3794C1.91596 11.4857 1.97876 11.5797 2.06612 11.6467C2.15348 11.7137 2.26052 11.75 2.37063 11.75C2.45841 11.7503 2.5447 11.7272 2.62063 11.6831L3.07375 11.4213C3.48274 12.0077 3.99226 12.5173 4.57875 12.9263L4.31687 13.3794C4.25057 13.4942 4.23262 13.6308 4.26696 13.7589C4.3013 13.887 4.38513 13.9962 4.5 14.0625C4.61487 14.1288 4.75138 14.1468 4.87949 14.1124C5.0076 14.0781 5.11682 13.9942 5.18313 13.8794L5.44375 13.4275C6.09039 13.7335 6.78699 13.9203 7.5 13.9788V14.5C7.5 14.6326 7.55268 14.7598 7.64645 14.8536C7.74021 14.9473 7.86739 15 8 15C8.13261 15 8.25979 14.9473 8.35355 14.8536C8.44732 14.7598 8.5 14.6326 8.5 14.5V13.9788C9.21301 13.9203 9.90961 13.7335 10.5562 13.4275L10.8169 13.8794C10.8832 13.9942 10.9924 14.0781 11.1205 14.1124C11.2486 14.1468 11.3851 14.1288 11.5 14.0625C11.6149 13.9962 11.6987 13.887 11.733 13.7589C11.7674 13.6308 11.7494 13.4942 11.6831 13.3794L11.4213 12.9263C12.0077 12.5173 12.5173 12.0077 12.9263 11.4213L13.3794 11.6831C13.4363 11.716 13.499 11.7373 13.5642 11.7459C13.6293 11.7544 13.6954 11.7501 13.7589 11.7331C13.8223 11.7161 13.8818 11.6867 13.9339 11.6467C13.986 11.6068 14.0297 11.5569 14.0625 11.5C14.1289 11.3852 14.1469 11.2488 14.1127 11.1206C14.0785 10.9925 13.9948 10.8833 13.88 10.8169L13.4281 10.5562C13.7342 9.90961 13.9209 9.21301 13.9794 8.5H14.5C14.6326 8.5 14.7598 8.44732 14.8536 8.35355C14.9473 8.25979 15 8.13261 15 8C15 7.86739 14.9473 7.74021 14.8536 7.64645C14.7598 7.55268 14.6326 7.5 14.5 7.5ZM4.5 8C4.49974 7.47032 4.6199 6.94751 4.8514 6.4711C5.08289 5.99468 5.41966 5.57713 5.83625 5.25L7.4225 8L5.83625 10.75C5.41966 10.4229 5.08289 10.0053 4.8514 9.5289C4.6199 9.05249 4.49974 8.52968 4.5 8ZM8 11.5C7.55508 11.5005 7.1142 11.4156 6.70125 11.25L8.28875 8.5H11.4637C11.3424 9.33245 10.9258 10.0935 10.2899 10.6443C9.65399 11.195 8.84125 11.4987 8 11.5ZM8.28875 7.5L6.70125 4.75C7.1929 4.55359 7.72269 4.47128 8.25075 4.50926C8.77881 4.54724 9.29138 4.70452 9.74986 4.96925C10.2083 5.23399 10.6008 5.59929 10.8977 6.03765C11.1945 6.47601 11.3881 6.97601 11.4637 7.5H8.28875Z" fill="black"/>
</g>
<defs>
<clipPath id="clip0_5_1359">
<rect width="16" height="16" fill="white"/>
</clipPath>
</defs>
</svg>
