<svg width="16" height="16" viewBox="0 0 16 16" fill="none" xmlns="http://www.w3.org/2000/svg">
<g clip-path="url(#clip0_5_756)">
<path d="M12.5 1.5H3.5C3.23478 1.5 2.98043 1.60536 2.79289 1.79289C2.60536 1.98043 2.5 2.23478 2.5 2.5V13.5C2.5 13.7652 2.60536 14.0196 2.79289 14.2071C2.98043 14.3946 3.23478 14.5 3.5 14.5H12.5C12.7652 14.5 13.0196 14.3946 13.2071 14.2071C13.3946 14.0196 13.5 13.7652 13.5 13.5V2.5C13.5 2.23478 13.3946 1.98043 13.2071 1.79289C13.0196 1.60536 12.7652 1.5 12.5 1.5ZM8 13C7.18152 12.9999 6.39321 12.691 5.79257 12.135C5.19194 11.579 4.82321 10.8168 4.76006 10.0007C4.69691 9.18471 4.94399 8.37488 5.45193 7.73308C5.95988 7.09128 6.69128 6.66476 7.5 6.53875V5.23875L5.6875 5.96438C5.56434 6.0141 5.42647 6.01287 5.30422 5.96095C5.18197 5.90902 5.08535 5.81066 5.03562 5.6875C4.9859 5.56434 4.98713 5.42647 5.03905 5.30422C5.09098 5.18197 5.18934 5.08535 5.3125 5.03562L6.65375 4.5L5.3125 3.96438C5.18934 3.91465 5.09098 3.81803 5.03905 3.69578C4.98713 3.57353 4.9859 3.43566 5.03562 3.3125C5.08535 3.18934 5.18197 3.09098 5.30422 3.03905C5.42647 2.98713 5.56434 2.9859 5.6875 3.03562L8 3.96125L10.3125 3.03562C10.3735 3.011 10.4387 2.99863 10.5045 2.99922C10.5702 2.99981 10.6352 3.01334 10.6958 3.03905C10.7563 3.06477 10.8112 3.10215 10.8573 3.14906C10.9034 3.19598 10.9398 3.25152 10.9644 3.3125C10.989 3.37348 11.0014 3.43872 11.0008 3.50448C11.0002 3.57024 10.9867 3.63525 10.9609 3.69578C10.9352 3.75631 10.8979 3.81119 10.8509 3.85727C10.804 3.90336 10.7485 3.93975 10.6875 3.96438L9.34625 4.5L10.6875 5.03562C10.8107 5.08535 10.909 5.18197 10.9609 5.30422C11.0129 5.42647 11.0141 5.56434 10.9644 5.6875C10.9146 5.81066 10.818 5.90902 10.6958 5.96095C10.5735 6.01287 10.4357 6.0141 10.3125 5.96438L8.5 5.23875V6.53875C9.30872 6.66476 10.0401 7.09128 10.5481 7.73308C11.056 8.37488 11.3031 9.18471 11.2399 10.0007C11.1768 10.8168 10.8081 11.579 10.2074 12.135C9.60679 12.691 8.81848 12.9999 8 13ZM10.25 9.75C10.25 10.195 10.118 10.63 9.87081 11C9.62357 11.37 9.27217 11.6584 8.86104 11.8287C8.4499 11.999 7.9975 12.0436 7.56105 11.9568C7.12459 11.87 6.72368 11.6557 6.40901 11.341C6.09434 11.0263 5.88005 10.6254 5.79323 10.189C5.70642 9.7525 5.75097 9.3001 5.92127 8.88896C6.09157 8.47783 6.37996 8.12643 6.74997 7.87919C7.11998 7.63196 7.55499 7.5 8 7.5C8.59674 7.5 9.16903 7.73705 9.59099 8.15901C10.0129 8.58097 10.25 9.15326 10.25 9.75Z" fill="black"/>
</g>
<defs>
<clipPath id="clip0_5_756">
<rect width="16" height="16" fill="white"/>
</clipPath>
</defs>
</svg>
