<svg width="16" height="16" viewBox="0 0 16 16" fill="none" xmlns="http://www.w3.org/2000/svg">
<g clip-path="url(#clip0_5_758)">
<path d="M9.5 8.75C9.5 9.19501 9.36804 9.63002 9.12081 10C8.87357 10.37 8.52217 10.6584 8.11104 10.8287C7.6999 10.999 7.2475 11.0436 6.81105 10.9568C6.37459 10.87 5.97368 10.6557 5.65901 10.341C5.34434 10.0263 5.13005 9.62541 5.04323 9.18895C4.95642 8.7525 5.00097 8.3001 5.17127 7.88896C5.34157 7.47783 5.62996 7.12643 5.99997 6.87919C6.36998 6.63196 6.80499 6.5 7.25 6.5C7.54547 6.5 7.83805 6.5582 8.11104 6.67127C8.38402 6.78434 8.63206 6.95008 8.84099 7.15901C9.04992 7.36794 9.21566 7.61598 9.32873 7.88896C9.4418 8.16194 9.5 8.45453 9.5 8.75ZM13.5 2.5V13.5C13.5 13.7652 13.3946 14.0196 13.2071 14.2071C13.0196 14.3946 12.7652 14.5 12.5 14.5H3.5C3.23478 14.5 2.98043 14.3946 2.79289 14.2071C2.60536 14.0196 2.5 13.7652 2.5 13.5V2.5C2.5 2.23478 2.60536 1.98043 2.79289 1.79289C2.98043 1.60536 3.23478 1.5 3.5 1.5H12.5C12.7652 1.5 13.0196 1.60536 13.2071 1.79289C13.3946 1.98043 13.5 2.23478 13.5 2.5ZM12 4.5C12 4.36739 11.9473 4.24021 11.8536 4.14645C11.7598 4.05268 11.6326 4 11.5 4H9.5C9.36739 4 9.24021 4.05268 9.14645 4.14645C9.05268 4.24021 9 4.36739 9 4.5C9 4.63261 9.05268 4.75979 9.14645 4.85355C9.24021 4.94732 9.36739 5 9.5 5H10.2931L9.16813 6.125C8.50701 5.64021 7.68731 5.42275 6.87283 5.51606C6.05834 5.60937 5.30907 6.00659 4.77472 6.62833C4.24038 7.25008 3.96032 8.05056 3.99052 8.86981C4.02072 9.68907 4.35895 10.4668 4.93762 11.0475C5.51629 11.6282 6.29278 11.9692 7.11193 12.0023C7.93107 12.0353 8.73253 11.7581 9.35616 11.226C9.97979 10.6938 10.3796 9.94596 10.4758 9.13181C10.572 8.31766 10.3574 7.4972 9.875 6.83437L11 5.70937V6.5C11 6.63261 11.0527 6.75979 11.1464 6.85355C11.2402 6.94732 11.3674 7 11.5 7C11.6326 7 11.7598 6.94732 11.8536 6.85355C11.9473 6.75979 12 6.63261 12 6.5V4.5Z" fill="black"/>
</g>
<defs>
<clipPath id="clip0_5_758">
<rect width="16" height="16" fill="white"/>
</clipPath>
</defs>
</svg>
