<svg width="16" height="16" viewBox="0 0 16 16" fill="none" xmlns="http://www.w3.org/2000/svg">
<g clip-path="url(#clip0_5_1647)">
<path d="M9.24438 7.1075C9.27351 7.46457 9.19236 7.82199 9.01187 8.13146C8.83138 8.44094 8.56025 8.68756 8.23512 8.83802C7.90998 8.98848 7.5465 9.03552 7.19377 8.9728C6.84104 8.91007 6.51606 8.74059 6.26274 8.48726C6.00941 8.23394 5.83993 7.90896 5.7772 7.55623C5.71448 7.2035 5.76152 6.84002 5.91198 6.51488C6.06244 6.18975 6.30906 5.91862 6.61854 5.73813C6.92801 5.55764 7.28543 5.47649 7.6425 5.50562C8.05607 5.53937 8.4442 5.71898 8.73761 6.01239C9.03102 6.3058 9.21063 6.69393 9.24438 7.1075ZM13.5 2.5V13.5C13.5 13.7652 13.3946 14.0196 13.2071 14.2071C13.0196 14.3946 12.7652 14.5 12.5 14.5H3.5C3.23478 14.5 2.98043 14.3946 2.79289 14.2071C2.60536 14.0196 2.5 13.7652 2.5 13.5V2.5C2.5 2.23478 2.60536 1.98043 2.79289 1.79289C2.98043 1.60536 3.23478 1.5 3.5 1.5H12.5C12.7652 1.5 13.0196 1.60536 13.2071 1.79289C13.3946 1.98043 13.5 2.23478 13.5 2.5ZM11.75 3.5C11.75 3.36739 11.6973 3.24021 11.6036 3.14645C11.5098 3.05268 11.3826 3 11.25 3H9.51688C9.38763 2.99794 9.26241 3.04498 9.16648 3.13163C9.07055 3.21828 9.01106 3.33808 9 3.46688C8.99546 3.53527 9.00503 3.60386 9.02811 3.6684C9.0512 3.73294 9.08731 3.79205 9.1342 3.84204C9.18109 3.89204 9.23776 3.93186 9.30069 3.95903C9.36361 3.98621 9.43146 4.00015 9.5 4H10.0431L9.0575 4.98562C8.71996 4.75259 8.33457 4.59802 7.92956 4.53322C7.52454 4.46842 7.11016 4.49505 6.71677 4.61114C6.32337 4.72723 5.96093 4.92985 5.65599 5.20416C5.35104 5.47847 5.11132 5.81751 4.95438 6.19647C4.79744 6.57542 4.72726 6.98468 4.74897 7.39427C4.77069 7.80386 4.88375 8.20341 5.07987 8.56364C5.276 8.92388 5.55023 9.23568 5.88246 9.47621C6.2147 9.71674 6.59654 9.8799 7 9.95375V11H5.76687C5.63763 10.9979 5.51241 11.045 5.41648 11.1316C5.32055 11.2183 5.26106 11.3381 5.25 11.4669C5.24546 11.5353 5.25503 11.6039 5.27811 11.6684C5.3012 11.7329 5.33731 11.792 5.3842 11.842C5.43109 11.892 5.48776 11.9319 5.55069 11.959C5.61361 11.9862 5.68146 12.0002 5.75 12H7V12.9831C6.99841 13.1121 7.04564 13.2369 7.13223 13.3326C7.21882 13.4282 7.33836 13.4876 7.46688 13.4987C7.53527 13.5033 7.60386 13.4937 7.6684 13.4706C7.73294 13.4475 7.79205 13.4114 7.84204 13.3646C7.89204 13.3177 7.93186 13.261 7.95903 13.1981C7.98621 13.1351 8.00015 13.0673 8 12.9987V12H9.23312C9.36216 12.0017 9.48707 11.9546 9.58273 11.8679C9.67839 11.7813 9.7377 11.6617 9.74875 11.5331C9.75329 11.4647 9.74372 11.3961 9.72064 11.3316C9.69755 11.2671 9.66144 11.208 9.61455 11.158C9.56766 11.108 9.51099 11.0681 9.44806 11.041C9.38514 11.0138 9.31729 10.9998 9.24875 11H8V9.95375C8.45059 9.87017 8.87315 9.67532 9.22927 9.38689C9.5854 9.09846 9.8638 8.72561 10.0392 8.30221C10.2145 7.87882 10.2813 7.41831 10.2334 6.96255C10.1856 6.50678 10.0245 6.0702 9.765 5.6925L10.75 4.70687V5.23313C10.7481 5.36233 10.7952 5.48747 10.8818 5.58337C10.9684 5.67926 11.0881 5.7388 11.2169 5.75C11.2853 5.75454 11.3539 5.74497 11.4184 5.72189C11.4829 5.6988 11.542 5.66269 11.592 5.6158C11.642 5.56891 11.6819 5.51224 11.709 5.44931C11.7362 5.38639 11.7502 5.31854 11.75 5.25V3.5Z" fill="black"/>
</g>
<defs>
<clipPath id="clip0_5_1647">
<rect width="16" height="16" fill="white"/>
</clipPath>
</defs>
</svg>
