<svg width="16" height="16" viewBox="0 0 16 16" fill="none" xmlns="http://www.w3.org/2000/svg">
<g clip-path="url(#clip0_5_1219)">
<path d="M10.49 6.77187C10.5368 7.28363 10.4248 7.79738 10.1692 8.24318C9.91353 8.68899 9.52673 9.04518 9.06141 9.26328C8.5961 9.48138 8.07488 9.55079 7.56871 9.46205C7.06253 9.37332 6.596 9.13075 6.23263 8.76737C5.86925 8.404 5.62668 7.93747 5.53795 7.43129C5.44921 6.92512 5.51862 6.4039 5.73672 5.93858C5.95482 5.47327 6.31101 5.08647 6.75682 4.83085C7.20262 4.57522 7.71637 4.46319 8.22812 4.51C8.81006 4.56323 9.35496 4.81863 9.76816 5.23184C10.1814 5.64504 10.4368 6.18994 10.49 6.77187ZM13.5 2.5V13.5C13.5 13.7652 13.3946 14.0196 13.2071 14.2071C13.0196 14.3946 12.7652 14.5 12.5 14.5H3.5C3.23478 14.5 2.98043 14.3946 2.79289 14.2071C2.60536 14.0196 2.5 13.7652 2.5 13.5V2.5C2.5 2.23478 2.60536 1.98043 2.79289 1.79289C2.98043 1.60536 3.23478 1.5 3.5 1.5H12.5C12.7652 1.5 13.0196 1.60536 13.2071 1.79289C13.3946 1.98043 13.5 2.23478 13.5 2.5ZM11.5 7C11.5001 6.3291 11.3073 5.67232 10.9447 5.10787C10.5821 4.54341 10.0648 4.09508 9.45463 3.81625C8.84442 3.53741 8.16692 3.43984 7.50283 3.53514C6.83873 3.63044 6.21602 3.9146 5.70885 4.35378C5.20167 4.79296 4.83141 5.36866 4.64215 6.01231C4.45289 6.65596 4.45261 7.34044 4.64135 7.98425C4.83008 8.62805 5.19987 9.20405 5.70669 9.64364C6.2135 10.0832 6.83598 10.3679 7.5 10.4637V12.4831C7.49841 12.6121 7.54564 12.7369 7.63223 12.8326C7.71882 12.9282 7.83836 12.9876 7.96688 12.9987C8.03527 13.0033 8.10387 12.9937 8.1684 12.9706C8.23294 12.9475 8.29205 12.9114 8.34204 12.8646C8.39204 12.8177 8.43186 12.761 8.45903 12.6981C8.48621 12.6351 8.50015 12.5673 8.5 12.4987V10.4637C9.33245 10.3424 10.0935 9.92578 10.6443 9.28988C11.195 8.65399 11.4987 7.84125 11.5 7Z" fill="black"/>
</g>
<defs>
<clipPath id="clip0_5_1219">
<rect width="16" height="16" fill="white"/>
</clipPath>
</defs>
</svg>
