<svg width="16" height="16" viewBox="0 0 16 16" fill="none" xmlns="http://www.w3.org/2000/svg">
<g clip-path="url(#clip0_5_1174)">
<path d="M8 9C7.50555 9 7.0222 8.85338 6.61107 8.57867C6.19995 8.30397 5.87952 7.91352 5.6903 7.45671C5.50108 6.99989 5.45157 6.49723 5.54804 6.01227C5.6445 5.52732 5.8826 5.08186 6.23223 4.73223C6.58186 4.3826 7.02732 4.1445 7.51227 4.04804C7.99723 3.95157 8.49989 4.00108 8.95671 4.1903C9.41352 4.37952 9.80397 4.69995 10.0787 5.11107C10.3534 5.5222 10.5 6.00555 10.5 6.5C10.5 7.16304 10.2366 7.79893 9.76777 8.26777C9.29893 8.73661 8.66304 9 8 9ZM13.5 2.5V13.5C13.5 13.7652 13.3946 14.0196 13.2071 14.2071C13.0196 14.3946 12.7652 14.5 12.5 14.5H3.5C3.23478 14.5 2.98043 14.3946 2.79289 14.2071C2.60536 14.0196 2.5 13.7652 2.5 13.5V2.5C2.5 2.23478 2.60536 1.98043 2.79289 1.79289C2.98043 1.60536 3.23478 1.5 3.5 1.5H12.5C12.7652 1.5 13.0196 1.60536 13.2071 1.79289C13.3946 1.98043 13.5 2.23478 13.5 2.5ZM8.5 11V9.96375C9.37579 9.83734 10.1712 9.38389 10.7261 8.69467C11.2811 8.00545 11.5544 7.1316 11.491 6.249C11.4276 5.36641 11.0323 4.54057 10.3846 3.93769C9.7369 3.33481 8.88487 2.99965 8 2.99965C7.11513 2.99965 6.2631 3.33481 5.61539 3.93769C4.96767 4.54057 4.57235 5.36641 4.50899 6.249C4.44562 7.1316 4.71891 8.00545 5.27385 8.69467C5.8288 9.38389 6.62421 9.83734 7.5 9.96375V11H6C5.86739 11 5.74021 11.0527 5.64645 11.1464C5.55268 11.2402 5.5 11.3674 5.5 11.5C5.5 11.6326 5.55268 11.7598 5.64645 11.8536C5.74021 11.9473 5.86739 12 6 12H7.5V13C7.5 13.1326 7.55268 13.2598 7.64645 13.3536C7.74021 13.4473 7.86739 13.5 8 13.5C8.13261 13.5 8.25979 13.4473 8.35355 13.3536C8.44732 13.2598 8.5 13.1326 8.5 13V12H10C10.1326 12 10.2598 11.9473 10.3536 11.8536C10.4473 11.7598 10.5 11.6326 10.5 11.5C10.5 11.3674 10.4473 11.2402 10.3536 11.1464C10.2598 11.0527 10.1326 11 10 11H8.5Z" fill="black"/>
</g>
<defs>
<clipPath id="clip0_5_1174">
<rect width="16" height="16" fill="white"/>
</clipPath>
</defs>
</svg>
