<svg width="16" height="16" viewBox="0 0 16 16" fill="none" xmlns="http://www.w3.org/2000/svg">
<g clip-path="url(#clip0_5_678)">
<path d="M7.995 9.375C8.01959 9.68094 7.94974 9.98706 7.79487 10.252C7.64 10.517 7.40757 10.7281 7.12895 10.8569C6.85032 10.9856 6.53891 11.0258 6.23674 10.9719C5.93457 10.9181 5.65619 10.7729 5.43916 10.5558C5.22213 10.3388 5.0769 10.0604 5.02307 9.75826C4.96924 9.45609 5.0094 9.14468 5.13813 8.86605C5.26686 8.58743 5.47796 8.355 5.74295 8.20013C6.00794 8.04526 6.31406 7.97541 6.62 8C6.97515 8.02855 7.30854 8.18258 7.56048 8.43452C7.81242 8.68646 7.96645 9.01985 7.995 9.375ZM13.5 2.5V13.5C13.5 13.7652 13.3946 14.0196 13.2071 14.2071C13.0196 14.3946 12.7652 14.5 12.5 14.5H3.5C3.23478 14.5 2.98043 14.3946 2.79289 14.2071C2.60536 14.0196 2.5 13.7652 2.5 13.5V2.5C2.5 2.23478 2.60536 1.98043 2.79289 1.79289C2.98043 1.60536 3.23478 1.5 3.5 1.5H12.5C12.7652 1.5 13.0196 1.60536 13.2071 1.79289C13.3946 1.98043 13.5 2.23478 13.5 2.5ZM12 4.5C12 4.36739 11.9473 4.24021 11.8536 4.14645C11.7598 4.05268 11.6326 4 11.5 4H9.76688C9.63763 3.99794 9.51241 4.04498 9.41648 4.13163C9.32055 4.21828 9.26106 4.33808 9.25 4.46688C9.24546 4.53527 9.25503 4.60386 9.27811 4.6684C9.3012 4.73294 9.33731 4.79205 9.3842 4.84204C9.43109 4.89204 9.48776 4.93186 9.55069 4.95903C9.61361 4.98621 9.68146 5.00015 9.75 5H10.2931L9.25 6.04313L8.60375 5.39625C8.55639 5.34887 8.49998 5.31149 8.43789 5.28634C8.3758 5.26118 8.30929 5.24876 8.2423 5.24981C8.17532 5.25085 8.10923 5.26535 8.04796 5.29244C7.98668 5.31953 7.93148 5.35866 7.88562 5.4075C7.79743 5.50639 7.75085 5.63554 7.75563 5.76796C7.7604 5.90038 7.81616 6.02584 7.91125 6.11812L8.54313 6.75L7.875 7.415C7.35802 7.07392 6.73283 6.93688 6.12058 7.03045C5.50833 7.12401 4.95261 7.44151 4.56109 7.92142C4.16958 8.40134 3.97014 9.0095 4.00144 9.62807C4.03273 10.2466 4.29253 10.8316 4.73048 11.2695C5.16843 11.7075 5.75336 11.9673 6.37193 11.9986C6.9905 12.0299 7.59866 11.8304 8.07858 11.4389C8.55849 11.0474 8.87599 10.4917 8.96955 9.87942C9.06312 9.26716 8.92608 8.64198 8.585 8.125L9.25 7.45687L9.89625 8.10375C9.94486 8.15233 10.003 8.19037 10.0669 8.21549C10.1309 8.24061 10.1994 8.25227 10.268 8.24975C10.3367 8.24723 10.4041 8.23058 10.4661 8.20083C10.5281 8.17109 10.5832 8.12889 10.6281 8.07687C10.7101 7.97766 10.7518 7.85121 10.7449 7.72268C10.7379 7.59414 10.6829 7.47292 10.5906 7.38312L9.95687 6.75L11 5.70687V6.23313C10.9984 6.36212 11.0456 6.48695 11.1322 6.58257C11.2188 6.6782 11.3384 6.73756 11.4669 6.74875C11.5353 6.75329 11.6039 6.74372 11.6684 6.72064C11.7329 6.69755 11.792 6.66144 11.842 6.61455C11.892 6.56766 11.9319 6.51099 11.959 6.44806C11.9862 6.38514 12.0002 6.31729 12 6.24875V4.5Z" fill="black"/>
</g>
<defs>
<clipPath id="clip0_5_678">
<rect width="16" height="16" fill="white"/>
</clipPath>
</defs>
</svg>
