<svg width="16" height="16" viewBox="0 0 16 16" fill="none" xmlns="http://www.w3.org/2000/svg">
<g clip-path="url(#clip0_5_703)">
<path d="M8 1.5C6.40926 1.50182 4.88419 2.13455 3.75937 3.25937C2.63455 4.38419 2.00182 5.90926 2 7.5V13.5C1.99998 13.5947 2.02685 13.6874 2.07748 13.7674C2.1281 13.8475 2.20041 13.9115 2.28599 13.952C2.37156 13.9925 2.46689 14.0079 2.56087 13.9964C2.65485 13.9849 2.74363 13.9469 2.81687 13.8869L4.33313 12.6462L5.85 13.8869C5.93932 13.9599 6.05117 13.9999 6.16656 13.9999C6.28196 13.9999 6.3938 13.9599 6.48313 13.8869L8 12.6462L9.51688 13.8869C9.6062 13.9599 9.71804 13.9999 9.83344 13.9999C9.94883 13.9999 10.0607 13.9599 10.15 13.8869L11.6669 12.6462L13.1831 13.8869C13.2564 13.9469 13.3451 13.9849 13.4391 13.9964C13.5331 14.0079 13.6284 13.9925 13.714 13.952C13.7996 13.9115 13.8719 13.8475 13.9225 13.7674C13.9732 13.6874 14 13.5947 14 13.5V7.5C13.9982 5.90926 13.3655 4.38419 12.2406 3.25937C11.1158 2.13455 9.59074 1.50182 8 1.5ZM6.25 8C6.10166 8 5.95666 7.95601 5.83332 7.8736C5.70999 7.79119 5.61386 7.67406 5.55709 7.53701C5.50032 7.39997 5.48547 7.24917 5.51441 7.10368C5.54335 6.9582 5.61478 6.82456 5.71967 6.71967C5.82456 6.61478 5.9582 6.54335 6.10368 6.51441C6.24917 6.48547 6.39997 6.50032 6.53701 6.55709C6.67406 6.61386 6.79119 6.70999 6.8736 6.83332C6.95601 6.95666 7 7.10166 7 7.25C7 7.44891 6.92098 7.63968 6.78033 7.78033C6.63968 7.92098 6.44891 8 6.25 8ZM9.75 8C9.60166 8 9.45666 7.95601 9.33332 7.8736C9.20999 7.79119 9.11386 7.67406 9.05709 7.53701C9.00033 7.39997 8.98547 7.24917 9.01441 7.10368C9.04335 6.9582 9.11478 6.82456 9.21967 6.71967C9.32456 6.61478 9.4582 6.54335 9.60368 6.51441C9.74917 6.48547 9.89997 6.50032 10.037 6.55709C10.1741 6.61386 10.2912 6.70999 10.3736 6.83332C10.456 6.95666 10.5 7.10166 10.5 7.25C10.5 7.44891 10.421 7.63968 10.2803 7.78033C10.1397 7.92098 9.94891 8 9.75 8Z" fill="black"/>
</g>
<defs>
<clipPath id="clip0_5_703">
<rect width="16" height="16" fill="white"/>
</clipPath>
</defs>
</svg>
