<svg width="16" height="16" viewBox="0 0 16 16" fill="none" xmlns="http://www.w3.org/2000/svg">
<g clip-path="url(#clip0_5_700)">
<path d="M13.5 2.5H2.5C2.23478 2.5 1.98043 2.60536 1.79289 2.79289C1.60536 2.98043 1.5 3.23478 1.5 3.5V12.5C1.5 12.7652 1.60536 13.0196 1.79289 13.2071C1.98043 13.3946 2.23478 13.5 2.5 13.5H13.5C13.7652 13.5 14.0196 13.3946 14.2071 13.2071C14.3946 13.0196 14.5 12.7652 14.5 12.5V3.5C14.5 3.23478 14.3946 2.98043 14.2071 2.79289C14.0196 2.60536 13.7652 2.5 13.5 2.5ZM7 9C7 9.53043 6.78929 10.0391 6.41421 10.4142C6.03914 10.7893 5.53043 11 5 11C4.46957 11 3.96086 10.7893 3.58579 10.4142C3.21071 10.0391 3 9.53043 3 9V7C3.00006 6.59499 3.12309 6.19954 3.3528 5.86597C3.58251 5.5324 3.90808 5.27643 4.28644 5.13193C4.6648 4.98743 5.07811 4.9612 5.4717 5.05673C5.86528 5.15225 6.2206 5.36501 6.49062 5.66687C6.53694 5.71535 6.57304 5.77265 6.59676 5.83536C6.62049 5.89807 6.63135 5.96491 6.62872 6.03191C6.62609 6.09891 6.61001 6.16469 6.58144 6.22534C6.55287 6.286 6.51239 6.34029 6.46241 6.38498C6.41244 6.42968 6.35398 6.46387 6.29052 6.48551C6.22706 6.50716 6.1599 6.51582 6.09303 6.51098C6.02615 6.50614 5.96094 6.4879 5.90126 6.45735C5.84158 6.42679 5.78865 6.38455 5.74563 6.33313C5.61062 6.18206 5.43291 6.07557 5.23603 6.02774C5.03915 5.97992 4.83239 5.99303 4.64313 6.06534C4.45387 6.13764 4.29103 6.26573 4.17618 6.43263C4.06134 6.59954 3.9999 6.7974 4 7V9C4 9.26522 4.10536 9.51957 4.29289 9.70711C4.48043 9.89464 4.73478 10 5 10C5.26522 10 5.51957 9.89464 5.70711 9.70711C5.89464 9.51957 6 9.26522 6 9V8.5H5.5C5.36739 8.5 5.24021 8.44732 5.14645 8.35355C5.05268 8.25979 5 8.13261 5 8C5 7.86739 5.05268 7.74021 5.14645 7.64645C5.24021 7.55268 5.36739 7.5 5.5 7.5H6.5C6.63261 7.5 6.75979 7.55268 6.85355 7.64645C6.94732 7.74021 7 7.86739 7 8V9ZM9 10.5C9 10.6326 8.94732 10.7598 8.85355 10.8536C8.75979 10.9473 8.63261 11 8.5 11C8.36739 11 8.24021 10.9473 8.14645 10.8536C8.05268 10.7598 8 10.6326 8 10.5V5.5C8 5.36739 8.05268 5.24021 8.14645 5.14645C8.24021 5.05268 8.36739 5 8.5 5C8.63261 5 8.75979 5.05268 8.85355 5.14645C8.94732 5.24021 9 5.36739 9 5.5V10.5ZM12.75 6H11V7.5H12.25C12.3826 7.5 12.5098 7.55268 12.6036 7.64645C12.6973 7.74021 12.75 7.86739 12.75 8C12.75 8.13261 12.6973 8.25979 12.6036 8.35355C12.5098 8.44732 12.3826 8.5 12.25 8.5H11V10.5C11 10.6326 10.9473 10.7598 10.8536 10.8536C10.7598 10.9473 10.6326 11 10.5 11C10.3674 11 10.2402 10.9473 10.1464 10.8536C10.0527 10.7598 10 10.6326 10 10.5V5.5C10 5.36739 10.0527 5.24021 10.1464 5.14645C10.2402 5.05268 10.3674 5 10.5 5H12.75C12.8826 5 13.0098 5.05268 13.1036 5.14645C13.1973 5.24021 13.25 5.36739 13.25 5.5C13.25 5.63261 13.1973 5.75979 13.1036 5.85355C13.0098 5.94732 12.8826 6 12.75 6Z" fill="black"/>
</g>
<defs>
<clipPath id="clip0_5_700">
<rect width="16" height="16" fill="white"/>
</clipPath>
</defs>
</svg>
