<svg width="16" height="16" viewBox="0 0 16 16" fill="none" xmlns="http://www.w3.org/2000/svg">
<g clip-path="url(#clip0_5_753)">
<path d="M13.5 4.50002H11.3075C11.3319 4.47939 11.3569 4.45939 11.3806 4.43752C11.5704 4.26888 11.7234 4.06289 11.83 3.83243C11.9366 3.60196 11.9944 3.35199 12 3.09814C12.0082 2.82044 11.9596 2.54399 11.8571 2.28576C11.7546 2.02753 11.6004 1.79298 11.404 1.5965C11.2075 1.40002 10.973 1.24575 10.7148 1.14318C10.4566 1.04061 10.1802 0.991891 9.9025 1.00002C9.64855 1.00549 9.39845 1.06332 9.16788 1.1699C8.9373 1.27647 8.73121 1.4295 8.5625 1.61939C8.32905 1.88995 8.13927 2.19529 8 2.52439C7.86073 2.19529 7.67095 1.88995 7.4375 1.61939C7.26879 1.4295 7.0627 1.27647 6.83212 1.1699C6.60155 1.06332 6.35146 1.00549 6.0975 1.00002C5.81979 0.991891 5.54336 1.04061 5.28516 1.14318C5.02696 1.24575 4.79245 1.40002 4.59603 1.5965C4.39961 1.79298 4.24542 2.02753 4.14292 2.28576C4.04043 2.54399 3.99179 2.82044 4 3.09814C4.00556 3.35199 4.06343 3.60196 4.17 3.83243C4.27658 4.06289 4.42956 4.26888 4.61938 4.43752C4.64313 4.45814 4.66813 4.47814 4.6925 4.50002H2.5C2.23478 4.50002 1.98043 4.60538 1.79289 4.79291C1.60536 4.98045 1.5 5.2348 1.5 5.50002V7.50002C1.5 7.76523 1.60536 8.01959 1.79289 8.20712C1.98043 8.39466 2.23478 8.50002 2.5 8.50002V12.5C2.5 12.7652 2.60536 13.0196 2.79289 13.2071C2.98043 13.3947 3.23478 13.5 3.5 13.5H7.25C7.3163 13.5 7.37989 13.4737 7.42678 13.4268C7.47366 13.3799 7.5 13.3163 7.5 13.25V7.50002H2.5V5.50002H7.5V7.50002H8.5V5.50002H13.5V7.50002H8.5V13.25C8.5 13.3163 8.52634 13.3799 8.57322 13.4268C8.62011 13.4737 8.6837 13.5 8.75 13.5H12.5C12.7652 13.5 13.0196 13.3947 13.2071 13.2071C13.3946 13.0196 13.5 12.7652 13.5 12.5V8.50002C13.7652 8.50002 14.0196 8.39466 14.2071 8.20712C14.3946 8.01959 14.5 7.76523 14.5 7.50002V5.50002C14.5 5.2348 14.3946 4.98045 14.2071 4.79291C14.0196 4.60538 13.7652 4.50002 13.5 4.50002ZM5.28188 3.68752C5.19445 3.60835 5.12434 3.51196 5.07594 3.40441C5.02754 3.29685 5.0019 3.18045 5.00063 3.06252C4.99746 2.92433 5.02191 2.78691 5.07254 2.65829C5.12317 2.52967 5.19896 2.41245 5.29547 2.3135C5.39198 2.21455 5.50726 2.13585 5.63457 2.08202C5.76188 2.02819 5.89865 2.00031 6.03687 2.00002H6.0675C6.18544 2.00129 6.30184 2.02693 6.40939 2.07533C6.51695 2.12373 6.61333 2.19384 6.6925 2.28127C7.21688 2.87377 7.40188 3.85627 7.46688 4.46377C6.85687 4.39939 5.875 4.21439 5.28188 3.68752ZM10.7194 3.68752C10.1262 4.21252 9.14187 4.39752 8.53187 4.46252C8.60625 3.80564 8.8125 2.84377 9.3125 2.28189C9.39167 2.19447 9.48805 2.12436 9.59561 2.07596C9.70316 2.02756 9.81956 2.00191 9.9375 2.00064H9.96813C10.1064 2.00151 10.243 2.02995 10.3701 2.08431C10.4972 2.13867 10.6122 2.21785 10.7083 2.31722C10.8044 2.41658 10.8797 2.53412 10.9298 2.66296C10.9799 2.7918 11.0037 2.92934 11 3.06752C10.998 3.18465 10.9719 3.30012 10.9234 3.40677C10.8749 3.51342 10.8051 3.60898 10.7181 3.68752H10.7194Z" fill="black"/>
</g>
<defs>
<clipPath id="clip0_5_753">
<rect width="16" height="16" fill="white"/>
</clipPath>
</defs>
</svg>
