<svg width="16" height="16" viewBox="0 0 16 16" fill="none" xmlns="http://www.w3.org/2000/svg">
<g clip-path="url(#clip0_5_746)">
<path d="M6.5 4.00003C6.49982 3.62601 6.39475 3.25953 6.19674 2.94222C5.99872 2.62491 5.7157 2.36948 5.37981 2.20495C5.04392 2.04041 4.66862 1.97336 4.29654 2.01142C3.92445 2.04947 3.5705 2.19109 3.27486 2.42021C2.97923 2.64933 2.75376 2.95675 2.62408 3.30757C2.49439 3.65839 2.46568 4.03855 2.5412 4.40487C2.61672 4.77119 2.79345 5.109 3.05132 5.37992C3.30919 5.65084 3.63786 5.84402 4 5.93753V10.0625C3.52868 10.1842 3.11791 10.4736 2.8447 10.8765C2.5715 11.2794 2.45461 11.7681 2.51595 12.251C2.57728 12.7339 2.81264 13.1779 3.17789 13.4997C3.54314 13.8215 4.01322 13.999 4.5 13.999C4.98679 13.999 5.45687 13.8215 5.82212 13.4997C6.18737 13.1779 6.42273 12.7339 6.48406 12.251C6.5454 11.7681 6.42851 11.2794 6.15531 10.8765C5.8821 10.4736 5.47133 10.1842 5 10.0625V5.93753C5.42916 5.82606 5.80923 5.57539 6.08067 5.22478C6.35211 4.87417 6.49959 4.44343 6.5 4.00003ZM5.5 12C5.5 12.1978 5.44136 12.3912 5.33147 12.5556C5.22159 12.72 5.06541 12.8482 4.88269 12.9239C4.69996 12.9996 4.4989 13.0194 4.30491 12.9808C4.11093 12.9422 3.93275 12.847 3.7929 12.7071C3.65305 12.5673 3.5578 12.3891 3.51922 12.1951C3.48063 12.0011 3.50044 11.8001 3.57613 11.6173C3.65181 11.4346 3.77999 11.2784 3.94443 11.1686C4.10888 11.0587 4.30222 11 4.5 11C4.76522 11 5.01957 11.1054 5.20711 11.2929C5.39465 11.4805 5.5 11.7348 5.5 12ZM14.5 12C14.4998 12.3741 14.3947 12.7405 14.1967 13.0578C13.9987 13.3752 13.7157 13.6306 13.3798 13.7951C13.0439 13.9596 12.6686 14.0267 12.2965 13.9886C11.9245 13.9506 11.5705 13.809 11.2749 13.5799C10.9792 13.3507 10.7538 13.0433 10.6241 12.6925C10.4944 12.3417 10.4657 11.9615 10.5412 11.5952C10.6167 11.2289 10.7935 10.8911 11.0513 10.6201C11.3092 10.3492 11.6379 10.156 12 10.0625V6.9144C12.0001 6.84872 11.9872 6.78368 11.9621 6.72298C11.937 6.66228 11.9002 6.60712 11.8538 6.56066L9.5 4.20691V6.00003C9.5 6.13264 9.44733 6.25982 9.35356 6.35358C9.25979 6.44735 9.13261 6.50003 9 6.50003C8.8674 6.50003 8.74022 6.44735 8.64645 6.35358C8.55268 6.25982 8.5 6.13264 8.5 6.00003V3.00003C8.5 2.86742 8.55268 2.74025 8.64645 2.64648C8.74022 2.55271 8.8674 2.50003 9 2.50003H12C12.1326 2.50003 12.2598 2.55271 12.3536 2.64648C12.4473 2.74025 12.5 2.86742 12.5 3.00003C12.5 3.13264 12.4473 3.25982 12.3536 3.35358C12.2598 3.44735 12.1326 3.50003 12 3.50003H10.2069L12.5625 5.85378C12.7021 5.99313 12.8126 6.1588 12.8877 6.34118C12.9628 6.52357 13.001 6.71904 13 6.91628V10.0625C13.4292 10.174 13.8092 10.4247 14.0807 10.7753C14.3521 11.1259 14.4996 11.5566 14.5 12Z" fill="black"/>
</g>
<defs>
<clipPath id="clip0_5_746">
<rect width="16" height="16" fill="white"/>
</clipPath>
</defs>
</svg>
