<svg width="16" height="16" viewBox="0 0 16 16" fill="none" xmlns="http://www.w3.org/2000/svg">
<g clip-path="url(#clip0_5_751)">
<path d="M14.5 4.00003C14.4998 3.62601 14.3947 3.25953 14.1967 2.94222C13.9987 2.62491 13.7157 2.36948 13.3798 2.20495C13.0439 2.04041 12.6686 1.97336 12.2965 2.01142C11.9245 2.04947 11.5705 2.19109 11.2749 2.42021C10.9792 2.64933 10.7538 2.95675 10.6241 3.30757C10.4944 3.65839 10.4657 4.03855 10.5412 4.40487C10.6167 4.77119 10.7935 5.109 11.0513 5.37992C11.3092 5.65084 11.6379 5.84402 12 5.93753V7.00003C12 7.13264 11.9473 7.25982 11.8536 7.35358C11.7598 7.44735 11.6326 7.50003 11.5 7.50003H6C5.82963 7.49998 5.66051 7.52916 5.5 7.58628V5.93753C5.97133 5.81583 6.3821 5.52642 6.65531 5.12353C6.92851 4.72064 7.0454 4.23194 6.98406 3.74903C6.92273 3.26612 6.68737 2.82216 6.32212 2.50037C5.95687 2.17857 5.48679 2.00104 5 2.00104C4.51322 2.00104 4.04314 2.17857 3.67789 2.50037C3.31264 2.82216 3.07728 3.26612 3.01595 3.74903C2.95461 4.23194 3.0715 4.72064 3.3447 5.12353C3.61791 5.52642 4.02868 5.81583 4.5 5.93753V10.0625C4.02868 10.1842 3.61791 10.4736 3.3447 10.8765C3.0715 11.2794 2.95461 11.7681 3.01595 12.251C3.07728 12.7339 3.31264 13.1779 3.67789 13.4997C4.04314 13.8215 4.51322 13.999 5 13.999C5.48679 13.999 5.95687 13.8215 6.32212 13.4997C6.68737 13.1779 6.92273 12.7339 6.98406 12.251C7.0454 11.7681 6.92851 11.2794 6.65531 10.8765C6.3821 10.4736 5.97133 10.1842 5.5 10.0625V9.00003C5.5 8.86742 5.55268 8.74024 5.64645 8.64648C5.74022 8.55271 5.8674 8.50003 6 8.50003H11.5C11.8978 8.50003 12.2794 8.34199 12.5607 8.06069C12.842 7.77939 13 7.39785 13 7.00003V5.93753C13.4292 5.82606 13.8092 5.57539 14.0807 5.22478C14.3521 4.87417 14.4996 4.44343 14.5 4.00003ZM4 4.00003C4 3.80225 4.05865 3.60891 4.16854 3.44446C4.27842 3.28001 4.4346 3.15184 4.61732 3.07615C4.80005 3.00046 5.00111 2.98066 5.1951 3.01924C5.38908 3.05783 5.56726 3.15307 5.70711 3.29292C5.84696 3.43278 5.9422 3.61096 5.98079 3.80494C6.01938 3.99892 5.99957 4.19999 5.92388 4.38271C5.8482 4.56544 5.72002 4.72162 5.55557 4.8315C5.39113 4.94138 5.19779 5.00003 5 5.00003C4.73479 5.00003 4.48043 4.89467 4.2929 4.70714C4.10536 4.5196 4 4.26525 4 4.00003ZM6 12C6 12.1978 5.94136 12.3912 5.83147 12.5556C5.72159 12.72 5.56541 12.8482 5.38269 12.9239C5.19996 12.9996 4.9989 13.0194 4.80491 12.9808C4.61093 12.9422 4.43275 12.847 4.2929 12.7071C4.15305 12.5673 4.0578 12.3891 4.01922 12.1951C3.98063 12.0011 4.00044 11.8001 4.07613 11.6173C4.15181 11.4346 4.27999 11.2784 4.44443 11.1686C4.60888 11.0587 4.80222 11 5 11C5.26522 11 5.51957 11.1054 5.70711 11.2929C5.89465 11.4805 6 11.7348 6 12Z" fill="black"/>
</g>
<defs>
<clipPath id="clip0_5_751">
<rect width="16" height="16" fill="white"/>
</clipPath>
</defs>
</svg>
