<svg width="16" height="16" viewBox="0 0 16 16" fill="none" xmlns="http://www.w3.org/2000/svg">
<g clip-path="url(#clip0_5_693)">
<path d="M7.38625 13.3175C7.37938 13.3263 7.37125 13.3344 7.36375 13.3425L7.35375 13.3538L7.34313 13.3632C7.33483 13.3714 7.32607 13.3791 7.31688 13.3863C7.31049 13.3918 7.30381 13.397 7.29688 13.4019L7.27813 13.4157L7.25438 13.43C7.24835 13.4339 7.24208 13.4375 7.23563 13.4407L7.2125 13.4525L7.19125 13.4619L7.16875 13.47C7.16104 13.4733 7.1531 13.476 7.145 13.4782L7.1225 13.4844C7.11375 13.4844 7.10625 13.4888 7.0975 13.49L7.07125 13.4944L7.04938 13.4975C7.03293 13.4985 7.01645 13.4985 7 13.4975H4C3.8674 13.4975 3.74022 13.4449 3.64645 13.3511C3.55268 13.2573 3.5 13.1301 3.5 12.9975C3.5 12.8649 3.55268 12.7377 3.64645 12.644C3.74022 12.5502 3.8674 12.4975 4 12.4975H5.79313L3.4375 10.1463C3.29791 10.0069 3.18736 9.84126 3.11226 9.65888C3.03716 9.47649 2.99901 9.28102 3 9.08378V5.93753C2.52868 5.81583 2.11791 5.52641 1.8447 5.12353C1.5715 4.72064 1.45461 4.23194 1.51595 3.74903C1.57728 3.26612 1.81264 2.82216 2.17789 2.50037C2.54314 2.17857 3.01322 2.00104 3.5 2.00104C3.98679 2.00104 4.45687 2.17857 4.82212 2.50037C5.18737 2.82216 5.42273 3.26612 5.48406 3.74903C5.5454 4.23194 5.42851 4.72064 5.15531 5.12353C4.8821 5.52641 4.47133 5.81583 4 5.93753V9.08628C4.00056 9.21806 4.05312 9.34429 4.14625 9.43753L6.5 11.7932V10C6.5 9.86742 6.55268 9.74024 6.64645 9.64648C6.74022 9.55271 6.8674 9.50003 7 9.50003C7.13261 9.50003 7.25979 9.55271 7.35356 9.64648C7.44733 9.74024 7.5 9.86742 7.5 10V13C7.50096 13.0167 7.50096 13.0334 7.5 13.05C7.5 13.0569 7.5 13.0632 7.5 13.07C7.5 13.0769 7.5 13.0888 7.49563 13.0988C7.49428 13.1066 7.4924 13.1143 7.49 13.1219C7.49 13.13 7.48625 13.1382 7.48375 13.1463C7.48125 13.1544 7.47875 13.1607 7.47625 13.1682L7.4675 13.1925L7.45813 13.2119C7.45438 13.22 7.45063 13.2288 7.44625 13.2369C7.44188 13.245 7.43938 13.2482 7.43625 13.2544L7.42125 13.2788L7.40813 13.2963L7.38625 13.3175ZM13 10.0625V6.9144C13.001 6.71716 12.9628 6.52169 12.8877 6.3393C12.8126 6.15692 12.7021 5.99125 12.5625 5.8519L10.2069 3.50003H12C12.1326 3.50003 12.2598 3.44735 12.3536 3.35358C12.4473 3.25981 12.5 3.13264 12.5 3.00003C12.5 2.86742 12.4473 2.74024 12.3536 2.64648C12.2598 2.55271 12.1326 2.50003 12 2.50003H8.98876H8.95125C8.9425 2.50003 8.93375 2.50003 8.92563 2.50378H8.9025L8.87563 2.51065L8.855 2.51565L8.83 2.5244L8.80875 2.53253L8.78688 2.54253L8.76438 2.55378C8.75771 2.55716 8.75124 2.56091 8.745 2.56503C8.7375 2.5694 8.72938 2.57378 8.7225 2.57878C8.71579 2.58322 8.70932 2.58801 8.70313 2.59315C8.69621 2.5978 8.68953 2.60281 8.68313 2.60815C8.67375 2.61565 8.66563 2.62315 8.65688 2.63128L8.64625 2.64065L8.63625 2.6519C8.62875 2.66003 8.62063 2.66815 8.61376 2.6769L8.5975 2.69878L8.58438 2.71628L8.56938 2.74065C8.56625 2.7469 8.5625 2.75253 8.55938 2.75815C8.55625 2.76378 8.55125 2.77503 8.5475 2.78315L8.53813 2.80253L8.52938 2.8269C8.52938 2.8344 8.52376 2.84128 8.52188 2.84878C8.52001 2.85628 8.5175 2.86503 8.51563 2.87315C8.51324 2.88073 8.51136 2.88845 8.51 2.89628C8.51 2.90628 8.51 2.91565 8.50563 2.92503C8.50125 2.9344 8.50563 2.93815 8.5025 2.94503C8.50155 2.96168 8.50155 2.97838 8.5025 2.99503V6.00003C8.5025 6.13264 8.55518 6.25981 8.64895 6.35358C8.74272 6.44735 8.8699 6.50003 9.0025 6.50003C9.13511 6.50003 9.26229 6.44735 9.35606 6.35358C9.44983 6.25981 9.5025 6.13264 9.5025 6.00003V4.2069L11.8538 6.56253C11.9002 6.609 11.937 6.66416 11.9621 6.72485C11.9872 6.78555 12.0001 6.8506 12 6.91628V10.0625C11.5287 10.1842 11.1179 10.4736 10.8447 10.8765C10.5715 11.2794 10.4546 11.7681 10.5159 12.251C10.5773 12.7339 10.8126 13.1779 11.1779 13.4997C11.5431 13.8215 12.0132 13.999 12.5 13.999C12.9868 13.999 13.4569 13.8215 13.8221 13.4997C14.1874 13.1779 14.4227 12.7339 14.4841 12.251C14.5454 11.7681 14.4285 11.2794 14.1553 10.8765C13.8821 10.4736 13.4713 10.1842 13 10.0625Z" fill="black"/>
</g>
<defs>
<clipPath id="clip0_5_693">
<rect width="16" height="16" fill="white"/>
</clipPath>
</defs>
</svg>
