<svg width="16" height="16" viewBox="0 0 16 16" fill="none" xmlns="http://www.w3.org/2000/svg">
<g clip-path="url(#clip0_5_747)">
<path d="M13 7.00001C12.568 7.00076 12.1478 7.14114 11.8022 7.40019C11.4565 7.65925 11.2038 8.02312 11.0818 8.43751L8.44372 8.06251C8.32344 8.04551 8.21347 7.9853 8.13434 7.89314L5.90184 5.28439C6.31953 5.07269 6.6497 4.72114 6.8348 4.291C7.0199 3.86086 7.0482 3.37941 6.91477 2.93055C6.78134 2.48168 6.49464 2.09387 6.10463 1.83469C5.71461 1.57552 5.24602 1.46141 4.78052 1.51226C4.31501 1.5631 3.8821 1.77568 3.55724 2.11294C3.23238 2.4502 3.03616 2.89076 3.00277 3.35785C2.96939 3.82493 3.10096 4.28892 3.37455 4.66896C3.64815 5.04899 4.04642 5.32098 4.49997 5.43751V10.5625C4.02864 10.6842 3.61787 10.9736 3.34467 11.3765C3.07146 11.7794 2.95457 12.2681 3.01591 12.751C3.07725 13.2339 3.3126 13.6779 3.67785 13.9997C4.0431 14.3215 4.51318 14.499 4.99997 14.499C5.48675 14.499 5.95683 14.3215 6.32208 13.9997C6.68734 13.6779 6.92269 13.2339 6.98403 12.751C7.04536 12.2681 6.92847 11.7794 6.65527 11.3765C6.38206 10.9736 5.9713 10.6842 5.49997 10.5625V6.35189L7.37497 8.53939C7.61194 8.81585 7.94138 8.99667 8.30184 9.04814L11.0518 9.44064C11.1349 9.80816 11.32 10.1448 11.5859 10.4117C11.8519 10.6786 12.1878 10.8649 12.555 10.9493C12.9222 11.0336 13.3058 11.0125 13.6616 10.8884C14.0173 10.7642 14.3308 10.5422 14.5658 10.2477C14.8009 9.95322 14.9479 9.59834 14.9901 9.22393C15.0323 8.84952 14.9679 8.47081 14.8042 8.13141C14.6406 7.79202 14.3844 7.50576 14.0652 7.30559C13.746 7.10542 13.3767 6.9995 13 7.00001ZM5.99997 12.5C5.99997 12.6978 5.94132 12.8911 5.83144 13.0556C5.72156 13.22 5.56538 13.3482 5.38265 13.4239C5.19992 13.4996 4.99886 13.5194 4.80488 13.4808C4.6109 13.4422 4.43271 13.347 4.29286 13.2071C4.15301 13.0673 4.05777 12.8891 4.01918 12.6951C3.9806 12.5011 4.0004 12.3001 4.07609 12.1173C4.15178 11.9346 4.27995 11.7784 4.4444 11.6685C4.60885 11.5587 4.80219 11.5 4.99997 11.5C5.26518 11.5 5.51954 11.6054 5.70707 11.7929C5.89461 11.9804 5.99997 12.2348 5.99997 12.5ZM13 10C12.8022 10 12.6088 9.94136 12.4444 9.83148C12.2799 9.7216 12.1518 9.56542 12.0761 9.38269C12.0004 9.19997 11.9806 8.9989 12.0192 8.80492C12.0578 8.61094 12.153 8.43276 12.2929 8.2929C12.4327 8.15305 12.6109 8.05781 12.8049 8.01923C12.9989 7.98064 13.1999 8.00044 13.3827 8.07613C13.5654 8.15182 13.7216 8.27999 13.8314 8.44444C13.9413 8.60889 14 8.80223 14 9.00001C14 9.26523 13.8946 9.51958 13.7071 9.70712C13.5195 9.89465 13.2652 10 13 10Z" fill="black"/>
</g>
<defs>
<clipPath id="clip0_5_747">
<rect width="16" height="16" fill="white"/>
</clipPath>
</defs>
</svg>
