<svg width="16" height="16" viewBox="0 0 16 16" fill="none" xmlns="http://www.w3.org/2000/svg">
<g clip-path="url(#clip0_5_696)">
<path d="M16 8.00001C16 8.13262 15.9473 8.2598 15.8536 8.35357C15.7598 8.44733 15.6326 8.50001 15.5 8.50001H11.4637C11.343 9.33251 10.9264 10.0937 10.2904 10.6441C9.65427 11.1946 8.84121 11.4976 8 11.4976C7.15879 11.4976 6.34573 11.1946 5.70964 10.6441C5.07355 10.0937 4.65701 9.33251 4.53625 8.50001H0.5C0.367392 8.50001 0.240215 8.44733 0.146447 8.35357C0.0526784 8.2598 0 8.13262 0 8.00001C0 7.8674 0.0526784 7.74023 0.146447 7.64646C0.240215 7.55269 0.367392 7.50001 0.5 7.50001H4.53625C4.65701 6.66752 5.07355 5.90636 5.70964 5.35589C6.34573 4.80541 7.15879 4.50244 8 4.50244C8.84121 4.50244 9.65427 4.80541 10.2904 5.35589C10.9264 5.90636 11.343 6.66752 11.4637 7.50001H15.5C15.6326 7.50001 15.7598 7.55269 15.8536 7.64646C15.9473 7.74023 16 7.8674 16 8.00001Z" fill="black"/>
</g>
<defs>
<clipPath id="clip0_5_696">
<rect width="16" height="16" fill="white"/>
</clipPath>
</defs>
</svg>
