<svg width="16" height="16" viewBox="0 0 16 16" fill="none" xmlns="http://www.w3.org/2000/svg">
<g clip-path="url(#clip0_5_749)">
<path d="M14 4.00003C13.9998 3.62601 13.8947 3.25953 13.6967 2.94222C13.4987 2.62491 13.2157 2.36948 12.8798 2.20495C12.5439 2.04041 12.1686 1.97336 11.7965 2.01142C11.4245 2.04947 11.0705 2.19109 10.7749 2.42021C10.4792 2.64933 10.2538 2.95675 10.1241 3.30757C9.99439 3.65839 9.96568 4.03855 10.0412 4.40487C10.1167 4.77119 10.2935 5.109 10.5513 5.37992C10.8092 5.65084 11.1379 5.84402 11.5 5.93753V7.00003C11.5 7.13264 11.4473 7.25982 11.3536 7.35358C11.2598 7.44735 11.1326 7.50003 11 7.50003H5C4.8674 7.50003 4.74022 7.44735 4.64645 7.35358C4.55268 7.25982 4.5 7.13264 4.5 7.00003V5.93753C4.97133 5.81583 5.3821 5.52642 5.65531 5.12353C5.92851 4.72064 6.0454 4.23194 5.98406 3.74903C5.92273 3.26612 5.68737 2.82216 5.32212 2.50037C4.95687 2.17857 4.48679 2.00104 4 2.00104C3.51322 2.00104 3.04314 2.17857 2.67789 2.50037C2.31264 2.82216 2.07728 3.26612 2.01595 3.74903C1.95461 4.23194 2.0715 4.72064 2.3447 5.12353C2.61791 5.52642 3.02868 5.81583 3.5 5.93753V7.00003C3.5 7.39785 3.65804 7.77939 3.93934 8.06069C4.22065 8.34199 4.60218 8.50003 5 8.50003H7.5V10.0625C7.02868 10.1842 6.61791 10.4736 6.3447 10.8765C6.0715 11.2794 5.95461 11.7681 6.01595 12.251C6.07728 12.7339 6.31264 13.1779 6.67789 13.4997C7.04314 13.8215 7.51322 13.999 8 13.999C8.48679 13.999 8.95687 13.8215 9.32212 13.4997C9.68737 13.1779 9.92273 12.7339 9.98406 12.251C10.0454 11.7681 9.92851 11.2794 9.65531 10.8765C9.3821 10.4736 8.97133 10.1842 8.5 10.0625V8.50003H11C11.3978 8.50003 11.7794 8.34199 12.0607 8.06069C12.342 7.77939 12.5 7.39785 12.5 7.00003V5.93753C12.9292 5.82606 13.3092 5.57539 13.5807 5.22478C13.8521 4.87417 13.9996 4.44343 14 4.00003ZM9 12C9 12.1978 8.94136 12.3912 8.83147 12.5556C8.72159 12.72 8.56541 12.8482 8.38269 12.9239C8.19996 12.9996 7.9989 13.0194 7.80491 12.9808C7.61093 12.9422 7.43275 12.847 7.2929 12.7071C7.15305 12.5673 7.0578 12.3891 7.01922 12.1951C6.98063 12.0011 7.00044 11.8001 7.07613 11.6173C7.15181 11.4346 7.27999 11.2784 7.44443 11.1686C7.60888 11.0587 7.80222 11 8 11C8.26522 11 8.51958 11.1054 8.70711 11.2929C8.89465 11.4805 9 11.7348 9 12Z" fill="black"/>
</g>
<defs>
<clipPath id="clip0_5_749">
<rect width="16" height="16" fill="white"/>
</clipPath>
</defs>
</svg>
