<svg width="16" height="16" viewBox="0 0 16 16" fill="none" xmlns="http://www.w3.org/2000/svg">
<g clip-path="url(#clip0_5_744)">
<path d="M13.5 6.50001V7.00001C13.4989 7.84601 13.1918 8.66306 12.6354 9.30029C12.0789 9.93752 11.3107 10.3519 10.4725 10.4669C10.8146 10.9047 11.0003 11.4444 11 12V14.5C11 14.6326 10.9473 14.7598 10.8536 14.8536C10.7598 14.9473 10.6326 15 10.5 15H6.5C6.36739 15 6.24021 14.9473 6.14645 14.8536C6.05268 14.7598 6 14.6326 6 14.5V13.5H4.5C3.83696 13.5 3.20107 13.2366 2.73223 12.7678C2.26339 12.2989 2 11.663 2 11C2 10.6022 1.84196 10.2207 1.56066 9.93935C1.27936 9.65804 0.897825 9.50001 0.5 9.50001C0.367392 9.50001 0.240215 9.44733 0.146447 9.35356C0.0526784 9.25979 0 9.13262 0 9.00001C0 8.8674 0.0526784 8.74022 0.146447 8.64645C0.240215 8.55269 0.367392 8.50001 0.5 8.50001C0.828305 8.50001 1.15339 8.56467 1.45671 8.69031C1.76002 8.81595 2.03562 9.00009 2.26777 9.23224C2.49991 9.46439 2.68406 9.73999 2.8097 10.0433C2.93534 10.3466 3 10.6717 3 11C3 11.3978 3.15804 11.7794 3.43934 12.0607C3.72064 12.342 4.10218 12.5 4.5 12.5H6V12C5.99968 11.4444 6.18538 10.9047 6.5275 10.4669C5.68935 10.3519 4.92111 9.93752 4.36464 9.30029C3.80817 8.66306 3.50105 7.84601 3.5 7.00001V6.50001C3.50623 5.87862 3.6717 5.26921 3.98062 4.73001C3.8278 4.23701 3.77877 3.71768 3.83664 3.20479C3.89452 2.6919 4.05803 2.19656 4.31687 1.75001C4.36077 1.67398 4.4239 1.61085 4.49994 1.56697C4.57597 1.52308 4.66221 1.49999 4.75 1.50001C5.33238 1.49879 5.90698 1.6338 6.42788 1.89425C6.94878 2.1547 7.40155 2.53337 7.75 3.00001H9.25C9.59845 2.53337 10.0512 2.1547 10.5721 1.89425C11.093 1.6338 11.6676 1.49879 12.25 1.50001C12.3378 1.49999 12.424 1.52308 12.5001 1.56697C12.5761 1.61085 12.6392 1.67398 12.6831 1.75001C12.942 2.19655 13.1055 2.69192 13.1633 3.20483C13.221 3.71775 13.1718 4.23707 13.0188 4.73001C13.3283 5.269 13.494 5.87851 13.5 6.50001Z" fill="black"/>
</g>
<defs>
<clipPath id="clip0_5_744">
<rect width="16" height="16" fill="white"/>
</clipPath>
</defs>
</svg>
