<svg width="16" height="16" viewBox="0 0 16 16" fill="none" xmlns="http://www.w3.org/2000/svg">
<g clip-path="url(#clip0_5_741)">
<path d="M13.0087 11.1287L8.42934 14.3637C8.30373 14.4524 8.15374 14.5001 7.99997 14.5001C7.8462 14.5001 7.6962 14.4524 7.57059 14.3637L2.99122 11.1287C2.40303 10.7072 1.95666 10.117 1.71114 9.43621C1.46562 8.75546 1.43252 8.01622 1.61622 7.31624L2.85934 2.56249C2.89892 2.40802 2.98694 2.27029 3.1105 2.16949C3.23406 2.06868 3.38666 2.01011 3.54594 2.00235C3.70521 1.99459 3.86278 2.03806 3.99555 2.12638C4.12832 2.2147 4.22931 2.34322 4.28372 2.49312L5.38872 5.49999H10.6112L11.7162 2.49187C11.7707 2.342 11.8718 2.21353 12.0047 2.12531C12.1376 2.03709 12.2952 1.99375 12.4545 2.00165C12.6137 2.00955 12.7663 2.06827 12.8898 2.1692C13.0133 2.27013 13.1012 2.40796 13.1406 2.56249L14.3843 7.31999C14.5671 8.01949 14.5335 8.75798 14.2879 9.43797C14.0423 10.118 13.5963 10.7075 13.0087 11.1287Z" fill="black"/>
</g>
<defs>
<clipPath id="clip0_5_741">
<rect width="16" height="16" fill="white"/>
</clipPath>
</defs>
</svg>
