<svg width="16" height="16" viewBox="0 0 16 16" fill="none" xmlns="http://www.w3.org/2000/svg">
<g clip-path="url(#clip0_5_742)">
<path d="M14.3844 7.31874L13.1406 2.56249C13.101 2.40802 13.013 2.27029 12.8894 2.16949C12.7659 2.06868 12.6133 2.01011 12.454 2.00235C12.2947 1.99459 12.1372 2.03806 12.0044 2.12638C11.8716 2.2147 11.7706 2.34322 11.7162 2.49312L10.6112 5.49999H5.38873L4.28373 2.49187C4.22921 2.342 4.12811 2.21353 3.99525 2.12531C3.8624 2.03709 3.70477 1.99375 3.54549 2.00165C3.3862 2.00955 3.23363 2.06827 3.11016 2.1692C2.98668 2.27013 2.89878 2.40796 2.85936 2.56249L1.61561 7.31874C1.43191 8.01872 1.46501 8.75796 1.71053 9.43871C1.95605 10.1195 2.40242 10.7097 2.99061 11.1312L7.56998 14.3662C7.69559 14.4549 7.84559 14.5026 7.99936 14.5026C8.15313 14.5026 8.30312 14.4549 8.42873 14.3662L13.0081 11.1312C13.5965 10.7098 14.0431 10.1197 14.2889 9.43893C14.5346 8.75817 14.5679 8.01884 14.3844 7.31874ZM2.54248 7.75624L7.13311 11L5.83811 11.9156L3.56811 10.3125C3.17198 10.028 2.86512 9.63652 2.68348 9.1839C2.50183 8.73129 2.45292 8.23628 2.54248 7.75687V7.75624ZM7.99998 13.4437L6.70436 12.5281L7.99998 11.6125L9.29561 12.5275L7.99998 13.4437ZM12.4319 10.3125L10.1619 11.9162L8.86686 11L13.4575 7.75624C13.5472 8.23575 13.4983 8.73089 13.3167 9.18362C13.135 9.63636 12.8281 10.028 12.4319 10.3125Z" fill="black"/>
</g>
<defs>
<clipPath id="clip0_5_742">
<rect width="16" height="16" fill="white"/>
</clipPath>
</defs>
</svg>
