<svg width="16" height="16" viewBox="0 0 16 16" fill="none" xmlns="http://www.w3.org/2000/svg">
<g clip-path="url(#clip0_5_732)">
<path d="M3.4999 6.5C3.4999 5.51109 3.79314 4.54439 4.34255 3.72215C4.89196 2.8999 5.67285 2.25904 6.58648 1.8806C7.50011 1.50216 8.50545 1.40315 9.47535 1.59607C10.4453 1.789 11.3362 2.2652 12.0354 2.96446C12.7347 3.66373 13.2109 4.55464 13.4038 5.52455C13.5968 6.49445 13.4977 7.49978 13.1193 8.41341C12.7409 9.32704 12.1 10.1079 11.2778 10.6573C10.4555 11.2068 9.48881 11.5 8.4999 11.5C7.17427 11.4985 5.90337 10.9712 4.96601 10.0339C4.02865 9.09653 3.50139 7.82562 3.4999 6.5ZM12.6536 10.83C11.5215 11.9199 10.0069 12.5222 8.43538 12.5073C6.86389 12.4923 5.36099 11.8614 4.24973 10.7502C3.13848 9.6389 2.50757 8.136 2.49265 6.56452C2.47772 4.99303 3.07995 3.47842 4.1699 2.34625C4.21657 2.29913 4.2534 2.2432 4.27824 2.18172C4.30309 2.12023 4.31546 2.05442 4.31462 1.98811C4.31379 1.9218 4.29978 1.85632 4.2734 1.79547C4.24701 1.73463 4.20879 1.67965 4.16096 1.63372C4.11312 1.58779 4.05662 1.55183 3.99476 1.52795C3.9329 1.50406 3.8669 1.49272 3.80061 1.49458C3.73432 1.49645 3.66906 1.51148 3.60864 1.5388C3.54821 1.56613 3.49383 1.6052 3.44865 1.65375C2.52824 2.61316 1.90009 3.81485 1.63769 5.11822C1.37529 6.42159 1.4895 7.77273 1.96695 9.01356C2.4444 10.2544 3.26534 11.3336 4.33374 12.1249C5.40213 12.9162 6.67378 13.3869 7.9999 13.4819V14.5H6.4999C6.36729 14.5 6.24011 14.5527 6.14635 14.6464C6.05258 14.7402 5.9999 14.8674 5.9999 15C5.9999 15.1326 6.05258 15.2598 6.14635 15.3536C6.24011 15.4473 6.36729 15.5 6.4999 15.5H10.4999C10.6325 15.5 10.7597 15.4473 10.8535 15.3536C10.9472 15.2598 10.9999 15.1326 10.9999 15C10.9999 14.8674 10.9472 14.7402 10.8535 14.6464C10.7597 14.5527 10.6325 14.5 10.4999 14.5H8.9999V13.4825C10.6307 13.3699 12.1696 12.686 13.3461 11.5512C13.3947 11.5061 13.4338 11.4517 13.4611 11.3913C13.4884 11.3308 13.5034 11.2656 13.5053 11.1993C13.5072 11.133 13.4958 11.067 13.472 11.0051C13.4481 10.9433 13.4121 10.8868 13.3662 10.8389C13.3203 10.7911 13.2653 10.7529 13.2044 10.7265C13.1436 10.7001 13.0781 10.6861 13.0118 10.6853C12.9455 10.6844 12.8797 10.6968 12.8182 10.7217C12.7567 10.7465 12.7008 10.7833 12.6536 10.83Z" fill="black"/>
</g>
<defs>
<clipPath id="clip0_5_732">
<rect width="16" height="16" fill="white"/>
</clipPath>
</defs>
</svg>
