<svg width="16" height="16" viewBox="0 0 16 16" fill="none" xmlns="http://www.w3.org/2000/svg">
<g clip-path="url(#clip0_5_730)">
<path d="M8 1.5C6.27609 1.5 4.62279 2.18482 3.40381 3.40381C2.18482 4.62279 1.5 6.27609 1.5 8C1.5 9.72391 2.18482 11.3772 3.40381 12.5962C4.62279 13.8152 6.27609 14.5 8 14.5C8.10306 14.4994 8.20343 14.4671 8.28738 14.4073C8.37133 14.3475 8.43474 14.2632 8.46895 14.166C8.50316 14.0687 8.50649 13.9633 8.47848 13.8641C8.45048 13.765 8.3925 13.6768 8.3125 13.6119C8.2425 13.555 7.0075 12.5294 6.37125 10.5013H7.99625C8.12886 10.5013 8.25603 10.4486 8.3498 10.3548C8.44357 10.261 8.49625 10.1339 8.49625 10.0013C8.49625 9.86864 8.44357 9.74146 8.3498 9.6477C8.25603 9.55393 8.12886 9.50125 7.99625 9.50125H6.13C5.95751 8.50869 5.95751 7.49381 6.13 6.50125H9.8725C9.95856 6.99617 10.0012 7.49766 10 8C10 8.13261 10.0527 8.25979 10.1464 8.35355C10.2402 8.44732 10.3674 8.5 10.5 8.5C10.6326 8.5 10.7598 8.44732 10.8536 8.35355C10.9473 8.25979 11 8.13261 11 8C11.0007 7.49777 10.9622 6.99625 10.885 6.5H13.2919C13.4304 6.98795 13.5004 7.49277 13.5 8C13.5 8.13261 13.5527 8.25979 13.6464 8.35355C13.7402 8.44732 13.8674 8.5 14 8.5C14.1326 8.5 14.2598 8.44732 14.3536 8.35355C14.4473 8.25979 14.5 8.13261 14.5 8C14.4982 6.27665 13.8128 4.62441 12.5942 3.40582C11.3756 2.18722 9.72335 1.50182 8 1.5ZM6.375 5.5C6.69518 4.45088 7.25101 3.48886 8 2.6875C8.7487 3.48908 9.30449 4.45102 9.625 5.5H6.375ZM10.6719 5.5C10.3913 4.47057 9.91838 3.50355 9.27812 2.65C10.0521 2.8355 10.7769 3.18626 11.4026 3.6782C12.0283 4.17014 12.5402 4.79162 12.9031 5.5H10.6719ZM13.8562 10.8538L12.7069 12L13.8538 13.1462C13.9002 13.1927 13.9371 13.2479 13.9622 13.3086C13.9873 13.3692 14.0003 13.4343 14.0003 13.5C14.0003 13.5657 13.9873 13.6308 13.9622 13.6914C13.9371 13.7521 13.9002 13.8073 13.8538 13.8538C13.8073 13.9002 13.7521 13.9371 13.6914 13.9622C13.6308 13.9873 13.5657 14.0003 13.5 14.0003C13.4343 14.0003 13.3692 13.9873 13.3086 13.9622C13.2479 13.9371 13.1927 13.9002 13.1462 13.8538L12 12.7069L10.8538 13.8538C10.7599 13.9476 10.6327 14.0003 10.5 14.0003C10.3673 14.0003 10.2401 13.9476 10.1462 13.8538C10.0524 13.7599 9.99972 13.6327 9.99972 13.5C9.99972 13.3673 10.0524 13.2401 10.1462 13.1462L11.2931 12L10.1462 10.8538C10.0524 10.7599 9.99972 10.6327 9.99972 10.5C9.99972 10.3673 10.0524 10.2401 10.1462 10.1462C10.2401 10.0524 10.3673 9.99972 10.5 9.99972C10.6327 9.99972 10.7599 10.0524 10.8538 10.1462L12 11.2931L13.1462 10.1462C13.2401 10.0524 13.3673 9.99972 13.5 9.99972C13.6327 9.99972 13.7599 10.0524 13.8538 10.1462C13.9476 10.2401 14.0003 10.3673 14.0003 10.5C14.0003 10.6327 13.9476 10.7599 13.8538 10.8538H13.8562Z" fill="black"/>
</g>
<defs>
<clipPath id="clip0_5_730">
<rect width="16" height="16" fill="white"/>
</clipPath>
</defs>
</svg>
