<svg width="16" height="16" viewBox="0 0 16 16" fill="none" xmlns="http://www.w3.org/2000/svg">
<g clip-path="url(#clip0_5_734)">
<path d="M13.8538 10.8538L12.7069 12L13.8538 13.1463C13.9002 13.1927 13.9371 13.2479 13.9622 13.3086C13.9873 13.3693 14.0003 13.4343 14.0003 13.5C14.0003 13.5657 13.9873 13.6308 13.9622 13.6915C13.9371 13.7521 13.9002 13.8073 13.8538 13.8538C13.8073 13.9002 13.7521 13.9371 13.6915 13.9622C13.6308 13.9873 13.5657 14.0003 13.5 14.0003C13.4343 14.0003 13.3693 13.9873 13.3086 13.9622C13.2479 13.9371 13.1927 13.9002 13.1463 13.8538L12 12.7069L10.8538 13.8538C10.7599 13.9476 10.6327 14.0003 10.5 14.0003C10.3673 14.0003 10.2401 13.9476 10.1463 13.8538C10.0524 13.7599 9.99972 13.6327 9.99972 13.5C9.99972 13.3673 10.0524 13.2401 10.1463 13.1463L11.2931 12L10.1463 10.8538C10.0524 10.7599 9.99972 10.6327 9.99972 10.5C9.99972 10.3673 10.0524 10.2401 10.1463 10.1463C10.2401 10.0524 10.3673 9.99972 10.5 9.99972C10.6327 9.99972 10.7599 10.0524 10.8538 10.1463L12 11.2931L13.1463 10.1463C13.2401 10.0524 13.3673 9.99972 13.5 9.99972C13.6327 9.99972 13.7599 10.0524 13.8538 10.1463C13.9476 10.2401 14.0003 10.3673 14.0003 10.5C14.0003 10.6327 13.9476 10.7599 13.8538 10.8538ZM14.5 8C14.5 8.13261 14.4473 8.25979 14.3536 8.35356C14.2598 8.44732 14.1326 8.5 14 8.5H6.01563C6.20313 11.8581 8.22375 13.5375 8.31375 13.6106C8.39433 13.6755 8.45279 13.7638 8.48106 13.8634C8.50933 13.9629 8.50603 14.0688 8.47161 14.1663C8.43718 14.2639 8.37334 14.3484 8.28887 14.4082C8.2044 14.4679 8.10347 14.5 8 14.5C6.71442 14.5 5.45772 14.1188 4.3888 13.4046C3.31988 12.6903 2.48676 11.6752 1.99479 10.4874C1.50282 9.29973 1.37409 7.99279 1.6249 6.73192C1.8757 5.47104 2.49477 4.31285 3.40381 3.40381C4.31285 2.49477 5.47104 1.8757 6.73192 1.6249C7.99279 1.37409 9.29973 1.50282 10.4874 1.99479C11.6752 2.48676 12.6903 3.31988 13.4046 4.3888C14.1188 5.45772 14.5 6.71442 14.5 8ZM9.27563 2.65C9.99625 3.60438 10.875 5.21813 10.9869 7.5H13.4769C13.3705 6.3542 12.9082 5.27042 12.1548 4.40064C11.4013 3.53086 10.3945 2.9187 9.27563 2.65ZM6.01438 7.5H9.98563C9.84125 4.9 8.59688 3.30625 8 2.6875C7.40375 3.30563 6.15875 4.89938 6.01438 7.5Z" fill="black"/>
</g>
<defs>
<clipPath id="clip0_5_734">
<rect width="16" height="16" fill="white"/>
</clipPath>
</defs>
</svg>
