<svg width="16" height="16" viewBox="0 0 16 16" fill="none" xmlns="http://www.w3.org/2000/svg">
<g clip-path="url(#clip0_5_1097)">
<path d="M11.5 4H4.5C3.30693 4.00132 2.16311 4.47585 1.31948 5.31948C0.475854 6.16311 0.00132343 7.30693 0 8.5C1.16284e-05 8.82175 0.103224 9.13502 0.29447 9.39376C0.485716 9.65251 0.754912 9.84309 1.0625 9.9375C1.44125 11.2106 3.41437 12 4.5 12C5.07611 11.9993 5.63436 11.8 6.08065 11.4357C6.52694 11.0714 6.83397 10.5643 6.95 10H9.05C9.16603 10.5643 9.47306 11.0714 9.91935 11.4357C10.3656 11.8 10.9239 11.9993 11.5 12C12.5831 12 14.5562 11.2087 14.9375 9.9375C15.2451 9.84309 15.5143 9.65251 15.7055 9.39376C15.8968 9.13502 16 8.82175 16 8.5C15.9987 7.30693 15.5241 6.16311 14.6805 5.31948C13.8369 4.47585 12.6931 4.00132 11.5 4ZM5.5625 10.5625C5.46874 10.6562 5.34161 10.7088 5.20906 10.7088C5.07651 10.7088 4.94938 10.6562 4.85563 10.5625L3.32125 9.02812C3.23144 8.93359 3.18211 8.80772 3.18378 8.67734C3.18545 8.54696 3.23799 8.42239 3.33019 8.33019C3.42239 8.23799 3.54696 8.18545 3.67734 8.18378C3.80772 8.18211 3.93359 8.23144 4.02812 8.32125L5.5625 9.85312C5.60927 9.8996 5.64639 9.95486 5.67172 10.0157C5.69704 10.0766 5.71008 10.1419 5.71008 10.2078C5.71008 10.2737 5.69704 10.339 5.67172 10.3999C5.64639 10.4608 5.60927 10.516 5.5625 10.5625ZM13.0325 10.5319C12.9387 10.6256 12.8116 10.6782 12.6791 10.6782C12.5465 10.6782 12.4194 10.6256 12.3256 10.5319L10.7375 8.94438C10.6437 8.85055 10.591 8.72331 10.591 8.59062C10.591 8.45794 10.6437 8.3307 10.7375 8.23687C10.8313 8.14305 10.9586 8.09035 11.0913 8.09035C11.2239 8.09035 11.3512 8.14305 11.445 8.23687L13.0325 9.825C13.1253 9.91901 13.1771 10.0459 13.1766 10.178C13.1762 10.3101 13.1235 10.4366 13.03 10.53L13.0325 10.5319ZM14.8575 8.85312C14.3337 7.70312 12.5212 7 11.5 7C10.9239 7.0007 10.3656 7.20001 9.91935 7.56433C9.47306 7.92865 9.16603 8.4357 9.05 9H6.95C6.83397 8.4357 6.52694 7.92865 6.08065 7.56433C5.63436 7.20001 5.07611 7.0007 4.5 7C3.47875 7 1.66625 7.70312 1.145 8.85125C1.05232 8.75781 1.00022 8.6316 1 8.5C1.00099 7.57205 1.37006 6.68238 2.02622 6.02622C2.68238 5.37006 3.57205 5.00099 4.5 5H11.5C12.428 5.00099 13.3176 5.37006 13.9738 6.02622C14.6299 6.68238 14.999 7.57205 15 8.5C14.9998 8.6316 14.9477 8.75781 14.855 8.85125L14.8575 8.85312Z" fill="black"/>
</g>
<defs>
<clipPath id="clip0_5_1097">
<rect width="16" height="16" fill="white"/>
</clipPath>
</defs>
</svg>
