<svg width="16" height="16" viewBox="0 0 16 16" fill="none" xmlns="http://www.w3.org/2000/svg">
<g clip-path="url(#clip0_5_1603)">
<path d="M10.9669 12.3212C11.0143 12.4451 11.0105 12.5826 10.9565 12.7037C10.9025 12.8248 10.8026 12.9195 10.6788 12.9669C9.98066 13.2409 9.24699 13.4136 8.5 13.48V15.5C8.5 15.6326 8.44732 15.7598 8.35356 15.8536C8.25979 15.9473 8.13261 16 8 16C7.86739 16 7.74022 15.9473 7.64645 15.8536C7.55268 15.7598 7.5 15.6326 7.5 15.5V13.48C6.75301 13.4136 6.01934 13.2409 5.32125 12.9669C5.25884 12.9442 5.20157 12.9094 5.15277 12.8643C5.10398 12.8193 5.06464 12.765 5.03705 12.7046C5.00947 12.6442 4.99418 12.5789 4.9921 12.5126C4.99001 12.4462 5.00117 12.3801 5.02491 12.3181C5.04865 12.2561 5.0845 12.1994 5.13037 12.1514C5.17624 12.1034 5.23121 12.0651 5.29208 12.0385C5.35294 12.012 5.41848 11.9979 5.48487 11.9969C5.55126 11.996 5.61717 12.0083 5.67875 12.0331C6.5 12.3475 7.25938 12.5 8 12.5C8.74063 12.5 9.5 12.3475 10.3213 12.0331C10.4451 11.9857 10.5827 11.9895 10.7037 12.0435C10.8248 12.0975 10.9195 12.1974 10.9669 12.3212ZM13.5 6C13.5 7.0878 13.1774 8.15117 12.5731 9.05564C11.9687 9.96011 11.1098 10.6651 10.1048 11.0813C9.09977 11.4976 7.9939 11.6065 6.92701 11.3943C5.86011 11.1821 4.8801 10.6583 4.11092 9.88909C3.34173 9.1199 2.8179 8.13989 2.60568 7.073C2.39346 6.0061 2.50238 4.90023 2.91867 3.89524C3.33495 2.89025 4.0399 2.03126 4.94437 1.42692C5.84884 0.822569 6.91221 0.5 8 0.5C9.45819 0.501654 10.8562 1.08165 11.8873 2.11274C12.9184 3.14383 13.4983 4.54182 13.5 6ZM9 8.25C9 8.10166 8.95602 7.95666 8.8736 7.83332C8.79119 7.70999 8.67406 7.61386 8.53701 7.55709C8.39997 7.50032 8.24917 7.48547 8.10368 7.51441C7.9582 7.54335 7.82456 7.61478 7.71967 7.71967C7.61478 7.82456 7.54335 7.9582 7.51441 8.10368C7.48547 8.24917 7.50033 8.39997 7.55709 8.53701C7.61386 8.67406 7.70999 8.79119 7.83332 8.8736C7.95666 8.95601 8.10167 9 8.25 9C8.44891 9 8.63968 8.92098 8.78033 8.78033C8.92098 8.63968 9 8.44891 9 8.25ZM11 6.25C11 6.10166 10.956 5.95666 10.8736 5.83332C10.7912 5.70999 10.6741 5.61386 10.537 5.55709C10.4 5.50032 10.2492 5.48547 10.1037 5.51441C9.9582 5.54335 9.82456 5.61478 9.71967 5.71967C9.61478 5.82456 9.54335 5.9582 9.51441 6.10368C9.48547 6.24917 9.50033 6.39997 9.55709 6.53701C9.61386 6.67406 9.70999 6.79119 9.83332 6.8736C9.95666 6.95601 10.1017 7 10.25 7C10.4489 7 10.6397 6.92098 10.7803 6.78033C10.921 6.63968 11 6.44891 11 6.25Z" fill="black"/>
</g>
<defs>
<clipPath id="clip0_5_1603">
<rect width="16" height="16" fill="white"/>
</clipPath>
</defs>
</svg>
