<svg width="16" height="16" viewBox="0 0 16 16" fill="none" xmlns="http://www.w3.org/2000/svg">
<g clip-path="url(#clip0_5_729)">
<path d="M12.5 1.5H3.5C3.23478 1.5 2.98043 1.60536 2.79289 1.79289C2.60536 1.98043 2.5 2.23478 2.5 2.5V13.5C2.5 13.7652 2.60536 14.0196 2.79289 14.2071C2.98043 14.3946 3.23478 14.5 3.5 14.5H12.5C12.7652 14.5 13.0196 14.3946 13.2071 14.2071C13.3946 14.0196 13.5 13.7652 13.5 13.5V2.5C13.5 2.23478 13.3946 1.98043 13.2071 1.79289C13.0196 1.60536 12.7652 1.5 12.5 1.5ZM11 10C11 10.6296 10.8019 11.2433 10.4337 11.7541C10.0656 12.2649 9.54602 12.6469 8.94868 12.8461C8.35135 13.0452 7.7065 13.0513 7.1055 12.8635C6.50449 12.6758 5.97779 12.3037 5.6 11.8C5.5606 11.7475 5.53194 11.6877 5.51564 11.6241C5.49935 11.5605 5.49574 11.4943 5.50503 11.4293C5.51431 11.3643 5.53631 11.3018 5.56976 11.2453C5.60322 11.1888 5.64747 11.1394 5.7 11.1C5.75253 11.0606 5.8123 11.0319 5.87591 11.0156C5.93952 10.9993 6.00571 10.9957 6.07071 11.005C6.13571 11.0143 6.19825 11.0363 6.25475 11.0698C6.31125 11.1032 6.3606 11.1475 6.4 11.2C6.65186 11.5358 7.00299 11.7839 7.40367 11.909C7.80434 12.0342 8.23423 12.0301 8.63246 11.8974C9.03068 11.7646 9.37704 11.51 9.62248 11.1694C9.86793 10.8289 10 10.4198 10 10V9.23375C9.56849 9.6197 9.03453 9.87256 8.46252 9.96181C7.89051 10.0511 7.30489 9.97291 6.77631 9.73677C6.24773 9.50063 5.79877 9.11658 5.48358 8.63097C5.16839 8.14536 5.00045 7.57893 5 7V6.5C5.00045 5.92107 5.16839 5.35463 5.48358 4.86902C5.79877 4.38341 6.24773 3.99937 6.77631 3.76323C7.30489 3.52709 7.89051 3.44893 8.46252 3.53819C9.03453 3.62744 9.56849 3.8803 10 4.26625V4C10 3.86739 10.0527 3.74021 10.1464 3.64645C10.2402 3.55268 10.3674 3.5 10.5 3.5C10.6326 3.5 10.7598 3.55268 10.8536 3.64645C10.9473 3.74021 11 3.86739 11 4V10ZM10 6.5V7C10 7.53043 9.78929 8.03914 9.41421 8.41421C9.03914 8.78929 8.53043 9 8 9C7.46957 9 6.96086 8.78929 6.58579 8.41421C6.21071 8.03914 6 7.53043 6 7V6.5C6 5.96957 6.21071 5.46086 6.58579 5.08579C6.96086 4.71071 7.46957 4.5 8 4.5C8.53043 4.5 9.03914 4.71071 9.41421 5.08579C9.78929 5.46086 10 5.96957 10 6.5Z" fill="black"/>
</g>
<defs>
<clipPath id="clip0_5_729">
<rect width="16" height="16" fill="white"/>
</clipPath>
</defs>
</svg>
