<svg width="16" height="16" viewBox="0 0 16 16" fill="none" xmlns="http://www.w3.org/2000/svg">
<g clip-path="url(#clip0_5_726)">
<path d="M8 1.5C6.71442 1.5 5.45772 1.88122 4.3888 2.59545C3.31988 3.30968 2.48676 4.32484 1.99479 5.51256C1.50282 6.70028 1.37409 8.00721 1.6249 9.26809C1.8757 10.529 2.49477 11.6872 3.40381 12.5962C4.31285 13.5052 5.47104 14.1243 6.73192 14.3751C7.99279 14.6259 9.29973 14.4972 10.4874 14.0052C11.6752 13.5132 12.6903 12.6801 13.4046 11.6112C14.1188 10.5423 14.5 9.28558 14.5 8C14.5 6.27609 13.8152 4.62279 12.5962 3.40381C11.3772 2.18482 9.72391 1.5 8 1.5ZM8 13C7.18955 12.9999 6.39126 12.8028 5.6739 12.4257C4.95653 12.0486 4.34159 11.5027 3.88204 10.8351C3.42249 10.1676 3.1321 9.3983 3.03588 8.59358C2.93967 7.78886 3.04051 6.97281 3.32973 6.21571C3.61895 5.45862 4.08787 4.78318 4.69611 4.24756C5.30434 3.71194 6.03366 3.33221 6.82125 3.14106C7.60884 2.94991 8.4311 2.95308 9.21719 3.15029C10.0033 3.3475 10.7297 3.73284 11.3338 4.27313C11.4301 4.36219 11.4876 4.48558 11.4938 4.61667C11.5 4.74775 11.4545 4.87602 11.3669 4.9738C11.2794 5.07158 11.157 5.13103 11.026 5.13932C10.895 5.14762 10.766 5.10409 10.6669 5.01813C10.0003 4.42188 9.15307 4.06624 8.26061 4.00801C7.36815 3.94978 6.48192 4.19233 5.74349 4.6969C5.00506 5.20148 4.45703 5.93897 4.18694 6.79157C3.91685 7.64417 3.94029 8.56269 4.25352 9.40041C4.56674 10.2381 5.15167 10.9467 5.91488 11.413C6.67808 11.8792 7.57553 12.0762 8.46386 11.9726C9.35219 11.8689 10.1801 11.4705 10.8155 10.841C11.4508 10.2116 11.8569 9.38733 11.9688 8.5H8C7.86739 8.5 7.74022 8.44732 7.64645 8.35355C7.55268 8.25979 7.5 8.13261 7.5 8C7.5 7.86739 7.55268 7.74021 7.64645 7.64645C7.74022 7.55268 7.86739 7.5 8 7.5H12.5C12.6326 7.5 12.7598 7.55268 12.8536 7.64645C12.9473 7.74021 13 7.86739 13 8C12.9985 9.32563 12.4713 10.5965 11.5339 11.5339C10.5965 12.4712 9.32563 12.9985 8 13Z" fill="black"/>
</g>
<defs>
<clipPath id="clip0_5_726">
<rect width="16" height="16" fill="white"/>
</clipPath>
</defs>
</svg>
