<svg width="16" height="16" viewBox="0 0 16 16" fill="none" xmlns="http://www.w3.org/2000/svg">
<g clip-path="url(#clip0_5_1702)">
<path d="M14 3H2C1.73478 3 1.48043 3.10536 1.29289 3.29289C1.10536 3.48043 1 3.73478 1 4V12C1 12.2652 1.10536 12.5196 1.29289 12.7071C1.48043 12.8946 1.73478 13 2 13H6C6.06568 13.0001 6.13073 12.9872 6.19142 12.9621C6.25212 12.937 6.30728 12.9002 6.35375 12.8538L8 11.2069L9.64625 12.8538C9.69272 12.9002 9.74788 12.937 9.80857 12.9621C9.86927 12.9872 9.93432 13.0001 10 13H14C14.2652 13 14.5196 12.8946 14.7071 12.7071C14.8946 12.5196 15 12.2652 15 12V4C15 3.73478 14.8946 3.48043 14.7071 3.29289C14.5196 3.10536 14.2652 3 14 3ZM12.5 8C12.5 8.29667 12.412 8.58668 12.2472 8.83335C12.0824 9.08003 11.8481 9.27229 11.574 9.38582C11.2999 9.49935 10.9983 9.52906 10.7074 9.47118C10.4164 9.4133 10.1491 9.27044 9.93934 9.06066C9.72956 8.85088 9.5867 8.58361 9.52882 8.29264C9.47094 8.00166 9.50065 7.70006 9.61418 7.42597C9.72771 7.15189 9.91997 6.91762 10.1666 6.7528C10.4133 6.58797 10.7033 6.5 11 6.5C11.3978 6.5 11.7794 6.65804 12.0607 6.93934C12.342 7.22064 12.5 7.60218 12.5 8ZM3.5 8C3.5 7.70333 3.58797 7.41332 3.7528 7.16664C3.91762 6.91997 4.15189 6.72771 4.42597 6.61418C4.70006 6.50065 5.00166 6.47094 5.29264 6.52882C5.58361 6.5867 5.85088 6.72956 6.06066 6.93934C6.27044 7.14912 6.4133 7.41639 6.47118 7.70736C6.52906 7.99834 6.49935 8.29994 6.38582 8.57403C6.27229 8.84811 6.08003 9.08238 5.83336 9.2472C5.58668 9.41203 5.29667 9.5 5 9.5C4.60218 9.5 4.22064 9.34196 3.93934 9.06066C3.65804 8.77936 3.5 8.39782 3.5 8Z" fill="black"/>
</g>
<defs>
<clipPath id="clip0_5_1702">
<rect width="16" height="16" fill="white"/>
</clipPath>
</defs>
</svg>
