<svg width="16" height="16" viewBox="0 0 16 16" fill="none" xmlns="http://www.w3.org/2000/svg">
<g clip-path="url(#clip0_5_1708)">
<path d="M8 1.5C6.71442 1.5 5.45772 1.88122 4.3888 2.59545C3.31988 3.30968 2.48676 4.32484 1.99479 5.51256C1.50282 6.70028 1.37409 8.00721 1.6249 9.26809C1.8757 10.529 2.49477 11.6872 3.40381 12.5962C4.31285 13.5052 5.47104 14.1243 6.73192 14.3751C7.99279 14.6259 9.29973 14.4972 10.4874 14.0052C11.6752 13.5132 12.6903 12.6801 13.4046 11.6112C14.1188 10.5423 14.5 9.28558 14.5 8C14.4982 6.27665 13.8128 4.62441 12.5942 3.40582C11.3756 2.18722 9.72335 1.50182 8 1.5ZM8 2.5C8.91538 2.50038 9.81618 2.72922 10.6208 3.16577C11.4253 3.60233 12.1082 4.23279 12.6075 5H8C7.36848 5.00071 6.75324 5.20036 6.24164 5.5706C5.73003 5.94084 5.34807 6.46285 5.15 7.0625L3.7075 4.5625C4.22237 3.91864 4.87555 3.39893 5.61862 3.04189C6.3617 2.68485 7.1756 2.49964 8 2.5ZM2.5 8C2.49896 7.13397 2.70376 6.28009 3.0975 5.50875L5.40188 9.5C5.40563 9.50625 5.41 9.51188 5.41375 9.5175C5.73135 10.0594 6.21103 10.4879 6.78514 10.7427C7.35925 10.9974 7.99885 11.0656 8.61375 10.9375L7.17 13.4375C5.87088 13.2374 4.68614 12.5793 3.82972 11.5821C2.97331 10.585 2.50168 9.31445 2.5 8ZM8.29313 13.4919L10.5981 9.5C10.6031 9.49125 10.6069 9.4825 10.6119 9.47375C10.9211 8.92842 11.0513 8.29975 10.984 7.67646C10.9167 7.05318 10.6554 6.46677 10.2369 6H13.125C13.4414 6.81057 13.5609 7.68464 13.4738 8.55039C13.3866 9.41613 13.0954 10.2489 12.6238 10.9801C12.1523 11.7114 11.514 12.3204 10.7614 12.757C10.0088 13.1937 9.16326 13.4455 8.29438 13.4919H8.29313Z" fill="black"/>
</g>
<defs>
<clipPath id="clip0_5_1708">
<rect width="16" height="16" fill="white"/>
</clipPath>
</defs>
</svg>
