<svg width="16" height="16" viewBox="0 0 16 16" fill="none" xmlns="http://www.w3.org/2000/svg">
<g clip-path="url(#clip0_5_1348)">
<path d="M14.5 7.5H12.0306C12.371 6.81396 12.5306 6.05241 12.4945 5.28743C12.4583 4.52245 12.2275 3.77936 11.8239 3.12851C11.4203 2.47765 10.8573 1.94056 10.1881 1.56809C9.51897 1.19562 8.76583 1.00009 8 1C7.86739 1 7.74021 1.05268 7.64645 1.14645C7.55268 1.24021 7.5 1.36739 7.5 1.5V3.96937C6.81396 3.629 6.05241 3.46935 5.28743 3.50553C4.52245 3.5417 3.77936 3.77251 3.12851 4.17611C2.47765 4.5797 1.94056 5.14272 1.56809 5.81187C1.19562 6.48103 1.00009 7.23417 1 8C1 8.13261 1.05268 8.25979 1.14645 8.35355C1.24021 8.44732 1.36739 8.5 1.5 8.5H3.96937C3.629 9.18604 3.46935 9.94759 3.50553 10.7126C3.5417 11.4775 3.77251 12.2206 4.17611 12.8715C4.5797 13.5224 5.14272 14.0594 5.81187 14.4319C6.48103 14.8044 7.23417 14.9999 8 15C8.13261 15 8.25979 14.9473 8.35355 14.8536C8.44732 14.7598 8.5 14.6326 8.5 14.5V12.0306C9.18604 12.371 9.94759 12.5306 10.7126 12.4945C11.4775 12.4583 12.2206 12.2275 12.8715 11.8239C13.5224 11.4203 14.0594 10.8573 14.4319 10.1881C14.8044 9.51897 14.9999 8.76583 15 8C15 7.86739 14.9473 7.74021 14.8536 7.64645C14.7598 7.55268 14.6326 7.5 14.5 7.5ZM5.5 4.5C6.21527 4.4964 6.91405 4.71477 7.5 5.125V7.5H2.03562C2.15697 6.66744 2.5737 5.9063 3.20973 5.35553C3.84575 4.80476 4.65865 4.5011 5.5 4.5ZM10.5 11.5C9.78473 11.5036 9.08595 11.2852 8.5 10.875V8.5H13.9644C13.843 9.33256 13.4263 10.0937 12.7903 10.6445C12.1542 11.1952 11.3414 11.4989 10.5 11.5Z" fill="black"/>
</g>
<defs>
<clipPath id="clip0_5_1348">
<rect width="16" height="16" fill="white"/>
</clipPath>
</defs>
</svg>
