<svg width="16" height="16" viewBox="0 0 16 16" fill="none" xmlns="http://www.w3.org/2000/svg">
<g clip-path="url(#clip0_5_1340)">
<path d="M14.85 8.98626L10.5706 1.97001C10.4811 1.82579 10.3562 1.70689 10.2077 1.62462C10.0593 1.54235 9.89221 1.49945 9.72248 1.50001H6.27685C6.10721 1.49944 5.94024 1.54234 5.79188 1.62462C5.64352 1.70689 5.51871 1.8258 5.42935 1.97001L5.42623 1.97438L1.15248 8.98126C1.05662 9.13448 1.00408 9.31083 1.00045 9.49153C0.996814 9.67224 1.04223 9.85055 1.13185 10.0075L2.83935 12.9963C2.92682 13.1493 3.05318 13.2765 3.20564 13.3649C3.35809 13.4534 3.53122 13.5 3.70748 13.5H12.2919C12.4681 13.5 12.6412 13.4534 12.7937 13.3649C12.9461 13.2765 13.0725 13.1493 13.16 12.9963L14.8675 10.0075C14.9572 9.85161 15.003 9.6743 14.9999 9.49446C14.9968 9.31462 14.945 9.13898 14.85 8.98626ZM13.6875 9.00001H10.7825L8.5831 5.33313L10.005 2.96313L13.6875 9.00001ZM5.7831 10H10.2169L11.7169 12.5H4.2831L5.7831 10ZM6.3831 9.00001L7.99998 6.30501L9.61685 9.00001H6.3831ZM5.99435 2.96313L7.41685 5.33313L5.21685 9.00001H2.31248L5.99435 2.96313Z" fill="black"/>
</g>
<defs>
<clipPath id="clip0_5_1340">
<rect width="16" height="16" fill="white"/>
</clipPath>
</defs>
</svg>
