<svg width="16" height="16" viewBox="0 0 16 16" fill="none" xmlns="http://www.w3.org/2000/svg">
<g clip-path="url(#clip0_5_1094)">
<path d="M15.2076 7.29255L8.70755 0.792554C8.61468 0.699578 8.50439 0.625819 8.38299 0.575495C8.2616 0.52517 8.13147 0.499268 8.00005 0.499268C7.86864 0.499268 7.73851 0.52517 7.61711 0.575495C7.49572 0.625819 7.38543 0.699578 7.29255 0.792554L0.792554 7.29255C0.699578 7.38543 0.625819 7.49572 0.575495 7.61711C0.52517 7.73851 0.499268 7.86864 0.499268 8.00005C0.499268 8.13147 0.52517 8.2616 0.575495 8.38299C0.625819 8.50439 0.699578 8.61468 0.792554 8.70755L7.29255 15.2076C7.38543 15.3005 7.49572 15.3743 7.61711 15.4246C7.73851 15.4749 7.86864 15.5008 8.00005 15.5008C8.13147 15.5008 8.2616 15.4749 8.38299 15.4246C8.50439 15.3743 8.61468 15.3005 8.70755 15.2076L15.2076 8.70755C15.3005 8.61468 15.3743 8.50439 15.4246 8.38299C15.4749 8.2616 15.5008 8.13147 15.5008 8.00005C15.5008 7.86864 15.4749 7.73851 15.4246 7.61711C15.3743 7.49572 15.3005 7.38543 15.2076 7.29255ZM3.50005 8.50005C3.50005 8.63266 3.44738 8.75984 3.35361 8.85361C3.25984 8.94738 3.13266 9.00005 3.00005 9.00005C2.86745 9.00005 2.74027 8.94738 2.6465 8.85361C2.55273 8.75984 2.50005 8.63266 2.50005 8.50005V7.50005C2.50005 7.36745 2.55273 7.24027 2.6465 7.1465C2.74027 7.05273 2.86745 7.00005 3.00005 7.00005C3.13266 7.00005 3.25984 7.05273 3.35361 7.1465C3.44738 7.24027 3.50005 7.36745 3.50005 7.50005V8.50005ZM6.00005 11.0001C6.00005 11.1327 5.94738 11.2598 5.85361 11.3536C5.75984 11.4474 5.63266 11.5001 5.50005 11.5001C5.36745 11.5001 5.24027 11.4474 5.1465 11.3536C5.05273 11.2598 5.00005 11.1327 5.00005 11.0001V10.0001C5.00005 9.86745 5.05273 9.74027 5.1465 9.6465C5.24027 9.55273 5.36745 9.50005 5.50005 9.50005C5.63266 9.50005 5.75984 9.55273 5.85361 9.6465C5.94738 9.74027 6.00005 9.86745 6.00005 10.0001V11.0001ZM6.00005 8.00005C6.00005 8.13266 5.94738 8.25984 5.85361 8.35361C5.75984 8.44738 5.63266 8.50005 5.50005 8.50005C5.36745 8.50005 5.24027 8.44738 5.1465 8.35361C5.05273 8.25984 5.00005 8.13266 5.00005 8.00005V5.00005C5.00005 4.86745 5.05273 4.74027 5.1465 4.6465C5.24027 4.55273 5.36745 4.50005 5.50005 4.50005C5.63266 4.50005 5.75984 4.55273 5.85361 4.6465C5.94738 4.74027 6.00005 4.86745 6.00005 5.00005V8.00005ZM8.50005 13.5001C8.50005 13.6327 8.44738 13.7598 8.35361 13.8536C8.25984 13.9474 8.13266 14.0001 8.00005 14.0001C7.86745 14.0001 7.74027 13.9474 7.6465 13.8536C7.55273 13.7598 7.50005 13.6327 7.50005 13.5001V12.5001C7.50005 12.3674 7.55273 12.2403 7.6465 12.1465C7.74027 12.0527 7.86745 12.0001 8.00005 12.0001C8.13266 12.0001 8.25984 12.0527 8.35361 12.1465C8.44738 12.2403 8.50005 12.3674 8.50005 12.5001V13.5001ZM8.50005 10.5001C8.50005 10.6327 8.44738 10.7598 8.35361 10.8536C8.25984 10.9474 8.13266 11.0001 8.00005 11.0001C7.86745 11.0001 7.74027 10.9474 7.6465 10.8536C7.55273 10.7598 7.50005 10.6327 7.50005 10.5001V5.50005C7.50005 5.36745 7.55273 5.24027 7.6465 5.1465C7.74027 5.05273 7.86745 5.00005 8.00005 5.00005C8.13266 5.00005 8.25984 5.05273 8.35361 5.1465C8.44738 5.24027 8.50005 5.36745 8.50005 5.50005V10.5001ZM8.50005 3.50005C8.50005 3.63266 8.44738 3.75984 8.35361 3.85361C8.25984 3.94738 8.13266 4.00005 8.00005 4.00005C7.86745 4.00005 7.74027 3.94738 7.6465 3.85361C7.55273 3.75984 7.50005 3.63266 7.50005 3.50005V2.50005C7.50005 2.36745 7.55273 2.24027 7.6465 2.1465C7.74027 2.05273 7.86745 2.00005 8.00005 2.00005C8.13266 2.00005 8.25984 2.05273 8.35361 2.1465C8.44738 2.24027 8.50005 2.36745 8.50005 2.50005V3.50005ZM11.0001 11.0001C11.0001 11.1327 10.9474 11.2598 10.8536 11.3536C10.7598 11.4474 10.6327 11.5001 10.5001 11.5001C10.3674 11.5001 10.2403 11.4474 10.1465 11.3536C10.0527 11.2598 10.0001 11.1327 10.0001 11.0001V8.00005C10.0001 7.86745 10.0527 7.74027 10.1465 7.6465C10.2403 7.55273 10.3674 7.50005 10.5001 7.50005C10.6327 7.50005 10.7598 7.55273 10.8536 7.6465C10.9474 7.74027 11.0001 7.86745 11.0001 8.00005V11.0001ZM11.0001 6.00005C11.0001 6.13266 10.9474 6.25984 10.8536 6.35361C10.7598 6.44738 10.6327 6.50005 10.5001 6.50005C10.3674 6.50005 10.2403 6.44738 10.1465 6.35361C10.0527 6.25984 10.0001 6.13266 10.0001 6.00005V5.00005C10.0001 4.86745 10.0527 4.74027 10.1465 4.6465C10.2403 4.55273 10.3674 4.50005 10.5001 4.50005C10.6327 4.50005 10.7598 4.55273 10.8536 4.6465C10.9474 4.74027 11.0001 4.86745 11.0001 5.00005V6.00005ZM13.5001 8.50005C13.5001 8.63266 13.4474 8.75984 13.3536 8.85361C13.2598 8.94738 13.1327 9.00005 13.0001 9.00005C12.8674 9.00005 12.7403 8.94738 12.6465 8.85361C12.5527 8.75984 12.5001 8.63266 12.5001 8.50005V7.50005C12.5001 7.36745 12.5527 7.24027 12.6465 7.1465C12.7403 7.05273 12.8674 7.00005 13.0001 7.00005C13.1327 7.00005 13.2598 7.05273 13.3536 7.1465C13.4474 7.24027 13.5001 7.36745 13.5001 7.50005V8.50005Z" fill="black"/>
</g>
<defs>
<clipPath id="clip0_5_1094">
<rect width="16" height="16" fill="white"/>
</clipPath>
</defs>
</svg>
