<svg width="16" height="16" viewBox="0 0 16 16" fill="none" xmlns="http://www.w3.org/2000/svg">
<g clip-path="url(#clip0_5_1710)">
<path d="M14.9888 7.1363L4.50002 1.13505C4.34712 1.04588 4.17328 0.998901 3.99627 0.998901C3.81927 0.998901 3.64543 1.04588 3.49252 1.13505C3.34187 1.22143 3.21688 1.3463 3.13034 1.49686C3.04381 1.64742 2.99883 1.81827 3.00002 1.99193V14.0082C2.99953 14.1817 3.04509 14.3522 3.13206 14.5023C3.21902 14.6524 3.34428 14.7767 3.49502 14.8626C3.64793 14.9517 3.82177 14.9987 3.99877 14.9987C4.17578 14.9987 4.34962 14.9517 4.50252 14.8626L14.9888 8.86255C15.1436 8.77766 15.2728 8.65269 15.3628 8.50073C15.4528 8.34877 15.5003 8.17541 15.5003 7.9988C15.5003 7.82219 15.4528 7.64883 15.3628 7.49687C15.2728 7.34491 15.1436 7.21994 14.9888 7.13505V7.1363ZM10 8.70693L11.1825 9.88943L5.65127 13.0557L10 8.70693ZM5.65002 2.9438L11.1831 6.11068L10 7.29318L5.65002 2.9438ZM12.0819 9.37505L10.7069 8.00005L12.0819 6.62505L14.4838 8.00005L12.0819 9.37505Z" fill="black"/>
</g>
<defs>
<clipPath id="clip0_5_1710">
<rect width="16" height="16" fill="white"/>
</clipPath>
</defs>
</svg>
