<svg width="16" height="16" viewBox="0 0 16 16" fill="none" xmlns="http://www.w3.org/2000/svg">
<g clip-path="url(#clip0_5_721)">
<path d="M15 8.5H13.4769C13.4104 9.23588 13.195 9.95057 12.8438 10.6006C12.8249 10.6361 12.7978 10.6665 12.7648 10.6893C12.7317 10.7121 12.6936 10.7266 12.6538 10.7316C12.6139 10.7366 12.5735 10.7319 12.5358 10.7179C12.4982 10.7039 12.4644 10.681 12.4375 10.6512L5.78188 3.33C5.75493 3.30045 5.73547 3.26486 5.72512 3.22623C5.71478 3.18759 5.71385 3.14704 5.72243 3.10798C5.731 3.06892 5.74882 3.03248 5.77439 3.00173C5.79996 2.97097 5.83253 2.94681 5.86938 2.93125C6.38848 2.71151 6.93859 2.57382 7.5 2.52312V1C7.49985 0.931456 7.51379 0.863613 7.54097 0.800686C7.56814 0.737758 7.60796 0.681089 7.65796 0.634199C7.70795 0.58731 7.76706 0.5512 7.8316 0.528114C7.89614 0.505028 7.96473 0.495459 8.03312 0.5C8.16192 0.511059 8.28172 0.570553 8.36837 0.66648C8.45502 0.762406 8.50206 0.887626 8.5 1.01687V2.52312C9.77993 2.64163 10.9781 3.20404 11.887 4.11296C12.796 5.02188 13.3584 6.22007 13.4769 7.5H14.9831C15.1122 7.49826 15.2371 7.54545 15.3327 7.63206C15.4284 7.71868 15.4877 7.8383 15.4987 7.96688C15.5033 8.03516 15.4938 8.10366 15.4707 8.16811C15.4477 8.23256 15.4117 8.29161 15.365 8.34159C15.3182 8.39156 15.2617 8.43141 15.1989 8.45866C15.1361 8.48591 15.0684 8.49998 15 8.5ZM3.37 2.16375C3.32609 2.11425 3.27279 2.07397 3.2132 2.04522C3.15361 2.01647 3.0889 1.99984 3.02283 1.99629C2.95676 1.99273 2.89064 2.00233 2.82831 2.02451C2.76597 2.0467 2.70866 2.08104 2.65969 2.12554C2.61073 2.17004 2.57108 2.22381 2.54305 2.28375C2.51502 2.34368 2.49917 2.40858 2.4964 2.47469C2.49364 2.5408 2.50403 2.6068 2.52696 2.66886C2.54989 2.73093 2.58492 2.78782 2.63 2.83625L3.94812 4.28625C3.13288 5.17181 2.63207 6.30127 2.52312 7.5H1C0.867392 7.5 0.740215 7.55268 0.646447 7.64645C0.552678 7.74021 0.5 7.86739 0.5 8C0.5 8.13261 0.552678 8.25979 0.646447 8.35355C0.740215 8.44732 0.867392 8.5 1 8.5H2.52312C2.64163 9.77993 3.20404 10.9781 4.11296 11.887C5.02188 12.796 6.22007 13.3584 7.5 13.4769V15C7.5 15.1326 7.55268 15.2598 7.64645 15.3536C7.74021 15.4473 7.86739 15.5 8 15.5C8.13261 15.5 8.25979 15.4473 8.35355 15.3536C8.44732 15.2598 8.5 15.1326 8.5 15V13.4769C9.52107 13.3845 10.4956 13.0071 11.3125 12.3875L12.63 13.8363C12.6739 13.8857 12.7272 13.926 12.7868 13.9548C12.8464 13.9835 12.9111 14.0002 12.9772 14.0037C13.0432 14.0073 13.1094 13.9977 13.1717 13.9755C13.234 13.9533 13.2913 13.919 13.3403 13.8745C13.3893 13.83 13.4289 13.7762 13.4569 13.7163C13.485 13.6563 13.5008 13.5914 13.5036 13.5253C13.5064 13.4592 13.496 13.3932 13.473 13.3311C13.4501 13.2691 13.4151 13.2122 13.37 13.1637L3.37 2.16375Z" fill="black"/>
</g>
<defs>
<clipPath id="clip0_5_721">
<rect width="16" height="16" fill="white"/>
</clipPath>
</defs>
</svg>
