<svg width="16" height="16" viewBox="0 0 16 16" fill="none" xmlns="http://www.w3.org/2000/svg">
<g clip-path="url(#clip0_5_1268)">
<path d="M15 7.5H13.4769C13.3584 6.22007 12.796 5.02188 11.887 4.11296C10.9781 3.20404 9.77993 2.64163 8.5 2.52312V1C8.5 0.867392 8.44732 0.740215 8.35355 0.646447C8.25979 0.552678 8.13261 0.5 8 0.5C7.86739 0.5 7.74021 0.552678 7.64645 0.646447C7.55268 0.740215 7.5 0.867392 7.5 1V2.52312C6.22007 2.64163 5.02188 3.20404 4.11296 4.11296C3.20404 5.02188 2.64163 6.22007 2.52312 7.5H1C0.867392 7.5 0.740215 7.55268 0.646447 7.64645C0.552678 7.74021 0.5 7.86739 0.5 8C0.5 8.13261 0.552678 8.25979 0.646447 8.35355C0.740215 8.44732 0.867392 8.5 1 8.5H2.52312C2.64163 9.77993 3.20404 10.9781 4.11296 11.887C5.02188 12.796 6.22007 13.3584 7.5 13.4769V15C7.5 15.1326 7.55268 15.2598 7.64645 15.3536C7.74021 15.4473 7.86739 15.5 8 15.5C8.13261 15.5 8.25979 15.4473 8.35355 15.3536C8.44732 15.2598 8.5 15.1326 8.5 15V13.4769C9.77993 13.3584 10.9781 12.796 11.887 11.887C12.796 10.9781 13.3584 9.77993 13.4769 8.5H15C15.1326 8.5 15.2598 8.44732 15.3536 8.35355C15.4473 8.25979 15.5 8.13261 15.5 8C15.5 7.86739 15.4473 7.74021 15.3536 7.64645C15.2598 7.55268 15.1326 7.5 15 7.5ZM8 12.5C7.10998 12.5 6.23995 12.2361 5.49993 11.7416C4.75991 11.2471 4.18314 10.5443 3.84254 9.72208C3.50195 8.89981 3.41283 7.99501 3.58647 7.12209C3.7601 6.24918 4.18868 5.44736 4.81802 4.81802C5.44736 4.18868 6.24918 3.7601 7.12209 3.58647C7.99501 3.41283 8.89981 3.50195 9.72208 3.84254C10.5443 4.18314 11.2471 4.75991 11.7416 5.49993C12.2361 6.23995 12.5 7.10998 12.5 8C12.4987 9.19307 12.0241 10.3369 11.1805 11.1805C10.3369 12.0241 9.19307 12.4987 8 12.5ZM10.5 8C10.5 8.49445 10.3534 8.9778 10.0787 9.38893C9.80397 9.80005 9.41352 10.1205 8.95671 10.3097C8.49989 10.4989 7.99723 10.5484 7.51227 10.452C7.02732 10.3555 6.58186 10.1174 6.23223 9.76777C5.8826 9.41814 5.6445 8.97268 5.54804 8.48773C5.45157 8.00277 5.50108 7.50011 5.6903 7.04329C5.87952 6.58648 6.19995 6.19603 6.61107 5.92133C7.0222 5.64662 7.50555 5.5 8 5.5C8.66304 5.5 9.29893 5.76339 9.76777 6.23223C10.2366 6.70107 10.5 7.33696 10.5 8Z" fill="black"/>
</g>
<defs>
<clipPath id="clip0_5_1268">
<rect width="16" height="16" fill="white"/>
</clipPath>
</defs>
</svg>
