<svg width="16" height="16" viewBox="0 0 16 16" fill="none" xmlns="http://www.w3.org/2000/svg">
<g clip-path="url(#clip0_5_723)">
<path d="M15.5 8C15.5 8.13261 15.4473 8.25979 15.3536 8.35355C15.2598 8.44732 15.1326 8.5 15 8.5H13.4769C13.3584 9.77993 12.796 10.9781 11.887 11.887C10.9781 12.796 9.77993 13.3584 8.5 13.4769V15C8.5 15.1326 8.44732 15.2598 8.35355 15.3536C8.25979 15.4473 8.13261 15.5 8 15.5C7.86739 15.5 7.74021 15.4473 7.64645 15.3536C7.55268 15.2598 7.5 15.1326 7.5 15V13.4769C6.22007 13.3584 5.02188 12.796 4.11296 11.887C3.20404 10.9781 2.64163 9.77993 2.52312 8.5H1C0.867392 8.5 0.740215 8.44732 0.646447 8.35355C0.552678 8.25979 0.5 8.13261 0.5 8C0.5 7.86739 0.552678 7.74021 0.646447 7.64645C0.740215 7.55268 0.867392 7.5 1 7.5H2.52312C2.64163 6.22007 3.20404 5.02188 4.11296 4.11296C5.02188 3.20404 6.22007 2.64163 7.5 2.52312V1C7.5 0.867392 7.55268 0.740215 7.64645 0.646447C7.74021 0.552678 7.86739 0.5 8 0.5C8.13261 0.5 8.25979 0.552678 8.35355 0.646447C8.44732 0.740215 8.5 0.867392 8.5 1V2.52312C9.77993 2.64163 10.9781 3.20404 11.887 4.11296C12.796 5.02188 13.3584 6.22007 13.4769 7.5H15C15.1326 7.5 15.2598 7.55268 15.3536 7.64645C15.4473 7.74021 15.5 7.86739 15.5 8Z" fill="black"/>
</g>
<defs>
<clipPath id="clip0_5_723">
<rect width="16" height="16" fill="white"/>
</clipPath>
</defs>
</svg>
