<svg width="16" height="16" viewBox="0 0 16 16" fill="none" xmlns="http://www.w3.org/2000/svg">
<g clip-path="url(#clip0_5_720)">
<path d="M5 12C5 12.1326 4.94732 12.2598 4.85355 12.3536C4.75979 12.4473 4.63261 12.5 4.5 12.5H2C1.86739 12.5 1.74021 12.4473 1.64645 12.3536C1.55268 12.2598 1.5 12.1326 1.5 12C1.5 11.8674 1.55268 11.7402 1.64645 11.6464C1.74021 11.5527 1.86739 11.5 2 11.5H4.5C4.63261 11.5 4.75979 11.5527 4.85355 11.6464C4.94732 11.7402 5 11.8674 5 12ZM14 11.5H11.5C11.3674 11.5 11.2402 11.5527 11.1464 11.6464C11.0527 11.7402 11 11.8674 11 12C11 12.1326 11.0527 12.2598 11.1464 12.3536C11.2402 12.4473 11.3674 12.5 11.5 12.5H14C14.1326 12.5 14.2598 12.4473 14.3536 12.3536C14.4473 12.2598 14.5 12.1326 14.5 12C14.5 11.8674 14.4473 11.7402 14.3536 11.6464C14.2598 11.5527 14.1326 11.5 14 11.5ZM9.5 11.5H6.5C6.36739 11.5 6.24021 11.5527 6.14645 11.6464C6.05268 11.7402 6 11.8674 6 12C6 12.1326 6.05268 12.2598 6.14645 12.3536C6.24021 12.4473 6.36739 12.5 6.5 12.5H9.5C9.63261 12.5 9.75979 12.4473 9.85355 12.3536C9.94732 12.2598 10 12.1326 10 12C10 11.8674 9.94732 11.7402 9.85355 11.6464C9.75979 11.5527 9.63261 11.5 9.5 11.5ZM2 10.5H7C7.13261 10.5 7.25979 10.4473 7.35355 10.3536C7.44732 10.2598 7.5 10.1326 7.5 10C7.5 9.86739 7.44732 9.74021 7.35355 9.64645C7.25979 9.55268 7.13261 9.5 7 9.5H2C1.86739 9.5 1.74021 9.55268 1.64645 9.64645C1.55268 9.74021 1.5 9.86739 1.5 10C1.5 10.1326 1.55268 10.2598 1.64645 10.3536C1.74021 10.4473 1.86739 10.5 2 10.5ZM14 9.5H9C8.86739 9.5 8.74021 9.55268 8.64645 9.64645C8.55268 9.74021 8.5 9.86739 8.5 10C8.5 10.1326 8.55268 10.2598 8.64645 10.3536C8.74021 10.4473 8.86739 10.5 9 10.5H14C14.1326 10.5 14.2598 10.4473 14.3536 10.3536C14.4473 10.2598 14.5 10.1326 14.5 10C14.5 9.86739 14.4473 9.74021 14.3536 9.64645C14.2598 9.55268 14.1326 9.5 14 9.5ZM14 3.5H2C1.86739 3.5 1.74021 3.55268 1.64645 3.64645C1.55268 3.74021 1.5 3.86739 1.5 4V5.5C1.5 5.63261 1.55268 5.75979 1.64645 5.85355C1.74021 5.94732 1.86739 6 2 6H14C14.1326 6 14.2598 5.94732 14.3536 5.85355C14.4473 5.75979 14.5 5.63261 14.5 5.5V4C14.5 3.86739 14.4473 3.74021 14.3536 3.64645C14.2598 3.55268 14.1326 3.5 14 3.5ZM14 7H2C1.86739 7 1.74021 7.05268 1.64645 7.14645C1.55268 7.24021 1.5 7.36739 1.5 7.5V8C1.5 8.13261 1.55268 8.25979 1.64645 8.35355C1.74021 8.44732 1.86739 8.5 2 8.5H14C14.1326 8.5 14.2598 8.44732 14.3536 8.35355C14.4473 8.25979 14.5 8.13261 14.5 8V7.5C14.5 7.36739 14.4473 7.24021 14.3536 7.14645C14.2598 7.05268 14.1326 7 14 7Z" fill="black"/>
</g>
<defs>
<clipPath id="clip0_5_720">
<rect width="16" height="16" fill="white"/>
</clipPath>
</defs>
</svg>
