<svg width="16" height="16" viewBox="0 0 16 16" fill="none" xmlns="http://www.w3.org/2000/svg">
<g clip-path="url(#clip0_5_719)">
<path d="M10.9998 12.9525C11.3448 12.8166 11.679 12.6552 11.9998 12.4694V15C11.9998 15.1326 11.9472 15.2598 11.8534 15.3536C11.7596 15.4474 11.6325 15.5 11.4998 15.5C11.3672 15.5 11.2401 15.4474 11.1463 15.3536C11.0525 15.2598 10.9998 15.1326 10.9998 15V12.9525ZM11.7348 7.42566L8.23484 5.55879C8.11807 5.49914 7.98254 5.48776 7.85745 5.52708C7.73236 5.56641 7.62773 5.6533 7.56609 5.76903C7.50446 5.88477 7.49075 6.02008 7.52792 6.14583C7.5651 6.27157 7.65018 6.37768 7.76484 6.44129L10.6873 8.00004L11.7498 7.43379L11.7348 7.42566ZM15.7348 5.55879L8.23484 1.55879C8.1625 1.52027 8.0818 1.50012 7.99984 1.50012C7.91789 1.50012 7.83718 1.52027 7.76484 1.55879L0.264844 5.55879C0.184846 5.60142 0.117944 5.665 0.0712937 5.74272C0.0246433 5.82045 0 5.90939 0 6.00004C0 6.09069 0.0246433 6.17963 0.0712937 6.25735C0.117944 6.33508 0.184846 6.39866 0.264844 6.44129L1.99984 7.36691V10.3932C1.99932 10.6388 2.08971 10.8759 2.25359 11.0588C3.07234 11.9707 4.90672 13.5 7.99984 13.5C9.02544 13.5085 10.0434 13.3228 10.9998 12.9525V8.16691L10.6873 8.00004L7.99984 9.43316L2.73922 6.62504L1.56234 6.00004L7.99984 2.56691L14.4373 6.00004L13.2636 6.62504H13.2598L11.7498 7.43379C11.8259 7.47768 11.889 7.54082 11.9329 7.61685C11.9768 7.69288 11.9999 7.77913 11.9998 7.86691V12.4694C12.6518 12.093 13.241 11.6171 13.7461 11.0588C13.91 10.8759 14.0004 10.6388 13.9998 10.3932V7.36691L15.7348 6.44129C15.8148 6.39866 15.8817 6.33508 15.9284 6.25735C15.975 6.17963 15.9997 6.09069 15.9997 6.00004C15.9997 5.90939 15.975 5.82045 15.9284 5.74272C15.8817 5.665 15.8148 5.60142 15.7348 5.55879Z" fill="black"/>
</g>
<defs>
<clipPath id="clip0_5_719">
<rect width="16" height="16" fill="white"/>
</clipPath>
</defs>
</svg>
