<svg width="16" height="16" viewBox="0 0 16 16" fill="none" xmlns="http://www.w3.org/2000/svg">
<g clip-path="url(#clip0_5_717)">
<path d="M13 3.49995C12.3191 3.5 11.6442 3.62718 11.01 3.87495C10.115 2.0187 8.30687 1.0962 8.22437 1.05432C8.15491 1.01956 8.0783 1.00146 8.00062 1.00146C7.92295 1.00146 7.84634 1.01956 7.77688 1.05432C7.69375 1.09432 5.88562 2.01682 4.99062 3.87495C4.35622 3.62711 3.6811 3.49993 3 3.49995C2.86739 3.49995 2.74021 3.55263 2.64645 3.64639C2.55268 3.74016 2.5 3.86734 2.5 3.99995V8.99995C2.50163 10.3226 2.97919 11.6005 3.84538 12.6C4.71157 13.5995 5.90854 14.254 7.2175 14.4437C7.25295 14.4483 7.28899 14.4453 7.32318 14.4349C7.35737 14.4244 7.38891 14.4067 7.41569 14.383C7.44246 14.3593 7.46385 14.3302 7.47839 14.2975C7.49293 14.2649 7.5003 14.2295 7.5 14.1937V11.0168C7.49826 10.8878 7.54545 10.7629 7.63206 10.6672C7.71868 10.5716 7.8383 10.5122 7.96688 10.5012C8.03527 10.4967 8.10387 10.5062 8.1684 10.5293C8.23294 10.5524 8.29205 10.5885 8.34204 10.6354C8.39204 10.6823 8.43186 10.739 8.45903 10.8019C8.48621 10.8648 8.50015 10.9327 8.5 11.0012V14.1974C8.4997 14.2332 8.50707 14.2686 8.52161 14.3013C8.53615 14.3339 8.55754 14.3631 8.58431 14.3868C8.61109 14.4105 8.64263 14.4282 8.67682 14.4386C8.71101 14.4491 8.74705 14.4521 8.7825 14.4474C10.0921 14.2576 11.2896 13.6027 12.1558 12.6023C13.0221 11.602 13.4993 10.3232 13.5 8.99995V3.99995C13.5 3.86734 13.4473 3.74016 13.3536 3.64639C13.2598 3.55263 13.1326 3.49995 13 3.49995ZM7.5 9.3412C7.04147 8.68764 6.44615 8.14175 5.7554 7.74144C5.06465 7.34113 4.29503 7.096 3.5 7.02307V4.52745C4.59957 4.65176 5.61495 5.17632 6.35263 6.00114C7.09032 6.82596 7.49872 7.89338 7.5 8.99995V9.3412ZM8 6.70995C7.5449 5.72277 6.80934 4.89136 5.885 4.31932C6.46063 3.1187 7.535 2.3612 8 2.07557C8.46562 2.36182 9.53937 3.11932 10.115 4.31932C9.19066 4.89136 8.4551 5.72277 8 6.70995ZM12.5 7.02245C11.705 7.09537 10.9354 7.3405 10.2446 7.74082C9.55385 8.14113 8.95853 8.68702 8.5 9.34057V8.99995C8.50128 7.89338 8.90968 6.82596 9.64736 6.00114C10.385 5.17632 11.4004 4.65176 12.5 4.52745V7.02245Z" fill="black"/>
</g>
<defs>
<clipPath id="clip0_5_717">
<rect width="16" height="16" fill="white"/>
</clipPath>
</defs>
</svg>
