<svg width="16" height="16" viewBox="0 0 16 16" fill="none" xmlns="http://www.w3.org/2000/svg">
<g clip-path="url(#clip0_5_715)">
<path d="M13.5001 3.99998V8.99998C13.5006 9.65037 13.3853 10.2956 13.1595 10.9056C13.1443 10.9456 13.1191 10.981 13.0864 11.0085C13.0536 11.0359 13.0143 11.0545 12.9723 11.0625C12.9303 11.0704 12.887 11.0675 12.8464 11.0539C12.8059 11.0404 12.7695 11.0166 12.7408 10.985L10.1576 8.14373C10.1326 8.11592 10.114 8.08285 10.1035 8.04693C10.0929 8.01102 10.0905 7.97319 10.0965 7.93623C10.1025 7.89928 10.1167 7.86414 10.1381 7.83342C10.1595 7.80269 10.1875 7.77717 10.2201 7.75873C10.9163 7.34775 11.695 7.09649 12.5001 7.0231V4.5281C11.877 4.59896 11.2754 4.79869 10.7337 5.1146C10.1919 5.43051 9.72181 5.85569 9.35325 6.3631C9.31183 6.42059 9.25867 6.46862 9.19729 6.504C9.13591 6.53939 9.0677 6.56132 8.9972 6.56835C8.9267 6.57539 8.85551 6.56736 8.78835 6.54479C8.72118 6.52223 8.65958 6.48565 8.60763 6.43748C8.51831 6.35136 8.46341 6.23567 8.45317 6.11202C8.44293 5.98838 8.47807 5.86523 8.552 5.7656C8.97392 5.18709 9.50467 4.69646 10.1145 4.32123C9.53888 3.11248 8.46575 2.35873 8.00013 2.07498C7.45118 2.41235 6.95782 2.83276 6.53763 3.32123C6.49191 3.3755 6.43517 3.41943 6.37117 3.45008C6.30717 3.48074 6.23738 3.49741 6.16644 3.49901C6.09549 3.50061 6.02502 3.48708 5.95971 3.45934C5.89439 3.4316 5.83573 3.39027 5.78763 3.3381C5.7051 3.24525 5.65921 3.12553 5.65852 3.00131C5.65783 2.87709 5.70239 2.75686 5.78388 2.6631C6.34333 2.00892 7.0183 1.46318 7.77513 1.0531C7.84459 1.01834 7.9212 1.00024 7.99888 1.00024C8.07655 1.00024 8.15316 1.01834 8.22263 1.0531C8.30513 1.09435 10.1145 2.01748 11.0095 3.87498C11.6419 3.62845 12.3145 3.5013 12.9933 3.49998C13.0595 3.49907 13.1252 3.51133 13.1867 3.53605C13.2482 3.56077 13.3041 3.59745 13.3513 3.64397C13.3984 3.69049 13.4359 3.74592 13.4614 3.80703C13.487 3.86815 13.5001 3.93373 13.5001 3.99998ZM13.3701 13.1637C13.4152 13.2122 13.4502 13.2691 13.4732 13.3311C13.4961 13.3932 13.5065 13.4592 13.5037 13.5253C13.501 13.5914 13.4851 13.6563 13.4571 13.7162C13.429 13.7762 13.3894 13.8299 13.3404 13.8744C13.2915 13.9189 13.2342 13.9533 13.1718 13.9755C13.1095 13.9977 13.0434 14.0072 12.9773 14.0037C12.9112 14.0001 12.8465 13.9835 12.7869 13.9548C12.7273 13.926 12.674 13.8857 12.6301 13.8362L11.8239 12.9494C10.8077 13.9364 9.44919 14.492 8.03263 14.5C4.9895 14.5175 2.50013 11.9694 2.50013 8.92685V3.99998C2.50012 3.93384 2.51324 3.86836 2.53872 3.80733C2.5642 3.74629 2.60153 3.69092 2.64856 3.64442C2.69558 3.59792 2.75137 3.5612 2.81268 3.53641C2.87399 3.51162 2.93962 3.49923 3.00575 3.49998C3.08388 3.49998 3.16075 3.49998 3.23825 3.5056L2.63013 2.83623C2.58504 2.7878 2.55002 2.7309 2.52709 2.66884C2.50415 2.60678 2.49377 2.54078 2.49653 2.47467C2.49929 2.40856 2.51515 2.34366 2.54318 2.28372C2.57121 2.22379 2.61085 2.17001 2.65982 2.12551C2.70879 2.08101 2.7661 2.04668 2.82843 2.02449C2.89077 2.0023 2.95688 1.99271 3.02295 1.99626C3.08902 1.99982 3.15373 2.01645 3.21333 2.0452C3.27292 2.07394 3.32622 2.11423 3.37013 2.16373L13.3701 13.1637ZM8.52013 9.3156L4.32388 4.69935C4.05533 4.61621 3.77952 4.55866 3.50013 4.52748V7.02373C4.46409 7.11294 5.38754 7.45453 6.17752 8.0141C6.9675 8.57367 7.59613 9.33147 8.00013 10.2112C8.14498 9.89703 8.31908 9.59717 8.52013 9.3156Z" fill="black"/>
</g>
<defs>
<clipPath id="clip0_5_715">
<rect width="16" height="16" fill="white"/>
</clipPath>
</defs>
</svg>
