<svg width="16" height="16" viewBox="0 0 16 16" fill="none" xmlns="http://www.w3.org/2000/svg">
<g clip-path="url(#clip0_5_711)">
<path d="M14.5 3H1C0.867392 3 0.740215 3.05268 0.646447 3.14645C0.552678 3.24021 0.5 3.36739 0.5 3.5V13C0.5 13.1326 0.552678 13.2598 0.646447 13.3536C0.740215 13.4473 0.867392 13.5 1 13.5C1.13261 13.5 1.25979 13.4473 1.35355 13.3536C1.44732 13.2598 1.5 13.1326 1.5 13V12H2.5V13C2.5 13.1326 2.55268 13.2598 2.64645 13.3536C2.74021 13.4473 2.86739 13.5 3 13.5C3.13261 13.5 3.25979 13.4473 3.35355 13.3536C3.44732 13.2598 3.5 13.1326 3.5 13V12H4.5V13C4.5 13.1326 4.55268 13.2598 4.64645 13.3536C4.74021 13.4473 4.86739 13.5 5 13.5C5.13261 13.5 5.25979 13.4473 5.35355 13.3536C5.44732 13.2598 5.5 13.1326 5.5 13V12H6.5V13C6.5 13.1326 6.55268 13.2598 6.64645 13.3536C6.74021 13.4473 6.86739 13.5 7 13.5C7.13261 13.5 7.25979 13.4473 7.35355 13.3536C7.44732 13.2598 7.5 13.1326 7.5 13V12H14.5C14.7652 12 15.0196 11.8946 15.2071 11.7071C15.3946 11.5196 15.5 11.2652 15.5 11V4C15.5 3.73478 15.3946 3.48043 15.2071 3.29289C15.0196 3.10536 14.7652 3 14.5 3ZM13.25 7.5C13.2505 7.92384 13.1306 8.33911 12.9044 8.6975L9.8025 5.59562C10.1429 5.38162 10.5345 5.26275 10.9364 5.25138C11.3383 5.24002 11.736 5.33657 12.0879 5.53099C12.4399 5.72542 12.7333 6.01061 12.9377 6.35689C13.1421 6.70318 13.2499 7.0979 13.25 7.5ZM7.25 7.5C7.2505 7.92384 7.13065 8.33911 6.90438 8.6975L3.8025 5.59562C4.14292 5.38162 4.53446 5.26275 4.9364 5.25138C5.33833 5.24002 5.73597 5.33657 6.08793 5.53099C6.4399 5.72542 6.73333 6.01061 6.9377 6.35689C7.14207 6.70318 7.24991 7.0979 7.25 7.5ZM5 9.75C4.5979 9.74991 4.20318 9.64207 3.85689 9.4377C3.51061 9.23333 3.22542 8.9399 3.03099 8.58793C2.83657 8.23597 2.74002 7.83833 2.75138 7.4364C2.76275 7.03446 2.88162 6.64292 3.09562 6.3025L6.1975 9.40438C5.83911 9.63065 5.42384 9.7505 5 9.75ZM8.75 7.5C8.7495 7.07616 8.86935 6.66089 9.09562 6.3025L12.1975 9.40438C11.8571 9.61838 11.4655 9.73725 11.0636 9.74862C10.6617 9.75998 10.264 9.66343 9.91207 9.46901C9.5601 9.27458 9.26667 8.98939 9.0623 8.64311C8.85793 8.29682 8.75009 7.9021 8.75 7.5Z" fill="black"/>
</g>
<defs>
<clipPath id="clip0_5_711">
<rect width="16" height="16" fill="white"/>
</clipPath>
</defs>
</svg>
