<svg width="16" height="16" viewBox="0 0 16 16" fill="none" xmlns="http://www.w3.org/2000/svg">
<g clip-path="url(#clip0_5_713)">
<path d="M12.5002 9.49999C12.0582 9.49976 11.6288 9.64665 11.2795 9.91749L9.83517 8.79249C9.94421 8.54252 10.0004 8.27271 10.0002 7.99999C10.0002 7.95374 10.0002 7.90749 9.99517 7.86187L10.822 7.58624C11.0836 7.98971 11.4818 8.28541 11.9437 8.4192C12.4056 8.55299 12.9002 8.5159 13.3369 8.31472C13.7737 8.11354 14.1233 7.76175 14.3218 7.32378C14.5203 6.88581 14.5544 6.39099 14.4178 5.92996C14.2811 5.46892 13.983 5.07254 13.5779 4.81341C13.1729 4.55429 12.688 4.44978 12.2122 4.51901C11.7363 4.58825 11.3014 4.82661 10.987 5.19042C10.6726 5.55423 10.4997 6.01914 10.5002 6.49999C10.5002 6.54624 10.5002 6.59249 10.5052 6.63812L9.6783 6.91374C9.49703 6.63351 9.24852 6.4031 8.95541 6.2435C8.6623 6.0839 8.33391 6.00019 8.00017 5.99999C7.88981 6.00022 7.77966 6.00942 7.6708 6.02749L7.2433 5.06249C7.61243 4.76755 7.86522 4.35144 7.95687 3.88792C8.04851 3.4244 7.97309 2.94339 7.74397 2.53017C7.51485 2.11694 7.14683 1.79818 6.70513 1.63037C6.26344 1.46257 5.7766 1.45657 5.3309 1.61342C4.8852 1.77028 4.50942 2.07987 4.27018 2.48732C4.03094 2.89477 3.94368 3.37377 4.02386 3.83941C4.10404 4.30505 4.3465 4.72727 4.70825 5.03122C5.06999 5.33518 5.52768 5.50125 6.00017 5.49999C6.11053 5.49976 6.22068 5.49057 6.32955 5.47249L6.75705 6.43499C6.39452 6.72192 6.1429 7.12585 6.04521 7.57775C5.94751 8.02964 6.0098 8.50144 6.22142 8.91249L4.61455 10.34C4.21016 10.0674 3.72023 9.9516 3.23659 10.0144C2.75295 10.0771 2.3088 10.3141 1.9874 10.6809C1.666 11.0478 1.48941 11.5192 1.49073 12.0069C1.49205 12.4946 1.67119 12.965 1.99458 13.3301C2.31796 13.6952 2.76339 13.9298 3.24736 13.9899C3.73133 14.0501 4.22063 13.9316 4.62353 13.6568C5.02643 13.382 5.31528 12.9697 5.43594 12.4972C5.55659 12.0246 5.50076 11.5243 5.27892 11.09L6.8858 9.66249C7.23371 9.89675 7.64663 10.0154 8.06583 10.0014C8.48503 9.98753 8.88918 9.8418 9.2208 9.58499L10.6652 10.71C10.5565 10.9592 10.5003 11.2281 10.5002 11.5C10.5002 11.8956 10.6175 12.2822 10.8372 12.6111C11.057 12.94 11.3694 13.1964 11.7348 13.3478C12.1003 13.4991 12.5024 13.5387 12.8904 13.4616C13.2783 13.3844 13.6347 13.1939 13.9144 12.9142C14.1941 12.6345 14.3846 12.2781 14.4617 11.8902C14.5389 11.5022 14.4993 11.1001 14.3479 10.7346C14.1966 10.3692 13.9402 10.0568 13.6113 9.83705C13.2824 9.61729 12.8957 9.49999 12.5002 9.49999ZM12.5002 5.49999C12.698 5.49999 12.8913 5.55864 13.0557 5.66852C13.2202 5.7784 13.3484 5.93458 13.4241 6.11731C13.4997 6.30004 13.5195 6.5011 13.481 6.69508C13.4424 6.88906 13.3471 7.06725 13.2073 7.2071C13.0674 7.34695 12.8892 7.44219 12.6953 7.48078C12.5013 7.51936 12.3002 7.49956 12.1175 7.42387C11.9348 7.34819 11.7786 7.22001 11.6687 7.05556C11.5588 6.89111 11.5002 6.69777 11.5002 6.49999C11.5002 6.23478 11.6055 5.98042 11.7931 5.79289C11.9806 5.60535 12.235 5.49999 12.5002 5.49999ZM5.00017 3.49999C5.00017 3.30221 5.05882 3.10887 5.1687 2.94442C5.27858 2.77997 5.43476 2.6518 5.61749 2.57611C5.80021 2.50043 6.00128 2.48062 6.19526 2.51921C6.38924 2.55779 6.56742 2.65303 6.70728 2.79289C6.84713 2.93274 6.94237 3.11092 6.98096 3.3049C7.01954 3.49888 6.99974 3.69995 6.92405 3.88268C6.84836 4.0654 6.72019 4.22158 6.55574 4.33146C6.39129 4.44134 6.19795 4.49999 6.00017 4.49999C5.73495 4.49999 5.4806 4.39464 5.29306 4.2071C5.10553 4.01956 5.00017 3.76521 5.00017 3.49999ZM3.50017 13C3.30239 13 3.10905 12.9413 2.9446 12.8315C2.78015 12.7216 2.65198 12.5654 2.57629 12.3827C2.5006 12.2 2.4808 11.9989 2.51939 11.8049C2.55797 11.6109 2.65321 11.4327 2.79306 11.2929C2.93292 11.153 3.1111 11.0578 3.30508 11.0192C3.49906 10.9806 3.70013 11.0004 3.88285 11.0761C4.06558 11.1518 4.22176 11.28 4.33164 11.4444C4.44152 11.6089 4.50017 11.8022 4.50017 12C4.50017 12.2652 4.39481 12.5196 4.20728 12.7071C4.01974 12.8946 3.76539 13 3.50017 13ZM12.5002 12.5C12.3024 12.5 12.109 12.4413 11.9446 12.3315C11.7802 12.2216 11.652 12.0654 11.5763 11.8827C11.5006 11.7 11.4808 11.4989 11.5194 11.3049C11.558 11.1109 11.6532 10.9327 11.7931 10.7929C11.9329 10.653 12.1111 10.5578 12.3051 10.5192C12.4991 10.4806 12.7001 10.5004 12.8829 10.5761C13.0656 10.6518 13.2218 10.78 13.3316 10.9444C13.4415 11.1089 13.5002 11.3022 13.5002 11.5C13.5002 11.7652 13.3948 12.0196 13.2073 12.2071C13.0197 12.3946 12.7654 12.5 12.5002 12.5Z" fill="black"/>
</g>
<defs>
<clipPath id="clip0_5_713">
<rect width="16" height="16" fill="white"/>
</clipPath>
</defs>
</svg>
