<svg width="16" height="16" viewBox="0 0 16 16" fill="none" xmlns="http://www.w3.org/2000/svg">
<g clip-path="url(#clip0_5_707)">
<path d="M13 2H3C2.73478 2 2.48043 2.10536 2.29289 2.29289C2.10536 2.48043 2 2.73478 2 3V13C2 13.2652 2.10536 13.5196 2.29289 13.7071C2.48043 13.8946 2.73478 14 3 14H13C13.2652 14 13.5196 13.8946 13.7071 13.7071C13.8946 13.5196 14 13.2652 14 13V3C14 2.73478 13.8946 2.48043 13.7071 2.29289C13.5196 2.10536 13.2652 2 13 2ZM11.5 11.5H5C4.86739 11.5 4.74021 11.4473 4.64645 11.3536C4.55268 11.2598 4.5 11.1326 4.5 11C4.5 10.8674 4.55268 10.7402 4.64645 10.6464C4.74021 10.5527 4.86739 10.5 5 10.5H11.5C11.6326 10.5 11.7598 10.5527 11.8536 10.6464C11.9473 10.7402 12 10.8674 12 11C12 11.1326 11.9473 11.2598 11.8536 11.3536C11.7598 11.4473 11.6326 11.5 11.5 11.5ZM11.6469 7.47813L5.14687 9.47812C5.08409 9.49741 5.01811 9.50414 4.95272 9.49794C4.88733 9.49173 4.82381 9.4727 4.76577 9.44194C4.70773 9.41118 4.65632 9.36929 4.61448 9.31867C4.57263 9.26804 4.54116 9.20966 4.52187 9.14688C4.50259 9.08409 4.49585 9.01811 4.50206 8.95272C4.50827 8.88733 4.5273 8.82381 4.55806 8.76577C4.58882 8.70773 4.63071 8.65632 4.68133 8.61448C4.73196 8.57263 4.79034 8.54116 4.85313 8.52188L9.8 7L4.85313 5.47813C4.72632 5.43917 4.62018 5.35144 4.55806 5.23423C4.49594 5.11702 4.48292 4.97993 4.52187 4.85313C4.56083 4.72632 4.64856 4.62018 4.76577 4.55806C4.88298 4.49594 5.02007 4.48292 5.14687 4.52187L11.6469 6.52187C11.7493 6.5532 11.8389 6.61656 11.9026 6.70263C11.9662 6.7887 12.0006 6.89293 12.0006 7C12.0006 7.10707 11.9662 7.2113 11.9026 7.29737C11.8389 7.38344 11.7493 7.4468 11.6469 7.47813Z" fill="black"/>
</g>
<defs>
<clipPath id="clip0_5_707">
<rect width="16" height="16" fill="white"/>
</clipPath>
</defs>
</svg>
