<svg width="16" height="16" viewBox="0 0 16 16" fill="none" xmlns="http://www.w3.org/2000/svg">
<g clip-path="url(#clip0_5_708)">
<path d="M13 2H3C2.73478 2 2.48043 2.10536 2.29289 2.29289C2.10536 2.48043 2 2.73478 2 3V13C2 13.2652 2.10536 13.5196 2.29289 13.7071C2.48043 13.8946 2.73478 14 3 14H13C13.2652 14 13.5196 13.8946 13.7071 13.7071C13.8946 13.5196 14 13.2652 14 13V3C14 2.73478 13.8946 2.48043 13.7071 2.29289C13.5196 2.10536 13.2652 2 13 2ZM11.7094 8.45375L5.20937 11.4537C5.08983 11.5042 4.95537 11.5062 4.83438 11.4593C4.71339 11.4124 4.61537 11.3204 4.56101 11.2026C4.50664 11.0848 4.50021 10.9504 4.54305 10.828C4.5859 10.7055 4.67468 10.6045 4.79063 10.5463L10.3069 8L4.79063 5.45375C4.72885 5.42768 4.67294 5.38946 4.62624 5.34135C4.57953 5.29324 4.54298 5.23622 4.51876 5.1737C4.49454 5.11118 4.48314 5.04442 4.48524 4.9774C4.48734 4.91038 4.5029 4.84447 4.531 4.78359C4.55909 4.7227 4.59914 4.66809 4.64877 4.62301C4.6984 4.57792 4.75659 4.54327 4.81988 4.52113C4.88317 4.49898 4.95027 4.4898 5.01718 4.49411C5.08409 4.49843 5.14945 4.51616 5.20937 4.54625L11.7094 7.54625C11.796 7.58633 11.8693 7.65035 11.9207 7.73075C11.972 7.81116 11.9993 7.90458 11.9993 8C11.9993 8.09542 11.972 8.18884 11.9207 8.26925C11.8693 8.34965 11.796 8.41367 11.7094 8.45375Z" fill="black"/>
</g>
<defs>
<clipPath id="clip0_5_708">
<rect width="16" height="16" fill="white"/>
</clipPath>
</defs>
</svg>
