<svg width="16" height="16" viewBox="0 0 16 16" fill="none" xmlns="http://www.w3.org/2000/svg">
<g clip-path="url(#clip0_5_704)">
<path d="M15.6038 2.89628L13.1038 0.396284C13.0099 0.302464 12.8827 0.249756 12.75 0.249756C12.6173 0.249756 12.4901 0.302464 12.3963 0.396284C12.3024 0.490104 12.2497 0.617352 12.2497 0.750034C12.2497 0.882716 12.3024 1.00996 12.3963 1.10378L12.5431 1.25003L8.78251 5.01003C7.35813 4.26878 5.76313 4.33066 4.79688 5.29628C4.54189 5.55237 4.34215 5.85805 4.21001 6.19441C4.16943 6.2856 4.10323 6.36303 4.01945 6.41729C3.93568 6.47155 3.83794 6.5003 3.73813 6.50003C2.82626 6.53066 2.03438 6.85753 1.44751 7.44441C0.692508 8.20128 0.375008 9.28753 0.546258 10.5044C0.712508 11.6688 1.31688 12.8219 2.25001 13.75C3.18313 14.6782 4.33376 15.285 5.50001 15.4513C5.709 15.4825 5.91995 15.4988 6.13126 15.5C7.08876 15.5 7.93313 15.1732 8.55376 14.5525C9.14063 13.9657 9.46751 13.1738 9.49813 12.2619C9.49803 12.1619 9.52705 12.064 9.58166 11.9802C9.63627 11.8964 9.71409 11.8303 9.80563 11.79C10.142 11.658 10.4477 11.4582 10.7038 11.2032C11.6694 10.2369 11.7313 8.64066 10.99 7.21753L14.75 3.45691L14.8963 3.60378C14.9427 3.65024 14.9979 3.68709 15.0586 3.71223C15.1193 3.73737 15.1843 3.75031 15.25 3.75031C15.3157 3.75031 15.3808 3.73737 15.4415 3.71223C15.5022 3.68709 15.5573 3.65024 15.6038 3.60378C15.6502 3.55733 15.6871 3.50218 15.7122 3.44148C15.7373 3.38079 15.7503 3.31573 15.7503 3.25003C15.7503 3.18434 15.7373 3.11928 15.7122 3.05859C15.6871 2.99789 15.6502 2.94274 15.6038 2.89628ZM5.85376 12.8532C5.76 12.9469 5.63287 12.9995 5.50032 12.9995C5.36777 12.9995 5.24064 12.9469 5.14688 12.8532L3.14688 10.8532C3.05315 10.7593 3.00052 10.6321 3.00058 10.4995C3.00063 10.3669 3.05338 10.2397 3.1472 10.146C3.24102 10.0522 3.36823 9.99961 3.50085 9.99966C3.63348 9.99972 3.76065 10.0525 3.85438 10.1463L5.85438 12.1463C5.948 12.2401 6.00052 12.3673 6.0004 12.4999C6.00028 12.6324 5.94754 12.7595 5.85376 12.8532ZM8.48751 9.98691C8.24279 10.2317 7.93098 10.3985 7.59149 10.466C7.252 10.5336 6.9001 10.499 6.58029 10.3666C6.26048 10.2341 5.98712 10.0098 5.7948 9.72204C5.60248 9.43424 5.49982 9.09587 5.49982 8.74972C5.49982 8.40357 5.60248 8.0652 5.7948 7.7774C5.98712 7.4896 6.26048 7.2653 6.58029 7.13286C6.9001 7.00043 7.252 6.96582 7.59149 7.0334C7.93098 7.10098 8.24279 7.26772 8.48751 7.51253C8.81555 7.8407 8.99982 8.28572 8.99982 8.74972C8.99982 9.21373 8.81555 9.65874 8.48751 9.98691ZM10.4288 6.36191C10.311 6.21638 10.1859 6.07702 10.0538 5.94441C9.92107 5.81214 9.78151 5.68697 9.63563 5.56941L11 4.20691L11.7931 5.00003L10.4288 6.36191ZM12.5 4.29253L11.7075 3.50003L13.25 1.95691L14.0431 2.75003L12.5 4.29253Z" fill="black"/>
</g>
<defs>
<clipPath id="clip0_5_704">
<rect width="16" height="16" fill="white"/>
</clipPath>
</defs>
</svg>
