<svg width="16" height="16" viewBox="0 0 16 16" fill="none" xmlns="http://www.w3.org/2000/svg">
<g clip-path="url(#clip0_5_701)">
<path d="M11.0887 12.9137L13.0625 8.56688C13.6918 8.03995 14.1438 7.3322 14.3571 6.53963C14.5704 5.74706 14.5348 4.90806 14.255 4.13644C13.9752 3.36483 13.4648 2.69797 12.7931 2.22633C12.1213 1.75469 11.3208 1.50111 10.5 1.5C10.4724 1.50012 10.4448 1.50242 10.4175 1.50688L1.83563 2.9375C1.60215 2.97641 1.39004 3.09687 1.23704 3.27746C1.08403 3.45805 1.00004 3.68706 1 3.92375V7.07625C1.00004 7.31294 1.08403 7.54195 1.23704 7.72254C1.39004 7.90313 1.60215 8.02359 1.83563 8.0625L8 9.09V12.5C8 12.7652 8.10536 13.0196 8.29289 13.2071C8.48043 13.3946 8.73478 13.5 9 13.5C9 14.163 9.26339 14.7989 9.73223 15.2678C10.2011 15.7366 10.837 16 11.5 16H12.5C12.6326 16 12.7598 15.9473 12.8536 15.8536C12.9473 15.7598 13 15.6326 13 15.5C13 15.3674 12.9473 15.2402 12.8536 15.1464C12.7598 15.0527 12.6326 15 12.5 15H11.5C11.1022 15 10.7206 14.842 10.4393 14.5607C10.158 14.2794 10 13.8978 10 13.5H10.1781C10.3702 13.5 10.5582 13.4448 10.7197 13.3408C10.8812 13.2369 11.0093 13.0886 11.0887 12.9137ZM12 5.5C12 5.79667 11.912 6.08668 11.7472 6.33336C11.5824 6.58003 11.3481 6.77229 11.074 6.88582C10.7999 6.99935 10.4983 7.02906 10.2074 6.97118C9.91639 6.9133 9.64912 6.77044 9.43934 6.56066C9.22956 6.35088 9.0867 6.08361 9.02882 5.79264C8.97094 5.50166 9.00065 5.20006 9.11418 4.92597C9.22771 4.65189 9.41997 4.41762 9.66665 4.2528C9.91332 4.08797 10.2033 4 10.5 4C10.8978 4 11.2794 4.15804 11.5607 4.43934C11.842 4.72064 12 5.10218 12 5.5ZM10.4175 9.49312C10.4448 9.49758 10.4724 9.49988 10.5 9.5C10.8769 9.4999 11.2519 9.44645 11.6138 9.34125L10.1763 12.5H9V9.25688L10.4175 9.49312Z" fill="black"/>
</g>
<defs>
<clipPath id="clip0_5_701">
<rect width="16" height="16" fill="white"/>
</clipPath>
</defs>
</svg>
