<svg width="16" height="16" viewBox="0 0 16 16" fill="none" xmlns="http://www.w3.org/2000/svg">
<g clip-path="url(#clip0_5_699)">
<path d="M2.22375 6.12875C2.12945 6.01273 2.06236 5.87705 2.02742 5.73168C1.99249 5.5863 1.99059 5.43495 2.02187 5.28875C2.48625 3.09375 5 1.5 8 1.5C11 1.5 13.5138 3.09375 13.9781 5.28875C14.0097 5.43506 14.0081 5.5866 13.9734 5.73219C13.9386 5.87779 13.8716 6.01372 13.7773 6.12997C13.683 6.24622 13.5638 6.33982 13.4285 6.40386C13.2933 6.46791 13.1453 6.50076 12.9956 6.5H3.00437C2.85477 6.50045 2.70698 6.46733 2.57188 6.40308C2.43678 6.33883 2.31781 6.24508 2.22375 6.12875ZM14.3287 9.53L11.7581 10.4675L9.4375 9.53563C9.31834 9.48798 9.18541 9.48798 9.06625 9.53563L6.75375 10.4613L4.4375 9.53563C4.32347 9.49007 4.19666 9.48807 4.08125 9.53L1.33125 10.53C1.21502 10.5812 1.12262 10.6746 1.07279 10.7914C1.02296 10.9082 1.01944 11.0396 1.06294 11.1589C1.10645 11.2782 1.19372 11.3765 1.30704 11.4338C1.42037 11.4911 1.55125 11.5032 1.67313 11.4675L2.5 11.1681V11.5C2.5 12.163 2.76339 12.7989 3.23223 13.2678C3.70107 13.7366 4.33696 14 5 14H11C11.663 14 12.2989 13.7366 12.7678 13.2678C13.2366 12.7989 13.5 12.163 13.5 11.5V10.8956L14.6706 10.47C14.7363 10.4508 14.7973 10.4183 14.8499 10.3746C14.9025 10.3309 14.9455 10.2768 14.9764 10.2158C15.0072 10.1547 15.0253 10.088 15.0293 10.0197C15.0334 9.95147 15.0234 9.88309 14.9999 9.81883C14.9765 9.75457 14.9401 9.69581 14.8931 9.64617C14.846 9.59653 14.7893 9.55707 14.7264 9.53023C14.6635 9.50339 14.5957 9.48975 14.5273 9.49014C14.4589 9.49053 14.3913 9.50495 14.3287 9.5325V9.53ZM1.5 8.5H14.5C14.6326 8.5 14.7598 8.44732 14.8536 8.35355C14.9473 8.25979 15 8.13261 15 8C15 7.86739 14.9473 7.74021 14.8536 7.64645C14.7598 7.55268 14.6326 7.5 14.5 7.5H1.5C1.36739 7.5 1.24021 7.55268 1.14645 7.64645C1.05268 7.74021 1 7.86739 1 8C1 8.13261 1.05268 8.25979 1.14645 8.35355C1.24021 8.44732 1.36739 8.5 1.5 8.5Z" fill="black"/>
</g>
<defs>
<clipPath id="clip0_5_699">
<rect width="16" height="16" fill="white"/>
</clipPath>
</defs>
</svg>
