<svg width="16" height="16" viewBox="0 0 16 16" fill="none" xmlns="http://www.w3.org/2000/svg">
<g clip-path="url(#clip0_5_698)">
<path d="M15.7087 6.99995L11.4925 2.75495C10.3664 1.63115 8.84055 1 7.24967 1C5.6588 1 4.1329 1.63115 3.00686 2.75495L3.00124 2.76057L2.14061 3.64995C2.05146 3.74576 2.00342 3.8727 2.00682 4.00353C2.01021 4.13435 2.06477 4.25863 2.15877 4.34969C2.25277 4.44075 2.37872 4.49132 2.50959 4.49055C2.64046 4.48978 2.76581 4.43773 2.85874 4.34557L3.71686 3.45932C4.0621 3.11415 4.45608 2.82145 4.88624 2.59057L7.79249 5.49995L1.79249 11.4999C1.6996 11.5928 1.62592 11.7031 1.57565 11.8244C1.52539 11.9457 1.49951 12.0758 1.49951 12.2071C1.49951 12.3385 1.52539 12.4685 1.57565 12.5899C1.62592 12.7112 1.6996 12.8215 1.79249 12.9143L3.08561 14.2074C3.17847 14.3003 3.28872 14.374 3.41006 14.4243C3.5314 14.4745 3.66146 14.5004 3.7928 14.5004C3.92414 14.5004 4.05419 14.4745 4.17553 14.4243C4.29687 14.374 4.40712 14.3003 4.49999 14.2074L10.5 8.20745L12.5 10.2074C12.5928 10.3003 12.7031 10.374 12.8244 10.4243C12.9458 10.4745 13.0758 10.5004 13.2072 10.5004C13.3385 10.5004 13.4686 10.4745 13.5899 10.4243C13.7113 10.374 13.8215 10.3003 13.9144 10.2074L15.7075 8.41432C15.8005 8.32154 15.8742 8.21136 15.9246 8.09006C15.975 7.96877 16.001 7.83873 16.0011 7.70739C16.0012 7.57605 15.9754 7.44597 15.9253 7.32459C15.8751 7.2032 15.8015 7.09289 15.7087 6.99995ZM10.1462 7.14557L8.74999 8.54182L7.45686 7.24995L8.85374 5.85307C8.90022 5.80664 8.9371 5.75149 8.96227 5.69079C8.98743 5.63009 9.00038 5.56503 9.00038 5.49932C9.00038 5.43361 8.98743 5.36855 8.96227 5.30785C8.9371 5.24715 8.90022 5.19201 8.85374 5.14557L5.89499 2.18745C6.74982 1.94669 7.65335 1.93797 8.51267 2.16216C9.372 2.38636 10.1561 2.83538 10.7844 3.46307L13.5481 6.24495L11.75 8.0412L10.8537 7.14495C10.8073 7.09846 10.7522 7.06158 10.6915 7.03642C10.6308 7.01125 10.5657 6.9983 10.5 6.9983C10.4343 6.9983 10.3692 7.01125 10.3085 7.03642C10.2478 7.06158 10.1927 7.09846 10.1462 7.14495V7.14557ZM13.2087 9.49932L12.4587 8.74932L14.25 6.95307L15 7.70307L13.2087 9.49932Z" fill="black"/>
</g>
<defs>
<clipPath id="clip0_5_698">
<rect width="16" height="16" fill="white"/>
</clipPath>
</defs>
</svg>
