<svg width="16" height="16" viewBox="0 0 16 16" fill="none" xmlns="http://www.w3.org/2000/svg">
<g clip-path="url(#clip0_5_690)">
<path d="M14 6.50006V9.68318C14 12.5707 11.6969 14.9676 8.81251 14.9994C8.11246 15.0089 7.41763 14.8777 6.76919 14.6137C6.12076 14.3497 5.5319 13.9583 5.03751 13.4626C3.67438 12.0207 2.13438 8.50006 2.13438 8.50006C2.06664 8.38282 2.02342 8.25305 2.00733 8.1186C1.99124 7.98416 2.00262 7.84785 2.04078 7.71793C2.07894 7.58802 2.14309 7.46721 2.22934 7.36283C2.31558 7.25844 2.42212 7.17266 2.54251 7.11068C3.02126 6.86068 3.61126 7.05819 3.88001 7.52444L5.19251 9.80194C5.22901 9.86751 5.28409 9.92083 5.35081 9.95519C5.41753 9.98956 5.49293 10.0034 5.56751 9.99506H5.57501C5.69511 9.97439 5.8039 9.91154 5.88181 9.81782C5.95971 9.72411 6.00163 9.60567 6.00001 9.48381V2.00006C5.99985 1.86459 6.02722 1.7305 6.08046 1.60593C6.1337 1.48135 6.21169 1.3689 6.30971 1.27538C6.40772 1.18186 6.52372 1.10924 6.65066 1.06191C6.77759 1.01458 6.91282 0.99354 7.04813 1.00006C7.58626 1.02506 8.00001 1.48881 8.00001 2.02694V6.50006C7.99986 6.5686 8.0138 6.63645 8.04098 6.69937C8.06815 6.7623 8.10797 6.81897 8.15797 6.86586C8.20796 6.91275 8.26707 6.94886 8.3316 6.97195C8.39614 6.99503 8.46474 7.0046 8.53313 7.00006C8.66171 6.98902 8.78133 6.9297 8.86795 6.83404C8.95456 6.73838 9.00175 6.61347 9.00001 6.48444V5.50006C8.99985 5.36459 9.02722 5.2305 9.08046 5.10593C9.1337 4.98135 9.21169 4.8689 9.30971 4.77538C9.40772 4.68186 9.52372 4.60924 9.65066 4.56191C9.77759 4.51458 9.91282 4.49354 10.0481 4.50006C10.5863 4.52506 11 4.98881 11 5.52694V7.00006C10.9999 7.0686 11.0138 7.13645 11.041 7.19937C11.0681 7.2623 11.108 7.31897 11.158 7.36586C11.208 7.41275 11.2671 7.44886 11.3316 7.47195C11.3961 7.49503 11.4647 7.5046 11.5331 7.50006C11.6617 7.48902 11.7813 7.4297 11.8679 7.33404C11.9546 7.23838 12.0017 7.11347 12 6.98444V6.52944C12 5.99131 12.4138 5.52944 12.9519 5.50256C13.087 5.49605 13.222 5.51702 13.3488 5.56419C13.4755 5.61137 13.5914 5.68377 13.6894 5.77702C13.7874 5.87027 13.8654 5.98242 13.9188 6.1067C13.9722 6.23098 13.9998 6.3648 14 6.50006Z" fill="black"/>
</g>
<defs>
<clipPath id="clip0_5_690">
<rect width="16" height="16" fill="white"/>
</clipPath>
</defs>
</svg>
