<svg width="16" height="16" viewBox="0 0 16 16" fill="none" xmlns="http://www.w3.org/2000/svg">
<g clip-path="url(#clip0_5_733)">
<path d="M11.5 6.05V5.5C11.5 4.96957 11.2893 4.46086 10.9142 4.08579C10.5391 3.71071 10.0304 3.5 9.5 3.5H8.5V2H10.5C10.6326 2 10.7598 2.05268 10.8536 2.14645C10.9473 2.24021 11 2.36739 11 2.5C11 2.63261 11.0527 2.75979 11.1464 2.85355C11.2402 2.94732 11.3674 3 11.5 3C11.6326 3 11.7598 2.94732 11.8536 2.85355C11.9473 2.75979 12 2.63261 12 2.5C12 2.10218 11.842 1.72064 11.5607 1.43934C11.2794 1.15804 10.8978 1 10.5 1H6.5C6.36739 1 6.24021 1.05268 6.14645 1.14645C6.05268 1.24021 6 1.36739 6 1.5C6 1.63261 6.05268 1.75979 6.14645 1.85355C6.24021 1.94732 6.36739 2 6.5 2H7.5V3.5H6.5C5.96957 3.5 5.46086 3.71071 5.08579 4.08579C4.71071 4.46086 4.5 4.96957 4.5 5.5V6.05C3.9357 6.16603 3.42865 6.47306 3.06433 6.91935C2.70001 7.36564 2.5007 7.92389 2.5 8.5V13.5C2.5 13.7652 2.60536 14.0196 2.79289 14.2071C2.98043 14.3946 3.23478 14.5 3.5 14.5H12.5C12.7652 14.5 13.0196 14.3946 13.2071 14.2071C13.3946 14.0196 13.5 13.7652 13.5 13.5V8.5C13.4993 7.92389 13.3 7.36564 12.9357 6.91935C12.5714 6.47306 12.0643 6.16603 11.5 6.05ZM6.5 4.5H9.5C9.76522 4.5 10.0196 4.60536 10.2071 4.79289C10.3946 4.98043 10.5 5.23478 10.5 5.5V6H5.5V5.5C5.5 5.23478 5.60536 4.98043 5.79289 4.79289C5.98043 4.60536 6.23478 4.5 6.5 4.5Z" fill="black"/>
</g>
<defs>
<clipPath id="clip0_5_733">
<rect width="16" height="16" fill="white"/>
</clipPath>
</defs>
</svg>
