<svg width="16" height="16" viewBox="0 0 16 16" fill="none" xmlns="http://www.w3.org/2000/svg">
<g clip-path="url(#clip0_5_694)">
<path d="M14.3956 8.81628C14.2096 8.67312 13.993 8.5748 13.7628 8.52895C13.5325 8.4831 13.2948 8.49095 13.0681 8.5519L10.4531 9.15315C10.514 8.89615 10.5158 8.62871 10.4586 8.37087C10.4014 8.11304 10.2866 7.8715 10.1227 7.66436C9.95887 7.45722 9.75026 7.28985 9.51253 7.1748C9.2748 7.05975 9.01411 7 8.75 7.00003H5.62125C5.3585 6.99937 5.09822 7.05078 4.85546 7.1513C4.61269 7.25182 4.39225 7.39945 4.20687 7.58565L2.79312 9.00003H1C0.734784 9.00003 0.48043 9.10538 0.292893 9.29292C0.105357 9.48046 0 9.73481 0 10L0 12.5C0 12.7652 0.105357 13.0196 0.292893 13.2071C0.48043 13.3947 0.734784 13.5 1 13.5H7.5C7.54088 13.5 7.58161 13.495 7.62125 13.485L11.6213 12.485C11.6469 12.4789 11.672 12.4705 11.6962 12.46L14.125 11.4263L14.1525 11.4138C14.386 11.2971 14.5859 11.1229 14.7335 10.9076C14.881 10.6923 14.9713 10.443 14.9959 10.1832C15.0205 9.92332 14.9785 9.66149 14.8739 9.42236C14.7693 9.18322 14.6056 8.97464 14.3981 8.81628H14.3956ZM13.7144 10.5132L11.3394 11.5244L7.4375 12.5H3.5V9.7069L4.91437 8.29315C5.0069 8.19989 5.11703 8.12595 5.23839 8.07563C5.35974 8.02531 5.48988 7.99961 5.62125 8.00003H8.75C8.94891 8.00003 9.13968 8.07905 9.28033 8.2197C9.42098 8.36035 9.5 8.55112 9.5 8.75003C9.5 8.94894 9.42098 9.1397 9.28033 9.28036C9.13968 9.42101 8.94891 9.50003 8.75 9.50003H7C6.86739 9.50003 6.74021 9.5527 6.64645 9.64647C6.55268 9.74024 6.5 9.86742 6.5 10C6.5 10.1326 6.55268 10.2598 6.64645 10.3536C6.74021 10.4473 6.86739 10.5 7 10.5H9C9.03763 10.4999 9.07514 10.4957 9.11187 10.4875L13.2994 9.5244L13.3188 9.5194C13.4466 9.48391 13.583 9.49695 13.7018 9.55602C13.8206 9.61508 13.9134 9.71598 13.9622 9.83932C14.0111 9.96266 14.0126 10.0997 13.9665 10.2241C13.9204 10.3485 13.8299 10.4515 13.7125 10.5132H13.7144ZM9.64625 3.85378C9.59976 3.80734 9.56288 3.7522 9.53772 3.6915C9.51256 3.6308 9.49961 3.56573 9.49961 3.50003C9.49961 3.43432 9.51256 3.36926 9.53772 3.30856C9.56288 3.24786 9.59976 3.19271 9.64625 3.14628L11.6462 1.14628C11.6927 1.09979 11.7478 1.06291 11.8085 1.03775C11.8692 1.01259 11.9343 0.999634 12 0.999634C12.0657 0.999634 12.1308 1.01259 12.1915 1.03775C12.2522 1.06291 12.3073 1.09979 12.3538 1.14628L14.3538 3.14628C14.4002 3.19273 14.4371 3.24788 14.4622 3.30858C14.4873 3.36928 14.5003 3.43433 14.5003 3.50003C14.5003 3.56572 14.4873 3.63078 14.4622 3.69148C14.4371 3.75217 14.4002 3.80732 14.3538 3.85378C14.3073 3.90023 14.2521 3.93708 14.1914 3.96222C14.1308 3.98737 14.0657 4.00031 14 4.00031C13.9343 4.00031 13.8692 3.98737 13.8086 3.96222C13.7479 3.93708 13.6927 3.90023 13.6462 3.85378L12.5 2.7069V6.50003C12.5 6.63264 12.4473 6.75981 12.3536 6.85358C12.2598 6.94735 12.1326 7.00003 12 7.00003C11.8674 7.00003 11.7402 6.94735 11.6464 6.85358C11.5527 6.75981 11.5 6.63264 11.5 6.50003V2.7069L10.3538 3.85378C10.3073 3.90027 10.2522 3.93714 10.1915 3.96231C10.1308 3.98747 10.0657 4.00042 10 4.00042C9.93429 4.00042 9.86923 3.98747 9.80853 3.96231C9.74783 3.93714 9.69269 3.90027 9.64625 3.85378Z" fill="black"/>
</g>
<defs>
<clipPath id="clip0_5_694">
<rect width="16" height="16" fill="white"/>
</clipPath>
</defs>
</svg>
