<svg width="16" height="16" viewBox="0 0 16 16" fill="none" xmlns="http://www.w3.org/2000/svg">
<g clip-path="url(#clip0_5_691)">
<path d="M13.5 6.5V9.5C13.5 10.9587 12.9205 12.3576 11.8891 13.3891C10.8576 14.4205 9.45869 15 8 15C6.54131 15 5.14236 14.4205 4.11091 13.3891C3.07946 12.3576 2.5 10.9587 2.5 9.5V8.5C2.5 8.23478 2.60536 7.98043 2.79289 7.79289C2.98043 7.60536 3.23478 7.5 3.5 7.5C3.76522 7.5 4.01957 7.60536 4.20711 7.79289C4.39464 7.98043 4.5 8.23478 4.5 8.5V9C4.5 9.13261 4.55268 9.25979 4.64645 9.35355C4.74021 9.44732 4.86739 9.5 5 9.5C5.13261 9.5 5.25979 9.44732 5.35355 9.35355C5.44732 9.25979 5.5 9.13261 5.5 9V5.5C5.5 5.23478 5.60536 4.98043 5.79289 4.79289C5.98043 4.60536 6.23478 4.5 6.5 4.5C6.76522 4.5 7.01957 4.60536 7.20711 4.79289C7.39464 4.98043 7.5 5.23478 7.5 5.5V6.5C7.5 6.63261 7.55268 6.75979 7.64645 6.85355C7.74021 6.94732 7.86739 7 8 7C8.13261 7 8.25979 6.94732 8.35355 6.85355C8.44732 6.75979 8.5 6.63261 8.5 6.5V5.5C8.5 5.23478 8.60536 4.98043 8.79289 4.79289C8.98043 4.60536 9.23478 4.5 9.5 4.5C9.76522 4.5 10.0196 4.60536 10.2071 4.79289C10.3946 4.98043 10.5 5.23478 10.5 5.5V6.5C10.5 6.63261 10.5527 6.75979 10.6464 6.85355C10.7402 6.94732 10.8674 7 11 7C11.1326 7 11.2598 6.94732 11.3536 6.85355C11.4473 6.75979 11.5 6.63261 11.5 6.5C11.5 6.23478 11.6054 5.98043 11.7929 5.79289C11.9804 5.60536 12.2348 5.5 12.5 5.5C12.7652 5.5 13.0196 5.60536 13.2071 5.79289C13.3946 5.98043 13.5 6.23478 13.5 6.5Z" fill="black"/>
</g>
<defs>
<clipPath id="clip0_5_691">
<rect width="16" height="16" fill="white"/>
</clipPath>
</defs>
</svg>
