<svg width="16" height="16" viewBox="0 0 16 16" fill="none" xmlns="http://www.w3.org/2000/svg">
<g clip-path="url(#clip0_5_743)">
<path d="M13.5 4.00006V9.68318C13.5 12.5707 11.1969 14.9676 8.31251 14.9994C7.61246 15.0089 6.91763 14.8777 6.26919 14.6137C5.62076 14.3497 5.0319 13.9583 4.53751 13.4626C3.17438 12.0207 1.63438 8.50006 1.63438 8.50006C1.56664 8.38282 1.52342 8.25305 1.50733 8.1186C1.49124 7.98416 1.50262 7.84785 1.54078 7.71793C1.57894 7.58802 1.64309 7.46721 1.72934 7.36283C1.81558 7.25844 1.92212 7.17266 2.04251 7.11068C2.52126 6.86068 3.11126 7.05819 3.38001 7.52444L4.69251 9.80194C4.72901 9.86751 4.78409 9.92083 4.85081 9.95519C4.91753 9.98956 4.99293 10.0034 5.06751 9.99506H5.07501C5.19511 9.97439 5.3039 9.91154 5.38181 9.81782C5.45971 9.72411 5.50163 9.60567 5.50001 9.48381V3.00006C5.49985 2.86459 5.52722 2.7305 5.58046 2.60593C5.6337 2.48135 5.71169 2.3689 5.80971 2.27538C5.90772 2.18186 6.02372 2.10924 6.15066 2.06191C6.27759 2.01458 6.41282 1.99354 6.54813 2.00006C7.08626 2.02506 7.50001 2.48881 7.50001 3.02694V7.00006C7.49986 7.0686 7.5138 7.13645 7.54098 7.19937C7.56815 7.2623 7.60797 7.31897 7.65797 7.36586C7.70796 7.41275 7.76707 7.44886 7.8316 7.47195C7.89614 7.49503 7.96474 7.5046 8.03313 7.50006C8.16171 7.48902 8.28133 7.4297 8.36795 7.33404C8.45456 7.23838 8.50175 7.11347 8.50001 6.98444V2.00006C8.49985 1.86459 8.52722 1.7305 8.58046 1.60593C8.6337 1.48135 8.71169 1.3689 8.80971 1.27538C8.90772 1.18186 9.02372 1.10924 9.15066 1.06191C9.27759 1.01458 9.41282 0.99354 9.54813 1.00006C10.0863 1.02506 10.5 1.48881 10.5 2.02694V7.50006C10.4999 7.5686 10.5138 7.63645 10.541 7.69937C10.5681 7.7623 10.608 7.81897 10.658 7.86586C10.708 7.91275 10.7671 7.94886 10.8316 7.97195C10.8961 7.99503 10.9647 8.0046 11.0331 8.00006C11.1617 7.98902 11.2813 7.9297 11.3679 7.83404C11.4546 7.73838 11.5017 7.61347 11.5 7.48444V4.02818C11.5 3.49006 11.9138 3.02819 12.4519 3.00131C12.5871 2.9948 12.7222 3.0158 12.8491 3.06305C12.9759 3.1103 13.0919 3.18282 13.1899 3.2762C13.2879 3.36958 13.3659 3.48189 13.4192 3.60631C13.4725 3.73074 13.5 3.86469 13.5 4.00006Z" fill="black"/>
</g>
<defs>
<clipPath id="clip0_5_743">
<rect width="16" height="16" fill="white"/>
</clipPath>
</defs>
</svg>
