<svg width="16" height="16" viewBox="0 0 16 16" fill="none" xmlns="http://www.w3.org/2000/svg">
<g clip-path="url(#clip0_5_697)">
<path d="M14.3956 8.81625C14.2096 8.67297 13.9931 8.57457 13.7628 8.52871C13.5326 8.48285 13.2948 8.49078 13.0681 8.55188L10.4531 9.15312C10.514 8.89612 10.5158 8.62868 10.4586 8.37084C10.4014 8.11301 10.2866 7.87147 10.1227 7.66433C9.95887 7.45719 9.75026 7.28982 9.51253 7.17477C9.2748 7.05972 9.01411 6.99997 8.75 7H5.62125C5.3585 6.99934 5.09822 7.05076 4.85546 7.15127C4.61269 7.25179 4.39225 7.39942 4.20687 7.58563L2.79312 9H1C0.734784 9 0.48043 9.10536 0.292893 9.29289C0.105357 9.48043 0 9.73478 0 10L0 12.5C0 12.7652 0.105357 13.0196 0.292893 13.2071C0.48043 13.3946 0.734784 13.5 1 13.5H7.5C7.54088 13.5 7.58161 13.495 7.62125 13.485L11.6213 12.485C11.6467 12.4789 11.6716 12.4706 11.6956 12.46L14.125 11.4263L14.1525 11.4137C14.386 11.2971 14.5859 11.1229 14.7335 10.9076C14.881 10.6923 14.9713 10.443 14.9959 10.1831C15.0205 9.92329 14.9785 9.66147 14.8739 9.42233C14.7693 9.18319 14.6056 8.97462 14.3981 8.81625H14.3956ZM13.7144 10.5131L11.3394 11.5244L7.4375 12.5H3.5V9.70687L4.91437 8.29313C5.0069 8.19986 5.11703 8.12592 5.23839 8.0756C5.35974 8.02528 5.48988 7.99958 5.62125 8H8.75C8.94891 8 9.13968 8.07902 9.28033 8.21967C9.42098 8.36032 9.5 8.55109 9.5 8.75C9.5 8.94891 9.42098 9.13968 9.28033 9.28033C9.13968 9.42098 8.94891 9.5 8.75 9.5H7C6.86739 9.5 6.74021 9.55268 6.64645 9.64645C6.55268 9.74021 6.5 9.86739 6.5 10C6.5 10.1326 6.55268 10.2598 6.64645 10.3536C6.74021 10.4473 6.86739 10.5 7 10.5H9C9.03763 10.4999 9.07514 10.4957 9.11187 10.4875L13.2994 9.52437L13.3188 9.51937C13.4466 9.48389 13.583 9.49693 13.7018 9.55599C13.8206 9.61505 13.9134 9.71595 13.9622 9.83929C14.0111 9.96263 14.0126 10.0997 13.9665 10.2241C13.9204 10.3485 13.8299 10.4514 13.7125 10.5131H13.7144ZM9.64625 4.85375C9.55243 4.75993 9.49972 4.63268 9.49972 4.5C9.49972 4.36732 9.55243 4.24007 9.64625 4.14625C9.74007 4.05243 9.86732 3.99972 10 3.99972C10.1327 3.99972 10.2599 4.05243 10.3538 4.14625L11.5 5.29313V1.5C11.5 1.36739 11.5527 1.24021 11.6464 1.14645C11.7402 1.05268 11.8674 1 12 1C12.1326 1 12.2598 1.05268 12.3536 1.14645C12.4473 1.24021 12.5 1.36739 12.5 1.5V5.29313L13.6462 4.14625C13.7401 4.05243 13.8673 3.99972 14 3.99972C14.1327 3.99972 14.2599 4.05243 14.3538 4.14625C14.4476 4.24007 14.5003 4.36732 14.5003 4.5C14.5003 4.63268 14.4476 4.75993 14.3538 4.85375L12.3538 6.85375C12.3073 6.90024 12.2522 6.93712 12.1915 6.96228C12.1308 6.98744 12.0657 7.00039 12 7.00039C11.9343 7.00039 11.8692 6.98744 11.8085 6.96228C11.7478 6.93712 11.6927 6.90024 11.6462 6.85375L9.64625 4.85375Z" fill="black"/>
</g>
<defs>
<clipPath id="clip0_5_697">
<rect width="16" height="16" fill="white"/>
</clipPath>
</defs>
</svg>
