<svg width="16" height="16" viewBox="0 0 16 16" fill="none" xmlns="http://www.w3.org/2000/svg">
<g clip-path="url(#clip0_5_1341)">
<path d="M11.8044 4.0625C11.6552 3.8035 11.4093 3.61437 11.1207 3.53672C10.832 3.45907 10.5244 3.49925 10.2654 3.64844C10.0064 3.79762 9.81724 4.04358 9.73959 4.33221C9.66194 4.62084 9.70212 4.9285 9.85131 5.1875L8.33506 2.5625C8.18587 2.30375 7.94001 2.11486 7.65156 2.03738C7.3631 1.95991 7.05569 2.00019 6.79693 2.14937C6.53818 2.29856 6.34929 2.54442 6.27181 2.83288C6.19434 3.12133 6.23462 3.42875 6.38381 3.6875L6.02506 3.0625C5.87587 2.80375 5.63001 2.61486 5.34156 2.53738C5.0531 2.45991 4.74569 2.50019 4.48693 2.64937C4.22818 2.79856 4.03929 3.04442 3.96182 3.33288C3.88434 3.62133 3.92462 3.92875 4.07381 4.1875L4.28256 4.54812C3.97315 4.47137 3.648 4.48731 3.34759 4.59397C3.04717 4.70063 2.78477 4.89329 2.59304 5.14798C2.40131 5.40267 2.28872 5.70812 2.2693 6.02631C2.24988 6.34451 2.32448 6.66139 2.48381 6.9375L2.67131 7.2625C2.40552 7.29622 2.15219 7.39514 1.93388 7.55045C1.71557 7.70576 1.53904 7.91263 1.42002 8.15266C1.30099 8.39269 1.24316 8.65842 1.25168 8.92621C1.26019 9.19399 1.33478 9.45552 1.46881 9.6875L3.67318 13.5C4.22344 14.4519 5.07162 15.1963 6.08689 15.6183C7.10215 16.0404 8.22808 16.1166 9.29098 15.8354C10.3539 15.5541 11.2947 14.9308 11.9683 14.0618C12.6419 13.1928 13.0108 12.1263 13.0182 11.0269C13.4638 10.3321 13.7095 9.52801 13.7284 8.70282C13.7472 7.87762 13.5385 7.06316 13.1251 6.34875L11.8044 4.0625ZM11.8794 12.035C11.6736 12.7997 11.2458 13.4863 10.6501 14.0081C10.0543 14.5299 9.31731 14.8635 8.53212 14.9667C7.74693 15.07 6.94875 14.9383 6.23836 14.5882C5.52797 14.2382 4.93721 13.6855 4.54068 13L2.33631 9.1875C2.29527 9.11634 2.26865 9.03779 2.25797 8.95635C2.24729 8.8749 2.25275 8.79214 2.27405 8.71281C2.29535 8.63347 2.33207 8.55911 2.3821 8.49396C2.43214 8.42881 2.49452 8.37416 2.56568 8.33313C2.7094 8.25025 2.88015 8.22785 3.04038 8.27087C3.11971 8.29216 3.19408 8.32888 3.25922 8.37892C3.32437 8.42896 3.37902 8.49134 3.42006 8.5625L4.68756 10.75C4.75386 10.865 4.86312 10.9489 4.99129 10.9833C5.11946 11.0177 5.25604 10.9997 5.371 10.9334C5.48595 10.8671 5.56986 10.7579 5.60426 10.6297C5.63866 10.5015 5.62074 10.365 5.55443 10.25L3.35131 6.4375C3.26843 6.29345 3.24616 6.12238 3.28942 5.96192C3.33267 5.80146 3.43789 5.66475 3.58193 5.58187C3.72598 5.49899 3.89705 5.47673 4.05751 5.51998C4.21797 5.56323 4.35468 5.66845 4.43756 5.8125L6.42568 9.25C6.49199 9.36495 6.60124 9.44886 6.72941 9.48326C6.85758 9.51766 6.99417 9.49974 7.10912 9.43344C7.22408 9.36713 7.30798 9.25788 7.34238 9.12971C7.37679 9.00154 7.35886 8.86495 7.29256 8.75L5.66756 5.9375C5.58468 5.7937 5.56232 5.62287 5.60539 5.46259C5.64847 5.3023 5.75345 5.16569 5.89725 5.08281C6.04104 4.99993 6.21187 4.97757 6.37216 5.02064C6.53244 5.06372 6.66905 5.1687 6.75193 5.3125L9.03318 9.25C9.09949 9.36495 9.20874 9.44886 9.33691 9.48326C9.46508 9.51766 9.60167 9.49974 9.71662 9.43344C9.83158 9.36713 9.91548 9.25788 9.94989 9.12971C9.98429 9.00154 9.96636 8.86495 9.90006 8.75L9.11256 7.39062C9.0529 7.2465 9.0493 7.08528 9.10244 6.93864C9.15559 6.79199 9.26165 6.67052 9.39979 6.59808C9.53793 6.52564 9.69817 6.50747 9.84902 6.54715C9.99987 6.58682 10.1304 6.68147 10.2151 6.8125L11.4788 9C11.7432 9.45427 11.9148 9.95653 11.9836 10.4776C12.0523 10.9987 12.0169 11.5283 11.8794 12.0356V12.035ZM10.0138 1.5V0.5C10.0138 0.367392 10.0665 0.240215 10.1603 0.146447C10.254 0.0526784 10.3812 0 10.5138 0C10.6464 0 10.7736 0.0526784 10.8674 0.146447C10.9611 0.240215 11.0138 0.367392 11.0138 0.5V1.5C11.0138 1.63261 10.9611 1.75979 10.8674 1.85355C10.7736 1.94732 10.6464 2 10.5138 2C10.3812 2 10.254 1.94732 10.1603 1.85355C10.0665 1.75979 10.0138 1.63261 10.0138 1.5ZM12.0901 1.875L12.5901 1.05625C12.6242 1.00011 12.6692 0.951253 12.7222 0.912468C12.7753 0.873683 12.8355 0.84573 12.8993 0.830206C12.9632 0.814681 13.0295 0.811888 13.0945 0.821987C13.1594 0.832085 13.2217 0.854878 13.2779 0.889063C13.334 0.923247 13.3829 0.968155 13.4217 1.02122C13.4604 1.07429 13.4884 1.13447 13.5039 1.19834C13.5194 1.26221 13.5222 1.32851 13.5121 1.39346C13.502 1.45841 13.4792 1.52073 13.4451 1.57687L12.9451 2.39625C12.9003 2.46948 12.8375 2.52997 12.7626 2.57189C12.6878 2.61381 12.6034 2.63576 12.5176 2.63562C12.4287 2.63577 12.3414 2.61221 12.2646 2.56739C12.1879 2.52256 12.1244 2.45809 12.0809 2.3806C12.0373 2.30312 12.0152 2.21543 12.0168 2.12656C12.0185 2.03769 12.0437 1.95085 12.0901 1.875ZM14.9026 3.97875L13.9619 4.28188C13.9122 4.29783 13.8604 4.30605 13.8082 4.30625C13.6888 4.30661 13.5732 4.26423 13.4824 4.1868C13.3915 4.10936 13.3314 4.00197 13.3128 3.88404C13.2942 3.76611 13.3184 3.64543 13.3811 3.54381C13.4438 3.4422 13.5407 3.36635 13.6544 3.33L14.5957 3.02688C14.7219 2.98618 14.8591 2.9973 14.9772 3.05778C15.0952 3.11826 15.1844 3.22315 15.2251 3.34938C15.2658 3.4756 15.2546 3.61282 15.1942 3.73085C15.1337 3.84889 15.0288 3.93806 14.9026 3.97875Z" fill="black"/>
</g>
<defs>
<clipPath id="clip0_5_1341">
<rect width="16" height="16" fill="white"/>
</clipPath>
</defs>
</svg>
