<svg width="16" height="16" viewBox="0 0 16 16" fill="none" xmlns="http://www.w3.org/2000/svg">
<g clip-path="url(#clip0_5_1604)">
<path d="M13.7068 6.15381C14.0782 6.7789 14.322 7.47143 14.424 8.19133C14.526 8.91124 14.4843 9.64423 14.3012 10.3479C14.1182 11.0516 13.7974 11.712 13.3575 12.2909C12.9175 12.8698 12.3672 13.3557 11.7383 13.7206C11.1093 14.0854 10.4143 14.3219 9.69337 14.4165C8.97244 14.511 8.23992 14.4616 7.5382 14.2712C6.83647 14.0808 6.17946 13.7532 5.60517 13.3072C5.03088 12.8613 4.55072 12.3059 4.19245 11.6732L1.63432 7.24256C1.51264 7.01377 1.48452 6.74668 1.55589 6.49757C1.62725 6.24846 1.79253 6.03678 2.0169 5.90713C2.24127 5.77748 2.50721 5.74 2.75868 5.80257C3.01014 5.86514 3.2275 6.02288 3.36495 6.24256L4.52495 8.25006C4.55778 8.30694 4.60149 8.35679 4.65359 8.39678C4.70569 8.43676 4.76515 8.4661 4.82859 8.4831C4.89202 8.50011 4.95818 8.50445 5.02329 8.49588C5.08841 8.48732 5.1512 8.46601 5.20807 8.43318C5.26495 8.40035 5.31481 8.35664 5.35479 8.30454C5.39478 8.25245 5.42411 8.19298 5.44112 8.12955C5.45812 8.06611 5.46247 7.99995 5.4539 7.93484C5.44534 7.86973 5.42403 7.80694 5.3912 7.75006L2.93745 3.50006C2.81577 3.27127 2.78764 3.00418 2.85901 2.75507C2.93038 2.50596 3.09566 2.29428 3.32003 2.16463C3.5444 2.03498 3.81034 1.9975 4.0618 2.06007C4.31327 2.12264 4.53062 2.28038 4.66807 2.50006L7.12495 6.75006C7.15681 6.80874 7.2001 6.86044 7.25227 6.90211C7.30444 6.94378 7.36442 6.97459 7.42869 6.9927C7.49295 7.01082 7.56019 7.01588 7.62644 7.00759C7.6927 6.9993 7.75662 6.97782 7.81443 6.94442C7.87225 6.91103 7.92279 6.86639 7.96308 6.81314C8.00337 6.7599 8.03258 6.69912 8.049 6.6344C8.06541 6.56968 8.0687 6.50233 8.05867 6.43632C8.04863 6.37031 8.02548 6.30698 7.99057 6.25006L6.11557 3.00006C5.98685 2.77063 5.95371 2.49971 6.02336 2.24601C6.093 1.99232 6.25982 1.77629 6.48764 1.64474C6.71547 1.51319 6.98596 1.47672 7.24049 1.54323C7.49503 1.60974 7.7131 1.77387 7.84745 2.00006L10.3749 6.38256C9.81607 6.94579 9.50168 7.7066 9.49995 8.50006C9.49808 9.14947 9.70881 9.78165 10.0999 10.3001C10.1389 10.3537 10.1882 10.3991 10.2449 10.4335C10.3016 10.4679 10.3646 10.4907 10.4302 10.5005C10.4958 10.5104 10.5627 10.5071 10.627 10.4908C10.6913 10.4745 10.7517 10.4456 10.8047 10.4058C10.8578 10.366 10.9023 10.316 10.9358 10.2587C10.9694 10.2015 10.9912 10.1382 11 10.0724C11.0088 10.0067 11.0044 9.93985 10.9871 9.87582C10.9698 9.81178 10.94 9.75182 10.8993 9.69943C10.7412 9.48827 10.6264 9.2479 10.5615 8.99217C10.4966 8.73644 10.483 8.4704 10.5214 8.20938C10.5598 7.94837 10.6495 7.69753 10.7852 7.47131C10.921 7.2451 11.1002 7.04798 11.3124 6.89131C11.4112 6.81827 11.4795 6.71145 11.5046 6.59123C11.5296 6.47101 11.5095 6.34579 11.4481 6.23943L10.7318 5.00006C10.6031 4.77063 10.57 4.49971 10.6396 4.24601C10.7093 3.99232 10.8761 3.77629 11.1039 3.64474C11.3317 3.51319 11.6022 3.47672 11.8567 3.54323C12.1113 3.60974 12.3293 3.77387 12.4637 4.00006L13.7068 6.15381ZM11.8712 2.59131C12.2215 2.68362 12.55 2.84465 12.8376 3.06504C13.1251 3.28542 13.366 3.56076 13.5462 3.87506L13.5668 3.91068C13.6331 4.02556 13.7423 4.10938 13.8705 4.14373C13.9339 4.16073 14.0001 4.16508 14.0652 4.15651C14.1303 4.14795 14.1931 4.12664 14.2499 4.09381C14.3068 4.06098 14.3567 4.01727 14.3967 3.96517C14.4367 3.91307 14.466 3.85361 14.483 3.79017C14.5 3.72674 14.5043 3.66058 14.4958 3.59546C14.4872 3.53035 14.4659 3.46756 14.4331 3.41068L14.4124 3.37506C14.1667 2.9466 13.8383 2.57126 13.4462 2.27083C13.0542 1.97041 12.6063 1.7509 12.1287 1.62506C12.0009 1.59202 11.8653 1.61083 11.7513 1.67739C11.6374 1.74395 11.5544 1.85287 11.5204 1.98038C11.4864 2.1079 11.5042 2.24368 11.5699 2.35812C11.6356 2.47256 11.7439 2.55638 11.8712 2.59131ZM4.9737 14.1076C4.3258 13.5962 3.78165 12.9658 3.37057 12.2501C3.33774 12.1932 3.29403 12.1433 3.24193 12.1033C3.18984 12.0634 3.13037 12.034 3.06694 12.017C3.0035 12 2.93734 11.9957 2.87223 12.0042C2.80712 12.0128 2.74433 12.0341 2.68745 12.0669C2.63057 12.0998 2.58071 12.1435 2.54073 12.1956C2.50074 12.2477 2.47141 12.3071 2.45441 12.3706C2.4374 12.434 2.43306 12.5002 2.44162 12.5653C2.45019 12.6304 2.47149 12.6932 2.50432 12.7501C2.97885 13.5756 3.60679 14.3028 4.35432 14.8926C4.45859 14.9728 4.59026 15.0087 4.72081 14.9925C4.85135 14.9763 4.97026 14.9093 5.05174 14.806C5.13322 14.7027 5.17073 14.5715 5.15612 14.4407C5.14151 14.31 5.07597 14.1903 4.9737 14.1076Z" fill="black"/>
</g>
<defs>
<clipPath id="clip0_5_1604">
<rect width="16" height="16" fill="white"/>
</clipPath>
</defs>
</svg>
