<svg width="16" height="16" viewBox="0 0 16 16" fill="none" xmlns="http://www.w3.org/2000/svg">
<g clip-path="url(#clip0_5_731)">
<path d="M13.5 8.00003V11.1832C13.5 12.7825 12.97 13.6788 12.9475 13.7238C12.9059 13.8069 12.8421 13.8767 12.763 13.9255C12.684 13.9743 12.5929 14.0001 12.5 14H4.00001C3.91284 14 3.82719 13.9773 3.75154 13.934C3.6759 13.8907 3.61289 13.8283 3.56876 13.7532L1.63438 10C1.56664 9.88279 1.52342 9.75302 1.50733 9.61858C1.49124 9.48413 1.50262 9.34782 1.54078 9.21791C1.57894 9.088 1.64309 8.96718 1.72934 8.8628C1.81558 8.75842 1.92212 8.67264 2.04251 8.61066C2.52126 8.36066 3.11126 8.55816 3.38001 9.02441L4.69251 11.3019C4.72901 11.3675 4.78409 11.4208 4.85081 11.4552C4.91753 11.4895 4.99293 11.5034 5.06751 11.495H5.07501C5.19511 11.4744 5.3039 11.4115 5.38181 11.3178C5.45971 11.2241 5.50163 11.1056 5.50001 10.9838V3.50003C5.49985 3.36456 5.52722 3.23047 5.58046 3.1059C5.6337 2.98133 5.71169 2.86887 5.80971 2.77535C5.90772 2.68184 6.02372 2.60921 6.15066 2.56188C6.27759 2.51456 6.41282 2.49351 6.54813 2.50003C7.08626 2.52503 7.50001 2.98878 7.50001 3.52691V8.00003C7.49986 8.06858 7.5138 8.13642 7.54098 8.19935C7.56815 8.26228 7.60797 8.31894 7.65797 8.36583C7.70796 8.41272 7.76707 8.44883 7.8316 8.47192C7.89614 8.49501 7.96474 8.50458 8.03313 8.50003C8.16171 8.48899 8.28133 8.42967 8.36795 8.33401C8.45456 8.23835 8.50175 8.11344 8.50001 7.98441V7.00003C8.49985 6.86456 8.52722 6.73047 8.58046 6.6059C8.6337 6.48133 8.71169 6.36887 8.80971 6.27535C8.90772 6.18184 9.02372 6.10921 9.15066 6.06188C9.27759 6.01456 9.41282 5.99351 9.54813 6.00003C10.0863 6.02503 10.5 6.48878 10.5 7.02691V8.50003C10.4999 8.56858 10.5138 8.63642 10.541 8.69935C10.5681 8.76228 10.608 8.81894 10.658 8.86583C10.708 8.91272 10.7671 8.94883 10.8316 8.97192C10.8961 8.99501 10.9647 9.00458 11.0331 9.00003C11.1617 8.98885 11.2812 8.92949 11.3678 8.83386C11.4544 8.73823 11.5016 8.6134 11.5 8.48441V8.02941C11.5 7.49128 11.9138 7.02941 12.4519 7.00253C12.587 6.99602 12.722 7.01699 12.8488 7.06417C12.9755 7.11134 13.0914 7.18374 13.1894 7.27699C13.2874 7.37024 13.3654 7.4824 13.4188 7.60668C13.4722 7.73095 13.4998 7.86477 13.5 8.00003ZM15.5 3.00003H12.2069L13.3538 1.85378C13.4002 1.80733 13.4371 1.75218 13.4622 1.69148C13.4873 1.63079 13.5003 1.56573 13.5003 1.50003C13.5003 1.43434 13.4873 1.36928 13.4622 1.30859C13.4371 1.24789 13.4002 1.19274 13.3538 1.14628C13.3073 1.09983 13.2522 1.06298 13.1915 1.03784C13.1308 1.0127 13.0657 0.999756 13 0.999756C12.9343 0.999756 12.8693 1.0127 12.8086 1.03784C12.7479 1.06298 12.6927 1.09983 12.6463 1.14628L10.6463 3.14628C10.5998 3.19272 10.5629 3.24786 10.5377 3.30856C10.5126 3.36926 10.4996 3.43433 10.4996 3.50003C10.4996 3.56574 10.5126 3.63081 10.5377 3.6915C10.5629 3.7522 10.5998 3.80735 10.6463 3.85378L12.6463 5.85378C12.6927 5.90024 12.7479 5.93709 12.8086 5.96223C12.8693 5.98737 12.9343 6.00031 13 6.00031C13.0657 6.00031 13.1308 5.98737 13.1915 5.96223C13.2522 5.93709 13.3073 5.90024 13.3538 5.85378C13.4002 5.80733 13.4371 5.75218 13.4622 5.69148C13.4873 5.63079 13.5003 5.56573 13.5003 5.50003C13.5003 5.43434 13.4873 5.36928 13.4622 5.30859C13.4371 5.24789 13.4002 5.19274 13.3538 5.14628L12.2069 4.00003H15.5C15.6326 4.00003 15.7598 3.94736 15.8536 3.85359C15.9473 3.75982 16 3.63264 16 3.50003C16 3.36743 15.9473 3.24025 15.8536 3.14648C15.7598 3.05271 15.6326 3.00003 15.5 3.00003Z" fill="black"/>
</g>
<defs>
<clipPath id="clip0_5_731">
<rect width="16" height="16" fill="white"/>
</clipPath>
</defs>
</svg>
