<svg width="16" height="16" viewBox="0 0 16 16" fill="none" xmlns="http://www.w3.org/2000/svg">
<g clip-path="url(#clip0_5_1338)">
<path d="M14.9932 12.3825L14.1019 4.8825C14.073 4.63814 13.955 4.41301 13.7705 4.25019C13.586 4.08737 13.348 3.9983 13.1019 4H11C11 3.20435 10.684 2.44129 10.1214 1.87868C9.55876 1.31607 8.79569 1 8.00004 1C7.20439 1 6.44133 1.31607 5.87872 1.87868C5.31611 2.44129 5.00004 3.20435 5.00004 4H2.89567C2.64961 3.9983 2.41156 4.08737 2.22706 4.25019C2.04256 4.41301 1.92458 4.63814 1.89567 4.8825L1.00442 12.3825C0.988086 12.5225 1.00153 12.6643 1.04386 12.7988C1.08619 12.9332 1.15645 13.0571 1.25004 13.1625C1.34431 13.2683 1.45983 13.3531 1.58906 13.4112C1.71829 13.4694 1.85833 13.4996 2.00004 13.5H13.995C14.1376 13.5003 14.2786 13.4704 14.4087 13.4122C14.5389 13.3541 14.6552 13.2689 14.75 13.1625C14.8432 13.0569 14.913 12.9329 14.9549 12.7985C14.9968 12.664 15.0098 12.5223 14.9932 12.3825ZM8.00004 2C8.53048 2 9.03918 2.21071 9.41426 2.58579C9.78933 2.96086 10 3.46957 10 4H6.00004C6.00004 3.46957 6.21076 2.96086 6.58583 2.58579C6.9609 2.21071 7.46961 2 8.00004 2Z" fill="black"/>
</g>
<defs>
<clipPath id="clip0_5_1338">
<rect width="16" height="16" fill="white"/>
</clipPath>
</defs>
</svg>
