<svg width="16" height="16" viewBox="0 0 16 16" fill="none" xmlns="http://www.w3.org/2000/svg">
<g clip-path="url(#clip0_5_728)">
<path d="M8 3.5H7V1C7 0.867392 7.05268 0.740215 7.14645 0.646447C7.24021 0.552678 7.36739 0.5 7.5 0.5C7.63261 0.5 7.75979 0.552678 7.85355 0.646447C7.94732 0.740215 8 0.867392 8 1V3.5ZM12 7.72625V4.5C12 4.23478 11.8946 3.98043 11.7071 3.79289C11.5196 3.60536 11.2652 3.5 11 3.5H8V7.29313L9.14625 6.14625C9.1927 6.09979 9.24786 6.06294 9.30855 6.0378C9.36925 6.01266 9.4343 5.99972 9.5 5.99972C9.5657 5.99972 9.63075 6.01266 9.69145 6.0378C9.75214 6.06294 9.8073 6.09979 9.85375 6.14625C9.90021 6.1927 9.93706 6.24786 9.9622 6.30855C9.98734 6.36925 10.0003 6.4343 10.0003 6.5C10.0003 6.5657 9.98734 6.63075 9.9622 6.69145C9.93706 6.75214 9.90021 6.8073 9.85375 6.85375L7.85375 8.85375C7.80731 8.90024 7.75217 8.93712 7.69147 8.96228C7.63077 8.98744 7.56571 9.00039 7.5 9.00039C7.43429 9.00039 7.36923 8.98744 7.30853 8.96228C7.24783 8.93712 7.19269 8.90024 7.14625 8.85375L5.14625 6.85375C5.05243 6.75993 4.99972 6.63268 4.99972 6.5C4.99972 6.36732 5.05243 6.24007 5.14625 6.14625C5.24007 6.05243 5.36732 5.99972 5.5 5.99972C5.63268 5.99972 5.75993 6.05243 5.85375 6.14625L7 7.29313V3.5H4C3.73478 3.5 3.48043 3.60536 3.29289 3.79289C3.10536 3.98043 3 4.23478 3 4.5V12.5C3 12.6326 3.05268 12.7598 3.14645 12.8536C3.24021 12.9473 3.36739 13 3.5 13H8.16875C8.18875 13.0419 8.21063 13.0837 8.23438 13.125L8.24938 13.1488L9.64062 15.2738C9.71323 15.3847 9.82694 15.4623 9.95675 15.4895C10.0866 15.5166 10.2218 15.491 10.3328 15.4184C10.4438 15.3458 10.5214 15.2321 10.5485 15.1023C10.5756 14.9725 10.5501 14.8372 10.4775 14.7262L9.09437 12.6144C8.99633 12.4412 8.97107 12.2362 9.02417 12.0445C9.07727 11.8527 9.20436 11.6899 9.3775 11.5919C9.55064 11.4938 9.75563 11.4686 9.94739 11.5217C10.1391 11.5748 10.302 11.7019 10.4 11.875C10.4044 11.8831 10.4094 11.8913 10.4144 11.8988L11.0819 12.9181C11.1409 13.0081 11.2273 13.0767 11.3284 13.1136C11.4295 13.1505 11.5398 13.1539 11.6429 13.1231C11.746 13.0924 11.8364 13.0292 11.9008 12.9429C11.9651 12.8567 11.9999 12.752 12 12.6444V9C12.4713 9.43625 12.8477 9.96488 13.1057 10.5529C13.3638 11.141 13.498 11.7759 13.5 12.4181V15C13.5 15.1326 13.5527 15.2598 13.6464 15.3536C13.7402 15.4473 13.8674 15.5 14 15.5C14.1326 15.5 14.2598 15.4473 14.3536 15.3536C14.4473 15.2598 14.5 15.1326 14.5 15V12.4156C14.4972 11.4894 14.2679 10.5779 13.8322 9.76058C13.3964 8.94324 12.7674 8.24485 12 7.72625Z" fill="black"/>
</g>
<defs>
<clipPath id="clip0_5_728">
<rect width="16" height="16" fill="white"/>
</clipPath>
</defs>
</svg>
