<svg width="16" height="16" viewBox="0 0 16 16" fill="none" xmlns="http://www.w3.org/2000/svg">
<g clip-path="url(#clip0_5_725)">
<path d="M14.7075 11.25L12.4425 8.98433L10.1638 1.4662C10.099 1.25213 9.98247 1.05733 9.82444 0.899059C9.66641 0.74079 9.47178 0.623939 9.25781 0.558855C9.04383 0.493772 8.8171 0.482465 8.59771 0.525937C8.37832 0.569409 8.17303 0.666318 8.00004 0.808079C7.82705 0.666318 7.62176 0.569409 7.40237 0.525937C7.18298 0.482465 6.95625 0.493772 6.74227 0.558855C6.5283 0.623939 6.33367 0.74079 6.17564 0.899059C6.01761 1.05733 5.90105 1.25213 5.83629 1.4662L3.55754 8.98495L1.29254 11.25C1.10514 11.4375 0.999878 11.6917 0.999878 11.9568C0.999878 12.2219 1.10514 12.4762 1.29254 12.6637L3.33566 14.7068C3.42853 14.7997 3.53878 14.8734 3.66012 14.9237C3.78146 14.9739 3.91151 14.9998 4.04285 14.9998C4.17419 14.9998 4.30425 14.9739 4.42559 14.9237C4.54693 14.8734 4.65718 14.7997 4.75004 14.7068L7.76754 11.6875C7.85119 11.6036 7.92888 11.514 8.00004 11.4193C8.0712 11.514 8.14889 11.6036 8.23254 11.6875L11.25 14.7075C11.3429 14.8003 11.4531 14.874 11.5745 14.9243C11.6958 14.9746 11.8259 15.0004 11.9572 15.0004C12.0886 15.0004 12.2186 14.9746 12.34 14.9243C12.4613 14.874 12.5716 14.8003 12.6644 14.7075L14.7075 12.6643C14.8004 12.5715 14.8741 12.4612 14.9244 12.3399C14.9746 12.2185 15.0005 12.0885 15.0005 11.9571C15.0005 11.8258 14.9746 11.6957 14.9244 11.5744C14.8741 11.4531 14.8004 11.3428 14.7075 11.25ZM7.50004 9.92183C7.50104 10.1191 7.46288 10.3145 7.38778 10.4969C7.31268 10.6793 7.20213 10.845 7.06254 10.9843L5.54254 12.5L3.50004 10.4575L4.35316 9.6037C4.41138 9.54548 4.45432 9.47377 4.47816 9.39495L6.79066 1.7562C6.81412 1.6712 6.86786 1.59772 6.94174 1.54959C7.01563 1.50147 7.10457 1.48203 7.19179 1.49494C7.27902 1.50785 7.35851 1.55222 7.41529 1.61969C7.47207 1.68715 7.50221 1.77305 7.50004 1.8612V9.92183ZM10.465 12.5081L8.93754 10.9825C8.79795 10.8431 8.6874 10.6774 8.6123 10.4951C8.5372 10.3127 8.49904 10.1172 8.50004 9.91995V1.85745C8.50006 1.77086 8.53119 1.68715 8.58775 1.62158C8.64432 1.55601 8.72256 1.51294 8.80821 1.50022C8.89387 1.4875 8.98124 1.50597 9.05443 1.55226C9.12761 1.59856 9.18172 1.6696 9.20691 1.75245L11.5194 9.3912C11.5433 9.47002 11.5862 9.54173 11.6444 9.59995L12.55 10.5056L10.465 12.5081Z" fill="black"/>
</g>
<defs>
<clipPath id="clip0_5_725">
<rect width="16" height="16" fill="white"/>
</clipPath>
</defs>
</svg>
