<svg width="16" height="16" viewBox="0 0 16 16" fill="none" xmlns="http://www.w3.org/2000/svg">
<g clip-path="url(#clip0_5_1406)">
<path d="M6.03426 2.25872C5.96631 2.00584 6.00026 1.73641 6.12881 1.50829C6.25736 1.28017 6.47026 1.11158 6.72176 1.03872C7.25988 0.884968 7.82488 1.22622 7.97176 1.76684L8.97176 5.50309C8.98098 5.53673 8.98307 5.57193 8.97787 5.60642C8.97268 5.64091 8.96033 5.67394 8.94161 5.70337C8.92289 5.7328 8.89822 5.75799 8.86918 5.77732C8.84015 5.79665 8.80739 5.80968 8.77301 5.81559C8.49634 5.86295 8.23285 5.96839 7.99988 6.12497C7.96488 6.14809 7.93113 6.17247 7.89738 6.19809C7.87676 6.16184 7.85551 6.12559 7.83488 6.09059C7.62126 5.766 7.317 5.51129 6.95988 5.35809C6.92555 5.34327 6.89504 5.32082 6.87067 5.29245C6.84631 5.26407 6.82873 5.23052 6.81926 5.19434L6.03426 2.25872ZM5.02488 11.0406C5.09131 11.0542 5.15895 11.0611 5.22676 11.0612C5.47459 11.061 5.71351 10.9688 5.89719 10.8024C6.08088 10.636 6.19624 10.4074 6.22092 10.1608C6.24559 9.91419 6.17782 9.66721 6.03074 9.46775C5.88366 9.26828 5.66776 9.13054 5.42488 9.08122L4.20051 8.83122C3.94177 8.78083 3.6736 8.83464 3.45433 8.98094C3.23506 9.12724 3.08242 9.3542 3.02962 9.61246C2.97682 9.87071 3.02812 10.1394 3.17236 10.36C3.31661 10.5806 3.54213 10.7354 3.79988 10.7906L5.02488 11.0406ZM3.79988 7.72809L5.96488 8.16997C6.09435 8.19837 6.22818 8.20075 6.35858 8.17697C6.48897 8.15319 6.61334 8.10372 6.72445 8.03145C6.83556 7.95917 6.93119 7.86552 7.00578 7.75596C7.08038 7.64639 7.13244 7.52309 7.15896 7.39322C7.18547 7.26335 7.1859 7.1295 7.16022 6.99947C7.13454 6.86943 7.08327 6.74579 7.00938 6.63575C6.93549 6.52571 6.84046 6.43145 6.72982 6.35846C6.61918 6.28547 6.49513 6.23521 6.36488 6.21059L4.20051 5.77059C3.94068 5.71748 3.6704 5.76975 3.44911 5.91591C3.22782 6.06207 3.07365 6.29014 3.02051 6.54997C2.9674 6.8098 3.01967 7.08008 3.16583 7.30137C3.31198 7.52266 3.54006 7.67683 3.79988 7.72997V7.72809ZM10.1749 5.96809L11.6468 6.26872C11.7088 6.28128 11.7734 6.26981 11.8273 6.23663C11.8812 6.20345 11.9206 6.15103 11.9374 6.08997L12.9636 2.25872C13.0312 2.00289 12.9946 1.73073 12.8618 1.50184C12.7291 1.27295 12.5111 1.10599 12.2555 1.03753C11.9999 0.969069 11.7276 1.00468 11.4983 1.13658C11.2689 1.26847 11.1011 1.48589 11.0318 1.74122L9.98176 5.65997C9.9729 5.69309 9.97095 5.72768 9.97602 5.76159C9.9811 5.7955 9.9931 5.828 10.0113 5.85707C10.0294 5.88615 10.0534 5.91117 10.0817 5.93059C10.1099 5.95002 10.1419 5.96342 10.1755 5.96997L10.1749 5.96809ZM12.5086 7.95184C12.4016 7.77591 12.2594 7.62401 12.0908 7.50569C11.9223 7.38738 11.7311 7.30521 11.5293 7.26434L9.30426 6.81247C9.13317 6.77751 8.95591 6.78797 8.79012 6.84279C8.62432 6.89762 8.47578 6.9949 8.35926 7.12497C8.2974 7.19104 8.24616 7.26631 8.20738 7.34809C8.12306 7.51725 8.0884 7.70684 8.10743 7.89489C8.12645 8.08295 8.19838 8.26175 8.31488 8.41059C8.46824 8.60331 8.68551 8.73478 8.92738 8.78122L9.87988 8.97559C10.0092 9.0019 10.1231 9.07794 10.197 9.18734C10.2708 9.29675 10.2988 9.43077 10.2749 9.56059C10.1908 9.96446 10.2521 10.385 10.448 10.7481C10.5082 10.8533 10.529 10.9764 10.507 11.0955C10.4849 11.2147 10.4212 11.3221 10.3274 11.3987C10.2704 11.4434 10.2044 11.4752 10.1339 11.4918C10.0634 11.5085 9.99014 11.5096 9.91917 11.4952C9.8482 11.4807 9.78122 11.4511 9.72285 11.4082C9.66448 11.3653 9.61613 11.3103 9.58113 11.2468C9.34786 10.8246 9.22974 10.3485 9.23863 9.86622L8.70426 9.74997C8.44709 9.69817 8.20273 9.59595 7.98529 9.4492C7.76785 9.30245 7.58163 9.11408 7.43738 8.89497C7.41363 8.85934 7.39176 8.82309 7.37113 8.78622C7.23891 8.88701 7.09468 8.97099 6.94176 9.03622C7.12316 9.33965 7.22089 9.68573 7.225 10.0392C7.2291 10.3927 7.13944 10.741 6.96515 11.0485C6.79085 11.3561 6.53814 11.612 6.23277 11.7901C5.9274 11.9682 5.58028 12.0622 5.22676 12.0625C5.09178 12.0624 4.95715 12.0488 4.82488 12.0218L3.60051 11.7718H3.59676C3.56735 11.7649 3.53658 11.7662 3.50788 11.7757C3.47919 11.7852 3.4537 11.8025 3.43425 11.8256C3.4148 11.8488 3.40217 11.8769 3.39776 11.9068C3.39334 11.9367 3.39733 11.9672 3.40926 11.995C3.79946 12.8879 4.44152 13.6477 5.25685 14.1814C6.07217 14.7152 7.02541 14.9996 7.99988 15H8.03801C10.7736 14.9793 12.9999 12.7112 12.9999 9.94372V9.73497C12.9997 9.10787 12.8302 8.49247 12.5093 7.95372L12.5086 7.95184Z" fill="black"/>
</g>
<defs>
<clipPath id="clip0_5_1406">
<rect width="16" height="16" fill="white"/>
</clipPath>
</defs>
</svg>
