<svg width="16" height="16" viewBox="0 0 16 16" fill="none" xmlns="http://www.w3.org/2000/svg">
<g clip-path="url(#clip0_5_745)">
<path d="M9 11.25C9 11.4478 8.94135 11.6411 8.83147 11.8056C8.72159 11.97 8.56541 12.0982 8.38268 12.1739C8.19996 12.2496 7.99889 12.2694 7.80491 12.2308C7.61093 12.1922 7.43275 12.097 7.29289 11.9571C7.15304 11.8173 7.0578 11.6391 7.01921 11.4451C6.98063 11.2511 7.00043 11.05 7.07612 10.8673C7.15181 10.6846 7.27998 10.5284 7.44443 10.4185C7.60888 10.3086 7.80222 10.25 8 10.25C8.26522 10.25 8.51957 10.3554 8.70711 10.5429C8.89464 10.7304 9 10.9848 9 11.25ZM13.5 6.5V9.5C13.5 10.9587 12.9205 12.3576 11.8891 13.3891C10.8576 14.4205 9.45869 15 8 15C6.54131 15 5.14236 14.4205 4.11091 13.3891C3.07946 12.3576 2.5 10.9587 2.5 9.5V4C2.5 3.73478 2.60536 3.48043 2.79289 3.29289C2.98043 3.10536 3.23478 3 3.5 3C3.76522 3 4.01957 3.10536 4.20711 3.29289C4.39464 3.48043 4.5 3.73478 4.5 4V7.5C4.5 7.63261 4.55268 7.75979 4.64645 7.85355C4.74021 7.94732 4.86739 8 5 8C5.13261 8 5.25979 7.94732 5.35355 7.85355C5.44732 7.75979 5.5 7.63261 5.5 7.5V2C5.5 1.73478 5.60536 1.48043 5.79289 1.29289C5.98043 1.10536 6.23478 1 6.5 1C6.76522 1 7.01957 1.10536 7.20711 1.29289C7.39464 1.48043 7.5 1.73478 7.5 2V7C7.5 7.13261 7.55268 7.25979 7.64645 7.35355C7.74021 7.44732 7.86739 7.5 8 7.5C8.13261 7.5 8.25979 7.44732 8.35355 7.35355C8.44732 7.25979 8.5 7.13261 8.5 7V3C8.5 2.73478 8.60536 2.48043 8.79289 2.29289C8.98043 2.10536 9.23478 2 9.5 2C9.76522 2 10.0196 2.10536 10.2071 2.29289C10.3946 2.48043 10.5 2.73478 10.5 3V8C10.5 8.13261 10.5527 8.25979 10.6464 8.35355C10.7402 8.44732 10.8674 8.5 11 8.5C11.1326 8.5 11.2598 8.44732 11.3536 8.35355C11.4473 8.25979 11.5 8.13261 11.5 8V6.5C11.5 6.23478 11.6054 5.98043 11.7929 5.79289C11.9804 5.60536 12.2348 5.5 12.5 5.5C12.7652 5.5 13.0196 5.60536 13.2071 5.79289C13.3946 5.98043 13.5 6.23478 13.5 6.5ZM11.2238 11.1381C11.18 11.0506 10.13 9 8 9C5.87 9 4.82 11.0506 4.77625 11.1381C4.75887 11.1729 4.74982 11.2112 4.74982 11.25C4.74982 11.2888 4.75887 11.3271 4.77625 11.3619C4.82 11.4494 5.87 13.5 8 13.5C10.13 13.5 11.18 11.4494 11.2238 11.3619C11.2411 11.3271 11.2502 11.2888 11.2502 11.25C11.2502 11.2112 11.2411 11.1729 11.2238 11.1381Z" fill="black"/>
</g>
<defs>
<clipPath id="clip0_5_745">
<rect width="16" height="16" fill="white"/>
</clipPath>
</defs>
</svg>
