<svg width="16" height="16" viewBox="0 0 16 16" fill="none" xmlns="http://www.w3.org/2000/svg">
<g clip-path="url(#clip0_5_1601)">
<path d="M4.00004 4C4.00004 3.20435 4.31611 2.44129 4.87872 1.87868C5.44133 1.31607 6.20439 1 7.00004 1C7.79569 1 8.55875 1.31607 9.12136 1.87868C9.68397 2.44129 10 3.20435 10 4C10 4.13261 9.94736 4.25979 9.85359 4.35355C9.75982 4.44732 9.63265 4.5 9.50004 4.5C9.36743 4.5 9.24025 4.44732 9.14648 4.35355C9.05271 4.25979 9.00004 4.13261 9.00004 4C9.00004 3.46957 8.78932 2.96086 8.41425 2.58579C8.03918 2.21071 7.53047 2 7.00004 2C6.4696 2 5.9609 2.21071 5.58582 2.58579C5.21075 2.96086 5.00004 3.46957 5.00004 4C5.00004 4.13261 4.94736 4.25979 4.85359 4.35355C4.75982 4.44732 4.63264 4.5 4.50004 4.5C4.36743 4.5 4.24025 4.44732 4.14648 4.35355C4.05272 4.25979 4.00004 4.13261 4.00004 4ZM12.9519 7.5C12.4138 7.525 12 7.98875 12 8.52687V8.98188C12.0018 9.11091 11.9546 9.23582 11.868 9.33148C11.7814 9.42714 11.6617 9.48646 11.5332 9.4975C11.4648 9.50204 11.3962 9.49247 11.3316 9.46939C11.2671 9.4463 11.208 9.41019 11.158 9.3633C11.108 9.31641 11.0682 9.25974 11.041 9.19681C11.0138 9.13389 10.9999 9.06604 11 8.9975V7.52812C11 6.99 10.5863 6.52812 10.0482 6.50125C9.91295 6.49474 9.77783 6.51574 9.65098 6.56299C9.52412 6.61024 9.40819 6.68276 9.31019 6.77614C9.21219 6.86952 9.13417 6.98183 9.08086 7.10625C9.02754 7.23068 9.00005 7.36463 9.00004 7.5V8.48312C9.00177 8.61216 8.95459 8.73707 8.86797 8.83273C8.78136 8.92839 8.66174 8.9877 8.53316 8.99875C8.46477 9.00329 8.39617 8.99372 8.33163 8.97064C8.26709 8.94755 8.20799 8.91144 8.15799 8.86455C8.108 8.81766 8.06818 8.76099 8.041 8.69806C8.01383 8.63514 7.99989 8.56729 8.00004 8.49875V4.02812C8.00004 3.49 7.58629 3.02813 7.04816 3.00125C6.91295 2.99474 6.77783 3.01574 6.65098 3.06299C6.52412 3.11024 6.40819 3.18276 6.31019 3.27614C6.21219 3.36952 6.13417 3.48183 6.08086 3.60625C6.02754 3.73068 6.00005 3.86463 6.00004 4V11.4838C6.00156 11.6047 5.96021 11.7222 5.88333 11.8156C5.80646 11.9089 5.69901 11.9721 5.58004 11.9937H5.57254C5.49795 12.0021 5.42256 11.9882 5.35584 11.9539C5.28911 11.9195 5.23404 11.8662 5.19754 11.8006L3.88504 9.52312C3.61629 9.05687 3.02629 8.8625 2.54754 9.10938C2.42656 9.1709 2.31938 9.25641 2.23251 9.36069C2.14564 9.46497 2.08091 9.58584 2.04226 9.71595C2.00361 9.84605 1.99185 9.98266 2.00769 10.1175C2.02353 10.2522 2.06665 10.3824 2.13441 10.5L4.06879 14.2531C4.11291 14.3283 4.17593 14.3906 4.25157 14.4339C4.32722 14.4772 4.41287 14.5 4.50004 14.5H13C13.0929 14.5001 13.184 14.4743 13.263 14.4255C13.3421 14.3767 13.406 14.3068 13.4475 14.2238C13.47 14.1788 14 13.2825 14 11.6831V8.5C14.0002 8.36453 13.9728 8.23044 13.9196 8.10586C13.8663 7.98129 13.7884 7.86884 13.6903 7.77532C13.5923 7.6818 13.4763 7.60918 13.3494 7.56185C13.2225 7.51452 13.0872 7.49348 12.9519 7.5Z" fill="black"/>
</g>
<defs>
<clipPath id="clip0_5_1601">
<rect width="16" height="16" fill="white"/>
</clipPath>
</defs>
</svg>
