<svg width="16" height="16" viewBox="0 0 16 16" fill="none" xmlns="http://www.w3.org/2000/svg">
<g clip-path="url(#clip0_5_1420)">
<path d="M14.5 7.49998V7.99998C14.5 8.85552 14.3311 9.70265 14.003 10.4928C13.6749 11.2829 13.1941 12.0005 12.588 12.6044C11.982 13.2083 11.2627 13.6866 10.4714 14.0118C9.68013 14.3371 8.83241 14.503 7.97688 14.5C4.60188 14.4881 1.85188 11.8712 1.53188 8.57623C1.52841 8.53331 1.53608 8.49022 1.55416 8.45113C1.57224 8.41205 1.60011 8.3783 1.63506 8.35315C1.67002 8.328 1.71088 8.31231 1.75368 8.30759C1.79649 8.30287 1.83978 8.30929 1.87938 8.32623C2.3291 8.51502 2.82805 8.5523 3.30083 8.43244C3.77361 8.31258 4.19454 8.04209 4.5 7.66185C4.70014 7.91076 4.95109 8.11409 5.23609 8.25827C5.52108 8.40245 5.83356 8.48416 6.15265 8.49794C6.47175 8.51173 6.79011 8.45727 7.08647 8.3382C7.38284 8.21913 7.65039 8.03819 7.87125 7.80748C8.07366 8.13631 8.34885 8.41428 8.67563 8.61998C8.31 8.89971 8.01375 9.25993 7.80986 9.67268C7.60598 10.0854 7.49995 10.5396 7.5 11C7.49976 11.0693 7.51394 11.1379 7.54164 11.2015C7.56935 11.2651 7.60997 11.3222 7.66093 11.3692C7.71189 11.4162 7.77207 11.4521 7.83765 11.4746C7.90323 11.4972 7.97278 11.5058 8.04188 11.5C8.16876 11.4863 8.286 11.4258 8.37071 11.3304C8.45542 11.2349 8.50151 11.1113 8.5 10.9837C8.50429 10.4561 8.71689 9.95157 9.0915 9.58001C9.46611 9.20844 9.97237 8.99996 10.5 8.99998C10.5685 9.00013 10.6364 8.98618 10.6993 8.95901C10.7622 8.93184 10.8189 8.89202 10.8658 8.84202C10.9127 8.79203 10.9488 8.73292 10.9719 8.66838C10.995 8.60384 11.0045 8.53525 11 8.46685C10.9888 8.33834 10.9295 8.2188 10.8338 8.13221C10.7382 8.04562 10.6134 7.99839 10.4844 7.99998H10C9.60218 7.99998 9.22064 7.84194 8.93934 7.56064C8.65804 7.27933 8.5 6.8978 8.5 6.49998V5.49998H12.5C13.0304 5.49998 13.5391 5.71069 13.9142 6.08576C14.2893 6.46084 14.5 6.96955 14.5 7.49998ZM2.79563 7.49998C3.47313 7.47498 4 6.8981 4 6.21998V4.78248C4 4.10185 3.47313 3.52498 2.79563 3.49998C2.62767 3.49384 2.46021 3.52164 2.30325 3.58171C2.14629 3.64177 2.00305 3.73287 1.8821 3.84956C1.76115 3.96625 1.66497 4.10614 1.59932 4.26085C1.53367 4.41556 1.49989 4.58192 1.5 4.74998V6.24998C1.49989 6.41804 1.53367 6.5844 1.59932 6.73911C1.66497 6.89382 1.76115 7.0337 1.8821 7.15039C2.00305 7.26708 2.14629 7.35818 2.30325 7.41825C2.46021 7.47832 2.62767 7.50611 2.79563 7.49998ZM6.29563 7.49998C6.97313 7.4756 7.5 6.89873 7.5 6.2206V3.2831C7.5 2.60498 6.97313 2.0281 6.29563 2.00373C6.12799 1.99761 5.96084 2.02529 5.80412 2.08512C5.64741 2.14496 5.50434 2.23572 5.38345 2.35201C5.26255 2.4683 5.1663 2.60774 5.10042 2.76201C5.03454 2.91628 5.00039 3.08223 5 3.24998V6.24998C4.99989 6.41804 5.03367 6.5844 5.09932 6.73911C5.16497 6.89382 5.26115 7.0337 5.3821 7.15039C5.50305 7.26708 5.64629 7.35818 5.80325 7.41825C5.96021 7.47832 6.12767 7.50611 6.29563 7.49998ZM11 3.24998C11.0001 3.08192 10.9663 2.91556 10.9007 2.76085C10.835 2.60614 10.7389 2.46625 10.6179 2.34956C10.497 2.23287 10.3537 2.14177 10.1968 2.08171C10.0398 2.02164 9.87233 1.99384 9.70438 1.99998C9.02688 2.02498 8.5 2.60185 8.5 3.27998V4.49998H10.75C10.8163 4.49998 10.8799 4.47364 10.9268 4.42676C10.9737 4.37987 11 4.31628 11 4.24998V3.24998Z" fill="black"/>
</g>
<defs>
<clipPath id="clip0_5_1420">
<rect width="16" height="16" fill="white"/>
</clipPath>
</defs>
</svg>
