<svg width="16" height="16" viewBox="0 0 16 16" fill="none" xmlns="http://www.w3.org/2000/svg">
<g clip-path="url(#clip0_5_692)">
<path d="M14.5 12.4157V15C14.5 15.1326 14.4473 15.2598 14.3536 15.3536C14.2598 15.4473 14.1326 15.5 14 15.5C13.8674 15.5 13.7402 15.4473 13.6464 15.3536C13.5527 15.2598 13.5 15.1326 13.5 15V12.4157C13.4977 11.7739 13.3633 11.1394 13.1052 10.5518C12.8472 9.96422 12.471 9.43599 12 9.00003V12.6469C11.9999 12.7545 11.9651 12.8592 11.9008 12.9455C11.8364 13.0317 11.746 13.0949 11.6429 13.1256C11.5398 13.1564 11.4295 13.153 11.3284 13.1161C11.2273 13.0792 11.1409 13.0106 11.0819 12.9207L10.4144 11.9013C10.4094 11.8938 10.4044 11.8857 10.4 11.8775C10.302 11.7044 10.1391 11.5773 9.94739 11.5242C9.75563 11.4711 9.55064 11.4964 9.3775 11.5944C9.20436 11.6924 9.07727 11.8553 9.02417 12.047C8.97107 12.2388 8.99633 12.4438 9.09437 12.6169L10.4775 14.7288C10.5501 14.8398 10.5756 14.975 10.5485 15.1048C10.5214 15.2346 10.4438 15.3484 10.3328 15.421C10.2218 15.4936 10.0866 15.5191 9.95675 15.492C9.82694 15.4648 9.71323 15.3873 9.64062 15.2763L8.24938 13.1513L8.23438 13.1275C8.21063 13.0863 8.18875 13.0444 8.16875 13.0025H3.5C3.36739 13.0025 3.24021 12.9498 3.14645 12.8561C3.05268 12.7623 3 12.6351 3 12.5025V6.00003C3 5.73481 3.10536 5.48046 3.29289 5.29292C3.48043 5.10538 3.73478 5.00003 4 5.00003H7V8.00003C7 8.13264 7.05268 8.25981 7.14645 8.35358C7.24021 8.44735 7.36739 8.50003 7.5 8.50003C7.63261 8.50003 7.75979 8.44735 7.85355 8.35358C7.94732 8.25981 8 8.13264 8 8.00003V5.00003H11C11.2652 5.00003 11.5196 5.10538 11.7071 5.29292C11.8946 5.48046 12 5.73481 12 6.00003V7.72628C12.7674 8.24488 13.3964 8.94327 13.8322 9.7606C14.2679 10.5779 14.4972 11.4894 14.5 12.4157ZM8 2.2069L9.14625 3.35378C9.24007 3.4476 9.36732 3.50031 9.5 3.50031C9.63268 3.50031 9.75993 3.4476 9.85375 3.35378C9.94757 3.25996 10.0003 3.13271 10.0003 3.00003C10.0003 2.86735 9.94757 2.7401 9.85375 2.64628L7.85375 0.646277C7.80731 0.599789 7.75217 0.562909 7.69147 0.537747C7.63077 0.512585 7.56571 0.499634 7.5 0.499634C7.43429 0.499634 7.36923 0.512585 7.30853 0.537747C7.24783 0.562909 7.19269 0.599789 7.14625 0.646277L5.14625 2.64628C5.05243 2.7401 4.99972 2.86735 4.99972 3.00003C4.99972 3.06572 5.01266 3.13078 5.0378 3.19148C5.06294 3.25217 5.09979 3.30732 5.14625 3.35378C5.1927 3.40023 5.24786 3.43708 5.30855 3.46222C5.36925 3.48737 5.4343 3.50031 5.5 3.50031C5.63268 3.50031 5.75993 3.4476 5.85375 3.35378L7 2.2069V5.00003H8V2.2069Z" fill="black"/>
</g>
<defs>
<clipPath id="clip0_5_692">
<rect width="16" height="16" fill="white"/>
</clipPath>
</defs>
</svg>
