<svg width="16" height="16" viewBox="0 0 16 16" fill="none" xmlns="http://www.w3.org/2000/svg">
<g clip-path="url(#clip0_5_1093)">
<path d="M13 2.5H3C2.73478 2.5 2.48043 2.60536 2.29289 2.79289C2.10536 2.98043 2 3.23478 2 3.5V6.5C2 6.76522 2.10536 7.01957 2.29289 7.20711C2.48043 7.39464 2.73478 7.5 3 7.5H13C13.2652 7.5 13.5196 7.39464 13.7071 7.20711C13.8946 7.01957 14 6.76522 14 6.5V3.5C14 3.23478 13.8946 2.98043 13.7071 2.79289C13.5196 2.60536 13.2652 2.5 13 2.5ZM11.25 5.75C11.1017 5.75 10.9567 5.70601 10.8333 5.6236C10.71 5.54119 10.6139 5.42406 10.5571 5.28701C10.5003 5.14997 10.4855 4.99917 10.5144 4.85368C10.5434 4.7082 10.6148 4.57456 10.7197 4.46967C10.8246 4.36478 10.9582 4.29335 11.1037 4.26441C11.2492 4.23547 11.4 4.25032 11.537 4.30709C11.6741 4.36386 11.7912 4.45999 11.8736 4.58332C11.956 4.70666 12 4.85166 12 5C12 5.19891 11.921 5.38968 11.7803 5.53033C11.6397 5.67098 11.4489 5.75 11.25 5.75Z" fill="black"/>
<path d="M13 8.5H3C2.73478 8.5 2.48043 8.60536 2.29289 8.79289C2.10536 8.98043 2 9.23478 2 9.5V12.5C2 12.7652 2.10536 13.0196 2.29289 13.2071C2.48043 13.3946 2.73478 13.5 3 13.5H13C13.2652 13.5 13.5196 13.3946 13.7071 13.2071C13.8946 13.0196 14 12.7652 14 12.5V9.5C14 9.23478 13.8946 8.98043 13.7071 8.79289C13.5196 8.60536 13.2652 8.5 13 8.5ZM11.25 11.75C11.1017 11.75 10.9567 11.706 10.8333 11.6236C10.71 11.5412 10.6139 11.4241 10.5571 11.287C10.5003 11.15 10.4855 10.9992 10.5144 10.8537C10.5434 10.7082 10.6148 10.5746 10.7197 10.4697C10.8246 10.3648 10.9582 10.2933 11.1037 10.2644C11.2492 10.2355 11.4 10.2503 11.537 10.3071C11.6741 10.3639 11.7912 10.46 11.8736 10.5833C11.956 10.7067 12 10.8517 12 11C12 11.1989 11.921 11.3897 11.7803 11.5303C11.6397 11.671 11.4489 11.75 11.25 11.75Z" fill="black"/>
</g>
<defs>
<clipPath id="clip0_5_1093">
<rect width="16" height="16" fill="white"/>
</clipPath>
</defs>
</svg>
