<svg width="16" height="16" viewBox="0 0 16 16" fill="none" xmlns="http://www.w3.org/2000/svg">
<g clip-path="url(#clip0_5_683)">
<path d="M9.5 9.5H6.5V2.5C6.5 2.23478 6.60536 1.98043 6.79289 1.79289C6.98043 1.60536 7.23478 1.5 7.5 1.5H8.5C8.76522 1.5 9.01957 1.60536 9.20711 1.79289C9.39464 1.98043 9.5 2.23478 9.5 2.5V9.5ZM14 10.5H2C1.73478 10.5 1.48043 10.6054 1.29289 10.7929C1.10536 10.9804 1 11.2348 1 11.5V12C1 12.2652 1.10536 12.5196 1.29289 12.7071C1.48043 12.8946 1.73478 13 2 13H14C14.2652 13 14.5196 12.8946 14.7071 12.7071C14.8946 12.5196 15 12.2652 15 12V11.5C15 11.2348 14.8946 10.9804 14.7071 10.7929C14.5196 10.6054 14.2652 10.5 14 10.5ZM14 9.25V8.5C13.997 7.42186 13.7048 6.36426 13.1539 5.43746C12.6031 4.51066 11.8137 3.74857 10.8681 3.23062C10.83 3.21019 10.7873 3.2 10.744 3.20103C10.7008 3.20206 10.6586 3.21429 10.6215 3.23652C10.5844 3.25875 10.5537 3.29022 10.5324 3.32786C10.5111 3.36549 10.4999 3.40801 10.5 3.45125V9.5H13.75C13.8163 9.5 13.8799 9.47366 13.9268 9.42678C13.9737 9.37989 14 9.3163 14 9.25ZM2.25 9.5H5.5V3.45125C5.50005 3.40801 5.48888 3.36549 5.46759 3.32786C5.4463 3.29022 5.41561 3.25875 5.37852 3.23652C5.34143 3.21429 5.2992 3.20206 5.25597 3.20103C5.21274 3.2 5.16999 3.21019 5.13188 3.23062C4.18628 3.74857 3.39693 4.51066 2.84608 5.43746C2.29523 6.36426 2.00305 7.42186 2 8.5V9.25C2 9.3163 2.02634 9.37989 2.07322 9.42678C2.12011 9.47366 2.1837 9.5 2.25 9.5Z" fill="black"/>
</g>
<defs>
<clipPath id="clip0_5_683">
<rect width="16" height="16" fill="white"/>
</clipPath>
</defs>
</svg>
