<svg width="16" height="16" viewBox="0 0 16 16" fill="none" xmlns="http://www.w3.org/2000/svg">
<g clip-path="url(#clip0_5_685)">
<path d="M14 4H2C1.73478 4 1.48043 4.10536 1.29289 4.29289C1.10536 4.48043 1 4.73478 1 5V11C1 11.2652 1.10536 11.5196 1.29289 11.7071C1.48043 11.8946 1.73478 12 2 12H14C14.2652 12 14.5196 11.8946 14.7071 11.7071C14.8946 11.5196 15 11.2652 15 11V5C15 4.73478 14.8946 4.48043 14.7071 4.29289C14.5196 4.10536 14.2652 4 14 4ZM11.75 8.75C11.6017 8.75 11.4567 8.70601 11.3333 8.6236C11.21 8.54119 11.1139 8.42406 11.0571 8.28701C11.0003 8.14997 10.9855 7.99917 11.0144 7.85368C11.0434 7.7082 11.1148 7.57456 11.2197 7.46967C11.3246 7.36478 11.4582 7.29335 11.6037 7.26441C11.7492 7.23547 11.9 7.25032 12.037 7.30709C12.1741 7.36386 12.2912 7.45999 12.3736 7.58332C12.456 7.70666 12.5 7.85166 12.5 8C12.5 8.19891 12.421 8.38968 12.2803 8.53033C12.1397 8.67098 11.9489 8.75 11.75 8.75Z" fill="black"/>
</g>
<defs>
<clipPath id="clip0_5_685">
<rect width="16" height="16" fill="white"/>
</clipPath>
</defs>
</svg>
