<svg width="16" height="16" viewBox="0 0 16 16" fill="none" xmlns="http://www.w3.org/2000/svg">
<g clip-path="url(#clip0_5_682)">
<path d="M7.26562 7H9.23438L8.73438 9H6.76562L7.26562 7ZM14 3V13C14 13.2652 13.8946 13.5196 13.7071 13.7071C13.5196 13.8946 13.2652 14 13 14H3C2.73478 14 2.48043 13.8946 2.29289 13.7071C2.10536 13.5196 2 13.2652 2 13V3C2 2.73478 2.10536 2.48043 2.29289 2.29289C2.48043 2.10536 2.73478 2 3 2H13C13.2652 2 13.5196 2.10536 13.7071 2.29289C13.8946 2.48043 14 2.73478 14 3ZM13 6.5C13 6.36739 12.9473 6.24021 12.8536 6.14645C12.7598 6.05268 12.6326 6 12.5 6H10.5156L10.985 4.12125C11.0146 3.99351 10.9929 3.85926 10.9244 3.7474C10.856 3.63555 10.7464 3.55504 10.6192 3.52324C10.492 3.49144 10.3574 3.51088 10.2444 3.57738C10.1313 3.64388 10.049 3.7521 10.015 3.87875L9.48438 6H7.51562L7.985 4.12125C8.01462 3.99351 7.99287 3.85926 7.92445 3.7474C7.85602 3.63555 7.7464 3.55504 7.61919 3.52324C7.49198 3.49144 7.35737 3.51088 7.24436 3.57738C7.13135 3.64388 7.04898 3.7521 7.015 3.87875L6.48438 6H4C3.86739 6 3.74021 6.05268 3.64645 6.14645C3.55268 6.24021 3.5 6.36739 3.5 6.5C3.5 6.63261 3.55268 6.75979 3.64645 6.85355C3.74021 6.94732 3.86739 7 4 7H6.23438L5.73438 9H3.5C3.36739 9 3.24021 9.05268 3.14645 9.14645C3.05268 9.24021 3 9.36739 3 9.5C3 9.63261 3.05268 9.75979 3.14645 9.85355C3.24021 9.94732 3.36739 10 3.5 10H5.48438L5.015 11.8787C4.98286 12.0074 5.00313 12.1435 5.07134 12.2572C5.13956 12.3709 5.25013 12.4528 5.37875 12.485C5.41963 12.4952 5.46162 12.5002 5.50375 12.5C5.61514 12.4998 5.72329 12.4625 5.81104 12.3939C5.89879 12.3253 5.96111 12.2293 5.98812 12.1213L6.51562 10H8.48438L8.015 11.8787C7.98286 12.0074 8.00313 12.1435 8.07134 12.2572C8.13956 12.3709 8.25013 12.4528 8.37875 12.485C8.41842 12.4949 8.45913 12.4999 8.5 12.5C8.61139 12.4998 8.71954 12.4625 8.80729 12.3939C8.89504 12.3253 8.95736 12.2293 8.98438 12.1213L9.51562 10H12C12.1326 10 12.2598 9.94732 12.3536 9.85355C12.4473 9.75979 12.5 9.63261 12.5 9.5C12.5 9.36739 12.4473 9.24021 12.3536 9.14645C12.2598 9.05268 12.1326 9 12 9H9.76562L10.2656 7H12.5C12.6326 7 12.7598 6.94732 12.8536 6.85355C12.9473 6.75979 13 6.63261 13 6.5Z" fill="black"/>
</g>
<defs>
<clipPath id="clip0_5_682">
<rect width="16" height="16" fill="white"/>
</clipPath>
</defs>
</svg>
