<svg width="16" height="16" viewBox="0 0 16 16" fill="none" xmlns="http://www.w3.org/2000/svg">
<g clip-path="url(#clip0_5_716)">
<path d="M7 7H9V9H7V7ZM14 3V13C14 13.2652 13.8946 13.5196 13.7071 13.7071C13.5196 13.8946 13.2652 14 13 14H3C2.73478 14 2.48043 13.8946 2.29289 13.7071C2.10536 13.5196 2 13.2652 2 13V3C2 2.73478 2.10536 2.48043 2.29289 2.29289C2.48043 2.10536 2.73478 2 3 2H13C13.2652 2 13.5196 2.10536 13.7071 2.29289C13.8946 2.48043 14 2.73478 14 3ZM10 9V7H12C12.1326 7 12.2598 6.94732 12.3536 6.85355C12.4473 6.75979 12.5 6.63261 12.5 6.5C12.5 6.36739 12.4473 6.24021 12.3536 6.14645C12.2598 6.05268 12.1326 6 12 6H10V4C10 3.86739 9.94732 3.74021 9.85355 3.64645C9.75979 3.55268 9.63261 3.5 9.5 3.5C9.36739 3.5 9.24021 3.55268 9.14645 3.64645C9.05268 3.74021 9 3.86739 9 4V6H7V4C7 3.86739 6.94732 3.74021 6.85355 3.64645C6.75979 3.55268 6.63261 3.5 6.5 3.5C6.36739 3.5 6.24021 3.55268 6.14645 3.64645C6.05268 3.74021 6 3.86739 6 4V6H4C3.86739 6 3.74021 6.05268 3.64645 6.14645C3.55268 6.24021 3.5 6.36739 3.5 6.5C3.5 6.63261 3.55268 6.75979 3.64645 6.85355C3.74021 6.94732 3.86739 7 4 7H6V9H4C3.86739 9 3.74021 9.05268 3.64645 9.14645C3.55268 9.24021 3.5 9.36739 3.5 9.5C3.5 9.63261 3.55268 9.75979 3.64645 9.85355C3.74021 9.94732 3.86739 10 4 10H6V12C6 12.1326 6.05268 12.2598 6.14645 12.3536C6.24021 12.4473 6.36739 12.5 6.5 12.5C6.63261 12.5 6.75979 12.4473 6.85355 12.3536C6.94732 12.2598 7 12.1326 7 12V10H9V12C9 12.1326 9.05268 12.2598 9.14645 12.3536C9.24021 12.4473 9.36739 12.5 9.5 12.5C9.63261 12.5 9.75979 12.4473 9.85355 12.3536C9.94732 12.2598 10 12.1326 10 12V10H12C12.1326 10 12.2598 9.94732 12.3536 9.85355C12.4473 9.75979 12.5 9.63261 12.5 9.5C12.5 9.36739 12.4473 9.24021 12.3536 9.14645C12.2598 9.05268 12.1326 9 12 9H10Z" fill="black"/>
</g>
<defs>
<clipPath id="clip0_5_716">
<rect width="16" height="16" fill="white"/>
</clipPath>
</defs>
</svg>
