<svg width="16" height="16" viewBox="0 0 16 16" fill="none" xmlns="http://www.w3.org/2000/svg">
<g clip-path="url(#clip0_5_1228)">
<path d="M10.0001 5C10.0001 4.86739 10.0528 4.74021 10.1466 4.64645C10.2404 4.55268 10.3675 4.5 10.5001 4.5H15.0001C15.1328 4.5 15.2599 4.55268 15.3537 4.64645C15.4475 4.74021 15.5001 4.86739 15.5001 5C15.5001 5.13261 15.4475 5.25979 15.3537 5.35355C15.2599 5.44732 15.1328 5.5 15.0001 5.5H10.5001C10.3675 5.5 10.2404 5.44732 10.1466 5.35355C10.0528 5.25979 10.0001 5.13261 10.0001 5ZM15.0001 10.5H10.5001C10.3675 10.5 10.2404 10.5527 10.1466 10.6464C10.0528 10.7402 10.0001 10.8674 10.0001 11C10.0001 11.1326 10.0528 11.2598 10.1466 11.3536C10.2404 11.4473 10.3675 11.5 10.5001 11.5H15.0001C15.1328 11.5 15.2599 11.4473 15.3537 11.3536C15.4475 11.2598 15.5001 11.1326 15.5001 11C15.5001 10.8674 15.4475 10.7402 15.3537 10.6464C15.2599 10.5527 15.1328 10.5 15.0001 10.5ZM15.0001 6.5H10.5001C10.3675 6.5 10.2404 6.55268 10.1466 6.64645C10.0528 6.74021 10.0001 6.86739 10.0001 7C10.0001 7.13261 10.0528 7.25979 10.1466 7.35355C10.2404 7.44732 10.3675 7.5 10.5001 7.5H15.0001C15.1328 7.5 15.2599 7.44732 15.3537 7.35355C15.4475 7.25979 15.5001 7.13261 15.5001 7C15.5001 6.86739 15.4475 6.74021 15.3537 6.64645C15.2599 6.55268 15.1328 6.5 15.0001 6.5ZM15.0001 8.5H10.5001C10.3675 8.5 10.2404 8.55268 10.1466 8.64645C10.0528 8.74021 10.0001 8.86739 10.0001 9C10.0001 9.13261 10.0528 9.25979 10.1466 9.35355C10.2404 9.44732 10.3675 9.5 10.5001 9.5H15.0001C15.1328 9.5 15.2599 9.44732 15.3537 9.35355C15.4475 9.25979 15.5001 9.13261 15.5001 9C15.5001 8.86739 15.4475 8.74021 15.3537 8.64645C15.2599 8.55268 15.1328 8.5 15.0001 8.5ZM8.00015 3H5.5564C2.7889 3 0.52077 5.22625 0.500145 7.96187C0.495114 8.62169 0.620729 9.27597 0.869749 9.887C1.11877 10.498 1.48627 11.0537 1.95106 11.5221C2.41586 11.9904 2.96876 12.3621 3.57788 12.6158C4.18701 12.8694 4.84032 13 5.50015 13H8.00015C8.26536 13 8.51972 12.8946 8.70725 12.7071C8.89479 12.5196 9.00014 12.2652 9.00014 12V4C9.00014 3.73478 8.89479 3.48043 8.70725 3.29289C8.51972 3.10536 8.26536 3 8.00015 3Z" fill="black"/>
</g>
<defs>
<clipPath id="clip0_5_1228">
<rect width="16" height="16" fill="white"/>
</clipPath>
</defs>
</svg>
