<svg width="16" height="16" viewBox="0 0 16 16" fill="none" xmlns="http://www.w3.org/2000/svg">
<g clip-path="url(#clip0_5_714)">
<path d="M8 4.99683C8.27614 4.99683 8.5 4.77297 8.5 4.49683C8.5 4.22068 8.27614 3.99683 8 3.99683C7.72386 3.99683 7.5 4.22068 7.5 4.49683C7.5 4.77297 7.72386 4.99683 8 4.99683Z" fill="black"/>
<path d="M9.5 8.99683C9.77614 8.99683 10 8.77297 10 8.49683C10 8.22068 9.77614 7.99683 9.5 7.99683C9.22386 7.99683 9 8.22068 9 8.49683C9 8.77297 9.22386 8.99683 9.5 8.99683Z" fill="black"/>
<path d="M12.0314 10.7138C12.6636 10.1828 13.1687 9.51675 13.5094 8.76467C13.8502 8.01259 14.0178 7.19366 14.0001 6.36818C14.0001 6.32235 13.9982 6.27673 13.9945 6.23131C13.9905 6.16775 13.9624 6.10811 13.916 6.06455C13.8695 6.02099 13.8082 5.99681 13.7445 5.99693H12.2345L10.7889 7.73131C10.9694 8.03563 11.0366 8.39398 10.9785 8.74304C10.9204 9.09209 10.7408 9.40936 10.4713 9.63878C10.2019 9.86819 9.86008 9.99498 9.50623 9.99672C9.15238 9.99846 8.80931 9.87505 8.53765 9.6483C8.26599 9.42155 8.08324 9.10606 8.0217 8.7576C7.96017 8.40913 8.0238 8.05013 8.20136 7.74405C8.37893 7.43797 8.65898 7.20451 8.99202 7.08495C9.32507 6.96539 9.68966 6.96742 10.0214 7.09068L11.6157 5.17693C11.663 5.12114 11.7219 5.07639 11.7883 5.04583C11.8547 5.01527 11.927 4.99965 12.0001 5.00006H13.4464C13.4865 5.00011 13.526 4.9905 13.5616 4.97205C13.5972 4.9536 13.6279 4.92685 13.651 4.89406C13.6741 4.86127 13.689 4.82341 13.6944 4.78366C13.6998 4.74391 13.6955 4.70344 13.682 4.66568C12.9545 2.62506 11.0539 1.12506 8.79635 1.00506H8.75948C8.72587 1.0038 8.69235 1.00933 8.66093 1.02133C8.62951 1.03333 8.60083 1.05154 8.57661 1.07488C8.55239 1.09822 8.53314 1.12621 8.51999 1.15717C8.50684 1.18813 8.50008 1.22142 8.5001 1.25506V3.08318C8.83371 3.20113 9.11488 3.43322 9.29392 3.73842C9.47296 4.04363 9.53834 4.4023 9.4785 4.75105C9.41867 5.0998 9.23747 5.41616 8.96693 5.64424C8.6964 5.87231 8.35395 5.9974 8.0001 5.9974C7.64626 5.9974 7.30381 5.87231 7.03327 5.64424C6.76274 5.41616 6.58154 5.0998 6.52171 4.75105C6.46187 4.4023 6.52725 4.04363 6.70629 3.73842C6.88533 3.43322 7.1665 3.20113 7.5001 3.08318V1.39568C7.5002 1.35807 7.49181 1.32092 7.47556 1.28701C7.4593 1.25309 7.43561 1.22327 7.40623 1.19979C7.37685 1.1763 7.34256 1.15974 7.3059 1.15135C7.26923 1.14295 7.23115 1.14294 7.19448 1.15131C6.01849 1.44012 4.97038 2.1083 4.21222 3.05252C3.45406 3.99675 3.02807 5.16444 3.0001 6.37506L1.59698 9.07131L1.58323 9.09943C1.48096 9.33417 1.47263 9.5992 1.55996 9.8399C1.64728 10.0806 1.82361 10.2786 2.0526 10.3932L2.06823 10.4007L3.5001 11.0563V12.9938C3.5001 13.259 3.60546 13.5134 3.793 13.7009C3.98053 13.8885 4.23489 13.9938 4.5001 13.9938H7.0001V14.4938C7.0001 14.6264 7.05278 14.7536 7.14655 14.8474C7.24032 14.9411 7.3675 14.9938 7.5001 14.9938H11.9857C12.0743 14.9949 12.1616 14.9734 12.2395 14.9313C12.3275 14.8833 12.399 14.81 12.4448 14.7208C12.4906 14.6317 12.5086 14.5308 12.4964 14.4313L12.0314 10.7138Z" fill="black"/>
</g>
<defs>
<clipPath id="clip0_5_714">
<rect width="16" height="16" fill="white"/>
</clipPath>
</defs>
</svg>
