<svg width="16" height="16" viewBox="0 0 16 16" fill="none" xmlns="http://www.w3.org/2000/svg">
<g clip-path="url(#clip0_5_675)">
<path d="M15 6.375C15 10.75 8.51312 14.2913 8.23687 14.4375C8.16406 14.4767 8.08268 14.4972 8 14.4972C7.91732 14.4972 7.83594 14.4767 7.76312 14.4375C7.55375 14.325 3.79125 12.2694 1.97063 9.38188C1.94714 9.34405 1.93418 9.30064 1.93309 9.25614C1.932 9.21163 1.94281 9.16764 1.96441 9.12871C1.98601 9.08978 2.01761 9.05732 2.05595 9.0347C2.09429 9.01207 2.13798 9.00009 2.1825 9H4.5C4.58234 9.00005 4.66342 8.97977 4.73603 8.94096C4.80865 8.90214 4.87055 8.84599 4.91625 8.7775L5.5 7.9025L7.08375 10.2775C7.14443 10.3685 7.23329 10.4371 7.3367 10.4728C7.4401 10.5085 7.55236 10.5092 7.65625 10.475C7.76637 10.4378 7.86052 10.3642 7.92312 10.2662L8.7675 9H10C10.0685 9.00015 10.1364 8.98621 10.1993 8.95903C10.2622 8.93186 10.3189 8.89204 10.3658 8.84204C10.4127 8.79205 10.4488 8.73294 10.4719 8.6684C10.495 8.60387 10.5045 8.53527 10.5 8.46688C10.4888 8.33836 10.4295 8.21882 10.3338 8.13223C10.2382 8.04564 10.1134 7.99841 9.98438 8H8.5C8.41766 7.99995 8.33658 8.02023 8.26397 8.05904C8.19135 8.09786 8.12945 8.15401 8.08375 8.2225L7.5 9.0975L5.91625 6.7225C5.85557 6.63149 5.76671 6.56289 5.6633 6.52721C5.5599 6.49154 5.44764 6.49076 5.34375 6.525C5.23363 6.56218 5.13948 6.63582 5.07688 6.73375L4.2325 8H1.47063C1.4172 8.00015 1.36512 7.98317 1.32204 7.95157C1.27897 7.91996 1.24715 7.87539 1.23125 7.82438C1.08045 7.35593 1.00246 6.86711 1 6.375C1.00116 5.34764 1.40979 4.36269 2.13624 3.63624C2.86269 2.90979 3.84764 2.50116 4.875 2.5C6.16563 2.5 7.29562 3.055 8 3.99312C8.70438 3.055 9.83438 2.5 11.125 2.5C12.1524 2.50116 13.1373 2.90979 13.8638 3.63624C14.5902 4.36269 14.9988 5.34764 15 6.375Z" fill="black"/>
</g>
<defs>
<clipPath id="clip0_5_675">
<rect width="16" height="16" fill="white"/>
</clipPath>
</defs>
</svg>
