<svg width="16" height="16" viewBox="0 0 16 16" fill="none" xmlns="http://www.w3.org/2000/svg">
<g clip-path="url(#clip0_5_710)">
<path d="M14.9881 6.71873C14.6637 10.9325 8.50688 14.2956 8.23812 14.44C8.16531 14.4792 8.08393 14.4997 8.00125 14.4997C7.91857 14.4997 7.83719 14.4792 7.76438 14.44C7.4875 14.2919 1 10.75 1 6.37498C0.999826 5.67303 1.19033 4.98421 1.55117 4.3821C1.91201 3.77998 2.42962 3.2872 3.04873 2.95637C3.66784 2.62554 4.36519 2.4691 5.06629 2.50375C5.76739 2.5384 6.44591 2.76284 7.02938 3.15311C7.06029 3.17361 7.08626 3.20074 7.1054 3.23252C7.12453 3.26431 7.13635 3.29995 7.14 3.33687C7.14365 3.37379 7.13904 3.41106 7.1265 3.44597C7.11396 3.48089 7.09381 3.51257 7.0675 3.53873L6.2325 4.37498C6.1388 4.46874 6.08617 4.59587 6.08617 4.72842C6.08617 4.86097 6.1388 4.9881 6.2325 5.08186L8.26562 7.11498L6.9375 8.43748C6.88912 8.48345 6.85042 8.53864 6.82371 8.5998C6.79699 8.66095 6.78278 8.72684 6.78193 8.79357C6.78107 8.86031 6.79359 8.92653 6.81873 8.98835C6.84388 9.05017 6.88114 9.10634 6.92833 9.15353C6.97552 9.20072 7.03168 9.23798 7.0935 9.26313C7.15533 9.28827 7.22155 9.30079 7.28829 9.29993C7.35502 9.29908 7.42091 9.28487 7.48206 9.25815C7.54322 9.23143 7.59841 9.19274 7.64437 9.14436L9.32438 7.46498C9.41807 7.37123 9.47071 7.2441 9.47071 7.11155C9.47071 6.979 9.41807 6.85187 9.32438 6.75811L7.29375 4.72686L8.38562 3.63498C8.74764 3.27112 9.17872 2.98327 9.65355 2.78836C10.1284 2.59345 10.6374 2.49541 11.1506 2.49998C13.4206 2.51436 15.1619 4.45561 14.9881 6.71873Z" fill="black"/>
</g>
<defs>
<clipPath id="clip0_5_710">
<rect width="16" height="16" fill="white"/>
</clipPath>
</defs>
</svg>
