<svg width="16" height="16" viewBox="0 0 16 16" fill="none" xmlns="http://www.w3.org/2000/svg">
<g clip-path="url(#clip0_5_679)">
<path d="M11.125 2.5C9.83438 2.5 8.70438 3.055 8 3.99312C7.29562 3.055 6.16563 2.5 4.875 2.5C3.84764 2.50116 2.86269 2.90979 2.13624 3.63624C1.40979 4.36269 1.00116 5.34764 1 6.375C1 10.75 7.48688 14.2919 7.76312 14.4375C7.83594 14.4767 7.91732 14.4972 8 14.4972C8.08268 14.4972 8.16406 14.4767 8.23687 14.4375C8.51312 14.2919 15 10.75 15 6.375C14.9988 5.34764 14.5902 4.36269 13.8638 3.63624C13.1373 2.90979 12.1524 2.50116 11.125 2.5ZM8 13.425V6.5C8.00019 5.77367 8.26389 5.07207 8.74215 4.52542C9.22041 3.97877 9.88076 3.62419 10.6006 3.5275C10.7748 3.50958 10.9499 3.5004 11.125 3.5C11.8872 3.50099 12.6179 3.80421 13.1568 4.34316C13.6958 4.88212 13.999 5.61281 14 6.375C14 9.72563 9.14062 12.7594 8 13.425Z" fill="black"/>
</g>
<defs>
<clipPath id="clip0_5_679">
<rect width="16" height="16" fill="white"/>
</clipPath>
</defs>
</svg>
