<svg width="16" height="16" viewBox="0 0 16 16" fill="none" xmlns="http://www.w3.org/2000/svg">
<g clip-path="url(#clip0_5_676)">
<path d="M15.0002 6.12499C15.0012 6.60114 14.9079 7.07278 14.7255 7.51263C14.5431 7.95247 14.2753 8.35179 13.9377 8.68749L8.35641 14.3512C8.30988 14.3985 8.25443 14.436 8.19326 14.4616C8.1321 14.4872 8.06646 14.5004 8.00016 14.5004C7.93385 14.5004 7.86821 14.4872 7.80705 14.4616C7.74589 14.436 7.69043 14.3985 7.64391 14.3512L2.06266 8.68749C1.38221 8.00787 0.99961 7.08578 0.999024 6.12407C0.998438 5.16236 1.37991 4.23981 2.05953 3.55936C2.73915 2.87891 3.66124 2.49631 4.62295 2.49573C5.58466 2.49514 6.50721 2.87662 7.18766 3.55624L8.00016 4.31561L8.81828 3.55374C9.32606 3.04848 9.97215 2.70499 10.675 2.56663C11.3778 2.42827 12.1059 2.50125 12.7673 2.77634C13.4287 3.05144 13.9938 3.51633 14.3912 4.11231C14.7886 4.70829 15.0005 5.40866 15.0002 6.12499Z" fill="black"/>
</g>
<defs>
<clipPath id="clip0_5_676">
<rect width="16" height="16" fill="white"/>
</clipPath>
</defs>
</svg>
