<svg width="16" height="16" viewBox="0 0 16 16" fill="none" xmlns="http://www.w3.org/2000/svg">
<g clip-path="url(#clip0_5_1570)">
<path d="M7.08063 3.45687C6.387 2.79085 5.45721 2.42764 4.4958 2.44716C3.53438 2.46667 2.62009 2.86731 1.95407 3.56094C1.28804 4.25456 0.924836 5.18435 0.944351 6.14577C0.963867 7.10719 1.3645 8.02147 2.05813 8.6875L7.64375 14.3537C7.69028 14.401 7.74573 14.4385 7.80689 14.4641C7.86806 14.4897 7.9337 14.5029 8 14.5029C8.06631 14.5029 8.13195 14.4897 8.19311 14.4641C8.25427 14.4385 8.30973 14.401 8.35625 14.3537L13.9375 8.6875C14.6179 8.00788 15.0005 7.08579 15.0011 6.12408C15.0017 5.16237 14.6202 4.23982 13.9406 3.55937C13.261 2.87893 12.3389 2.49633 11.3772 2.49574C10.4155 2.49516 9.49295 2.87663 8.8125 3.55625L7.2875 4.99375L8.9375 6.645C8.98399 6.69143 9.02087 6.74658 9.04603 6.80728C9.07119 6.86798 9.08415 6.93304 9.08415 6.99875C9.08415 7.06446 9.07119 7.12952 9.04603 7.19022C9.02087 7.25092 8.98399 7.30606 8.9375 7.3525L7.64438 8.64562C7.59788 8.69204 7.5427 8.72884 7.48198 8.75393C7.42126 8.77901 7.3562 8.7919 7.2905 8.79184C7.2248 8.79178 7.15976 8.77878 7.09908 8.75359C7.03841 8.72839 6.98329 8.69149 6.93688 8.645C6.89046 8.5985 6.85366 8.54332 6.82858 8.4826C6.80349 8.42188 6.7906 8.35682 6.79066 8.29112C6.79072 8.22542 6.80372 8.16038 6.82891 8.0997C6.85411 8.03903 6.89101 7.98391 6.9375 7.9375L7.875 7L6.21875 5.33875C6.17114 5.29118 6.13363 5.23449 6.10845 5.17207C6.08328 5.10965 6.07097 5.0428 6.07225 4.97551C6.07353 4.90822 6.08839 4.84188 6.11593 4.78047C6.14346 4.71906 6.18311 4.66384 6.2325 4.61812L7.07938 3.81937C7.10396 3.79602 7.12354 3.76791 7.13692 3.73675C7.15029 3.70559 7.15719 3.67203 7.15719 3.63812C7.15719 3.60421 7.15029 3.57066 7.13692 3.5395C7.12354 3.50834 7.10396 3.48023 7.07938 3.45687H7.08063Z" fill="black"/>
</g>
<defs>
<clipPath id="clip0_5_1570">
<rect width="16" height="16" fill="white"/>
</clipPath>
</defs>
</svg>
