<svg width="16" height="16" viewBox="0 0 16 16" fill="none" xmlns="http://www.w3.org/2000/svg">
<g clip-path="url(#clip0_5_1530)">
<path d="M14.5 5.01125V10.9887C14.4996 11.1678 14.4511 11.3434 14.3597 11.4974C14.2682 11.6513 14.1371 11.7778 13.98 11.8637L8.48 14.8744C8.33305 14.9556 8.16789 14.9982 8 14.9982C7.83211 14.9982 7.66695 14.9556 7.52 14.8744L2.02 11.8637C1.86293 11.7778 1.73181 11.6513 1.64034 11.4974C1.54888 11.3434 1.50041 11.1678 1.5 10.9887V5.01125C1.50041 4.8322 1.54888 4.65655 1.64034 4.50264C1.73181 4.34872 1.86293 4.22219 2.02 4.13625L7.52 1.12562C7.66695 1.04442 7.83211 1.00183 8 1.00183C8.16789 1.00183 8.33305 1.04442 8.48 1.12562L13.98 4.13625C14.1371 4.22219 14.2682 4.34872 14.3597 4.50264C14.4511 4.65655 14.4996 4.8322 14.5 5.01125Z" fill="black"/>
</g>
<defs>
<clipPath id="clip0_5_1530">
<rect width="16" height="16" fill="white"/>
</clipPath>
</defs>
</svg>
