<svg width="16" height="16" viewBox="0 0 16 16" fill="none" xmlns="http://www.w3.org/2000/svg">
<g clip-path="url(#clip0_5_671)">
<path d="M12.5963 3.40371C11.3773 2.18471 9.72401 1.49988 8.00008 1.49988C6.27615 1.49988 4.62283 2.18471 3.40383 3.40371C2.18483 4.62271 1.5 6.27603 1.5 7.99996C1.5 9.72389 2.18483 11.3772 3.40383 12.5962C4.62283 13.8152 6.27615 14.5 8.00008 14.5C9.72401 14.5 11.3773 13.8152 12.5963 12.5962C13.8153 11.3772 14.5002 9.72389 14.5002 7.99996C14.5002 6.27603 13.8153 4.62271 12.5963 3.40371ZM6.00008 13.125V9.49996H10.0001V13.125C8.71362 13.625 7.28653 13.625 6.00008 13.125ZM11.8888 11.8887C11.6185 12.1596 11.3206 12.4015 11.0001 12.6106V9.49996C11.0001 9.23474 10.8947 8.98039 10.7072 8.79285C10.5196 8.60531 10.2653 8.49996 10.0001 8.49996V4.49996C10.0001 4.41468 9.97839 4.33081 9.9369 4.25632C9.89541 4.18182 9.83556 4.11917 9.76303 4.07433C9.6905 4.02948 9.60771 4.00393 9.52252 4.0001C9.43734 3.99628 9.35259 4.0143 9.27633 4.05246L6.27633 5.55246C6.19326 5.59403 6.12341 5.65791 6.07462 5.73695C6.02582 5.816 6.00001 5.90707 6.00008 5.99996V8.49996C5.73486 8.49996 5.48051 8.60531 5.29297 8.79285C5.10544 8.98039 5.00008 9.23474 5.00008 9.49996V12.6106C4.04726 11.9908 3.30988 11.091 2.88936 10.0349C2.46885 8.97888 2.38586 7.8185 2.65181 6.71336C2.91777 5.60823 3.51959 4.61265 4.37451 3.86354C5.22943 3.11444 6.29545 2.64862 7.42595 2.53016C8.55644 2.41169 9.69586 2.6464 10.6875 3.202C11.6791 3.7576 12.4743 4.6068 12.9636 5.63279C13.4528 6.65878 13.6122 7.81117 13.4197 8.93144C13.2273 10.0517 12.6925 11.0848 11.8888 11.8887Z" fill="black"/>
</g>
<defs>
<clipPath id="clip0_5_671">
<rect width="16" height="16" fill="white"/>
</clipPath>
</defs>
</svg>
