<svg width="16" height="16" viewBox="0 0 16 16" fill="none" xmlns="http://www.w3.org/2000/svg">
<g clip-path="url(#clip0_5_669)">
<path d="M15.8536 6.64628C15.8071 6.5998 15.752 6.56292 15.6913 6.53775C15.6306 6.51259 15.5655 6.49964 15.4998 6.49964C15.4341 6.49964 15.3691 6.51259 15.3084 6.53775C15.2477 6.56292 15.1925 6.5998 15.1461 6.64628L11.9998 9.79316L6.70671 4.50003L9.85359 1.35378C9.90004 1.30733 9.93689 1.25218 9.96203 1.19148C9.98717 1.13079 10.0001 1.06573 10.0001 1.00003C10.0001 0.934336 9.98717 0.869282 9.96203 0.808586C9.93689 0.747889 9.90004 0.692739 9.85359 0.646284C9.80713 0.599829 9.75198 0.562979 9.69128 0.537837C9.63059 0.512696 9.56553 0.499756 9.49984 0.499756C9.43414 0.499756 9.36908 0.512696 9.30839 0.537837C9.24769 0.562979 9.19254 0.599829 9.14608 0.646284L5.99983 3.79316C5.84855 3.94448 5.74978 4.14033 5.71806 4.35194C5.68633 4.56355 5.72332 4.77975 5.82358 4.96878L4.49983 6.29316C4.31244 6.48068 4.20717 6.73493 4.20717 7.00003C4.20717 7.26514 4.31244 7.51939 4.49983 7.70691L4.79296 8.00003L1.14608 11.6463C1.08577 11.7066 1.04187 11.7813 1.01856 11.8633C0.995246 11.9453 0.993301 12.0319 1.0129 12.1149C1.03251 12.1979 1.07301 12.2745 1.13056 12.3374C1.18811 12.4003 1.2608 12.4475 1.34171 12.4744L5.84171 13.9744C5.89267 13.9915 5.94608 14.0002 5.99983 14C6.06552 14.0001 6.13056 13.9872 6.19126 13.9621C6.25196 13.937 6.30712 13.9002 6.35358 13.8538L8.49983 11.7069L8.79296 12C8.98048 12.1874 9.23473 12.2927 9.49984 12.2927C9.76494 12.2927 10.0192 12.1874 10.2067 12L11.5305 10.6763C11.7196 10.7767 11.9359 10.8138 12.1476 10.782C12.3594 10.7503 12.5553 10.6515 12.7067 10.5L15.8536 7.35378C15.9001 7.30735 15.937 7.2522 15.9621 7.1915C15.9873 7.13081 16.0002 7.06574 16.0002 7.00003C16.0002 6.93433 15.9873 6.86926 15.9621 6.80856C15.937 6.74786 15.9001 6.69272 15.8536 6.64628ZM9.49984 11.2932L5.20671 7.00003L6.49983 5.70691L10.793 10L9.49984 11.2932Z" fill="black"/>
</g>
<defs>
<clipPath id="clip0_5_669">
<rect width="16" height="16" fill="white"/>
</clipPath>
</defs>
</svg>
