<svg width="16" height="16" viewBox="0 0 16 16" fill="none" xmlns="http://www.w3.org/2000/svg">
<g clip-path="url(#clip0_5_672)">
<path d="M2 9C2.80626 8.99935 3.60426 9.16244 4.34562 9.47938C4.39136 9.49831 4.43044 9.53039 4.45793 9.57156C4.48541 9.61273 4.50005 9.66113 4.5 9.71063V12C4.5 12.2652 4.39464 12.5196 4.20711 12.7071C4.01957 12.8946 3.76522 13 3.5 13H2.5C2.23478 13 1.98043 12.8946 1.79289 12.7071C1.60536 12.5196 1.5 12.2652 1.5 12V9.25C1.5 9.1837 1.52634 9.12011 1.57322 9.07322C1.62011 9.02634 1.6837 9 1.75 9H2ZM14.4375 9.76188L11.25 9.04438L4.35375 2.14625C4.30598 2.09851 4.24904 2.06093 4.18636 2.0358C4.12367 2.01066 4.05655 1.99849 3.98903 2C3.92151 2.00152 3.855 2.0167 3.79351 2.04463C3.73202 2.07256 3.67682 2.11266 3.63125 2.1625C2.25687 3.665 1.5 5.5625 1.5 7.5C1.5 7.63261 1.55268 7.75979 1.64645 7.85355C1.74021 7.94732 1.86739 8 2 8C3.41411 7.99812 4.79516 8.42765 5.95875 9.23125C7.09374 10.0102 7.97499 11.1053 8.49312 12.3806C8.56798 12.5647 8.69631 12.7221 8.86153 12.8325C9.02676 12.9429 9.22129 13.0013 9.42 13H15C15.2652 13 15.5196 12.8946 15.7071 12.7071C15.8946 12.5196 16 12.2652 16 12V11.7044C16.0011 11.2507 15.8466 10.8103 15.5623 10.4568C15.2779 10.1033 14.8809 9.85799 14.4375 9.76188Z" fill="black"/>
</g>
<defs>
<clipPath id="clip0_5_672">
<rect width="16" height="16" fill="white"/>
</clipPath>
</defs>
</svg>
