<svg width="16" height="16" viewBox="0 0 16 16" fill="none" xmlns="http://www.w3.org/2000/svg">
<g clip-path="url(#clip0_5_673)">
<path d="M12.25 8C12.25 8.53043 12.0393 9.03914 11.6642 9.41421C11.2891 9.78929 10.7804 10 10.25 10H9.5V6H10.25C10.7804 6 11.2891 6.21071 11.6642 6.58579C12.0393 6.96086 12.25 7.46957 12.25 8ZM14.5 3.5V12.5C14.5 12.7652 14.3946 13.0196 14.2071 13.2071C14.0196 13.3946 13.7652 13.5 13.5 13.5H2.5C2.23478 13.5 1.98043 13.3946 1.79289 13.2071C1.60536 13.0196 1.5 12.7652 1.5 12.5V3.5C1.5 3.23478 1.60536 2.98043 1.79289 2.79289C1.98043 2.60536 2.23478 2.5 2.5 2.5H13.5C13.7652 2.5 14.0196 2.60536 14.2071 2.79289C14.3946 2.98043 14.5 3.23478 14.5 3.5ZM7.5 5.5C7.5 5.36739 7.44732 5.24021 7.35355 5.14645C7.25979 5.05268 7.13261 5 7 5C6.86739 5 6.74021 5.05268 6.64645 5.14645C6.55268 5.24021 6.5 5.36739 6.5 5.5V7.5H4V5.5C4 5.36739 3.94732 5.24021 3.85355 5.14645C3.75979 5.05268 3.63261 5 3.5 5C3.36739 5 3.24021 5.05268 3.14645 5.14645C3.05268 5.24021 3 5.36739 3 5.5V10.5C3 10.6326 3.05268 10.7598 3.14645 10.8536C3.24021 10.9473 3.36739 11 3.5 11C3.63261 11 3.75979 10.9473 3.85355 10.8536C3.94732 10.7598 4 10.6326 4 10.5V8.5H6.5V10.5C6.5 10.6326 6.55268 10.7598 6.64645 10.8536C6.74021 10.9473 6.86739 11 7 11C7.13261 11 7.25979 10.9473 7.35355 10.8536C7.44732 10.7598 7.5 10.6326 7.5 10.5V5.5ZM13.25 8C13.2492 7.2046 12.9328 6.44202 12.3704 5.87959C11.808 5.31716 11.0454 5.00083 10.25 5H9C8.86739 5 8.74021 5.05268 8.64645 5.14645C8.55268 5.24021 8.5 5.36739 8.5 5.5V10.5C8.5 10.6326 8.55268 10.7598 8.64645 10.8536C8.74021 10.9473 8.86739 11 9 11H10.25C11.0454 10.9992 11.808 10.6828 12.3704 10.1204C12.9328 9.55798 13.2492 8.7954 13.25 8Z" fill="black"/>
</g>
<defs>
<clipPath id="clip0_5_673">
<rect width="16" height="16" fill="white"/>
</clipPath>
</defs>
</svg>
