<svg width="16" height="16" viewBox="0 0 16 16" fill="none" xmlns="http://www.w3.org/2000/svg">
<g clip-path="url(#clip0_5_667)">
<path d="M9.36875 7.67629L13.6187 2.67629C13.7046 2.57518 13.8271 2.51232 13.9593 2.50153C14.0916 2.49075 14.2226 2.53293 14.3237 2.61879C14.4249 2.70466 14.4877 2.82717 14.4985 2.95939C14.5093 3.0916 14.4671 3.22268 14.3813 3.32379L10.1313 8.32379C10.0887 8.37386 10.0368 8.41506 9.97834 8.44505C9.9199 8.47503 9.85612 8.49322 9.79066 8.49856C9.65845 8.50934 9.52736 8.46716 9.42625 8.3813C9.32514 8.29543 9.26227 8.17292 9.25149 8.0407C9.24071 7.90849 9.28289 7.77741 9.36875 7.67629ZM15 10.5V12.5C15 12.7653 14.8946 13.0196 14.7071 13.2072C14.5196 13.3947 14.2652 13.5 14 13.5H10.7312C10.5863 13.5 10.4431 13.4685 10.3115 13.4076C10.18 13.3467 10.0632 13.258 9.96937 13.1475L1.61875 3.32379C1.57623 3.27373 1.544 3.21578 1.52388 3.15325C1.50376 3.09073 1.49615 3.02485 1.50149 2.95939C1.50683 2.89392 1.52501 2.83015 1.555 2.77171C1.58498 2.71327 1.62618 2.66131 1.67625 2.61879C1.72632 2.57628 1.78427 2.54404 1.84679 2.52392C1.90932 2.5038 1.97519 2.4962 2.04066 2.50153C2.10612 2.50687 2.1699 2.52506 2.22834 2.55504C2.28677 2.58503 2.33873 2.62623 2.38125 2.67629L8.18125 9.50004H14C14.2652 9.50004 14.5196 9.6054 14.7071 9.79294C14.8946 9.98047 15 10.2348 15 10.5ZM14 10.5H13V12.5H14V10.5ZM7.20625 11.4413C7.24465 11.4865 7.26573 11.5439 7.26573 11.6032C7.26573 11.6625 7.24465 11.7199 7.20625 11.765L6.03062 13.1475C5.93677 13.258 5.82002 13.3467 5.68847 13.4076C5.55691 13.4685 5.4137 13.5 5.26875 13.5H2C1.73478 13.5 1.48043 13.3947 1.29289 13.2072C1.10536 13.0196 1 12.7653 1 12.5V10.5C1 10.2348 1.10536 9.98047 1.29289 9.79294C1.48043 9.6054 1.73478 9.50004 2 9.50004H5.44063C5.47636 9.50048 5.51159 9.50857 5.54393 9.52377C5.57628 9.53897 5.60499 9.56093 5.62813 9.58817L7.20625 11.4413ZM3 10.5H2V12.5H3V10.5Z" fill="black"/>
</g>
<defs>
<clipPath id="clip0_5_667">
<rect width="16" height="16" fill="white"/>
</clipPath>
</defs>
</svg>
