<svg width="16" height="16" viewBox="0 0 16 16" fill="none" xmlns="http://www.w3.org/2000/svg">
<g clip-path="url(#clip0_5_1021)">
<path d="M14.8319 7.53312L11.4376 2.445C11.3465 2.30845 11.2231 2.19643 11.0785 2.11882C10.9339 2.04121 10.7723 2.00041 10.6082 2H5.39193C5.22778 2.00041 5.06626 2.04121 4.92161 2.11882C4.77697 2.19643 4.65366 2.30845 4.56255 2.445L1.16818 7.53312C1.08879 7.65205 1.03582 7.78661 1.01286 7.92774C0.989895 8.06888 0.997463 8.21329 1.03505 8.35125L2.37505 13.2631C2.43276 13.4747 2.55841 13.6614 2.73267 13.7946C2.90693 13.9277 3.12013 13.9999 3.33943 14H5.00005C5.26527 14 5.51962 13.8946 5.70716 13.7071C5.8947 13.5196 6.00005 13.2652 6.00005 13V12H10.0001V13C10.0001 13.2652 10.1054 13.5196 10.2929 13.7071C10.4805 13.8946 10.7348 14 11.0001 14H12.6607C12.88 13.9999 13.0932 13.9277 13.2674 13.7946C13.4417 13.6614 13.5673 13.4747 13.6251 13.2631L14.9651 8.35125C15.0026 8.21329 15.0102 8.06888 14.9872 7.92774C14.9643 7.78661 14.9113 7.65205 14.8319 7.53312ZM5.00005 13H3.33943L2.00005 8.08813L4.00005 5.08813V11C4.00005 11.2652 4.10541 11.5196 4.29295 11.7071C4.48048 11.8946 4.73484 12 5.00005 12V13ZM7.50005 8.5C7.50005 8.63261 7.44738 8.75979 7.35361 8.85355C7.25984 8.94732 7.13266 9 7.00005 9C6.86745 9 6.74027 8.94732 6.6465 8.85355C6.55273 8.75979 6.50005 8.63261 6.50005 8.5V6.07125C6.50005 5.93864 6.55273 5.81146 6.6465 5.7177C6.74027 5.62393 6.86745 5.57125 7.00005 5.57125C7.13266 5.57125 7.25984 5.62393 7.35361 5.7177C7.44738 5.81146 7.50005 5.93864 7.50005 6.07125V8.5ZM9.50005 8C9.50005 8.13261 9.44738 8.25979 9.35361 8.35355C9.25984 8.44732 9.13266 8.5 9.00005 8.5C8.86745 8.5 8.74027 8.44732 8.6465 8.35355C8.55273 8.25979 8.50005 8.13261 8.50005 8V6.07125C8.50005 5.93864 8.55273 5.81146 8.6465 5.7177C8.74027 5.62393 8.86745 5.57125 9.00005 5.57125C9.13266 5.57125 9.25984 5.62393 9.35361 5.7177C9.44738 5.81146 9.50005 5.93864 9.50005 6.07125V8ZM8.00005 4.91937L5.20943 3.27437L5.39193 3H10.6082L10.7907 3.27437L8.00005 4.91937ZM12.6607 13H11.0001V12C11.2653 12 11.5196 11.8946 11.7072 11.7071C11.8947 11.5196 12.0001 11.2652 12.0001 11V5.08813L14.0001 8.08813L12.6607 13Z" fill="black"/>
</g>
<defs>
<clipPath id="clip0_5_1021">
<rect width="16" height="16" fill="white"/>
</clipPath>
</defs>
</svg>
