<svg width="16" height="16" viewBox="0 0 16 16" fill="none" xmlns="http://www.w3.org/2000/svg">
<g clip-path="url(#clip0_5_1018)">
<path d="M12.628 3.43753C12.0251 2.8219 11.3049 2.33328 10.51 2.00052C9.71513 1.66775 8.86165 1.49757 7.99992 1.50003H7.49992C7.36732 1.50003 7.24014 1.5527 7.14637 1.64647C7.0526 1.74024 6.99992 1.86742 6.99992 2.00003V3.72065L0.738049 7.5744C0.681913 7.60897 0.633169 7.6543 0.594621 7.70779C0.556073 7.76127 0.528482 7.82185 0.513438 7.88604C0.498393 7.95023 0.49619 8.01676 0.506957 8.0818C0.517724 8.14684 0.541248 8.20911 0.576174 8.26503L1.43742 9.64003L1.45617 9.6669C1.67417 9.97128 1.97362 10.208 2.3201 10.3498C2.66659 10.4917 3.04606 10.5329 3.41492 10.4688C4.28555 10.3213 5.82867 10.06 7.25242 10.6744L5.58992 12.96C5.13347 12.7431 4.71042 12.4619 4.33367 12.125C4.23422 12.0366 4.10371 11.9913 3.97085 11.9991C3.83799 12.0069 3.71367 12.0671 3.62524 12.1666C3.5368 12.266 3.4915 12.3966 3.4993 12.5294C3.50709 12.6623 3.56734 12.7866 3.6668 12.875C4.85969 13.9324 6.40152 14.5112 7.99555 14.5H8.13117C9.40168 14.4749 10.637 14.078 11.6842 13.3582C12.7315 12.6385 13.5449 11.6276 14.0237 10.4505C14.5025 9.27339 14.6258 7.98176 14.3783 6.73534C14.1308 5.48892 13.5234 4.34238 12.6312 3.43753H12.628ZM7.74992 7.00003C7.60159 7.00003 7.45658 6.95604 7.33325 6.87363C7.20991 6.79122 7.11378 6.67408 7.05701 6.53704C7.00025 6.39999 6.9854 6.24919 7.01434 6.10371C7.04327 5.95822 7.1147 5.82459 7.21959 5.7197C7.32448 5.61481 7.45812 5.54338 7.60361 5.51444C7.74909 5.4855 7.89989 5.50035 8.03694 5.55712C8.17398 5.61388 8.29111 5.71001 8.37353 5.83335C8.45594 5.95669 8.49992 6.10169 8.49992 6.25003C8.49992 6.44894 8.42091 6.6397 8.28025 6.78036C8.1396 6.92101 7.94884 7.00003 7.74992 7.00003Z" fill="black"/>
</g>
<defs>
<clipPath id="clip0_5_1018">
<rect width="16" height="16" fill="white"/>
</clipPath>
</defs>
</svg>
