<svg width="16" height="16" viewBox="0 0 16 16" fill="none" xmlns="http://www.w3.org/2000/svg">
<g clip-path="url(#clip0_5_1317)">
<path d="M13.2068 12.2931C13.3466 12.433 13.4417 12.6111 13.4803 12.805C13.5188 12.999 13.499 13.2 13.4234 13.3826C13.3477 13.5653 13.2196 13.7214 13.0552 13.8313C12.8909 13.9412 12.6976 13.9999 12.4999 14H3.49992C3.30215 14 3.10881 13.9414 2.94435 13.8316C2.7799 13.7217 2.6517 13.5656 2.57597 13.3829C2.50024 13.2002 2.48039 12.9992 2.51892 12.8052C2.55744 12.6112 2.65262 12.433 2.79242 12.2931C2.79528 12.2906 2.79799 12.2879 2.80054 12.285L7.27679 8L2.80117 3.715C2.79862 3.71214 2.79591 3.70942 2.79304 3.70688C2.65328 3.56702 2.55812 3.38888 2.51957 3.19496C2.48102 3.00104 2.50083 2.80005 2.57648 2.61738C2.65213 2.43471 2.78023 2.27857 2.94459 2.16868C3.10895 2.05879 3.3022 2.00009 3.49992 2H12.4999C12.6977 1.99997 12.891 2.05858 13.0555 2.16842C13.2199 2.27826 13.3481 2.4344 13.4239 2.61709C13.4996 2.79978 13.5194 3.00083 13.4809 3.19481C13.4424 3.38879 13.3472 3.56699 13.2074 3.70688C13.2046 3.70942 13.2018 3.71214 13.1993 3.715L8.72304 8L13.1987 12.285C13.2012 12.2879 13.2039 12.2906 13.2068 12.2931Z" fill="black"/>
</g>
<defs>
<clipPath id="clip0_5_1317">
<rect width="16" height="16" fill="white"/>
</clipPath>
</defs>
</svg>
