<svg width="16" height="16" viewBox="0 0 16 16" fill="none" xmlns="http://www.w3.org/2000/svg">
<g clip-path="url(#clip0_5_662)">
<path d="M14 7.50004V13.5C14 13.6326 13.9473 13.7598 13.8536 13.8536C13.7598 13.9474 13.6326 14 13.5 14H2.50001C2.3674 14 2.24022 13.9474 2.14645 13.8536C2.05268 13.7598 2.00001 13.6326 2.00001 13.5V7.50004C1.99954 7.36857 2.02521 7.23832 2.07553 7.11686C2.12586 6.9954 2.19982 6.88516 2.29313 6.79254L7.29313 1.79254C7.48065 1.60514 7.7349 1.49988 8.00001 1.49988C8.26511 1.49988 8.51936 1.60514 8.70688 1.79254L13.7069 6.79254C13.8002 6.88516 13.8742 6.9954 13.9245 7.11686C13.9748 7.23832 14.0005 7.36857 14 7.50004Z" fill="black"/>
</g>
<defs>
<clipPath id="clip0_5_662">
<rect width="16" height="16" fill="white"/>
</clipPath>
</defs>
</svg>
