<svg width="16" height="16" viewBox="0 0 16 16" fill="none" xmlns="http://www.w3.org/2000/svg">
<g clip-path="url(#clip0_5_981)">
<path d="M9.895 2.83501L10.4831 0.628762C10.5051 0.546074 10.5056 0.459119 10.4844 0.376219C10.4632 0.293319 10.421 0.217248 10.362 0.155285C10.303 0.0933231 10.2291 0.0475431 10.1473 0.0223264C10.0655 -0.00289036 9.97866 -0.00669998 9.895 0.0112621C8.59564 0.33015 7.35735 0.859883 6.22937 1.57939C3.78937 3.14814 2.5 5.36814 2.5 8.00001C2.50062 9.12627 2.84655 10.2253 3.49116 11.1488C4.13576 12.0723 5.04804 12.776 6.105 13.165L5.51687 15.3713C5.49486 15.454 5.49443 15.5409 5.51564 15.6238C5.53684 15.7067 5.57897 15.7828 5.63798 15.8447C5.697 15.9067 5.77093 15.9525 5.8527 15.9777C5.93446 16.0029 6.02134 16.0067 6.105 15.9888C7.40436 15.6699 8.64265 15.1401 9.77063 14.4206C12.2106 12.8519 13.5 10.6319 13.5 8.00001C13.4995 6.87373 13.1536 5.77471 12.509 4.85114C11.8643 3.92758 10.952 3.2239 9.895 2.83501ZM8 9.50001C7.70333 9.50001 7.41332 9.41204 7.16664 9.24722C6.91997 9.08239 6.72771 8.84813 6.61418 8.57404C6.50065 8.29995 6.47094 7.99835 6.52882 7.70738C6.5867 7.4164 6.72956 7.14913 6.93934 6.93935C7.14912 6.72957 7.41639 6.58671 7.70736 6.52883C7.99834 6.47096 8.29994 6.50066 8.57403 6.61419C8.84811 6.72772 9.08238 6.91998 9.2472 7.16666C9.41203 7.41333 9.5 7.70334 9.5 8.00001C9.5 8.39784 9.34196 8.77937 9.06066 9.06067C8.77936 9.34198 8.39782 9.50001 8 9.50001Z" fill="black"/>
</g>
<defs>
<clipPath id="clip0_5_981">
<rect width="16" height="16" fill="white"/>
</clipPath>
</defs>
</svg>
