<svg width="16" height="16" viewBox="0 0 16 16" fill="none" xmlns="http://www.w3.org/2000/svg">
<g clip-path="url(#clip0_5_660)">
<path d="M13 6.08563V6C13 4.67392 12.4732 3.40215 11.5355 2.46447C10.5978 1.52678 9.32605 1 7.99997 1C6.67389 1 5.40212 1.52678 4.46444 2.46447C3.52676 3.40215 2.99997 4.67392 2.99997 6V6.08563C2.66625 6.20349 2.38496 6.43557 2.20583 6.74081C2.0267 7.04606 1.96127 7.40481 2.02111 7.75364C2.08096 8.10247 2.26222 8.4189 2.53285 8.64698C2.80348 8.87507 3.14605 9.00011 3.49997 9H3.7056L7.13185 14.9963C7.21933 15.1493 7.3457 15.2764 7.49815 15.3649C7.6506 15.4533 7.82372 15.4999 7.99997 15.4999C8.17622 15.4999 8.34934 15.4533 8.5018 15.3649C8.65425 15.2764 8.78062 15.1493 8.8681 14.9963L12.2943 9H12.5C12.8539 9.00011 13.1965 8.87507 13.4671 8.64698C13.7377 8.4189 13.919 8.10247 13.9788 7.75364C14.0387 7.40481 13.9732 7.04606 13.7941 6.74081C13.615 6.43557 13.3337 6.20349 13 6.08563ZM9.1806 12.4338L7.21872 9H8.42435L9.78372 11.3787L9.1806 12.4338ZM4.85685 9H6.06685L8.60497 13.4412L7.99997 14.5L4.85685 9ZM10.3568 10.3713L9.5756 9H11.1431L10.3568 10.3713Z" fill="black"/>
</g>
<defs>
<clipPath id="clip0_5_660">
<rect width="16" height="16" fill="white"/>
</clipPath>
</defs>
</svg>
