<svg width="16" height="16" viewBox="0 0 16 16" fill="none" xmlns="http://www.w3.org/2000/svg">
<g clip-path="url(#clip0_5_658)">
<path d="M7 7.5C7 7.69778 6.94135 7.89112 6.83147 8.05557C6.72159 8.22002 6.56541 8.34819 6.38268 8.42388C6.19996 8.49957 5.99889 8.51937 5.80491 8.48079C5.61093 8.4422 5.43275 8.34696 5.29289 8.20711C5.15304 8.06725 5.0578 7.88907 5.01921 7.69509C4.98063 7.50111 5.00043 7.30004 5.07612 7.11732C5.15181 6.93459 5.27998 6.77841 5.44443 6.66853C5.60888 6.55865 5.80222 6.5 6 6.5C6.26522 6.5 6.51957 6.60536 6.70711 6.79289C6.89464 6.98043 7 7.23478 7 7.5ZM14.5 3.5V12.5C14.5 12.7652 14.3946 13.0196 14.2071 13.2071C14.0196 13.3946 13.7652 13.5 13.5 13.5H2.5C2.23478 13.5 1.98043 13.3946 1.79289 13.2071C1.60536 13.0196 1.5 12.7652 1.5 12.5V3.5C1.5 3.23478 1.60536 2.98043 1.79289 2.79289C1.98043 2.60536 2.23478 2.5 2.5 2.5H13.5C13.7652 2.5 14.0196 2.60536 14.2071 2.79289C14.3946 2.98043 14.5 3.23478 14.5 3.5ZM8.48438 10.375C8.32258 9.77088 7.93893 9.24998 7.41 8.91625C7.6909 8.63702 7.88256 8.28068 7.9607 7.89239C8.03883 7.50411 7.99992 7.10136 7.8489 6.73522C7.69787 6.36907 7.44153 6.05601 7.11238 5.83572C6.78322 5.61543 6.39607 5.49784 6 5.49784C5.60393 5.49784 5.21678 5.61543 4.88762 5.83572C4.55847 6.05601 4.30213 6.36907 4.1511 6.73522C4.00008 7.10136 3.96117 7.50411 4.0393 7.89239C4.11744 8.28068 4.3091 8.63702 4.59 8.91625C4.06141 9.25034 3.67788 9.77109 3.51562 10.375C3.48247 10.5035 3.50171 10.6398 3.56911 10.7541C3.6365 10.8684 3.74654 10.9512 3.875 10.9844C4.00346 11.0175 4.13984 10.9983 4.25412 10.9309C4.3684 10.8635 4.45122 10.7535 4.48438 10.625C4.64937 9.98438 5.30063 9.5 6 9.5C6.69938 9.5 7.35125 9.98312 7.51562 10.625C7.54878 10.7535 7.6316 10.8635 7.74588 10.9309C7.86016 10.9983 7.99654 11.0175 8.125 10.9844C8.25346 10.9512 8.3635 10.8684 8.43089 10.7541C8.49829 10.6398 8.51753 10.5035 8.48438 10.375ZM12.5 9C12.5 8.86739 12.4473 8.74021 12.3536 8.64645C12.2598 8.55268 12.1326 8.5 12 8.5H9.5C9.36739 8.5 9.24021 8.55268 9.14645 8.64645C9.05268 8.74021 9 8.86739 9 9C9 9.13261 9.05268 9.25979 9.14645 9.35355C9.24021 9.44732 9.36739 9.5 9.5 9.5H12C12.1326 9.5 12.2598 9.44732 12.3536 9.35355C12.4473 9.25979 12.5 9.13261 12.5 9ZM12.5 7C12.5 6.86739 12.4473 6.74021 12.3536 6.64645C12.2598 6.55268 12.1326 6.5 12 6.5H9.5C9.36739 6.5 9.24021 6.55268 9.14645 6.64645C9.05268 6.74021 9 6.86739 9 7C9 7.13261 9.05268 7.25979 9.14645 7.35355C9.24021 7.44732 9.36739 7.5 9.5 7.5H12C12.1326 7.5 12.2598 7.44732 12.3536 7.35355C12.4473 7.25979 12.5 7.13261 12.5 7Z" fill="black"/>
</g>
<defs>
<clipPath id="clip0_5_658">
<rect width="16" height="16" fill="white"/>
</clipPath>
</defs>
</svg>
