<svg width="16" height="16" viewBox="0 0 16 16" fill="none" xmlns="http://www.w3.org/2000/svg">
<g clip-path="url(#clip0_5_976)">
<path d="M13.5 2.5H2.5C2.23478 2.5 1.98043 2.60536 1.79289 2.79289C1.60536 2.98043 1.5 3.23478 1.5 3.5V12.5C1.5 12.7652 1.60536 13.0196 1.79289 13.2071C1.98043 13.3946 2.23478 13.5 2.5 13.5H6.5C6.60495 13.5 6.70723 13.467 6.79237 13.4056C6.87751 13.3443 6.94119 13.2577 6.97437 13.1581L7.90125 10.3781L10.1875 9.46437C10.2503 9.43901 10.3073 9.40125 10.3552 9.35336C10.4031 9.30547 10.4409 9.24842 10.4663 9.18563L11.38 6.90125L14.16 5.97437C14.2592 5.94087 14.3454 5.87705 14.4064 5.79194C14.4674 5.70683 14.5001 5.60472 14.5 5.5V3.5C14.5 3.23478 14.3946 2.98043 14.2071 2.79289C14.0196 2.60536 13.7652 2.5 13.5 2.5ZM7.3125 9.53563C7.245 9.56261 7.1842 9.60399 7.13433 9.65689C7.08446 9.70978 7.04672 9.77291 7.02375 9.84188L6.13938 12.5H2.5V10.0431L5.39625 7.14625C5.44269 7.09976 5.49783 7.06288 5.55853 7.03772C5.61923 7.01256 5.68429 6.99961 5.75 6.99961C5.81571 6.99961 5.88077 7.01256 5.94147 7.03772C6.00217 7.06288 6.05731 7.09976 6.10375 7.14625L8.15625 9.19875L7.3125 9.53563ZM14.5 7.60813V12.5C14.5 12.7652 14.3946 13.0196 14.2071 13.2071C14.0196 13.3946 13.7652 13.5 13.5 13.5H8.60812C8.52889 13.5 8.4508 13.4812 8.38027 13.4451C8.30974 13.409 8.2488 13.3566 8.20247 13.2924C8.15615 13.2281 8.12576 13.1537 8.11381 13.0754C8.10186 12.9971 8.10869 12.917 8.13375 12.8419L8.63 11.3544C8.65291 11.2855 8.69055 11.2224 8.7403 11.1695C8.79006 11.1166 8.85074 11.0752 8.91813 11.0481L11.1538 10.1538L12.0481 7.91813C12.0752 7.85074 12.1166 7.79006 12.1695 7.7403C12.2224 7.69055 12.2855 7.65291 12.3544 7.63L13.8419 7.13375C13.917 7.10869 13.9971 7.10186 14.0754 7.11381C14.1537 7.12576 14.2281 7.15615 14.2924 7.20247C14.3566 7.2488 14.409 7.30974 14.4451 7.38027C14.4812 7.4508 14.5 7.52889 14.5 7.60813Z" fill="black"/>
</g>
<defs>
<clipPath id="clip0_5_976">
<rect width="16" height="16" fill="white"/>
</clipPath>
</defs>
</svg>
