<svg width="16" height="16" viewBox="0 0 16 16" fill="none" xmlns="http://www.w3.org/2000/svg">
<g clip-path="url(#clip0_5_655)">
<path d="M13 2H3C2.73478 2 2.48043 2.10536 2.29289 2.29289C2.10536 2.48043 2 2.73478 2 3V13C2 13.2652 2.10536 13.5196 2.29289 13.7071C2.48043 13.8946 2.73478 14 3 14H13C13.2652 14 13.5196 13.8946 13.7071 13.7071C13.8946 13.5196 14 13.2652 14 13V3C14 2.73478 13.8946 2.48043 13.7071 2.29289C13.5196 2.10536 13.2652 2 13 2ZM3 3H13V7.83625L11.4569 6.2925C11.2694 6.10511 11.0151 5.99984 10.75 5.99984C10.4849 5.99984 10.2306 6.10511 10.0431 6.2925L3.33562 13H3V3ZM5 6C5 5.80222 5.05865 5.60888 5.16853 5.44443C5.27841 5.27998 5.43459 5.15181 5.61732 5.07612C5.80004 5.00043 6.00111 4.98063 6.19509 5.01921C6.38907 5.0578 6.56725 5.15304 6.70711 5.29289C6.84696 5.43275 6.9422 5.61093 6.98079 5.80491C7.01937 5.99889 6.99957 6.19996 6.92388 6.38268C6.84819 6.56541 6.72002 6.72159 6.55557 6.83147C6.39112 6.94135 6.19778 7 6 7C5.73478 7 5.48043 6.89464 5.29289 6.70711C5.10536 6.51957 5 6.26522 5 6Z" fill="black"/>
</g>
<defs>
<clipPath id="clip0_5_655">
<rect width="16" height="16" fill="white"/>
</clipPath>
</defs>
</svg>
