<svg width="16" height="16" viewBox="0 0 16 16" fill="none" xmlns="http://www.w3.org/2000/svg">
<g clip-path="url(#clip0_5_656)">
<path d="M13.5 2.5H2.5C2.23478 2.5 1.98043 2.60536 1.79289 2.79289C1.60536 2.98043 1.5 3.23478 1.5 3.5V12.5C1.5 12.7652 1.60536 13.0196 1.79289 13.2071C1.98043 13.3946 2.23478 13.5 2.5 13.5H13.5C13.7652 13.5 14.0196 13.3946 14.2071 13.2071C14.3946 13.0196 14.5 12.7652 14.5 12.5V3.5C14.5 3.23478 14.3946 2.98043 14.2071 2.79289C14.0196 2.60536 13.7652 2.5 13.5 2.5ZM9.75 5.5C9.89834 5.5 10.0433 5.54399 10.1667 5.6264C10.29 5.70881 10.3861 5.82594 10.4429 5.96299C10.4997 6.10003 10.5145 6.25083 10.4856 6.39632C10.4566 6.5418 10.3852 6.67544 10.2803 6.78033C10.1754 6.88522 10.0418 6.95665 9.89632 6.98559C9.75083 7.01453 9.60003 6.99968 9.46299 6.94291C9.32594 6.88614 9.20881 6.79001 9.1264 6.66668C9.04399 6.54334 9 6.39834 9 6.25C9 6.05109 9.07902 5.86032 9.21967 5.71967C9.36032 5.57902 9.55109 5.5 9.75 5.5ZM13.5 12.5H2.5V10.0431L5.39625 7.14625C5.44269 7.09976 5.49783 7.06288 5.55853 7.03772C5.61923 7.01256 5.68429 6.99961 5.75 6.99961C5.81571 6.99961 5.88077 7.01256 5.94147 7.03772C6.00217 7.06288 6.05731 7.09976 6.10375 7.14625L10.3125 11.3538C10.4063 11.4476 10.5336 11.5003 10.6663 11.5003C10.7989 11.5003 10.9262 11.4476 11.02 11.3538C11.1138 11.2599 11.1665 11.1327 11.1665 11C11.1665 10.8673 11.1138 10.7401 11.02 10.6462L9.91625 9.54313L10.8125 8.64625C10.9063 8.55255 11.0334 8.49992 11.1659 8.49992C11.2985 8.49992 11.4256 8.55255 11.5194 8.64625L13.5 10.6294V12.5Z" fill="black"/>
</g>
<defs>
<clipPath id="clip0_5_656">
<rect width="16" height="16" fill="white"/>
</clipPath>
</defs>
</svg>
