<svg width="16" height="16" viewBox="0 0 16 16" fill="none" xmlns="http://www.w3.org/2000/svg">
<g clip-path="url(#clip0_5_652)">
<path d="M13 2H5C4.73478 2 4.48043 2.10536 4.29289 2.29289C4.10536 2.48043 4 2.73478 4 3V4H3C2.73478 4 2.48043 4.10536 2.29289 4.29289C2.10536 4.48043 2 4.73478 2 5V13C2 13.2652 2.10536 13.5196 2.29289 13.7071C2.48043 13.8946 2.73478 14 3 14H11C11.2652 14 11.5196 13.8946 11.7071 13.7071C11.8946 13.5196 12 13.2652 12 13V12H13C13.2652 12 13.5196 11.8946 13.7071 11.7071C13.8946 11.5196 14 11.2652 14 11V3C14 2.73478 13.8946 2.48043 13.7071 2.29289C13.5196 2.10536 13.2652 2 13 2ZM5 3H13V7.33625L11.9563 6.2925C11.7687 6.10511 11.5145 5.99984 11.2494 5.99984C10.9843 5.99984 10.73 6.10511 10.5425 6.2925L5.83563 11H5V3ZM11 13H3V5H4V11C4 11.2652 4.10536 11.5196 4.29289 11.7071C4.48043 11.8946 4.73478 12 5 12H11V13ZM6.5 5.5C6.5 5.30222 6.55865 5.10888 6.66853 4.94443C6.77841 4.77998 6.93459 4.65181 7.11732 4.57612C7.30004 4.50043 7.50111 4.48063 7.69509 4.51921C7.88907 4.5578 8.06725 4.65304 8.20711 4.79289C8.34696 4.93275 8.4422 5.11093 8.48079 5.30491C8.51937 5.49889 8.49957 5.69996 8.42388 5.88268C8.34819 6.06541 8.22002 6.22159 8.05557 6.33147C7.89112 6.44135 7.69778 6.5 7.5 6.5C7.23478 6.5 6.98043 6.39464 6.79289 6.20711C6.60536 6.01957 6.5 5.76522 6.5 5.5Z" fill="black"/>
</g>
<defs>
<clipPath id="clip0_5_652">
<rect width="16" height="16" fill="white"/>
</clipPath>
</defs>
</svg>
