<svg width="16" height="16" viewBox="0 0 16 16" fill="none" xmlns="http://www.w3.org/2000/svg">
<g clip-path="url(#clip0_5_650)">
<path d="M13.5 2.5H2.5C2.23478 2.5 1.98043 2.60536 1.79289 2.79289C1.60536 2.98043 1.5 3.23478 1.5 3.5V12.5C1.5 12.7652 1.60536 13.0196 1.79289 13.2071C1.98043 13.3946 2.23478 13.5 2.5 13.5H13.5C13.7652 13.5 14.0196 13.3946 14.2071 13.2071C14.3946 13.0196 14.5 12.7652 14.5 12.5V3.5C14.5 3.23478 14.3946 2.98043 14.2071 2.79289C14.0196 2.60536 13.7652 2.5 13.5 2.5ZM12.7675 9.7675C12.3005 10.2345 11.6677 10.4978 11.0072 10.4998C10.3467 10.5018 9.71231 10.2423 9.2425 9.77812L6.08063 6.95875L6.0625 6.9375C5.85251 6.72824 5.58523 6.5859 5.2944 6.52844C5.00357 6.47099 4.70224 6.501 4.42845 6.61468C4.15467 6.72836 3.92071 6.92063 3.75612 7.16719C3.59153 7.41375 3.50368 7.70355 3.50368 8C3.50368 8.29645 3.59153 8.58625 3.75612 8.83281C3.92071 9.07937 4.15467 9.27164 4.42845 9.38532C4.70224 9.499 5.00357 9.52901 5.2944 9.47156C5.58523 9.4141 5.85251 9.27176 6.0625 9.0625C6.085 9.04 6.10687 9.01687 6.125 8.99375C6.1685 8.9445 6.22127 8.90431 6.28031 8.87546C6.33934 8.84661 6.40348 8.82967 6.46906 8.82561C6.53465 8.82154 6.60039 8.83044 6.66253 8.85178C6.72467 8.87312 6.782 8.9065 6.83125 8.95C6.8805 8.9935 6.92069 9.04627 6.94954 9.10531C6.97839 9.16434 6.99533 9.22848 6.99939 9.29406C7.00346 9.35965 6.99456 9.42538 6.97322 9.48753C6.95188 9.54967 6.9185 9.607 6.875 9.65625C6.84062 9.695 6.80438 9.73312 6.76813 9.76937C6.41897 10.1186 5.9742 10.3566 5.48993 10.4534C5.00566 10.5501 4.50358 10.5013 4.04703 10.313C3.59048 10.1248 3.19992 9.8055 2.92462 9.39551C2.64932 8.98552 2.50161 8.50318 2.50013 8.00934C2.49865 7.51549 2.64347 7.03228 2.91631 6.62065C3.18914 6.20901 3.57778 5.88741 4.0332 5.6964C4.48861 5.5054 4.99039 5.45355 5.47523 5.54741C5.96007 5.64126 6.40626 5.8766 6.7575 6.22375L9.91875 9.04313L9.93937 9.0625C10.1495 9.27157 10.417 9.41368 10.7078 9.47088C10.9987 9.52808 11.3 9.4978 11.5737 9.38388C11.8474 9.26995 12.0812 9.07748 12.2456 8.83078C12.4099 8.58407 12.4975 8.29419 12.4973 7.99774C12.497 7.70129 12.4089 7.41157 12.2441 7.16515C12.0793 6.91874 11.8451 6.72668 11.5713 6.61324C11.2974 6.4998 10.996 6.47005 10.7052 6.52777C10.4145 6.58548 10.1473 6.72806 9.9375 6.9375C9.915 6.96 9.89375 6.9825 9.875 7.00625C9.78723 7.10571 9.66355 7.16622 9.53116 7.17449C9.39877 7.18275 9.26852 7.13808 9.16906 7.05031C9.06961 6.96254 9.00909 6.83886 9.00083 6.70647C8.99256 6.57408 9.03723 6.44383 9.125 6.34438C9.15875 6.30563 9.195 6.26688 9.23188 6.23063C9.70243 5.77041 10.3355 5.51432 10.9937 5.51795C11.6519 5.52157 12.2821 5.78461 12.7475 6.24999C13.213 6.71536 13.4761 7.34552 13.4799 8.0037C13.4836 8.66188 13.2276 9.29499 12.7675 9.76562V9.7675Z" fill="black"/>
</g>
<defs>
<clipPath id="clip0_5_650">
<rect width="16" height="16" fill="white"/>
</clipPath>
</defs>
</svg>
