<svg width="16" height="16" viewBox="0 0 16 16" fill="none" xmlns="http://www.w3.org/2000/svg">
<g clip-path="url(#clip0_5_1087)">
<path d="M10 8C10 8.39556 9.8827 8.78224 9.66294 9.11114C9.44318 9.44004 9.13082 9.69638 8.76537 9.84776C8.39991 9.99913 7.99778 10.0387 7.60982 9.96157C7.22186 9.8844 6.86549 9.69392 6.58579 9.41421C6.30608 9.13451 6.1156 8.77814 6.03843 8.39018C5.96126 8.00222 6.00087 7.60009 6.15224 7.23463C6.30362 6.86918 6.55996 6.55682 6.88886 6.33706C7.21776 6.1173 7.60444 6 8 6C8.53043 6 9.03914 6.21071 9.41421 6.58579C9.78929 6.96086 10 7.46957 10 8ZM14.5 5V11C14.499 11.928 14.1299 12.8176 13.4738 13.4738C12.8176 14.1299 11.928 14.499 11 14.5H5C4.07205 14.499 3.18238 14.1299 2.52622 13.4738C1.87006 12.8176 1.50099 11.928 1.5 11V5C1.50099 4.07205 1.87006 3.18238 2.52622 2.52622C3.18238 1.87006 4.07205 1.50099 5 1.5H11C11.928 1.50099 12.8176 1.87006 13.4738 2.52622C14.1299 3.18238 14.499 4.07205 14.5 5ZM11 8C11 7.40666 10.8241 6.82664 10.4944 6.33329C10.1648 5.83994 9.69623 5.45542 9.14805 5.22836C8.59987 5.0013 7.99667 4.94189 7.41473 5.05764C6.83279 5.1734 6.29824 5.45912 5.87868 5.87868C5.45912 6.29824 5.1734 6.83279 5.05764 7.41473C4.94189 7.99667 5.0013 8.59987 5.22836 9.14805C5.45542 9.69623 5.83994 10.1648 6.33329 10.4944C6.82664 10.8241 7.40666 11 8 11C8.7954 10.9992 9.55798 10.6828 10.1204 10.1204C10.6828 9.55798 10.9992 8.7954 11 8ZM12.5 4.25C12.5 4.10166 12.456 3.95666 12.3736 3.83332C12.2912 3.70999 12.1741 3.61386 12.037 3.55709C11.9 3.50032 11.7492 3.48547 11.6037 3.51441C11.4582 3.54335 11.3246 3.61478 11.2197 3.71967C11.1148 3.82456 11.0434 3.9582 11.0144 4.10368C10.9855 4.24917 11.0003 4.39997 11.0571 4.53701C11.1139 4.67406 11.21 4.79119 11.3333 4.8736C11.4567 4.95601 11.6017 5 11.75 5C11.9489 5 12.1397 4.92098 12.2803 4.78033C12.421 4.63968 12.5 4.44891 12.5 4.25Z" fill="black"/>
</g>
<defs>
<clipPath id="clip0_5_1087">
<rect width="16" height="16" fill="white"/>
</clipPath>
</defs>
</svg>
