<svg width="16" height="16" viewBox="0 0 16 16" fill="none" xmlns="http://www.w3.org/2000/svg">
<g clip-path="url(#clip0_5_1084)">
<path d="M10.9144 5.08564C10.7481 4.19009 10.3404 3.35697 9.73515 2.67624C9.12994 1.99551 8.35028 1.49304 7.48035 1.22307C6.61041 0.953107 5.68326 0.925905 4.799 1.1444C3.91473 1.3629 3.10695 1.8188 2.46288 2.46288C1.8188 3.10695 1.3629 3.91473 1.1444 4.799C0.925905 5.68326 0.953107 6.61041 1.22307 7.48035C1.49304 8.35028 1.99551 9.12994 2.67624 9.73515C3.35697 10.3404 4.19009 10.7481 5.08564 10.9144C5.25192 11.8099 5.65968 12.6431 6.26489 13.3238C6.87009 14.0045 7.64975 14.507 8.51969 14.777C9.38962 15.0469 10.3168 15.0741 11.201 14.8556C12.0853 14.6371 12.8931 14.1812 13.5372 13.5372C14.1812 12.8931 14.6371 12.0853 14.8556 11.201C15.0741 10.3168 15.0469 9.38962 14.777 8.51969C14.507 7.64975 14.0045 6.87009 13.3238 6.26489C12.6431 5.65968 11.8099 5.25192 10.9144 5.08564ZM2.00002 6.00002C1.9981 5.02507 2.35232 4.08298 2.99611 3.35082C3.6399 2.61865 4.52893 2.14683 5.49612 2.02401C6.4633 1.90119 7.44205 2.13584 8.2484 2.68386C9.05475 3.23188 9.6332 4.05553 9.87502 5.00002C8.593 5.03371 7.37284 5.55823 6.46629 6.46536C5.55975 7.37248 5.03601 8.59298 5.00314 9.87502C4.14419 9.65276 3.3833 9.15169 2.8398 8.4504C2.2963 7.74911 2.00093 6.88726 2.00002 6.00002ZM10 14C9.11319 13.9993 8.25166 13.7044 7.55042 13.1615C6.84918 12.6186 6.34787 11.8584 6.12502 11C7.40758 10.9671 8.62853 10.4429 9.53573 9.53573C10.4429 8.62853 10.9671 7.40758 11 6.12502C11.9445 6.36684 12.7682 6.94528 13.3162 7.75163C13.8642 8.55799 14.0988 9.53673 13.976 10.5039C13.8532 11.4711 13.3814 12.3601 12.6492 13.0039C11.9171 13.6477 10.975 14.0019 10 14Z" fill="black"/>
</g>
<defs>
<clipPath id="clip0_5_1084">
<rect width="16" height="16" fill="white"/>
</clipPath>
</defs>
</svg>
