<svg width="16" height="16" viewBox="0 0 16 16" fill="none" xmlns="http://www.w3.org/2000/svg">
<g clip-path="url(#clip0_5_1080)">
<path d="M13 2H3C2.73478 2 2.48043 2.10536 2.29289 2.29289C2.10536 2.48043 2 2.73478 2 3V13C2 13.2652 2.10536 13.5196 2.29289 13.7071C2.48043 13.8946 2.73478 14 3 14H13C13.2652 14 13.5196 13.8946 13.7071 13.7071C13.8946 13.5196 14 13.2652 14 13V3C14 2.73478 13.8946 2.48043 13.7071 2.29289C13.5196 2.10536 13.2652 2 13 2ZM11.5 11C11.5 11.1326 11.4473 11.2598 11.3536 11.3536C11.2598 11.4473 11.1326 11.5 11 11.5C10.8674 11.5 10.7402 11.4473 10.6464 11.3536C10.5527 11.2598 10.5 11.1326 10.5 11V7.5C10.5 6.83696 10.2366 6.20107 9.76777 5.73223C9.29893 5.26339 8.66304 5 8 5C7.33696 5 6.70107 5.26339 6.23223 5.73223C5.76339 6.20107 5.5 6.83696 5.5 7.5V11C5.5 11.1326 5.44732 11.2598 5.35355 11.3536C5.25979 11.4473 5.13261 11.5 5 11.5C4.86739 11.5 4.74021 11.4473 4.64645 11.3536C4.55268 11.2598 4.5 11.1326 4.5 11V7.5C4.5 6.57174 4.86875 5.6815 5.52513 5.02513C6.1815 4.36875 7.07174 4 8 4C8.92826 4 9.8185 4.36875 10.4749 5.02513C11.1313 5.6815 11.5 6.57174 11.5 7.5V11Z" fill="black"/>
</g>
<defs>
<clipPath id="clip0_5_1080">
<rect width="16" height="16" fill="white"/>
</clipPath>
</defs>
</svg>
