<svg width="16" height="16" viewBox="0 0 16 16" fill="none" xmlns="http://www.w3.org/2000/svg">
<g clip-path="url(#clip0_5_647)">
<path d="M12.2425 6C12.2469 5.91813 12.25 5.83563 12.25 5.75C12.25 4.62283 11.8022 3.54183 11.0052 2.7448C10.2082 1.94777 9.12716 1.5 7.99999 1.5C6.87282 1.5 5.79182 1.94777 4.99479 2.7448C4.19776 3.54183 3.74999 4.62283 3.74999 5.75C3.74999 5.83313 3.74999 5.91563 3.75749 6C3.24463 6.26245 2.79048 6.62644 2.42264 7.06984C2.0548 7.51324 1.78095 8.0268 1.61773 8.57931C1.45451 9.13182 1.40533 9.71175 1.47317 10.2839C1.54102 10.856 1.72447 11.4083 2.01238 11.9073C2.3003 12.4063 2.68666 12.8416 3.148 13.1867C3.60934 13.5317 4.13602 13.7794 4.69604 13.9146C5.25606 14.0499 5.83773 14.0698 6.4057 13.9733C6.97367 13.8768 7.51609 13.6658 7.99999 13.3531C8.4839 13.6658 9.02631 13.8768 9.59428 13.9733C10.1623 14.0698 10.7439 14.0499 11.3039 13.9146C11.864 13.7794 12.3906 13.5317 12.852 13.1867C13.3133 12.8416 13.6997 12.4063 13.9876 11.9073C14.2755 11.4083 14.459 10.856 14.5268 10.2839C14.5947 9.71175 14.5455 9.13182 14.3823 8.57931C14.219 8.0268 13.9452 7.51324 13.5773 7.06984C13.2095 6.62644 12.7554 6.26245 12.2425 6ZM7.99999 12.0919C7.39305 11.512 7.03459 10.7193 6.99999 9.88062C7.65505 10.0398 8.33869 10.0398 8.99374 9.88062C8.9608 10.7185 8.60464 11.511 7.99999 12.0919ZM6.20187 8.45562C5.5536 8.02399 5.08117 7.37464 4.86999 6.625C5.63565 6.40894 6.45401 6.4819 7.16937 6.83C6.72912 7.29253 6.39847 7.8481 6.20187 8.45562ZM8.83062 6.82688C9.54637 6.47982 10.3647 6.40797 11.13 6.625C10.9195 7.37579 10.447 8.02634 9.79812 8.45875C9.60236 7.84899 9.27166 7.29121 8.83062 6.82688ZM7.99999 2.5C8.83951 2.50025 9.64643 2.82498 10.2521 3.40631C10.8578 3.98764 11.2153 4.78058 11.25 5.61938C10.7005 5.48572 10.1298 5.46354 9.5716 5.55414C9.01339 5.64474 8.479 5.84629 7.99999 6.14687C7.52139 5.84671 6.98753 5.64539 6.4299 5.55479C5.87226 5.4642 5.30213 5.48616 4.75312 5.61938C4.78777 4.78112 5.14487 3.98864 5.74987 3.40739C6.35488 2.82614 7.16102 2.50106 7.99999 2.5ZM2.49999 9.75C2.50026 9.21429 2.63295 8.68695 2.88626 8.21491C3.13956 7.74287 3.50562 7.34077 3.95187 7.04437C4.29279 8.09847 5.02983 8.97893 6.00749 9.5C6.00312 9.58187 5.99999 9.66438 5.99999 9.75C5.99953 10.8385 6.41831 11.8853 7.16937 12.6731C6.67394 12.9136 6.12552 13.0243 5.5756 12.9948C5.02567 12.9652 4.49227 12.7964 4.02547 12.5042C3.55868 12.212 3.1738 11.8059 2.90696 11.3241C2.64012 10.8424 2.50009 10.3007 2.49999 9.75ZM10.25 13C9.75814 13.0006 9.27266 12.8888 8.83062 12.6731C9.58167 11.8853 10.0005 10.8385 9.99999 9.75C9.99999 9.66687 9.99687 9.58438 9.99249 9.5C10.9707 8.97834 11.7078 8.0969 12.0481 7.04187C12.63 7.42792 13.072 7.99108 13.3088 8.64797C13.5455 9.30485 13.5644 10.0205 13.3627 10.689C13.161 11.3575 12.7493 11.9432 12.1887 12.3594C11.628 12.7757 10.9482 13.0003 10.25 13Z" fill="black"/>
</g>
<defs>
<clipPath id="clip0_5_647">
<rect width="16" height="16" fill="white"/>
</clipPath>
</defs>
</svg>
