<svg width="16" height="16" viewBox="0 0 16 16" fill="none" xmlns="http://www.w3.org/2000/svg">
<g clip-path="url(#clip0_5_1077)">
<path d="M1.75 8C1.61739 8 1.49021 7.94732 1.39645 7.85355C1.30268 7.75979 1.25 7.63261 1.25 7.5C1.25 7.36739 1.30268 7.24021 1.39645 7.14645C1.49021 7.05268 1.61739 7 1.75 7H3.5C3.63261 7 3.75979 6.94732 3.85355 6.85355C3.94732 6.75979 4 6.63261 4 6.5C4 6.36739 3.94732 6.24021 3.85355 6.14645C3.75979 6.05268 3.63261 6 3.5 6H2.5C2.10218 6 1.72064 5.84196 1.43934 5.56066C1.15804 5.27936 1 4.89782 1 4.5C1 4.10218 1.15804 3.72064 1.43934 3.43934C1.72064 3.15804 2.10218 3 2.5 3C2.5 2.86739 2.55268 2.74021 2.64645 2.64645C2.74021 2.55268 2.86739 2.5 3 2.5C3.13261 2.5 3.25979 2.55268 3.35355 2.64645C3.44732 2.74021 3.5 2.86739 3.5 3H4C4.13261 3 4.25979 3.05268 4.35355 3.14645C4.44732 3.24021 4.5 3.36739 4.5 3.5C4.5 3.63261 4.44732 3.75979 4.35355 3.85355C4.25979 3.94732 4.13261 4 4 4H2.5C2.36739 4 2.24021 4.05268 2.14645 4.14645C2.05268 4.24021 2 4.36739 2 4.5C2 4.63261 2.05268 4.75979 2.14645 4.85355C2.24021 4.94732 2.36739 5 2.5 5H3.5C3.89782 5 4.27936 5.15804 4.56066 5.43934C4.84196 5.72064 5 6.10218 5 6.5C5 6.89782 4.84196 7.27936 4.56066 7.56066C4.27936 7.84196 3.89782 8 3.5 8C3.5 8.13261 3.44732 8.25979 3.35355 8.35355C3.25979 8.44732 3.13261 8.5 3 8.5C2.86739 8.5 2.74021 8.44732 2.64645 8.35355C2.55268 8.25979 2.5 8.13261 2.5 8H1.75ZM14 3H6C5.86739 3 5.74021 3.05268 5.64645 3.14645C5.55268 3.24021 5.5 3.36739 5.5 3.5C5.5 3.63261 5.55268 3.75979 5.64645 3.85355C5.74021 3.94732 5.86739 4 6 4H13.5V6H6.5C6.36739 6 6.24021 6.05268 6.14645 6.14645C6.05268 6.24021 6 6.36739 6 6.5C6 6.63261 6.05268 6.75979 6.14645 6.85355C6.24021 6.94732 6.36739 7 6.5 7H10V9H5C4.86739 9 4.74021 9.05268 4.64645 9.14645C4.55268 9.24021 4.5 9.36739 4.5 9.5C4.5 9.63261 4.55268 9.75979 4.64645 9.85355C4.74021 9.94732 4.86739 10 5 10H10V12H2.5V9.5C2.5 9.36739 2.44732 9.24021 2.35355 9.14645C2.25979 9.05268 2.13261 9 2 9C1.86739 9 1.74021 9.05268 1.64645 9.14645C1.55268 9.24021 1.5 9.36739 1.5 9.5V12C1.5 12.2652 1.60536 12.5196 1.79289 12.7071C1.98043 12.8946 2.23478 13 2.5 13H13.5C13.7652 13 14.0196 12.8946 14.2071 12.7071C14.3946 12.5196 14.5 12.2652 14.5 12V3.5C14.5 3.36739 14.4473 3.24021 14.3536 3.14645C14.2598 3.05268 14.1326 3 14 3Z" fill="black"/>
</g>
<defs>
<clipPath id="clip0_5_1077">
<rect width="16" height="16" fill="white"/>
</clipPath>
</defs>
</svg>
