<svg width="16" height="16" viewBox="0 0 16 16" fill="none" xmlns="http://www.w3.org/2000/svg">
<g clip-path="url(#clip0_5_646)">
<path d="M14.9718 14.1656C14.9375 14.2634 14.8736 14.3481 14.7891 14.408C14.7046 14.4679 14.6035 14.5 14.4999 14.5H1.4999C1.39624 14.5001 1.29511 14.4679 1.21051 14.408C1.12591 14.3481 1.06203 14.2634 1.02771 14.1655C0.993389 14.0677 0.99032 13.9617 1.01893 13.862C1.04754 13.7624 1.10641 13.6741 1.1874 13.6094C1.28928 13.5281 3.59553 11.7181 7.33053 11.5188C7.13627 10.7445 7.06685 9.94425 7.1249 9.14813C7.23303 7.79125 7.80678 5.98376 9.80928 4.61813C9.50226 4.54355 9.18771 4.50433 8.87178 4.50126H8.7674C7.5799 4.54001 6.83365 5.23313 6.48615 6.62126C6.45906 6.72963 6.39646 6.82582 6.30833 6.89446C6.2202 6.96311 6.11161 7.00027 5.9999 7.00001C5.95776 7.00053 5.91573 6.99549 5.8749 6.98501C5.74628 6.95283 5.63571 6.87089 5.5675 6.7572C5.49928 6.64351 5.47902 6.50738 5.51115 6.37876C6.08928 4.06938 7.58053 3.54001 8.7299 3.50376C9.18639 3.49378 9.64215 3.54529 10.0849 3.65688C9.84615 3.26126 9.49615 2.84876 9.00928 2.64126C8.38428 2.37626 7.62365 2.49188 6.7399 2.98563C6.68245 3.01764 6.61925 3.03802 6.55392 3.04561C6.4886 3.05319 6.42241 3.04784 6.35915 3.02985C6.29589 3.01186 6.23679 2.98158 6.18523 2.94075C6.13368 2.89992 6.09066 2.84933 6.05865 2.79188C6.02664 2.73443 6.00626 2.67123 5.99868 2.6059C5.99109 2.54057 5.99644 2.47439 6.01444 2.41113C6.03243 2.34787 6.0627 2.28877 6.10353 2.23721C6.14436 2.18565 6.19495 2.14264 6.2524 2.11063C7.42365 1.45751 8.4849 1.32688 9.4074 1.72313C10.188 2.05813 10.703 2.70938 11.0249 3.28563C11.4105 2.68313 11.8918 2.27501 12.4237 2.10188C13.1649 1.86001 13.9637 2.05688 14.7987 2.68751C14.8998 2.76902 14.9652 2.88669 14.9811 3.0156C14.997 3.14451 14.9621 3.27455 14.8838 3.37818C14.8055 3.48182 14.69 3.55092 14.5616 3.57086C14.4333 3.5908 14.3022 3.56001 14.1962 3.48501C13.6393 3.06438 13.148 2.91876 12.7374 3.05188C12.2812 3.19876 11.933 3.67688 11.7137 4.09001C12.1647 4.1808 12.5987 4.34171 12.9999 4.56688C13.913 5.08876 14.9999 6.195 14.9999 8.50063C14.9999 8.63324 14.9472 8.76042 14.8535 8.85418C14.7597 8.94795 14.6325 9.00063 14.4999 9.00063C14.3673 9.00063 14.2401 8.94795 14.1463 8.85418C14.0526 8.76042 13.9999 8.63324 13.9999 8.50063C13.9999 7.03438 13.4962 6.00063 12.4999 5.43813C12.3839 5.37226 12.2639 5.31381 12.1405 5.26313C12.4554 5.90315 12.5658 6.6245 12.4568 7.32938C12.3782 7.85088 12.1894 8.34966 11.903 8.7925C11.8264 8.89999 11.7103 8.97281 11.5802 8.99506C11.4501 9.01732 11.3164 8.9872 11.2084 8.91129C11.1004 8.83538 11.0268 8.71983 11.0037 8.58985C10.9805 8.45988 11.0097 8.32603 11.0849 8.2175C11.1318 8.14938 12.1055 6.69376 10.8812 5.13188C9.19365 6.08251 8.26303 7.46 8.12115 9.23126C8.06589 9.9986 8.14693 10.7697 8.36053 11.5088C12.2762 11.6219 14.7055 13.5294 14.8105 13.6125C14.8912 13.6768 14.95 13.7645 14.9788 13.8635C15.0077 13.9625 15.0052 14.0681 14.9718 14.1656ZM3.2499 10.5C3.59602 10.5 3.93437 10.3974 4.22215 10.2051C4.50994 10.0128 4.73424 9.73947 4.86669 9.4197C4.99915 9.09993 5.0338 8.74806 4.96628 8.4086C4.89875 8.06913 4.73208 7.75731 4.48734 7.51257C4.2426 7.26783 3.93078 7.10115 3.59131 7.03363C3.25184 6.96611 2.89998 7.00076 2.58021 7.13322C2.26044 7.26567 1.98712 7.48997 1.79483 7.77776C1.60254 8.06554 1.4999 8.40389 1.4999 8.75001C1.4999 9.21413 1.68428 9.65925 2.01247 9.98744C2.34065 10.3156 2.78577 10.5 3.2499 10.5Z" fill="black"/>
</g>
<defs>
<clipPath id="clip0_5_646">
<rect width="16" height="16" fill="white"/>
</clipPath>
</defs>
</svg>
