<svg width="16" height="16" viewBox="0 0 16 16" fill="none" xmlns="http://www.w3.org/2000/svg">
<g clip-path="url(#clip0_5_645)">
<path d="M11.5 3.05063V2C11.5 1.73478 11.3946 1.48043 11.2071 1.29289C11.0196 1.10536 10.7652 1 10.5 1H5.5C5.23478 1 4.98043 1.10536 4.79289 1.29289C4.60536 1.48043 4.5 1.73478 4.5 2V3.05063C3.93569 3.16641 3.42859 3.4733 3.06425 3.91951C2.6999 4.36571 2.50061 4.92394 2.5 5.5V12.5C2.5 13.163 2.76339 13.7989 3.23223 14.2678C3.70107 14.7366 4.33696 15 5 15H11C11.663 15 12.2989 14.7366 12.7678 14.2678C13.2366 13.7989 13.5 13.163 13.5 12.5V5.5C13.4994 4.92394 13.3001 4.36571 12.9358 3.91951C12.5714 3.4733 12.0643 3.16641 11.5 3.05063ZM7.5 3V2H8.5V3H7.5ZM10.5 3H9.5V2H10.5V3ZM6.5 2V3H5.5V2H6.5Z" fill="black"/>
</g>
<defs>
<clipPath id="clip0_5_645">
<rect width="16" height="16" fill="white"/>
</clipPath>
</defs>
</svg>
