<svg width="16" height="16" viewBox="0 0 16 16" fill="none" xmlns="http://www.w3.org/2000/svg">
<g clip-path="url(#clip0_5_962)">
<path d="M15.5001 6.46688C15.4891 6.33808 15.4296 6.21828 15.3336 6.13163C15.2377 6.04498 15.1125 5.99794 14.9832 6H14.5001C14.5001 5.9647 14.4963 5.9295 14.4889 5.895L13.8239 2.79063C13.7751 2.56723 13.6516 2.36714 13.4738 2.2234C13.2959 2.07965 13.0744 2.00085 12.8457 2H3.1545C2.92584 2.00085 2.70431 2.07965 2.52647 2.2234C2.34864 2.36714 2.22515 2.56723 2.17637 2.79063L1.51137 5.895C1.50393 5.9295 1.50016 5.9647 1.50012 6H1.017C0.887748 5.99794 0.762528 6.04498 0.666602 6.13163C0.570675 6.21828 0.511181 6.33808 0.500122 6.46688C0.495581 6.53527 0.50515 6.60386 0.528236 6.6684C0.551322 6.73294 0.587432 6.79205 0.634322 6.84204C0.681211 6.89204 0.73788 6.93186 0.800808 6.95903C0.863736 6.98621 0.931578 7.00015 1.00012 7H1.50012V12.5C1.50012 12.7652 1.60548 13.0196 1.79302 13.2071C1.98055 13.3946 2.23491 13.5 2.50012 13.5H4.00012C4.26534 13.5 4.51969 13.3946 4.70723 13.2071C4.89476 13.0196 5.00012 12.7652 5.00012 12.5V11.5H6.25012C6.31643 11.5 6.38001 11.4737 6.4269 11.4268C6.47378 11.3799 6.50012 11.3163 6.50012 11.25V8.01688C6.49838 7.88784 6.54557 7.76293 6.63218 7.66727C6.7188 7.57161 6.83842 7.51229 6.967 7.50125C7.03539 7.49671 7.10399 7.50628 7.16853 7.52936C7.23307 7.55245 7.29217 7.58856 7.34216 7.63545C7.39216 7.68234 7.43198 7.73901 7.45916 7.80194C7.48633 7.86486 7.50027 7.93271 7.50012 8.00125V11.2513C7.50012 11.3176 7.52646 11.3811 7.57335 11.428C7.62023 11.4749 7.68382 11.5013 7.75012 11.5013H8.25012C8.31643 11.5013 8.38001 11.4749 8.4269 11.428C8.47378 11.3811 8.50012 11.3176 8.50012 11.2513V8.01688C8.49838 7.88784 8.54557 7.76293 8.63218 7.66727C8.7188 7.57161 8.83842 7.51229 8.967 7.50125C9.03539 7.49671 9.10399 7.50628 9.16853 7.52936C9.23307 7.55245 9.29217 7.58856 9.34216 7.63545C9.39216 7.68234 9.43198 7.73901 9.45916 7.80194C9.48633 7.86486 9.50027 7.93271 9.50012 8.00125V11.2513C9.50012 11.3176 9.52646 11.3811 9.57335 11.428C9.62023 11.4749 9.68382 11.5013 9.75012 11.5013H11.0001V12.5013C11.0001 12.7665 11.1055 13.0208 11.293 13.2084C11.4806 13.3959 11.7349 13.5013 12.0001 13.5013H13.5001C13.7653 13.5013 14.0197 13.3959 14.2072 13.2084C14.3948 13.0208 14.5001 12.7665 14.5001 12.5013V7H15.0001C15.0687 7.00015 15.1365 6.98621 15.1994 6.95903C15.2624 6.93186 15.319 6.89204 15.3659 6.84204C15.4128 6.79205 15.4489 6.73294 15.472 6.6684C15.4951 6.60386 15.5047 6.53527 15.5001 6.46688ZM4.25012 9C4.10179 9 3.95678 8.95601 3.83344 8.8736C3.71011 8.79119 3.61398 8.67406 3.55721 8.53701C3.50045 8.39997 3.48559 8.24917 3.51453 8.10368C3.54347 7.9582 3.6149 7.82456 3.71979 7.71967C3.82468 7.61478 3.95832 7.54335 4.1038 7.51441C4.24929 7.48547 4.40009 7.50032 4.53713 7.55709C4.67418 7.61386 4.79131 7.70999 4.87372 7.83332C4.95614 7.95666 5.00012 8.10166 5.00012 8.25C5.00012 8.44891 4.9211 8.63968 4.78045 8.78033C4.6398 8.92098 4.44903 9 4.25012 9ZM11.7501 9C11.6018 9 11.4568 8.95601 11.3334 8.8736C11.2101 8.79119 11.114 8.67406 11.0572 8.53701C11.0004 8.39997 10.9856 8.24917 11.0145 8.10368C11.0435 7.9582 11.1149 7.82456 11.2198 7.71967C11.3247 7.61478 11.4583 7.54335 11.6038 7.51441C11.7493 7.48547 11.9001 7.50032 12.0371 7.55709C12.1742 7.61386 12.2913 7.70999 12.3737 7.83332C12.4561 7.95666 12.5001 8.10166 12.5001 8.25C12.5001 8.44891 12.4211 8.63968 12.2805 8.78033C12.1398 8.92098 11.949 9 11.7501 9ZM2.51137 6L3.1545 3H12.8457L13.4889 6H2.51137Z" fill="black"/>
</g>
<defs>
<clipPath id="clip0_5_962">
<rect width="16" height="16" fill="white"/>
</clipPath>
</defs>
</svg>
