<svg width="16" height="16" viewBox="0 0 16 16" fill="none" xmlns="http://www.w3.org/2000/svg">
<g clip-path="url(#clip0_5_643)">
<path d="M14 9.99999V13C14 13.2652 13.8946 13.5196 13.7071 13.7071C13.5196 13.8946 13.2652 14 13 14H3C2.73478 14 2.48043 13.8946 2.29289 13.7071C2.10536 13.5196 2 13.2652 2 13V9.99999C2 9.73478 2.10536 9.48042 2.29289 9.29289C2.48043 9.10535 2.73478 8.99999 3 8.99999H7.5V5.94937C6.89298 5.82546 6.35359 5.48057 5.9864 4.98157C5.61921 4.48257 5.45039 3.86501 5.51266 3.24861C5.57493 2.6322 5.86386 2.06088 6.32342 1.6454C6.78299 1.22992 7.38046 0.999878 8 0.999878C8.61954 0.999878 9.21701 1.22992 9.67658 1.6454C10.1361 2.06088 10.4251 2.6322 10.4873 3.24861C10.5496 3.86501 10.3808 4.48257 10.0136 4.98157C9.64641 5.48057 9.10702 5.82546 8.5 5.94937V8.99999H13C13.2652 8.99999 13.5196 9.10535 13.7071 9.29289C13.8946 9.48042 14 9.73478 14 9.99999ZM10 7.49999C10 7.6326 10.0527 7.75978 10.1464 7.85355C10.2402 7.94731 10.3674 7.99999 10.5 7.99999H12.5C12.6326 7.99999 12.7598 7.94731 12.8536 7.85355C12.9473 7.75978 13 7.6326 13 7.49999C13 7.36738 12.9473 7.24021 12.8536 7.14644C12.7598 7.05267 12.6326 6.99999 12.5 6.99999H10.5C10.3674 6.99999 10.2402 7.05267 10.1464 7.14644C10.0527 7.24021 10 7.36738 10 7.49999Z" fill="black"/>
</g>
<defs>
<clipPath id="clip0_5_643">
<rect width="16" height="16" fill="white"/>
</clipPath>
</defs>
</svg>
