<svg width="16" height="16" viewBox="0 0 16 16" fill="none" xmlns="http://www.w3.org/2000/svg">
<g clip-path="url(#clip0_5_642)">
<path d="M10 3.5V9.5C10 9.63261 9.94732 9.75979 9.85355 9.85355C9.75979 9.94732 9.63261 10 9.5 10H7C6.86739 10 6.74021 9.94732 6.64645 9.85355C6.55268 9.75979 6.5 9.63261 6.5 9.5V3.5C6.5 3.36739 6.55268 3.24021 6.64645 3.14645C6.74021 3.05268 6.86739 3 7 3H9.5C9.63261 3 9.75979 3.05268 9.85355 3.14645C9.94732 3.24021 10 3.36739 10 3.5ZM14 3H11.5C11.3674 3 11.2402 3.05268 11.1464 3.14645C11.0527 3.24021 11 3.36739 11 3.5V6.75C11 6.8163 11.0263 6.87989 11.0732 6.92678C11.1201 6.97366 11.1837 7 11.25 7H14.25C14.3163 7 14.3799 6.97366 14.4268 6.92678C14.4737 6.87989 14.5 6.8163 14.5 6.75V3.5C14.5 3.36739 14.4473 3.24021 14.3536 3.14645C14.2598 3.05268 14.1326 3 14 3ZM14.25 8H11.25C11.1837 8 11.1201 8.02634 11.0732 8.07322C11.0263 8.12011 11 8.1837 11 8.25V11C11 11.2652 11.1054 11.5196 11.2929 11.7071C11.4804 11.8946 11.7348 12 12 12H13.5C13.7652 12 14.0196 11.8946 14.2071 11.7071C14.3946 11.5196 14.5 11.2652 14.5 11V8.25C14.5 8.1837 14.4737 8.12011 14.4268 8.07322C14.3799 8.02634 14.3163 8 14.25 8ZM5 3H2.5C2.36739 3 2.24021 3.05268 2.14645 3.14645C2.05268 3.24021 2 3.36739 2 3.5V6.75C2 6.8163 2.02634 6.87989 2.07322 6.92678C2.12011 6.97366 2.1837 7 2.25 7H5.25C5.3163 7 5.37989 6.97366 5.42678 6.92678C5.47366 6.87989 5.5 6.8163 5.5 6.75V3.5C5.5 3.36739 5.44732 3.24021 5.35355 3.14645C5.25979 3.05268 5.13261 3 5 3ZM5.25 8H2.25C2.1837 8 2.12011 8.02634 2.07322 8.07322C2.02634 8.12011 2 8.1837 2 8.25V13C2 13.2652 2.10536 13.5196 2.29289 13.7071C2.48043 13.8946 2.73478 14 3 14H4.5C4.76522 14 5.01957 13.8946 5.20711 13.7071C5.39464 13.5196 5.5 13.2652 5.5 13V8.25C5.5 8.1837 5.47366 8.12011 5.42678 8.07322C5.37989 8.02634 5.3163 8 5.25 8Z" fill="black"/>
</g>
<defs>
<clipPath id="clip0_5_642">
<rect width="16" height="16" fill="white"/>
</clipPath>
</defs>
</svg>
