<svg width="16" height="16" viewBox="0 0 16 16" fill="none" xmlns="http://www.w3.org/2000/svg">
<g clip-path="url(#clip0_5_957)">
<path d="M13.5356 2.46437C12.7414 1.66906 11.7024 1.16454 10.5863 1.03222C9.47016 0.899893 8.34199 1.14749 7.38384 1.73504C6.42569 2.3226 5.69346 3.21585 5.30529 4.27064C4.91712 5.32544 4.89566 6.48026 5.24438 7.54874L1.79313 11C1.69987 11.0925 1.62593 11.2027 1.5756 11.324C1.52528 11.4454 1.49959 11.5755 1.50001 11.7069V13.5C1.50001 13.7652 1.60536 14.0196 1.7929 14.2071C1.98043 14.3946 2.23479 14.5 2.50001 14.5H4.50001C4.63261 14.5 4.75979 14.4473 4.85356 14.3535C4.94733 14.2598 5.00001 14.1326 5.00001 14V13H6.00001C6.13261 13 6.25979 12.9473 6.35356 12.8535C6.44733 12.7598 6.50001 12.6326 6.50001 12.5V11.5H7.50001C7.56569 11.5 7.63073 11.4872 7.69143 11.4621C7.75213 11.437 7.80729 11.4002 7.85376 11.3537L8.45126 10.7556C8.95138 10.9183 9.47409 11.0008 10 11H10.0063C10.9947 10.9988 11.9605 10.7047 12.7818 10.1548C13.6032 9.60492 14.2431 8.82395 14.6208 7.91055C14.9985 6.99715 15.0969 5.99231 14.9038 5.02296C14.7107 4.05361 14.2346 3.16326 13.5356 2.46437ZM11.25 5.74999C11.0522 5.74999 10.8589 5.69135 10.6944 5.58146C10.53 5.47158 10.4018 5.3154 10.3261 5.13268C10.2504 4.94995 10.2306 4.74889 10.2692 4.5549C10.3078 4.36092 10.403 4.18274 10.5429 4.04289C10.6828 3.90304 10.8609 3.80779 11.0549 3.76921C11.2489 3.73062 11.45 3.75043 11.6327 3.82611C11.8154 3.9018 11.9716 4.02998 12.0815 4.19442C12.1914 4.35887 12.25 4.55221 12.25 4.74999C12.25 5.01521 12.1446 5.26956 11.9571 5.4571C11.7696 5.64464 11.5152 5.74999 11.25 5.74999Z" fill="black"/>
</g>
<defs>
<clipPath id="clip0_5_957">
<rect width="16" height="16" fill="white"/>
</clipPath>
</defs>
</svg>
