<svg width="16" height="16" viewBox="0 0 16 16" fill="none" xmlns="http://www.w3.org/2000/svg">
<g clip-path="url(#clip0_5_641)">
<path d="M14 3H2C1.73478 3 1.48043 3.10536 1.29289 3.29289C1.10536 3.48043 1 3.73478 1 4V12C1 12.2652 1.10536 12.5196 1.29289 12.7071C1.48043 12.8946 1.73478 13 2 13H14C14.2652 13 14.5196 12.8946 14.7071 12.7071C14.8946 12.5196 15 12.2652 15 12V4C15 3.73478 14.8946 3.48043 14.7071 3.29289C14.5196 3.10536 14.2652 3 14 3ZM4 10.5H3C2.86739 10.5 2.74021 10.4473 2.64645 10.3536C2.55268 10.2598 2.5 10.1326 2.5 10C2.5 9.86739 2.55268 9.74021 2.64645 9.64645C2.74021 9.55268 2.86739 9.5 3 9.5H4C4.13261 9.5 4.25979 9.55268 4.35355 9.64645C4.44732 9.74021 4.5 9.86739 4.5 10C4.5 10.1326 4.44732 10.2598 4.35355 10.3536C4.25979 10.4473 4.13261 10.5 4 10.5ZM10 10.5H6C5.86739 10.5 5.74021 10.4473 5.64645 10.3536C5.55268 10.2598 5.5 10.1326 5.5 10C5.5 9.86739 5.55268 9.74021 5.64645 9.64645C5.74021 9.55268 5.86739 9.5 6 9.5H10C10.1326 9.5 10.2598 9.55268 10.3536 9.64645C10.4473 9.74021 10.5 9.86739 10.5 10C10.5 10.1326 10.4473 10.2598 10.3536 10.3536C10.2598 10.4473 10.1326 10.5 10 10.5ZM13 10.5H12C11.8674 10.5 11.7402 10.4473 11.6464 10.3536C11.5527 10.2598 11.5 10.1326 11.5 10C11.5 9.86739 11.5527 9.74021 11.6464 9.64645C11.7402 9.55268 11.8674 9.5 12 9.5H13C13.1326 9.5 13.2598 9.55268 13.3536 9.64645C13.4473 9.74021 13.5 9.86739 13.5 10C13.5 10.1326 13.4473 10.2598 13.3536 10.3536C13.2598 10.4473 13.1326 10.5 13 10.5ZM13 8.5H3C2.86739 8.5 2.74021 8.44732 2.64645 8.35355C2.55268 8.25979 2.5 8.13261 2.5 8C2.5 7.86739 2.55268 7.74021 2.64645 7.64645C2.74021 7.55268 2.86739 7.5 3 7.5H13C13.1326 7.5 13.2598 7.55268 13.3536 7.64645C13.4473 7.74021 13.5 7.86739 13.5 8C13.5 8.13261 13.4473 8.25979 13.3536 8.35355C13.2598 8.44732 13.1326 8.5 13 8.5ZM13 6.5H3C2.86739 6.5 2.74021 6.44732 2.64645 6.35355C2.55268 6.25979 2.5 6.13261 2.5 6C2.5 5.86739 2.55268 5.74021 2.64645 5.64645C2.74021 5.55268 2.86739 5.5 3 5.5H13C13.1326 5.5 13.2598 5.55268 13.3536 5.64645C13.4473 5.74021 13.5 5.86739 13.5 6C13.5 6.13261 13.4473 6.25979 13.3536 6.35355C13.2598 6.44732 13.1326 6.5 13 6.5Z" fill="black"/>
</g>
<defs>
<clipPath id="clip0_5_641">
<rect width="16" height="16" fill="white"/>
</clipPath>
</defs>
</svg>
