<svg width="16" height="16" viewBox="0 0 16 16" fill="none" xmlns="http://www.w3.org/2000/svg">
<g clip-path="url(#clip0_5_640)">
<path d="M8 1.5C6.71442 1.5 5.45772 1.88122 4.3888 2.59545C3.31988 3.30968 2.48676 4.32484 1.99479 5.51256C1.50282 6.70028 1.37409 8.00721 1.6249 9.26809C1.8757 10.529 2.49477 11.6872 3.40381 12.5962C4.31285 13.5052 5.47104 14.1243 6.73192 14.3751C7.99279 14.6259 9.29973 14.4972 10.4874 14.0052C11.6752 13.5132 12.6903 12.6801 13.4046 11.6112C14.1188 10.5423 14.5 9.28558 14.5 8C14.4982 6.27665 13.8128 4.62441 12.5942 3.40582C11.3756 2.18722 9.72335 1.50182 8 1.5ZM9.845 10.6494C9.86173 10.6874 9.86871 10.729 9.86531 10.7705C9.86191 10.8119 9.84824 10.8518 9.82553 10.8866C9.80282 10.9214 9.77179 10.95 9.73525 10.9698C9.69871 10.9896 9.65781 11 9.61625 11H6.38375C6.34219 11 6.30129 10.9896 6.26475 10.9698C6.22821 10.95 6.19719 10.9214 6.17448 10.8866C6.15177 10.8518 6.1381 10.8119 6.1347 10.7705C6.1313 10.729 6.13828 10.6874 6.155 10.6494L7 8.7325C6.61872 8.51237 6.32073 8.17257 6.15224 7.76582C5.98376 7.35906 5.9542 6.90808 6.06815 6.48281C6.1821 6.05754 6.43319 5.68176 6.78248 5.41374C7.13177 5.14572 7.55973 5.00045 8 5.00045C8.44027 5.00045 8.86824 5.14572 9.21753 5.41374C9.56681 5.68176 9.8179 6.05754 9.93185 6.48281C10.0458 6.90808 10.0162 7.35906 9.84776 7.76582C9.67928 8.17257 9.38129 8.51237 9 8.7325L9.845 10.6494Z" fill="black"/>
</g>
<defs>
<clipPath id="clip0_5_640">
<rect width="16" height="16" fill="white"/>
</clipPath>
</defs>
</svg>
