<svg width="16" height="16" viewBox="0 0 16 16" fill="none" xmlns="http://www.w3.org/2000/svg">
<g clip-path="url(#clip0_5_952)">
<path d="M14.7501 3.06246C14.7493 2.75413 14.6573 2.45293 14.4856 2.19679C14.314 1.94064 14.0704 1.741 13.7856 1.62299C13.5007 1.50499 13.1873 1.4739 12.8848 1.53364C12.5824 1.59338 12.3043 1.74127 12.0857 1.95871L8.94757 5.09621L1.14632 12.9C1.08324 12.9631 1.03821 13.0419 1.01589 13.1283C0.993572 13.2147 0.994784 13.3055 1.0194 13.3913C1.04402 13.4771 1.09114 13.5547 1.15588 13.6161C1.22062 13.6775 1.30062 13.7205 1.38757 13.7406C2.12946 13.9126 2.88851 13.9996 3.65007 14C5.70945 14 7.76945 13.3625 9.70882 12.1106C11.6938 10.8293 12.8457 9.37183 12.8963 9.31058C12.9717 9.21442 13.0092 9.094 13.0018 8.97206C12.9945 8.85012 12.9427 8.7351 12.8563 8.64871L11.3319 7.12496L14.2932 4.16308C14.4381 4.01876 14.553 3.84723 14.6314 3.65835C14.7098 3.46947 14.7502 3.26696 14.7501 3.06246ZM9.13945 11.2875C6.98757 12.6687 4.7682 13.22 2.52945 12.9312L9.12507 6.33371L11.8182 9.02746C11.0253 9.89193 10.1251 10.6514 9.13945 11.2875Z" fill="black"/>
</g>
<defs>
<clipPath id="clip0_5_952">
<rect width="16" height="16" fill="white"/>
</clipPath>
</defs>
</svg>
