<svg width="16" height="16" viewBox="0 0 16 16" fill="none" xmlns="http://www.w3.org/2000/svg">
<g clip-path="url(#clip0_5_639)">
<path d="M12 1.5C11.8674 1.5 11.7402 1.55268 11.6464 1.64645C11.5527 1.74021 11.5 1.86739 11.5 2V2.5H4.5V2C4.5 1.86739 4.44732 1.74021 4.35355 1.64645C4.25979 1.55268 4.13261 1.5 4 1.5C3.86739 1.5 3.74021 1.55268 3.64645 1.64645C3.55268 1.74021 3.5 1.86739 3.5 2V14C3.5 14.1326 3.55268 14.2598 3.64645 14.3536C3.74021 14.4473 3.86739 14.5 4 14.5C4.13261 14.5 4.25979 14.4473 4.35355 14.3536C4.44732 14.2598 4.5 14.1326 4.5 14V13.5H11.5V14C11.5 14.1326 11.5527 14.2598 11.6464 14.3536C11.7402 14.4473 11.8674 14.5 12 14.5C12.1326 14.5 12.2598 14.4473 12.3536 14.3536C12.4473 14.2598 12.5 14.1326 12.5 14V2C12.5 1.86739 12.4473 1.74021 12.3536 1.64645C12.2598 1.55268 12.1326 1.5 12 1.5ZM11 11.5H5C4.86739 11.5 4.74021 11.4473 4.64645 11.3536C4.55268 11.2598 4.5 11.1326 4.5 11C4.5 10.8674 4.55268 10.7402 4.64645 10.6464C4.74021 10.5527 4.86739 10.5 5 10.5H11C11.1326 10.5 11.2598 10.5527 11.3536 10.6464C11.4473 10.7402 11.5 10.8674 11.5 11C11.5 11.1326 11.4473 11.2598 11.3536 11.3536C11.2598 11.4473 11.1326 11.5 11 11.5ZM11 8.5H5C4.86739 8.5 4.74021 8.44732 4.64645 8.35355C4.55268 8.25979 4.5 8.13261 4.5 8C4.5 7.86739 4.55268 7.74021 4.64645 7.64645C4.74021 7.55268 4.86739 7.5 5 7.5H11C11.1326 7.5 11.2598 7.55268 11.3536 7.64645C11.4473 7.74021 11.5 7.86739 11.5 8C11.5 8.13261 11.4473 8.25979 11.3536 8.35355C11.2598 8.44732 11.1326 8.5 11 8.5ZM11 5.5H5C4.86739 5.5 4.74021 5.44732 4.64645 5.35355C4.55268 5.25979 4.5 5.13261 4.5 5C4.5 4.86739 4.55268 4.74021 4.64645 4.64645C4.74021 4.55268 4.86739 4.5 5 4.5H11C11.1326 4.5 11.2598 4.55268 11.3536 4.64645C11.4473 4.74021 11.5 4.86739 11.5 5C11.5 5.13261 11.4473 5.25979 11.3536 5.35355C11.2598 5.44732 11.1326 5.5 11 5.5Z" fill="black"/>
</g>
<defs>
<clipPath id="clip0_5_639">
<rect width="16" height="16" fill="white"/>
</clipPath>
</defs>
</svg>
