<svg width="16" height="16" viewBox="0 0 16 16" fill="none" xmlns="http://www.w3.org/2000/svg">
<g clip-path="url(#clip0_5_950)">
<path d="M13.47 13.3287L10.2818 4.5625L10.85 3H11.5C11.6326 3 11.7598 2.94732 11.8535 2.85355C11.9473 2.75979 12 2.63261 12 2.5C12 2.36739 11.9473 2.24021 11.8535 2.14645C11.7598 2.05268 11.6326 2 11.5 2H5.49997C5.36737 2 5.24019 2.05268 5.14642 2.14645C5.05265 2.24021 4.99997 2.36739 4.99997 2.5C4.99997 2.63261 5.05265 2.75979 5.14642 2.85355C5.24019 2.94732 5.36737 3 5.49997 3H5.78622L2.02997 13.3287C2.00747 13.3905 1.99736 13.4561 2.00023 13.5218C2.0031 13.5874 2.01889 13.6519 2.0467 13.7115C2.0745 13.771 2.11378 13.8245 2.16228 13.8689C2.21078 13.9132 2.26755 13.9476 2.32935 13.97C2.38409 13.9897 2.4418 13.9998 2.49997 14C2.60266 14 2.70285 13.9684 2.78694 13.9095C2.87103 13.8505 2.93493 13.7671 2.96997 13.6706L3.57747 12H6.51497L6.03122 13.3287C6.00872 13.3905 5.99861 13.4561 6.00148 13.5218C6.00435 13.5874 6.02014 13.6519 6.04795 13.7115C6.07575 13.771 6.11503 13.8245 6.16353 13.8689C6.21203 13.9132 6.2688 13.9476 6.3306 13.97C6.38494 13.9895 6.44222 13.9997 6.49997 14C6.60266 14 6.70285 13.9684 6.78694 13.9095C6.87103 13.8505 6.93493 13.7671 6.96997 13.6706L8.12497 10.5H11.375L12.5281 13.6706C12.5632 13.7674 12.6274 13.851 12.7119 13.91C12.7964 13.969 12.897 14.0004 13 14C13.0581 13.9998 13.1159 13.9897 13.1706 13.97C13.2324 13.9476 13.2892 13.9132 13.3377 13.8689C13.3862 13.8245 13.4254 13.771 13.4532 13.7115C13.4811 13.6519 13.4968 13.5874 13.4997 13.5218C13.5026 13.4561 13.4925 13.3905 13.47 13.3287ZM6.83685 4H8.71185C8.84446 4 8.97163 4.05268 9.0654 4.14645C9.15917 4.24021 9.21185 4.36739 9.21185 4.5C9.21185 4.63261 9.15917 4.75979 9.0654 4.85355C8.97163 4.94732 8.84446 5 8.71185 5H6.83685C6.70424 5 6.57706 4.94732 6.48329 4.85355C6.38953 4.75979 6.33685 4.63261 6.33685 4.5C6.33685 4.36739 6.38953 4.24021 6.48329 4.14645C6.57706 4.05268 6.70424 4 6.83685 4ZM6.8906 10H5.01872C4.88612 10 4.75894 9.94732 4.66517 9.85355C4.5714 9.75979 4.51872 9.63261 4.51872 9.5C4.51872 9.36739 4.5714 9.24021 4.66517 9.14645C4.75894 9.05268 4.88612 9 5.01872 9H6.89372C7.02633 9 7.15351 9.05268 7.24728 9.14645C7.34104 9.24021 7.39372 9.36739 7.39372 9.5C7.39372 9.63261 7.34104 9.75979 7.24728 9.85355C7.15351 9.94732 7.02633 10 6.89372 10H6.8906ZM7.79935 7.5H5.92747C5.79486 7.5 5.66769 7.44732 5.57392 7.35355C5.48015 7.25979 5.42747 7.13261 5.42747 7C5.42747 6.86739 5.48015 6.74021 5.57392 6.64645C5.66769 6.55268 5.79486 6.5 5.92747 6.5H7.80247C7.93508 6.5 8.06226 6.55268 8.15603 6.64645C8.24979 6.74021 8.30247 6.86739 8.30247 7C8.30247 7.13261 8.24979 7.25979 8.15603 7.35355C8.06226 7.44732 7.93508 7.5 7.80247 7.5H7.79935ZM8.48685 9.5L9.74997 6.02563L11.0131 9.5H8.48685Z" fill="black"/>
</g>
<defs>
<clipPath id="clip0_5_950">
<rect width="16" height="16" fill="white"/>
</clipPath>
</defs>
</svg>
