<svg width="16" height="16" viewBox="0 0 16 16" fill="none" xmlns="http://www.w3.org/2000/svg">
<g clip-path="url(#clip0_5_638)">
<path d="M15.4175 9.775C15.372 9.84413 15.31 9.90088 15.2371 9.94015C15.1643 9.97942 15.0828 9.99999 15 10H13V12C13 12.1326 12.9473 12.2598 12.8536 12.3536C12.7598 12.4473 12.6326 12.5 12.5 12.5C12.3674 12.5 12.2402 12.4473 12.1465 12.3536C12.0527 12.2598 12 12.1326 12 12V10H8.50001V13H10C10.1326 13 10.2598 13.0527 10.3536 13.1464C10.4473 13.2402 10.5 13.3674 10.5 13.5C10.5 13.6326 10.4473 13.7598 10.3536 13.8536C10.2598 13.9473 10.1326 14 10 14H6.00001C5.8674 14 5.74023 13.9473 5.64646 13.8536C5.55269 13.7598 5.50001 13.6326 5.50001 13.5C5.50001 13.3674 5.55269 13.2402 5.64646 13.1464C5.74023 13.0527 5.8674 13 6.00001 13H7.50001V10H1.00001C0.917297 9.99996 0.835885 9.9794 0.763069 9.94017C0.690253 9.90093 0.628308 9.84425 0.582785 9.77519C0.537261 9.70613 0.509582 9.62685 0.502225 9.54447C0.494869 9.46208 0.508067 9.37916 0.540636 9.30313L3.54064 2.30312C3.57916 2.2132 3.64321 2.13655 3.72486 2.08267C3.80652 2.02879 3.90218 2.00005 4.00001 2H12C12.0978 2.00005 12.1935 2.02879 12.2752 2.08267C12.3568 2.13655 12.4209 2.2132 12.4594 2.30312L15.4594 9.30313C15.492 9.37911 15.5052 9.46199 15.4979 9.54434C15.4906 9.62669 15.463 9.70594 15.4175 9.775Z" fill="black"/>
</g>
<defs>
<clipPath id="clip0_5_638">
<rect width="16" height="16" fill="white"/>
</clipPath>
</defs>
</svg>
