<svg width="16" height="16" viewBox="0 0 16 16" fill="none" xmlns="http://www.w3.org/2000/svg">
<g clip-path="url(#clip0_5_637)">
<path d="M11 4.67375V4.5C11 4.23478 10.8947 3.98043 10.7071 3.79289C10.5196 3.60536 10.2652 3.5 10 3.5H8.50001V1C8.50001 0.867392 8.44733 0.740215 8.35356 0.646447C8.2598 0.552678 8.13262 0.5 8.00001 0.5C7.8674 0.5 7.74023 0.552678 7.64646 0.646447C7.55269 0.740215 7.50001 0.867392 7.50001 1V3.5H6.00001C5.73479 3.5 5.48044 3.60536 5.2929 3.79289C5.10537 3.98043 5.00001 4.23478 5.00001 4.5V4.67375C3.80165 5.23994 2.78917 6.13547 2.08086 7.25571C1.37255 8.37594 0.997663 9.67462 1.00001 11C1.00001 11.1326 1.05269 11.2598 1.14646 11.3536C1.24023 11.4473 1.3674 11.5 1.50001 11.5H5.50001C5.50001 12.163 5.7634 12.7989 6.23224 13.2678C6.70109 13.7366 7.33697 14 8.00001 14C8.66305 14 9.29894 13.7366 9.76778 13.2678C10.2366 12.7989 10.5 12.163 10.5 11.5H14.5C14.6326 11.5 14.7598 11.4473 14.8536 11.3536C14.9473 11.2598 15 11.1326 15 11C15.0024 9.67462 14.6275 8.37594 13.9192 7.25571C13.2109 6.13547 12.1984 5.23994 11 4.67375ZM8.00001 13C7.60219 13 7.22065 12.842 6.93935 12.5607C6.65805 12.2794 6.50001 11.8978 6.50001 11.5H9.50001C9.50001 11.8978 9.34198 12.2794 9.06067 12.5607C8.77937 12.842 8.39784 13 8.00001 13Z" fill="black"/>
</g>
<defs>
<clipPath id="clip0_5_637">
<rect width="16" height="16" fill="white"/>
</clipPath>
</defs>
</svg>
