<svg width="16" height="16" viewBox="0 0 16 16" fill="none" xmlns="http://www.w3.org/2000/svg">
<g clip-path="url(#clip0_5_948)">
<path d="M5.83926 8.50683C5.66018 8.48442 5.47834 8.50761 5.31062 8.57426C5.1429 8.64091 4.99473 8.74886 4.87988 8.88808C5.46176 9.29808 6.28676 9.5962 7.21926 9.70495C6.90051 8.95808 6.35738 8.56245 5.83926 8.50683Z" fill="black"/>
<path d="M14 3V13C14 13.2652 13.8946 13.5196 13.7071 13.7071C13.5196 13.8946 13.2652 14 13 14H7.97813C7.93217 13.9998 7.88714 13.987 7.848 13.9629C7.80886 13.9388 7.77711 13.9044 7.75625 13.8635C7.73539 13.8225 7.72622 13.7766 7.72974 13.7308C7.73327 13.685 7.74936 13.641 7.77625 13.6038C8.245 12.9644 8.5 12.1513 8.5 11.2388C8.5 11.0644 8.49187 10.8975 8.47812 10.7356C11.0494 10.5831 13 9.21688 13 7.5C13 5.67812 10.8038 4.25 8 4.25C5.19625 4.25 3 5.6775 3 7.5C3 9.20687 4.92625 10.5669 7.47375 10.7331C7.49137 10.9011 7.50013 11.0699 7.5 11.2388C7.5 12.34 7.02187 13.2356 6.1875 13.6962C5.81077 13.9053 5.38511 14.0102 4.95437 14H3C2.73478 14 2.48043 13.8946 2.29289 13.7071C2.10536 13.5196 2 13.2652 2 13V3C2 2.73478 2.10536 2.48043 2.29289 2.29289C2.48043 2.10536 2.73478 2 3 2H13C13.2652 2 13.5196 2.10536 13.7071 2.29289C13.8946 2.48043 14 2.73478 14 3ZM12 7.5C12 6.28062 10.1681 5.25 8 5.25C5.83188 5.25 4 6.28 4 7.5C4.00297 7.7341 4.06764 7.96327 4.1875 8.16438C4.41036 7.92686 4.68533 7.74435 4.99075 7.63122C5.29617 7.5181 5.62369 7.47746 5.9475 7.5125C6.885 7.61437 7.875 8.35 8.29375 9.7425C10.3312 9.65438 12 8.66375 12 7.5Z" fill="black"/>
</g>
<defs>
<clipPath id="clip0_5_948">
<rect width="16" height="16" fill="white"/>
</clipPath>
</defs>
</svg>
