<svg width="16" height="16" viewBox="0 0 16 16" fill="none" xmlns="http://www.w3.org/2000/svg">
<g clip-path="url(#clip0_5_635)">
<path d="M13.5 2.5H2.5C2.23478 2.5 1.98043 2.60536 1.79289 2.79289C1.60536 2.98043 1.5 3.23478 1.5 3.5V12.5C1.5 12.7652 1.60536 13.0196 1.79289 13.2071C1.98043 13.3946 2.23478 13.5 2.5 13.5H13.5C13.7652 13.5 14.0196 13.3946 14.2071 13.2071C14.3946 13.0196 14.5 12.7652 14.5 12.5V3.5C14.5 3.23478 14.3946 2.98043 14.2071 2.79289C14.0196 2.60536 13.7652 2.5 13.5 2.5ZM11.5 11.5H10.7881C10.3082 11.4994 9.83854 11.3609 9.43502 11.1011C9.03149 10.8413 8.71108 10.471 8.51188 10.0344L7.07438 6.87937C6.95542 6.61764 6.76376 6.3956 6.5222 6.2397C6.28065 6.08379 5.99937 6.00059 5.71187 6H5C4.60218 6 4.22064 6.15804 3.93934 6.43934C3.65804 6.72064 3.5 7.10218 3.5 7.5V9C3.5 9.39782 3.65804 9.77936 3.93934 10.0607C4.22064 10.342 4.60218 10.5 5 10.5H5.5C5.72497 10.5004 5.94713 10.45 6.14993 10.3526C6.35272 10.2553 6.53093 10.1133 6.67125 9.9375C6.71148 9.88395 6.76205 9.83903 6.81997 9.8054C6.8779 9.77178 6.94198 9.75013 7.00843 9.74175C7.07488 9.73337 7.14233 9.73842 7.20679 9.75661C7.27125 9.77479 7.3314 9.80575 7.38367 9.84763C7.43593 9.88951 7.47925 9.94146 7.51105 10.0004C7.54285 10.0593 7.56249 10.1241 7.56879 10.1908C7.5751 10.2574 7.56794 10.3247 7.54775 10.3886C7.52756 10.4524 7.49474 10.5116 7.45125 10.5625C7.21758 10.8556 6.92073 11.0921 6.58287 11.2545C6.245 11.4168 5.87484 11.5007 5.5 11.5H5C4.33696 11.5 3.70107 11.2366 3.23223 10.7678C2.76339 10.2989 2.5 9.66304 2.5 9V7.5C2.5 6.83696 2.76339 6.20107 3.23223 5.73223C3.70107 5.26339 4.33696 5 5 5H5.71187C6.19181 5.00064 6.66146 5.1391 7.06498 5.39892C7.46851 5.65874 7.78892 6.02899 7.98812 6.46562L9.4225 9.62062C9.54167 9.88284 9.73382 10.1052 9.97599 10.2611C10.2182 10.4171 10.5001 10.5 10.7881 10.5H11.5C11.7652 10.5 12.0196 10.3946 12.2071 10.2071C12.3946 10.0196 12.5 9.76522 12.5 9.5C12.5 9.23478 12.3946 8.98043 12.2071 8.79289C12.0196 8.60536 11.7652 8.5 11.5 8.5H11C10.5359 8.5 10.0908 8.31563 9.76256 7.98744C9.43437 7.65925 9.25 7.21413 9.25 6.75C9.25 6.28587 9.43437 5.84075 9.76256 5.51256C10.0908 5.18437 10.5359 5 11 5H11.75C12.0815 5 12.3995 5.1317 12.6339 5.36612C12.8683 5.60054 13 5.91848 13 6.25C13 6.38261 12.9473 6.50979 12.8536 6.60355C12.7598 6.69732 12.6326 6.75 12.5 6.75C12.3674 6.75 12.2402 6.69732 12.1464 6.60355C12.0527 6.50979 12 6.38261 12 6.25C12 6.1837 11.9737 6.12011 11.9268 6.07322C11.8799 6.02634 11.8163 6 11.75 6H11C10.8011 6 10.6103 6.07902 10.4697 6.21967C10.329 6.36032 10.25 6.55109 10.25 6.75C10.25 6.94891 10.329 7.13968 10.4697 7.28033C10.6103 7.42098 10.8011 7.5 11 7.5H11.5C12.0304 7.5 12.5391 7.71071 12.9142 8.08579C13.2893 8.46086 13.5 8.96957 13.5 9.5C13.5 10.0304 13.2893 10.5391 12.9142 10.9142C12.5391 11.2893 12.0304 11.5 11.5 11.5Z" fill="black"/>
</g>
<defs>
<clipPath id="clip0_5_635">
<rect width="16" height="16" fill="white"/>
</clipPath>
</defs>
</svg>
