<svg width="16" height="16" viewBox="0 0 16 16" fill="none" xmlns="http://www.w3.org/2000/svg">
<g clip-path="url(#clip0_5_943)">
<path d="M13.9657 2.50433C13.9585 2.382 13.9067 2.26656 13.8201 2.17992C13.7334 2.09328 13.618 2.04147 13.4957 2.03433C8.73754 1.75495 4.92629 3.18745 3.30129 5.87495C2.73802 6.79427 2.46045 7.86016 2.50379 8.93745C2.53208 9.62635 2.67224 10.3061 2.91879 10.95C2.93328 10.9896 2.95756 11.0249 2.98937 11.0526C3.02118 11.0803 3.05949 11.0995 3.10073 11.1085C3.14197 11.1174 3.18479 11.1157 3.22522 11.1036C3.26564 11.0915 3.30234 11.0694 3.33192 11.0393L8.64441 5.64558C8.69087 5.59912 8.74602 5.56227 8.80672 5.53713C8.86741 5.51199 8.93247 5.49905 8.99817 5.49905C9.06386 5.49905 9.12892 5.51199 9.18961 5.53713C9.25031 5.56227 9.30546 5.59912 9.35192 5.64558C9.39837 5.69203 9.43522 5.74718 9.46036 5.80788C9.4855 5.86857 9.49844 5.93363 9.49844 5.99933C9.49844 6.06502 9.4855 6.13008 9.46036 6.19077C9.43522 6.25147 9.39837 6.30662 9.35192 6.35308L3.54629 12.2462L2.65942 13.1331C2.56718 13.2229 2.51212 13.3441 2.50517 13.4726C2.49822 13.6012 2.5399 13.7276 2.62192 13.8268C2.66683 13.8788 2.72199 13.921 2.78394 13.9508C2.8459 13.9805 2.91332 13.9972 2.982 13.9997C3.05068 14.0022 3.11914 13.9906 3.18311 13.9654C3.24708 13.9403 3.30518 13.9023 3.35379 13.8537L4.40317 12.8043C5.28692 13.2318 6.17879 13.465 7.06317 13.4962C7.13275 13.4987 7.20212 13.5 7.27129 13.5C8.27842 13.5025 9.26644 13.2251 10.125 12.6987C12.8125 11.0737 14.2457 7.26308 13.9657 2.50433Z" fill="black"/>
</g>
<defs>
<clipPath id="clip0_5_943">
<rect width="16" height="16" fill="white"/>
</clipPath>
</defs>
</svg>
