<svg width="16" height="16" viewBox="0 0 16 16" fill="none" xmlns="http://www.w3.org/2000/svg">
<g clip-path="url(#clip0_5_941)">
<path d="M15.3937 7.5525L12.8937 2.5525C12.8111 2.38619 12.6837 2.2463 12.5257 2.14866C12.3678 2.05102 12.1856 1.99953 12 2H3.99995C3.81427 1.99953 3.63215 2.05102 3.4742 2.14866C3.31626 2.2463 3.18878 2.38619 3.1062 2.5525L0.606205 7.5525C0.529933 7.70492 0.493885 7.87431 0.501482 8.04458C0.50908 8.21485 0.56007 8.38035 0.649613 8.52537C0.739156 8.67039 0.864279 8.79012 1.0131 8.87319C1.16193 8.95626 1.32952 8.99991 1.49995 9H7.49995V13H5.99995C5.86735 13 5.74017 13.0527 5.6464 13.1464C5.55263 13.2402 5.49995 13.3674 5.49995 13.5C5.49995 13.6326 5.55263 13.7598 5.6464 13.8536C5.74017 13.9473 5.86735 14 5.99995 14H9.99995C10.1326 14 10.2597 13.9473 10.3535 13.8536C10.4473 13.7598 10.5 13.6326 10.5 13.5C10.5 13.3674 10.4473 13.2402 10.3535 13.1464C10.2597 13.0527 10.1326 13 9.99995 13H8.49995V9H14.5C14.6704 9.00002 14.8381 8.95644 14.987 8.87342C15.1359 8.79039 15.2611 8.67068 15.3508 8.52564C15.4404 8.3806 15.4914 8.21506 15.499 8.04473C15.5067 7.87441 15.4706 7.70497 15.3943 7.5525H15.3937ZM12 7.5H3.99995C3.86735 7.5 3.74017 7.44732 3.6464 7.35356C3.55263 7.25979 3.49995 7.13261 3.49995 7C3.49995 6.86739 3.55263 6.74022 3.6464 6.64645C3.74017 6.55268 3.86735 6.5 3.99995 6.5H12C12.1326 6.5 12.2597 6.55268 12.3535 6.64645C12.4473 6.74022 12.5 6.86739 12.5 7C12.5 7.13261 12.4473 7.25979 12.3535 7.35356C12.2597 7.44732 12.1326 7.5 12 7.5Z" fill="black"/>
</g>
<defs>
<clipPath id="clip0_5_941">
<rect width="16" height="16" fill="white"/>
</clipPath>
</defs>
</svg>
