<svg width="16" height="16" viewBox="0 0 16 16" fill="none" xmlns="http://www.w3.org/2000/svg">
<g clip-path="url(#clip0_5_632)">
<path d="M15.4963 4.95062C15.4881 4.86667 15.4588 4.78613 15.4112 4.71652C15.3635 4.64691 15.2991 4.59049 15.2238 4.5525L12.3306 3.10625C11.9712 2.4525 11.0756 2 10 2C8.59813 2 7.5 2.76875 7.5 3.75C7.50014 3.88871 7.5225 4.0265 7.56625 4.15812L6.34625 4.76813C5.92077 4.58694 5.46243 4.49565 5 4.5C3.59812 4.5 2.5 5.26875 2.5 6.25C2.50014 6.38871 2.5225 6.5265 2.56625 6.65812L0.77625 7.5525C0.69318 7.59407 0.623333 7.65795 0.574538 7.737C0.525744 7.81604 0.499934 7.90711 0.5 8V12C0.499934 12.0929 0.525744 12.184 0.574538 12.263C0.623333 12.342 0.69318 12.4059 0.77625 12.4475L4.77625 14.4475C4.84572 14.4823 4.92232 14.5004 5 14.5004C5.07768 14.5004 5.15428 14.4823 5.22375 14.4475L15.2238 9.4475C15.3068 9.40593 15.3767 9.34205 15.4255 9.263C15.4743 9.18396 15.5001 9.09289 15.5 9V5C15.5002 4.98346 15.4989 4.96694 15.4963 4.95062ZM5 9.44125L2.11813 8L3.1875 7.46562C3.64 7.79625 4.28 8 5 8C6.40188 8 7.5 7.23125 7.5 6.25C7.49763 5.95952 7.40236 5.67743 7.22813 5.445L8.1875 4.96562C8.64 5.29625 9.28 5.5 10 5.5C11.1488 5.5 12.0931 4.98375 12.3969 4.2575L13.8819 5L5 9.44125ZM10 3C10.7644 3 11.3556 3.3125 11.4769 3.6325C11.4769 3.63812 11.4813 3.64375 11.4838 3.65C11.4943 3.68229 11.4998 3.71603 11.5 3.75C11.5 4.10375 10.8588 4.5 10 4.5C9.39625 4.5 8.9 4.30375 8.65875 4.0625C8.64265 4.04152 8.62466 4.02207 8.605 4.00437C8.54217 3.93394 8.50515 3.84424 8.5 3.75C8.5 3.39625 9.14125 3 10 3ZM5 5.5C5.37111 5.49354 5.73833 5.5765 6.07062 5.74188C6.09054 5.75511 6.11143 5.76682 6.13312 5.77688C6.36375 5.915 6.5 6.08938 6.5 6.25C6.5 6.60375 5.85875 7 5 7C4.39563 7 3.89938 6.80375 3.65813 6.5625C3.64228 6.54169 3.62472 6.52225 3.60563 6.50437C3.5424 6.43413 3.50512 6.34437 3.5 6.25C3.5 5.89625 4.14125 5.5 5 5.5ZM1.5 8.80875L4.5 10.3088V13.1912L1.5 11.6912V8.80875Z" fill="black"/>
</g>
<defs>
<clipPath id="clip0_5_632">
<rect width="16" height="16" fill="white"/>
</clipPath>
</defs>
</svg>
