<svg width="16" height="16" viewBox="0 0 16 16" fill="none" xmlns="http://www.w3.org/2000/svg">
<g clip-path="url(#clip0_5_630)">
<path d="M11.5 3H10.5V2C10.5 1.73478 10.3946 1.48043 10.2071 1.29289C10.0196 1.10536 9.76522 1 9.5 1H6.5C6.23478 1 5.98043 1.10536 5.79289 1.29289C5.60536 1.48043 5.5 1.73478 5.5 2V3H4.5C3.96957 3 3.46086 3.21071 3.08579 3.58579C2.71071 3.96086 2.5 4.46957 2.5 5V11C2.50042 11.4434 2.6479 11.8741 2.91934 12.2247C3.19077 12.5754 3.57084 12.826 4 12.9375V14C4 14.2652 4.10536 14.5196 4.29289 14.7071C4.48043 14.8946 4.73478 15 5 15H11C11.2652 15 11.5196 14.8946 11.7071 14.7071C11.8946 14.5196 12 14.2652 12 14V12.9375C12.4292 12.826 12.8092 12.5754 13.0807 12.2247C13.3521 11.8741 13.4996 11.4434 13.5 11V5C13.5 4.46957 13.2893 3.96086 12.9142 3.58579C12.5391 3.21071 12.0304 3 11.5 3ZM9.75 6.25C9.89834 6.25 10.0433 6.29399 10.1667 6.3764C10.29 6.45881 10.3861 6.57594 10.4429 6.71299C10.4997 6.85003 10.5145 7.00083 10.4856 7.14632C10.4567 7.2918 10.3852 7.42544 10.2803 7.53033C10.1754 7.63522 10.0418 7.70665 9.89632 7.73559C9.75083 7.76453 9.60003 7.74968 9.46299 7.69291C9.32594 7.63614 9.20881 7.54001 9.1264 7.41668C9.04399 7.29334 9 7.14834 9 7C9 6.80109 9.07902 6.61032 9.21967 6.46967C9.36032 6.32902 9.55109 6.25 9.75 6.25ZM10.0169 9.92313C9.41178 10.3003 8.71304 10.5003 8 10.5003C7.28696 10.5003 6.58822 10.3003 5.98313 9.92313C5.87091 9.85235 5.7914 9.73989 5.7621 9.61049C5.73279 9.48108 5.7561 9.34534 5.82688 9.23312C5.89765 9.1209 6.01011 9.0414 6.13951 9.0121C6.26891 8.98279 6.40465 9.00609 6.51687 9.07687C6.96219 9.35326 7.47588 9.49971 8 9.49971C8.52412 9.49971 9.03781 9.35326 9.48312 9.07687C9.59534 9.00609 9.73108 8.98279 9.86049 9.0121C9.98989 9.0414 10.1023 9.1209 10.1731 9.23312C10.2439 9.34534 10.2672 9.48108 10.2379 9.61049C10.2086 9.73989 10.1291 9.85235 10.0169 9.92313ZM6.5 2H9.5V3H6.5V2ZM6.25 6.25C6.39834 6.25 6.54334 6.29399 6.66668 6.3764C6.79001 6.45881 6.88614 6.57594 6.94291 6.71299C6.99968 6.85003 7.01453 7.00083 6.98559 7.14632C6.95665 7.2918 6.88522 7.42544 6.78033 7.53033C6.67544 7.63522 6.5418 7.70665 6.39632 7.73559C6.25083 7.76453 6.10003 7.74968 5.96299 7.69291C5.82594 7.63614 5.70881 7.54001 5.6264 7.41668C5.54399 7.29334 5.5 7.14834 5.5 7C5.5 6.80109 5.57902 6.61032 5.71967 6.46967C5.86032 6.32902 6.05109 6.25 6.25 6.25ZM11 14H5V13H11V14Z" fill="black"/>
</g>
<defs>
<clipPath id="clip0_5_630">
<rect width="16" height="16" fill="white"/>
</clipPath>
</defs>
</svg>
