<svg width="16" height="16" viewBox="0 0 16 16" fill="none" xmlns="http://www.w3.org/2000/svg">
<g clip-path="url(#clip0_5_1291)">
<path d="M13 2H3C2.73478 2 2.48043 2.10536 2.29289 2.29289C2.10536 2.48043 2 2.73478 2 3V13C2 13.2652 2.10536 13.5196 2.29289 13.7071C2.48043 13.8946 2.73478 14 3 14H13C13.2652 14 13.5196 13.8946 13.7071 13.7071C13.8946 13.5196 14 13.2652 14 13V3C14 2.73478 13.8946 2.48043 13.7071 2.29289C13.5196 2.10536 13.2652 2 13 2ZM11 11.5H4.5C4.36739 11.5 4.24021 11.4473 4.14645 11.3536C4.05268 11.2598 4 11.1326 4 11C4 10.8674 4.05268 10.7402 4.14645 10.6464C4.24021 10.5527 4.36739 10.5 4.5 10.5H11C11.1326 10.5 11.2598 10.5527 11.3536 10.6464C11.4473 10.7402 11.5 10.8674 11.5 11C11.5 11.1326 11.4473 11.2598 11.3536 11.3536C11.2598 11.4473 11.1326 11.5 11 11.5ZM11.1469 8.02188C11.2737 8.06083 11.3798 8.14856 11.4419 8.26577C11.5041 8.38298 11.5171 8.52007 11.4781 8.64688C11.4392 8.77368 11.3514 8.87982 11.2342 8.94194C11.117 9.00406 10.9799 9.01708 10.8531 8.97812L4.35313 6.97813C4.25074 6.9468 4.16112 6.88344 4.09744 6.79737C4.03377 6.7113 3.9994 6.60707 3.9994 6.5C3.9994 6.39293 4.03377 6.2887 4.09744 6.20263C4.16112 6.11656 4.25074 6.0532 4.35313 6.02187L10.8531 4.02187C10.9159 4.00259 10.9819 3.99585 11.0473 4.00206C11.1127 4.00827 11.1762 4.0273 11.2342 4.05806C11.2923 4.08882 11.3437 4.13071 11.3855 4.18133C11.4274 4.23196 11.4588 4.29034 11.4781 4.35313C11.4974 4.41591 11.5041 4.48189 11.4979 4.54728C11.4917 4.61267 11.4727 4.67619 11.4419 4.73423C11.4112 4.79227 11.3693 4.84368 11.3187 4.88552C11.268 4.92737 11.2097 4.95884 11.1469 4.97813L6.2 6.5L11.1469 8.02188Z" fill="black"/>
</g>
<defs>
<clipPath id="clip0_5_1291">
<rect width="16" height="16" fill="white"/>
</clipPath>
</defs>
</svg>
