<svg width="16" height="16" viewBox="0 0 16 16" fill="none" xmlns="http://www.w3.org/2000/svg">
<g clip-path="url(#clip0_5_629)">
<path d="M13 2H3C2.73478 2 2.48043 2.10536 2.29289 2.29289C2.10536 2.48043 2 2.73478 2 3V13C2 13.2652 2.10536 13.5196 2.29289 13.7071C2.48043 13.8946 2.73478 14 3 14H13C13.2652 14 13.5196 13.8946 13.7071 13.7071C13.8946 13.5196 14 13.2652 14 13V3C14 2.73478 13.8946 2.48043 13.7071 2.29289C13.5196 2.10536 13.2652 2 13 2ZM11.2094 10.5463C11.2712 10.5723 11.3271 10.6105 11.3738 10.6587C11.4205 10.7068 11.457 10.7638 11.4812 10.8263C11.5055 10.8888 11.5169 10.9556 11.5148 11.0226C11.5127 11.0896 11.4971 11.1555 11.469 11.2164C11.4409 11.2773 11.4009 11.3319 11.3512 11.377C11.3016 11.4221 11.2434 11.4567 11.1801 11.4789C11.1168 11.501 11.0497 11.5102 10.9828 11.5059C10.9159 11.5016 10.8505 11.4838 10.7906 11.4537L4.29063 8.45375C4.20403 8.41367 4.13072 8.34965 4.07934 8.26925C4.02795 8.18884 4.00065 8.09542 4.00065 8C4.00065 7.90458 4.02795 7.81116 4.07934 7.73075C4.13072 7.65035 4.20403 7.58633 4.29063 7.54625L10.7906 4.54625C10.9102 4.49581 11.0446 4.49382 11.1656 4.54069C11.2866 4.58756 11.3846 4.67962 11.439 4.79743C11.4934 4.91524 11.4998 5.04957 11.4569 5.17204C11.4141 5.29451 11.3253 5.39553 11.2094 5.45375L5.69312 8L11.2094 10.5463Z" fill="black"/>
</g>
<defs>
<clipPath id="clip0_5_629">
<rect width="16" height="16" fill="white"/>
</clipPath>
</defs>
</svg>
