<svg width="16" height="16" viewBox="0 0 16 16" fill="none" xmlns="http://www.w3.org/2000/svg">
<g clip-path="url(#clip0_5_626)">
<path d="M9.75 7.25C9.75 7.58152 9.61831 7.89946 9.38389 8.13388C9.14947 8.3683 8.83152 8.5 8.5 8.5H7V6H8.5C8.83152 6 9.14947 6.1317 9.38389 6.36612C9.61831 6.60054 9.75 6.91848 9.75 7.25ZM14.5 8C14.5 9.28558 14.1188 10.5423 13.4046 11.6112C12.6903 12.6801 11.6752 13.5132 10.4874 14.0052C9.29973 14.4972 7.99279 14.6259 6.73192 14.3751C5.47104 14.1243 4.31285 13.5052 3.40381 12.5962C2.49477 11.6872 1.8757 10.529 1.6249 9.26809C1.37409 8.00721 1.50282 6.70028 1.99479 5.51256C2.48676 4.32484 3.31988 3.30968 4.3888 2.59545C5.45772 1.88122 6.71442 1.5 8 1.5C9.72335 1.50182 11.3756 2.18722 12.5942 3.40582C13.8128 4.62441 14.4982 6.27665 14.5 8ZM10.75 7.25C10.75 6.65326 10.5129 6.08097 10.091 5.65901C9.66904 5.23705 9.09674 5 8.5 5H6.5C6.36739 5 6.24022 5.05268 6.14645 5.14645C6.05268 5.24021 6 5.36739 6 5.5V10.5C6 10.6326 6.05268 10.7598 6.14645 10.8536C6.24022 10.9473 6.36739 11 6.5 11C6.63261 11 6.75979 10.9473 6.85356 10.8536C6.94732 10.7598 7 10.6326 7 10.5V9.5H8.5C8.79548 9.5 9.08806 9.4418 9.36104 9.32873C9.63402 9.21566 9.88206 9.04992 10.091 8.84099C10.2999 8.63206 10.4657 8.38402 10.5787 8.11104C10.6918 7.83805 10.75 7.54547 10.75 7.25Z" fill="black"/>
</g>
<defs>
<clipPath id="clip0_5_626">
<rect width="16" height="16" fill="white"/>
</clipPath>
</defs>
</svg>
