<svg width="16" height="16" viewBox="0 0 16 16" fill="none" xmlns="http://www.w3.org/2000/svg">
<g clip-path="url(#clip0_5_1281)">
<path d="M8 1.5C6.71442 1.5 5.45772 1.88122 4.3888 2.59545C3.31988 3.30968 2.48676 4.32484 1.99479 5.51256C1.50282 6.70028 1.37409 8.00721 1.6249 9.26809C1.8757 10.529 2.49477 11.6872 3.40381 12.5962C4.31285 13.5052 5.47104 14.1243 6.73192 14.3751C7.99279 14.6259 9.29973 14.4972 10.4874 14.0052C11.6752 13.5132 12.6903 12.6801 13.4046 11.6112C14.1188 10.5423 14.5 9.28558 14.5 8C14.4982 6.27665 13.8128 4.62441 12.5942 3.40582C11.3756 2.18722 9.72335 1.50182 8 1.5ZM10.4644 6.1875L8.46438 11.1875C8.42731 11.2804 8.36325 11.36 8.28047 11.4161C8.19769 11.4722 8.1 11.5021 8 11.5021C7.90001 11.5021 7.80232 11.4722 7.71954 11.4161C7.63676 11.36 7.5727 11.2804 7.53563 11.1875L5.53563 6.1875C5.511 6.12652 5.49863 6.06128 5.49922 5.99552C5.49981 5.92976 5.51335 5.86475 5.53906 5.80422C5.59098 5.68197 5.68934 5.58535 5.8125 5.53562C5.93566 5.4859 6.07353 5.48713 6.19578 5.53905C6.31803 5.59098 6.41465 5.68934 6.46438 5.8125L8 9.65375L9.53563 5.8125C9.58536 5.68934 9.68197 5.59098 9.80422 5.53905C9.92647 5.48713 10.0643 5.4859 10.1875 5.53562C10.3107 5.58535 10.409 5.68197 10.4609 5.80422C10.5129 5.92647 10.5141 6.06434 10.4644 6.1875Z" fill="black"/>
</g>
<defs>
<clipPath id="clip0_5_1281">
<rect width="16" height="16" fill="white"/>
</clipPath>
</defs>
</svg>
