<svg width="16" height="16" viewBox="0 0 16 16" fill="none" xmlns="http://www.w3.org/2000/svg">
<g clip-path="url(#clip0_5_627)">
<path d="M8 1.5C6.71442 1.5 5.45772 1.88122 4.3888 2.59545C3.31988 3.30968 2.48676 4.32484 1.99479 5.51256C1.50282 6.70028 1.37409 8.00721 1.6249 9.26809C1.8757 10.529 2.49477 11.6872 3.40381 12.5962C4.31285 13.5052 5.47104 14.1243 6.73192 14.3751C7.99279 14.6259 9.29973 14.4972 10.4874 14.0052C11.6752 13.5132 12.6903 12.6801 13.4046 11.6112C14.1188 10.5423 14.5 9.28558 14.5 8C14.4982 6.27665 13.8128 4.62441 12.5942 3.40582C11.3756 2.18722 9.72335 1.50182 8 1.5ZM10.5 10.5C10.5 10.6326 10.4473 10.7598 10.3536 10.8536C10.2598 10.9473 10.1326 11 10 11C9.86739 11 9.74022 10.9473 9.64645 10.8536C9.55268 10.7598 9.5 10.6326 9.5 10.5V8.5H6.5V10.5C6.5 10.6326 6.44732 10.7598 6.35356 10.8536C6.25979 10.9473 6.13261 11 6 11C5.86739 11 5.74022 10.9473 5.64645 10.8536C5.55268 10.7598 5.5 10.6326 5.5 10.5V5.5C5.5 5.36739 5.55268 5.24021 5.64645 5.14645C5.74022 5.05268 5.86739 5 6 5C6.13261 5 6.25979 5.05268 6.35356 5.14645C6.44732 5.24021 6.5 5.36739 6.5 5.5V7.5H9.5V5.5C9.5 5.36739 9.55268 5.24021 9.64645 5.14645C9.74022 5.05268 9.86739 5 10 5C10.1326 5 10.2598 5.05268 10.3536 5.14645C10.4473 5.24021 10.5 5.36739 10.5 5.5V10.5Z" fill="black"/>
</g>
<defs>
<clipPath id="clip0_5_627">
<rect width="16" height="16" fill="white"/>
</clipPath>
</defs>
</svg>
