<svg width="16" height="16" viewBox="0 0 16 16" fill="none" xmlns="http://www.w3.org/2000/svg">
<g clip-path="url(#clip0_5_1273)">
<path d="M8 1.5C6.71442 1.5 5.45772 1.88122 4.3888 2.59545C3.31988 3.30968 2.48676 4.32484 1.99479 5.51256C1.50282 6.70028 1.37409 8.00721 1.6249 9.26809C1.8757 10.529 2.49477 11.6872 3.40381 12.5962C4.31285 13.5052 5.47104 14.1243 6.73192 14.3751C7.99279 14.6259 9.29973 14.4972 10.4874 14.0052C11.6752 13.5132 12.6903 12.6801 13.4046 11.6112C14.1188 10.5423 14.5 9.28558 14.5 8C14.4982 6.27665 13.8128 4.62441 12.5942 3.40582C11.3756 2.18722 9.72335 1.50182 8 1.5ZM6 8C6 7.60444 6.1173 7.21776 6.33706 6.88886C6.55683 6.55996 6.86918 6.30362 7.23464 6.15224C7.60009 6.00087 8.00222 5.96126 8.39018 6.03843C8.77815 6.1156 9.13451 6.30608 9.41422 6.58579C9.69392 6.86549 9.8844 7.22186 9.96157 7.60982C10.0387 7.99778 9.99914 8.39991 9.84776 8.76537C9.69639 9.13082 9.44004 9.44318 9.11114 9.66294C8.78224 9.8827 8.39557 10 8 10C7.46957 10 6.96086 9.78929 6.58579 9.41421C6.21072 9.03914 6 8.53043 6 8ZM11.5175 3.775L9.73688 5.55625C9.22997 5.1945 8.62276 5.00005 8 5.00005C7.37725 5.00005 6.77004 5.1945 6.26313 5.55625L4.4825 3.775C5.46951 2.95119 6.71437 2.49994 8 2.49994C9.28564 2.49994 10.5305 2.95119 11.5175 3.775ZM4.4825 12.225L6.26313 10.4438C6.77004 10.8055 7.37725 11 8 11C8.62276 11 9.22997 10.8055 9.73688 10.4438L11.5175 12.225C10.5305 13.0488 9.28564 13.5001 8 13.5001C6.71437 13.5001 5.46951 13.0488 4.4825 12.225Z" fill="black"/>
</g>
<defs>
<clipPath id="clip0_5_1273">
<rect width="16" height="16" fill="white"/>
</clipPath>
</defs>
</svg>
