<svg width="16" height="16" viewBox="0 0 16 16" fill="none" xmlns="http://www.w3.org/2000/svg">
<g clip-path="url(#clip0_5_621)">
<path d="M6.6075 4.2381C6.56499 4.19194 6.54138 4.13148 6.54138 4.06872C6.54138 4.00597 6.56499 3.94551 6.6075 3.89935L9.63188 0.658722C9.70599 0.579259 9.80398 0.526103 9.911 0.507299C10.018 0.488496 10.1283 0.505069 10.225 0.55451C10.3218 0.603951 10.3998 0.683568 10.4473 0.781311C10.4948 0.879054 10.5091 0.989602 10.4881 1.09622L9.57375 5.68122L13.1631 7.02685C13.2725 7.06592 13.3654 7.1408 13.4269 7.23935C13.4837 7.33271 13.5083 7.44212 13.497 7.55081C13.4857 7.65951 13.4391 7.76151 13.3644 7.84122L11.785 9.5331C11.7616 9.55847 11.7332 9.57872 11.7016 9.59258C11.6699 9.60643 11.6358 9.61358 11.6013 9.61358C11.5667 9.61358 11.5326 9.60643 11.501 9.59258C11.4693 9.57872 11.4409 9.55847 11.4175 9.5331L6.6075 4.2381ZM8.3425 7.6331L3.37 2.16372C3.32609 2.11423 3.2728 2.07394 3.2132 2.04519C3.15361 2.01644 3.0889 1.99981 3.02283 1.99626C2.95676 1.9927 2.89064 2.0023 2.82831 2.02448C2.76597 2.04667 2.70866 2.08101 2.6597 2.12551C2.61073 2.17001 2.57108 2.22378 2.54306 2.28372C2.51503 2.34365 2.49917 2.40856 2.49641 2.47466C2.49365 2.54077 2.50403 2.60677 2.52696 2.66883C2.5499 2.7309 2.58492 2.78779 2.63 2.83622L5.08375 5.53497L2.64625 8.14935C2.56367 8.23204 2.51204 8.3406 2.5 8.45685C2.49059 8.56558 2.51702 8.67441 2.57525 8.76672C2.63348 8.85903 2.72032 8.92976 2.8225 8.9681L6.42438 10.3187L5.51 14.9018C5.48926 15.0083 5.50371 15.1187 5.55117 15.2162C5.59864 15.3138 5.67655 15.3933 5.77315 15.4426C5.86974 15.492 5.97978 15.5087 6.08665 15.49C6.19353 15.4714 6.29145 15.4185 6.36563 15.3393L10.2319 11.1968L12.63 13.8343C12.6739 13.8838 12.7272 13.9241 12.7868 13.9529C12.8464 13.9816 12.9111 13.9983 12.9772 14.0018C13.0432 14.0054 13.1094 13.9958 13.1717 13.9736C13.234 13.9514 13.2913 13.9171 13.3403 13.8726C13.3893 13.8281 13.4289 13.7743 13.457 13.7143C13.485 13.6544 13.5008 13.5895 13.5036 13.5234C13.5064 13.4573 13.496 13.3913 13.473 13.3292C13.4501 13.2672 13.4151 13.2103 13.37 13.1618L8.3425 7.6331Z" fill="black"/>
</g>
<defs>
<clipPath id="clip0_5_621">
<rect width="16" height="16" fill="white"/>
</clipPath>
</defs>
</svg>
