<svg width="16" height="16" viewBox="0 0 16 16" fill="none" xmlns="http://www.w3.org/2000/svg">
<g clip-path="url(#clip0_5_625)">
<path d="M11 14.5C11 14.6326 10.9473 14.7598 10.8535 14.8536C10.7597 14.9473 10.6326 15 10.5 15H5.49996C5.36735 15 5.24017 14.9473 5.14641 14.8536C5.05264 14.7598 4.99996 14.6326 4.99996 14.5C4.99996 14.3674 5.05264 14.2402 5.14641 14.1465C5.24017 14.0527 5.36735 14 5.49996 14H10.5C10.6326 14 10.7597 14.0527 10.8535 14.1465C10.9473 14.2402 11 14.3674 11 14.5ZM13.5 6.50001C13.5021 7.33354 13.3138 8.15654 12.9494 8.9062C12.5851 9.65587 12.0542 10.3124 11.3975 10.8256C11.2747 10.9198 11.175 11.0407 11.1061 11.1793C11.0372 11.3178 11.0009 11.4703 11 11.625V12C11 12.2652 10.8946 12.5196 10.7071 12.7071C10.5195 12.8947 10.2652 13 9.99996 13H5.99996C5.73474 13 5.48039 12.8947 5.29285 12.7071C5.10532 12.5196 4.99996 12.2652 4.99996 12V11.625C4.99986 11.4721 4.9647 11.3213 4.8972 11.1841C4.8297 11.047 4.73165 10.9271 4.61058 10.8338C3.95546 10.3235 3.42499 9.67097 3.05932 8.92545C2.69365 8.17993 2.50237 7.361 2.49996 6.53063C2.48371 3.55188 4.89121 1.07126 7.86746 1.00001C8.6008 0.982337 9.33027 1.11154 10.0129 1.38002C10.6956 1.6485 11.3176 2.05082 11.8425 2.56332C12.3673 3.07581 12.7843 3.68811 13.069 4.36419C13.3536 5.04027 13.5002 5.76645 13.5 6.50001ZM10.3537 6.64626C10.3073 6.59977 10.2521 6.56289 10.1914 6.53773C10.1307 6.51257 10.0657 6.49962 9.99996 6.49962C9.93425 6.49962 9.86919 6.51257 9.80849 6.53773C9.74779 6.56289 9.69265 6.59977 9.64621 6.64626L7.99996 8.29313L6.35371 6.64626C6.25989 6.55244 6.13264 6.49973 5.99996 6.49973C5.86728 6.49973 5.74003 6.55244 5.64621 6.64626C5.55239 6.74008 5.49968 6.86733 5.49968 7.00001C5.49968 7.13269 5.55239 7.25994 5.64621 7.35376L7.49996 9.20688V11.5C7.49996 11.6326 7.55264 11.7598 7.64641 11.8536C7.74017 11.9473 7.86735 12 7.99996 12C8.13257 12 8.25975 11.9473 8.35351 11.8536C8.44728 11.7598 8.49996 11.6326 8.49996 11.5V9.20688L10.3537 7.35376C10.4002 7.30732 10.4371 7.25218 10.4622 7.19148C10.4874 7.13078 10.5004 7.06572 10.5004 7.00001C10.5004 6.9343 10.4874 6.86924 10.4622 6.80854C10.4371 6.74784 10.4002 6.6927 10.3537 6.64626Z" fill="black"/>
</g>
<defs>
<clipPath id="clip0_5_625">
<rect width="16" height="16" fill="white"/>
</clipPath>
</defs>
</svg>
