<svg width="16" height="16" viewBox="0 0 16 16" fill="none" xmlns="http://www.w3.org/2000/svg">
<g clip-path="url(#clip0_5_1002)">
<path d="M13 4.99999C12.8674 4.99999 12.7402 5.05267 12.6464 5.14644C12.5527 5.24021 12.5 5.36739 12.5 5.49999V6.49999H11.8031L11.5 3.44999C11.487 3.32431 11.427 3.20819 11.3319 3.12499L8.6525 0.742494L8.64 0.731869C8.46031 0.582203 8.23385 0.500244 8 0.500244C7.76615 0.500244 7.53969 0.582203 7.36 0.731869L7.3475 0.742494L4.6675 3.12499C4.57229 3.20802 4.51237 3.32427 4.5 3.44999L4.19688 6.49999H3.5V5.49999C3.5 5.36739 3.44732 5.24021 3.35355 5.14644C3.25979 5.05267 3.13261 4.99999 3 4.99999C2.86739 4.99999 2.74021 5.05267 2.64645 5.14644C2.55268 5.24021 2.5 5.36739 2.5 5.49999V6.99999C2.5 7.1326 2.55268 7.25978 2.64645 7.35355C2.74021 7.44732 2.86739 7.49999 3 7.49999H4.09625L3.50437 13.405C3.49114 13.5437 3.50704 13.6837 3.55105 13.8159C3.59507 13.9481 3.66623 14.0696 3.75997 14.1727C3.85371 14.2758 3.96797 14.3582 4.09541 14.4146C4.22284 14.4709 4.36066 14.5 4.5 14.5H11.5C11.6395 14.5 11.7775 14.4707 11.905 14.4142C12.0326 14.3576 12.1469 14.275 12.2406 14.1717C12.3343 14.0683 12.4054 13.9465 12.4492 13.814C12.493 13.6815 12.5086 13.5414 12.495 13.4025L11.9038 7.49999H13C13.1326 7.49999 13.2598 7.44732 13.3536 7.35355C13.4473 7.25978 13.5 7.1326 13.5 6.99999V5.49999C13.5 5.36739 13.4473 5.24021 13.3536 5.14644C13.2598 5.05267 13.1326 4.99999 13 4.99999ZM5.4525 3.99999H10.5475L10.7975 6.49999H8.5V5.49999C8.5 5.36739 8.44732 5.24021 8.35355 5.14644C8.25979 5.05267 8.13261 4.99999 8 4.99999C7.86739 4.99999 7.74021 5.05267 7.64645 5.14644C7.55268 5.24021 7.5 5.36739 7.5 5.49999V6.49999H5.20188L5.4525 3.99999ZM4.5 13.5L4.80062 10.5H11.1994L11.5 13.5H4.5Z" fill="black"/>
</g>
<defs>
<clipPath id="clip0_5_1002">
<rect width="16" height="16" fill="white"/>
</clipPath>
</defs>
</svg>
