<svg width="16" height="16" viewBox="0 0 16 16" fill="none" xmlns="http://www.w3.org/2000/svg">
<g clip-path="url(#clip0_5_624)">
<path d="M11 14.5C11 14.6326 10.9473 14.7598 10.8535 14.8536C10.7597 14.9473 10.6326 15 10.5 15H5.49996C5.36735 15 5.24017 14.9473 5.14641 14.8536C5.05264 14.7598 4.99996 14.6326 4.99996 14.5C4.99996 14.3674 5.05264 14.2402 5.14641 14.1465C5.24017 14.0527 5.36735 14 5.49996 14H10.5C10.6326 14 10.7597 14.0527 10.8535 14.1465C10.9473 14.2402 11 14.3674 11 14.5ZM13.5 6.50001C13.5021 7.33354 13.3138 8.15654 12.9494 8.9062C12.5851 9.65587 12.0542 10.3124 11.3975 10.8256C11.2747 10.9198 11.175 11.0407 11.1061 11.1793C11.0372 11.3178 11.0009 11.4703 11 11.625V12C11 12.2652 10.8946 12.5196 10.7071 12.7071C10.5195 12.8947 10.2652 13 9.99996 13H5.99996C5.73474 13 5.48039 12.8947 5.29285 12.7071C5.10532 12.5196 4.99996 12.2652 4.99996 12V11.625C4.99986 11.4721 4.9647 11.3213 4.8972 11.1841C4.8297 11.047 4.73165 10.9271 4.61058 10.8338C3.95546 10.3235 3.42499 9.67097 3.05932 8.92545C2.69365 8.17993 2.50237 7.361 2.49996 6.53063C2.48371 3.55188 4.89121 1.07126 7.86746 1.00001C8.6008 0.982337 9.33027 1.11154 10.0129 1.38002C10.6956 1.6485 11.3176 2.05082 11.8425 2.56332C12.3673 3.07581 12.7843 3.68811 13.069 4.36419C13.3536 5.04027 13.5002 5.76645 13.5 6.50001ZM11.4931 5.91626C11.3634 5.19207 11.015 4.52499 10.4947 4.00482C9.97446 3.48465 9.3073 3.13638 8.58309 3.00688C8.51833 2.99597 8.45205 2.99791 8.38805 3.01261C8.32404 3.02731 8.26356 3.05447 8.21005 3.09254C8.15654 3.13061 8.11105 3.17885 8.07618 3.2345C8.04132 3.29015 8.01775 3.35213 8.00683 3.41688C7.99592 3.48164 7.99786 3.54792 8.01256 3.61192C8.02726 3.67593 8.05442 3.73641 8.09249 3.78992C8.13056 3.84343 8.1788 3.88892 8.23445 3.92379C8.2901 3.95865 8.35208 3.98222 8.41683 3.99313C9.45246 4.16751 10.3312 5.04626 10.5068 6.08376C10.5266 6.20021 10.587 6.3059 10.6773 6.38209C10.7675 6.45828 10.8818 6.50005 11 6.50001C11.0282 6.49984 11.0564 6.49754 11.0843 6.49313C11.215 6.47082 11.3315 6.39752 11.4082 6.28934C11.4848 6.18115 11.5154 6.04696 11.4931 5.91626Z" fill="black"/>
</g>
<defs>
<clipPath id="clip0_5_624">
<rect width="16" height="16" fill="white"/>
</clipPath>
</defs>
</svg>
