<svg width="16" height="16" viewBox="0 0 16 16" fill="none" xmlns="http://www.w3.org/2000/svg">
<g clip-path="url(#clip0_5_932)">
<path d="M13.2381 5.23688C12.9716 5.50341 12.6262 5.67677 12.2532 5.73116C11.8802 5.78555 11.4997 5.71807 11.1681 5.53876L5.53876 11.1681C5.69313 11.4536 5.76507 11.7764 5.74653 12.1004C5.728 12.4245 5.61972 12.7369 5.43381 13.003C5.24789 13.269 4.99166 13.4781 4.69375 13.6069C4.39584 13.7356 4.06798 13.779 3.74683 13.7322C3.42567 13.6853 3.12387 13.5501 2.87515 13.3416C2.62643 13.1331 2.44059 12.8596 2.3384 12.5515C2.23621 12.2435 2.2217 11.9131 2.29648 11.5973C2.37127 11.2814 2.5324 10.9926 2.76189 10.7631C3.0284 10.4966 3.37384 10.3232 3.74681 10.2689C4.11979 10.2145 4.50035 10.2819 4.83189 10.4613L10.4613 4.83188C10.3069 4.54639 10.235 4.2236 10.2535 3.89958C10.272 3.57555 10.3803 3.26307 10.5662 2.99704C10.7521 2.73102 11.0084 2.52194 11.3063 2.39316C11.6042 2.26439 11.932 2.22099 12.2532 2.26783C12.5743 2.31467 12.8761 2.4499 13.1249 2.6584C13.3736 2.8669 13.5594 3.14046 13.6616 3.4485C13.7638 3.75655 13.7783 4.08694 13.7035 4.40276C13.6288 4.71858 13.4676 5.00738 13.2381 5.23688Z" fill="black"/>
</g>
<defs>
<clipPath id="clip0_5_932">
<rect width="16" height="16" fill="white"/>
</clipPath>
</defs>
</svg>
