<svg width="16" height="16" viewBox="0 0 16 16" fill="none" xmlns="http://www.w3.org/2000/svg">
<g clip-path="url(#clip0_5_930)">
<path d="M14.7382 4.73692C14.5758 4.89986 14.3829 5.02907 14.1704 5.11714C13.9579 5.2052 13.7301 5.25037 13.5001 5.25005C13.381 5.24984 13.2623 5.23769 13.1457 5.2138L11.2351 8.76192C11.4646 8.99138 11.6258 9.28015 11.7006 9.59594C11.7754 9.91174 11.761 10.2421 11.6589 10.5502C11.5567 10.8582 11.371 11.1318 11.1223 11.3404C10.8736 11.5489 10.5719 11.6842 10.2507 11.7311C9.92958 11.778 9.60172 11.7347 9.30379 11.606C9.00585 11.4773 8.74958 11.2683 8.5636 11.0023C8.37762 10.7364 8.26927 10.4239 8.25066 10.0999C8.23204 9.77587 8.30389 9.45307 8.45818 9.16754L6.82943 7.5388C6.57465 7.6766 6.28972 7.74918 6.00006 7.75005C5.88102 7.74987 5.7623 7.73773 5.64568 7.7138L3.73506 11.2613C3.97978 11.506 4.14644 11.8179 4.21395 12.1573C4.28146 12.4968 4.24679 12.8486 4.11433 13.1684C3.98187 13.4882 3.75757 13.7615 3.46979 13.9538C3.18201 14.146 2.84367 14.2487 2.49756 14.2487C2.15145 14.2487 1.81311 14.146 1.52533 13.9538C1.23755 13.7615 1.01325 13.4882 0.880787 13.1684C0.748329 12.8486 0.713662 12.4968 0.781172 12.1573C0.848682 11.8179 1.01534 11.506 1.26006 11.2613C1.46521 11.0563 1.71809 10.9056 1.99596 10.8225C2.27382 10.7395 2.56796 10.7268 2.85193 10.7857L4.76256 7.23755C4.43491 6.90892 4.25091 6.46379 4.25091 5.99973C4.25091 5.53567 4.43491 5.09054 4.76256 4.76192C5.05978 4.46452 5.45414 4.28407 5.8735 4.25359C6.29286 4.2231 6.70917 4.34462 7.04628 4.59592C7.38338 4.84721 7.61874 5.21148 7.7093 5.62207C7.79986 6.03266 7.73956 6.46214 7.53943 6.83192L9.16818 8.46067C9.53141 8.26532 9.9518 8.20403 10.3557 8.28755L12.2663 4.73942C12.1038 4.57692 11.9749 4.38399 11.8869 4.17166C11.799 3.95933 11.7537 3.73175 11.7537 3.50192C11.7537 3.27209 11.799 3.04451 11.8869 2.83218C11.9749 2.61985 12.1038 2.42693 12.2663 2.26442C12.5945 1.93621 13.0397 1.75183 13.5038 1.75183C13.968 1.75183 14.4131 1.93621 14.7413 2.26442C15.0695 2.59263 15.2539 3.03777 15.2539 3.50192C15.2539 3.96607 15.0695 4.41122 14.7413 4.73942L14.7382 4.73692Z" fill="black"/>
</g>
<defs>
<clipPath id="clip0_5_930">
<rect width="16" height="16" fill="white"/>
</clipPath>
</defs>
</svg>
