<svg width="16" height="16" viewBox="0 0 16 16" fill="none" xmlns="http://www.w3.org/2000/svg">
<g clip-path="url(#clip0_5_618)">
<path d="M13 2H3C2.73478 2 2.48043 2.10536 2.29289 2.29289C2.10536 2.48043 2 2.73478 2 3V13C2 13.2652 2.10536 13.5196 2.29289 13.7071C2.48043 13.8946 2.73478 14 3 14H13C13.2652 14 13.5196 13.8946 13.7071 13.7071C13.8946 13.5196 14 13.2652 14 13V3C14 2.73478 13.8946 2.48043 13.7071 2.29289C13.5196 2.10536 13.2652 2 13 2ZM9.035 10.8538L7.69438 12.1944C7.1764 12.6989 6.48056 12.9791 5.7575 12.9743C5.03444 12.9696 4.34236 12.6802 3.83107 12.1689C3.31978 11.6576 3.03043 10.9656 3.02567 10.2425C3.02091 9.51944 3.30111 8.8236 3.80562 8.30562L5.14625 6.96438C5.19266 6.91792 5.24777 6.88106 5.30843 6.8559C5.36909 6.83075 5.43411 6.81778 5.49978 6.81776C5.56545 6.81773 5.63048 6.83063 5.69116 6.85574C5.75184 6.88084 5.80698 6.91765 5.85344 6.96406C5.89989 7.01048 5.93675 7.06559 5.96191 7.12625C5.98706 7.1869 6.00003 7.25192 6.00006 7.31759C6.00009 7.38326 5.98718 7.44829 5.96208 7.50897C5.93697 7.56965 5.90016 7.62479 5.85375 7.67125L4.5125 9.0125C4.18429 9.34071 3.99991 9.78585 3.99991 10.25C3.99991 10.7142 4.18429 11.1593 4.5125 11.4875C4.84071 11.8157 5.28585 12.0001 5.75 12.0001C6.21415 12.0001 6.65929 11.8157 6.9875 11.4875L8.32812 10.1462C8.42195 10.0525 8.54916 9.99988 8.68178 9.99994C8.81441 10 8.94158 10.0527 9.03531 10.1466C9.12905 10.2404 9.18168 10.3676 9.18162 10.5002C9.18156 10.6328 9.12882 10.76 9.035 10.8538ZM6.85375 9.85375C6.8073 9.90021 6.75214 9.93706 6.69145 9.9622C6.63075 9.98734 6.5657 10.0003 6.5 10.0003C6.4343 10.0003 6.36925 9.98734 6.30855 9.9622C6.24786 9.93706 6.1927 9.90021 6.14625 9.85375C6.09979 9.8073 6.06294 9.75214 6.0378 9.69145C6.01266 9.63075 5.99972 9.5657 5.99972 9.5C5.99972 9.4343 6.01266 9.36925 6.0378 9.30855C6.06294 9.24786 6.09979 9.1927 6.14625 9.14625L9.14625 6.14625C9.1927 6.09979 9.24786 6.06294 9.30855 6.0378C9.36925 6.01266 9.4343 5.99972 9.5 5.99972C9.5657 5.99972 9.63075 6.01266 9.69145 6.0378C9.75214 6.06294 9.8073 6.09979 9.85375 6.14625C9.90021 6.1927 9.93706 6.24786 9.9622 6.30855C9.98734 6.36925 10.0003 6.4343 10.0003 6.5C10.0003 6.5657 9.98734 6.63075 9.9622 6.69145C9.93706 6.75214 9.90021 6.8073 9.85375 6.85375L6.85375 9.85375ZM12.1944 7.69438L10.8538 9.035C10.76 9.12882 10.6328 9.18156 10.5002 9.18162C10.3676 9.18168 10.2404 9.12905 10.1466 9.03531C10.0527 8.94158 10 8.81441 9.99994 8.68178C9.99988 8.54916 10.0525 8.42195 10.1462 8.32812L11.4875 6.9875C11.8157 6.65929 12.0001 6.21415 12.0001 5.75C12.0001 5.28585 11.8157 4.84071 11.4875 4.5125C11.1593 4.18429 10.7142 3.99991 10.25 3.99991C9.78585 3.99991 9.34071 4.18429 9.0125 4.5125L7.67125 5.85375C7.57743 5.94749 7.45021 6.00012 7.31759 6.00006C7.18497 6 7.0578 5.94726 6.96406 5.85344C6.87033 5.75962 6.8177 5.6324 6.81776 5.49978C6.81781 5.36716 6.87055 5.23999 6.96438 5.14625L8.30562 3.80562C8.8236 3.30111 9.51944 3.02091 10.2425 3.02567C10.9656 3.03043 11.6576 3.31978 12.1689 3.83107C12.6802 4.34236 12.9696 5.03444 12.9743 5.7575C12.9791 6.48056 12.6989 7.1764 12.1944 7.69438Z" fill="black"/>
</g>
<defs>
<clipPath id="clip0_5_618">
<rect width="16" height="16" fill="white"/>
</clipPath>
</defs>
</svg>
