<svg width="16" height="16" viewBox="0 0 16 16" fill="none" xmlns="http://www.w3.org/2000/svg">
<g clip-path="url(#clip0_5_617)">
<path d="M14 3H2C1.73478 3 1.48043 3.10536 1.29289 3.29289C1.10536 3.48043 1 3.73478 1 4V12C1 12.2652 1.10536 12.5196 1.29289 12.7071C1.48043 12.8946 1.73478 13 2 13H14C14.2652 13 14.5196 12.8946 14.7071 12.7071C14.8946 12.5196 15 12.2652 15 12V4C15 3.73478 14.8946 3.48043 14.7071 3.29289C14.5196 3.10536 14.2652 3 14 3ZM7 10.5H5C4.33696 10.5 3.70107 10.2366 3.23223 9.76777C2.76339 9.29893 2.5 8.66304 2.5 8C2.5 7.33696 2.76339 6.70107 3.23223 6.23223C3.70107 5.76339 4.33696 5.5 5 5.5H7C7.13261 5.5 7.25979 5.55268 7.35355 5.64645C7.44732 5.74021 7.5 5.86739 7.5 6C7.5 6.13261 7.44732 6.25979 7.35355 6.35355C7.25979 6.44732 7.13261 6.5 7 6.5H5C4.60218 6.5 4.22064 6.65804 3.93934 6.93934C3.65804 7.22064 3.5 7.60218 3.5 8C3.5 8.39782 3.65804 8.77936 3.93934 9.06066C4.22064 9.34196 4.60218 9.5 5 9.5H7C7.13261 9.5 7.25979 9.55268 7.35355 9.64645C7.44732 9.74021 7.5 9.86739 7.5 10C7.5 10.1326 7.44732 10.2598 7.35355 10.3536C7.25979 10.4473 7.13261 10.5 7 10.5ZM11 10.5H9C8.86739 10.5 8.74021 10.4473 8.64645 10.3536C8.55268 10.2598 8.5 10.1326 8.5 10C8.5 9.86739 8.55268 9.74021 8.64645 9.64645C8.74021 9.55268 8.86739 9.5 9 9.5H11C11.3978 9.5 11.7794 9.34196 12.0607 9.06066C12.342 8.77936 12.5 8.39782 12.5 8C12.5 7.60218 12.342 7.22064 12.0607 6.93934C11.7794 6.65804 11.3978 6.5 11 6.5H9C8.86739 6.5 8.74021 6.44732 8.64645 6.35355C8.55268 6.25979 8.5 6.13261 8.5 6C8.5 5.86739 8.55268 5.74021 8.64645 5.64645C8.74021 5.55268 8.86739 5.5 9 5.5H11C11.663 5.5 12.2989 5.76339 12.7678 6.23223C13.2366 6.70107 13.5 7.33696 13.5 8C13.5 8.66304 13.2366 9.29893 12.7678 9.76777C12.2989 10.2366 11.663 10.5 11 10.5Z" fill="black"/>
</g>
<defs>
<clipPath id="clip0_5_617">
<rect width="16" height="16" fill="white"/>
</clipPath>
</defs>
</svg>
