<svg width="16" height="16" viewBox="0 0 16 16" fill="none" xmlns="http://www.w3.org/2000/svg">
<g clip-path="url(#clip0_5_619)">
<path d="M13 2H3C2.73478 2 2.48043 2.10536 2.29289 2.29289C2.10536 2.48043 2 2.73478 2 3V13C2 13.2652 2.10536 13.5196 2.29289 13.7071C2.48043 13.8946 2.73478 14 3 14H13C13.2652 14 13.5196 13.8946 13.7071 13.7071C13.8946 13.5196 14 13.2652 14 13V3C14 2.73478 13.8946 2.48043 13.7071 2.29289C13.5196 2.10536 13.2652 2 13 2ZM6 4C6 3.86739 6.05268 3.74021 6.14645 3.64645C6.24021 3.55268 6.36739 3.5 6.5 3.5C6.63261 3.5 6.75979 3.55268 6.85355 3.64645C6.94732 3.74021 7 3.86739 7 4V5C7 5.13261 6.94732 5.25979 6.85355 5.35355C6.75979 5.44732 6.63261 5.5 6.5 5.5C6.36739 5.5 6.24021 5.44732 6.14645 5.35355C6.05268 5.25979 6 5.13261 6 5V4ZM4 6H5C5.13261 6 5.25979 6.05268 5.35355 6.14645C5.44732 6.24021 5.5 6.36739 5.5 6.5C5.5 6.63261 5.44732 6.75979 5.35355 6.85355C5.25979 6.94732 5.13261 7 5 7H4C3.86739 7 3.74021 6.94732 3.64645 6.85355C3.55268 6.75979 3.5 6.63261 3.5 6.5C3.5 6.36739 3.55268 6.24021 3.64645 6.14645C3.74021 6.05268 3.86739 6 4 6ZM8.005 11.3538L7.55438 11.8044C7.334 12.0257 7.07215 12.2013 6.7838 12.3213C6.49546 12.4412 6.18628 12.5032 5.87398 12.5035C5.56168 12.5038 5.25238 12.4425 4.96378 12.3232C4.67519 12.2038 4.41297 12.0287 4.19214 11.8079C3.97131 11.587 3.7962 11.3248 3.67684 11.0362C3.55747 10.7476 3.4962 10.4383 3.49652 10.126C3.49685 9.81372 3.55876 9.50454 3.67872 9.2162C3.79868 8.92785 3.97434 8.666 4.19562 8.44563L4.64625 7.995C4.73999 7.90118 4.86716 7.84844 4.99978 7.84838C5.1324 7.84832 5.25962 7.90095 5.35344 7.99469C5.44726 8.08843 5.5 8.21559 5.50006 8.34822C5.50012 8.48084 5.44749 8.60805 5.35375 8.70187L4.9025 9.1525C4.64458 9.41042 4.49968 9.76024 4.49968 10.125C4.49968 10.4898 4.64458 10.8396 4.9025 11.0975C5.16042 11.3554 5.51024 11.5003 5.875 11.5003C6.23976 11.5003 6.58958 11.3554 6.8475 11.0975L7.29812 10.6462C7.34458 10.5998 7.39972 10.563 7.4604 10.5379C7.52108 10.5128 7.58611 10.4999 7.65178 10.4999C7.71745 10.5 7.78247 10.5129 7.84313 10.5381C7.90379 10.5632 7.9589 10.6001 8.00531 10.6466C8.05173 10.693 8.08854 10.7482 8.11364 10.8088C8.13874 10.8695 8.15165 10.9346 8.15162 11.0002C8.15159 11.0659 8.13863 11.1309 8.11347 11.1916C8.08831 11.2522 8.05146 11.3073 8.005 11.3538ZM10 12C10 12.1326 9.94732 12.2598 9.85355 12.3536C9.75979 12.4473 9.63261 12.5 9.5 12.5C9.36739 12.5 9.24021 12.4473 9.14645 12.3536C9.05268 12.2598 9 12.1326 9 12V11C9 10.8674 9.05268 10.7402 9.14645 10.6464C9.24021 10.5527 9.36739 10.5 9.5 10.5C9.63261 10.5 9.75979 10.5527 9.85355 10.6464C9.94732 10.7402 10 10.8674 10 11V12ZM12 10H11C10.8674 10 10.7402 9.94732 10.6464 9.85355C10.5527 9.75979 10.5 9.63261 10.5 9.5C10.5 9.36739 10.5527 9.24021 10.6464 9.14645C10.7402 9.05268 10.8674 9 11 9H12C12.1326 9 12.2598 9.05268 12.3536 9.14645C12.4473 9.24021 12.5 9.36739 12.5 9.5C12.5 9.63261 12.4473 9.75979 12.3536 9.85355C12.2598 9.94732 12.1326 10 12 10ZM11.8044 7.55438L11.3538 8.005C11.26 8.09882 11.1328 8.15156 11.0002 8.15162C10.8676 8.15168 10.7404 8.09905 10.6466 8.00531C10.5527 7.91158 10.5 7.78441 10.4999 7.65178C10.4999 7.51916 10.5525 7.39194 10.6462 7.29812L11.0975 6.8475C11.3554 6.58958 11.5003 6.23976 11.5003 5.875C11.5003 5.51024 11.3554 5.16042 11.0975 4.9025C10.8396 4.64458 10.4898 4.49968 10.125 4.49968C9.76024 4.49968 9.41042 4.64458 9.1525 4.9025L8.70187 5.35375C8.60805 5.44749 8.48084 5.50012 8.34822 5.50006C8.21559 5.5 8.08843 5.44726 7.99469 5.35344C7.90095 5.25962 7.84832 5.1324 7.84838 4.99978C7.84844 4.86716 7.90118 4.73999 7.995 4.64625L8.44563 4.19562C8.666 3.97434 8.92785 3.79868 9.2162 3.67872C9.50454 3.55876 9.81372 3.49685 10.126 3.49652C10.4383 3.4962 10.7476 3.55747 11.0362 3.67684C11.3248 3.7962 11.587 3.97131 11.8079 4.19214C12.0287 4.41297 12.2038 4.67519 12.3232 4.96378C12.4425 5.25238 12.5038 5.56168 12.5035 5.87398C12.5032 6.18628 12.4412 6.49546 12.3213 6.7838C12.2013 7.07215 12.0257 7.334 11.8044 7.55438Z" fill="black"/>
</g>
<defs>
<clipPath id="clip0_5_619">
<rect width="16" height="16" fill="white"/>
</clipPath>
</defs>
</svg>
