<svg width="16" height="16" viewBox="0 0 16 16" fill="none" xmlns="http://www.w3.org/2000/svg">
<g clip-path="url(#clip0_5_967)">
<path d="M12.5 1.5H3.5C3.23478 1.5 2.98043 1.60536 2.79289 1.79289C2.60536 1.98043 2.5 2.23478 2.5 2.5V13.5C2.5 13.7652 2.60536 14.0196 2.79289 14.2071C2.98043 14.3946 3.23478 14.5 3.5 14.5H12.5C12.7652 14.5 13.0196 14.3946 13.2071 14.2071C13.3946 14.0196 13.5 13.7652 13.5 13.5V2.5C13.5 2.23478 13.3946 1.98043 13.2071 1.79289C13.0196 1.60536 12.7652 1.5 12.5 1.5ZM8.5 12.5C8.5 12.6326 8.44732 12.7598 8.35355 12.8536C8.25979 12.9473 8.13261 13 8 13C7.86739 13 7.74021 12.9473 7.64645 12.8536C7.55268 12.7598 7.5 12.6326 7.5 12.5V10C7.5 9.86739 7.55268 9.74021 7.64645 9.64645C7.74021 9.55268 7.86739 9.5 8 9.5C8.13261 9.5 8.25979 9.55268 8.35355 9.64645C8.44732 9.74021 8.5 9.86739 8.5 10V12.5ZM11.5 7.5H9.20687L10.8538 9.14625C10.9002 9.1927 10.9371 9.24786 10.9622 9.30855C10.9873 9.36925 11.0003 9.4343 11.0003 9.5C11.0003 9.5657 10.9873 9.63075 10.9622 9.69145C10.9371 9.75214 10.9002 9.80729 10.8538 9.85375C10.8073 9.90021 10.7521 9.93705 10.6914 9.9622C10.6308 9.98734 10.5657 10.0003 10.5 10.0003C10.4343 10.0003 10.3692 9.98734 10.3086 9.9622C10.2479 9.93705 10.1927 9.90021 10.1462 9.85375L8 7.70687L5.85375 9.85375C5.8073 9.90021 5.75214 9.93705 5.69145 9.9622C5.63075 9.98734 5.5657 10.0003 5.5 10.0003C5.4343 10.0003 5.36925 9.98734 5.30855 9.9622C5.24786 9.93705 5.1927 9.90021 5.14625 9.85375C5.09979 9.80729 5.06294 9.75214 5.0378 9.69145C5.01266 9.63075 4.99972 9.5657 4.99972 9.5C4.99972 9.4343 5.01266 9.36925 5.0378 9.30855C5.06294 9.24786 5.09979 9.1927 5.14625 9.14625L6.79313 7.5H4.5C4.36739 7.5 4.24021 7.44732 4.14645 7.35355C4.05268 7.25979 4 7.13261 4 7C4 6.86739 4.05268 6.74021 4.14645 6.64645C4.24021 6.55268 4.36739 6.5 4.5 6.5H6.79313L5.14625 4.85375C5.05243 4.75993 4.99972 4.63268 4.99972 4.5C4.99972 4.36732 5.05243 4.24007 5.14625 4.14625C5.24007 4.05243 5.36732 3.99972 5.5 3.99972C5.63268 3.99972 5.75993 4.05243 5.85375 4.14625L7.5 5.79313V3.5C7.5 3.36739 7.55268 3.24021 7.64645 3.14645C7.74021 3.05268 7.86739 3 8 3C8.13261 3 8.25979 3.05268 8.35355 3.14645C8.44732 3.24021 8.5 3.36739 8.5 3.5V5.79313L10.1462 4.14625C10.2401 4.05243 10.3673 3.99972 10.5 3.99972C10.6327 3.99972 10.7599 4.05243 10.8538 4.14625C10.9476 4.24007 11.0003 4.36732 11.0003 4.5C11.0003 4.63268 10.9476 4.75993 10.8538 4.85375L9.20687 6.5H11.5C11.6326 6.5 11.7598 6.55268 11.8536 6.64645C11.9473 6.74021 12 6.86739 12 7C12 7.13261 11.9473 7.25979 11.8536 7.35355C11.7598 7.44732 11.6326 7.5 11.5 7.5Z" fill="black"/>
</g>
<defs>
<clipPath id="clip0_5_967">
<rect width="16" height="16" fill="white"/>
</clipPath>
</defs>
</svg>
