<svg width="16" height="16" viewBox="0 0 16 16" fill="none" xmlns="http://www.w3.org/2000/svg">
<g clip-path="url(#clip0_5_927)">
<path d="M13 2H3C2.73478 2 2.48043 2.10536 2.29289 2.29289C2.10536 2.48043 2 2.73478 2 3V13C2 13.2652 2.10536 13.5196 2.29289 13.7071C2.48043 13.8946 2.73478 14 3 14H13C13.2652 14 13.5196 13.8946 13.7071 13.7071C13.8946 13.5196 14 13.2652 14 13V3C14 2.73478 13.8946 2.48043 13.7071 2.29289C13.5196 2.10536 13.2652 2 13 2ZM7.23125 12.0306C6.6741 12.4104 5.99528 12.5685 5.32765 12.4741C4.66003 12.3797 4.05168 12.0395 3.62168 11.5202C3.19168 11.0008 2.971 10.3397 3.00282 9.66615C3.03465 8.99264 3.31669 8.35525 3.79375 7.87875L5.37937 6.29313C5.88734 5.78609 6.57573 5.50132 7.29344 5.50132C8.01115 5.50132 8.69954 5.78609 9.2075 6.29313C9.48196 6.56594 9.69411 6.89493 9.82938 7.2575C9.85236 7.31906 9.86299 7.38454 9.86066 7.4502C9.85834 7.51587 9.8431 7.58043 9.81583 7.64021C9.78855 7.69999 9.74976 7.75381 9.70169 7.7986C9.65361 7.84339 9.59718 7.87827 9.53563 7.90125C9.47407 7.92423 9.40859 7.93486 9.34292 7.93254C9.27726 7.93021 9.21269 7.91498 9.15291 7.8877C9.09313 7.86042 9.03931 7.82164 8.99453 7.77356C8.94974 7.72549 8.91486 7.66906 8.89188 7.6075C8.7914 7.34011 8.62546 7.10219 8.40926 6.91551C8.19307 6.72883 7.9335 6.59934 7.65432 6.5389C7.37515 6.47847 7.08527 6.48901 6.81122 6.56956C6.53717 6.65011 6.28769 6.79811 6.08563 7L4.5 8.58562C4.19943 8.8862 4.02179 9.28808 4.0018 9.71268C3.9818 10.1373 4.1209 10.5541 4.39189 10.8816C4.66289 11.209 5.04629 11.4237 5.46713 11.4835C5.88797 11.5433 6.31599 11.444 6.6675 11.205C6.72157 11.1646 6.78326 11.1355 6.84887 11.1196C6.91447 11.1036 6.98263 11.1011 7.04922 11.1122C7.11581 11.1233 7.17947 11.1478 7.23634 11.1842C7.29322 11.2206 7.34214 11.2681 7.38015 11.3239C7.41816 11.3797 7.44448 11.4426 7.45752 11.5089C7.47056 11.5751 7.47005 11.6433 7.45602 11.7093C7.44199 11.7754 7.41473 11.8379 7.37589 11.8931C7.33704 11.9483 7.28741 11.9951 7.23 12.0306H7.23125ZM12.2069 8.12125L10.6213 9.70687C10.3706 9.95911 10.0724 10.1591 9.74387 10.2952C9.41536 10.4314 9.0631 10.501 8.7075 10.5C8.15667 10.4993 7.61915 10.3307 7.16658 10.0167C6.71401 9.7027 6.3679 9.25822 6.17438 8.7425C6.12796 8.61818 6.13284 8.48051 6.18792 8.35979C6.24301 8.23906 6.3438 8.14516 6.46812 8.09875C6.59244 8.05234 6.73011 8.05721 6.85084 8.1123C6.97156 8.16739 7.06546 8.26818 7.11188 8.3925C7.23388 8.71682 7.45156 8.9964 7.73608 9.19419C8.02059 9.39197 8.3585 9.49862 8.705 9.5C8.92933 9.50065 9.15157 9.45679 9.35884 9.37096C9.56611 9.28514 9.75429 9.15905 9.9125 9L11.5 7.41437C11.8006 7.1138 11.9782 6.71192 11.9982 6.28732C12.0182 5.86272 11.8791 5.44593 11.6081 5.11844C11.3371 4.79095 10.9537 4.57632 10.5329 4.5165C10.112 4.45669 9.68401 4.55599 9.3325 4.795C9.27843 4.83543 9.21674 4.8645 9.15113 4.88044C9.08553 4.89638 9.01737 4.89887 8.95078 4.88776C8.88419 4.87665 8.82053 4.85217 8.76366 4.81579C8.70678 4.77941 8.65786 4.7319 8.61985 4.6761C8.58184 4.62031 8.55552 4.55739 8.54248 4.49115C8.52944 4.42491 8.52995 4.35671 8.54398 4.29067C8.55801 4.22463 8.58527 4.16211 8.62411 4.1069C8.66296 4.05168 8.71259 4.0049 8.77 3.96937C9.32726 3.59152 10.0053 3.43486 10.6718 3.52995C11.3384 3.62503 11.9456 3.96505 12.3749 4.48366C12.8043 5.00226 13.0251 5.66224 12.9941 6.33481C12.9631 7.00738 12.6827 7.64429 12.2075 8.12125H12.2069Z" fill="black"/>
</g>
<defs>
<clipPath id="clip0_5_927">
<rect width="16" height="16" fill="white"/>
</clipPath>
</defs>
</svg>
