<svg width="16" height="16" viewBox="0 0 16 16" fill="none" xmlns="http://www.w3.org/2000/svg">
<g clip-path="url(#clip0_5_613)">
<path d="M10.0762 13.1088C10.102 13.1463 10.1169 13.1903 10.1195 13.2358C10.1221 13.2812 10.1123 13.3266 10.091 13.3669C10.0697 13.4071 10.0378 13.4408 9.99869 13.4643C9.95963 13.4878 9.91491 13.5001 9.86934 13.5H6.13122C6.08565 13.5001 6.04092 13.4878 6.00187 13.4643C5.96281 13.4408 5.93091 13.4071 5.90961 13.3669C5.88831 13.3266 5.87842 13.2812 5.88102 13.2358C5.88362 13.1903 5.8986 13.1463 5.92434 13.1088C6.15296 12.7681 6.46192 12.4889 6.82396 12.2958C7.18599 12.1027 7.58998 12.0018 8.00028 12.0018C8.41057 12.0018 8.81456 12.1027 9.1766 12.2958C9.53864 12.4889 9.8476 12.7681 10.0762 13.1088ZM14.3843 13.3194C14.3347 13.3772 14.273 13.4233 14.2036 13.4545C14.1341 13.4858 14.0586 13.5013 13.9825 13.5H11.535C11.4835 13.4999 11.4333 13.484 11.3913 13.4543C11.3492 13.4247 11.3173 13.3828 11.3 13.3344C11.0586 12.6521 10.6118 12.0614 10.0208 11.6436C9.4299 11.2258 8.72399 11.0014 8.00028 11.0014C7.27657 11.0014 6.57066 11.2258 5.97973 11.6436C5.3888 12.0614 4.94191 12.6521 4.70059 13.3344C4.68323 13.3828 4.65134 13.4247 4.60928 13.4543C4.56722 13.484 4.51704 13.4999 4.46559 13.5H2.01434C1.93805 13.5013 1.86243 13.4855 1.79301 13.4538C1.72359 13.4221 1.66212 13.3753 1.61309 13.3169C1.54045 13.2283 1.50045 13.1174 1.49976 13.0029C1.49908 12.8883 1.53777 12.777 1.60934 12.6875C1.61309 12.6831 2.08684 12.0763 2.55434 10.8925C2.98559 9.8 3.49997 7.9775 3.49997 5.5C3.49997 4.30653 3.97407 3.16193 4.81799 2.31802C5.6619 1.47411 6.80649 1 7.99997 1C9.19344 1 10.338 1.47411 11.1819 2.31802C12.0259 3.16193 12.5 4.30653 12.5 5.5C12.5 7.9775 13.0143 9.8 13.4456 10.8925C13.9131 12.0763 14.3868 12.6831 14.3912 12.6888C14.4627 12.7787 14.501 12.8904 14.4997 13.0053C14.4985 13.1201 14.4577 13.231 14.3843 13.3194ZM5.49997 6.25C5.49997 6.39834 5.54395 6.54334 5.62636 6.66668C5.70878 6.79001 5.82591 6.88614 5.96295 6.94291C6.1 6.99968 6.2508 7.01453 6.39628 6.98559C6.54177 6.95665 6.67541 6.88522 6.7803 6.78033C6.88519 6.67544 6.95662 6.5418 6.98556 6.39632C7.01449 6.25083 6.99964 6.10003 6.94288 5.96299C6.88611 5.82594 6.78998 5.70881 6.66664 5.6264C6.54331 5.54399 6.3983 5.5 6.24997 5.5C6.05105 5.5 5.86029 5.57902 5.71964 5.71967C5.57898 5.86032 5.49997 6.05109 5.49997 6.25ZM10.4475 8.27625C10.3882 8.15767 10.2842 8.06748 10.1585 8.02552C10.0327 7.98356 9.89545 7.99327 9.77684 8.0525L7.99997 8.94125L6.22372 8.0525C6.10503 7.99324 5.96767 7.98356 5.84184 8.02558C5.71602 8.0676 5.61204 8.15788 5.55278 8.27656C5.49352 8.39525 5.48383 8.53261 5.52585 8.65844C5.56787 8.78426 5.65816 8.88824 5.77684 8.9475L7.77684 9.9475C7.84623 9.98216 7.92272 10.0002 8.00028 10.0002C8.07784 10.0002 8.15433 9.98216 8.22372 9.9475L10.2237 8.9475C10.2825 8.91815 10.3349 8.8775 10.378 8.82786C10.4211 8.77823 10.454 8.7206 10.4747 8.65826C10.4955 8.59591 10.5038 8.53009 10.4991 8.46454C10.4944 8.39899 10.4769 8.33501 10.4475 8.27625ZM10.5 6.25C10.5 6.10166 10.456 5.95666 10.3736 5.83332C10.2912 5.70999 10.174 5.61386 10.037 5.55709C9.89993 5.50032 9.74914 5.48547 9.60365 5.51441C9.45816 5.54335 9.32453 5.61478 9.21964 5.71967C9.11475 5.82456 9.04332 5.9582 9.01438 6.10368C8.98544 6.24917 9.00029 6.39997 9.05706 6.53701C9.11382 6.67406 9.20995 6.79119 9.33329 6.8736C9.45663 6.95601 9.60163 7 9.74997 7C9.94888 7 10.1396 6.92098 10.2803 6.78033C10.4209 6.63968 10.5 6.44891 10.5 6.25Z" fill="black"/>
</g>
<defs>
<clipPath id="clip0_5_613">
<rect width="16" height="16" fill="white"/>
</clipPath>
</defs>
</svg>
