<svg width="16" height="16" viewBox="0 0 16 16" fill="none" xmlns="http://www.w3.org/2000/svg">
<g clip-path="url(#clip0_5_914)">
<path d="M13 2H3C2.73478 2 2.48043 2.10536 2.29289 2.29289C2.10536 2.48043 2 2.73478 2 3V13C2 13.2652 2.10536 13.5196 2.29289 13.7071C2.48043 13.8946 2.73478 14 3 14H13C13.2652 14 13.5196 13.8946 13.7071 13.7071C13.8946 13.5196 14 13.2652 14 13V3C14 2.73478 13.8946 2.48043 13.7071 2.29289C13.5196 2.10536 13.2652 2 13 2ZM6.5 11.5H4C3.86739 11.5 3.74021 11.4473 3.64645 11.3536C3.55268 11.2598 3.5 11.1326 3.5 11C3.5 10.8674 3.55268 10.7402 3.64645 10.6464C3.74021 10.5527 3.86739 10.5 4 10.5H6.5C6.63261 10.5 6.75979 10.5527 6.85355 10.6464C6.94732 10.7402 7 10.8674 7 11C7 11.1326 6.94732 11.2598 6.85355 11.3536C6.75979 11.4473 6.63261 11.5 6.5 11.5ZM3.5 8C3.5 7.86739 3.55268 7.74021 3.64645 7.64645C3.74021 7.55268 3.86739 7.5 4 7.5H6C6.13261 7.5 6.25979 7.55268 6.35355 7.64645C6.44732 7.74021 6.5 7.86739 6.5 8C6.5 8.13261 6.44732 8.25979 6.35355 8.35355C6.25979 8.44732 6.13261 8.5 6 8.5H4C3.86739 8.5 3.74021 8.44732 3.64645 8.35355C3.55268 8.25979 3.5 8.13261 3.5 8ZM10.1119 11.5988C10.0771 11.6161 10.0388 11.6252 10 11.6252C9.96116 11.6252 9.92286 11.6161 9.88813 11.5988C9.79063 11.55 7.5 10.3856 7.5 8.75C7.50012 8.45783 7.59331 8.17328 7.76605 7.93764C7.93879 7.702 8.1821 7.52751 8.46069 7.43947C8.73929 7.35144 9.03869 7.35443 9.31546 7.44803C9.59224 7.54162 9.83201 7.72095 10 7.96C10.168 7.72095 10.4078 7.54162 10.6845 7.44803C10.9613 7.35443 11.2607 7.35144 11.5393 7.43947C11.8179 7.52751 12.0612 7.702 12.234 7.93764C12.4067 8.17328 12.4999 8.45783 12.5 8.75C12.5 10.3856 10.2094 11.55 10.1119 11.5988ZM12 5.5H4C3.86739 5.5 3.74021 5.44732 3.64645 5.35355C3.55268 5.25979 3.5 5.13261 3.5 5C3.5 4.86739 3.55268 4.74021 3.64645 4.64645C3.74021 4.55268 3.86739 4.5 4 4.5H12C12.1326 4.5 12.2598 4.55268 12.3536 4.64645C12.4473 4.74021 12.5 4.86739 12.5 5C12.5 5.13261 12.4473 5.25979 12.3536 5.35355C12.2598 5.44732 12.1326 5.5 12 5.5Z" fill="black"/>
</g>
<defs>
<clipPath id="clip0_5_914">
<rect width="16" height="16" fill="white"/>
</clipPath>
</defs>
</svg>
