<svg width="16" height="16" viewBox="0 0 16 16" fill="none" xmlns="http://www.w3.org/2000/svg">
<g clip-path="url(#clip0_5_609)">
<path d="M13 2H3C2.73478 2 2.48043 2.10536 2.29289 2.29289C2.10536 2.48043 2 2.73478 2 3V13C2 13.2652 2.10536 13.5196 2.29289 13.7071C2.48043 13.8946 2.73478 14 3 14H13C13.2652 14 13.5196 13.8946 13.7071 13.7071C13.8946 13.5196 14 13.2652 14 13V3C14 2.73478 13.8946 2.48043 13.7071 2.29289C13.5196 2.10536 13.2652 2 13 2ZM3.5525 4.72375C3.52307 4.66499 3.50552 4.60101 3.50084 4.53546C3.49616 4.46991 3.50445 4.40409 3.52523 4.34174C3.54601 4.2794 3.57888 4.22177 3.62195 4.17213C3.66502 4.1225 3.71745 4.08185 3.77625 4.0525L4.77625 3.5525C4.85251 3.51434 4.93726 3.49632 5.02244 3.50015C5.10763 3.50397 5.19042 3.52952 5.26295 3.57437C5.33548 3.61921 5.39533 3.68186 5.43682 3.75636C5.47831 3.83086 5.50006 3.91473 5.5 4V7C5.5 7.13261 5.44732 7.25979 5.35355 7.35355C5.25979 7.44732 5.13261 7.5 5 7.5C4.86739 7.5 4.74021 7.44732 4.64645 7.35355C4.55268 7.25979 4.5 7.13261 4.5 7V4.80875L4.22375 4.9475C4.16499 4.97693 4.10101 4.99448 4.03546 4.99916C3.96991 5.00384 3.90409 4.99555 3.84174 4.97477C3.7794 4.95399 3.72177 4.92112 3.67213 4.87805C3.6225 4.83498 3.58185 4.78255 3.5525 4.72375ZM5.75 11.25C5.88261 11.25 6.00979 11.3027 6.10355 11.3964C6.19732 11.4902 6.25 11.6174 6.25 11.75C6.25 11.8826 6.19732 12.0098 6.10355 12.1036C6.00979 12.1973 5.88261 12.25 5.75 12.25H4.25C4.15714 12.25 4.06612 12.2241 3.98713 12.1753C3.90815 12.1265 3.84431 12.0567 3.80279 11.9736C3.76126 11.8906 3.74368 11.7976 3.75202 11.7051C3.76036 11.6126 3.79429 11.5243 3.85 11.45L5.20437 9.64437C5.23445 9.60227 5.25042 9.55174 5.25 9.5C5.2499 9.44108 5.22899 9.38409 5.19097 9.33909C5.15295 9.29408 5.10025 9.26395 5.04218 9.25401C4.98411 9.24407 4.92439 9.25496 4.87356 9.28476C4.82274 9.31455 4.78407 9.36134 4.76438 9.41687C4.72012 9.54194 4.62799 9.6443 4.50826 9.70144C4.38853 9.75858 4.251 9.76582 4.12594 9.72156C4.00087 9.6773 3.89851 9.58518 3.84137 9.46545C3.78423 9.34572 3.77699 9.20819 3.82125 9.08313C3.88193 8.91472 3.97807 8.76131 4.10317 8.63327C4.22826 8.50524 4.3794 8.40556 4.54636 8.34099C4.71331 8.27642 4.89219 8.24846 5.07088 8.25901C5.24957 8.26955 5.42392 8.31836 5.58212 8.40211C5.74032 8.48587 5.87869 8.60263 5.98786 8.74449C6.09703 8.88635 6.17446 9.05 6.21491 9.22437C6.25536 9.39875 6.25789 9.57978 6.22232 9.75521C6.18675 9.93065 6.11392 10.0964 6.00875 10.2413L5.25 11.25H5.75ZM12 11.5H7.5C7.36739 11.5 7.24021 11.4473 7.14645 11.3536C7.05268 11.2598 7 11.1326 7 11C7 10.8674 7.05268 10.7402 7.14645 10.6464C7.24021 10.5527 7.36739 10.5 7.5 10.5H12C12.1326 10.5 12.2598 10.5527 12.3536 10.6464C12.4473 10.7402 12.5 10.8674 12.5 11C12.5 11.1326 12.4473 11.2598 12.3536 11.3536C12.2598 11.4473 12.1326 11.5 12 11.5ZM12 8.5H7.5C7.36739 8.5 7.24021 8.44732 7.14645 8.35355C7.05268 8.25979 7 8.13261 7 8C7 7.86739 7.05268 7.74021 7.14645 7.64645C7.24021 7.55268 7.36739 7.5 7.5 7.5H12C12.1326 7.5 12.2598 7.55268 12.3536 7.64645C12.4473 7.74021 12.5 7.86739 12.5 8C12.5 8.13261 12.4473 8.25979 12.3536 8.35355C12.2598 8.44732 12.1326 8.5 12 8.5ZM12 5.5H7.5C7.36739 5.5 7.24021 5.44732 7.14645 5.35355C7.05268 5.25979 7 5.13261 7 5C7 4.86739 7.05268 4.74021 7.14645 4.64645C7.24021 4.55268 7.36739 4.5 7.5 4.5H12C12.1326 4.5 12.2598 4.55268 12.3536 4.64645C12.4473 4.74021 12.5 4.86739 12.5 5C12.5 5.13261 12.4473 5.25979 12.3536 5.35355C12.2598 5.44732 12.1326 5.5 12 5.5Z" fill="black"/>
</g>
<defs>
<clipPath id="clip0_5_609">
<rect width="16" height="16" fill="white"/>
</clipPath>
</defs>
</svg>
