<svg width="16" height="16" viewBox="0 0 16 16" fill="none" xmlns="http://www.w3.org/2000/svg">
<g clip-path="url(#clip0_5_1244)">
<path d="M13 2H3C2.73478 2 2.48043 2.10536 2.29289 2.29289C2.10536 2.48043 2 2.73478 2 3V13C2 13.2652 2.10536 13.5196 2.29289 13.7071C2.48043 13.8946 2.73478 14 3 14H13C13.2652 14 13.5196 13.8946 13.7071 13.7071C13.8946 13.5196 14 13.2652 14 13V3C14 2.73478 13.8946 2.48043 13.7071 2.29289C13.5196 2.10536 13.2652 2 13 2ZM4.25 11.75C4.10166 11.75 3.95666 11.706 3.83332 11.6236C3.70999 11.5412 3.61386 11.4241 3.55709 11.287C3.50032 11.15 3.48547 10.9992 3.51441 10.8537C3.54335 10.7082 3.61478 10.5746 3.71967 10.4697C3.82456 10.3648 3.9582 10.2934 4.10368 10.2644C4.24917 10.2355 4.39997 10.2503 4.53701 10.3071C4.67406 10.3639 4.79119 10.46 4.8736 10.5833C4.95601 10.7067 5 10.8517 5 11C5 11.1989 4.92098 11.3897 4.78033 11.5303C4.63968 11.671 4.44891 11.75 4.25 11.75ZM4.25 8.75C4.10166 8.75 3.95666 8.70601 3.83332 8.6236C3.70999 8.54119 3.61386 8.42406 3.55709 8.28701C3.50032 8.14997 3.48547 7.99917 3.51441 7.85368C3.54335 7.7082 3.61478 7.57456 3.71967 7.46967C3.82456 7.36478 3.9582 7.29335 4.10368 7.26441C4.24917 7.23547 4.39997 7.25032 4.53701 7.30709C4.67406 7.36386 4.79119 7.45999 4.8736 7.58332C4.95601 7.70666 5 7.85166 5 8C5 8.19891 4.92098 8.38968 4.78033 8.53033C4.63968 8.67098 4.44891 8.75 4.25 8.75ZM4.25 5.75C4.10166 5.75 3.95666 5.70601 3.83332 5.6236C3.70999 5.54119 3.61386 5.42406 3.55709 5.28701C3.50032 5.14997 3.48547 4.99917 3.51441 4.85368C3.54335 4.7082 3.61478 4.57456 3.71967 4.46967C3.82456 4.36478 3.9582 4.29335 4.10368 4.26441C4.24917 4.23547 4.39997 4.25032 4.53701 4.30709C4.67406 4.36386 4.79119 4.45999 4.8736 4.58332C4.95601 4.70666 5 4.85166 5 5C5 5.19891 4.92098 5.38968 4.78033 5.53033C4.63968 5.67098 4.44891 5.75 4.25 5.75ZM12 11.5H6.5C6.36739 11.5 6.24021 11.4473 6.14645 11.3536C6.05268 11.2598 6 11.1326 6 11C6 10.8674 6.05268 10.7402 6.14645 10.6464C6.24021 10.5527 6.36739 10.5 6.5 10.5H12C12.1326 10.5 12.2598 10.5527 12.3536 10.6464C12.4473 10.7402 12.5 10.8674 12.5 11C12.5 11.1326 12.4473 11.2598 12.3536 11.3536C12.2598 11.4473 12.1326 11.5 12 11.5ZM12 8.5H6.5C6.36739 8.5 6.24021 8.44732 6.14645 8.35355C6.05268 8.25979 6 8.13261 6 8C6 7.86739 6.05268 7.74021 6.14645 7.64645C6.24021 7.55268 6.36739 7.5 6.5 7.5H12C12.1326 7.5 12.2598 7.55268 12.3536 7.64645C12.4473 7.74021 12.5 7.86739 12.5 8C12.5 8.13261 12.4473 8.25979 12.3536 8.35355C12.2598 8.44732 12.1326 8.5 12 8.5ZM12 5.5H6.5C6.36739 5.5 6.24021 5.44732 6.14645 5.35355C6.05268 5.25979 6 5.13261 6 5C6 4.86739 6.05268 4.74021 6.14645 4.64645C6.24021 4.55268 6.36739 4.5 6.5 4.5H12C12.1326 4.5 12.2598 4.55268 12.3536 4.64645C12.4473 4.74021 12.5 4.86739 12.5 5C12.5 5.13261 12.4473 5.25979 12.3536 5.35355C12.2598 5.44732 12.1326 5.5 12 5.5Z" fill="black"/>
</g>
<defs>
<clipPath id="clip0_5_1244">
<rect width="16" height="16" fill="white"/>
</clipPath>
</defs>
</svg>
