<svg width="16" height="16" viewBox="0 0 16 16" fill="none" xmlns="http://www.w3.org/2000/svg">
<g clip-path="url(#clip0_5_612)">
<path d="M13 2H3C2.73478 2 2.48043 2.10536 2.29289 2.29289C2.10536 2.48043 2 2.73478 2 3V13C2 13.2652 2.10536 13.5196 2.29289 13.7071C2.48043 13.8946 2.73478 14 3 14H13C13.2652 14 13.5196 13.8946 13.7071 13.7071C13.8946 13.5196 14 13.2652 14 13V3C14 2.73478 13.8946 2.48043 13.7071 2.29289C13.5196 2.10536 13.2652 2 13 2ZM4.5 11.5H4C3.86739 11.5 3.74021 11.4473 3.64645 11.3536C3.55268 11.2598 3.5 11.1326 3.5 11C3.5 10.8674 3.55268 10.7402 3.64645 10.6464C3.74021 10.5527 3.86739 10.5 4 10.5H4.5C4.63261 10.5 4.75979 10.5527 4.85355 10.6464C4.94732 10.7402 5 10.8674 5 11C5 11.1326 4.94732 11.2598 4.85355 11.3536C4.75979 11.4473 4.63261 11.5 4.5 11.5ZM4.5 8.5H4C3.86739 8.5 3.74021 8.44732 3.64645 8.35355C3.55268 8.25979 3.5 8.13261 3.5 8C3.5 7.86739 3.55268 7.74021 3.64645 7.64645C3.74021 7.55268 3.86739 7.5 4 7.5H4.5C4.63261 7.5 4.75979 7.55268 4.85355 7.64645C4.94732 7.74021 5 7.86739 5 8C5 8.13261 4.94732 8.25979 4.85355 8.35355C4.75979 8.44732 4.63261 8.5 4.5 8.5ZM4.5 5.5H4C3.86739 5.5 3.74021 5.44732 3.64645 5.35355C3.55268 5.25979 3.5 5.13261 3.5 5C3.5 4.86739 3.55268 4.74021 3.64645 4.64645C3.74021 4.55268 3.86739 4.5 4 4.5H4.5C4.63261 4.5 4.75979 4.55268 4.85355 4.64645C4.94732 4.74021 5 4.86739 5 5C5 5.13261 4.94732 5.25979 4.85355 5.35355C4.75979 5.44732 4.63261 5.5 4.5 5.5ZM12 11.5H6.5C6.36739 11.5 6.24021 11.4473 6.14645 11.3536C6.05268 11.2598 6 11.1326 6 11C6 10.8674 6.05268 10.7402 6.14645 10.6464C6.24021 10.5527 6.36739 10.5 6.5 10.5H12C12.1326 10.5 12.2598 10.5527 12.3536 10.6464C12.4473 10.7402 12.5 10.8674 12.5 11C12.5 11.1326 12.4473 11.2598 12.3536 11.3536C12.2598 11.4473 12.1326 11.5 12 11.5ZM12 8.5H6.5C6.36739 8.5 6.24021 8.44732 6.14645 8.35355C6.05268 8.25979 6 8.13261 6 8C6 7.86739 6.05268 7.74021 6.14645 7.64645C6.24021 7.55268 6.36739 7.5 6.5 7.5H12C12.1326 7.5 12.2598 7.55268 12.3536 7.64645C12.4473 7.74021 12.5 7.86739 12.5 8C12.5 8.13261 12.4473 8.25979 12.3536 8.35355C12.2598 8.44732 12.1326 8.5 12 8.5ZM12 5.5H6.5C6.36739 5.5 6.24021 5.44732 6.14645 5.35355C6.05268 5.25979 6 5.13261 6 5C6 4.86739 6.05268 4.74021 6.14645 4.64645C6.24021 4.55268 6.36739 4.5 6.5 4.5H12C12.1326 4.5 12.2598 4.55268 12.3536 4.64645C12.4473 4.74021 12.5 4.86739 12.5 5C12.5 5.13261 12.4473 5.25979 12.3536 5.35355C12.2598 5.44732 12.1326 5.5 12 5.5Z" fill="black"/>
</g>
<defs>
<clipPath id="clip0_5_612">
<rect width="16" height="16" fill="white"/>
</clipPath>
</defs>
</svg>
