<svg width="16" height="16" viewBox="0 0 16 16" fill="none" xmlns="http://www.w3.org/2000/svg">
<g clip-path="url(#clip0_5_912)">
<path d="M2 4C2 3.86739 2.05268 3.74021 2.14645 3.64645C2.24021 3.55268 2.36739 3.5 2.5 3.5H13.5C13.6326 3.5 13.7598 3.55268 13.8536 3.64645C13.9473 3.74021 14 3.86739 14 4C14 4.13261 13.9473 4.25979 13.8536 4.35355C13.7598 4.44732 13.6326 4.5 13.5 4.5H2.5C2.36739 4.5 2.24021 4.44732 2.14645 4.35355C2.05268 4.25979 2 4.13261 2 4ZM2.5 8.5H7C7.13261 8.5 7.25979 8.44732 7.35355 8.35355C7.44732 8.25979 7.5 8.13261 7.5 8C7.5 7.86739 7.44732 7.74021 7.35355 7.64645C7.25979 7.55268 7.13261 7.5 7 7.5H2.5C2.36739 7.5 2.24021 7.55268 2.14645 7.64645C2.05268 7.74021 2 7.86739 2 8C2 8.13261 2.05268 8.25979 2.14645 8.35355C2.24021 8.44732 2.36739 8.5 2.5 8.5ZM8 11.5H2.5C2.36739 11.5 2.24021 11.5527 2.14645 11.6464C2.05268 11.7402 2 11.8674 2 12C2 12.1326 2.05268 12.2598 2.14645 12.3536C2.24021 12.4473 2.36739 12.5 2.5 12.5H8C8.13261 12.5 8.25979 12.4473 8.35355 12.3536C8.44732 12.2598 8.5 12.1326 8.5 12C8.5 11.8674 8.44732 11.7402 8.35355 11.6464C8.25979 11.5527 8.13261 11.5 8 11.5ZM14.8538 11.6462L13.585 10.375C13.9261 9.85802 14.0631 9.23284 13.9696 8.62058C13.876 8.00833 13.5585 7.45261 13.0786 7.06109C12.5987 6.66958 11.9905 6.47014 11.3719 6.50144C10.7534 6.53273 10.1684 6.79253 9.73048 7.23048C9.29253 7.66843 9.03273 8.25336 9.00144 8.87193C8.97014 9.4905 9.16958 10.0987 9.56109 10.5786C9.95261 11.0585 10.5083 11.376 11.1206 11.4696C11.7328 11.5631 12.358 11.4261 12.875 11.085L14.1438 12.3538C14.2376 12.4476 14.3648 12.5003 14.4975 12.5003C14.6302 12.5003 14.7574 12.4476 14.8512 12.3538C14.9451 12.2599 14.9978 12.1327 14.9978 12C14.9978 11.8673 14.9451 11.7401 14.8512 11.6462H14.8538Z" fill="black"/>
</g>
<defs>
<clipPath id="clip0_5_912">
<rect width="16" height="16" fill="white"/>
</clipPath>
</defs>
</svg>
