<svg width="16" height="16" viewBox="0 0 16 16" fill="none" xmlns="http://www.w3.org/2000/svg">
<g clip-path="url(#clip0_5_1239)">
<path d="M13 2H3C2.73478 2 2.48043 2.10536 2.29289 2.29289C2.10536 2.48043 2 2.73478 2 3V13C2 13.2652 2.10536 13.5196 2.29289 13.7071C2.48043 13.8946 2.73478 14 3 14H13C13.2652 14 13.5196 13.8946 13.7071 13.7071C13.8946 13.5196 14 13.2652 14 13V3C14 2.73478 13.8946 2.48043 13.7071 2.29289C13.5196 2.10536 13.2652 2 13 2ZM7.35375 9.35375L5.35375 11.3538C5.30731 11.4002 5.25217 11.4371 5.19147 11.4623C5.13077 11.4874 5.06571 11.5004 5 11.5004C4.93429 11.5004 4.86923 11.4874 4.80853 11.4623C4.74783 11.4371 4.69269 11.4002 4.64625 11.3538L3.64625 10.3538C3.55243 10.2599 3.49972 10.1327 3.49972 10C3.49972 9.86732 3.55243 9.74007 3.64625 9.64625C3.74007 9.55243 3.86732 9.49972 4 9.49972C4.13268 9.49972 4.25993 9.55243 4.35375 9.64625L5 10.2931L6.64625 8.64625C6.74007 8.55243 6.86732 8.49972 7 8.49972C7.13268 8.49972 7.25993 8.55243 7.35375 8.64625C7.44757 8.74007 7.50028 8.86732 7.50028 9C7.50028 9.13268 7.44757 9.25993 7.35375 9.35375ZM7.35375 5.35375L5.35375 7.35375C5.30731 7.40024 5.25217 7.43712 5.19147 7.46228C5.13077 7.48744 5.06571 7.50039 5 7.50039C4.93429 7.50039 4.86923 7.48744 4.80853 7.46228C4.74783 7.43712 4.69269 7.40024 4.64625 7.35375L3.64625 6.35375C3.59979 6.3073 3.56294 6.25214 3.5378 6.19145C3.51266 6.13075 3.49972 6.0657 3.49972 6C3.49972 5.86732 3.55243 5.74007 3.64625 5.64625C3.74007 5.55243 3.86732 5.49972 4 5.49972C4.13268 5.49972 4.25993 5.55243 4.35375 5.64625L5 6.29313L6.64625 4.64625C6.74007 4.55243 6.86732 4.49972 7 4.49972C7.13268 4.49972 7.25993 4.55243 7.35375 4.64625C7.44757 4.74007 7.50028 4.86732 7.50028 5C7.50028 5.13268 7.44757 5.25993 7.35375 5.35375ZM12 10.5H9C8.86739 10.5 8.74021 10.4473 8.64645 10.3536C8.55268 10.2598 8.5 10.1326 8.5 10C8.5 9.86739 8.55268 9.74021 8.64645 9.64645C8.74021 9.55268 8.86739 9.5 9 9.5H12C12.1326 9.5 12.2598 9.55268 12.3536 9.64645C12.4473 9.74021 12.5 9.86739 12.5 10C12.5 10.1326 12.4473 10.2598 12.3536 10.3536C12.2598 10.4473 12.1326 10.5 12 10.5ZM12 6.5H9C8.86739 6.5 8.74021 6.44732 8.64645 6.35355C8.55268 6.25979 8.5 6.13261 8.5 6C8.5 5.86739 8.55268 5.74021 8.64645 5.64645C8.74021 5.55268 8.86739 5.5 9 5.5H12C12.1326 5.5 12.2598 5.55268 12.3536 5.64645C12.4473 5.74021 12.5 5.86739 12.5 6C12.5 6.13261 12.4473 6.25979 12.3536 6.35355C12.2598 6.44732 12.1326 6.5 12 6.5Z" fill="black"/>
</g>
<defs>
<clipPath id="clip0_5_1239">
<rect width="16" height="16" fill="white"/>
</clipPath>
</defs>
</svg>
