<svg width="16" height="16" viewBox="0 0 16 16" fill="none" xmlns="http://www.w3.org/2000/svg">
<g clip-path="url(#clip0_5_909)">
<path d="M13 2H3C2.73478 2 2.48043 2.10536 2.29289 2.29289C2.10536 2.48043 2 2.73478 2 3V13C2 13.2652 2.10536 13.5196 2.29289 13.7071C2.48043 13.8946 2.73478 14 3 14H13C13.2652 14 13.5196 13.8946 13.7071 13.7071C13.8946 13.5196 14 13.2652 14 13V3C14 2.73478 13.8946 2.48043 13.7071 2.29289C13.5196 2.10536 13.2652 2 13 2ZM4 4.5H12C12.1326 4.5 12.2598 4.55268 12.3536 4.64645C12.4473 4.74021 12.5 4.86739 12.5 5C12.5 5.13261 12.4473 5.25979 12.3536 5.35355C12.2598 5.44732 12.1326 5.5 12 5.5H4C3.86739 5.5 3.74021 5.44732 3.64645 5.35355C3.55268 5.25979 3.5 5.13261 3.5 5C3.5 4.86739 3.55268 4.74021 3.64645 4.64645C3.74021 4.55268 3.86739 4.5 4 4.5ZM4 7.5H6C6.13261 7.5 6.25979 7.55268 6.35355 7.64645C6.44732 7.74021 6.5 7.86739 6.5 8C6.5 8.13261 6.44732 8.25979 6.35355 8.35355C6.25979 8.44732 6.13261 8.5 6 8.5H4C3.86739 8.5 3.74021 8.44732 3.64645 8.35355C3.55268 8.25979 3.5 8.13261 3.5 8C3.5 7.86739 3.55268 7.74021 3.64645 7.64645C3.74021 7.55268 3.86739 7.5 4 7.5ZM6.5 11.5H4C3.86739 11.5 3.74021 11.4473 3.64645 11.3536C3.55268 11.2598 3.5 11.1326 3.5 11C3.5 10.8674 3.55268 10.7402 3.64645 10.6464C3.74021 10.5527 3.86739 10.5 4 10.5H6.5C6.63261 10.5 6.75979 10.5527 6.85355 10.6464C6.94732 10.7402 7 10.8674 7 11C7 11.1326 6.94732 11.2598 6.85355 11.3536C6.75979 11.4473 6.63261 11.5 6.5 11.5ZM12.4094 8.95562L11.2931 9.875L11.6331 11.25C11.645 11.2978 11.6425 11.348 11.6259 11.3944C11.6094 11.4407 11.5795 11.4812 11.54 11.5106C11.4967 11.5425 11.4444 11.5598 11.3906 11.56C11.3467 11.5597 11.3035 11.5479 11.2656 11.5256L10 10.7837L8.73625 11.5281C8.69383 11.5531 8.64499 11.5649 8.59585 11.5622C8.54672 11.5595 8.49947 11.5424 8.46003 11.513C8.42059 11.4836 8.39071 11.4431 8.37414 11.3968C8.35757 11.3505 8.35504 11.3003 8.36687 11.2525L8.70687 9.8775L7.59062 8.95562C7.55225 8.92388 7.52424 8.8814 7.51017 8.83362C7.4961 8.78585 7.49662 8.73497 7.51166 8.68749C7.5267 8.64002 7.55558 8.59811 7.59459 8.56716C7.6336 8.5362 7.68097 8.51761 7.73063 8.51375L9.20438 8.4L9.77063 7.0875C9.79001 7.04277 9.82206 7.00469 9.86281 6.97794C9.90356 6.95119 9.95125 6.93693 10 6.93693C10.0487 6.93693 10.0964 6.95119 10.1372 6.97794C10.1779 7.00469 10.21 7.04277 10.2294 7.0875L10.7956 8.4L12.2694 8.51375C12.319 8.51761 12.3664 8.5362 12.4054 8.56716C12.4444 8.59811 12.4733 8.64002 12.4883 8.68749C12.5034 8.73497 12.5039 8.78585 12.4898 8.83362C12.4758 8.8814 12.4477 8.92388 12.4094 8.95562Z" fill="black"/>
</g>
<defs>
<clipPath id="clip0_5_909">
<rect width="16" height="16" fill="white"/>
</clipPath>
</defs>
</svg>
