<svg width="16" height="16" viewBox="0 0 16 16" fill="none" xmlns="http://www.w3.org/2000/svg">
<g clip-path="url(#clip0_5_902)">
<path d="M13 5H6V3.5C6 2.96957 6.21071 2.46086 6.58579 2.08579C6.96086 1.71071 7.46957 1.5 8 1.5C8.96063 1.5 9.825 2.1875 10.01 3.09938C10.0375 3.22823 10.1147 3.34104 10.2249 3.41328C10.335 3.48551 10.4693 3.51135 10.5984 3.48516C10.7275 3.45898 10.8411 3.38289 10.9144 3.27343C10.9877 3.16397 11.0149 3.03 10.99 2.90062C10.7075 1.50937 9.45 0.5 8 0.5C7.2046 0.500827 6.44202 0.817163 5.87959 1.37959C5.31716 1.94202 5.00083 2.7046 5 3.5V5H3C2.73478 5 2.48043 5.10536 2.29289 5.29289C2.10536 5.48043 2 5.73478 2 6V13C2 13.2652 2.10536 13.5196 2.29289 13.7071C2.48043 13.8946 2.73478 14 3 14H13C13.2652 14 13.5196 13.8946 13.7071 13.7071C13.8946 13.5196 14 13.2652 14 13V6C14 5.73478 13.8946 5.48043 13.7071 5.29289C13.5196 5.10536 13.2652 5 13 5ZM11.5 12H4.5C4.36739 12 4.24021 11.9473 4.14645 11.8536C4.05268 11.7598 4 11.6326 4 11.5C4 11.3674 4.05268 11.2402 4.14645 11.1464C4.24021 11.0527 4.36739 11 4.5 11H11.5C11.6326 11 11.7598 11.0527 11.8536 11.1464C11.9473 11.2402 12 11.3674 12 11.5C12 11.6326 11.9473 11.7598 11.8536 11.8536C11.7598 11.9473 11.6326 12 11.5 12ZM11.5 10H4.5C4.36739 10 4.24021 9.94732 4.14645 9.85355C4.05268 9.75979 4 9.63261 4 9.5C4 9.36739 4.05268 9.24021 4.14645 9.14645C4.24021 9.05268 4.36739 9 4.5 9H11.5C11.6326 9 11.7598 9.05268 11.8536 9.14645C11.9473 9.24021 12 9.36739 12 9.5C12 9.63261 11.9473 9.75979 11.8536 9.85355C11.7598 9.94732 11.6326 10 11.5 10ZM11.5 8H4.5C4.36739 8 4.24021 7.94732 4.14645 7.85355C4.05268 7.75979 4 7.63261 4 7.5C4 7.36739 4.05268 7.24021 4.14645 7.14645C4.24021 7.05268 4.36739 7 4.5 7H11.5C11.6326 7 11.7598 7.05268 11.8536 7.14645C11.9473 7.24021 12 7.36739 12 7.5C12 7.63261 11.9473 7.75979 11.8536 7.85355C11.7598 7.94732 11.6326 8 11.5 8Z" fill="black"/>
</g>
<defs>
<clipPath id="clip0_5_902">
<rect width="16" height="16" fill="white"/>
</clipPath>
</defs>
</svg>
