<svg width="16" height="16" viewBox="0 0 16 16" fill="none" xmlns="http://www.w3.org/2000/svg">
<g clip-path="url(#clip0_5_899)">
<path d="M14 6V13C14 13.2652 13.8946 13.5196 13.7071 13.7071C13.5196 13.8946 13.2652 14 13 14H3C2.73478 14 2.48043 13.8946 2.29289 13.7071C2.10536 13.5196 2 13.2652 2 13V6C2 5.73478 2.10536 5.48043 2.29289 5.29289C2.48043 5.10536 2.73478 5 3 5H5V3.5C5.00083 2.7046 5.31716 1.94202 5.87959 1.37959C6.44202 0.817163 7.2046 0.500827 8 0.5C9.45 0.5 10.7075 1.50937 10.99 2.90062C11.0149 3.03 10.9877 3.16397 10.9144 3.27343C10.8411 3.38289 10.7275 3.45898 10.5984 3.48516C10.4693 3.51135 10.335 3.48551 10.2249 3.41328C10.1147 3.34104 10.0375 3.22823 10.01 3.09938C9.825 2.1875 8.96063 1.5 8 1.5C7.46957 1.5 6.96086 1.71071 6.58579 2.08579C6.21071 2.46086 6 2.96957 6 3.5V5H13C13.2652 5 13.5196 5.10536 13.7071 5.29289C13.8946 5.48043 14 5.73478 14 6Z" fill="black"/>
</g>
<defs>
<clipPath id="clip0_5_899">
<rect width="16" height="16" fill="white"/>
</clipPath>
</defs>
</svg>
