<svg width="16" height="16" viewBox="0 0 16 16" fill="none" xmlns="http://www.w3.org/2000/svg">
<g clip-path="url(#clip0_5_599)">
<path d="M13.25 8.5C13.25 8.64834 13.206 8.79334 13.1236 8.91668C13.0412 9.04001 12.9241 9.13614 12.787 9.19291C12.65 9.24967 12.4992 9.26453 12.3537 9.23559C12.2082 9.20665 12.0746 9.13522 11.9697 9.03033C11.8648 8.92544 11.7934 8.7918 11.7644 8.64632C11.7355 8.50083 11.7503 8.35003 11.8071 8.21299C11.8639 8.07594 11.96 7.95881 12.0833 7.8764C12.2067 7.79399 12.3517 7.75 12.5 7.75C12.6989 7.75 12.8897 7.82902 13.0303 7.96967C13.171 8.11032 13.25 8.30109 13.25 8.5ZM15.5 8.5C15.5 11.0231 14.1825 13 12.5 13H3.5C1.8175 13 0.5 11.0231 0.5 8.5C0.5 5.97688 1.8175 4 3.5 4H5.79313L8.14625 1.64625C8.19272 1.59983 8.24788 1.56303 8.30857 1.53793C8.36927 1.51284 8.43432 1.49995 8.5 1.5H10.5C10.6326 1.5 10.7598 1.55268 10.8536 1.64645C10.9473 1.74021 11 1.86739 11 2C11 2.13261 10.9473 2.25979 10.8536 2.35355C10.7598 2.44732 10.6326 2.5 10.5 2.5H8.70687L7.20687 4H12.5C14.1825 4 15.5 5.97688 15.5 8.5ZM6.5 8C6.63261 8 6.75979 7.94732 6.85355 7.85355C6.94732 7.75979 7 7.63261 7 7.5C7 7.36739 6.94732 7.24021 6.85355 7.14645C6.75979 7.05268 6.63261 7 6.5 7H2.07875C1.94614 7 1.81896 7.05268 1.7252 7.14645C1.63143 7.24021 1.57875 7.36739 1.57875 7.5C1.57875 7.63261 1.63143 7.75979 1.7252 7.85355C1.81896 7.94732 1.94614 8 2.07875 8H6.5ZM9.68188 10C9.68188 9.86739 9.6292 9.74021 9.53543 9.64645C9.44166 9.55268 9.31448 9.5 9.18188 9.5H5C4.86739 9.5 4.74021 9.55268 4.64645 9.64645C4.55268 9.74021 4.5 9.86739 4.5 10C4.5 10.1326 4.55268 10.2598 4.64645 10.3536C4.74021 10.4473 4.86739 10.5 5 10.5H9.18188C9.31448 10.5 9.44166 10.4473 9.53543 10.3536C9.6292 10.2598 9.68188 10.1326 9.68188 10ZM14.5 8.5C14.5 6.6025 13.5844 5 12.5 5C11.4156 5 10.5 6.6025 10.5 8.5C10.5 10.3975 11.4156 12 12.5 12C13.5844 12 14.5 10.3975 14.5 8.5Z" fill="black"/>
</g>
<defs>
<clipPath id="clip0_5_599">
<rect width="16" height="16" fill="white"/>
</clipPath>
</defs>
</svg>
