<svg width="16" height="16" viewBox="0 0 16 16" fill="none" xmlns="http://www.w3.org/2000/svg">
<g clip-path="url(#clip0_5_596)">
<path d="M14.3537 13.6462L11.225 10.5175C12.1336 9.42772 12.5871 8.02964 12.4912 6.61404C12.3952 5.19845 11.7572 3.87435 10.7098 2.9172C9.66247 1.96004 8.28641 1.44353 6.86793 1.47512C5.44944 1.50671 4.09774 2.08396 3.09402 3.08679C2.09031 4.08962 1.51186 5.44081 1.47902 6.85927C1.44618 8.27773 1.96147 9.65425 2.9177 10.7025C3.87392 11.7507 5.19746 12.3898 6.61297 12.4871C8.02847 12.5843 9.42696 12.132 10.5175 11.2243L13.6462 14.3537C13.6927 14.4002 13.7479 14.437 13.8086 14.4622C13.8692 14.4873 13.9343 14.5002 14 14.5002C14.0657 14.5002 14.1308 14.4873 14.1914 14.4622C14.2521 14.437 14.3073 14.4002 14.3537 14.3537C14.4002 14.3073 14.4371 14.2521 14.4622 14.1914C14.4873 14.1307 14.5003 14.0657 14.5003 14C14.5003 13.9343 14.4873 13.8692 14.4622 13.8085C14.4371 13.7478 14.4002 13.6927 14.3537 13.6462ZM9 7.49996H5C4.86739 7.49996 4.74021 7.44728 4.64645 7.35351C4.55268 7.25974 4.5 7.13257 4.5 6.99996C4.5 6.86735 4.55268 6.74017 4.64645 6.6464C4.74021 6.55264 4.86739 6.49996 5 6.49996H9C9.13261 6.49996 9.25978 6.55264 9.35355 6.6464C9.44732 6.74017 9.5 6.86735 9.5 6.99996C9.5 7.13257 9.44732 7.25974 9.35355 7.35351C9.25978 7.44728 9.13261 7.49996 9 7.49996Z" fill="black"/>
</g>
<defs>
<clipPath id="clip0_5_596">
<rect width="16" height="16" fill="white"/>
</clipPath>
</defs>
</svg>
