<svg width="16" height="16" viewBox="0 0 16 16" fill="none" xmlns="http://www.w3.org/2000/svg">
<g clip-path="url(#clip0_5_597)">
<path d="M10.5 6.99997C10.5 7.6922 10.2947 8.36889 9.91016 8.94447C9.52558 9.52004 8.97895 9.96864 8.33941 10.2335C7.69987 10.4985 6.99614 10.5678 6.3172 10.4327C5.63827 10.2977 5.01463 9.96433 4.52515 9.47484C4.03566 8.98536 3.70232 8.36172 3.56727 7.68279C3.43222 7.00385 3.50153 6.30012 3.76644 5.66058C4.03135 5.02104 4.47995 4.47441 5.05552 4.08983C5.6311 3.70524 6.30779 3.49997 7.00002 3.49997C7.92828 3.49997 8.81852 3.86872 9.47489 4.5251C10.1313 5.18147 10.5 6.07171 10.5 6.99997ZM14.3538 14.3537C14.3073 14.4002 14.2522 14.4371 14.1915 14.4623C14.1308 14.4874 14.0657 14.5004 14 14.5004C13.9343 14.5004 13.8692 14.4874 13.8085 14.4623C13.7478 14.4371 13.6927 14.4002 13.6463 14.3537L10.5175 11.2243C9.42946 12.1295 8.03433 12.5804 6.62231 12.4832C5.21029 12.386 3.89009 11.7482 2.93632 10.7025C1.98256 9.65676 1.46864 8.28359 1.50148 6.86861C1.53432 5.45363 2.11138 4.10578 3.11263 3.10541C4.11389 2.10504 5.46225 1.52917 6.87725 1.49759C8.29226 1.466 9.66498 1.98113 10.7099 2.93582C11.7548 3.89051 12.3914 5.21127 12.4873 6.62337C12.5833 8.03548 12.1312 9.43021 11.225 10.5175L14.3538 13.6462C14.4003 13.6927 14.4371 13.7478 14.4623 13.8085C14.4875 13.8692 14.5004 13.9343 14.5004 14C14.5004 14.0657 14.4875 14.1307 14.4623 14.1914C14.4371 14.2521 14.4003 14.3073 14.3538 14.3537ZM7.00002 11.5C7.89004 11.5 8.76006 11.2361 9.50008 10.7416C10.2401 10.2471 10.8169 9.54431 11.1575 8.72205C11.4981 7.89978 11.5872 6.99498 11.4136 6.12206C11.2399 5.24915 10.8113 4.44733 10.182 3.81799C9.55266 3.18865 8.75084 2.76007 7.87793 2.58644C7.00501 2.4128 6.10021 2.50192 5.27794 2.84251C4.45568 3.18311 3.75287 3.75988 3.25841 4.4999C2.76394 5.23993 2.50002 6.10995 2.50002 6.99997C2.50134 8.19304 2.97587 9.33686 3.8195 10.1805C4.66313 11.0241 5.80695 11.4986 7.00002 11.5Z" fill="black"/>
<circle cx="7" cy="7" r="5" fill="black"/>
</g>
<defs>
<clipPath id="clip0_5_597">
<rect width="16" height="16" fill="white"/>
</clipPath>
</defs>
</svg>
