<svg width="16" height="16" viewBox="0 0 16 16" fill="none" xmlns="http://www.w3.org/2000/svg">
<g clip-path="url(#clip0_5_1616)">
<path d="M12.5 2.5H10C9.73478 2.5 9.48043 2.60536 9.29289 2.79289C9.10536 2.98043 9 3.23478 9 3.5V9C9 9.26522 8.89464 9.51957 8.70711 9.70711C8.51957 9.89464 8.26522 10 8 10C7.73478 10 7.48043 9.89464 7.29289 9.70711C7.10536 9.51957 7 9.26522 7 9V3.5C7 3.23478 6.89464 2.98043 6.70711 2.79289C6.51957 2.60536 6.26522 2.5 6 2.5H3.5C3.23478 2.5 2.98043 2.60536 2.79289 2.79289C2.60536 2.98043 2.5 3.23478 2.5 3.5V9C2.5 10.4587 3.07946 11.8576 4.11091 12.8891C5.14236 13.9205 6.54131 14.5 8 14.5H8.04187C11.0513 14.4775 13.5 11.9819 13.5 8.9375V3.5C13.5 3.23478 13.3946 2.98043 13.2071 2.79289C13.0196 2.60536 12.7652 2.5 12.5 2.5ZM12.5 3.5V6H10V3.5H12.5ZM6 3.5V6H3.5V3.5H6Z" fill="black"/>
</g>
<defs>
<clipPath id="clip0_5_1616">
<rect width="16" height="16" fill="white"/>
</clipPath>
</defs>
</svg>
