<svg width="16" height="16" viewBox="0 0 16 16" fill="none" xmlns="http://www.w3.org/2000/svg">
<g clip-path="url(#clip0_5_1623)">
<path d="M12.9373 3.14064C12.4289 2.62174 11.8221 2.20939 11.1525 1.92769C10.4829 1.646 9.76379 1.50061 9.03732 1.50002H9.0167C8.29354 1.49816 7.5772 1.63978 6.90915 1.91667C6.2411 2.19357 5.63462 2.60024 5.12482 3.11314L1.28795 7.00002C1.10219 7.18788 0.998324 7.44161 0.999027 7.70579C0.99973 7.96998 1.10495 8.22315 1.2917 8.41002L3.08295 10.2013C3.17567 10.2944 3.28593 10.3683 3.40737 10.4186C3.5288 10.4689 3.659 10.4947 3.79045 10.4944H3.79607C3.92847 10.4937 4.0594 10.4667 4.18128 10.415C4.30316 10.3633 4.41356 10.2879 4.50607 10.1931L8.31232 6.29314C8.49818 6.10914 8.74845 6.00484 9.00997 6.00239C9.27149 5.99994 9.52367 6.09953 9.71295 6.28002C9.80649 6.37089 9.88086 6.47962 9.93164 6.59975C9.98241 6.71988 10.0086 6.84897 10.0086 6.97939C10.0098 7.1182 9.98372 7.25589 9.9317 7.38458C9.87969 7.51328 9.8028 7.63045 9.70545 7.72939L5.81232 11.4925C5.71723 11.5849 5.64145 11.6952 5.58938 11.817C5.5373 11.9389 5.50997 12.0699 5.50899 12.2025C5.508 12.335 5.53337 12.4664 5.58362 12.5891C5.63387 12.7117 5.708 12.8232 5.8017 12.9169L7.59295 14.7081C7.77969 14.8937 8.03188 14.9985 8.29516 14.9999C8.55844 15.0013 8.81173 14.8992 9.00045 14.7156L12.8629 10.9375C15.0161 8.78127 15.0492 5.28502 12.9373 3.14064ZM3.79045 9.49314L1.99982 7.70252L3.83857 5.83939L5.61857 7.61939L3.79045 9.49314ZM8.2992 14L6.5067 12.2094L8.38982 10.3888L10.1704 12.1688L8.2992 14Z" fill="black"/>
</g>
<defs>
<clipPath id="clip0_5_1623">
<rect width="16" height="16" fill="white"/>
</clipPath>
</defs>
</svg>
