<svg width="16" height="16" viewBox="0 0 16 16" fill="none" xmlns="http://www.w3.org/2000/svg">
<g clip-path="url(#clip0_5_1656)">
<path d="M14 13.5C14 13.6326 13.9473 13.7598 13.8536 13.8535C13.7598 13.9473 13.6326 14 13.5 14H2.5C2.36739 14 2.24021 13.9473 2.14645 13.8535C2.05268 13.7598 2 13.6326 2 13.5C2 13.3674 2.05268 13.2402 2.14645 13.1464C2.24021 13.0527 2.36739 13 2.5 13H7.5V8.46374C6.62421 8.33733 5.8288 7.88388 5.27385 7.19466C4.71891 6.50543 4.44562 5.63159 4.50899 4.74899C4.57235 3.86639 4.96767 3.04055 5.61539 2.43768C6.2631 1.8348 7.11513 1.49963 8 1.49963C8.88487 1.49963 9.7369 1.8348 10.3846 2.43768C11.0323 3.04055 11.4276 3.86639 11.491 4.74899C11.5544 5.63159 11.2811 6.50543 10.7261 7.19466C10.1712 7.88388 9.37579 8.33733 8.5 8.46374V13H13.5C13.6326 13 13.7598 13.0527 13.8536 13.1464C13.9473 13.2402 14 13.3674 14 13.5Z" fill="black"/>
</g>
<defs>
<clipPath id="clip0_5_1656">
<rect width="16" height="16" fill="white"/>
</clipPath>
</defs>
</svg>
