<svg width="16" height="16" viewBox="0 0 16 16" fill="none" xmlns="http://www.w3.org/2000/svg">
<g clip-path="url(#clip0_5_1672)">
<path d="M8 1C6.54182 1.00165 5.14383 1.58165 4.11274 2.61274C3.08165 3.64383 2.50165 5.04182 2.5 6.5C2.5 8.4625 3.40688 10.5425 5.125 12.5156C5.89701 13.4072 6.76591 14.2101 7.71562 14.9094C7.7997 14.9683 7.89985 14.9999 8.0025 14.9999C8.10515 14.9999 8.20531 14.9683 8.28938 14.9094C9.23734 14.2098 10.1046 13.4069 10.875 12.5156C12.5906 10.5425 13.5 8.4625 13.5 6.5C13.4983 5.04182 12.9184 3.64383 11.8873 2.61274C10.8562 1.58165 9.45818 1.00165 8 1ZM10 7H8.5V8.5C8.5 8.63261 8.44732 8.75979 8.35355 8.85355C8.25979 8.94732 8.13261 9 8 9C7.86739 9 7.74021 8.94732 7.64645 8.85355C7.55268 8.75979 7.5 8.63261 7.5 8.5V7H6C5.86739 7 5.74021 6.94732 5.64645 6.85355C5.55268 6.75979 5.5 6.63261 5.5 6.5C5.5 6.36739 5.55268 6.24021 5.64645 6.14645C5.74021 6.05268 5.86739 6 6 6H7.5V4.5C7.5 4.36739 7.55268 4.24021 7.64645 4.14645C7.74021 4.05268 7.86739 4 8 4C8.13261 4 8.25979 4.05268 8.35355 4.14645C8.44732 4.24021 8.5 4.36739 8.5 4.5V6H10C10.1326 6 10.2598 6.05268 10.3536 6.14645C10.4473 6.24021 10.5 6.36739 10.5 6.5C10.5 6.63261 10.4473 6.75979 10.3536 6.85355C10.2598 6.94732 10.1326 7 10 7Z" fill="black"/>
</g>
<defs>
<clipPath id="clip0_5_1672">
<rect width="16" height="16" fill="white"/>
</clipPath>
</defs>
</svg>
