<svg width="16" height="16" viewBox="0 0 16 16" fill="none" xmlns="http://www.w3.org/2000/svg">
<g clip-path="url(#clip0_5_1641)">
<path d="M14.3075 3.10557C14.2476 3.0589 14.1779 3.02649 14.1036 3.01079C14.0293 2.99508 13.9524 2.99651 13.8787 3.01495L10.0581 3.96995L6.22375 2.05245C6.11692 1.99916 5.99454 1.98586 5.87875 2.01495L1.87875 3.01495C1.77058 3.04199 1.67455 3.1044 1.60593 3.19228C1.5373 3.28016 1.50002 3.38845 1.5 3.49995V12.4999C1.50001 12.5759 1.51734 12.6509 1.55066 12.7192C1.58398 12.7875 1.63243 12.8472 1.69232 12.894C1.7522 12.9407 1.82196 12.9732 1.89628 12.989C1.9706 13.0048 2.04754 13.0034 2.12125 12.9849L5.94187 12.0299L9.77625 13.9474C9.84586 13.9818 9.92239 13.9997 10 13.9999C10.0409 13.9999 10.0816 13.9949 10.1213 13.9849L14.1213 12.9849C14.2294 12.9579 14.3254 12.8955 14.3941 12.8076C14.4627 12.7197 14.5 12.6114 14.5 12.4999V3.49995C14.5 3.4239 14.4827 3.34885 14.4493 3.28051C14.416 3.21217 14.3675 3.15234 14.3075 3.10557ZM6 10.9999C5.95912 11 5.9184 11.005 5.87875 11.0149L2.5 11.8593V3.89057L5.94187 3.02995L6 3.0587V10.9999ZM13.5 12.1093L10.0581 12.9699L10 12.9412V4.99995C10.0409 5.00013 10.0816 4.9953 10.1213 4.98557L13.5 4.14057V12.1093Z" fill="black"/>
</g>
<defs>
<clipPath id="clip0_5_1641">
<rect width="16" height="16" fill="white"/>
</clipPath>
</defs>
</svg>
