<svg width="16" height="16" viewBox="0 0 16 16" fill="none" xmlns="http://www.w3.org/2000/svg">
<g clip-path="url(#clip0_5_595)">
<path d="M7.75 10.9375C7.82556 10.9807 7.91109 11.0034 7.99813 11.0034C8.08516 11.0034 8.17069 10.9807 8.24625 10.9375C8.39937 10.8494 11.9963 8.75001 11.9963 5.00314C11.9648 3.96395 11.53 2.97782 10.784 2.25372C10.038 1.52961 9.0393 1.12443 7.99964 1.12402C6.95998 1.12362 5.961 1.52802 5.2144 2.25154C4.4678 2.97506 4.03223 3.96085 4 5.00001C4 8.75001 7.59875 10.8463 7.75 10.9375ZM8 3.50001C8.29667 3.50001 8.58668 3.58798 8.83335 3.75281C9.08003 3.91763 9.27229 4.1519 9.38582 4.42599C9.49935 4.70007 9.52906 5.00167 9.47118 5.29265C9.4133 5.58362 9.27044 5.85089 9.06066 6.06067C8.85088 6.27045 8.58361 6.41331 8.29264 6.47119C8.00166 6.52907 7.70006 6.49936 7.42597 6.38583C7.15189 6.2723 6.91762 6.08004 6.7528 5.83337C6.58797 5.58669 6.5 5.29668 6.5 5.00001C6.5 4.60219 6.65804 4.22066 6.93934 3.93935C7.22064 3.65805 7.60218 3.50001 8 3.50001ZM15 11.5C15 13.4488 11.3931 14.5 8 14.5C4.60687 14.5 1 13.4488 1 11.5C1 10.5881 1.82625 9.78064 3.32687 9.22689C3.44994 9.18623 3.58398 9.19495 3.70074 9.2512C3.8175 9.30745 3.90785 9.40684 3.95275 9.52842C3.99766 9.64999 3.9936 9.78426 3.94143 9.9029C3.88926 10.0215 3.79307 10.1153 3.67313 10.1644C2.64125 10.5463 2 11.0575 2 11.5C2 12.335 4.2825 13.5 8 13.5C11.7175 13.5 14 12.335 14 11.5C14 11.0575 13.3587 10.5463 12.3269 10.165C12.2069 10.1159 12.1107 10.0222 12.0586 9.90352C12.0064 9.78488 12.0023 9.65062 12.0472 9.52904C12.0921 9.40747 12.1825 9.30808 12.2993 9.25182C12.416 9.19557 12.5501 9.18686 12.6731 9.22751C14.1737 9.78064 15 10.5881 15 11.5Z" fill="black"/>
</g>
<defs>
<clipPath id="clip0_5_595">
<rect width="16" height="16" fill="white"/>
</clipPath>
</defs>
</svg>
