<svg width="16" height="16" viewBox="0 0 16 16" fill="none" xmlns="http://www.w3.org/2000/svg">
<g clip-path="url(#clip0_5_592)">
<path d="M8.50001 7.96374V14.5C8.50001 14.6326 8.44733 14.7598 8.35356 14.8535C8.25979 14.9473 8.13261 15 8.00001 15C7.8674 15 7.74022 14.9473 7.64645 14.8535C7.55268 14.7598 7.50001 14.6326 7.50001 14.5V7.96374C6.62421 7.83733 5.8288 7.38388 5.27386 6.69465C4.71891 6.00543 4.44562 5.13159 4.50899 4.24899C4.57236 3.36639 4.96768 2.54055 5.61539 1.93768C6.26311 1.3348 7.11514 0.999634 8.00001 0.999634C8.88488 0.999634 9.7369 1.3348 10.3846 1.93768C11.0323 2.54055 11.4277 3.36639 11.491 4.24899C11.5544 5.13159 11.2811 6.00543 10.7262 6.69465C10.1712 7.38388 9.3758 7.83733 8.50001 7.96374Z" fill="black"/>
</g>
<defs>
<clipPath id="clip0_5_592">
<rect width="16" height="16" fill="white"/>
</clipPath>
</defs>
</svg>
