<svg width="16" height="16" viewBox="0 0 16 16" fill="none" xmlns="http://www.w3.org/2000/svg">
<g clip-path="url(#clip0_5_593)">
<path d="M5.5 3.99999C5.49998 3.52695 5.63417 3.06361 5.88698 2.66379C6.13979 2.26397 6.50084 1.94408 6.92821 1.74128C7.35557 1.53848 7.8317 1.46109 8.3013 1.5181C8.77089 1.57511 9.21467 1.76418 9.58109 2.06335C9.94752 2.36252 10.2215 2.75951 10.3713 3.20821C10.5211 3.6569 10.5406 4.13889 10.4274 4.59819C10.3141 5.05748 10.0729 5.47523 9.73178 5.80292C9.39062 6.1306 8.96348 6.35476 8.5 6.44937V11C8.5 11.1326 8.44732 11.2598 8.35355 11.3535C8.25979 11.4473 8.13261 11.5 8 11.5C7.86739 11.5 7.74021 11.4473 7.64645 11.3535C7.55268 11.2598 7.5 11.1326 7.5 11V6.44937C6.93569 6.33358 6.42859 6.0267 6.06425 5.58049C5.6999 5.13428 5.50061 4.57606 5.5 3.99999ZM13.625 9.16187C12.8588 8.72812 11.805 8.39499 10.5769 8.19812C10.5119 8.18786 10.4456 8.1905 10.3816 8.20588C10.3177 8.22126 10.2574 8.24909 10.2042 8.28777C10.151 8.32645 10.106 8.37523 10.0716 8.43132C10.0373 8.48741 10.0143 8.54972 10.0041 8.61468C9.9938 8.67965 9.99644 8.74599 10.0118 8.80994C10.0272 8.87388 10.055 8.93417 10.0937 8.98736C10.1324 9.04055 10.1812 9.0856 10.2373 9.11994C10.2934 9.15428 10.3557 9.17723 10.4206 9.18749C11.5169 9.36374 12.4831 9.66437 13.1344 10.0344C13.6875 10.3437 14 10.6962 14 11C14 11.835 11.7175 13 8 13C4.2825 13 2 11.835 2 11C2 10.6962 2.3125 10.3437 2.86562 10.0319C3.51937 9.66187 4.48312 9.36124 5.57937 9.18499C5.64572 9.17633 5.70965 9.15444 5.76737 9.12061C5.8251 9.08679 5.87545 9.04172 5.91545 8.98809C5.95544 8.93445 5.98427 8.87333 6.00021 8.80835C6.01615 8.74337 6.01889 8.67585 6.00827 8.6098C5.99764 8.54374 5.97386 8.48049 5.93835 8.42378C5.90283 8.36708 5.85629 8.31809 5.8015 8.2797C5.7467 8.24131 5.68475 8.21431 5.61933 8.2003C5.55391 8.18628 5.48634 8.18554 5.42063 8.19812C4.1925 8.39499 3.13875 8.72812 2.3725 9.16187C1.23812 9.80437 1 10.5162 1 11C1 12.9487 4.60687 14 8 14C11.3931 14 15 12.9487 15 11C15 10.5162 14.7619 9.80437 13.625 9.16187Z" fill="black"/>
</g>
<defs>
<clipPath id="clip0_5_593">
<rect width="16" height="16" fill="white"/>
</clipPath>
</defs>
</svg>
