<svg width="16" height="16" viewBox="0 0 16 16" fill="none" xmlns="http://www.w3.org/2000/svg">
<g clip-path="url(#clip0_5_590)">
<path d="M8 1.5C6.71442 1.5 5.45772 1.88122 4.3888 2.59545C3.31988 3.30968 2.48676 4.32484 1.99479 5.51256C1.50282 6.70028 1.37409 8.00721 1.6249 9.26809C1.8757 10.529 2.49477 11.6872 3.40381 12.5962C4.31285 13.5052 5.47104 14.1243 6.73192 14.3751C7.99279 14.6259 9.29973 14.4972 10.4874 14.0052C11.6752 13.5132 12.6903 12.6801 13.4046 11.6112C14.1188 10.5423 14.5 9.28558 14.5 8C14.4982 6.27665 13.8128 4.62441 12.5942 3.40582C11.3756 2.18722 9.72335 1.50182 8 1.5ZM10.5 12.8981C9.72603 13.2937 8.86922 13.5 8 13.5C7.13079 13.5 6.27398 13.2937 5.5 12.8981V11H10.5V12.8981ZM6.5 10V9H9.5V10H6.5ZM11.5 12.2394V11C11.5 10.7348 11.3946 10.4804 11.2071 10.2929C11.0196 10.1054 10.7652 10 10.5 10V9C10.4997 8.76089 10.4137 8.5298 10.2577 8.34864C10.1016 8.16747 9.88581 8.04822 9.64938 8.0125L8.97875 4.79625C8.93167 4.57152 8.80868 4.36984 8.63046 4.22508C8.45223 4.08032 8.22961 4.00131 8 4.00131C7.77039 4.00131 7.54778 4.08032 7.36955 4.22508C7.19132 4.36984 7.06834 4.57152 7.02125 4.79625L6.35063 8.0125C6.1142 8.04822 5.89839 8.16747 5.74234 8.34864C5.58628 8.5298 5.50031 8.76089 5.5 9V10C5.23479 10 4.98043 10.1054 4.7929 10.2929C4.60536 10.4804 4.5 10.7348 4.5 11V12.2394C3.6263 11.5186 2.99643 10.5457 2.69644 9.45351C2.39644 8.36133 2.44095 7.20317 2.82388 6.13723C3.20681 5.0713 3.90949 4.14958 4.83593 3.498C5.76236 2.84641 6.86737 2.49673 8 2.49673C9.13263 2.49673 10.2376 2.84641 11.1641 3.498C12.0905 4.14958 12.7932 5.0713 13.1761 6.13723C13.5591 7.20317 13.6036 8.36133 13.3036 9.45351C13.0036 10.5457 12.3737 11.5186 11.5 12.2394Z" fill="black"/>
</g>
<defs>
<clipPath id="clip0_5_590">
<rect width="16" height="16" fill="white"/>
</clipPath>
</defs>
</svg>
