<svg width="16" height="16" viewBox="0 0 16 16" fill="none" xmlns="http://www.w3.org/2000/svg">
<g clip-path="url(#clip0_5_1587)">
<path d="M14.8538 2.85375C14.9238 2.78382 14.9715 2.6947 14.9908 2.59765C15.0101 2.50061 15.0002 2.40002 14.9623 2.30861C14.9245 2.21719 14.8603 2.13908 14.778 2.08414C14.6957 2.0292 14.599 1.99992 14.5 2H1.50003C1.40108 1.99992 1.30433 2.0292 1.22204 2.08414C1.13974 2.13908 1.07559 2.21719 1.03772 2.30861C0.99984 2.40002 0.989938 2.50061 1.00926 2.59765C1.02859 2.6947 1.07627 2.78382 1.14628 2.85375L7.50003 9.20687V13H5.50003C5.36742 13 5.24024 13.0527 5.14647 13.1464C5.05271 13.2402 5.00003 13.3674 5.00003 13.5C5.00003 13.6326 5.05271 13.7598 5.14647 13.8536C5.24024 13.9473 5.36742 14 5.50003 14H10.5C10.6326 14 10.7598 13.9473 10.8536 13.8536C10.9473 13.7598 11 13.6326 11 13.5C11 13.3674 10.9473 13.2402 10.8536 13.1464C10.7598 13.0527 10.6326 13 10.5 13H8.50003V9.20687L14.8538 2.85375ZM13.2913 3L12.2913 4H3.7069L2.7069 3H13.2913Z" fill="black"/>
</g>
<defs>
<clipPath id="clip0_5_1587">
<rect width="16" height="16" fill="white"/>
</clipPath>
</defs>
</svg>
