<svg width="16" height="16" viewBox="0 0 16 16" fill="none" xmlns="http://www.w3.org/2000/svg">
<g clip-path="url(#clip0_5_1584)">
<path d="M13.5625 2.17505C13.4285 2.08304 13.2741 2.0252 13.1126 2.00657C12.9512 1.98794 12.7876 2.00909 12.6362 2.06818C11.7594 2.40943 9.98875 2.98193 8 2.98193C6.01125 2.98193 4.24 2.40943 3.36188 2.06818C3.21037 2.00936 3.0468 1.98836 2.88535 2.007C2.7239 2.02563 2.56942 2.08333 2.43529 2.17511C2.30116 2.26689 2.19142 2.38998 2.11557 2.53372C2.03973 2.67746 2.00006 2.83753 2 3.00005V6.48568C2 8.72568 2.60312 10.8388 3.69875 12.4344C4.83375 14.0882 6.36125 14.9969 8 14.9969C9.63875 14.9969 11.1663 14.0863 12.3013 12.4344C13.3969 10.8401 14 8.72693 14 6.48693V3.00005C13.9997 2.83732 13.9597 2.67712 13.8835 2.53335C13.8072 2.38958 13.697 2.26659 13.5625 2.17505ZM4.875 8.33318C4.78657 8.43263 4.66225 8.49289 4.52939 8.50068C4.39653 8.50847 4.26602 8.46317 4.16656 8.37474C4.06711 8.28631 4.00685 8.16199 3.99906 8.02913C3.99126 7.89627 4.03657 7.76576 4.125 7.6663C4.48438 7.26755 5.13625 7.00005 5.75 7.00005C6.36375 7.00005 7.01562 7.26755 7.375 7.6663C7.46343 7.76576 7.50874 7.89627 7.50094 8.02913C7.49315 8.16199 7.43289 8.28631 7.33344 8.37474C7.28419 8.41853 7.2268 8.45219 7.16455 8.47379C7.1023 8.4954 7.0364 8.50454 6.97061 8.50068C6.83775 8.49289 6.71343 8.43263 6.625 8.33318C6.4575 8.14568 6.07188 8.00005 5.75 8.00005C5.42812 8.00005 5.04 8.1463 4.875 8.33318ZM10.5306 11.3244C10.2203 11.6927 9.83322 11.9887 9.39654 12.1917C8.95985 12.3948 8.48408 12.5 8.0025 12.5C7.52092 12.5 7.04515 12.3948 6.60846 12.1917C6.17178 11.9887 5.78473 11.6927 5.47437 11.3244C5.42702 11.2754 5.39019 11.2172 5.36615 11.1534C5.34211 11.0896 5.33137 11.0216 5.33459 10.9535C5.33781 10.8854 5.35493 10.8186 5.38488 10.7574C5.41483 10.6962 5.45699 10.6417 5.50877 10.5973C5.56054 10.553 5.62084 10.5197 5.68596 10.4995C5.75107 10.4793 5.81963 10.4727 5.88741 10.4799C5.95519 10.4872 6.02077 10.5083 6.08012 10.5418C6.13946 10.5754 6.19132 10.6207 6.2325 10.6751C6.4489 10.9334 6.71932 11.1412 7.02469 11.2837C7.33007 11.4263 7.66299 11.5002 8 11.5002C8.33701 11.5002 8.66993 11.4263 8.97531 11.2837C9.28068 11.1412 9.5511 10.9334 9.7675 10.6751C9.85361 10.5742 9.97627 10.5117 10.1085 10.5012C10.2407 10.4908 10.3716 10.5333 10.4725 10.6194C10.5734 10.7055 10.6359 10.8282 10.6463 10.9604C10.6568 11.0926 10.6142 11.2236 10.5281 11.3244H10.5306ZM11.8337 8.37505C11.7848 8.41886 11.7277 8.45259 11.6657 8.47433C11.6037 8.49606 11.5381 8.50536 11.4725 8.5017C11.4069 8.49805 11.3427 8.4815 11.2835 8.45301C11.2243 8.42453 11.1713 8.38465 11.1275 8.33568C10.96 8.14818 10.5744 8.00255 10.2525 8.00255C9.93062 8.00255 9.5425 8.1488 9.3775 8.33568C9.33355 8.38509 9.28029 8.42536 9.22078 8.45418C9.16127 8.48301 9.09666 8.49984 9.03064 8.5037C8.96462 8.50756 8.89849 8.49838 8.83602 8.47668C8.77355 8.45498 8.71597 8.42119 8.66656 8.37724C8.61715 8.33329 8.57688 8.28003 8.54805 8.22052C8.51923 8.161 8.5024 8.0964 8.49854 8.03038C8.49468 7.96436 8.50386 7.89823 8.52556 7.83576C8.54726 7.77329 8.58105 7.71571 8.625 7.6663C8.98187 7.26755 9.63375 7.00005 10.25 7.00005C10.8663 7.00005 11.5156 7.26755 11.875 7.6663C11.9191 7.71543 11.953 7.77279 11.9748 7.83509C11.9966 7.89738 12.0058 7.96338 12.002 8.02927C11.9982 8.09516 11.9813 8.15963 11.9524 8.21898C11.9236 8.27833 11.8832 8.33137 11.8337 8.37505Z" fill="black"/>
</g>
<defs>
<clipPath id="clip0_5_1584">
<rect width="16" height="16" fill="white"/>
</clipPath>
</defs>
</svg>
