<svg width="16" height="16" viewBox="0 0 16 16" fill="none" xmlns="http://www.w3.org/2000/svg">
<g clip-path="url(#clip0_5_589)">
<path d="M13.5625 2.17505C13.4285 2.08304 13.2741 2.0252 13.1126 2.00657C12.9512 1.98794 12.7876 2.00909 12.6362 2.06818C11.7594 2.40943 9.98875 2.98193 8 2.98193C6.01125 2.98193 4.24 2.40943 3.36188 2.06818C3.21037 2.00936 3.0468 1.98836 2.88535 2.007C2.7239 2.02563 2.56942 2.08333 2.43529 2.17511C2.30116 2.26689 2.19142 2.38998 2.11557 2.53372C2.03973 2.67746 2.00006 2.83753 2 3.00005V6.48568C2 8.72568 2.60312 10.8388 3.69875 12.4344C4.83375 14.0882 6.36125 14.9969 8 14.9969C9.63875 14.9969 11.1663 14.0863 12.3013 12.4344C13.3969 10.8401 14 8.72693 14 6.48693V3.00005C13.9997 2.83732 13.9597 2.67712 13.8835 2.53335C13.8072 2.38958 13.697 2.26659 13.5625 2.17505ZM4.125 7.83318C4.03657 7.73372 3.99126 7.60321 3.99906 7.47035C4.00292 7.40457 4.0197 7.34019 4.04844 7.28089C4.07718 7.22159 4.11732 7.16853 4.16656 7.12474C4.21581 7.08095 4.2732 7.04729 4.33545 7.02568C4.3977 7.00407 4.4636 6.99494 4.52939 6.9988C4.66225 7.00659 4.78657 7.06685 4.875 7.1663C5.0425 7.3538 5.42812 7.50005 5.75 7.50005C6.07188 7.50005 6.46 7.35318 6.625 7.1663C6.66879 7.11706 6.72185 7.07692 6.78115 7.04818C6.84045 7.01944 6.90483 7.00266 6.97061 6.9988C7.0364 6.99494 7.1023 7.00407 7.16455 7.02568C7.2268 7.04729 7.28419 7.08095 7.33344 7.12474C7.38268 7.16853 7.42282 7.22159 7.45156 7.28089C7.4803 7.34019 7.49708 7.40457 7.50094 7.47035C7.5048 7.53613 7.49566 7.60204 7.47406 7.66429C7.45245 7.72654 7.41879 7.78393 7.375 7.83318C7.01562 8.23193 6.36375 8.50005 5.75 8.50005C5.13625 8.50005 4.48438 8.23193 4.125 7.83318ZM9.91375 11.7769C9.86836 11.8452 9.80688 11.9012 9.73473 11.9401C9.66258 11.9791 9.58197 11.9996 9.5 12.0001C9.40164 12.0002 9.30547 11.971 9.22375 11.9163C8.81687 11.6463 8.5 11.5001 8 11.5001C7.5 11.5001 7.18313 11.6463 6.77688 11.9163C6.66647 11.987 6.53272 12.0115 6.40442 11.9845C6.27613 11.9576 6.16356 11.8813 6.09095 11.7721C6.01835 11.663 5.99152 11.5297 6.01624 11.4009C6.04096 11.2722 6.11525 11.1583 6.22312 11.0838C6.75 10.7332 7.25375 10.5001 8 10.5001C8.74625 10.5001 9.25 10.7332 9.77687 11.0838C9.88725 11.1572 9.96395 11.2715 9.99008 11.4015C10.0162 11.5315 9.98966 11.6665 9.91625 11.7769H9.91375ZM11.87 7.83318C11.5131 8.23193 10.8612 8.50005 10.245 8.50005C9.62875 8.50005 8.97937 8.23193 8.62 7.83318C8.53157 7.73306 8.48653 7.60191 8.49479 7.46858C8.50305 7.33526 8.56394 7.21067 8.66406 7.12224C8.76418 7.03381 8.89533 6.98877 9.02866 6.99703C9.16198 7.00529 9.28657 7.06618 9.375 7.1663C9.5425 7.3538 9.92812 7.50005 10.25 7.50005C10.5719 7.50005 10.96 7.35318 11.125 7.1663C11.1688 7.11706 11.2218 7.07692 11.2811 7.04818C11.3404 7.01944 11.4048 7.00266 11.4706 6.9988C11.5364 6.99494 11.6023 7.00407 11.6645 7.02568C11.7268 7.04729 11.7842 7.08095 11.8334 7.12474C11.8827 7.16853 11.9228 7.22159 11.9516 7.28089C11.9803 7.34019 11.9971 7.40457 12.0009 7.47035C12.0048 7.53613 11.9957 7.60204 11.9741 7.66429C11.9524 7.72654 11.9188 7.78393 11.875 7.83318H11.87Z" fill="black"/>
</g>
<defs>
<clipPath id="clip0_5_589">
<rect width="16" height="16" fill="white"/>
</clipPath>
</defs>
</svg>
