<svg width="16" height="16" viewBox="0 0 16 16" fill="none" xmlns="http://www.w3.org/2000/svg">
<g clip-path="url(#clip0_5_587)">
<path d="M13 2H3C2.73478 2 2.48043 2.10536 2.29289 2.29289C2.10536 2.48043 2 2.73478 2 3V13C2 13.2652 2.10536 13.5196 2.29289 13.7071C2.48043 13.8946 2.73478 14 3 14H13C13.2652 14 13.5196 13.8946 13.7071 13.7071C13.8946 13.5196 14 13.2652 14 13V3C14 2.73478 13.8946 2.48043 13.7071 2.29289C13.5196 2.10536 13.2652 2 13 2ZM9.14625 4.85375C9.05243 4.75993 8.99972 4.63268 8.99972 4.5C8.99972 4.36732 9.05243 4.24007 9.14625 4.14625C9.24007 4.05243 9.36732 3.99972 9.5 3.99972C9.63268 3.99972 9.75993 4.05243 9.85375 4.14625L10.5 4.79313L11.1462 4.14625C11.2401 4.05243 11.3673 3.99972 11.5 3.99972C11.6327 3.99972 11.7599 4.05243 11.8538 4.14625C11.9476 4.24007 12.0003 4.36732 12.0003 4.5C12.0003 4.63268 11.9476 4.75993 11.8538 4.85375L11.2069 5.5L11.8538 6.14625C11.9002 6.1927 11.9371 6.24786 11.9622 6.30855C11.9873 6.36925 12.0003 6.4343 12.0003 6.5C12.0003 6.5657 11.9873 6.63075 11.9622 6.69145C11.9371 6.75214 11.9002 6.8073 11.8538 6.85375C11.8073 6.90021 11.7521 6.93706 11.6914 6.9622C11.6308 6.98734 11.5657 7.00028 11.5 7.00028C11.4343 7.00028 11.3692 6.98734 11.3086 6.9622C11.2479 6.93706 11.1927 6.90021 11.1462 6.85375L10.5 6.20687L9.85375 6.85375C9.75993 6.94757 9.63268 7.00028 9.5 7.00028C9.36732 7.00028 9.24007 6.94757 9.14625 6.85375C9.05243 6.75993 8.99972 6.63268 8.99972 6.5C8.99972 6.36732 9.05243 6.24007 9.14625 6.14625L9.79313 5.5L9.14625 4.85375ZM7 11H6V12C6 12.1326 5.94732 12.2598 5.85355 12.3536C5.75979 12.4473 5.63261 12.5 5.5 12.5C5.36739 12.5 5.24021 12.4473 5.14645 12.3536C5.05268 12.2598 5 12.1326 5 12V11H4C3.86739 11 3.74021 10.9473 3.64645 10.8536C3.55268 10.7598 3.5 10.6326 3.5 10.5C3.5 10.3674 3.55268 10.2402 3.64645 10.1464C3.74021 10.0527 3.86739 10 4 10H5V9C5 8.86739 5.05268 8.74021 5.14645 8.64645C5.24021 8.55268 5.36739 8.5 5.5 8.5C5.63261 8.5 5.75979 8.55268 5.85355 8.64645C5.94732 8.74021 6 8.86739 6 9V10H7C7.13261 10 7.25979 10.0527 7.35355 10.1464C7.44732 10.2402 7.5 10.3674 7.5 10.5C7.5 10.6326 7.44732 10.7598 7.35355 10.8536C7.25979 10.9473 7.13261 11 7 11ZM7 6H4C3.86739 6 3.74021 5.94732 3.64645 5.85355C3.55268 5.75979 3.5 5.63261 3.5 5.5C3.5 5.36739 3.55268 5.24021 3.64645 5.14645C3.74021 5.05268 3.86739 5 4 5H7C7.13261 5 7.25979 5.05268 7.35355 5.14645C7.44732 5.24021 7.5 5.36739 7.5 5.5C7.5 5.63261 7.44732 5.75979 7.35355 5.85355C7.25979 5.94732 7.13261 6 7 6ZM12 12H9C8.86739 12 8.74021 11.9473 8.64645 11.8536C8.55268 11.7598 8.5 11.6326 8.5 11.5C8.5 11.3674 8.55268 11.2402 8.64645 11.1464C8.74021 11.0527 8.86739 11 9 11H12C12.1326 11 12.2598 11.0527 12.3536 11.1464C12.4473 11.2402 12.5 11.3674 12.5 11.5C12.5 11.6326 12.4473 11.7598 12.3536 11.8536C12.2598 11.9473 12.1326 12 12 12ZM12 10H9C8.86739 10 8.74021 9.94732 8.64645 9.85355C8.55268 9.75979 8.5 9.63261 8.5 9.5C8.5 9.36739 8.55268 9.24021 8.64645 9.14645C8.74021 9.05268 8.86739 9 9 9H12C12.1326 9 12.2598 9.05268 12.3536 9.14645C12.4473 9.24021 12.5 9.36739 12.5 9.5C12.5 9.63261 12.4473 9.75979 12.3536 9.85355C12.2598 9.94732 12.1326 10 12 10Z" fill="black"/>
</g>
<defs>
<clipPath id="clip0_5_587">
<rect width="16" height="16" fill="white"/>
</clipPath>
</defs>
</svg>
