<svg width="16" height="16" viewBox="0 0 16 16" fill="none" xmlns="http://www.w3.org/2000/svg">
<g clip-path="url(#clip0_5_585)">
<path d="M13 2H3C2.73478 2 2.48043 2.10536 2.29289 2.29289C2.10536 2.48043 2 2.73478 2 3V13C2 13.2652 2.10536 13.5196 2.29289 13.7071C2.48043 13.8946 2.73478 14 3 14H13C13.2652 14 13.5196 13.8946 13.7071 13.7071C13.8946 13.5196 14 13.2652 14 13V3C14 2.73478 13.8946 2.48043 13.7071 2.29289C13.5196 2.10536 13.2652 2 13 2ZM5 12.5H4C3.86739 12.5 3.74021 12.4473 3.64645 12.3536C3.55268 12.2598 3.5 12.1326 3.5 12V4C3.5 3.86739 3.55268 3.74021 3.64645 3.64645C3.74021 3.55268 3.86739 3.5 4 3.5H5C5.13261 3.5 5.25979 3.55268 5.35355 3.64645C5.44732 3.74021 5.5 3.86739 5.5 4C5.5 4.13261 5.44732 4.25979 5.35355 4.35355C5.25979 4.44732 5.13261 4.5 5 4.5H4.5V11.5H5C5.13261 11.5 5.25979 11.5527 5.35355 11.6464C5.44732 11.7402 5.5 11.8674 5.5 12C5.5 12.1326 5.44732 12.2598 5.35355 12.3536C5.25979 12.4473 5.13261 12.5 5 12.5ZM10 10C9.86739 10 9.74021 9.94732 9.64645 9.85355C9.55268 9.75979 9.5 9.63261 9.5 9.5V7.5C9.5 7.36739 9.44732 7.24021 9.35355 7.14645C9.25979 7.05268 9.13261 7 9 7C8.86739 7 8.74021 7.05268 8.64645 7.14645C8.55268 7.24021 8.5 7.36739 8.5 7.5V9.5C8.5 9.63261 8.44732 9.75979 8.35355 9.85355C8.25979 9.94732 8.13261 10 8 10C7.86739 10 7.74021 9.94732 7.64645 9.85355C7.55268 9.75979 7.5 9.63261 7.5 9.5V7.5C7.5 7.36739 7.44732 7.24021 7.35355 7.14645C7.25979 7.05268 7.13261 7 7 7C6.86739 7 6.74021 7.05268 6.64645 7.14645C6.55268 7.24021 6.5 7.36739 6.5 7.5V9.5C6.5 9.63261 6.44732 9.75979 6.35355 9.85355C6.25979 9.94732 6.13261 10 6 10C5.86739 10 5.74021 9.94732 5.64645 9.85355C5.55268 9.75979 5.5 9.63261 5.5 9.5V6.5C5.50005 6.40111 5.52942 6.30445 5.5844 6.22224C5.63938 6.14004 5.71751 6.07599 5.80889 6.03819C5.90028 6.0004 6.00082 5.99055 6.09781 6.00989C6.19479 6.02924 6.28386 6.07691 6.35375 6.14687C6.62074 6.01897 6.91968 5.97315 7.21272 6.0152C7.50577 6.05726 7.77975 6.1853 8 6.38312C8.21575 6.19015 8.48274 6.06372 8.76874 6.01909C9.05475 5.97446 9.34755 6.01354 9.61184 6.13162C9.87613 6.24969 10.1006 6.44171 10.2582 6.68451C10.4158 6.92732 10.4998 7.21054 10.5 7.5V9.5C10.5 9.63261 10.4473 9.75979 10.3536 9.85355C10.2598 9.94732 10.1326 10 10 10ZM12.5 12C12.5 12.1326 12.4473 12.2598 12.3536 12.3536C12.2598 12.4473 12.1326 12.5 12 12.5H11C10.8674 12.5 10.7402 12.4473 10.6464 12.3536C10.5527 12.2598 10.5 12.1326 10.5 12C10.5 11.8674 10.5527 11.7402 10.6464 11.6464C10.7402 11.5527 10.8674 11.5 11 11.5H11.5V4.5H11C10.8674 4.5 10.7402 4.44732 10.6464 4.35355C10.5527 4.25979 10.5 4.13261 10.5 4C10.5 3.86739 10.5527 3.74021 10.6464 3.64645C10.7402 3.55268 10.8674 3.5 11 3.5H12C12.1326 3.5 12.2598 3.55268 12.3536 3.64645C12.4473 3.74021 12.5 3.86739 12.5 4V12Z" fill="black"/>
</g>
<defs>
<clipPath id="clip0_5_585">
<rect width="16" height="16" fill="white"/>
</clipPath>
</defs>
</svg>
