<svg width="16" height="16" viewBox="0 0 16 16" fill="none" xmlns="http://www.w3.org/2000/svg">
<g clip-path="url(#clip0_5_584)">
<path d="M12.9375 2.5H3.0625C2.78071 2.5 2.51046 2.61194 2.3112 2.8112C2.11194 3.01046 2 3.28071 2 3.5625V6.63812C2.00026 6.8423 2.05935 7.04208 2.17019 7.21355C2.28103 7.38502 2.43893 7.52093 2.625 7.605L6.5375 9.38313C5.95819 9.7073 5.50276 10.2145 5.24256 10.8252C4.98235 11.4359 4.93207 12.1157 5.09958 12.7581C5.26709 13.4005 5.64293 13.9691 6.16824 14.375C6.69355 14.7809 7.33865 15.0011 8.0025 15.0011C8.66635 15.0011 9.31145 14.7809 9.83676 14.375C10.3621 13.9691 10.7379 13.4005 10.9054 12.7581C11.0729 12.1157 11.0226 11.4359 10.7624 10.8252C10.5022 10.2145 10.0468 9.7073 9.4675 9.38313L13.375 7.605C13.5611 7.52093 13.719 7.38502 13.8298 7.21355C13.9406 7.04208 13.9997 6.8423 14 6.63812V3.5625C14 3.28071 13.8881 3.01046 13.6888 2.8112C13.4895 2.61194 13.2193 2.5 12.9375 2.5ZM6 3.5H10V8.04187L8 8.95063L6 8.04187V3.5ZM8 14C7.60444 14 7.21776 13.8827 6.88886 13.6629C6.55996 13.4432 6.30362 13.1308 6.15224 12.7654C6.00087 12.3999 5.96126 11.9978 6.03843 11.6098C6.1156 11.2219 6.30608 10.8655 6.58579 10.5858C6.86549 10.3061 7.22186 10.1156 7.60982 10.0384C7.99778 9.96126 8.39991 10.0009 8.76537 10.1522C9.13082 10.3036 9.44318 10.56 9.66294 10.8889C9.8827 11.2178 10 11.6044 10 12C10 12.5304 9.78929 13.0391 9.41421 13.4142C9.03914 13.7893 8.53043 14 8 14Z" fill="black"/>
</g>
<defs>
<clipPath id="clip0_5_584">
<rect width="16" height="16" fill="white"/>
</clipPath>
</defs>
</svg>
