<svg width="16" height="16" viewBox="0 0 16 16" fill="none" xmlns="http://www.w3.org/2000/svg">
<g clip-path="url(#clip0_5_583)">
<path d="M8.5 8C8.5 8.79113 8.26541 9.56448 7.82588 10.2223C7.38635 10.8801 6.76164 11.3928 6.03074 11.6955C5.29983 11.9983 4.49556 12.0775 3.71964 11.9231C2.94372 11.7688 2.23098 11.3878 1.67157 10.8284C1.11216 10.269 0.731202 9.55629 0.576861 8.78036C0.42252 8.00444 0.501733 7.20017 0.804484 6.46927C1.10723 5.73836 1.61992 5.11365 2.27772 4.67412C2.93552 4.2346 3.70888 4 4.5 4C5.56051 4.00116 6.57726 4.42296 7.32715 5.17285C8.07704 5.92275 8.49884 6.93949 8.5 8ZM11.5 4C11.145 4 10.475 4.1725 9.98 5.32812C9.67063 6.05 9.5 7 9.5 8C9.5 9 9.67063 9.95 9.98 10.6719C10.475 11.8275 11.145 12 11.5 12C11.855 12 12.525 11.8275 13.02 10.6719C13.3294 9.95 13.5 9 13.5 8C13.5 7 13.3294 6.05 13.02 5.32812C12.525 4.1725 11.855 4 11.5 4ZM15 4C14.8674 4 14.7402 4.05268 14.6464 4.14645C14.5527 4.24021 14.5 4.36739 14.5 4.5V11.5C14.5 11.6326 14.5527 11.7598 14.6464 11.8536C14.7402 11.9473 14.8674 12 15 12C15.1326 12 15.2598 11.9473 15.3536 11.8536C15.4473 11.7598 15.5 11.6326 15.5 11.5V4.5C15.5 4.36739 15.4473 4.24021 15.3536 4.14645C15.2598 4.05268 15.1326 4 15 4Z" fill="black"/>
</g>
<defs>
<clipPath id="clip0_5_583">
<rect width="16" height="16" fill="white"/>
</clipPath>
</defs>
</svg>
