<svg width="16" height="16" viewBox="0 0 16 16" fill="none" xmlns="http://www.w3.org/2000/svg">
<g clip-path="url(#clip0_5_1488)">
<path d="M14.2837 5.41622L3.28 2.04122C3.13107 1.99778 2.97407 1.98959 2.82142 2.01729C2.66878 2.045 2.52467 2.10784 2.4005 2.20085C2.27633 2.29385 2.1755 2.41447 2.10599 2.55317C2.03648 2.69186 2.00019 2.84483 2 2.99997V12C2 12.2652 2.10536 12.5195 2.29289 12.7071C2.48043 12.8946 2.73478 13 3 13C3.09562 13 3.19076 12.9863 3.2825 12.9593L8.5 11.3581V12C8.5 12.2652 8.60536 12.5195 8.79289 12.7071C8.98043 12.8946 9.23478 13 9.5 13H11.5C11.7652 13 12.0196 12.8946 12.2071 12.7071C12.3946 12.5195 12.5 12.2652 12.5 12V10.1312L14.2837 9.58435C14.4902 9.52232 14.6712 9.3956 14.8002 9.22286C14.9292 9.05013 14.9992 8.84053 15 8.62497V6.37497C14.9991 6.15952 14.929 5.95006 14.8 5.77745C14.6711 5.60485 14.4901 5.47822 14.2837 5.41622ZM11.5 12H9.5V11.0512L11.5 10.4375V12ZM14 8.62497H13.9931L9.5 10.005V4.99435L13.9931 6.37497H14V8.62497Z" fill="black"/>
</g>
<defs>
<clipPath id="clip0_5_1488">
<rect width="16" height="16" fill="white"/>
</clipPath>
</defs>
</svg>
