<svg width="16" height="16" viewBox="0 0 16 16" fill="none" xmlns="http://www.w3.org/2000/svg">
<g clip-path="url(#clip0_5_581)">
<path d="M13 2H3C2.73478 2 2.48043 2.10536 2.29289 2.29289C2.10536 2.48043 2 2.73478 2 3V13C2 13.2652 2.10536 13.5196 2.29289 13.7071C2.48043 13.8946 2.73478 14 3 14H13C13.2652 14 13.5196 13.8946 13.7071 13.7071C13.8946 13.5196 14 13.2652 14 13V3C14 2.73478 13.8946 2.48043 13.7071 2.29289C13.5196 2.10536 13.2652 2 13 2ZM11 7.5C11.1326 7.5 11.2598 7.55268 11.3536 7.64645C11.4473 7.74021 11.5 7.86739 11.5 8C11.5 8.13261 11.4473 8.25979 11.3536 8.35355C11.2598 8.44732 11.1326 8.5 11 8.5H5.0425C5.16146 9.19857 5.52353 9.83261 6.06471 10.2901C6.6059 10.7476 7.29137 10.999 8 11H11C11.1326 11 11.2598 11.0527 11.3536 11.1464C11.4473 11.2402 11.5 11.3674 11.5 11.5C11.5 11.6326 11.4473 11.7598 11.3536 11.8536C11.2598 11.9473 11.1326 12 11 12H8C6.93913 12 5.92172 11.5786 5.17157 10.8284C4.42143 10.0783 4 9.06087 4 8C4 6.93913 4.42143 5.92172 5.17157 5.17157C5.92172 4.42143 6.93913 4 8 4H11C11.1326 4 11.2598 4.05268 11.3536 4.14645C11.4473 4.24021 11.5 4.36739 11.5 4.5C11.5 4.63261 11.4473 4.75979 11.3536 4.85355C11.2598 4.94732 11.1326 5 11 5H8C7.29137 5.001 6.6059 5.25245 6.06471 5.70992C5.52353 6.16739 5.16146 6.80143 5.0425 7.5H11Z" fill="black"/>
</g>
<defs>
<clipPath id="clip0_5_581">
<rect width="16" height="16" fill="white"/>
</clipPath>
</defs>
</svg>
