<svg width="16" height="16" viewBox="0 0 16 16" fill="none" xmlns="http://www.w3.org/2000/svg">
<g clip-path="url(#clip0_5_580)">
<path d="M14.5 3.5H1.5C1.23478 3.5 0.98043 3.60536 0.792893 3.79289C0.605357 3.98043 0.5 4.23478 0.5 4.5V12.5C0.5 12.6326 0.552678 12.7598 0.646447 12.8536C0.740215 12.9473 0.867392 13 1 13C1.13261 13 1.25979 12.9473 1.35355 12.8536C1.44732 12.7598 1.5 12.6326 1.5 12.5V11.5H2.5V12.5C2.5 12.6326 2.55268 12.7598 2.64645 12.8536C2.74021 12.9473 2.86739 13 3 13C3.13261 13 3.25979 12.9473 3.35355 12.8536C3.44732 12.7598 3.5 12.6326 3.5 12.5V11.5H4.5V12.5C4.5 12.6326 4.55268 12.7598 4.64645 12.8536C4.74021 12.9473 4.86739 13 5 13C5.13261 13 5.25979 12.9473 5.35355 12.8536C5.44732 12.7598 5.5 12.6326 5.5 12.5V11.5H6.5V12.5C6.5 12.6326 6.55268 12.7598 6.64645 12.8536C6.74021 12.9473 6.86739 13 7 13C7.13261 13 7.25979 12.9473 7.35355 12.8536C7.44732 12.7598 7.5 12.6326 7.5 12.5V11.5H8.5V12.5C8.5 12.6326 8.55268 12.7598 8.64645 12.8536C8.74021 12.9473 8.86739 13 9 13C9.13261 13 9.25979 12.9473 9.35355 12.8536C9.44732 12.7598 9.5 12.6326 9.5 12.5V11.5H10.5V12.5C10.5 12.6326 10.5527 12.7598 10.6464 12.8536C10.7402 12.9473 10.8674 13 11 13C11.1326 13 11.2598 12.9473 11.3536 12.8536C11.4473 12.7598 11.5 12.6326 11.5 12.5V11.5H12.5V12.5C12.5 12.6326 12.5527 12.7598 12.6464 12.8536C12.7402 12.9473 12.8674 13 13 13C13.1326 13 13.2598 12.9473 13.3536 12.8536C13.4473 12.7598 13.5 12.6326 13.5 12.5V11.5H14.5V12.5C14.5 12.6326 14.5527 12.7598 14.6464 12.8536C14.7402 12.9473 14.8674 13 15 13C15.1326 13 15.2598 12.9473 15.3536 12.8536C15.4473 12.7598 15.5 12.6326 15.5 12.5V4.5C15.5 4.23478 15.3946 3.98043 15.2071 3.79289C15.0196 3.60536 14.7652 3.5 14.5 3.5ZM13 6V9H9V6H13ZM7 6V9H3V6H7Z" fill="black"/>
</g>
<defs>
<clipPath id="clip0_5_580">
<rect width="16" height="16" fill="white"/>
</clipPath>
</defs>
</svg>
