<svg width="16" height="16" viewBox="0 0 16 16" fill="none" xmlns="http://www.w3.org/2000/svg">
<g clip-path="url(#clip0_5_579)">
<path d="M7.99995 1.5C6.87775 1.49976 5.77459 1.79006 4.79786 2.34264C3.82113 2.89523 3.00411 3.69128 2.42631 4.65331C1.84851 5.61534 1.52963 6.71058 1.5007 7.83241C1.47176 8.95425 1.73377 10.0645 2.2612 11.055L1.55183 13.1831C1.49307 13.3593 1.48454 13.5484 1.5272 13.7292C1.56986 13.9099 1.66203 14.0753 1.79336 14.2066C1.9247 14.3379 2.09001 14.4301 2.27078 14.4728C2.45155 14.5154 2.64063 14.5069 2.81683 14.4481L4.94495 13.7388C5.81668 14.2024 6.78259 14.4614 7.76935 14.496C8.7561 14.5306 9.73779 14.34 10.6399 13.9386C11.542 13.5372 12.3407 12.9355 12.9756 12.1793C13.6104 11.4231 14.0647 10.5322 14.3038 9.57421C14.5429 8.61624 14.5606 7.61638 14.3557 6.65052C14.1507 5.68467 13.7283 4.77821 13.1207 3.99995C12.5131 3.22169 11.7362 2.59208 10.8489 2.15891C9.96162 1.72574 8.98732 1.50041 7.99995 1.5ZM11.3537 7.35375L9.3537 9.35375C9.30727 9.40024 9.25212 9.43712 9.19142 9.46228C9.13072 9.48744 9.06566 9.50039 8.99995 9.50039C8.93425 9.50039 8.86918 9.48744 8.80848 9.46228C8.74778 9.43712 8.69264 9.40024 8.6462 9.35375L6.99995 7.70687L5.3537 9.35375C5.25988 9.44757 5.13264 9.50028 4.99995 9.50028C4.86727 9.50028 4.74002 9.44757 4.6462 9.35375C4.55238 9.25993 4.49968 9.13268 4.49968 9C4.49968 8.86732 4.55238 8.74007 4.6462 8.64625L6.6462 6.64625C6.69264 6.59976 6.74778 6.56288 6.80848 6.53772C6.86918 6.51256 6.93425 6.49961 6.99995 6.49961C7.06566 6.49961 7.13072 6.51256 7.19142 6.53772C7.25212 6.56288 7.30727 6.59976 7.3537 6.64625L8.99995 8.29313L10.6462 6.64625C10.6927 6.59979 10.7478 6.56294 10.8085 6.5378C10.8692 6.51266 10.9343 6.49972 11 6.49972C11.0657 6.49972 11.1307 6.51266 11.1914 6.5378C11.2521 6.56294 11.3072 6.59979 11.3537 6.64625C11.4002 6.6927 11.437 6.74786 11.4622 6.80855C11.4873 6.86925 11.5002 6.9343 11.5002 7C11.5002 7.0657 11.4873 7.13075 11.4622 7.19145C11.437 7.25214 11.4002 7.3073 11.3537 7.35375Z" fill="black"/>
</g>
<defs>
<clipPath id="clip0_5_579">
<rect width="16" height="16" fill="white"/>
</clipPath>
</defs>
</svg>
