<svg width="16" height="16" viewBox="0 0 16 16" fill="none" xmlns="http://www.w3.org/2000/svg">
<g clip-path="url(#clip0_5_1494)">
<path d="M13.5 2.5H2.5C2.23478 2.5 1.98043 2.60536 1.79289 2.79289C1.60536 2.98043 1.5 3.23478 1.5 3.5V12.5C1.5 12.7652 1.60536 13.0196 1.79289 13.2071C1.98043 13.3946 2.23478 13.5 2.5 13.5H13.5C13.7652 13.5 14.0196 13.3946 14.2071 13.2071C14.3946 13.0196 14.5 12.7652 14.5 12.5V3.5C14.5 3.23478 14.3946 2.98043 14.2071 2.79289C14.0196 2.60536 13.7652 2.5 13.5 2.5ZM12.5769 10.6412C12.225 11.2037 11.6813 11.5 11.0044 11.5C9.70875 11.5 8.82875 9.91813 7.89687 8.24312C7.21688 7.02063 6.37063 5.5 5.66313 5.5C4.88625 5.5 4 7.305 4 8.88813C4 9.40438 4.09375 9.82563 4.27125 10.1106C4.4375 10.375 4.6675 10.5 4.99563 10.5C5.37563 10.5 5.84062 10.0625 6.41687 9.15563C6.48997 9.04812 6.60206 8.97331 6.72939 8.94705C6.85671 8.9208 6.98926 8.94517 7.09892 9.015C7.20857 9.08483 7.28672 9.19462 7.3168 9.3211C7.34687 9.44757 7.3265 9.58079 7.26 9.6925C6.24 11.2944 5.51375 11.5 4.99563 11.5C4.31875 11.5 3.775 11.2031 3.42313 10.6412C3.14625 10.1987 3 9.5925 3 8.89125C3.01102 7.90951 3.24617 6.94327 3.6875 6.06625C4.20875 5.05625 4.91062 4.5 5.66313 4.5C6.95875 4.5 7.83875 6.08188 8.77063 7.75688C9.45062 8.97875 10.2969 10.5 11.0044 10.5C11.3325 10.5 11.5625 10.375 11.7288 10.1106C11.9062 9.8275 12 9.40438 12 8.88813C12 7.305 11.1138 5.5 10.3369 5.5C10.1244 5.5 9.8775 5.64437 9.60312 5.93C9.55761 5.97736 9.50322 6.01529 9.44305 6.04162C9.38288 6.06796 9.31811 6.08219 9.25244 6.08349C9.18677 6.0848 9.12149 6.07316 9.06032 6.04924C8.99915 6.02531 8.9433 5.98957 8.89594 5.94406C8.84858 5.89855 8.81065 5.84416 8.78431 5.78399C8.75798 5.72382 8.74375 5.65905 8.74244 5.59338C8.74114 5.52771 8.75278 5.46243 8.7767 5.40126C8.80063 5.34009 8.83636 5.28423 8.88188 5.23688C9.35875 4.74125 9.83438 4.5 10.3369 4.5C11.0869 4.5 11.7912 5.05625 12.3131 6.06625C12.754 6.94232 12.9891 7.90745 13.0006 8.88813C13 9.5925 12.8537 10.1987 12.5769 10.6412Z" fill="black"/>
</g>
<defs>
<clipPath id="clip0_5_1494">
<rect width="16" height="16" fill="white"/>
</clipPath>
</defs>
</svg>
