<svg width="16" height="16" viewBox="0 0 16 16" fill="none" xmlns="http://www.w3.org/2000/svg">
<g clip-path="url(#clip0_5_578)">
<path d="M8.50003 10C8.50003 10.4945 8.35341 10.9778 8.07871 11.389C7.804 11.8001 7.41356 12.1205 6.95674 12.3097C6.49993 12.499 5.99726 12.5485 5.51231 12.452C5.02736 12.3555 4.5819 12.1174 4.23227 11.7678C3.88264 11.4182 3.64453 10.9727 3.54807 10.4878C3.45161 10.0028 3.50112 9.50014 3.69034 9.04333C3.87955 8.58651 4.19999 8.19606 4.61111 7.92136C5.02223 7.64666 5.50558 7.50003 6.00003 7.50003C6.66307 7.50003 7.29896 7.76343 7.7678 8.23227C8.23664 8.70111 8.50003 9.33699 8.50003 10ZM13.1463 7.64628L10.1463 10.6463C10.0525 10.7401 9.99976 10.8674 9.99976 11C9.99976 11.1327 10.0525 11.26 10.1463 11.3538C10.2401 11.4476 10.3674 11.5003 10.5 11.5003C10.6327 11.5003 10.76 11.4476 10.8538 11.3538L13.8538 8.35378C13.9002 8.30733 13.9371 8.25218 13.9622 8.19148C13.9874 8.13079 14.0003 8.06573 14.0003 8.00003C14.0003 7.93434 13.9874 7.86928 13.9622 7.80859C13.9371 7.74789 13.9002 7.69274 13.8538 7.64628C13.8073 7.59983 13.7522 7.56298 13.6915 7.53784C13.6308 7.5127 13.5657 7.49976 13.5 7.49976C13.4343 7.49976 13.3693 7.5127 13.3086 7.53784C13.2479 7.56298 13.1927 7.59983 13.1463 7.64628ZM11.8538 6.85378C11.9002 6.80733 11.9371 6.75218 11.9622 6.69148C11.9874 6.63079 12.0003 6.56573 12.0003 6.50003C12.0003 6.43434 11.9874 6.36928 11.9622 6.30859C11.9371 6.24789 11.9002 6.19274 11.8538 6.14628C11.8073 6.09983 11.7522 6.06298 11.6915 6.03784C11.6308 6.0127 11.5657 5.99976 11.5 5.99976C11.4343 5.99976 11.3693 6.0127 11.3086 6.03784C11.2479 6.06298 11.1927 6.09983 11.1463 6.14628L9.64628 7.64628C9.55246 7.7401 9.49976 7.86735 9.49976 8.00003C9.49976 8.13272 9.55246 8.25996 9.64628 8.35378C9.7401 8.4476 9.86735 8.50031 10 8.50031C10.1327 8.50031 10.26 8.4476 10.3538 8.35378L11.8538 6.85378ZM14.3538 3.64628C14.3073 3.5998 14.2522 3.56292 14.1915 3.53775C14.1308 3.51259 14.0657 3.49964 14 3.49964C13.9343 3.49964 13.8693 3.51259 13.8086 3.53775C13.7479 3.56292 13.6927 3.5998 13.6463 3.64628L12.6463 4.64628C12.5525 4.7401 12.4998 4.86735 12.4998 5.00003C12.4998 5.13272 12.5525 5.25996 12.6463 5.35378C12.7401 5.4476 12.8674 5.50031 13 5.50031C13.1327 5.50031 13.26 5.4476 13.3538 5.35378L14.3538 4.35378C14.4003 4.30735 14.4372 4.2522 14.4623 4.1915C14.4875 4.13081 14.5004 4.06574 14.5004 4.00003C14.5004 3.93433 14.4875 3.86926 14.4623 3.80856C14.4372 3.74786 14.4003 3.69272 14.3538 3.64628ZM7.64628 6.35378C7.69272 6.40027 7.74786 6.43715 7.80856 6.46231C7.86926 6.48748 7.93433 6.50043 8.00003 6.50043C8.06574 6.50043 8.13081 6.48748 8.1915 6.46231C8.2522 6.43715 8.30735 6.40027 8.35378 6.35378L12.8538 1.85378C12.9002 1.80733 12.9371 1.75218 12.9622 1.69148C12.9874 1.63079 13.0003 1.56573 13.0003 1.50003C13.0003 1.43434 12.9874 1.36928 12.9622 1.30859C12.9371 1.24789 12.9002 1.19274 12.8538 1.14628C12.8073 1.09983 12.7522 1.06298 12.6915 1.03784C12.6308 1.0127 12.5657 0.999756 12.5 0.999756C12.4343 0.999756 12.3693 1.0127 12.3086 1.03784C12.2479 1.06298 12.1927 1.09983 12.1463 1.14628L7.64628 5.64628C7.5998 5.69272 7.56292 5.74786 7.53775 5.80856C7.51259 5.86926 7.49964 5.93433 7.49964 6.00003C7.49964 6.06574 7.51259 6.13081 7.53775 6.1915C7.56292 6.2522 7.5998 6.30735 7.64628 6.35378ZM8.47503 12.475C7.81862 13.1314 6.92834 13.5002 6.00003 13.5002C5.07173 13.5002 4.18145 13.1314 3.52503 12.475C2.86862 11.8186 2.49986 10.9283 2.49986 10C2.49986 9.07173 2.86862 8.18144 3.52503 7.52503L8.69691 2.35378C8.74336 2.30733 8.78021 2.25218 8.80536 2.19148C8.8305 2.13079 8.84344 2.06573 8.84344 2.00003C8.84344 1.93434 8.8305 1.86928 8.80536 1.80859C8.78021 1.74789 8.74336 1.69274 8.69691 1.64628C8.65045 1.59983 8.5953 1.56298 8.53461 1.53784C8.47391 1.5127 8.40886 1.49976 8.34316 1.49976C8.27746 1.49976 8.21241 1.5127 8.15171 1.53784C8.09101 1.56298 8.03586 1.59983 7.98941 1.64628L2.81816 6.81816C2.39471 7.23477 2.05793 7.7311 1.82726 8.27851C1.59658 8.82593 1.47658 9.4136 1.47416 10.0076C1.47174 10.6017 1.58696 11.1903 1.81317 11.7396C2.03937 12.2888 2.3721 12.7879 2.79214 13.2079C3.21218 13.628 3.71124 13.9607 4.26051 14.1869C4.80979 14.4131 5.39842 14.5283 5.99244 14.5259C6.58647 14.5235 7.17414 14.4035 7.72156 14.1728C8.26897 13.9421 8.7653 13.6054 9.18191 13.1819C9.27172 13.0874 9.32105 12.9615 9.31938 12.8311C9.31771 12.7007 9.26517 12.5762 9.17297 12.484C9.08077 12.3918 8.9562 12.3392 8.82582 12.3376C8.69544 12.3359 8.56957 12.3852 8.47503 12.475Z" fill="black"/>
</g>
<defs>
<clipPath id="clip0_5_578">
<rect width="16" height="16" fill="white"/>
</clipPath>
</defs>
</svg>
