<svg width="16" height="16" viewBox="0 0 16 16" fill="none" xmlns="http://www.w3.org/2000/svg">
<g clip-path="url(#clip0_5_577)">
<path d="M11.6964 7.1775L13.3702 5.33625C13.4575 5.23783 13.5025 5.10896 13.4954 4.97758C13.4884 4.8462 13.4298 4.7229 13.3324 4.63441C13.235 4.54593 13.1067 4.49938 12.9753 4.50488C12.8438 4.51037 12.7198 4.56745 12.6302 4.66375L11.3458 6.07625L10.2708 2.69688C10.207 2.49429 10.0801 2.3174 9.9086 2.19203C9.73713 2.06666 9.53008 1.99938 9.31767 2H6.68205C6.46964 1.99938 6.26259 2.06666 6.09113 2.19203C5.91966 2.3174 5.79275 2.49429 5.72892 2.69688L2.54705 12.6969C2.49937 12.8468 2.48772 13.0058 2.51306 13.1611C2.53839 13.3163 2.59999 13.4634 2.69286 13.5904C2.78572 13.7173 2.90723 13.8206 3.04751 13.8918C3.18778 13.9629 3.34287 14 3.50017 14H12.5002C12.6575 14 12.8126 13.9629 12.9528 13.8918C13.0931 13.8206 13.2146 13.7173 13.3075 13.5904C13.4004 13.4634 13.462 13.3163 13.4873 13.1611C13.5126 13.0058 13.501 12.8468 13.4533 12.6969L11.6964 7.1775ZM4.45455 10L6.68205 3H9.31767L10.5677 6.93125L7.77892 10H4.45455ZM9.13017 10L10.9189 8.0325L11.5439 10H9.13017Z" fill="black"/>
</g>
<defs>
<clipPath id="clip0_5_577">
<rect width="16" height="16" fill="white"/>
</clipPath>
</defs>
</svg>
