<svg width="16" height="16" viewBox="0 0 16 16" fill="none" xmlns="http://www.w3.org/2000/svg">
<g clip-path="url(#clip0_5_574)">
<path d="M14.5 13.5C14.5 13.6326 14.4473 13.7598 14.3536 13.8536C14.2598 13.9473 14.1326 14 14 14H2C1.86739 14 1.74021 13.9473 1.64645 13.8536C1.55268 13.7598 1.5 13.6326 1.5 13.5C1.5 13.3674 1.55268 13.2402 1.64645 13.1464C1.74021 13.0527 1.86739 13 2 13H11.3281C12.0184 12.4419 12.5282 11.6921 12.7933 10.845C13.0585 9.99785 13.0672 9.09122 12.8183 8.23916C12.5695 7.3871 12.0742 6.62767 11.3947 6.05642C10.7153 5.48517 9.88213 5.12762 9 5.02875V8.5C9 8.76522 8.89464 9.01957 8.70711 9.20711C8.51957 9.39464 8.26522 9.5 8 9.5H5C4.73478 9.5 4.48043 9.39464 4.29289 9.20711C4.10536 9.01957 4 8.76522 4 8.5V2C4 1.73478 4.10536 1.48043 4.29289 1.29289C4.48043 1.10536 4.73478 1 5 1H8C8.26522 1 8.51957 1.10536 8.70711 1.29289C8.89464 1.48043 9 1.73478 9 2V4.02313C9.99608 4.11457 10.9484 4.47577 11.7546 5.06789C12.5608 5.66002 13.1903 6.46067 13.5755 7.38378C13.9608 8.30689 14.0871 9.31754 13.941 10.3071C13.7949 11.2966 13.3818 12.2276 12.7463 13H14C14.1326 13 14.2598 13.0527 14.3536 13.1464C14.4473 13.2402 14.5 13.3674 14.5 13.5ZM8.5 11.5C8.63261 11.5 8.75979 11.4473 8.85355 11.3536C8.94732 11.2598 9 11.1326 9 11C9 10.8674 8.94732 10.7402 8.85355 10.6464C8.75979 10.5527 8.63261 10.5 8.5 10.5H4.5C4.36739 10.5 4.24021 10.5527 4.14645 10.6464C4.05268 10.7402 4 10.8674 4 11C4 11.1326 4.05268 11.2598 4.14645 11.3536C4.24021 11.4473 4.36739 11.5 4.5 11.5H8.5Z" fill="black"/>
</g>
<defs>
<clipPath id="clip0_5_574">
<rect width="16" height="16" fill="white"/>
</clipPath>
</defs>
</svg>
