<svg width="16" height="16" viewBox="0 0 16 16" fill="none" xmlns="http://www.w3.org/2000/svg">
<g clip-path="url(#clip0_5_1534)">
<path d="M5.5 9C5.30222 9 5.10888 8.94135 4.94443 8.83147C4.77998 8.72159 4.65181 8.56541 4.57612 8.38268C4.50043 8.19996 4.48063 7.99889 4.51921 7.80491C4.5578 7.61093 4.65304 7.43275 4.79289 7.29289C4.93275 7.15304 5.11093 7.0578 5.30491 7.01921C5.49889 6.98063 5.69996 7.00043 5.88268 7.07612C6.06541 7.15181 6.22159 7.27998 6.33147 7.44443C6.44135 7.60888 6.5 7.80222 6.5 8C6.5 8.26522 6.39464 8.51957 6.20711 8.70711C6.01957 8.89464 5.76522 9 5.5 9ZM14.5 7V13C14.5 13.2652 14.3946 13.5196 14.2071 13.7071C14.0196 13.8946 13.7652 14 13.5 14H5.5C5.23478 14 4.98043 13.8946 4.79289 13.7071C4.60536 13.5196 4.5 13.2652 4.5 13V12H2.5C2.23478 12 1.98043 11.8946 1.79289 11.7071C1.60536 11.5196 1.5 11.2652 1.5 11V5C1.5 4.73478 1.60536 4.48043 1.79289 4.29289C1.98043 4.10536 2.23478 4 2.5 4H6V2.5C6 2.36739 6.05268 2.24021 6.14645 2.14645C6.24021 2.05268 6.36739 2 6.5 2H12.5C12.6326 2 12.7598 2.05268 12.8536 2.14645C12.9473 2.24021 13 2.36739 13 2.5V6.5H14C14.1326 6.5 14.2598 6.55268 14.3536 6.64645C14.4473 6.74021 14.5 6.86739 14.5 7ZM7 4H8.5C8.76522 4 9.01957 4.10536 9.20711 4.29289C9.39464 4.48043 9.5 4.73478 9.5 5V9.63313L12 7.8275V3H7V4ZM5.5 10C5.89556 10 6.28224 9.8827 6.61114 9.66294C6.94004 9.44318 7.19638 9.13082 7.34776 8.76537C7.49913 8.39991 7.53874 7.99778 7.46157 7.60982C7.3844 7.22186 7.19392 6.86549 6.91421 6.58579C6.63451 6.30608 6.27814 6.1156 5.89018 6.03843C5.50222 5.96126 5.10009 6.00087 4.73463 6.15224C4.36918 6.30362 4.05682 6.55996 3.83706 6.88886C3.6173 7.21776 3.5 7.60444 3.5 8C3.5 8.53043 3.71071 9.03914 4.08579 9.41421C4.46086 9.78929 4.96957 10 5.5 10ZM12.4537 13L9.5 10.8669V11C9.5 11.2652 9.39464 11.5196 9.20711 11.7071C9.01957 11.8946 8.76522 12 8.5 12H5.5V13H12.4537ZM13.5 7.97813L10.3538 10.25L13.5 12.5219V7.97813Z" fill="black"/>
</g>
<defs>
<clipPath id="clip0_5_1534">
<rect width="16" height="16" fill="white"/>
</clipPath>
</defs>
</svg>
