<svg width="16" height="16" viewBox="0 0 16 16" fill="none" xmlns="http://www.w3.org/2000/svg">
<g clip-path="url(#clip0_5_573)">
<path d="M12.5 1.5H4.5C4.23478 1.5 3.98043 1.60536 3.79289 1.79289C3.60536 1.98043 3.5 2.23478 3.5 2.5V4H2.5C2.23478 4 1.98043 4.10536 1.79289 4.29289C1.60536 4.48043 1.5 4.73478 1.5 5V11C1.5 11.2652 1.60536 11.5196 1.79289 11.7071C1.98043 11.8946 2.23478 12 2.5 12H3.5V13.5C3.5 13.7652 3.60536 14.0196 3.79289 14.2071C3.98043 14.3946 4.23478 14.5 4.5 14.5H12.5C12.7652 14.5 13.0196 14.3946 13.2071 14.2071C13.3946 14.0196 13.5 13.7652 13.5 13.5V2.5C13.5 2.23478 13.3946 1.98043 13.2071 1.79289C13.0196 1.60536 12.7652 1.5 12.5 1.5ZM4.5 10C4.40496 10 4.31188 9.97298 4.23166 9.92202C4.15145 9.87105 4.08742 9.79827 4.04708 9.71222C4.00675 9.62616 3.99177 9.53039 4.00391 9.43613C4.01605 9.34187 4.0548 9.25303 4.11562 9.18L5.09937 8L4.11562 6.82C4.03076 6.71806 3.98986 6.58658 4.00193 6.45448C4.014 6.32238 4.07806 6.20049 4.18 6.11562C4.28194 6.03076 4.41342 5.98986 4.54552 6.00193C4.67762 6.014 4.79951 6.07806 4.88438 6.18L5.75 7.21875L6.61562 6.18C6.65765 6.12952 6.7092 6.08782 6.76734 6.05726C6.82548 6.02671 6.88907 6.00791 6.95448 6.00193C7.01989 5.99595 7.08583 6.00292 7.14855 6.02243C7.21126 6.04193 7.26952 6.0736 7.32 6.11562C7.37048 6.15765 7.41218 6.2092 7.44274 6.26734C7.47329 6.32548 7.49209 6.38907 7.49807 6.45448C7.50405 6.51989 7.49708 6.58583 7.47757 6.64855C7.45807 6.71126 7.4264 6.76952 7.38438 6.82L6.40063 8L7.38438 9.18C7.46924 9.28194 7.51014 9.41342 7.49807 9.54552C7.486 9.67762 7.42194 9.79951 7.32 9.88437C7.21806 9.96924 7.08658 10.0101 6.95448 9.99807C6.82238 9.986 6.70049 9.92194 6.61562 9.82L5.75 8.78125L4.88438 9.82C4.83743 9.87636 4.77866 9.9217 4.71223 9.95281C4.64581 9.98392 4.57335 10 4.5 10ZM8 13.5H4.5V12H8V13.5ZM8 4H4.5V2.5H8V4ZM12.5 13.5H9V12C9.26522 12 9.51957 11.8946 9.70711 11.7071C9.89464 11.5196 10 11.2652 10 11V10.5H12.5V13.5ZM12.5 9.5H10V6.5H12.5V9.5ZM12.5 5.5H10V5C10 4.73478 9.89464 4.48043 9.70711 4.29289C9.51957 4.10536 9.26522 4 9 4V2.5H12.5V5.5Z" fill="black"/>
</g>
<defs>
<clipPath id="clip0_5_573">
<rect width="16" height="16" fill="white"/>
</clipPath>
</defs>
</svg>
