<svg width="16" height="16" viewBox="0 0 16 16" fill="none" xmlns="http://www.w3.org/2000/svg">
<g clip-path="url(#clip0_5_1545)">
<path d="M13.3361 14.37C13.238 14.4591 13.1085 14.5057 12.976 14.4994C12.8436 14.493 12.7191 14.4343 12.6299 14.3362L10.6974 12.2112C10.0363 12.6374 9.28279 12.899 8.49988 12.9743V15C8.49988 15.1326 8.4472 15.2598 8.35343 15.3535C8.25966 15.4473 8.13248 15.5 7.99988 15.5C7.86727 15.5 7.74009 15.4473 7.64632 15.3535C7.55255 15.2598 7.49988 15.1326 7.49988 15V12.975C6.26715 12.8495 5.12473 12.2714 4.29353 11.3525C3.46233 10.4336 3.0014 9.23906 2.99988 7.99997C2.99988 7.86736 3.05255 7.74019 3.14632 7.64642C3.24009 7.55265 3.36727 7.49997 3.49988 7.49997C3.63248 7.49997 3.75966 7.55265 3.85343 7.64642C3.9472 7.74019 3.99988 7.86736 3.99988 7.99997C4.00103 9.06048 4.42283 10.0772 5.17273 10.8271C5.92262 11.577 6.93936 11.9988 7.99988 12C8.70731 12.0021 9.40241 11.8147 10.013 11.4575L9.31925 10.695C8.86182 10.919 8.3549 11.0228 7.84624 10.9967C7.33759 10.9707 6.84395 10.8155 6.41183 10.5459C5.97972 10.2763 5.62336 9.90109 5.37634 9.45568C5.12931 9.01027 4.99976 8.5093 4.99988 7.99997V5.9431L2.62988 3.33622C2.54256 3.2378 2.49756 3.10893 2.50463 2.97755C2.5117 2.84617 2.57026 2.72287 2.66763 2.63438C2.765 2.54589 2.89332 2.49935 3.02478 2.50484C3.15623 2.51034 3.28023 2.56742 3.36987 2.66372L13.3699 13.6637C13.459 13.7619 13.5056 13.8914 13.4993 14.0238C13.4929 14.1563 13.4342 14.2808 13.3361 14.37ZM11.8243 10.4243C11.8924 10.4581 11.9675 10.4757 12.0436 10.4756C12.1373 10.4756 12.2291 10.4493 12.3085 10.3997C12.388 10.3501 12.4519 10.2791 12.493 10.195C12.8285 9.51202 13.002 8.76088 12.9999 7.99997C12.9999 7.86736 12.9472 7.74019 12.8534 7.64642C12.7597 7.55265 12.6325 7.49997 12.4999 7.49997C12.3673 7.49997 12.2401 7.55265 12.1463 7.64642C12.0526 7.74019 11.9999 7.86736 11.9999 7.99997C12.0017 8.60854 11.8631 9.20931 11.5949 9.7556C11.5366 9.8747 11.5281 10.0121 11.5711 10.1375C11.6141 10.2629 11.7052 10.3661 11.8243 10.4243ZM10.1161 8.5981C10.1811 8.6696 10.2654 8.72076 10.3588 8.74537C10.4522 8.76998 10.5508 8.767 10.6426 8.73679C10.7343 8.70657 10.8154 8.65042 10.8759 8.57512C10.9364 8.49981 10.9738 8.40859 10.9836 8.31247C10.9943 8.20865 10.9997 8.10435 10.9999 7.99997V3.99997C10.9991 3.31094 10.7612 2.64317 10.3261 2.10889C9.89098 1.57462 9.28522 1.2064 8.61062 1.06613C7.93601 0.925852 7.23369 1.02207 6.62167 1.33862C6.00965 1.65516 5.52525 2.17273 5.24988 2.80435C5.21143 2.89263 5.19929 2.99014 5.21492 3.08516C5.23056 3.18018 5.27329 3.26866 5.338 3.33997L10.1161 8.5981Z" fill="black"/>
</g>
<defs>
<clipPath id="clip0_5_1545">
<rect width="16" height="16" fill="white"/>
</clipPath>
</defs>
</svg>
