<svg width="16" height="16" viewBox="0 0 16 16" fill="none" xmlns="http://www.w3.org/2000/svg">
<g clip-path="url(#clip0_5_571)">
<path d="M13.7037 5.00005H13.2306C13.4075 4.69649 13.5004 4.35137 13.5 4.00005C13.5002 3.66159 13.4145 3.32862 13.2509 3.03232C13.0873 2.73601 12.8512 2.48608 12.5646 2.30591C12.2781 2.12574 11.9506 2.02123 11.6126 2.00217C11.2747 1.98311 10.9375 2.05012 10.6325 2.19693C10.3255 1.69579 9.8518 1.31881 9.29453 1.1322C8.73725 0.945581 8.13205 0.961254 7.58518 1.17647C7.03831 1.39168 6.58474 1.79267 6.30411 2.30903C6.02348 2.82539 5.93373 3.4241 6.05062 4.00005H2.5C2.23478 4.00005 1.98043 4.10541 1.79289 4.29295C1.60536 4.48048 1.5 4.73484 1.5 5.00005V11.0001C1.5 11.2653 1.60536 11.5196 1.79289 11.7072C1.98043 11.8947 2.23478 12.0001 2.5 12.0001H4.79187C5.09119 12.7391 5.60456 13.3718 6.26607 13.817C6.92758 14.2622 7.70705 14.4995 8.50441 14.4985C9.30178 14.4975 10.0806 14.2582 10.741 13.8114C11.4014 13.3645 11.9132 12.7305 12.2106 11.9907C12.8349 11.9379 13.4166 11.6526 13.8406 11.1914C14.2645 10.7302 14.4999 10.1265 14.5 9.50005V5.7963C14.4997 5.58522 14.4157 5.38289 14.2664 5.23363C14.1172 5.08438 13.9148 5.00038 13.7037 5.00005ZM8.5 2.00005C8.81031 2.00003 9.113 2.09625 9.36633 2.27546C9.61967 2.45466 9.8112 2.70802 9.91452 3.00063C10.0178 3.29324 10.0279 3.61069 9.94321 3.90923C9.85856 4.20778 9.6834 4.47272 9.44188 4.66755C9.37314 4.47258 9.24566 4.3037 9.07698 4.18416C8.90831 4.06463 8.70674 4.00031 8.5 4.00005H7.08625C7.00627 3.77384 6.98173 3.53175 7.01467 3.29409C7.04762 3.05643 7.13709 2.83014 7.27558 2.63422C7.41408 2.43829 7.59755 2.27845 7.8106 2.1681C8.02365 2.05775 8.26007 2.00013 8.5 2.00005ZM5.5 10.0001C5.36739 10.0001 5.24021 9.94737 5.14645 9.85361C5.05268 9.75984 5 9.63266 5 9.50005V7.00005H4.5C4.36739 7.00005 4.24021 6.94737 4.14645 6.85361C4.05268 6.75984 4 6.63266 4 6.50005C4 6.36744 4.05268 6.24027 4.14645 6.1465C4.24021 6.05273 4.36739 6.00005 4.5 6.00005H6.5C6.63261 6.00005 6.75979 6.05273 6.85355 6.1465C6.94732 6.24027 7 6.36744 7 6.50005C7 6.63266 6.94732 6.75984 6.85355 6.85361C6.75979 6.94737 6.63261 7.00005 6.5 7.00005H6V9.50005C6 9.63266 5.94732 9.75984 5.85355 9.85361C5.75979 9.94737 5.63261 10.0001 5.5 10.0001ZM11.5 10.5001C11.4998 11.1603 11.2818 11.802 10.8798 12.3257C10.4778 12.8494 9.91425 13.2259 9.27653 13.3968C8.63881 13.5677 7.96253 13.5235 7.35252 13.2709C6.7425 13.0184 6.23283 12.5717 5.9025 12.0001H8.5C8.76522 12.0001 9.01957 11.8947 9.20711 11.7072C9.39464 11.5196 9.5 11.2653 9.5 11.0001V6.00005H11.5V10.5001ZM11.5 5.00005H10.5C10.6969 4.73804 10.8402 4.43979 10.9217 4.12234C11.0032 3.8049 11.0213 3.4745 10.975 3.15005C11.1066 3.06852 11.2553 3.01863 11.4094 3.00433C11.5635 2.99003 11.7188 3.0117 11.8632 3.06763C12.0075 3.12356 12.1368 3.21223 12.2411 3.32666C12.3453 3.44109 12.4215 3.57815 12.4638 3.72705C12.506 3.87595 12.5132 4.03263 12.4846 4.18475C12.456 4.33686 12.3925 4.48027 12.2991 4.60367C12.2056 4.72707 12.0848 4.8271 11.9462 4.89589C11.8075 4.96467 11.6548 5.00033 11.5 5.00005ZM13.5 9.50005C13.5 9.81429 13.4013 10.1206 13.2178 10.3757C13.0343 10.6308 12.7754 10.8219 12.4775 10.9219C12.4926 10.7818 12.5001 10.641 12.5 10.5001V6.00005H13.5V9.50005Z" fill="black"/>
</g>
<defs>
<clipPath id="clip0_5_571">
<rect width="16" height="16" fill="white"/>
</clipPath>
</defs>
</svg>
