<svg width="16" height="16" viewBox="0 0 16 16" fill="none" xmlns="http://www.w3.org/2000/svg">
<g clip-path="url(#clip0_5_1674)">
<path d="M12.5 1.5H4.5C4.23478 1.5 3.98043 1.60536 3.79289 1.79289C3.60536 1.98043 3.5 2.23478 3.5 2.5V4H2.5C2.23478 4 1.98043 4.10536 1.79289 4.29289C1.60536 4.48043 1.5 4.73478 1.5 5V11C1.5 11.2652 1.60536 11.5196 1.79289 11.7071C1.98043 11.8946 2.23478 12 2.5 12H3.5V13.5C3.5 13.7652 3.60536 14.0196 3.79289 14.2071C3.98043 14.3946 4.23478 14.5 4.5 14.5H12.5C12.7652 14.5 13.0196 14.3946 13.2071 14.2071C13.3946 14.0196 13.5 13.7652 13.5 13.5V2.5C13.5 2.23478 13.3946 1.98043 13.2071 1.79289C13.0196 1.60536 12.7652 1.5 12.5 1.5ZM4.265 9.62125L3.515 6.62125C3.4978 6.55714 3.49354 6.49024 3.50246 6.42446C3.51139 6.35868 3.53332 6.29533 3.56699 6.23812C3.60065 6.18091 3.64537 6.13097 3.69854 6.09123C3.7517 6.05148 3.81225 6.02272 3.87665 6.00662C3.94105 5.99052 4.00802 5.9874 4.07363 5.99745C4.13925 6.0075 4.20221 6.03052 4.25883 6.06516C4.31546 6.0998 4.36462 6.14537 4.40345 6.19921C4.44229 6.25305 4.47001 6.31408 4.485 6.37875L4.9075 8.06625L5.3025 7.275C5.34397 7.1918 5.40781 7.1218 5.48686 7.07288C5.56591 7.02395 5.65703 6.99803 5.75 6.99803C5.84297 6.99803 5.93409 7.02395 6.01314 7.07288C6.09219 7.1218 6.15603 7.1918 6.1975 7.275L6.5925 8.06625L7.015 6.37875C7.04898 6.2521 7.13135 6.14388 7.24436 6.07738C7.35737 6.01088 7.49198 5.99144 7.61919 6.02324C7.7464 6.05504 7.85602 6.13555 7.92445 6.2474C7.99287 6.35926 8.01462 6.49352 7.985 6.62125L7.235 9.62125C7.21008 9.72024 7.15547 9.80923 7.07848 9.87627C7.0015 9.94331 6.90585 9.98517 6.80438 9.99625C6.78632 9.99823 6.76817 9.99927 6.75 9.99938C6.65711 9.99944 6.56604 9.97363 6.487 9.92484C6.40795 9.87604 6.34407 9.8062 6.3025 9.72313L5.75 8.61812L5.1975 9.72375C5.15183 9.8152 5.07924 9.89046 4.98949 9.93938C4.89974 9.98831 4.79715 10.0086 4.69554 9.99738C4.59393 9.98621 4.49819 9.94417 4.42121 9.87692C4.34423 9.80967 4.28971 9.72044 4.265 9.62125ZM12.5 13.5H4.5V12H9C9.26522 12 9.51957 11.8946 9.70711 11.7071C9.89464 11.5196 10 11.2652 10 11V10.5H12.5V13.5ZM12.5 9.5H10V6.5H12.5V9.5ZM12.5 5.5H10V5C10 4.73478 9.89464 4.48043 9.70711 4.29289C9.51957 4.10536 9.26522 4 9 4H4.5V2.5H12.5V5.5Z" fill="black"/>
</g>
<defs>
<clipPath id="clip0_5_1674">
<rect width="16" height="16" fill="white"/>
</clipPath>
</defs>
</svg>
