<svg width="16" height="16" viewBox="0 0 16 16" fill="none" xmlns="http://www.w3.org/2000/svg">
<g clip-path="url(#clip0_5_575)">
<path d="M7.19132 2.89747C7.16547 2.87162 7.13428 2.85175 7.09993 2.83926C7.06558 2.82677 7.02891 2.82197 6.9925 2.82519C6.95609 2.8284 6.92083 2.83957 6.8892 2.85789C6.85757 2.87621 6.83035 2.90124 6.80944 2.93122C6.28205 3.68394 5.99944 4.58089 6.00007 5.49997C6.00052 5.69686 6.01368 5.89352 6.03944 6.08872L1.69507 12.0137C1.55287 12.206 1.48466 12.4431 1.5029 12.6816C1.52115 12.9201 1.62464 13.144 1.79444 13.3125L2.68757 14.2056C2.85601 14.3754 3.07995 14.4789 3.31843 14.4971C3.55692 14.5154 3.794 14.4472 3.98632 14.305L9.91194 9.95935C10.1069 9.9855 10.3034 9.99907 10.5001 9.99997C11.4188 10.0008 12.3155 9.71867 13.0682 9.19185C13.0982 9.17094 13.1232 9.14371 13.1415 9.11209C13.1598 9.08046 13.171 9.0452 13.1742 9.00879C13.1774 8.97238 13.1726 8.93571 13.1601 8.90136C13.1477 8.86701 13.1278 8.83581 13.1019 8.80997L7.19132 2.89747ZM7.35444 9.35247L6.35444 10.3525C6.30847 10.4009 6.25328 10.4395 6.19213 10.4663C6.13097 10.493 6.06508 10.5072 5.99835 10.508C5.93162 10.5089 5.86539 10.4964 5.80357 10.4712C5.74175 10.4461 5.68559 10.4088 5.6384 10.3616C5.59121 10.3144 5.55394 10.2583 5.5288 10.1965C5.50365 10.1346 5.49114 10.0684 5.49199 10.0017C5.49285 9.93495 5.50705 9.86907 5.53377 9.80791C5.56049 9.74675 5.59918 9.69156 5.64757 9.6456L6.64757 8.6456C6.7421 8.55579 6.86797 8.50646 6.99835 8.50813C7.12873 8.5098 7.2533 8.56233 7.3455 8.65453C7.43771 8.74673 7.49024 8.8713 7.49191 9.00168C7.49358 9.13206 7.44425 9.25794 7.35444 9.35247ZM14.1919 8.06747C14.171 8.09756 14.1438 8.12268 14.1121 8.14107C14.0804 8.15946 14.0451 8.17066 14.0086 8.17388C13.9721 8.1771 13.9353 8.17226 13.9009 8.1597C13.8665 8.14715 13.8353 8.12718 13.8094 8.10122L7.89882 2.1906C7.87285 2.16475 7.85289 2.13352 7.84033 2.0991C7.82778 2.06469 7.82294 2.02794 7.82616 1.99145C7.82938 1.95496 7.84058 1.91962 7.85897 1.88793C7.87735 1.85625 7.90248 1.829 7.93257 1.8081C8.79831 1.204 9.84903 0.923837 10.9006 1.0167C11.9522 1.10957 12.9375 1.56954 13.684 2.31601C14.4305 3.06249 14.8905 4.04785 14.9833 5.09943C15.0762 6.15101 14.796 7.20173 14.1919 8.06747Z" fill="black"/>
</g>
<defs>
<clipPath id="clip0_5_575">
<rect width="16" height="16" fill="white"/>
</clipPath>
</defs>
</svg>
