<svg width="16" height="16" viewBox="0 0 16 16" fill="none" xmlns="http://www.w3.org/2000/svg">
<g clip-path="url(#clip0_5_572)">
<path d="M8.5 1.5C7.51218 1.50129 6.53756 1.727 5.64974 2.16009C4.76191 2.59317 3.98409 3.22231 3.375 4H2.5C2.23478 4 1.98043 4.10536 1.79289 4.29289C1.60536 4.48043 1.5 4.73478 1.5 5V11C1.5 11.2652 1.60536 11.5196 1.79289 11.7071C1.98043 11.8946 2.23478 12 2.5 12H3.375C4.05351 12.8691 4.94193 13.5513 5.95671 13.9824C6.97149 14.4136 8.07926 14.5795 9.17583 14.4646C10.2724 14.3497 11.3217 13.9578 12.2251 13.3256C13.1285 12.6935 13.8562 11.842 14.3398 10.8511C14.8234 9.86028 15.0471 8.7627 14.9897 7.66162C14.9323 6.56055 14.5957 5.49217 14.0117 4.55698C13.4277 3.62179 12.6154 2.85053 11.6512 2.31576C10.687 1.78098 9.60257 1.50026 8.5 1.5ZM4.5 9.5V6.5C4.5 6.36739 4.55268 6.24021 4.64645 6.14645C4.74021 6.05268 4.86739 6 5 6H6C6.39782 6 6.77936 6.15804 7.06066 6.43934C7.34196 6.72064 7.5 7.10218 7.5 7.5C7.5 7.89782 7.34196 8.27936 7.06066 8.56066C6.77936 8.84196 6.39782 9 6 9H5.5V9.5C5.5 9.63261 5.44732 9.75979 5.35355 9.85355C5.25979 9.94732 5.13261 10 5 10C4.86739 10 4.74021 9.94732 4.64645 9.85355C4.55268 9.75979 4.5 9.63261 4.5 9.5ZM8 13.4769C6.7749 13.3629 5.62293 12.8432 4.72687 12H8V13.4769ZM8 4H4.72687C5.62293 3.15684 6.7749 2.63705 8 2.52312V4ZM9 2.52312C10.2799 2.64163 11.4781 3.20404 12.387 4.11296C13.296 5.02188 13.8584 6.22007 13.9769 7.5H10V5C10 4.73478 9.89464 4.48043 9.70711 4.29289C9.51957 4.10536 9.26522 4 9 4V2.52312ZM9 13.4769V12C9.26522 12 9.51957 11.8946 9.70711 11.7071C9.89464 11.5196 10 11.2652 10 11V8.5H13.9769C13.8584 9.77993 13.296 10.9781 12.387 11.887C11.4781 12.796 10.2799 13.3584 9 13.4769ZM6 8H5.5V7H6C6.13261 7 6.25979 7.05268 6.35355 7.14645C6.44732 7.24021 6.5 7.36739 6.5 7.5C6.5 7.63261 6.44732 7.75979 6.35355 7.85355C6.25979 7.94732 6.13261 8 6 8Z" fill="black"/>
</g>
<defs>
<clipPath id="clip0_5_572">
<rect width="16" height="16" fill="white"/>
</clipPath>
</defs>
</svg>
