<svg width="16" height="16" viewBox="0 0 16 16" fill="none" xmlns="http://www.w3.org/2000/svg">
<g clip-path="url(#clip0_5_568)">
<path d="M10.5 8C10.5 8.49445 10.3534 8.9778 10.0787 9.38893C9.80397 9.80005 9.41352 10.1205 8.95671 10.3097C8.49989 10.4989 7.99723 10.5484 7.51227 10.452C7.02732 10.3555 6.58186 10.1174 6.23223 9.76777C5.8826 9.41814 5.6445 8.97268 5.54804 8.48773C5.45157 8.00277 5.50108 7.50011 5.6903 7.04329C5.87952 6.58648 6.19995 6.19603 6.61107 5.92133C7.0222 5.64662 7.50555 5.5 8 5.5C8.66304 5.5 9.29893 5.76339 9.76777 6.23223C10.2366 6.70107 10.5 7.33696 10.5 8ZM15.5 4V12C15.5 12.1326 15.4473 12.2598 15.3536 12.3536C15.2598 12.4473 15.1326 12.5 15 12.5H1C0.867392 12.5 0.740215 12.4473 0.646447 12.3536C0.552678 12.2598 0.5 12.1326 0.5 12V4C0.5 3.86739 0.552678 3.74021 0.646447 3.64645C0.740215 3.55268 0.867392 3.5 1 3.5H15C15.1326 3.5 15.2598 3.55268 15.3536 3.64645C15.4473 3.74021 15.5 3.86739 15.5 4ZM14.5 6.89687C13.9323 6.729 13.4155 6.42175 12.9969 6.00311C12.5782 5.58447 12.271 5.06775 12.1031 4.5H3.89687C3.729 5.06775 3.42175 5.58447 3.00311 6.00311C2.58447 6.42175 2.06775 6.729 1.5 6.89687V9.10312C2.06775 9.271 2.58447 9.57825 3.00311 9.99689C3.42175 10.4155 3.729 10.9323 3.89687 11.5H12.1031C12.271 10.9323 12.5782 10.4155 12.9969 9.99689C13.4155 9.57825 13.9323 9.271 14.5 9.10312V6.89687Z" fill="black"/>
</g>
<defs>
<clipPath id="clip0_5_568">
<rect width="16" height="16" fill="white"/>
</clipPath>
</defs>
</svg>
