<svg width="16" height="16" viewBox="0 0 16 16" fill="none" xmlns="http://www.w3.org/2000/svg">
<g clip-path="url(#clip0_5_1444)">
<path d="M15.265 3.74998C15.193 3.70506 15.1108 3.67919 15.026 3.67482C14.9413 3.67044 14.8569 3.68771 14.7806 3.72498C12.0975 5.03748 10.1813 4.42248 8.15563 3.77373C6.025 3.09561 3.825 2.39248 0.780625 3.87873C0.696548 3.91978 0.625676 3.9836 0.576067 4.06293C0.526458 4.14226 0.500104 4.23392 0.5 4.32748V11.8231C0.499988 11.9079 0.521562 11.9914 0.56269 12.0656C0.603819 12.1398 0.66315 12.2023 0.7351 12.2472C0.80705 12.2922 0.889253 12.3181 0.973972 12.3225C1.05869 12.3269 1.14314 12.3097 1.21938 12.2725C3.9025 10.96 5.81875 11.575 7.8475 12.2237C9.05 12.6081 10.275 13 11.66 13C12.7281 13 13.8931 12.7675 15.2169 12.1212C15.301 12.0802 15.3718 12.0164 15.4214 11.937C15.471 11.8577 15.4974 11.766 15.4975 11.6725V4.17686C15.4983 4.0918 15.4773 4.00796 15.4366 3.93326C15.3959 3.85857 15.3369 3.79548 15.265 3.74998ZM3 9.49998C3 9.63259 2.94732 9.75977 2.85355 9.85353C2.75979 9.9473 2.63261 9.99998 2.5 9.99998C2.36739 9.99998 2.24021 9.9473 2.14645 9.85353C2.05268 9.75977 2 9.63259 2 9.49998V5.49998C2 5.36737 2.05268 5.2402 2.14645 5.14643C2.24021 5.05266 2.36739 4.99998 2.5 4.99998C2.63261 4.99998 2.75979 5.05266 2.85355 5.14643C2.94732 5.2402 3 5.36737 3 5.49998V9.49998ZM8 9.99998C7.60444 9.99998 7.21776 9.88268 6.88886 9.66292C6.55996 9.44316 6.30362 9.1308 6.15224 8.76535C6.00087 8.39989 5.96126 7.99776 6.03843 7.6098C6.1156 7.22184 6.30608 6.86547 6.58579 6.58577C6.86549 6.30606 7.22186 6.11558 7.60982 6.03841C7.99778 5.96124 8.39991 6.00085 8.76537 6.15222C9.13082 6.3036 9.44318 6.55994 9.66294 6.88884C9.8827 7.21774 10 7.60442 10 7.99998C10 8.53041 9.78929 9.03912 9.41421 9.41419C9.03914 9.78927 8.53043 9.99998 8 9.99998ZM14 10.5C14 10.6326 13.9473 10.7598 13.8536 10.8535C13.7598 10.9473 13.6326 11 13.5 11C13.3674 11 13.2402 10.9473 13.1464 10.8535C13.0527 10.7598 13 10.6326 13 10.5V6.49998C13 6.36737 13.0527 6.2402 13.1464 6.14643C13.2402 6.05266 13.3674 5.99998 13.5 5.99998C13.6326 5.99998 13.7598 6.05266 13.8536 6.14643C13.9473 6.2402 14 6.36737 14 6.49998V10.5Z" fill="black"/>
</g>
<defs>
<clipPath id="clip0_5_1444">
<rect width="16" height="16" fill="white"/>
</clipPath>
</defs>
</svg>
