<svg width="16" height="16" viewBox="0 0 16 16" fill="none" xmlns="http://www.w3.org/2000/svg">
<g clip-path="url(#clip0_5_1178)">
<path d="M10.5 14C10.5 14.1326 10.4473 14.2598 10.3536 14.3536C10.2598 14.4473 10.1326 14.5 10 14.5H6C5.86739 14.5 5.74021 14.4473 5.64645 14.3536C5.55268 14.2598 5.5 14.1326 5.5 14C5.5 13.8674 5.55268 13.7402 5.64645 13.6464C5.74021 13.5527 5.86739 13.5 6 13.5H10C10.1326 13.5 10.2598 13.5527 10.3536 13.6464C10.4473 13.7402 10.5 13.8674 10.5 14ZM14.5 4V11C14.5 11.3978 14.342 11.7794 14.0607 12.0607C13.7794 12.342 13.3978 12.5 13 12.5H3C2.60218 12.5 2.22064 12.342 1.93934 12.0607C1.65804 11.7794 1.5 11.3978 1.5 11V4C1.5 3.60218 1.65804 3.22064 1.93934 2.93934C2.22064 2.65804 2.60218 2.5 3 2.5H13C13.3978 2.5 13.7794 2.65804 14.0607 2.93934C14.342 3.22064 14.5 3.60218 14.5 4ZM10.25 7.5C10.25 7.41966 10.2306 7.34051 10.1935 7.26925C10.1564 7.19799 10.1027 7.13672 10.0369 7.09062L7.53687 5.34062C7.46196 5.28815 7.37409 5.25722 7.28282 5.25122C7.19155 5.24522 7.10038 5.26436 7.01923 5.30658C6.93809 5.34879 6.87008 5.41246 6.82261 5.49064C6.77514 5.56883 6.75003 5.65853 6.75 5.75V9.25C6.75003 9.34147 6.77514 9.43118 6.82261 9.50936C6.87008 9.58754 6.93809 9.65121 7.01923 9.69342C7.10038 9.73564 7.19155 9.75479 7.28282 9.74878C7.37409 9.74278 7.46196 9.71185 7.53687 9.65938L10.0369 7.90938C10.1027 7.86328 10.1564 7.80201 10.1935 7.73075C10.2306 7.65949 10.25 7.58034 10.25 7.5Z" fill="black"/>
</g>
<defs>
<clipPath id="clip0_5_1178">
<rect width="16" height="16" fill="white"/>
</clipPath>
</defs>
</svg>
