<svg width="16" height="16" viewBox="0 0 16 16" fill="none" xmlns="http://www.w3.org/2000/svg">
<g clip-path="url(#clip0_5_567)">
<path d="M10.5 14C10.5 14.1326 10.4473 14.2598 10.3536 14.3536C10.2598 14.4473 10.1326 14.5 10 14.5H6C5.86739 14.5 5.74021 14.4473 5.64645 14.3536C5.55268 14.2598 5.5 14.1326 5.5 14C5.5 13.8674 5.55268 13.7402 5.64645 13.6464C5.74021 13.5527 5.86739 13.5 6 13.5H10C10.1326 13.5 10.2598 13.5527 10.3536 13.6464C10.4473 13.7402 10.5 13.8674 10.5 14ZM14.5 4V11C14.5 11.3978 14.342 11.7794 14.0607 12.0607C13.7794 12.342 13.3978 12.5 13 12.5H3C2.60218 12.5 2.22064 12.342 1.93934 12.0607C1.65804 11.7794 1.5 11.3978 1.5 11V4C1.5 3.60218 1.65804 3.22064 1.93934 2.93934C2.22064 2.65804 2.60218 2.5 3 2.5H13C13.3978 2.5 13.7794 2.65804 14.0607 2.93934C14.342 3.22064 14.5 3.60218 14.5 4ZM9.85375 6.64625L8.35375 5.14625C8.30731 5.09976 8.25217 5.06288 8.19147 5.03772C8.13077 5.01256 8.06571 4.99961 8 4.99961C7.93429 4.99961 7.86923 5.01256 7.80853 5.03772C7.74783 5.06288 7.69269 5.09976 7.64625 5.14625L6.14625 6.64625C6.05243 6.74007 5.99972 6.86732 5.99972 7C5.99972 7.13268 6.05243 7.25993 6.14625 7.35375C6.24007 7.44757 6.36732 7.50028 6.5 7.50028C6.63268 7.50028 6.75993 7.44757 6.85375 7.35375L7.5 6.70687V9.5C7.5 9.63261 7.55268 9.75979 7.64645 9.85355C7.74021 9.94732 7.86739 10 8 10C8.13261 10 8.25979 9.94732 8.35355 9.85355C8.44732 9.75979 8.5 9.63261 8.5 9.5V6.70687L9.14625 7.35375C9.1927 7.40021 9.24786 7.43706 9.30855 7.4622C9.36925 7.48734 9.4343 7.50028 9.5 7.50028C9.5657 7.50028 9.63075 7.48734 9.69145 7.4622C9.75214 7.43706 9.80729 7.40021 9.85375 7.35375C9.90021 7.3073 9.93705 7.25214 9.9622 7.19145C9.98734 7.13075 10.0003 7.0657 10.0003 7C10.0003 6.9343 9.98734 6.86925 9.9622 6.80855C9.93705 6.74786 9.90021 6.6927 9.85375 6.64625Z" fill="black"/>
</g>
<defs>
<clipPath id="clip0_5_567">
<rect width="16" height="16" fill="white"/>
</clipPath>
</defs>
</svg>
