<svg width="16" height="16" viewBox="0 0 16 16" fill="none" xmlns="http://www.w3.org/2000/svg">
<g clip-path="url(#clip0_5_1172)">
<path d="M14.7213 9.38808C14.3175 10.7062 13.5083 11.8634 12.4088 12.695C11.4434 13.4215 10.2947 13.8646 9.09155 13.9746C7.88837 14.0845 6.67836 13.8569 5.59733 13.3174C4.51631 12.7779 3.60705 11.9477 2.97162 10.9201C2.33619 9.89251 1.99974 8.70814 2.00003 7.49995C1.99569 6.08974 2.45413 4.71704 3.30503 3.59245C4.13662 2.49295 5.2938 1.68373 6.61191 1.27995C6.69878 1.2532 6.7913 1.25064 6.87952 1.27254C6.96774 1.29445 7.04832 1.33998 7.1126 1.40426C7.17687 1.46853 7.22241 1.54912 7.24431 1.63734C7.26622 1.72556 7.26366 1.81808 7.23691 1.90495C6.94868 2.85835 6.92452 3.87207 7.16698 4.83812C7.40945 5.80416 7.90946 6.68633 8.61375 7.39061C9.31803 8.09489 10.2002 8.59491 11.1662 8.83738C12.1323 9.07984 13.146 9.05568 14.0994 8.76745C14.1863 8.7407 14.2788 8.73814 14.367 8.76004C14.4552 8.78195 14.5358 8.82748 14.6001 8.89176C14.6644 8.95603 14.7099 9.03662 14.7318 9.12484C14.7537 9.21306 14.7512 9.30558 14.7244 9.39245L14.7213 9.38808Z" fill="black"/>
</g>
<defs>
<clipPath id="clip0_5_1172">
<rect width="16" height="16" fill="white"/>
</clipPath>
</defs>
</svg>
