<svg width="16" height="16" viewBox="0 0 16 16" fill="none" xmlns="http://www.w3.org/2000/svg">
<g clip-path="url(#clip0_5_565)">
<path d="M15 6C15 6.13261 14.9473 6.25979 14.8536 6.35355C14.7598 6.44732 14.6326 6.5 14.5 6.5H13.5V7.5C13.5 7.63261 13.4473 7.75979 13.3536 7.85355C13.2598 7.94732 13.1326 8 13 8C12.8674 8 12.7402 7.94732 12.6465 7.85355C12.5527 7.75979 12.5 7.63261 12.5 7.5V6.5H11.5C11.3674 6.5 11.2402 6.44732 11.1465 6.35355C11.0527 6.25979 11 6.13261 11 6C11 5.86739 11.0527 5.74021 11.1465 5.64645C11.2402 5.55268 11.3674 5.5 11.5 5.5H12.5V4.5C12.5 4.36739 12.5527 4.24021 12.6465 4.14645C12.7402 4.05268 12.8674 4 13 4C13.1326 4 13.2598 4.05268 13.3536 4.14645C13.4473 4.24021 13.5 4.36739 13.5 4.5V5.5H14.5C14.6326 5.5 14.7598 5.55268 14.8536 5.64645C14.9473 5.74021 15 5.86739 15 6ZM9.00003 3.5H9.50003V4C9.50003 4.13261 9.5527 4.25979 9.64647 4.35355C9.74024 4.44732 9.86742 4.5 10 4.5C10.1326 4.5 10.2598 4.44732 10.3536 4.35355C10.4473 4.25979 10.5 4.13261 10.5 4V3.5H11C11.1326 3.5 11.2598 3.44732 11.3536 3.35355C11.4473 3.25979 11.5 3.13261 11.5 3C11.5 2.86739 11.4473 2.74021 11.3536 2.64645C11.2598 2.55268 11.1326 2.5 11 2.5H10.5V2C10.5 1.86739 10.4473 1.74021 10.3536 1.64645C10.2598 1.55268 10.1326 1.5 10 1.5C9.86742 1.5 9.74024 1.55268 9.64647 1.64645C9.5527 1.74021 9.50003 1.86739 9.50003 2V2.5H9.00003C8.86742 2.5 8.74024 2.55268 8.64647 2.64645C8.5527 2.74021 8.50003 2.86739 8.50003 3C8.50003 3.13261 8.5527 3.25979 8.64647 3.35355C8.74024 3.44732 8.86742 3.5 9.00003 3.5ZM13.0713 9.39563C12.1844 9.57084 11.2681 9.52494 10.4032 9.26196C9.53826 8.99899 8.75143 8.52704 8.11221 7.88781C7.47299 7.24859 7.00104 6.46177 6.73806 5.59687C6.47509 4.73196 6.42918 3.81561 6.6044 2.92875C6.62156 2.84172 6.61527 2.75169 6.58615 2.66789C6.55703 2.5841 6.50615 2.50956 6.43871 2.45192C6.37128 2.39428 6.28973 2.35562 6.20242 2.33991C6.11511 2.3242 6.0252 2.33199 5.9419 2.3625C4.99511 2.70871 4.15081 3.28789 3.48697 4.04657C2.82313 4.80524 2.36116 5.71895 2.1437 6.70332C1.92624 7.68769 1.96031 8.71099 2.24277 9.67871C2.52523 10.6464 3.04696 11.5274 3.7598 12.2402C4.47264 12.9531 5.35359 13.4748 6.32132 13.7573C7.28904 14.0397 8.31233 14.0738 9.2967 13.8563C10.2811 13.6389 11.1948 13.1769 11.9535 12.5131C12.7121 11.8492 13.2913 11.0049 13.6375 10.0581C13.668 9.97483 13.6758 9.88491 13.6601 9.79761C13.6444 9.7103 13.6057 9.62875 13.5481 9.56131C13.4905 9.49388 13.4159 9.44299 13.3321 9.41388C13.2483 9.38476 13.1583 9.37846 13.0713 9.39563Z" fill="black"/>
</g>
<defs>
<clipPath id="clip0_5_565">
<rect width="16" height="16" fill="white"/>
</clipPath>
</defs>
</svg>
