<svg width="16" height="16" viewBox="0 0 16 16" fill="none" xmlns="http://www.w3.org/2000/svg">
<g clip-path="url(#clip0_5_1034)">
<path d="M13 2.49994H10.45C10.3352 1.9348 10.0286 1.42671 9.58213 1.06175C9.13562 0.696802 8.57668 0.497437 8 0.497437C7.42332 0.497437 6.86438 0.696802 6.41787 1.06175C5.97136 1.42671 5.66476 1.9348 5.55 2.49994H3C2.86739 2.49994 2.74021 2.55262 2.64645 2.64639C2.55268 2.74016 2.5 2.86733 2.5 2.99994C2.5 3.13255 2.55268 3.25973 2.64645 3.3535C2.74021 3.44726 2.86739 3.49994 3 3.49994H5.55C5.65839 4.02733 5.93415 4.50563 6.33625 4.86369C5.63985 5.18289 5.0496 5.69511 4.63551 6.33962C4.22142 6.98413 4.00087 7.73388 4 8.49994V12.4999C4 12.7652 4.10536 13.0195 4.29289 13.207C4.48043 13.3946 4.73478 13.4999 5 13.4999H6C6 14.0304 6.21071 14.5391 6.58579 14.9142C6.96086 15.2892 7.46957 15.4999 8 15.4999C8.53043 15.4999 9.03914 15.2892 9.41421 14.9142C9.78929 14.5391 10 14.0304 10 13.4999H11C11.2652 13.4999 11.5196 13.3946 11.7071 13.207C11.8946 13.0195 12 12.7652 12 12.4999V8.49994C11.9991 7.73388 11.7786 6.98413 11.3645 6.33962C10.9504 5.69511 10.3602 5.18289 9.66375 4.86369C10.0658 4.50563 10.3416 4.02733 10.45 3.49994H13C13.1326 3.49994 13.2598 3.44726 13.3536 3.3535C13.4473 3.25973 13.5 3.13255 13.5 2.99994C13.5 2.86733 13.4473 2.74016 13.3536 2.64639C13.2598 2.55262 13.1326 2.49994 13 2.49994ZM9 13.4999C9 13.7652 8.89464 14.0195 8.70711 14.207C8.51957 14.3946 8.26522 14.4999 8 14.4999C7.73478 14.4999 7.48043 14.3946 7.29289 14.207C7.10536 14.0195 7 13.7652 7 13.4999V10.4999C7 10.2347 7.10536 9.98037 7.29289 9.79284C7.48043 9.6053 7.73478 9.49994 8 9.49994C8.26522 9.49994 8.51957 9.6053 8.70711 9.79284C8.89464 9.98037 9 10.2347 9 10.4999V13.4999ZM8 4.49994C7.70333 4.49994 7.41332 4.41197 7.16664 4.24715C6.91997 4.08232 6.72771 3.84806 6.61418 3.57397C6.50065 3.29988 6.47094 2.99828 6.52882 2.70731C6.5867 2.41634 6.72956 2.14906 6.93934 1.93928C7.14912 1.7295 7.41639 1.58664 7.70736 1.52876C7.99834 1.47089 8.29994 1.50059 8.57403 1.61412C8.84811 1.72765 9.08238 1.91991 9.2472 2.16659C9.41203 2.41326 9.5 2.70327 9.5 2.99994C9.5 3.39777 9.34196 3.7793 9.06066 4.0606C8.77936 4.34191 8.39782 4.49994 8 4.49994Z" fill="black"/>
</g>
<defs>
<clipPath id="clip0_5_1034">
<rect width="16" height="16" fill="white"/>
</clipPath>
</defs>
</svg>
