<svg width="16" height="16" viewBox="0 0 16 16" fill="none" xmlns="http://www.w3.org/2000/svg">
<g clip-path="url(#clip0_5_1032)">
<path d="M14 8C13.8296 7.99995 13.6605 8.02913 13.5 8.08625V8C13.5 5.38875 11.5581 4.09625 10.14 3.1525C9.26 2.56625 8.5 2.0625 8.5 1.5C8.5 1.36739 8.44732 1.24021 8.35355 1.14645C8.25979 1.05268 8.13261 1 8 1C7.86739 1 7.74021 1.05268 7.64645 1.14645C7.55268 1.24021 7.5 1.36739 7.5 1.5C7.5 2.0625 6.74 2.56625 5.86 3.1525C4.44187 4.09625 2.5 5.38875 2.5 8V8.08625C2.27379 8.00627 2.0317 7.98173 1.79404 8.01467C1.55638 8.04762 1.33009 8.13709 1.13416 8.27559C0.938239 8.41408 0.778395 8.59755 0.668049 8.8106C0.557703 9.02365 0.500074 9.26007 0.5 9.5V13C0.5 13.1326 0.552678 13.2598 0.646447 13.3536C0.740215 13.4473 0.867392 13.5 1 13.5H4.5C4.63261 13.5 4.75979 13.4473 4.85355 13.3536C4.94732 13.2598 5 13.1326 5 13V11C5 10.7348 5.10536 10.4804 5.29289 10.2929C5.48043 10.1054 5.73478 10 6 10C6.26522 10 6.51957 10.1054 6.70711 10.2929C6.89464 10.4804 7 10.7348 7 11V13C7 13.1326 7.05268 13.2598 7.14645 13.3536C7.24021 13.4473 7.36739 13.5 7.5 13.5H8.5C8.63261 13.5 8.75979 13.4473 8.85355 13.3536C8.94732 13.2598 9 13.1326 9 13V11C9 10.7348 9.10536 10.4804 9.29289 10.2929C9.48043 10.1054 9.73478 10 10 10C10.2652 10 10.5196 10.1054 10.7071 10.2929C10.8946 10.4804 11 10.7348 11 11V13C11 13.1326 11.0527 13.2598 11.1464 13.3536C11.2402 13.4473 11.3674 13.5 11.5 13.5H15C15.1326 13.5 15.2598 13.4473 15.3536 13.3536C15.4473 13.2598 15.5 13.1326 15.5 13V9.5C15.5 9.10218 15.342 8.72064 15.0607 8.43934C14.7794 8.15804 14.3978 8 14 8ZM2.5 12.5H1.5V9.5C1.5 9.36739 1.55268 9.24021 1.64645 9.14645C1.74021 9.05268 1.86739 9 2 9C2.13261 9 2.25979 9.05268 2.35355 9.14645C2.44732 9.24021 2.5 9.36739 2.5 9.5V12.5ZM14.5 12.5H13.5V9.5C13.5 9.36739 13.5527 9.24021 13.6464 9.14645C13.7402 9.05268 13.8674 9 14 9C14.1326 9 14.2598 9.05268 14.3536 9.14645C14.4473 9.24021 14.5 9.36739 14.5 9.5V12.5Z" fill="black"/>
</g>
<defs>
<clipPath id="clip0_5_1032">
<rect width="16" height="16" fill="white"/>
</clipPath>
</defs>
</svg>
