<svg width="16" height="16" viewBox="0 0 16 16" fill="none" xmlns="http://www.w3.org/2000/svg">
<g clip-path="url(#clip0_5_1166)">
<path d="M15.9299 12.245L12.5199 6.49C12.432 6.34008 12.3062 6.2159 12.1552 6.1299C12.0041 6.04391 11.8331 5.99911 11.6593 6C11.4856 5.99909 11.3147 6.04389 11.1637 6.12989C11.0128 6.2159 10.8871 6.34009 10.7993 6.49L9.82182 8.13938C9.79906 8.1779 9.78705 8.22182 9.78705 8.26656C9.78705 8.31131 9.79906 8.35523 9.82182 8.39375L11.4968 11.2356C11.5604 11.3412 11.5835 11.4662 11.5618 11.5875C11.5401 11.7088 11.475 11.8181 11.3787 11.895C11.3226 11.9386 11.2578 11.9697 11.1887 11.9863C11.1196 12.0028 11.0478 12.0045 10.978 11.9911C10.9082 11.9778 10.8421 11.9497 10.784 11.9088C10.7259 11.8678 10.6772 11.815 10.6412 11.7538L6.36182 4.4925C6.27351 4.34241 6.14754 4.21799 5.99637 4.13154C5.84521 4.0451 5.67408 3.99962 5.49995 3.99962C5.32581 3.99962 5.15468 4.0451 5.00352 4.13154C4.85235 4.21799 4.72638 4.34241 4.63807 4.4925L0.0693203 12.2463C0.0141947 12.3389 -0.00950343 12.4469 0.00175985 12.5541C0.0130231 12.6614 0.0586444 12.7621 0.13182 12.8413C0.181094 12.8928 0.240541 12.9335 0.306388 12.9608C0.372235 12.9881 0.443043 13.0015 0.51432 13H15.4856C15.5565 13.0009 15.627 12.9873 15.6924 12.9598C15.7579 12.9324 15.8171 12.8918 15.8662 12.8406C15.9397 12.7615 15.9856 12.6608 15.9971 12.5534C16.0086 12.4461 15.9851 12.3379 15.9299 12.245ZM4.02682 7.5L5.49995 5L6.97307 7.5H4.02682ZM8.74995 3.25C8.74995 2.95333 8.83792 2.66332 9.00274 2.41665C9.16756 2.16997 9.40183 1.97771 9.67592 1.86418C9.95001 1.75065 10.2516 1.72094 10.5426 1.77882C10.8336 1.8367 11.1008 1.97956 11.3106 2.18934C11.5204 2.39912 11.6632 2.66639 11.7211 2.95737C11.779 3.24834 11.7493 3.54994 11.6358 3.82403C11.5222 4.09811 11.33 4.33238 11.0833 4.49721C10.8366 4.66203 10.5466 4.75 10.2499 4.75C9.85212 4.75 9.47059 4.59197 9.18929 4.31066C8.90798 4.02936 8.74995 3.64783 8.74995 3.25Z" fill="black"/>
</g>
<defs>
<clipPath id="clip0_5_1166">
<rect width="16" height="16" fill="white"/>
</clipPath>
</defs>
</svg>
