<svg width="16" height="16" viewBox="0 0 16 16" fill="none" xmlns="http://www.w3.org/2000/svg">
<g clip-path="url(#clip0_5_1162)">
<path d="M9 1H7C5.93949 1.00116 4.92275 1.42296 4.17285 2.17285C3.42296 2.92275 3.00116 3.93949 3 5V11C3.00116 12.0605 3.42296 13.0773 4.17285 13.8271C4.92275 14.577 5.93949 14.9988 7 15H9C10.0605 14.9988 11.0773 14.577 11.8271 13.8271C12.577 13.0773 12.9988 12.0605 13 11V5C12.9988 3.93949 12.577 2.92275 11.8271 2.17285C11.0773 1.42296 10.0605 1.00116 9 1ZM7 2H8V6.5H4V5C4.00083 4.2046 4.31716 3.44202 4.87959 2.87959C5.44202 2.31716 6.2046 2.00083 7 2ZM9 14H7C6.2046 13.9992 5.44202 13.6828 4.87959 13.1204C4.31716 12.558 4.00083 11.7954 4 11V7.5H12V11C11.9992 11.7954 11.6828 12.558 11.1204 13.1204C10.558 13.6828 9.7954 13.9992 9 14Z" fill="black"/>
</g>
<defs>
<clipPath id="clip0_5_1162">
<rect width="16" height="16" fill="white"/>
</clipPath>
</defs>
</svg>
