<svg width="16" height="16" viewBox="0 0 16 16" fill="none" xmlns="http://www.w3.org/2000/svg">
<g clip-path="url(#clip0_5_1030)">
<path d="M9 1H7C5.93949 1.00116 4.92275 1.42296 4.17285 2.17285C3.42296 2.92275 3.00116 3.93949 3 5V11C3.00116 12.0605 3.42296 13.0773 4.17285 13.8271C4.92275 14.577 5.93949 14.9988 7 15H9C10.0605 14.9988 11.0773 14.577 11.8271 13.8271C12.577 13.0773 12.9988 12.0605 13 11V5C12.9988 3.93949 12.577 2.92275 11.8271 2.17285C11.0773 1.42296 10.0605 1.00116 9 1ZM12 5V6.5H8.5V2H9C9.7954 2.00083 10.558 2.31716 11.1204 2.87959C11.6828 3.44202 11.9992 4.2046 12 5ZM7 2H7.5V6.5H4V5C4.00083 4.2046 4.31716 3.44202 4.87959 2.87959C5.44202 2.31716 6.2046 2.00083 7 2Z" fill="black"/>
</g>
<defs>
<clipPath id="clip0_5_1030">
<rect width="16" height="16" fill="white"/>
</clipPath>
</defs>
</svg>
