<svg width="16" height="16" viewBox="0 0 16 16" fill="none" xmlns="http://www.w3.org/2000/svg">
<g clip-path="url(#clip0_5_1024)">
<path d="M9 1H7C5.93949 1.00116 4.92275 1.42296 4.17285 2.17285C3.42296 2.92275 3.00116 3.93949 3 5V11C3.00116 12.0605 3.42296 13.0773 4.17285 13.8271C4.92275 14.577 5.93949 14.9988 7 15H9C10.0605 14.9988 11.0773 14.577 11.8271 13.8271C12.577 13.0773 12.9988 12.0605 13 11V5C12.9988 3.93949 12.577 2.92275 11.8271 2.17285C11.0773 1.42296 10.0605 1.00116 9 1ZM9.14625 10.1462C9.24007 10.0524 9.36732 9.99972 9.5 9.99972C9.63268 9.99972 9.75993 10.0524 9.85375 10.1462C9.94757 10.2401 10.0003 10.3673 10.0003 10.5C10.0003 10.6327 9.94757 10.7599 9.85375 10.8538L8.35375 12.3538C8.30731 12.4002 8.25217 12.4371 8.19147 12.4623C8.13077 12.4874 8.06571 12.5004 8 12.5004C7.93429 12.5004 7.86923 12.4874 7.80853 12.4623C7.74783 12.4371 7.69269 12.4002 7.64625 12.3538L6.14625 10.8538C6.05243 10.7599 5.99972 10.6327 5.99972 10.5C5.99972 10.3673 6.05243 10.2401 6.14625 10.1462C6.24007 10.0524 6.36732 9.99972 6.5 9.99972C6.63268 9.99972 6.75993 10.0524 6.85375 10.1462L7.5 10.7931V5.20687L6.85375 5.85375C6.75993 5.94757 6.63268 6.00028 6.5 6.00028C6.36732 6.00028 6.24007 5.94757 6.14625 5.85375C6.05243 5.75993 5.99972 5.63268 5.99972 5.5C5.99972 5.36732 6.05243 5.24007 6.14625 5.14625L7.64625 3.64625C7.69269 3.59976 7.74783 3.56288 7.80853 3.53772C7.86923 3.51256 7.93429 3.49961 8 3.49961C8.06571 3.49961 8.13077 3.51256 8.19147 3.53772C8.25217 3.56288 8.30731 3.59976 8.35375 3.64625L9.85375 5.14625C9.90021 5.1927 9.93706 5.24786 9.9622 5.30855C9.98734 5.36925 10.0003 5.4343 10.0003 5.5C10.0003 5.5657 9.98734 5.63075 9.9622 5.69145C9.93706 5.75214 9.90021 5.8073 9.85375 5.85375C9.8073 5.90021 9.75214 5.93706 9.69145 5.9622C9.63075 5.98734 9.5657 6.00028 9.5 6.00028C9.4343 6.00028 9.36925 5.98734 9.30855 5.9622C9.24786 5.93706 9.1927 5.90021 9.14625 5.85375L8.5 5.20687V10.7931L9.14625 10.1462Z" fill="black"/>
</g>
<defs>
<clipPath id="clip0_5_1024">
<rect width="16" height="16" fill="white"/>
</clipPath>
</defs>
</svg>
