<svg width="16" height="16" viewBox="0 0 16 16" fill="none" xmlns="http://www.w3.org/2000/svg">
<g clip-path="url(#clip0_5_1654)">
<path d="M9 1H7C5.93949 1.00116 4.92275 1.42296 4.17285 2.17285C3.42296 2.92275 3.00116 3.93949 3 5V11C3.00116 12.0605 3.42296 13.0773 4.17285 13.8271C4.92275 14.577 5.93949 14.9988 7 15H9C10.0605 14.9988 11.0773 14.577 11.8271 13.8271C12.577 13.0773 12.9988 12.0605 13 11V5C12.9988 3.93949 12.577 2.92275 11.8271 2.17285C11.0773 1.42296 10.0605 1.00116 9 1ZM8.5 7C8.5 7.13261 8.44732 7.25979 8.35355 7.35355C8.25979 7.44732 8.13261 7.5 8 7.5C7.86739 7.5 7.74021 7.44732 7.64645 7.35355C7.55268 7.25979 7.5 7.13261 7.5 7V4C7.5 3.86739 7.55268 3.74021 7.64645 3.64645C7.74021 3.55268 7.86739 3.5 8 3.5C8.13261 3.5 8.25979 3.55268 8.35355 3.64645C8.44732 3.74021 8.5 3.86739 8.5 4V7Z" fill="black"/>
</g>
<defs>
<clipPath id="clip0_5_1654">
<rect width="16" height="16" fill="white"/>
</clipPath>
</defs>
</svg>
