<svg width="16" height="16" viewBox="0 0 16 16" fill="none" xmlns="http://www.w3.org/2000/svg">
<g clip-path="url(#clip0_5_1453)">
<path d="M14 2.5H11C10.8674 2.5 10.7402 2.55268 10.6464 2.64645C10.5527 2.74021 10.5 2.86739 10.5 3C10.5 3.13261 10.5527 3.25979 10.6464 3.35355C10.7402 3.44732 10.8674 3.5 11 3.5H14C14.1326 3.5 14.2598 3.44732 14.3536 3.35355C14.4473 3.25979 14.5 3.13261 14.5 3C14.5 2.86739 14.4473 2.74021 14.3536 2.64645C14.2598 2.55268 14.1326 2.5 14 2.5Z" fill="black"/>
<path d="M10.1331 4.78121C9.69385 4.57454 9.34617 4.21318 9.1566 3.76625C8.96704 3.31931 8.94889 2.81818 9.10564 2.35871C9.12037 2.31643 9.12347 2.27097 9.11462 2.22709C9.10577 2.1832 9.08531 2.1425 9.05536 2.10923C9.0254 2.07596 8.98707 2.05134 8.94435 2.03794C8.90163 2.02455 8.8561 2.02287 8.81252 2.03308L4.87877 3.01558C4.7707 3.04259 4.67475 3.10492 4.60614 3.19267C4.53752 3.28042 4.50017 3.38857 4.50002 3.49996V10.3812C4.20704 10.1848 3.872 10.06 3.52193 10.017C3.17186 9.97391 2.81656 10.0137 2.48472 10.1333C2.15288 10.2528 1.85379 10.4487 1.61158 10.7051C1.36937 10.9615 1.19084 11.2712 1.09038 11.6093C0.989923 11.9474 0.970361 12.3044 1.03327 12.6515C1.09618 12.9985 1.2398 13.3259 1.45254 13.6073C1.66528 13.8886 1.94119 14.116 2.25798 14.271C2.57477 14.4261 2.92359 14.5045 3.27627 14.5C4.51564 14.4856 5.50002 13.4456 5.50002 12.2062V6.39058L10.0788 5.24621C10.1282 5.23399 10.1727 5.20699 10.2063 5.16881C10.24 5.13064 10.2612 5.0831 10.2671 5.03255C10.273 4.982 10.2633 4.93085 10.2394 4.88594C10.2155 4.84103 10.1784 4.80449 10.1331 4.78121Z" fill="black"/>
<path d="M13.25 5H12.75C12.6837 5 12.6201 5.02634 12.5732 5.07322C12.5264 5.12011 12.5 5.1837 12.5 5.25V8.38125C12.207 8.18486 11.872 8.06009 11.5219 8.01702C11.1719 7.97396 10.8166 8.01379 10.4847 8.13332C10.1529 8.25284 9.85379 8.44871 9.61158 8.70511C9.36937 8.96151 9.19084 9.27126 9.09038 9.60936C8.98992 9.94747 8.97036 10.3044 9.03327 10.6515C9.09618 10.9986 9.2398 11.326 9.45254 11.6073C9.66528 11.8886 9.94119 12.116 10.258 12.2711C10.5748 12.4261 10.9236 12.5046 11.2763 12.5C12.5156 12.4856 13.5 11.4462 13.5 10.2063V5.25C13.5 5.1837 13.4737 5.12011 13.4268 5.07322C13.3799 5.02634 13.3163 5 13.25 5Z" fill="black"/>
</g>
<defs>
<clipPath id="clip0_5_1453">
<rect width="16" height="16" fill="white"/>
</clipPath>
</defs>
</svg>
