<svg width="16" height="16" viewBox="0 0 16 16" fill="none" xmlns="http://www.w3.org/2000/svg">
<g clip-path="url(#clip0_5_1458)">
<path d="M13.1438 3.52123L8.14375 2.02123C8.0691 1.99882 7.99025 1.99418 7.91348 2.00766C7.83672 2.02115 7.76417 2.0524 7.70162 2.09891C7.63908 2.14542 7.58828 2.20591 7.55327 2.27555C7.51827 2.34518 7.50002 2.42204 7.5 2.49998V9.26623C6.98794 8.80823 6.3342 8.53986 5.64804 8.50596C4.96188 8.47205 4.28487 8.67468 3.73016 9.07998C3.17545 9.48527 2.77664 10.0687 2.6004 10.7327C2.42416 11.3967 2.48115 12.1011 2.76186 12.7281C3.04257 13.3551 3.52998 13.8668 4.14264 14.1777C4.7553 14.4885 5.45608 14.5796 6.12787 14.4359C6.79965 14.2921 7.40174 13.9221 7.8335 13.3877C8.26526 12.8533 8.50053 12.187 8.5 11.5V3.17186L12.8563 4.47873C12.9196 4.49937 12.9865 4.50713 13.0529 4.50157C13.1193 4.496 13.1839 4.47722 13.2429 4.44632C13.302 4.41543 13.3542 4.37304 13.3967 4.32166C13.4391 4.27027 13.4708 4.21093 13.49 4.1471C13.5091 4.08328 13.5154 4.01627 13.5083 3.95002C13.5012 3.88376 13.4809 3.81959 13.4486 3.76128C13.4164 3.70297 13.3728 3.6517 13.3204 3.61048C13.2681 3.56925 13.208 3.53891 13.1438 3.52123Z" fill="black"/>
</g>
<defs>
<clipPath id="clip0_5_1458">
<rect width="16" height="16" fill="white"/>
</clipPath>
</defs>
</svg>
