<svg width="16" height="16" viewBox="0 0 16 16" fill="none" xmlns="http://www.w3.org/2000/svg">
<g clip-path="url(#clip0_5_1455)">
<path d="M13.3075 1.10693C13.2479 1.05969 13.1782 1.02688 13.1038 1.01105C13.0294 0.995217 12.9524 0.996803 12.8788 1.01568L4.87875 3.01568C4.77069 3.04269 4.67473 3.10502 4.60612 3.19277C4.53751 3.28052 4.50016 3.38867 4.5 3.50006V10.3813C4.08285 10.1026 3.58452 9.97128 3.08419 10.0083C2.58386 10.0452 2.11024 10.2484 1.73859 10.5854C1.36694 10.9224 1.11858 11.3739 1.03299 11.8683C0.947397 12.3626 1.02947 12.8714 1.26618 13.3137C1.50289 13.7561 1.88064 14.1066 2.33941 14.3096C2.79819 14.5127 3.31166 14.5566 3.79823 14.4343C4.28481 14.3121 4.71657 14.0307 5.0249 13.635C5.33324 13.2392 5.50047 12.7518 5.5 12.2501V6.39068L12.5 4.64068V8.38131C12.0829 8.10259 11.5845 7.97128 11.0842 8.00825C10.5839 8.04523 10.1102 8.24836 9.73859 8.58537C9.36694 8.92237 9.11858 9.37393 9.03299 9.86827C8.9474 10.3626 9.02947 10.8714 9.26618 11.3137C9.50289 11.7561 9.88064 12.1066 10.3394 12.3096C10.7982 12.5127 11.3117 12.5566 11.7982 12.4343C12.2848 12.3121 12.7166 12.0307 13.0249 11.635C13.3332 11.2392 13.5005 10.7518 13.5 10.2501V1.50006C13.4998 1.42422 13.4824 1.34942 13.4491 1.28131C13.4157 1.2132 13.3673 1.15357 13.3075 1.10693Z" fill="black"/>
</g>
<defs>
<clipPath id="clip0_5_1455">
<rect width="16" height="16" fill="white"/>
</clipPath>
</defs>
</svg>
