<svg width="16" height="16" viewBox="0 0 16 16" fill="none" xmlns="http://www.w3.org/2000/svg">
<g clip-path="url(#clip0_5_1451)">
<path d="M14.5 3C14.5 3.13261 14.4473 3.25979 14.3536 3.35355C14.2598 3.44732 14.1326 3.5 14 3.5H13V4.5C13 4.63261 12.9473 4.75979 12.8536 4.85355C12.7598 4.94732 12.6326 5 12.5 5C12.3674 5 12.2402 4.94732 12.1465 4.85355C12.0527 4.75979 12 4.63261 12 4.5V3.5H11C10.8674 3.5 10.7402 3.44732 10.6465 3.35355C10.5527 3.25979 10.5 3.13261 10.5 3C10.5 2.86739 10.5527 2.74021 10.6465 2.64645C10.7402 2.55268 10.8674 2.5 11 2.5H12V1.5C12 1.36739 12.0527 1.24021 12.1465 1.14645C12.2402 1.05268 12.3674 1 12.5 1C12.6326 1 12.7598 1.05268 12.8536 1.14645C12.9473 1.24021 13 1.36739 13 1.5V2.5H14C14.1326 2.5 14.2598 2.55268 14.3536 2.64645C14.4473 2.74021 14.5 2.86739 14.5 3ZM10.0375 4.86625L9.61502 4.44375C9.24652 4.08347 9.02699 3.59778 9.00002 3.08313C8.98923 2.83583 9.02462 2.5887 9.10439 2.35437C9.11845 2.31192 9.12087 2.26648 9.11139 2.22278C9.10191 2.17908 9.08088 2.13872 9.0505 2.10591C9.02011 2.0731 8.98148 2.04904 8.93864 2.03624C8.89579 2.02344 8.8503 2.02236 8.80689 2.03312L4.87877 3.01562C4.7707 3.04264 4.67475 3.10496 4.60614 3.19271C4.53752 3.28046 4.50017 3.38861 4.50002 3.5V10.3813C4.20704 10.1849 3.872 10.0601 3.52193 10.017C3.17186 9.97396 2.81656 10.0138 2.48472 10.1333C2.15288 10.2528 1.85379 10.4487 1.61158 10.7051C1.36937 10.9615 1.19084 11.2713 1.09038 11.6094C0.989923 11.9475 0.970361 12.3044 1.03327 12.6515C1.09618 12.9986 1.2398 13.326 1.45254 13.6073C1.66528 13.8886 1.94119 14.116 2.25798 14.2711C2.57477 14.4261 2.92359 14.5046 3.27627 14.5C4.51564 14.4856 5.50002 13.4456 5.50002 12.2063V6.39062L9.92127 5.285C9.96409 5.27423 10.0033 5.25231 10.0349 5.22147C10.0665 5.19063 10.0894 5.15197 10.1012 5.10943C10.113 5.06689 10.1133 5.02197 10.1021 4.97926C10.0909 4.93655 10.0687 4.89755 10.0375 4.86625ZM13.1694 6.38562C13.025 6.4366 12.8753 6.47078 12.7231 6.4875C12.6616 6.49415 12.6047 6.5234 12.5635 6.56958C12.5223 6.61577 12.4997 6.6756 12.5 6.7375V8.38125C12.207 8.18486 11.872 8.06009 11.5219 8.01702C11.1719 7.97396 10.8166 8.01379 10.4847 8.13332C10.1529 8.25284 9.85379 8.44871 9.61158 8.70511C9.36937 8.96151 9.19084 9.27126 9.09038 9.60936C8.98992 9.94747 8.97036 10.3044 9.03327 10.6515C9.09618 10.9986 9.2398 11.326 9.45254 11.6073C9.66529 11.8886 9.94118 12.116 10.258 12.2711C10.5748 12.4261 10.9236 12.5046 11.2763 12.5C12.5156 12.4856 13.5 11.4462 13.5 10.2063V6.625C13.5005 6.58502 13.4913 6.54551 13.4733 6.5098C13.4553 6.47409 13.429 6.44321 13.3966 6.41976C13.3643 6.39632 13.3267 6.38098 13.2872 6.37504C13.2476 6.3691 13.2072 6.37273 13.1694 6.38562Z" fill="black"/>
</g>
<defs>
<clipPath id="clip0_5_1451">
<rect width="16" height="16" fill="white"/>
</clipPath>
</defs>
</svg>
