<svg width="16" height="16" viewBox="0 0 16 16" fill="none" xmlns="http://www.w3.org/2000/svg">
<g clip-path="url(#clip0_5_1447)">
<path d="M13.3075 1.10559C13.2476 1.05893 13.1779 1.02651 13.1036 1.01081C13.0293 0.995106 12.9524 0.996529 12.8788 1.01497L4.87875 3.01497C4.77058 3.04201 4.67455 3.10443 4.60593 3.1923C4.5373 3.28018 4.50002 3.38847 4.5 3.49997V10.38C4.0829 10.1013 3.58462 9.96997 3.08434 10.0069C2.58407 10.0438 2.11048 10.2469 1.73882 10.5838C1.36716 10.9207 1.11876 11.3722 1.03307 11.8665C0.947383 12.3607 1.02933 12.8695 1.26589 13.3118C1.50244 13.7542 1.88004 14.1048 2.3387 14.308C2.79735 14.5112 3.31075 14.5552 3.79732 14.4332C4.28389 14.3112 4.71573 14.0301 5.02423 13.6345C5.33273 13.2389 5.50019 12.7516 5.5 12.25V3.89059L12.5 2.14059V8.37997C12.0829 8.10128 11.5846 7.96997 11.0843 8.00691C10.5841 8.04384 10.1105 8.2469 9.73882 8.58382C9.36716 8.92074 9.11876 9.3722 9.03307 9.86646C8.94738 10.3607 9.02933 10.8695 9.26589 11.3118C9.50244 11.7542 9.88004 12.1048 10.3387 12.308C10.7974 12.5112 11.3107 12.5552 11.7973 12.4332C12.2839 12.3112 12.7157 12.0301 13.0242 11.6345C13.3327 11.2389 13.5002 10.7516 13.5 10.25V1.49997C13.5 1.42392 13.4827 1.34887 13.4493 1.28053C13.416 1.21219 13.3675 1.15236 13.3075 1.10559Z" fill="black"/>
</g>
<defs>
<clipPath id="clip0_5_1447">
<rect width="16" height="16" fill="white"/>
</clipPath>
</defs>
</svg>
