<svg width="16" height="16" viewBox="0 0 16 16" fill="none" xmlns="http://www.w3.org/2000/svg">
<g clip-path="url(#clip0_5_1449)">
<path d="M15.5 7.59874C15.4985 7.81002 15.4291 8.01522 15.302 8.18403C15.1749 8.35284 14.997 8.47632 14.7944 8.53624L14.7819 8.53999L9.90686 9.90499L8.54186 14.78L8.53811 14.7925C8.4781 14.9951 8.35459 15.173 8.1858 15.3C8.01701 15.4271 7.81186 15.4965 7.60061 15.4981H7.58186C7.3747 15.5001 7.17219 15.4367 7.00311 15.3169C6.83403 15.1972 6.70697 15.0273 6.63998 14.8312L2.56248 3.83812C2.56116 3.83488 2.56012 3.83153 2.55936 3.82812C2.49842 3.65114 2.48838 3.46061 2.53038 3.2782C2.57237 3.0958 2.66472 2.92884 2.79691 2.79633C2.9291 2.66381 3.09583 2.57106 3.27813 2.52861C3.46043 2.48617 3.65098 2.49574 3.82811 2.55624L3.83811 2.55937L14.8331 6.63812C15.0322 6.70617 15.2043 6.8361 15.3243 7.00893C15.4443 7.18176 15.5058 7.38843 15.5 7.59874Z" fill="black"/>
</g>
<defs>
<clipPath id="clip0_5_1449">
<rect width="16" height="16" fill="white"/>
</clipPath>
</defs>
</svg>
