<svg width="16" height="16" viewBox="0 0 16 16" fill="none" xmlns="http://www.w3.org/2000/svg">
<g clip-path="url(#clip0_5_561)">
<path d="M13.2675 2.73245C12.7987 2.26378 12.1629 2.00049 11.5 2.00049C10.8371 2.00049 10.2013 2.26378 9.73247 2.73245L8.23247 4.23245C8.15936 4.30548 8.11067 4.39937 8.0931 4.5012C7.5431 7.70495 2.24997 13.0456 2.14747 13.1456C2.05365 13.2393 2.00091 13.3665 2.00085 13.4991C2.0008 13.6317 2.05342 13.7589 2.14716 13.8528C2.2409 13.9466 2.36807 13.9993 2.50069 13.9994C2.63331 13.9994 2.76053 13.9468 2.85435 13.8531C2.9081 13.7987 8.28122 8.4587 11.4993 7.9062C11.6012 7.88863 11.6951 7.83994 11.7681 7.76683L13.2681 6.26683C13.7368 5.79801 14.0001 5.16224 14.0001 4.49933C14.0001 3.83642 13.7368 3.20065 13.2681 2.73183L13.2675 2.73245ZM11.8537 4.8537L10.8537 5.8537C10.7599 5.94753 10.6327 6.00023 10.5 6.00023C10.3673 6.00023 10.24 5.94753 10.1462 5.8537C10.0524 5.75988 9.9997 5.63264 9.9997 5.49995C9.9997 5.36727 10.0524 5.24002 10.1462 5.1462L11.1462 4.1462C11.24 4.05238 11.3673 3.99968 11.5 3.99968C11.6327 3.99968 11.7599 4.05238 11.8537 4.1462C11.9475 4.24002 12.0003 4.36727 12.0003 4.49995C12.0003 4.63264 11.9475 4.75988 11.8537 4.8537Z" fill="black"/>
</g>
<defs>
<clipPath id="clip0_5_561">
<rect width="16" height="16" fill="white"/>
</clipPath>
</defs>
</svg>
