<svg width="16" height="16" viewBox="0 0 16 16" fill="none" xmlns="http://www.w3.org/2000/svg">
<g clip-path="url(#clip0_5_1431)">
<path d="M6.13 3.71312C6.04593 3.62063 5.99955 3.5 6 3.375V2.5C6 2.23478 6.10536 1.98043 6.29289 1.79289C6.48043 1.60536 6.73478 1.5 7 1.5H9C9.26522 1.5 9.51957 1.60536 9.70711 1.79289C9.89464 1.98043 10 2.23478 10 2.5V4.5C10 4.76522 9.89464 5.01957 9.70711 5.20711C9.51957 5.39464 9.26522 5.5 9 5.5H7.97563C7.90595 5.49999 7.83704 5.48542 7.77332 5.45722C7.7096 5.42902 7.65248 5.38782 7.60563 5.33625L6.13 3.71312ZM3.37 2.16375C3.32609 2.11425 3.27279 2.07397 3.2132 2.04522C3.15361 2.01647 3.0889 1.99984 3.02283 1.99629C2.95676 1.99273 2.89064 2.00233 2.82831 2.02451C2.76597 2.0467 2.70866 2.08104 2.65969 2.12554C2.61073 2.17004 2.57108 2.22381 2.54305 2.28375C2.51502 2.34368 2.49917 2.40858 2.4964 2.47469C2.49364 2.5408 2.50403 2.6068 2.52696 2.66886C2.54989 2.73093 2.58492 2.78782 2.63 2.83625L6.415 7H1.5C1.36739 7 1.24021 7.05268 1.14645 7.14645C1.05268 7.24021 1 7.36739 1 7.5C1 7.63261 1.05268 7.75979 1.14645 7.85355C1.24021 7.94732 1.36739 8 1.5 8H3.5V10H3C2.73478 10 2.48043 10.1054 2.29289 10.2929C2.10536 10.4804 2 10.7348 2 11V13C2 13.2652 2.10536 13.5196 2.29289 13.7071C2.48043 13.8946 2.73478 14 3 14H5C5.26522 14 5.51957 13.8946 5.70711 13.7071C5.89464 13.5196 6 13.2652 6 13V11C6 10.7348 5.89464 10.4804 5.70711 10.2929C5.51957 10.1054 5.26522 10 5 10H4.5V8H7.32438L12.63 13.8363C12.6739 13.8857 12.7272 13.926 12.7868 13.9548C12.8464 13.9835 12.9111 14.0002 12.9772 14.0037C13.0432 14.0073 13.1094 13.9977 13.1717 13.9755C13.234 13.9533 13.2913 13.919 13.3403 13.8745C13.3893 13.83 13.4289 13.7762 13.4569 13.7163C13.485 13.6563 13.5008 13.5914 13.5036 13.5253C13.5064 13.4592 13.496 13.3932 13.473 13.3311C13.4501 13.2691 13.4151 13.2122 13.37 13.1637L3.37 2.16375ZM14.5 7H10.25C10.1174 7 9.99021 7.05268 9.89645 7.14645C9.80268 7.24021 9.75 7.36739 9.75 7.5C9.75 7.63261 9.80268 7.75979 9.89645 7.85355C9.99021 7.94732 10.1174 8 10.25 8H11.5V9.42688C11.5 9.55948 11.5527 9.68666 11.6464 9.78043C11.7402 9.8742 11.8674 9.92688 12 9.92688C12.1326 9.92688 12.2598 9.8742 12.3536 9.78043C12.4473 9.68666 12.5 9.55948 12.5 9.42688V8H14.5C14.6326 8 14.7598 7.94732 14.8536 7.85355C14.9473 7.75979 15 7.63261 15 7.5C15 7.36739 14.9473 7.24021 14.8536 7.14645C14.7598 7.05268 14.6326 7 14.5 7Z" fill="black"/>
</g>
<defs>
<clipPath id="clip0_5_1431">
<rect width="16" height="16" fill="white"/>
</clipPath>
</defs>
</svg>
