<svg width="16" height="16" viewBox="0 0 16 16" fill="none" xmlns="http://www.w3.org/2000/svg">
<g clip-path="url(#clip0_5_1433)">
<path d="M15 7.5C15 7.63261 14.9473 7.75979 14.8536 7.85355C14.7598 7.94732 14.6326 8 14.5 8H12.5V9C12.5 9.13261 12.4473 9.25979 12.3536 9.35355C12.2598 9.44732 12.1326 9.5 12 9.5C11.8674 9.5 11.7402 9.44732 11.6464 9.35355C11.5527 9.25979 11.5 9.13261 11.5 9V8H4.5V10H5C5.26522 10 5.51957 10.1054 5.70711 10.2929C5.89464 10.4804 6 10.7348 6 11V13C6 13.2652 5.89464 13.5196 5.70711 13.7071C5.51957 13.8946 5.26522 14 5 14H3C2.73478 14 2.48043 13.8946 2.29289 13.7071C2.10536 13.5196 2 13.2652 2 13V11C2 10.7348 2.10536 10.4804 2.29289 10.2929C2.48043 10.1054 2.73478 10 3 10H3.5V8H1.5C1.36739 8 1.24021 7.94732 1.14645 7.85355C1.05268 7.75979 1 7.63261 1 7.5C1 7.36739 1.05268 7.24021 1.14645 7.14645C1.24021 7.05268 1.36739 7 1.5 7H7.5V5.5H7C6.73478 5.5 6.48043 5.39464 6.29289 5.20711C6.10536 5.01957 6 4.76522 6 4.5V2.5C6 2.23478 6.10536 1.98043 6.29289 1.79289C6.48043 1.60536 6.73478 1.5 7 1.5H9C9.26522 1.5 9.51957 1.60536 9.70711 1.79289C9.89464 1.98043 10 2.23478 10 2.5V4.5C10 4.76522 9.89464 5.01957 9.70711 5.20711C9.51957 5.39464 9.26522 5.5 9 5.5H8.5V7H14.5C14.6326 7 14.7598 7.05268 14.8536 7.14645C14.9473 7.24021 15 7.36739 15 7.5ZM13.8538 10.1462C13.8073 10.0998 13.7522 10.0629 13.6915 10.0377C13.6308 10.0126 13.5657 9.99961 13.5 9.99961C13.4343 9.99961 13.3692 10.0126 13.3085 10.0377C13.2478 10.0629 13.1927 10.0998 13.1462 10.1462L12 11.2931L10.8538 10.1462C10.7599 10.0524 10.6327 9.99972 10.5 9.99972C10.3673 9.99972 10.2401 10.0524 10.1462 10.1462C10.0524 10.2401 9.99972 10.3673 9.99972 10.5C9.99972 10.6327 10.0524 10.7599 10.1462 10.8538L11.2931 12L10.1462 13.1462C10.0524 13.2401 9.99972 13.3673 9.99972 13.5C9.99972 13.6327 10.0524 13.7599 10.1462 13.8538C10.2401 13.9476 10.3673 14.0003 10.5 14.0003C10.6327 14.0003 10.7599 13.9476 10.8538 13.8538L12 12.7069L13.1462 13.8538C13.1927 13.9002 13.2479 13.9371 13.3086 13.9622C13.3692 13.9873 13.4343 14.0003 13.5 14.0003C13.5657 14.0003 13.6308 13.9873 13.6914 13.9622C13.7521 13.9371 13.8073 13.9002 13.8538 13.8538C13.9002 13.8073 13.9371 13.7521 13.9622 13.6914C13.9873 13.6308 14.0003 13.5657 14.0003 13.5C14.0003 13.4343 13.9873 13.3692 13.9622 13.3086C13.9371 13.2479 13.9002 13.1927 13.8538 13.1462L12.7069 12L13.8538 10.8538C13.9002 10.8073 13.9371 10.7522 13.9623 10.6915C13.9874 10.6308 14.0004 10.5657 14.0004 10.5C14.0004 10.4343 13.9874 10.3692 13.9623 10.3085C13.9371 10.2478 13.9002 10.1927 13.8538 10.1462Z" fill="black"/>
</g>
<defs>
<clipPath id="clip0_5_1433">
<rect width="16" height="16" fill="white"/>
</clipPath>
</defs>
</svg>
