<svg width="16" height="16" viewBox="0 0 16 16" fill="none" xmlns="http://www.w3.org/2000/svg">
<g clip-path="url(#clip0_5_1416)">
<path d="M13.5 3H3.5C3.23478 3 2.98043 3.10536 2.79289 3.29289C2.60536 3.48043 2.5 3.73478 2.5 4V11.5C2.5 11.6326 2.44732 11.7598 2.35355 11.8536C2.25979 11.9473 2.13261 12 2 12C1.86739 12 1.74021 11.9473 1.64645 11.8536C1.55268 11.7598 1.5 11.6326 1.5 11.5V5.5C1.5 5.36739 1.44732 5.24021 1.35355 5.14645C1.25979 5.05268 1.13261 5 1 5C0.867392 5 0.740215 5.05268 0.646447 5.14645C0.552678 5.24021 0.5 5.36739 0.5 5.5V11.5069C0.501818 11.9035 0.660655 12.2833 0.941763 12.5631C1.22287 12.8429 1.60336 13 2 13H13C13.3978 13 13.7794 12.842 14.0607 12.5607C14.342 12.2794 14.5 11.8978 14.5 11.5V4C14.5 3.73478 14.3946 3.48043 14.2071 3.29289C14.0196 3.10536 13.7652 3 13.5 3ZM11 9.5H6C5.86739 9.5 5.74021 9.44732 5.64645 9.35355C5.55268 9.25979 5.5 9.13261 5.5 9C5.5 8.86739 5.55268 8.74021 5.64645 8.64645C5.74021 8.55268 5.86739 8.5 6 8.5H11C11.1326 8.5 11.2598 8.55268 11.3536 8.64645C11.4473 8.74021 11.5 8.86739 11.5 9C11.5 9.13261 11.4473 9.25979 11.3536 9.35355C11.2598 9.44732 11.1326 9.5 11 9.5ZM11 7.5H6C5.86739 7.5 5.74021 7.44732 5.64645 7.35355C5.55268 7.25979 5.5 7.13261 5.5 7C5.5 6.86739 5.55268 6.74021 5.64645 6.64645C5.74021 6.55268 5.86739 6.5 6 6.5H11C11.1326 6.5 11.2598 6.55268 11.3536 6.64645C11.4473 6.74021 11.5 6.86739 11.5 7C11.5 7.13261 11.4473 7.25979 11.3536 7.35355C11.2598 7.44732 11.1326 7.5 11 7.5Z" fill="black"/>
</g>
<defs>
<clipPath id="clip0_5_1416">
<rect width="16" height="16" fill="white"/>
</clipPath>
</defs>
</svg>
