<svg width="16" height="16" viewBox="0 0 16 16" fill="none" xmlns="http://www.w3.org/2000/svg">
<g clip-path="url(#clip0_5_560)">
<path d="M13.5 2.5H2.5C2.23478 2.5 1.98043 2.60536 1.79289 2.79289C1.60536 2.98043 1.5 3.23478 1.5 3.5V13.5C1.50005 13.5852 1.52187 13.669 1.56341 13.7434C1.60494 13.8178 1.66481 13.8804 1.73732 13.9252C1.80983 13.9699 1.89258 13.9954 1.97771 13.9992C2.06285 14.003 2.14754 13.985 2.22375 13.9469L4 13.0588L5.77625 13.9469C5.84572 13.9816 5.92232 13.9997 6 13.9997C6.07768 13.9997 6.15428 13.9816 6.22375 13.9469L8 13.0588L9.77625 13.9469C9.84571 13.9816 9.92232 13.9997 10 13.9997C10.0777 13.9997 10.1543 13.9816 10.2238 13.9469L12 13.0588L13.7762 13.9469C13.8525 13.985 13.9372 14.003 14.0223 13.9992C14.1074 13.9954 14.1902 13.9699 14.2627 13.9252C14.3352 13.8804 14.3951 13.8178 14.4366 13.7434C14.4781 13.669 14.5 13.5852 14.5 13.5V3.5C14.5 3.23478 14.3946 2.98043 14.2071 2.79289C14.0196 2.60536 13.7652 2.5 13.5 2.5ZM7.25 10C7.25 10.0663 7.22366 10.1299 7.17678 10.1768C7.12989 10.2237 7.0663 10.25 7 10.25H4C3.9337 10.25 3.87011 10.2237 3.82322 10.1768C3.77634 10.1299 3.75 10.0663 3.75 10V6C3.75 5.9337 3.77634 5.87011 3.82322 5.82322C3.87011 5.77634 3.9337 5.75 4 5.75H7C7.0663 5.75 7.12989 5.77634 7.17678 5.82322C7.22366 5.87011 7.25 5.9337 7.25 6V10ZM12 9.5H9C8.86739 9.5 8.74021 9.44732 8.64645 9.35355C8.55268 9.25979 8.5 9.13261 8.5 9C8.5 8.86739 8.55268 8.74021 8.64645 8.64645C8.74021 8.55268 8.86739 8.5 9 8.5H12C12.1326 8.5 12.2598 8.55268 12.3536 8.64645C12.4473 8.74021 12.5 8.86739 12.5 9C12.5 9.13261 12.4473 9.25979 12.3536 9.35355C12.2598 9.44732 12.1326 9.5 12 9.5ZM12 7.5H9C8.86739 7.5 8.74021 7.44732 8.64645 7.35355C8.55268 7.25979 8.5 7.13261 8.5 7C8.5 6.86739 8.55268 6.74021 8.64645 6.64645C8.74021 6.55268 8.86739 6.5 9 6.5H12C12.1326 6.5 12.2598 6.55268 12.3536 6.64645C12.4473 6.74021 12.5 6.86739 12.5 7C12.5 7.13261 12.4473 7.25979 12.3536 7.35355C12.2598 7.44732 12.1326 7.5 12 7.5Z" fill="black"/>
</g>
<defs>
<clipPath id="clip0_5_560">
<rect width="16" height="16" fill="white"/>
</clipPath>
</defs>
</svg>
