<svg width="16" height="16" viewBox="0 0 16 16" fill="none" xmlns="http://www.w3.org/2000/svg">
<g clip-path="url(#clip0_5_559)">
<path d="M8 5H9.96062L5.67688 9.89563C5.31843 9.45595 5.09199 8.92365 5.02382 8.36048C4.95566 7.79732 5.04856 7.22637 5.29176 6.71387C5.53496 6.20137 5.91848 5.76832 6.39783 5.46497C6.87719 5.16162 7.43272 5.00039 8 5ZM14 3V13C14 13.2652 13.8946 13.5196 13.7071 13.7071C13.5196 13.8946 13.2652 14 13 14H3C2.73478 14 2.48043 13.8946 2.29289 13.7071C2.10536 13.5196 2 13.2652 2 13V3C2 2.73478 2.10536 2.48043 2.29289 2.29289C2.48043 2.10536 2.73478 2 3 2H13C13.2652 2 13.5196 2.10536 13.7071 2.29289C13.8946 2.48043 14 2.73478 14 3ZM11.8294 3.625C11.78 3.58174 11.7225 3.54864 11.6603 3.52758C11.5981 3.50652 11.5324 3.49792 11.4669 3.50228C11.4013 3.50663 11.3373 3.52385 11.2784 3.55295C11.2196 3.58205 11.167 3.62246 11.1237 3.67188L10.8356 4H8C7.22936 4.0006 6.47529 4.22381 5.82849 4.64278C5.18168 5.06175 4.66967 5.65865 4.35404 6.36169C4.0384 7.06473 3.93257 7.84398 4.04927 8.60574C4.16597 9.3675 4.50024 10.0793 5.01188 10.6556L4.125 11.6706C4.04675 11.7712 4.00986 11.8979 4.02189 12.0248C4.03391 12.1517 4.09394 12.2692 4.18969 12.3533C4.28545 12.4374 4.40972 12.4818 4.53709 12.4773C4.66447 12.4729 4.78534 12.42 4.875 12.3294L5.76375 11.3125C6.42336 11.7607 7.20251 12.0003 8 12H11C11.1326 12 11.2598 11.9473 11.3536 11.8536C11.4473 11.7598 11.5 11.6326 11.5 11.5C11.5 11.3674 11.4473 11.2402 11.3536 11.1464C11.2598 11.0527 11.1326 11 11 11H8C7.44516 11.0007 6.90116 10.8464 6.42938 10.5544L11.875 4.32937C11.9621 4.22982 12.0063 4.09979 11.9977 3.96776C11.9892 3.83574 11.9286 3.71248 11.8294 3.625Z" fill="black"/>
</g>
<defs>
<clipPath id="clip0_5_559">
<rect width="16" height="16" fill="white"/>
</clipPath>
</defs>
</svg>
