<svg width="16" height="16" viewBox="0 0 16 16" fill="none" xmlns="http://www.w3.org/2000/svg">
<g clip-path="url(#clip0_5_1402)">
<path d="M10.2556 6.18125C10.403 6.40752 10.4866 6.66938 10.4976 6.93921C10.5085 7.20903 10.4464 7.4768 10.3178 7.71426C10.1892 7.95173 9.99891 8.15007 9.76697 8.28837C9.53502 8.42667 9.27004 8.49978 9 8.5H8.22688L10.2556 6.18125ZM14 3V13C14 13.2652 13.8946 13.5196 13.7071 13.7071C13.5196 13.8946 13.2652 14 13 14H3C2.73478 14 2.48043 13.8946 2.29289 13.7071C2.10536 13.5196 2 13.2652 2 13V3C2 2.73478 2.10536 2.48043 2.29289 2.29289C2.48043 2.10536 2.73478 2 3 2H13C13.2652 2 13.5196 2.10536 13.7071 2.29289C13.8946 2.48043 14 2.73478 14 3ZM11.8294 3.625C11.78 3.58174 11.7225 3.54864 11.6603 3.52758C11.5981 3.50652 11.5324 3.49792 11.4669 3.50228C11.4013 3.50663 11.3373 3.52385 11.2784 3.55295C11.2196 3.58205 11.167 3.62246 11.1237 3.67188L10.1512 4.78188C9.7958 4.59657 9.40085 4.49987 9 4.5H5C4.86739 4.5 4.74021 4.55268 4.64645 4.64645C4.55268 4.74021 4.5 4.86739 4.5 5C4.5 5.13261 4.55268 5.25979 4.64645 5.35355C4.74021 5.44732 4.86739 5.5 5 5.5H9C9.15618 5.49994 9.31141 5.5244 9.46 5.5725L6.8975 8.5H5C4.86739 8.5 4.74021 8.55268 4.64645 8.64645C4.55268 8.74021 4.5 8.86739 4.5 9C4.5 9.13261 4.55268 9.25979 4.64645 9.35355C4.74021 9.44732 4.86739 9.5 5 9.5H6.02313L4.125 11.6706C4.04675 11.7712 4.00986 11.8979 4.02189 12.0248C4.03391 12.1517 4.09394 12.2692 4.18969 12.3533C4.28545 12.4374 4.40972 12.4818 4.53709 12.4773C4.66447 12.4729 4.78534 12.42 4.875 12.3294L5.60187 11.5H11C11.1326 11.5 11.2598 11.4473 11.3536 11.3536C11.4473 11.2598 11.5 11.1326 11.5 11C11.5 10.8674 11.4473 10.7402 11.3536 10.6464C11.2598 10.5527 11.1326 10.5 11 10.5H6.47687L7.35187 9.5H9C9.47369 9.49974 9.93755 9.3649 10.3376 9.11121C10.7376 8.85751 11.0573 8.49538 11.2595 8.06701C11.4616 7.63863 11.5379 7.16163 11.4795 6.69157C11.4211 6.2215 11.2303 5.77771 10.9294 5.41187L11.875 4.32937C11.9621 4.22982 12.0063 4.09979 11.9977 3.96776C11.9892 3.83574 11.9286 3.71248 11.8294 3.625Z" fill="black"/>
</g>
<defs>
<clipPath id="clip0_5_1402">
<rect width="16" height="16" fill="white"/>
</clipPath>
</defs>
</svg>
