<svg width="16" height="16" viewBox="0 0 16 16" fill="none" xmlns="http://www.w3.org/2000/svg">
<g clip-path="url(#clip0_5_1414)">
<path d="M13 2H3C2.73478 2 2.48043 2.10536 2.29289 2.29289C2.10536 2.48043 2 2.73478 2 3V13C2 13.2652 2.10536 13.5196 2.29289 13.7071C2.48043 13.8946 2.73478 14 3 14H13C13.2652 14 13.5196 13.8946 13.7071 13.7071C13.8946 13.5196 14 13.2652 14 13V3C14 2.73478 13.8946 2.48043 13.7071 2.29289C13.5196 2.10536 13.2652 2 13 2ZM11.875 4.32937L9.10188 7.5H11C11.1326 7.5 11.2598 7.55268 11.3536 7.64645C11.4473 7.74021 11.5 7.86739 11.5 8C11.5 8.13261 11.4473 8.25979 11.3536 8.35355C11.2598 8.44732 11.1326 8.5 11 8.5H8.22688L6.42938 10.5544C6.90128 10.8461 7.4452 11.0004 8 11H11C11.1326 11 11.2598 11.0527 11.3536 11.1464C11.4473 11.2402 11.5 11.3674 11.5 11.5C11.5 11.6326 11.4473 11.7598 11.3536 11.8536C11.2598 11.9473 11.1326 12 11 12H8C7.20251 12.0003 6.42336 11.7607 5.76375 11.3125L4.875 12.3294C4.78534 12.42 4.66447 12.4729 4.53709 12.4773C4.40972 12.4818 4.28545 12.4374 4.18969 12.3533C4.09394 12.2692 4.03391 12.1517 4.02189 12.0248C4.00986 11.8979 4.04675 11.7712 4.125 11.6706L5.01312 10.6556C4.50156 10.0794 4.16731 9.36769 4.05056 8.60605C3.93382 7.8444 4.03954 7.06525 4.35503 6.36226C4.67051 5.65927 5.18233 5.06236 5.82895 4.64329C6.47557 4.22423 7.22946 4.00084 8 4H10.8356L11.125 3.67062C11.1669 3.61682 11.2193 3.57214 11.279 3.53933C11.3388 3.50652 11.4046 3.48628 11.4725 3.47985C11.5403 3.47342 11.6088 3.48093 11.6737 3.50193C11.7385 3.52293 11.7984 3.55697 11.8496 3.60195C11.9008 3.64694 11.9423 3.70193 11.9715 3.76353C12.0007 3.82513 12.017 3.89206 12.0194 3.96018C12.0217 4.02831 12.0101 4.09621 11.9853 4.1597C11.9605 4.22319 11.923 4.28093 11.875 4.32937ZM8 5H9.96062L7.77313 7.5H5.0425C5.16146 6.80143 5.52353 6.16739 6.06471 5.70992C6.6059 5.25245 7.29137 5.001 8 5ZM5.0425 8.5H6.89813L5.6775 9.895C5.34807 9.49317 5.1292 9.01233 5.0425 8.5Z" fill="black"/>
</g>
<defs>
<clipPath id="clip0_5_1414">
<rect width="16" height="16" fill="white"/>
</clipPath>
</defs>
</svg>
