<svg width="16" height="16" viewBox="0 0 16 16" fill="none" xmlns="http://www.w3.org/2000/svg">
<g clip-path="url(#clip0_5_1412)">
<path d="M13 2H3C2.73478 2 2.48043 2.10536 2.29289 2.29289C2.10536 2.48043 2 2.73478 2 3V13C2 13.2652 2.10536 13.5196 2.29289 13.7071C2.48043 13.8946 2.73478 14 3 14H13C13.2652 14 13.5196 13.8946 13.7071 13.7071C13.8946 13.5196 14 13.2652 14 13V3C14 2.73478 13.8946 2.48043 13.7071 2.29289C13.5196 2.10536 13.2652 2 13 2ZM11.5 9C11.6326 9 11.7598 9.05268 11.8536 9.14645C11.9473 9.24021 12 9.36739 12 9.5C12 9.63261 11.9473 9.75979 11.8536 9.85355C11.7598 9.94732 11.6326 10 11.5 10H6.91437L4.875 12.3294C4.78534 12.42 4.66447 12.4729 4.53709 12.4773C4.40972 12.4818 4.28545 12.4374 4.18969 12.3533C4.09394 12.2692 4.03391 12.1517 4.02189 12.0248C4.00986 11.8979 4.04675 11.7712 4.125 11.6706L5.58563 10H4.5C4.36739 10 4.24021 9.94732 4.14645 9.85355C4.05268 9.75979 4 9.63261 4 9.5C4 9.36739 4.05268 9.24021 4.14645 9.14645C4.24021 9.05268 4.36739 9 4.5 9H6.46063L8.21062 7H4.5C4.36739 7 4.24021 6.94732 4.14645 6.85355C4.05268 6.75979 4 6.63261 4 6.5C4 6.36739 4.05268 6.24021 4.14645 6.14645C4.24021 6.05268 4.36739 6 4.5 6H9.08562L11.125 3.67062C11.1669 3.61682 11.2193 3.57214 11.279 3.53933C11.3388 3.50652 11.4046 3.48628 11.4725 3.47985C11.5403 3.47342 11.6088 3.48093 11.6737 3.50193C11.7385 3.52293 11.7984 3.55697 11.8496 3.60195C11.9008 3.64694 11.9423 3.70193 11.9715 3.76353C12.0007 3.82513 12.017 3.89206 12.0194 3.96018C12.0217 4.02831 12.0101 4.09621 11.9853 4.1597C11.9605 4.22319 11.923 4.28093 11.875 4.32937L10.4144 6H11.5C11.6326 6 11.7598 6.05268 11.8536 6.14645C11.9473 6.24021 12 6.36739 12 6.5C12 6.63261 11.9473 6.75979 11.8536 6.85355C11.7598 6.94732 11.6326 7 11.5 7H9.53938L7.78937 9H11.5Z" fill="black"/>
</g>
<defs>
<clipPath id="clip0_5_1412">
<rect width="16" height="16" fill="white"/>
</clipPath>
</defs>
</svg>
