<svg width="16" height="16" viewBox="0 0 16 16" fill="none" xmlns="http://www.w3.org/2000/svg">
<g clip-path="url(#clip0_5_1398)">
<path d="M12.4999 2.50003V12C12.4999 12.1326 12.4472 12.2598 12.3535 12.3536C12.2597 12.4473 12.1325 12.5 11.9999 12.5H2.49991C2.40096 12.5001 2.30421 12.4708 2.22191 12.4159C2.13962 12.361 2.07547 12.2828 2.03759 12.1914C1.99972 12.1 1.98982 11.9994 2.00914 11.9024C2.02847 11.8053 2.07615 11.7162 2.14616 11.6463L11.6462 2.14628C11.7161 2.07627 11.8052 2.02859 11.9023 2.00926C11.9993 1.98994 12.0999 1.99984 12.1913 2.03772C12.2827 2.07559 12.3608 2.13974 12.4158 2.22204C12.4707 2.30433 12.5 2.40108 12.4999 2.50003Z" fill="black"/>
</g>
<defs>
<clipPath id="clip0_5_1398">
<rect width="16" height="16" fill="white"/>
</clipPath>
</defs>
</svg>
