<svg width="16" height="16" viewBox="0 0 16 16" fill="none" xmlns="http://www.w3.org/2000/svg">
<g clip-path="url(#clip0_5_557)">
<path d="M13 2H11.5V1.5C11.5 1.36739 11.4473 1.24021 11.3536 1.14645C11.2598 1.05268 11.1326 1 11 1C10.8674 1 10.7402 1.05268 10.6464 1.14645C10.5527 1.24021 10.5 1.36739 10.5 1.5V2H8.5V1.5C8.5 1.36739 8.44732 1.24021 8.35355 1.14645C8.25979 1.05268 8.13261 1 8 1C7.86739 1 7.74021 1.05268 7.64645 1.14645C7.55268 1.24021 7.5 1.36739 7.5 1.5V2H5.5V1.5C5.5 1.36739 5.44732 1.24021 5.35355 1.14645C5.25979 1.05268 5.13261 1 5 1C4.86739 1 4.74021 1.05268 4.64645 1.14645C4.55268 1.24021 4.5 1.36739 4.5 1.5V2H3C2.86739 2 2.74021 2.05268 2.64645 2.14645C2.55268 2.24021 2.5 2.36739 2.5 2.5V12.5C2.5 13.0304 2.71071 13.5391 3.08579 13.9142C3.46086 14.2893 3.96957 14.5 4.5 14.5H11.5C12.0304 14.5 12.5391 14.2893 12.9142 13.9142C13.2893 13.5391 13.5 13.0304 13.5 12.5V2.5C13.5 2.36739 13.4473 2.24021 13.3536 2.14645C13.2598 2.05268 13.1326 2 13 2ZM7.5 3.5C7.5 3.36739 7.55268 3.24021 7.64645 3.14645C7.74021 3.05268 7.86739 3 8 3C8.13261 3 8.25979 3.05268 8.35355 3.14645C8.44732 3.24021 8.5 3.36739 8.5 3.5V4C8.5 4.13261 8.44732 4.25979 8.35355 4.35355C8.25979 4.44732 8.13261 4.5 8 4.5C7.86739 4.5 7.74021 4.44732 7.64645 4.35355C7.55268 4.25979 7.5 4.13261 7.5 4V3.5ZM5 4.5C4.86739 4.5 4.74021 4.44732 4.64645 4.35355C4.55268 4.25979 4.5 4.13261 4.5 4V3.5C4.5 3.36739 4.55268 3.24021 4.64645 3.14645C4.74021 3.05268 4.86739 3 5 3C5.13261 3 5.25979 3.05268 5.35355 3.14645C5.44732 3.24021 5.5 3.36739 5.5 3.5V4C5.5 4.13261 5.44732 4.25979 5.35355 4.35355C5.25979 4.44732 5.13261 4.5 5 4.5ZM10 10.5H6C5.86739 10.5 5.74021 10.4473 5.64645 10.3536C5.55268 10.2598 5.5 10.1326 5.5 10C5.5 9.86739 5.55268 9.74021 5.64645 9.64645C5.74021 9.55268 5.86739 9.5 6 9.5H10C10.1326 9.5 10.2598 9.55268 10.3536 9.64645C10.4473 9.74021 10.5 9.86739 10.5 10C10.5 10.1326 10.4473 10.2598 10.3536 10.3536C10.2598 10.4473 10.1326 10.5 10 10.5ZM10 8.5H6C5.86739 8.5 5.74021 8.44732 5.64645 8.35355C5.55268 8.25979 5.5 8.13261 5.5 8C5.5 7.86739 5.55268 7.74021 5.64645 7.64645C5.74021 7.55268 5.86739 7.5 6 7.5H10C10.1326 7.5 10.2598 7.55268 10.3536 7.64645C10.4473 7.74021 10.5 7.86739 10.5 8C10.5 8.13261 10.4473 8.25979 10.3536 8.35355C10.2598 8.44732 10.1326 8.5 10 8.5ZM11.5 4C11.5 4.13261 11.4473 4.25979 11.3536 4.35355C11.2598 4.44732 11.1326 4.5 11 4.5C10.8674 4.5 10.7402 4.44732 10.6464 4.35355C10.5527 4.25979 10.5 4.13261 10.5 4V3.5C10.5 3.36739 10.5527 3.24021 10.6464 3.14645C10.7402 3.05268 10.8674 3 11 3C11.1326 3 11.2598 3.05268 11.3536 3.14645C11.4473 3.24021 11.5 3.36739 11.5 3.5V4Z" fill="black"/>
</g>
<defs>
<clipPath id="clip0_5_557">
<rect width="16" height="16" fill="white"/>
</clipPath>
</defs>
</svg>
