<svg width="16" height="16" viewBox="0 0 16 16" fill="none" xmlns="http://www.w3.org/2000/svg">
<g clip-path="url(#clip0_5_1515)">
<path d="M14 8.00003V13C14 13.2652 13.8946 13.5196 13.7071 13.7071C13.5196 13.8947 13.2652 14 13 14H3C2.73478 14 2.48043 13.8947 2.29289 13.7071C2.10536 13.5196 2 13.2652 2 13V3.00003C2 2.73481 2.10536 2.48046 2.29289 2.29292C2.48043 2.10538 2.73478 2.00003 3 2.00003H8C8.13261 2.00003 8.25979 2.05271 8.35355 2.14647C8.44732 2.24024 8.5 2.36742 8.5 2.50003C8.5 2.63264 8.44732 2.75981 8.35355 2.85358C8.25979 2.94735 8.13261 3.00003 8 3.00003H3V13H13V8.00003C13 7.86742 13.0527 7.74024 13.1464 7.64647C13.2402 7.55271 13.3674 7.50003 13.5 7.50003C13.6326 7.50003 13.7598 7.55271 13.8536 7.64647C13.9473 7.74024 14 7.86742 14 8.00003ZM14.3538 4.35378L8.35375 10.3538C8.30728 10.4002 8.25212 10.437 8.19143 10.4621C8.13073 10.4872 8.06568 10.5001 8 10.5H6C5.86739 10.5 5.74021 10.4473 5.64645 10.3536C5.55268 10.2598 5.5 10.1326 5.5 10V8.00003C5.49995 7.93435 5.51284 7.8693 5.53793 7.8086C5.56303 7.7479 5.59983 7.69275 5.64625 7.64628L11.6462 1.64628C11.6927 1.59979 11.7478 1.56291 11.8085 1.53775C11.8692 1.51258 11.9343 1.49963 12 1.49963C12.0657 1.49963 12.1308 1.51258 12.1915 1.53775C12.2522 1.56291 12.3073 1.59979 12.3538 1.64628L14.3538 3.64628C14.4002 3.69271 14.4371 3.74786 14.4623 3.80856C14.4874 3.86926 14.5004 3.93432 14.5004 4.00003C14.5004 4.06573 14.4874 4.1308 14.4623 4.1915C14.4371 4.2522 14.4002 4.30734 14.3538 4.35378ZM13.2913 4.00003L12 2.7069L11.2069 3.50003L12.5 4.79315L13.2913 4.00003Z" fill="black"/>
</g>
<defs>
<clipPath id="clip0_5_1515">
<rect width="16" height="16" fill="white"/>
</clipPath>
</defs>
</svg>
