<svg width="16" height="16" viewBox="0 0 16 16" fill="none" xmlns="http://www.w3.org/2000/svg">
<g clip-path="url(#clip0_5_1350)">
<path d="M14 3C14 3.13261 13.9473 3.25979 13.8536 3.35355C13.7598 3.44732 13.6326 3.5 13.5 3.5H12.5V13C12.5 13.1326 12.4473 13.2598 12.3536 13.3536C12.2598 13.4473 12.1326 13.5 12 13.5H9.5C9.4106 13.4999 9.32286 13.4759 9.24592 13.4304C9.16897 13.3849 9.10563 13.3196 9.0625 13.2413L4.5 4.94688V12.5H5.5C5.63261 12.5 5.75979 12.5527 5.85355 12.6464C5.94732 12.7402 6 12.8674 6 13C6 13.1326 5.94732 13.2598 5.85355 13.3536C5.75979 13.4473 5.63261 13.5 5.5 13.5H2.5C2.36739 13.5 2.24021 13.4473 2.14645 13.3536C2.05268 13.2598 2 13.1326 2 13C2 12.8674 2.05268 12.7402 2.14645 12.6464C2.24021 12.5527 2.36739 12.5 2.5 12.5H3.5V3.5H2.5C2.36739 3.5 2.24021 3.44732 2.14645 3.35355C2.05268 3.25979 2 3.13261 2 3C2 2.86739 2.05268 2.74021 2.14645 2.64645C2.24021 2.55268 2.36739 2.5 2.5 2.5H6.5C6.5894 2.50008 6.67714 2.52413 6.75408 2.56963C6.83103 2.61514 6.89437 2.68045 6.9375 2.75875L11.5 11.0531V3.5H10.5C10.3674 3.5 10.2402 3.44732 10.1464 3.35355C10.0527 3.25979 10 3.13261 10 3C10 2.86739 10.0527 2.74021 10.1464 2.64645C10.2402 2.55268 10.3674 2.5 10.5 2.5H13.5C13.6326 2.5 13.7598 2.55268 13.8536 2.64645C13.9473 2.74021 14 2.86739 14 3Z" fill="black"/>
</g>
<defs>
<clipPath id="clip0_5_1350">
<rect width="16" height="16" fill="white"/>
</clipPath>
</defs>
</svg>
