<svg width="16" height="16" viewBox="0 0 16 16" fill="none" xmlns="http://www.w3.org/2000/svg">
<g clip-path="url(#clip0_5_1682)">
<path d="M9.5 2H11C11.1326 2 11.2598 1.94732 11.3536 1.85355C11.4473 1.75979 11.5 1.63261 11.5 1.5C11.5 1.36739 11.5527 1.24021 11.6464 1.14645C11.7402 1.05268 11.8674 1 12 1C12.1326 1 12.2598 1.05268 12.3536 1.14645C12.4473 1.24021 12.5 1.36739 12.5 1.5C12.5 1.89782 12.342 2.27936 12.0607 2.56066C11.7794 2.84196 11.3978 3 11 3H9.5C9.36739 3 9.24021 3.05268 9.14645 3.14645C9.05268 3.24021 9 3.36739 9 3.5C9 3.63261 8.94732 3.75979 8.85355 3.85355C8.75979 3.94732 8.63261 4 8.5 4C8.36739 4 8.24021 3.94732 8.14645 3.85355C8.05268 3.75979 8 3.63261 8 3.5C8 3.10218 8.15804 2.72064 8.43934 2.43934C8.72064 2.15804 9.10218 2 9.5 2ZM6.5 4C6.63261 4 6.75979 3.94732 6.85355 3.85355C6.94732 3.75979 7 3.63261 7 3.5C7 2.83696 7.26339 2.20107 7.73223 1.73223C8.20107 1.26339 8.83696 1 9.5 1H10C10.1326 1 10.2598 0.947322 10.3536 0.853553C10.4473 0.759785 10.5 0.632608 10.5 0.5C10.5 0.367392 10.4473 0.240215 10.3536 0.146447C10.2598 0.0526784 10.1326 0 10 0L9.5 0C8.57205 0.000992641 7.68238 0.37006 7.02622 1.02622C6.37006 1.68238 6.00099 2.57205 6 3.5C6 3.63261 6.05268 3.75979 6.14645 3.85355C6.24021 3.94732 6.36739 4 6.5 4ZM15.5 13.5C15.5 13.6326 15.4473 13.7598 15.3536 13.8536C15.2598 13.9473 15.1326 14 15 14H1C0.867392 14 0.740215 13.9473 0.646447 13.8536C0.552678 13.7598 0.5 13.6326 0.5 13.5C0.5 13.3674 0.552678 13.2402 0.646447 13.1464C0.740215 13.0527 0.867392 13 1 13H2.04625C2.90688 11.2606 3.88875 8.70687 3.99125 5.95875C4.00051 5.70038 4.11003 5.45578 4.29659 5.2768C4.48316 5.09782 4.73209 4.99853 4.99062 5H10.5112C10.7689 4.99974 11.0166 5.0989 11.2029 5.27681C11.3892 5.45472 11.4997 5.69766 11.5112 5.955C11.6425 8.945 13.0013 11.7281 13.7169 13H15C15.1326 13 15.2598 13.0527 15.3536 13.1464C15.4473 13.2402 15.5 13.3674 15.5 13.5ZM10.5112 6H9.51125C9.62187 8.7325 10.5981 11.27 11.4544 13H12.5794C11.7925 11.505 10.6362 8.8525 10.5112 6Z" fill="black"/>
</g>
<defs>
<clipPath id="clip0_5_1682">
<rect width="16" height="16" fill="white"/>
</clipPath>
</defs>
</svg>
