<svg width="16" height="16" viewBox="0 0 16 16" fill="none" xmlns="http://www.w3.org/2000/svg">
<g clip-path="url(#clip0_5_1354)">
<path d="M13 2H3C2.73478 2 2.48043 2.10536 2.29289 2.29289C2.10536 2.48043 2 2.73478 2 3V13C2 13.2652 2.10536 13.5196 2.29289 13.7071C2.48043 13.8946 2.73478 14 3 14H13C13.2652 14 13.5196 13.8946 13.7071 13.7071C13.8946 13.5196 14 13.2652 14 13V3C14 2.73478 13.8946 2.48043 13.7071 2.29289C13.5196 2.10536 13.2652 2 13 2ZM7.75 7C8.34674 7 8.91903 7.23705 9.34099 7.65901C9.76295 8.08097 10 8.65326 10 9.25C10 9.84674 9.76295 10.419 9.34099 10.841C8.91903 11.2629 8.34674 11.5 7.75 11.5C7.45227 11.5049 7.15659 11.4499 6.88054 11.3382C6.6045 11.2265 6.35372 11.0605 6.14313 10.85C6.09534 10.8035 6.05732 10.748 6.03132 10.6866C6.00532 10.6252 5.99185 10.5593 5.99171 10.4926C5.99157 10.4259 6.00476 10.3599 6.0305 10.2984C6.05624 10.237 6.09402 10.1812 6.14161 10.1346C6.1892 10.0879 6.24564 10.0512 6.30762 10.0267C6.36959 10.0021 6.43585 9.99022 6.50249 9.99166C6.56913 9.9931 6.63482 10.0078 6.69567 10.035C6.75653 10.0622 6.81134 10.1013 6.85687 10.15C6.97481 10.265 7.11461 10.3553 7.26801 10.4154C7.42141 10.4755 7.5853 10.5043 7.75 10.5C8.08152 10.5 8.39946 10.3683 8.63388 10.1339C8.8683 9.89946 9 9.58152 9 9.25C9 8.91848 8.8683 8.60054 8.63388 8.36612C8.39946 8.1317 8.08152 8 7.75 8C7.5853 7.99572 7.42141 8.02448 7.26801 8.08459C7.11461 8.14471 6.97481 8.23495 6.85687 8.35C6.78239 8.42588 6.68564 8.47604 6.5807 8.49319C6.47576 8.51034 6.36809 8.49358 6.27332 8.44536C6.17855 8.39714 6.10162 8.31996 6.05371 8.22504C6.00579 8.13011 5.98939 8.02238 6.00688 7.9175L6.50688 4.9175C6.52639 4.80082 6.58665 4.69484 6.67694 4.6184C6.76723 4.54196 6.8817 4.50001 7 4.5H9.5C9.63261 4.5 9.75979 4.55268 9.85355 4.64645C9.94732 4.74021 10 4.86739 10 5C10 5.13261 9.94732 5.25979 9.85355 5.35355C9.75979 5.44732 9.63261 5.5 9.5 5.5H7.42375L7.16187 7.07125C7.35427 7.02355 7.55178 6.99962 7.75 7Z" fill="black"/>
</g>
<defs>
<clipPath id="clip0_5_1354">
<rect width="16" height="16" fill="white"/>
</clipPath>
</defs>
</svg>
