<svg width="16" height="16" viewBox="0 0 16 16" fill="none" xmlns="http://www.w3.org/2000/svg">
<g clip-path="url(#clip0_5_1232)">
<path d="M12.5 1.5H3.5C3.23478 1.5 2.98043 1.60536 2.79289 1.79289C2.60536 1.98043 2.5 2.23478 2.5 2.5V13.5C2.5 13.7652 2.60536 14.0196 2.79289 14.2071C2.98043 14.3946 3.23478 14.5 3.5 14.5H12.5C12.7652 14.5 13.0196 14.3946 13.2071 14.2071C13.3946 14.0196 13.5 13.7652 13.5 13.5V2.5C13.5 2.23478 13.3946 1.98043 13.2071 1.79289C13.0196 1.60536 12.7652 1.5 12.5 1.5ZM7.75 6.5C8.21453 6.50001 8.67148 6.6177 9.07822 6.84207C9.48497 7.06645 9.82824 7.3902 10.076 7.78312C10.3238 8.17604 10.468 8.62533 10.4952 9.08906C10.5224 9.55279 10.4317 10.0158 10.2315 10.435C10.0313 10.8542 9.72822 11.2159 9.35048 11.4862C8.97274 11.7566 8.53267 11.9269 8.07133 11.9812C7.60999 12.0354 7.14241 11.972 6.71222 11.7967C6.28204 11.6214 5.90327 11.34 5.61125 10.9788C5.5299 10.8754 5.49251 10.7443 5.50719 10.6136C5.52187 10.4829 5.58742 10.3633 5.68966 10.2806C5.7919 10.1979 5.9226 10.1589 6.05344 10.1718C6.18429 10.1848 6.30475 10.2488 6.38875 10.35C6.61528 10.6304 6.92285 10.8339 7.26943 10.9329C7.61601 11.0318 7.98469 11.0214 8.3251 10.9029C8.66551 10.7845 8.96104 10.5638 9.1713 10.271C9.38156 9.97828 9.4963 9.62775 9.49985 9.26734C9.50339 8.90692 9.39556 8.5542 9.19109 8.25738C8.98662 7.96056 8.69548 7.73411 8.35746 7.60898C8.01945 7.48385 7.65104 7.46615 7.30258 7.55829C6.95413 7.65042 6.64262 7.8479 6.41062 8.12375C6.34036 8.20571 6.24545 8.26273 6.1401 8.28628C6.03474 8.30984 5.92459 8.29865 5.82611 8.25441C5.72763 8.21017 5.64612 8.13524 5.59376 8.04082C5.5414 7.94641 5.52101 7.83759 5.53562 7.73063L6.0075 4.42938C6.02444 4.31063 6.0835 4.20194 6.17391 4.12311C6.26432 4.04429 6.38006 4.0006 6.5 4H10C10.1326 4 10.2598 4.05268 10.3536 4.14645C10.4473 4.24021 10.5 4.36739 10.5 4.5C10.5 4.63261 10.4473 4.75979 10.3536 4.85355C10.2598 4.94732 10.1326 5 10 5H6.93375L6.6875 6.7125C7.02407 6.5719 7.38525 6.49967 7.75 6.5Z" fill="black"/>
</g>
<defs>
<clipPath id="clip0_5_1232">
<rect width="16" height="16" fill="white"/>
</clipPath>
</defs>
</svg>
