<svg width="16" height="16" viewBox="0 0 16 16" fill="none" xmlns="http://www.w3.org/2000/svg">
<g clip-path="url(#clip0_5_545)">
<path d="M7 6.25C7 6.05222 7.05865 5.85888 7.16853 5.69443C7.27841 5.52998 7.43459 5.40181 7.61732 5.32612C7.80004 5.25043 8.00111 5.23063 8.19509 5.26921C8.38907 5.3078 8.56725 5.40304 8.70711 5.54289C8.84696 5.68275 8.9422 5.86093 8.98079 6.05491C9.01937 6.24889 8.99957 6.44996 8.92388 6.63268C8.84819 6.81541 8.72002 6.97159 8.55557 7.08147C8.39112 7.19135 8.19778 7.25 8 7.25C7.73478 7.25 7.48043 7.14464 7.29289 6.95711C7.10536 6.76957 7 6.51522 7 6.25ZM8 8.25C7.75277 8.25 7.5111 8.32331 7.30554 8.46066C7.09998 8.59801 6.93976 8.79324 6.84515 9.02165C6.75054 9.25005 6.72579 9.50139 6.77402 9.74386C6.82225 9.98634 6.9413 10.2091 7.11612 10.3839C7.29093 10.5587 7.51366 10.6778 7.75614 10.726C7.99861 10.7742 8.24995 10.7495 8.47835 10.6548C8.70676 10.5602 8.90199 10.4 9.03934 10.1945C9.17669 9.9889 9.25 9.74723 9.25 9.5C9.25 9.16848 9.1183 8.85054 8.88388 8.61612C8.64946 8.3817 8.33152 8.25 8 8.25ZM14 3V13C14 13.2652 13.8946 13.5196 13.7071 13.7071C13.5196 13.8946 13.2652 14 13 14H3C2.73478 14 2.48043 13.8946 2.29289 13.7071C2.10536 13.5196 2 13.2652 2 13V3C2 2.73478 2.10536 2.48043 2.29289 2.29289C2.48043 2.10536 2.73478 2 3 2H13C13.2652 2 13.5196 2.10536 13.7071 2.29289C13.8946 2.48043 14 2.73478 14 3ZM10.25 9.5C10.25 9.15375 10.17 8.81218 10.0161 8.50199C9.8623 8.19179 9.6388 7.92138 9.36312 7.71187C9.65701 7.43815 9.86168 7.08229 9.95049 6.69062C10.0393 6.29895 10.0081 5.88962 9.86105 5.51591C9.71397 5.1422 9.45779 4.82142 9.12586 4.59534C8.79392 4.36927 8.40161 4.24836 8 4.24836C7.59839 4.24836 7.20608 4.36927 6.87414 4.59534C6.54221 4.82142 6.28603 5.1422 6.13895 5.51591C5.99187 5.88962 5.9607 6.29895 6.04951 6.69062C6.13832 7.08229 6.34299 7.43815 6.63688 7.71187C6.33223 7.94386 6.09183 8.24975 5.93844 8.60059C5.78504 8.95144 5.72372 9.33563 5.76028 9.71679C5.79684 10.098 5.93008 10.4635 6.14737 10.7788C6.36466 11.0941 6.65882 11.3487 7.00201 11.5185C7.3452 11.6884 7.72605 11.7678 8.10852 11.7493C8.49099 11.7309 8.86241 11.6151 9.18764 11.413C9.51286 11.2109 9.78113 10.9291 9.96703 10.5943C10.1529 10.2596 10.2503 9.88291 10.25 9.5Z" fill="black"/>
</g>
<defs>
<clipPath id="clip0_5_545">
<rect width="16" height="16" fill="white"/>
</clipPath>
</defs>
</svg>
