<svg width="16" height="16" viewBox="0 0 16 16" fill="none" xmlns="http://www.w3.org/2000/svg">
<g clip-path="url(#clip0_5_547)">
<path d="M12.5 1.5H3.5C3.23478 1.5 2.98043 1.60536 2.79289 1.79289C2.60536 1.98043 2.5 2.23478 2.5 2.5V13.5C2.5 13.7652 2.60536 14.0196 2.79289 14.2071C2.98043 14.3946 3.23478 14.5 3.5 14.5H12.5C12.7652 14.5 13.0196 14.3946 13.2071 14.2071C13.3946 14.0196 13.5 13.7652 13.5 13.5V2.5C13.5 2.23478 13.3946 1.98043 13.2071 1.79289C13.0196 1.60536 12.7652 1.5 12.5 1.5ZM9 11.5C9 11.6326 8.94732 11.7598 8.85355 11.8536C8.75979 11.9473 8.63261 12 8.5 12C8.36739 12 8.24021 11.9473 8.14645 11.8536C8.05268 11.7598 8 11.6326 8 11.5V5.30875L6.72375 5.9475C6.66498 5.97688 6.601 5.9944 6.53547 5.99906C6.46993 6.00372 6.40412 5.99542 6.34178 5.97465C6.27945 5.95387 6.22182 5.92102 6.17219 5.87797C6.12255 5.83492 6.08188 5.78252 6.0525 5.72375C6.02312 5.66498 6.0056 5.601 6.00094 5.53547C5.99628 5.46993 6.00458 5.40412 6.02535 5.34178C6.04613 5.27945 6.07898 5.22182 6.12203 5.17219C6.16508 5.12255 6.21748 5.08188 6.27625 5.0525L8.27625 4.0525C8.35251 4.01434 8.43726 3.99632 8.52244 4.00015C8.60763 4.00397 8.69042 4.02952 8.76295 4.07437C8.83548 4.11921 8.89533 4.18186 8.93682 4.25636C8.97831 4.33086 9.00006 4.41473 9 4.5V11.5Z" fill="black"/>
</g>
<defs>
<clipPath id="clip0_5_547">
<rect width="16" height="16" fill="white"/>
</clipPath>
</defs>
</svg>
