<svg width="16" height="16" viewBox="0 0 16 16" fill="none" xmlns="http://www.w3.org/2000/svg">
<g clip-path="url(#clip0_5_1346)">
<path d="M9.08313 7.375C8.95957 7.58913 8.7753 7.76182 8.5536 7.87122C8.33191 7.98062 8.08275 8.02183 7.83764 7.98963C7.59252 7.95744 7.36246 7.85328 7.17654 7.69034C6.99062 7.52739 6.85719 7.31298 6.79313 7.0742C6.72907 6.83543 6.73724 6.58302 6.81663 6.34889C6.89601 6.11476 7.04304 5.90943 7.23912 5.75887C7.4352 5.6083 7.67152 5.51925 7.9182 5.50299C8.16489 5.48673 8.41085 5.54398 8.625 5.6675C8.91199 5.83337 9.12134 6.10644 9.20702 6.42664C9.29269 6.74685 9.24768 7.08798 9.08187 7.375H9.08313ZM14 3V13C14 13.2652 13.8946 13.5196 13.7071 13.7071C13.5196 13.8946 13.2652 14 13 14H3C2.73478 14 2.48043 13.8946 2.29289 13.7071C2.10536 13.5196 2 13.2652 2 13V3C2 2.73478 2.10536 2.48043 2.29289 2.29289C2.48043 2.10536 2.73478 2 3 2H13C13.2652 2 13.5196 2.10536 13.7071 2.29289C13.8946 2.48043 14 2.73478 14 3ZM9.125 4.80125C8.82625 4.62884 8.49186 4.52742 8.14766 4.50483C7.80347 4.48225 7.45869 4.5391 7.13998 4.671C6.82126 4.80289 6.53713 5.0063 6.30955 5.26551C6.08197 5.52471 5.91704 5.83277 5.82749 6.16588C5.73794 6.49898 5.72617 6.84822 5.79311 7.18659C5.86004 7.52497 6.00387 7.84343 6.21349 8.11736C6.42311 8.39129 6.6929 8.61336 7.00203 8.7664C7.31115 8.91945 7.65132 8.99937 7.99625 9C8.03542 9 8.07479 8.99875 8.11438 8.99625L7.07062 10.7463C7.03668 10.8027 7.01422 10.8653 7.00455 10.9305C6.99488 10.9957 6.99818 11.0621 7.01427 11.126C7.03036 11.1899 7.05892 11.25 7.0983 11.3028C7.13768 11.3556 7.18711 11.4001 7.24375 11.4338C7.30021 11.4677 7.36283 11.4902 7.428 11.4998C7.49316 11.5095 7.5596 11.5062 7.62349 11.4901C7.68738 11.474 7.74745 11.4455 7.80027 11.4061C7.85309 11.3667 7.8976 11.3173 7.93125 11.2606L9.94875 7.875C10.2463 7.35798 10.3267 6.74405 10.1723 6.16784C10.0179 5.59163 9.64124 5.10018 9.125 4.80125Z" fill="black"/>
</g>
<defs>
<clipPath id="clip0_5_1346">
<rect width="16" height="16" fill="white"/>
</clipPath>
</defs>
</svg>
