<svg width="16" height="16" viewBox="0 0 16 16" fill="none" xmlns="http://www.w3.org/2000/svg">
<g clip-path="url(#clip0_5_540)">
<path d="M12.5 1.5H3.5C3.23478 1.5 2.98043 1.60536 2.79289 1.79289C2.60536 1.98043 2.5 2.23478 2.5 2.5V13.5C2.5 13.7652 2.60536 14.0196 2.79289 14.2071C2.98043 14.3946 3.23478 14.5 3.5 14.5H12.5C12.7652 14.5 13.0196 14.3946 13.2071 14.2071C13.3946 14.0196 13.5 13.7652 13.5 13.5V2.5C13.5 2.23478 13.3946 1.98043 13.2071 1.79289C13.0196 1.60536 12.7652 1.5 12.5 1.5ZM7.75 12C7.3398 12.0007 6.93468 11.9093 6.56452 11.7325C6.19436 11.5558 5.86859 11.2982 5.61125 10.9788C5.5299 10.8754 5.49251 10.7443 5.50719 10.6136C5.52187 10.4829 5.58742 10.3633 5.68966 10.2806C5.7919 10.1979 5.9226 10.1589 6.05344 10.1718C6.18429 10.1848 6.30475 10.2488 6.38875 10.35C6.57125 10.5758 6.80704 10.7526 7.07489 10.8645C7.34274 10.9765 7.63423 11.02 7.92311 10.9913C8.21198 10.9625 8.48916 10.8623 8.72968 10.6998C8.9702 10.5372 9.1665 10.3174 9.30089 10.0601C9.43529 9.80273 9.50356 9.51602 9.49956 9.22574C9.49555 8.93547 9.4194 8.65075 9.27795 8.39724C9.13651 8.14372 8.93422 7.92938 8.68931 7.77351C8.4444 7.61765 8.16456 7.52516 7.875 7.50437C7.78322 7.49785 7.69502 7.46614 7.62011 7.41271C7.5452 7.35929 7.48648 7.28622 7.45042 7.20157C7.41437 7.11692 7.40237 7.02396 7.41575 6.93293C7.42912 6.8419 7.46736 6.75632 7.52625 6.68563L8.93125 4.99813H6C5.86739 4.99813 5.74021 4.94545 5.64645 4.85168C5.55268 4.75791 5.5 4.63073 5.5 4.49813C5.5 4.36552 5.55268 4.23834 5.64645 4.14457C5.74021 4.0508 5.86739 3.99813 6 3.99813H10C10.095 3.99809 10.1881 4.02514 10.2683 4.07611C10.3486 4.12708 10.4126 4.19985 10.4529 4.28591C10.4933 4.37196 10.5082 4.46773 10.4961 4.56199C10.484 4.65625 10.4452 4.7451 10.3844 4.81812L8.8075 6.71C9.39528 6.9539 9.88028 7.39411 10.1798 7.95559C10.4794 8.51706 10.5749 9.16504 10.4502 9.78908C10.3254 10.4131 9.9881 10.9746 9.49572 11.3777C9.00334 11.7809 8.38638 12.0008 7.75 12Z" fill="black"/>
</g>
<defs>
<clipPath id="clip0_5_540">
<rect width="16" height="16" fill="white"/>
</clipPath>
</defs>
</svg>
