<svg width="16" height="16" viewBox="0 0 16 16" fill="none" xmlns="http://www.w3.org/2000/svg">
<g clip-path="url(#clip0_5_554)">
<path d="M8 1.5C6.71442 1.5 5.45772 1.88122 4.3888 2.59545C3.31988 3.30968 2.48676 4.32484 1.99479 5.51256C1.50282 6.70028 1.37409 8.00721 1.6249 9.26809C1.8757 10.529 2.49477 11.6872 3.40381 12.5962C4.31285 13.5052 5.47104 14.1243 6.73192 14.3751C7.99279 14.6259 9.29973 14.4972 10.4874 14.0052C11.6752 13.5132 12.6903 12.6801 13.4046 11.6112C14.1188 10.5423 14.5 9.28558 14.5 8C14.4982 6.27665 13.8128 4.62441 12.5942 3.40582C11.3756 2.18722 9.72335 1.50182 8 1.5ZM7.75 7C8.34674 7 8.91904 7.23705 9.34099 7.65901C9.76295 8.08097 10 8.65326 10 9.25C10 9.84674 9.76295 10.419 9.34099 10.841C8.91904 11.2629 8.34674 11.5 7.75 11.5C7.45227 11.5049 7.15659 11.4499 6.88055 11.3382C6.6045 11.2265 6.35372 11.0605 6.14313 10.85C6.09534 10.8035 6.05733 10.748 6.03132 10.6866C6.00532 10.6252 5.99185 10.5593 5.99171 10.4926C5.99157 10.4259 6.00476 10.3599 6.0305 10.2984C6.05625 10.237 6.09402 10.1812 6.14161 10.1346C6.1892 10.0879 6.24565 10.0512 6.30762 10.0267C6.3696 10.0021 6.43585 9.99022 6.50249 9.99166C6.56914 9.9931 6.63482 10.0078 6.69568 10.035C6.75654 10.0622 6.81134 10.1013 6.85688 10.15C6.97482 10.265 7.11461 10.3553 7.26801 10.4154C7.42141 10.4755 7.5853 10.5043 7.75 10.5C8.08152 10.5 8.39947 10.3683 8.63389 10.1339C8.86831 9.89946 9 9.58152 9 9.25C9 8.91848 8.86831 8.60054 8.63389 8.36612C8.39947 8.1317 8.08152 8 7.75 8C7.5853 7.99572 7.42141 8.02448 7.26801 8.08459C7.11461 8.14471 6.97482 8.23495 6.85688 8.35C6.78239 8.42588 6.68565 8.47604 6.58071 8.49319C6.47577 8.51034 6.36809 8.49358 6.27332 8.44536C6.17855 8.39714 6.10162 8.31996 6.05371 8.22504C6.0058 8.13011 5.98939 8.02238 6.00688 7.9175L6.50688 4.9175C6.5264 4.80082 6.58666 4.69484 6.67695 4.6184C6.76723 4.54196 6.8817 4.50001 7 4.5H9.5C9.63261 4.5 9.75979 4.55268 9.85356 4.64645C9.94732 4.74021 10 4.86739 10 5C10 5.13261 9.94732 5.25979 9.85356 5.35355C9.75979 5.44732 9.63261 5.5 9.5 5.5H7.42375L7.16188 7.07125C7.35427 7.02355 7.55179 6.99962 7.75 7Z" fill="black"/>
</g>
<defs>
<clipPath id="clip0_5_554">
<rect width="16" height="16" fill="white"/>
</clipPath>
</defs>
</svg>
