<svg width="16" height="16" viewBox="0 0 16 16" fill="none" xmlns="http://www.w3.org/2000/svg">
<g clip-path="url(#clip0_5_548)">
<path d="M12.5 1.5H3.5C3.23478 1.5 2.98043 1.60536 2.79289 1.79289C2.60536 1.98043 2.5 2.23478 2.5 2.5V13.5C2.5 13.7652 2.60536 14.0196 2.79289 14.2071C2.98043 14.3946 3.23478 14.5 3.5 14.5H12.5C12.7652 14.5 13.0196 14.3946 13.2071 14.2071C13.3946 14.0196 13.5 13.7652 13.5 13.5V2.5C13.5 2.23478 13.3946 1.98043 13.2071 1.79289C13.0196 1.60536 12.7652 1.5 12.5 1.5ZM10.3938 8.10125C10.3894 8.10937 10.3863 8.1175 10.3813 8.125L8.28875 11.75C8.22245 11.8649 8.11322 11.9487 7.98511 11.983C7.857 12.0174 7.7205 11.9994 7.60563 11.9331C7.49075 11.8668 7.40693 11.7576 7.37258 11.6295C7.33824 11.5014 7.3562 11.3649 7.4225 11.25L8.455 9.46187C8.30462 9.48695 8.15245 9.4997 8 9.5C7.3949 9.5007 6.80642 9.30204 6.32556 8.93472C5.8447 8.56741 5.49825 8.0519 5.33977 7.46792C5.1813 6.88394 5.21963 6.26402 5.44883 5.70401C5.67804 5.144 6.08536 4.6751 6.60781 4.36982C7.13025 4.06454 7.73872 3.93988 8.33912 4.01512C8.93953 4.09036 9.49842 4.3613 9.92938 4.78606C10.3603 5.21081 10.6394 5.76572 10.7233 6.36497C10.8072 6.96422 10.6914 7.57443 10.3938 8.10125ZM9.75 6.75C9.75 7.09612 9.64736 7.43446 9.45507 7.72225C9.26278 8.01003 8.98947 8.23434 8.6697 8.36679C8.34993 8.49924 7.99806 8.5339 7.65859 8.46637C7.31913 8.39885 7.00731 8.23218 6.76256 7.98744C6.51782 7.74269 6.35115 7.43087 6.28363 7.09141C6.2161 6.75194 6.25076 6.40007 6.38321 6.0803C6.51566 5.76053 6.73997 5.48722 7.02775 5.29493C7.31554 5.10264 7.65388 5 8 5C8.46413 5 8.90925 5.18437 9.23744 5.51256C9.56563 5.84075 9.75 6.28587 9.75 6.75Z" fill="black"/>
</g>
<defs>
<clipPath id="clip0_5_548">
<rect width="16" height="16" fill="white"/>
</clipPath>
</defs>
</svg>
