<svg width="16" height="16" viewBox="0 0 16 16" fill="none" xmlns="http://www.w3.org/2000/svg">
<g clip-path="url(#clip0_5_543)">
<path d="M13 2H3C2.73478 2 2.48043 2.10536 2.29289 2.29289C2.10536 2.48043 2 2.73478 2 3V13C2 13.2652 2.10536 13.5196 2.29289 13.7071C2.48043 13.8946 2.73478 14 3 14H13C13.2652 14 13.5196 13.8946 13.7071 13.7071C13.8946 13.5196 14 13.2652 14 13V3C14 2.73478 13.8946 2.48043 13.7071 2.29289C13.5196 2.10536 13.2652 2 13 2ZM9.97 5.67063L7.97 11.1706C7.93496 11.2671 7.87105 11.3505 7.78696 11.4095C7.70288 11.4684 7.60268 11.5 7.5 11.5C7.4418 11.5001 7.38404 11.49 7.32937 11.47C7.26765 11.4476 7.21095 11.4133 7.1625 11.3689C7.11405 11.3246 7.0748 11.2712 7.047 11.2117C7.01921 11.1522 7.0034 11.0878 7.00048 11.0222C6.99756 10.9566 7.00759 10.8911 7.03 10.8294L8.78625 6H6.5C6.36739 6 6.24021 5.94732 6.14645 5.85355C6.05268 5.75979 6 5.63261 6 5.5C6 5.36739 6.05268 5.24021 6.14645 5.14645C6.24021 5.05268 6.36739 5 6.5 5H9.5C9.58035 5 9.65951 5.01936 9.73079 5.05644C9.80207 5.09353 9.86336 5.14724 9.90947 5.21304C9.95558 5.27884 9.98516 5.35478 9.9957 5.43443C10.0062 5.51408 9.99742 5.5951 9.97 5.67063Z" fill="black"/>
</g>
<defs>
<clipPath id="clip0_5_543">
<rect width="16" height="16" fill="white"/>
</clipPath>
</defs>
</svg>
