<svg width="16" height="16" viewBox="0 0 16 16" fill="none" xmlns="http://www.w3.org/2000/svg">
<g clip-path="url(#clip0_5_1258)">
<path d="M9.25 9.25C9.25 9.49723 9.17669 9.7389 9.03934 9.94446C8.90199 10.15 8.70677 10.3102 8.47836 10.4048C8.24995 10.4995 7.99862 10.5242 7.75614 10.476C7.51366 10.4278 7.29094 10.3087 7.11612 10.1339C6.9413 9.95907 6.82225 9.73634 6.77402 9.49386C6.72579 9.25139 6.75054 9.00005 6.84515 8.77165C6.93976 8.54324 7.09998 8.34801 7.30554 8.21066C7.5111 8.07331 7.75278 8 8 8C8.33152 8 8.64947 8.1317 8.88389 8.36612C9.11831 8.60054 9.25 8.91848 9.25 9.25ZM14.5 8C14.5 9.28558 14.1188 10.5423 13.4046 11.6112C12.6903 12.6801 11.6752 13.5132 10.4874 14.0052C9.29973 14.4972 7.99279 14.6259 6.73192 14.3751C5.47104 14.1243 4.31285 13.5052 3.40381 12.5962C2.49477 11.6872 1.8757 10.529 1.6249 9.26809C1.37409 8.00721 1.50282 6.70028 1.99479 5.51256C2.48676 4.32484 3.31988 3.30968 4.3888 2.59545C5.45772 1.88122 6.71442 1.5 8 1.5C9.72335 1.50182 11.3756 2.18722 12.5942 3.40582C13.8128 4.62441 14.4982 6.27665 14.5 8ZM10.25 9.25C10.25 8.65326 10.0129 8.08097 9.59099 7.65901C9.16904 7.23705 8.59674 7 8 7C7.96188 7 7.92375 7 7.88625 7L8.92938 5.25625C8.96303 5.19986 8.98525 5.1374 8.99476 5.07243C9.00427 5.00746 9.00089 4.94125 8.98481 4.87758C8.96874 4.81392 8.94028 4.75404 8.90106 4.70137C8.86185 4.6487 8.81264 4.60428 8.75625 4.57062C8.69987 4.53697 8.6374 4.51476 8.57243 4.50525C8.50746 4.49574 8.44125 4.49911 8.37759 4.51519C8.31392 4.53127 8.25404 4.55972 8.20138 4.59894C8.14871 4.63816 8.10428 4.68736 8.07063 4.74375C8.07063 4.74375 6.04563 8.13625 6.04125 8.145C5.87181 8.44477 5.77344 8.77944 5.7537 9.12322C5.73397 9.467 5.7934 9.81072 5.92743 10.1279C6.06146 10.4451 6.2665 10.7273 6.52677 10.9528C6.78703 11.1782 7.09558 11.341 7.42863 11.4284C7.76169 11.5158 8.11038 11.5257 8.44783 11.4571C8.78529 11.3886 9.10251 11.2435 9.37507 11.0331C9.64763 10.8226 9.86825 10.5524 10.0199 10.2433C10.1716 9.93417 10.2503 9.59435 10.25 9.25Z" fill="black"/>
</g>
<defs>
<clipPath id="clip0_5_1258">
<rect width="16" height="16" fill="white"/>
</clipPath>
</defs>
</svg>
