<svg width="16" height="16" viewBox="0 0 16 16" fill="none" xmlns="http://www.w3.org/2000/svg">
<g clip-path="url(#clip0_5_544)">
<path d="M13 2H3C2.73478 2 2.48043 2.10536 2.29289 2.29289C2.10536 2.48043 2 2.73478 2 3V13C2 13.2652 2.10536 13.5196 2.29289 13.7071C2.48043 13.8946 2.73478 14 3 14H13C13.2652 14 13.5196 13.8946 13.7071 13.7071C13.8946 13.5196 14 13.2652 14 13V3C14 2.73478 13.8946 2.48043 13.7071 2.29289C13.5196 2.10536 13.2652 2 13 2ZM8.75 11C8.75 11.1326 8.69732 11.2598 8.60355 11.3536C8.50979 11.4473 8.38261 11.5 8.25 11.5C8.11739 11.5 7.99021 11.4473 7.89645 11.3536C7.80268 11.2598 7.75 11.1326 7.75 11V5.9375L7.0275 6.41937C6.97284 6.45582 6.91153 6.48114 6.84708 6.49388C6.78264 6.50663 6.71631 6.50656 6.65189 6.49368C6.58747 6.4808 6.52622 6.45535 6.47163 6.41879C6.41704 6.38224 6.37019 6.33529 6.33375 6.28062C6.29731 6.22596 6.27199 6.16466 6.25924 6.10021C6.24649 6.03576 6.24656 5.96943 6.25944 5.90501C6.27233 5.84059 6.29778 5.77934 6.33433 5.72475C6.37089 5.67017 6.41784 5.62332 6.4725 5.58687L7.9725 4.58687C8.0476 4.53677 8.13486 4.50793 8.22503 4.50342C8.31519 4.49891 8.4049 4.51889 8.48462 4.56126C8.56434 4.60362 8.63111 4.66677 8.67783 4.74402C8.72456 4.82127 8.7495 4.90972 8.75 5V11Z" fill="black"/>
</g>
<defs>
<clipPath id="clip0_5_544">
<rect width="16" height="16" fill="white"/>
</clipPath>
</defs>
</svg>
