<svg width="16" height="16" viewBox="0 0 16 16" fill="none" xmlns="http://www.w3.org/2000/svg">
<g clip-path="url(#clip0_5_546)">
<path d="M12.5 1.5H3.5C3.23478 1.5 2.98043 1.60536 2.79289 1.79289C2.60536 1.98043 2.5 2.23478 2.5 2.5V13.5C2.5 13.7652 2.60536 14.0196 2.79289 14.2071C2.98043 14.3946 3.23478 14.5 3.5 14.5H12.5C12.7652 14.5 13.0196 14.3946 13.2071 14.2071C13.3946 14.0196 13.5 13.7652 13.5 13.5V2.5C13.5 2.23478 13.3946 1.98043 13.2071 1.79289C13.0196 1.60536 12.7652 1.5 12.5 1.5ZM8 12C7.51971 11.9998 7.04786 11.8737 6.63141 11.6345C6.21495 11.3952 5.86843 11.051 5.62632 10.6362C5.38422 10.2214 5.25497 9.75044 5.25145 9.27017C5.24793 8.78989 5.37025 8.31706 5.60625 7.89875C5.61062 7.89062 5.61375 7.8825 5.61875 7.875L7.71125 4.25C7.77755 4.13513 7.88678 4.0513 8.01489 4.01696C8.143 3.98262 8.2795 4.00057 8.39437 4.06687C8.50925 4.13318 8.59307 4.2424 8.62742 4.37051C8.66176 4.49862 8.6438 4.63513 8.5775 4.75L7.545 6.53813C7.69538 6.51305 7.84755 6.5003 8 6.5C8.72935 6.5 9.42882 6.78973 9.94454 7.30546C10.4603 7.82118 10.75 8.52065 10.75 9.25C10.75 9.97935 10.4603 10.6788 9.94454 11.1945C9.42882 11.7103 8.72935 12 8 12ZM9.75 9.25C9.75 9.59612 9.64736 9.93446 9.45507 10.2222C9.26278 10.51 8.98947 10.7343 8.6697 10.8668C8.34993 10.9992 7.99806 11.0339 7.65859 10.9664C7.31913 10.8989 7.00731 10.7322 6.76256 10.4874C6.51782 10.2427 6.35115 9.93087 6.28363 9.59141C6.2161 9.25194 6.25076 8.90007 6.38321 8.5803C6.51566 8.26053 6.73997 7.98722 7.02775 7.79493C7.31554 7.60264 7.65388 7.5 8 7.5C8.46413 7.5 8.90925 7.68437 9.23744 8.01256C9.56563 8.34075 9.75 8.78587 9.75 9.25Z" fill="black"/>
</g>
<defs>
<clipPath id="clip0_5_546">
<rect width="16" height="16" fill="white"/>
</clipPath>
</defs>
</svg>
