<svg width="16" height="16" viewBox="0 0 16 16" fill="none" xmlns="http://www.w3.org/2000/svg">
<g clip-path="url(#clip0_5_795)">
<path d="M9.855 5.52437C10.2712 6.1575 10.5 7.03687 10.5 8C10.5 8.96313 10.2712 9.84188 9.855 10.4756C9.40937 11.1556 8.785 11.5 8 11.5C7.215 11.5 6.59062 11.1556 6.145 10.4756C5.72875 9.84188 5.5 8.96313 5.5 8C5.5 7.03687 5.72875 6.1575 6.145 5.52437C6.59062 4.84437 7.215 4.5 8 4.5C8.785 4.5 9.40937 4.84437 9.855 5.52437ZM13.5 2.5V13.5C13.5 13.7652 13.3946 14.0196 13.2071 14.2071C13.0196 14.3946 12.7652 14.5 12.5 14.5H3.5C3.23478 14.5 2.98043 14.3946 2.79289 14.2071C2.60536 14.0196 2.5 13.7652 2.5 13.5V2.5C2.5 2.23478 2.60536 1.98043 2.79289 1.79289C2.98043 1.60536 3.23478 1.5 3.5 1.5H12.5C12.7652 1.5 13.0196 1.60536 13.2071 1.79289C13.3946 1.98043 13.5 2.23478 13.5 2.5ZM11.5 8C11.5 6.84438 11.2125 5.77 10.6912 4.97563C10.0575 4.01 9.125 3.5 8 3.5C6.875 3.5 5.9425 4.01 5.30875 4.97563C4.7875 5.77 4.5 6.84438 4.5 8C4.5 9.15562 4.7875 10.23 5.30875 11.0244C5.9425 11.99 6.875 12.5 8 12.5C9.125 12.5 10.0575 11.99 10.6912 11.0244C11.2125 10.23 11.5 9.15562 11.5 8Z" fill="black"/>
</g>
<defs>
<clipPath id="clip0_5_795">
<rect width="16" height="16" fill="white"/>
</clipPath>
</defs>
</svg>
