<svg width="16" height="16" viewBox="0 0 16 16" fill="none" xmlns="http://www.w3.org/2000/svg">
<g clip-path="url(#clip0_5_1322)">
<path d="M12.5 1.5H3.5C3.23478 1.5 2.98043 1.60536 2.79289 1.79289C2.60536 1.98043 2.5 2.23478 2.5 2.5V13.5C2.5 13.7652 2.60536 14.0196 2.79289 14.2071C2.98043 14.3946 3.23478 14.5 3.5 14.5H12.5C12.7652 14.5 13.0196 14.3946 13.2071 14.2071C13.3946 14.0196 13.5 13.7652 13.5 13.5V2.5C13.5 2.23478 13.3946 1.98043 13.2071 1.79289C13.0196 1.60536 12.7652 1.5 12.5 1.5ZM10 11C10.1326 11 10.2598 11.0527 10.3536 11.1464C10.4473 11.2402 10.5 11.3674 10.5 11.5C10.5 11.6326 10.4473 11.7598 10.3536 11.8536C10.2598 11.9473 10.1326 12 10 12H6C5.90213 12 5.80641 11.9713 5.72472 11.9174C5.64302 11.8635 5.57893 11.7868 5.5404 11.6968C5.50188 11.6069 5.4906 11.5076 5.50797 11.4113C5.52534 11.3149 5.57059 11.2258 5.63812 11.155L9.11875 7.5C9.3663 7.20137 9.48854 6.81845 9.45981 6.43162C9.43108 6.04478 9.25361 5.68412 8.96466 5.42534C8.67571 5.16655 8.29774 5.02976 7.9101 5.04368C7.52245 5.0576 7.15527 5.22115 6.88562 5.5C6.8092 5.58326 6.74271 5.67513 6.6875 5.77375C6.6231 5.88978 6.51525 5.97548 6.38766 6.01199C6.26008 6.0485 6.12322 6.03284 6.00719 5.96844C5.89116 5.90404 5.80546 5.79619 5.76895 5.6686C5.73244 5.54102 5.7481 5.40416 5.8125 5.28813C5.90475 5.12242 6.01545 4.96768 6.1425 4.82688C6.58624 4.33415 7.20754 4.03789 7.86972 4.00325C8.5319 3.96861 9.18071 4.19845 9.67344 4.64219C10.1662 5.08593 10.4624 5.70723 10.4971 6.36941C10.5317 7.03159 10.3019 7.6804 9.85812 8.17313L9.84813 8.18312L7.16625 11H10Z" fill="black"/>
</g>
<defs>
<clipPath id="clip0_5_1322">
<rect width="16" height="16" fill="white"/>
</clipPath>
</defs>
</svg>
