<svg width="16" height="16" viewBox="0 0 16 16" fill="none" xmlns="http://www.w3.org/2000/svg">
<g clip-path="url(#clip0_5_555)">
<path d="M9.25 9.5C9.25 9.74723 9.17669 9.9889 9.03934 10.1945C8.90199 10.4 8.70677 10.5602 8.47836 10.6548C8.24995 10.7495 7.99862 10.7742 7.75614 10.726C7.51366 10.6778 7.29094 10.5587 7.11612 10.3839C6.9413 10.2091 6.82225 9.98634 6.77402 9.74386C6.72579 9.50139 6.75054 9.25005 6.84515 9.02165C6.93976 8.79324 7.09998 8.59801 7.30554 8.46066C7.5111 8.32331 7.75278 8.25 8 8.25C8.33152 8.25 8.64947 8.3817 8.88389 8.61612C9.11831 8.85054 9.25 9.16848 9.25 9.5ZM8 7.25C8.19778 7.25 8.39112 7.19135 8.55557 7.08147C8.72002 6.97159 8.8482 6.81541 8.92388 6.63268C8.99957 6.44996 9.01937 6.24889 8.98079 6.05491C8.9422 5.86093 8.84696 5.68275 8.70711 5.54289C8.56726 5.40304 8.38907 5.3078 8.19509 5.26921C8.00111 5.23063 7.80005 5.25043 7.61732 5.32612C7.43459 5.40181 7.27841 5.52998 7.16853 5.69443C7.05865 5.85888 7 6.05222 7 6.25C7 6.51522 7.10536 6.76957 7.2929 6.95711C7.48043 7.14464 7.73479 7.25 8 7.25ZM14.5 8C14.5 9.28558 14.1188 10.5423 13.4046 11.6112C12.6903 12.6801 11.6752 13.5132 10.4874 14.0052C9.29973 14.4972 7.99279 14.6259 6.73192 14.3751C5.47104 14.1243 4.31285 13.5052 3.40381 12.5962C2.49477 11.6872 1.8757 10.529 1.6249 9.26809C1.37409 8.00721 1.50282 6.70028 1.99479 5.51256C2.48676 4.32484 3.31988 3.30968 4.3888 2.59545C5.45772 1.88122 6.71442 1.5 8 1.5C9.72335 1.50182 11.3756 2.18722 12.5942 3.40582C13.8128 4.62441 14.4982 6.27665 14.5 8ZM10.25 9.5C10.25 9.15375 10.17 8.81218 10.0162 8.50199C9.8623 8.19179 9.6388 7.92138 9.36313 7.71187C9.65701 7.43815 9.86168 7.08229 9.95049 6.69062C10.0393 6.29895 10.0081 5.88962 9.86106 5.51591C9.71398 5.1422 9.45779 4.82142 9.12586 4.59534C8.79392 4.36927 8.40161 4.24836 8 4.24836C7.59839 4.24836 7.20608 4.36927 6.87415 4.59534C6.54221 4.82142 6.28603 5.1422 6.13895 5.51591C5.99187 5.88962 5.96071 6.29895 6.04952 6.69062C6.13833 7.08229 6.34299 7.43815 6.63688 7.71187C6.33224 7.94386 6.09184 8.24975 5.93844 8.60059C5.78504 8.95144 5.72372 9.33563 5.76028 9.71679C5.79685 10.098 5.93008 10.4635 6.14737 10.7788C6.36467 11.0941 6.65883 11.3487 7.00201 11.5185C7.3452 11.6884 7.72605 11.7678 8.10852 11.7493C8.49099 11.7309 8.86242 11.6151 9.18764 11.413C9.51287 11.2109 9.78113 10.9291 9.96703 10.5943C10.1529 10.2596 10.2503 9.88291 10.25 9.5Z" fill="black"/>
</g>
<defs>
<clipPath id="clip0_5_555">
<rect width="16" height="16" fill="white"/>
</clipPath>
</defs>
</svg>
