<svg width="16" height="16" viewBox="0 0 16 16" fill="none" xmlns="http://www.w3.org/2000/svg">
<g clip-path="url(#clip0_5_552)">
<path d="M8 1.5C6.71442 1.5 5.45772 1.88122 4.3888 2.59545C3.31988 3.30968 2.48676 4.32484 1.99479 5.51256C1.50282 6.70028 1.37409 8.00721 1.6249 9.26809C1.8757 10.529 2.49477 11.6872 3.40381 12.5962C4.31285 13.5052 5.47104 14.1243 6.73192 14.3751C7.99279 14.6259 9.29973 14.4972 10.4874 14.0052C11.6752 13.5132 12.6903 12.6801 13.4046 11.6112C14.1188 10.5423 14.5 9.28558 14.5 8C14.4982 6.27665 13.8128 4.62441 12.5942 3.40582C11.3756 2.18722 9.72335 1.50182 8 1.5ZM9.97 5.67063L7.97 11.1706C7.93496 11.2671 7.87106 11.3505 7.78697 11.4095C7.70288 11.4684 7.60268 11.5 7.5 11.5C7.4418 11.5001 7.38404 11.49 7.32938 11.47C7.26766 11.4476 7.21095 11.4133 7.1625 11.3689C7.11405 11.3246 7.07481 11.2712 7.04701 11.2117C7.01921 11.1522 7.0034 11.0878 7.00048 11.0222C6.99756 10.9566 7.00759 10.8911 7.03 10.8294L8.78625 6H6.5C6.36739 6 6.24022 5.94732 6.14645 5.85355C6.05268 5.75979 6 5.63261 6 5.5C6 5.36739 6.05268 5.24021 6.14645 5.14645C6.24022 5.05268 6.36739 5 6.5 5H9.5C9.58035 5 9.65951 5.01936 9.73079 5.05644C9.80207 5.09353 9.86336 5.14724 9.90947 5.21304C9.95558 5.27884 9.98516 5.35478 9.9957 5.43443C10.0062 5.51408 9.99742 5.5951 9.97 5.67063Z" fill="black"/>
</g>
<defs>
<clipPath id="clip0_5_552">
<rect width="16" height="16" fill="white"/>
</clipPath>
</defs>
</svg>
