<svg width="16" height="16" viewBox="0 0 16 16" fill="none" xmlns="http://www.w3.org/2000/svg">
<g clip-path="url(#clip0_5_1270)">
<path d="M6.5225 9L8.5 6.4575V9H6.5225ZM14.5 8C14.5 9.28558 14.1188 10.5423 13.4046 11.6112C12.6903 12.6801 11.6752 13.5132 10.4874 14.0052C9.29973 14.4972 7.99279 14.6259 6.73192 14.3751C5.47104 14.1243 4.31285 13.5052 3.40381 12.5962C2.49477 11.6872 1.8757 10.529 1.6249 9.26809C1.37409 8.00721 1.50282 6.70028 1.99479 5.51256C2.48676 4.32484 3.31988 3.30968 4.3888 2.59545C5.45772 1.88122 6.71442 1.5 8 1.5C9.72335 1.50182 11.3756 2.18722 12.5942 3.40582C13.8128 4.62441 14.4982 6.27665 14.5 8ZM10.5 9.5C10.5 9.36739 10.4473 9.24021 10.3536 9.14645C10.2598 9.05268 10.1326 9 10 9H9.5V5C9.4999 4.89589 9.46731 4.79441 9.40676 4.70971C9.34622 4.62502 9.26075 4.56133 9.16228 4.52755C9.0638 4.49376 8.95724 4.49155 8.85745 4.52123C8.75766 4.55092 8.66963 4.61101 8.60563 4.69312L5.10563 9.19312C5.04821 9.26699 5.01266 9.35548 5.00303 9.44855C4.9934 9.54161 5.01008 9.63551 5.05116 9.71956C5.09225 9.80362 5.15609 9.87446 5.23544 9.92404C5.31478 9.97361 5.40644 9.99993 5.5 10H8.5V11C8.5 11.1326 8.55268 11.2598 8.64645 11.3536C8.74022 11.4473 8.86739 11.5 9 11.5C9.13261 11.5 9.25979 11.4473 9.35356 11.3536C9.44732 11.2598 9.5 11.1326 9.5 11V10H10C10.1326 10 10.2598 9.94732 10.3536 9.85355C10.4473 9.75979 10.5 9.63261 10.5 9.5Z" fill="black"/>
</g>
<defs>
<clipPath id="clip0_5_1270">
<rect width="16" height="16" fill="white"/>
</clipPath>
</defs>
</svg>
