<svg width="16" height="16" viewBox="0 0 16 16" fill="none" xmlns="http://www.w3.org/2000/svg">
<g clip-path="url(#clip0_5_797)">
<path d="M13 2H3C2.73478 2 2.48043 2.10536 2.29289 2.29289C2.10536 2.48043 2 2.73478 2 3V13C2 13.2652 2.10536 13.5196 2.29289 13.7071C2.48043 13.8946 2.73478 14 3 14H13C13.2652 14 13.5196 13.8946 13.7071 13.7071C13.8946 13.5196 14 13.2652 14 13V3C14 2.73478 13.8946 2.48043 13.7071 2.29289C13.5196 2.10536 13.2652 2 13 2ZM9.5 10.5C9.63261 10.5 9.75979 10.5527 9.85355 10.6464C9.94732 10.7402 10 10.8674 10 11C10 11.1326 9.94732 11.2598 9.85355 11.3536C9.75979 11.4473 9.63261 11.5 9.5 11.5H6.5C6.40714 11.5 6.31612 11.4741 6.23713 11.4253C6.15815 11.3765 6.09431 11.3067 6.05279 11.2236C6.01126 11.1406 5.99368 11.0476 6.00202 10.9551C6.01036 10.8626 6.04429 10.7743 6.1 10.7L8.79813 7.1025C8.88452 6.98737 8.94504 6.85494 8.97555 6.71427C9.00606 6.5736 9.00584 6.428 8.97491 6.28742C8.94398 6.14684 8.88306 6.01459 8.79632 5.89972C8.70959 5.78485 8.59907 5.69005 8.47233 5.62182C8.34559 5.55358 8.20561 5.51351 8.06196 5.50434C7.91832 5.49517 7.77438 5.51712 7.63999 5.56869C7.50561 5.62026 7.38394 5.70024 7.2833 5.80315C7.18266 5.90607 7.10543 6.02949 7.05688 6.165C7.01262 6.29007 6.92049 6.39243 6.80076 6.44957C6.68103 6.50671 6.5435 6.51395 6.41844 6.46969C6.29337 6.42543 6.19101 6.3333 6.13387 6.21357C6.07673 6.09384 6.06949 5.95632 6.11375 5.83125C6.2102 5.55972 6.36419 5.31223 6.56518 5.10574C6.76616 4.89924 7.00939 4.73862 7.27822 4.63486C7.54705 4.5311 7.83512 4.48665 8.12272 4.50457C8.41032 4.52248 8.69065 4.60233 8.94453 4.73865C9.1984 4.87497 9.41982 5.06454 9.59362 5.29438C9.76743 5.52422 9.88951 5.7889 9.95152 6.07031C10.0135 6.35171 10.014 6.64319 9.9529 6.9248C9.8918 7.2064 9.77056 7.47148 9.5975 7.70188L7.5 10.5H9.5Z" fill="black"/>
</g>
<defs>
<clipPath id="clip0_5_797">
<rect width="16" height="16" fill="white"/>
</clipPath>
</defs>
</svg>
