<svg width="16" height="16" viewBox="0 0 16 16" fill="none" xmlns="http://www.w3.org/2000/svg">
<g clip-path="url(#clip0_5_866)">
<path d="M13 2H3C2.73478 2 2.48043 2.10536 2.29289 2.29289C2.10536 2.48043 2 2.73478 2 3V13C2 13.2652 2.10536 13.5196 2.29289 13.7071C2.48043 13.8946 2.73478 14 3 14H13C13.2652 14 13.5196 13.8946 13.7071 13.7071C13.8946 13.5196 14 13.2652 14 13V3C14 2.73478 13.8946 2.48043 13.7071 2.29289C13.5196 2.10536 13.2652 2 13 2ZM7.75 11.5C7.45053 11.5009 7.15394 11.4416 6.87788 11.3255C6.60182 11.2095 6.35194 11.039 6.14313 10.8244C6.09427 10.7782 6.05524 10.7226 6.02837 10.6609C6.0015 10.5992 5.98735 10.5328 5.98676 10.4655C5.98617 10.3983 5.99915 10.3316 6.02494 10.2695C6.05072 10.2074 6.08876 10.1511 6.1368 10.104C6.18484 10.057 6.24188 10.0201 6.30451 9.99555C6.36714 9.97103 6.43407 9.95941 6.5013 9.96137C6.56853 9.96333 6.63467 9.97883 6.69577 10.0069C6.75686 10.0351 6.81166 10.0752 6.85687 10.125C7.00113 10.2722 7.17952 10.3814 7.37619 10.4429C7.57286 10.5045 7.78169 10.5165 7.9841 10.4778C8.18652 10.4391 8.37623 10.351 8.53636 10.2213C8.69649 10.0916 8.82206 9.9243 8.90191 9.73433C8.98176 9.54435 9.01339 9.33758 8.99401 9.13242C8.97463 8.92726 8.90482 8.73008 8.79081 8.55842C8.6768 8.38676 8.52211 8.24595 8.34052 8.14852C8.15893 8.05109 7.95607 8.00007 7.75 8C7.65853 7.99997 7.56883 7.97486 7.49064 7.92739C7.41246 7.87992 7.34879 7.81191 7.30658 7.73077C7.26436 7.64962 7.24521 7.55845 7.25122 7.46718C7.25722 7.37591 7.28815 7.28804 7.34062 7.21313L8.53938 5.5H6.5C6.36739 5.5 6.24021 5.44732 6.14645 5.35355C6.05268 5.25979 6 5.13261 6 5C6 4.86739 6.05268 4.74021 6.14645 4.64645C6.24021 4.55268 6.36739 4.5 6.5 4.5H9.5C9.59147 4.50003 9.68118 4.52514 9.75936 4.57261C9.83754 4.62008 9.90121 4.68809 9.94342 4.76923C9.98564 4.85038 10.0048 4.94155 9.99878 5.03282C9.99278 5.12409 9.96185 5.21196 9.90938 5.28687L8.59688 7.16187C9.08268 7.35682 9.4853 7.71505 9.73543 8.17488C9.98556 8.63471 10.0675 9.16736 9.96724 9.68112C9.86695 10.1949 9.59066 10.6576 9.18595 10.9896C8.78125 11.3216 8.27345 11.5021 7.75 11.5Z" fill="black"/>
</g>
<defs>
<clipPath id="clip0_5_866">
<rect width="16" height="16" fill="white"/>
</clipPath>
</defs>
</svg>
