<svg width="16" height="16" viewBox="0 0 16 16" fill="none" xmlns="http://www.w3.org/2000/svg">
<g clip-path="url(#clip0_5_1344)">
<path d="M13 2H3C2.73478 2 2.48043 2.10536 2.29289 2.29289C2.10536 2.48043 2 2.73478 2 3V13C2 13.2652 2.10536 13.5196 2.29289 13.7071C2.48043 13.8946 2.73478 14 3 14H13C13.2652 14 13.5196 13.8946 13.7071 13.7071C13.8946 13.5196 14 13.2652 14 13V3C14 2.73478 13.8946 2.48043 13.7071 2.29289C13.5196 2.10536 13.2652 2 13 2ZM10 10H9.5V11C9.5 11.1326 9.44732 11.2598 9.35355 11.3536C9.25979 11.4473 9.13261 11.5 9 11.5C8.86739 11.5 8.74021 11.4473 8.64645 11.3536C8.55268 11.2598 8.5 11.1326 8.5 11V10H5.5C5.40644 9.99993 5.31478 9.97361 5.23543 9.92404C5.15609 9.87446 5.09225 9.80362 5.05116 9.71956C5.01008 9.63551 4.9934 9.54161 5.00303 9.44855C5.01266 9.35548 5.0482 9.26699 5.10563 9.19312L8.60563 4.69312C8.66962 4.61101 8.75766 4.55092 8.85744 4.52123C8.95723 4.49155 9.0638 4.49376 9.16227 4.52755C9.26075 4.56133 9.34622 4.62502 9.40676 4.70971C9.4673 4.79441 9.4999 4.89589 9.5 5V9H10C10.1326 9 10.2598 9.05268 10.3536 9.14645C10.4473 9.24021 10.5 9.36739 10.5 9.5C10.5 9.63261 10.4473 9.75979 10.3536 9.85355C10.2598 9.94732 10.1326 10 10 10ZM6.5225 9L8.5 6.4575V9H6.5225Z" fill="black"/>
</g>
<defs>
<clipPath id="clip0_5_1344">
<rect width="16" height="16" fill="white"/>
</clipPath>
</defs>
</svg>
