<svg width="16" height="16" viewBox="0 0 16 16" fill="none" xmlns="http://www.w3.org/2000/svg">
<g clip-path="url(#clip0_5_550)">
<path d="M9.75 8C9.75 8.92875 9.38125 10.5 8 10.5C6.61875 10.5 6.25 8.92875 6.25 8C6.25 7.07125 6.61875 5.5 8 5.5C9.38125 5.5 9.75 7.07125 9.75 8ZM14.5 8C14.5 9.28558 14.1188 10.5423 13.4046 11.6112C12.6903 12.6801 11.6752 13.5132 10.4874 14.0052C9.29973 14.4972 7.99279 14.6259 6.73192 14.3751C5.47104 14.1243 4.31285 13.5052 3.40381 12.5962C2.49477 11.6872 1.8757 10.529 1.6249 9.26809C1.37409 8.00721 1.50282 6.70028 1.99479 5.51256C2.48676 4.32484 3.31988 3.30968 4.3888 2.59545C5.45772 1.88122 6.71442 1.5 8 1.5C9.72335 1.50182 11.3756 2.18722 12.5942 3.40582C13.8128 4.62441 14.4982 6.27665 14.5 8ZM10.75 8C10.75 7.10938 10.5275 6.27938 10.125 5.66313C9.625 4.9025 8.88938 4.5 8 4.5C7.11063 4.5 6.375 4.9025 5.875 5.66313C5.47063 6.27938 5.25 7.10938 5.25 8C5.25 8.89062 5.4725 9.72062 5.875 10.3369C6.375 11.0981 7.10875 11.5 8 11.5C8.89125 11.5 9.625 11.0981 10.125 10.3369C10.5275 9.72062 10.75 8.89062 10.75 8Z" fill="black"/>
</g>
<defs>
<clipPath id="clip0_5_550">
<rect width="16" height="16" fill="white"/>
</clipPath>
</defs>
</svg>
