<svg width="16" height="16" viewBox="0 0 16 16" fill="none" xmlns="http://www.w3.org/2000/svg">
<g clip-path="url(#clip0_5_542)">
<path d="M9.25 9.25C9.25 9.49723 9.17669 9.7389 9.03934 9.94446C8.90199 10.15 8.70676 10.3102 8.47835 10.4048C8.24995 10.4995 7.99861 10.5242 7.75614 10.476C7.51366 10.4278 7.29093 10.3087 7.11612 10.1339C6.9413 9.95907 6.82225 9.73634 6.77402 9.49386C6.72579 9.25139 6.75054 9.00005 6.84515 8.77165C6.93976 8.54324 7.09998 8.34801 7.30554 8.21066C7.5111 8.07331 7.75277 8 8 8C8.33152 8 8.64946 8.1317 8.88388 8.36612C9.1183 8.60054 9.25 8.91848 9.25 9.25ZM14 3V13C14 13.2652 13.8946 13.5196 13.7071 13.7071C13.5196 13.8946 13.2652 14 13 14H3C2.73478 14 2.48043 13.8946 2.29289 13.7071C2.10536 13.5196 2 13.2652 2 13V3C2 2.73478 2.10536 2.48043 2.29289 2.29289C2.48043 2.10536 2.73478 2 3 2H13C13.2652 2 13.5196 2.10536 13.7071 2.29289C13.8946 2.48043 14 2.73478 14 3ZM10.25 9.25C10.25 8.65326 10.0129 8.08097 9.59099 7.65901C9.16903 7.23705 8.59674 7 8 7C7.96187 7 7.92375 7 7.88625 7L8.92937 5.25625C8.96303 5.19986 8.98524 5.1374 8.99475 5.07243C9.00427 5.00746 9.00089 4.94125 8.98481 4.87758C8.96873 4.81392 8.94028 4.75404 8.90106 4.70137C8.86184 4.6487 8.81264 4.60428 8.75625 4.57062C8.69986 4.53697 8.6374 4.51476 8.57243 4.50525C8.50746 4.49574 8.44125 4.49911 8.37758 4.51519C8.31392 4.53127 8.25404 4.55972 8.20137 4.59894C8.1487 4.63816 8.10428 4.68736 8.07063 4.74375C8.07063 4.74375 6.04563 8.13625 6.04125 8.145C5.87181 8.44477 5.77343 8.77944 5.7537 9.12322C5.73397 9.467 5.7934 9.81072 5.92743 10.1279C6.06146 10.4451 6.2665 10.7273 6.52676 10.9528C6.78703 11.1782 7.09557 11.341 7.42863 11.4284C7.76169 11.5158 8.11037 11.5257 8.44783 11.4571C8.78529 11.3886 9.10251 11.2435 9.37507 11.0331C9.64762 10.8226 9.86824 10.5524 10.0199 10.2433C10.1716 9.93417 10.2503 9.59435 10.25 9.25Z" fill="black"/>
</g>
<defs>
<clipPath id="clip0_5_542">
<rect width="16" height="16" fill="white"/>
</clipPath>
</defs>
</svg>
