<svg width="16" height="16" viewBox="0 0 16 16" fill="none" xmlns="http://www.w3.org/2000/svg">
<g clip-path="url(#clip0_5_553)">
<path d="M8 1.5C6.71442 1.5 5.45772 1.88122 4.3888 2.59545C3.31988 3.30968 2.48676 4.32484 1.99479 5.51256C1.50282 6.70028 1.37409 8.00721 1.6249 9.26809C1.8757 10.529 2.49477 11.6872 3.40381 12.5962C4.31285 13.5052 5.47104 14.1243 6.73192 14.3751C7.99279 14.6259 9.29973 14.4972 10.4874 14.0052C11.6752 13.5132 12.6903 12.6801 13.4046 11.6112C14.1188 10.5423 14.5 9.28558 14.5 8C14.4982 6.27665 13.8128 4.62441 12.5942 3.40582C11.3756 2.18722 9.72335 1.50182 8 1.5ZM8.75 11C8.75 11.1326 8.69732 11.2598 8.60356 11.3536C8.50979 11.4473 8.38261 11.5 8.25 11.5C8.11739 11.5 7.99022 11.4473 7.89645 11.3536C7.80268 11.2598 7.75 11.1326 7.75 11V5.9375L7.0275 6.41937C6.97284 6.45582 6.91153 6.48114 6.84709 6.49388C6.78264 6.50663 6.71631 6.50656 6.65189 6.49368C6.58747 6.4808 6.52622 6.45535 6.47163 6.41879C6.41705 6.38224 6.37019 6.33529 6.33375 6.28062C6.29731 6.22596 6.27199 6.16466 6.25924 6.10021C6.24649 6.03576 6.24656 5.96943 6.25945 5.90501C6.27233 5.84059 6.29778 5.77934 6.33433 5.72475C6.37089 5.67017 6.41784 5.62332 6.4725 5.58687L7.9725 4.58687C8.0476 4.53677 8.13486 4.50793 8.22503 4.50342C8.3152 4.49891 8.4049 4.51889 8.48462 4.56126C8.56435 4.60362 8.63111 4.66677 8.67784 4.74402C8.72456 4.82127 8.7495 4.90972 8.75 5V11Z" fill="black"/>
</g>
<defs>
<clipPath id="clip0_5_553">
<rect width="16" height="16" fill="white"/>
</clipPath>
</defs>
</svg>
