<svg width="16" height="16" viewBox="0 0 16 16" fill="none" xmlns="http://www.w3.org/2000/svg">
<g clip-path="url(#clip0_5_1237)">
<path d="M6.75 5.75C6.75 5.50277 6.82331 5.2611 6.96066 5.05554C7.09801 4.84998 7.29324 4.68976 7.52165 4.59515C7.75005 4.50054 8.00139 4.47579 8.24386 4.52402C8.48634 4.57225 8.70907 4.6913 8.88388 4.86612C9.0587 5.04093 9.17775 5.26366 9.22598 5.50614C9.27421 5.74861 9.24946 5.99995 9.15485 6.22835C9.06024 6.45676 8.90002 6.65199 8.69446 6.78934C8.4889 6.92669 8.24723 7 8 7C7.66848 7 7.35054 6.8683 7.11612 6.63388C6.8817 6.39946 6.75 6.08152 6.75 5.75ZM8 8C7.65388 8 7.31554 8.10264 7.02775 8.29493C6.73997 8.48722 6.51566 8.76053 6.38321 9.0803C6.25076 9.40007 6.2161 9.75194 6.28363 10.0914C6.35115 10.4309 6.51782 10.7427 6.76256 10.9874C7.00731 11.2322 7.31913 11.3989 7.65859 11.4664C7.99806 11.5339 8.34993 11.4992 8.6697 11.3668C8.98947 11.2343 9.26278 11.01 9.45507 10.7222C9.64736 10.4345 9.75 10.0961 9.75 9.75C9.75 9.28587 9.56563 8.84075 9.23744 8.51256C8.90925 8.18437 8.46413 8 8 8ZM13.5 2.5V13.5C13.5 13.7652 13.3946 14.0196 13.2071 14.2071C13.0196 14.3946 12.7652 14.5 12.5 14.5H3.5C3.23478 14.5 2.98043 14.3946 2.79289 14.2071C2.60536 14.0196 2.5 13.7652 2.5 13.5V2.5C2.5 2.23478 2.60536 1.98043 2.79289 1.79289C2.98043 1.60536 3.23478 1.5 3.5 1.5H12.5C12.7652 1.5 13.0196 1.60536 13.2071 1.79289C13.3946 1.98043 13.5 2.23478 13.5 2.5ZM10.75 9.75C10.7497 9.28951 10.6338 8.83646 10.4129 8.43241C10.192 8.02837 9.87314 7.68627 9.48563 7.4375C9.82908 7.13554 10.0724 6.73609 10.1831 6.29238C10.2938 5.84866 10.2667 5.38174 10.1053 4.95383C9.94394 4.52593 9.65602 4.15735 9.2799 3.8972C8.90378 3.63706 8.45732 3.4977 8 3.4977C7.54268 3.4977 7.09622 3.63706 6.7201 3.8972C6.34398 4.15735 6.05606 4.52593 5.8947 4.95383C5.73335 5.38174 5.70622 5.84866 5.81692 6.29238C5.92763 6.73609 6.17092 7.13554 6.51438 7.4375C6.11271 7.69535 5.78508 8.05331 5.56369 8.47617C5.34231 8.89903 5.2348 9.37223 5.25173 9.84924C5.26866 10.3262 5.40946 10.7906 5.66027 11.1967C5.91108 11.6028 6.26327 11.9366 6.68221 12.1654C7.10114 12.3941 7.5724 12.5098 8.04963 12.5012C8.52686 12.4926 8.99363 12.3599 9.40403 12.1162C9.81444 11.8726 10.1544 11.5262 10.3904 11.1114C10.6263 10.6965 10.7503 10.2273 10.75 9.75Z" fill="black"/>
</g>
<defs>
<clipPath id="clip0_5_1237">
<rect width="16" height="16" fill="white"/>
</clipPath>
</defs>
</svg>
