<svg width="16" height="16" viewBox="0 0 16 16" fill="none" xmlns="http://www.w3.org/2000/svg">
<g clip-path="url(#clip0_5_1464)">
<path d="M12.5 1.5H3.5C3.23478 1.5 2.98043 1.60536 2.79289 1.79289C2.60536 1.98043 2.5 2.23478 2.5 2.5V13.5C2.5 13.7652 2.60536 14.0196 2.79289 14.2071C2.98043 14.3946 3.23478 14.5 3.5 14.5H12.5C12.7652 14.5 13.0196 14.3946 13.2071 14.2071C13.3946 14.0196 13.5 13.7652 13.5 13.5V2.5C13.5 2.23478 13.3946 1.98043 13.2071 1.79289C13.0196 1.60536 12.7652 1.5 12.5 1.5ZM10.4706 4.66813L7.97062 11.6681C7.95008 11.7319 7.91694 11.7909 7.87316 11.8416C7.82939 11.8922 7.77587 11.9336 7.71579 11.9632C7.65571 11.9929 7.5903 12.0101 7.52342 12.0139C7.45655 12.0178 7.38959 12.0082 7.32651 11.9856C7.26344 11.9631 7.20553 11.9281 7.15623 11.8828C7.10693 11.8374 7.06725 11.7826 7.03953 11.7217C7.01182 11.6607 6.99664 11.5948 6.99489 11.5278C6.99315 11.4608 7.00487 11.3942 7.02938 11.3319L9.29062 5H6C5.86739 5 5.74021 4.94732 5.64645 4.85355C5.55268 4.75979 5.5 4.63261 5.5 4.5C5.5 4.36739 5.55268 4.24021 5.64645 4.14645C5.74021 4.05268 5.86739 4 6 4H10C10.0801 4.00004 10.159 4.01933 10.2301 4.05623C10.3012 4.09314 10.3624 4.14658 10.4085 4.21206C10.4546 4.27755 10.4844 4.35316 10.4952 4.43252C10.506 4.51189 10.4976 4.59269 10.4706 4.66813Z" fill="black"/>
</g>
<defs>
<clipPath id="clip0_5_1464">
<rect width="16" height="16" fill="white"/>
</clipPath>
</defs>
</svg>
