<svg width="16" height="16" viewBox="0 0 16 16" fill="none" xmlns="http://www.w3.org/2000/svg">
<g clip-path="url(#clip0_5_541)">
<path d="M9.75 8C9.75 8.92875 9.38125 10.5 8 10.5C6.61875 10.5 6.25 8.92875 6.25 8C6.25 7.07125 6.61875 5.5 8 5.5C9.38125 5.5 9.75 7.07125 9.75 8ZM14 3V13C14 13.2652 13.8946 13.5196 13.7071 13.7071C13.5196 13.8946 13.2652 14 13 14H3C2.73478 14 2.48043 13.8946 2.29289 13.7071C2.10536 13.5196 2 13.2652 2 13V3C2 2.73478 2.10536 2.48043 2.29289 2.29289C2.48043 2.10536 2.73478 2 3 2H13C13.2652 2 13.5196 2.10536 13.7071 2.29289C13.8946 2.48043 14 2.73478 14 3ZM10.75 8C10.75 7.10938 10.5275 6.27938 10.125 5.66313C9.625 4.9025 8.88937 4.5 8 4.5C7.11063 4.5 6.375 4.9025 5.875 5.66313C5.47062 6.27938 5.25 7.10938 5.25 8C5.25 8.89062 5.4725 9.72062 5.875 10.3369C6.375 11.0975 7.10875 11.5 8 11.5C8.89125 11.5 9.625 11.0975 10.125 10.3369C10.5275 9.72062 10.75 8.89062 10.75 8Z" fill="black"/>
</g>
<defs>
<clipPath id="clip0_5_541">
<rect width="16" height="16" fill="white"/>
</clipPath>
</defs>
</svg>
