<svg width="16" height="16" viewBox="0 0 16 16" fill="none" xmlns="http://www.w3.org/2000/svg">
<g clip-path="url(#clip0_5_549)">
<path d="M6.54063 9L9 5.92562V9H6.54063ZM13.5 2.5V13.5C13.5 13.7652 13.3946 14.0196 13.2071 14.2071C13.0196 14.3946 12.7652 14.5 12.5 14.5H3.5C3.23478 14.5 2.98043 14.3946 2.79289 14.2071C2.60536 14.0196 2.5 13.7652 2.5 13.5V2.5C2.5 2.23478 2.60536 1.98043 2.79289 1.79289C2.98043 1.60536 3.23478 1.5 3.5 1.5H12.5C12.7652 1.5 13.0196 1.60536 13.2071 1.79289C13.3946 1.98043 13.5 2.23478 13.5 2.5ZM11.5 9.5C11.5 9.36739 11.4473 9.24021 11.3536 9.14645C11.2598 9.05268 11.1326 9 11 9H10V4.5C10.0001 4.39633 9.96794 4.2952 9.90802 4.21061C9.8481 4.12601 9.76336 4.06213 9.66554 4.02781C9.56772 3.99349 9.46165 3.99042 9.36201 4.01903C9.26237 4.04764 9.17409 4.10651 9.10938 4.1875L5.10938 9.1875C5.05048 9.26106 5.01358 9.34976 5.0029 9.44338C4.99223 9.537 5.00823 9.63173 5.04906 9.71665C5.08989 9.80157 5.15388 9.87323 5.23366 9.92336C5.31345 9.97349 5.40577 10.0001 5.5 10H9V11.5C9 11.6326 9.05268 11.7598 9.14645 11.8536C9.24021 11.9473 9.36739 12 9.5 12C9.63261 12 9.75979 11.9473 9.85355 11.8536C9.94732 11.7598 10 11.6326 10 11.5V10H11C11.1326 10 11.2598 9.94732 11.3536 9.85355C11.4473 9.75979 11.5 9.63261 11.5 9.5Z" fill="black"/>
</g>
<defs>
<clipPath id="clip0_5_549">
<rect width="16" height="16" fill="white"/>
</clipPath>
</defs>
</svg>
