<svg width="16" height="16" viewBox="0 0 16 16" fill="none" xmlns="http://www.w3.org/2000/svg">
<g clip-path="url(#clip0_5_1252)">
<path d="M8 1.5C6.71442 1.5 5.45772 1.88122 4.3888 2.59545C3.31988 3.30968 2.48676 4.32484 1.99479 5.51256C1.50282 6.70028 1.37409 8.00721 1.6249 9.26809C1.8757 10.529 2.49477 11.6872 3.40381 12.5962C4.31285 13.5052 5.47104 14.1243 6.73192 14.3751C7.99279 14.6259 9.29973 14.4972 10.4874 14.0052C11.6752 13.5132 12.6903 12.6801 13.4046 11.6112C14.1188 10.5423 14.5 9.28558 14.5 8C14.4982 6.27665 13.8128 4.62441 12.5942 3.40582C11.3756 2.18722 9.72335 1.50182 8 1.5ZM7.75 11.75C7.45054 11.7509 7.15394 11.6916 6.87788 11.5755C6.60182 11.4595 6.35194 11.289 6.14313 11.0744C6.09427 11.0282 6.05524 10.9726 6.02837 10.9109C6.00151 10.8492 5.98735 10.7828 5.98676 10.7155C5.98617 10.6483 5.99916 10.5816 6.02494 10.5195C6.05072 10.4574 6.08877 10.4011 6.13681 10.354C6.18484 10.307 6.24188 10.2701 6.30451 10.2455C6.36714 10.221 6.43408 10.2094 6.5013 10.2114C6.56853 10.2133 6.63467 10.2288 6.69577 10.2569C6.75686 10.2851 6.81166 10.3252 6.85688 10.375C7.00113 10.5222 7.17953 10.6314 7.37619 10.6929C7.57286 10.7545 7.78169 10.7665 7.98411 10.7278C8.18652 10.6891 8.37623 10.601 8.53636 10.4713C8.69649 10.3416 8.82207 10.1743 8.90191 9.98433C8.98176 9.79435 9.0134 9.58758 8.99401 9.38242C8.97463 9.17726 8.90483 8.98008 8.79081 8.80842C8.6768 8.63676 8.52211 8.49595 8.34052 8.39852C8.15894 8.30109 7.95608 8.25007 7.75 8.25C7.65854 8.24997 7.56883 8.22486 7.49064 8.17739C7.41246 8.12992 7.3488 8.06191 7.30658 7.98077C7.26437 7.89962 7.24522 7.80845 7.25122 7.71718C7.25722 7.62591 7.28815 7.53804 7.34063 7.46313L8.53938 5.75H6.5C6.36739 5.75 6.24022 5.69732 6.14645 5.60355C6.05268 5.50979 6 5.38261 6 5.25C6 5.11739 6.05268 4.99021 6.14645 4.89645C6.24022 4.80268 6.36739 4.75 6.5 4.75H9.5C9.59147 4.75003 9.68118 4.77514 9.75936 4.82261C9.83755 4.87008 9.90121 4.93809 9.94343 5.01923C9.98564 5.10038 10.0048 5.19155 9.99879 5.28282C9.99278 5.37409 9.96186 5.46196 9.90938 5.53687L8.59688 7.41187C9.08268 7.60682 9.48531 7.96505 9.73543 8.42488C9.98556 8.88471 10.0675 9.41736 9.96724 9.93112C9.86695 10.4449 9.59066 10.9076 9.18596 11.2396C8.78125 11.5716 8.27346 11.7521 7.75 11.75Z" fill="black"/>
</g>
<defs>
<clipPath id="clip0_5_1252">
<rect width="16" height="16" fill="white"/>
</clipPath>
</defs>
</svg>
