<svg width="16" height="16" viewBox="0 0 16 16" fill="none" xmlns="http://www.w3.org/2000/svg">
<g clip-path="url(#clip0_5_1662)">
<path d="M9.08313 7.375C8.95957 7.58913 8.7753 7.76182 8.55361 7.87122C8.33191 7.98062 8.08275 8.02183 7.83764 7.98963C7.59253 7.95744 7.36246 7.85328 7.17654 7.69034C6.99062 7.52739 6.8572 7.31298 6.79313 7.0742C6.72907 6.83543 6.73725 6.58302 6.81663 6.34889C6.89602 6.11476 7.04304 5.90943 7.23912 5.75887C7.4352 5.6083 7.67152 5.51925 7.91821 5.50299C8.16489 5.48673 8.41086 5.54398 8.625 5.6675C8.91199 5.83337 9.12134 6.10644 9.20702 6.42664C9.2927 6.74685 9.24768 7.08798 9.08188 7.375H9.08313ZM14.5 8C14.5 9.28558 14.1188 10.5423 13.4046 11.6112C12.6903 12.6801 11.6752 13.5132 10.4874 14.0052C9.29973 14.4972 7.99279 14.6259 6.73192 14.3751C5.47104 14.1243 4.31285 13.5052 3.40381 12.5962C2.49477 11.6872 1.8757 10.529 1.6249 9.26809C1.37409 8.00721 1.50282 6.70028 1.99479 5.51256C2.48676 4.32484 3.31988 3.30968 4.3888 2.59545C5.45772 1.88122 6.71442 1.5 8 1.5C9.72335 1.50182 11.3756 2.18722 12.5942 3.40582C13.8128 4.62441 14.4982 6.27665 14.5 8ZM9.125 4.80125C8.82625 4.62884 8.49186 4.52742 8.14767 4.50483C7.80347 4.48225 7.4587 4.5391 7.13998 4.671C6.82126 4.80289 6.53713 5.0063 6.30955 5.26551C6.08197 5.52471 5.91704 5.83277 5.82749 6.16588C5.73794 6.49898 5.72618 6.84822 5.79311 7.18659C5.86004 7.52497 6.00387 7.84343 6.21349 8.11736C6.42311 8.39129 6.69291 8.61336 7.00203 8.7664C7.31115 8.91945 7.65132 8.99937 7.99625 9C8.03542 9 8.07479 8.99875 8.11438 8.99625L7.07063 10.7463C7.03668 10.8027 7.01423 10.8653 7.00455 10.9305C6.99488 10.9957 6.99819 11.0621 7.01428 11.126C7.03036 11.1899 7.05892 11.25 7.0983 11.3028C7.13768 11.3556 7.18711 11.4001 7.24375 11.4338C7.30022 11.4677 7.36283 11.4902 7.428 11.4998C7.49317 11.5095 7.5596 11.5062 7.62349 11.4901C7.68738 11.474 7.74746 11.4455 7.80027 11.4061C7.85309 11.3667 7.8976 11.3173 7.93125 11.2606L9.94875 7.875C10.2463 7.35798 10.3267 6.74405 10.1723 6.16784C10.0179 5.59163 9.64124 5.10018 9.125 4.80125Z" fill="black"/>
</g>
<defs>
<clipPath id="clip0_5_1662">
<rect width="16" height="16" fill="white"/>
</clipPath>
</defs>
</svg>
