<svg width="16" height="16" viewBox="0 0 16 16" fill="none" xmlns="http://www.w3.org/2000/svg">
<g clip-path="url(#clip0_5_539)">
<path d="M12.5 1.5H3.5C3.23478 1.5 2.98043 1.60536 2.79289 1.79289C2.60536 1.98043 2.5 2.23478 2.5 2.5V13.5C2.5 13.7652 2.60536 14.0196 2.79289 14.2071C2.98043 14.3946 3.23478 14.5 3.5 14.5H12.5C12.7652 14.5 13.0196 14.3946 13.2071 14.2071C13.3946 14.0196 13.5 13.7652 13.5 13.5V2.5C13.5 2.23478 13.3946 1.98043 13.2071 1.79289C13.0196 1.60536 12.7652 1.5 12.5 1.5ZM5 10.25C4.85166 10.25 4.70666 10.206 4.58332 10.1236C4.45999 10.0412 4.36386 9.92406 4.30709 9.78701C4.25032 9.64997 4.23547 9.49917 4.26441 9.35368C4.29335 9.2082 4.36478 9.07456 4.46967 8.96967C4.57456 8.86478 4.7082 8.79335 4.85368 8.76441C4.99917 8.73547 5.14997 8.75033 5.28701 8.80709C5.42406 8.86386 5.54119 8.95999 5.6236 9.08332C5.70601 9.20666 5.75 9.35166 5.75 9.5C5.75 9.69891 5.67098 9.88968 5.53033 10.0303C5.38968 10.171 5.19891 10.25 5 10.25ZM5 7.75C4.85166 7.75 4.70666 7.70601 4.58332 7.6236C4.45999 7.54119 4.36386 7.42406 4.30709 7.28701C4.25032 7.14997 4.23547 6.99917 4.26441 6.85368C4.29335 6.7082 4.36478 6.57456 4.46967 6.46967C4.57456 6.36478 4.7082 6.29335 4.85368 6.26441C4.99917 6.23547 5.14997 6.25032 5.28701 6.30709C5.42406 6.36386 5.54119 6.45999 5.6236 6.58332C5.70601 6.70666 5.75 6.85166 5.75 7C5.75 7.19891 5.67098 7.38968 5.53033 7.53033C5.38968 7.67098 5.19891 7.75 5 7.75ZM5 5.25C4.85166 5.25 4.70666 5.20601 4.58332 5.1236C4.45999 5.04119 4.36386 4.92406 4.30709 4.78701C4.25032 4.64997 4.23547 4.49917 4.26441 4.35368C4.29335 4.2082 4.36478 4.07456 4.46967 3.96967C4.57456 3.86478 4.7082 3.79335 4.85368 3.76441C4.99917 3.73547 5.14997 3.75032 5.28701 3.80709C5.42406 3.86386 5.54119 3.95999 5.6236 4.08332C5.70601 4.20666 5.75 4.35166 5.75 4.5C5.75 4.69891 5.67098 4.88968 5.53033 5.03033C5.38968 5.17098 5.19891 5.25 5 5.25ZM8 12.75C7.85166 12.75 7.70666 12.706 7.58332 12.6236C7.45999 12.5412 7.36386 12.4241 7.30709 12.287C7.25032 12.15 7.23547 11.9992 7.26441 11.8537C7.29335 11.7082 7.36478 11.5746 7.46967 11.4697C7.57456 11.3648 7.7082 11.2934 7.85368 11.2644C7.99917 11.2355 8.14997 11.2503 8.28701 11.3071C8.42406 11.3639 8.54119 11.46 8.6236 11.5833C8.70601 11.7067 8.75 11.8517 8.75 12C8.75 12.1989 8.67098 12.3897 8.53033 12.5303C8.38968 12.671 8.19891 12.75 8 12.75ZM8 10.25C7.85166 10.25 7.70666 10.206 7.58332 10.1236C7.45999 10.0412 7.36386 9.92406 7.30709 9.78701C7.25032 9.64997 7.23547 9.49917 7.26441 9.35368C7.29335 9.2082 7.36478 9.07456 7.46967 8.96967C7.57456 8.86478 7.7082 8.79335 7.85368 8.76441C7.99917 8.73547 8.14997 8.75033 8.28701 8.80709C8.42406 8.86386 8.54119 8.95999 8.6236 9.08332C8.70601 9.20666 8.75 9.35166 8.75 9.5C8.75 9.69891 8.67098 9.88968 8.53033 10.0303C8.38968 10.171 8.19891 10.25 8 10.25ZM8 7.75C7.85166 7.75 7.70666 7.70601 7.58332 7.6236C7.45999 7.54119 7.36386 7.42406 7.30709 7.28701C7.25032 7.14997 7.23547 6.99917 7.26441 6.85368C7.29335 6.7082 7.36478 6.57456 7.46967 6.46967C7.57456 6.36478 7.7082 6.29335 7.85368 6.26441C7.99917 6.23547 8.14997 6.25032 8.28701 6.30709C8.42406 6.36386 8.54119 6.45999 8.6236 6.58332C8.70601 6.70666 8.75 6.85166 8.75 7C8.75 7.19891 8.67098 7.38968 8.53033 7.53033C8.38968 7.67098 8.19891 7.75 8 7.75ZM8 5.25C7.85166 5.25 7.70666 5.20601 7.58332 5.1236C7.45999 5.04119 7.36386 4.92406 7.30709 4.78701C7.25032 4.64997 7.23547 4.49917 7.26441 4.35368C7.29335 4.2082 7.36478 4.07456 7.46967 3.96967C7.57456 3.86478 7.7082 3.79335 7.85368 3.76441C7.99917 3.73547 8.14997 3.75032 8.28701 3.80709C8.42406 3.86386 8.54119 3.95999 8.6236 4.08332C8.70601 4.20666 8.75 4.35166 8.75 4.5C8.75 4.69891 8.67098 4.88968 8.53033 5.03033C8.38968 5.17098 8.19891 5.25 8 5.25ZM11 10.25C10.8517 10.25 10.7067 10.206 10.5833 10.1236C10.46 10.0412 10.3639 9.92406 10.3071 9.78701C10.2503 9.64997 10.2355 9.49917 10.2644 9.35368C10.2933 9.2082 10.3648 9.07456 10.4697 8.96967C10.5746 8.86478 10.7082 8.79335 10.8537 8.76441C10.9992 8.73547 11.15 8.75033 11.287 8.80709C11.4241 8.86386 11.5412 8.95999 11.6236 9.08332C11.706 9.20666 11.75 9.35166 11.75 9.5C11.75 9.69891 11.671 9.88968 11.5303 10.0303C11.3897 10.171 11.1989 10.25 11 10.25ZM11 7.75C10.8517 7.75 10.7067 7.70601 10.5833 7.6236C10.46 7.54119 10.3639 7.42406 10.3071 7.28701C10.2503 7.14997 10.2355 6.99917 10.2644 6.85368C10.2933 6.7082 10.3648 6.57456 10.4697 6.46967C10.5746 6.36478 10.7082 6.29335 10.8537 6.26441C10.9992 6.23547 11.15 6.25032 11.287 6.30709C11.4241 6.36386 11.5412 6.45999 11.6236 6.58332C11.706 6.70666 11.75 6.85166 11.75 7C11.75 7.19891 11.671 7.38968 11.5303 7.53033C11.3897 7.67098 11.1989 7.75 11 7.75ZM11 5.25C10.8517 5.25 10.7067 5.20601 10.5833 5.1236C10.46 5.04119 10.3639 4.92406 10.3071 4.78701C10.2503 4.64997 10.2355 4.49917 10.2644 4.35368C10.2933 4.2082 10.3648 4.07456 10.4697 3.96967C10.5746 3.86478 10.7082 3.79335 10.8537 3.76441C10.9992 3.73547 11.15 3.75032 11.287 3.80709C11.4241 3.86386 11.5412 3.95999 11.6236 4.08332C11.706 4.20666 11.75 4.35166 11.75 4.5C11.75 4.69891 11.671 4.88968 11.5303 5.03033C11.3897 5.17098 11.1989 5.25 11 5.25Z" fill="black"/>
</g>
<defs>
<clipPath id="clip0_5_539">
<rect width="16" height="16" fill="white"/>
</clipPath>
</defs>
</svg>
