<svg width="16" height="16" viewBox="0 0 16 16" fill="none" xmlns="http://www.w3.org/2000/svg">
<g clip-path="url(#clip0_5_538)">
<path d="M13.98 4.13439L8.48 1.12501C8.33305 1.04381 8.16789 1.00122 8 1.00122C7.83211 1.00122 7.66695 1.04381 7.52 1.12501L2.02 4.13564C1.86293 4.22158 1.73181 4.34811 1.64034 4.50203C1.54888 4.65594 1.50041 4.83159 1.5 5.01064V10.9881C1.50041 11.1672 1.54888 11.3428 1.64034 11.4967C1.73181 11.6507 1.86293 11.7772 2.02 11.8631L7.52 14.8738C7.66695 14.955 7.83211 14.9976 8 14.9976C8.16789 14.9976 8.33305 14.955 8.48 14.8738L13.98 11.8631C14.1371 11.7772 14.2682 11.6507 14.3597 11.4967C14.4511 11.3428 14.4996 11.1672 14.5 10.9881V5.01126C14.4999 4.8319 14.4516 4.65586 14.3601 4.50158C14.2686 4.34731 14.1373 4.22048 13.98 4.13439ZM8 10.5C7.50555 10.5 7.0222 10.3534 6.61107 10.0787C6.19995 9.80398 5.87952 9.41354 5.6903 8.95672C5.50108 8.49991 5.45157 7.99724 5.54804 7.51229C5.6445 7.02733 5.8826 6.58188 6.23223 6.23224C6.58186 5.88261 7.02732 5.64451 7.51227 5.54805C7.99723 5.45158 8.49989 5.50109 8.95671 5.69031C9.41352 5.87953 9.80397 6.19996 10.0787 6.61109C10.3534 7.02221 10.5 7.50556 10.5 8.00001C10.5 8.66305 10.2366 9.29894 9.76777 9.76778C9.29893 10.2366 8.66304 10.5 8 10.5Z" fill="black"/>
</g>
<defs>
<clipPath id="clip0_5_538">
<rect width="16" height="16" fill="white"/>
</clipPath>
</defs>
</svg>
