<svg width="16" height="16" viewBox="0 0 16 16" fill="none" xmlns="http://www.w3.org/2000/svg">
<g clip-path="url(#clip0_5_1305)">
<path d="M10.75 8.5C10.8984 8.5 11.0434 8.54399 11.1667 8.6264C11.29 8.70881 11.3862 8.82594 11.4429 8.96299C11.4997 9.10003 11.5145 9.25083 11.4856 9.39632C11.4567 9.5418 11.3852 9.67544 11.2803 9.78033C11.1755 9.88522 11.0418 9.95665 10.8963 9.98559C10.7508 10.0145 10.6 9.99967 10.463 9.94291C10.326 9.88614 10.2088 9.79001 10.1264 9.66668C10.044 9.54334 10 9.39834 10 9.25C10 9.05109 10.079 8.86032 10.2197 8.71967C10.3603 8.57902 10.5511 8.5 10.75 8.5ZM11.5388 6.45312L7.43189 4.53687C6.37439 4.67096 5.3989 5.17635 4.67943 5.9629C3.95996 6.74946 3.5433 7.76601 3.50377 8.83125L7.76502 6.55875C7.8412 6.51819 7.92658 6.49803 8.01286 6.50025C8.09914 6.50246 8.18337 6.52698 8.25737 6.5714C8.33137 6.61582 8.3926 6.67865 8.43513 6.75375C8.47765 6.82886 8.5 6.91369 8.50002 7V13.4719C9.36834 13.3778 10.1902 13.0319 10.8644 12.4766C11.5386 11.9214 12.0356 11.1811 12.2944 10.3469C12.3346 10.2202 12.4235 10.1146 12.5415 10.0534C12.6595 9.99222 12.797 9.98043 12.9238 10.0206C13.0505 10.0608 13.1561 10.1497 13.2172 10.2677C13.2784 10.3858 13.2902 10.5233 13.25 10.65C13.017 11.3856 12.6318 12.0639 12.1194 12.6409C11.6071 13.2179 10.979 13.6806 10.2761 13.999C9.57325 14.3174 8.81123 14.4843 8.03961 14.4889C7.26799 14.4935 6.50404 14.3357 5.7974 14.0257C5.09077 13.7157 4.45726 13.2605 3.93807 12.6897C3.41887 12.1189 3.02559 11.4452 2.78381 10.7124C2.54202 9.97963 2.45713 9.20418 2.53465 8.43645C2.61217 7.66872 2.85037 6.9259 3.23377 6.25625C2.78305 6.02743 2.42251 5.6535 2.21027 5.19474C1.99803 4.73598 1.94645 4.21912 2.06384 3.72746C2.18123 3.23581 2.46075 2.798 2.85736 2.48462C3.25396 2.17123 3.74454 2.00052 4.25002 2C4.323 2.00012 4.39508 2.01611 4.46127 2.04688L11.8519 5.49563C12.173 5.4687 12.4713 5.31879 12.6846 5.0772C12.8978 4.83561 13.0095 4.52099 12.9964 4.19901C12.9832 3.87703 12.8463 3.57257 12.614 3.34916C12.3818 3.12576 12.0723 3.00067 11.75 3C11.6174 3 11.4902 2.94732 11.3965 2.85355C11.3027 2.75979 11.25 2.63261 11.25 2.5C11.25 2.36739 11.3027 2.24021 11.3965 2.14645C11.4902 2.05268 11.6174 2 11.75 2C12.3468 2 12.919 2.23705 13.341 2.65901C13.763 3.08097 14 3.65326 14 4.25C14 4.84674 13.763 5.41903 13.341 5.84099C12.919 6.26295 12.3468 6.5 11.75 6.5C11.677 6.49988 11.6049 6.48389 11.5388 6.45312ZM6.00002 13.0294V8.63313L3.59439 9.91625C3.73444 10.5831 4.02361 11.2095 4.44023 11.7487C4.85685 12.2878 5.3901 12.7256 6.00002 13.0294ZM6.00814 3.875L4.14814 3.00437C3.86448 3.02825 3.59747 3.14822 3.39126 3.34445C3.18505 3.54069 3.05199 3.80143 3.01409 4.08355C2.97619 4.36568 3.03572 4.65229 3.18284 4.89599C3.32995 5.13968 3.55584 5.32587 3.82314 5.42375C3.86064 5.37937 3.89814 5.335 3.93814 5.29187C4.50979 4.66644 5.21821 4.18154 6.00814 3.875Z" fill="black"/>
</g>
<defs>
<clipPath id="clip0_5_1305">
<rect width="16" height="16" fill="white"/>
</clipPath>
</defs>
</svg>
