<svg width="16" height="16" viewBox="0 0 16 16" fill="none" xmlns="http://www.w3.org/2000/svg">
<g clip-path="url(#clip0_5_793)">
<path d="M14.2069 5.01438L10.9856 1.79313C10.7975 1.60616 10.5433 1.50084 10.2781 1.5H5.72188C5.45667 1.50084 5.20247 1.60616 5.01438 1.79313L1.79313 5.01438C1.60616 5.20247 1.50084 5.45667 1.5 5.72188V10.2781C1.50084 10.5433 1.60616 10.7975 1.79313 10.9856L5.01438 14.2069C5.20247 14.3938 5.45667 14.4992 5.72188 14.5H10.2781C10.5433 14.4992 10.7975 14.3938 10.9856 14.2069L14.2069 10.9856C14.3938 10.7975 14.4992 10.5433 14.5 10.2781V5.72188C14.4992 5.45667 14.3938 5.20247 14.2069 5.01438Z" fill="black"/>
</g>
<defs>
<clipPath id="clip0_5_793">
<rect width="16" height="16" fill="white"/>
</clipPath>
</defs>
</svg>
