<svg width="16" height="16" viewBox="0 0 16 16" fill="none" xmlns="http://www.w3.org/2000/svg">
<g clip-path="url(#clip0_5_537)">
<path d="M15.5 8C15.5 8.13261 15.4473 8.25979 15.3536 8.35355C15.2598 8.44732 15.1326 8.5 15 8.5H13.9581C13.839 9.19863 13.4768 9.83268 12.9355 10.2901C12.3943 10.7476 11.7087 10.999 11 11H8.5V12.5H10C10.5304 12.5 11.0391 12.7107 11.4142 13.0858C11.7893 13.4609 12 13.9696 12 14.5C12 14.6326 11.9473 14.7598 11.8536 14.8536C11.7598 14.9473 11.6326 15 11.5 15C11.3674 15 11.2402 14.9473 11.1464 14.8536C11.0527 14.7598 11 14.6326 11 14.5C11 14.2348 10.8946 13.9804 10.7071 13.7929C10.5196 13.6054 10.2652 13.5 10 13.5H8.5V14.5C8.5 14.6326 8.44732 14.7598 8.35355 14.8536C8.25979 14.9473 8.13261 15 8 15C7.86739 15 7.74021 14.9473 7.64645 14.8536C7.55268 14.7598 7.5 14.6326 7.5 14.5V13.5H6C5.73478 13.5 5.48043 13.6054 5.29289 13.7929C5.10536 13.9804 5 14.2348 5 14.5C5 14.6326 4.94732 14.7598 4.85355 14.8536C4.75979 14.9473 4.63261 15 4.5 15C4.36739 15 4.24021 14.9473 4.14645 14.8536C4.05268 14.7598 4 14.6326 4 14.5C4 13.9696 4.21071 13.4609 4.58579 13.0858C4.96086 12.7107 5.46957 12.5 6 12.5H7.5V11H5C4.2913 10.999 3.60574 10.7476 3.06445 10.2901C2.52316 9.83268 2.16097 9.19863 2.04187 8.5H1C0.867392 8.5 0.740215 8.44732 0.646447 8.35355C0.552678 8.25979 0.5 8.13261 0.5 8C0.5 7.86739 0.552678 7.74021 0.646447 7.64645C0.740215 7.55268 0.867392 7.5 1 7.5H2.5C2.63261 7.5 2.75979 7.55268 2.85355 7.64645C2.94732 7.74021 3 7.86739 3 8C3 8.53043 3.21071 9.03914 3.58579 9.41421C3.96086 9.78929 4.46957 10 5 10H11C11.5304 10 12.0391 9.78929 12.4142 9.41421C12.7893 9.03914 13 8.53043 13 8C13 7.86739 13.0527 7.74021 13.1464 7.64645C13.2402 7.55268 13.3674 7.5 13.5 7.5H15C15.1326 7.5 15.2598 7.55268 15.3536 7.64645C15.4473 7.74021 15.5 7.86739 15.5 8ZM5 9H11C11.1433 9 11.2848 8.96923 11.4152 8.90975C11.5455 8.85028 11.6615 8.76349 11.7554 8.65528C11.8493 8.54706 11.9188 8.41994 11.9593 8.28251C11.9998 8.14509 12.0102 8.00057 11.99 7.85875L11.1325 1.85875C11.0975 1.62085 10.9784 1.40337 10.7967 1.24581C10.6151 1.08824 10.383 1.00103 10.1425 1H5.8575C5.61704 1.00103 5.38492 1.08824 5.20327 1.24581C5.02162 1.40337 4.90249 1.62085 4.8675 1.85875L4.01 7.85875C3.98976 8.00057 4.00024 8.14509 4.04071 8.28251C4.08118 8.41994 4.15071 8.54706 4.24459 8.65528C4.33846 8.76349 4.45449 8.85028 4.58482 8.90975C4.71515 8.96923 4.85674 9 5 9Z" fill="black"/>
</g>
<defs>
<clipPath id="clip0_5_537">
<rect width="16" height="16" fill="white"/>
</clipPath>
</defs>
</svg>
