<svg width="16" height="16" viewBox="0 0 16 16" fill="none" xmlns="http://www.w3.org/2000/svg">
<g clip-path="url(#clip0_5_536)">
<path d="M14.4706 9.16059L10.98 3.16621L10.9731 3.15434C10.659 2.64868 10.2212 2.23149 9.70094 1.9422C9.18069 1.65292 8.59527 1.5011 8.00001 1.5011C7.40474 1.5011 6.81931 1.65292 6.29907 1.9422C5.77883 2.23149 5.34097 2.64868 5.02688 3.15434L5.02001 3.16621L1.52938 9.16059C1.20193 9.69069 1.02192 10.2986 1.00796 10.9215C0.993995 11.5445 1.14658 12.1598 1.44995 12.7041C1.75332 13.2483 2.19647 13.7017 2.73365 14.0174C3.27083 14.3331 3.88255 14.4997 4.50563 14.5H11.4944C12.1175 14.4997 12.7292 14.3331 13.2664 14.0174C13.8035 13.7017 14.2467 13.2483 14.5501 12.7041C14.8534 12.1598 15.006 11.5445 14.9921 10.9215C14.9781 10.2986 14.7981 9.69069 14.4706 9.16059ZM13.6781 12.2156C13.4642 12.607 13.1481 12.9332 12.7636 13.1593C12.3791 13.3855 11.9405 13.5032 11.4944 13.5H11V10.5C11 10.2347 10.8946 9.98039 10.7071 9.79286C10.5196 9.60532 10.2652 9.49996 10 9.49996H6.00001C5.73479 9.49996 5.48043 9.60532 5.2929 9.79286C5.10536 9.98039 5.00001 10.2347 5.00001 10.5V13.5H4.50563C4.05999 13.5001 3.62242 13.3811 3.23822 13.1553C2.85402 12.9295 2.53716 12.6051 2.32044 12.2157C2.10372 11.8263 1.99503 11.3861 2.00561 10.9406C2.01619 10.4951 2.14567 10.0605 2.38063 9.68184C2.38316 9.6778 2.38545 9.67363 2.38751 9.66934L5.87813 3.67559C6.10286 3.31602 6.41534 3.01952 6.78621 2.81397C7.15707 2.60842 7.57412 2.50058 7.99813 2.50058C8.42215 2.50058 8.83919 2.60842 9.21005 2.81397C9.58092 3.01952 9.8934 3.31602 10.1181 3.67559L13.6088 9.66934C13.6108 9.67363 13.6131 9.6778 13.6156 9.68184C13.8541 10.0591 13.9858 10.4939 13.9969 10.9401C14.0079 11.3862 13.8977 11.827 13.6781 12.2156Z" fill="black"/>
</g>
<defs>
<clipPath id="clip0_5_536">
<rect width="16" height="16" fill="white"/>
</clipPath>
</defs>
</svg>
