<svg width="16" height="16" viewBox="0 0 16 16" fill="none" xmlns="http://www.w3.org/2000/svg">
<g clip-path="url(#clip0_5_1285)">
<path d="M14.02 7.13995C14.2537 6.56799 14.3318 5.94436 14.2464 5.33244C14.1609 4.72052 13.9151 4.14212 13.5337 3.65601C13.1523 3.1699 12.6491 2.7934 12.0751 2.56477C11.5011 2.33615 10.8768 2.26354 10.2657 2.35433C9.88693 1.86647 9.38584 1.48751 8.81327 1.25594C8.24071 1.02437 7.61706 0.948432 7.00566 1.03584C6.39426 1.12325 5.81687 1.37088 5.33212 1.75361C4.84738 2.13633 4.47254 2.64051 4.24567 3.21495C3.6335 3.29875 3.05443 3.54311 2.5673 3.9232C2.08016 4.30328 1.70232 4.80556 1.47218 5.37897C1.24204 5.95238 1.1678 6.5765 1.257 7.1879C1.3462 7.7993 1.59567 8.3762 1.98005 8.85995C1.79247 9.31962 1.70484 9.81393 1.72296 10.3101C1.74108 10.8062 1.86454 11.2928 2.08515 11.7375C2.30575 12.1823 2.61845 12.575 3.00248 12.8897C3.38651 13.2043 3.83308 13.4336 4.31255 13.5625C4.60973 13.6438 4.9163 13.6858 5.22442 13.6875C5.39533 13.6873 5.566 13.6745 5.73505 13.6493C6.11386 14.137 6.61496 14.5158 7.18749 14.7472C7.76001 14.9787 8.38358 15.0545 8.99488 14.967C9.60618 14.8796 10.1835 14.6319 10.6681 14.2492C11.1528 13.8665 11.5276 13.3624 11.7544 12.7881C12.3666 12.7043 12.9457 12.4599 13.4328 12.0798C13.9199 11.6997 14.2978 11.1975 14.5279 10.6241C14.758 10.0507 14.8323 9.42653 14.7431 8.81513C14.6539 8.20373 14.4044 7.62684 14.02 7.14308V7.13995ZM9.00005 8.57746L8.00005 9.15495L7.00005 8.57746V7.42245L8.00005 6.84495L9.00005 7.42245V8.57746ZM11.4282 3.40183C12.0582 3.57026 12.5975 3.97822 12.931 4.53869C13.2645 5.09916 13.3657 5.76775 13.2132 6.40183C13.1538 6.36245 13.0938 6.32433 13.0313 6.2887L10.25 4.67995C10.174 4.63607 10.0878 4.61297 10 4.61297C9.91228 4.61297 9.82605 4.63607 9.75004 4.67995L7.00005 6.26808V5.11308L9.53129 3.65183C9.81527 3.48689 10.1291 3.37987 10.4547 3.33696C10.7803 3.29404 11.1112 3.31609 11.4282 3.40183ZM2.55317 5.43308C2.87188 4.87737 3.39294 4.46626 4.00755 4.28558C4.00317 4.35683 4.00005 4.42808 4.00005 4.49995V7.7112C4.00003 7.79899 4.02312 7.88524 4.067 7.96127C4.11089 8.0373 4.17402 8.10044 4.25005 8.14433L7.00005 9.73183L6.00005 10.3125L3.4688 8.84808C2.89461 8.51655 2.47564 7.97051 2.30405 7.33008C2.13245 6.68964 2.22229 6.00728 2.5538 5.43308H2.55317ZM8.50005 14C7.86001 14.0017 7.24395 13.7565 6.78005 13.3156C6.84255 13.2837 6.90505 13.25 6.96755 13.2137L9.75004 11.6081C9.82598 11.5642 9.88905 11.5012 9.93293 11.4253C9.97681 11.3494 9.99996 11.2633 10 11.1756V7.99995L11 8.57746V11.5C11 12.163 10.7367 12.7989 10.2678 13.2677C9.79897 13.7366 9.16309 14 8.50005 14Z" fill="black"/>
</g>
<defs>
<clipPath id="clip0_5_1285">
<rect width="16" height="16" fill="white"/>
</clipPath>
</defs>
</svg>
