<svg width="16" height="16" viewBox="0 0 16 16" fill="none" xmlns="http://www.w3.org/2000/svg">
<g clip-path="url(#clip0_5_1388)">
<path d="M13.5 2.5H2.5C2.23478 2.5 1.98043 2.60536 1.79289 2.79289C1.60536 2.98043 1.5 3.23478 1.5 3.5V12.5C1.5 12.7652 1.60536 13.0196 1.79289 13.2071C1.98043 13.3946 2.23478 13.5 2.5 13.5H13.5C13.7652 13.5 14.0196 13.3946 14.2071 13.2071C14.3946 13.0196 14.5 12.7652 14.5 12.5V3.5C14.5 3.23478 14.3946 2.98043 14.2071 2.79289C14.0196 2.60536 13.7652 2.5 13.5 2.5ZM12.5 11H9.55875C9.37296 11.0006 9.19071 10.9492 9.03264 10.8515C8.87457 10.7539 8.747 10.6139 8.66438 10.4475L6.44125 6H3.5C3.36739 6 3.24021 5.94732 3.14645 5.85355C3.05268 5.75979 3 5.63261 3 5.5C3 5.36739 3.05268 5.24021 3.14645 5.14645C3.24021 5.05268 3.36739 5 3.5 5H6.44125C6.62704 4.99941 6.80929 5.05084 6.96736 5.14849C7.12543 5.24614 7.253 5.38609 7.33563 5.5525L9.55875 10H12.5C12.6326 10 12.7598 10.0527 12.8536 10.1464C12.9473 10.2402 13 10.3674 13 10.5C13 10.6326 12.9473 10.7598 12.8536 10.8536C12.7598 10.9473 12.6326 11 12.5 11ZM12.5 6H9.5C9.36739 6 9.24021 5.94732 9.14645 5.85355C9.05268 5.75979 9 5.63261 9 5.5C9 5.36739 9.05268 5.24021 9.14645 5.14645C9.24021 5.05268 9.36739 5 9.5 5H12.5C12.6326 5 12.7598 5.05268 12.8536 5.14645C12.9473 5.24021 13 5.36739 13 5.5C13 5.63261 12.9473 5.75979 12.8536 5.85355C12.7598 5.94732 12.6326 6 12.5 6Z" fill="black"/>
</g>
<defs>
<clipPath id="clip0_5_1388">
<rect width="16" height="16" fill="white"/>
</clipPath>
</defs>
</svg>
