<svg width="16" height="16" viewBox="0 0 16 16" fill="none" xmlns="http://www.w3.org/2000/svg">
<g clip-path="url(#clip0_5_534)">
<path d="M3.19875 9.09437C2.41939 8.05824 1.9986 6.79652 2 5.5C2 5.41188 2 5.32438 2.00563 5.23688C2.00899 5.17287 2.03681 5.11261 2.08333 5.06852C2.12986 5.02444 2.19153 4.99991 2.25563 5H6.6875C6.73697 4.99996 6.78535 5.0146 6.8265 5.04207C6.86764 5.06954 6.89972 5.1086 6.91866 5.1543C6.93759 5.20001 6.94254 5.25031 6.93288 5.29883C6.92322 5.34735 6.89938 5.39191 6.86438 5.42688L3.19875 9.09437ZM7.5 11.4788V6.20688L3.86438 9.84313C4.85349 10.7881 6.13671 11.3654 7.5 11.4788ZM12.8013 9.09437C13.5806 8.05824 14.0014 6.79652 14 5.5C14 5.41188 14 5.32438 13.9944 5.23688C13.991 5.17287 13.9632 5.11261 13.9167 5.06852C13.8701 5.02444 13.8085 4.99991 13.7444 5H9.3125C9.26303 4.99996 9.21465 5.0146 9.1735 5.04207C9.13236 5.06954 9.10028 5.1086 9.08134 5.1543C9.06241 5.20001 9.05746 5.25031 9.06712 5.29883C9.07678 5.34735 9.10062 5.39191 9.13562 5.42688L12.8013 9.09437ZM15.5 5H15.245C15.2114 4.99998 15.1782 5.00672 15.1473 5.01983C15.1163 5.03294 15.0884 5.05214 15.0651 5.07629C15.0417 5.10044 15.0235 5.12904 15.0115 5.16039C14.9994 5.19174 14.9938 5.22519 14.995 5.25875C14.995 5.33875 14.9994 5.41938 14.9994 5.5C14.9819 7.34498 14.2368 9.10846 12.926 10.4069C11.6152 11.7054 9.84475 12.4339 7.99969 12.4339C6.15463 12.4339 4.38418 11.7054 3.07338 10.4069C1.76258 9.10846 1.01743 7.34498 1 5.5C1 5.41938 1 5.33875 1.00437 5.25875C1.00555 5.22519 0.999953 5.19174 0.987916 5.16039C0.97588 5.12904 0.957651 5.10044 0.934319 5.07629C0.910986 5.05214 0.883027 5.03294 0.852111 5.01983C0.821195 5.00672 0.787955 4.99998 0.754375 5H0.5C0.367392 5 0.240215 5.05268 0.146447 5.14645C0.0526784 5.24022 0 5.36739 0 5.5C0 7.62173 0.842855 9.65656 2.34315 11.1569C3.84344 12.6571 5.87827 13.5 8 13.5C10.1217 13.5 12.1566 12.6571 13.6569 11.1569C15.1571 9.65656 16 7.62173 16 5.5C16 5.36739 15.9473 5.24022 15.8536 5.14645C15.7598 5.05268 15.6326 5 15.5 5ZM8.5 6.20688V11.4788C9.86329 11.3654 11.1465 10.7881 12.1356 9.84313L8.5 6.20688Z" fill="black"/>
</g>
<defs>
<clipPath id="clip0_5_534">
<rect width="16" height="16" fill="white"/>
</clipPath>
</defs>
</svg>
