<svg width="16" height="16" viewBox="0 0 16 16" fill="none" xmlns="http://www.w3.org/2000/svg">
<g clip-path="url(#clip0_5_535)">
<path d="M10.3669 4.53625C11.0102 4.19629 11.5487 3.68743 11.9246 3.06438C12.3004 2.44133 12.4994 1.72763 12.5 1C12.5 0.867392 12.4473 0.740215 12.3536 0.646447C12.2598 0.552678 12.1326 0.5 12 0.5H11.5C10.7852 0.500271 10.0836 0.692076 9.46803 1.05546C8.85249 1.41885 8.34558 1.94053 8.00002 2.56625C7.65446 1.94053 7.14755 1.41885 6.53201 1.05546C5.91648 0.692076 5.21481 0.500271 4.50002 0.5H4.00002C3.86741 0.5 3.74024 0.552678 3.64647 0.646447C3.5527 0.740215 3.50002 0.867392 3.50002 1C3.50002 1.13261 3.5527 1.25979 3.64647 1.35355C3.74024 1.44732 3.86741 1.5 4.00002 1.5H4.50002C5.2133 1.50098 5.90298 1.75565 6.44572 2.21847C6.98847 2.68129 7.34888 3.32208 7.46252 4.02625C6.13904 4.15579 4.90731 4.76045 3.99536 5.72829C3.0834 6.69613 2.55298 7.9616 2.50229 9.29044C2.4516 10.6193 2.88407 11.9215 3.71964 12.956C4.55522 13.9905 5.7373 14.6872 7.04706 14.9172C8.35683 15.1472 9.70556 14.8949 10.8436 14.2069C11.9816 13.519 12.8319 12.442 13.2369 11.1754C13.642 9.9088 13.5744 8.53832 13.0468 7.31769C12.5191 6.09706 11.5671 5.10894 10.3669 4.53625ZM11.4581 1.5C11.3402 2.19154 10.9841 2.82005 10.4515 3.27664C9.91888 3.73322 9.24334 3.98912 8.54189 4C8.65983 3.30846 9.01594 2.67995 9.54855 2.22336C10.0812 1.76678 10.7567 1.51088 11.4581 1.5ZM11.4931 10.0825C11.3645 10.8074 11.0164 11.4752 10.4958 11.9958C9.97527 12.5164 9.30739 12.8645 8.58252 12.9931C8.55524 12.9976 8.52766 12.9999 8.50002 13C8.37465 12.9998 8.25393 12.9525 8.16178 12.8675C8.06962 12.7825 8.01276 12.666 8.00246 12.5411C7.99216 12.4161 8.02917 12.2919 8.10616 12.1929C8.18315 12.094 8.2945 12.0276 8.41815 12.0069C8.93844 11.9144 9.4178 11.6645 9.79147 11.2908C10.1651 10.9172 10.4151 10.4378 10.5075 9.9175C10.5305 9.78771 10.6037 9.67223 10.7114 9.59618C10.8191 9.52014 10.9524 9.48968 11.0824 9.51143C11.2124 9.53317 11.3285 9.60537 11.4056 9.71232C11.4826 9.81927 11.5143 9.95231 11.4938 10.0825H11.4931Z" fill="black"/>
</g>
<defs>
<clipPath id="clip0_5_535">
<rect width="16" height="16" fill="white"/>
</clipPath>
</defs>
</svg>
