<svg width="16" height="16" viewBox="0 0 16 16" fill="none" xmlns="http://www.w3.org/2000/svg">
<g clip-path="url(#clip0_5_840)">
<path d="M13 2H3C2.73478 2 2.48043 2.10536 2.29289 2.29289C2.10536 2.48043 2 2.73478 2 3V13C2 13.2652 2.10536 13.5196 2.29289 13.7071C2.48043 13.8946 2.73478 14 3 14H13C13.2652 14 13.5196 13.8946 13.7071 13.7071C13.8946 13.5196 14 13.2652 14 13V3C14 2.73478 13.8946 2.48043 13.7071 2.29289C13.5196 2.10536 13.2652 2 13 2ZM10.75 3.5C10.8983 3.5 11.0433 3.54399 11.1667 3.6264C11.29 3.70881 11.3861 3.82594 11.4429 3.96299C11.4997 4.10003 11.5145 4.25083 11.4856 4.39632C11.4566 4.5418 11.3852 4.67544 11.2803 4.78033C11.1754 4.88522 11.0418 4.95665 10.8963 4.98559C10.7508 5.01453 10.6 4.99968 10.463 4.94291C10.3259 4.88614 10.2088 4.79001 10.1264 4.66668C10.044 4.54334 10 4.39834 10 4.25C10 4.05109 10.079 3.86032 10.2197 3.71967C10.3603 3.57902 10.5511 3.5 10.75 3.5ZM8 3.5C8.14834 3.5 8.29334 3.54399 8.41668 3.6264C8.54001 3.70881 8.63614 3.82594 8.69291 3.96299C8.74967 4.10003 8.76453 4.25083 8.73559 4.39632C8.70665 4.5418 8.63522 4.67544 8.53033 4.78033C8.42544 4.88522 8.2918 4.95665 8.14632 4.98559C8.00083 5.01453 7.85003 4.99968 7.71299 4.94291C7.57594 4.88614 7.45881 4.79001 7.3764 4.66668C7.29399 4.54334 7.25 4.39834 7.25 4.25C7.25 4.05109 7.32902 3.86032 7.46967 3.71967C7.61032 3.57902 7.80109 3.5 8 3.5ZM5.25 3.5C5.39834 3.5 5.54334 3.54399 5.66668 3.6264C5.79001 3.70881 5.88614 3.82594 5.94291 3.96299C5.99968 4.10003 6.01453 4.25083 5.98559 4.39632C5.95665 4.5418 5.88522 4.67544 5.78033 4.78033C5.67544 4.88522 5.5418 4.95665 5.39632 4.98559C5.25083 5.01453 5.10003 4.99968 4.96299 4.94291C4.82594 4.88614 4.70881 4.79001 4.6264 4.66668C4.54399 4.54334 4.5 4.39834 4.5 4.25C4.5 4.05109 4.57902 3.86032 4.71967 3.71967C4.86032 3.57902 5.05109 3.5 5.25 3.5ZM12 12H4V6.5H12V12Z" fill="black"/>
</g>
<defs>
<clipPath id="clip0_5_840">
<rect width="16" height="16" fill="white"/>
</clipPath>
</defs>
</svg>
