<svg width="16" height="16" viewBox="0 0 16 16" fill="none" xmlns="http://www.w3.org/2000/svg">
<g clip-path="url(#clip0_5_533)">
<path d="M13.5 1.5H4.5C3.83696 1.5 3.20107 1.76339 2.73223 2.23223C2.26339 2.70107 2 3.33696 2 4V8.5C2 8.89782 2.15804 9.27936 2.43934 9.56066C2.72064 9.84196 3.10218 10 3.5 10H6.5L6.00688 12.9169C6.00239 12.9444 6.00009 12.9722 6 13C6 13.5304 6.21071 14.0391 6.58579 14.4142C6.96086 14.7893 7.46957 15 8 15C8.53043 15 9.03914 14.7893 9.41421 14.4142C9.78929 14.0391 10 13.5304 10 13C9.99991 12.9722 9.99761 12.9444 9.99312 12.9169L9.5 10H12.5C12.8978 10 13.2794 9.84196 13.5607 9.56066C13.842 9.27936 14 8.89782 14 8.5V2C14 1.86739 13.9473 1.74021 13.8536 1.64645C13.7598 1.55268 13.6326 1.5 13.5 1.5ZM4.5 2.5H11V5C11 5.13261 11.0527 5.25979 11.1464 5.35355C11.2402 5.44732 11.3674 5.5 11.5 5.5C11.6326 5.5 11.7598 5.44732 11.8536 5.35355C11.9473 5.25979 12 5.13261 12 5V2.5H13V7H3V4C3 3.60218 3.15804 3.22064 3.43934 2.93934C3.72064 2.65804 4.10218 2.5 4.5 2.5Z" fill="black"/>
</g>
<defs>
<clipPath id="clip0_5_533">
<rect width="16" height="16" fill="white"/>
</clipPath>
</defs>
</svg>
