<svg width="16" height="16" viewBox="0 0 16 16" fill="none" xmlns="http://www.w3.org/2000/svg">
<g clip-path="url(#clip0_5_531)">
<path d="M15.5 6.5V9.625C15.4992 9.84205 15.4282 10.053 15.2975 10.2263C15.1668 10.3996 14.9835 10.5259 14.775 10.5863L8.5 12.375V14.5C8.5 14.6326 8.44732 14.7598 8.35355 14.8536C8.25979 14.9473 8.13261 15 8 15C7.86739 15 7.74021 14.9473 7.64645 14.8536C7.55268 14.7598 7.5 14.6326 7.5 14.5V12.375C7.50075 12.158 7.5718 11.947 7.7025 11.7737C7.8332 11.6004 8.01652 11.4741 8.225 11.4137L14.5 9.625V6.5H13.5V8C13.5 8.26522 13.3946 8.51957 13.2071 8.70711C13.0196 8.89464 12.7652 9 12.5 9H3C2.73478 9 2.48043 8.89464 2.29289 8.70711C2.10536 8.51957 2 8.26522 2 8V6.5H1C0.867392 6.5 0.740215 6.44732 0.646447 6.35355C0.552678 6.25979 0.5 6.13261 0.5 6C0.5 5.86739 0.552678 5.74021 0.646447 5.64645C0.740215 5.55268 0.867392 5.5 1 5.5H2V4C2 3.73478 2.10536 3.48043 2.29289 3.29289C2.48043 3.10536 2.73478 3 3 3H12.5C12.7652 3 13.0196 3.10536 13.2071 3.29289C13.3946 3.48043 13.5 3.73478 13.5 4V5.5H14.5C14.7652 5.5 15.0196 5.60536 15.2071 5.79289C15.3946 5.98043 15.5 6.23478 15.5 6.5Z" fill="black"/>
</g>
<defs>
<clipPath id="clip0_5_531">
<rect width="16" height="16" fill="white"/>
</clipPath>
</defs>
</svg>
