<svg width="16" height="16" viewBox="0 0 16 16" fill="none" xmlns="http://www.w3.org/2000/svg">
<g clip-path="url(#clip0_5_836)">
<path d="M14.4151 1.58497C14.2293 1.39921 14.0088 1.25185 13.7661 1.15131C13.5235 1.05077 13.2634 0.999023 13.0007 0.999023C12.738 0.999023 12.4779 1.05077 12.2352 1.15131C11.9925 1.25185 11.772 1.39921 11.5863 1.58497C11.5776 1.59372 11.5688 1.6031 11.5601 1.6131L8.22193 5.51372L7.56255 4.85247C7.42325 4.7131 7.25786 4.60254 7.07582 4.52711C6.89378 4.45168 6.69866 4.41285 6.50161 4.41285C6.30457 4.41285 6.10945 4.45168 5.92741 4.52711C5.74537 4.60254 5.57997 4.7131 5.44068 4.85247L0.647551 9.64622C0.553854 9.73998 0.501221 9.86711 0.501221 9.99966C0.501221 10.1322 0.553854 10.2593 0.647551 10.3531L5.64755 15.3531C5.74131 15.4468 5.86844 15.4994 6.00099 15.4994C6.13354 15.4994 6.26067 15.4468 6.35443 15.3531L11.1476 10.5625C11.2869 10.4232 11.3975 10.2578 11.4729 10.0757C11.5483 9.8937 11.5872 9.69858 11.5872 9.50153C11.5872 9.30448 11.5483 9.10937 11.4729 8.92733C11.3975 8.74529 11.2869 8.57989 11.1476 8.4406L10.4863 7.77997L14.3869 4.43747C14.3963 4.42872 14.4063 4.41997 14.4151 4.4106C14.7893 4.03564 14.9994 3.52753 14.9994 2.99778C14.9994 2.46804 14.7893 1.95993 14.4151 1.58497ZM6.00005 14.2931L4.95755 13.25L6.3538 11.8531C6.44361 11.7586 6.49294 11.6327 6.49127 11.5023C6.4896 11.3719 6.43707 11.2474 6.34487 11.1552C6.25267 11.063 6.12809 11.0104 5.99771 11.0088C5.86733 11.0071 5.74146 11.0564 5.64693 11.1462L4.25005 12.5425L3.45755 11.75L4.8538 10.3531C4.94361 10.2586 4.99294 10.1327 4.99127 10.0023C4.9896 9.87193 4.93707 9.74736 4.84487 9.65516C4.75267 9.56296 4.62809 9.51042 4.49771 9.50875C4.36733 9.50708 4.24146 9.55641 4.14693 9.64622L2.75005 11.0425L1.70693 9.99997L4.8538 6.85372L9.14693 11.1468L6.00005 14.2931Z" fill="black"/>
</g>
<defs>
<clipPath id="clip0_5_836">
<rect width="16" height="16" fill="white"/>
</clipPath>
</defs>
</svg>
