<svg width="16" height="16" viewBox="0 0 16 16" fill="none" xmlns="http://www.w3.org/2000/svg">
<g clip-path="url(#clip0_5_532)">
<path d="M14.5001 2C14.5001 1.86739 14.4474 1.74021 14.3536 1.64645C14.2598 1.55268 14.1327 1.5 14.0001 1.5C11.2451 1.5 8.41818 4.60687 6.84818 6.66437C6.28747 6.49265 5.69431 6.45482 5.11633 6.55392C4.53835 6.65302 3.99167 6.88629 3.52019 7.23499C3.04872 7.58369 2.66559 8.0381 2.40158 8.56172C2.13758 9.08535 2.00005 9.66359 2.00005 10.25C2.00005 12.18 0.778804 13.0456 0.720679 13.0856C0.631985 13.1455 0.564847 13.2323 0.52914 13.3332C0.493432 13.4341 0.491038 13.5437 0.52231 13.6461C0.553582 13.7485 0.61687 13.8381 0.702867 13.9018C0.788864 13.9655 0.893032 13.9999 1.00005 14H5.75005C6.33647 14 6.91471 13.8625 7.43833 13.5985C7.96195 13.3345 8.41637 12.9513 8.76506 12.4799C9.11376 12.0084 9.34703 11.4617 9.44613 10.8837C9.54523 10.3057 9.5074 9.71258 9.33568 9.15187C11.3938 7.58187 14.5001 4.755 14.5001 2ZM7.7763 7.09688C7.99047 6.81938 8.20068 6.55792 8.40693 6.3125C8.91176 6.65357 9.34649 7.0883 9.68755 7.59312C9.44172 7.79896 9.18026 8.00917 8.90318 8.22375C8.61181 7.77238 8.22767 7.38824 7.7763 7.09688ZM10.4451 6.92938C10.0676 6.39675 9.60268 5.93185 9.07005 5.55438C11.0563 3.39625 12.5544 2.74187 13.4388 2.56C13.2607 3.445 12.6032 4.94313 10.4451 6.92938Z" fill="black"/>
</g>
<defs>
<clipPath id="clip0_5_532">
<rect width="16" height="16" fill="white"/>
</clipPath>
</defs>
</svg>
