<svg width="16" height="16" viewBox="0 0 16 16" fill="none" xmlns="http://www.w3.org/2000/svg">
<g clip-path="url(#clip0_5_788)">
<path d="M15.9999 13C15.9999 13.3978 15.8418 13.7793 15.5605 14.0606C15.2792 14.3419 14.8977 14.5 14.4999 14.5C14.102 14.5 13.7205 14.3419 13.4392 14.0606C13.1579 13.7793 12.9999 13.3978 12.9999 13C12.9999 11.8806 13.973 10.3893 14.0836 10.2225C14.1292 10.1539 14.1911 10.0976 14.2637 10.0587C14.3364 10.0198 14.4175 9.99947 14.4999 9.99947C14.5822 9.99947 14.6633 10.0198 14.736 10.0587C14.8086 10.0976 14.8705 10.1539 14.9161 10.2225C15.0267 10.3893 15.9999 11.8806 15.9999 13ZM8.28048 7.78058C8.42137 7.63969 8.50053 7.44859 8.50053 7.24933C8.50053 7.05008 8.42137 6.85898 8.28048 6.71808C8.13958 6.57719 7.94848 6.49803 7.74923 6.49803C7.54997 6.49803 7.35887 6.57719 7.21798 6.71808C7.07942 6.85936 7.00231 7.04967 7.00345 7.24754C7.00458 7.44542 7.08387 7.63483 7.22404 7.7745C7.36421 7.91418 7.5539 7.9928 7.75178 7.99323C7.94966 7.99367 8.13969 7.91589 8.28048 7.77683V7.78058ZM2.35298 1.14621C2.25916 1.05247 2.13194 0.999843 1.99932 0.999902C1.86669 0.99996 1.73953 1.0527 1.64579 1.14652C1.55205 1.24034 1.49942 1.36756 1.49948 1.50018C1.49954 1.6328 1.55228 1.75997 1.6461 1.85371L3.6836 3.89121L4.39048 3.18746L2.35298 1.14621ZM14.658 8.69183C14.7388 8.66487 14.8113 8.61772 14.8688 8.55485C14.9263 8.49197 14.9667 8.41546 14.9863 8.33258C15.0059 8.24969 15.004 8.16317 14.9808 8.08122C14.9575 7.99927 14.9138 7.92462 14.8536 7.86433L7.63548 0.646209C7.54172 0.552511 7.41459 0.499878 7.28204 0.499878C7.14949 0.499878 7.02236 0.552511 6.9286 0.646209L4.39048 3.18746L6.91735 5.71371C7.28703 5.51364 7.71638 5.45332 8.12688 5.54378C8.53738 5.63424 8.90161 5.86943 9.15296 6.20636C9.40431 6.54328 9.52599 6.95942 9.49574 7.37868C9.4655 7.79794 9.28536 8.1923 8.98826 8.48967C8.69116 8.78703 8.29696 8.96752 7.87772 8.99813C7.45849 9.02874 7.04224 8.90743 6.7051 8.65638C6.36795 8.40533 6.13244 8.04131 6.04162 7.63089C5.95079 7.22047 6.01073 6.79107 6.21048 6.42121L3.6836 3.89121L0.937352 6.63558C0.656068 6.91688 0.498047 7.2984 0.498047 7.69621C0.498047 8.09402 0.656068 8.47553 0.937352 8.75683L6.24298 14.0625C6.52428 14.3437 6.90579 14.5018 7.3036 14.5018C7.70141 14.5018 8.08293 14.3437 8.36423 14.0625L13.2699 9.15683L14.658 8.69183Z" fill="black"/>
</g>
<defs>
<clipPath id="clip0_5_788">
<rect width="16" height="16" fill="white"/>
</clipPath>
</defs>
</svg>
