<svg width="16" height="16" viewBox="0 0 16 16" fill="none" xmlns="http://www.w3.org/2000/svg">
<g clip-path="url(#clip0_5_530)">
<path d="M12.5481 3.36813C11.3379 2.16974 9.70314 1.49826 8 1.5H7.93313C6.22083 1.51762 4.58466 2.21021 3.3801 3.42729C2.17554 4.64437 1.49991 6.28762 1.5 8C1.5 10.6875 3.16125 12.9413 5.835 13.8856C6.13657 13.992 6.45924 14.0244 6.77594 13.9803C7.09264 13.9362 7.39415 13.8168 7.65518 13.6321C7.91621 13.4474 8.12916 13.2028 8.27615 12.9188C8.42314 12.6348 8.49991 12.3198 8.5 12C8.5 11.7348 8.60536 11.4804 8.79289 11.2929C8.98043 11.1054 9.23478 11 9.5 11H12.3881C12.8418 11.0022 13.2826 10.8492 13.6373 10.5663C13.992 10.2835 14.2393 9.88779 14.3381 9.445C14.4499 8.95294 14.5042 8.44958 14.5 7.945C14.4936 7.09092 14.3178 6.24659 13.9828 5.46094C13.6477 4.67529 13.1601 3.96395 12.5481 3.36813ZM5.25 10.5C5.10166 10.5 4.95666 10.456 4.83332 10.3736C4.70999 10.2912 4.61386 10.1741 4.55709 10.037C4.50032 9.89997 4.48547 9.74917 4.51441 9.60369C4.54335 9.4582 4.61478 9.32456 4.71967 9.21967C4.82456 9.11478 4.9582 9.04335 5.10368 9.01441C5.24917 8.98548 5.39997 9.00033 5.53701 9.05709C5.67406 9.11386 5.79119 9.20999 5.8736 9.33333C5.95601 9.45666 6 9.60167 6 9.75C6 9.94892 5.92098 10.1397 5.78033 10.2803C5.63968 10.421 5.44891 10.5 5.25 10.5ZM5.25 7C5.10166 7 4.95666 6.95602 4.83332 6.87361C4.70999 6.79119 4.61386 6.67406 4.55709 6.53702C4.50032 6.39997 4.48547 6.24917 4.51441 6.10369C4.54335 5.9582 4.61478 5.82456 4.71967 5.71967C4.82456 5.61478 4.9582 5.54335 5.10368 5.51441C5.24917 5.48548 5.39997 5.50033 5.53701 5.55709C5.67406 5.61386 5.79119 5.70999 5.8736 5.83333C5.95601 5.95666 6 6.10167 6 6.25C6 6.44892 5.92098 6.63968 5.78033 6.78033C5.63968 6.92099 5.44891 7 5.25 7ZM8 5.5C7.85166 5.5 7.70666 5.45602 7.58332 5.37361C7.45999 5.29119 7.36386 5.17406 7.30709 5.03702C7.25032 4.89997 7.23547 4.74917 7.26441 4.60369C7.29335 4.4582 7.36478 4.32456 7.46967 4.21967C7.57456 4.11478 7.7082 4.04335 7.85368 4.01441C7.99917 3.98548 8.14997 4.00033 8.28701 4.05709C8.42406 4.11386 8.54119 4.20999 8.6236 4.33333C8.70601 4.45666 8.75 4.60167 8.75 4.75C8.75 4.94892 8.67098 5.13968 8.53033 5.28033C8.38968 5.42099 8.19891 5.5 8 5.5ZM10.75 7C10.6017 7 10.4567 6.95602 10.3333 6.87361C10.21 6.79119 10.1139 6.67406 10.0571 6.53702C10.0003 6.39997 9.98547 6.24917 10.0144 6.10369C10.0434 5.9582 10.1148 5.82456 10.2197 5.71967C10.3246 5.61478 10.4582 5.54335 10.6037 5.51441C10.7492 5.48548 10.9 5.50033 11.037 5.55709C11.1741 5.61386 11.2912 5.70999 11.3736 5.83333C11.456 5.95666 11.5 6.10167 11.5 6.25C11.5 6.44892 11.421 6.63968 11.2803 6.78033C11.1397 6.92099 10.9489 7 10.75 7Z" fill="black"/>
</g>
<defs>
<clipPath id="clip0_5_530">
<rect width="16" height="16" fill="white"/>
</clipPath>
</defs>
</svg>
