<svg width="16" height="16" viewBox="0 0 16 16" fill="none" xmlns="http://www.w3.org/2000/svg">
<g clip-path="url(#clip0_5_832)">
<path d="M15.1094 3.20756C14.9882 3.11373 14.8469 3.04927 14.6966 3.01923C14.5463 2.9892 14.3911 2.9944 14.2431 3.03443L14.0256 3.09318C12.8506 3.41006 10.6631 4.00006 8 4.00006C5.33687 4.00006 3.14937 3.41006 1.97438 3.09318L1.75688 3.03443C1.60887 2.99509 1.4538 2.99027 1.30363 3.02035C1.15346 3.05042 1.01221 3.11458 0.890765 3.20789C0.76932 3.30119 0.670928 3.42114 0.603176 3.55849C0.535425 3.69584 0.500126 3.84691 0.5 4.00006V12.0001C0.5 12.2653 0.605357 12.5196 0.792893 12.7072C0.98043 12.8947 1.23478 13.0001 1.5 13.0001C1.58821 13 1.67603 12.9885 1.76125 12.9657L1.96 12.9119C3.13313 12.5932 5.32312 12.0001 8 12.0001C10.6769 12.0001 12.8669 12.5932 14.0431 12.9119L14.2419 12.9657C14.39 13.0052 14.5452 13.0102 14.6955 12.9803C14.8458 12.9503 14.9873 12.8862 15.1089 12.7929C15.2305 12.6995 15.329 12.5795 15.3968 12.442C15.4646 12.3046 15.4999 12.1533 15.5 12.0001V4.00006C15.5004 3.84678 15.4654 3.69549 15.3976 3.55801C15.3298 3.42053 15.2312 3.30058 15.1094 3.20756ZM12.75 6.00006C12.8983 6.00006 13.0433 6.04404 13.1667 6.12646C13.29 6.20887 13.3861 6.326 13.4429 6.46304C13.4997 6.60009 13.5145 6.75089 13.4856 6.89638C13.4566 7.04186 13.3852 7.1755 13.2803 7.28039C13.1754 7.38528 13.0418 7.45671 12.8963 7.48565C12.7508 7.51459 12.6 7.49973 12.463 7.44297C12.3259 7.3862 12.2088 7.29007 12.1264 7.16673C12.044 7.0434 12 6.89839 12 6.75006C12 6.55115 12.079 6.36038 12.2197 6.21973C12.3603 6.07908 12.5511 6.00006 12.75 6.00006ZM8 11.0001C5.1875 11.0001 2.83 11.6394 1.69562 11.9463L1.5 12.0001V9.54381L4.39625 6.64693C4.44269 6.60044 4.49783 6.56357 4.55853 6.5384C4.61923 6.51324 4.68429 6.50029 4.75 6.50029C4.81571 6.50029 4.88077 6.51324 4.94147 6.5384C5.00217 6.56357 5.05731 6.60044 5.10375 6.64693L9.5175 11.0626C9.03063 11.0219 8.52312 11.0001 8 11.0001ZM14.3044 11.9463C13.2564 11.6513 12.1921 11.4176 11.1169 11.2463L8.91313 9.04256L9.8125 8.14631C9.90626 8.05261 10.0334 7.99998 10.1659 7.99998C10.2985 7.99998 10.4256 8.05261 10.5194 8.14631L14.325 11.9513L14.3044 11.9463Z" fill="black"/>
</g>
<defs>
<clipPath id="clip0_5_832">
<rect width="16" height="16" fill="white"/>
</clipPath>
</defs>
</svg>
