<svg width="16" height="16" viewBox="0 0 16 16" fill="none" xmlns="http://www.w3.org/2000/svg">
<g clip-path="url(#clip0_5_886)">
<path d="M3.33992 2.71875L3.38242 2.375C3.41287 2.13328 3.53052 1.911 3.71327 1.74989C3.89601 1.58877 4.13129 1.49992 4.37492 1.5H11.6249C11.8685 1.49992 12.1038 1.58877 12.2866 1.74989C12.4693 1.911 12.587 2.13328 12.6174 2.375L12.6599 2.71813C12.6644 2.75348 12.6612 2.78938 12.6507 2.82342C12.6401 2.85745 12.6224 2.88884 12.5987 2.91547C12.5751 2.94211 12.546 2.96337 12.5134 2.97784C12.4808 2.99231 12.4456 2.99965 12.4099 2.99938H3.58804C3.55263 2.99938 3.51761 2.99185 3.48532 2.9773C3.45303 2.96275 3.42421 2.94151 3.40075 2.91497C3.37729 2.88844 3.35973 2.85723 3.34924 2.8234C3.33876 2.78957 3.33558 2.7539 3.33992 2.71875ZM10.5624 4C10.6739 4.42916 10.9246 4.80923 11.2752 5.08066C11.6258 5.3521 12.0565 5.49958 12.4999 5.5H12.7243C12.7599 5.50028 12.7952 5.49294 12.8278 5.47847C12.8603 5.464 12.8894 5.44273 12.9131 5.4161C12.9368 5.38946 12.9545 5.35808 12.965 5.32404C12.9756 5.29 12.9787 5.25411 12.9743 5.21875L12.8493 4.21875C12.8416 4.158 12.812 4.10217 12.7659 4.06185C12.7198 4.02153 12.6605 3.99952 12.5993 4H10.5624ZM3.27554 5.5H3.49992C3.94332 5.49958 4.37406 5.3521 4.72466 5.08066C5.07527 4.80923 5.32594 4.42916 5.43742 4H3.40054C3.33931 3.99952 3.28004 4.02153 3.23396 4.06185C3.18788 4.10217 3.15819 4.158 3.15054 4.21875L3.02554 5.21875C3.02109 5.25411 3.02424 5.29 3.03479 5.32404C3.04535 5.35808 3.06305 5.38946 3.08673 5.4161C3.1104 5.44273 3.1395 5.464 3.17206 5.47847C3.20463 5.49294 3.23991 5.50028 3.27554 5.5ZM13.9924 13.375L13.1599 6.71875C13.1523 6.658 13.1226 6.60217 13.0765 6.56185C13.0304 6.52153 12.9711 6.49952 12.9099 6.5H12.4999C11.7913 6.499 11.1058 6.24755 10.5646 5.79008C10.0234 5.33261 9.66138 4.69857 9.54242 4H8.49992V6.48313C8.50151 6.61212 8.45427 6.73695 8.36769 6.83257C8.2811 6.9282 8.16156 6.98756 8.03304 6.99875C7.96465 7.00329 7.89605 6.99372 7.83151 6.97064C7.76697 6.94755 7.70787 6.91144 7.65787 6.86455C7.60788 6.81766 7.56806 6.76099 7.54088 6.69806C7.51371 6.63514 7.49977 6.56729 7.49992 6.49875V4H6.45742C6.33845 4.69857 5.97639 5.33261 5.4352 5.79008C4.89402 6.24755 4.20855 6.499 3.49992 6.5H3.08804C3.02681 6.49952 2.96754 6.52153 2.92146 6.56185C2.87538 6.60217 2.84569 6.658 2.83804 6.71875L2.00742 13.375C1.98495 13.5555 2.01212 13.7387 2.08602 13.9049C2.15992 14.071 2.27773 14.2139 2.42679 14.3181C2.60248 14.4388 2.81115 14.5023 3.02429 14.5H5.54304C5.76543 14.5 5.98149 14.4259 6.15705 14.2894C6.33261 14.1529 6.45765 13.9618 6.51242 13.7463L7.99992 7.99625L9.48679 13.7425C9.54087 13.9588 9.6657 14.1509 9.84146 14.2881C10.0172 14.4254 10.2338 14.5 10.4568 14.5H12.9755C13.1886 14.5028 13.3972 14.4397 13.573 14.3194C13.7223 14.2151 13.8403 14.072 13.9142 13.9056C13.9881 13.7391 14.0151 13.5557 13.9924 13.375Z" fill="black"/>
</g>
<defs>
<clipPath id="clip0_5_886">
<rect width="16" height="16" fill="white"/>
</clipPath>
</defs>
</svg>
