<svg width="16" height="16" viewBox="0 0 16 16" fill="none" xmlns="http://www.w3.org/2000/svg">
<g clip-path="url(#clip0_5_527)">
<path d="M8 1.5C6.71442 1.5 5.45772 1.88122 4.3888 2.59545C3.31988 3.30968 2.48676 4.32484 1.99479 5.51256C1.50282 6.70028 1.37409 8.00721 1.6249 9.26809C1.8757 10.529 2.49477 11.6872 3.40381 12.5962C4.31285 13.5052 5.47104 14.1243 6.73192 14.3751C7.99279 14.6259 9.29973 14.4972 10.4874 14.0052C11.6752 13.5132 12.6903 12.6801 13.4046 11.6112C14.1188 10.5423 14.5 9.28558 14.5 8C14.4982 6.27665 13.8128 4.62441 12.5942 3.40582C11.3756 2.18722 9.72335 1.50182 8 1.5ZM10.5 10.5H4.5C4.10218 10.5 3.72065 10.342 3.43934 10.0607C3.15804 9.77936 3 9.39782 3 9C3 8.60218 3.15804 8.22064 3.43934 7.93934C3.72065 7.65804 4.10218 7.5 4.5 7.5H10.5C10.6326 7.5 10.7598 7.55268 10.8536 7.64645C10.9473 7.74021 11 7.86739 11 8C11 8.13261 10.9473 8.25979 10.8536 8.35355C10.7598 8.44732 10.6326 8.5 10.5 8.5H4.5C4.36739 8.5 4.24022 8.55268 4.14645 8.64645C4.05268 8.74021 4 8.86739 4 9C4 9.13261 4.05268 9.25979 4.14645 9.35355C4.24022 9.44732 4.36739 9.5 4.5 9.5H10.5C10.8978 9.5 11.2794 9.34196 11.5607 9.06066C11.842 8.77936 12 8.39782 12 8C12 7.60218 11.842 7.22064 11.5607 6.93934C11.2794 6.65804 10.8978 6.5 10.5 6.5H6C5.86739 6.5 5.74022 6.44732 5.64645 6.35355C5.55268 6.25979 5.5 6.13261 5.5 6C5.5 5.86739 5.55268 5.74021 5.64645 5.64645C5.74022 5.55268 5.86739 5.5 6 5.5H10.5C11.163 5.5 11.7989 5.76339 12.2678 6.23223C12.7366 6.70107 13 7.33696 13 8C13 8.66304 12.7366 9.29893 12.2678 9.76777C11.7989 10.2366 11.163 10.5 10.5 10.5Z" fill="black"/>
</g>
<defs>
<clipPath id="clip0_5_527">
<rect width="16" height="16" fill="white"/>
</clipPath>
</defs>
</svg>
