<svg width="16" height="16" viewBox="0 0 16 16" fill="none" xmlns="http://www.w3.org/2000/svg">
<g clip-path="url(#clip0_5_529)">
<path d="M14.7624 13.6444C14.6691 13.7559 14.5524 13.8455 14.4207 13.907C14.2889 13.9684 14.1453 14.0002 13.9999 14C13.8856 13.9999 13.7721 13.9805 13.6643 13.9425L8.66739 12.255C8.61783 12.2383 8.57478 12.2064 8.54428 12.1639C8.51378 12.1214 8.49738 12.0704 8.49739 12.0181V7.5C8.49754 7.43146 8.48359 7.36362 8.45642 7.30069C8.42925 7.23776 8.38943 7.18109 8.33943 7.1342C8.28944 7.08731 8.23033 7.0512 8.16579 7.02812C8.10125 7.00503 8.03266 6.99546 7.96426 7C7.83569 7.01134 7.71615 7.07083 7.62957 7.16656C7.543 7.26229 7.49579 7.38719 7.49739 7.51625V12.0163C7.49739 12.0686 7.48099 12.1195 7.4505 12.162C7.42 12.2045 7.37694 12.2364 7.32739 12.2531L2.33051 13.9406C2.13881 14.008 1.93114 14.0153 1.73515 13.9617C1.53916 13.9081 1.36416 13.7961 1.23344 13.6405C1.10272 13.4849 1.02249 13.2933 1.00343 13.091C0.984375 12.8887 1.0274 12.6854 1.12676 12.5081L7.12489 2.00813C7.21188 1.85348 7.33845 1.72477 7.49162 1.6352C7.64478 1.54562 7.81902 1.49841 7.99645 1.49841C8.17388 1.49841 8.34812 1.54562 8.50129 1.6352C8.65445 1.72477 8.78102 1.85348 8.86801 2.00813L14.8686 12.5063C14.9703 12.6838 15.0147 12.8884 14.9957 13.0921C14.9767 13.2959 14.8952 13.4887 14.7624 13.6444Z" fill="black"/>
</g>
<defs>
<clipPath id="clip0_5_529">
<rect width="16" height="16" fill="white"/>
</clipPath>
</defs>
</svg>
