<svg width="16" height="16" viewBox="0 0 16 16" fill="none" xmlns="http://www.w3.org/2000/svg">
<g clip-path="url(#clip0_5_786)">
<path d="M14.4624 2.77121C14.4624 2.77121 14.4624 2.77746 14.4624 2.78058L10.8249 14.7768C10.7699 14.9717 10.6566 15.145 10.5002 15.2736C10.3438 15.4022 10.1518 15.4799 9.94995 15.4962C9.9212 15.4987 9.89245 15.5 9.8637 15.5C9.67457 15.5005 9.48922 15.447 9.32953 15.3457C9.16984 15.2444 9.04246 15.0995 8.96245 14.9281L6.68745 10.2593C6.66468 10.2125 6.65709 10.1598 6.66571 10.1085C6.67434 10.0572 6.69876 10.0099 6.73557 9.97308L10.3556 6.35308C10.4454 6.25855 10.4947 6.13268 10.493 6.0023C10.4914 5.87192 10.4388 5.74735 10.3466 5.65514C10.2544 5.56294 10.1299 5.51041 9.99949 5.50874C9.8691 5.50707 9.74323 5.5564 9.6487 5.64621L6.02682 9.26621C5.99005 9.30302 5.94271 9.32744 5.8914 9.33607C5.84009 9.3447 5.78736 9.3371 5.74057 9.31433L1.06745 7.03996C0.884711 6.95229 0.732927 6.81116 0.632209 6.63528C0.531492 6.45939 0.486597 6.25706 0.503473 6.05508C0.52035 5.85311 0.598201 5.66103 0.726711 5.5043C0.85522 5.34757 1.02832 5.23359 1.22307 5.17746L13.2193 1.53996H13.2287C13.3995 1.49197 13.58 1.49029 13.7517 1.53508C13.9233 1.57988 14.08 1.66954 14.2056 1.79486C14.3311 1.92019 14.4211 2.07666 14.4663 2.24824C14.5114 2.41981 14.5101 2.60031 14.4624 2.77121Z" fill="black"/>
</g>
<defs>
<clipPath id="clip0_5_786">
<rect width="16" height="16" fill="white"/>
</clipPath>
</defs>
</svg>
