<svg width="16" height="16" viewBox="0 0 16 16" fill="none" xmlns="http://www.w3.org/2000/svg">
<g clip-path="url(#clip0_5_528)">
<path d="M14.9999 7.99315C15.0004 8.17131 14.9532 8.34637 14.8633 8.50021C14.7735 8.65404 14.6441 8.78107 14.4887 8.86815L3.99366 14.8688C3.84306 14.9541 3.67303 14.9993 3.49991 15C3.3404 14.9992 3.18342 14.9602 3.04206 14.8863C2.90069 14.8124 2.77906 14.7057 2.6873 14.5753C2.59555 14.4448 2.53633 14.2943 2.51461 14.1362C2.49288 13.9782 2.50927 13.8173 2.56241 13.6669L4.24991 8.67002C4.2664 8.62117 4.2976 8.57861 4.33922 8.54817C4.38084 8.51774 4.43086 8.50092 4.48241 8.50002H8.99991C9.06845 8.50017 9.1363 8.48623 9.19922 8.45905C9.26215 8.43188 9.31882 8.39206 9.36571 8.34206C9.4126 8.29207 9.44871 8.23296 9.4718 8.16843C9.49488 8.10389 9.50445 8.03529 9.49991 7.9669C9.48857 7.83832 9.42908 7.71878 9.33335 7.63221C9.23762 7.54563 9.11272 7.49842 8.98366 7.50002H4.48366C4.43136 7.50003 4.38037 7.48362 4.33787 7.45313C4.29538 7.42263 4.26352 7.37957 4.24679 7.33002L2.55929 2.33377C2.49212 2.14227 2.48481 1.93486 2.53833 1.7391C2.59184 1.54334 2.70366 1.3685 2.85891 1.2378C3.01416 1.1071 3.2055 1.02673 3.40752 1.00737C3.60953 0.988007 3.81266 1.03057 3.98991 1.1294L14.4899 7.12252C14.6445 7.2094 14.7731 7.33581 14.8628 7.48879C14.9524 7.64178 14.9997 7.81584 14.9999 7.99315Z" fill="black"/>
</g>
<defs>
<clipPath id="clip0_5_528">
<rect width="16" height="16" fill="white"/>
</clipPath>
</defs>
</svg>
