<svg width="16" height="16" viewBox="0 0 16 16" fill="none" xmlns="http://www.w3.org/2000/svg">
<g clip-path="url(#clip0_5_880)">
<path d="M8 1.5C6.71442 1.5 5.45772 1.88122 4.3888 2.59545C3.31988 3.30968 2.48676 4.32484 1.99479 5.51256C1.50282 6.70028 1.37409 8.00721 1.6249 9.26809C1.8757 10.529 2.49477 11.6872 3.40381 12.5962C4.31285 13.5052 5.47104 14.1243 6.73192 14.3751C7.99279 14.6259 9.29973 14.4972 10.4874 14.0052C11.6752 13.5132 12.6903 12.6801 13.4046 11.6112C14.1188 10.5423 14.5 9.28558 14.5 8C14.4982 6.27665 13.8128 4.62441 12.5942 3.40582C11.3756 2.18722 9.72335 1.50182 8 1.5ZM10.3538 4.64625C10.3073 4.59976 10.2522 4.56288 10.1915 4.53772C10.1308 4.51256 10.0657 4.49961 10 4.49961C9.93429 4.49961 9.86923 4.51256 9.80853 4.53772C9.74783 4.56288 9.69269 4.59976 9.64625 4.64625L5.44313 8.9375C5.3036 9.07666 5.19285 9.24194 5.11719 9.4239C5.04154 9.60587 5.00246 9.80095 5.0022 9.99801C5.00194 10.1951 5.0405 10.3903 5.11567 10.5724C5.19084 10.7546 5.30116 10.9202 5.44032 11.0597C5.57948 11.1992 5.74476 11.31 5.92672 11.3856C6.10868 11.4613 6.30376 11.5004 6.50083 11.5006C6.69789 11.5009 6.89307 11.4623 7.07524 11.3871C7.2574 11.312 7.42297 11.2017 7.5625 11.0625L10.645 7.9175C10.6905 7.86882 10.7453 7.82973 10.8062 7.80254C10.8671 7.77535 10.9327 7.7606 10.9994 7.75916C11.066 7.75772 11.1323 7.76963 11.1943 7.79417C11.2562 7.81871 11.3127 7.8554 11.3603 7.90207C11.4079 7.94874 11.4456 8.00446 11.4714 8.06595C11.4971 8.12743 11.5103 8.19345 11.5102 8.2601C11.51 8.32676 11.4966 8.39272 11.4706 8.45409C11.4446 8.51547 11.4065 8.57103 11.3588 8.6175L8.27313 11.7662C8.04217 12.0029 7.76658 12.1913 7.46229 12.3207C7.158 12.4501 6.83107 12.5178 6.50043 12.52C6.16979 12.5222 5.842 12.4587 5.53605 12.3333C5.23009 12.2079 4.95205 12.0231 4.71802 11.7895C4.48398 11.5559 4.29861 11.2783 4.17263 10.9726C4.04665 10.6668 3.98257 10.3392 3.98409 10.0085C3.98561 9.67789 4.05271 9.35083 4.1815 9.04629C4.31029 8.74175 4.49821 8.46579 4.73438 8.23438L8.9375 3.94313C9.07666 3.8036 9.24194 3.69284 9.42391 3.61719C9.60587 3.54153 9.80095 3.50246 9.99801 3.5022C10.1951 3.50194 10.3903 3.54049 10.5724 3.61567C10.7546 3.69084 10.9202 3.80115 11.0597 3.94031C11.1992 4.07947 11.31 4.24475 11.3856 4.42672C11.4613 4.60868 11.5004 4.80376 11.5006 5.00082C11.5009 5.19789 11.4623 5.39307 11.3871 5.57523C11.312 5.7574 11.2017 5.92297 11.0625 6.0625L6.85688 10.35C6.81134 10.3987 6.75654 10.4378 6.69568 10.465C6.63482 10.4922 6.56914 10.5069 6.50249 10.5083C6.43585 10.5098 6.3696 10.4979 6.30762 10.4733C6.24565 10.4488 6.1892 10.4121 6.14161 10.3654C6.09402 10.3188 6.05625 10.263 6.0305 10.2016C6.00476 10.1401 5.99157 10.0741 5.99171 10.0074C5.99185 9.94074 6.00532 9.87478 6.03132 9.81341C6.05733 9.75203 6.09534 9.69647 6.14313 9.65L10.35 5.35687C10.3972 5.31063 10.4348 5.25549 10.4605 5.19463C10.4863 5.13378 10.4997 5.06843 10.5001 5.00234C10.5004 4.93626 10.4877 4.87077 10.4626 4.80965C10.4375 4.74853 10.4005 4.69299 10.3538 4.64625Z" fill="black"/>
</g>
<defs>
<clipPath id="clip0_5_880">
<rect width="16" height="16" fill="white"/>
</clipPath>
</defs>
</svg>
