<svg width="16" height="16" viewBox="0 0 16 16" fill="none" xmlns="http://www.w3.org/2000/svg">
<g clip-path="url(#clip0_5_784)">
<path d="M13.5 3C13.5 3.13261 13.4473 3.25979 13.3536 3.35355C13.2598 3.44732 13.1326 3.5 13 3.5H12V13C12 13.1326 11.9473 13.2598 11.8536 13.3536C11.7598 13.4473 11.6326 13.5 11.5 13.5C11.3674 13.5 11.2402 13.4473 11.1464 13.3536C11.0527 13.2598 11 13.1326 11 13V3.5H9.5V13C9.5 13.1326 9.44732 13.2598 9.35355 13.3536C9.25979 13.4473 9.13261 13.5 9 13.5C8.86739 13.5 8.74021 13.4473 8.64645 13.3536C8.55268 13.2598 8.5 13.1326 8.5 13V10.5H6C4.93913 10.5 3.92172 10.0786 3.17157 9.32843C2.42143 8.57828 2 7.56087 2 6.5C2 5.43913 2.42143 4.42172 3.17157 3.67157C3.92172 2.92143 4.93913 2.5 6 2.5H13C13.1326 2.5 13.2598 2.55268 13.3536 2.64645C13.4473 2.74021 13.5 2.86739 13.5 3Z" fill="black"/>
</g>
<defs>
<clipPath id="clip0_5_784">
<rect width="16" height="16" fill="white"/>
</clipPath>
</defs>
</svg>
