<svg width="16" height="16" viewBox="0 0 16 16" fill="none" xmlns="http://www.w3.org/2000/svg">
<g clip-path="url(#clip0_5_526)">
<path d="M14.5 7.5C14.498 5.7767 13.8126 4.12455 12.594 2.906C11.3754 1.68744 9.7233 1.00198 8 1C6.2767 1.00198 4.62455 1.68744 3.406 2.906C2.18744 4.12455 1.50198 5.7767 1.5 7.5C1.50017 7.57757 1.51839 7.65404 1.55321 7.72335C1.58803 7.79267 1.6385 7.85293 1.70062 7.89937L7.5 12.25V13.5H7C6.86739 13.5 6.74021 13.5527 6.64645 13.6464C6.55268 13.7402 6.5 13.8674 6.5 14C6.5 14.1326 6.55268 14.2598 6.64645 14.3536C6.74021 14.4473 6.86739 14.5 7 14.5H9C9.13261 14.5 9.25979 14.4473 9.35355 14.3536C9.44732 14.2598 9.5 14.1326 9.5 14C9.5 13.8674 9.44732 13.7402 9.35355 13.6464C9.25979 13.5527 9.13261 13.5 9 13.5H8.5V12.25L14.3 7.9C14.3621 7.85343 14.4125 7.79303 14.4472 7.72361C14.4819 7.65418 14.5 7.57762 14.5 7.5ZM13.4775 7H10.9894C10.8931 4.62812 10.12 3.09812 9.42 2.1875C10.5067 2.47966 11.4779 3.09737 12.2032 3.95766C12.9285 4.81794 13.3732 5.8796 13.4775 7ZM9.65 8L8 10.9706L6.35 8H9.65ZM5.20563 8L6.42438 10.1931L3.5 8H5.20563ZM10.7944 8H12.5L9.57563 10.1931L10.7944 8ZM6.58 2.1875C5.88 3.09812 5.10687 4.62812 5.01062 7H2.5225C2.6268 5.8796 3.07148 4.81794 3.7968 3.95766C4.52212 3.09737 5.49334 2.47966 6.58 2.1875Z" fill="black"/>
</g>
<defs>
<clipPath id="clip0_5_526">
<rect width="16" height="16" fill="white"/>
</clipPath>
</defs>
</svg>
