<svg width="16" height="16" viewBox="0 0 16 16" fill="none" xmlns="http://www.w3.org/2000/svg">
<g clip-path="url(#clip0_5_874)">
<path d="M15.4112 3.91062L11.3612 12.9106C11.2821 13.0862 11.154 13.2353 10.9922 13.3398C10.8304 13.4444 10.6419 13.5 10.4493 13.5H1.49993C1.33295 13.4999 1.16866 13.458 1.02203 13.3781C0.875402 13.2982 0.751116 13.1829 0.660509 13.0426C0.569903 12.9024 0.515861 12.7416 0.503315 12.5751C0.490769 12.4086 0.520118 12.2416 0.588684 12.0894L4.63868 3.08938C4.71778 2.91375 4.8459 2.76471 5.00767 2.66015C5.16943 2.5556 5.35795 2.49999 5.55056 2.5H14.4999C14.667 2.49999 14.8313 2.54182 14.9781 2.62167C15.1248 2.70152 15.2491 2.81684 15.3398 2.95712C15.4305 3.09739 15.4846 3.25815 15.4972 3.42471C15.5097 3.59127 15.4804 3.75832 15.4118 3.91062H15.4112Z" fill="black"/>
</g>
<defs>
<clipPath id="clip0_5_874">
<rect width="16" height="16" fill="white"/>
</clipPath>
</defs>
</svg>
