<svg width="16" height="16" viewBox="0 0 16 16" fill="none" xmlns="http://www.w3.org/2000/svg">
<g clip-path="url(#clip0_5_1606)">
<path d="M14.5 11.9999H12.5V10.4999H14C14.076 10.4999 14.1509 10.4826 14.2192 10.4493C14.2875 10.416 14.3473 10.3675 14.394 10.3076C14.4408 10.2477 14.4733 10.178 14.489 10.1037C14.5048 10.0293 14.5034 9.9524 14.485 9.87869L12.485 1.87869C12.4579 1.77058 12.3955 1.67462 12.3076 1.60605C12.2197 1.53748 12.1115 1.50024 12 1.50024C11.8885 1.50024 11.7803 1.53748 11.6924 1.60605C11.6045 1.67462 11.5421 1.77058 11.515 1.87869L9.515 9.87869C9.49658 9.9524 9.49519 10.0293 9.51095 10.1037C9.52671 10.178 9.5592 10.2477 9.60596 10.3076C9.65271 10.3675 9.71249 10.416 9.78077 10.4493C9.84905 10.4826 9.92402 10.4999 10 10.4999H11.5V11.9999H7.5V10.9999H8C8.13261 10.9999 8.25979 10.9473 8.35355 10.8535C8.44732 10.7597 8.5 10.6326 8.5 10.4999C8.5 10.3673 8.44732 10.2402 8.35355 10.1464C8.25979 10.0526 8.13261 9.99994 8 9.99994H7.5V8.99994H8C8.13261 8.99994 8.25979 8.94726 8.35355 8.8535C8.44732 8.75973 8.5 8.63255 8.5 8.49994C8.5 8.36733 8.44732 8.24016 8.35355 8.14639C8.25979 8.05262 8.13261 7.99994 8 7.99994H2.5C2.36739 7.99994 2.24021 8.05262 2.14645 8.14639C2.05268 8.24016 2 8.36733 2 8.49994C2 8.63255 2.05268 8.75973 2.14645 8.8535C2.24021 8.94726 2.36739 8.99994 2.5 8.99994H3V9.99994H2.5C2.36739 9.99994 2.24021 10.0526 2.14645 10.1464C2.05268 10.2402 2 10.3673 2 10.4999C2 10.6326 2.05268 10.7597 2.14645 10.8535C2.24021 10.9473 2.36739 10.9999 2.5 10.9999H3V11.9999H1.5C1.36739 11.9999 1.24021 12.0526 1.14645 12.1464C1.05268 12.2402 1 12.3673 1 12.4999C1 12.6326 1.05268 12.7597 1.14645 12.8535C1.24021 12.9473 1.36739 12.9999 1.5 12.9999H14.5C14.6326 12.9999 14.7598 12.9473 14.8536 12.8535C14.9473 12.7597 15 12.6326 15 12.4999C15 12.3673 14.9473 12.2402 14.8536 12.1464C14.7598 12.0526 14.6326 11.9999 14.5 11.9999ZM6.5 11.9999H4V10.9999H6.5V11.9999ZM6.5 9.99994H4V8.99994H6.5V9.99994ZM7.25 5.99994C7.59612 5.99994 7.93446 5.89731 8.22225 5.70501C8.51003 5.51272 8.73434 5.23941 8.86679 4.91964C8.99924 4.59987 9.0339 4.248 8.96637 3.90853C8.89885 3.56907 8.73218 3.25725 8.48744 3.0125C8.2427 2.76776 7.93087 2.60109 7.59141 2.53357C7.25194 2.46604 6.90007 2.5007 6.5803 2.63315C6.26053 2.76561 5.98722 2.98991 5.79493 3.27769C5.60264 3.56548 5.5 3.90382 5.5 4.24994C5.5 4.71407 5.68437 5.15919 6.01256 5.48738C6.34075 5.81557 6.78587 5.99994 7.25 5.99994ZM7.25 3.49994C7.39834 3.49994 7.54334 3.54393 7.66668 3.62634C7.79001 3.70875 7.88614 3.82588 7.94291 3.96293C7.99968 4.09997 8.01453 4.25077 7.98559 4.39626C7.95665 4.54175 7.88522 4.67538 7.78033 4.78027C7.67544 4.88516 7.5418 4.95659 7.39632 4.98553C7.25083 5.01447 7.10003 4.99962 6.96299 4.94285C6.82594 4.88609 6.70881 4.78996 6.6264 4.66662C6.54399 4.54328 6.5 4.39828 6.5 4.24994C6.5 4.05103 6.57902 3.86026 6.71967 3.71961C6.86032 3.57896 7.05109 3.49994 7.25 3.49994Z" fill="black"/>
</g>
<defs>
<clipPath id="clip0_5_1606">
<rect width="16" height="16" fill="white"/>
</clipPath>
</defs>
</svg>
