<svg width="16" height="16" viewBox="0 0 16 16" fill="none" xmlns="http://www.w3.org/2000/svg">
<g clip-path="url(#clip0_5_525)">
<path d="M14 3H2C1.73478 3 1.48043 3.10536 1.29289 3.29289C1.10536 3.48043 1 3.73478 1 4V12C1 12.2652 1.10536 12.5196 1.29289 12.7071C1.48043 12.8946 1.73478 13 2 13H14C14.2652 13 14.5196 12.8946 14.7071 12.7071C14.8946 12.5196 15 12.2652 15 12V4C15 3.73478 14.8946 3.48043 14.7071 3.29289C14.5196 3.10536 14.2652 3 14 3ZM12.7863 8.91938C12.8249 8.97272 12.8526 9.03316 12.8679 9.09722C12.8831 9.16129 12.8856 9.22774 12.8752 9.29277C12.8648 9.3578 12.8417 9.42014 12.8071 9.47623C12.7726 9.53232 12.7274 9.58107 12.6741 9.61969C12.6207 9.6583 12.5603 9.68604 12.4962 9.7013C12.4321 9.71656 12.3657 9.71905 12.3007 9.70863C12.2356 9.69822 12.1733 9.67509 12.1172 9.64058C12.0611 9.60607 12.0124 9.56085 11.9738 9.5075L11.5 8.85063L11.0231 9.5075C10.9451 9.61524 10.8275 9.68759 10.6962 9.70863C10.5649 9.72967 10.4306 9.69768 10.3228 9.61969C10.2151 9.5417 10.1427 9.4241 10.1217 9.29277C10.1006 9.16143 10.1326 9.02712 10.2106 8.91938L10.6881 8.26313L9.91562 8.01313C9.85321 7.99261 9.79544 7.95999 9.74562 7.91715C9.69581 7.87431 9.65492 7.82207 9.62529 7.76342C9.56546 7.64498 9.55512 7.50762 9.59656 7.38156C9.61708 7.31914 9.64969 7.26138 9.69254 7.21156C9.73538 7.16175 9.78762 7.12086 9.84626 7.09123C9.9647 7.03139 10.1021 7.02106 10.2281 7.0625L11 7.3125V6.5C11 6.36739 11.0527 6.24021 11.1464 6.14645C11.2402 6.05268 11.3674 6 11.5 6C11.6326 6 11.7598 6.05268 11.8536 6.14645C11.9473 6.24021 12 6.36739 12 6.5V7.3125L12.7719 7.0625C12.8343 7.04198 12.9001 7.03396 12.9657 7.03889C13.0312 7.04382 13.0951 7.0616 13.1537 7.09123C13.2124 7.12086 13.2646 7.16175 13.3075 7.21156C13.3503 7.26138 13.3829 7.31914 13.4034 7.38156C13.424 7.44398 13.432 7.50983 13.4271 7.57535C13.4221 7.64087 13.4043 7.70478 13.3747 7.76342C13.3451 7.82207 13.3042 7.87431 13.2544 7.91715C13.2046 7.95999 13.1468 7.99261 13.0844 8.01313L12.3119 8.26313L12.7863 8.91938ZM8.28625 8.91938C8.32487 8.97272 8.3526 9.03316 8.36786 9.09722C8.38312 9.16129 8.38561 9.22774 8.3752 9.29277C8.36478 9.3578 8.34165 9.42014 8.30714 9.47623C8.27263 9.53232 8.22741 9.58107 8.17406 9.61969C8.12071 9.6583 8.06028 9.68604 7.99621 9.7013C7.93215 9.71656 7.8657 9.71905 7.80067 9.70863C7.73564 9.69822 7.6733 9.67509 7.61721 9.64058C7.56111 9.60607 7.51237 9.56085 7.47375 9.5075L7 8.85063L6.52313 9.5075C6.44514 9.61524 6.32754 9.68759 6.1962 9.70863C6.06487 9.72967 5.93056 9.69768 5.82281 9.61969C5.71507 9.5417 5.64272 9.4241 5.62168 9.29277C5.60064 9.16143 5.63264 9.02712 5.71063 8.91938L6.18813 8.26313L5.41563 8.01313C5.35321 7.99261 5.29544 7.95999 5.24562 7.91715C5.19581 7.87431 5.15492 7.82207 5.12529 7.76342C5.06546 7.64498 5.05512 7.50762 5.09656 7.38156C5.11708 7.31914 5.14969 7.26138 5.19254 7.21156C5.23538 7.16175 5.28762 7.12086 5.34626 7.09123C5.4647 7.03139 5.60206 7.02106 5.72813 7.0625L6.5 7.3125V6.5C6.5 6.36739 6.55268 6.24021 6.64645 6.14645C6.74021 6.05268 6.86739 6 7 6C7.13261 6 7.25979 6.05268 7.35355 6.14645C7.44732 6.24021 7.5 6.36739 7.5 6.5V7.3125L8.27188 7.0625C8.33429 7.04198 8.40014 7.03396 8.46566 7.03889C8.53118 7.04382 8.59509 7.0616 8.65374 7.09123C8.71238 7.12086 8.76462 7.16175 8.80746 7.21156C8.85031 7.26138 8.88292 7.31914 8.90344 7.38156C8.92396 7.44398 8.93198 7.50983 8.92705 7.57535C8.92212 7.64087 8.90434 7.70478 8.87471 7.76342C8.84508 7.82207 8.80419 7.87431 8.75438 7.91715C8.70456 7.95999 8.64679 7.99261 8.58438 8.01313L7.81187 8.26313L8.28625 8.91938ZM4 5.5V10.5C4 10.6326 3.94732 10.7598 3.85355 10.8536C3.75979 10.9473 3.63261 11 3.5 11C3.36739 11 3.24021 10.9473 3.14645 10.8536C3.05268 10.7598 3 10.6326 3 10.5V5.5C3 5.36739 3.05268 5.24021 3.14645 5.14645C3.24021 5.05268 3.36739 5 3.5 5C3.63261 5 3.75979 5.05268 3.85355 5.14645C3.94732 5.24021 4 5.36739 4 5.5Z" fill="black"/>
</g>
<defs>
<clipPath id="clip0_5_525">
<rect width="16" height="16" fill="white"/>
</clipPath>
</defs>
</svg>
