<svg width="16" height="16" viewBox="0 0 16 16" fill="none" xmlns="http://www.w3.org/2000/svg">
<g clip-path="url(#clip0_5_780)">
<path d="M14.25 12.5C14.2499 12.9203 14.0985 13.3264 13.8236 13.6443C13.5486 13.9621 13.1685 14.1704 12.7527 14.2311C12.3368 14.2917 11.913 14.2008 11.5587 13.9747C11.2044 13.7487 10.9433 13.4027 10.8231 13H4.5C3.70435 13 2.94129 12.6839 2.37868 12.1213C1.81607 11.5587 1.5 10.7956 1.5 10C1.5 9.20435 1.81607 8.44129 2.37868 7.87868C2.94129 7.31607 3.70435 7 4.5 7H10.5C10.8978 7 11.2794 6.84196 11.5607 6.56066C11.842 6.27936 12 5.89782 12 5.5C12 5.10218 11.842 4.72064 11.5607 4.43934C11.2794 4.15804 10.8978 4 10.5 4H4.5C4.36739 4 4.24021 3.94732 4.14645 3.85355C4.05268 3.75979 4 3.63261 4 3.5C4 3.36739 4.05268 3.24021 4.14645 3.14645C4.24021 3.05268 4.36739 3 4.5 3H10.5C11.163 3 11.7989 3.26339 12.2678 3.73223C12.7366 4.20107 13 4.83696 13 5.5C13 6.16304 12.7366 6.79893 12.2678 7.26777C11.7989 7.73661 11.163 8 10.5 8H4.5C3.96957 8 3.46086 8.21071 3.08579 8.58579C2.71071 8.96086 2.5 9.46957 2.5 10C2.5 10.5304 2.71071 11.0391 3.08579 11.4142C3.46086 11.7893 3.96957 12 4.5 12H10.8231C10.9433 11.5973 11.2044 11.2513 11.5587 11.0253C11.913 10.7992 12.3368 10.7083 12.7527 10.7689C13.1685 10.8296 13.5486 11.0379 13.8236 11.3557C14.0985 11.6736 14.2499 12.0797 14.25 12.5Z" fill="black"/>
</g>
<defs>
<clipPath id="clip0_5_780">
<rect width="16" height="16" fill="white"/>
</clipPath>
</defs>
</svg>
