<svg width="16" height="16" viewBox="0 0 16 16" fill="none" xmlns="http://www.w3.org/2000/svg">
<g clip-path="url(#clip0_5_1210)">
<path d="M14.5 5.82311C14.5 8.38561 12.6444 9.10249 11.1531 9.67749C10.6275 9.87999 10.1313 10.0712 9.76501 10.32C9.05313 10.8025 8.60313 11.6812 8.16813 12.5312C7.54688 13.745 6.90376 15 5.47001 15C4.66313 15 3.93188 14.2725 3.35438 12.8962C2.77688 11.52 2.46001 9.70874 2.50376 8.05561C2.57126 5.51499 3.41501 4.13811 4.11001 3.43061C5.04438 2.48061 6.31251 1.84936 7.77751 1.60561C9.13938 1.37936 10.5363 1.51936 11.7106 1.99936C13.4831 2.72499 14.5 4.11874 14.5 5.82311Z" fill="black"/>
</g>
<defs>
<clipPath id="clip0_5_1210">
<rect width="16" height="16" fill="white"/>
</clipPath>
</defs>
</svg>
