<svg width="16" height="16" viewBox="0 0 16 16" fill="none" xmlns="http://www.w3.org/2000/svg">
<g clip-path="url(#clip0_5_524)">
<path d="M8 1.5C6.71442 1.5 5.45772 1.88122 4.3888 2.59545C3.31988 3.30968 2.48676 4.32484 1.99479 5.51256C1.50282 6.70028 1.37409 8.00721 1.6249 9.26809C1.8757 10.529 2.49477 11.6872 3.40381 12.5962C4.31285 13.5052 5.47104 14.1243 6.73192 14.3751C7.99279 14.6259 9.29973 14.4972 10.4874 14.0052C11.6752 13.5132 12.6903 12.6801 13.4046 11.6112C14.1188 10.5423 14.5 9.28558 14.5 8C14.4979 6.27675 13.8123 4.6247 12.5938 3.40618C11.3753 2.18766 9.72325 1.50215 8 1.5ZM7 10C7 10.1326 6.94732 10.2598 6.85356 10.3536C6.75979 10.4473 6.63261 10.5 6.5 10.5C6.36739 10.5 6.24022 10.4473 6.14645 10.3536C6.05268 10.2598 6 10.1326 6 10V6C6 5.86739 6.05268 5.74021 6.14645 5.64645C6.24022 5.55268 6.36739 5.5 6.5 5.5C6.63261 5.5 6.75979 5.55268 6.85356 5.64645C6.94732 5.74021 7 5.86739 7 6V10ZM10 10C10 10.1326 9.94732 10.2598 9.85356 10.3536C9.75979 10.4473 9.63261 10.5 9.5 10.5C9.36739 10.5 9.24022 10.4473 9.14645 10.3536C9.05268 10.2598 9 10.1326 9 10V6C9 5.86739 9.05268 5.74021 9.14645 5.64645C9.24022 5.55268 9.36739 5.5 9.5 5.5C9.63261 5.5 9.75979 5.55268 9.85356 5.64645C9.94732 5.74021 10 5.86739 10 6V10Z" fill="black"/>
</g>
<defs>
<clipPath id="clip0_5_524">
<rect width="16" height="16" fill="white"/>
</clipPath>
</defs>
</svg>
