<svg width="16" height="16" viewBox="0 0 16 16" fill="none" xmlns="http://www.w3.org/2000/svg">
<g clip-path="url(#clip0_5_778)">
<path d="M15 6.75C15 7.09612 14.8974 7.43446 14.7051 7.72225C14.5128 8.01003 14.2395 8.23434 13.9197 8.36679C13.5999 8.49924 13.2481 8.5339 12.9086 8.46637C12.5691 8.39885 12.2573 8.23218 12.0126 7.98744C11.7678 7.7427 11.6012 7.43088 11.5336 7.09141C11.4661 6.75194 11.5008 6.40008 11.6332 6.0803C11.7657 5.76053 11.99 5.48722 12.2778 5.29493C12.5655 5.10264 12.9039 5 13.25 5C13.7141 5 14.1592 5.18438 14.4874 5.51256C14.8156 5.84075 15 6.28587 15 6.75ZM4.5 6.75C4.5 6.40388 4.39737 6.06554 4.20507 5.77775C4.01278 5.48997 3.73947 5.26566 3.4197 5.13321C3.09993 5.00076 2.74806 4.9661 2.40859 5.03363C2.06913 5.10115 1.75731 5.26782 1.51256 5.51256C1.26782 5.75731 1.10115 6.06913 1.03363 6.40859C0.966102 6.74806 1.00076 7.09993 1.13321 7.4197C1.26566 7.73947 1.48997 8.01278 1.77775 8.20507C2.06554 8.39736 2.40388 8.5 2.75 8.5C3.21413 8.5 3.65925 8.31563 3.98744 7.98744C4.31563 7.65925 4.5 7.21413 4.5 6.75ZM5.75 5.5C6.09612 5.5 6.43446 5.39737 6.72225 5.20507C7.01004 5.01278 7.23434 4.73947 7.36679 4.4197C7.49924 4.09993 7.5339 3.74806 7.46638 3.40859C7.39885 3.06913 7.23218 2.75731 6.98744 2.51256C6.7427 2.26782 6.43088 2.10115 6.09141 2.03363C5.75194 1.9661 5.40008 2.00076 5.08031 2.13321C4.76053 2.26566 4.48722 2.48997 4.29493 2.77775C4.10264 3.06554 4 3.40388 4 3.75C4 4.21413 4.18438 4.65925 4.51256 4.98744C4.84075 5.31563 5.28587 5.5 5.75 5.5ZM10.25 5.5C10.5961 5.5 10.9345 5.39737 11.2222 5.20507C11.51 5.01278 11.7343 4.73947 11.8668 4.4197C11.9992 4.09993 12.0339 3.74806 11.9664 3.40859C11.8989 3.06913 11.7322 2.75731 11.4874 2.51256C11.2427 2.26782 10.9309 2.10115 10.5914 2.03363C10.2519 1.9661 9.90008 2.00076 9.58031 2.13321C9.26053 2.26566 8.98722 2.48997 8.79493 2.77775C8.60264 3.06554 8.5 3.40388 8.5 3.75C8.5 4.21413 8.68437 4.65925 9.01256 4.98744C9.34075 5.31563 9.78587 5.5 10.25 5.5ZM11.695 9.30375C11.441 9.16364 11.2172 8.97483 11.0363 8.74811C10.8553 8.52139 10.7209 8.26123 10.6406 7.9825C10.4744 7.41078 10.1271 6.90846 9.6509 6.55102C9.17472 6.19359 8.5954 6.00035 8 6.00035C7.4046 6.00035 6.82528 6.19359 6.34911 6.55102C5.87293 6.90846 5.52562 7.41078 5.35938 7.9825C5.19878 8.54335 4.8223 9.01761 4.3125 9.30125C3.82345 9.56588 3.43658 9.98599 3.21308 10.4952C2.98958 11.0043 2.94221 11.5735 3.07845 12.1126C3.2147 12.6517 3.52679 13.13 3.96536 13.4718C4.40393 13.8136 4.94395 13.9995 5.5 14C5.83323 14.001 6.16319 13.9344 6.47 13.8044C7.44817 13.401 8.54621 13.401 9.52438 13.8044C10.1168 14.0621 10.7861 14.0804 11.3917 13.8554C11.9974 13.6305 12.4925 13.1799 12.7732 12.598C13.0539 12.016 13.0984 11.3481 12.8974 10.734C12.6964 10.12 12.2655 9.60766 11.695 9.30438V9.30375Z" fill="black"/>
</g>
<defs>
<clipPath id="clip0_5_778">
<rect width="16" height="16" fill="white"/>
</clipPath>
</defs>
</svg>
