<svg width="16" height="16" viewBox="0 0 16 16" fill="none" xmlns="http://www.w3.org/2000/svg">
<g clip-path="url(#clip0_5_1199)">
<path d="M13.7575 5.84625C13.4219 5.41496 12.9896 5.06856 12.4956 4.835C12.4532 3.93639 12.0664 3.08862 11.4155 2.46763C10.7646 1.84664 9.89958 1.50012 8.99997 1.5H5.24997C5.02698 1.50003 4.81039 1.5746 4.63464 1.71185C4.45888 1.8491 4.33405 2.04116 4.27997 2.2575L2.02997 11.2575C1.99312 11.4049 1.99035 11.5588 2.02187 11.7074C2.05339 11.8561 2.11838 11.9956 2.21188 12.1154C2.30539 12.2351 2.42496 12.332 2.56152 12.3987C2.69807 12.4653 2.84802 12.5 2.99997 12.5H4.71872L4.53122 13.2575C4.4944 13.4048 4.49161 13.5586 4.52306 13.7071C4.55451 13.8557 4.61938 13.9951 4.71275 14.1149C4.80611 14.2346 4.92552 14.3315 5.06192 14.3983C5.19832 14.465 5.34812 14.4998 5.49997 14.5H7.46872C7.6915 14.4997 7.9078 14.425 8.0833 14.2878C8.2588 14.1505 8.38345 13.9586 8.43747 13.7425L8.99997 11.5H11C11.6557 11.5 12.2982 11.3157 12.8544 10.9683C13.4105 10.6209 13.8578 10.1242 14.1454 9.53485C14.4329 8.94554 14.5491 8.28729 14.4808 7.63513C14.4124 6.98297 14.1622 6.36313 13.7587 5.84625H13.7575ZM2.99997 11.5L5.24997 2.5H8.99997C9.58169 2.49984 10.1453 2.70254 10.5936 3.07319C11.0419 3.44385 11.347 3.95925 11.4562 4.53062C11.3049 4.51066 11.1526 4.50043 11 4.5H7.49997C7.27687 4.49989 7.06014 4.5744 6.88426 4.71166C6.70838 4.84892 6.58345 5.04106 6.52935 5.2575L4.96997 11.5H2.99997ZM13.4231 8.60625C13.2886 9.14711 12.9769 9.62739 12.5378 9.97059C12.0987 10.3138 11.5573 10.5002 11 10.5H8.99997C8.77698 10.5 8.56039 10.5746 8.38464 10.7119C8.20888 10.8491 8.08405 11.0412 8.02997 11.2575L7.46747 13.5H5.49997L6.74997 8.5H8.99997C9.76877 8.50022 10.5162 8.24685 11.1264 7.77916C11.7365 7.31147 12.1754 6.65557 12.375 5.91313C12.6007 6.06271 12.8008 6.2478 12.9675 6.46125C13.2027 6.75999 13.3661 7.10876 13.4452 7.48065C13.5243 7.85255 13.517 8.23765 13.4237 8.60625H13.4231Z" fill="black"/>
</g>
<defs>
<clipPath id="clip0_5_1199">
<rect width="16" height="16" fill="white"/>
</clipPath>
</defs>
</svg>
