<svg width="16" height="16" viewBox="0 0 16 16" fill="none" xmlns="http://www.w3.org/2000/svg">
<g clip-path="url(#clip0_5_522)">
<path d="M8.5 8.96062L11.375 10.9731C10.6369 11.8137 9.6117 12.3486 8.5 12.4731V8.96062ZM3.5 8C3.49928 8.75322 3.68867 9.49444 4.05063 10.155L7.5 7.74V3.52875C6.40054 3.65278 5.38517 4.17708 4.64747 5.00169C3.90976 5.82631 3.50132 6.89357 3.5 8ZM7.5 12.4712V8.96062L4.625 10.9731C5.3634 11.813 6.38857 12.3472 7.5 12.4712ZM8.5 3.52875V7.74L11.9494 10.155C12.3027 9.50701 12.4912 8.78205 12.4983 8.04402C12.5054 7.30599 12.3309 6.57754 11.9901 5.92287C11.6493 5.2682 11.1527 4.7074 10.5441 4.28989C9.93545 3.87239 9.23347 3.611 8.5 3.52875ZM14.5 8C14.5 9.28558 14.1188 10.5423 13.4046 11.6112C12.6903 12.6801 11.6752 13.5132 10.4874 14.0052C9.29973 14.4972 7.99279 14.6259 6.73192 14.3751C5.47104 14.1243 4.31285 13.5052 3.40381 12.5962C2.49477 11.6872 1.8757 10.529 1.6249 9.26809C1.37409 8.00721 1.50282 6.70028 1.99479 5.51256C2.48676 4.32484 3.31988 3.30968 4.3888 2.59545C5.45772 1.88122 6.71442 1.5 8 1.5C9.72335 1.50182 11.3756 2.18722 12.5942 3.40582C13.8128 4.62441 14.4982 6.27665 14.5 8ZM13.5 8C13.5 6.9122 13.1774 5.84883 12.5731 4.94436C11.9687 4.03989 11.1098 3.33494 10.1048 2.91866C9.09977 2.50238 7.9939 2.39346 6.92701 2.60568C5.86011 2.8179 4.8801 3.34172 4.11092 4.11091C3.34173 4.8801 2.8179 5.86011 2.60568 6.927C2.39347 7.9939 2.50238 9.09977 2.91867 10.1048C3.33495 11.1098 4.0399 11.9687 4.94437 12.5731C5.84884 13.1774 6.91221 13.5 8 13.5C9.45819 13.4983 10.8562 12.9184 11.8873 11.8873C12.9184 10.8562 13.4983 9.45818 13.5 8Z" fill="black"/>
</g>
<defs>
<clipPath id="clip0_5_522">
<rect width="16" height="16" fill="white"/>
</clipPath>
</defs>
</svg>
