<svg width="16" height="16" viewBox="0 0 16 16" fill="none" xmlns="http://www.w3.org/2000/svg">
<g clip-path="url(#clip0_5_776)">
<path d="M15.2068 5.08499L10.9143 0.792486C10.8215 0.699603 10.7112 0.625923 10.5899 0.575654C10.4686 0.525385 10.3385 0.499512 10.2072 0.499512C10.0758 0.499512 9.94577 0.525385 9.82443 0.575654C9.70308 0.625923 9.59284 0.699603 9.49997 0.792486L7.72247 2.56999L4.09747 3.92999C3.93276 3.99128 3.7871 4.0949 3.67518 4.23041C3.56326 4.36592 3.48903 4.52853 3.45997 4.70186L2.16185 12.4894C2.15315 12.5416 2.16124 12.5952 2.18497 12.6425C2.2087 12.6898 2.24684 12.7284 2.2939 12.7527C2.34095 12.7769 2.39449 12.7856 2.4468 12.7775C2.49911 12.7694 2.54749 12.7449 2.58497 12.7075L6.14747 9.14499C6.0346 8.91015 5.98525 8.64984 6.00435 8.38999C6.02759 8.07031 6.15262 7.76648 6.3611 7.52304C6.56959 7.27959 6.85058 7.10933 7.16288 7.03721C7.47518 6.96509 7.80238 6.9949 8.0965 7.12228C8.39062 7.24965 8.63621 7.46789 8.79727 7.74501C8.95833 8.02212 9.02639 8.34354 8.99147 8.66216C8.95655 8.98077 8.8205 9.27982 8.60324 9.51547C8.38599 9.75113 8.09896 9.911 7.78423 9.97165C7.4695 10.0323 7.14362 9.99053 6.85435 9.85249L3.29185 13.415C3.25447 13.4525 3.22995 13.5009 3.22183 13.5532C3.21371 13.6055 3.22241 13.659 3.24666 13.7061C3.27092 13.7531 3.30949 13.7913 3.35681 13.815C3.40413 13.8387 3.45776 13.8468 3.50997 13.8381L11.2981 12.54C11.4712 12.5112 11.6336 12.4373 11.7691 12.3258C11.9045 12.2144 12.0083 12.0692 12.07 11.905L13.4306 8.27561L15.2068 6.49999C15.2997 6.40712 15.3734 6.29687 15.4237 6.17553C15.474 6.05419 15.4998 5.92414 15.4998 5.7928C15.4998 5.66146 15.474 5.5314 15.4237 5.41006C15.3734 5.28872 15.2997 5.17847 15.2068 5.08561V5.08499ZM13 7.29249L8.70747 2.99999L10.2075 1.49999L14.5 5.79249L13 7.29249Z" fill="black"/>
</g>
<defs>
<clipPath id="clip0_5_776">
<rect width="16" height="16" fill="white"/>
</clipPath>
</defs>
</svg>
