<svg width="16" height="16" viewBox="0 0 16 16" fill="none" xmlns="http://www.w3.org/2000/svg">
<g clip-path="url(#clip0_5_521)">
<path d="M14.2075 4.5856L11.4144 1.7931C11.3215 1.70021 11.2113 1.62653 11.0899 1.57626C10.9686 1.526 10.8385 1.50012 10.7072 1.50012C10.5759 1.50012 10.4458 1.526 10.3245 1.57626C10.2031 1.62653 10.0929 1.70021 10 1.7931L2.29313 9.49997C2.19987 9.59249 2.12593 9.70263 2.0756 9.82398C2.02528 9.94533 1.99959 10.0755 2.00001 10.2068V13C2.00001 13.2652 2.10536 13.5195 2.2929 13.7071C2.48043 13.8946 2.73479 14 3.00001 14H5.79313C5.9245 14.0004 6.05464 13.9747 6.17599 13.9244C6.29735 13.8741 6.40748 13.8001 6.50001 13.7068L11.7294 8.4781L11.9469 9.34685L9.64688 11.6462C9.55306 11.74 9.50032 11.8671 9.50026 11.9998C9.5002 12.1324 9.55283 12.2596 9.64657 12.3534C9.74031 12.4472 9.86747 12.5 10.0001 12.5C10.1327 12.5001 10.2599 12.4475 10.3538 12.3537L12.8538 9.85372C12.9149 9.79269 12.9592 9.71685 12.9823 9.6336C13.0054 9.55036 13.0066 9.46254 12.9856 9.37872L12.5544 7.6531L14.2075 5.99997C14.3004 5.90711 14.3741 5.79686 14.4243 5.67552C14.4746 5.55418 14.5005 5.42412 14.5005 5.29278C14.5005 5.16144 14.4746 5.03139 14.4243 4.91005C14.3741 4.78871 14.3004 4.67846 14.2075 4.5856ZM12 6.7931L9.20751 3.99997L10.7075 2.49997L13.5 5.2931L12 6.7931Z" fill="black"/>
</g>
<defs>
<clipPath id="clip0_5_521">
<rect width="16" height="16" fill="white"/>
</clipPath>
</defs>
</svg>
