<svg width="16" height="16" viewBox="0 0 16 16" fill="none" xmlns="http://www.w3.org/2000/svg">
<g clip-path="url(#clip0_5_774)">
<path d="M13.8957 7.74312C13.8919 7.735 13.8882 7.72688 13.8838 7.71938L12 4.36938V2C12 1.73478 11.8947 1.48043 11.7071 1.29289C11.5196 1.10536 11.2652 1 11 1H5.00003C4.73481 1 4.48046 1.10536 4.29292 1.29289C4.10538 1.48043 4.00003 1.73478 4.00003 2V4.36875L2.11628 7.71938C2.1119 7.72688 2.10815 7.735 2.10378 7.74312C2.02217 7.90741 1.9875 8.09105 2.0036 8.27378C2.0197 8.45652 2.08594 8.63126 2.19503 8.77875L2.2019 8.7875L7.05253 15.0881C7.08434 15.1291 7.12813 15.1592 7.17781 15.1742C7.22749 15.1892 7.28061 15.1884 7.32979 15.1718C7.37898 15.1552 7.42179 15.1238 7.45229 15.0818C7.4828 15.0398 7.49948 14.9894 7.50003 14.9375V9.66438C7.16642 9.54643 6.88525 9.31434 6.70621 9.00914C6.52717 8.70393 6.46179 8.34526 6.52163 7.99651C6.58147 7.64776 6.76266 7.33139 7.0332 7.10332C7.30373 6.87525 7.64618 6.75016 8.00003 6.75016C8.35387 6.75016 8.69632 6.87525 8.96686 7.10332C9.23739 7.33139 9.41859 7.64776 9.47843 7.99651C9.53826 8.34526 9.47288 8.70393 9.29384 9.00914C9.1148 9.31434 8.83363 9.54643 8.50003 9.66438V14.9375C8.50019 14.9896 8.51659 15.0403 8.54695 15.0825C8.57731 15.1248 8.62011 15.1566 8.66938 15.1734C8.71866 15.1902 8.77194 15.1911 8.8218 15.1762C8.87166 15.1613 8.91561 15.1311 8.94753 15.09L13.7975 8.78938L13.8044 8.78063C13.914 8.633 13.9805 8.45791 13.9966 8.27477C14.0127 8.09163 13.9778 7.90761 13.8957 7.74312ZM11 4H5.00003V2H11V4Z" fill="black"/>
</g>
<defs>
<clipPath id="clip0_5_774">
<rect width="16" height="16" fill="white"/>
</clipPath>
</defs>
</svg>
