<svg width="16" height="16" viewBox="0 0 16 16" fill="none" xmlns="http://www.w3.org/2000/svg">
<g clip-path="url(#clip0_5_520)">
<path d="M12.5962 3.40371C11.3772 2.18471 9.72389 1.49988 7.99996 1.49988C6.27603 1.49988 4.62271 2.18471 3.40371 3.40371C2.18471 4.62271 1.49988 6.27603 1.49988 7.99996C1.49988 9.72389 2.18471 11.3772 3.40371 12.5962C4.62271 13.8152 6.27603 14.5 7.99996 14.5C9.72389 14.5 11.3772 13.8152 12.5962 12.5962C13.8152 11.3772 14.5 9.72389 14.5 7.99996C14.5 6.27603 13.8152 4.62271 12.5962 3.40371ZM7.99996 10.6793C7.75402 10.3991 7.43448 10.1933 7.07756 10.0854C6.72063 9.97744 6.34061 9.97167 5.98058 10.0687L6.93746 7.99996H9.06246L10.0168 10.0687C9.65716 9.97217 9.27765 9.97819 8.92123 10.0861C8.5648 10.194 8.24568 10.3995 7.99996 10.6793ZM10.5 12.8981C9.87604 13.2157 9.19722 13.4113 8.49996 13.4743V12C8.49996 11.7347 8.60531 11.4804 8.79285 11.2929C8.98039 11.1053 9.23474 11 9.49996 11C9.76517 11 10.0195 11.1053 10.2071 11.2929C10.3946 11.4804 10.5 11.7347 10.5 12V12.8981ZM11.8887 11.8893C11.7637 12.0143 11.6337 12.1312 11.5 12.2418V11C11.5 10.9276 11.4843 10.8561 11.4537 10.7906L8.45371 4.29058C8.41363 4.20399 8.34961 4.13067 8.2692 4.07929C8.1888 4.02791 8.09538 4.00061 7.99996 4.00061C7.90454 4.00061 7.81111 4.02791 7.73071 4.07929C7.65031 4.13067 7.58629 4.20399 7.54621 4.29058L4.54621 10.7906C4.51566 10.8561 4.49987 10.9276 4.49996 11V12.2418C4.36621 12.1312 4.23621 12.0143 4.11121 11.8893C3.34192 11.1202 2.818 10.1402 2.60571 9.07326C2.39341 8.00633 2.50227 6.90042 2.91853 5.89537C3.33478 4.89032 4.03973 4.03128 4.94422 3.42689C5.84871 2.8225 6.91212 2.49991 7.99996 2.49991C9.08779 2.49991 10.1512 2.8225 11.0557 3.42689C11.9602 4.03128 12.6651 4.89032 13.0814 5.89537C13.4976 6.90042 13.6065 8.00633 13.3942 9.07326C13.1819 10.1402 12.658 11.1202 11.8887 11.8893Z" fill="black"/>
</g>
<defs>
<clipPath id="clip0_5_520">
<rect width="16" height="16" fill="white"/>
</clipPath>
</defs>
</svg>
