<svg width="16" height="16" viewBox="0 0 16 16" fill="none" xmlns="http://www.w3.org/2000/svg">
<g clip-path="url(#clip0_5_768)">
<path d="M3.37 2.16372C3.3261 2.11423 3.2728 2.07394 3.2132 2.04519C3.15361 2.01644 3.0889 1.99981 3.02283 1.99626C2.95676 1.9927 2.89064 2.0023 2.82831 2.02448C2.76598 2.04667 2.70866 2.08101 2.6597 2.12551C2.61073 2.17001 2.57109 2.22378 2.54306 2.28372C2.51503 2.34365 2.49917 2.40855 2.49641 2.47466C2.49365 2.54077 2.50403 2.60677 2.52697 2.66883C2.5499 2.7309 2.58492 2.78779 2.63 2.83622L5.6425 6.14872L2.2925 9.49997C2.19944 9.59261 2.12567 9.70278 2.07546 9.82411C2.02525 9.94545 1.99961 10.0755 2 10.2068V13C2 13.2652 2.10536 13.5195 2.2929 13.7071C2.48043 13.8946 2.73479 14 3 14H5.79313C5.9245 14.0004 6.05464 13.9747 6.17599 13.9244C6.29734 13.8741 6.40748 13.8001 6.5 13.7068L9.65 10.5575L12.6306 13.8362C12.6745 13.8857 12.7278 13.926 12.7874 13.9548C12.847 13.9835 12.9117 14.0001 12.9778 14.0037C13.0439 14.0072 13.11 13.9976 13.1723 13.9755C13.2347 13.9533 13.292 13.9189 13.3409 13.8744C13.3899 13.8299 13.4295 13.7762 13.4576 13.7162C13.4856 13.6563 13.5015 13.5914 13.5042 13.5253C13.507 13.4592 13.4966 13.3932 13.4737 13.3311C13.4507 13.269 13.4157 13.2121 13.3706 13.1637L3.37 2.16372ZM6.31625 6.89122L7.3125 7.98372L4.25 11.0431L3.20688 9.99997L6.31625 6.89122ZM3 13V11.2068L4.79313 13H3ZM6 12.7931L4.9575 11.75L7.98313 8.72435L8.97625 9.81685L6 12.7931ZM14.2075 5.99997L11.4375 8.77122C11.3435 8.86512 11.2161 8.91785 11.0832 8.91779C10.9504 8.91773 10.823 8.86489 10.7291 8.77091C10.6352 8.67692 10.5824 8.54948 10.5825 8.41662C10.5826 8.28377 10.6354 8.15637 10.7294 8.06247L11.6469 7.14497L10.6038 6.10372L9.76938 6.93747C9.67485 7.02728 9.54897 7.07661 9.41859 7.07494C9.28821 7.07327 9.16364 7.02074 9.07144 6.92853C8.97924 6.83633 8.9267 6.71176 8.92503 6.58138C8.92337 6.451 8.97269 6.32513 9.0625 6.2306L9.89688 5.39622L8.85375 4.35372L8.10375 5.10372C8.05734 5.15018 8.00223 5.18703 7.94157 5.21219C7.88091 5.23735 7.81589 5.25031 7.75023 5.25034C7.68456 5.25037 7.61953 5.23746 7.55885 5.21236C7.49816 5.18726 7.44302 5.15045 7.39657 5.10403C7.35011 5.05762 7.31325 5.00251 7.2881 4.94185C7.26294 4.88119 7.24998 4.81617 7.24995 4.7505C7.24992 4.68484 7.26282 4.6198 7.28793 4.55912C7.31303 4.49844 7.34984 4.4433 7.39625 4.39685L10 1.7931C10.0929 1.70021 10.2031 1.62653 10.3245 1.57626C10.4458 1.526 10.5759 1.50012 10.7072 1.50012C10.8385 1.50012 10.9686 1.526 11.0899 1.57626C11.2113 1.62653 11.3215 1.70021 11.4144 1.7931L14.2075 4.5856C14.3004 4.67846 14.3741 4.78871 14.4243 4.91005C14.4746 5.03139 14.5005 5.16144 14.5005 5.29278C14.5005 5.42412 14.4746 5.55418 14.4243 5.67552C14.3741 5.79686 14.3004 5.90711 14.2075 5.99997Z" fill="black"/>
</g>
<defs>
<clipPath id="clip0_5_768">
<rect width="16" height="16" fill="white"/>
</clipPath>
</defs>
</svg>
