<svg width="16" height="16" viewBox="0 0 16 16" fill="none" xmlns="http://www.w3.org/2000/svg">
<g clip-path="url(#clip0_5_772)">
<path d="M14 3.00003V13C14 13.2652 13.8946 13.5196 13.7071 13.7071C13.5196 13.8947 13.2652 14 13 14H10C9.73478 14 9.48043 13.8947 9.29289 13.7071C9.10536 13.5196 9 13.2652 9 13V11.25C9 11.1837 9.02634 11.1201 9.07322 11.0732C9.12011 11.0264 9.1837 11 9.25 11H11.5C11.5685 11.0002 11.6364 10.9862 11.6993 10.9591C11.7622 10.9319 11.8189 10.8921 11.8658 10.8421C11.9127 10.7921 11.9488 10.733 11.9719 10.6684C11.995 10.6039 12.0045 10.5353 12 10.4669C11.9888 10.3384 11.9295 10.2188 11.8338 10.1323C11.7382 10.0457 11.6134 9.99844 11.4844 10H9.25C9.1837 10 9.12011 9.97369 9.07322 9.9268C9.02634 9.87992 9 9.81633 9 9.75003V8.75003C9 8.68372 9.02634 8.62013 9.07322 8.57325C9.12011 8.52637 9.1837 8.50003 9.25 8.50003H11.5C11.5685 8.50018 11.6364 8.48623 11.6993 8.45906C11.7622 8.43189 11.8189 8.39207 11.8658 8.34207C11.9127 8.29207 11.9488 8.23297 11.9719 8.16843C11.995 8.10389 12.0045 8.0353 12 7.9669C11.9888 7.83838 11.9295 7.71885 11.8338 7.63226C11.7382 7.54567 11.6134 7.49844 11.4844 7.50003H9.25C9.1837 7.50003 9.12011 7.47369 9.07322 7.4268C9.02634 7.37992 9 7.31633 9 7.25003V6.25003C9 6.18372 9.02634 6.12013 9.07322 6.07325C9.12011 6.02637 9.1837 6.00003 9.25 6.00003H11.5C11.5685 6.00018 11.6364 5.98623 11.6993 5.95906C11.7622 5.93189 11.8189 5.89207 11.8658 5.84207C11.9127 5.79207 11.9488 5.73297 11.9719 5.66843C11.995 5.60389 12.0045 5.5353 12 5.4669C11.9888 5.33817 11.9293 5.21845 11.8334 5.13183C11.7375 5.04521 11.6123 4.99812 11.4831 5.00003H9.25C9.1837 5.00003 9.12011 4.97369 9.07322 4.9268C9.02634 4.87992 9 4.81633 9 4.75003V3.00003C9 2.73481 9.10536 2.48046 9.29289 2.29292C9.48043 2.10538 9.73478 2.00003 10 2.00003H13C13.2652 2.00003 13.5196 2.10538 13.7071 2.29292C13.8946 2.48046 14 2.73481 14 3.00003ZM6.85375 3.64628C6.90017 3.69275 6.93697 3.7479 6.96207 3.8086C6.98716 3.8693 7.00005 3.93435 7 4.00003V13C7 13.2652 6.89464 13.5196 6.70711 13.7071C6.51957 13.8947 6.26522 14 6 14H3C2.73478 14 2.48043 13.8947 2.29289 13.7071C2.10536 13.5196 2 13.2652 2 13V4.00003C1.99995 3.93435 2.01284 3.8693 2.03793 3.8086C2.06303 3.7479 2.09983 3.69275 2.14625 3.64628L4.14625 1.64628C4.19269 1.59979 4.24783 1.56291 4.30853 1.53775C4.36923 1.51258 4.43429 1.49963 4.5 1.49963C4.56571 1.49963 4.63077 1.51258 4.69147 1.53775C4.75217 1.56291 4.80731 1.59979 4.85375 1.64628L6.85375 3.64628ZM3 5.00003V11.5H4V5.00003H3ZM5 5.00003V11.5H6V5.00003H5ZM3.20688 4.00003H5.79313L4.5 2.7069L3.20688 4.00003Z" fill="black"/>
</g>
<defs>
<clipPath id="clip0_5_772">
<rect width="16" height="16" fill="white"/>
</clipPath>
</defs>
</svg>
