<svg width="16" height="16" viewBox="0 0 16 16" fill="none" xmlns="http://www.w3.org/2000/svg">
<g clip-path="url(#clip0_5_770)">
<path d="M14.2075 4.5856L11.4144 1.7931C11.3215 1.70021 11.2113 1.62653 11.0899 1.57626C10.9686 1.526 10.8385 1.50012 10.7072 1.50012C10.5759 1.50012 10.4458 1.526 10.3245 1.57626C10.2031 1.62653 10.0929 1.70021 10 1.7931L7.2275 4.5656C7.18198 4.61096 7.15568 4.6721 7.15405 4.73634C7.15242 4.80059 7.17559 4.86299 7.21875 4.9106L10.8894 8.9481C10.9122 8.97311 10.9398 8.99325 10.9706 9.00727C11.0014 9.02129 11.0347 9.02891 11.0686 9.02967C11.1024 9.03043 11.1361 9.02431 11.1675 9.01169C11.1989 8.99906 11.2274 8.98019 11.2513 8.95622L14.2075 5.99997C14.3004 5.90711 14.3741 5.79686 14.4243 5.67552C14.4746 5.55418 14.5005 5.42412 14.5005 5.29278C14.5005 5.16144 14.4746 5.03139 14.4243 4.91005C14.3741 4.78871 14.3004 4.67846 14.2075 4.5856ZM12 6.7931L9.20751 3.99997L10.7075 2.49997L13.5 5.2931L12 6.7931ZM13.37 13.1637C13.4151 13.2121 13.4501 13.269 13.473 13.3311C13.496 13.3932 13.5064 13.4592 13.5036 13.5253C13.5008 13.5914 13.485 13.6563 13.457 13.7162C13.4289 13.7762 13.3893 13.8299 13.3403 13.8744C13.2913 13.9189 13.234 13.9533 13.1717 13.9755C13.1094 13.9976 13.0432 14.0072 12.9772 14.0037C12.9111 14.0001 12.8464 13.9835 12.7868 13.9548C12.7272 13.926 12.6739 13.8857 12.63 13.8362L9.65 10.5575L6.5 13.7068C6.40748 13.8001 6.29734 13.8741 6.17599 13.9244C6.05464 13.9747 5.9245 14.0004 5.79313 14H3C2.73479 14 2.48043 13.8946 2.2929 13.7071C2.10536 13.5195 2 13.2652 2 13V10.2068C1.99961 10.0755 2.02525 9.94545 2.07546 9.82411C2.12567 9.70278 2.19944 9.59261 2.2925 9.49997L5.6425 6.14997L2.6425 2.84872C2.55809 2.75844 2.50923 2.64064 2.50498 2.51712C2.50073 2.3936 2.54137 2.27271 2.61938 2.17685C2.66536 2.12281 2.72232 2.07918 2.78646 2.04886C2.85061 2.01853 2.92047 2.0022 2.99142 2.00096C3.06236 1.99972 3.13275 2.01359 3.19792 2.04166C3.26309 2.06972 3.32153 2.11133 3.36938 2.16372L13.37 13.1637Z" fill="black"/>
</g>
<defs>
<clipPath id="clip0_5_770">
<rect width="16" height="16" fill="white"/>
</clipPath>
</defs>
</svg>
