<svg width="16" height="16" viewBox="0 0 16 16" fill="none" xmlns="http://www.w3.org/2000/svg">
<g clip-path="url(#clip0_5_1505)">
<path d="M14.2075 4.5856L11.4144 1.7931C11.3215 1.70021 11.2113 1.62653 11.0899 1.57626C10.9686 1.526 10.8385 1.50012 10.7072 1.50012C10.5759 1.50012 10.4458 1.526 10.3245 1.57626C10.2031 1.62653 10.0929 1.70021 10 1.7931L2.29313 9.49997C2.19987 9.59249 2.12593 9.70263 2.0756 9.82398C2.02528 9.94533 1.99959 10.0755 2.00001 10.2068V13C2.00001 13.2652 2.10536 13.5195 2.2929 13.7071C2.48043 13.8946 2.73479 14 3.00001 14H13.5C13.6326 14 13.7598 13.9473 13.8536 13.8535C13.9473 13.7598 14 13.6326 14 13.5C14 13.3674 13.9473 13.2402 13.8536 13.1464C13.7598 13.0526 13.6326 13 13.5 13H7.20751L14.2075 5.99997C14.3004 5.90711 14.3741 5.79686 14.4243 5.67552C14.4746 5.55418 14.5005 5.42412 14.5005 5.29278C14.5005 5.16144 14.4746 5.03139 14.4243 4.91005C14.3741 4.78871 14.3004 4.67846 14.2075 4.5856ZM4.9575 11.75L10.6038 6.10372L11.6469 7.14622L6.00001 12.7931L4.9575 11.75ZM9.89501 5.39622L4.25001 11.0431L3.20688 9.99997L8.85376 4.35372L9.89501 5.39622ZM3.00001 11.2068L4.79313 13H3.00001V11.2068Z" fill="black"/>
</g>
<defs>
<clipPath id="clip0_5_1505">
<rect width="16" height="16" fill="white"/>
</clipPath>
</defs>
</svg>
