<svg width="16" height="16" viewBox="0 0 16 16" fill="none" xmlns="http://www.w3.org/2000/svg">
<g clip-path="url(#clip0_5_515)">
<path d="M3.76125 8.09504C3.74904 8.13251 3.72815 8.16656 3.70027 8.19442C3.6724 8.22227 3.63834 8.24315 3.60086 8.25533C3.56339 8.26752 3.52356 8.27068 3.48464 8.26454C3.44571 8.25841 3.40878 8.24316 3.37687 8.22004L1.41625 6.81254C1.24219 6.68951 1.11268 6.5134 1.0471 6.31059C0.981526 6.10778 0.98342 5.88918 1.0525 5.68754C1.12233 5.48526 1.25398 5.31006 1.42883 5.18668C1.60368 5.06331 1.81289 4.99802 2.02687 5.00004H4.42125C4.46076 4.99997 4.49973 5.00927 4.53495 5.02717C4.57017 5.04507 4.60065 5.07106 4.62389 5.10302C4.64713 5.13498 4.66246 5.17199 4.66862 5.21101C4.67479 5.25004 4.67162 5.28998 4.65937 5.32754L3.76125 8.09504ZM3.32375 12.6875C3.25615 12.8882 3.25504 13.1052 3.32056 13.3065C3.38609 13.5078 3.51476 13.6827 3.6875 13.805C3.85711 13.931 4.06278 13.999 4.27406 13.999C4.48534 13.999 4.69101 13.931 4.86062 13.805L6.86375 12.3638C6.89601 12.3406 6.92229 12.3101 6.94042 12.2748C6.95855 12.2395 6.96801 12.2004 6.96801 12.1607C6.96801 12.121 6.95855 12.0818 6.94042 12.0465C6.92229 12.0112 6.89601 11.9807 6.86375 11.9575L4.46125 10.2325C4.42935 10.2096 4.39247 10.1944 4.35362 10.1883C4.31477 10.1823 4.27504 10.1855 4.23765 10.1976C4.20026 10.2098 4.16627 10.2307 4.13845 10.2584C4.11062 10.2862 4.08974 10.3202 4.0775 10.3575L3.32375 12.6875ZM8.95187 1.20379C8.88957 1.00021 8.76366 0.82196 8.5926 0.695204C8.42155 0.568449 8.21437 0.499863 8.00146 0.499513C7.78856 0.499163 7.58116 0.567069 7.40969 0.693262C7.23822 0.819455 7.11172 0.99729 7.04875 1.20067L6.25 3.67254C6.23783 3.70986 6.23462 3.74951 6.24062 3.7883C6.24662 3.82709 6.26168 3.86392 6.28456 3.8958C6.30744 3.92769 6.33751 3.95375 6.37233 3.97186C6.40715 3.98996 6.44575 3.99962 6.485 4.00004H9.515C9.55444 4.00008 9.59333 3.99078 9.62849 3.97292C9.66365 3.95505 9.69408 3.92912 9.7173 3.89724C9.74053 3.86537 9.75588 3.82845 9.7621 3.7895C9.76833 3.75056 9.76525 3.71069 9.75312 3.67317L8.95187 1.20379ZM10 5.00004H6C5.9472 5.00012 5.89579 5.01692 5.85312 5.04802C5.81046 5.07912 5.77873 5.12293 5.7625 5.17317L4.5625 8.86067C4.54618 8.91105 4.54628 8.96532 4.56279 9.01564C4.57931 9.06597 4.61137 9.10974 4.65437 9.14067L7.8525 11.4419C7.89508 11.4726 7.94625 11.4892 7.99875 11.4892C8.05125 11.4892 8.10242 11.4726 8.145 11.4419L11.3431 9.14067C11.3861 9.10974 11.4182 9.06597 11.4347 9.01564C11.4512 8.96532 11.4513 8.91105 11.435 8.86067L10.2381 5.17317C10.2219 5.12283 10.19 5.07894 10.1472 5.04783C10.1045 5.01672 10.0529 4.99999 10 5.00004ZM14.9456 5.68754C14.8758 5.48526 14.7441 5.31006 14.5693 5.18668C14.3944 5.06331 14.1852 4.99802 13.9712 5.00004H11.5787C11.5392 4.99997 11.5003 5.00927 11.465 5.02717C11.4298 5.04507 11.3993 5.07106 11.3761 5.10302C11.3529 5.13498 11.3375 5.17199 11.3314 5.21101C11.3252 5.25004 11.3284 5.28998 11.3406 5.32754L12.2387 8.09567C12.251 8.13303 12.2719 8.16699 12.2997 8.19477C12.3275 8.22255 12.3615 8.24338 12.3989 8.25556C12.4363 8.26774 12.476 8.27092 12.5149 8.26486C12.5537 8.2588 12.5906 8.24366 12.6225 8.22067L14.5856 6.80817C14.7587 6.68534 14.8874 6.50988 14.9526 6.30793C15.0178 6.10599 15.016 5.88838 14.9475 5.68754H14.9456ZM11.5362 10.2344L9.13625 11.9613C9.10399 11.9844 9.07771 12.0149 9.05958 12.0503C9.04144 12.0856 9.03199 12.1247 9.03199 12.1644C9.03199 12.2041 9.04144 12.2433 9.05958 12.2786C9.07771 12.3139 9.10399 12.3444 9.13625 12.3675L11.1362 13.805C11.307 13.9303 11.5131 13.9981 11.7249 13.9988C11.9367 13.9994 12.1432 13.9327 12.3146 13.8085C12.4861 13.6842 12.6137 13.5087 12.679 13.3072C12.7443 13.1058 12.744 12.8888 12.6781 12.6875L11.9225 10.3582C11.9104 10.3206 11.8895 10.2865 11.8617 10.2586C11.8338 10.2307 11.7998 10.2097 11.7623 10.1975C11.7248 10.1852 11.685 10.182 11.646 10.1881C11.607 10.1942 11.5701 10.2094 11.5381 10.2325L11.5362 10.2344Z" fill="black"/>
</g>
<defs>
<clipPath id="clip0_5_515">
<rect width="16" height="16" fill="white"/>
</clipPath>
</defs>
</svg>
