<svg width="16" height="16" viewBox="0 0 16 16" fill="none" xmlns="http://www.w3.org/2000/svg">
<g clip-path="url(#clip0_5_516)">
<path d="M14.4537 6.57432L12.4537 13.2956L12.45 13.3062C12.3858 13.5077 12.2591 13.6835 12.0883 13.8083C11.9175 13.933 11.7115 14.0001 11.5 13.9999H4.49997C4.28849 14.0001 4.08244 13.933 3.91165 13.8083C3.74086 13.6835 3.61418 13.5077 3.54997 13.3062L3.54622 13.2956L1.54622 6.57432C1.48395 6.3764 1.48479 6.164 1.54862 5.96657C1.61245 5.76914 1.73611 5.59646 1.90247 5.47245L7.39747 1.20307L7.40872 1.19432C7.57994 1.06795 7.78716 0.999756 7.99997 0.999756C8.21278 0.999756 8.42 1.06795 8.59122 1.19432L8.60247 1.20307L14.0975 5.47245C14.2638 5.59646 14.3875 5.76914 14.4513 5.96657C14.5152 6.164 14.516 6.3764 14.4537 6.57432Z" fill="black"/>
</g>
<defs>
<clipPath id="clip0_5_516">
<rect width="16" height="16" fill="white"/>
</clipPath>
</defs>
</svg>
