<svg width="16" height="16" viewBox="0 0 16 16" fill="none" xmlns="http://www.w3.org/2000/svg">
<g clip-path="url(#clip0_5_514)">
<path d="M10.4544 2.52625C10.3436 1.95632 10.0383 1.44259 9.59056 1.07296C9.14284 0.703333 8.58057 0.500793 7.99999 0.5C7.86738 0.5 7.7402 0.552678 7.64643 0.646447C7.55267 0.740215 7.49999 0.867392 7.49999 1C7.49999 1.13261 7.55267 1.25979 7.64643 1.35355C7.7402 1.44732 7.86738 1.5 7.99999 1.5C8.31761 1.5 8.62704 1.60083 8.88369 1.78795C9.14035 1.97508 9.33097 2.23884 9.42811 2.54125C8.47667 2.67974 7.6068 3.15588 6.97739 3.88271C6.34799 4.60954 6.00107 5.53853 5.99999 6.5C5.99999 9.42188 4.39061 11.375 1.21686 12.3125C0.999772 12.3758 0.810537 12.5108 0.680038 12.6954C0.549539 12.8801 0.485481 13.1036 0.498317 13.3293C0.511154 13.5551 0.600127 13.7698 0.750717 13.9385C0.901307 14.1072 1.10462 14.2199 1.32749 14.2581C2.26688 14.4205 3.21854 14.5014 4.17186 14.5C6.72061 14.5 9.55686 13.9281 11.5175 12.2837C13.165 10.9025 14 8.95625 14 6.5C13.9989 5.51815 13.6372 4.57089 12.9835 3.83827C12.3298 3.10565 11.4298 2.63873 10.4544 2.52625ZM12 5.9375L10.2237 5.05188C10.1543 5.01711 10.0777 4.99902 9.99999 4.99902C9.92231 4.99902 9.8457 5.01711 9.77624 5.05188L7.99999 5.9375L7.16436 5.52C7.36811 4.93009 7.75077 4.41841 8.25904 4.05623C8.76731 3.69405 9.37588 3.4994 9.99999 3.4994C10.6241 3.4994 11.2327 3.69405 11.7409 4.05623C12.2492 4.41841 12.6319 4.93009 12.8356 5.52L12 5.9375Z" fill="black"/>
</g>
<defs>
<clipPath id="clip0_5_514">
<rect width="16" height="16" fill="white"/>
</clipPath>
</defs>
</svg>
