<svg width="16" height="16" viewBox="0 0 16 16" fill="none" xmlns="http://www.w3.org/2000/svg">
<g clip-path="url(#clip0_5_1130)">
<path d="M11 10.75C11 10.8983 10.956 11.0433 10.8736 11.1667C10.7912 11.29 10.6741 11.3861 10.537 11.4429C10.4 11.4997 10.2492 11.5145 10.1037 11.4856C9.9582 11.4566 9.82456 11.3852 9.71967 11.2803C9.61478 11.1754 9.54335 11.0418 9.51441 10.8963C9.48547 10.7508 9.50033 10.6 9.55709 10.463C9.61386 10.3259 9.70999 10.2088 9.83332 10.1264C9.95666 10.044 10.1017 10 10.25 10C10.4489 10 10.6397 10.079 10.7803 10.2197C10.921 10.3603 11 10.5511 11 10.75ZM5.75 6C5.89834 6 6.04334 5.95601 6.16668 5.8736C6.29001 5.79119 6.38614 5.67406 6.44291 5.53701C6.49968 5.39997 6.51453 5.24917 6.48559 5.10368C6.45665 4.9582 6.38522 4.82456 6.28033 4.71967C6.17544 4.61478 6.0418 4.54335 5.89632 4.51441C5.75083 4.48547 5.60003 4.50032 5.46299 4.55709C5.32594 4.61386 5.20881 4.70999 5.1264 4.83332C5.04399 4.95666 5 5.10166 5 5.25C5 5.44891 5.07902 5.63968 5.21967 5.78033C5.36032 5.92098 5.55109 6 5.75 6ZM14 3V13C14 13.2652 13.8946 13.5196 13.7071 13.7071C13.5196 13.8946 13.2652 14 13 14H3C2.73478 14 2.48043 13.8946 2.29289 13.7071C2.10536 13.5196 2 13.2652 2 13V3C2 2.73478 2.10536 2.48043 2.29289 2.29289C2.48043 2.10536 2.73478 2 3 2H13C13.2652 2 13.5196 2.10536 13.7071 2.29289C13.8946 2.48043 14 2.73478 14 3ZM4 5.25C4 5.59612 4.10264 5.93446 4.29493 6.22225C4.48722 6.51003 4.76053 6.73434 5.0803 6.86679C5.40007 6.99924 5.75194 7.0339 6.09141 6.96637C6.43087 6.89885 6.74269 6.73218 6.98744 6.48744C7.23218 6.24269 7.39885 5.93088 7.46637 5.59141C7.5339 5.25194 7.49924 4.90007 7.36679 4.5803C7.23434 4.26053 7.01003 3.98722 6.72225 3.79493C6.43446 3.60264 6.09612 3.5 5.75 3.5C5.28587 3.5 4.84075 3.68437 4.51256 4.01256C4.18437 4.34075 4 4.78587 4 5.25ZM12 10.75C12 10.4039 11.8974 10.0655 11.7051 9.77775C11.5128 9.48997 11.2395 9.26566 10.9197 9.13321C10.5999 9.00076 10.2481 8.9661 9.90859 9.03363C9.56913 9.10115 9.2573 9.26782 9.01256 9.51256C8.76782 9.7573 8.60115 10.0691 8.53363 10.4086C8.4661 10.7481 8.50076 11.0999 8.63321 11.4197C8.76566 11.7395 8.98997 12.0128 9.27775 12.2051C9.56554 12.3974 9.90388 12.5 10.25 12.5C10.7141 12.5 11.1592 12.3156 11.4874 11.9874C11.8156 11.6592 12 11.2141 12 10.75ZM11.8538 4.14625C11.8073 4.09976 11.7522 4.06288 11.6915 4.03772C11.6308 4.01256 11.5657 3.99961 11.5 3.99961C11.4343 3.99961 11.3692 4.01256 11.3085 4.03772C11.2478 4.06288 11.1927 4.09976 11.1462 4.14625L4.14625 11.1462C4.05243 11.2401 3.99972 11.3673 3.99972 11.5C3.99972 11.6327 4.05243 11.7599 4.14625 11.8538C4.24007 11.9476 4.36732 12.0003 4.5 12.0003C4.63268 12.0003 4.75993 11.9476 4.85375 11.8538L11.8538 4.85375C11.9002 4.80731 11.9371 4.75217 11.9623 4.69147C11.9874 4.63077 12.0004 4.56571 12.0004 4.5C12.0004 4.43429 11.9874 4.36923 11.9623 4.30853C11.9371 4.24783 11.9002 4.19269 11.8538 4.14625Z" fill="black"/>
</g>
<defs>
<clipPath id="clip0_5_1130">
<rect width="16" height="16" fill="white"/>
</clipPath>
</defs>
</svg>
