<svg width="16" height="16" viewBox="0 0 16 16" fill="none" xmlns="http://www.w3.org/2000/svg">
<g clip-path="url(#clip0_5_513)">
<path d="M6.25005 2.25C6.25005 1.90388 6.35269 1.56554 6.54498 1.27775C6.73727 0.989967 7.01059 0.765665 7.33036 0.633212C7.65013 0.500758 8.00199 0.466102 8.34146 0.533627C8.68093 0.601151 8.99275 0.767822 9.23749 1.01256C9.48223 1.25731 9.6489 1.56913 9.71643 1.90859C9.78395 2.24806 9.74929 2.59993 9.61684 2.9197C9.48439 3.23947 9.26009 3.51278 8.9723 3.70507C8.68451 3.89737 8.34617 4 8.00005 4C7.53592 4 7.0908 3.81563 6.76262 3.48744C6.43443 3.15925 6.25005 2.71413 6.25005 2.25ZM14.2251 5.78563C14.1795 5.56161 14.0572 5.36052 13.8791 5.21709C13.7011 5.07365 13.4786 4.99687 13.2501 5H2.75005C2.52207 4.99999 2.30092 5.07788 2.12327 5.22077C1.94561 5.36366 1.82212 5.56296 1.77325 5.78565C1.72438 6.00833 1.75307 6.24103 1.85456 6.44518C1.95606 6.64933 2.12426 6.81267 2.3313 6.90813H2.33505L5.70318 8.39125L4.33318 13.5975C4.22863 13.8367 4.22174 14.1073 4.314 14.3515C4.40626 14.5956 4.59034 14.7941 4.82693 14.9044C4.95916 14.9672 5.10367 14.9998 5.25005 15C5.43856 15.0003 5.62331 14.9473 5.78299 14.8471C5.94267 14.7469 6.07079 14.6036 6.15255 14.4338L8.00005 11.25L9.8488 14.4375C9.96379 14.6714 10.1656 14.8512 10.4111 14.9385C10.6567 15.0259 10.9267 15.0139 11.1636 14.9051C11.4004 14.7963 11.5855 14.5994 11.6792 14.3562C11.773 14.113 11.7682 13.8428 11.6657 13.6031L10.2957 8.39688L13.6707 6.91188C13.8801 6.81851 14.0502 6.65473 14.1515 6.449C14.2528 6.24326 14.2788 6.00855 14.2251 5.78563Z" fill="black"/>
</g>
<defs>
<clipPath id="clip0_5_513">
<rect width="16" height="16" fill="white"/>
</clipPath>
</defs>
</svg>
