<svg width="16" height="16" viewBox="0 0 16 16" fill="none" xmlns="http://www.w3.org/2000/svg">
<g clip-path="url(#clip0_5_506)">
<path d="M15.5 8.49998C15.5 8.63259 15.4473 8.75977 15.3536 8.85354C15.2598 8.9473 15.1326 8.99998 15 8.99998H14V13C14 13.2652 13.8946 13.5196 13.7071 13.7071C13.5196 13.8946 13.2652 14 13 14C12.9398 13.9998 12.8798 13.9944 12.8206 13.9837L2.82063 12.1656C2.59032 12.1236 2.38205 12.0022 2.2321 11.8224C2.08214 11.6426 2.00001 11.416 2 11.1819V8.99998H1C0.867392 8.99998 0.740215 8.9473 0.646447 8.85354C0.552678 8.75977 0.5 8.63259 0.5 8.49998C0.5 8.36737 0.552678 8.2402 0.646447 8.14643C0.740215 8.05266 0.867392 7.99998 1 7.99998H15C15.1326 7.99998 15.2598 8.05266 15.3536 8.14643C15.4473 8.2402 15.5 8.36737 15.5 8.49998ZM2.25 6.99998H13.75C13.8163 6.99998 13.8799 6.97364 13.9268 6.92676C13.9737 6.87987 14 6.81629 14 6.74998V3.02623C14.0036 2.77191 13.913 2.52524 13.7456 2.33373C13.6316 2.20614 13.4867 2.10995 13.3249 2.05436C13.163 1.99877 12.9896 1.98564 12.8212 2.01623L2.82125 3.83436C2.59083 3.87622 2.38242 3.99762 2.23234 4.1774C2.08226 4.35717 2.00003 4.58392 2 4.81811V6.74998C2 6.81629 2.02634 6.87987 2.07322 6.92676C2.12011 6.97364 2.1837 6.99998 2.25 6.99998Z" fill="black"/>
</g>
<defs>
<clipPath id="clip0_5_506">
<rect width="16" height="16" fill="white"/>
</clipPath>
</defs>
</svg>
