<svg width="16" height="16" viewBox="0 0 16 16" fill="none" xmlns="http://www.w3.org/2000/svg">
<g clip-path="url(#clip0_5_1367)">
<path d="M8.99989 3.75C8.99989 3.40388 9.10253 3.06554 9.29482 2.77775C9.48711 2.48997 9.76043 2.26566 10.0802 2.13321C10.4 2.00076 10.7518 1.9661 11.0913 2.03363C11.4308 2.10115 11.7426 2.26782 11.9873 2.51256C12.2321 2.75731 12.3987 3.06913 12.4663 3.40859C12.5338 3.74806 12.4991 4.09993 12.3667 4.4197C12.2342 4.73947 12.0099 5.01278 11.7221 5.20507C11.4344 5.39737 11.096 5.5 10.7499 5.5C10.2858 5.5 9.84064 5.31563 9.51246 4.98744C9.18427 4.65925 8.99989 4.21413 8.99989 3.75ZM2.35989 5.48L9.29739 7.5025L9.64802 7.85313C9.7413 7.94664 9.86781 7.99944 9.99989 8H12.4999C12.6325 8 12.7597 7.94732 12.8534 7.85355C12.9472 7.75979 12.9999 7.63261 12.9999 7.5C12.9999 7.36739 12.9472 7.24022 12.8534 7.14645C12.7597 7.05268 12.6325 7 12.4999 7H10.2068L9.91177 6.705L8.35552 5.14875C8.30908 5.10226 8.25394 5.06538 8.19324 5.04022C8.13254 5.01506 8.06748 5.00211 8.00177 5.00211C7.93606 5.00211 7.871 5.01506 7.8103 5.04022C7.7496 5.06538 7.69446 5.10226 7.64802 5.14875L6.99989 5.79188L2.63989 4.52C2.51259 4.48287 2.37575 4.49783 2.25948 4.56159C2.1432 4.62536 2.05702 4.7327 2.01989 4.86C1.98276 4.9873 1.99772 5.12414 2.06149 5.24042C2.12525 5.35669 2.23259 5.44287 2.35989 5.48ZM14.9161 12.0719C14.8797 12.0172 14.8329 11.9702 14.7783 11.9336C14.7237 11.8971 14.6625 11.8716 14.598 11.8587C14.5336 11.8458 14.4673 11.8458 14.4028 11.8585C14.3383 11.8713 14.277 11.8966 14.2224 11.9331C13.8137 12.2063 13.35 12.3865 12.864 12.461C12.3781 12.5355 11.8817 12.5026 11.4099 12.3644L7.48552 11.2219L9.35427 9.35313C9.41585 9.29156 9.46028 9.21497 9.48317 9.13095C9.50606 9.04693 9.5066 8.95839 9.48476 8.8741C9.46291 8.7898 9.41943 8.71267 9.35861 8.65035C9.29779 8.58802 9.22175 8.54266 9.13802 8.51875L5.63802 7.51875C5.57486 7.50069 5.50877 7.49525 5.44351 7.50274C5.37825 7.51023 5.3151 7.5305 5.25767 7.56239C5.14169 7.62679 5.05605 7.73464 5.01958 7.86219C5.00152 7.92535 4.99608 7.99144 5.00357 8.0567C5.01106 8.12196 5.03133 8.18511 5.06322 8.24254C5.12762 8.35851 5.23547 8.44416 5.36302 8.48063L8.04552 9.25L6.38927 10.9056L1.63927 9.5225C1.57623 9.50412 1.5102 9.49833 1.44492 9.50546C1.37965 9.5126 1.31642 9.53252 1.25885 9.56409C1.14258 9.62786 1.0564 9.7352 1.01927 9.8625C0.982138 9.9898 0.9971 10.1266 1.06086 10.2429C1.12462 10.3592 1.23196 10.4454 1.35927 10.4825L11.1286 13.3275C11.7406 13.5066 12.3845 13.5494 13.0148 13.4527C13.6451 13.3561 14.2466 13.1224 14.7768 12.7681C14.8319 12.7317 14.8792 12.6848 14.916 12.6301C14.9529 12.5753 14.9786 12.5138 14.9915 12.449C15.0045 12.3843 15.0045 12.3177 14.9915 12.2529C14.9786 12.1882 14.953 12.1267 14.9161 12.0719Z" fill="black"/>
</g>
<defs>
<clipPath id="clip0_5_1367">
<rect width="16" height="16" fill="white"/>
</clipPath>
</defs>
</svg>
