<svg width="16" height="16" viewBox="0 0 16 16" fill="none" xmlns="http://www.w3.org/2000/svg">
<g clip-path="url(#clip0_5_511)">
<path d="M5.99314 3C5.99314 2.60444 6.11044 2.21776 6.3302 1.88886C6.54996 1.55996 6.86232 1.30362 7.22777 1.15224C7.59322 1.00087 7.99536 0.96126 8.38332 1.03843C8.77128 1.1156 9.12765 1.30608 9.40735 1.58579C9.68706 1.86549 9.87754 2.22186 9.95471 2.60982C10.0319 2.99778 9.99227 3.39992 9.8409 3.76537C9.68952 4.13082 9.43318 4.44318 9.10428 4.66294C8.77538 4.8827 8.3887 5 7.99314 5C7.4627 5 6.954 4.78929 6.57892 4.41421C6.20385 4.03914 5.99314 3.53043 5.99314 3ZM14.2575 7.57125C14.15 7.50688 11.5969 6 8.00001 6C4.40314 6 1.85001 7.50688 1.74251 7.57125C1.6288 7.63954 1.54688 7.75021 1.51476 7.87891C1.48264 8.00761 1.50297 8.14379 1.57126 8.2575C1.63956 8.37121 1.75022 8.45314 1.87892 8.48525C2.00762 8.51737 2.1438 8.49704 2.25751 8.42875C2.28001 8.415 4.43939 7.14125 7.50001 7.01125V9.3125L3.62501 13.6681C3.58143 13.7174 3.54797 13.7747 3.52655 13.8369C3.50513 13.8991 3.49617 13.9649 3.50018 14.0305C3.50418 14.0961 3.52107 14.1603 3.54989 14.2195C3.57871 14.2786 3.61889 14.3314 3.66814 14.375C3.71738 14.4186 3.77473 14.452 3.83691 14.4735C3.89908 14.4949 3.96487 14.5038 4.03051 14.4998C4.09615 14.4958 4.16035 14.4789 4.21946 14.4501C4.27857 14.4213 4.33143 14.3811 4.37501 14.3319L8.00001 10.25L11.625 14.3294C11.713 14.4288 11.837 14.4893 11.9695 14.4973C12.1021 14.5054 12.2324 14.4605 12.3319 14.3725C12.4313 14.2845 12.4918 14.1606 12.4998 14.028C12.5079 13.8954 12.463 13.7651 12.375 13.6656L8.50001 9.3125V7.01188C11.5481 7.14188 13.7206 8.41563 13.7425 8.42875C13.7988 8.46257 13.8612 8.48496 13.9262 8.49466C13.9911 8.50435 14.0574 8.50116 14.1211 8.48525C14.1848 8.46935 14.2448 8.44105 14.2976 8.40198C14.3504 8.3629 14.3949 8.31381 14.4288 8.2575C14.4626 8.2012 14.485 8.13878 14.4947 8.07382C14.5044 8.00887 14.5012 7.94263 14.4853 7.87891C14.4694 7.81519 14.4411 7.75522 14.402 7.70243C14.3629 7.64964 14.3138 7.60507 14.2575 7.57125Z" fill="black"/>
</g>
<defs>
<clipPath id="clip0_5_511">
<rect width="16" height="16" fill="white"/>
</clipPath>
</defs>
</svg>
