<svg width="16" height="16" viewBox="0 0 16 16" fill="none" xmlns="http://www.w3.org/2000/svg">
<g clip-path="url(#clip0_5_765)">
<path d="M8.5 3.25C8.5 2.90388 8.60264 2.56554 8.79493 2.27775C8.98722 1.98997 9.26053 1.76566 9.58031 1.63321C9.90008 1.50076 10.2519 1.4661 10.5914 1.53363C10.9309 1.60115 11.2427 1.76782 11.4874 2.01256C11.7322 2.25731 11.8989 2.56913 11.9664 2.90859C12.0339 3.24806 11.9992 3.59993 11.8668 3.9197C11.7343 4.23947 11.51 4.51278 11.2222 4.70507C10.9345 4.89737 10.5961 5 10.25 5C9.78587 5 9.34075 4.81563 9.01256 4.48744C8.68437 4.15925 8.5 3.71413 8.5 3.25ZM15 11C15 11.4945 14.8534 11.9778 14.5787 12.3889C14.304 12.8 13.9135 13.1205 13.4567 13.3097C12.9999 13.4989 12.4972 13.5484 12.0123 13.452C11.5273 13.3555 11.0819 13.1174 10.7322 12.7678C10.3826 12.4181 10.1445 11.9727 10.048 11.4877C9.95157 11.0028 10.0011 10.5001 10.1903 10.0433C10.3795 9.58648 10.7 9.19603 11.1111 8.92133C11.5222 8.64662 12.0055 8.5 12.5 8.5C13.163 8.5 13.7989 8.76339 14.2678 9.23223C14.7366 9.70107 15 10.337 15 11ZM14 11C14 10.7033 13.912 10.4133 13.7472 10.1666C13.5824 9.91997 13.3481 9.72771 13.074 9.61418C12.7999 9.50065 12.4983 9.47094 12.2074 9.52882C11.9164 9.5867 11.6491 9.72956 11.4393 9.93934C11.2296 10.1491 11.0867 10.4164 11.0288 10.7074C10.9709 10.9983 11.0007 11.2999 11.1142 11.574C11.2277 11.8481 11.42 12.0824 11.6666 12.2472C11.9133 12.412 12.2033 12.5 12.5 12.5C12.8978 12.5 13.2794 12.342 13.5607 12.0607C13.842 11.7794 14 11.3978 14 11ZM12.5 7C12.5 6.86739 12.4473 6.74022 12.3536 6.64645C12.2598 6.55268 12.1326 6.5 12 6.5H9.70688L7.85375 4.64625C7.80731 4.59976 7.75217 4.56288 7.69147 4.53772C7.63077 4.51256 7.56571 4.49961 7.5 4.49961C7.43429 4.49961 7.36923 4.51256 7.30853 4.53772C7.24783 4.56288 7.19269 4.59976 7.14625 4.64625L5.14625 6.64625C5.09976 6.69269 5.06288 6.74783 5.03772 6.80853C5.01256 6.86923 4.99961 6.93429 4.99961 7C4.99961 7.06571 5.01256 7.13077 5.03772 7.19147C5.06288 7.25217 5.09976 7.30731 5.14625 7.35375L7.5 9.70688V12.5C7.5 12.6326 7.55268 12.7598 7.64645 12.8536C7.74022 12.9473 7.86739 13 8 13C8.13261 13 8.25979 12.9473 8.35355 12.8536C8.44732 12.7598 8.5 12.6326 8.5 12.5V9.5C8.50005 9.43432 8.48716 9.36927 8.46207 9.30858C8.43698 9.24788 8.40017 9.19272 8.35375 9.14625L6.20688 7L7.5 5.70688L9.14625 7.35375C9.19272 7.40017 9.24788 7.43698 9.30858 7.46207C9.36927 7.48716 9.43432 7.50005 9.5 7.5H12C12.1326 7.5 12.2598 7.44732 12.3536 7.35355C12.4473 7.25979 12.5 7.13261 12.5 7ZM6 11C6 11.4945 5.85338 11.9778 5.57867 12.3889C5.30397 12.8 4.91352 13.1205 4.45671 13.3097C3.99989 13.4989 3.49723 13.5484 3.01228 13.452C2.52732 13.3555 2.08187 13.1174 1.73223 12.7678C1.3826 12.4181 1.1445 11.9727 1.04804 11.4877C0.951575 11.0028 1.00108 10.5001 1.1903 10.0433C1.37952 9.58648 1.69995 9.19603 2.11108 8.92133C2.5222 8.64662 3.00555 8.5 3.5 8.5C3.82831 8.5 4.1534 8.56467 4.45671 8.6903C4.76002 8.81594 5.03562 9.00009 5.26777 9.23223C5.49991 9.46438 5.68406 9.73998 5.8097 10.0433C5.93534 10.3466 6 10.6717 6 11ZM5 11C5 10.7033 4.91203 10.4133 4.74721 10.1666C4.58238 9.91997 4.34812 9.72771 4.07403 9.61418C3.79994 9.50065 3.49834 9.47094 3.20737 9.52882C2.91639 9.5867 2.64912 9.72956 2.43934 9.93934C2.22956 10.1491 2.0867 10.4164 2.02882 10.7074C1.97095 10.9983 2.00065 11.2999 2.11418 11.574C2.22771 11.8481 2.41997 12.0824 2.66665 12.2472C2.91332 12.412 3.20333 12.5 3.5 12.5C3.89783 12.5 4.27936 12.342 4.56066 12.0607C4.84197 11.7794 5 11.3978 5 11Z" fill="black"/>
</g>
<defs>
<clipPath id="clip0_5_765">
<rect width="16" height="16" fill="white"/>
</clipPath>
</defs>
</svg>
