<svg width="16" height="16" viewBox="0 0 16 16" fill="none" xmlns="http://www.w3.org/2000/svg">
<g clip-path="url(#clip0_5_508)">
<path d="M9.00006 4.5C9.00006 4.10444 9.11736 3.71776 9.33712 3.38886C9.55689 3.05996 9.86925 2.80362 10.2347 2.65224C10.6001 2.50087 11.0023 2.46126 11.3902 2.53843C11.7782 2.6156 12.1346 2.80608 12.4143 3.08579C12.694 3.36549 12.8845 3.72186 12.9616 4.10982C13.0388 4.49778 12.9992 4.89992 12.8478 5.26537C12.6964 5.63082 12.4401 5.94318 12.1112 6.16294C11.7823 6.3827 11.3956 6.5 11.0001 6.5C10.4696 6.5 9.96092 6.28929 9.58585 5.91421C9.21078 5.53914 9.00006 5.03043 9.00006 4.5ZM13.1807 11.5119C11.1913 13.1613 9.82319 12.4188 8.23881 11.5581C6.57569 10.6556 4.69131 9.6325 2.18069 11.7138C2.12959 11.7555 2.08726 11.807 2.05615 11.8652C2.02503 11.9233 2.00574 11.9871 1.99939 12.0528C1.99304 12.1185 1.99975 12.1848 2.01914 12.2478C2.03854 12.3109 2.07022 12.3695 2.11237 12.4203C2.15452 12.4711 2.20631 12.513 2.26474 12.5437C2.32317 12.5743 2.38709 12.5931 2.45282 12.599C2.51855 12.6048 2.58479 12.5976 2.64771 12.5777C2.71063 12.5578 2.769 12.5257 2.81944 12.4831C4.80881 10.8338 6.17694 11.5769 7.76131 12.4369C8.70569 12.9494 9.72069 13.4994 10.8819 13.4994C11.7657 13.4994 12.7344 13.18 13.8194 12.2806C13.9215 12.1959 13.9858 12.0741 13.9981 11.942C14.0104 11.8099 13.9698 11.6784 13.8851 11.5763C13.8004 11.4741 13.6786 11.4099 13.5465 11.3976C13.4144 11.3853 13.2828 11.4259 13.1807 11.5106V11.5119ZM2.18069 9.21438C2.12959 9.25613 2.08726 9.30759 2.05615 9.36578C2.02503 9.42397 2.00574 9.48775 1.99939 9.55343C1.99304 9.61911 1.99975 9.6854 2.01914 9.74847C2.03854 9.81155 2.07022 9.87016 2.11237 9.92093C2.15452 9.9717 2.20631 10.0136 2.26474 10.0443C2.32317 10.075 2.38709 10.0937 2.45282 10.0996C2.51855 10.1054 2.58479 10.0982 2.64771 10.0783C2.71063 10.0584 2.769 10.0263 2.81944 9.98375C4.80881 8.335 6.17694 9.0775 7.76131 9.9375C8.70569 10.45 9.72069 11 10.8819 11C11.7657 11 12.7344 10.6806 13.8194 9.78125C13.8705 9.7395 13.9129 9.68804 13.944 9.62985C13.9751 9.57166 13.9944 9.50788 14.0007 9.4422C14.0071 9.37652 14.0004 9.31023 13.981 9.24715C13.9616 9.18408 13.9299 9.12546 13.8878 9.07469C13.8456 9.02392 13.7938 8.982 13.7354 8.95133C13.677 8.92067 13.613 8.90188 13.5473 8.89604C13.4816 8.8902 13.4153 8.89743 13.3524 8.91731C13.2895 8.93719 13.2311 8.96933 13.1807 9.01188C12.8192 9.3223 12.413 9.57641 11.9757 9.76563L8.61069 6.40188C8.00838 5.79688 7.2921 5.31729 6.50329 4.99084C5.71447 4.66439 4.86876 4.49756 4.01506 4.5H2.50006C2.36746 4.5 2.24028 4.55268 2.14651 4.64645C2.05274 4.74022 2.00006 4.86739 2.00006 5C2.00006 5.13261 2.05274 5.25979 2.14651 5.35355C2.24028 5.44732 2.36746 5.5 2.50006 5.5H4.01506C4.92895 5.49825 5.82877 5.72514 6.63256 6.16L4.78069 8.01063C3.98881 8.085 3.12944 8.4275 2.18069 9.21375V9.21438Z" fill="black"/>
</g>
<defs>
<clipPath id="clip0_5_508">
<rect width="16" height="16" fill="white"/>
</clipPath>
</defs>
</svg>
