<svg width="16" height="16" viewBox="0 0 16 16" fill="none" xmlns="http://www.w3.org/2000/svg">
<g clip-path="url(#clip0_5_510)">
<path d="M7.50007 3C7.50007 2.60444 7.61737 2.21776 7.83713 1.88886C8.05689 1.55996 8.36925 1.30362 8.7347 1.15224C9.10016 1.00087 9.50229 0.96126 9.89025 1.03843C10.2782 1.1156 10.6346 1.30608 10.9143 1.58579C11.194 1.86549 11.3845 2.22186 11.4616 2.60982C11.5388 2.99778 11.4992 3.39992 11.3478 3.76537C11.1965 4.13082 10.9401 4.44318 10.6112 4.66294C10.2823 4.8827 9.89563 5 9.50007 5C8.96964 5 8.46093 4.78929 8.08586 4.41421C7.71078 4.03914 7.50007 3.53043 7.50007 3ZM12.0001 8.5C10.5394 8.5 10.1926 7.965 9.71257 7.225C9.48444 6.8725 9.2257 6.475 8.82757 6.12813C8.67503 5.99476 8.50719 5.88 8.32757 5.78625C8.26675 5.75492 8.20015 5.73639 8.13189 5.73183C8.06363 5.72727 7.99516 5.73677 7.93072 5.75973C7.86627 5.7827 7.80723 5.81865 7.75723 5.86535C7.70724 5.91205 7.66736 5.96852 7.64007 6.03125L4.04132 14.3006C3.98858 14.4222 3.98628 14.5598 4.03491 14.6831C4.08355 14.8064 4.17915 14.9053 4.30069 14.9581C4.36348 14.9859 4.43141 15.0002 4.50007 15C4.59751 15 4.69284 14.9716 4.77434 14.9182C4.85584 14.8648 4.91996 14.7887 4.95882 14.6994L7.05819 9.87L9.00007 11.2575V14.5C9.00007 14.6326 9.05275 14.7598 9.14652 14.8536C9.24028 14.9473 9.36746 15 9.50007 15C9.63268 15 9.75986 14.9473 9.85362 14.8536C9.94739 14.7598 10.0001 14.6326 10.0001 14.5V11C10.0001 10.9204 9.98107 10.842 9.94466 10.7712C9.90824 10.7004 9.85546 10.6394 9.79069 10.5931L7.46569 8.9325L8.30319 7.00688C8.52632 7.23313 8.69569 7.49438 8.87382 7.76875C9.35319 8.50875 9.89069 9.33813 11.4988 9.47875V14.5C11.4988 14.6326 11.5515 14.7598 11.6453 14.8536C11.739 14.9473 11.8662 15 11.9988 15C12.1314 15 12.2586 14.9473 12.3524 14.8536C12.4461 14.7598 12.4988 14.6326 12.4988 14.5V9C12.4988 8.86761 12.4463 8.74062 12.3528 8.64689C12.2593 8.55316 12.1325 8.50033 12.0001 8.5ZM4.50007 9.5C4.598 9.50008 4.6938 9.47139 4.77558 9.4175C4.85736 9.36362 4.92151 9.2869 4.96007 9.19688L6.46007 5.69688C6.51223 5.57504 6.51387 5.43747 6.46465 5.31442C6.41543 5.19136 6.31937 5.09289 6.19757 5.04063L4.44757 4.29063C4.32573 4.23847 4.18817 4.23682 4.06511 4.28604C3.94206 4.33527 3.84358 4.43133 3.79132 4.55313L2.29132 8.05313C2.23916 8.17497 2.23752 8.31253 2.28674 8.43558C2.33596 8.55864 2.43202 8.65712 2.55382 8.70938L4.30382 9.45938C4.36582 9.48602 4.43258 9.49984 4.50007 9.5Z" fill="black"/>
</g>
<defs>
<clipPath id="clip0_5_510">
<rect width="16" height="16" fill="white"/>
</clipPath>
</defs>
</svg>
