<svg width="16" height="16" viewBox="0 0 16 16" fill="none" xmlns="http://www.w3.org/2000/svg">
<g clip-path="url(#clip0_5_512)">
<path d="M6.25005 2.25C6.25005 1.90388 6.35269 1.56554 6.54498 1.27775C6.73727 0.989967 7.01059 0.765665 7.33036 0.633212C7.65013 0.500758 8.00199 0.466102 8.34146 0.533627C8.68093 0.601151 8.99275 0.767822 9.23749 1.01256C9.48223 1.25731 9.6489 1.56913 9.71643 1.90859C9.78395 2.24806 9.74929 2.59993 9.61684 2.9197C9.48439 3.23947 9.26009 3.51278 8.9723 3.70507C8.68451 3.89737 8.34617 4 8.00005 4C7.53592 4 7.0908 3.81563 6.76262 3.48744C6.43443 3.15925 6.25005 2.71413 6.25005 2.25ZM13.4638 8.79875L10.6357 5.5925C10.4715 5.40629 10.2695 5.25715 10.0432 5.15499C9.8169 5.05284 9.57146 5 9.32318 5H6.67693C6.42864 5 6.1832 5.05284 5.95691 5.15499C5.73062 5.25715 5.52865 5.40629 5.36443 5.5925L2.5363 8.79875C2.35266 8.98665 2.25035 9.23927 2.25147 9.502C2.2526 9.76473 2.35708 10.0165 2.54233 10.2028C2.72758 10.3891 2.97871 10.495 3.24143 10.4977C3.50415 10.5003 3.75735 10.3994 3.9463 10.2169L5.56255 8.91875L4.3313 13.5988C4.22418 13.8392 4.21621 14.1122 4.30912 14.3586C4.40202 14.6049 4.58831 14.8046 4.82756 14.9145C5.06681 15.0243 5.33972 15.0354 5.58707 14.9452C5.83443 14.8551 6.03627 14.6711 6.1488 14.4331L8.00005 11.25L9.8488 14.4375C9.96134 14.6755 10.1632 14.8595 10.4105 14.9496C10.6579 15.0397 10.9308 15.0287 11.17 14.9188C11.4093 14.809 11.5956 14.6093 11.6885 14.3629C11.7814 14.1166 11.7734 13.8436 11.6663 13.6031L10.4376 8.91875L12.0563 10.2169C12.2453 10.3994 12.4985 10.5003 12.7612 10.4977C13.0239 10.495 13.275 10.3891 13.4603 10.2028C13.6455 10.0165 13.75 9.76473 13.7511 9.502C13.7523 9.23927 13.6499 8.98665 13.4663 8.79875H13.4638Z" fill="black"/>
</g>
<defs>
<clipPath id="clip0_5_512">
<rect width="16" height="16" fill="white"/>
</clipPath>
</defs>
</svg>
