<svg width="16" height="16" viewBox="0 0 16 16" fill="none" xmlns="http://www.w3.org/2000/svg">
<g clip-path="url(#clip0_5_763)">
<path d="M7.50004 3.5C7.50004 3.10444 7.61734 2.71776 7.8371 2.38886C8.05686 2.05996 8.36922 1.80362 8.73467 1.65224C9.10012 1.50087 9.50226 1.46126 9.89022 1.53843C10.2782 1.6156 10.6345 1.80608 10.9143 2.08579C11.194 2.36549 11.3844 2.72186 11.4616 3.10982C11.5388 3.49778 11.4992 3.89992 11.3478 4.26537C11.1964 4.63082 10.9401 4.94318 10.6112 5.16294C10.2823 5.3827 9.8956 5.5 9.50004 5.5C8.9696 5.5 8.4609 5.28929 8.08582 4.91421C7.71075 4.53914 7.50004 4.03043 7.50004 3.5ZM13.955 8.13C13.928 8.07002 13.8894 8.01597 13.8415 7.97092C13.7936 7.92588 13.7372 7.89074 13.6757 7.86752C13.6141 7.8443 13.5486 7.83344 13.4829 7.83559C13.4171 7.83773 13.3524 7.85282 13.2925 7.88C13.2769 7.8875 11.6232 8.55 8.78129 6.61813C5.51316 4.39688 3.28129 6.1325 3.18691 6.2075C3.13336 6.24773 3.08844 6.2983 3.05482 6.35623C3.02119 6.41415 2.99954 6.47823 2.99116 6.54468C2.98278 6.61113 2.98783 6.67859 3.00602 6.74304C3.02421 6.8075 3.05516 6.86765 3.09704 6.91992C3.13892 6.97218 3.19087 7.0155 3.24982 7.0473C3.30876 7.0791 3.37349 7.09874 3.44017 7.10504C3.50685 7.11135 3.57411 7.10419 3.63797 7.084C3.70183 7.06381 3.76098 7.03099 3.81191 6.9875C3.82816 6.97438 5.38191 5.76875 7.81629 7.19188C7.55066 8.02625 7.01879 9.18063 6.23816 10.1294C5.07816 11.5344 3.66879 12.1644 2.05066 12.0044C1.91863 11.991 1.78671 12.0307 1.68392 12.1146C1.58113 12.1985 1.51588 12.3198 1.50254 12.4519C1.48919 12.5839 1.52884 12.7158 1.61277 12.8186C1.69669 12.9214 1.81801 12.9867 1.95004 13C2.144 13.0197 2.33883 13.0295 2.53379 13.0294C4.24504 13.0294 5.78379 12.2556 7.01066 10.7681C7.04629 10.725 7.08191 10.6806 7.11629 10.6369C8.33191 10.9556 10.5 11.8938 10.5 14.5C10.5 14.6326 10.5527 14.7598 10.6465 14.8536C10.7403 14.9473 10.8674 15 11 15C11.1326 15 11.2598 14.9473 11.3536 14.8536C11.4474 14.7598 11.5 14.6326 11.5 14.5C11.5 12.9594 10.87 11.6656 9.67816 10.7588C9.08633 10.3213 8.42469 9.98716 7.72129 9.77063C8.11395 9.13316 8.43784 8.45583 8.68754 7.75C10.3213 8.75563 11.615 9 12.4807 9C13.2419 9 13.6719 8.8125 13.71 8.795C13.7699 8.76754 13.8237 8.72853 13.8685 8.6802C13.9132 8.63188 13.9479 8.57519 13.9707 8.5134C13.9935 8.45161 14.0038 8.38594 14.0011 8.32014C13.9984 8.25434 13.9828 8.18973 13.955 8.13Z" fill="black"/>
</g>
<defs>
<clipPath id="clip0_5_763">
<rect width="16" height="16" fill="white"/>
</clipPath>
</defs>
</svg>
