<svg width="16" height="16" viewBox="0 0 16 16" fill="none" xmlns="http://www.w3.org/2000/svg">
<g clip-path="url(#clip0_5_761)">
<path d="M5.99991 3.5C5.99991 3.10444 6.11721 2.71776 6.33697 2.38886C6.55674 2.05996 6.86909 1.80362 7.23454 1.65224C7.6 1.50087 8.00213 1.46126 8.39009 1.53843C8.77805 1.6156 9.13442 1.80608 9.41412 2.08579C9.69383 2.36549 9.88431 2.72186 9.96148 3.10982C10.0387 3.49778 9.99905 3.89992 9.84767 4.26537C9.6963 4.63082 9.43995 4.94318 9.11105 5.16294C8.78215 5.3827 8.39547 5.5 7.99991 5.5C7.46948 5.5 6.96077 5.28929 6.5857 4.91421C6.21063 4.53914 5.99991 4.03043 5.99991 3.5ZM13.8124 6.21C13.7187 6.135 11.4862 4.3975 8.21804 6.62063C5.37491 8.5525 3.72304 7.88938 3.70741 7.8825C3.64751 7.85421 3.58258 7.83811 3.5164 7.83513C3.45022 7.83214 3.38411 7.84234 3.32191 7.86513C3.25971 7.88792 3.20265 7.92284 3.15406 7.96786C3.10547 8.01289 3.06631 8.06712 3.03885 8.12741C3.0114 8.1877 2.9962 8.25285 2.99414 8.31906C2.99208 8.38527 3.00319 8.45124 3.02684 8.51312C3.05049 8.575 3.0862 8.63156 3.1319 8.67952C3.1776 8.72749 3.23237 8.76589 3.29304 8.7925C3.33116 8.81 3.76116 8.99688 4.52241 8.99688C5.41054 8.99688 6.74991 8.74 8.44554 7.66625C8.30304 9.50438 7.64991 12.8831 3.85616 14.0213C3.79191 14.0389 3.73185 14.0693 3.67949 14.1105C3.62714 14.1517 3.58355 14.203 3.55129 14.2613C3.51904 14.3196 3.49876 14.3838 3.49166 14.45C3.48455 14.5163 3.49077 14.5833 3.50993 14.6471C3.52909 14.7109 3.56082 14.7703 3.60325 14.8217C3.64567 14.8731 3.69794 14.9154 3.75698 14.9463C3.81603 14.9772 3.88065 14.996 3.94705 15.0016C4.01345 15.0072 4.0803 14.9994 4.14366 14.9788C6.32054 14.3256 7.85929 12.9575 8.71866 10.9113C8.84085 10.6186 8.94725 10.3197 9.03741 10.0156L10.4174 11.1656L9.52554 13.8419C9.4836 13.9677 9.49336 14.105 9.55267 14.2236C9.61198 14.3422 9.71597 14.4324 9.84179 14.4744C9.9676 14.5163 10.1049 14.5066 10.2235 14.4472C10.3422 14.3879 10.4323 14.2839 10.4743 14.1581L11.4743 11.1581C11.5061 11.0627 11.5084 10.9598 11.4809 10.863C11.4534 10.7662 11.3972 10.68 11.3199 10.6156L9.29366 8.92813C9.40077 8.30125 9.46342 7.66759 9.48116 7.03188C11.7424 5.87125 13.1687 6.97875 13.1862 6.99125C13.2371 7.03474 13.2962 7.06756 13.3601 7.08775C13.424 7.10794 13.4912 7.1151 13.5579 7.10879C13.6246 7.10249 13.6893 7.08285 13.7483 7.05105C13.8072 7.01925 13.8592 6.97593 13.901 6.92367C13.9429 6.8714 13.9739 6.81125 13.9921 6.74679C14.0102 6.68234 14.0153 6.61488 14.0069 6.54843C13.9985 6.48198 13.9769 6.4179 13.9433 6.35998C13.9096 6.30205 13.8647 6.25148 13.8112 6.21125L13.8124 6.21ZM3.99991 7C4.19769 7 4.39103 6.94135 4.55548 6.83147C4.71993 6.72159 4.8481 6.56541 4.92379 6.38268C4.99948 6.19996 5.01928 5.99889 4.9807 5.80491C4.94211 5.61093 4.84687 5.43275 4.70702 5.29289C4.56717 5.15304 4.38898 5.0578 4.195 5.01922C4.00102 4.98063 3.79995 5.00043 3.61723 5.07612C3.4345 5.15181 3.27832 5.27998 3.16844 5.44443C3.05856 5.60888 2.99991 5.80222 2.99991 6C2.99991 6.26522 3.10527 6.51957 3.2928 6.70711C3.48034 6.89464 3.7347 7 3.99991 7Z" fill="black"/>
</g>
<defs>
<clipPath id="clip0_5_761">
<rect width="16" height="16" fill="white"/>
</clipPath>
</defs>
</svg>
