<svg width="16" height="16" viewBox="0 0 16 16" fill="none" xmlns="http://www.w3.org/2000/svg">
<g clip-path="url(#clip0_5_1380)">
<path d="M8 1.5C6.71442 1.5 5.45772 1.88122 4.3888 2.59545C3.31988 3.30968 2.48676 4.32484 1.99479 5.51256C1.50282 6.70028 1.37409 8.00721 1.6249 9.26809C1.8757 10.529 2.49477 11.6872 3.40381 12.5962C4.31285 13.5052 5.47104 14.1243 6.73192 14.3751C7.99279 14.6259 9.29973 14.4972 10.4874 14.0052C11.6752 13.5132 12.6903 12.6801 13.4046 11.6112C14.1188 10.5423 14.5 9.28558 14.5 8C14.4982 6.27665 13.8128 4.62441 12.5942 3.40582C11.3756 2.18722 9.72335 1.50182 8 1.5ZM8 4C8.19778 4 8.39112 4.05865 8.55557 4.16853C8.72002 4.27841 8.8482 4.43459 8.92388 4.61732C8.99957 4.80004 9.01937 5.00111 8.98079 5.19509C8.9422 5.38907 8.84696 5.56725 8.70711 5.70711C8.56726 5.84696 8.38907 5.9422 8.19509 5.98079C8.00111 6.01937 7.80005 5.99957 7.61732 5.92388C7.43459 5.84819 7.27841 5.72002 7.16853 5.55557C7.05865 5.39112 7 5.19778 7 5C7 4.73478 7.10536 4.48043 7.2929 4.29289C7.48043 4.10536 7.73479 4 8 4ZM11 7.5H8.5V8.34875L10.4163 11.2238C10.4899 11.3341 10.5166 11.4693 10.4906 11.5994C10.4645 11.7295 10.3879 11.8439 10.2775 11.9175C10.1671 11.9911 10.032 12.0178 9.90189 11.9918C9.77179 11.9658 9.65735 11.8891 9.58375 11.7788L8 9.40375L6.41625 11.7788C6.37981 11.8334 6.33296 11.8804 6.27837 11.9169C6.22379 11.9535 6.16253 11.9789 6.09811 11.9918C5.96801 12.0178 5.8329 11.9911 5.7225 11.9175C5.61211 11.8439 5.53547 11.7295 5.50945 11.5994C5.48343 11.4693 5.51016 11.3341 5.58375 11.2238L7.5 8.34875V7.5H5C4.86739 7.5 4.74022 7.44732 4.64645 7.35355C4.55268 7.25979 4.5 7.13261 4.5 7C4.5 6.86739 4.55268 6.74021 4.64645 6.64645C4.74022 6.55268 4.86739 6.5 5 6.5H11C11.1326 6.5 11.2598 6.55268 11.3536 6.64645C11.4473 6.74021 11.5 6.86739 11.5 7C11.5 7.13261 11.4473 7.25979 11.3536 7.35355C11.2598 7.44732 11.1326 7.5 11 7.5Z" fill="black"/>
</g>
<defs>
<clipPath id="clip0_5_1380">
<rect width="16" height="16" fill="white"/>
</clipPath>
</defs>
</svg>
