<svg width="16" height="16" viewBox="0 0 16 16" fill="none" xmlns="http://www.w3.org/2000/svg">
<g clip-path="url(#clip0_5_507)">
<path d="M7.4999 3C7.4999 2.60444 7.61719 2.21776 7.83696 1.88886C8.05672 1.55996 8.36908 1.30362 8.73453 1.15224C9.09998 1.00087 9.50211 0.96126 9.89008 1.03843C10.278 1.1156 10.6344 1.30608 10.9141 1.58579C11.1938 1.86549 11.3843 2.22186 11.4615 2.60982C11.5386 2.99778 11.499 3.39992 11.3477 3.76537C11.1963 4.13082 10.9399 4.44318 10.611 4.66294C10.2821 4.8827 9.89546 5 9.4999 5C8.96946 5 8.46076 4.78929 8.08568 4.41421C7.71061 4.03914 7.4999 3.53043 7.4999 3ZM12.9999 8.5C11.2099 8.5 10.3868 7.66875 9.51552 6.78938C9.2949 6.56625 9.06677 6.33563 8.82802 6.12813C6.51552 4.11938 2.81427 7.54875 2.65802 7.69563C2.56497 7.78723 2.51145 7.91159 2.50889 8.04213C2.50632 8.17268 2.55493 8.29905 2.64431 8.39423C2.7337 8.4894 2.85677 8.54584 2.98721 8.55148C3.11766 8.55711 3.24514 8.51149 3.3424 8.42438C3.92402 7.89892 4.56405 7.44198 5.2499 7.0625C6.11115 6.60125 6.83677 6.42313 7.41865 6.52625L4.04115 14.3006C3.98841 14.4222 3.9861 14.5598 4.03474 14.6831C4.08338 14.8064 4.17897 14.9053 4.30052 14.9581C4.36331 14.9859 4.43124 15.0002 4.4999 15C4.59734 15 4.69267 14.9716 4.77417 14.9182C4.85567 14.8648 4.91979 14.7887 4.95865 14.6994L7.05802 9.87L8.9999 11.2575V14.5C8.9999 14.6326 9.05257 14.7598 9.14634 14.8536C9.24011 14.9473 9.36729 15 9.4999 15C9.6325 15 9.75968 14.9473 9.85345 14.8536C9.94722 14.7598 9.9999 14.6326 9.9999 14.5V11C9.9999 10.9204 9.9809 10.842 9.94448 10.7712C9.90807 10.7004 9.85528 10.6394 9.79052 10.5931L7.46552 8.9325L8.3049 7C8.4699 7.1525 8.63365 7.31688 8.8049 7.49C9.69052 8.38688 10.793 9.5 12.9999 9.5C13.1325 9.5 13.2597 9.44732 13.3534 9.35355C13.4472 9.25979 13.4999 9.13261 13.4999 9C13.4999 8.86739 13.4472 8.74022 13.3534 8.64645C13.2597 8.55268 13.1325 8.5 12.9999 8.5Z" fill="black"/>
</g>
<defs>
<clipPath id="clip0_5_507">
<rect width="16" height="16" fill="white"/>
</clipPath>
</defs>
</svg>
