<svg width="16" height="16" viewBox="0 0 16 16" fill="none" xmlns="http://www.w3.org/2000/svg">
<g clip-path="url(#clip0_5_509)">
<path d="M8.5 3.25C8.5 2.90388 8.60264 2.56554 8.79493 2.27775C8.98722 1.98997 9.26053 1.76566 9.5803 1.63321C9.90007 1.50076 10.2519 1.4661 10.5914 1.53363C10.9309 1.60115 11.2427 1.76782 11.4874 2.01256C11.7322 2.25731 11.8989 2.56913 11.9664 2.90859C12.0339 3.24806 11.9992 3.59993 11.8668 3.9197C11.7343 4.23947 11.51 4.51278 11.2222 4.70507C10.9345 4.89737 10.5961 5 10.25 5C9.78587 5 9.34075 4.81563 9.01256 4.48744C8.68437 4.15925 8.5 3.71413 8.5 3.25ZM13.9794 7.64063C13.942 7.76784 13.8556 7.875 13.7392 7.93852C13.6228 8.00205 13.486 8.01674 13.3588 7.97938L8.41687 6.52563L7.93062 7.255L10.1388 7.89438C10.2143 7.91625 10.2837 7.95566 10.3412 8.00939C10.3986 8.06313 10.4426 8.12966 10.4696 8.2036C10.4965 8.27754 10.5056 8.35678 10.4961 8.43489C10.4866 8.513 10.4588 8.58777 10.415 8.65313L9.18062 10.4931L12.3612 11.415C12.6884 11.5106 12.976 11.7092 13.1812 11.9814C13.3864 12.2536 13.4982 12.5848 13.5 12.9256C13.4985 13.3429 13.332 13.7427 13.0368 14.0377C12.7416 14.3326 12.3417 14.4988 11.9244 14.5C11.7734 14.5001 11.6232 14.4791 11.4781 14.4375L1.63812 11.5844C1.31106 11.4887 1.02361 11.29 0.818553 11.0178C0.613491 10.7456 0.501768 10.4145 0.5 10.0738C0.500525 9.82893 0.558002 9.58759 0.667887 9.36882C0.777771 9.15004 0.937049 8.95983 1.13312 8.81323C1.3292 8.66663 1.55669 8.56766 1.79761 8.52414C2.03854 8.48062 2.28628 8.49376 2.52125 8.5625L5.31687 9.375L7.41187 6.2325L4.85875 5.4825C4.73153 5.44504 4.6244 5.35857 4.56093 5.24212C4.49746 5.12568 4.48285 4.98878 4.52031 4.86156C4.55777 4.73434 4.64424 4.62721 4.76069 4.56374C4.87714 4.50027 5.01403 4.48566 5.14125 4.52313L13.6412 7.02313C13.7676 7.06068 13.8741 7.14663 13.9374 7.26228C14.0007 7.37793 14.0158 7.51391 13.9794 7.64063ZM7.34875 8.125L6.32375 9.6625L8.1725 10.1988L9.20312 8.66188L7.34875 8.125Z" fill="black"/>
</g>
<defs>
<clipPath id="clip0_5_509">
<rect width="16" height="16" fill="white"/>
</clipPath>
</defs>
</svg>
