<svg width="16" height="16" viewBox="0 0 16 16" fill="none" xmlns="http://www.w3.org/2000/svg">
<g clip-path="url(#clip0_5_1363)">
<path d="M6 3C6 2.60444 6.1173 2.21776 6.33706 1.88886C6.55682 1.55996 6.86918 1.30362 7.23463 1.15224C7.60009 1.00087 8.00222 0.96126 8.39018 1.03843C8.77814 1.1156 9.13451 1.30608 9.41421 1.58579C9.69392 1.86549 9.8844 2.22186 9.96157 2.60982C10.0387 2.99778 9.99913 3.39992 9.84776 3.76537C9.69638 4.13082 9.44004 4.44318 9.11114 4.66294C8.78224 4.8827 8.39556 5 8 5C7.46957 5 6.96086 4.78929 6.58579 4.41421C6.21071 4.03914 6 3.53043 6 3ZM13.5 6H2.5C2.36739 6 2.24021 6.05268 2.14645 6.14645C2.05268 6.24022 2 6.36739 2 6.5C2 6.63261 2.05268 6.75979 2.14645 6.85355C2.24021 6.94732 2.36739 7 2.5 7H7.5V8.7775L2.66563 13.1281C2.56658 13.2168 2.50683 13.3412 2.4995 13.4739C2.49218 13.6067 2.53788 13.7369 2.62656 13.8359C2.71524 13.935 2.83964 13.9947 2.97238 14.0021C3.10512 14.0094 3.23533 13.9637 3.33437 13.875L8.09688 9.58875L11 10.83V13.5C11 13.6326 11.0527 13.7598 11.1464 13.8536C11.2402 13.9473 11.3674 14 11.5 14C11.6326 14 11.7598 13.9473 11.8536 13.8536C11.9473 13.7598 12 13.6326 12 13.5V10.5C12 10.4022 11.9712 10.3065 11.9173 10.2249C11.8635 10.1432 11.7868 10.0791 11.6969 10.0406L8.5 8.67V7H13.5C13.6326 7 13.7598 6.94732 13.8536 6.85355C13.9473 6.75979 14 6.63261 14 6.5C14 6.36739 13.9473 6.24022 13.8536 6.14645C13.7598 6.05268 13.6326 6 13.5 6Z" fill="black"/>
</g>
<defs>
<clipPath id="clip0_5_1363">
<rect width="16" height="16" fill="white"/>
</clipPath>
</defs>
</svg>
