<svg width="16" height="16" viewBox="0 0 16 16" fill="none" xmlns="http://www.w3.org/2000/svg">
<g clip-path="url(#clip0_5_1151)">
<path d="M8.50001 4.50003C8.50001 4.36743 8.55268 4.24025 8.64645 4.14648C8.74022 4.05271 8.8674 4.00003 9.00001 4.00003H12.2931L11.1463 2.85378C11.0998 2.80733 11.063 2.75218 11.0378 2.69148C11.0127 2.63079 10.9997 2.56573 10.9997 2.50003C10.9997 2.43434 11.0127 2.36928 11.0378 2.30859C11.063 2.24789 11.0998 2.19274 11.1463 2.14628C11.1927 2.09983 11.2479 2.06298 11.3086 2.03784C11.3693 2.0127 11.4343 1.99976 11.5 1.99976C11.5657 1.99976 11.6308 2.0127 11.6915 2.03784C11.7522 2.06298 11.8073 2.09983 11.8538 2.14628L13.8538 4.14628C13.9002 4.19272 13.9371 4.24786 13.9623 4.30856C13.9874 4.36926 14.0004 4.43433 14.0004 4.50003C14.0004 4.56574 13.9874 4.63081 13.9623 4.6915C13.9371 4.7522 13.9002 4.80735 13.8538 4.85378L11.8538 6.85378C11.7599 6.9476 11.6327 7.00031 11.5 7.00031C11.3673 7.00031 11.2401 6.9476 11.1463 6.85378C11.0524 6.75996 10.9997 6.63272 10.9997 6.50003C10.9997 6.36735 11.0524 6.2401 11.1463 6.14628L12.2931 5.00003H9.00001C8.8674 5.00003 8.74022 4.94736 8.64645 4.85359C8.55268 4.75982 8.50001 4.63264 8.50001 4.50003ZM13.3975 10.4038L10.4531 9.08441L10.4463 9.08066C10.2933 9.01517 10.1265 8.98888 9.96079 9.00415C9.79512 9.01943 9.63589 9.0758 9.49751 9.16816C9.48122 9.17891 9.46557 9.1906 9.45063 9.20316L7.92938 10.5C6.96563 10.0319 5.97063 9.04441 5.50251 8.09316L6.80126 6.54878C6.81376 6.53316 6.82563 6.51753 6.83688 6.50066C6.92715 6.36272 6.98192 6.20461 6.99631 6.04039C7.0107 5.87617 6.98428 5.71094 6.91938 5.55941V5.55191L5.59626 2.60253C5.51037 2.40469 5.36281 2.23992 5.17561 2.1328C4.98841 2.02568 4.77159 1.98196 4.55751 2.00816C3.71061 2.11933 2.93317 2.53508 2.37048 3.17771C1.8078 3.82034 1.49836 4.64587 1.50001 5.50003C1.50001 10.4625 5.53751 14.5 10.5 14.5C11.3542 14.5017 12.1797 14.1922 12.8223 13.6296C13.465 13.0669 13.8807 12.2894 13.9919 11.4425C14.0181 11.2284 13.9744 11.0116 13.8672 10.8244C13.7601 10.6372 13.5954 10.4897 13.3975 10.4038Z" fill="black"/>
</g>
<defs>
<clipPath id="clip0_5_1151">
<rect width="16" height="16" fill="white"/>
</clipPath>
</defs>
</svg>
