<svg width="16" height="16" viewBox="0 0 16 16" fill="none" xmlns="http://www.w3.org/2000/svg">
<g clip-path="url(#clip0_5_1314)">
<path d="M13.9925 11.4425C13.8811 12.2894 13.4651 13.0668 12.8224 13.6294C12.1797 14.1921 11.3542 14.5015 10.5 14.5C5.53751 14.5 1.50001 10.4625 1.50001 5.5C1.49847 4.6458 1.80794 3.82026 2.37059 3.17756C2.93324 2.53485 3.71061 2.11894 4.55751 2.0075C4.77166 1.98135 4.98854 2.02516 5.17575 2.13239C5.36296 2.23963 5.51047 2.40454 5.59626 2.6025L6.91626 5.54937C6.91601 5.55186 6.91601 5.55438 6.91626 5.55687C6.98194 5.7084 7.00906 5.87385 6.99521 6.03842C6.98136 6.20299 6.92696 6.36157 6.83688 6.5C6.82563 6.51687 6.81376 6.5325 6.80126 6.54812L5.50001 8.09062C5.96813 9.04187 6.96313 10.0281 7.92688 10.4975L9.44813 9.20312C9.46307 9.19056 9.47872 9.17888 9.49501 9.16812C9.63339 9.07577 9.79262 9.0194 9.95829 9.00412C10.124 8.98884 10.2908 9.01513 10.4438 9.08062L10.4513 9.08437L13.395 10.4037C13.5934 10.4891 13.7589 10.6365 13.8666 10.8237C13.9743 11.011 14.0185 11.228 13.9925 11.4425ZM9.00001 5.5H10.5V7C10.5 7.1326 10.5527 7.25978 10.6465 7.35355C10.7402 7.44732 10.8674 7.5 11 7.5C11.1326 7.5 11.2598 7.44732 11.3536 7.35355C11.4473 7.25978 11.5 7.1326 11.5 7V5.5H13C13.1326 5.5 13.2598 5.44732 13.3536 5.35355C13.4473 5.25978 13.5 5.1326 13.5 5C13.5 4.86739 13.4473 4.74021 13.3536 4.64644C13.2598 4.55267 13.1326 4.5 13 4.5H11.5V3C11.5 2.86739 11.4473 2.74021 11.3536 2.64644C11.2598 2.55267 11.1326 2.5 11 2.5C10.8674 2.5 10.7402 2.55267 10.6465 2.64644C10.5527 2.74021 10.5 2.86739 10.5 3V4.5H9.00001C8.8674 4.5 8.74022 4.55267 8.64645 4.64644C8.55268 4.74021 8.50001 4.86739 8.50001 5C8.50001 5.1326 8.55268 5.25978 8.64645 5.35355C8.74022 5.44732 8.8674 5.5 9.00001 5.5Z" fill="black"/>
</g>
<defs>
<clipPath id="clip0_5_1314">
<rect width="16" height="16" fill="white"/>
</clipPath>
</defs>
</svg>
