<svg width="16" height="16" viewBox="0 0 16 16" fill="none" xmlns="http://www.w3.org/2000/svg">
<g clip-path="url(#clip0_5_1156)">
<path d="M13.9925 11.4425C13.8811 12.2894 13.4651 13.0668 12.8224 13.6294C12.1797 14.1921 11.3542 14.5015 10.5 14.5C5.53751 14.5 1.50001 10.4625 1.50001 5.5C1.49847 4.6458 1.80794 3.82026 2.37059 3.17756C2.93324 2.53485 3.71061 2.11894 4.55751 2.0075C4.77166 1.98135 4.98854 2.02516 5.17575 2.13239C5.36296 2.23963 5.51047 2.40454 5.59626 2.6025L6.91626 5.54937V5.55687C6.98194 5.7084 7.00906 5.87385 6.99521 6.03842C6.98136 6.20299 6.92696 6.36157 6.83688 6.5C6.82563 6.51687 6.81376 6.5325 6.80126 6.54812L5.50001 8.09062C5.96813 9.04187 6.96313 10.0281 7.92688 10.4975L9.44813 9.20312C9.46307 9.19056 9.47872 9.17888 9.49501 9.16812C9.63339 9.07577 9.79262 9.0194 9.95829 9.00412C10.124 8.98884 10.2908 9.01513 10.4438 9.08062L10.4513 9.08437L13.395 10.4037C13.5934 10.4891 13.7589 10.6365 13.8666 10.8237C13.9743 11.011 14.0185 11.228 13.9925 11.4425ZM12.5 7C12.6326 7 12.7598 6.94732 12.8536 6.85355C12.9473 6.75978 13 6.6326 13 6.5V3C13 2.86739 12.9473 2.74021 12.8536 2.64644C12.7598 2.55267 12.6326 2.5 12.5 2.5C12.3674 2.5 12.2402 2.55267 12.1465 2.64644C12.0527 2.74021 12 2.86739 12 3V6.5C12 6.6326 12.0527 6.75978 12.1465 6.85355C12.2402 6.94732 12.3674 7 12.5 7ZM10 7C10.1326 7 10.2598 6.94732 10.3536 6.85355C10.4473 6.75978 10.5 6.6326 10.5 6.5V3C10.5 2.86739 10.4473 2.74021 10.3536 2.64644C10.2598 2.55267 10.1326 2.5 10 2.5C9.8674 2.5 9.74022 2.55267 9.64645 2.64644C9.55268 2.74021 9.50001 2.86739 9.50001 3V6.5C9.50001 6.6326 9.55268 6.75978 9.64645 6.85355C9.74022 6.94732 9.8674 7 10 7Z" fill="black"/>
</g>
<defs>
<clipPath id="clip0_5_1156">
<rect width="16" height="16" fill="white"/>
</clipPath>
</defs>
</svg>
