<svg width="16" height="16" viewBox="0 0 16 16" fill="none" xmlns="http://www.w3.org/2000/svg">
<g clip-path="url(#clip0_5_1147)">
<path d="M9.14626 6.14625L10.2931 5L9.14626 3.85375C9.05244 3.75993 8.99973 3.63268 8.99973 3.5C8.99973 3.36731 9.05243 3.24007 9.14626 3.14625C9.24008 3.05243 9.36732 2.99972 9.50001 2.99972C9.63269 2.99972 9.75994 3.05243 9.85376 3.14625L11 4.29312L12.1463 3.14625C12.2401 3.05243 12.3673 2.99972 12.5 2.99972C12.6327 2.99972 12.7599 3.05243 12.8538 3.14625C12.9476 3.24007 13.0003 3.36731 13.0003 3.5C13.0003 3.63268 12.9476 3.75993 12.8538 3.85375L11.7075 5L12.8538 6.14625C12.9002 6.1927 12.9371 6.24785 12.9622 6.30855C12.9873 6.36924 13.0003 6.4343 13.0003 6.5C13.0003 6.56569 12.9873 6.63075 12.9622 6.69144C12.9371 6.75214 12.9002 6.80729 12.8538 6.85375C12.8073 6.9002 12.7522 6.93705 12.6915 6.96219C12.6308 6.98733 12.5657 7.00027 12.5 7.00027C12.4343 7.00027 12.3693 6.98733 12.3086 6.96219C12.2479 6.93705 12.1927 6.9002 12.1463 6.85375L11 5.70687L9.85376 6.85375C9.75994 6.94757 9.63269 7.00027 9.50001 7.00027C9.36732 7.00027 9.24008 6.94757 9.14626 6.85375C9.05243 6.75993 8.99973 6.63268 8.99973 6.5C8.99973 6.36731 9.05243 6.24007 9.14626 6.14625ZM13.3963 10.4037L10.4519 9.08437L10.4438 9.08062C10.2909 9.01524 10.1242 8.98901 9.95861 9.00428C9.79306 9.01956 9.63394 9.07587 9.49563 9.16812C9.47935 9.17888 9.46369 9.19056 9.44876 9.20312L7.92938 10.5C6.96563 10.0319 5.97063 9.04437 5.50251 8.09312L6.80126 6.54875C6.81376 6.53312 6.82563 6.5175 6.83688 6.50062C6.92715 6.36268 6.98192 6.20457 6.99631 6.04035C7.0107 5.87614 6.98428 5.71091 6.91938 5.55937V5.55187L5.59626 2.6025C5.51047 2.40454 5.36296 2.23963 5.17575 2.13239C4.98854 2.02516 4.77166 1.98135 4.55751 2.0075C3.71061 2.11894 2.93324 2.53485 2.37059 3.17756C1.80794 3.82026 1.49847 4.6458 1.50001 5.5C1.50001 10.4625 5.53751 14.5 10.5 14.5C11.3542 14.5015 12.1797 14.1921 12.8224 13.6294C13.4651 13.0668 13.8811 12.2894 13.9925 11.4425C14.0187 11.2284 13.975 11.0116 13.8679 10.8244C13.7607 10.6372 13.596 10.4896 13.3981 10.4037H13.3963Z" fill="black"/>
</g>
<defs>
<clipPath id="clip0_5_1147">
<rect width="16" height="16" fill="white"/>
</clipPath>
</defs>
</svg>
