<svg width="16" height="16" viewBox="0 0 16 16" fill="none" xmlns="http://www.w3.org/2000/svg">
<g clip-path="url(#clip0_5_759)">
<path d="M14.7677 10.1151C14.6355 10.284 14.4524 10.406 14.2455 10.4629C14.0387 10.5199 13.819 10.5088 13.6189 10.4313L10.5564 9.34443L10.5383 9.33756C10.3852 9.27629 10.2495 9.17808 10.1435 9.05169C10.0375 8.92531 9.96446 8.77466 9.9308 8.61318L9.54267 6.75381C8.53572 6.4107 7.4431 6.41312 6.43767 6.76068L6.06892 8.60568C6.0364 8.76895 5.96363 8.92151 5.85722 9.04953C5.75081 9.17756 5.61412 9.27699 5.45955 9.33881L5.44142 9.34568L2.37892 10.4313C2.26524 10.4761 2.14424 10.4994 2.02205 10.5001C1.86995 10.5003 1.7198 10.4659 1.58301 10.3994C1.44622 10.3329 1.3264 10.2361 1.23267 10.1163C0.155799 8.72756 0.276424 6.88443 1.5258 5.63443C5.03517 2.12381 10.9633 2.12381 14.4745 5.63443C15.7239 6.88318 15.8445 8.72631 14.7677 10.1151ZM13.5002 12.0001H2.50017C2.36757 12.0001 2.24039 12.0527 2.14662 12.1465C2.05285 12.2403 2.00017 12.3674 2.00017 12.5001C2.00017 12.6327 2.05285 12.7598 2.14662 12.8536C2.24039 12.9474 2.36757 13.0001 2.50017 13.0001H13.5002C13.6328 13.0001 13.76 12.9474 13.8537 12.8536C13.9475 12.7598 14.0002 12.6327 14.0002 12.5001C14.0002 12.3674 13.9475 12.2403 13.8537 12.1465C13.76 12.0527 13.6328 12.0001 13.5002 12.0001Z" fill="black"/>
</g>
<defs>
<clipPath id="clip0_5_759">
<rect width="16" height="16" fill="white"/>
</clipPath>
</defs>
</svg>
