<svg width="16" height="16" viewBox="0 0 16 16" fill="none" xmlns="http://www.w3.org/2000/svg">
<g clip-path="url(#clip0_5_1358)">
<path d="M9.01688 2.87062C9.03385 2.80717 9.06316 2.74768 9.10313 2.69555C9.14311 2.64343 9.19296 2.59969 9.24984 2.56684C9.30672 2.53399 9.36951 2.51267 9.43464 2.50409C9.49976 2.49552 9.56594 2.49986 9.62938 2.51687C10.5563 2.75871 11.402 3.24327 12.0794 3.92064C12.7567 4.59801 13.2413 5.44371 13.4831 6.37062C13.5001 6.43407 13.5045 6.50024 13.4959 6.56536C13.4873 6.63049 13.466 6.69328 13.4332 6.75017C13.4003 6.80705 13.3566 6.8569 13.3044 6.89687C13.2523 6.93684 13.1928 6.96615 13.1294 6.98312C13.0871 6.99421 13.0437 6.99989 13 7C12.8899 7.00003 12.7829 6.96372 12.6955 6.89671C12.6082 6.82969 12.5454 6.73572 12.5169 6.62937C12.3197 5.87258 11.9243 5.18207 11.3714 4.62902C10.8184 4.07598 10.128 3.68042 9.37126 3.48312C9.30774 3.46622 9.24819 3.43695 9.196 3.39701C9.1438 3.35707 9.1 3.30723 9.06708 3.25034C9.03417 3.19345 9.01279 3.13063 9.00418 3.06548C8.99557 3.00032 8.99988 2.93411 9.01688 2.87062ZM8.87126 5.48312C9.73313 5.71312 10.2869 6.2675 10.5169 7.12937C10.5454 7.23572 10.6082 7.32969 10.6955 7.39671C10.7829 7.46372 10.8899 7.50003 11 7.5C11.0437 7.49989 11.0871 7.49421 11.1294 7.48312C11.1928 7.46615 11.2523 7.43684 11.3044 7.39687C11.3566 7.3569 11.4003 7.30705 11.4332 7.25017C11.466 7.19328 11.4873 7.13049 11.4959 7.06536C11.5045 7.00024 11.5001 6.93407 11.4831 6.87062C11.1631 5.67312 10.3269 4.83687 9.12938 4.51687C9.00125 4.48264 8.86477 4.50071 8.74996 4.56711C8.63515 4.63351 8.55142 4.7428 8.51719 4.87093C8.48296 4.99907 8.50104 5.13555 8.56744 5.25036C8.63384 5.36516 8.74312 5.44889 8.87126 5.48312ZM13.3981 10.4037L10.4538 9.08437L10.4456 9.08062C10.2928 9.01524 10.126 8.98901 9.96049 9.00428C9.79494 9.01956 9.63581 9.07587 9.49751 9.16812C9.48122 9.17888 9.46557 9.19056 9.45063 9.20312L7.92938 10.5C6.96563 10.0319 5.97063 9.04437 5.50251 8.09312L6.80126 6.54875C6.81376 6.53312 6.82563 6.5175 6.83688 6.50062C6.92715 6.36268 6.98192 6.20457 6.99631 6.04035C7.0107 5.87614 6.98428 5.71091 6.91938 5.55937V5.55187L5.59626 2.6025C5.51047 2.40454 5.36296 2.23963 5.17575 2.13239C4.98854 2.02516 4.77166 1.98135 4.55751 2.0075C3.71061 2.11894 2.93324 2.53485 2.37059 3.17756C1.80794 3.82026 1.49847 4.6458 1.50001 5.5C1.50001 10.4625 5.53751 14.5 10.5 14.5C11.3542 14.5015 12.1797 14.1921 12.8224 13.6294C13.4651 13.0668 13.8811 12.2894 13.9925 11.4425C14.0187 11.2284 13.975 11.0116 13.8679 10.8244C13.7607 10.6372 13.596 10.4896 13.3981 10.4037Z" fill="black"/>
</g>
<defs>
<clipPath id="clip0_5_1358">
<rect width="16" height="16" fill="white"/>
</clipPath>
</defs>
</svg>
