<svg width="16" height="16" viewBox="0 0 16 16" fill="none" xmlns="http://www.w3.org/2000/svg">
<g clip-path="url(#clip0_5_504)">
<path d="M9.14626 6.85375C9.09977 6.80731 9.06289 6.75216 9.03773 6.69147C9.01256 6.63077 8.99961 6.5657 8.99961 6.5C8.99961 6.43429 9.01256 6.36922 9.03773 6.30853C9.06289 6.24783 9.09977 6.19268 9.14626 6.14625L11.2931 4H10C9.8674 4 9.74022 3.94732 9.64645 3.85355C9.55268 3.75978 9.50001 3.6326 9.50001 3.5C9.50001 3.36739 9.55268 3.24021 9.64645 3.14644C9.74022 3.05267 9.8674 3 10 3H12.5C12.6326 3 12.7598 3.05267 12.8536 3.14644C12.9473 3.24021 13 3.36739 13 3.5V6C13 6.1326 12.9473 6.25978 12.8536 6.35355C12.7598 6.44732 12.6326 6.5 12.5 6.5C12.3674 6.5 12.2402 6.44732 12.1465 6.35355C12.0527 6.25978 12 6.1326 12 6V4.70687L9.85376 6.85375C9.80732 6.90023 9.75218 6.93711 9.69148 6.96228C9.63078 6.98744 9.56571 7.00039 9.50001 7.00039C9.4343 7.00039 9.36923 6.98744 9.30854 6.96228C9.24784 6.93711 9.19269 6.90023 9.14626 6.85375ZM13.3963 10.4037L10.4519 9.08437L10.4438 9.08062C10.2909 9.01524 10.1242 8.98901 9.95861 9.00428C9.79306 9.01956 9.63394 9.07587 9.49563 9.16812C9.47935 9.17888 9.46369 9.19056 9.44876 9.20312L7.92938 10.5C6.96563 10.0319 5.97063 9.04437 5.50251 8.09312L6.80126 6.54875C6.81376 6.53312 6.82563 6.5175 6.83688 6.50062C6.92715 6.36268 6.98192 6.20457 6.99631 6.04035C7.0107 5.87614 6.98428 5.71091 6.91938 5.55937V5.55187L5.59626 2.6025C5.51047 2.40454 5.36296 2.23963 5.17575 2.13239C4.98854 2.02516 4.77166 1.98135 4.55751 2.0075C3.71061 2.11894 2.93324 2.53485 2.37059 3.17756C1.80794 3.82026 1.49847 4.6458 1.50001 5.5C1.50001 10.4625 5.53751 14.5 10.5 14.5C11.3542 14.5015 12.1797 14.1921 12.8224 13.6294C13.4651 13.0668 13.8811 12.2894 13.9925 11.4425C14.0187 11.2284 13.975 11.0116 13.8679 10.8244C13.7607 10.6372 13.596 10.4896 13.3981 10.4037H13.3963Z" fill="black"/>
</g>
<defs>
<clipPath id="clip0_5_504">
<rect width="16" height="16" fill="white"/>
</clipPath>
</defs>
</svg>
