<svg width="16" height="16" viewBox="0 0 16 16" fill="none" xmlns="http://www.w3.org/2000/svg">
<g clip-path="url(#clip0_5_782)">
<path d="M13.9925 11.4425C13.8811 12.2894 13.4651 13.0668 12.8224 13.6294C12.1797 14.1921 11.3542 14.5015 10.5 14.5C5.53751 14.5 1.50001 10.4625 1.50001 5.5C1.49847 4.6458 1.80794 3.82026 2.37059 3.17756C2.93324 2.53485 3.71061 2.11894 4.55751 2.0075C4.77166 1.98135 4.98854 2.02516 5.17575 2.13239C5.36296 2.23963 5.51047 2.40454 5.59626 2.6025L6.91626 5.54937V5.55687C6.98194 5.7084 7.00906 5.87385 6.99521 6.03842C6.98136 6.20299 6.92696 6.36157 6.83688 6.5C6.82563 6.51687 6.81376 6.5325 6.80126 6.54812L5.50001 8.09062C5.96813 9.04187 6.96313 10.0281 7.92688 10.4975L9.44813 9.20312C9.46307 9.19056 9.47872 9.17888 9.49501 9.16812C9.63331 9.07587 9.79244 9.01956 9.95799 9.00428C10.1235 8.98901 10.2903 9.01524 10.4431 9.08062L10.4513 9.08437L13.3956 10.4037C13.5939 10.4892 13.7592 10.6366 13.8668 10.8238C13.9744 11.0111 14.0185 11.2281 13.9925 11.4425ZM9.50001 7H12C12.1326 7 12.2598 6.94732 12.3536 6.85355C12.4473 6.75978 12.5 6.6326 12.5 6.5C12.5 6.36739 12.4473 6.24021 12.3536 6.14644C12.2598 6.05267 12.1326 6 12 6H10.7075L12.8538 3.85375C12.9476 3.75993 13.0003 3.63268 13.0003 3.5C13.0003 3.36731 12.9476 3.24007 12.8538 3.14625C12.7599 3.05243 12.6327 2.99972 12.5 2.99972C12.3673 2.99972 12.2401 3.05243 12.1463 3.14625L10 5.29312V4C10 3.86739 9.94733 3.74021 9.85356 3.64644C9.75979 3.55267 9.63261 3.5 9.50001 3.5C9.3674 3.5 9.24022 3.55267 9.14645 3.64644C9.05268 3.74021 9.00001 3.86739 9.00001 4V6.5C9.00001 6.6326 9.05268 6.75978 9.14645 6.85355C9.24022 6.94732 9.3674 7 9.50001 7Z" fill="black"/>
</g>
<defs>
<clipPath id="clip0_5_782">
<rect width="16" height="16" fill="white"/>
</clipPath>
</defs>
</svg>
