<svg width="16" height="16" viewBox="0 0 16 16" fill="none" xmlns="http://www.w3.org/2000/svg">
<g clip-path="url(#clip0_5_503)">
<path d="M14.7674 11.1157C14.6353 11.2847 14.4522 11.4068 14.2454 11.4639C14.0385 11.521 13.8188 11.51 13.6186 11.4325L12.0711 10.245C12.0591 10.2362 12.048 10.2262 12.038 10.215L6.82365 4.47629C6.79235 4.44208 6.77118 4.39985 6.76251 4.3543C6.75383 4.30875 6.758 4.26169 6.77453 4.21837C6.79107 4.17506 6.81932 4.13719 6.85614 4.10901C6.89296 4.08083 6.93689 4.06344 6.98302 4.05879C9.67052 3.77004 12.4668 4.62879 14.4743 6.63629C15.7236 7.88567 15.8443 9.72754 14.7674 11.1157ZM3.37052 2.16379C3.32661 2.1143 3.27332 2.07401 3.21372 2.04526C3.15413 2.01651 3.08942 1.99988 3.02335 1.99633C2.95728 1.99277 2.89116 2.00237 2.82883 2.02455C2.76649 2.04674 2.70918 2.08108 2.66022 2.12558C2.61125 2.17008 2.5716 2.22385 2.54357 2.28379C2.51554 2.34372 2.49969 2.40863 2.49693 2.47473C2.49416 2.54084 2.50455 2.60684 2.52748 2.6689C2.55042 2.73097 2.58544 2.78786 2.63052 2.83629L4.35677 4.73567C3.29904 5.18024 2.33754 5.82569 1.52552 6.63629C0.275523 7.88629 0.155523 9.72754 1.2324 11.1157C1.36453 11.2847 1.54755 11.4068 1.75442 11.4639C1.96128 11.521 2.18101 11.51 2.38115 11.4325L5.44365 10.3469L5.46177 10.34C5.61626 10.2783 5.7529 10.1789 5.85931 10.051C5.96572 9.92313 6.03853 9.77069 6.07115 9.60754L6.4399 7.76317C6.61527 7.70263 6.79413 7.65274 6.97552 7.61379L12.6318 13.8363C12.6757 13.8858 12.729 13.9261 12.7886 13.9548C12.8482 13.9836 12.9129 14.0002 12.9789 14.0038C13.045 14.0073 13.1111 13.9977 13.1735 13.9755C13.2358 13.9533 13.2931 13.919 13.3421 13.8745C13.391 13.83 13.4307 13.7762 13.4587 13.7163C13.4868 13.6564 13.5026 13.5915 13.5054 13.5254C13.5081 13.4592 13.4977 13.3932 13.4748 13.3312C13.4519 13.2691 13.4169 13.2122 13.3718 13.1638L3.37052 2.16379Z" fill="black"/>
</g>
<defs>
<clipPath id="clip0_5_503">
<rect width="16" height="16" fill="white"/>
</clipPath>
</defs>
</svg>
