<svg width="16" height="16" viewBox="0 0 16 16" fill="none" xmlns="http://www.w3.org/2000/svg">
<g clip-path="url(#clip0_5_1296)">
<path d="M9.5 2H4.5C4.36739 2 4.24021 2.05268 4.14645 2.14645C4.05268 2.24021 4 2.36739 4 2.5V10.5C4.00149 11.8256 4.52875 13.0965 5.46611 14.0339C6.40347 14.9712 7.67437 15.4985 9 15.5C9.13261 15.5 9.25979 15.4473 9.35355 15.3536C9.44732 15.2598 9.5 15.1326 9.5 15V11C10.6935 11 11.8381 10.5259 12.682 9.68198C13.5259 8.83807 14 7.69347 14 6.5C14 5.30653 13.5259 4.16193 12.682 3.31802C11.8381 2.47411 10.6935 2 9.5 2ZM8.5 14.4688C7.61944 14.3562 6.80115 13.9545 6.17348 13.3267C5.54582 12.6989 5.14429 11.8806 5.03188 11H8.5V14.4688ZM8.5 8.59375L5.355 3H8.5V8.59375ZM9.5 10V3C10.4283 3 11.3185 3.36875 11.9749 4.02513C12.6313 4.6815 13 5.57174 13 6.5C13 7.42826 12.6313 8.3185 11.9749 8.97487C11.3185 9.63125 10.4283 10 9.5 10Z" fill="black"/>
</g>
<defs>
<clipPath id="clip0_5_1296">
<rect width="16" height="16" fill="white"/>
</clipPath>
</defs>
</svg>
