<svg width="16" height="16" viewBox="0 0 16 16" fill="none" xmlns="http://www.w3.org/2000/svg">
<g clip-path="url(#clip0_5_502)">
<path d="M13 2H3C2.73478 2 2.48043 2.10536 2.29289 2.29289C2.10536 2.48043 2 2.73478 2 3V13C2 13.2652 2.10536 13.5196 2.29289 13.7071C2.48043 13.8946 2.73478 14 3 14H13C13.2652 14 13.5196 13.8946 13.7071 13.7071C13.8946 13.5196 14 13.2652 14 13V3C14 2.73478 13.8946 2.48043 13.7071 2.29289C13.5196 2.10536 13.2652 2 13 2ZM10.75 10.5C10.9489 10.5 11.1397 10.421 11.2803 10.2803C11.421 10.1397 11.5 9.94891 11.5 9.75C11.5 9.61739 11.5527 9.49021 11.6464 9.39645C11.7402 9.30268 11.8674 9.25 12 9.25C12.1326 9.25 12.2598 9.30268 12.3536 9.39645C12.4473 9.49021 12.5 9.61739 12.5 9.75C12.5 10.2141 12.3156 10.6592 11.9874 10.9874C11.6592 11.3156 11.2141 11.5 10.75 11.5C10.2859 11.5 9.84075 11.3156 9.51256 10.9874C9.18437 10.6592 9 10.2141 9 9.75V6H7V11C7 11.1326 6.94732 11.2598 6.85355 11.3536C6.75979 11.4473 6.63261 11.5 6.5 11.5C6.36739 11.5 6.24021 11.4473 6.14645 11.3536C6.05268 11.2598 6 11.1326 6 11V6H5.5C5.10218 6 4.72064 6.15804 4.43934 6.43934C4.15804 6.72064 4 7.10218 4 7.5C4 7.63261 3.94732 7.75979 3.85355 7.85355C3.75979 7.94732 3.63261 8 3.5 8C3.36739 8 3.24021 7.94732 3.14645 7.85355C3.05268 7.75979 3 7.63261 3 7.5C3 6.83696 3.26339 6.20107 3.73223 5.73223C4.20107 5.26339 4.83696 5 5.5 5H12C12.1326 5 12.2598 5.05268 12.3536 5.14645C12.4473 5.24021 12.5 5.36739 12.5 5.5C12.5 5.63261 12.4473 5.75979 12.3536 5.85355C12.2598 5.94732 12.1326 6 12 6H10V9.75C10 9.94891 10.079 10.1397 10.2197 10.2803C10.3603 10.421 10.5511 10.5 10.75 10.5Z" fill="black"/>
</g>
<defs>
<clipPath id="clip0_5_502">
<rect width="16" height="16" fill="white"/>
</clipPath>
</defs>
</svg>
