<svg width="16" height="16" viewBox="0 0 16 16" fill="none" xmlns="http://www.w3.org/2000/svg">
<g clip-path="url(#clip0_5_1142)">
<path d="M13 2H3C2.73478 2 2.48043 2.10536 2.29289 2.29289C2.10536 2.48043 2 2.73478 2 3V13C2 13.2652 2.10536 13.5196 2.29289 13.7071C2.48043 13.8946 2.73478 14 3 14H13C13.2652 14 13.5196 13.8946 13.7071 13.7071C13.8946 13.5196 14 13.2652 14 13V3C14 2.73478 13.8946 2.48043 13.7071 2.29289C13.5196 2.10536 13.2652 2 13 2ZM5.5 13H3V3H4.5V9C4.5 9.13261 4.55268 9.25979 4.64645 9.35355C4.74021 9.44732 4.86739 9.5 5 9.5H5.5V13ZM9.5 13H6.5V9.5H7C7.13261 9.5 7.25979 9.44732 7.35355 9.35355C7.44732 9.25979 7.5 9.13261 7.5 9V3H8.5V9C8.5 9.13261 8.55268 9.25979 8.64645 9.35355C8.74021 9.44732 8.86739 9.5 9 9.5H9.5V13ZM13 13H10.5V9.5H11C11.1326 9.5 11.2598 9.44732 11.3536 9.35355C11.4473 9.25979 11.5 9.13261 11.5 9V3H13V13Z" fill="black"/>
</g>
<defs>
<clipPath id="clip0_5_1142">
<rect width="16" height="16" fill="white"/>
</clipPath>
</defs>
</svg>
