<svg width="16" height="16" viewBox="0 0 16 16" fill="none" xmlns="http://www.w3.org/2000/svg">
<g clip-path="url(#clip0_5_1138)">
<path d="M9.17813 6L10.0869 8H5.91313L6.82188 6H9.17813ZM14.5 3.5V12.5C14.5 12.7652 14.3946 13.0196 14.2071 13.2071C14.0196 13.3946 13.7652 13.5 13.5 13.5H2.5C2.23478 13.5 1.98043 13.3946 1.79289 13.2071C1.60536 13.0196 1.5 12.7652 1.5 12.5V3.5C1.5 3.23478 1.60536 2.98043 1.79289 2.79289C1.98043 2.60536 2.23478 2.5 2.5 2.5H13.5C13.7652 2.5 14.0196 2.60536 14.2071 2.79289C14.3946 2.98043 14.5 3.23478 14.5 3.5ZM13 8.5C13 8.36739 12.9473 8.24021 12.8536 8.14645C12.7598 8.05268 12.6326 8 12.5 8H11.1875L10.2762 6H11C11.1326 6 11.2598 5.94732 11.3536 5.85355C11.4473 5.75979 11.5 5.63261 11.5 5.5C11.5 5.36739 11.4473 5.24021 11.3536 5.14645C11.2598 5.05268 11.1326 5 11 5H5C4.86739 5 4.74021 5.05268 4.64645 5.14645C4.55268 5.24021 4.5 5.36739 4.5 5.5C4.5 5.63261 4.55268 5.75979 4.64645 5.85355C4.74021 5.94732 4.86739 6 5 6H5.72375L4.8125 8H3.5C3.36739 8 3.24021 8.05268 3.14645 8.14645C3.05268 8.24021 3 8.36739 3 8.5C3 8.63261 3.05268 8.75979 3.14645 8.85355C3.24021 8.94732 3.36739 9 3.5 9H4.36L3.5475 10.7931C3.51825 10.8532 3.50132 10.9184 3.49771 10.9851C3.4941 11.0518 3.50389 11.1186 3.5265 11.1814C3.54911 11.2442 3.58407 11.3019 3.62934 11.351C3.6746 11.4001 3.72924 11.4397 3.79003 11.4673C3.85083 11.4949 3.91654 11.5101 3.9833 11.5119C4.05006 11.5138 4.11651 11.5022 4.17872 11.4779C4.24094 11.4537 4.29766 11.4172 4.34554 11.3706C4.39342 11.3241 4.43149 11.2684 4.4575 11.2069L5.4575 9H10.5413L11.5444 11.2069C11.6014 11.324 11.702 11.4142 11.8246 11.4583C11.9472 11.5025 12.0822 11.497 12.2008 11.443C12.3194 11.3891 12.4123 11.291 12.4597 11.1696C12.507 11.0482 12.5051 10.9131 12.4544 10.7931L11.6419 9H12.5C12.6326 9 12.7598 8.94732 12.8536 8.85355C12.9473 8.75979 13 8.63261 13 8.5Z" fill="black"/>
</g>
<defs>
<clipPath id="clip0_5_1138">
<rect width="16" height="16" fill="white"/>
</clipPath>
</defs>
</svg>
