<svg width="16" height="16" viewBox="0 0 16 16" fill="none" xmlns="http://www.w3.org/2000/svg">
<g clip-path="url(#clip0_5_1277)">
<path d="M13.5 3H2.5C2.23478 3 1.98043 3.10536 1.79289 3.29289C1.60536 3.48043 1.5 3.73478 1.5 4V12C1.5 12.2652 1.60536 12.5196 1.79289 12.7071C1.98043 12.8946 2.23478 13 2.5 13H13.5C13.7652 13 14.0196 12.8946 14.2071 12.7071C14.3946 12.5196 14.5 12.2652 14.5 12V4C14.5 3.73478 14.3946 3.48043 14.2071 3.29289C14.0196 3.10536 13.7652 3 13.5 3ZM13.5 12H8.5V8H13.5V12Z" fill="black"/>
</g>
<defs>
<clipPath id="clip0_5_1277">
<rect width="16" height="16" fill="white"/>
</clipPath>
</defs>
</svg>
