<svg width="16" height="16" viewBox="0 0 16 16" fill="none" xmlns="http://www.w3.org/2000/svg">
<g clip-path="url(#clip0_5_501)">
<path d="M14.125 5.505C14.1 5.4425 14.0737 5.38 14.0469 5.3175C13.6436 4.38753 12.991 3.58719 12.1613 3.005H13.5C13.6326 3.005 13.7598 2.95233 13.8536 2.85856C13.9473 2.76479 14 2.63761 14 2.505C14 2.3724 13.9473 2.24522 13.8536 2.15145C13.7598 2.05768 13.6326 2.005 13.5 2.005H7C5.61756 2.00676 4.28634 2.52835 3.27068 3.46621C2.25501 4.40406 1.6292 5.68958 1.5175 7.0675C1.0856 7.17487 0.70185 7.42322 0.426993 7.77324C0.152135 8.12327 0.00187595 8.55497 0 9C0 9.13261 0.0526784 9.25979 0.146447 9.35356C0.240215 9.44733 0.367392 9.5 0.5 9.5C0.632608 9.5 0.759785 9.44733 0.853553 9.35356C0.947322 9.25979 1 9.13261 1 9C1.00012 8.81768 1.05008 8.63885 1.14449 8.48286C1.23889 8.32688 1.37415 8.19967 1.53562 8.115C1.66008 9.23679 2.12784 10.2928 2.875 11.1388L3.66 13.3363C3.7294 13.5306 3.85724 13.6988 4.02598 13.8176C4.19473 13.9364 4.39611 14.0002 4.6025 14H5.3975C5.60378 14 5.80503 13.9363 5.97365 13.8174C6.14227 13.6986 6.27001 13.5305 6.33938 13.3363L6.45937 13H10.0406L10.1606 13.3363C10.23 13.5305 10.3577 13.6986 10.5264 13.8174C10.695 13.9363 10.8962 14 11.1025 14H11.8975C12.1038 14 12.305 13.9363 12.4736 13.8174C12.6423 13.6986 12.77 13.5305 12.8394 13.3363L13.8525 10.5H14C14.3978 10.5 14.7794 10.342 15.0607 10.0607C15.342 9.77936 15.5 9.39783 15.5 9V7C15.5001 6.62378 15.3587 6.26127 15.104 5.98436C14.8494 5.70745 14.4999 5.53636 14.125 5.505ZM9.5 4.5H7C6.86739 4.5 6.74021 4.44733 6.64645 4.35356C6.55268 4.25979 6.5 4.13261 6.5 4C6.5 3.8674 6.55268 3.74022 6.64645 3.64645C6.74021 3.55268 6.86739 3.5 7 3.5H9.5C9.63261 3.5 9.75979 3.55268 9.85355 3.64645C9.94732 3.74022 10 3.8674 10 4C10 4.13261 9.94732 4.25979 9.85355 4.35356C9.75979 4.44733 9.63261 4.5 9.5 4.5ZM11.25 8C11.1017 8 10.9567 7.95602 10.8333 7.87361C10.71 7.7912 10.6139 7.67406 10.5571 7.53702C10.5003 7.39997 10.4855 7.24917 10.5144 7.10369C10.5434 6.9582 10.6148 6.82456 10.7197 6.71967C10.8246 6.61479 10.9582 6.54335 11.1037 6.51442C11.2492 6.48548 11.4 6.50033 11.537 6.5571C11.6741 6.61386 11.7912 6.70999 11.8736 6.83333C11.956 6.95666 12 7.10167 12 7.25C12 7.44892 11.921 7.63968 11.7803 7.78033C11.6397 7.92099 11.4489 8 11.25 8Z" fill="black"/>
</g>
<defs>
<clipPath id="clip0_5_501">
<rect width="16" height="16" fill="white"/>
</clipPath>
</defs>
</svg>
