<svg width="16" height="16" viewBox="0 0 16 16" fill="none" xmlns="http://www.w3.org/2000/svg">
<g clip-path="url(#clip0_5_1132)">
<path d="M13.5269 2.47499C12.9026 1.85071 12.0558 1.5 11.1729 1.5C10.2899 1.5 9.44316 1.85071 8.81879 2.47499L2.47504 8.81812C1.86385 9.44504 1.52426 10.2875 1.52985 11.1631C1.53544 12.0386 1.88576 12.8767 2.50491 13.4957C3.12406 14.1148 3.96219 14.465 4.83772 14.4705C5.71326 14.476 6.5557 14.1363 7.18254 13.525L13.5269 7.18187C14.1501 6.55715 14.5 5.71079 14.5 4.82843C14.5 3.94606 14.1501 3.09971 13.5269 2.47499ZM12.8194 6.47499L9.64754 9.64624L6.35442 6.35374L9.52629 3.18187C9.96472 2.75357 10.5543 2.51538 11.1672 2.51896C11.7801 2.52254 12.3669 2.7676 12.8003 3.20099C13.2337 3.63439 13.4787 4.22116 13.4823 4.83406C13.4859 5.44696 13.2477 6.03656 12.8194 6.47499ZM11.855 5.14624C11.9015 5.19268 11.9384 5.24782 11.9636 5.30852C11.9887 5.36922 12.0017 5.43428 12.0017 5.49999C12.0017 5.5657 11.9887 5.63076 11.9636 5.69146C11.9384 5.75216 11.9015 5.8073 11.855 5.85374L10.355 7.35374C10.3086 7.40015 10.2534 7.43696 10.1928 7.46207C10.1321 7.48717 10.0671 7.50008 10.0014 7.50005C9.93572 7.50002 9.8707 7.48705 9.81004 7.4619C9.74938 7.43674 9.69427 7.39988 9.64786 7.35343C9.60144 7.30697 9.56463 7.25183 9.53953 7.19115C9.51442 7.13047 9.50152 7.06544 9.50155 6.99977C9.50158 6.9341 9.51454 6.86908 9.5397 6.80842C9.56485 6.74776 9.60171 6.69265 9.64817 6.64624L11.1482 5.14624C11.2419 5.05254 11.3691 4.99991 11.5016 4.99991C11.6342 4.99991 11.7613 5.05254 11.855 5.14624Z" fill="black"/>
</g>
<defs>
<clipPath id="clip0_5_1132">
<rect width="16" height="16" fill="white"/>
</clipPath>
</defs>
</svg>
