<svg width="16" height="16" viewBox="0 0 16 16" fill="none" xmlns="http://www.w3.org/2000/svg">
<g clip-path="url(#clip0_5_1552)">
<path d="M15 12.25C14.988 12.1053 14.9446 11.9649 14.8728 11.8386C14.801 11.7123 14.7026 11.6032 14.5844 11.5188L12.2094 9.82191L13.2719 8.76254C13.5618 8.4751 13.7762 8.12053 13.8961 7.73031C14.0161 7.34009 14.0378 6.9263 13.9594 6.52566C13.6685 5.09767 12.8855 3.81715 11.7469 2.90754C10.5906 1.9767 9.14551 1.47888 7.66125 1.50004C6.03577 1.52752 4.48455 2.18548 3.33499 3.33503C2.18544 4.48459 1.52749 6.0358 1.5 7.66129C1.48168 9.1437 1.97999 10.5862 2.90937 11.7413C3.81899 12.8799 5.09951 13.6629 6.5275 13.9538C6.92813 14.0321 7.34192 14.0104 7.73213 13.8905C8.12234 13.7705 8.47691 13.5561 8.76437 13.2663L9.82375 12.2038L11.5206 14.5788C11.6042 14.6978 11.7128 14.7972 11.8388 14.87C11.9648 14.9427 12.1051 14.9871 12.25 15C12.2775 15 12.305 15.0032 12.3325 15.0032C12.5977 15.003 12.8519 14.8976 13.0394 14.71L14.7044 13.045C14.8089 12.9423 14.8896 12.8178 14.9406 12.6804C14.9917 12.5431 15.012 12.3961 15 12.25ZM12.3375 14L10.2981 11.1444C10.2559 11.0854 10.2013 11.0362 10.1382 11.0004C10.075 10.9645 10.0049 10.9429 9.9325 10.9369C9.91875 10.9369 9.905 10.9369 9.89125 10.9369C9.82557 10.9369 9.76052 10.9497 9.69982 10.9748C9.63913 10.9999 9.58397 11.0367 9.5375 11.0832L8.06062 12.56C7.88946 12.7337 7.67803 12.8625 7.44513 12.9348C7.21222 13.0071 6.96506 13.0207 6.72562 12.9744C6.46397 12.922 6.2069 12.8489 5.95687 12.7557L12.7569 5.95566C12.85 6.20572 12.9232 6.46277 12.9756 6.72441C13.0219 6.96385 13.0084 7.21103 12.9361 7.44394C12.8638 7.67686 12.735 7.88828 12.5612 8.05941L11.0812 9.53441C11.0298 9.58573 10.9902 9.64764 10.9652 9.71582C10.9401 9.784 10.9302 9.85682 10.9362 9.92921C10.9421 10.0016 10.9638 10.0718 10.9996 10.135C11.0355 10.1982 11.0847 10.2528 11.1437 10.295L14 12.335L12.3375 14Z" fill="black"/>
</g>
<defs>
<clipPath id="clip0_5_1552">
<rect width="16" height="16" fill="white"/>
</clipPath>
</defs>
</svg>
