<svg width="16" height="16" viewBox="0 0 16 16" fill="none" xmlns="http://www.w3.org/2000/svg">
<g clip-path="url(#clip0_5_1128)">
<path d="M12.875 1.66813C12.828 1.61513 12.7703 1.57274 12.7056 1.54376C12.641 1.51477 12.5709 1.49986 12.5 1.5H3.50005C3.4291 1.49998 3.35895 1.51505 3.29428 1.54423C3.2296 1.5734 3.17187 1.61601 3.12493 1.66922C3.078 1.72242 3.04292 1.78501 3.02203 1.85282C3.00115 1.92063 2.99493 1.99211 3.0038 2.0625L4.45067 14.125C4.48114 14.3668 4.59888 14.5892 4.78176 14.7503C4.96464 14.9114 5.20007 15.0002 5.4438 15H10.5563C10.8009 15.0001 11.037 14.9105 11.22 14.7482C11.403 14.5859 11.5202 14.3622 11.5494 14.1194L12.9963 2.0625C13.0053 1.99192 12.9992 1.92023 12.9783 1.85222C12.9573 1.78421 12.9222 1.72145 12.875 1.66813ZM11.9375 2.5L11.7563 4H4.2438L4.06255 2.5H11.9375Z" fill="black"/>
</g>
<defs>
<clipPath id="clip0_5_1128">
<rect width="16" height="16" fill="white"/>
</clipPath>
</defs>
</svg>
