<svg width="16" height="16" viewBox="0 0 16 16" fill="none" xmlns="http://www.w3.org/2000/svg">
<g clip-path="url(#clip0_5_500)">
<path d="M15 8.04381C14.9763 11.5744 12.0963 14.4644 8.56627 14.4994C8.02012 14.5052 7.47543 14.4422 6.94502 14.3119C6.91311 14.304 6.88308 14.2898 6.85666 14.2702C6.83024 14.2506 6.80794 14.226 6.79105 14.1978C6.77415 14.1696 6.76299 14.1383 6.7582 14.1058C6.75341 14.0732 6.75509 14.0401 6.76314 14.0082L7.30314 11.8488C7.82984 12.1128 8.41087 12.2502 9.00002 12.2501C11.3125 12.2501 13.1688 10.1594 12.9881 7.66506C12.9391 7.01764 12.7506 6.38848 12.4355 5.82079C12.1205 5.2531 11.6863 4.76031 11.1627 4.37627C10.6392 3.99222 10.0388 3.726 9.40272 3.5959C8.76661 3.46579 8.10989 3.47487 7.47763 3.62252C6.84537 3.77018 6.25254 4.0529 5.73986 4.45128C5.22717 4.84966 4.80676 5.35427 4.5075 5.93045C4.20823 6.50664 4.03719 7.14077 4.00613 7.7893C3.97506 8.43783 4.0847 9.0854 4.32752 9.68756C4.35274 9.75038 4.39046 9.80742 4.43839 9.85523C4.48631 9.90303 4.54345 9.94061 4.60633 9.96568C4.66921 9.99075 4.73653 10.0028 4.8042 10.0011C4.87187 9.99936 4.93849 9.98391 5.00002 9.95568C5.11736 9.8988 5.20857 9.79929 5.25503 9.67745C5.30149 9.5556 5.2997 9.42062 5.25002 9.30006C5.06314 8.83142 4.97979 8.32792 5.00568 7.82407C5.03156 7.32021 5.16607 6.82791 5.39999 6.38089C5.63391 5.93387 5.96171 5.54271 6.36092 5.23421C6.76013 4.92571 7.22132 4.70717 7.71288 4.59355C8.20444 4.47993 8.71476 4.47393 9.20885 4.57596C9.70295 4.67799 10.1692 4.88563 10.5755 5.18466C10.9819 5.48369 11.3188 5.86703 11.5631 6.30842C11.8075 6.74982 11.9535 7.23882 11.9913 7.74193C12.125 9.65006 10.7331 11.2501 9.00002 11.2501C8.49031 11.2498 7.99031 11.1107 7.55377 10.8476L8.48502 7.12131C8.51463 6.99357 8.49289 6.85931 8.42446 6.74746C8.35604 6.6356 8.24642 6.5551 8.11921 6.5233C7.992 6.4915 7.85739 6.51094 7.74437 6.57744C7.63136 6.64393 7.54899 6.75216 7.51502 6.87881L5.83627 13.5944C5.82715 13.631 5.80989 13.665 5.78576 13.694C5.76164 13.7229 5.73128 13.7461 5.69696 13.7616C5.66264 13.7772 5.62524 13.7848 5.58757 13.7839C5.54989 13.783 5.51291 13.7735 5.47939 13.7563C4.41904 13.1999 3.53299 12.3614 2.91902 11.3333C2.30505 10.3052 1.98702 9.12746 2.00002 7.93006C2.03752 4.40756 4.91689 1.53256 8.43752 1.50006C9.30005 1.49174 10.1556 1.65519 10.9543 1.98086C11.7531 2.30654 12.479 2.78793 13.0898 3.39699C13.7006 4.00605 14.1841 4.73058 14.512 5.52838C14.84 6.32617 15.0059 7.18126 15 8.04381Z" fill="black"/>
</g>
<defs>
<clipPath id="clip0_5_500">
<rect width="16" height="16" fill="white"/>
</clipPath>
</defs>
</svg>
