<svg width="16" height="16" viewBox="0 0 16 16" fill="none" xmlns="http://www.w3.org/2000/svg">
<g clip-path="url(#clip0_5_1383)">
<path d="M14.3537 13.6462L11.3275 10.6206C11.3962 10.6 11.4643 10.5781 11.5318 10.5537C12.4658 10.2136 13.2265 9.5165 13.6467 8.61575C14.067 7.715 14.1124 6.68425 13.7731 5.75C13.7277 5.62546 13.6348 5.52403 13.5146 5.46801C13.3945 5.41199 13.257 5.40596 13.1325 5.45125L10.37 6.45625C10.39 6.4175 10.41 6.37875 10.4281 6.33875C10.7417 5.66678 10.849 4.91693 10.7365 4.18398C10.624 3.45103 10.2967 2.76789 9.79602 2.22091C9.29533 1.67393 8.64372 1.28767 7.92354 1.11096C7.20337 0.934255 6.44698 0.975026 5.74997 1.22812C5.68808 1.25034 5.63118 1.28455 5.58253 1.32879C5.53388 1.37303 5.49444 1.42644 5.46645 1.48594C5.43847 1.54545 5.4225 1.60989 5.41946 1.67558C5.41642 1.74127 5.42636 1.80691 5.44872 1.86875L6.45435 4.6325C6.41497 4.6125 6.37622 4.59187 6.33622 4.57C5.66411 4.25681 4.91424 4.1499 4.18138 4.2628C3.44852 4.37569 2.76559 4.70332 2.21889 5.20426C1.67219 5.7052 1.28628 6.35698 1.10992 7.0772C0.933569 7.79743 0.974693 8.55377 1.2281 9.25062C1.27347 9.37516 1.36644 9.47659 1.48657 9.53261C1.60669 9.58863 1.74415 9.59466 1.86872 9.54937L4.63122 8.54375C4.61122 8.58312 4.59122 8.62187 4.5731 8.66187C4.25991 9.33399 4.153 10.0839 4.2659 10.8167C4.37879 11.5496 4.70642 12.2325 5.20736 12.7792C5.7083 13.3259 6.36008 13.7118 7.0803 13.8882C7.80053 14.0645 8.55687 14.0234 9.25372 13.77C9.37826 13.7246 9.47969 13.6317 9.53571 13.5115C9.59173 13.3914 9.59776 13.2539 9.55247 13.1294L8.54747 10.3681C8.58622 10.3875 8.62497 10.4069 8.66497 10.425C9.10614 10.6316 9.5834 10.7501 10.07 10.7737L13.6462 14.3506C13.74 14.4444 13.8673 14.4972 14 14.4972C14.1327 14.4972 14.2599 14.4444 14.3537 14.3506C14.4475 14.2568 14.5003 14.1296 14.5003 13.9969C14.5003 13.8642 14.4475 13.7369 14.3537 13.6431V13.6462ZM6.81247 12.7419C6.35807 12.5302 5.97017 12.1984 5.6907 11.7822C5.41123 11.3661 5.25082 10.8814 5.22682 10.3807C5.20282 9.88003 5.31613 9.38229 5.55452 8.94131C5.7929 8.50034 6.14728 8.13291 6.57935 7.87875L8.42935 12.9619C7.88057 13.0554 7.31631 12.9786 6.81247 12.7419ZM9.52497 5.91375C9.29046 6.42026 8.90662 6.84292 8.42497 7.125L6.57435 2.03937C7.06869 1.95634 7.57632 2.01001 8.04237 2.19456C8.50842 2.37912 8.91517 2.68755 9.21863 3.08651C9.5221 3.48547 9.71076 3.95979 9.7642 4.4582C9.81764 4.95661 9.73384 5.46014 9.52185 5.91437L9.52497 5.91375Z" fill="black"/>
</g>
<defs>
<clipPath id="clip0_5_1383">
<rect width="16" height="16" fill="white"/>
</clipPath>
</defs>
</svg>
