<svg width="16" height="16" viewBox="0 0 16 16" fill="none" xmlns="http://www.w3.org/2000/svg">
<g clip-path="url(#clip0_5_1123)">
<path d="M13.7675 3.43749L13.7569 3.42687L10.9506 0.784367C10.7628 0.599919 10.5098 0.496995 10.2465 0.497931C9.98322 0.498867 9.73094 0.603588 9.54439 0.789367L6.76064 3.55437L6.66439 3.45687C6.36761 3.18647 5.97814 3.04069 5.57675 3.04977C5.17537 3.05884 4.79288 3.22207 4.50862 3.50561C4.22437 3.78914 4.06016 4.17121 4.05006 4.57257C4.03996 4.97393 4.18475 5.36378 4.45439 5.66124L4.54564 5.75374L3.29314 6.99999C3.20026 7.09285 3.12658 7.2031 3.07631 7.32444C3.02604 7.44578 3.00017 7.57584 3.00017 7.70718C3.00017 7.83852 3.02604 7.96858 3.07631 8.08992C3.12658 8.21126 3.20026 8.32151 3.29314 8.41437L4.08564 9.20687C4.27308 9.39369 4.52693 9.49859 4.79158 9.49859C5.05622 9.49859 5.31007 9.39369 5.49751 9.20687L6.74314 7.97874L7.50002 8.74999L3.45689 12.8356C3.30049 12.978 3.1746 13.1506 3.08687 13.343C2.99913 13.5354 2.95137 13.7436 2.94646 13.955C2.94156 14.1664 2.97963 14.3766 3.05836 14.5729C3.13708 14.7692 3.25483 14.9474 3.40447 15.0969C3.55411 15.2463 3.73253 15.3638 3.92891 15.4422C4.12529 15.5207 4.33556 15.5585 4.54697 15.5533C4.75837 15.5481 4.96653 15.5 5.15882 15.412C5.35111 15.324 5.52353 15.1978 5.66564 15.0412L11.2075 9.45687C11.3945 9.2694 11.4996 9.01541 11.4996 8.75062C11.4996 8.48582 11.3945 8.23183 11.2075 8.04437L8.97689 5.79124L9.78502 4.99999L9.79127 5.00562L12.125 7.21249C12.313 7.39743 12.5665 7.5006 12.8302 7.49955C13.094 7.49849 13.3466 7.3933 13.5331 7.20687L13.765 6.97499C13.9972 6.74284 14.1813 6.46724 14.307 6.16392C14.4326 5.8606 14.4973 5.5355 14.4973 5.20718C14.4973 4.87886 14.4326 4.55376 14.307 4.25044C14.1813 3.94712 13.9972 3.67152 13.765 3.43937L13.7675 3.43749ZM4.79314 8.49999L4.00002 7.70812L5.25002 6.46562L6.04314 7.26937L4.79314 8.49999ZM13.0625 6.26749L12.8281 6.49999C12.8251 6.49635 12.8218 6.49301 12.8181 6.48999L10.4806 4.28124C10.2924 4.09994 10.0408 3.99928 9.77943 4.00068C9.51807 4.00208 9.26757 4.10543 9.08127 4.28874L8.27314 5.08062L7.46439 4.26437L10.25 1.49999L10.2606 1.50999L13.0656 4.15124C13.3447 4.433 13.5009 4.81382 13.5 5.2104C13.499 5.60698 13.3411 5.98706 13.0606 6.26749H13.0625Z" fill="black"/>
</g>
<defs>
<clipPath id="clip0_5_1123">
<rect width="16" height="16" fill="white"/>
</clipPath>
</defs>
</svg>
