<svg width="16" height="16" viewBox="0 0 16 16" fill="none" xmlns="http://www.w3.org/2000/svg">
<g clip-path="url(#clip0_5_1376)">
<path d="M14.5 6.5H13V3.5H14.5C14.6326 3.5 14.7598 3.44732 14.8536 3.35355C14.9473 3.25979 15 3.13261 15 3C15 2.86739 14.9473 2.74021 14.8536 2.64645C14.7598 2.55268 14.6326 2.5 14.5 2.5H12.8644C12.7767 2.34822 12.6508 2.22214 12.4991 2.13439C12.3474 2.04663 12.1753 2.00029 12 2H11C10.8247 2.00029 10.6526 2.04663 10.5009 2.13439C10.3492 2.22214 10.2233 2.34822 10.1356 2.5H9C7.27665 2.50182 5.62441 3.18722 4.40582 4.40582C3.18722 5.62441 2.50182 7.27665 2.5 9V10.135C2.34813 10.2227 2.22199 10.3488 2.13423 10.5006C2.04647 10.6524 2.00018 10.8246 2 11V12C2.00018 12.1754 2.04647 12.3476 2.13423 12.4994C2.22199 12.6512 2.34813 12.7773 2.5 12.865V14.5C2.5 14.6326 2.55268 14.7598 2.64645 14.8536C2.74021 14.9473 2.86739 15 3 15C3.13261 15 3.25979 14.9473 3.35355 14.8536C3.44732 14.7598 3.5 14.6326 3.5 14.5V13H6.5V14.5C6.5 14.6326 6.55268 14.7598 6.64645 14.8536C6.74021 14.9473 6.86739 15 7 15C7.13261 15 7.25979 14.9473 7.35355 14.8536C7.44732 14.7598 7.5 14.6326 7.5 14.5V12.865C7.65187 12.7773 7.77801 12.6512 7.86577 12.4994C7.95353 12.3476 7.99982 12.1754 8 12V11C7.99982 10.8246 7.95353 10.6524 7.86577 10.5006C7.77801 10.3488 7.65187 10.2227 7.5 10.135V9C7.5 8.60218 7.65804 8.22064 7.93934 7.93934C8.22064 7.65804 8.60218 7.5 9 7.5H10.1356C10.2233 7.65178 10.3492 7.77786 10.5009 7.86561C10.6526 7.95337 10.8247 7.99971 11 8H12C12.1753 7.99971 12.3474 7.95337 12.4991 7.86561C12.6508 7.77786 12.7767 7.65178 12.8644 7.5H14.5C14.6326 7.5 14.7598 7.44732 14.8536 7.35355C14.9473 7.25979 15 7.13261 15 7C15 6.86739 14.9473 6.74021 14.8536 6.64645C14.7598 6.55268 14.6326 6.5 14.5 6.5ZM7 12H3V11H7V12ZM11 7V3H12V6.9875C12 6.99188 12 6.99563 12 7H11Z" fill="black"/>
</g>
<defs>
<clipPath id="clip0_5_1376">
<rect width="16" height="16" fill="white"/>
</clipPath>
</defs>
</svg>
