<svg width="16" height="16" viewBox="0 0 16 16" fill="none" xmlns="http://www.w3.org/2000/svg">
<g clip-path="url(#clip0_5_499)">
<path d="M14.7088 8.70503L13.4863 9.92691C13.4401 9.97302 13.3778 9.99926 13.3125 10H10.7075L8.70753 8.00003L10.7075 6.00003H13.3125C13.3786 6.00014 13.442 6.02644 13.4888 6.07316L14.7113 7.29503C14.8972 7.48272 15.0013 7.73636 15.0008 8.00055C15.0004 8.26473 14.8954 8.518 14.7088 8.70503ZM4.19066 5.00003H5.50003C5.63246 5.00009 5.75946 5.05269 5.85316 5.14628L8.00003 7.29253L10.1469 5.14628C10.2406 5.05269 10.3676 5.00009 10.5 5.00003H11.8125C11.862 5.00007 11.9104 4.98543 11.9515 4.95796C11.9927 4.93049 12.0247 4.89143 12.0437 4.84573C12.0626 4.80002 12.0676 4.74973 12.0579 4.7012C12.0483 4.65268 12.0244 4.60812 11.9894 4.57316L8.70816 1.29128C8.52079 1.10503 8.26734 1.00049 8.00316 1.00049C7.73897 1.00049 7.48552 1.10503 7.29816 1.29128L4.01378 4.57316C3.97878 4.60812 3.95494 4.65268 3.94527 4.7012C3.93561 4.74973 3.94056 4.80002 3.9595 4.84573C3.97844 4.89143 4.01051 4.93049 4.05166 4.95796C4.09281 4.98543 4.14118 5.00007 4.19066 5.00003ZM11.8125 11H10.5C10.3676 11 10.2406 10.9474 10.1469 10.8538L8.00003 8.70691L5.85316 10.8538C5.75946 10.9474 5.63246 11 5.50003 11H4.18753C4.13806 11 4.08968 11.0146 4.04854 11.0421C4.00739 11.0696 3.97531 11.1086 3.95638 11.1543C3.93744 11.2 3.93249 11.2503 3.94215 11.2989C3.95181 11.3474 3.97565 11.3919 4.01066 11.4269L7.29191 14.7088C7.47927 14.895 7.73272 14.9996 7.99691 14.9996C8.26109 14.9996 8.51454 14.895 8.70191 14.7088L11.9832 11.4269C12.0178 11.3923 12.0415 11.3483 12.0514 11.3004C12.0613 11.2524 12.0569 11.2026 12.0387 11.1572C12.0205 11.1117 11.9894 11.0726 11.9492 11.0447C11.909 11.0167 11.8615 11.0012 11.8125 11ZM7.29628 8.00003L5.29628 6.00003H2.68753C2.62142 6.00014 2.55805 6.02644 2.51128 6.07316L1.29128 7.29503C1.10503 7.48239 1.00049 7.73585 1.00049 8.00003C1.00049 8.26422 1.10503 8.51767 1.29128 8.70503L2.51378 9.92691C2.55994 9.97302 2.62229 9.99926 2.68753 10H5.29253L7.29628 8.00003Z" fill="black"/>
</g>
<defs>
<clipPath id="clip0_5_499">
<rect width="16" height="16" fill="white"/>
</clipPath>
</defs>
</svg>
