<svg width="16" height="16" viewBox="0 0 16 16" fill="none" xmlns="http://www.w3.org/2000/svg">
<g clip-path="url(#clip0_5_1370)">
<path d="M14.9713 3.93748C14.9405 3.80948 14.8846 3.68887 14.8068 3.58266C14.729 3.47644 14.6309 3.38673 14.5182 3.31873C12.552 2.12935 10.2979 1.50061 8.00005 1.50061C5.70216 1.50061 3.44806 2.12935 1.48192 3.31873C1.36952 3.3869 1.27166 3.47656 1.19395 3.58259C1.11623 3.68861 1.06018 3.80892 1.02901 3.93663C0.997837 4.06434 0.992151 4.19695 1.01228 4.32686C1.0324 4.45677 1.07794 4.58143 1.1463 4.69373L7.1463 14.5231C7.23543 14.67 7.36094 14.7915 7.5107 14.8759C7.66046 14.9602 7.82943 15.0045 8.0013 15.0045C8.17317 15.0045 8.34213 14.9602 8.4919 14.8759C8.64166 14.7915 8.76716 14.67 8.8563 14.5231L14.8563 4.69373C14.9247 4.58163 14.9701 4.45702 14.9899 4.32717C15.0096 4.19733 15.0033 4.06485 14.9713 3.93748ZM11.5275 8.2206C10.9718 7.96835 10.343 7.92811 9.75961 8.10746C9.17624 8.28681 8.67863 8.67337 8.36058 9.19425C8.04253 9.71515 7.92601 10.3344 8.03298 10.9353C8.13995 11.5361 8.46302 12.0771 8.9413 12.4562L8.00005 14L6.0313 10.7768C6.35452 10.6312 6.64307 10.4185 6.87779 10.1528C7.11251 9.88708 7.28804 9.57451 7.39273 9.23579C7.49741 8.89708 7.52886 8.53997 7.48499 8.18817C7.44111 7.83637 7.32291 7.49793 7.13824 7.1953C6.95356 6.89268 6.70663 6.63279 6.41384 6.43289C6.12105 6.23299 5.78909 6.09765 5.43999 6.03585C5.0909 5.97405 4.73265 5.98721 4.38903 6.07445C4.0454 6.16169 3.72426 6.32101 3.44692 6.54185L3.05005 5.89123C4.54069 4.98131 6.25332 4.4999 7.99974 4.4999C9.74615 4.4999 11.4588 4.98131 12.9494 5.89123L11.5275 8.2206Z" fill="black"/>
</g>
<defs>
<clipPath id="clip0_5_1370">
<rect width="16" height="16" fill="white"/>
</clipPath>
</defs>
</svg>
