<svg width="16" height="16" viewBox="0 0 16 16" fill="none" xmlns="http://www.w3.org/2000/svg">
<g clip-path="url(#clip0_5_498)">
<path d="M13 2H3C2.73478 2 2.48043 2.10536 2.29289 2.29289C2.10536 2.48043 2 2.73478 2 3V13C2 13.2652 2.10536 13.5196 2.29289 13.7071C2.48043 13.8946 2.73478 14 3 14H13C13.2652 14 13.5196 13.8946 13.7071 13.7071C13.8946 13.5196 14 13.2652 14 13V3C14 2.73478 13.8946 2.48043 13.7071 2.29289C13.5196 2.10536 13.2652 2 13 2ZM11.7069 11.7069C11.6131 11.8006 11.486 11.8532 11.3534 11.8532C11.2209 11.8532 11.0938 11.8006 11 11.7069L4.29313 5C4.20332 4.90547 4.15399 4.77959 4.15566 4.64921C4.15732 4.51883 4.20986 4.39426 4.30206 4.30206C4.39426 4.20986 4.51883 4.15732 4.64921 4.15566C4.77959 4.15399 4.90547 4.20332 5 4.29313L11.7069 11C11.8006 11.0938 11.8532 11.2209 11.8532 11.3534C11.8532 11.486 11.8006 11.6131 11.7069 11.7069Z" fill="black"/>
</g>
<defs>
<clipPath id="clip0_5_498">
<rect width="16" height="16" fill="white"/>
</clipPath>
</defs>
</svg>
