<svg width="16" height="16" viewBox="0 0 16 16" fill="none" xmlns="http://www.w3.org/2000/svg">
<g clip-path="url(#clip0_5_496)">
<path d="M15.3194 3.79253C14.8413 2.96815 13.5788 2.78253 11.6632 3.25128C10.7236 2.52755 9.5906 2.09851 8.40732 2.01836C7.22403 1.93821 6.04353 2.21053 5.01493 2.80094C3.98634 3.39135 3.15579 4.27335 2.62819 5.33553C2.1006 6.39772 1.89963 7.59244 2.05068 8.76878C0.318177 10.5625 0.343176 11.625 0.681301 12.2075C1.00005 12.76 1.66505 13 2.54005 13C3.14756 12.9875 3.7515 12.9036 4.33943 12.75C5.2789 13.4732 6.41155 13.9018 7.5944 13.9817C8.77725 14.0617 9.95728 13.7895 10.9855 13.1994C12.0138 12.6093 12.8442 11.7278 13.3719 10.6662C13.8997 9.60454 14.101 8.41038 13.9507 7.2344C14.7326 6.4219 15.2526 5.65003 15.4294 4.9894C15.5519 4.5319 15.5151 4.1294 15.3194 3.79253ZM14.4638 4.73003C14.0819 6.15378 11.4232 8.3119 8.9938 9.70753C4.75568 12.145 1.89255 12.3025 1.5463 11.7075C1.45505 11.5507 1.50568 11.255 1.68505 10.895C1.86271 10.5581 2.07828 10.2425 2.32755 9.9544C2.43314 10.2599 2.56336 10.5563 2.71693 10.8407C2.74034 10.8854 2.77675 10.922 2.82138 10.9457C2.866 10.9693 2.91675 10.9789 2.96693 10.9732C3.32451 10.9291 3.67852 10.8597 4.0263 10.7657C5.35318 10.4188 6.94068 9.73565 8.4963 8.8419C10.0519 7.94815 11.4338 6.92565 12.3994 5.95753C12.6535 5.7062 12.8897 5.43742 13.1063 5.15315C13.1364 5.11264 13.1535 5.06397 13.1554 5.01355C13.1573 4.96313 13.1439 4.91331 13.1169 4.87065C12.9485 4.59627 12.7583 4.33585 12.5482 4.0919C13.4363 3.94503 14.2588 3.95628 14.4544 4.2944C14.5119 4.39253 14.5151 4.5394 14.4638 4.73065V4.73003Z" fill="black"/>
</g>
<defs>
<clipPath id="clip0_5_496">
<rect width="16" height="16" fill="white"/>
</clipPath>
</defs>
</svg>
