<svg width="16" height="16" viewBox="0 0 16 16" fill="none" xmlns="http://www.w3.org/2000/svg">
<g clip-path="url(#clip0_5_494)">
<path d="M12.8381 9.94183C12.2387 10.3062 11.5503 10.4978 10.8488 10.4956C10.2611 10.4909 9.68007 10.3707 9.13877 10.1418C8.72159 10.7308 8.49832 11.4351 8.50002 12.1568V14C8.50017 14.0685 8.48623 14.1363 8.45906 14.1993C8.43188 14.2622 8.39206 14.3189 8.34207 14.3658C8.29207 14.4126 8.23297 14.4488 8.16843 14.4718C8.10389 14.4949 8.03529 14.5045 7.9669 14.5C7.83838 14.4888 7.71884 14.4294 7.63226 14.3338C7.54567 14.2382 7.49843 14.1133 7.50002 13.9843V13.2068L5.08627 10.7931C4.72746 10.9269 4.34798 10.997 3.96502 11C3.43782 11.0013 2.92048 10.857 2.47002 10.5831C1.10815 9.75558 0.375023 7.85121 0.516898 5.48683C0.524042 5.36451 0.575853 5.24907 0.662494 5.16243C0.749136 5.07579 0.864577 5.02398 0.986898 5.01683C3.35127 4.87746 5.25565 5.60808 6.08065 6.96996C6.40478 7.50376 6.54629 8.12859 6.48377 8.74996C6.47989 8.7981 6.46214 8.84409 6.43267 8.88236C6.40321 8.92063 6.36329 8.94954 6.31774 8.96561C6.27219 8.98167 6.22296 8.9842 6.176 8.97288C6.12905 8.96156 6.08638 8.93688 6.05315 8.90183L4.85315 7.64558C4.75862 7.55577 4.63274 7.50644 4.50236 7.50811C4.37198 7.50978 4.24741 7.56232 4.15521 7.65452C4.06301 7.74672 4.01047 7.87129 4.0088 8.00167C4.00713 8.13205 4.05646 8.25793 4.14627 8.35246L7.51377 11.8056C7.51752 11.7568 7.5219 11.7081 7.5269 11.66C7.63624 10.7329 8.0453 9.86695 8.6919 9.19371L11.8538 5.85246C11.9476 5.75872 12.0003 5.63155 12.0004 5.49893C12.0005 5.3663 11.9478 5.23909 11.8541 5.14527C11.7603 5.05145 11.6332 4.99871 11.5006 4.99865C11.3679 4.99859 11.2407 5.05122 11.1469 5.14496L8.0844 8.38371C8.05374 8.41618 8.01495 8.43984 7.97205 8.45225C7.92916 8.46465 7.88372 8.46534 7.84047 8.45424C7.79721 8.44314 7.75773 8.42065 7.7261 8.38913C7.69448 8.3576 7.67188 8.31818 7.66065 8.27496C7.3644 7.18246 7.49502 6.09496 8.06065 5.16121C9.1769 3.31871 11.7744 2.33246 15.0094 2.52246C15.1317 2.5296 15.2472 2.58141 15.3338 2.66805C15.4204 2.7547 15.4723 2.87014 15.4794 2.99246C15.6669 6.22808 14.6806 8.82558 12.8381 9.94183Z" fill="black"/>
</g>
<defs>
<clipPath id="clip0_5_494">
<rect width="16" height="16" fill="white"/>
</clipPath>
</defs>
</svg>
