<svg width="16" height="16" viewBox="0 0 16 16" fill="none" xmlns="http://www.w3.org/2000/svg">
<g clip-path="url(#clip0_5_486)">
<path d="M13 2H3C2.73478 2 2.48043 2.10536 2.29289 2.29289C2.10536 2.48043 2 2.73478 2 3V13C2 13.2652 2.10536 13.5196 2.29289 13.7071C2.48043 13.8946 2.73478 14 3 14H13C13.2652 14 13.5196 13.8946 13.7071 13.7071C13.8946 13.5196 14 13.2652 14 13V3C14 2.73478 13.8946 2.48043 13.7071 2.29289C13.5196 2.10536 13.2652 2 13 2ZM4 4.5H12C12.1326 4.5 12.2598 4.55268 12.3536 4.64645C12.4473 4.74021 12.5 4.86739 12.5 5C12.5 5.13261 12.4473 5.25979 12.3536 5.35355C12.2598 5.44732 12.1326 5.5 12 5.5H4C3.86739 5.5 3.74021 5.44732 3.64645 5.35355C3.55268 5.25979 3.5 5.13261 3.5 5C3.5 4.86739 3.55268 4.74021 3.64645 4.64645C3.74021 4.55268 3.86739 4.5 4 4.5ZM4 7.5H8.5C8.63261 7.5 8.75979 7.55268 8.85355 7.64645C8.94732 7.74021 9 7.86739 9 8C9 8.13261 8.94732 8.25979 8.85355 8.35355C8.75979 8.44732 8.63261 8.5 8.5 8.5H4C3.86739 8.5 3.74021 8.44732 3.64645 8.35355C3.55268 8.25979 3.5 8.13261 3.5 8C3.5 7.86739 3.55268 7.74021 3.64645 7.64645C3.74021 7.55268 3.86739 7.5 4 7.5ZM6.5 11.5H4C3.86739 11.5 3.74021 11.4473 3.64645 11.3536C3.55268 11.2598 3.5 11.1326 3.5 11C3.5 10.8674 3.55268 10.7402 3.64645 10.6464C3.74021 10.5527 3.86739 10.5 4 10.5H6.5C6.63261 10.5 6.75979 10.5527 6.85355 10.6464C6.94732 10.7402 7 10.8674 7 11C7 11.1326 6.94732 11.2598 6.85355 11.3536C6.75979 11.4473 6.63261 11.5 6.5 11.5ZM12.9744 8.15812C12.9536 8.22042 12.9208 8.27802 12.8778 8.32763C12.8347 8.37724 12.7824 8.41789 12.7236 8.44726C12.6649 8.47662 12.601 8.49413 12.5354 8.49879C12.4699 8.50344 12.4042 8.49514 12.3419 8.47437L11.5 8.19375V11C11.5001 11.3184 11.3989 11.6286 11.2109 11.8857C11.023 12.1428 10.7581 12.3334 10.4547 12.4299C10.1512 12.5264 9.82494 12.5239 9.52303 12.4226C9.22113 12.3214 8.95928 12.1266 8.77539 11.8667C8.5915 11.6067 8.49512 11.295 8.50019 10.9766C8.50526 10.6582 8.61153 10.3497 8.80361 10.0957C8.99569 9.84169 9.26361 9.65543 9.56859 9.56384C9.87356 9.47226 10.1998 9.48011 10.5 9.58625V7.5C10.5 7.42077 10.5188 7.34267 10.5549 7.27214C10.591 7.20162 10.6434 7.14068 10.7076 7.09435C10.7719 7.04802 10.8463 7.01763 10.9246 7.00568C11.0029 6.99373 11.083 7.00057 11.1581 7.02563L12.6581 7.52563C12.7204 7.54639 12.778 7.57922 12.8276 7.62224C12.8772 7.66526 12.9179 7.71764 12.9473 7.77637C12.9766 7.83511 12.9941 7.89905 12.9988 7.96455C13.0034 8.03005 12.9951 8.09583 12.9744 8.15812Z" fill="black"/>
</g>
<defs>
<clipPath id="clip0_5_486">
<rect width="16" height="16" fill="white"/>
</clipPath>
</defs>
</svg>
