<svg width="16" height="16" viewBox="0 0 16 16" fill="none" xmlns="http://www.w3.org/2000/svg">
<g clip-path="url(#clip0_5_488)">
<path d="M11.5 4V12C11.5 12.1326 11.4473 12.2598 11.3536 12.3536C11.2598 12.4473 11.1326 12.5 11 12.5C10.8674 12.5 10.7402 12.4473 10.6464 12.3536C10.5527 12.2598 10.5 12.1326 10.5 12V4C10.5 3.86739 10.5527 3.74021 10.6464 3.64645C10.7402 3.55268 10.8674 3.5 11 3.5C11.1326 3.5 11.2598 3.55268 11.3536 3.64645C11.4473 3.74021 11.5 3.86739 11.5 4ZM14 3.5C13.8674 3.5 13.7402 3.55268 13.6464 3.64645C13.5527 3.74021 13.5 3.86739 13.5 4V12C13.5 12.1326 13.5527 12.2598 13.6464 12.3536C13.7402 12.4473 13.8674 12.5 14 12.5C14.1326 12.5 14.2598 12.4473 14.3536 12.3536C14.4473 12.2598 14.5 12.1326 14.5 12V4C14.5 3.86739 14.4473 3.74021 14.3536 3.64645C14.2598 3.55268 14.1326 3.5 14 3.5ZM8.54187 7.16625L3.03 3.65687C2.88001 3.56098 2.70703 3.50711 2.52911 3.50089C2.3512 3.49467 2.17488 3.53632 2.01856 3.62151C1.86224 3.70669 1.73165 3.83228 1.64044 3.98516C1.54922 4.13804 1.50072 4.3126 1.5 4.49062V11.5094C1.50041 11.6865 1.54835 11.8603 1.63883 12.0125C1.72931 12.1648 1.859 12.29 2.01437 12.375C2.17108 12.4611 2.34804 12.5034 2.52673 12.4976C2.70541 12.4917 2.87924 12.438 3.03 12.3419L8.54187 8.8325C8.6823 8.74337 8.79795 8.62022 8.87807 8.47446C8.9582 8.32871 9.00021 8.16508 9.00021 7.99875C9.00021 7.83242 8.9582 7.66879 8.87807 7.52304C8.79795 7.37728 8.6823 7.25413 8.54187 7.165V7.16625Z" fill="black"/>
</g>
<defs>
<clipPath id="clip0_5_488">
<rect width="16" height="16" fill="white"/>
</clipPath>
</defs>
</svg>
