<svg width="16" height="16" viewBox="0 0 16 16" fill="none" xmlns="http://www.w3.org/2000/svg">
<g clip-path="url(#clip0_5_490)">
<path d="M15 7.99995C15.0004 8.16971 14.9569 8.3367 14.8736 8.48466C14.7904 8.63262 14.6703 8.75653 14.525 8.84432L5.52 14.3531C5.36818 14.446 5.19429 14.4968 5.0163 14.5001C4.83831 14.5034 4.66266 14.4591 4.5075 14.3718C4.35382 14.2859 4.2258 14.1606 4.1366 14.0088C4.04741 13.857 4.00026 13.6841 4 13.5081V2.49182C4.00026 2.31575 4.04741 2.14292 4.1366 1.99112C4.2258 1.83931 4.35382 1.714 4.5075 1.62807C4.66266 1.54079 4.83831 1.49651 5.0163 1.49981C5.19429 1.5031 5.36818 1.55385 5.52 1.64682L14.525 7.15557C14.6703 7.24337 14.7904 7.36727 14.8736 7.51523C14.9569 7.66319 15.0004 7.83018 15 7.99995Z" fill="black"/>
</g>
<defs>
<clipPath id="clip0_5_490">
<rect width="16" height="16" fill="white"/>
</clipPath>
</defs>
</svg>
