<svg width="16" height="16" viewBox="0 0 16 16" fill="none" xmlns="http://www.w3.org/2000/svg">
<g clip-path="url(#clip0_5_481)">
<path d="M5.53561 2.18747C5.48588 2.06431 5.48711 1.92644 5.53904 1.80419C5.59096 1.68194 5.68932 1.58532 5.81248 1.53559C5.93564 1.48587 6.07351 1.4871 6.19576 1.53902C6.31801 1.59095 6.41463 1.68931 6.46436 1.81247L6.96436 3.06247C6.98898 3.12345 7.00135 3.18869 7.00076 3.25445C7.00017 3.32021 6.98664 3.38522 6.96093 3.44575C6.93522 3.50628 6.89783 3.56116 6.85092 3.60724C6.804 3.65333 6.74846 3.68972 6.68748 3.71434C6.6265 3.73897 6.56126 3.75134 6.4955 3.75075C6.42974 3.75016 6.36473 3.73662 6.3042 3.71091C6.24367 3.6852 6.18879 3.64782 6.14271 3.6009C6.09662 3.55399 6.06023 3.49845 6.03561 3.43747L5.53561 2.18747ZM1.81248 6.46434L3.06248 6.96434C3.12346 6.98897 3.1887 7.00134 3.25446 7.00075C3.32023 7.00016 3.38523 6.98662 3.44576 6.96091C3.50629 6.9352 3.56117 6.89782 3.60725 6.8509C3.65334 6.80399 3.68973 6.74845 3.71436 6.68747C3.73898 6.62649 3.75135 6.56125 3.75076 6.49549C3.75017 6.42972 3.73664 6.36472 3.71093 6.30419C3.68522 6.24366 3.64783 6.18878 3.60092 6.14269C3.554 6.09661 3.49846 6.06022 3.43748 6.03559L2.18748 5.53559C2.06432 5.48587 1.92645 5.4871 1.8042 5.53902C1.68195 5.59095 1.58533 5.68931 1.53561 5.81247C1.48588 5.93563 1.48711 6.0735 1.53904 6.19575C1.59096 6.318 1.68932 6.41462 1.81248 6.46434ZM14.1875 9.53559L12.9375 9.03559C12.8143 8.98587 12.6765 8.9871 12.5542 9.03902C12.432 9.09095 12.3353 9.18931 12.2856 9.31247C12.2359 9.43563 12.2371 9.5735 12.289 9.69575C12.341 9.818 12.4393 9.91461 12.5625 9.96434L13.8125 10.4643C13.9356 10.5141 14.0735 10.5128 14.1958 10.4609C14.318 10.409 14.4146 10.3106 14.4644 10.1875C14.5141 10.0643 14.5128 9.92644 14.4609 9.80419C14.409 9.68194 14.3106 9.58532 14.1875 9.53559ZM9.96436 12.5625C9.91463 12.4393 9.81801 12.3409 9.69576 12.289C9.57351 12.2371 9.43564 12.2359 9.31248 12.2856C9.18932 12.3353 9.09096 12.4319 9.03904 12.5542C8.98711 12.6764 8.98588 12.8143 9.03561 12.9375L9.53561 14.1875C9.58533 14.3106 9.68195 14.409 9.8042 14.4609C9.92645 14.5128 10.0643 14.5141 10.1875 14.4643C10.3106 14.4146 10.409 14.318 10.4609 14.1957C10.5128 14.0735 10.5141 13.9356 10.4644 13.8125L9.96436 12.5625ZM14.8694 1.15747C14.8235 1.10853 14.7683 1.06932 14.7069 1.04218C14.6456 1.01503 14.5794 1.0005 14.5124 0.999451C14.4453 0.998401 14.3787 1.01085 14.3166 1.03607C14.2544 1.06128 14.198 1.09874 14.1506 1.14622L10.875 4.42184L10.5387 4.08559C10.353 3.89964 10.1324 3.75212 9.88961 3.65147C9.64682 3.55083 9.38656 3.49902 9.12373 3.49902C8.8609 3.49902 8.60065 3.55083 8.35785 3.65147C8.11505 3.75212 7.89448 3.89964 7.70873 4.08559L6.63373 5.15872C6.61049 5.18194 6.59205 5.20951 6.57947 5.23986C6.56688 5.27021 6.56041 5.30274 6.56041 5.33559C6.56041 5.36845 6.56688 5.40098 6.57947 5.43133C6.59205 5.46168 6.61049 5.48925 6.63373 5.51247L10.49 9.36622C10.5132 9.38946 10.5408 9.4079 10.5711 9.42048C10.6015 9.43306 10.634 9.43954 10.6669 9.43954C10.6997 9.43954 10.7322 9.43306 10.7626 9.42048C10.7929 9.4079 10.8205 9.38946 10.8437 9.36622L11.89 8.31997C12.2692 7.94808 12.489 7.4434 12.5031 6.91247C12.5083 6.64406 12.4591 6.37738 12.3584 6.1285C12.2578 5.87962 12.1078 5.6537 11.9175 5.46434L11.5812 5.12872L14.8437 1.86809C14.9388 1.77581 14.9946 1.65035 14.9994 1.51793C15.0041 1.38551 14.9576 1.25636 14.8694 1.15747ZM5.35248 5.64622C5.30512 5.59884 5.24872 5.56146 5.18663 5.5363C5.12453 5.51115 5.05802 5.49872 4.99104 5.49977C4.92405 5.50082 4.85796 5.51532 4.79669 5.54241C4.73542 5.5695 4.68021 5.60863 4.63436 5.65747C4.54616 5.75636 4.49958 5.88551 4.50436 6.01793C4.50913 6.15035 4.56489 6.27581 4.65998 6.36809L5.04186 6.74997L4.08373 7.70684C3.89384 7.89628 3.74424 8.12218 3.64392 8.37094C3.5436 8.61969 3.49464 8.88617 3.49998 9.15434C3.51318 9.68515 3.73213 10.1901 4.11061 10.5625L4.42311 10.8712L1.15561 14.1331C1.06341 14.2229 1.00832 14.344 1.00126 14.4725C0.9942 14.601 1.03568 14.7275 1.11748 14.8268C1.1624 14.879 1.21759 14.9212 1.27961 14.951C1.34162 14.9808 1.40911 14.9975 1.47787 15.0001C1.54662 15.0026 1.61516 14.9909 1.67919 14.9657C1.74322 14.9405 1.80136 14.9024 1.84998 14.8537L5.12498 11.5781L5.46061 11.9143C5.83658 12.2886 6.34545 12.4986 6.87592 12.4986C7.40638 12.4986 7.91526 12.2886 8.29123 11.9143L9.24998 10.9568L9.64623 11.3537C9.69269 11.4002 9.74784 11.437 9.80853 11.4622C9.86923 11.4873 9.93428 11.5002 9.99998 11.5002C10.0657 11.5002 10.1307 11.4873 10.1914 11.4622C10.2521 11.437 10.3073 11.4002 10.3537 11.3537C10.4002 11.3073 10.437 11.2521 10.4622 11.1914C10.4873 11.1307 10.5003 11.0657 10.5003 11C10.5003 10.9343 10.4873 10.8692 10.4622 10.8085C10.437 10.7478 10.4002 10.6927 10.3537 10.6462L5.35248 5.64622Z" fill="black"/>
</g>
<defs>
<clipPath id="clip0_5_481">
<rect width="16" height="16" fill="white"/>
</clipPath>
</defs>
</svg>
