<svg width="16" height="16" viewBox="0 0 16 16" fill="none" xmlns="http://www.w3.org/2000/svg">
<g clip-path="url(#clip0_5_479)">
<path d="M9.35378 9.35378L8.20691 10.5L9.35378 11.6463C9.40024 11.6927 9.43709 11.7479 9.46223 11.8086C9.48737 11.8693 9.50031 11.9343 9.50031 12C9.50031 12.0657 9.48737 12.1308 9.46223 12.1915C9.43709 12.2522 9.40024 12.3073 9.35378 12.3538C9.30733 12.4002 9.25218 12.4371 9.19148 12.4622C9.13079 12.4874 9.06573 12.5003 9.00003 12.5003C8.93434 12.5003 8.86928 12.4874 8.80859 12.4622C8.74789 12.4371 8.69274 12.4002 8.64628 12.3538L8.25003 11.9569L6.79316 13.4144C6.41759 13.7887 5.90899 13.9988 5.37878 13.9988C4.84858 13.9988 4.33998 13.7887 3.96441 13.4144L3.62878 13.0782L1.85378 14.8538C1.80733 14.9002 1.75218 14.9371 1.69148 14.9622C1.63079 14.9874 1.56573 15.0003 1.50003 15.0003C1.43434 15.0003 1.36928 14.9874 1.30859 14.9622C1.24789 14.9371 1.19274 14.9002 1.14628 14.8538C1.09983 14.8073 1.06298 14.7522 1.03784 14.6915C1.0127 14.6308 0.999756 14.5657 0.999756 14.5C0.999756 14.4343 1.0127 14.3693 1.03784 14.3086C1.06298 14.2479 1.09983 14.1927 1.14628 14.1463L2.92191 12.3713L2.58566 12.0357C2.39989 11.8499 2.25253 11.6294 2.152 11.3867C2.05146 11.1441 1.99971 10.884 1.99971 10.6213C1.99971 10.3586 2.05146 10.0985 2.152 9.8558C2.25253 9.61312 2.39989 9.39262 2.58566 9.2069L4.04316 7.75003L3.64628 7.35378C3.55246 7.25996 3.49976 7.13271 3.49976 7.00003C3.49976 6.86735 3.55246 6.7401 3.64628 6.64628C3.7401 6.55246 3.86735 6.49975 4.00003 6.49975C4.13272 6.49975 4.25996 6.55246 4.35378 6.64628L5.50003 7.79315L6.64628 6.64628C6.7401 6.55246 6.86735 6.49975 7.00003 6.49975C7.13272 6.49975 7.25996 6.55246 7.35378 6.64628C7.4476 6.7401 7.50031 6.86735 7.50031 7.00003C7.50031 7.13271 7.4476 7.25996 7.35378 7.35378L6.20691 8.50003L7.50003 9.79315L8.64628 8.64628C8.7401 8.55246 8.86735 8.49975 9.00003 8.49975C9.13272 8.49975 9.25996 8.55246 9.35378 8.64628C9.44761 8.7401 9.50031 8.86734 9.50031 9.00003C9.50031 9.13271 9.44761 9.25996 9.35378 9.35378ZM14.8538 1.14628C14.8073 1.09979 14.7522 1.06291 14.6915 1.03775C14.6308 1.01259 14.5657 0.999634 14.5 0.999634C14.4343 0.999634 14.3693 1.01259 14.3086 1.03775C14.2479 1.06291 14.1927 1.09979 14.1463 1.14628L12.3713 2.9219L12.0357 2.58565C11.6602 2.21124 11.1515 2.001 10.6213 2.001C10.091 2.001 9.5824 2.21124 9.20691 2.58565L7.75003 4.04315L7.35378 3.64628C7.25996 3.55246 7.13272 3.49975 7.00003 3.49975C6.86735 3.49975 6.7401 3.55246 6.64628 3.64628C6.55246 3.7401 6.49976 3.86735 6.49976 4.00003C6.49976 4.13271 6.55246 4.25996 6.64628 4.35378L11.6463 9.35378C11.6927 9.40023 11.7479 9.43708 11.8086 9.46222C11.8693 9.48736 11.9343 9.50031 12 9.50031C12.0657 9.50031 12.1308 9.48736 12.1915 9.46222C12.2522 9.43708 12.3073 9.40023 12.3538 9.35378C12.4002 9.30732 12.4371 9.25217 12.4622 9.19147C12.4874 9.13078 12.5003 9.06572 12.5003 9.00003C12.5003 8.93433 12.4874 8.86928 12.4622 8.80858C12.4371 8.74788 12.4002 8.69273 12.3538 8.64628L11.9569 8.25003L13.4144 6.79315C13.6002 6.60743 13.7475 6.38693 13.8481 6.14425C13.9486 5.90157 14.0004 5.64146 14.0004 5.37878C14.0004 5.1161 13.9486 4.85599 13.8481 4.6133C13.7475 4.37062 13.6002 4.15013 13.4144 3.9644L13.0782 3.62878L14.8538 1.85378C14.9003 1.80734 14.9372 1.7522 14.9623 1.6915C14.9875 1.6308 15.0004 1.56573 15.0004 1.50003C15.0004 1.43432 14.9875 1.36926 14.9623 1.30856C14.9372 1.24786 14.9003 1.19271 14.8538 1.14628Z" fill="black"/>
</g>
<defs>
<clipPath id="clip0_5_479">
<rect width="16" height="16" fill="white"/>
</clipPath>
</defs>
</svg>
