<svg width="16" height="16" viewBox="0 0 16 16" fill="none" xmlns="http://www.w3.org/2000/svg">
<g clip-path="url(#clip0_5_483)">
<path d="M14.8538 4.85378L12.7069 7.00003L14.3538 8.64628C14.4002 8.69274 14.4371 8.74789 14.4622 8.80859C14.4874 8.86928 14.5003 8.93434 14.5003 9.00003C14.5003 9.06573 14.4874 9.13079 14.4622 9.19148C14.4371 9.25218 14.4002 9.30733 14.3538 9.35378C14.3073 9.40024 14.2522 9.43709 14.1915 9.46223C14.1308 9.48737 14.0657 9.50031 14 9.50031C13.9343 9.50031 13.8693 9.48737 13.8086 9.46223C13.7479 9.43709 13.6927 9.40024 13.6463 9.35378L13.25 8.95691L9.93753 12.2694C9.70539 12.5016 9.42978 12.6857 9.12646 12.8114C8.82314 12.937 8.49804 13.0017 8.16972 13.0017C7.84141 13.0017 7.51631 12.937 7.21298 12.8114C6.90966 12.6857 6.63406 12.5016 6.40191 12.2694L5.42191 11.2857L2.35378 14.3538C2.30733 14.4002 2.25218 14.4371 2.19148 14.4622C2.13079 14.4874 2.06573 14.5003 2.00003 14.5003C1.93434 14.5003 1.86928 14.4874 1.80859 14.4622C1.74789 14.4371 1.69274 14.4002 1.64628 14.3538C1.59983 14.3073 1.56298 14.2522 1.53784 14.1915C1.5127 14.1308 1.49976 14.0657 1.49976 14C1.49976 13.9343 1.5127 13.8693 1.53784 13.8086C1.56298 13.7479 1.59983 13.6927 1.64628 13.6463L4.71441 10.5782L3.73253 9.59628C3.50037 9.36414 3.31621 9.08853 3.19057 8.78521C3.06492 8.48189 3.00026 8.15679 3.00026 7.82847C3.00026 7.50016 3.06492 7.17506 3.19057 6.87173C3.31621 6.56841 3.50037 6.29281 3.73253 6.06066L7.04503 2.74816L6.64816 2.35191C6.55434 2.25809 6.50163 2.13084 6.50163 1.99816C6.50163 1.86548 6.55434 1.73823 6.64816 1.64441C6.74198 1.55059 6.86923 1.49788 7.00191 1.49788C7.13459 1.49788 7.26184 1.55059 7.35566 1.64441L9.00003 3.29316L11.1463 1.14628C11.2401 1.05246 11.3674 0.999756 11.5 0.999756C11.6327 0.999756 11.76 1.05246 11.8538 1.14628C11.9476 1.2401 12.0003 1.36735 12.0003 1.50003C12.0003 1.63272 11.9476 1.75996 11.8538 1.85378L9.70691 4.00003L12 6.29316L14.1463 4.14628C14.2401 4.05246 14.3674 3.99976 14.5 3.99976C14.6327 3.99976 14.76 4.05246 14.8538 4.14628C14.9476 4.2401 15.0003 4.36735 15.0003 4.50003C15.0003 4.63272 14.9476 4.75996 14.8538 4.85378Z" fill="black"/>
</g>
<defs>
<clipPath id="clip0_5_483">
<rect width="16" height="16" fill="white"/>
</clipPath>
</defs>
</svg>
