<svg width="16" height="16" viewBox="0 0 16 16" fill="none" xmlns="http://www.w3.org/2000/svg">
<g clip-path="url(#clip0_5_474)">
<path d="M13 2H3C2.73478 2 2.48043 2.10536 2.29289 2.29289C2.10536 2.48043 2 2.73478 2 3V13C2 13.2652 2.10536 13.5196 2.29289 13.7071C2.48043 13.8946 2.73478 14 3 14H13C13.2652 14 13.5196 13.8946 13.7071 13.7071C13.8946 13.5196 14 13.2652 14 13V3C14 2.73478 13.8946 2.48043 13.7071 2.29289C13.5196 2.10536 13.2652 2 13 2ZM3.5 6C3.5 5.86739 3.55268 5.74021 3.64645 5.64645C3.74021 5.55268 3.86739 5.5 4 5.5H5V4.5C5 4.36739 5.05268 4.24021 5.14645 4.14645C5.24021 4.05268 5.36739 4 5.5 4C5.63261 4 5.75979 4.05268 5.85355 4.14645C5.94732 4.24021 6 4.36739 6 4.5V5.5H7C7.13261 5.5 7.25979 5.55268 7.35355 5.64645C7.44732 5.74021 7.5 5.86739 7.5 6C7.5 6.13261 7.44732 6.25979 7.35355 6.35355C7.25979 6.44732 7.13261 6.5 7 6.5H6V7.5C6 7.63261 5.94732 7.75979 5.85355 7.85355C5.75979 7.94732 5.63261 8 5.5 8C5.36739 8 5.24021 7.94732 5.14645 7.85355C5.05268 7.75979 5 7.63261 5 7.5V6.5H4C3.86739 6.5 3.74021 6.44732 3.64645 6.35355C3.55268 6.25979 3.5 6.13261 3.5 6ZM5 12C4.90105 12.0001 4.80431 11.9708 4.72201 11.9159C4.63971 11.8609 4.57556 11.7828 4.53769 11.6914C4.49981 11.6 4.48991 11.4994 4.50924 11.4023C4.52856 11.3053 4.57624 11.2162 4.64625 11.1462L10.6462 5.14625C10.6927 5.09979 10.7479 5.06294 10.8086 5.0378C10.8692 5.01266 10.9343 4.99972 11 4.99972C11.0657 4.99972 11.1308 5.01266 11.1914 5.0378C11.2521 5.06294 11.3073 5.09979 11.3538 5.14625C11.4002 5.1927 11.4371 5.24786 11.4622 5.30855C11.4873 5.36925 11.5003 5.4343 11.5003 5.5C11.5003 5.5657 11.4873 5.63075 11.4622 5.69145C11.4371 5.75214 11.4002 5.8073 11.3538 5.85375L5.35375 11.8538C5.30728 11.9002 5.25212 11.937 5.19142 11.9621C5.13073 11.9872 5.06568 12.0001 5 12ZM12 11.5H9C8.86739 11.5 8.74021 11.4473 8.64645 11.3536C8.55268 11.2598 8.5 11.1326 8.5 11C8.5 10.8674 8.55268 10.7402 8.64645 10.6464C8.74021 10.5527 8.86739 10.5 9 10.5H12C12.1326 10.5 12.2598 10.5527 12.3536 10.6464C12.4473 10.7402 12.5 10.8674 12.5 11C12.5 11.1326 12.4473 11.2598 12.3536 11.3536C12.2598 11.4473 12.1326 11.5 12 11.5Z" fill="black"/>
</g>
<defs>
<clipPath id="clip0_5_474">
<rect width="16" height="16" fill="white"/>
</clipPath>
</defs>
</svg>
