<svg width="16" height="16" viewBox="0 0 16 16" fill="none" xmlns="http://www.w3.org/2000/svg">
<g clip-path="url(#clip0_5_478)">
<path d="M8 1.5C6.71442 1.5 5.45772 1.88122 4.3888 2.59545C3.31988 3.30968 2.48676 4.32484 1.99479 5.51256C1.50282 6.70028 1.37409 8.00721 1.6249 9.26809C1.8757 10.529 2.49477 11.6872 3.40381 12.5962C4.31285 13.5052 5.47104 14.1243 6.73192 14.3751C7.99279 14.6259 9.29973 14.4972 10.4874 14.0052C11.6752 13.5132 12.6903 12.6801 13.4046 11.6112C14.1188 10.5423 14.5 9.28558 14.5 8C14.4979 6.27675 13.8123 4.6247 12.5938 3.40618C11.3753 2.18766 9.72325 1.50215 8 1.5ZM10.5 8.5H8.5V10.5C8.5 10.6326 8.44732 10.7598 8.35356 10.8536C8.25979 10.9473 8.13261 11 8 11C7.86739 11 7.74022 10.9473 7.64645 10.8536C7.55268 10.7598 7.5 10.6326 7.5 10.5V8.5H5.5C5.36739 8.5 5.24022 8.44732 5.14645 8.35355C5.05268 8.25979 5 8.13261 5 8C5 7.86739 5.05268 7.74021 5.14645 7.64645C5.24022 7.55268 5.36739 7.5 5.5 7.5H7.5V5.5C7.5 5.36739 7.55268 5.24021 7.64645 5.14645C7.74022 5.05268 7.86739 5 8 5C8.13261 5 8.25979 5.05268 8.35356 5.14645C8.44732 5.24021 8.5 5.36739 8.5 5.5V7.5H10.5C10.6326 7.5 10.7598 7.55268 10.8536 7.64645C10.9473 7.74021 11 7.86739 11 8C11 8.13261 10.9473 8.25979 10.8536 8.35355C10.7598 8.44732 10.6326 8.5 10.5 8.5Z" fill="black"/>
</g>
<defs>
<clipPath id="clip0_5_478">
<rect width="16" height="16" fill="white"/>
</clipPath>
</defs>
</svg>
