<svg width="16" height="16" viewBox="0 0 16 16" fill="none" xmlns="http://www.w3.org/2000/svg">
<g clip-path="url(#clip0_5_471)">
<path d="M8 1.5C6.71442 1.5 5.45772 1.88122 4.3888 2.59545C3.31988 3.30968 2.48676 4.32484 1.99479 5.51256C1.50282 6.70028 1.37409 8.00721 1.6249 9.26809C1.8757 10.529 2.49477 11.6872 3.40381 12.5962C4.31285 13.5052 5.47104 14.1243 6.73192 14.3751C7.99279 14.6259 9.29973 14.4972 10.4874 14.0052C11.6752 13.5132 12.6903 12.6801 13.4046 11.6112C14.1188 10.5423 14.5 9.28558 14.5 8C14.4982 6.27665 13.8128 4.62441 12.5942 3.40582C11.3756 2.18722 9.72335 1.50182 8 1.5ZM3.775 4.4825L4.84188 5.54938C4.40018 6.11447 4.11944 6.78844 4.02938 7.5H2.52313C2.62362 6.39021 3.06036 5.3375 3.775 4.4825ZM2.52313 8.5H4.0325C4.12257 9.21156 4.4033 9.88554 4.845 10.4506L3.775 11.5175C3.06036 10.6625 2.62362 9.60979 2.52313 8.5ZM7.5 13.4769C6.39042 13.3769 5.33773 12.9408 4.4825 12.2269L5.54938 11.16C6.11501 11.5999 6.78894 11.8789 7.5 11.9675V13.4769ZM7.5 4.0325C6.78845 4.12257 6.11447 4.4033 5.54938 4.845L4.4825 3.775C5.33773 3.06103 6.39042 2.62496 7.5 2.525V4.0325ZM13.4769 7.5H11.9675C11.8783 6.78875 11.5987 6.1148 11.1581 5.54938L12.225 4.4825C12.9396 5.3375 13.3764 6.39021 13.4769 7.5ZM8.5 2.52312C9.60959 2.62308 10.6623 3.05916 11.5175 3.77312L10.4506 4.84188C9.88554 4.40018 9.21156 4.11944 8.5 4.02938V2.52312ZM8.5 13.4769V11.9675C9.21125 11.8783 9.8852 11.5987 10.4506 11.1581L11.5175 12.225C10.6625 12.9396 9.6098 13.3764 8.5 13.4769ZM12.225 11.5175L11.1581 10.4506C11.5987 9.8852 11.8783 9.21125 11.9675 8.5H13.4769C13.3764 9.60979 12.9396 10.6625 12.225 11.5175Z" fill="black"/>
</g>
<defs>
<clipPath id="clip0_5_471">
<rect width="16" height="16" fill="white"/>
</clipPath>
</defs>
</svg>
