<svg width="16" height="16" viewBox="0 0 16 16" fill="none" xmlns="http://www.w3.org/2000/svg">
<g clip-path="url(#clip0_5_469)">
<path d="M6 1.5C6 1.36739 6.05268 1.24021 6.14645 1.14645C6.24021 1.05268 6.36739 1 6.5 1H9.5C9.63261 1 9.75979 1.05268 9.85355 1.14645C9.94732 1.24021 10 1.36739 10 1.5C10 1.63261 9.94732 1.75979 9.85355 1.85355C9.75979 1.94732 9.63261 2 9.5 2H6.5C6.36739 2 6.24021 1.94732 6.14645 1.85355C6.05268 1.75979 6 1.63261 6 1.5ZM15.5 7C15.5 7.13261 15.4473 7.25979 15.3536 7.35355C15.2598 7.44732 15.1326 7.5 15 7.5H14.5V12.5C14.5 12.7652 14.3946 13.0196 14.2071 13.2071C14.0196 13.3946 13.7652 13.5 13.5 13.5H12C11.7348 13.5 11.4804 13.3946 11.2929 13.2071C11.1054 13.0196 11 12.7652 11 12.5V12H5V12.5C5 12.7652 4.89464 13.0196 4.70711 13.2071C4.51957 13.3946 4.26522 13.5 4 13.5H2.5C2.23478 13.5 1.98043 13.3946 1.79289 13.2071C1.60536 13.0196 1.5 12.7652 1.5 12.5V7.5H1C0.867392 7.5 0.740215 7.44732 0.646447 7.35355C0.552678 7.25979 0.5 7.13261 0.5 7C0.5 6.86739 0.552678 6.74021 0.646447 6.64645C0.740215 6.55268 0.867392 6.5 1 6.5H1.71L3.42188 3.50375C3.50934 3.35072 3.63571 3.22354 3.78816 3.13507C3.94061 3.04661 4.11374 3.00001 4.29 3H11.71C11.8863 3.00001 12.0594 3.04661 12.2118 3.13507C12.3643 3.22354 12.4907 3.35072 12.5781 3.50375L14.29 6.5H15C15.1326 6.5 15.2598 6.55268 15.3536 6.64645C15.4473 6.74021 15.5 6.86739 15.5 7ZM5.5 9C5.5 8.86739 5.44732 8.74021 5.35355 8.64645C5.25979 8.55268 5.13261 8.5 5 8.5H3.5C3.36739 8.5 3.24021 8.55268 3.14645 8.64645C3.05268 8.74021 3 8.86739 3 9C3 9.13261 3.05268 9.25979 3.14645 9.35355C3.24021 9.44732 3.36739 9.5 3.5 9.5H5C5.13261 9.5 5.25979 9.44732 5.35355 9.35355C5.44732 9.25979 5.5 9.13261 5.5 9ZM13 9C13 8.86739 12.9473 8.74021 12.8536 8.64645C12.7598 8.55268 12.6326 8.5 12.5 8.5H11C10.8674 8.5 10.7402 8.55268 10.6464 8.64645C10.5527 8.74021 10.5 8.86739 10.5 9C10.5 9.13261 10.5527 9.25979 10.6464 9.35355C10.7402 9.44732 10.8674 9.5 11 9.5H12.5C12.6326 9.5 12.7598 9.44732 12.8536 9.35355C12.9473 9.25979 13 9.13261 13 9ZM13.1381 6.5L11.71 4H4.29L2.86188 6.5H13.1381Z" fill="black"/>
</g>
<defs>
<clipPath id="clip0_5_469">
<rect width="16" height="16" fill="white"/>
</clipPath>
</defs>
</svg>
