<svg width="16" height="16" viewBox="0 0 16 16" fill="none" xmlns="http://www.w3.org/2000/svg">
<g clip-path="url(#clip0_5_467)">
<path d="M14.2381 3.26188C14.0756 3.09936 13.8826 2.97044 13.6703 2.88248C13.458 2.79452 13.2304 2.74925 13.0006 2.74925C12.7707 2.74925 12.5432 2.79452 12.3308 2.88248C12.1185 2.97044 11.9256 3.09936 11.7631 3.26188C11.6681 3.35619 11.5842 3.46104 11.5131 3.57438L9.24995 2.95813C9.24199 2.6155 9.1336 2.28275 8.93823 2.00117C8.74286 1.71959 8.46911 1.50158 8.15094 1.37418C7.83278 1.24678 7.48422 1.21561 7.1485 1.28453C6.81278 1.35345 6.50469 1.51943 6.26245 1.76188C6.00696 2.01726 5.83677 2.34546 5.77522 2.70142C5.71367 3.05738 5.76379 3.42366 5.9187 3.75L3.4112 6.00625C3.07612 5.80168 2.68198 5.71572 2.29214 5.7622C1.90231 5.80867 1.53942 5.98489 1.26183 6.2625C0.948648 6.57606 0.766092 6.99675 0.751014 7.43966C0.735936 7.88257 0.889458 8.31471 1.18059 8.64883C1.47172 8.98296 1.87877 9.19419 2.31958 9.23988C2.76038 9.28557 3.20211 9.16232 3.55558 8.895L8.35245 12.4125C8.2472 12.7075 8.22304 13.0253 8.2825 13.3328C8.34195 13.6403 8.48284 13.9262 8.69047 14.1607C8.89809 14.3952 9.16484 14.5697 9.46288 14.6659C9.76092 14.7622 10.0793 14.7767 10.3849 14.7079C10.6904 14.6391 10.9719 14.4896 11.2 14.275C11.4281 14.0603 11.5944 13.7884 11.6815 13.4876C11.7687 13.1868 11.7735 12.8681 11.6955 12.5647C11.6175 12.2614 11.4595 11.9846 11.2381 11.7631C11.1735 11.6986 11.1039 11.6392 11.03 11.5856L12.9143 6.25C12.9431 6.25 12.9718 6.25 13.0006 6.25C13.3466 6.24991 13.6848 6.14724 13.9725 5.95498C14.2601 5.76272 14.4844 5.48949 14.6168 5.16984C14.7493 4.85018 14.784 4.49843 14.7165 4.15906C14.6491 3.81968 14.4826 3.5079 14.2381 3.26313V3.26188ZM10.0868 11.2531C9.67621 11.2327 9.27151 11.3575 8.9437 11.6056L4.14745 8.08813C4.30251 7.65072 4.27848 7.16977 4.08058 6.75L6.58808 4.49313C6.98216 4.73368 7.45534 4.80875 7.90452 4.70198C8.35371 4.59522 8.7425 4.31527 8.9862 3.92313L11.25 4.54125C11.2595 4.99075 11.4425 5.41914 11.7606 5.73688C11.8251 5.80146 11.8945 5.86101 11.9681 5.915L10.0868 11.2531Z" fill="black"/>
</g>
<defs>
<clipPath id="clip0_5_467">
<rect width="16" height="16" fill="white"/>
</clipPath>
</defs>
</svg>
