<svg width="16" height="16" viewBox="0 0 16 16" fill="none" xmlns="http://www.w3.org/2000/svg">
<g clip-path="url(#clip0_5_465)">
<path d="M14.345 4.63811C14.2863 4.5829 14.2151 4.54271 14.1375 4.52094C14.06 4.49918 13.9783 4.49649 13.8994 4.51311C13.8023 4.16409 13.6372 3.8377 13.4136 3.55268C13.19 3.26765 12.9123 3.02962 12.5964 2.85226C12.2805 2.67489 11.9327 2.56169 11.5729 2.51914C11.2132 2.4766 10.8486 2.50556 10.5 2.60436C10.2807 2.12565 9.92845 1.71999 9.48528 1.43559C9.04211 1.15118 8.5266 1 8.00003 1C7.47345 1 6.95794 1.15118 6.51477 1.43559C6.0716 1.71999 5.7194 2.12565 5.50003 2.60436C5.15157 2.50543 4.78701 2.47632 4.42727 2.5187C4.06753 2.56107 3.71971 2.6741 3.40378 2.85129C3.08786 3.02847 2.81004 3.26633 2.58631 3.55119C2.36257 3.83606 2.19731 4.16232 2.10003 4.51123C2.01789 4.49438 1.93283 4.49845 1.85268 4.52307C1.77253 4.54769 1.69986 4.59208 1.64135 4.65214C1.58284 4.7122 1.54038 4.78601 1.51787 4.86679C1.49536 4.94756 1.49352 5.03269 1.51253 5.11436L3.42253 13.2294C3.47423 13.4488 3.59854 13.6442 3.77529 13.7841C3.95204 13.924 4.17087 14.0001 4.39628 14H11.6038C11.8292 14.0001 12.048 13.924 12.2248 13.7841C12.4015 13.6442 12.5258 13.4488 12.5775 13.2294L14.4869 5.11436C14.5068 5.02949 14.5042 4.9409 14.4793 4.85736C14.4544 4.77382 14.4081 4.69823 14.345 4.63811ZM4.39628 13L2.6819 5.71498L5.04753 6.39061L5.92878 13H4.39628ZM7.62878 4.60998L5.47315 5.47248L3.06253 4.78373C3.13231 4.53129 3.25786 4.29773 3.42993 4.10027C3.602 3.90282 3.81619 3.7465 4.05672 3.64286C4.29725 3.53921 4.55797 3.49087 4.81967 3.5014C5.08136 3.51194 5.33736 3.58108 5.56878 3.70373C5.63684 3.73983 5.71232 3.75972 5.78933 3.76183C5.86635 3.76395 5.94281 3.74824 6.01275 3.71593C6.08269 3.68362 6.14422 3.63559 6.19253 3.57558C6.24085 3.51557 6.27464 3.44521 6.29128 3.36998C6.37782 2.9815 6.59421 2.63412 6.90474 2.38515C7.21527 2.13619 7.60139 2.00052 7.9994 2.00052C8.39741 2.00052 8.78353 2.13619 9.09406 2.38515C9.40459 2.63412 9.62098 2.9815 9.70753 3.36998C9.72416 3.44521 9.75795 3.51557 9.80627 3.57558C9.85458 3.63559 9.91611 3.68362 9.98605 3.71593C10.056 3.74824 10.1325 3.76395 10.2095 3.76183C10.2865 3.75972 10.362 3.73983 10.43 3.70373C10.6615 3.58085 10.9176 3.51152 11.1794 3.50086C11.4413 3.4902 11.7022 3.53849 11.9429 3.64215C12.1836 3.74582 12.3979 3.90222 12.5701 4.0998C12.7422 4.29739 12.8678 4.53112 12.9375 4.78373L10.5275 5.47123L8.3719 4.60873C8.13323 4.51368 7.86713 4.51412 7.62878 4.60998ZM11.6038 13H10.0713L10.9525 6.39061L13.3181 5.71498L11.6038 13Z" fill="black"/>
</g>
<defs>
<clipPath id="clip0_5_465">
<rect width="16" height="16" fill="white"/>
</clipPath>
</defs>
</svg>
