<svg width="16" height="16" viewBox="0 0 16 16" fill="none" xmlns="http://www.w3.org/2000/svg">
<g clip-path="url(#clip0_5_464)">
<path d="M8 0.5C6.80693 0.501323 5.66311 0.975854 4.81948 1.81948C3.97585 2.66311 3.50132 3.80693 3.5 5V11C3.5 11.2652 3.60536 11.5196 3.79289 11.7071C3.98043 11.8946 4.23478 12 4.5 12H6.5V14.5C6.5 14.8978 6.65804 15.2794 6.93934 15.5607C7.22064 15.842 7.60218 16 8 16C8.39782 16 8.77936 15.842 9.06066 15.5607C9.34196 15.2794 9.5 14.8978 9.5 14.5V12H11.5C11.7652 12 12.0196 11.8946 12.2071 11.7071C12.3946 11.5196 12.5 11.2652 12.5 11V5C12.4987 3.80693 12.0241 2.66311 11.1805 1.81948C10.3369 0.975854 9.19307 0.501323 8 0.5ZM7 9.5C7 9.63261 6.94732 9.75979 6.85355 9.85355C6.75979 9.94732 6.63261 10 6.5 10C6.36739 10 6.24021 9.94732 6.14645 9.85355C6.05268 9.75979 6 9.63261 6 9.5V4.5C6 4.36739 6.05268 4.24021 6.14645 4.14645C6.24021 4.05268 6.36739 4 6.5 4C6.63261 4 6.75979 4.05268 6.85355 4.14645C6.94732 4.24021 7 4.36739 7 4.5V9.5ZM8.5 14.5C8.5 14.6326 8.44732 14.7598 8.35355 14.8536C8.25979 14.9473 8.13261 15 8 15C7.86739 15 7.74021 14.9473 7.64645 14.8536C7.55268 14.7598 7.5 14.6326 7.5 14.5V12H8.5V14.5ZM10 9.5C10 9.63261 9.94732 9.75979 9.85355 9.85355C9.75979 9.94732 9.63261 10 9.5 10C9.36739 10 9.24021 9.94732 9.14645 9.85355C9.05268 9.75979 9 9.63261 9 9.5V4.5C9 4.36739 9.05268 4.24021 9.14645 4.14645C9.24021 4.05268 9.36739 4 9.5 4C9.63261 4 9.75979 4.05268 9.85355 4.14645C9.94732 4.24021 10 4.36739 10 4.5V9.5Z" fill="black"/>
</g>
<defs>
<clipPath id="clip0_5_464">
<rect width="16" height="16" fill="white"/>
</clipPath>
</defs>
</svg>
