<svg width="16" height="16" viewBox="0 0 16 16" fill="none" xmlns="http://www.w3.org/2000/svg">
<g clip-path="url(#clip0_5_462)">
<path d="M12.4999 9.00005H7.70619L9.10682 7.59942C9.61319 7.85444 10.1711 7.9904 10.7381 7.99692C11.3087 7.99843 11.8687 7.84227 12.3562 7.54567C13.8387 6.64817 14.6331 4.57067 14.4812 1.98817C14.474 1.86585 14.4222 1.75041 14.3356 1.66377C14.249 1.57713 14.1335 1.52532 14.0112 1.51817C11.4287 1.3663 9.35119 2.16067 8.45307 3.64317C7.86869 4.6088 7.85369 5.77505 8.39932 6.89317L7.49994 7.79255L6.73682 7.02942C7.11182 6.2013 7.08494 5.34192 6.64994 4.62442C5.97057 3.50005 4.41307 2.90067 2.48307 3.0138C2.36096 3.02107 2.24575 3.07286 2.15925 3.15936C2.07276 3.24586 2.02097 3.36106 2.01369 3.48317C1.89994 5.41255 2.49994 6.97005 3.62494 7.65005C4.00132 7.87986 4.43396 8.001 4.87494 8.00005C5.27501 7.99608 5.66963 7.9068 6.03244 7.73817L6.79307 8.50005L6.29307 9.00005H3.49994C3.36733 9.00005 3.24016 9.05273 3.14639 9.14649C3.05262 9.24026 2.99994 9.36744 2.99994 9.50005C2.99994 9.63266 3.05262 9.75983 3.14639 9.8536C3.24016 9.94737 3.36733 10 3.49994 10H4.09932L4.92494 13.7169C4.97312 13.9396 5.09643 14.139 5.27419 14.2816C5.45194 14.4242 5.67332 14.5013 5.90119 14.5H10.0993C10.3271 14.5011 10.5484 14.4239 10.7261 14.2813C10.9038 14.1388 11.0272 13.9395 11.0756 13.7169L11.9012 10H12.4999C12.6326 10 12.7597 9.94737 12.8535 9.8536C12.9473 9.75983 12.9999 9.63266 12.9999 9.50005C12.9999 9.36744 12.9473 9.24026 12.8535 9.14649C12.7597 9.05273 12.6326 9.00005 12.4999 9.00005Z" fill="black"/>
</g>
<defs>
<clipPath id="clip0_5_462">
<rect width="16" height="16" fill="white"/>
</clipPath>
</defs>
</svg>
