<svg width="16" height="16" viewBox="0 0 16 16" fill="none" xmlns="http://www.w3.org/2000/svg">
<g clip-path="url(#clip0_5_460)">
<path d="M8 1.5C6.71442 1.5 5.45772 1.88122 4.3888 2.59545C3.31988 3.30968 2.48676 4.32484 1.99479 5.51256C1.50282 6.70028 1.37409 8.00721 1.6249 9.26809C1.8757 10.529 2.49477 11.6872 3.40381 12.5962C4.31285 13.5052 5.47104 14.1243 6.73192 14.3751C7.99279 14.6259 9.29973 14.4972 10.4874 14.0052C11.6752 13.5132 12.6903 12.6801 13.4046 11.6112C14.1188 10.5423 14.5 9.28558 14.5 8C14.5 6.27609 13.8152 4.62279 12.5962 3.40381C11.3772 2.18482 9.72391 1.5 8 1.5ZM7.5 4C7.5 3.86739 7.55268 3.74021 7.64645 3.64645C7.74022 3.55268 7.86739 3.5 8 3.5C8.13261 3.5 8.25979 3.55268 8.35356 3.64645C8.44732 3.74021 8.5 3.86739 8.5 4V8C8.5 8.13261 8.44732 8.25979 8.35356 8.35355C8.25979 8.44732 8.13261 8.5 8 8.5C7.86739 8.5 7.74022 8.44732 7.64645 8.35355C7.55268 8.25979 7.5 8.13261 7.5 8V4ZM8 13C6.92726 13.0001 5.88293 12.6552 5.02125 12.0162C4.15958 11.3772 3.52626 10.4781 3.21483 9.45153C2.90341 8.42499 2.9304 7.3255 3.29181 6.31548C3.65322 5.30545 4.32989 4.43843 5.22188 3.8425C5.27636 3.80397 5.33801 3.77673 5.40318 3.7624C5.46836 3.74807 5.53574 3.74692 5.60137 3.75904C5.66699 3.77116 5.72952 3.79629 5.78528 3.83295C5.84104 3.86961 5.88889 3.91707 5.92603 3.97251C5.96316 4.02796 5.98881 4.09028 6.00148 4.1558C6.01415 4.22132 6.01358 4.28871 5.9998 4.354C5.98601 4.4193 5.9593 4.48117 5.92123 4.53598C5.88316 4.59078 5.8345 4.63742 5.77813 4.67312C5.06452 5.14982 4.52314 5.84338 4.23395 6.65137C3.94476 7.45936 3.9231 8.33894 4.17217 9.16018C4.42124 9.98142 4.92782 10.7008 5.61711 11.212C6.30639 11.7233 7.14182 11.9993 8 11.9993C8.85819 11.9993 9.69361 11.7233 10.3829 11.212C11.0722 10.7008 11.5788 9.98142 11.8278 9.16018C12.0769 8.33894 12.0552 7.45936 11.7661 6.65137C11.4769 5.84338 10.9355 5.14982 10.2219 4.67312C10.1655 4.63742 10.1168 4.59078 10.0788 4.53598C10.0407 4.48117 10.014 4.4193 10.0002 4.354C9.98643 4.28871 9.98585 4.22132 9.99852 4.1558C10.0112 4.09028 10.0368 4.02796 10.074 3.97251C10.1111 3.91707 10.159 3.86961 10.2147 3.83295C10.2705 3.79629 10.333 3.77116 10.3986 3.75904C10.4643 3.74692 10.5316 3.74807 10.5968 3.7624C10.662 3.77673 10.7236 3.80397 10.7781 3.8425C11.6701 4.43843 12.3468 5.30545 12.7082 6.31548C13.0696 7.3255 13.0966 8.42499 12.7852 9.45153C12.4737 10.4781 11.8404 11.3772 10.9788 12.0162C10.1171 12.6552 9.07274 13.0001 8 13Z" fill="black"/>
</g>
<defs>
<clipPath id="clip0_5_460">
<rect width="16" height="16" fill="white"/>
</clipPath>
</defs>
</svg>
