<svg width="16" height="16" viewBox="0 0 16 16" fill="none" xmlns="http://www.w3.org/2000/svg">
<g clip-path="url(#clip0_5_458)">
<path d="M8 7.5H6V4.5H8C8.39782 4.5 8.77936 4.65804 9.06066 4.93934C9.34196 5.22064 9.5 5.60218 9.5 6C9.5 6.39782 9.34196 6.77936 9.06066 7.06066C8.77936 7.34196 8.39782 7.5 8 7.5ZM14 3V13C14 13.2652 13.8946 13.5196 13.7071 13.7071C13.5196 13.8946 13.2652 14 13 14H3C2.73478 14 2.48043 13.8946 2.29289 13.7071C2.10536 13.5196 2 13.2652 2 13V3C2 2.73478 2.10536 2.48043 2.29289 2.29289C2.48043 2.10536 2.73478 2 3 2H13C13.2652 2 13.5196 2.10536 13.7071 2.29289C13.8946 2.48043 14 2.73478 14 3ZM11.8538 11.6462L10.9569 10.75L11.8538 9.85375C11.9476 9.75993 12.0003 9.63268 12.0003 9.5C12.0003 9.36732 11.9476 9.24007 11.8538 9.14625C11.7599 9.05243 11.6327 8.99972 11.5 8.99972C11.3673 8.99972 11.2401 9.05243 11.1462 9.14625L10.25 10.0431L8.625 8.41813C9.21195 8.26412 9.72285 7.90188 10.0624 7.39896C10.402 6.89605 10.5471 6.28679 10.4706 5.68481C10.3941 5.08283 10.1012 4.52923 9.64665 4.12723C9.19208 3.72524 8.60682 3.5023 8 3.5H5.5C5.36739 3.5 5.24021 3.55268 5.14645 3.64645C5.05268 3.74021 5 3.86739 5 4V11C5 11.1326 5.05268 11.2598 5.14645 11.3536C5.24021 11.4473 5.36739 11.5 5.5 11.5C5.63261 11.5 5.75979 11.4473 5.85355 11.3536C5.94732 11.2598 6 11.1326 6 11V8.5H7.29313L9.54313 10.75L8.64625 11.6462C8.55243 11.7401 8.49972 11.8673 8.49972 12C8.49972 12.1327 8.55243 12.2599 8.64625 12.3538C8.74007 12.4476 8.86732 12.5003 9 12.5003C9.13268 12.5003 9.25993 12.4476 9.35375 12.3538L10.25 11.4569L11.1462 12.3538C11.1927 12.4002 11.2479 12.4371 11.3086 12.4622C11.3692 12.4873 11.4343 12.5003 11.5 12.5003C11.5657 12.5003 11.6308 12.4873 11.6914 12.4622C11.7521 12.4371 11.8073 12.4002 11.8538 12.3538C11.9002 12.3073 11.9371 12.2521 11.9622 12.1914C11.9873 12.1308 12.0003 12.0657 12.0003 12C12.0003 11.9343 11.9873 11.8692 11.9622 11.8086C11.9371 11.7479 11.9002 11.6927 11.8538 11.6462Z" fill="black"/>
</g>
<defs>
<clipPath id="clip0_5_458">
<rect width="16" height="16" fill="white"/>
</clipPath>
</defs>
</svg>
