<svg width="16" height="16" viewBox="0 0 16 16" fill="none" xmlns="http://www.w3.org/2000/svg">
<g clip-path="url(#clip0_5_456)">
<path d="M12.5 8C12.5005 9.02065 12.1526 10.0109 11.5138 10.8069L5.19313 4.48625C5.85471 3.95673 6.65245 3.62491 7.49441 3.52905C8.33637 3.43319 9.18829 3.57717 9.95197 3.94442C10.7157 4.31166 11.36 4.88722 11.8109 5.60475C12.2617 6.32229 12.5006 7.1526 12.5 8ZM3.5 8C3.49945 8.8474 3.73834 9.67771 4.18915 10.3952C4.63997 11.1128 5.28434 11.6883 6.04803 12.0556C6.81172 12.4228 7.66363 12.5668 8.50559 12.4709C9.34755 12.3751 10.1453 12.0433 10.8069 11.5138L4.48625 5.19312C3.84741 5.98911 3.49947 6.97935 3.5 8ZM14.75 8C14.75 9.33502 14.3541 10.6401 13.6124 11.7501C12.8707 12.8601 11.8165 13.7253 10.5831 14.2362C9.34971 14.7471 7.99252 14.8808 6.68314 14.6203C5.37377 14.3598 4.17104 13.717 3.22703 12.773C2.28303 11.829 1.64015 10.6262 1.3797 9.31686C1.11925 8.00749 1.25292 6.65029 1.76382 5.41689C2.27471 4.18349 3.13987 3.12928 4.2499 2.38758C5.35994 1.64588 6.66498 1.25 8 1.25C9.78961 1.25199 11.5053 1.96378 12.7708 3.22922C14.0362 4.49466 14.748 6.2104 14.75 8ZM13.5 8C13.5 6.9122 13.1774 5.84883 12.5731 4.94436C11.9687 4.03989 11.1098 3.33494 10.1048 2.91866C9.09977 2.50238 7.9939 2.39346 6.92701 2.60568C5.86011 2.8179 4.8801 3.34172 4.11092 4.11091C3.34173 4.8801 2.8179 5.86011 2.60568 6.927C2.39347 7.9939 2.50238 9.09977 2.91867 10.1048C3.33495 11.1098 4.0399 11.9687 4.94437 12.5731C5.84884 13.1774 6.91221 13.5 8 13.5C9.45819 13.4983 10.8562 12.9184 11.8873 11.8873C12.9184 10.8562 13.4983 9.45818 13.5 8Z" fill="black"/>
</g>
<defs>
<clipPath id="clip0_5_456">
<rect width="16" height="16" fill="white"/>
</clipPath>
</defs>
</svg>
