<svg width="16" height="16" viewBox="0 0 16 16" fill="none" xmlns="http://www.w3.org/2000/svg">
<g clip-path="url(#clip0_5_455)">
<path fill-rule="evenodd" clip-rule="evenodd" d="M4.3888 2.59545C5.45772 1.88122 6.71442 1.5 8 1.5C9.72335 1.50182 11.3756 2.18722 12.5942 3.40582C13.8128 4.62441 14.4982 6.27665 14.5 8C14.5 9.28558 14.1188 10.5423 13.4046 11.6112C12.6903 12.6801 11.6752 13.5132 10.4874 14.0052C9.29973 14.4972 7.99279 14.6259 6.73192 14.3751C5.47104 14.1243 4.31285 13.5052 3.40381 12.5962C2.49477 11.6872 1.8757 10.529 1.6249 9.26809C1.37409 8.00721 1.50282 6.70028 1.99479 5.51256C2.48676 4.32484 3.31988 3.30968 4.3888 2.59545ZM5.4593 7C4.90702 7 4.4593 7.44772 4.4593 8C4.4593 8.55228 4.90702 9 5.4593 9H10.5407C11.093 9 11.5407 8.55228 11.5407 8C11.5407 7.44772 11.093 7 10.5407 7H5.4593Z" fill="black"/>
</g>
<defs>
<clipPath id="clip0_5_455">
<rect width="16" height="16" fill="white"/>
</clipPath>
</defs>
</svg>
