<svg width="16" height="16" viewBox="0 0 16 16" fill="none" xmlns="http://www.w3.org/2000/svg">
<g clip-path="url(#clip0_5_453)">
<path d="M14.5 4V3C14.5 2.73478 14.3946 2.48043 14.2071 2.29289C14.0196 2.10536 13.7652 2 13.5 2H2.5C2.23478 2 1.98043 2.10536 1.79289 2.29289C1.60536 2.48043 1.5 2.73478 1.5 3V4C1.5 4.26522 1.60536 4.51957 1.79289 4.70711C1.98043 4.89464 2.23478 5 2.5 5V11H2C1.86739 11 1.74021 11.0527 1.64645 11.1464C1.55268 11.2402 1.5 11.3674 1.5 11.5C1.5 11.6326 1.55268 11.7598 1.64645 11.8536C1.74021 11.9473 1.86739 12 2 12H7.5V13.0863C7.16639 13.2042 6.88522 13.4363 6.70618 13.7415C6.52715 14.0467 6.46177 14.4054 6.5216 14.7541C6.58144 15.1029 6.76264 15.4192 7.03317 15.6473C7.3037 15.8754 7.64616 16.0005 8 16.0005C8.35384 16.0005 8.6963 15.8754 8.96683 15.6473C9.23736 15.4192 9.41856 15.1029 9.4784 14.7541C9.53823 14.4054 9.47285 14.0467 9.29382 13.7415C9.11478 13.4363 8.83361 13.2042 8.5 13.0863V12H14C14.1326 12 14.2598 11.9473 14.3536 11.8536C14.4473 11.7598 14.5 11.6326 14.5 11.5C14.5 11.3674 14.4473 11.2402 14.3536 11.1464C14.2598 11.0527 14.1326 11 14 11H13.5V5C13.7652 5 14.0196 4.89464 14.2071 4.70711C14.3946 4.51957 14.5 4.26522 14.5 4ZM8 15C7.90111 15 7.80444 14.9707 7.72221 14.9157C7.63999 14.8608 7.5759 14.7827 7.53806 14.6913C7.50022 14.6 7.49031 14.4994 7.50961 14.4025C7.5289 14.3055 7.57652 14.2164 7.64645 14.1464C7.71637 14.0765 7.80546 14.0289 7.90245 14.0096C7.99945 13.9903 8.09998 14.0002 8.19134 14.0381C8.2827 14.0759 8.36079 14.14 8.41574 14.2222C8.47068 14.3044 8.5 14.4011 8.5 14.5C8.5 14.6326 8.44732 14.7598 8.35355 14.8536C8.25979 14.9473 8.13261 15 8 15ZM2.5 3H13.5V4H2.5V3Z" fill="black"/>
</g>
<defs>
<clipPath id="clip0_5_453">
<rect width="16" height="16" fill="white"/>
</clipPath>
</defs>
</svg>
