<svg width="16" height="16" viewBox="0 0 16 16" fill="none" xmlns="http://www.w3.org/2000/svg">
<g clip-path="url(#clip0_5_1542)">
<path d="M13.5 2.5H2.5C2.23478 2.5 1.98043 2.60536 1.79289 2.79289C1.60536 2.98043 1.5 3.23478 1.5 3.5V12.5C1.5 12.7652 1.60536 13.0196 1.79289 13.2071C1.98043 13.3946 2.23478 13.5 2.5 13.5H13.5C13.7652 13.5 14.0196 13.3946 14.2071 13.2071C14.3946 13.0196 14.5 12.7652 14.5 12.5V3.5C14.5 3.23478 14.3946 2.98043 14.2071 2.79289C14.0196 2.60536 13.7652 2.5 13.5 2.5ZM13 8.5H11.79L9.9375 11.75C9.8935 11.8262 9.83017 11.8895 9.7539 11.9334C9.67763 11.9773 9.59112 12.0002 9.50313 12H9.47437C9.38157 11.9946 9.29211 11.9634 9.21605 11.91C9.13998 11.8566 9.08031 11.783 9.04375 11.6975L6.4375 5.62L4.9375 8.25C4.89324 8.32667 4.82941 8.39022 4.75255 8.43414C4.67568 8.47807 4.58853 8.50079 4.5 8.5H3C2.86739 8.5 2.74021 8.44732 2.64645 8.35355C2.55268 8.25979 2.5 8.13261 2.5 8C2.5 7.86739 2.55268 7.74021 2.64645 7.64645C2.74021 7.55268 2.86739 7.5 3 7.5H4.21L6.06563 4.25C6.11177 4.16925 6.17952 4.10297 6.26127 4.05861C6.34302 4.01425 6.43551 3.99357 6.52837 3.99889C6.62122 4.00422 6.71075 4.03534 6.78689 4.08875C6.86303 4.14216 6.92276 4.21575 6.95937 4.30125L9.5625 10.38L11.0625 7.75187C11.1065 7.67566 11.1698 7.61242 11.2461 7.56852C11.3224 7.52462 11.4089 7.50164 11.4969 7.50187H12.9969C13.1295 7.50187 13.2567 7.55455 13.3504 7.64832C13.4442 7.74209 13.4969 7.86927 13.4969 8.00187C13.4969 8.13448 13.4442 8.26166 13.3504 8.35543C13.2567 8.4492 13.1295 8.50187 12.9969 8.50187L13 8.5Z" fill="black"/>
</g>
<defs>
<clipPath id="clip0_5_1542">
<rect width="16" height="16" fill="white"/>
</clipPath>
</defs>
</svg>
