<svg width="16" height="16" viewBox="0 0 16 16" fill="none" xmlns="http://www.w3.org/2000/svg">
<g clip-path="url(#clip0_5_1627)">
<path d="M14.7079 6.49996L11.7317 9.48621C11.7078 9.51014 11.6792 9.52896 11.6478 9.54153C11.6164 9.5541 11.5827 9.56017 11.5489 9.55935C11.515 9.55853 11.4817 9.55085 11.451 9.53677C11.4202 9.5227 11.3926 9.50252 11.3698 9.47746L6.74982 4.39183C6.70676 4.34434 6.68359 4.28211 6.68511 4.21802C6.68662 4.15393 6.71269 4.09287 6.75795 4.04746L9.49982 1.29371C9.59268 1.20082 9.70293 1.12714 9.82427 1.07687C9.94561 1.02661 10.0757 1.00073 10.207 1.00073C10.3383 1.00073 10.4684 1.02661 10.5897 1.07687C10.7111 1.12714 10.8213 1.20082 10.9142 1.29371L14.7073 5.08621C14.8948 5.27364 15.0002 5.52785 15.0003 5.79295C15.0004 6.05805 14.8953 6.31236 14.7079 6.49996ZM3.36982 2.16371C3.32198 2.11131 3.26353 2.0697 3.19836 2.04164C3.13319 2.01358 3.0628 1.99971 2.99186 2.00095C2.92092 2.00219 2.85105 2.01852 2.78691 2.04884C2.72276 2.07917 2.6658 2.1228 2.61982 2.17683C2.54181 2.2727 2.50117 2.39358 2.50542 2.5171C2.50967 2.64063 2.55853 2.75843 2.64295 2.84871L4.20732 4.57183C3.64107 4.69308 3.01232 4.96058 2.37482 5.47683C2.2654 5.56482 2.17573 5.67486 2.11166 5.7998C2.04758 5.92474 2.01054 6.06177 2.00293 6.20197C1.99533 6.34217 2.01733 6.48241 2.06752 6.61354C2.1177 6.74468 2.19493 6.86377 2.2942 6.96308L5.31232 9.98183L2.6592 12.6337C2.56674 12.7232 2.51151 12.8444 2.50456 12.9729C2.49761 13.1014 2.53944 13.2278 2.6217 13.3268C2.66661 13.3788 2.72177 13.421 2.78372 13.4508C2.84568 13.4805 2.9131 13.4972 2.98178 13.4997C3.05046 13.5022 3.11892 13.4906 3.18289 13.4654C3.24686 13.4403 3.30496 13.4023 3.35357 13.3537L6.01795 10.6875L9.03607 13.7056C9.12885 13.7988 9.2391 13.8727 9.36051 13.9232C9.48191 13.9737 9.61208 13.9998 9.74357 14C9.76732 14 9.79045 14 9.8142 14C9.95675 13.9901 10.0955 13.9496 10.221 13.8814C10.3466 13.8131 10.4559 13.7186 10.5417 13.6043C10.8387 13.2174 11.0834 12.7929 11.2692 12.3418L12.6298 13.8387C12.6737 13.8882 12.727 13.9285 12.7866 13.9572C12.8462 13.986 12.9109 14.0026 12.977 14.0062C13.0431 14.0097 13.1092 14.0001 13.1715 13.9779C13.2339 13.9558 13.2912 13.9214 13.3401 13.8769C13.3891 13.8324 13.4287 13.7786 13.4568 13.7187C13.4848 13.6588 13.5007 13.5939 13.5034 13.5278C13.5062 13.4617 13.4958 13.3957 13.4729 13.3336C13.4499 13.2715 13.4149 13.2146 13.3698 13.1662L3.36982 2.16371Z" fill="black"/>
</g>
<defs>
<clipPath id="clip0_5_1627">
<rect width="16" height="16" fill="white"/>
</clipPath>
</defs>
</svg>
