<svg width="16" height="16" viewBox="0 0 16 16" fill="none" xmlns="http://www.w3.org/2000/svg">
<g clip-path="url(#clip0_5_450)">
<path d="M4.95312 2.41817C4.92041 2.38217 4.89891 2.33741 4.89125 2.28938C4.8836 2.24134 4.89012 2.19212 4.91002 2.14774C4.92993 2.10335 4.96234 2.06574 5.0033 2.03951C5.04426 2.01327 5.09199 1.99956 5.14062 2.00004H12C12.0685 1.99989 12.1364 2.01384 12.1993 2.04101C12.2622 2.06818 12.3189 2.108 12.3658 2.158C12.4127 2.208 12.4488 2.2671 12.4719 2.33164C12.495 2.39618 12.5045 2.46477 12.5 2.53317C12.4889 2.66196 12.4294 2.78176 12.3335 2.86841C12.2376 2.95506 12.1124 3.0021 11.9831 3.00004H11.5962L12.9187 10.4944C12.9283 10.5478 12.9202 10.6029 12.8956 10.6513C12.8711 10.6996 12.8316 10.7387 12.7829 10.7627C12.7342 10.7866 12.679 10.794 12.6258 10.7838C12.5725 10.7737 12.524 10.7465 12.4875 10.7063L4.95312 2.41817ZM13.37 13.1638L3.37 2.16379C3.32609 2.1143 3.27279 2.07401 3.2132 2.04526C3.15361 2.01651 3.0889 1.99988 3.02283 1.99633C2.95676 1.99277 2.89064 2.00237 2.82831 2.02455C2.76597 2.04674 2.70866 2.08108 2.65969 2.12558C2.61073 2.17008 2.57108 2.22385 2.54305 2.28379C2.51502 2.34372 2.49917 2.40863 2.4964 2.47473C2.49364 2.54084 2.50403 2.60684 2.52696 2.6689C2.54989 2.73097 2.58492 2.78786 2.63 2.83629L4.14 4.50004L3.08063 10.5H2.5C2.36739 10.5 2.24021 10.5527 2.14645 10.6465C2.05268 10.7403 2 10.8674 2 11C2 11.1327 2.05268 11.2598 2.14645 11.3536C2.24021 11.4474 2.36739 11.5 2.5 11.5H7.5V15C7.5 15.1327 7.55268 15.2598 7.64645 15.3536C7.74021 15.4474 7.86739 15.5 8 15.5C8.13261 15.5 8.25979 15.4474 8.35355 15.3536C8.44732 15.2598 8.5 15.1327 8.5 15V11.5H10.5063L12.6313 13.8363C12.6752 13.8858 12.7285 13.9261 12.788 13.9548C12.8476 13.9836 12.9124 14.0002 12.9784 14.0038C13.0445 14.0073 13.1106 13.9977 13.1729 13.9755C13.2353 13.9533 13.2926 13.919 13.3416 13.8745C13.3905 13.83 13.4302 13.7762 13.4582 13.7163C13.4862 13.6564 13.5021 13.5915 13.5048 13.5254C13.5076 13.4592 13.4972 13.3932 13.4743 13.3312C13.4514 13.2691 13.4163 13.2122 13.3713 13.1638H13.37Z" fill="black"/>
</g>
<defs>
<clipPath id="clip0_5_450">
<rect width="16" height="16" fill="white"/>
</clipPath>
</defs>
</svg>
