<svg width="16" height="16" viewBox="0 0 16 16" fill="none" xmlns="http://www.w3.org/2000/svg">
<g clip-path="url(#clip0_5_446)">
<path d="M12.5 1.5H3.5C3.23478 1.5 2.98043 1.60536 2.79289 1.79289C2.60536 1.98043 2.5 2.23478 2.5 2.5V13.5C2.5 13.7652 2.60536 14.0196 2.79289 14.2071C2.98043 14.3946 3.23478 14.5 3.5 14.5H12.5C12.7652 14.5 13.0196 14.3946 13.2071 14.2071C13.3946 14.0196 13.5 13.7652 13.5 13.5V2.5C13.5 2.23478 13.3946 1.98043 13.2071 1.79289C13.0196 1.60536 12.7652 1.5 12.5 1.5ZM8.5 8.955V9C8.5 9.13261 8.44732 9.25979 8.35355 9.35355C8.25979 9.44732 8.13261 9.5 8 9.5C7.86739 9.5 7.74021 9.44732 7.64645 9.35355C7.55268 9.25979 7.5 9.13261 7.5 9V8.5C7.5 8.36739 7.55268 8.24021 7.64645 8.14645C7.74021 8.05268 7.86739 8 8 8C8.82687 8 9.5 7.4375 9.5 6.75C9.5 6.0625 8.82687 5.5 8 5.5C7.17313 5.5 6.5 6.0625 6.5 6.75V7C6.5 7.13261 6.44732 7.25979 6.35355 7.35355C6.25979 7.44732 6.13261 7.5 6 7.5C5.86739 7.5 5.74021 7.44732 5.64645 7.35355C5.55268 7.25979 5.5 7.13261 5.5 7V6.75C5.5 5.50938 6.62125 4.5 8 4.5C9.37875 4.5 10.5 5.50938 10.5 6.75C10.5 7.83625 9.63937 8.74563 8.5 8.955ZM8.75 11.25C8.75 11.3983 8.70601 11.5433 8.6236 11.6667C8.54119 11.79 8.42406 11.8861 8.28701 11.9429C8.14997 11.9997 7.99917 12.0145 7.85368 11.9856C7.7082 11.9566 7.57456 11.8852 7.46967 11.7803C7.36478 11.6754 7.29335 11.5418 7.26441 11.3963C7.23547 11.2508 7.25032 11.1 7.30709 10.963C7.36386 10.8259 7.45999 10.7088 7.58332 10.6264C7.70666 10.544 7.85166 10.5 8 10.5C8.19891 10.5 8.38968 10.579 8.53033 10.7197C8.67098 10.8603 8.75 11.0511 8.75 11.25Z" fill="black"/>
</g>
<defs>
<clipPath id="clip0_5_446">
<rect width="16" height="16" fill="white"/>
</clipPath>
</defs>
</svg>
