<svg width="16" height="16" viewBox="0 0 16 16" fill="none" xmlns="http://www.w3.org/2000/svg">
<g clip-path="url(#clip0_5_445)">
<path d="M13 2H3C2.73478 2 2.48043 2.10536 2.29289 2.29289C2.10536 2.48043 2 2.73478 2 3V13C2 13.2652 2.10536 13.5196 2.29289 13.7071C2.48043 13.8946 2.73478 14 3 14H13C13.2652 14 13.5196 13.8946 13.7071 13.7071C13.8946 13.5196 14 13.2652 14 13V3C14 2.73478 13.8946 2.48043 13.7071 2.29289C13.5196 2.10536 13.2652 2 13 2ZM4 4.5H12C12.1326 4.5 12.2598 4.55268 12.3536 4.64645C12.4473 4.74021 12.5 4.86739 12.5 5C12.5 5.13261 12.4473 5.25979 12.3536 5.35355C12.2598 5.44732 12.1326 5.5 12 5.5H4C3.86739 5.5 3.74021 5.44732 3.64645 5.35355C3.55268 5.25979 3.5 5.13261 3.5 5C3.5 4.86739 3.55268 4.74021 3.64645 4.64645C3.74021 4.55268 3.86739 4.5 4 4.5ZM6.5 11.5H4C3.86739 11.5 3.74021 11.4473 3.64645 11.3536C3.55268 11.2598 3.5 11.1326 3.5 11C3.5 10.8674 3.55268 10.7402 3.64645 10.6464C3.74021 10.5527 3.86739 10.5 4 10.5H6.5C6.63261 10.5 6.75979 10.5527 6.85355 10.6464C6.94732 10.7402 7 10.8674 7 11C7 11.1326 6.94732 11.2598 6.85355 11.3536C6.75979 11.4473 6.63261 11.5 6.5 11.5ZM6.5 8.5H4C3.86739 8.5 3.74021 8.44732 3.64645 8.35355C3.55268 8.25979 3.5 8.13261 3.5 8C3.5 7.86739 3.55268 7.74021 3.64645 7.64645C3.74021 7.55268 3.86739 7.5 4 7.5H6.5C6.63261 7.5 6.75979 7.55268 6.85355 7.64645C6.94732 7.74021 7 7.86739 7 8C7 8.13261 6.94732 8.25979 6.85355 8.35355C6.75979 8.44732 6.63261 8.5 6.5 8.5ZM12.2775 9.91625L9.2775 11.9163C9.1953 11.971 9.09874 12.0001 9 12C8.86739 12 8.74021 11.9473 8.64645 11.8536C8.55268 11.7598 8.5 11.6326 8.5 11.5V7.5C8.49994 7.40946 8.52447 7.3206 8.57097 7.24291C8.61746 7.16521 8.68418 7.10161 8.76401 7.05887C8.84383 7.01614 8.93376 6.99588 9.0242 7.00026C9.11463 7.00464 9.20218 7.0335 9.2775 7.08375L12.2775 9.08375C12.3461 9.12939 12.4023 9.19127 12.4412 9.26389C12.4801 9.33651 12.5005 9.41762 12.5005 9.5C12.5005 9.58238 12.4801 9.66349 12.4412 9.73611C12.4023 9.80873 12.3461 9.87061 12.2775 9.91625Z" fill="black"/>
</g>
<defs>
<clipPath id="clip0_5_445">
<rect width="16" height="16" fill="white"/>
</clipPath>
</defs>
</svg>
