<svg width="16" height="16" viewBox="0 0 16 16" fill="none" xmlns="http://www.w3.org/2000/svg">
<g clip-path="url(#clip0_5_444)">
<path d="M7.25 4.5V10C7.24917 10.7954 6.93284 11.558 6.37041 12.1204C5.80798 12.6828 5.0454 12.9992 4.25 13C4.11739 13 3.99021 12.9473 3.89645 12.8536C3.80268 12.7598 3.75 12.6326 3.75 12.5C3.75 12.3674 3.80268 12.2402 3.89645 12.1464C3.99021 12.0527 4.11739 12 4.25 12C4.78043 12 5.28914 11.7893 5.66421 11.4142C6.03929 11.0391 6.25 10.5304 6.25 10V9.5H2.5C2.23478 9.5 1.98043 9.39464 1.79289 9.20711C1.60536 9.01957 1.5 8.76522 1.5 8.5V4.5C1.5 4.23478 1.60536 3.98043 1.79289 3.79289C1.98043 3.60536 2.23478 3.5 2.5 3.5H6.25C6.51522 3.5 6.76957 3.60536 6.95711 3.79289C7.14464 3.98043 7.25 4.23478 7.25 4.5ZM13.5 3.5H9.75C9.48478 3.5 9.23043 3.60536 9.04289 3.79289C8.85536 3.98043 8.75 4.23478 8.75 4.5V8.5C8.75 8.76522 8.85536 9.01957 9.04289 9.20711C9.23043 9.39464 9.48478 9.5 9.75 9.5H13.5V10C13.5 10.5304 13.2893 11.0391 12.9142 11.4142C12.5391 11.7893 12.0304 12 11.5 12C11.3674 12 11.2402 12.0527 11.1464 12.1464C11.0527 12.2402 11 12.3674 11 12.5C11 12.6326 11.0527 12.7598 11.1464 12.8536C11.2402 12.9473 11.3674 13 11.5 13C12.2954 12.9992 13.058 12.6828 13.6204 12.1204C14.1828 11.558 14.4992 10.7954 14.5 10V4.5C14.5 4.23478 14.3946 3.98043 14.2071 3.79289C14.0196 3.60536 13.7652 3.5 13.5 3.5Z" fill="black"/>
</g>
<defs>
<clipPath id="clip0_5_444">
<rect width="16" height="16" fill="white"/>
</clipPath>
</defs>
</svg>
