<svg width="16" height="16" viewBox="0 0 16 16" fill="none" xmlns="http://www.w3.org/2000/svg">
<g clip-path="url(#clip0_5_1266)">
<path d="M12.455 9.36255C12.3911 8.91177 12.2588 8.47338 12.0625 8.06255C13.25 5.6913 13.9657 2.54505 13.1463 1.18755C13.0238 0.9753 12.8468 0.799648 12.6336 0.678774C12.4204 0.557899 12.1788 0.496195 11.9338 0.500048C11.0513 0.500048 10.3088 1.24317 9.6563 2.77255C9.26755 3.6863 8.97817 4.73005 8.7813 5.5688C8.26447 5.47743 7.73562 5.47743 7.2188 5.5688C7.02317 4.73005 6.7338 3.6863 6.3438 2.77255C5.6938 1.24317 4.9488 0.500048 4.0663 0.500048C3.82056 0.496472 3.57835 0.558823 3.36489 0.680614C3.15143 0.802405 2.97451 0.979182 2.85255 1.19255C2.03317 2.54755 2.75005 5.6938 3.93755 8.06255C3.742 8.47267 3.61007 8.91019 3.5463 9.36005C2.9184 9.95065 2.55083 10.7665 2.52446 11.6281C2.49809 12.4897 2.81507 13.3265 3.40567 13.9544C3.99628 14.5823 4.81212 14.9499 5.67373 14.9763C6.53535 15.0026 7.37215 14.6857 8.00005 14.095L6.68005 12.8844C6.5781 12.7996 6.51405 12.6777 6.50198 12.5456C6.48991 12.4135 6.5308 12.282 6.61567 12.18C6.70054 12.0781 6.82243 12.0141 6.95453 12.002C7.08662 11.9899 7.2181 12.0308 7.32005 12.1157L8.00005 12.6813L8.68005 12.1157C8.78199 12.0308 8.91347 11.9899 9.04557 12.002C9.17766 12.0141 9.29955 12.0781 9.38442 12.18C9.46929 12.282 9.51019 12.4135 9.49811 12.5456C9.48604 12.6777 9.42199 12.7996 9.32005 12.8844L8.00005 14.095C8.30961 14.3937 8.67538 14.628 9.07617 14.7843C9.47695 14.9405 9.90477 15.0157 10.3348 15.0053C10.7649 14.995 11.1886 14.8994 11.5814 14.724C11.9742 14.5487 12.3283 14.2971 12.6231 13.9839C12.918 13.6707 13.1477 13.3021 13.299 12.8994C13.4503 12.4967 13.5202 12.068 13.5046 11.6381C13.4889 11.2082 13.3881 10.7857 13.2079 10.3951C13.0278 10.0045 12.7719 9.65352 12.455 9.36255ZM4.58005 7.07942C4.16379 6.15466 3.85187 5.18639 3.65005 4.19255C3.43192 3.05942 3.45317 2.13005 3.70817 1.71005C3.74055 1.64367 3.79181 1.58833 3.85552 1.55097C3.91923 1.51361 3.99256 1.4959 4.0663 1.50005C4.47942 1.50005 4.9738 2.1063 5.4238 3.1638C5.79442 4.03505 6.07067 5.0463 6.25692 5.8513C5.6084 6.12303 5.03289 6.54353 4.57692 7.0788L4.58005 7.07942ZM6.25005 11C6.10171 11 5.95671 10.9561 5.83337 10.8736C5.71003 10.7912 5.6139 10.6741 5.55714 10.5371C5.50037 10.4 5.48552 10.2492 5.51446 10.1037C5.5434 9.95824 5.61483 9.82461 5.71972 9.71972C5.82461 9.61483 5.95824 9.5434 6.10373 9.51446C6.24921 9.48552 6.40001 9.50037 6.53706 9.55714C6.6741 9.6139 6.79124 9.71003 6.87365 9.83337C6.95606 9.95671 7.00005 10.1017 7.00005 10.25C7.00005 10.449 6.92103 10.6397 6.78038 10.7804C6.63972 10.921 6.44896 11 6.25005 11ZM9.75005 11C9.60171 11 9.45671 10.9561 9.33337 10.8736C9.21003 10.7912 9.1139 10.6741 9.05714 10.5371C9.00037 10.4 8.98552 10.2492 9.01446 10.1037C9.0434 9.95824 9.11483 9.82461 9.21972 9.71972C9.32461 9.61483 9.45824 9.5434 9.60373 9.51446C9.74921 9.48552 9.90001 9.50037 10.0371 9.55714C10.1741 9.6139 10.2912 9.71003 10.3736 9.83337C10.4561 9.95671 10.5 10.1017 10.5 10.25C10.5 10.449 10.421 10.6397 10.2804 10.7804C10.1397 10.921 9.94896 11 9.75005 11ZM11.0344 6.67692C10.6544 6.33002 10.2177 6.05096 9.74317 5.85192C9.93067 5.0463 10.2057 4.03505 10.5763 3.16442C11.0263 2.1063 11.5207 1.50005 11.9338 1.50005C12.0075 1.4959 12.0809 1.51361 12.1446 1.55097C12.2083 1.58833 12.2595 1.64367 12.2919 1.71005C12.5469 2.1313 12.5682 3.05942 12.35 4.19255C12.1492 5.18627 11.8384 6.15453 11.4232 7.07942C11.302 6.93739 11.1722 6.80296 11.0344 6.67692Z" fill="black"/>
</g>
<defs>
<clipPath id="clip0_5_1266">
<rect width="16" height="16" fill="white"/>
</clipPath>
</defs>
</svg>
