<svg width="16" height="16" viewBox="0 0 16 16" fill="none" xmlns="http://www.w3.org/2000/svg">
<g clip-path="url(#clip0_5_443)">
<path d="M14.375 1.62819C12.625 -0.11744 9.47066 0.19756 7.33754 2.33131C5.35066 4.31819 4.94191 7.19193 6.30566 8.98693L4.45816 10.8344L4.41566 10.7919C4.32279 10.699 4.2125 10.6252 4.0911 10.5749C3.96971 10.5246 3.83958 10.4986 3.70816 10.4986C3.57675 10.4986 3.44662 10.5246 3.32522 10.5749C3.20383 10.6252 3.09354 10.699 3.00066 10.7919L1.29316 12.5001C1.20019 12.5929 1.12643 12.7032 1.0761 12.8246C1.02578 12.946 0.999878 13.0761 0.999878 13.2076C0.999878 13.339 1.02578 13.4691 1.0761 13.5905C1.12643 13.7119 1.20019 13.8222 1.29316 13.9151L2.08629 14.7082C2.17915 14.8011 2.2894 14.8747 2.41074 14.925C2.53208 14.9753 2.66214 15.0012 2.79348 15.0012C2.92482 15.0012 3.05487 14.9753 3.17621 14.925C3.29755 14.8747 3.4078 14.8011 3.50066 14.7082L5.20879 13.0001C5.30167 12.9072 5.37535 12.7969 5.42562 12.6756C5.47589 12.5543 5.50176 12.4242 5.50176 12.2929C5.50176 12.1615 5.47589 12.0315 5.42562 11.9101C5.37535 11.7888 5.30167 11.6785 5.20879 11.5857L5.16566 11.5426L7.01316 9.69506C7.71879 10.2313 8.59066 10.4944 9.51316 10.4944C10.9332 10.4944 12.4663 9.86944 13.6719 8.66319C15.8019 6.52944 16.1175 3.37506 14.375 1.62819ZM14.0144 6.50006H12.5038V4.50006H14.5038C14.4964 5.19546 14.329 5.87982 14.0144 6.50006ZM8.50004 9.35069C8.0625 9.21949 7.66436 8.98173 7.34136 8.65874C7.01837 8.33574 6.78061 7.9376 6.64941 7.50006H8.50004V9.35069ZM6.50004 6.50006C6.50753 5.80445 6.67565 5.11998 6.99129 4.50006H8.50004V6.50006H6.50004ZM9.50004 4.50006H11.5V6.50006H9.50004V4.50006ZM14.3544 3.50006H12.5038V1.64256C12.9421 1.774 13.3408 2.01217 13.6644 2.33571C13.9879 2.65925 14.2261 3.05804 14.3575 3.49631L14.3544 3.50006ZM11.4907 1.50006H11.5007V3.50006H9.50066V1.98506C10.1187 1.67093 10.8006 1.50287 11.4938 1.49381L11.4907 1.50006ZM8.50004 2.62881V3.49631H7.63504C7.76324 3.33643 7.90012 3.1837 8.04504 3.03881C8.18941 2.89426 8.34129 2.7574 8.50004 2.62881ZM9.50004 9.49881V7.50006H11.5V9.01006C10.881 9.3248 10.1976 9.49248 9.50316 9.50006L9.50004 9.49881ZM12.5 8.36506V7.50006H13.375C13.2467 7.65979 13.1098 7.81251 12.965 7.95756C12.8189 8.10174 12.6649 8.23778 12.5038 8.36506H12.5Z" fill="black"/>
</g>
<defs>
<clipPath id="clip0_5_443">
<rect width="16" height="16" fill="white"/>
</clipPath>
</defs>
</svg>
