<svg width="16" height="16" viewBox="0 0 16 16" fill="none" xmlns="http://www.w3.org/2000/svg">
<g clip-path="url(#clip0_5_1365)">
<path d="M13 2H3C2.73478 2 2.48043 2.10536 2.29289 2.29289C2.10536 2.48043 2 2.73478 2 3V13C2 13.2652 2.10536 13.5196 2.29289 13.7071C2.48043 13.8946 2.73478 14 3 14H13C13.2652 14 13.5196 13.8946 13.7071 13.7071C13.8946 13.5196 14 13.2652 14 13V3C14 2.73478 13.8946 2.48043 13.7071 2.29289C13.5196 2.10536 13.2652 2 13 2ZM13 7C13 7.13261 12.9473 7.25979 12.8536 7.35355C12.7598 7.44732 12.6326 7.5 12.5 7.5C12.3674 7.5 12.2402 7.44732 12.1464 7.35355C12.0527 7.25979 12 7.13261 12 7V6.5H7.83875L5.96375 11.1875C5.92668 11.2804 5.86262 11.36 5.77984 11.4161C5.69706 11.4722 5.59937 11.5021 5.49937 11.5021C5.39938 11.5021 5.30169 11.4722 5.21891 11.4161C5.13613 11.36 5.07207 11.2804 5.035 11.1875L3.035 6.1875C3.01038 6.12648 2.99801 6.0612 2.99862 5.9954C2.99922 5.9296 3.01278 5.86456 3.03852 5.804C3.06426 5.74344 3.10168 5.68854 3.14863 5.64244C3.19559 5.59634 3.25116 5.55994 3.31219 5.53531C3.37321 5.51069 3.43849 5.49833 3.50429 5.49893C3.57009 5.49954 3.63513 5.51309 3.69569 5.53883C3.75625 5.56457 3.81115 5.60199 3.85725 5.64894C3.90335 5.6959 3.93975 5.75148 3.96438 5.8125L5.5 9.65375L7.03562 5.8125C7.07303 5.72003 7.13723 5.64087 7.21999 5.58518C7.30274 5.52949 7.40026 5.49983 7.5 5.5H12.5C12.6326 5.5 12.7598 5.55268 12.8536 5.64645C12.9473 5.74021 13 5.86739 13 6V7Z" fill="black"/>
</g>
<defs>
<clipPath id="clip0_5_1365">
<rect width="16" height="16" fill="white"/>
</clipPath>
</defs>
</svg>
