<svg width="16" height="16" viewBox="0 0 16 16" fill="none" xmlns="http://www.w3.org/2000/svg">
<g clip-path="url(#clip0_5_441)">
<path d="M13.5 3.99998H5.40688L12.1438 1.97935C12.2708 1.94123 12.3775 1.85419 12.4404 1.73739C12.5033 1.62059 12.5172 1.48359 12.4791 1.35654C12.4409 1.22948 12.3539 1.12278 12.2371 1.05989C12.1203 0.99701 11.9833 0.9831 11.8562 1.02123L1.85625 4.02122C1.7533 4.05213 1.66304 4.11539 1.59887 4.20163C1.5347 4.28786 1.50003 4.39248 1.5 4.49998V12C1.5 12.2652 1.60536 12.5195 1.79289 12.7071C1.98043 12.8946 2.23478 13 2.5 13H13.5C13.7652 13 14.0196 12.8946 14.2071 12.7071C14.3946 12.5195 14.5 12.2652 14.5 12V4.99998C14.5 4.73476 14.3946 4.48041 14.2071 4.29287C14.0196 4.10533 13.7652 3.99998 13.5 3.99998ZM6.5 11H4C3.86739 11 3.74021 10.9473 3.64645 10.8535C3.55268 10.7598 3.5 10.6326 3.5 10.5C3.5 10.3674 3.55268 10.2402 3.64645 10.1464C3.74021 10.0527 3.86739 9.99998 4 9.99998H6.5C6.63261 9.99998 6.75979 10.0527 6.85355 10.1464C6.94732 10.2402 7 10.3674 7 10.5C7 10.6326 6.94732 10.7598 6.85355 10.8535C6.75979 10.9473 6.63261 11 6.5 11ZM6.5 8.99998H4C3.86739 8.99998 3.74021 8.9473 3.64645 8.85353C3.55268 8.75976 3.5 8.63258 3.5 8.49998C3.5 8.36737 3.55268 8.24019 3.64645 8.14642C3.74021 8.05265 3.86739 7.99998 4 7.99998H6.5C6.63261 7.99998 6.75979 8.05265 6.85355 8.14642C6.94732 8.24019 7 8.36737 7 8.49998C7 8.63258 6.94732 8.75976 6.85355 8.85353C6.75979 8.9473 6.63261 8.99998 6.5 8.99998ZM6.5 6.99998H4C3.86739 6.99998 3.74021 6.9473 3.64645 6.85353C3.55268 6.75976 3.5 6.63258 3.5 6.49998C3.5 6.36737 3.55268 6.24019 3.64645 6.14642C3.74021 6.05265 3.86739 5.99998 4 5.99998H6.5C6.63261 5.99998 6.75979 6.05265 6.85355 6.14642C6.94732 6.24019 7 6.36737 7 6.49998C7 6.63258 6.94732 6.75976 6.85355 6.85353C6.75979 6.9473 6.63261 6.99998 6.5 6.99998ZM10.5 10.5C10.1044 10.5 9.71776 10.3827 9.38886 10.1629C9.05996 9.94315 8.80362 9.63079 8.65224 9.26534C8.50087 8.89989 8.46126 8.49776 8.53843 8.10979C8.6156 7.72183 8.80608 7.36547 9.08579 7.08576C9.36549 6.80606 9.72186 6.61557 10.1098 6.5384C10.4978 6.46123 10.8999 6.50084 11.2654 6.65222C11.6308 6.80359 11.9432 7.05994 12.1629 7.38883C12.3827 7.71773 12.5 8.10441 12.5 8.49998C12.5 9.03041 12.2893 9.53912 11.9142 9.91419C11.5391 10.2893 11.0304 10.5 10.5 10.5Z" fill="black"/>
</g>
<defs>
<clipPath id="clip0_5_441">
<rect width="16" height="16" fill="white"/>
</clipPath>
</defs>
</svg>
