<svg width="16" height="16" viewBox="0 0 16 16" fill="none" xmlns="http://www.w3.org/2000/svg">
<g clip-path="url(#clip0_5_440)">
<path d="M7.2499 7.99997C7.2499 7.85163 7.29389 7.70663 7.3763 7.58329C7.45871 7.45995 7.57585 7.36382 7.71289 7.30706C7.84994 7.25029 8.00073 7.23544 8.14622 7.26438C8.29171 7.29332 8.42534 7.36475 8.53023 7.46964C8.63512 7.57453 8.70655 7.70816 8.73549 7.85365C8.76443 7.99914 8.74958 8.14994 8.69281 8.28698C8.63605 8.42403 8.53992 8.54116 8.41658 8.62357C8.29324 8.70598 8.14824 8.74997 7.9999 8.74997C7.80099 8.74997 7.61023 8.67095 7.46957 8.5303C7.32892 8.38965 7.2499 8.19888 7.2499 7.99997ZM6.26365 8.21934C6.25464 8.14656 6.25004 8.0733 6.2499 7.99997C6.24982 7.65776 6.35007 7.32304 6.53825 7.03722C6.72642 6.75139 6.99427 6.52702 7.30865 6.39184C7.34088 6.3778 7.36979 6.35711 7.39348 6.33113C7.41718 6.30516 7.43512 6.27447 7.44615 6.24109C7.45718 6.20771 7.46105 6.17237 7.45749 6.13739C7.45394 6.10241 7.44305 6.06858 7.42553 6.03809L5.67178 2.99997C5.60228 2.87946 5.50841 2.77477 5.39616 2.6926C5.28391 2.61043 5.15575 2.55258 5.01987 2.52276C4.88399 2.49294 4.74338 2.49179 4.60704 2.5194C4.47069 2.54701 4.3416 2.60276 4.22803 2.68309C3.45919 3.22511 2.81738 3.92781 2.34707 4.74249C1.87676 5.55717 1.58918 6.46437 1.50428 7.40122C1.49176 7.54111 1.50846 7.68208 1.55333 7.81518C1.59819 7.94827 1.67024 8.07058 1.7649 8.17434C1.85822 8.27652 1.97173 8.35822 2.09824 8.41427C2.22476 8.47032 2.36153 8.4995 2.4999 8.49997H6.01615C6.05152 8.49988 6.08646 8.49229 6.11867 8.4777C6.15089 8.46311 6.17964 8.44185 6.20303 8.41533C6.22642 8.38881 6.24392 8.35763 6.25437 8.32384C6.26482 8.29006 6.26799 8.25444 6.26365 8.21934ZM14.4955 7.40122C14.4106 6.46437 14.1231 5.55717 13.6527 4.74249C13.1824 3.92781 12.5406 3.22511 11.7718 2.68309C11.6582 2.60276 11.5291 2.54701 11.3928 2.5194C11.2564 2.49179 11.1158 2.49294 10.9799 2.52276C10.8441 2.55258 10.7159 2.61043 10.6036 2.6926C10.4914 2.77477 10.3975 2.87946 10.328 2.99997L8.57428 6.03809C8.55676 6.06858 8.54587 6.10241 8.54231 6.13739C8.53876 6.17237 8.54262 6.20771 8.55365 6.24109C8.56468 6.27447 8.58263 6.30516 8.60632 6.33113C8.63002 6.35711 8.65892 6.3778 8.69115 6.39184C9.00553 6.52702 9.27338 6.75139 9.46156 7.03722C9.64974 7.32304 9.74999 7.65776 9.7499 7.99997C9.74976 8.0733 9.74517 8.14656 9.73615 8.21934C9.73179 8.25465 9.73502 8.29048 9.74562 8.32444C9.75621 8.3584 9.77394 8.38971 9.7976 8.41627C9.82127 8.44284 9.85033 8.46404 9.88284 8.47848C9.91536 8.49291 9.95058 8.50024 9.98615 8.49997H13.4999C13.6383 8.4995 13.7751 8.47032 13.9016 8.41427C14.0281 8.35822 14.1416 8.27652 14.2349 8.17434C14.3296 8.07058 14.4016 7.94827 14.4465 7.81518C14.4913 7.68208 14.508 7.54111 14.4955 7.40122ZM9.4249 9.46747C9.40699 9.43666 9.3827 9.41004 9.35366 9.38939C9.32462 9.36873 9.2915 9.35453 9.25652 9.34772C9.22154 9.34091 9.18551 9.34166 9.15085 9.34992C9.11618 9.35818 9.08368 9.37375 9.05553 9.39559C8.7516 9.62545 8.38096 9.74983 7.9999 9.74983C7.61885 9.74983 7.2482 9.62545 6.94428 9.39559C6.91612 9.37375 6.88362 9.35818 6.84896 9.34992C6.81429 9.34166 6.77826 9.34091 6.74328 9.34772C6.7083 9.35453 6.67518 9.36873 6.64614 9.38939C6.6171 9.41004 6.59281 9.43666 6.5749 9.46747L4.82803 12.4943C4.75854 12.6146 4.71486 12.748 4.69977 12.886C4.68468 13.0241 4.6985 13.1637 4.74037 13.2962C4.78223 13.4286 4.85121 13.5508 4.94292 13.6551C5.03463 13.7594 5.14705 13.8434 5.27303 13.9018C6.12809 14.2959 7.0584 14.5 7.9999 14.5C8.9414 14.5 9.87172 14.2959 10.7268 13.9018C10.8528 13.8434 10.9652 13.7594 11.0569 13.6551C11.1486 13.5508 11.2176 13.4286 11.2594 13.2962C11.3013 13.1637 11.3151 13.0241 11.3 12.886C11.2849 12.748 11.2413 12.6146 11.1718 12.4943L9.4249 9.46747Z" fill="black"/>
</g>
<defs>
<clipPath id="clip0_5_440">
<rect width="16" height="16" fill="white"/>
</clipPath>
</defs>
</svg>
