<svg width="16" height="16" viewBox="0 0 16 16" fill="none" xmlns="http://www.w3.org/2000/svg">
<g clip-path="url(#clip0_5_1361)">
<path d="M15.5 10C15.4992 10.7954 15.1828 11.558 14.6204 12.1204C14.058 12.6829 13.2954 12.9992 12.5 13H9.5C8.39687 13 7.5 12.0781 7.5 10.9444C7.5 9.81064 8.39687 8.88876 9.5 8.88876C9.56974 8.88875 9.63942 8.89251 9.70875 8.90001C9.96479 8.25002 10.4396 7.70977 11.0514 7.37244C11.6632 7.03511 12.3735 6.92186 13.0598 7.05222C13.7461 7.18258 14.3655 7.54839 14.8109 8.08653C15.2564 8.62467 15.5001 9.30141 15.5 10ZM7 4.50001C8.43263 4.49713 9.80927 5.05609 10.8344 6.05689C10.9301 6.14601 11.0568 6.1941 11.1876 6.19086C11.3183 6.18761 11.4425 6.13329 11.5337 6.03953C11.6248 5.94577 11.6756 5.82004 11.6752 5.68928C11.6747 5.55852 11.623 5.43314 11.5312 5.34001C10.6151 4.44925 9.45678 3.84826 8.20098 3.61216C6.94519 3.37607 5.64767 3.51535 4.47059 4.01258C3.29352 4.50982 2.28911 5.34297 1.58291 6.40788C0.876709 7.47279 0.500046 8.72222 0.5 10V11C0.5 11.1326 0.552678 11.2598 0.646447 11.3536C0.740215 11.4473 0.867392 11.5 1 11.5C1.13261 11.5 1.25979 11.4473 1.35355 11.3536C1.44732 11.2598 1.5 11.1326 1.5 11V10C1.50165 8.54183 2.08165 7.14385 3.11274 6.11275C4.14383 5.08166 5.54182 4.50167 7 4.50001ZM7 6.50001C7.745 6.49796 8.47093 6.73548 9.07063 7.17751C9.12279 7.22243 9.18366 7.25609 9.24944 7.27639C9.31521 7.29669 9.38447 7.30319 9.45287 7.29548C9.52127 7.28777 9.58735 7.26603 9.64695 7.2316C9.70656 7.19717 9.75842 7.15081 9.79928 7.09541C9.84014 7.04001 9.86911 6.97677 9.8844 6.90966C9.89969 6.84254 9.90095 6.77299 9.88811 6.70536C9.87527 6.63773 9.8486 6.57349 9.80978 6.51664C9.77096 6.4598 9.72082 6.41158 9.6625 6.37501C8.99216 5.88304 8.19862 5.58642 7.36994 5.51807C6.54125 5.44971 5.70983 5.61229 4.96794 5.98777C4.22605 6.36325 3.6027 6.93694 3.16705 7.64518C2.73141 8.35342 2.50052 9.16852 2.5 10V11C2.5 11.1326 2.55268 11.2598 2.64645 11.3536C2.74021 11.4473 2.86739 11.5 3 11.5C3.13261 11.5 3.25979 11.4473 3.35355 11.3536C3.44732 11.2598 3.5 11.1326 3.5 11V10C3.50099 9.07206 3.87006 8.1824 4.52622 7.52624C5.18238 6.87007 6.07205 6.50101 7 6.50001ZM7.95062 8.16939C7.96577 8.10549 7.96819 8.03924 7.95773 7.97441C7.94727 7.90958 7.92414 7.84745 7.88967 7.79155C7.85519 7.73566 7.81005 7.68711 7.75681 7.64867C7.70357 7.61023 7.64327 7.58265 7.57937 7.56751C7.21203 7.48 6.82964 7.47684 6.4609 7.55827C6.09216 7.6397 5.74666 7.80361 5.45033 8.03768C5.15401 8.27176 4.91456 8.56992 4.74997 8.90979C4.58538 9.24965 4.49992 9.62239 4.5 10V11C4.5 11.1326 4.55268 11.2598 4.64645 11.3536C4.74021 11.4473 4.86739 11.5 5 11.5C5.13261 11.5 5.25979 11.4473 5.35355 11.3536C5.44732 11.2598 5.5 11.1326 5.5 11V10C5.49995 9.7734 5.55125 9.54971 5.65004 9.34577C5.74883 9.14182 5.89255 8.9629 6.0704 8.82246C6.24826 8.68202 6.45562 8.5837 6.67692 8.53489C6.89821 8.48608 7.1277 8.48804 7.34812 8.54064C7.41206 8.55588 7.47838 8.55836 7.54328 8.54795C7.60818 8.53753 7.67039 8.51443 7.72635 8.47994C7.78231 8.44546 7.83093 8.40028 7.86941 8.347C7.90789 8.29371 7.93549 8.23335 7.95062 8.16939Z" fill="black"/>
</g>
<defs>
<clipPath id="clip0_5_1361">
<rect width="16" height="16" fill="white"/>
</clipPath>
</defs>
</svg>
