<svg width="16" height="16" viewBox="0 0 16 16" fill="none" xmlns="http://www.w3.org/2000/svg">
<g clip-path="url(#clip0_5_439)">
<path d="M8 3C6.01154 3.00215 4.10513 3.79302 2.69907 5.19907C1.29302 6.60513 0.502151 8.51154 0.5 10.5V11.5C0.5 11.6326 0.552678 11.7598 0.646447 11.8536C0.740215 11.9473 0.867392 12 1 12H15C15.1326 12 15.2598 11.9473 15.3536 11.8536C15.4473 11.7598 15.5 11.6326 15.5 11.5V10.5C15.4978 8.51154 14.707 6.60513 13.3009 5.19907C11.8949 3.79302 9.98846 3.00215 8 3ZM10 11C9.86739 11 9.74021 10.9473 9.64645 10.8536C9.55268 10.7598 9.5 10.6326 9.5 10.5C9.5 10.1022 9.34196 9.72064 9.06066 9.43934C8.77936 9.15804 8.39782 9 8 9C7.60218 9 7.22064 9.15804 6.93934 9.43934C6.65804 9.72064 6.5 10.1022 6.5 10.5C6.5 10.6326 6.44732 10.7598 6.35355 10.8536C6.25979 10.9473 6.13261 11 6 11C5.86739 11 5.74021 10.9473 5.64645 10.8536C5.55268 10.7598 5.5 10.6326 5.5 10.5C5.5 9.83696 5.76339 9.20107 6.23223 8.73223C6.70107 8.26339 7.33696 8 8 8C8.66304 8 9.29893 8.26339 9.76777 8.73223C10.2366 9.20107 10.5 9.83696 10.5 10.5C10.5 10.6326 10.4473 10.7598 10.3536 10.8536C10.2598 10.9473 10.1326 11 10 11ZM12 11C11.8674 11 11.7402 10.9473 11.6464 10.8536C11.5527 10.7598 11.5 10.6326 11.5 10.5C11.5 9.57174 11.1313 8.6815 10.4749 8.02513C9.8185 7.36875 8.92826 7 8 7C7.07174 7 6.1815 7.36875 5.52513 8.02513C4.86875 8.6815 4.5 9.57174 4.5 10.5C4.5 10.6326 4.44732 10.7598 4.35355 10.8536C4.25979 10.9473 4.13261 11 4 11C3.86739 11 3.74021 10.9473 3.64645 10.8536C3.55268 10.7598 3.5 10.6326 3.5 10.5C3.5 9.30653 3.97411 8.16193 4.81802 7.31802C5.66193 6.47411 6.80653 6 8 6C9.19347 6 10.3381 6.47411 11.182 7.31802C12.0259 8.16193 12.5 9.30653 12.5 10.5C12.5 10.6326 12.4473 10.7598 12.3536 10.8536C12.2598 10.9473 12.1326 11 12 11ZM14 11C13.8674 11 13.7402 10.9473 13.6464 10.8536C13.5527 10.7598 13.5 10.6326 13.5 10.5C13.5 9.04131 12.9205 7.64236 11.8891 6.61091C10.8576 5.57946 9.45869 5 8 5C6.54131 5 5.14236 5.57946 4.11091 6.61091C3.07946 7.64236 2.5 9.04131 2.5 10.5C2.5 10.6326 2.44732 10.7598 2.35355 10.8536C2.25979 10.9473 2.13261 11 2 11C1.86739 11 1.74021 10.9473 1.64645 10.8536C1.55268 10.7598 1.5 10.6326 1.5 10.5C1.5 8.77609 2.18482 7.12279 3.40381 5.90381C4.62279 4.68482 6.27609 4 8 4C9.72391 4 11.3772 4.68482 12.5962 5.90381C13.8152 7.12279 14.5 8.77609 14.5 10.5C14.5 10.6326 14.4473 10.7598 14.3536 10.8536C14.2598 10.9473 14.1326 11 14 11Z" fill="black"/>
</g>
<defs>
<clipPath id="clip0_5_439">
<rect width="16" height="16" fill="white"/>
</clipPath>
</defs>
</svg>
