<svg width="16" height="16" viewBox="0 0 16 16" fill="none" xmlns="http://www.w3.org/2000/svg">
<g clip-path="url(#clip0_5_437)">
<path d="M13.1737 2.45313L5.03308 1.01563C4.77193 0.96967 4.50322 1.02932 4.28604 1.18145C4.06886 1.33358 3.921 1.56574 3.87496 1.82688L2.01558 12.3894C1.99284 12.5188 1.99582 12.6514 2.02435 12.7796C2.05288 12.9079 2.1064 13.0292 2.18186 13.1368C2.25731 13.2443 2.35322 13.336 2.46411 13.4064C2.57499 13.4769 2.69867 13.5248 2.82808 13.5475L10.9687 14.985C11.0982 15.0078 11.2308 15.0049 11.3591 14.9764C11.4875 14.9479 11.6089 14.8944 11.7165 14.819C11.8241 14.7435 11.9158 14.6476 11.9864 14.5366C12.0569 14.4257 12.1048 14.302 12.1275 14.1725L13.9868 3.61C14.0324 3.34877 13.9723 3.08014 13.8198 2.86319C13.6673 2.64624 13.4349 2.49874 13.1737 2.45313ZM8.46871 8.2225C8.4483 8.33817 8.38783 8.44296 8.29789 8.5185C8.20795 8.59404 8.09429 8.6355 7.97683 8.63563C7.94751 8.63561 7.91824 8.6331 7.88933 8.62813L5.29558 8.17C5.17232 8.13968 5.0652 8.06361 4.99595 7.95722C4.9267 7.85083 4.90052 7.72208 4.9227 7.5971C4.94488 7.47211 5.01377 7.36024 5.1154 7.28417C5.21703 7.20811 5.34379 7.17355 5.46996 7.1875L8.06246 7.64313C8.1272 7.65445 8.18907 7.67842 8.24453 7.71368C8.3 7.74894 8.34797 7.79478 8.3857 7.84859C8.42343 7.9024 8.45018 7.96312 8.46443 8.02728C8.47867 8.09144 8.48012 8.15778 8.46871 8.2225ZM11.4062 6.71125C11.3858 6.82681 11.3254 6.93152 11.2356 7.00705C11.1458 7.08257 11.0323 7.12411 10.915 7.12438C10.8854 7.12443 10.8559 7.12171 10.8268 7.11625L5.63933 6.20063C5.50871 6.1775 5.39263 6.10344 5.31662 5.99472C5.24061 5.88601 5.2109 5.75156 5.23402 5.62094C5.25714 5.49032 5.33121 5.37424 5.43992 5.29822C5.54863 5.22221 5.68309 5.1925 5.81371 5.21563L11.0012 6.13188C11.066 6.14313 11.1279 6.16705 11.1835 6.20227C11.239 6.2375 11.2871 6.28333 11.3248 6.33715C11.3626 6.39097 11.3894 6.45171 11.4037 6.51591C11.418 6.5801 11.4195 6.64648 11.4081 6.71125H11.4062ZM11.7531 4.74125C11.7327 4.85692 11.6722 4.96171 11.5823 5.03725C11.4923 5.11279 11.3787 5.15425 11.2612 5.15438C11.2319 5.15434 11.2026 5.15183 11.1737 5.14688L5.98621 4.23063C5.92006 4.22089 5.85653 4.19798 5.79939 4.16327C5.74224 4.12855 5.69265 4.08272 5.65352 4.0285C5.6144 3.97427 5.58656 3.91275 5.57163 3.84757C5.5567 3.7824 5.555 3.71489 5.56662 3.64904C5.57825 3.5832 5.60296 3.52035 5.63929 3.46422C5.67563 3.4081 5.72286 3.35983 5.77818 3.32227C5.8335 3.28472 5.89579 3.25864 5.96137 3.24558C6.02694 3.23252 6.09447 3.23275 6.15996 3.24625L11.3475 4.16188C11.4123 4.17305 11.4743 4.19692 11.5299 4.23212C11.5855 4.26731 11.6336 4.31313 11.6715 4.36696C11.7094 4.42079 11.7362 4.48156 11.7505 4.54579C11.7649 4.61001 11.7664 4.67644 11.755 4.74125H11.7531Z" fill="black"/>
</g>
<defs>
<clipPath id="clip0_5_437">
<rect width="16" height="16" fill="white"/>
</clipPath>
</defs>
</svg>
