<svg width="16" height="16" viewBox="0 0 16 16" fill="none" xmlns="http://www.w3.org/2000/svg">
<g clip-path="url(#clip0_5_434)">
<path d="M13.5 2.5H2.5C2.23478 2.5 1.98043 2.60536 1.79289 2.79289C1.60536 2.98043 1.5 3.23478 1.5 3.5V13C1.50005 13.0852 1.52187 13.169 1.56341 13.2434C1.60494 13.3178 1.66481 13.3804 1.73732 13.4252C1.80983 13.4699 1.89258 13.4954 1.97771 13.4992C2.06285 13.503 2.14754 13.485 2.22375 13.4469L4 12.5588L5.77625 13.4469C5.84572 13.4816 5.92232 13.4997 6 13.4997C6.07768 13.4997 6.15428 13.4816 6.22375 13.4469L8 12.5588L9.77625 13.4469C9.84571 13.4816 9.92232 13.4997 10 13.4997C10.0777 13.4997 10.1543 13.4816 10.2238 13.4469L12 12.5588L13.7762 13.4469C13.8525 13.485 13.9372 13.503 14.0223 13.4992C14.1074 13.4954 14.1902 13.4699 14.2627 13.4252C14.3352 13.3804 14.3951 13.3178 14.4366 13.2434C14.4781 13.169 14.5 13.0852 14.5 13V3.5C14.5 3.23478 14.3946 2.98043 14.2071 2.79289C14.0196 2.60536 13.7652 2.5 13.5 2.5ZM9.85375 8.64625C9.90021 8.6927 9.93705 8.74786 9.9622 8.80855C9.98734 8.86925 10.0003 8.9343 10.0003 9C10.0003 9.0657 9.98734 9.13075 9.9622 9.19145C9.93705 9.25214 9.90021 9.3073 9.85375 9.35375C9.80729 9.40021 9.75214 9.43706 9.69145 9.4622C9.63075 9.48734 9.5657 9.50028 9.5 9.50028C9.4343 9.50028 9.36925 9.48734 9.30855 9.4622C9.24786 9.43706 9.1927 9.40021 9.14625 9.35375L8 8.20687L6.85375 9.35375C6.8073 9.40021 6.75214 9.43706 6.69145 9.4622C6.63075 9.48734 6.5657 9.50028 6.5 9.50028C6.4343 9.50028 6.36925 9.48734 6.30855 9.4622C6.24786 9.43706 6.1927 9.40021 6.14625 9.35375C6.09979 9.3073 6.06294 9.25214 6.0378 9.19145C6.01266 9.13075 5.99972 9.0657 5.99972 9C5.99972 8.9343 6.01266 8.86925 6.0378 8.80855C6.06294 8.74786 6.09979 8.6927 6.14625 8.64625L7.29313 7.5L6.14625 6.35375C6.05243 6.25993 5.99972 6.13268 5.99972 6C5.99972 5.86732 6.05243 5.74007 6.14625 5.64625C6.24007 5.55243 6.36732 5.49972 6.5 5.49972C6.63268 5.49972 6.75993 5.55243 6.85375 5.64625L8 6.79313L9.14625 5.64625C9.1927 5.59979 9.24786 5.56294 9.30855 5.5378C9.36925 5.51266 9.4343 5.49972 9.5 5.49972C9.5657 5.49972 9.63075 5.51266 9.69145 5.5378C9.75214 5.56294 9.80729 5.59979 9.85375 5.64625C9.90021 5.6927 9.93705 5.74786 9.9622 5.80855C9.98734 5.86925 10.0003 5.9343 10.0003 6C10.0003 6.0657 9.98734 6.13075 9.9622 6.19145C9.93705 6.25214 9.90021 6.3073 9.85375 6.35375L8.70687 7.5L9.85375 8.64625Z" fill="black"/>
</g>
<defs>
<clipPath id="clip0_5_434">
<rect width="16" height="16" fill="white"/>
</clipPath>
</defs>
</svg>
