<svg width="16" height="16" viewBox="0 0 16 16" fill="none" xmlns="http://www.w3.org/2000/svg">
<g clip-path="url(#clip0_5_432)">
<path d="M13.5 2.5H2.5C2.23478 2.5 1.98043 2.60536 1.79289 2.79289C1.60536 2.98043 1.5 3.23478 1.5 3.5V12.5C1.5 12.7652 1.60536 13.0196 1.79289 13.2071C1.98043 13.3946 2.23478 13.5 2.5 13.5H13.5C13.7652 13.5 14.0196 13.3946 14.2071 13.2071C14.3946 13.0196 14.5 12.7652 14.5 12.5V3.5C14.5 3.23478 14.3946 2.98043 14.2071 2.79289C14.0196 2.60536 13.7652 2.5 13.5 2.5ZM5 12H4C3.73478 12 3.48043 11.8946 3.29289 11.7071C3.10536 11.5196 3 11.2652 3 11V9C3 8.86739 3.05268 8.74021 3.14645 8.64645C3.24021 8.55268 3.36739 8.5 3.5 8.5C3.63261 8.5 3.75979 8.55268 3.85355 8.64645C3.94732 8.74021 4 8.86739 4 9V11H5C5.13261 11 5.25979 11.0527 5.35355 11.1464C5.44732 11.2402 5.5 11.3674 5.5 11.5C5.5 11.6326 5.44732 11.7598 5.35355 11.8536C5.25979 11.9473 5.13261 12 5 12ZM5 5H4V7C4 7.13261 3.94732 7.25979 3.85355 7.35355C3.75979 7.44732 3.63261 7.5 3.5 7.5C3.36739 7.5 3.24021 7.44732 3.14645 7.35355C3.05268 7.25979 3 7.13261 3 7V5C3 4.73478 3.10536 4.48043 3.29289 4.29289C3.48043 4.10536 3.73478 4 4 4H5C5.13261 4 5.25979 4.05268 5.35355 4.14645C5.44732 4.24021 5.5 4.36739 5.5 4.5C5.5 4.63261 5.44732 4.75979 5.35355 4.85355C5.25979 4.94732 5.13261 5 5 5ZM9 12H7C6.86739 12 6.74021 11.9473 6.64645 11.8536C6.55268 11.7598 6.5 11.6326 6.5 11.5C6.5 11.3674 6.55268 11.2402 6.64645 11.1464C6.74021 11.0527 6.86739 11 7 11H9C9.13261 11 9.25979 11.0527 9.35355 11.1464C9.44732 11.2402 9.5 11.3674 9.5 11.5C9.5 11.6326 9.44732 11.7598 9.35355 11.8536C9.25979 11.9473 9.13261 12 9 12ZM9 5H7C6.86739 5 6.74021 4.94732 6.64645 4.85355C6.55268 4.75979 6.5 4.63261 6.5 4.5C6.5 4.36739 6.55268 4.24021 6.64645 4.14645C6.74021 4.05268 6.86739 4 7 4H9C9.13261 4 9.25979 4.05268 9.35355 4.14645C9.44732 4.24021 9.5 4.36739 9.5 4.5C9.5 4.63261 9.44732 4.75979 9.35355 4.85355C9.25979 4.94732 9.13261 5 9 5ZM13 11C13 11.2652 12.8946 11.5196 12.7071 11.7071C12.5196 11.8946 12.2652 12 12 12H11C10.8674 12 10.7402 11.9473 10.6464 11.8536C10.5527 11.7598 10.5 11.6326 10.5 11.5C10.5 11.3674 10.5527 11.2402 10.6464 11.1464C10.7402 11.0527 10.8674 11 11 11H12V9C12 8.86739 12.0527 8.74021 12.1464 8.64645C12.2402 8.55268 12.3674 8.5 12.5 8.5C12.6326 8.5 12.7598 8.55268 12.8536 8.64645C12.9473 8.74021 13 8.86739 13 9V11ZM13 7C13 7.13261 12.9473 7.25979 12.8536 7.35355C12.7598 7.44732 12.6326 7.5 12.5 7.5C12.3674 7.5 12.2402 7.44732 12.1464 7.35355C12.0527 7.25979 12 7.13261 12 7V5H11C10.8674 5 10.7402 4.94732 10.6464 4.85355C10.5527 4.75979 10.5 4.63261 10.5 4.5C10.5 4.36739 10.5527 4.24021 10.6464 4.14645C10.7402 4.05268 10.8674 4 11 4H12C12.2652 4 12.5196 4.10536 12.7071 4.29289C12.8946 4.48043 13 4.73478 13 5V7Z" fill="black"/>
</g>
<defs>
<clipPath id="clip0_5_432">
<rect width="16" height="16" fill="white"/>
</clipPath>
</defs>
</svg>
