<svg width="16" height="16" viewBox="0 0 16 16" fill="none" xmlns="http://www.w3.org/2000/svg">
<g clip-path="url(#clip0_5_1164)">
<path d="M5.99994 13C5.99994 13.1326 5.94726 13.2598 5.8535 13.3536C5.75973 13.4473 5.63255 13.5 5.49994 13.5H2.49994C2.23671 13.4998 1.97816 13.4304 1.75026 13.2987C1.52236 13.167 1.33313 12.9776 1.20159 12.7496C1.07004 12.5216 1.00081 12.263 1.00085 11.9998C1.00089 11.7366 1.0702 11.478 1.20182 11.25L2.95182 8.23126L2.08807 7.73126C2.00151 7.68221 1.93155 7.60845 1.88714 7.51942C1.84273 7.43039 1.82589 7.33014 1.83878 7.23149C1.85166 7.13283 1.89368 7.04027 1.95947 6.96563C2.02526 6.89099 2.11181 6.83768 2.20807 6.81251L4.25619 6.26438C4.31964 6.24737 4.38581 6.24303 4.45094 6.2516C4.51606 6.26018 4.57886 6.2815 4.63574 6.31435C4.69262 6.3472 4.74247 6.39094 4.78244 6.44306C4.82241 6.49519 4.85172 6.55468 4.86869 6.61813L5.41807 8.66626C5.44371 8.76181 5.44044 8.86281 5.40865 8.9565C5.37687 9.05019 5.31801 9.13234 5.23952 9.19256C5.16103 9.25278 5.06644 9.28836 4.96773 9.29481C4.86901 9.30125 4.77059 9.27827 4.68494 9.22876L3.81744 8.72876L2.06932 11.75C2.02553 11.8258 2.00243 11.9118 2.00233 11.9994C2.00222 12.087 2.02511 12.173 2.06872 12.249C2.11232 12.3249 2.1751 12.3881 2.25078 12.4321C2.32646 12.4762 2.41238 12.4996 2.49994 12.5H5.49994C5.63255 12.5 5.75973 12.5527 5.8535 12.6465C5.94726 12.7402 5.99994 12.8674 5.99994 13ZM14.7956 11.25L13.3493 8.75001C13.2801 8.64118 13.1716 8.56328 13.0463 8.5326C12.9211 8.50192 12.7888 8.52082 12.6771 8.58536C12.5655 8.6499 12.4831 8.75508 12.4472 8.87893C12.4112 9.00279 12.4245 9.13574 12.4843 9.25001L13.9306 11.75C13.9744 11.8258 13.9975 11.9118 13.9976 11.9994C13.9977 12.087 13.9748 12.173 13.9312 12.249C13.8876 12.3249 13.8248 12.3881 13.7491 12.4321C13.6734 12.4762 13.5875 12.4996 13.4999 12.5H9.99994V11.5C10 11.4011 9.97074 11.3043 9.9158 11.222C9.86087 11.1397 9.78275 11.0756 9.69134 11.0377C9.59993 10.9998 9.49933 10.9899 9.40229 11.0092C9.30525 11.0286 9.21612 11.0763 9.14619 11.1463L7.64619 12.6463C7.5997 12.6927 7.56282 12.7478 7.53766 12.8085C7.5125 12.8692 7.49955 12.9343 7.49955 13C7.49955 13.0657 7.5125 13.1308 7.53766 13.1915C7.56282 13.2522 7.5997 13.3073 7.64619 13.3538L9.14619 14.8538C9.21612 14.9238 9.30525 14.9714 9.40229 14.9908C9.49933 15.0101 9.59993 15.0002 9.69134 14.9623C9.78275 14.9244 9.86087 14.8603 9.9158 14.778C9.97074 14.6957 10 14.599 9.99994 14.5V13.5H13.4999C13.7632 13.4998 14.0217 13.4304 14.2496 13.2987C14.4775 13.167 14.6668 12.9776 14.7983 12.7496C14.9298 12.5216 14.9991 12.263 14.999 11.9998C14.999 11.7366 14.9297 11.478 14.7981 11.25H14.7956ZM7.99994 2.00001C8.08781 1.99913 8.17431 2.02186 8.25039 2.06584C8.32647 2.10982 8.38935 2.17342 8.43244 2.25001L10.1824 5.26876L9.31869 5.76876C9.23375 5.81833 9.16531 5.89185 9.12195 5.98013C9.07858 6.0684 9.06221 6.1675 9.07488 6.26503C9.08756 6.36256 9.12872 6.45419 9.1932 6.52845C9.25769 6.6027 9.34265 6.65629 9.43744 6.68251L11.4862 7.23188C11.5284 7.24298 11.5719 7.24865 11.6156 7.24876C11.7256 7.24865 11.8324 7.21228 11.9197 7.14528C12.0069 7.07828 12.0696 6.98438 12.0981 6.87813L12.6474 4.82876C12.673 4.73329 12.6696 4.6324 12.6379 4.53883C12.6061 4.44526 12.5473 4.36319 12.4689 4.30301C12.3906 4.24282 12.2961 4.20721 12.1975 4.20067C12.0989 4.19413 12.0006 4.21695 11.9149 4.26626L11.0468 4.76626L9.29807 1.75001C9.16629 1.52241 8.97699 1.33345 8.74915 1.20209C8.52131 1.07073 8.26294 1.00159 7.99994 1.00159C7.73695 1.00159 7.47857 1.07073 7.25073 1.20209C7.02289 1.33345 6.83359 1.52241 6.70182 1.75001L5.25432 4.25001C5.19212 4.36454 5.17711 4.49883 5.21247 4.62427C5.24783 4.74971 5.33077 4.85638 5.44363 4.92157C5.55648 4.98676 5.69033 5.0053 5.81666 4.97326C5.94298 4.94121 6.05181 4.86111 6.11994 4.75001L7.56744 2.25001C7.61054 2.17342 7.67341 2.10982 7.74949 2.06584C7.82557 2.02186 7.91207 1.99913 7.99994 2.00001Z" fill="black"/>
</g>
<defs>
<clipPath id="clip0_5_1164">
<rect width="16" height="16" fill="white"/>
</clipPath>
</defs>
</svg>
