<svg width="16" height="16" viewBox="0 0 16 16" fill="none" xmlns="http://www.w3.org/2000/svg">
<g clip-path="url(#clip0_5_428)">
<path d="M15.5 6.50004C15.4999 6.11678 15.3897 5.74161 15.1825 5.4192C14.9753 5.09678 14.6798 4.84069 14.3312 4.68141C13.9826 4.52213 13.5956 4.46636 13.2162 4.52074C12.8368 4.57512 12.481 4.73737 12.1912 4.98816C11.1443 4.43191 9.89372 4.09566 8.58747 4.01754L8.91185 2.06941L10.0193 2.23941C10.0755 2.58877 10.2534 2.90701 10.5216 3.1379C10.7897 3.36878 11.1308 3.49744 11.4846 3.50114C11.8385 3.50483 12.1822 3.38333 12.4551 3.15809C12.728 2.93286 12.9125 2.6184 12.976 2.27029C13.0395 1.92219 12.9778 1.56285 12.802 1.25579C12.6261 0.948731 12.3474 0.713723 12.015 0.5923C11.6827 0.470878 11.3181 0.47086 10.9857 0.59225C10.6534 0.71364 10.3746 0.948621 10.1987 1.25566L8.57372 1.00566C8.44372 0.985618 8.31105 1.01761 8.20448 1.09471C8.0979 1.1718 8.02599 1.28779 8.00435 1.41754L7.57497 4.01004C6.20997 4.06879 4.89872 4.40879 3.80872 4.98816C3.41066 4.65189 2.89708 4.48426 2.37729 4.52094C1.85749 4.55762 1.37254 4.79571 1.02565 5.18455C0.678757 5.57339 0.49732 6.08226 0.519956 6.60286C0.542592 7.12345 0.767514 7.61465 1.14685 7.97191C1.04963 8.30598 1.00018 8.65212 0.999972 9.00004C0.999972 10.3707 1.74997 11.6469 3.11935 12.5932C4.42997 13.5 6.1631 14 7.99997 14C9.83685 14 11.57 13.5 12.8806 12.5932C14.25 11.6469 15 10.3707 15 9.00004C14.9998 8.65212 14.9503 8.30598 14.8531 7.97191C15.0564 7.7843 15.2188 7.55674 15.3301 7.30347C15.4414 7.0502 15.4992 6.77668 15.5 6.50004ZM4.49997 8.00004C4.49997 7.80226 4.55862 7.60892 4.6685 7.44447C4.77838 7.28002 4.93456 7.15185 5.11729 7.07616C5.30001 7.00047 5.50108 6.98067 5.69506 7.01925C5.88904 7.05784 6.06723 7.15308 6.20708 7.29293C6.34693 7.43278 6.44217 7.61097 6.48076 7.80495C6.51934 7.99893 6.49954 8.2 6.42385 8.38272C6.34816 8.56545 6.21999 8.72163 6.05554 8.83151C5.89109 8.94139 5.69775 9.00004 5.49997 9.00004C5.23476 9.00004 4.9804 8.89468 4.79287 8.70714C4.60533 8.51961 4.49997 8.26525 4.49997 8.00004ZM10.2343 11.4419C9.54633 11.8075 8.77911 11.9988 7.99997 11.9988C7.22084 11.9988 6.45361 11.8075 5.7656 11.4419C5.70757 11.4111 5.65617 11.3692 5.61434 11.3186C5.57251 11.2679 5.54106 11.2096 5.52179 11.1468C5.50252 11.084 5.49581 11.018 5.50204 10.9526C5.50827 10.8872 5.52732 10.8237 5.5581 10.7657C5.58888 10.7076 5.63078 10.6562 5.68142 10.6144C5.73207 10.5726 5.79045 10.5411 5.85325 10.5219C5.91604 10.5026 5.98202 10.4959 6.04741 10.5021C6.1128 10.5083 6.17632 10.5274 6.23435 10.5582C6.77799 10.8472 7.38427 10.9983 7.99997 10.9983C8.61567 10.9983 9.22195 10.8472 9.7656 10.5582C9.82362 10.5274 9.88715 10.5083 9.95254 10.5021C10.0179 10.4959 10.0839 10.5026 10.1467 10.5219C10.2095 10.5411 10.2679 10.5726 10.3185 10.6144C10.3692 10.6562 10.4111 10.7076 10.4418 10.7657C10.4726 10.8237 10.4917 10.8872 10.4979 10.9526C10.5041 11.018 10.4974 11.084 10.4782 11.1468C10.4589 11.2096 10.4274 11.2679 10.3856 11.3186C10.3438 11.3692 10.2924 11.4111 10.2343 11.4419ZM10.5 9.00004C10.3022 9.00004 10.1088 8.94139 9.9444 8.83151C9.77995 8.72163 9.65178 8.56545 9.57609 8.38272C9.5004 8.2 9.4806 7.99893 9.51919 7.80495C9.55777 7.61097 9.65301 7.43278 9.79286 7.29293C9.93272 7.15308 10.1109 7.05784 10.3049 7.01925C10.4989 6.98067 10.6999 7.00047 10.8827 7.07616C11.0654 7.15185 11.2216 7.28002 11.3314 7.44447C11.4413 7.60892 11.5 7.80226 11.5 8.00004C11.5 8.26525 11.3946 8.51961 11.2071 8.70714C11.0195 8.89468 10.7652 9.00004 10.5 9.00004Z" fill="black"/>
</g>
<defs>
<clipPath id="clip0_5_428">
<rect width="16" height="16" fill="white"/>
</clipPath>
</defs>
</svg>
