<svg width="16" height="16" viewBox="0 0 16 16" fill="none" xmlns="http://www.w3.org/2000/svg">
<g clip-path="url(#clip0_5_426)">
<path d="M1.50003 8.00003C1.50135 6.80696 1.97588 5.66314 2.81951 4.81951C3.66314 3.97588 4.80696 3.50135 6.00003 3.50003H12V2.50003C11.9999 2.40108 12.0292 2.30433 12.0842 2.22204C12.1391 2.13974 12.2172 2.07559 12.3086 2.03772C12.4 1.99984 12.5006 1.98994 12.5977 2.00926C12.6947 2.02859 12.7838 2.07627 12.8538 2.14628L14.3538 3.64628C14.4003 3.69271 14.4371 3.74786 14.4623 3.80856C14.4875 3.86926 14.5004 3.93432 14.5004 4.00003C14.5004 4.06574 14.4875 4.1308 14.4623 4.1915C14.4371 4.2522 14.4003 4.30734 14.3538 4.35378L12.8538 5.85378C12.7838 5.92378 12.6947 5.97147 12.5977 5.99079C12.5006 6.01012 12.4 6.00022 12.3086 5.96234C12.2172 5.92446 12.1391 5.86032 12.0842 5.77802C12.0292 5.69572 11.9999 5.59898 12 5.50003V4.50003H6.00003C5.07207 4.50102 4.18241 4.87009 3.52625 5.52625C2.87009 6.18241 2.50102 7.07207 2.50003 8.00003C2.50003 8.13264 2.44735 8.25981 2.35358 8.35358C2.25981 8.44735 2.13264 8.50003 2.00003 8.50003C1.86742 8.50003 1.74024 8.44735 1.64647 8.35358C1.55271 8.25981 1.50003 8.13264 1.50003 8.00003ZM14 7.50003C13.8674 7.50003 13.7402 7.55271 13.6465 7.64647C13.5527 7.74024 13.5 7.86742 13.5 8.00003C13.499 8.92798 13.13 9.81764 12.4738 10.4738C11.8176 11.13 10.928 11.499 10 11.5H4.00003V10.5C4.00011 10.4011 3.97082 10.3043 3.91589 10.222C3.86095 10.1397 3.78283 10.0756 3.69142 10.0377C3.60001 9.99984 3.49942 9.98994 3.40237 10.0093C3.30533 10.0286 3.2162 10.0763 3.14628 10.1463L1.64628 11.6463C1.59979 11.6927 1.56291 11.7479 1.53775 11.8086C1.51258 11.8693 1.49963 11.9343 1.49963 12C1.49963 12.0657 1.51258 12.1308 1.53775 12.1915C1.56291 12.2522 1.59979 12.3073 1.64628 12.3538L3.14628 13.8538C3.2162 13.9238 3.30533 13.9715 3.40237 13.9908C3.49942 14.0101 3.60001 14.0002 3.69142 13.9623C3.78283 13.9245 3.86095 13.8603 3.91589 13.778C3.97082 13.6957 4.00011 13.599 4.00003 13.5V12.5H10C11.1931 12.4987 12.3369 12.0242 13.1805 11.1805C14.0242 10.3369 14.4987 9.1931 14.5 8.00003C14.5 7.86742 14.4473 7.74024 14.3536 7.64647C14.2598 7.55271 14.1326 7.50003 14 7.50003Z" fill="black"/>
</g>
<defs>
<clipPath id="clip0_5_426">
<rect width="16" height="16" fill="white"/>
</clipPath>
</defs>
</svg>
