<svg width="16" height="16" viewBox="0 0 16 16" fill="none" xmlns="http://www.w3.org/2000/svg">
<g clip-path="url(#clip0_5_1160)">
<path d="M4.5 10H9V13.5C9 13.7652 8.89464 14.0196 8.70711 14.2071C8.51957 14.3946 8.26522 14.5 8 14.5H4.5C4.23478 14.5 3.98043 14.3946 3.79289 14.2071C3.60536 14.0196 3.5 13.7652 3.5 13.5V11C3.5 10.7348 3.60536 10.4804 3.79289 10.2929C3.98043 10.1054 4.23478 10 4.5 10ZM8 1.5H4.5C4.23478 1.5 3.98043 1.60536 3.79289 1.79289C3.60536 1.98043 3.5 2.23478 3.5 2.5V5C3.5 5.26522 3.60536 5.51957 3.79289 5.70711C3.98043 5.89464 4.23478 6 4.5 6H9V2.5C9 2.23478 8.89464 1.98043 8.70711 1.79289C8.51957 1.60536 8.26522 1.5 8 1.5ZM13.5 6H9V10H13.5C13.7652 10 14.0196 9.89464 14.2071 9.70711C14.3946 9.51957 14.5 9.26522 14.5 9V7C14.5 6.73478 14.3946 6.48043 14.2071 6.29289C14.0196 6.10536 13.7652 6 13.5 6Z" fill="black"/>
</g>
<defs>
<clipPath id="clip0_5_1160">
<rect width="16" height="16" fill="white"/>
</clipPath>
</defs>
</svg>
