<svg width="16" height="16" viewBox="0 0 16 16" fill="none" xmlns="http://www.w3.org/2000/svg">
<g clip-path="url(#clip0_5_422)">
<path d="M9 7.5V13C9 13.1326 8.94732 13.2598 8.85355 13.3536C8.75979 13.4473 8.63261 13.5 8.5 13.5H3C2.86739 13.5 2.74021 13.4473 2.64645 13.3536C2.55268 13.2598 2.5 13.1326 2.5 13V7.5C2.5 7.36739 2.55268 7.24021 2.64645 7.14645C2.74021 7.05268 2.86739 7 3 7H8.5C8.63261 7 8.75979 7.05268 8.85355 7.14645C8.94732 7.24021 9 7.36739 9 7.5ZM13 11C12.8674 11 12.7402 11.0527 12.6464 11.1464C12.5527 11.2402 12.5 11.3674 12.5 11.5V12.5H11C10.8674 12.5 10.7402 12.5527 10.6464 12.6464C10.5527 12.7402 10.5 12.8674 10.5 13C10.5 13.1326 10.5527 13.2598 10.6464 13.3536C10.7402 13.4473 10.8674 13.5 11 13.5H12.5C12.7652 13.5 13.0196 13.3946 13.2071 13.2071C13.3946 13.0196 13.5 12.7652 13.5 12.5V11.5C13.5 11.3674 13.4473 11.2402 13.3536 11.1464C13.2598 11.0527 13.1326 11 13 11ZM13 6.5C12.8674 6.5 12.7402 6.55268 12.6464 6.64645C12.5527 6.74021 12.5 6.86739 12.5 7V9C12.5 9.13261 12.5527 9.25979 12.6464 9.35355C12.7402 9.44732 12.8674 9.5 13 9.5C13.1326 9.5 13.2598 9.44732 13.3536 9.35355C13.4473 9.25979 13.5 9.13261 13.5 9V7C13.5 6.86739 13.4473 6.74021 13.3536 6.64645C13.2598 6.55268 13.1326 6.5 13 6.5ZM12.5 2.5H11.5C11.3674 2.5 11.2402 2.55268 11.1464 2.64645C11.0527 2.74021 11 2.86739 11 3C11 3.13261 11.0527 3.25979 11.1464 3.35355C11.2402 3.44732 11.3674 3.5 11.5 3.5H12.5V4.5C12.5 4.63261 12.5527 4.75979 12.6464 4.85355C12.7402 4.94732 12.8674 5 13 5C13.1326 5 13.2598 4.94732 13.3536 4.85355C13.4473 4.75979 13.5 4.63261 13.5 4.5V3.5C13.5 3.23478 13.3946 2.98043 13.2071 2.79289C13.0196 2.60536 12.7652 2.5 12.5 2.5ZM9 2.5H7C6.86739 2.5 6.74021 2.55268 6.64645 2.64645C6.55268 2.74021 6.5 2.86739 6.5 3C6.5 3.13261 6.55268 3.25979 6.64645 3.35355C6.74021 3.44732 6.86739 3.5 7 3.5H9C9.13261 3.5 9.25979 3.44732 9.35355 3.35355C9.44732 3.25979 9.5 3.13261 9.5 3C9.5 2.86739 9.44732 2.74021 9.35355 2.64645C9.25979 2.55268 9.13261 2.5 9 2.5ZM3 5.5C3.13261 5.5 3.25979 5.44732 3.35355 5.35355C3.44732 5.25979 3.5 5.13261 3.5 5V3.5H4.5C4.63261 3.5 4.75979 3.44732 4.85355 3.35355C4.94732 3.25979 5 3.13261 5 3C5 2.86739 4.94732 2.74021 4.85355 2.64645C4.75979 2.55268 4.63261 2.5 4.5 2.5H3.5C3.23478 2.5 2.98043 2.60536 2.79289 2.79289C2.60536 2.98043 2.5 3.23478 2.5 3.5V5C2.5 5.13261 2.55268 5.25979 2.64645 5.35355C2.74021 5.44732 2.86739 5.5 3 5.5Z" fill="black"/>
</g>
<defs>
<clipPath id="clip0_5_422">
<rect width="16" height="16" fill="white"/>
</clipPath>
</defs>
</svg>
