<svg width="16" height="16" viewBox="0 0 16 16" fill="none" xmlns="http://www.w3.org/2000/svg">
<g clip-path="url(#clip0_5_420)">
<path d="M14.5 4.48998V11.51C14.499 11.6879 14.4504 11.8624 14.3592 12.0151C14.2679 12.1679 14.1373 12.2934 13.9811 12.3785C13.8248 12.4637 13.6486 12.5053 13.4708 12.4992C13.2929 12.4931 13.12 12.4394 12.97 12.3437L7.99996 9.17873V11.51C7.99904 11.6879 7.95041 11.8624 7.85915 12.0151C7.76789 12.1679 7.63733 12.2934 7.48109 12.3785C7.32484 12.4637 7.14861 12.5053 6.97077 12.4992C6.79294 12.4931 6.61999 12.4394 6.46996 12.3437L0.958089 8.83373C0.81766 8.7446 0.702017 8.62144 0.621892 8.47569C0.541767 8.32993 0.499756 8.1663 0.499756 7.99998C0.499756 7.83365 0.541767 7.67002 0.621892 7.52426C0.702017 7.37851 0.81766 7.25536 0.958089 7.16623L6.46996 3.65623C6.61995 3.56033 6.79293 3.50646 6.97085 3.50024C7.14876 3.49402 7.32509 3.53568 7.48141 3.62086C7.63773 3.70604 7.76831 3.83163 7.85953 3.98451C7.95074 4.13739 7.99924 4.31195 7.99996 4.48998V6.82123L12.97 3.65623C13.12 3.56033 13.2929 3.50646 13.4708 3.50024C13.6488 3.49402 13.8251 3.53568 13.9814 3.62086C14.1377 3.70604 14.2683 3.83163 14.3595 3.98451C14.4507 4.13739 14.4992 4.31195 14.5 4.48998Z" fill="black"/>
</g>
<defs>
<clipPath id="clip0_5_420">
<rect width="16" height="16" fill="white"/>
</clipPath>
</defs>
</svg>
