<svg width="16" height="16" viewBox="0 0 16 16" fill="none" xmlns="http://www.w3.org/2000/svg">
<g clip-path="url(#clip0_5_421)">
<path d="M8 1.5C6.71442 1.5 5.45772 1.88122 4.3888 2.59545C3.31988 3.30968 2.48676 4.32484 1.99479 5.51256C1.50282 6.70028 1.37409 8.00721 1.6249 9.26809C1.8757 10.529 2.49477 11.6872 3.40381 12.5962C4.31285 13.5052 5.47104 14.1243 6.73192 14.3751C7.99279 14.6259 9.29973 14.4972 10.4874 14.0052C11.6752 13.5132 12.6903 12.6801 13.4046 11.6112C14.1188 10.5423 14.5 9.28558 14.5 8C14.4982 6.27665 13.8128 4.62441 12.5942 3.40582C11.3756 2.18722 9.72335 1.50182 8 1.5ZM11.5 10.25C11.5 10.3429 11.4741 10.4339 11.4253 10.5129C11.3765 10.5919 11.3067 10.6557 11.2236 10.6972C11.1406 10.7387 11.0476 10.7563 10.9551 10.748C10.8626 10.7396 10.7743 10.7057 10.7 10.65L7.7 8.4C7.6379 8.35343 7.5875 8.29303 7.55279 8.22361C7.51808 8.15418 7.5 8.07762 7.5 8V10.25C7.5 10.3429 7.47415 10.4339 7.42533 10.5129C7.37651 10.5919 7.30666 10.6557 7.22361 10.6972C7.14056 10.7387 7.04758 10.7563 6.9551 10.748C6.86262 10.7396 6.77429 10.7057 6.7 10.65L3.7 8.4C3.6379 8.35343 3.5875 8.29303 3.55279 8.22361C3.51808 8.15418 3.5 8.07762 3.5 8C3.5 7.92238 3.51808 7.84582 3.55279 7.77639C3.5875 7.70697 3.6379 7.64657 3.7 7.6L6.7 5.35C6.77429 5.29429 6.86262 5.26036 6.9551 5.25202C7.04758 5.24368 7.14056 5.26126 7.22361 5.30279C7.30666 5.34431 7.37651 5.40815 7.42533 5.48713C7.47415 5.56612 7.5 5.65714 7.5 5.75V8C7.5 7.92238 7.51808 7.84582 7.55279 7.77639C7.5875 7.70697 7.6379 7.64657 7.7 7.6L10.7 5.35C10.7743 5.29429 10.8626 5.26036 10.9551 5.25202C11.0476 5.24368 11.1406 5.26126 11.2236 5.30279C11.3067 5.34431 11.3765 5.40815 11.4253 5.48713C11.4741 5.56612 11.5 5.65714 11.5 5.75V10.25Z" fill="black"/>
</g>
<defs>
<clipPath id="clip0_5_421">
<rect width="16" height="16" fill="white"/>
</clipPath>
</defs>
</svg>
