<svg width="16" height="16" viewBox="0 0 16 16" fill="none" xmlns="http://www.w3.org/2000/svg">
<g clip-path="url(#clip0_5_1440)">
<path d="M14.9375 11.7549L10.855 4.49994H14.48C14.6098 4.5028 14.7358 4.45612 14.8324 4.36939C14.929 4.28267 14.9889 4.16241 15 4.03307C15.0046 3.96467 14.995 3.89608 14.9719 3.83154C14.9488 3.767 14.9127 3.7079 14.8658 3.6579C14.8189 3.6079 14.7623 3.56808 14.6993 3.54091C14.6364 3.51374 14.5686 3.49979 14.5 3.49994H1.51689C1.38764 3.49789 1.26242 3.54493 1.1665 3.63157C1.07057 3.71822 1.01108 3.83803 1.00002 3.96682C0.995477 4.03521 1.00505 4.10381 1.02813 4.16835C1.05122 4.23289 1.08733 4.29199 1.13422 4.34199C1.18111 4.39198 1.23778 4.4318 1.3007 4.45898C1.36363 4.48615 1.43147 4.50009 1.50002 4.49994H5.14502L1.06252 11.7549C1.01011 11.8481 0.988936 11.9556 1.0021 12.0617C1.01526 12.1677 1.06206 12.2668 1.13564 12.3443C1.18434 12.3943 1.2427 12.4339 1.30716 12.4606C1.37162 12.4874 1.44085 12.5008 1.51064 12.4999H7.25002C7.31632 12.4999 7.37991 12.4736 7.4268 12.4267C7.47368 12.3798 7.50002 12.3162 7.50002 12.2499V11.0168C7.49828 10.8878 7.54547 10.7629 7.63208 10.6672C7.7187 10.5716 7.83832 10.5122 7.96689 10.5012C8.03529 10.4967 8.10388 10.5062 8.16842 10.5293C8.23296 10.5524 8.29207 10.5885 8.34206 10.6354C8.39206 10.6823 8.43188 10.739 8.45905 10.8019C8.48622 10.8648 8.50017 10.9326 8.50002 11.0012V12.2512C8.50002 12.3175 8.52636 12.3811 8.57324 12.428C8.62013 12.4749 8.68371 12.5012 8.75002 12.5012H14.4856C14.5554 12.502 14.6247 12.4886 14.6891 12.4619C14.7536 12.4351 14.8119 12.3956 14.8606 12.3456C14.9351 12.2684 14.9828 12.1693 14.9966 12.063C15.0105 11.9566 14.9897 11.8486 14.9375 11.7549ZM8.50002 8.74994C8.50002 8.88255 8.44734 9.00973 8.35357 9.1035C8.2598 9.19726 8.13263 9.24994 8.00002 9.24994C7.86741 9.24994 7.74023 9.19726 7.64647 9.1035C7.5527 9.00973 7.50002 8.88255 7.50002 8.74994V7.74994C7.50002 7.61733 7.5527 7.49016 7.64647 7.39639C7.74023 7.30262 7.86741 7.24994 8.00002 7.24994C8.13263 7.24994 8.2598 7.30262 8.35357 7.39639C8.44734 7.49016 8.50002 7.61733 8.50002 7.74994V8.74994ZM8.50002 5.49994C8.50002 5.63255 8.44734 5.75973 8.35357 5.8535C8.2598 5.94726 8.13263 5.99994 8.00002 5.99994C7.86741 5.99994 7.74023 5.94726 7.64647 5.8535C7.5527 5.75973 7.50002 5.63255 7.50002 5.49994V4.99994C7.50002 4.86733 7.5527 4.74016 7.64647 4.64639C7.74023 4.55262 7.86741 4.49994 8.00002 4.49994C8.13263 4.49994 8.2598 4.55262 8.35357 4.64639C8.44734 4.74016 8.50002 4.86733 8.50002 4.99994V5.49994Z" fill="black"/>
</g>
<defs>
<clipPath id="clip0_5_1440">
<rect width="16" height="16" fill="white"/>
</clipPath>
</defs>
</svg>
