<svg width="16" height="16" viewBox="0 0 16 16" fill="none" xmlns="http://www.w3.org/2000/svg">
<g clip-path="url(#clip0_5_417)">
<path d="M6.36562 11.9462C6.08374 12.5625 5.14312 14 2.49999 14C2.36739 14 2.24021 13.9473 2.14644 13.8535C2.05267 13.7598 1.99999 13.6326 1.99999 13.5C1.99999 10.8569 3.43749 9.91623 4.05374 9.63435C4.1135 9.6071 4.17803 9.59189 4.24366 9.58958C4.30929 9.58727 4.37473 9.59791 4.43625 9.62089C4.49777 9.64388 4.55416 9.67875 4.6022 9.72353C4.65024 9.7683 4.68899 9.8221 4.71624 9.88185C4.74349 9.9416 4.75871 10.0061 4.76102 10.0718C4.76333 10.1374 4.75269 10.2028 4.7297 10.2644C4.70672 10.3259 4.67185 10.3823 4.62707 10.4303C4.5823 10.4784 4.5285 10.5171 4.46874 10.5444C4.06687 10.7275 3.17999 11.3169 3.02374 12.9762C4.68312 12.82 5.27374 11.9331 5.45562 11.5312C5.48287 11.4715 5.52162 11.4177 5.56966 11.3729C5.6177 11.3281 5.67409 11.2933 5.73561 11.2703C5.79713 11.2473 5.86257 11.2366 5.9282 11.239C5.99383 11.2413 6.05837 11.2565 6.11812 11.2837C6.17787 11.311 6.23167 11.3497 6.27645 11.3978C6.32122 11.4458 6.35609 11.5022 6.37908 11.5637C6.40206 11.6252 6.4127 11.6907 6.41039 11.7563C6.40808 11.8219 6.39287 11.8865 6.36562 11.9462ZM13.9906 2.94623C13.9758 2.70243 13.8723 2.47249 13.6996 2.29978C13.5269 2.12707 13.2969 2.02354 13.0531 2.00873C12.2669 1.96185 10.2575 2.03373 8.59062 3.7006L5.49999 6.79373C5.45358 6.84022 5.39846 6.87712 5.33779 6.90232C5.27711 6.92751 5.21207 6.94051 5.14637 6.94057C5.01369 6.94068 4.8864 6.88809 4.79249 6.79435C4.69859 6.70061 4.64577 6.57341 4.64565 6.44073C4.64554 6.30805 4.69813 6.18076 4.79187 6.08685L6.45187 4.42623C6.48662 4.39127 6.51026 4.34682 6.51982 4.29846C6.52938 4.2501 6.52443 4.2 6.5056 4.15445C6.48676 4.10889 6.45488 4.06993 6.41396 4.04244C6.37304 4.01496 6.32491 4.00018 6.27562 3.99998H4.64687C4.51514 3.99928 4.38459 4.02478 4.26281 4.075C4.14103 4.12521 4.03045 4.19914 3.93749 4.29248L1.79374 6.43748C1.66227 6.56886 1.57002 6.73428 1.52734 6.91517C1.48465 7.09607 1.49323 7.28528 1.5521 7.46158C1.61097 7.63787 1.71781 7.79427 1.86063 7.91322C2.00345 8.03216 2.17659 8.10896 2.36062 8.13498L4.76499 8.4706L7.52812 11.2337L7.86374 13.6394C7.88955 13.8234 7.96633 13.9966 8.08539 14.1392C8.20445 14.2819 8.36105 14.3885 8.53749 14.4469C8.64026 14.4812 8.7479 14.4987 8.85624 14.4987C8.98744 14.499 9.11739 14.4733 9.2386 14.4231C9.35981 14.3729 9.46989 14.2992 9.56249 14.2062L11.7075 12.0625C11.8006 11.9693 11.8743 11.8587 11.9245 11.737C11.9747 11.6152 12.0003 11.4848 12 11.3531V9.72435C11.9999 9.67493 11.9852 9.62664 11.9577 9.58559C11.9301 9.54454 11.8911 9.51256 11.8454 9.4937C11.7997 9.47484 11.7495 9.46994 11.701 9.47962C11.6526 9.48931 11.608 9.51314 11.5731 9.5481L9.91249 11.2081C9.86393 11.2567 9.80586 11.2948 9.74191 11.32C9.67796 11.3452 9.60952 11.3569 9.54084 11.3544C9.47216 11.3519 9.40473 11.3354 9.34275 11.3057C9.28077 11.276 9.22558 11.2338 9.18062 11.1819C9.0986 11.0826 9.05692 10.9562 9.06387 10.8277C9.07082 10.6991 9.12589 10.5779 9.21812 10.4881L12.2975 7.40873C13.9656 5.74123 14.0375 3.73185 13.9906 2.94498V2.94623Z" fill="black"/>
</g>
<defs>
<clipPath id="clip0_5_417">
<rect width="16" height="16" fill="white"/>
</clipPath>
</defs>
</svg>
