<svg width="16" height="16" viewBox="0 0 16 16" fill="none" xmlns="http://www.w3.org/2000/svg">
<g clip-path="url(#clip0_5_418)">
<path d="M9.50002 14C9.50002 14.1327 9.44735 14.2598 9.35358 14.3536C9.25981 14.4474 9.13263 14.5 9.00002 14.5H7.00002C6.86742 14.5 6.74024 14.4474 6.64647 14.3536C6.5527 14.2598 6.50002 14.1327 6.50002 14C6.50002 13.8674 6.5527 13.7403 6.64647 13.6465C6.74024 13.5527 6.86742 13.5 7.00002 13.5H9.00002C9.13263 13.5 9.25981 13.5527 9.35358 13.6465C9.44735 13.7403 9.50002 13.8674 9.50002 14ZM13.9763 9.73942L13.2038 13.2163C13.1671 13.3814 13.0892 13.5345 12.9773 13.6613C12.8654 13.7881 12.7231 13.8845 12.5638 13.9414C12.4046 13.9982 12.2335 14.0138 12.0666 13.9866C11.8996 13.9593 11.7423 13.8902 11.6094 13.7857L9.9069 12.5H6.0944L4.39065 13.7857C4.2577 13.8902 4.10041 13.9593 3.93349 13.9866C3.76657 14.0138 3.59547 13.9982 3.4362 13.9414C3.27692 13.8845 3.13468 13.7881 3.02276 13.6613C2.91085 13.5345 2.83292 13.3814 2.79627 13.2163L2.02377 9.73942C1.99101 9.59021 1.99266 9.4355 2.02862 9.28703C2.06457 9.13856 2.13388 9.00023 2.23127 8.88255L4.01627 6.7413C4.07618 5.95438 4.25684 5.18138 4.5519 4.44942C5.35815 2.42817 6.8019 1.16005 7.38752 0.708797C7.56281 0.572974 7.77827 0.499268 8.00002 0.499268C8.22178 0.499268 8.43724 0.572974 8.61252 0.708797C9.19627 1.16005 10.6419 2.42817 11.4481 4.44942C11.7432 5.18138 11.9239 5.95438 11.9838 6.7413L13.7688 8.88255C13.8662 9.00023 13.9355 9.13856 13.9714 9.28703C14.0074 9.4355 14.009 9.59021 13.9763 9.73942ZM5.2744 11.8644C4.60315 10.6423 4.19565 9.44088 4.0519 8.26005L3.00002 9.52255L3.77252 13L3.78377 12.9919L5.2744 11.8644ZM8.75002 6.25005C8.75002 6.10171 8.70604 5.95671 8.62363 5.83337C8.54121 5.71003 8.42408 5.6139 8.28704 5.55714C8.14999 5.50037 7.99919 5.48552 7.85371 5.51446C7.70822 5.5434 7.57458 5.61483 7.46969 5.71972C7.3648 5.82461 7.29337 5.95824 7.26443 6.10373C7.2355 6.24922 7.25035 6.40002 7.30711 6.53706C7.36388 6.6741 7.46001 6.79124 7.58335 6.87365C7.70668 6.95606 7.85169 7.00005 8.00002 7.00005C8.19894 7.00005 8.3897 6.92103 8.53035 6.78038C8.67101 6.63973 8.75002 6.44896 8.75002 6.25005ZM13 9.52255L11.9481 8.26005C11.8056 9.43838 11.3981 10.6403 10.7256 11.8657L12.2163 12.9907L12.2275 12.9988L13 9.52255Z" fill="black"/>
</g>
<defs>
<clipPath id="clip0_5_418">
<rect width="16" height="16" fill="white"/>
</clipPath>
</defs>
</svg>
