<svg width="16" height="16" viewBox="0 0 16 16" fill="none" xmlns="http://www.w3.org/2000/svg">
<g clip-path="url(#clip0_5_415)">
<path d="M14 11V12.5C14 12.7652 13.8946 13.0196 13.7071 13.2071C13.5196 13.3946 13.2652 13.5 13 13.5H3C2.73478 13.5 2.48043 13.3946 2.29289 13.2071C2.10536 13.0196 2 12.7652 2 12.5V11C2 10.7348 2.10536 10.4804 2.29289 10.2929C2.48043 10.1054 2.73478 10 3 10H13C13.2652 10 13.5196 10.1054 13.7071 10.2929C13.8946 10.4804 14 10.7348 14 11ZM13 5.5H3C2.73478 5.5 2.48043 5.60536 2.29289 5.79289C2.10536 5.98043 2 6.23478 2 6.5V8C2 8.26522 2.10536 8.51957 2.29289 8.70711C2.48043 8.89464 2.73478 9 3 9H13C13.2652 9 13.5196 8.89464 13.7071 8.70711C13.8946 8.51957 14 8.26522 14 8V6.5C14 6.23478 13.8946 5.98043 13.7071 5.79289C13.5196 5.60536 13.2652 5.5 13 5.5ZM6.5 3H7.5V4C7.5 4.13261 7.55268 4.25979 7.64645 4.35355C7.74021 4.44732 7.86739 4.5 8 4.5C8.13261 4.5 8.25979 4.44732 8.35355 4.35355C8.44732 4.25979 8.5 4.13261 8.5 4V3H9.5C9.63261 3 9.75979 2.94732 9.85355 2.85355C9.94732 2.75979 10 2.63261 10 2.5C10 2.36739 9.94732 2.24021 9.85355 2.14645C9.75979 2.05268 9.63261 2 9.5 2H8.5V1C8.5 0.867392 8.44732 0.740215 8.35355 0.646447C8.25979 0.552678 8.13261 0.5 8 0.5C7.86739 0.5 7.74021 0.552678 7.64645 0.646447C7.55268 0.740215 7.5 0.867392 7.5 1V2H6.5C6.36739 2 6.24021 2.05268 6.14645 2.14645C6.05268 2.24021 6 2.36739 6 2.5C6 2.63261 6.05268 2.75979 6.14645 2.85355C6.24021 2.94732 6.36739 3 6.5 3Z" fill="black"/>
</g>
<defs>
<clipPath id="clip0_5_415">
<rect width="16" height="16" fill="white"/>
</clipPath>
</defs>
</svg>
