<svg width="16" height="16" viewBox="0 0 16 16" fill="none" xmlns="http://www.w3.org/2000/svg">
<g clip-path="url(#clip0_5_416)">
<path d="M14 8V9.5C14 9.76522 13.8946 10.0196 13.7071 10.2071C13.5196 10.3946 13.2652 10.5 13 10.5H3C2.73478 10.5 2.48043 10.3946 2.29289 10.2071C2.10536 10.0196 2 9.76522 2 9.5V8C2 7.73478 2.10536 7.48043 2.29289 7.29289C2.48043 7.10536 2.73478 7 3 7H13C13.2652 7 13.5196 7.10536 13.7071 7.29289C13.8946 7.48043 14 7.73478 14 8ZM13 2.5H3C2.73478 2.5 2.48043 2.60536 2.29289 2.79289C2.10536 2.98043 2 3.23478 2 3.5V5C2 5.26522 2.10536 5.51957 2.29289 5.70711C2.48043 5.89464 2.73478 6 3 6H13C13.2652 6 13.5196 5.89464 13.7071 5.70711C13.8946 5.51957 14 5.26522 14 5V3.5C14 3.23478 13.8946 2.98043 13.7071 2.79289C13.5196 2.60536 13.2652 2.5 13 2.5ZM9.5 13H8.5V12C8.5 11.8674 8.44732 11.7402 8.35355 11.6464C8.25979 11.5527 8.13261 11.5 8 11.5C7.86739 11.5 7.74021 11.5527 7.64645 11.6464C7.55268 11.7402 7.5 11.8674 7.5 12V13H6.5C6.36739 13 6.24021 13.0527 6.14645 13.1464C6.05268 13.2402 6 13.3674 6 13.5C6 13.6326 6.05268 13.7598 6.14645 13.8536C6.24021 13.9473 6.36739 14 6.5 14H7.5V15C7.5 15.1326 7.55268 15.2598 7.64645 15.3536C7.74021 15.4473 7.86739 15.5 8 15.5C8.13261 15.5 8.25979 15.4473 8.35355 15.3536C8.44732 15.2598 8.5 15.1326 8.5 15V14H9.5C9.63261 14 9.75979 13.9473 9.85355 13.8536C9.94732 13.7598 10 13.6326 10 13.5C10 13.3674 9.94732 13.2402 9.85355 13.1464C9.75979 13.0527 9.63261 13 9.5 13Z" fill="black"/>
</g>
<defs>
<clipPath id="clip0_5_416">
<rect width="16" height="16" fill="white"/>
</clipPath>
</defs>
</svg>
