<svg width="16" height="16" viewBox="0 0 16 16" fill="none" xmlns="http://www.w3.org/2000/svg">
<g clip-path="url(#clip0_5_1407)">
<path d="M13 2H3C2.73478 2 2.48043 2.10536 2.29289 2.29289C2.10536 2.48043 2 2.73478 2 3V13C2 13.2652 2.10536 13.5196 2.29289 13.7071C2.48043 13.8946 2.73478 14 3 14H13C13.2652 14 13.5196 13.8946 13.7071 13.7071C13.8946 13.5196 14 13.2652 14 13V3C14 2.73478 13.8946 2.48043 13.7071 2.29289C13.5196 2.10536 13.2652 2 13 2ZM4.75 12C4.60166 12 4.45666 11.956 4.33332 11.8736C4.20999 11.7912 4.11386 11.6741 4.05709 11.537C4.00032 11.4 3.98547 11.2492 4.01441 11.1037C4.04335 10.9582 4.11478 10.8246 4.21967 10.7197C4.32456 10.6148 4.4582 10.5434 4.60368 10.5144C4.74917 10.4855 4.89997 10.5003 5.03701 10.5571C5.17406 10.6139 5.29119 10.71 5.3736 10.8333C5.45601 10.9567 5.5 11.1017 5.5 11.25C5.5 11.4489 5.42098 11.6397 5.28033 11.7803C5.13968 11.921 4.94891 12 4.75 12ZM8.5 12C8.36739 12 8.24021 11.9473 8.14645 11.8536C8.05268 11.7598 8 11.6326 8 11.5C7.99901 10.572 7.62994 9.68238 6.97378 9.02622C6.31762 8.37006 5.42795 8.00099 4.5 8C4.36739 8 4.24021 7.94732 4.14645 7.85355C4.05268 7.75979 4 7.63261 4 7.5C4 7.36739 4.05268 7.24021 4.14645 7.14645C4.24021 7.05268 4.36739 7 4.5 7C5.69307 7.00132 6.83689 7.47585 7.68052 8.31948C8.52415 9.16311 8.99868 10.3069 9 11.5C9 11.6326 8.94732 11.7598 8.85355 11.8536C8.75979 11.9473 8.63261 12 8.5 12ZM11.5 12C11.3674 12 11.2402 11.9473 11.1464 11.8536C11.0527 11.7598 11 11.6326 11 11.5C10.9982 9.77665 10.3128 8.12441 9.09418 6.90582C7.87559 5.68722 6.22335 5.00182 4.5 5C4.36739 5 4.24021 4.94732 4.14645 4.85355C4.05268 4.75979 4 4.63261 4 4.5C4 4.36739 4.05268 4.24021 4.14645 4.14645C4.24021 4.05268 4.36739 4 4.5 4C6.48846 4.00215 8.39487 4.79302 9.80093 6.19907C11.207 7.60513 11.9978 9.51154 12 11.5C12 11.6326 11.9473 11.7598 11.8536 11.8536C11.7598 11.9473 11.6326 12 11.5 12Z" fill="black"/>
</g>
<defs>
<clipPath id="clip0_5_1407">
<rect width="16" height="16" fill="white"/>
</clipPath>
</defs>
</svg>
