<svg width="16" height="16" viewBox="0 0 16 16" fill="none" xmlns="http://www.w3.org/2000/svg">
<g clip-path="url(#clip0_5_413)">
<path d="M12.5 1C12.3674 1 12.2402 1.05268 12.1464 1.14645C12.0527 1.24021 12 1.36739 12 1.5V2.5H10V1.5C10 1.36739 9.94732 1.24021 9.85355 1.14645C9.75979 1.05268 9.63261 1 9.5 1C9.36739 1 9.24021 1.05268 9.14645 1.14645C9.05268 1.24021 9 1.36739 9 1.5V2.5H7V1.5C7 1.36739 6.94732 1.24021 6.85355 1.14645C6.75979 1.05268 6.63261 1 6.5 1C6.36739 1 6.24021 1.05268 6.14645 1.14645C6.05268 1.24021 6 1.36739 6 1.5V2.5H4V1.5C4 1.36739 3.94732 1.24021 3.85355 1.14645C3.75979 1.05268 3.63261 1 3.5 1C3.36739 1 3.24021 1.05268 3.14645 1.14645C3.05268 1.24021 3 1.36739 3 1.5V14.5C3 14.6326 3.05268 14.7598 3.14645 14.8536C3.24021 14.9473 3.36739 15 3.5 15C3.63261 15 3.75979 14.9473 3.85355 14.8536C3.94732 14.7598 4 14.6326 4 14.5V13.5H6V14.5C6 14.6326 6.05268 14.7598 6.14645 14.8536C6.24021 14.9473 6.36739 15 6.5 15C6.63261 15 6.75979 14.9473 6.85355 14.8536C6.94732 14.7598 7 14.6326 7 14.5V13.5H9V14.5C9 14.6326 9.05268 14.7598 9.14645 14.8536C9.24021 14.9473 9.36739 15 9.5 15C9.63261 15 9.75979 14.9473 9.85355 14.8536C9.94732 14.7598 10 14.6326 10 14.5V13.5H12V14.5C12 14.6326 12.0527 14.7598 12.1464 14.8536C12.2402 14.9473 12.3674 15 12.5 15C12.6326 15 12.7598 14.9473 12.8536 14.8536C12.9473 14.7598 13 14.6326 13 14.5V1.5C13 1.36739 12.9473 1.24021 12.8536 1.14645C12.7598 1.05268 12.6326 1 12.5 1ZM9.71437 8.12875L8.21437 10.6287C8.19216 10.6658 8.16074 10.6964 8.12318 10.7177C8.08561 10.7389 8.04317 10.7501 8 10.7501C7.95683 10.7501 7.91439 10.7389 7.87682 10.7177C7.83926 10.6964 7.80784 10.6658 7.78562 10.6287L6.28562 8.12875C6.26226 8.08987 6.24992 8.04536 6.24992 8C6.24992 7.95464 6.26226 7.91013 6.28562 7.87125L7.78562 5.37125C7.80784 5.33423 7.83926 5.30359 7.87682 5.28232C7.91439 5.26105 7.95683 5.24987 8 5.24987C8.04317 5.24987 8.08561 5.26105 8.12318 5.28232C8.16074 5.30359 8.19216 5.33423 8.21437 5.37125L9.71437 7.87125C9.73774 7.91013 9.75008 7.95464 9.75008 8C9.75008 8.04536 9.73774 8.08987 9.71437 8.12875Z" fill="black"/>
</g>
<defs>
<clipPath id="clip0_5_413">
<rect width="16" height="16" fill="white"/>
</clipPath>
</defs>
</svg>
