<svg width="16" height="16" viewBox="0 0 16 16" fill="none" xmlns="http://www.w3.org/2000/svg">
<g clip-path="url(#clip0_5_412)">
<path d="M14.7075 5.99997L5.99999 14.7068C5.90712 14.7997 5.79687 14.8734 5.67553 14.9237C5.55419 14.9739 5.42414 14.9998 5.2928 14.9998C5.16146 14.9998 5.0314 14.9739 4.91006 14.9237C4.78872 14.8734 4.67847 14.7997 4.58561 14.7068L1.29249 11.4143C1.1996 11.3215 1.12592 11.2112 1.07565 11.0899C1.02539 10.9686 0.999512 10.8385 0.999512 10.7072C0.999512 10.5758 1.02539 10.4458 1.07565 10.3244C1.12592 10.2031 1.1996 10.0928 1.29249 9.99997L3.11561 8.17685C3.13883 8.1536 3.1664 8.13516 3.19675 8.12258C3.2271 8.11 3.25963 8.10352 3.29249 8.10352C3.32534 8.10352 3.35787 8.11 3.38822 8.12258C3.41857 8.13516 3.44614 8.1536 3.46936 8.17685L5.64624 10.3537C5.69485 10.4023 5.75295 10.4403 5.81692 10.4655C5.88089 10.4906 5.94935 10.5022 6.01803 10.4997C6.08671 10.4972 6.15413 10.4805 6.21608 10.4508C6.27804 10.4211 6.33319 10.3789 6.37811 10.3268C6.46022 10.2278 6.50197 10.1014 6.49502 9.97294C6.48807 9.84447 6.43293 9.72334 6.34061 9.63372L4.17624 7.46935C4.12948 7.42248 4.10323 7.35898 4.10323 7.29278C4.10323 7.22658 4.12948 7.16309 4.17624 7.11622L5.11374 6.17872C5.13695 6.15548 5.16453 6.13704 5.19488 6.12446C5.22523 6.11188 5.25776 6.1054 5.29061 6.1054C5.32346 6.1054 5.356 6.11188 5.38635 6.12446C5.4167 6.13704 5.44427 6.15548 5.46749 6.17872L7.64436 8.3556C7.69297 8.40418 7.75108 8.44221 7.81504 8.46734C7.87901 8.49246 7.94747 8.50412 8.01615 8.5016C8.08483 8.49907 8.15225 8.48242 8.21421 8.45268C8.27616 8.42293 8.33132 8.38074 8.37624 8.32872C8.45835 8.22967 8.5001 8.10329 8.49314 7.97482C8.48619 7.84634 8.43106 7.72521 8.33874 7.6356L6.17686 5.46935C6.13011 5.42248 6.10385 5.35898 6.10385 5.29278C6.10385 5.22658 6.13011 5.16309 6.17686 5.11622L7.11436 4.17872C7.16123 4.13197 7.22472 4.10571 7.29092 4.10571C7.35712 4.10571 7.42062 4.13197 7.46749 4.17872L9.64436 6.3556C9.69298 6.40428 9.75112 6.4424 9.81515 6.46758C9.87918 6.49276 9.94772 6.50446 10.0165 6.50193C10.0852 6.49941 10.1527 6.48272 10.2147 6.45292C10.2767 6.42312 10.3319 6.38083 10.3769 6.32872C10.4589 6.22959 10.5005 6.10317 10.4935 5.9747C10.4864 5.84622 10.4311 5.72513 10.3387 5.6356L8.17686 3.46935C8.13011 3.42248 8.10385 3.35898 8.10385 3.29278C8.10385 3.22658 8.13011 3.16309 8.17686 3.11622L9.99999 1.2931C10.0928 1.20021 10.2031 1.12653 10.3244 1.07626C10.4458 1.026 10.5758 1.00012 10.7072 1.00012C10.8385 1.00012 10.9686 1.026 11.0899 1.07626C11.2113 1.12653 11.3215 1.20021 11.4144 1.2931L14.7075 4.5856C14.8004 4.67846 14.874 4.78871 14.9243 4.91005C14.9746 5.03139 15.0005 5.16144 15.0005 5.29278C15.0005 5.42412 14.9746 5.55418 14.9243 5.67552C14.874 5.79686 14.8004 5.90711 14.7075 5.99997Z" fill="black"/>
</g>
<defs>
<clipPath id="clip0_5_412">
<rect width="16" height="16" fill="white"/>
</clipPath>
</defs>
</svg>
