<svg width="16" height="16" viewBox="0 0 16 16" fill="none" xmlns="http://www.w3.org/2000/svg">
<g clip-path="url(#clip0_5_411)">
<path d="M9.99982 8.74998V4.55311C9.99926 4.50209 10.0143 4.45212 10.043 4.40991C10.0716 4.3677 10.1125 4.33526 10.1601 4.31696C10.2078 4.29866 10.2598 4.29537 10.3094 4.30753C10.3589 4.31969 10.4036 4.34671 10.4373 4.38498L13.8748 8.16373C13.9538 8.25048 13.9998 8.36225 14.0047 8.47948C14.0096 8.59671 13.9732 8.71193 13.9017 8.80498C13.8527 8.86682 13.7901 8.91657 13.7188 8.95038C13.6475 8.98419 13.5694 9.00116 13.4904 8.99998H10.2498C10.1835 8.99998 10.1199 8.97364 10.073 8.92676C10.0262 8.87987 9.99982 8.81629 9.99982 8.74998ZM15.4504 10.7831C15.4096 10.6983 15.3457 10.6267 15.2659 10.5766C15.1862 10.5265 15.094 10.5 14.9998 10.5H8.99982V0.499982C8.99927 0.396919 8.96688 0.296547 8.90708 0.212602C8.84729 0.128657 8.76301 0.06524 8.66579 0.0310313C8.56857 -0.0031774 8.46315 -0.00650671 8.36397 0.021499C8.26478 0.0495047 8.17667 0.107477 8.1117 0.187482L1.6117 8.18748C1.55294 8.26087 1.51606 8.34934 1.5053 8.44274C1.49453 8.53613 1.51032 8.63067 1.55084 8.71551C1.59137 8.80034 1.65499 8.87203 1.7344 8.92235C1.81382 8.97266 1.90581 8.99957 1.99982 8.99998H7.99982V10.5H0.999825C0.905598 10.4999 0.813273 10.5265 0.73349 10.5766C0.653707 10.6268 0.589714 10.6984 0.548886 10.7833C0.508058 10.8683 0.492058 10.963 0.502729 11.0566C0.5134 11.1502 0.550308 11.2389 0.6092 11.3125L2.4592 13.625C2.55268 13.7422 2.67143 13.8369 2.8066 13.9018C2.94177 13.9667 3.08987 14.0003 3.23982 14H12.7598C12.9098 14.0003 13.0579 13.9667 13.193 13.9018C13.3282 13.8369 13.447 13.7422 13.5404 13.625L15.3904 11.3125C15.4493 11.2389 15.4862 11.1501 15.4968 11.0565C15.5074 10.9628 15.4914 10.868 15.4504 10.7831Z" fill="black"/>
</g>
<defs>
<clipPath id="clip0_5_411">
<rect width="16" height="16" fill="white"/>
</clipPath>
</defs>
</svg>
