<svg width="16" height="16" viewBox="0 0 16 16" fill="none" xmlns="http://www.w3.org/2000/svg">
<g clip-path="url(#clip0_5_1394)">
<path d="M14.9644 8.3125L12.9644 3.3125C12.927 3.22003 12.8628 3.14087 12.78 3.08518C12.6973 3.02949 12.5998 2.99983 12.5 3C12.4636 3.00055 12.4274 3.00495 12.3919 3.01312L8.50001 3.875V2.5C8.50001 2.36739 8.44733 2.24021 8.35356 2.14645C8.2598 2.05268 8.13262 2 8.00001 2C7.8674 2 7.74022 2.05268 7.64646 2.14645C7.55269 2.24021 7.50001 2.36739 7.50001 2.5V4.09875L3.39188 5.01312C3.31268 5.03041 3.23887 5.06669 3.17681 5.11884C3.11475 5.171 3.0663 5.23746 3.03563 5.3125L1.03563 10.3125C1.01171 10.3721 0.999609 10.4358 1.00001 10.5C1.00001 11.9569 2.53376 12.5 3.50001 12.5C4.46626 12.5 6.00001 11.9569 6.00001 10.5C6.00041 10.4358 5.98831 10.3721 5.96438 10.3125L4.18251 5.86062L7.50001 5.125V13H6.50001C6.3674 13 6.24022 13.0527 6.14646 13.1464C6.05269 13.2402 6.00001 13.3674 6.00001 13.5C6.00001 13.6326 6.05269 13.7598 6.14646 13.8536C6.24022 13.9473 6.3674 14 6.50001 14H9.50001C9.63262 14 9.7598 13.9473 9.85356 13.8536C9.94733 13.7598 10 13.6326 10 13.5C10 13.3674 9.94733 13.2402 9.85356 13.1464C9.7598 13.0527 9.63262 13 9.50001 13H8.50001V4.90125L11.6875 4.19375L10.0356 8.3125C10.0117 8.3721 9.99961 8.43578 10 8.5C10 9.95687 11.5338 10.5 12.5 10.5C13.4663 10.5 15 9.95687 15 8.5C15.0004 8.43578 14.9883 8.3721 14.9644 8.3125ZM4.96438 10.5H2.03876L3.50001 6.84625L4.96438 10.5ZM11.0419 8.5L12.5 4.84625L13.9613 8.5H11.0419Z" fill="black"/>
</g>
<defs>
<clipPath id="clip0_5_1394">
<rect width="16" height="16" fill="white"/>
</clipPath>
</defs>
</svg>
