<svg width="16" height="16" viewBox="0 0 16 16" fill="none" xmlns="http://www.w3.org/2000/svg">
<g clip-path="url(#clip0_5_410)">
<path d="M14 2.5V5C14 5.13261 13.9473 5.25979 13.8536 5.35355C13.7598 5.44732 13.6326 5.5 13.5 5.5C13.3674 5.5 13.2402 5.44732 13.1464 5.35355C13.0527 5.25979 13 5.13261 13 5V3H11C10.8674 3 10.7402 2.94732 10.6464 2.85355C10.5527 2.75979 10.5 2.63261 10.5 2.5C10.5 2.36739 10.5527 2.24021 10.6464 2.14645C10.7402 2.05268 10.8674 2 11 2H13.5C13.6326 2 13.7598 2.05268 13.8536 2.14645C13.9473 2.24021 14 2.36739 14 2.5ZM5 13H3V11C3 10.8674 2.94732 10.7402 2.85355 10.6464C2.75979 10.5527 2.63261 10.5 2.5 10.5C2.36739 10.5 2.24021 10.5527 2.14645 10.6464C2.05268 10.7402 2 10.8674 2 11V13.5C2 13.6326 2.05268 13.7598 2.14645 13.8536C2.24021 13.9473 2.36739 14 2.5 14H5C5.13261 14 5.25979 13.9473 5.35355 13.8536C5.44732 13.7598 5.5 13.6326 5.5 13.5C5.5 13.3674 5.44732 13.2402 5.35355 13.1464C5.25979 13.0527 5.13261 13 5 13ZM13.5 10.5C13.3674 10.5 13.2402 10.5527 13.1464 10.6464C13.0527 10.7402 13 10.8674 13 11V13H11C10.8674 13 10.7402 13.0527 10.6464 13.1464C10.5527 13.2402 10.5 13.3674 10.5 13.5C10.5 13.6326 10.5527 13.7598 10.6464 13.8536C10.7402 13.9473 10.8674 14 11 14H13.5C13.6326 14 13.7598 13.9473 13.8536 13.8536C13.9473 13.7598 14 13.6326 14 13.5V11C14 10.8674 13.9473 10.7402 13.8536 10.6464C13.7598 10.5527 13.6326 10.5 13.5 10.5ZM2.5 5.5C2.63261 5.5 2.75979 5.44732 2.85355 5.35355C2.94732 5.25979 3 5.13261 3 5V3H5C5.13261 3 5.25979 2.94732 5.35355 2.85355C5.44732 2.75979 5.5 2.63261 5.5 2.5C5.5 2.36739 5.44732 2.24021 5.35355 2.14645C5.25979 2.05268 5.13261 2 5 2H2.5C2.36739 2 2.24021 2.05268 2.14645 2.14645C2.05268 2.24021 2 2.36739 2 2.5V5C2 5.13261 2.05268 5.25979 2.14645 5.35355C2.24021 5.44732 2.36739 5.5 2.5 5.5ZM4.5 5V11C4.5 11.1326 4.55268 11.2598 4.64645 11.3536C4.74021 11.4473 4.86739 11.5 5 11.5H11C11.1326 11.5 11.2598 11.4473 11.3536 11.3536C11.4473 11.2598 11.5 11.1326 11.5 11V5C11.5 4.86739 11.4473 4.74021 11.3536 4.64645C11.2598 4.55268 11.1326 4.5 11 4.5H5C4.86739 4.5 4.74021 4.55268 4.64645 4.64645C4.55268 4.74021 4.5 4.86739 4.5 5Z" fill="black"/>
</g>
<defs>
<clipPath id="clip0_5_410">
<rect width="16" height="16" fill="white"/>
</clipPath>
</defs>
</svg>
