<svg width="16" height="16" viewBox="0 0 16 16" fill="none" xmlns="http://www.w3.org/2000/svg">
<g clip-path="url(#clip0_5_409)">
<path d="M14 2.5V4.75C14 4.88261 13.9473 5.00979 13.8536 5.10355C13.7598 5.19732 13.6326 5.25 13.5 5.25C13.3674 5.25 13.2402 5.19732 13.1464 5.10355C13.0527 5.00979 13 4.88261 13 4.75V3H11.25C11.1174 3 10.9902 2.94732 10.8964 2.85355C10.8027 2.75979 10.75 2.63261 10.75 2.5C10.75 2.36739 10.8027 2.24021 10.8964 2.14645C10.9902 2.05268 11.1174 2 11.25 2H13.5C13.6326 2 13.7598 2.05268 13.8536 2.14645C13.9473 2.24021 14 2.36739 14 2.5ZM13.5 10.75C13.3674 10.75 13.2402 10.8027 13.1464 10.8964C13.0527 10.9902 13 11.1174 13 11.25V13H11.25C11.1174 13 10.9902 13.0527 10.8964 13.1464C10.8027 13.2402 10.75 13.3674 10.75 13.5C10.75 13.6326 10.8027 13.7598 10.8964 13.8536C10.9902 13.9473 11.1174 14 11.25 14H13.5C13.6326 14 13.7598 13.9473 13.8536 13.8536C13.9473 13.7598 14 13.6326 14 13.5V11.25C14 11.1174 13.9473 10.9902 13.8536 10.8964C13.7598 10.8027 13.6326 10.75 13.5 10.75ZM4.75 13H3V11.25C3 11.1174 2.94732 10.9902 2.85355 10.8964C2.75979 10.8027 2.63261 10.75 2.5 10.75C2.36739 10.75 2.24021 10.8027 2.14645 10.8964C2.05268 10.9902 2 11.1174 2 11.25V13.5C2 13.6326 2.05268 13.7598 2.14645 13.8536C2.24021 13.9473 2.36739 14 2.5 14H4.75C4.88261 14 5.00979 13.9473 5.10355 13.8536C5.19732 13.7598 5.25 13.6326 5.25 13.5C5.25 13.3674 5.19732 13.2402 5.10355 13.1464C5.00979 13.0527 4.88261 13 4.75 13ZM2.5 5.25C2.63261 5.25 2.75979 5.19732 2.85355 5.10355C2.94732 5.00979 3 4.88261 3 4.75V3H4.75C4.88261 3 5.00979 2.94732 5.10355 2.85355C5.19732 2.75979 5.25 2.63261 5.25 2.5C5.25 2.36739 5.19732 2.24021 5.10355 2.14645C5.00979 2.05268 4.88261 2 4.75 2H2.5C2.36739 2 2.24021 2.05268 2.14645 2.14645C2.05268 2.24021 2 2.36739 2 2.5V4.75C2 4.88261 2.05268 5.00979 2.14645 5.10355C2.24021 5.19732 2.36739 5.25 2.5 5.25ZM8 12.5C7.10998 12.5 6.23995 12.2361 5.49993 11.7416C4.75991 11.2471 4.18314 10.5443 3.84254 9.72208C3.50195 8.89981 3.41283 7.99501 3.58647 7.12209C3.7601 6.24918 4.18868 5.44736 4.81802 4.81802C5.44736 4.18868 6.24918 3.7601 7.12209 3.58647C7.99501 3.41283 8.89981 3.50195 9.72208 3.84254C10.5443 4.18314 11.2471 4.75991 11.7416 5.49993C12.2361 6.23995 12.5 7.10998 12.5 8C12.4987 9.19307 12.0241 10.3369 11.1805 11.1805C10.3369 12.0241 9.19307 12.4987 8 12.5ZM6.5 8C6.64834 8 6.79334 7.95601 6.91668 7.8736C7.04001 7.79119 7.13614 7.67406 7.19291 7.53701C7.24968 7.39997 7.26453 7.24917 7.23559 7.10368C7.20665 6.9582 7.13522 6.82456 7.03033 6.71967C6.92544 6.61478 6.7918 6.54335 6.64632 6.51441C6.50083 6.48547 6.35003 6.50032 6.21299 6.55709C6.07594 6.61386 5.95881 6.70999 5.8764 6.83332C5.79399 6.95666 5.75 7.10166 5.75 7.25C5.75 7.44891 5.82902 7.63968 5.96967 7.78033C6.11032 7.92098 6.30109 8 6.5 8ZM9.875 9.16938C9.7873 9.06993 9.6637 9.0094 9.53138 9.00107C9.39905 8.99275 9.26884 9.03733 9.16938 9.125C8.93125 9.33563 8.41937 9.5 8 9.5C7.58063 9.5 7.06875 9.33563 6.83063 9.125C6.78157 9.08036 6.72413 9.04592 6.66164 9.0237C6.59915 9.00147 6.53286 8.9919 6.46664 8.99554C6.40042 8.99918 6.33558 9.01596 6.2759 9.0449C6.21623 9.07385 6.1629 9.11437 6.11904 9.16412C6.07518 9.21387 6.04165 9.27185 6.02042 9.33468C5.99918 9.39751 5.99065 9.46394 5.99534 9.5301C6.00002 9.59626 6.01782 9.66083 6.0477 9.72004C6.07758 9.77925 6.11894 9.83193 6.16937 9.875C6.65875 10.3069 7.44125 10.5 8 10.5C8.55875 10.5 9.34125 10.3069 9.83062 9.875C9.93007 9.7873 9.9906 9.6637 9.99893 9.53138C10.0072 9.39905 9.96267 9.26884 9.875 9.16938ZM10.25 7.25C10.25 7.10166 10.206 6.95666 10.1236 6.83332C10.0412 6.70999 9.92406 6.61386 9.78701 6.55709C9.64997 6.50032 9.49917 6.48547 9.35368 6.51441C9.2082 6.54335 9.07456 6.61478 8.96967 6.71967C8.86478 6.82456 8.79335 6.9582 8.76441 7.10368C8.73547 7.24917 8.75033 7.39997 8.80709 7.53701C8.86386 7.67406 8.95999 7.79119 9.08332 7.8736C9.20666 7.95601 9.35166 8 9.5 8C9.69891 8 9.88968 7.92098 10.0303 7.78033C10.171 7.63968 10.25 7.44891 10.25 7.25Z" fill="black"/>
</g>
<defs>
<clipPath id="clip0_5_409">
<rect width="16" height="16" fill="white"/>
</clipPath>
</defs>
</svg>
