<svg width="16" height="16" viewBox="0 0 16 16" fill="none" xmlns="http://www.w3.org/2000/svg">
<g clip-path="url(#clip0_5_408)">
<path d="M14.7825 11.6932L5.84499 5.57628C6.04194 5.07875 6.05511 4.5273 5.88216 4.02093C5.7092 3.51455 5.36144 3.08639 4.90128 2.81329C4.44112 2.54018 3.89869 2.44002 3.37135 2.53077C2.844 2.62152 2.36626 2.89724 2.02386 3.30845C1.68146 3.71966 1.49682 4.23944 1.50308 4.7745C1.50935 5.30956 1.70609 5.82488 2.05802 6.22797C2.40995 6.63105 2.89401 6.89552 3.42334 6.9739C3.95267 7.05229 4.4926 6.93946 4.94624 6.65566L6.28312 8.01128L4.94687 9.34628C4.49426 9.06365 3.95577 8.95153 3.42797 9.03002C2.90017 9.10851 2.4176 9.37248 2.06683 9.77458C1.71605 10.1767 1.52001 10.6906 1.51388 11.2242C1.50774 11.7577 1.69192 12.276 2.03336 12.6861C2.3748 13.0962 2.85117 13.3712 3.37702 13.4618C3.90288 13.5524 4.44381 13.4527 4.90279 13.1805C5.36177 12.9084 5.70878 12.4816 5.88156 11.9767C6.05435 11.4719 6.0416 10.922 5.84562 10.4257L7.52749 9.27503L10.625 12.415C11.0022 12.7897 11.5121 13.0001 12.0437 13.0007C12.1296 13.0006 12.2155 12.995 12.3006 12.9838H12.3181L14.585 12.6019C14.6834 12.5855 14.7747 12.54 14.8471 12.4712C14.9194 12.4025 14.9695 12.3136 14.991 12.2162C15.0124 12.1187 15.0042 12.017 14.9674 11.9243C14.9306 11.8315 14.8668 11.7519 14.7844 11.6957L14.7825 11.6932ZM4.63374 5.63066C4.42912 5.83522 4.15988 5.96245 3.87193 5.99068C3.58398 6.0189 3.29515 5.94636 3.05471 5.78542C2.81427 5.62449 2.6371 5.38512 2.55342 5.10816C2.46974 4.83119 2.48473 4.53377 2.59584 4.26662C2.70694 3.99948 2.90728 3.77914 3.16269 3.6432C3.4181 3.50726 3.71275 3.46413 3.99641 3.52117C4.28006 3.5782 4.53515 3.73187 4.71816 3.95596C4.90117 4.18006 5.00078 4.4607 4.99999 4.75003C4.99976 5.08131 4.86803 5.39895 4.63374 5.63316V5.63066ZM4.63374 12.1307C4.42912 12.3352 4.15988 12.4625 3.87193 12.4907C3.58398 12.5189 3.29515 12.4464 3.05471 12.2854C2.81427 12.1245 2.6371 11.8851 2.55342 11.6082C2.46974 11.3312 2.48473 11.0338 2.59584 10.7666C2.70694 10.4995 2.90728 10.2791 3.16269 10.1432C3.4181 10.0073 3.71275 9.96413 3.99641 10.0212C4.28006 10.0782 4.53515 10.2319 4.71816 10.456C4.90117 10.6801 5.00078 10.9607 4.99999 11.25C5.00004 11.4143 4.96772 11.5769 4.90488 11.7287C4.84203 11.8804 4.7499 12.0183 4.63374 12.1344V12.1307ZM8.44624 5.78691L10.6212 3.58753C10.8387 3.37057 11.1029 3.20629 11.3937 3.10727C11.6845 3.00825 11.9941 2.97712 12.2987 3.01628H12.3162L14.5662 3.39566C14.6471 3.40803 14.7239 3.43955 14.7901 3.48761C14.8563 3.53566 14.91 3.59885 14.9469 3.67191C14.9997 3.7798 15.0119 3.90309 14.9812 4.01923C14.9506 4.13538 14.8791 4.23661 14.78 4.30441L10.4094 7.29503C10.3678 7.32338 10.3187 7.33855 10.2684 7.33855C10.2181 7.33855 10.169 7.32338 10.1275 7.29503L8.48312 6.17003C8.45351 6.14915 8.42879 6.12208 8.41068 6.0907C8.39257 6.05932 8.3815 6.02438 8.37823 5.98829C8.37496 5.95221 8.37957 5.91585 8.39175 5.88172C8.40392 5.84759 8.42337 5.81652 8.44874 5.79066L8.44624 5.78691Z" fill="black"/>
</g>
<defs>
<clipPath id="clip0_5_408">
<rect width="16" height="16" fill="white"/>
</clipPath>
</defs>
</svg>
