<svg width="16" height="16" viewBox="0 0 16 16" fill="none" xmlns="http://www.w3.org/2000/svg">
<g clip-path="url(#clip0_5_1053)">
<path d="M15.25 10.75C15.2502 11.0968 15.1602 11.4378 14.9889 11.7393C14.8175 12.0409 14.5707 12.2927 14.2726 12.47C13.9745 12.6473 13.6354 12.7441 13.2887 12.7508C12.9419 12.7575 12.5993 12.6739 12.2946 12.5082C11.9899 12.3426 11.7335 12.1005 11.5507 11.8058C11.3678 11.5111 11.2647 11.1739 11.2515 10.8273C11.2383 10.4807 11.3154 10.1366 11.4754 9.82888C11.6353 9.52112 11.8725 9.26025 12.1638 9.07187L11.6013 7.39125L8.38502 11.3169C8.33831 11.3739 8.27957 11.4199 8.21301 11.4515C8.14646 11.4832 8.07372 11.4997 8.00002 11.5H4.60377C4.42148 11.951 4.0811 12.32 3.64633 12.5382C3.21156 12.7563 2.71221 12.8085 2.24173 12.685C1.77126 12.5615 1.36192 12.2707 1.09032 11.8672C0.818727 11.4637 0.703499 10.975 0.766205 10.4927C0.828911 10.0103 1.06525 9.56734 1.43099 9.24667C1.79673 8.926 2.2668 8.7496 2.75321 8.7505C3.23962 8.7514 3.70904 8.92953 4.07359 9.25155C4.43814 9.57358 4.67284 10.0174 4.73377 10.5H7.76314L11.2294 6.26937L10.1394 3H8.50002C8.36741 3 8.24023 2.94732 8.14646 2.85355C8.0527 2.75979 8.00002 2.63261 8.00002 2.5C8.00002 2.36739 8.0527 2.24021 8.14646 2.14645C8.24023 2.05268 8.36741 2 8.50002 2H10.5C10.605 1.99999 10.7073 2.03301 10.7924 2.09436C10.8775 2.15572 10.9412 2.24232 10.9744 2.34188L13.1125 8.755C13.1575 8.75187 13.2038 8.75 13.25 8.75C13.7804 8.75 14.2892 8.96071 14.6642 9.33579C15.0393 9.71086 15.25 10.2196 15.25 10.75Z" fill="black"/>
</g>
<defs>
<clipPath id="clip0_5_1053">
<rect width="16" height="16" fill="white"/>
</clipPath>
</defs>
</svg>
