<svg width="16" height="16" viewBox="0 0 16 16" fill="none" xmlns="http://www.w3.org/2000/svg">
<g clip-path="url(#clip0_5_407)">
<path d="M3.49994 13C3.49997 13.0669 3.48656 13.1332 3.4605 13.1949C3.43444 13.2565 3.39626 13.3123 3.34823 13.359C3.30021 13.4056 3.2433 13.4421 3.1809 13.4663C3.11849 13.4906 3.05186 13.502 2.98494 13.5C2.85384 13.4918 2.73077 13.4339 2.64071 13.3383C2.55064 13.2427 2.50032 13.1164 2.49994 12.985C2.49618 12.8576 2.44387 12.7364 2.35372 12.6462C2.26357 12.5561 2.14238 12.5038 2.01494 12.5C1.88358 12.4996 1.75727 12.4493 1.66163 12.3592C1.566 12.2692 1.50819 12.1461 1.49994 12.015C1.49794 11.9481 1.50938 11.8815 1.53361 11.819C1.55784 11.7566 1.59435 11.6997 1.64098 11.6517C1.68761 11.6037 1.74341 11.5655 1.80507 11.5394C1.86674 11.5134 1.933 11.5 1.99994 11.5C2.39777 11.5 2.7793 11.658 3.0606 11.9393C3.34191 12.2206 3.49994 12.6022 3.49994 13ZM1.99994 9.5C1.93072 9.49977 1.8622 9.51392 1.79873 9.54155C1.73526 9.56918 1.67822 9.60968 1.63121 9.66051C1.58421 9.71133 1.54828 9.77135 1.52568 9.83679C1.50308 9.90222 1.49432 9.97163 1.49994 10.0406C1.51276 10.1677 1.57275 10.2854 1.6681 10.3705C1.76344 10.4555 1.8872 10.5017 2.01494 10.5C2.67279 10.5039 3.30258 10.767 3.76776 11.2322C4.23293 11.6974 4.49601 12.3272 4.49994 12.985C4.49822 13.1128 4.54452 13.2367 4.62969 13.332C4.71487 13.4274 4.83272 13.4873 4.95994 13.5C5.02889 13.5055 5.09823 13.4967 5.16359 13.4741C5.22895 13.4514 5.2889 13.4155 5.33965 13.3685C5.3904 13.3215 5.43085 13.2645 5.45844 13.2011C5.48603 13.1376 5.50017 13.0692 5.49994 13C5.49895 12.072 5.12988 11.1824 4.47372 10.5262C3.81756 9.87006 2.9279 9.50099 1.99994 9.5ZM1.99994 7.5C1.93101 7.49981 1.86277 7.51387 1.79953 7.54131C1.73628 7.56875 1.6794 7.60897 1.63244 7.65945C1.58549 7.70992 1.54948 7.76956 1.52668 7.83462C1.50388 7.89968 1.49477 7.96876 1.49994 8.0375C1.51277 8.16556 1.57319 8.28413 1.66925 8.36978C1.76531 8.45542 1.89001 8.50189 2.01869 8.5C3.20506 8.50624 4.34107 8.9802 5.18008 9.81898C6.0191 10.6578 6.49338 11.7936 6.49994 12.98C6.49805 13.1087 6.54452 13.2334 6.63017 13.3294C6.71581 13.4255 6.83439 13.4859 6.96244 13.4987C7.03119 13.5039 7.10026 13.4948 7.16532 13.472C7.23038 13.4492 7.29002 13.4132 7.3405 13.3663C7.39097 13.3193 7.4312 13.2624 7.45863 13.1992C7.48607 13.1359 7.50014 13.0677 7.49994 12.9987C7.49796 11.5408 6.91782 10.1431 5.88676 9.1123C4.85571 8.08148 3.45791 7.50165 1.99994 7.5ZM13.4999 2.5H2.49994C2.23473 2.5 1.98037 2.60536 1.79284 2.79289C1.6053 2.98043 1.49994 3.23478 1.49994 3.5V6.255C1.49992 6.28863 1.50668 6.32193 1.51983 6.35289C1.53298 6.38385 1.55223 6.41183 1.57645 6.43518C1.60067 6.45852 1.62935 6.47673 1.66077 6.48873C1.69219 6.50073 1.72571 6.50626 1.75932 6.505C2.65252 6.47292 3.54274 6.6252 4.3745 6.95233C5.20625 7.27947 5.96169 7.77445 6.59371 8.40641C7.22573 9.03838 7.72078 9.79377 8.04799 10.6255C8.37521 11.4572 8.52757 12.3474 8.49557 13.2406C8.49431 13.2742 8.49984 13.3078 8.51184 13.3392C8.52384 13.3706 8.54205 13.3993 8.56539 13.4235C8.58874 13.4477 8.61672 13.467 8.64768 13.4801C8.67864 13.4933 8.71193 13.5 8.74557 13.5H13.4999C13.7652 13.5 14.0195 13.3946 14.2071 13.2071C14.3946 13.0196 14.4999 12.7652 14.4999 12.5V3.5C14.4999 3.23478 14.3946 2.98043 14.2071 2.79289C14.0195 2.60536 13.7652 2.5 13.4999 2.5Z" fill="black"/>
</g>
<defs>
<clipPath id="clip0_5_407">
<rect width="16" height="16" fill="white"/>
</clipPath>
</defs>
</svg>
