<svg width="16" height="16" viewBox="0 0 16 16" fill="none" xmlns="http://www.w3.org/2000/svg">
<g clip-path="url(#clip0_5_406)">
<path d="M14.577 1.42187C13.9856 0.831404 13.1842 0.499756 12.3485 0.499756C11.5129 0.499756 10.7114 0.831404 10.1201 1.42187L6.79258 4.74999C6.69968 4.84262 6.626 4.9527 6.5758 5.07391C6.5256 5.19511 6.49987 5.32505 6.50008 5.45624V6.49999H5.44821C5.23037 6.50053 5.01856 6.57157 4.84446 6.70249C4.82637 6.71631 4.80925 6.73134 4.79321 6.74749L4.29321 7.24749C4.20033 7.34035 4.12665 7.4506 4.07638 7.57194C4.02611 7.69328 4.00023 7.82334 4.00023 7.95468C4.00023 8.08602 4.02611 8.21608 4.07638 8.33742C4.12665 8.45876 4.20033 8.56901 4.29321 8.66187L5.46196 9.83124L0.649458 14.6469C0.603003 14.6933 0.566152 14.7485 0.541011 14.8092C0.51587 14.8699 0.50293 14.9349 0.50293 15.0006C0.50293 15.0663 0.51587 15.1314 0.541011 15.1921C0.566152 15.2528 0.603003 15.3079 0.649458 15.3544C0.743278 15.4482 0.870526 15.5009 1.00321 15.5009C1.06891 15.5009 1.13396 15.488 1.19466 15.4628C1.25535 15.4377 1.3105 15.4008 1.35696 15.3544L6.16946 10.5381L7.33883 11.7075C7.52635 11.8949 7.7806 12.0002 8.04571 12.0002C8.31081 12.0002 8.56507 11.8949 8.75258 11.7075L9.25258 11.2075C9.26874 11.1912 9.28378 11.1739 9.29758 11.1556C9.42929 10.9819 9.50062 10.7699 9.50071 10.5519V9.49999H10.5438C10.6751 9.50025 10.8052 9.47441 10.9264 9.42398C11.0477 9.37356 11.1577 9.29954 11.2501 9.20624L14.577 5.87937C14.8696 5.58669 15.1018 5.23922 15.2602 4.85681C15.4186 4.4744 15.5002 4.06454 15.5002 3.65062C15.5002 3.2367 15.4186 2.82683 15.2602 2.44442C15.1018 2.06201 14.8696 1.71455 14.577 1.42187ZM12.8538 3.85249L9.35383 7.35249C9.2601 7.44631 9.13293 7.49905 9.0003 7.49911C8.86768 7.49917 8.74047 7.44654 8.64665 7.35281C8.55282 7.25907 8.50008 7.1319 8.50003 6.99928C8.49997 6.86665 8.5526 6.73944 8.64633 6.64562L12.1463 3.14562C12.2402 3.0518 12.3674 2.99909 12.5001 2.99909C12.6328 2.99909 12.76 3.0518 12.8538 3.14562C12.9477 3.23944 13.0004 3.36669 13.0004 3.49937C13.0004 3.63205 12.9477 3.7593 12.8538 3.85312V3.85249Z" fill="black"/>
</g>
<defs>
<clipPath id="clip0_5_406">
<rect width="16" height="16" fill="white"/>
</clipPath>
</defs>
</svg>
