<svg width="16" height="16" viewBox="0 0 16 16" fill="none" xmlns="http://www.w3.org/2000/svg">
<g clip-path="url(#clip0_5_1048)">
<path d="M8 8C8.5461 8.00241 9.08824 8.09274 9.60563 8.2675C9.4725 9.67937 8.58313 11 7 11C6.0125 11 5.49625 10.3219 5.49625 9.65125C5.49625 9.23938 5.68375 8.85438 6.03125 8.56688C6.47625 8.19625 7.1575 8 8 8ZM14 3V13C14 13.2652 13.8946 13.5196 13.7071 13.7071C13.5196 13.8946 13.2652 14 13 14H3C2.73478 14 2.48043 13.8946 2.29289 13.7071C2.10536 13.5196 2 13.2652 2 13V3C2 2.73478 2.10536 2.48043 2.29289 2.29289C2.48043 2.10536 2.73478 2 3 2H13C13.2652 2 13.5196 2.10536 13.7071 2.29289C13.8946 2.48043 14 2.73478 14 3ZM12.8681 9.16187C12.2198 8.50236 11.4554 7.9682 10.6131 7.58625C10.5569 6.68937 10.2537 5.865 9.745 5.23938C9.08625 4.42875 8.13688 4 7 4C4.7775 4 3.1675 6.11 3.1 6.2C3.02027 6.306 2.98591 6.43934 3.00449 6.57067C3.02307 6.70201 3.09306 6.82058 3.19906 6.90031C3.30507 6.98004 3.4384 7.0144 3.56974 6.99582C3.70107 6.97724 3.81964 6.90725 3.89937 6.80125C3.91312 6.78312 5.28188 5 7 5C7.8375 5 8.5 5.2925 8.96875 5.87C9.27463 6.25949 9.4783 6.71926 9.56125 7.2075C9.0521 7.07057 8.52724 7.00081 8 7C6.92062 7 6.01813 7.27625 5.39125 7.79875C4.8125 8.27938 4.49625 8.9375 4.49625 9.65125C4.49625 10.79 5.375 12 7 12C7.52548 12.0059 8.04508 11.889 8.51741 11.6587C8.98974 11.4283 9.40175 11.0908 9.72062 10.6731C10.1636 10.0899 10.4531 9.40479 10.5625 8.68062C11.1402 8.98702 11.6694 9.37706 12.1331 9.83813C12.177 9.88837 12.2305 9.92932 12.2905 9.95856C12.3504 9.98781 12.4156 10.0048 12.4822 10.0084C12.5488 10.0121 12.6155 10.0024 12.6783 9.97989C12.7411 9.95739 12.7988 9.92255 12.8479 9.87742C12.897 9.8323 12.9366 9.77779 12.9644 9.71713C12.9921 9.65646 13.0075 9.59085 13.0095 9.52417C13.0115 9.45749 13.0001 9.39109 12.976 9.32886C12.952 9.26664 12.9157 9.20987 12.8694 9.16187H12.8681Z" fill="black"/>
</g>
<defs>
<clipPath id="clip0_5_1048">
<rect width="16" height="16" fill="white"/>
</clipPath>
</defs>
</svg>
