<svg width="16" height="16" viewBox="0 0 16 16" fill="none" xmlns="http://www.w3.org/2000/svg">
<g clip-path="url(#clip0_5_1091)">
<path d="M13 2H3C2.73478 2 2.48043 2.10536 2.29289 2.29289C2.10536 2.48043 2 2.73478 2 3V13C2 13.2652 2.10536 13.5196 2.29289 13.7071C2.48043 13.8946 2.73478 14 3 14H13C13.2652 14 13.5196 13.8946 13.7071 13.7071C13.8946 13.5196 14 13.2652 14 13V3C14 2.73478 13.8946 2.48043 13.7071 2.29289C13.5196 2.10536 13.2652 2 13 2ZM12.1038 10.6038L11.6038 11.1038C11.4992 11.2091 11.4405 11.3515 11.4405 11.5C11.4405 11.6485 11.4992 11.7909 11.6038 11.8962L11.8538 12.1462C11.9002 12.1927 11.9371 12.2479 11.9622 12.3086C11.9873 12.3692 12.0003 12.4343 12.0003 12.5C12.0003 12.5657 11.9873 12.6308 11.9622 12.6914C11.9371 12.7521 11.9002 12.8073 11.8538 12.8538C11.8073 12.9002 11.7521 12.9371 11.6914 12.9622C11.6308 12.9873 11.5657 13.0003 11.5 13.0003C11.4343 13.0003 11.3692 12.9873 11.3086 12.9622C11.2479 12.9371 11.1927 12.9002 11.1462 12.8538L10.8962 12.6038C10.6039 12.3108 10.4397 11.9139 10.4397 11.5C10.4397 11.0861 10.6039 10.6892 10.8962 10.3962L11.3962 9.89625C11.5008 9.79088 11.5595 9.64845 11.5595 9.5C11.5595 9.35155 11.5008 9.20912 11.3962 9.10375C11.2909 8.99917 11.1485 8.94049 11 8.94049C10.8515 8.94049 10.7091 8.99917 10.6038 9.10375L7.60375 12.1038C7.30684 12.3752 6.91666 12.5217 6.51446 12.5127C6.11225 12.5037 5.72901 12.3399 5.44453 12.0555C5.16006 11.771 4.99627 11.3878 4.98728 10.9855C4.97828 10.5833 5.12477 10.1932 5.39625 9.89625L9.89625 5.39625C10.0008 5.29088 10.0595 5.14845 10.0595 5C10.0595 4.85155 10.0008 4.70912 9.89625 4.60375C9.79088 4.49917 9.64845 4.44049 9.5 4.44049C9.35155 4.44049 9.20912 4.49917 9.10375 4.60375L6.10375 7.60375C5.80684 7.87523 5.41666 8.02172 5.01446 8.01272C4.61225 8.00373 4.22901 7.83994 3.94453 7.55547C3.66006 7.27099 3.49627 6.88775 3.48728 6.48554C3.47828 6.08334 3.62478 5.69316 3.89625 5.39625L5.64625 3.64625C5.6927 3.59979 5.74786 3.56294 5.80855 3.5378C5.86925 3.51266 5.9343 3.49972 6 3.49972C6.0657 3.49972 6.13075 3.51266 6.19145 3.5378C6.25214 3.56294 6.3073 3.59979 6.35375 3.64625C6.40021 3.69271 6.43706 3.74786 6.4622 3.80855C6.48734 3.86925 6.50028 3.9343 6.50028 4C6.50028 4.0657 6.48734 4.13075 6.4622 4.19145C6.43706 4.25214 6.40021 4.3073 6.35375 4.35375L4.60375 6.10375C4.49917 6.20912 4.44049 6.35155 4.44049 6.5C4.44049 6.64845 4.49917 6.79088 4.60375 6.89625C4.70912 7.00083 4.85155 7.05951 5 7.05951C5.14845 7.05951 5.29088 7.00083 5.39625 6.89625L8.39625 3.89625C8.69316 3.62478 9.08333 3.47828 9.48554 3.48728C9.88775 3.49627 10.271 3.66006 10.5555 3.94453C10.8399 4.22901 11.0037 4.61225 11.0127 5.01446C11.0217 5.41666 10.8752 5.80684 10.6038 6.10375L6.10375 10.6038C5.99917 10.7091 5.94049 10.8515 5.94049 11C5.94049 11.1485 5.99917 11.2909 6.10375 11.3962C6.20912 11.5008 6.35155 11.5595 6.5 11.5595C6.64845 11.5595 6.79088 11.5008 6.89625 11.3962L9.89625 8.39625C10.1932 8.12477 10.5833 7.97828 10.9855 7.98728C11.3878 7.99627 11.771 8.16006 12.0555 8.44453C12.3399 8.72901 12.5037 9.11225 12.5127 9.51446C12.5217 9.91667 12.3752 10.3068 12.1038 10.6038Z" fill="black"/>
</g>
<defs>
<clipPath id="clip0_5_1091">
<rect width="16" height="16" fill="white"/>
</clipPath>
</defs>
</svg>
