<svg width="16" height="16" viewBox="0 0 16 16" fill="none" xmlns="http://www.w3.org/2000/svg">
<g clip-path="url(#clip0_5_405)">
<path d="M13.8 10.6C13.7135 10.5351 13.6082 10.5 13.5 10.5H13V4C13 3.46957 12.7893 2.96086 12.4142 2.58579C12.0391 2.21071 11.5304 2 11 2H2.5C1.96957 2 1.46086 2.21071 1.08579 2.58579C0.710714 2.96086 0.5 3.46957 0.5 4C0.5 4.85063 1.12813 5.34625 1.2 5.4C1.28631 5.46536 1.39173 5.5005 1.5 5.5C1.60421 5.49971 1.70572 5.46688 1.79035 5.40608C1.87499 5.34528 1.93851 5.25955 1.97204 5.16089C2.00557 5.06222 2.00744 4.95555 1.97738 4.85577C1.94731 4.75599 1.88683 4.6681 1.80438 4.60437C1.80187 4.60125 1.5 4.35875 1.5 4C1.5 3.73478 1.60536 3.48043 1.79289 3.29289C1.98043 3.10536 2.23478 3 2.5 3C2.76522 3 3.01957 3.10536 3.20711 3.29289C3.39464 3.48043 3.5 3.73478 3.5 4V12C3.5 12.5304 3.71071 13.0391 4.08579 13.4142C4.46086 13.7893 4.96957 14 5.5 14H12.5C13.0304 14 13.5391 13.7893 13.9142 13.4142C14.2893 13.0391 14.5 12.5304 14.5 12C14.5 11.1494 13.875 10.6538 13.8 10.6ZM6.5 6H10.5C10.6326 6 10.7598 6.05268 10.8536 6.14645C10.9473 6.24021 11 6.36739 11 6.5C11 6.63261 10.9473 6.75979 10.8536 6.85355C10.7598 6.94732 10.6326 7 10.5 7H6.5C6.36739 7 6.24021 6.94732 6.14645 6.85355C6.05268 6.75979 6 6.63261 6 6.5C6 6.36739 6.05268 6.24021 6.14645 6.14645C6.24021 6.05268 6.36739 6 6.5 6ZM6 8.5C6 8.36739 6.05268 8.24021 6.14645 8.14645C6.24021 8.05268 6.36739 8 6.5 8H10.5C10.6326 8 10.7598 8.05268 10.8536 8.14645C10.9473 8.24021 11 8.36739 11 8.5C11 8.63261 10.9473 8.75979 10.8536 8.85355C10.7598 8.94732 10.6326 9 10.5 9H6.5C6.36739 9 6.24021 8.94732 6.14645 8.85355C6.05268 8.75979 6 8.63261 6 8.5ZM12.5 13H6.73187C6.90797 12.6962 7.00048 12.3512 7 12C7.00012 11.8305 6.97463 11.6619 6.92438 11.5H13.2994C13.4235 11.6377 13.495 11.8147 13.5013 12C13.5013 12.1314 13.4753 12.2616 13.425 12.383C13.3747 12.5044 13.3009 12.6147 13.2079 12.7075C13.1149 12.8004 13.0045 12.8741 12.8831 12.9242C12.7616 12.9744 12.6314 13.0002 12.5 13Z" fill="black"/>
</g>
<defs>
<clipPath id="clip0_5_405">
<rect width="16" height="16" fill="white"/>
</clipPath>
</defs>
</svg>
