<svg width="16" height="16" viewBox="0 0 16 16" fill="none" xmlns="http://www.w3.org/2000/svg">
<g clip-path="url(#clip0_5_401)">
<path d="M14.1163 6.42625C13.8806 6.18 13.6369 5.92625 13.545 5.70312C13.46 5.49875 13.455 5.16 13.45 4.83187C13.4406 4.22187 13.4306 3.53062 12.95 3.05C12.4694 2.56937 11.7781 2.55937 11.1681 2.55C10.84 2.545 10.5013 2.54 10.2969 2.455C10.0744 2.36312 9.82 2.11937 9.57375 1.88375C9.1425 1.46937 8.6525 1 8 1C7.3475 1 6.85812 1.46937 6.42625 1.88375C6.18 2.11937 5.92625 2.36312 5.70312 2.455C5.5 2.54 5.16 2.545 4.83187 2.55C4.22187 2.55937 3.53062 2.56937 3.05 3.05C2.56937 3.53062 2.5625 4.22187 2.55 4.83187C2.545 5.16 2.54 5.49875 2.455 5.70312C2.36312 5.92562 2.11937 6.18 1.88375 6.42625C1.46937 6.8575 1 7.3475 1 8C1 8.6525 1.46937 9.14187 1.88375 9.57375C2.11937 9.82 2.36312 10.0737 2.455 10.2969C2.54 10.5013 2.545 10.84 2.55 11.1681C2.55937 11.7781 2.56937 12.4694 3.05 12.95C3.53062 13.4306 4.22187 13.4406 4.83187 13.45C5.16 13.455 5.49875 13.46 5.70312 13.545C5.92562 13.6369 6.18 13.8806 6.42625 14.1163C6.8575 14.5306 7.3475 15 8 15C8.6525 15 9.14187 14.5306 9.57375 14.1163C9.82 13.8806 10.0737 13.6369 10.2969 13.545C10.5013 13.46 10.84 13.455 11.1681 13.45C11.7781 13.4406 12.4694 13.4306 12.95 12.95C13.4306 12.4694 13.4406 11.7781 13.45 11.1681C13.455 10.84 13.46 10.5013 13.545 10.2969C13.6369 10.0744 13.8806 9.82 14.1163 9.57375C14.5306 9.1425 15 8.6525 15 8C15 7.3475 14.5306 6.85812 14.1163 6.42625ZM7.5 5C7.5 4.86739 7.55268 4.74021 7.64645 4.64645C7.74021 4.55268 7.86739 4.5 8 4.5C8.13261 4.5 8.25979 4.55268 8.35355 4.64645C8.44732 4.74021 8.5 4.86739 8.5 5V8.5C8.5 8.63261 8.44732 8.75979 8.35355 8.85355C8.25979 8.94732 8.13261 9 8 9C7.86739 9 7.74021 8.94732 7.64645 8.85355C7.55268 8.75979 7.5 8.63261 7.5 8.5V5ZM8 11.5C7.85166 11.5 7.70666 11.456 7.58332 11.3736C7.45999 11.2912 7.36386 11.1741 7.30709 11.037C7.25032 10.9 7.23547 10.7492 7.26441 10.6037C7.29335 10.4582 7.36478 10.3246 7.46967 10.2197C7.57456 10.1148 7.7082 10.0434 7.85368 10.0144C7.99917 9.98547 8.14997 10.0003 8.28701 10.0571C8.42406 10.1139 8.54119 10.21 8.6236 10.3333C8.70601 10.4567 8.75 10.6017 8.75 10.75C8.75 10.9489 8.67098 11.1397 8.53033 11.2803C8.38968 11.421 8.19891 11.5 8 11.5Z" fill="black"/>
</g>
<defs>
<clipPath id="clip0_5_401">
<rect width="16" height="16" fill="white"/>
</clipPath>
</defs>
</svg>
