<svg width="16" height="16" viewBox="0 0 16 16" fill="none" xmlns="http://www.w3.org/2000/svg">
<g clip-path="url(#clip0_5_403)">
<path d="M15 8C15 8.6525 14.5306 9.14187 14.1163 9.57375C13.8806 9.82 13.6369 10.0737 13.545 10.2969C13.46 10.5013 13.455 10.84 13.45 11.1681C13.4406 11.7781 13.4306 12.4694 12.95 12.95C12.4694 13.4306 11.7781 13.4406 11.1681 13.45C10.84 13.455 10.5013 13.46 10.2969 13.545C10.0737 13.6369 9.82 13.8806 9.57375 14.1163C9.14187 14.5306 8.6525 15 8 15C7.3475 15 6.85812 14.5306 6.42625 14.1163C6.18 13.8806 5.92625 13.6369 5.70312 13.545C5.49875 13.46 5.16 13.455 4.83187 13.45C4.22187 13.4406 3.53062 13.4306 3.05 12.95C2.56937 12.4694 2.55937 11.7781 2.55 11.1681C2.545 10.84 2.54 10.5013 2.455 10.2969C2.36312 10.0737 2.11937 9.82 1.88375 9.57375C1.46937 9.14187 1 8.6525 1 8C1 7.3475 1.46937 6.85812 1.88375 6.42625C2.11937 6.18 2.36312 5.92625 2.455 5.70312C2.54 5.49875 2.545 5.16 2.55 4.83187C2.55937 4.22187 2.56937 3.53062 3.05 3.05C3.53062 2.56937 4.22187 2.55937 4.83187 2.55C5.16 2.545 5.49875 2.54 5.70312 2.455C5.92625 2.36312 6.18 2.11937 6.42625 1.88375C6.85812 1.46937 7.3475 1 8 1C8.6525 1 9.14187 1.46937 9.57375 1.88375C9.82 2.11937 10.0737 2.36312 10.2969 2.455C10.5013 2.54 10.84 2.545 11.1681 2.55C11.7781 2.55937 12.4694 2.56937 12.95 3.05C13.4306 3.53062 13.4406 4.22187 13.45 4.83187C13.455 5.16 13.46 5.49875 13.545 5.70312C13.6369 5.92625 13.8806 6.18 14.1163 6.42625C14.5306 6.85812 15 7.3475 15 8Z" fill="black"/>
</g>
<defs>
<clipPath id="clip0_5_403">
<rect width="16" height="16" fill="white"/>
</clipPath>
</defs>
</svg>
