<svg width="16" height="16" viewBox="0 0 16 16" fill="none" xmlns="http://www.w3.org/2000/svg">
<g clip-path="url(#clip0_5_1230)">
<path d="M7.99999 7C7.45609 7 6.92441 6.83872 6.47217 6.53654C6.01994 6.23437 5.66746 5.80488 5.45932 5.30238C5.25118 4.79988 5.19672 4.24695 5.30283 3.7135C5.40894 3.18006 5.67085 2.69005 6.05545 2.30546C6.44004 1.92086 6.93004 1.65895 7.46349 1.55284C7.99694 1.44673 8.54987 1.50119 9.05237 1.70933C9.55487 1.91747 9.98436 2.26995 10.2865 2.72218C10.5887 3.17442 10.75 3.7061 10.75 4.25C10.7492 4.97909 10.4592 5.67809 9.94362 6.19363C9.42808 6.70918 8.72908 6.99917 7.99999 7ZM12.5 13.5H4.82249L12.3306 6.875C12.3559 6.85255 12.379 6.82764 12.3994 6.80063C12.4679 6.70924 12.5034 6.5973 12.5 6.48313C12.4968 6.38836 12.4668 6.29644 12.4133 6.2181C12.3599 6.13977 12.2853 6.07824 12.1982 6.0407C12.1112 6.00315 12.0152 5.99114 11.9216 6.00607C11.8279 6.021 11.7405 6.06225 11.6694 6.125L10.1356 7.47813C9.4346 7.14676 8.66613 6.98297 7.89092 6.9997C7.11571 7.01643 6.35502 7.21323 5.66896 7.57454C4.9829 7.93585 4.39027 8.45177 3.9379 9.08152C3.48554 9.71128 3.18584 10.4376 3.06249 11.2031C3.05889 11.2259 3.0568 11.2488 3.05624 11.2719L2.99999 13.9894C2.99858 14.0559 3.01046 14.1221 3.03496 14.184C3.05945 14.2459 3.09606 14.3023 3.14263 14.3498C3.1892 14.3974 3.2448 14.4352 3.30616 14.461C3.36753 14.4867 3.43343 14.5 3.49999 14.5H12.5C12.6326 14.5 12.7598 14.4473 12.8535 14.3536C12.9473 14.2598 13 14.1326 13 14C13 13.8674 12.9473 13.7402 12.8535 13.6464C12.7598 13.5527 12.6326 13.5 12.5 13.5ZM11.7575 8.9375C11.6875 8.92904 11.6165 8.93546 11.5492 8.95636C11.4819 8.97725 11.4198 9.01215 11.3669 9.05875L7.46687 12.5H12.5C12.6326 12.5 12.7598 12.4473 12.8535 12.3536C12.9473 12.2598 13 12.1326 13 12C13.0018 10.9807 12.6905 9.98536 12.1081 9.14875C12.0679 9.0908 12.0158 9.04201 11.9554 9.0056C11.895 8.96919 11.8275 8.94598 11.7575 8.9375Z" fill="black"/>
</g>
<defs>
<clipPath id="clip0_5_1230">
<rect width="16" height="16" fill="white"/>
</clipPath>
</defs>
</svg>
