<svg width="16" height="16" viewBox="0 0 16 16" fill="none" xmlns="http://www.w3.org/2000/svg">
<g clip-path="url(#clip0_5_400)">
<path d="M14 14.5C14 14.6326 13.9473 14.7598 13.8535 14.8535C13.7598 14.9473 13.6326 15 13.5 15H6.99998C6.86737 15 6.7402 14.9473 6.64643 14.8535C6.55266 14.7598 6.49998 14.6326 6.49998 14.5C6.49998 14.3674 6.55266 14.2402 6.64643 14.1464C6.7402 14.0527 6.86737 14 6.99998 14H13.5C13.6326 14 13.7598 14.0527 13.8535 14.1464C13.9473 14.2402 14 14.3674 14 14.5ZM13 8.99999H8.98623L6.99998 4.99999L7.88686 3.35499C7.88952 3.35061 7.89182 3.34601 7.89373 3.34124C8.01224 3.10411 8.03174 2.82962 7.94794 2.57811C7.86415 2.32661 7.68391 2.11866 7.44686 1.99999L7.41748 1.98624L5.31248 1.09812C5.07612 0.985236 4.80491 0.969596 4.55714 1.05456C4.30937 1.13953 4.10483 1.31832 3.98748 1.55249L2.60498 4.30249C2.53593 4.44156 2.5 4.59473 2.5 4.74999C2.5 4.90526 2.53593 5.05843 2.60498 5.19749L6.23686 12.4475C6.31959 12.614 6.44727 12.7539 6.60544 12.8516C6.76362 12.9492 6.94597 13.0006 7.13186 13H13C13.2652 13 13.5196 12.8946 13.7071 12.7071C13.8946 12.5196 14 12.2652 14 12V9.99999C14 9.73478 13.8946 9.48042 13.7071 9.29289C13.5196 9.10535 13.2652 8.99999 13 8.99999Z" fill="black"/>
</g>
<defs>
<clipPath id="clip0_5_400">
<rect width="16" height="16" fill="white"/>
</clipPath>
</defs>
</svg>
