<svg width="16" height="16" viewBox="0 0 16 16" fill="none" xmlns="http://www.w3.org/2000/svg">
<g clip-path="url(#clip0_5_399)">
<path d="M15.5 8.49997C15.3674 8.49997 15.2402 8.55265 15.1464 8.64642C15.0527 8.74019 15 8.86736 15 8.99997V9.99997H12.2069L11.0625 8.85372L14.2087 5.70685C14.3961 5.51933 14.5014 5.26507 14.5014 4.99997C14.5014 4.73487 14.3961 4.48061 14.2087 4.2931L11.8537 1.93747L10.7069 0.793096C10.614 0.700213 10.5038 0.626533 10.3824 0.576264C10.2611 0.525995 10.131 0.500122 9.99968 0.500122C9.86834 0.500122 9.73828 0.525995 9.61694 0.576264C9.4956 0.626533 9.38535 0.700213 9.29249 0.793096L0.18249 9.93372C0.0952857 10.0212 0.035957 10.1326 0.0119954 10.2537C-0.0119662 10.3749 0.000513744 10.5005 0.0478595 10.6145C0.0952052 10.7286 0.175294 10.8261 0.278012 10.8947C0.38073 10.9633 0.501471 10.9999 0.62499 11H3.08561L5.29312 13.2068C5.48063 13.3942 5.73489 13.4995 5.99999 13.4995C6.26509 13.4995 6.51935 13.3942 6.70686 13.2068L10.3537 9.56247L11.5 10.7068C11.5925 10.8001 11.7026 10.8741 11.824 10.9244C11.9454 10.9747 12.0755 11.0004 12.2069 11H15V12C15 12.1326 15.0527 12.2598 15.1464 12.3535C15.2402 12.4473 15.3674 12.5 15.5 12.5C15.6326 12.5 15.7598 12.4473 15.8535 12.3535C15.9473 12.2598 16 12.1326 16 12V8.99997C16 8.86736 15.9473 8.74019 15.8535 8.64642C15.7598 8.55265 15.6326 8.49997 15.5 8.49997ZM9.99999 1.49997L10.7931 2.2931L3.08561 9.99997H1.52874L9.99999 1.49997Z" fill="black"/>
</g>
<defs>
<clipPath id="clip0_5_399">
<rect width="16" height="16" fill="white"/>
</clipPath>
</defs>
</svg>
