<svg width="16" height="16" viewBox="0 0 16 16" fill="none" xmlns="http://www.w3.org/2000/svg">
<g clip-path="url(#clip0_5_394)">
<path d="M13 2H3C2.73478 2 2.48043 2.10536 2.29289 2.29289C2.10536 2.48043 2 2.73478 2 3V13C2 13.2652 2.10536 13.5196 2.29289 13.7071C2.48043 13.8946 2.73478 14 3 14H13C13.2652 14 13.5196 13.8946 13.7071 13.7071C13.8946 13.5196 14 13.2652 14 13V3C14 2.73478 13.8946 2.48043 13.7071 2.29289C13.5196 2.10536 13.2652 2 13 2ZM3.5 4.5C3.5 4.23478 3.60536 3.98043 3.79289 3.79289C3.98043 3.60536 4.23478 3.5 4.5 3.5H6C6.13261 3.5 6.25979 3.55268 6.35355 3.64645C6.44732 3.74021 6.5 3.86739 6.5 4C6.5 4.13261 6.44732 4.25979 6.35355 4.35355C6.25979 4.44732 6.13261 4.5 6 4.5H4.5V6C4.5 6.13261 4.44732 6.25979 4.35355 6.35355C4.25979 6.44732 4.13261 6.5 4 6.5C3.86739 6.5 3.74021 6.44732 3.64645 6.35355C3.55268 6.25979 3.5 6.13261 3.5 6V4.5ZM7 11.5H4.5C4.23478 11.5 3.98043 11.3946 3.79289 11.2071C3.60536 11.0196 3.5 10.7652 3.5 10.5V8.5C3.5 8.36739 3.55268 8.24021 3.64645 8.14645C3.74021 8.05268 3.86739 8 4 8C4.13261 8 4.25979 8.05268 4.35355 8.14645C4.44732 8.24021 4.5 8.36739 4.5 8.5V10.5H7C7.13261 10.5 7.25979 10.5527 7.35355 10.6464C7.44732 10.7402 7.5 10.8674 7.5 11C7.5 11.1326 7.44732 11.2598 7.35355 11.3536C7.25979 11.4473 7.13261 11.5 7 11.5ZM8 4C8 3.86739 8.05268 3.74021 8.14645 3.64645C8.24021 3.55268 8.36739 3.5 8.5 3.5H10.5C10.7652 3.5 11.0196 3.60536 11.2071 3.79289C11.3946 3.98043 11.5 4.23478 11.5 4.5V7C11.5 7.13261 11.4473 7.25979 11.3536 7.35355C11.2598 7.44732 11.1326 7.5 11 7.5C10.8674 7.5 10.7402 7.44732 10.6464 7.35355C10.5527 7.25979 10.5 7.13261 10.5 7V4.5H8.5C8.36739 4.5 8.24021 4.44732 8.14645 4.35355C8.05268 4.25979 8 4.13261 8 4ZM12.5 11.5H11.5V12.5C11.5 12.6326 11.4473 12.7598 11.3536 12.8536C11.2598 12.9473 11.1326 13 11 13C10.8674 13 10.7402 12.9473 10.6464 12.8536C10.5527 12.7598 10.5 12.6326 10.5 12.5V11.5H9.5C9.36739 11.5 9.24021 11.4473 9.14645 11.3536C9.05268 11.2598 9 11.1326 9 11C9 10.8674 9.05268 10.7402 9.14645 10.6464C9.24021 10.5527 9.36739 10.5 9.5 10.5H10.5V9.5C10.5 9.36739 10.5527 9.24021 10.6464 9.14645C10.7402 9.05268 10.8674 9 11 9C11.1326 9 11.2598 9.05268 11.3536 9.14645C11.4473 9.24021 11.5 9.36739 11.5 9.5V10.5H12.5C12.6326 10.5 12.7598 10.5527 12.8536 10.6464C12.9473 10.7402 13 10.8674 13 11C13 11.1326 12.9473 11.2598 12.8536 11.3536C12.7598 11.4473 12.6326 11.5 12.5 11.5Z" fill="black"/>
</g>
<defs>
<clipPath id="clip0_5_394">
<rect width="16" height="16" fill="white"/>
</clipPath>
</defs>
</svg>
