<svg width="16" height="16" viewBox="0 0 16 16" fill="none" xmlns="http://www.w3.org/2000/svg">
<g clip-path="url(#clip0_5_396)">
<path d="M13 2H3C2.73478 2 2.48043 2.10536 2.29289 2.29289C2.10536 2.48043 2 2.73478 2 3V13C2 13.2652 2.10536 13.5196 2.29289 13.7071C2.48043 13.8946 2.73478 14 3 14H13C13.2652 14 13.5196 13.8946 13.7071 13.7071C13.8946 13.5196 14 13.2652 14 13V3C14 2.73478 13.8946 2.48043 13.7071 2.29289C13.5196 2.10536 13.2652 2 13 2ZM5.5 12.5H4.5C4.23478 12.5 3.98043 12.3946 3.79289 12.2071C3.60536 12.0196 3.5 11.7652 3.5 11.5V10.5C3.5 10.3674 3.55268 10.2402 3.64645 10.1464C3.74021 10.0527 3.86739 10 4 10C4.13261 10 4.25979 10.0527 4.35355 10.1464C4.44732 10.2402 4.5 10.3674 4.5 10.5V11.5H5.5C5.63261 11.5 5.75979 11.5527 5.85355 11.6464C5.94732 11.7402 6 11.8674 6 12C6 12.1326 5.94732 12.2598 5.85355 12.3536C5.75979 12.4473 5.63261 12.5 5.5 12.5ZM5.5 7H4.5V8C4.5 8.13261 4.44732 8.25979 4.35355 8.35355C4.25979 8.44732 4.13261 8.5 4 8.5C3.86739 8.5 3.74021 8.44732 3.64645 8.35355C3.55268 8.25979 3.5 8.13261 3.5 8V7C3.5 6.73478 3.60536 6.48043 3.79289 6.29289C3.98043 6.10536 4.23478 6 4.5 6H5.5C5.63261 6 5.75979 6.05268 5.85355 6.14645C5.94732 6.24021 6 6.36739 6 6.5C6 6.63261 5.94732 6.75979 5.85355 6.85355C5.75979 6.94732 5.63261 7 5.5 7ZM10 11.5C10 11.7652 9.89464 12.0196 9.70711 12.2071C9.51957 12.3946 9.26522 12.5 9 12.5H8C7.86739 12.5 7.74021 12.4473 7.64645 12.3536C7.55268 12.2598 7.5 12.1326 7.5 12C7.5 11.8674 7.55268 11.7402 7.64645 11.6464C7.74021 11.5527 7.86739 11.5 8 11.5H9V10.5C9 10.3674 9.05268 10.2402 9.14645 10.1464C9.24021 10.0527 9.36739 10 9.5 10C9.63261 10 9.75979 10.0527 9.85355 10.1464C9.94732 10.2402 10 10.3674 10 10.5V11.5ZM10 8C10 8.13261 9.94732 8.25979 9.85355 8.35355C9.75979 8.44732 9.63261 8.5 9.5 8.5C9.36739 8.5 9.24021 8.44732 9.14645 8.35355C9.05268 8.25979 9 8.13261 9 8V7H8C7.86739 7 7.74021 6.94732 7.64645 6.85355C7.55268 6.75979 7.5 6.63261 7.5 6.5C7.5 6.36739 7.55268 6.24021 7.64645 6.14645C7.74021 6.05268 7.86739 6 8 6H9C9.26522 6 9.51957 6.10536 9.70711 6.29289C9.89464 6.48043 10 6.73478 10 7V8ZM12.5 9C12.5 9.26522 12.3946 9.51957 12.2071 9.70711C12.0196 9.89464 11.7652 10 11.5 10C11.3674 10 11.2402 9.94732 11.1464 9.85355C11.0527 9.75979 11 9.63261 11 9.5C11 9.36739 11.0527 9.24021 11.1464 9.14645C11.2402 9.05268 11.3674 9 11.5 9V4.5H7C7 4.63261 6.94732 4.75979 6.85355 4.85355C6.75979 4.94732 6.63261 5 6.5 5C6.36739 5 6.24021 4.94732 6.14645 4.85355C6.05268 4.75979 6 4.63261 6 4.5C6 4.23478 6.10536 3.98043 6.29289 3.79289C6.48043 3.60536 6.73478 3.5 7 3.5H11.5C11.7652 3.5 12.0196 3.60536 12.2071 3.79289C12.3946 3.98043 12.5 4.23478 12.5 4.5V9Z" fill="black"/>
</g>
<defs>
<clipPath id="clip0_5_396">
<rect width="16" height="16" fill="white"/>
</clipPath>
</defs>
</svg>
