<svg width="16" height="16" viewBox="0 0 16 16" fill="none" xmlns="http://www.w3.org/2000/svg">
<g clip-path="url(#clip0_5_398)">
<path d="M6.5 2.5C6.5 2.36739 6.55268 2.24021 6.64645 2.14645C6.74021 2.05268 6.86739 2 7 2H9C9.13261 2 9.25979 2.05268 9.35355 2.14645C9.44732 2.24021 9.5 2.36739 9.5 2.5C9.5 2.63261 9.44732 2.75979 9.35355 2.85355C9.25979 2.94732 9.13261 3 9 3H7C6.86739 3 6.74021 2.94732 6.64645 2.85355C6.55268 2.75979 6.5 2.63261 6.5 2.5ZM9 13H7C6.86739 13 6.74021 13.0527 6.64645 13.1464C6.55268 13.2402 6.5 13.3674 6.5 13.5C6.5 13.6326 6.55268 13.7598 6.64645 13.8536C6.74021 13.9473 6.86739 14 7 14H9C9.13261 14 9.25979 13.9473 9.35355 13.8536C9.44732 13.7598 9.5 13.6326 9.5 13.5C9.5 13.3674 9.44732 13.2402 9.35355 13.1464C9.25979 13.0527 9.13261 13 9 13ZM13 2H11.5C11.3674 2 11.2402 2.05268 11.1464 2.14645C11.0527 2.24021 11 2.36739 11 2.5C11 2.63261 11.0527 2.75979 11.1464 2.85355C11.2402 2.94732 11.3674 3 11.5 3H13V4.5C13 4.63261 13.0527 4.75979 13.1464 4.85355C13.2402 4.94732 13.3674 5 13.5 5C13.6326 5 13.7598 4.94732 13.8536 4.85355C13.9473 4.75979 14 4.63261 14 4.5V3C14 2.73478 13.8946 2.48043 13.7071 2.29289C13.5196 2.10536 13.2652 2 13 2ZM13.5 6.5C13.3674 6.5 13.2402 6.55268 13.1464 6.64645C13.0527 6.74021 13 6.86739 13 7V9C13 9.13261 13.0527 9.25979 13.1464 9.35355C13.2402 9.44732 13.3674 9.5 13.5 9.5C13.6326 9.5 13.7598 9.44732 13.8536 9.35355C13.9473 9.25979 14 9.13261 14 9V7C14 6.86739 13.9473 6.74021 13.8536 6.64645C13.7598 6.55268 13.6326 6.5 13.5 6.5ZM13.5 11C13.3674 11 13.2402 11.0527 13.1464 11.1464C13.0527 11.2402 13 11.3674 13 11.5V13H11.5C11.3674 13 11.2402 13.0527 11.1464 13.1464C11.0527 13.2402 11 13.3674 11 13.5C11 13.6326 11.0527 13.7598 11.1464 13.8536C11.2402 13.9473 11.3674 14 11.5 14H13C13.2652 14 13.5196 13.8946 13.7071 13.7071C13.8946 13.5196 14 13.2652 14 13V11.5C14 11.3674 13.9473 11.2402 13.8536 11.1464C13.7598 11.0527 13.6326 11 13.5 11ZM2.5 9.5C2.63261 9.5 2.75979 9.44732 2.85355 9.35355C2.94732 9.25979 3 9.13261 3 9V7C3 6.86739 2.94732 6.74021 2.85355 6.64645C2.75979 6.55268 2.63261 6.5 2.5 6.5C2.36739 6.5 2.24021 6.55268 2.14645 6.64645C2.05268 6.74021 2 6.86739 2 7V9C2 9.13261 2.05268 9.25979 2.14645 9.35355C2.24021 9.44732 2.36739 9.5 2.5 9.5ZM4.5 13H3V11.5C3 11.3674 2.94732 11.2402 2.85355 11.1464C2.75979 11.0527 2.63261 11 2.5 11C2.36739 11 2.24021 11.0527 2.14645 11.1464C2.05268 11.2402 2 11.3674 2 11.5V13C2 13.2652 2.10536 13.5196 2.29289 13.7071C2.48043 13.8946 2.73478 14 3 14H4.5C4.63261 14 4.75979 13.9473 4.85355 13.8536C4.94732 13.7598 5 13.6326 5 13.5C5 13.3674 4.94732 13.2402 4.85355 13.1464C4.75979 13.0527 4.63261 13 4.5 13ZM2.5 5C2.63261 5 2.75979 4.94732 2.85355 4.85355C2.94732 4.75979 3 4.63261 3 4.5V3H4.5C4.63261 3 4.75979 2.94732 4.85355 2.85355C4.94732 2.75979 5 2.63261 5 2.5C5 2.36739 4.94732 2.24021 4.85355 2.14645C4.75979 2.05268 4.63261 2 4.5 2H3C2.73478 2 2.48043 2.10536 2.29289 2.29289C2.10536 2.48043 2 2.73478 2 3V4.5C2 4.63261 2.05268 4.75979 2.14645 4.85355C2.24021 4.94732 2.36739 5 2.5 5ZM11.5 11V5C11.5 4.86739 11.4473 4.74021 11.3536 4.64645C11.2598 4.55268 11.1326 4.5 11 4.5H5C4.86739 4.5 4.74021 4.55268 4.64645 4.64645C4.55268 4.74021 4.5 4.86739 4.5 5V11C4.5 11.1326 4.55268 11.2598 4.64645 11.3536C4.74021 11.4473 4.86739 11.5 5 11.5H11C11.1326 11.5 11.2598 11.4473 11.3536 11.3536C11.4473 11.2598 11.5 11.1326 11.5 11Z" fill="black"/>
</g>
<defs>
<clipPath id="clip0_5_398">
<rect width="16" height="16" fill="white"/>
</clipPath>
</defs>
</svg>
