<svg width="16" height="16" viewBox="0 0 16 16" fill="none" xmlns="http://www.w3.org/2000/svg">
<g clip-path="url(#clip0_5_395)">
<path d="M9.5 13.5C9.5 13.6326 9.44732 13.7598 9.35355 13.8536C9.25979 13.9473 9.13261 14 9 14H7C6.86739 14 6.74021 13.9473 6.64645 13.8536C6.55268 13.7598 6.5 13.6326 6.5 13.5C6.5 13.3674 6.55268 13.2402 6.64645 13.1464C6.74021 13.0527 6.86739 13 7 13H9C9.13261 13 9.25979 13.0527 9.35355 13.1464C9.44732 13.2402 9.5 13.3674 9.5 13.5ZM2.5 9.5C2.63261 9.5 2.75979 9.44732 2.85355 9.35355C2.94732 9.25979 3 9.13261 3 9V7C3 6.86739 2.94732 6.74021 2.85355 6.64645C2.75979 6.55268 2.63261 6.5 2.5 6.5C2.36739 6.5 2.24021 6.55268 2.14645 6.64645C2.05268 6.74021 2 6.86739 2 7V9C2 9.13261 2.05268 9.25979 2.14645 9.35355C2.24021 9.44732 2.36739 9.5 2.5 9.5ZM4.5 13H3V11.5C3 11.3674 2.94732 11.2402 2.85355 11.1464C2.75979 11.0527 2.63261 11 2.5 11C2.36739 11 2.24021 11.0527 2.14645 11.1464C2.05268 11.2402 2 11.3674 2 11.5V13C2 13.2652 2.10536 13.5196 2.29289 13.7071C2.48043 13.8946 2.73478 14 3 14H4.5C4.63261 14 4.75979 13.9473 4.85355 13.8536C4.94732 13.7598 5 13.6326 5 13.5C5 13.3674 4.94732 13.2402 4.85355 13.1464C4.75979 13.0527 4.63261 13 4.5 13ZM14 3C14 2.73478 13.8946 2.48043 13.7071 2.29289C13.5196 2.10536 13.2652 2 13 2H3C2.75373 1.99994 2.51624 2.09151 2.33375 2.25688C2.30529 2.2795 2.2795 2.30529 2.25688 2.33375C2.09151 2.51624 1.99994 2.75373 2 3V4.5C2 4.63261 2.05268 4.75979 2.14645 4.85355C2.24021 4.94732 2.36739 5 2.5 5C2.63261 5 2.75979 4.94732 2.85355 4.85355C2.94732 4.75979 3 4.63261 3 4.5V3.70688L12.2931 13H11.5C11.3674 13 11.2402 13.0527 11.1464 13.1464C11.0527 13.2402 11 13.3674 11 13.5C11 13.6326 11.0527 13.7598 11.1464 13.8536C11.2402 13.9473 11.3674 14 11.5 14H13C13.2461 14 13.4835 13.9087 13.6663 13.7437C13.6805 13.7323 13.6941 13.72 13.7069 13.7069C13.7199 13.6942 13.732 13.6807 13.7431 13.6663C13.9085 13.4838 14.0001 13.2463 14 13V3Z" fill="black"/>
</g>
<defs>
<clipPath id="clip0_5_395">
<rect width="16" height="16" fill="white"/>
</clipPath>
</defs>
</svg>
