<svg width="16" height="16" viewBox="0 0 16 16" fill="none" xmlns="http://www.w3.org/2000/svg">
<g clip-path="url(#clip0_5_1217)">
<path d="M13 2H3C2.73478 2 2.48043 2.10536 2.29289 2.29289C2.10536 2.48043 2 2.73478 2 3V13C2 13.2652 2.10536 13.5196 2.29289 13.7071C2.48043 13.8946 2.73478 14 3 14H13C13.2652 14 13.5196 13.8946 13.7071 13.7071C13.8946 13.5196 14 13.2652 14 13V3C14 2.73478 13.8946 2.48043 13.7071 2.29289C13.5196 2.10536 13.2652 2 13 2ZM6.5 12.5H4.5C4.23478 12.5 3.98043 12.3946 3.79289 12.2071C3.60536 12.0196 3.5 11.7652 3.5 11.5V9.5C3.5 9.36739 3.55268 9.24021 3.64645 9.14645C3.74021 9.05268 3.86739 9 4 9C4.13261 9 4.25979 9.05268 4.35355 9.14645C4.44732 9.24021 4.5 9.36739 4.5 9.5V11.5H6.5C6.63261 11.5 6.75979 11.5527 6.85355 11.6464C6.94732 11.7402 7 11.8674 7 12C7 12.1326 6.94732 12.2598 6.85355 12.3536C6.75979 12.4473 6.63261 12.5 6.5 12.5ZM6.5 4.5H4.5V6.5C4.5 6.63261 4.44732 6.75979 4.35355 6.85355C4.25979 6.94732 4.13261 7 4 7C3.86739 7 3.74021 6.94732 3.64645 6.85355C3.55268 6.75979 3.5 6.63261 3.5 6.5V4.5C3.5 4.23478 3.60536 3.98043 3.79289 3.79289C3.98043 3.60536 4.23478 3.5 4.5 3.5H6.5C6.63261 3.5 6.75979 3.55268 6.85355 3.64645C6.94732 3.74021 7 3.86739 7 4C7 4.13261 6.94732 4.25979 6.85355 4.35355C6.75979 4.44732 6.63261 4.5 6.5 4.5ZM12.5 11.5C12.5 11.7652 12.3946 12.0196 12.2071 12.2071C12.0196 12.3946 11.7652 12.5 11.5 12.5H9.5C9.36739 12.5 9.24021 12.4473 9.14645 12.3536C9.05268 12.2598 9 12.1326 9 12C9 11.8674 9.05268 11.7402 9.14645 11.6464C9.24021 11.5527 9.36739 11.5 9.5 11.5H11.5V9.5C11.5 9.36739 11.5527 9.24021 11.6464 9.14645C11.7402 9.05268 11.8674 9 12 9C12.1326 9 12.2598 9.05268 12.3536 9.14645C12.4473 9.24021 12.5 9.36739 12.5 9.5V11.5ZM12.5 6.5C12.5 6.63261 12.4473 6.75979 12.3536 6.85355C12.2598 6.94732 12.1326 7 12 7C11.8674 7 11.7402 6.94732 11.6464 6.85355C11.5527 6.75979 11.5 6.63261 11.5 6.5V4.5H9.5C9.36739 4.5 9.24021 4.44732 9.14645 4.35355C9.05268 4.25979 9 4.13261 9 4C9 3.86739 9.05268 3.74021 9.14645 3.64645C9.24021 3.55268 9.36739 3.5 9.5 3.5H11.5C11.7652 3.5 12.0196 3.60536 12.2071 3.79289C12.3946 3.98043 12.5 4.23478 12.5 4.5V6.5Z" fill="black"/>
</g>
<defs>
<clipPath id="clip0_5_1217">
<rect width="16" height="16" fill="white"/>
</clipPath>
</defs>
</svg>
