<svg width="16" height="16" viewBox="0 0 16 16" fill="none" xmlns="http://www.w3.org/2000/svg">
<g clip-path="url(#clip0_5_397)">
<path d="M4.5 7H9V11.5H4.5V7ZM14 3V13C14 13.2652 13.8946 13.5196 13.7071 13.7071C13.5196 13.8946 13.2652 14 13 14H3C2.73478 14 2.48043 13.8946 2.29289 13.7071C2.10536 13.5196 2 13.2652 2 13V3C2 2.73478 2.10536 2.48043 2.29289 2.29289C2.48043 2.10536 2.73478 2 3 2H13C13.2652 2 13.5196 2.10536 13.7071 2.29289C13.8946 2.48043 14 2.73478 14 3ZM6 4.5C6 4.63261 6.05268 4.75979 6.14645 4.85355C6.24021 4.94732 6.36739 5 6.5 5C6.63261 5 6.75979 4.94732 6.85355 4.85355C6.94732 4.75979 7 4.63261 7 4.5H8C8.13261 4.5 8.25979 4.44732 8.35355 4.35355C8.44732 4.25979 8.5 4.13261 8.5 4C8.5 3.86739 8.44732 3.74021 8.35355 3.64645C8.25979 3.55268 8.13261 3.5 8 3.5H7C6.73478 3.5 6.48043 3.60536 6.29289 3.79289C6.10536 3.98043 6 4.23478 6 4.5ZM10 7C10 6.73478 9.89464 6.48043 9.70711 6.29289C9.51957 6.10536 9.26522 6 9 6H4.5C4.23478 6 3.98043 6.10536 3.79289 6.29289C3.60536 6.48043 3.5 6.73478 3.5 7V11.5C3.5 11.7652 3.60536 12.0196 3.79289 12.2071C3.98043 12.3946 4.23478 12.5 4.5 12.5H9C9.26522 12.5 9.51957 12.3946 9.70711 12.2071C9.89464 12.0196 10 11.7652 10 11.5V7ZM12.5 8C12.5 7.86739 12.4473 7.74021 12.3536 7.64645C12.2598 7.55268 12.1326 7.5 12 7.5C11.8674 7.5 11.7402 7.55268 11.6464 7.64645C11.5527 7.74021 11.5 7.86739 11.5 8V9C11.3674 9 11.2402 9.05268 11.1464 9.14645C11.0527 9.24021 11 9.36739 11 9.5C11 9.63261 11.0527 9.75979 11.1464 9.85355C11.2402 9.94732 11.3674 10 11.5 10C11.7652 10 12.0196 9.89464 12.2071 9.70711C12.3946 9.51957 12.5 9.26522 12.5 9V8ZM12.5 4.5C12.5 4.23478 12.3946 3.98043 12.2071 3.79289C12.0196 3.60536 11.7652 3.5 11.5 3.5H10.5C10.3674 3.5 10.2402 3.55268 10.1464 3.64645C10.0527 3.74021 10 3.86739 10 4C10 4.13261 10.0527 4.25979 10.1464 4.35355C10.2402 4.44732 10.3674 4.5 10.5 4.5H11.5V5.5C11.5 5.63261 11.5527 5.75979 11.6464 5.85355C11.7402 5.94732 11.8674 6 12 6C12.1326 6 12.2598 5.94732 12.3536 5.85355C12.4473 5.75979 12.5 5.63261 12.5 5.5V4.5Z" fill="black"/>
</g>
<defs>
<clipPath id="clip0_5_397">
<rect width="16" height="16" fill="white"/>
</clipPath>
</defs>
</svg>
