<svg width="16" height="16" viewBox="0 0 16 16" fill="none" xmlns="http://www.w3.org/2000/svg">
<g clip-path="url(#clip0_5_393)">
<path d="M6.97441 11.3419C6.99947 11.417 7.0063 11.4971 6.99436 11.5754C6.98241 11.6537 6.95202 11.7281 6.90569 11.7924C6.85936 11.8566 6.79842 11.909 6.72789 11.9451C6.65736 11.9812 6.57927 12 6.50004 12H1.50004C1.42081 12 1.34271 11.9812 1.27218 11.9451C1.20165 11.909 1.14071 11.8566 1.09439 11.7924C1.04806 11.7281 1.01767 11.6537 1.00572 11.5754C0.99377 11.4971 1.00061 11.417 1.02566 11.3419L3.52566 3.84188C3.55883 3.7423 3.6225 3.65568 3.70764 3.5943C3.79278 3.53292 3.89508 3.49989 4.00004 3.49989C4.105 3.49989 4.20729 3.53292 4.29244 3.5943C4.37758 3.65568 4.44124 3.7423 4.47441 3.84188L6.97441 11.3419ZM13 4.75C13 4.10721 12.8094 3.47886 12.4523 2.9444C12.0952 2.40994 11.5876 1.99338 10.9938 1.74739C10.3999 1.50141 9.74643 1.43705 9.11599 1.56245C8.48556 1.68785 7.90646 1.99738 7.45194 2.4519C6.99742 2.90642 6.68789 3.48552 6.56249 4.11596C6.43708 4.7464 6.50144 5.39986 6.74743 5.99372C6.99341 6.58758 7.40997 7.09516 7.94443 7.45228C8.47889 7.80939 9.10725 8 9.75004 8C10.6117 7.99901 11.4378 7.65628 12.047 7.047C12.6563 6.43772 12.999 5.61165 13 4.75ZM14 9H8.50004C8.36743 9 8.24025 9.05268 8.14648 9.14645C8.05272 9.24022 8.00004 9.36739 8.00004 9.5V13C8.00004 13.1326 8.05272 13.2598 8.14648 13.3536C8.24025 13.4473 8.36743 13.5 8.50004 13.5H14C14.1326 13.5 14.2598 13.4473 14.3536 13.3536C14.4474 13.2598 14.5 13.1326 14.5 13V9.5C14.5 9.36739 14.4474 9.24022 14.3536 9.14645C14.2598 9.05268 14.1326 9 14 9Z" fill="black"/>
</g>
<defs>
<clipPath id="clip0_5_393">
<rect width="16" height="16" fill="white"/>
</clipPath>
</defs>
</svg>
