<svg width="16" height="16" viewBox="0 0 16 16" fill="none" xmlns="http://www.w3.org/2000/svg">
<g clip-path="url(#clip0_5_1113)">
<path d="M13.25 12.4999C13.2501 12.8284 13.1782 13.1528 13.0396 13.4505C12.9009 13.7481 12.6987 14.0119 12.4472 14.2231C12.1958 14.4343 11.9011 14.5879 11.584 14.6732C11.2668 14.7584 10.9348 14.7731 10.6114 14.7164C10.2879 14.6597 9.98079 14.5328 9.71157 14.3448C9.44234 14.1567 9.21755 13.912 9.05297 13.6278C8.8884 13.3436 8.78803 13.0269 8.75891 12.6997C8.72979 12.3726 8.77263 12.0431 8.88442 11.7343L5.57192 9.6062C5.25555 9.91653 4.85459 10.1265 4.41933 10.2098C3.98407 10.2931 3.5339 10.2461 3.12529 10.0745C2.71669 9.90294 2.36784 9.61454 2.12252 9.24547C1.87721 8.8764 1.74634 8.44311 1.74634 7.99995C1.74634 7.55679 1.87721 7.12349 2.12252 6.75443C2.36784 6.38536 2.71669 6.09696 3.12529 5.92539C3.5339 5.75383 3.98407 5.70675 4.41933 5.79007C4.85459 5.87338 5.25555 6.08337 5.57192 6.3937L8.88442 4.2687C8.69474 3.74748 8.70375 3.17464 8.90974 2.65964C9.11573 2.14465 9.50425 1.72361 10.0011 1.47697C10.4979 1.23033 11.0681 1.17539 11.6029 1.32265C12.1377 1.4699 12.5994 1.80903 12.8999 2.27523C13.2004 2.74143 13.3186 3.30201 13.232 3.84986C13.1453 4.3977 12.8598 4.8944 12.43 5.24505C12.0002 5.59569 11.4563 5.77569 10.9022 5.75065C10.3481 5.72562 9.82269 5.4973 9.4263 5.10932L6.1138 7.23745C6.29282 7.73217 6.29282 8.27398 6.1138 8.7687L9.4263 10.8968C9.74256 10.5873 10.1431 10.3779 10.5777 10.2949C11.0124 10.2118 11.4619 10.2588 11.87 10.4299C12.2781 10.601 12.6267 10.8886 12.8722 11.2568C13.1176 11.625 13.2491 12.0574 13.25 12.4999Z" fill="black"/>
</g>
<defs>
<clipPath id="clip0_5_1113">
<rect width="16" height="16" fill="white"/>
</clipPath>
</defs>
</svg>
