<svg width="16" height="16" viewBox="0 0 16 16" fill="none" xmlns="http://www.w3.org/2000/svg">
<g clip-path="url(#clip0_5_392)">
<path d="M14.8537 7.35378L9.85371 12.3538C9.78378 12.4238 9.69466 12.4715 9.59762 12.4908C9.50057 12.5101 9.39998 12.5002 9.30857 12.4623C9.21716 12.4245 9.13904 12.3603 9.0841 12.278C9.02917 12.1957 8.99988 12.099 8.99996 12V9.5144C5.43121 9.7169 2.98434 12.0313 2.29746 12.7644C2.18961 12.8796 2.04817 12.9578 1.89328 12.988C1.73838 13.0181 1.57793 12.9986 1.43475 12.9323C1.29157 12.866 1.17295 12.7562 1.09579 12.6185C1.01863 12.4809 0.986842 12.3224 1.00496 12.1657C1.23684 10.1494 2.34121 8.21003 4.11496 6.70503C5.58809 5.45503 7.37871 4.6619 8.99996 4.52315V2.00003C8.99988 1.90108 9.02917 1.80433 9.0841 1.72204C9.13904 1.63974 9.21716 1.57559 9.30857 1.53772C9.39998 1.49984 9.50057 1.48994 9.59762 1.50926C9.69466 1.52859 9.78378 1.57627 9.85371 1.64628L14.8537 6.64628C14.9002 6.69271 14.9371 6.74786 14.9622 6.80856C14.9874 6.86926 15.0004 6.93432 15.0004 7.00003C15.0004 7.06574 14.9874 7.1308 14.9622 7.1915C14.9371 7.2522 14.9002 7.30734 14.8537 7.35378Z" fill="black"/>
</g>
<defs>
<clipPath id="clip0_5_392">
<rect width="16" height="16" fill="white"/>
</clipPath>
</defs>
</svg>
