<svg width="16" height="16" viewBox="0 0 16 16" fill="none" xmlns="http://www.w3.org/2000/svg">
<g clip-path="url(#clip0_5_391)">
<path d="M14.3538 6.85378L11.3538 9.85378C11.2838 9.92378 11.1947 9.97147 11.0977 9.99079C11.0006 10.0101 10.9 10.0002 10.8086 9.96234C10.7172 9.92446 10.6391 9.86032 10.5841 9.77802C10.5292 9.69572 10.4999 9.59898 10.5 9.50003V7.00003H10.3125C9.09291 6.99969 7.9078 7.40472 6.94353 8.15143C5.97926 8.89814 5.29052 9.94417 4.98562 11.125C4.95247 11.2535 4.86965 11.3635 4.75537 11.4309C4.64109 11.4983 4.50471 11.5176 4.37625 11.4844C4.24779 11.4513 4.13775 11.3684 4.07036 11.2541C4.00296 11.1399 3.98372 11.0035 4.01687 10.875C4.37663 9.47911 5.19047 8.2425 6.33024 7.35992C7.47001 6.47734 8.87097 5.99893 10.3125 6.00003H10.5V3.50003C10.4999 3.40108 10.5292 3.30433 10.5841 3.22204C10.6391 3.13974 10.7172 3.07559 10.8086 3.03772C10.9 2.99984 11.0006 2.98994 11.0977 3.00926C11.1947 3.02859 11.2838 3.07627 11.3538 3.14628L14.3538 6.14628C14.4002 6.19271 14.4371 6.24786 14.4623 6.30856C14.4874 6.36926 14.5004 6.43432 14.5004 6.50003C14.5004 6.56574 14.4874 6.6308 14.4623 6.6915C14.4371 6.7522 14.4002 6.80734 14.3538 6.85378ZM12 13H2.5V5.50003C2.5 5.36742 2.44732 5.24024 2.35355 5.14647C2.25979 5.05271 2.13261 5.00003 2 5.00003C1.86739 5.00003 1.74021 5.05271 1.64645 5.14647C1.55268 5.24024 1.5 5.36742 1.5 5.50003V13.5C1.5 13.6326 1.55268 13.7598 1.64645 13.8536C1.74021 13.9473 1.86739 14 2 14H12C12.1326 14 12.2598 13.9473 12.3536 13.8536C12.4473 13.7598 12.5 13.6326 12.5 13.5C12.5 13.3674 12.4473 13.2402 12.3536 13.1465C12.2598 13.0527 12.1326 13 12 13Z" fill="black"/>
</g>
<defs>
<clipPath id="clip0_5_391">
<rect width="16" height="16" fill="white"/>
</clipPath>
</defs>
</svg>
