<svg width="16" height="16" viewBox="0 0 16 16" fill="none" xmlns="http://www.w3.org/2000/svg">
<g clip-path="url(#clip0_5_1019)">
<path fill-rule="evenodd" clip-rule="evenodd" d="M14 7V3.5C14 3.23478 13.8946 2.98043 13.7071 2.79289C13.5196 2.60536 13.2652 2.5 13 2.5H3C2.73478 2.5 2.48043 2.60536 2.29289 2.79289C2.10536 2.98043 2 3.23478 2 3.5V7C2 10.295 3.595 12.2919 4.92938 13.3869C6.3725 14.5656 7.80438 14.9663 7.86688 14.9825C7.95281 15.0059 8.04344 15.0059 8.12938 14.9825C8.19188 14.9663 9.62563 14.5656 11.0669 13.3869C12.405 12.2919 14 10.295 14 7ZM9.92016 8.59821L11.3299 7.38176L11.328 7.38208C11.4048 7.31575 11.4604 7.22822 11.4877 7.13047C11.515 7.03271 11.5128 6.92908 11.4815 6.83255C11.4501 6.73601 11.391 6.65088 11.3115 6.5878C11.232 6.52473 11.1356 6.48652 11.0345 6.47797L9.18616 6.32885L8.47346 4.60333C8.43487 4.50929 8.36918 4.42885 8.28476 4.37224C8.20033 4.31563 8.10097 4.2854 7.99932 4.2854C7.89767 4.2854 7.79832 4.31563 7.71389 4.37224C7.62946 4.42885 7.56377 4.50929 7.52518 4.60333L6.81217 6.32885L4.96385 6.47797C4.86292 6.48685 4.76684 6.52527 4.68761 6.58843C4.60839 6.6516 4.54952 6.7367 4.51838 6.83311C4.48723 6.92953 4.48518 7.03299 4.51248 7.13056C4.53978 7.22814 4.59522 7.31551 4.67188 7.38176L6.08161 8.59821L5.65055 10.4174C5.62702 10.516 5.6332 10.6194 5.66831 10.7145C5.70342 10.8096 5.76589 10.8922 5.84785 10.9519C5.92981 11.0116 6.0276 11.0457 6.1289 11.0499C6.2302 11.0542 6.33049 11.0283 6.41713 10.9756L8.00011 10.002L9.58214 10.9756C9.6688 11.0286 9.7692 11.0547 9.87068 11.0506C9.97216 11.0466 10.0702 11.0125 10.1523 10.9528C10.2344 10.893 10.297 10.8103 10.3321 10.715C10.3673 10.6197 10.3734 10.5161 10.3497 10.4174L9.92016 8.59821Z" fill="black"/>
</g>
<defs>
<clipPath id="clip0_5_1019">
<rect width="16" height="16" fill="white"/>
</clipPath>
</defs>
</svg>
