<svg width="16" height="16" viewBox="0 0 16 16" fill="none" xmlns="http://www.w3.org/2000/svg">
<g clip-path="url(#clip0_5_386)">
<path d="M13 2.5H3C2.73478 2.5 2.48043 2.60536 2.29289 2.79289C2.10536 2.98043 2 3.23478 2 3.5V7C2 10.295 3.595 12.2919 4.93313 13.3869C6.37437 14.5656 7.80813 14.9663 7.87063 14.9825C7.95656 15.0059 8.04719 15.0059 8.13313 14.9825C8.19563 14.9663 9.6275 14.5656 11.0706 13.3869C12.405 12.2919 14 10.295 14 7V3.5C14 3.23478 13.8946 2.98043 13.7071 2.79289C13.5196 2.60536 13.2652 2.5 13 2.5ZM10.6875 7.96438L8.79313 8.72188L9.9 10.2C9.97956 10.3061 10.0137 10.4394 9.99498 10.5707C9.97622 10.702 9.90609 10.8204 9.8 10.9C9.69391 10.9796 9.56056 11.0137 9.42929 10.995C9.29801 10.9762 9.17957 10.9061 9.1 10.8L8 9.33313L6.9 10.8C6.8606 10.8525 6.81125 10.8968 6.75475 10.9302C6.69825 10.9637 6.63571 10.9857 6.57071 10.995C6.50571 11.0043 6.43952 11.0007 6.37591 10.9844C6.3123 10.9681 6.25253 10.9394 6.2 10.9C6.14747 10.8606 6.10322 10.8112 6.06976 10.7547C6.03631 10.6982 6.01431 10.6357 6.00503 10.5707C5.99574 10.5057 5.99935 10.4395 6.01564 10.3759C6.03194 10.3123 6.0606 10.2525 6.1 10.2L7.20875 8.72188L5.3125 7.96438C5.18934 7.91465 5.09098 7.81803 5.03905 7.69578C5.01334 7.63525 4.99981 7.57024 4.99922 7.50448C4.99863 7.43872 5.011 7.37348 5.03562 7.3125C5.06025 7.25152 5.09664 7.19598 5.14273 7.14906C5.18881 7.10215 5.24369 7.06476 5.30422 7.03905C5.42647 6.98713 5.56434 6.9859 5.6875 7.03562L7.5 7.76125V6C7.5 5.86739 7.55268 5.74021 7.64645 5.64645C7.74021 5.55268 7.86739 5.5 8 5.5C8.13261 5.5 8.25979 5.55268 8.35355 5.64645C8.44732 5.74021 8.5 5.86739 8.5 6V7.76125L10.3125 7.03562C10.3735 7.011 10.4387 6.99863 10.5045 6.99922C10.5702 6.99981 10.6352 7.01334 10.6958 7.03905C10.7563 7.06476 10.8112 7.10215 10.8573 7.14906C10.9034 7.19598 10.9398 7.25152 10.9644 7.3125C10.989 7.37348 11.0014 7.43872 11.0008 7.50448C11.0002 7.57024 10.9867 7.63525 10.9609 7.69578C10.9352 7.75631 10.8979 7.81119 10.8509 7.85727C10.804 7.90336 10.7485 7.93975 10.6875 7.96438Z" fill="black"/>
</g>
<defs>
<clipPath id="clip0_5_386">
<rect width="16" height="16" fill="white"/>
</clipPath>
</defs>
</svg>
