<svg width="16" height="16" viewBox="0 0 16 16" fill="none" xmlns="http://www.w3.org/2000/svg">
<g clip-path="url(#clip0_5_389)">
<path fill-rule="evenodd" clip-rule="evenodd" d="M3 2.5H13C13.2652 2.5 13.5196 2.60536 13.7071 2.79289C13.8946 2.98043 14 3.23478 14 3.5V7C14 10.295 12.405 12.2919 11.0706 13.3869C9.6275 14.5656 8.19563 14.9663 8.13313 14.9825C8.04719 15.0059 7.95656 15.0059 7.87063 14.9825C7.80813 14.9663 6.37437 14.5656 4.93313 13.3869C3.595 12.2919 2 10.295 2 7V3.5C2 3.23478 2.10536 2.98043 2.29289 2.79289C2.48043 2.60536 2.73478 2.5 3 2.5ZM5.5675 12.6131C6.29247 13.2061 7.11576 13.6675 8 13.9762C11.1636 12.6131 12.5522 10.6574 12.9438 8C12.9814 7.668 13.0002 7.33413 13 7V3.5H8H3L3.05625 8C3.27313 9.875 4.11438 11.4244 5.5675 12.6131Z" fill="black"/>
</g>
<defs>
<clipPath id="clip0_5_389">
<rect width="16" height="16" fill="white"/>
</clipPath>
</defs>
</svg>
