<svg width="16" height="16" viewBox="0 0 16 16" fill="none" xmlns="http://www.w3.org/2000/svg">
<g clip-path="url(#clip0_5_387)">
<path d="M14 3.49997V6.99997C14 8.57747 13.6344 9.85747 13.1062 10.8837C13.0879 10.9198 13.061 10.9509 13.0279 10.9743C12.9949 10.9977 12.9566 11.0128 12.9165 11.0181C12.8763 11.0235 12.8355 11.019 12.7974 11.005C12.7594 10.9911 12.7253 10.9681 12.6981 10.9381L5.4075 2.91809C5.37479 2.88209 5.35328 2.83734 5.34563 2.7893C5.33797 2.74127 5.3445 2.69204 5.3644 2.64766C5.3843 2.60328 5.41672 2.56566 5.45768 2.53943C5.49864 2.5132 5.54636 2.49948 5.595 2.49997H13C13.2652 2.49997 13.5196 2.60532 13.7071 2.79286C13.8946 2.98039 14 3.23475 14 3.49997ZM3.37 2.16372C3.29481 2.08126 3.1942 2.02632 3.08418 2.00766C2.97416 1.98899 2.86105 2.00766 2.76287 2.06071C2.6647 2.11375 2.58708 2.19811 2.54239 2.30036C2.4977 2.40262 2.4885 2.51688 2.51625 2.62497C2.35988 2.7114 2.22952 2.83814 2.13873 2.99202C2.04794 3.1459 2.00004 3.3213 2 3.49997V6.99997C2 10.295 3.595 12.2918 4.93313 13.3868C6.37437 14.5656 7.80813 14.9662 7.87063 14.9825C7.95656 15.0058 8.04719 15.0058 8.13313 14.9825C8.19563 14.9662 9.6275 14.5656 11.0706 13.3868C11.2897 13.2063 11.4994 13.0146 11.6987 12.8125L12.63 13.8362C12.6739 13.8857 12.7272 13.926 12.7868 13.9547C12.8464 13.9835 12.9111 14.0001 12.9772 14.0037C13.0432 14.0072 13.1094 13.9976 13.1717 13.9755C13.234 13.9533 13.2913 13.9189 13.3403 13.8744C13.3893 13.8299 13.4289 13.7762 13.4569 13.7162C13.485 13.6563 13.5008 13.5914 13.5036 13.5253C13.5064 13.4592 13.496 13.3932 13.473 13.3311C13.4501 13.269 13.4151 13.2121 13.37 13.1637L3.37 2.16372Z" fill="black"/>
</g>
<defs>
<clipPath id="clip0_5_387">
<rect width="16" height="16" fill="white"/>
</clipPath>
</defs>
</svg>
