<svg width="16" height="16" viewBox="0 0 16 16" fill="none" xmlns="http://www.w3.org/2000/svg">
<g clip-path="url(#clip0_5_385)">
<path d="M14.775 4.4156L8.1375 2.51935C8.06991 2.49998 7.99899 2.49508 7.92938 2.50498L1.35875 3.44373C1.12085 3.47872 0.903373 3.59785 0.745808 3.7795C0.588243 3.96114 0.50103 4.19327 0.5 4.43373V11.5662C0.50103 11.8067 0.588243 12.0388 0.745808 12.2205C0.903373 12.4021 1.12085 12.5212 1.35875 12.5562L7.92938 13.4937C7.95275 13.4974 7.97635 13.4995 8 13.5C8.04652 13.5001 8.09282 13.4935 8.1375 13.4806L14.775 11.5844C14.9832 11.5241 15.1663 11.3981 15.2969 11.2252C15.4276 11.0522 15.4988 10.8417 15.5 10.625V5.37498C15.4988 5.15825 15.4276 4.94771 15.2969 4.7748C15.1663 4.60189 14.9832 4.47588 14.775 4.4156ZM4 7.49998H3C2.86739 7.49998 2.74021 7.55265 2.64645 7.64642C2.55268 7.74019 2.5 7.86737 2.5 7.99998C2.5 8.13258 2.55268 8.25976 2.64645 8.35353C2.74021 8.4473 2.86739 8.49998 3 8.49998H4V11.9237L1.5 11.5662V4.43373L4 4.07623V7.49998ZM7.5 12.4237L5 12.0662V8.49998H6C6.13261 8.49998 6.25979 8.4473 6.35355 8.35353C6.44732 8.25976 6.5 8.13258 6.5 7.99998C6.5 7.86737 6.44732 7.74019 6.35355 7.64642C6.25979 7.55265 6.13261 7.49998 6 7.49998H5V3.93373L7.5 3.57623V12.4237Z" fill="black"/>
</g>
<defs>
<clipPath id="clip0_5_385">
<rect width="16" height="16" fill="white"/>
</clipPath>
</defs>
</svg>
