<svg width="16" height="16" viewBox="0 0 16 16" fill="none" xmlns="http://www.w3.org/2000/svg">
<g clip-path="url(#clip0_5_384)">
<path d="M12.5625 2.5H11.2094L10.3538 1.64625C10.3073 1.59983 10.2521 1.56303 10.1914 1.53793C10.1307 1.51284 10.0657 1.49995 10 1.5H6C5.93432 1.49995 5.86927 1.51284 5.80858 1.53793C5.74788 1.56303 5.69272 1.59983 5.64625 1.64625L4.79063 2.5H3.4375C3.18886 2.5 2.9504 2.59877 2.77459 2.77459C2.59877 2.9504 2.5 3.18886 2.5 3.4375V13.0625C2.5 13.3111 2.59877 13.5496 2.77459 13.7254C2.9504 13.9012 3.18886 14 3.4375 14H7.25C7.3163 14 7.37989 13.9737 7.42678 13.9268C7.47366 13.8799 7.5 13.8163 7.5 13.75V6.51687C7.49809 6.38767 7.54518 6.26253 7.6318 6.16663C7.71842 6.07074 7.83814 6.0112 7.96688 6C8.03527 5.99546 8.10387 6.00503 8.1684 6.02811C8.23294 6.0512 8.29205 6.08731 8.34204 6.1342C8.39204 6.18109 8.43186 6.23776 8.45903 6.30069C8.48621 6.36361 8.50015 6.43146 8.5 6.5V13.75C8.5 13.8163 8.52634 13.8799 8.57322 13.9268C8.62011 13.9737 8.6837 14 8.75 14H12.5625C12.8111 14 13.0496 13.9012 13.2254 13.7254C13.4012 13.5496 13.5 13.3111 13.5 13.0625V3.4375C13.5 3.18886 13.4012 2.9504 13.2254 2.77459C13.0496 2.59877 12.8111 2.5 12.5625 2.5ZM5.40875 6.6925C5.37219 6.72255 5.32786 6.74161 5.2809 6.74746C5.23395 6.7533 5.18629 6.74571 5.14348 6.72555C5.10067 6.70538 5.06446 6.67349 5.03906 6.63356C5.01366 6.59364 5.00012 6.54732 5 6.5V3.70688L5.9525 2.75438L7.41937 4.955L5.40875 6.6925ZM11 6.5C11.0001 6.54757 10.9866 6.59419 10.9612 6.63438C10.9357 6.67457 10.8993 6.70666 10.8562 6.72687C10.8139 6.74728 10.7667 6.75512 10.72 6.74947C10.6734 6.74382 10.6293 6.72492 10.5931 6.695L8.58062 4.95625L10.0475 2.75563L11 3.70688V6.5Z" fill="black"/>
</g>
<defs>
<clipPath id="clip0_5_384">
<rect width="16" height="16" fill="white"/>
</clipPath>
</defs>
</svg>
