<svg width="16" height="16" viewBox="0 0 16 16" fill="none" xmlns="http://www.w3.org/2000/svg">
<g clip-path="url(#clip0_5_383)">
<path d="M14.7025 5.27381L12.9488 6.75381L13.4838 8.96569C13.5226 9.12581 13.5131 9.29385 13.4565 9.44858C13.3998 9.60331 13.2987 9.7378 13.1657 9.83506C13.0311 9.93395 12.8703 9.99081 12.7034 9.99849C12.5366 10.0062 12.3712 9.9643 12.2282 9.87819L10.25 8.68756L8.27191 9.87881C8.1289 9.96517 7.9635 10.0072 7.79662 9.99949C7.62973 9.99181 7.46888 9.93481 7.33441 9.83568C7.20117 9.73861 7.09976 9.60417 7.04301 9.4494C6.98627 9.29463 6.97675 9.1265 7.01566 8.96631L7.55066 6.75444L5.79753 5.27381C5.67057 5.16649 5.57845 5.0238 5.53291 4.86392C5.48738 4.70404 5.49049 4.53422 5.54185 4.37611C5.59321 4.21801 5.69049 4.07878 5.8213 3.97619C5.9521 3.87359 6.11049 3.81228 6.27628 3.80006L8.58503 3.61756L9.47316 1.51381C9.53803 1.36146 9.64626 1.23155 9.78439 1.14024C9.92252 1.04893 10.0845 1.00024 10.25 1.00024C10.4156 1.00024 10.5775 1.04893 10.7157 1.14024C10.8538 1.23155 10.962 1.36146 11.0269 1.51381L11.915 3.61756L14.2238 3.80006C14.3896 3.81228 14.548 3.87359 14.6788 3.97619C14.8096 4.07878 14.9069 4.21801 14.9582 4.37611C15.0096 4.53422 15.0127 4.70404 14.9672 4.86392C14.9216 5.0238 14.8295 5.16649 14.7025 5.27381ZM5.50691 6.99319C5.46047 6.9467 5.40533 6.90982 5.34463 6.88466C5.28393 6.85949 5.21887 6.84654 5.15316 6.84654C5.08745 6.84654 5.02239 6.85949 4.96169 6.88466C4.90099 6.90982 4.84585 6.9467 4.79941 6.99319L1.14628 10.6463C1.05246 10.7401 0.999756 10.8674 0.999756 11.0001C0.999756 11.1327 1.05246 11.26 1.14628 11.3538C1.2401 11.4476 1.36735 11.5003 1.50003 11.5003C1.63272 11.5003 1.75996 11.4476 1.85378 11.3538L5.50691 7.70069C5.5534 7.65425 5.59028 7.5991 5.61544 7.53841C5.6406 7.47771 5.65355 7.41264 5.65355 7.34694C5.65355 7.28123 5.6406 7.21616 5.61544 7.15547C5.59028 7.09477 5.5534 7.03962 5.50691 6.99319ZM5.47566 10.8176L2.14628 14.1463C2.09983 14.1928 2.06298 14.2479 2.03784 14.3086C2.0127 14.3693 1.99976 14.4344 1.99976 14.5001C1.99976 14.5658 2.0127 14.6308 2.03784 14.6915C2.06298 14.7522 2.09983 14.8074 2.14628 14.8538C2.2401 14.9476 2.36735 15.0003 2.50003 15.0003C2.56573 15.0003 2.63079 14.9874 2.69148 14.9623C2.75218 14.9371 2.80733 14.9003 2.85378 14.8538L6.18253 11.5244C6.27234 11.4299 6.32167 11.304 6.32 11.1736C6.31833 11.0433 6.2658 10.9187 6.1736 10.8265C6.0814 10.7343 5.95683 10.6818 5.82645 10.6801C5.69606 10.6784 5.57019 10.7277 5.47566 10.8176ZM10.0382 10.7551L6.64503 14.1476C6.59858 14.194 6.56173 14.2492 6.53659 14.3099C6.51145 14.3706 6.49851 14.4356 6.49851 14.5013C6.49851 14.567 6.51145 14.6321 6.53659 14.6928C6.56173 14.7535 6.59858 14.8086 6.64503 14.8551C6.73885 14.9489 6.8661 15.0016 6.99878 15.0016C7.06448 15.0016 7.12954 14.9886 7.19023 14.9635C7.25093 14.9384 7.30608 14.9015 7.35253 14.8551L10.745 11.4626C10.8389 11.3688 10.8916 11.2417 10.8917 11.109C10.8917 10.9764 10.8391 10.8492 10.7453 10.7554C10.6516 10.6616 10.5244 10.6088 10.3918 10.6088C10.2592 10.6087 10.132 10.6613 10.0382 10.7551Z" fill="black"/>
</g>
<defs>
<clipPath id="clip0_5_383">
<rect width="16" height="16" fill="white"/>
</clipPath>
</defs>
</svg>
