<svg width="16" height="16" viewBox="0 0 16 16" fill="none" xmlns="http://www.w3.org/2000/svg">
<g clip-path="url(#clip0_5_1013)">
<path d="M13.5 2.5H2.5C2.23478 2.5 1.98043 2.60536 1.79289 2.79289C1.60536 2.98043 1.5 3.23478 1.5 3.5V12.5C1.5 12.7652 1.60536 13.0196 1.79289 13.2071C1.98043 13.3946 2.23478 13.5 2.5 13.5H13.5C13.7652 13.5 14.0196 13.3946 14.2071 13.2071C14.3946 13.0196 14.5 12.7652 14.5 12.5V3.5C14.5 3.23478 14.3946 2.98043 14.2071 2.79289C14.0196 2.60536 13.7652 2.5 13.5 2.5ZM8 8.5C7.2046 8.49917 6.44202 8.18284 5.87959 7.62041C5.31716 7.05798 5.00083 6.2954 5 5.5C5 5.36739 5.05268 5.24021 5.14645 5.14645C5.24021 5.05268 5.36739 5 5.5 5C5.63261 5 5.75979 5.05268 5.85355 5.14645C5.94732 5.24021 6 5.36739 6 5.5C6 6.03043 6.21071 6.53914 6.58579 6.91421C6.96086 7.28929 7.46957 7.5 8 7.5C8.53043 7.5 9.03914 7.28929 9.41421 6.91421C9.78929 6.53914 10 6.03043 10 5.5C10 5.36739 10.0527 5.24021 10.1464 5.14645C10.2402 5.05268 10.3674 5 10.5 5C10.6326 5 10.7598 5.05268 10.8536 5.14645C10.9473 5.24021 11 5.36739 11 5.5C10.9992 6.2954 10.6828 7.05798 10.1204 7.62041C9.55798 8.18284 8.7954 8.49917 8 8.5Z" fill="black"/>
</g>
<defs>
<clipPath id="clip0_5_1013">
<rect width="16" height="16" fill="white"/>
</clipPath>
</defs>
</svg>
