<svg width="16" height="16" viewBox="0 0 16 16" fill="none" xmlns="http://www.w3.org/2000/svg">
<g clip-path="url(#clip0_5_1009)">
<path d="M15.3538 4.35378C15.3073 4.40027 15.2522 4.43715 15.1915 4.46231C15.1308 4.48748 15.0657 4.50043 15 4.50043C14.9343 4.50043 14.8692 4.48748 14.8085 4.46231C14.7478 4.43715 14.6927 4.40027 14.6463 4.35378L13.5 3.20691L9.0625 7.64441L8.35375 6.93753L12.7913 2.50003L11.6463 1.35378C11.5998 1.30733 11.563 1.25218 11.5378 1.19148C11.5127 1.13079 11.4997 1.06573 11.4997 1.00003C11.4997 0.934336 11.5127 0.869282 11.5378 0.808586C11.563 0.747889 11.5998 0.692739 11.6463 0.646284C11.7401 0.552464 11.8673 0.499756 12 0.499756C12.0657 0.499756 12.1308 0.512696 12.1915 0.537837C12.2521 0.562979 12.3073 0.599829 12.3538 0.646284L15.3538 3.64628C15.4002 3.69272 15.4371 3.74786 15.4623 3.80856C15.4874 3.86926 15.5004 3.93433 15.5004 4.00003C15.5004 4.06574 15.4874 4.13081 15.4623 4.1915C15.4371 4.2522 15.4002 4.30735 15.3538 4.35378ZM5.5 11C5.40106 11.0001 5.30431 10.9708 5.22201 10.9159C5.13972 10.861 5.07557 10.7828 5.03769 10.6914C4.99982 10.6 4.98991 10.4994 5.00924 10.4024C5.02857 10.3053 5.07625 10.2162 5.14625 10.1463L8.35375 6.93753L6.20688 4.79253C6.01936 4.60514 5.76511 4.49987 5.5 4.49987C5.2349 4.49987 4.98065 4.60514 4.79313 4.79253L1.29313 8.29253C1.19988 8.38519 1.12595 8.49544 1.07563 8.61689C1.02531 8.73834 0.999606 8.86857 1 9.00003V14C1 14.2653 1.10536 14.5196 1.2929 14.7071C1.48043 14.8947 1.73479 15 2 15H7C7.13137 15.0005 7.26152 14.9748 7.38287 14.9244C7.50422 14.8741 7.61436 14.8002 7.70688 14.7069L11.2069 11.2069C11.3943 11.0194 11.4995 10.7651 11.4995 10.5C11.4995 10.2349 11.3943 9.98068 11.2069 9.79316L9.0625 7.64628L5.85375 10.8538C5.80729 10.9002 5.75213 10.937 5.69143 10.9621C5.63073 10.9872 5.56569 11.0001 5.5 11Z" fill="black"/>
</g>
<defs>
<clipPath id="clip0_5_1009">
<rect width="16" height="16" fill="white"/>
</clipPath>
</defs>
</svg>
