<svg width="16" height="16" viewBox="0 0 16 16" fill="none" xmlns="http://www.w3.org/2000/svg">
<g clip-path="url(#clip0_5_379)">
<path d="M4 14.75C4 14.8983 3.95601 15.0433 3.8736 15.1667C3.79119 15.29 3.67406 15.3861 3.53701 15.4429C3.39997 15.4997 3.24917 15.5145 3.10368 15.4856C2.9582 15.4566 2.82456 15.3852 2.71967 15.2803C2.61478 15.1754 2.54335 15.0418 2.51441 14.8963C2.48547 14.7508 2.50032 14.6 2.55709 14.463C2.61386 14.3259 2.70999 14.2088 2.83332 14.1264C2.95666 14.044 3.10166 14 3.25 14C3.44891 14 3.63968 14.079 3.78033 14.2197C3.92098 14.3603 4 14.5511 4 14.75ZM5.25 12C5.10166 12 4.95666 12.044 4.83332 12.1264C4.70999 12.2088 4.61386 12.3259 4.55709 12.463C4.50033 12.6 4.48547 12.7508 4.51441 12.8963C4.54335 13.0418 4.61478 13.1754 4.71967 13.2803C4.82456 13.3852 4.9582 13.4566 5.10368 13.4856C5.24917 13.5145 5.39997 13.4997 5.53701 13.4429C5.67406 13.3861 5.79119 13.29 5.8736 13.1667C5.95601 13.0433 6 12.8983 6 12.75C6 12.5511 5.92098 12.3603 5.78033 12.2197C5.63968 12.079 5.44891 12 5.25 12ZM1.25 12C1.10166 12 0.95666 12.044 0.833323 12.1264C0.709986 12.2088 0.613856 12.3259 0.557091 12.463C0.500325 12.6 0.485472 12.7508 0.514411 12.8963C0.54335 13.0418 0.614781 13.1754 0.71967 13.2803C0.82456 13.3852 0.958197 13.4566 1.10368 13.4856C1.24917 13.5145 1.39997 13.4997 1.53701 13.4429C1.67406 13.3861 1.79119 13.29 1.8736 13.1667C1.95601 13.0433 2 12.8983 2 12.75C2 12.5511 1.92098 12.3603 1.78033 12.2197C1.63968 12.079 1.44891 12 1.25 12ZM3.25 10C3.10166 10 2.95666 10.044 2.83332 10.1264C2.70999 10.2088 2.61386 10.3259 2.55709 10.463C2.50032 10.6 2.48547 10.7508 2.51441 10.8963C2.54335 11.0418 2.61478 11.1754 2.71967 11.2803C2.82456 11.3852 2.9582 11.4566 3.10368 11.4856C3.24917 11.5145 3.39997 11.4997 3.53701 11.4429C3.67406 11.3861 3.79119 11.29 3.8736 11.1667C3.95601 11.0433 4 10.8983 4 10.75C4 10.5511 3.92098 10.3603 3.78033 10.2197C3.63968 10.079 3.44891 10 3.25 10ZM15.5 2H13.5C13.4343 1.99995 13.3693 2.01284 13.3086 2.03793C13.2479 2.06303 13.1927 2.09983 13.1462 2.14625L11.2587 4.03375L3.33625 5.38688C3.15493 5.41699 2.98541 5.49649 2.84633 5.61665C2.70724 5.73682 2.60396 5.89299 2.54784 6.06801C2.49171 6.24304 2.48491 6.43015 2.52819 6.60879C2.57146 6.78743 2.66313 6.95068 2.79313 7.08063L8.91813 13.2056C9.04796 13.3354 9.21102 13.427 9.38944 13.4702C9.56786 13.5135 9.75474 13.5068 9.92961 13.4509C10.1045 13.395 10.2606 13.2921 10.3808 13.1533C10.5011 13.0146 10.5808 12.8454 10.6112 12.6644L11.9663 4.74125L13.7069 3H15.5C15.6326 3 15.7598 2.94732 15.8536 2.85355C15.9473 2.75979 16 2.63261 16 2.5C16 2.36739 15.9473 2.24022 15.8536 2.14645C15.7598 2.05268 15.6326 2 15.5 2Z" fill="black"/>
</g>
<defs>
<clipPath id="clip0_5_379">
<rect width="16" height="16" fill="white"/>
</clipPath>
</defs>
</svg>
