<svg width="16" height="16" viewBox="0 0 16 16" fill="none" xmlns="http://www.w3.org/2000/svg">
<g clip-path="url(#clip0_5_378)">
<path d="M8.5 7.25C8.5 7.10166 8.54399 6.95666 8.6264 6.83332C8.70881 6.70999 8.82594 6.61386 8.96299 6.55709C9.10003 6.50032 9.25083 6.48547 9.39632 6.51441C9.5418 6.54335 9.67544 6.61478 9.78033 6.71967C9.88522 6.82456 9.95665 6.9582 9.98559 7.10368C10.0145 7.24917 9.99967 7.39997 9.94291 7.53701C9.88614 7.67406 9.79001 7.79119 9.66668 7.8736C9.54334 7.95601 9.39834 8 9.25 8C9.05109 8 8.86032 7.92098 8.71967 7.78033C8.57902 7.63968 8.5 7.44891 8.5 7.25ZM15 3.75C14.9999 4.08338 14.9045 4.40979 14.7251 4.6908C14.5457 4.97182 14.2898 5.19575 13.9875 5.33625C13.9009 6.60057 13.3381 7.78501 12.4124 8.65057C11.4868 9.51612 10.2673 9.99837 9 10H7C6.80109 10 6.61032 10.079 6.46967 10.2197C6.32902 10.3603 6.25 10.5511 6.25 10.75C6.25 10.9489 6.32902 11.1397 6.46967 11.2803C6.61032 11.421 6.80109 11.5 7 11.5H10.5C10.6326 11.5 10.7598 11.5527 10.8536 11.6464C10.9473 11.7402 11 11.8674 11 12C11 12.1326 10.9473 12.2598 10.8536 12.3536C10.7598 12.4473 10.6326 12.5 10.5 12.5H7.5V13.5H9.5C9.63261 13.5 9.75979 13.5527 9.85355 13.6464C9.94732 13.7402 10 13.8674 10 14C10 14.1326 9.94732 14.2598 9.85355 14.3536C9.75979 14.4473 9.63261 14.5 9.5 14.5H6C4.67392 14.5 3.40215 13.9732 2.46447 13.0355C1.52678 12.0979 1 10.8261 1 9.5C1 8.17392 1.52678 6.90215 2.46447 5.96447C3.40215 5.02678 4.67392 4.5 6 4.5H13.25C13.4489 4.5 13.6397 4.42098 13.7803 4.28033C13.921 4.13968 14 3.94891 14 3.75C14 3.55109 13.921 3.36032 13.7803 3.21967C13.6397 3.07902 13.4489 3 13.25 3H8C7.60218 3 7.22064 2.84196 6.93934 2.56066C6.65804 2.27936 6.5 1.89782 6.5 1.5C6.5 1.36739 6.55268 1.24021 6.64645 1.14645C6.74021 1.05268 6.86739 1 7 1C7.13261 1 7.25979 1.05268 7.35355 1.14645C7.44732 1.24021 7.5 1.36739 7.5 1.5C7.5 1.63261 7.55268 1.75979 7.64645 1.85355C7.74021 1.94732 7.86739 2 8 2H13.25C13.7141 2 14.1592 2.18437 14.4874 2.51256C14.8156 2.84075 15 3.28587 15 3.75ZM5.3575 11.3875C5.31934 11.3341 5.27102 11.2887 5.21531 11.2539C5.15961 11.2192 5.0976 11.1957 5.03283 11.1849C4.96806 11.1741 4.9018 11.1762 4.83783 11.191C4.77386 11.2058 4.71343 11.2331 4.66 11.2712L3.7 11.9587C3.59874 12.0383 3.53205 12.1538 3.51381 12.2812C3.49558 12.4087 3.52721 12.5382 3.60212 12.6429C3.67703 12.7476 3.78944 12.8194 3.91594 12.8433C4.04245 12.8672 4.1733 12.8414 4.28125 12.7712L5.24125 12.0837C5.3488 12.0067 5.42143 11.8901 5.44322 11.7596C5.46501 11.6291 5.43419 11.4953 5.3575 11.3875ZM5.26375 9.16125L2.84687 8.0625C2.78684 8.03325 2.72155 8.01632 2.65487 8.01271C2.58818 8.0091 2.52145 8.01889 2.45861 8.0415C2.39577 8.06411 2.33809 8.09907 2.28899 8.14434C2.23988 8.1896 2.20034 8.24424 2.1727 8.30503C2.14506 8.36583 2.12988 8.43154 2.12805 8.4983C2.12622 8.56506 2.13779 8.63151 2.16206 8.69372C2.18634 8.75594 2.22283 8.81266 2.26938 8.86054C2.31594 8.90842 2.37162 8.94649 2.43313 8.9725L4.85 10.0719C4.90987 10.099 4.97449 10.114 5.04016 10.1161C5.10584 10.1182 5.17129 10.1073 5.23276 10.0841C5.29423 10.0608 5.35052 10.0257 5.39841 9.98075C5.44631 9.93576 5.48486 9.88177 5.51188 9.82187C5.5663 9.70133 5.57075 9.56413 5.52424 9.44032C5.47774 9.31651 5.38407 9.21616 5.26375 9.16125ZM12.9688 5.5H7.5V9H9C9.97395 8.99882 10.9141 8.64284 11.6446 7.99864C12.3751 7.35444 12.8458 6.46616 12.9688 5.5Z" fill="black"/>
</g>
<defs>
<clipPath id="clip0_5_378">
<rect width="16" height="16" fill="white"/>
</clipPath>
</defs>
</svg>
