<svg width="16" height="16" viewBox="0 0 16 16" fill="none" xmlns="http://www.w3.org/2000/svg">
<g clip-path="url(#clip0_5_1006)">
<path d="M14.8538 11.1463C14.9002 11.1927 14.9371 11.2479 14.9623 11.3086C14.9874 11.3693 15.0004 11.4343 15.0004 11.5C15.0004 11.5657 14.9874 11.6308 14.9623 11.6915C14.9371 11.7522 14.9002 11.8073 14.8538 11.8538L13.3538 13.3538C13.2838 13.4238 13.1947 13.4715 13.0977 13.4908C13.0006 13.5101 12.9 13.5002 12.8086 13.4623C12.7172 13.4245 12.6391 13.3603 12.5841 13.278C12.5292 13.1957 12.4999 13.099 12.5 13V12C11.7939 11.9901 11.0999 11.8145 10.4741 11.4873C9.84824 11.1601 9.308 10.6905 8.89688 10.1163L6.28937 6.46628C5.96526 6.0132 5.53785 5.64386 5.04255 5.38888C4.54725 5.13389 3.99833 5.0006 3.44125 5.00003H2C1.86739 5.00003 1.74021 4.94735 1.64645 4.85358C1.55268 4.75981 1.5 4.63264 1.5 4.50003C1.5 4.36742 1.55268 4.24024 1.64645 4.14647C1.74021 4.05271 1.86739 4.00003 2 4.00003H3.44125C4.15743 4.00062 4.86316 4.17186 5.49997 4.49956C6.13679 4.82726 6.68635 5.30198 7.10313 5.8844L9.71062 9.5344C10.0289 9.97947 10.447 10.3438 10.9313 10.5983C11.4157 10.8528 11.9529 10.9904 12.5 11V10C12.4999 9.90108 12.5292 9.80433 12.5841 9.72204C12.6391 9.63974 12.7172 9.57559 12.8086 9.53772C12.9 9.49984 13.0006 9.48994 13.0977 9.50926C13.1947 9.52859 13.2838 9.57627 13.3538 9.64628L14.8538 11.1463ZM8.9375 6.68753C8.99093 6.72569 9.05136 6.75296 9.11533 6.76778C9.1793 6.78259 9.24556 6.78466 9.31033 6.77386C9.3751 6.76307 9.4371 6.73962 9.49281 6.70486C9.54852 6.6701 9.59684 6.62471 9.635 6.57128L9.71 6.4669C10.0282 6.02152 10.4463 5.65686 10.9308 5.40213C11.4153 5.14741 11.9527 5.00969 12.5 5.00003V6.00003C12.4999 6.09898 12.5292 6.19572 12.5841 6.27802C12.6391 6.36032 12.7172 6.42446 12.8086 6.46234C12.9 6.50022 13.0006 6.51012 13.0977 6.49079C13.1947 6.47147 13.2838 6.42378 13.3538 6.35378L14.8538 4.85378C14.9002 4.80734 14.9371 4.7522 14.9623 4.6915C14.9874 4.6308 15.0004 4.56574 15.0004 4.50003C15.0004 4.43432 14.9874 4.36926 14.9623 4.30856C14.9371 4.24786 14.9002 4.19271 14.8538 4.14628L13.3538 2.64628C13.2838 2.57627 13.1947 2.52859 13.0977 2.50926C13.0006 2.48994 12.9 2.49984 12.8086 2.53772C12.7172 2.57559 12.6391 2.63974 12.5841 2.72204C12.5292 2.80433 12.4999 2.90108 12.5 3.00003V4.00003C11.7939 4.00995 11.0999 4.18558 10.4741 4.51277C9.84824 4.83997 9.308 5.30958 8.89688 5.88378L8.82187 5.98815C8.78338 6.04161 8.75584 6.10214 8.74081 6.16628C8.72579 6.23041 8.72359 6.29688 8.73433 6.36187C8.74508 6.42686 8.76855 6.48909 8.80342 6.54497C8.83829 6.60086 8.88385 6.6493 8.9375 6.68753ZM7.0625 9.31253C7.00907 9.27436 6.94864 9.24709 6.88467 9.23228C6.8207 9.21747 6.75444 9.2154 6.68967 9.22619C6.6249 9.23699 6.56289 9.26043 6.50719 9.29519C6.45148 9.32995 6.40316 9.37535 6.365 9.42878L6.29 9.53315C5.96589 9.98644 5.53841 10.3559 5.04299 10.611C4.54757 10.8661 3.99849 10.9995 3.44125 11H2C1.86739 11 1.74021 11.0527 1.64645 11.1465C1.55268 11.2402 1.5 11.3674 1.5 11.5C1.5 11.6326 1.55268 11.7598 1.64645 11.8536C1.74021 11.9473 1.86739 12 2 12H3.44125C4.15743 11.9994 4.86316 11.8282 5.49997 11.5005C6.13679 11.1728 6.68635 10.6981 7.10313 10.1157L7.17812 10.0113C7.21652 9.95784 7.24399 9.89736 7.25896 9.83328C7.27393 9.76921 7.2761 9.70282 7.26536 9.6379C7.25462 9.57299 7.23117 9.51083 7.19636 9.455C7.16155 9.39916 7.11606 9.35075 7.0625 9.31253Z" fill="black"/>
</g>
<defs>
<clipPath id="clip0_5_1006">
<rect width="16" height="16" fill="white"/>
</clipPath>
</defs>
</svg>
