<svg width="16" height="16" viewBox="0 0 16 16" fill="none" xmlns="http://www.w3.org/2000/svg">
<g clip-path="url(#clip0_5_376)">
<path d="M13.5 3.00003V5.50003C13.5001 5.59898 13.4708 5.69573 13.4159 5.77802C13.361 5.86032 13.2828 5.92447 13.1914 5.96235C13.1 6.00022 12.9994 6.01012 12.9024 5.9908C12.8053 5.97147 12.7162 5.92379 12.6463 5.85378L11.75 4.95691L9.76753 6.93753C9.67188 7.01945 9.54885 7.06225 9.42301 7.05739C9.29717 7.05253 9.1778 7.00036 9.08875 6.91132C8.9997 6.82227 8.94754 6.7029 8.94268 6.57706C8.93782 6.45122 8.98062 6.32818 9.06253 6.23253L11.0432 4.25003L10.1463 3.35378C10.0763 3.28386 10.0286 3.19473 10.0093 3.09769C9.98994 3.00064 9.99985 2.90005 10.0377 2.80864C10.0756 2.71723 10.1397 2.63911 10.222 2.58417C10.3043 2.52924 10.4011 2.49996 10.5 2.50003H13C13.1326 2.50003 13.2598 2.55271 13.3536 2.64648C13.4474 2.74025 13.5 2.86743 13.5 3.00003ZM13.1913 10.0382C13.0999 10.0003 12.9994 9.9903 12.9024 10.0095C12.8054 10.0288 12.7162 10.0764 12.6463 10.1463L11.75 11.0432L3.35378 2.64628C3.25996 2.55246 3.13272 2.49976 3.00003 2.49976C2.86735 2.49976 2.7401 2.55246 2.64628 2.64628C2.55246 2.7401 2.49976 2.86735 2.49976 3.00003C2.49976 3.13272 2.55246 3.25996 2.64628 3.35378L11.0432 11.75L10.1463 12.6463C10.0763 12.7162 10.0286 12.8053 10.0093 12.9024C9.98994 12.9994 9.99985 13.1 10.0377 13.1914C10.0756 13.2828 10.1397 13.361 10.222 13.4159C10.3043 13.4708 10.4011 13.5001 10.5 13.5H13C13.1326 13.5 13.2598 13.4474 13.3536 13.3536C13.4474 13.2598 13.5 13.1326 13.5 13V10.5C13.5 10.4011 13.4707 10.3045 13.4157 10.2223C13.3608 10.1401 13.2827 10.076 13.1913 10.0382ZM6.23253 9.06253L2.64628 12.6463C2.55246 12.7401 2.49976 12.8674 2.49976 13C2.49976 13.1327 2.55246 13.26 2.64628 13.3538C2.7401 13.4476 2.86735 13.5003 3.00003 13.5003C3.13272 13.5003 3.25996 13.4476 3.35378 13.3538L6.93753 9.76753C7.01945 9.67188 7.06225 9.54885 7.05739 9.42301C7.05253 9.29717 7.00036 9.1778 6.91132 9.08875C6.82227 8.9997 6.7029 8.94754 6.57706 8.94268C6.45122 8.93782 6.32818 8.98062 6.23253 9.06253Z" fill="black"/>
</g>
<defs>
<clipPath id="clip0_5_376">
<rect width="16" height="16" fill="white"/>
</clipPath>
</defs>
</svg>
