<svg width="16" height="16" viewBox="0 0 16 16" fill="none" xmlns="http://www.w3.org/2000/svg">
<g clip-path="url(#clip0_5_1045)">
<path d="M13.5 2.5H2.5C2.23478 2.5 1.98043 2.60536 1.79289 2.79289C1.60536 2.98043 1.5 3.23478 1.5 3.5V12.5C1.5 12.7652 1.60536 13.0196 1.79289 13.2071C1.98043 13.3946 2.23478 13.5 2.5 13.5H13.5C13.7652 13.5 14.0196 13.3946 14.2071 13.2071C14.3946 13.0196 14.5 12.7652 14.5 12.5V3.5C14.5 3.23478 14.3946 2.98043 14.2071 2.79289C14.0196 2.60536 13.7652 2.5 13.5 2.5ZM4 9.5H3C2.86739 9.5 2.74021 9.44732 2.64645 9.35355C2.55268 9.25979 2.5 9.13261 2.5 9C2.5 8.86739 2.55268 8.74021 2.64645 8.64645C2.74021 8.55268 2.86739 8.5 3 8.5H4C4.13261 8.5 4.25979 8.55268 4.35355 8.64645C4.44732 8.74021 4.5 8.86739 4.5 9C4.5 9.13261 4.44732 9.25979 4.35355 9.35355C4.25979 9.44732 4.13261 9.5 4 9.5ZM4 7.5H3C2.86739 7.5 2.74021 7.44732 2.64645 7.35355C2.55268 7.25979 2.5 7.13261 2.5 7C2.5 6.86739 2.55268 6.74021 2.64645 6.64645C2.74021 6.55268 2.86739 6.5 3 6.5H4C4.13261 6.5 4.25979 6.55268 4.35355 6.64645C4.44732 6.74021 4.5 6.86739 4.5 7C4.5 7.13261 4.44732 7.25979 4.35355 7.35355C4.25979 7.44732 4.13261 7.5 4 7.5ZM4 5.5H3C2.86739 5.5 2.74021 5.44732 2.64645 5.35355C2.55268 5.25979 2.5 5.13261 2.5 5C2.5 4.86739 2.55268 4.74021 2.64645 4.64645C2.74021 4.55268 2.86739 4.5 3 4.5H4C4.13261 4.5 4.25979 4.55268 4.35355 4.64645C4.44732 4.74021 4.5 4.86739 4.5 5C4.5 5.13261 4.44732 5.25979 4.35355 5.35355C4.25979 5.44732 4.13261 5.5 4 5.5ZM13.5 12.5H5.5V3.5H13.5V12.5Z" fill="black"/>
</g>
<defs>
<clipPath id="clip0_5_1045">
<rect width="16" height="16" fill="white"/>
</clipPath>
</defs>
</svg>
