<svg width="16" height="16" viewBox="0 0 16 16" fill="none" xmlns="http://www.w3.org/2000/svg">
<g clip-path="url(#clip0_5_374)">
<path d="M12.5 1.5H3.5C3.23478 1.5 2.98043 1.60536 2.79289 1.79289C2.60536 1.98043 2.5 2.23478 2.5 2.5V13.5C2.5 13.7652 2.60536 14.0196 2.79289 14.2071C2.98043 14.3946 3.23478 14.5 3.5 14.5H12.5C12.7652 14.5 13.0196 14.3946 13.2071 14.2071C13.3946 14.0196 13.5 13.7652 13.5 13.5V2.5C13.5 2.23478 13.3946 1.98043 13.2071 1.79289C13.0196 1.60536 12.7652 1.5 12.5 1.5ZM11.5 5.5C11.5 5.63261 11.4473 5.75979 11.3536 5.85355C11.2598 5.94732 11.1326 6 11 6C10.8674 6 10.7402 5.94732 10.6464 5.85355C10.5527 5.75979 10.5 5.63261 10.5 5.5V4.5H6L8.4 7.7C8.46491 7.78655 8.5 7.89181 8.5 8C8.5 8.10819 8.46491 8.21345 8.4 8.3L6 11.5H10.5V10.5C10.5 10.3674 10.5527 10.2402 10.6464 10.1464C10.7402 10.0527 10.8674 10 11 10C11.1326 10 11.2598 10.0527 11.3536 10.1464C11.4473 10.2402 11.5 10.3674 11.5 10.5V12C11.5 12.1326 11.4473 12.2598 11.3536 12.3536C11.2598 12.4473 11.1326 12.5 11 12.5H5C4.90714 12.5 4.81612 12.4741 4.73713 12.4253C4.65815 12.3765 4.59431 12.3067 4.55279 12.2236C4.51126 12.1406 4.49368 12.0476 4.50202 11.9551C4.51036 11.8626 4.54429 11.7743 4.6 11.7L7.375 8L4.6 4.3C4.54429 4.22572 4.51036 4.13738 4.50202 4.0449C4.49368 3.95242 4.51126 3.85945 4.55279 3.77639C4.59431 3.69334 4.65815 3.62349 4.73713 3.57467C4.81612 3.52586 4.90714 3.5 5 3.5H11C11.1326 3.5 11.2598 3.55268 11.3536 3.64645C11.4473 3.74021 11.5 3.86739 11.5 4V5.5Z" fill="black"/>
</g>
<defs>
<clipPath id="clip0_5_374">
<rect width="16" height="16" fill="white"/>
</clipPath>
</defs>
</svg>
