<svg width="16" height="16" viewBox="0 0 16 16" fill="none" xmlns="http://www.w3.org/2000/svg">
<g clip-path="url(#clip0_5_370)">
<path d="M15.375 7.33437L13.2706 9.66875C13.1769 9.77296 13.0623 9.8563 12.9343 9.91337C12.8063 9.97043 12.6677 9.99995 12.5275 10H8.5V14C8.5 14.1326 8.44732 14.2598 8.35355 14.3536C8.25979 14.4473 8.13261 14.5 8 14.5C7.86739 14.5 7.74021 14.4473 7.64645 14.3536C7.55268 14.2598 7.5 14.1326 7.5 14V10H2.5C2.23478 10 1.98043 9.89464 1.79289 9.70711C1.60536 9.51957 1.5 9.26522 1.5 9V5C1.5 4.73478 1.60536 4.48043 1.79289 4.29289C1.98043 4.10536 2.23478 4 2.5 4H7.5V2C7.5 1.86739 7.55268 1.74021 7.64645 1.64645C7.74021 1.55268 7.86739 1.5 8 1.5C8.13261 1.5 8.25979 1.55268 8.35355 1.64645C8.44732 1.74021 8.5 1.86739 8.5 2V4H12.5275C12.6677 4.00005 12.8063 4.02957 12.9343 4.08663C13.0623 4.1437 13.1769 4.22704 13.2706 4.33125L15.375 6.66563C15.4576 6.75742 15.5033 6.87653 15.5033 7C15.5033 7.12347 15.4576 7.24258 15.375 7.33437Z" fill="black"/>
</g>
<defs>
<clipPath id="clip0_5_370">
<rect width="16" height="16" fill="white"/>
</clipPath>
</defs>
</svg>
