<svg width="16" height="16" viewBox="0 0 16 16" fill="none" xmlns="http://www.w3.org/2000/svg">
<g clip-path="url(#clip0_5_372)">
<path d="M7.5 13.5C7.5 13.6326 7.44732 13.7598 7.35355 13.8536C7.25979 13.9473 7.13261 14 7 14H3C2.86739 14 2.74021 13.9473 2.64645 13.8536C2.55268 13.7598 2.5 13.6326 2.5 13.5V2.5C2.5 2.36739 2.55268 2.24021 2.64645 2.14645C2.74021 2.05268 2.86739 2 3 2H7C7.13261 2 7.25979 2.05268 7.35355 2.14645C7.44732 2.24021 7.5 2.36739 7.5 2.5C7.5 2.63261 7.44732 2.75979 7.35355 2.85355C7.25979 2.94732 7.13261 3 7 3H3.5V13H7C7.13261 13 7.25979 13.0527 7.35355 13.1464C7.44732 13.2402 7.5 13.3674 7.5 13.5ZM14.3538 7.64625L11.8538 5.14625C11.7838 5.07624 11.6947 5.02856 11.5977 5.00924C11.5006 4.98991 11.4 4.99981 11.3086 5.03769C11.2172 5.07556 11.1391 5.13971 11.0841 5.22201C11.0292 5.30431 10.9999 5.40105 11 5.5V7.5H7C6.86739 7.5 6.74021 7.55268 6.64645 7.64645C6.55268 7.74021 6.5 7.86739 6.5 8C6.5 8.13261 6.55268 8.25979 6.64645 8.35355C6.74021 8.44732 6.86739 8.5 7 8.5H11V10.5C10.9999 10.5989 11.0292 10.6957 11.0841 10.778C11.1391 10.8603 11.2172 10.9244 11.3086 10.9623C11.4 11.0002 11.5006 11.0101 11.5977 10.9908C11.6947 10.9714 11.7838 10.9238 11.8538 10.8538L14.3538 8.35375C14.4002 8.30731 14.4371 8.25217 14.4623 8.19147C14.4874 8.13077 14.5004 8.06571 14.5004 8C14.5004 7.93429 14.4874 7.86923 14.4623 7.80853C14.4371 7.74783 14.4002 7.69269 14.3538 7.64625Z" fill="black"/>
</g>
<defs>
<clipPath id="clip0_5_372">
<rect width="16" height="16" fill="white"/>
</clipPath>
</defs>
</svg>
