<svg width="16" height="16" viewBox="0 0 16 16" fill="none" xmlns="http://www.w3.org/2000/svg">
<g clip-path="url(#clip0_5_373)">
<path d="M8.85375 8.35375L6.35375 10.8538C6.28382 10.9238 6.1947 10.9714 6.09765 10.9908C6.00061 11.0101 5.90002 11.0002 5.8086 10.9623C5.71719 10.9244 5.63908 10.8603 5.58414 10.778C5.5292 10.6957 5.49992 10.5989 5.5 10.5V8.5H1.5C1.36739 8.5 1.24021 8.44732 1.14645 8.35355C1.05268 8.25979 1 8.13261 1 8C1 7.86739 1.05268 7.74021 1.14645 7.64645C1.24021 7.55268 1.36739 7.5 1.5 7.5H5.5V5.5C5.49992 5.40105 5.5292 5.30431 5.58414 5.22201C5.63908 5.13971 5.71719 5.07556 5.8086 5.03769C5.90002 4.99981 6.00061 4.98991 6.09765 5.00924C6.1947 5.02856 6.28382 5.07624 6.35375 5.14625L8.85375 7.64625C8.90024 7.69269 8.93712 7.74783 8.96228 7.80853C8.98744 7.86923 9.00039 7.93429 9.00039 8C9.00039 8.06571 8.98744 8.13077 8.96228 8.19147C8.93712 8.25217 8.90024 8.30731 8.85375 8.35375ZM12.5 2H8.5C8.36739 2 8.24021 2.05268 8.14645 2.14645C8.05268 2.24021 8 2.36739 8 2.5C8 2.63261 8.05268 2.75979 8.14645 2.85355C8.24021 2.94732 8.36739 3 8.5 3H12V13H8.5C8.36739 13 8.24021 13.0527 8.14645 13.1464C8.05268 13.2402 8 13.3674 8 13.5C8 13.6326 8.05268 13.7598 8.14645 13.8536C8.24021 13.9473 8.36739 14 8.5 14H12.5C12.6326 14 12.7598 13.9473 12.8536 13.8536C12.9473 13.7598 13 13.6326 13 13.5V2.5C13 2.36739 12.9473 2.24021 12.8536 2.14645C12.7598 2.05268 12.6326 2 12.5 2Z" fill="black"/>
</g>
<defs>
<clipPath id="clip0_5_373">
<rect width="16" height="16" fill="white"/>
</clipPath>
</defs>
</svg>
