<svg width="16" height="16" viewBox="0 0 16 16" fill="none" xmlns="http://www.w3.org/2000/svg">
<g clip-path="url(#clip0_5_371)">
<path d="M5.01875 7.51625C4.93607 7.03507 4.95095 6.54219 5.0625 6.06687C5.2075 5.4375 5.49312 5 5.75625 5C5.91687 5 5.94 5.04187 5.95125 5.0625C6.00625 5.16313 6.20125 5.74562 5.16187 7.97C5.09435 7.82573 5.04622 7.67315 5.01875 7.51625ZM14.5 3.5V12.5C14.5 12.7652 14.3946 13.0196 14.2071 13.2071C14.0196 13.3946 13.7652 13.5 13.5 13.5H2.5C2.23478 13.5 1.98043 13.3946 1.79289 13.2071C1.60536 13.0196 1.5 12.7652 1.5 12.5V3.5C1.5 3.23478 1.60536 2.98043 1.79289 2.79289C1.98043 2.60536 2.23478 2.5 2.5 2.5H13.5C13.7652 2.5 14.0196 2.60536 14.2071 2.79289C14.3946 2.98043 14.5 3.23478 14.5 3.5ZM5.25 10C5.375 9.77563 5.49625 9.5425 5.61875 9.30375C6.265 9.28375 7.00688 8.83063 7.83563 7.94875C8.14813 8.55438 8.54688 8.90187 9.015 8.98312C9.515 9.06937 10.015 8.83437 10.5112 8.28312C10.8862 8.62875 11.5206 9 12.4987 9C12.6314 9 12.7585 8.94732 12.8523 8.85355C12.9461 8.75979 12.9987 8.63261 12.9987 8.5C12.9987 8.36739 12.9461 8.24021 12.8523 8.14645C12.7585 8.05268 12.6314 8 12.4987 8C11.3794 8 10.98 7.32 10.9462 7.25875C10.9095 7.17958 10.8522 7.11169 10.7803 7.06212C10.7084 7.01256 10.6246 6.98313 10.5375 6.97687C10.4488 6.97069 10.36 6.98829 10.2804 7.02784C10.2007 7.06739 10.1331 7.12746 10.0844 7.20188C9.66063 7.82688 9.3425 8.02437 9.185 7.9975C8.935 7.95437 8.61312 7.3725 8.48312 6.8725C8.45999 6.78249 8.41222 6.7007 8.34519 6.63633C8.27815 6.57195 8.19451 6.52754 8.10363 6.50806C8.01275 6.48859 7.91825 6.49483 7.83072 6.52609C7.7432 6.55734 7.66611 6.61237 7.60813 6.685C7.05313 7.36875 6.58938 7.79687 6.225 8.03875C7.2125 5.81062 7.05437 5.00187 6.825 4.5825C6.70937 4.365 6.41187 4 5.75625 4C4.97875 4 4.355 4.6875 4.08813 5.84125C3.94629 6.45256 3.92865 7.08612 4.03625 7.70437C4.1425 8.26062 4.35938 8.6875 4.67125 8.96187C4.48375 9.325 4.29062 9.67625 4.10875 10H3.5C3.36739 10 3.24021 10.0527 3.14645 10.1464C3.05268 10.2402 3 10.3674 3 10.5C3 10.6326 3.05268 10.7598 3.14645 10.8536C3.24021 10.9473 3.36739 11 3.5 11H3.5275C3.26125 11.445 3.08312 11.7244 3.07875 11.7306C3.00731 11.8423 2.98317 11.9779 3.01165 12.1074C3.04014 12.2369 3.1189 12.3498 3.23062 12.4213C3.34235 12.4927 3.47787 12.5168 3.60739 12.4883C3.73691 12.4599 3.84981 12.3811 3.92125 12.2694C3.94375 12.235 4.26312 11.7338 4.68937 11H12.5C12.6326 11 12.7598 10.9473 12.8536 10.8536C12.9473 10.7598 13 10.6326 13 10.5C13 10.3674 12.9473 10.2402 12.8536 10.1464C12.7598 10.0527 12.6326 10 12.5 10H5.25Z" fill="black"/>
</g>
<defs>
<clipPath id="clip0_5_371">
<rect width="16" height="16" fill="white"/>
</clipPath>
</defs>
</svg>
