<svg width="16" height="16" viewBox="0 0 16 16" fill="none" xmlns="http://www.w3.org/2000/svg">
<g clip-path="url(#clip0_5_369)">
<path d="M13.3538 5.14625L9.85375 1.64625C9.80728 1.59983 9.75212 1.56303 9.69143 1.53793C9.63073 1.51284 9.56568 1.49995 9.5 1.5H3.5C3.23478 1.5 2.98043 1.60536 2.79289 1.79289C2.60536 1.98043 2.5 2.23478 2.5 2.5V13.5C2.5 13.7652 2.60536 14.0196 2.79289 14.2071C2.98043 14.3946 3.23478 14.5 3.5 14.5H12.5C12.7652 14.5 13.0196 14.3946 13.2071 14.2071C13.3946 14.0196 13.5 13.7652 13.5 13.5V5.5C13.5001 5.43432 13.4872 5.36927 13.4621 5.30858C13.437 5.24788 13.4002 5.19272 13.3538 5.14625ZM11.5 12C11.5 12.1326 11.4473 12.2598 11.3536 12.3536C11.2598 12.4473 11.1326 12.5 11 12.5H10C9.9337 12.5 9.87011 12.4737 9.82322 12.4268C9.77634 12.3799 9.75 12.3163 9.75 12.25V10.0169C9.75174 9.88784 9.70455 9.76293 9.61794 9.66727C9.53132 9.57161 9.4117 9.51229 9.28312 9.50125C9.21473 9.49671 9.14613 9.50628 9.0816 9.52936C9.01706 9.55245 8.95795 9.58856 8.90796 9.63545C8.85796 9.68234 8.81814 9.73901 8.79097 9.80194C8.76379 9.86486 8.74985 9.93271 8.75 10.0013V12.2513C8.75 12.3176 8.72366 12.3811 8.67678 12.428C8.62989 12.4749 8.5663 12.5013 8.5 12.5013H7.5C7.4337 12.5013 7.37011 12.4749 7.32322 12.428C7.27634 12.3811 7.25 12.3176 7.25 12.2513V10.0169C7.25174 9.88784 7.20455 9.76293 7.11794 9.66727C7.03132 9.57161 6.9117 9.51229 6.78312 9.50125C6.71473 9.49671 6.64614 9.50628 6.5816 9.52936C6.51706 9.55245 6.45795 9.58856 6.40796 9.63545C6.35796 9.68234 6.31814 9.73901 6.29097 9.80194C6.26379 9.86486 6.24985 9.93271 6.25 10.0013V12.2513C6.25 12.3176 6.22366 12.3811 6.17678 12.428C6.12989 12.4749 6.0663 12.5013 6 12.5013H5C4.86739 12.5013 4.74021 12.4486 4.64645 12.3548C4.55268 12.261 4.5 12.1339 4.5 12.0013V8.5C4.5 8.36739 4.55268 8.24021 4.64645 8.14645C4.74021 8.05268 4.86739 8 5 8H11C11.1326 8 11.2598 8.05268 11.3536 8.14645C11.4473 8.24021 11.5 8.36739 11.5 8.5V12Z" fill="black"/>
</g>
<defs>
<clipPath id="clip0_5_369">
<rect width="16" height="16" fill="white"/>
</clipPath>
</defs>
</svg>
