<svg width="16" height="16" viewBox="0 0 16 16" fill="none" xmlns="http://www.w3.org/2000/svg">
<g clip-path="url(#clip0_5_368)">
<path d="M7.5 1V0.5C7.5 0.367392 7.55268 0.240215 7.64645 0.146447C7.74021 0.0526784 7.86739 0 8 0C8.13261 0 8.25979 0.0526784 8.35355 0.146447C8.44732 0.240215 8.5 0.367392 8.5 0.5V1C8.5 1.13261 8.44732 1.25979 8.35355 1.35355C8.25979 1.44732 8.13261 1.5 8 1.5C7.86739 1.5 7.74021 1.44732 7.64645 1.35355C7.55268 1.25979 7.5 1.13261 7.5 1ZM12.5 3C12.5657 3.00005 12.6307 2.98716 12.6914 2.96207C12.7521 2.93697 12.8073 2.90017 12.8538 2.85375L13.3538 2.35375C13.4476 2.25993 13.5003 2.13268 13.5003 2C13.5003 1.86732 13.4476 1.74007 13.3538 1.64625C13.2599 1.55243 13.1327 1.49972 13 1.49972C12.8673 1.49972 12.7401 1.55243 12.6462 1.64625L12.1462 2.14625C12.0762 2.21618 12.0286 2.3053 12.0092 2.40235C11.9899 2.49939 11.9998 2.59998 12.0377 2.6914C12.0756 2.78281 12.1397 2.86092 12.222 2.91586C12.3043 2.9708 12.4011 3.00008 12.5 3ZM3.14625 2.85375C3.19271 2.90021 3.24786 2.93706 3.30855 2.9622C3.36925 2.98734 3.4343 3.00028 3.5 3.00028C3.5657 3.00028 3.63075 2.98734 3.69145 2.9622C3.75214 2.93706 3.80729 2.90021 3.85375 2.85375C3.90021 2.80729 3.93706 2.75214 3.9622 2.69145C3.98734 2.63075 4.00028 2.5657 4.00028 2.5C4.00028 2.4343 3.98734 2.36925 3.9622 2.30855C3.93706 2.24786 3.90021 2.19271 3.85375 2.14625L3.35375 1.64625C3.25993 1.55243 3.13268 1.49972 3 1.49972C2.86732 1.49972 2.74007 1.55243 2.64625 1.64625C2.55243 1.74007 2.49972 1.86732 2.49972 2C2.49972 2.13268 2.55243 2.25993 2.64625 2.35375L3.14625 2.85375ZM14.5 11V12.5C14.5 12.7652 14.3946 13.0196 14.2071 13.2071C14.0196 13.3946 13.7652 13.5 13.5 13.5H2.5C2.23478 13.5 1.98043 13.3946 1.79289 13.2071C1.60536 13.0196 1.5 12.7652 1.5 12.5V11C1.5 10.7348 1.60536 10.4804 1.79289 10.2929C1.98043 10.1054 2.23478 10 2.5 10V8C2.49998 7.27419 2.64362 6.55556 2.92263 5.88552C3.20165 5.21549 3.61052 4.60731 4.12569 4.09603C4.64086 3.58476 5.25212 3.18051 5.92425 2.90658C6.59639 2.63266 7.31609 2.49447 8.04187 2.5C11.0513 2.5225 13.5 5.01813 13.5 8.0625V10C13.7652 10 14.0196 10.1054 14.2071 10.2929C14.3946 10.4804 14.5 10.7348 14.5 11ZM8.4175 5.49312C9.60437 5.6925 10.5 6.77 10.5 8C10.5 8.13261 10.5527 8.25979 10.6464 8.35355C10.7402 8.44732 10.8674 8.5 11 8.5C11.1326 8.5 11.2598 8.44732 11.3536 8.35355C11.4473 8.25979 11.5 8.13261 11.5 8C11.5 6.2875 10.2456 4.78562 8.5825 4.50688C8.51746 4.49537 8.45078 4.49687 8.38632 4.51128C8.32186 4.5257 8.2609 4.55274 8.20695 4.59085C8.153 4.62896 8.10714 4.67738 8.07201 4.73331C8.03688 4.78925 8.01318 4.85159 8.00228 4.91673C7.99138 4.98188 7.9935 5.04854 8.00851 5.11286C8.02352 5.17718 8.05113 5.23789 8.08973 5.29149C8.12834 5.34508 8.17718 5.39049 8.23344 5.4251C8.2897 5.45971 8.35226 5.48283 8.4175 5.49312ZM13.5 12.5V11H2.5V12.5H13.5Z" fill="black"/>
</g>
<defs>
<clipPath id="clip0_5_368">
<rect width="16" height="16" fill="white"/>
</clipPath>
</defs>
</svg>
