<svg width="16" height="16" viewBox="0 0 16 16" fill="none" xmlns="http://www.w3.org/2000/svg">
<g clip-path="url(#clip0_5_367)">
<path d="M15.3749 6.17063L11.8749 2.17062C11.8281 2.11718 11.7704 2.07431 11.7057 2.04489C11.6411 2.01547 11.5709 2.00017 11.4999 2H4.49985C4.42881 2.00017 4.35862 2.01547 4.29396 2.04489C4.2293 2.07431 4.17165 2.11718 4.12485 2.17062L0.62485 6.17063C0.543199 6.26385 0.499076 6.38407 0.501039 6.50798C0.503003 6.63189 0.550911 6.75066 0.635475 6.84125L7.63548 14.3413C7.68226 14.3914 7.73886 14.4314 7.80176 14.4587C7.86466 14.4861 7.93251 14.5002 8.0011 14.5002C8.06969 14.5002 8.13754 14.4861 8.20044 14.4587C8.26334 14.4314 8.31994 14.3914 8.36672 14.3413L15.3667 6.84125C15.4509 6.75035 15.4984 6.63141 15.4999 6.5075C15.5014 6.38359 15.4568 6.26354 15.3749 6.17063ZM13.898 6H11.2499L8.99985 3H11.273L13.898 6ZM4.6611 7L6.54423 11.7081L2.15048 7H4.6611ZM11.3386 7H13.8492L9.45547 11.7081L11.3386 7ZM4.72673 3H6.99985L4.74985 6H2.10173L4.72673 3Z" fill="black"/>
</g>
<defs>
<clipPath id="clip0_5_367">
<rect width="16" height="16" fill="white"/>
</clipPath>
</defs>
</svg>
