<svg width="16" height="16" viewBox="0 0 16 16" fill="none" xmlns="http://www.w3.org/2000/svg">
<g clip-path="url(#clip0_5_363)">
<path d="M13 2.5V13.5C13 13.6326 12.9473 13.7598 12.8536 13.8536C12.7598 13.9473 12.6326 14 12.5 14C12.3674 14 12.2402 13.9473 12.1464 13.8536C12.0527 13.7598 12 13.6326 12 13.5V9.17313L4.52688 13.8469C4.37638 13.9414 4.20336 13.9939 4.02574 13.999C3.84811 14.0042 3.67235 13.9618 3.51663 13.8761C3.36091 13.7905 3.23091 13.6649 3.14007 13.5121C3.04924 13.3594 3.00088 13.1852 3 13.0075V2.9925C3.00088 2.81481 3.04924 2.64058 3.14007 2.48785C3.23091 2.33513 3.36091 2.20946 3.51663 2.12385C3.67235 2.03825 3.84811 1.99582 4.02574 2.00097C4.20336 2.00612 4.37638 2.05865 4.52688 2.15313L12 6.82688V2.5C12 2.36739 12.0527 2.24021 12.1464 2.14645C12.2402 2.05268 12.3674 2 12.5 2C12.6326 2 12.7598 2.05268 12.8536 2.14645C12.9473 2.24021 13 2.36739 13 2.5Z" fill="black"/>
</g>
<defs>
<clipPath id="clip0_5_363">
<rect width="16" height="16" fill="white"/>
</clipPath>
</defs>
</svg>
