<svg width="16" height="16" viewBox="0 0 16 16" fill="none" xmlns="http://www.w3.org/2000/svg">
<g clip-path="url(#clip0_5_366)">
<path d="M8 1.5C6.71442 1.5 5.45772 1.88122 4.3888 2.59545C3.31988 3.30968 2.48676 4.32484 1.99479 5.51256C1.50282 6.70028 1.37409 8.00721 1.6249 9.26809C1.8757 10.529 2.49477 11.6872 3.40381 12.5962C4.31285 13.5052 5.47104 14.1243 6.73192 14.3751C7.99279 14.6259 9.29973 14.4972 10.4874 14.0052C11.6752 13.5132 12.6903 12.6801 13.4046 11.6112C14.1188 10.5423 14.5 9.28558 14.5 8C14.4982 6.27665 13.8128 4.62441 12.5942 3.40582C11.3756 2.18722 9.72335 1.50182 8 1.5ZM10.5 10.5C10.5 10.5919 10.4747 10.682 10.4269 10.7604C10.379 10.8388 10.3105 10.9026 10.2288 10.9446C10.1471 10.9866 10.0554 11.0054 9.96379 10.9987C9.87216 10.992 9.78414 10.9603 9.70938 10.9069L6.5 8.61438V10.5C6.5 10.6326 6.44732 10.7598 6.35356 10.8536C6.25979 10.9473 6.13261 11 6 11C5.86739 11 5.74022 10.9473 5.64645 10.8536C5.55268 10.7598 5.5 10.6326 5.5 10.5V5.5C5.5 5.36739 5.55268 5.24021 5.64645 5.14645C5.74022 5.05268 5.86739 5 6 5C6.13261 5 6.25979 5.05268 6.35356 5.14645C6.44732 5.24021 6.5 5.36739 6.5 5.5V7.38562L9.70938 5.09312C9.78414 5.03973 9.87216 5.00795 9.96379 5.0013C10.0554 4.99465 10.1471 5.01337 10.2288 5.0554C10.3105 5.09744 10.379 5.16118 10.4269 5.23961C10.4747 5.31804 10.5 5.40813 10.5 5.5V10.5Z" fill="black"/>
</g>
<defs>
<clipPath id="clip0_5_366">
<rect width="16" height="16" fill="white"/>
</clipPath>
</defs>
</svg>
