<svg width="16" height="16" viewBox="0 0 16 16" fill="none" xmlns="http://www.w3.org/2000/svg">
<g clip-path="url(#clip0_5_364)">
<path d="M8 1.5C6.71442 1.5 5.45772 1.88122 4.3888 2.59545C3.31988 3.30968 2.48676 4.32484 1.99479 5.51256C1.50282 6.70028 1.37409 8.00721 1.6249 9.26809C1.8757 10.529 2.49477 11.6872 3.40381 12.5962C4.31285 13.5052 5.47104 14.1243 6.73192 14.3751C7.99279 14.6259 9.29973 14.4972 10.4874 14.0052C11.6752 13.5132 12.6903 12.6801 13.4046 11.6112C14.1188 10.5423 14.5 9.28558 14.5 8C14.4982 6.27665 13.8128 4.62441 12.5942 3.40582C11.3756 2.18722 9.72335 1.50182 8 1.5ZM10.5 10.5C10.5 10.6326 10.4473 10.7598 10.3536 10.8536C10.2598 10.9473 10.1326 11 10 11C9.86739 11 9.74022 10.9473 9.64645 10.8536C9.55268 10.7598 9.5 10.6326 9.5 10.5V8.61438L6.29063 10.9069C6.21587 10.9603 6.12785 10.992 6.03622 10.9987C5.94459 11.0054 5.8529 10.9866 5.77121 10.9446C5.68952 10.9026 5.621 10.8388 5.57315 10.7604C5.52531 10.682 5.5 10.5919 5.5 10.5V5.5C5.5 5.40813 5.52531 5.31804 5.57315 5.23961C5.621 5.16118 5.68952 5.09744 5.77121 5.0554C5.8529 5.01337 5.94459 4.99465 6.03622 5.0013C6.12785 5.00795 6.21587 5.03973 6.29063 5.09312L9.5 7.38562V5.5C9.5 5.36739 9.55268 5.24021 9.64645 5.14645C9.74022 5.05268 9.86739 5 10 5C10.1326 5 10.2598 5.05268 10.3536 5.14645C10.4473 5.24021 10.5 5.36739 10.5 5.5V10.5Z" fill="black"/>
</g>
<defs>
<clipPath id="clip0_5_364">
<rect width="16" height="16" fill="white"/>
</clipPath>
</defs>
</svg>
