<svg width="16" height="16" viewBox="0 0 16 16" fill="none" xmlns="http://www.w3.org/2000/svg">
<g clip-path="url(#clip0_5_365)">
<path d="M13 2.9925V13.0075C12.9981 13.1848 12.9492 13.3584 12.8581 13.5105C12.767 13.6627 12.6372 13.7879 12.4818 13.8733C12.3264 13.9587 12.1511 14.0013 11.9739 13.9966C11.7966 13.992 11.6238 13.9403 11.4731 13.8469L4 9.17313V13.5C4 13.6326 3.94732 13.7598 3.85355 13.8536C3.75979 13.9473 3.63261 14 3.5 14C3.36739 14 3.24021 13.9473 3.14645 13.8536C3.05268 13.7598 3 13.6326 3 13.5V2.5C3 2.36739 3.05268 2.24021 3.14645 2.14645C3.24021 2.05268 3.36739 2 3.5 2C3.63261 2 3.75979 2.05268 3.85355 2.14645C3.94732 2.24021 4 2.36739 4 2.5V6.82688L11.4731 2.15313C11.6236 2.05865 11.7966 2.00612 11.9743 2.00097C12.1519 1.99582 12.3277 2.03825 12.4834 2.12385C12.6391 2.20946 12.7691 2.33513 12.8599 2.48785C12.9508 2.64058 12.9991 2.81481 13 2.9925Z" fill="black"/>
</g>
<defs>
<clipPath id="clip0_5_365">
<rect width="16" height="16" fill="white"/>
</clipPath>
</defs>
</svg>
