<svg width="16" height="16" viewBox="0 0 16 16" fill="none" xmlns="http://www.w3.org/2000/svg">
<g clip-path="url(#clip0_5_362)">
<path d="M8 1C4.41563 1 1.5 3.80375 1.5 7.25C1.5 9.38125 2.64188 11.375 4.5 12.5175V13.5C4.5 13.7652 4.60536 14.0196 4.79289 14.2071C4.98043 14.3946 5.23478 14.5 5.5 14.5H6C6.0663 14.5 6.12989 14.4737 6.17678 14.4268C6.22366 14.3799 6.25 14.3163 6.25 14.25V12.5169C6.24826 12.3878 6.29545 12.2629 6.38206 12.1673C6.46868 12.0716 6.5883 12.0123 6.71688 12.0013C6.78527 11.9967 6.85386 12.0063 6.9184 12.0294C6.98294 12.0525 7.04205 12.0886 7.09204 12.1354C7.14204 12.1823 7.18186 12.239 7.20903 12.3019C7.23621 12.3649 7.25015 12.4327 7.25 12.5013V14.2513C7.25 14.3176 7.27634 14.3811 7.32322 14.428C7.37011 14.4749 7.4337 14.5013 7.5 14.5013H8.5C8.5663 14.5013 8.62989 14.4749 8.67678 14.428C8.72366 14.3811 8.75 14.3176 8.75 14.2513V12.5169C8.74826 12.3878 8.79545 12.2629 8.88206 12.1673C8.96868 12.0716 9.0883 12.0123 9.21688 12.0013C9.28527 11.9967 9.35387 12.0063 9.4184 12.0294C9.48294 12.0525 9.54205 12.0886 9.59204 12.1354C9.64204 12.1823 9.68186 12.239 9.70903 12.3019C9.73621 12.3649 9.75015 12.4327 9.75 12.5013V14.2513C9.75 14.3176 9.77634 14.3811 9.82322 14.428C9.87011 14.4749 9.9337 14.5013 10 14.5013H10.5C10.7652 14.5013 11.0196 14.3959 11.2071 14.2084C11.3946 14.0208 11.5 13.7665 11.5 13.5013V12.5175C13.3581 11.375 14.5 9.38125 14.5 7.25C14.5 3.80375 11.5844 1 8 1ZM5.75 9.5C5.50277 9.5 5.2611 9.42669 5.05554 9.28934C4.84998 9.15199 4.68976 8.95676 4.59515 8.72835C4.50054 8.49995 4.47579 8.24861 4.52402 8.00614C4.57225 7.76366 4.6913 7.54093 4.86612 7.36612C5.04093 7.1913 5.26366 7.07225 5.50614 7.02402C5.74861 6.97579 5.99995 7.00054 6.22835 7.09515C6.45676 7.18976 6.65199 7.34998 6.78934 7.55554C6.92669 7.7611 7 8.00277 7 8.25C7 8.58152 6.8683 8.89946 6.63388 9.13388C6.39946 9.3683 6.08152 9.5 5.75 9.5ZM10.25 9.5C10.0028 9.5 9.7611 9.42669 9.55554 9.28934C9.34998 9.15199 9.18976 8.95676 9.09515 8.72835C9.00054 8.49995 8.97579 8.24861 9.02402 8.00614C9.07225 7.76366 9.1913 7.54093 9.36612 7.36612C9.54093 7.1913 9.76366 7.07225 10.0061 7.02402C10.2486 6.97579 10.4999 7.00054 10.7284 7.09515C10.9568 7.18976 11.152 7.34998 11.2893 7.55554C11.4267 7.7611 11.5 8.00277 11.5 8.25C11.5 8.58152 11.3683 8.89946 11.1339 9.13388C10.8995 9.3683 10.5815 9.5 10.25 9.5Z" fill="black"/>
</g>
<defs>
<clipPath id="clip0_5_362">
<rect width="16" height="16" fill="white"/>
</clipPath>
</defs>
</svg>
