<svg width="16" height="16" viewBox="0 0 16 16" fill="none" xmlns="http://www.w3.org/2000/svg">
<g clip-path="url(#clip0_5_361)">
<path d="M13.9081 9.0519C14.0764 8.10063 14.0128 7.1228 13.7225 6.20138C13.4323 5.27997 12.9241 4.44217 12.241 3.75908C11.5579 3.07598 10.7201 2.56775 9.79866 2.27752C8.87725 1.98728 7.89942 1.92361 6.94815 2.0919C6.3728 1.70375 5.69405 1.49754 5.00002 1.50002C4.07207 1.50101 3.18241 1.87008 2.52624 2.52624C1.87008 3.18241 1.50101 4.07207 1.50002 5.00002C1.49754 5.69405 1.70375 6.3728 2.0919 6.94815C1.92361 7.89942 1.98728 8.87725 2.27752 9.79866C2.56775 10.7201 3.07598 11.5579 3.75908 12.241C4.44217 12.9241 5.27997 13.4323 6.20138 13.7225C7.1228 14.0128 8.10063 14.0764 9.0519 13.9081C9.62725 14.2963 10.306 14.5025 11 14.5C11.928 14.499 12.8176 14.13 13.4738 13.4738C14.13 12.8176 14.499 11.928 14.5 11C14.5025 10.306 14.2963 9.62725 13.9081 9.0519ZM8.00002 11.5C6.62127 11.5 5.50002 10.6025 5.50002 9.50002C5.50002 9.36741 5.5527 9.24024 5.64647 9.14647C5.74024 9.0527 5.86741 9.00002 6.00002 9.00002C6.13263 9.00002 6.25981 9.0527 6.35358 9.14647C6.44734 9.24024 6.50002 9.36741 6.50002 9.50002C6.50002 10.0419 7.18752 10.5 8.00002 10.5C8.81252 10.5 9.50002 10.0419 9.50002 9.50002C9.50002 8.90752 8.9619 8.68752 7.82002 8.35877C6.83565 8.07502 5.61127 7.7219 5.61127 6.50002C5.61127 5.36002 6.63815 4.50002 8.00002 4.50002C8.98252 4.50002 9.82377 4.95627 10.195 5.68752C10.2271 5.74631 10.247 5.81093 10.2535 5.87755C10.2601 5.94417 10.2533 6.01143 10.2334 6.07536C10.2135 6.13928 10.181 6.19855 10.1377 6.24967C10.0945 6.30078 10.0414 6.34269 9.98171 6.37292C9.92197 6.40314 9.85678 6.42106 9.78998 6.42561C9.72319 6.43017 9.65617 6.42126 9.59288 6.39942C9.5296 6.37759 9.47135 6.34326 9.42158 6.29849C9.3718 6.25372 9.33153 6.1994 9.30315 6.13877C9.10252 5.74627 8.60315 5.50002 8.00002 5.50002C7.20815 5.50002 6.61127 5.93002 6.61127 6.50002C6.61127 6.93752 7.17377 7.13127 8.0969 7.39752C9.11127 7.68752 10.5 8.09065 10.5 9.50002C10.5 10.6025 9.37877 11.5 8.00002 11.5Z" fill="black"/>
</g>
<defs>
<clipPath id="clip0_5_361">
<rect width="16" height="16" fill="white"/>
</clipPath>
</defs>
</svg>
