<svg width="16" height="16" viewBox="0 0 16 16" fill="none" xmlns="http://www.w3.org/2000/svg">
<g clip-path="url(#clip0_5_360)">
<path d="M13.8206 7.99995C14.1891 7.67111 14.423 7.21751 14.477 6.72655C14.5311 6.23558 14.4016 5.74197 14.1134 5.34081C13.8252 4.93965 13.3988 4.65931 12.9163 4.55379C12.4338 4.44828 11.9293 4.52505 11.4999 4.76932V3.49995C11.4995 3.0939 11.3755 2.6976 11.1443 2.36376C10.9132 2.02991 10.5859 1.77432 10.206 1.63097C9.8261 1.48762 9.41156 1.46331 9.0175 1.56126C8.62344 1.65921 8.26853 1.87478 7.99995 2.17932C7.67111 1.81077 7.21751 1.57694 6.72655 1.52287C6.23558 1.4688 5.74197 1.59833 5.34081 1.88649C4.93965 2.17465 4.65931 2.60107 4.55379 3.0836C4.44828 3.56614 4.52505 4.07065 4.76932 4.49995H3.49995C3.0939 4.50041 2.6976 4.62445 2.36376 4.85558C2.02991 5.08671 1.77432 5.41399 1.63097 5.79389C1.48762 6.1738 1.46331 6.58834 1.56126 6.9824C1.65921 7.37646 1.87478 7.73137 2.17932 7.99995C1.81077 8.32879 1.57694 8.78238 1.52287 9.27335C1.4688 9.76432 1.59833 10.2579 1.88649 10.6591C2.17465 11.0602 2.60107 11.3406 3.0836 11.4461C3.56614 11.5516 4.07065 11.4748 4.49995 11.2306V12.4999C4.50041 12.906 4.62445 13.3023 4.85558 13.6361C5.08671 13.97 5.41399 14.2256 5.79389 14.3689C6.1738 14.5123 6.58834 14.5366 6.9824 14.4386C7.37646 14.3407 7.73137 14.1251 7.99995 13.8206C8.32879 14.1891 8.78238 14.423 9.27335 14.477C9.76432 14.5311 10.2579 14.4016 10.6591 14.1134C11.0602 13.8252 11.3406 13.3988 11.4461 12.9163C11.5516 12.4338 11.4748 11.9293 11.2306 11.4999H12.4999C12.906 11.4995 13.3023 11.3755 13.6361 11.1443C13.97 10.9132 14.2256 10.5859 14.3689 10.206C14.5123 9.8261 14.5366 9.41156 14.4386 9.0175C14.3407 8.62344 14.1251 8.26853 13.8206 7.99995ZM5.49995 3.49995C5.49995 3.23473 5.60531 2.98038 5.79284 2.79284C5.98038 2.60531 6.23473 2.49995 6.49995 2.49995C6.76516 2.49995 7.01952 2.60531 7.20706 2.79284C7.39459 2.98038 7.49995 3.23473 7.49995 3.49995V4.49995H6.49995C6.23473 4.49995 5.98038 4.39459 5.79284 4.20706C5.60531 4.01952 5.49995 3.76516 5.49995 3.49995ZM2.49995 6.49995C2.49995 6.23473 2.60531 5.98038 2.79284 5.79284C2.98038 5.60531 3.23473 5.49995 3.49995 5.49995H6.49995C6.76516 5.49995 7.01952 5.60531 7.20706 5.79284C7.39459 5.98038 7.49995 6.23473 7.49995 6.49995V7.49995H3.49995C3.23473 7.49995 2.98038 7.39459 2.79284 7.20706C2.60531 7.01952 2.49995 6.76516 2.49995 6.49995ZM10.4999 12.4999C10.4999 12.7652 10.3946 13.0195 10.2071 13.2071C10.0195 13.3946 9.76517 13.4999 9.49995 13.4999C9.23473 13.4999 8.98038 13.3946 8.79284 13.2071C8.60531 13.0195 8.49995 12.7652 8.49995 12.4999V11.4999H9.49995C9.76517 11.4999 10.0195 11.6053 10.2071 11.7928C10.3946 11.9804 10.4999 12.2347 10.4999 12.4999ZM12.4999 10.4999H9.49995C9.23473 10.4999 8.98038 10.3946 8.79284 10.2071C8.60531 10.0195 8.49995 9.76517 8.49995 9.49995V8.49995H12.4999C12.7652 8.49995 13.0195 8.60531 13.2071 8.79284C13.3946 8.98038 13.4999 9.23473 13.4999 9.49995C13.4999 9.76517 13.3946 10.0195 13.2071 10.2071C13.0195 10.3946 12.7652 10.4999 12.4999 10.4999Z" fill="black"/>
</g>
<defs>
<clipPath id="clip0_5_360">
<rect width="16" height="16" fill="white"/>
</clipPath>
</defs>
</svg>
