<svg width="16" height="16" viewBox="0 0 16 16" fill="none" xmlns="http://www.w3.org/2000/svg">
<g clip-path="url(#clip0_5_359)">
<path d="M5.25002 8.5C5.24998 8.87683 5.12831 9.24359 4.90309 9.54572C4.67787 9.84785 4.36115 10.0692 4.00002 10.1769V13.5C4.00002 13.6326 3.94734 13.7598 3.85357 13.8536C3.75981 13.9473 3.63263 14 3.50002 14C3.36741 14 3.24024 13.9473 3.14647 13.8536C3.0527 13.7598 3.00002 13.6326 3.00002 13.5V10.1769C2.639 10.0691 2.32241 9.8477 2.09731 9.54558C1.8722 9.24346 1.75061 8.87676 1.75061 8.5C1.75061 8.12324 1.8722 7.75654 2.09731 7.45442C2.32241 7.1523 2.639 6.9309 3.00002 6.82312V2.5C3.00002 2.36739 3.0527 2.24021 3.14647 2.14645C3.24024 2.05268 3.36741 2 3.50002 2C3.63263 2 3.75981 2.05268 3.85357 2.14645C3.94734 2.24021 4.00002 2.36739 4.00002 2.5V6.82312C4.36115 6.93079 4.67787 7.15215 4.90309 7.45428C5.12831 7.75641 5.24998 8.12317 5.25002 8.5ZM8.50002 3.82312V2.5C8.50002 2.36739 8.44734 2.24021 8.35357 2.14645C8.25981 2.05268 8.13263 2 8.00002 2C7.86741 2 7.74024 2.05268 7.64647 2.14645C7.5527 2.24021 7.50002 2.36739 7.50002 2.5V3.82312C7.139 3.9309 6.82241 4.1523 6.5973 4.45442C6.3722 4.75654 6.25061 5.12324 6.25061 5.5C6.25061 5.87676 6.3722 6.24346 6.5973 6.54558C6.82241 6.8477 7.139 7.0691 7.50002 7.17688V13.5C7.50002 13.6326 7.5527 13.7598 7.64647 13.8536C7.74024 13.9473 7.86741 14 8.00002 14C8.13263 14 8.25981 13.9473 8.35357 13.8536C8.44734 13.7598 8.50002 13.6326 8.50002 13.5V7.17688C8.86104 7.0691 9.17763 6.8477 9.40274 6.54558C9.62784 6.24346 9.74943 5.87676 9.74943 5.5C9.74943 5.12324 9.62784 4.75654 9.40274 4.45442C9.17763 4.1523 8.86104 3.9309 8.50002 3.82312ZM13 8.82312V2.5C13 2.36739 12.9473 2.24021 12.8536 2.14645C12.7598 2.05268 12.6326 2 12.5 2C12.3674 2 12.2402 2.05268 12.1465 2.14645C12.0527 2.24021 12 2.36739 12 2.5V8.82312C11.639 8.9309 11.3224 9.1523 11.0973 9.45442C10.8722 9.75654 10.7506 10.1232 10.7506 10.5C10.7506 10.8768 10.8722 11.2435 11.0973 11.5456C11.3224 11.8477 11.639 12.0691 12 12.1769V13.5C12 13.6326 12.0527 13.7598 12.1465 13.8536C12.2402 13.9473 12.3674 14 12.5 14C12.6326 14 12.7598 13.9473 12.8536 13.8536C12.9473 13.7598 13 13.6326 13 13.5V12.1769C13.361 12.0691 13.6776 11.8477 13.9027 11.5456C14.1278 11.2435 14.2494 10.8768 14.2494 10.5C14.2494 10.1232 14.1278 9.75654 13.9027 9.45442C13.6776 9.1523 13.361 8.9309 13 8.82312Z" fill="black"/>
</g>
<defs>
<clipPath id="clip0_5_359">
<rect width="16" height="16" fill="white"/>
</clipPath>
</defs>
</svg>
