<svg width="16" height="16" viewBox="0 0 16 16" fill="none" xmlns="http://www.w3.org/2000/svg">
<g clip-path="url(#clip0_5_350)">
<path d="M8 1.5C6.71442 1.5 5.45772 1.88122 4.3888 2.59545C3.31988 3.30968 2.48676 4.32484 1.99479 5.51256C1.50282 6.70028 1.37409 8.00721 1.6249 9.26809C1.8757 10.529 2.49477 11.6872 3.40381 12.5962C4.31285 13.5052 5.47104 14.1243 6.73192 14.3751C7.99279 14.6259 9.29973 14.4972 10.4874 14.0052C11.6752 13.5132 12.6903 12.6801 13.4046 11.6112C14.1188 10.5423 14.5 9.28558 14.5 8C14.4979 6.27675 13.8123 4.6247 12.5938 3.40618C11.3753 2.18766 9.72325 1.50215 8 1.5ZM6.85375 7.64625C6.94757 7.74007 7.00028 7.86732 7.00028 8C7.00028 8.13268 6.94757 8.25993 6.85375 8.35375C6.75993 8.44757 6.63268 8.50028 6.5 8.50028C6.36732 8.50028 6.24007 8.44757 6.14625 8.35375L5.5 7.70687L4.85375 8.35375C4.75993 8.44757 4.63268 8.50028 4.5 8.50028C4.36732 8.50028 4.24007 8.44757 4.14625 8.35375C4.05243 8.25993 3.99972 8.13268 3.99972 8C3.99972 7.86732 4.05243 7.74007 4.14625 7.64625L4.79313 7L4.14625 6.35375C4.05243 6.25993 3.99972 6.13268 3.99972 6C3.99972 5.86732 4.05243 5.74007 4.14625 5.64625C4.24007 5.55243 4.36732 5.49972 4.5 5.49972C4.63268 5.49972 4.75993 5.55243 4.85375 5.64625L5.5 6.29313L6.14625 5.64625C6.24007 5.55243 6.36732 5.49972 6.5 5.49972C6.63268 5.49972 6.75993 5.55243 6.85375 5.64625C6.94757 5.74007 7.00028 5.86732 7.00028 6C7.00028 6.13268 6.94757 6.25993 6.85375 6.35375L6.20688 7L6.85375 7.64625ZM8 12C7.85167 12 7.70666 11.956 7.58333 11.8736C7.45999 11.7912 7.36386 11.6741 7.30709 11.537C7.25033 11.4 7.23548 11.2492 7.26441 11.1037C7.29335 10.9582 7.36478 10.8246 7.46967 10.7197C7.57456 10.6148 7.7082 10.5434 7.85368 10.5144C7.99917 10.4855 8.14997 10.5003 8.28701 10.5571C8.42406 10.6139 8.54119 10.71 8.6236 10.8333C8.70602 10.9567 8.75 11.1017 8.75 11.25C8.75 11.4489 8.67098 11.6397 8.53033 11.7803C8.38968 11.921 8.19892 12 8 12ZM11.8538 7.64625C11.9002 7.6927 11.9371 7.74786 11.9622 7.80855C11.9873 7.86925 12.0003 7.9343 12.0003 8C12.0003 8.0657 11.9873 8.13075 11.9622 8.19145C11.9371 8.25214 11.9002 8.3073 11.8538 8.35375C11.8073 8.40021 11.7521 8.43706 11.6915 8.4622C11.6308 8.48734 11.5657 8.50028 11.5 8.50028C11.4343 8.50028 11.3693 8.48734 11.3086 8.4622C11.2479 8.43706 11.1927 8.40021 11.1463 8.35375L10.5 7.70687L9.85375 8.35375C9.75993 8.44757 9.63268 8.50028 9.5 8.50028C9.36732 8.50028 9.24007 8.44757 9.14625 8.35375C9.05243 8.25993 8.99972 8.13268 8.99972 8C8.99972 7.86732 9.05243 7.74007 9.14625 7.64625L9.79313 7L9.14625 6.35375C9.05243 6.25993 8.99972 6.13268 8.99972 6C8.99972 5.86732 9.05243 5.74007 9.14625 5.64625C9.24007 5.55243 9.36732 5.49972 9.5 5.49972C9.63268 5.49972 9.75993 5.55243 9.85375 5.64625L10.5 6.29313L11.1463 5.64625C11.1927 5.59979 11.2479 5.56294 11.3086 5.5378C11.3693 5.51266 11.4343 5.49972 11.5 5.49972C11.5657 5.49972 11.6308 5.51266 11.6915 5.5378C11.7521 5.56294 11.8073 5.59979 11.8538 5.64625C11.9002 5.6927 11.9371 5.74786 11.9622 5.80855C11.9873 5.86925 12.0003 5.9343 12.0003 6C12.0003 6.0657 11.9873 6.13075 11.9622 6.19145C11.9371 6.25214 11.9002 6.3073 11.8538 6.35375L11.2069 7L11.8538 7.64625Z" fill="black"/>
</g>
<defs>
<clipPath id="clip0_5_350">
<rect width="16" height="16" fill="white"/>
</clipPath>
</defs>
</svg>
