<svg width="16" height="16" viewBox="0 0 16 16" fill="none" xmlns="http://www.w3.org/2000/svg">
<g clip-path="url(#clip0_5_351)">
<path d="M8 1.5C6.71442 1.5 5.45772 1.88122 4.3888 2.59545C3.31988 3.30968 2.48676 4.32484 1.99479 5.51256C1.50282 6.70028 1.37409 8.00721 1.6249 9.26809C1.8757 10.529 2.49477 11.6872 3.40381 12.5962C4.31285 13.5052 5.47104 14.1243 6.73192 14.3751C7.99279 14.6259 9.29973 14.4972 10.4874 14.0052C11.6752 13.5132 12.6903 12.6801 13.4046 11.6112C14.1188 10.5423 14.5 9.28558 14.5 8C14.4982 6.27665 13.8128 4.62441 12.5942 3.40582C11.3756 2.18722 9.72335 1.50182 8 1.5ZM5.75 6C5.89834 6 6.04334 6.04399 6.16668 6.1264C6.29002 6.20881 6.38615 6.32594 6.44291 6.46299C6.49968 6.60003 6.51453 6.75083 6.48559 6.89632C6.45665 7.0418 6.38522 7.17544 6.28033 7.28033C6.17544 7.38522 6.04181 7.45665 5.89632 7.48559C5.75083 7.51453 5.60003 7.49968 5.46299 7.44291C5.32595 7.38614 5.20881 7.29001 5.1264 7.16668C5.04399 7.04334 5 6.89834 5 6.75C5 6.55109 5.07902 6.36032 5.21967 6.21967C5.36032 6.07902 5.55109 6 5.75 6ZM10.9325 9.75C10.2894 10.8619 9.22063 11.5 8 11.5C6.77938 11.5 5.71063 10.8625 5.0675 9.75C5.03133 9.69309 5.00703 9.62945 4.99609 9.56291C4.98515 9.49637 4.98777 9.4283 5.00382 9.36281C5.01986 9.29731 5.04899 9.23573 5.08945 9.18178C5.1299 9.12783 5.18086 9.08262 5.23924 9.04888C5.29762 9.01513 5.36223 8.99354 5.42917 8.98541C5.49611 8.97728 5.56401 8.98277 5.62877 9.00156C5.69354 9.02035 5.75383 9.05204 5.80603 9.09474C5.85822 9.13743 5.90125 9.19025 5.9325 9.25C6.39938 10.0569 7.13313 10.5 8 10.5C8.86688 10.5 9.60063 10.0562 10.0675 9.25C10.0988 9.19025 10.1418 9.13743 10.194 9.09474C10.2462 9.05204 10.3065 9.02035 10.3712 9.00156C10.436 8.98277 10.5039 8.97728 10.5708 8.98541C10.6378 8.99354 10.7024 9.01513 10.7608 9.04888C10.8191 9.08262 10.8701 9.12783 10.9106 9.18178C10.951 9.23573 10.9801 9.29731 10.9962 9.36281C11.0122 9.4283 11.0149 9.49637 11.0039 9.56291C10.993 9.62945 10.9687 9.69309 10.9325 9.75ZM11.5 7.25H9.5C9.36739 7.25 9.24022 7.19732 9.14645 7.10355C9.05268 7.00979 9 6.88261 9 6.75C9 6.61739 9.05268 6.49021 9.14645 6.39645C9.24022 6.30268 9.36739 6.25 9.5 6.25H11.5C11.6326 6.25 11.7598 6.30268 11.8536 6.39645C11.9473 6.49021 12 6.61739 12 6.75C12 6.88261 11.9473 7.00979 11.8536 7.10355C11.7598 7.19732 11.6326 7.25 11.5 7.25Z" fill="black"/>
</g>
<defs>
<clipPath id="clip0_5_351">
<rect width="16" height="16" fill="white"/>
</clipPath>
</defs>
</svg>
