<svg width="16" height="16" viewBox="0 0 16 16" fill="none" xmlns="http://www.w3.org/2000/svg">
<g clip-path="url(#clip0_5_356)">
<path d="M8 1.5C6.71442 1.5 5.45772 1.88122 4.3888 2.59545C3.31988 3.30968 2.48676 4.32484 1.99479 5.51256C1.50282 6.70028 1.37409 8.00721 1.6249 9.26809C1.8757 10.529 2.49477 11.6872 3.40381 12.5962C4.31285 13.5052 5.47104 14.1243 6.73192 14.3751C7.99279 14.6259 9.29973 14.4972 10.4874 14.0052C11.6752 13.5132 12.6903 12.6801 13.4046 11.6112C14.1188 10.5423 14.5 9.28558 14.5 8C14.4982 6.27665 13.8128 4.62441 12.5942 3.40582C11.3756 2.18722 9.72335 1.50182 8 1.5ZM5 8.75C5 8.60166 5.04399 8.45666 5.1264 8.33332C5.20881 8.20999 5.32595 8.11386 5.46299 8.05709C5.60003 8.00033 5.75083 7.98547 5.89632 8.01441C6.04181 8.04335 6.17544 8.11478 6.28033 8.21967C6.38522 8.32456 6.45665 8.4582 6.48559 8.60368C6.51453 8.74917 6.49968 8.89997 6.44291 9.03701C6.38615 9.17406 6.29002 9.29119 6.16668 9.3736C6.04334 9.45601 5.89834 9.5 5.75 9.5C5.55109 9.5 5.36032 9.42098 5.21967 9.28033C5.07902 9.13968 5 8.94891 5 8.75ZM9.91625 11.7769C9.84281 11.8873 9.72853 11.9639 9.59855 11.9901C9.46857 12.0162 9.33353 11.9897 9.22313 11.9163C8.81688 11.6462 8.5 11.5 8 11.5C7.5 11.5 7.18313 11.6462 6.77688 11.9163C6.66647 11.9869 6.53272 12.0114 6.40443 11.9845C6.27613 11.9575 6.16356 11.8812 6.09096 11.7721C6.01835 11.6629 5.99152 11.5296 6.01624 11.4009C6.04096 11.2721 6.11526 11.1582 6.22313 11.0837C6.75 10.7331 7.25375 10.5 8 10.5C8.74625 10.5 9.25 10.7331 9.77688 11.0837C9.88726 11.1572 9.96395 11.2715 9.99009 11.4015C10.0162 11.5314 9.98967 11.6665 9.91625 11.7769ZM10.25 9.5C10.1017 9.5 9.95666 9.45601 9.83333 9.3736C9.70999 9.29119 9.61386 9.17406 9.55709 9.03701C9.50033 8.89997 9.48548 8.74917 9.51441 8.60368C9.54335 8.4582 9.61478 8.32456 9.71967 8.21967C9.82456 8.11478 9.9582 8.04335 10.1037 8.01441C10.2492 7.98547 10.4 8.00033 10.537 8.05709C10.6741 8.11386 10.7912 8.20999 10.8736 8.33332C10.956 8.45666 11 8.60166 11 8.75C11 8.94891 10.921 9.13968 10.7803 9.28033C10.6397 9.42098 10.4489 9.5 10.25 9.5ZM11.2775 5.91625L8.2775 7.91625C8.19534 7.97107 8.09878 8.00033 8 8.00033C7.90123 8.00033 7.80467 7.97107 7.7225 7.91625L4.7225 5.91625C4.66784 5.87981 4.62089 5.83296 4.58433 5.77837C4.54778 5.72378 4.52233 5.66253 4.50945 5.59811C4.49656 5.53369 4.49649 5.46736 4.50924 5.40292C4.52199 5.33847 4.54731 5.27716 4.58375 5.2225C4.65735 5.1121 4.77179 5.03547 4.90189 5.00944C4.96631 4.99656 5.03264 4.99649 5.09709 5.00924C5.16153 5.02199 5.22284 5.04731 5.2775 5.08375L8 6.89937L10.7225 5.08687C10.7772 5.05043 10.8385 5.02511 10.9029 5.01237C10.9674 4.99962 11.0337 4.99969 11.0981 5.01257C11.1625 5.02545 11.2238 5.0509 11.2784 5.08746C11.333 5.12401 11.3798 5.17096 11.4163 5.22563C11.4527 5.28029 11.478 5.34159 11.4908 5.40604C11.5035 5.47049 11.5034 5.53682 11.4906 5.60124C11.4777 5.66566 11.4522 5.72691 11.4157 5.7815C11.3791 5.83608 11.3322 5.88293 11.2775 5.91937V5.91625Z" fill="black"/>
</g>
<defs>
<clipPath id="clip0_5_356">
<rect width="16" height="16" fill="white"/>
</clipPath>
</defs>
</svg>
