<svg width="16" height="16" viewBox="0 0 16 16" fill="none" xmlns="http://www.w3.org/2000/svg">
<g clip-path="url(#clip0_5_1022)">
<path d="M8 1.5C6.71442 1.5 5.45772 1.88122 4.3888 2.59545C3.31988 3.30968 2.48676 4.32484 1.99479 5.51256C1.50282 6.70028 1.37409 8.00721 1.6249 9.26809C1.8757 10.529 2.49477 11.6872 3.40381 12.5962C4.31285 13.5052 5.47104 14.1243 6.73192 14.3751C7.99279 14.6259 9.29973 14.4972 10.4874 14.0052C11.6752 13.5132 12.6903 12.6801 13.4046 11.6112C14.1188 10.5423 14.5 9.28558 14.5 8C14.4979 6.27675 13.8123 4.6247 12.5938 3.40618C11.3753 2.18766 9.72325 1.50215 8 1.5ZM5.75 7.5C5.60167 7.5 5.45666 7.45601 5.33333 7.3736C5.20999 7.29119 5.11386 7.17406 5.05709 7.03701C5.00033 6.89997 4.98547 6.74917 5.01441 6.60368C5.04335 6.4582 5.11478 6.32456 5.21967 6.21967C5.32456 6.11478 5.4582 6.04335 5.60368 6.01441C5.74917 5.98547 5.89997 6.00032 6.03702 6.05709C6.17406 6.11386 6.29119 6.20999 6.37361 6.33332C6.45602 6.45666 6.5 6.60166 6.5 6.75C6.5 6.94891 6.42099 7.13968 6.28033 7.28033C6.13968 7.42098 5.94892 7.5 5.75 7.5ZM10.25 7.5C10.1017 7.5 9.95666 7.45601 9.83333 7.3736C9.70999 7.29119 9.61386 7.17406 9.55709 7.03701C9.50033 6.89997 9.48548 6.74917 9.51441 6.60368C9.54335 6.4582 9.61478 6.32456 9.71967 6.21967C9.82456 6.11478 9.9582 6.04335 10.1037 6.01441C10.2492 5.98547 10.4 6.00032 10.537 6.05709C10.6741 6.11386 10.7912 6.20999 10.8736 6.33332C10.956 6.45666 11 6.60166 11 6.75C11 6.94891 10.921 7.13968 10.7803 7.28033C10.6397 7.42098 10.4489 7.5 10.25 7.5Z" fill="black"/>
</g>
<defs>
<clipPath id="clip0_5_1022">
<rect width="16" height="16" fill="white"/>
</clipPath>
</defs>
</svg>
