<svg width="16" height="16" viewBox="0 0 16 16" fill="none" xmlns="http://www.w3.org/2000/svg">
<g clip-path="url(#clip0_5_353)">
<path d="M8 1.5C6.71442 1.5 5.45772 1.88122 4.3888 2.59545C3.31988 3.30968 2.48676 4.32484 1.99479 5.51256C1.50282 6.70028 1.37409 8.00721 1.6249 9.26809C1.8757 10.529 2.49477 11.6872 3.40381 12.5962C4.31285 13.5052 5.47104 14.1243 6.73192 14.3751C7.99279 14.6259 9.29973 14.4972 10.4874 14.0052C11.6752 13.5132 12.6903 12.6801 13.4046 11.6112C14.1188 10.5423 14.5 9.28558 14.5 8C14.4982 6.27665 13.8128 4.62441 12.5942 3.40582C11.3756 2.18722 9.72335 1.50182 8 1.5ZM10.25 6C10.3983 6 10.5433 6.04399 10.6667 6.1264C10.79 6.20881 10.8861 6.32594 10.9429 6.46299C10.9997 6.60003 11.0145 6.75083 10.9856 6.89632C10.9567 7.0418 10.8852 7.17544 10.7803 7.28033C10.6754 7.38522 10.5418 7.45665 10.3963 7.48559C10.2508 7.51453 10.1 7.49968 9.96299 7.44291C9.82595 7.38614 9.70881 7.29001 9.6264 7.16668C9.54399 7.04334 9.5 6.89834 9.5 6.75C9.5 6.55109 9.57902 6.36032 9.71967 6.21967C9.86033 6.07902 10.0511 6 10.25 6ZM5.75 6C5.89834 6 6.04334 6.04399 6.16668 6.1264C6.29002 6.20881 6.38615 6.32594 6.44291 6.46299C6.49968 6.60003 6.51453 6.75083 6.48559 6.89632C6.45665 7.0418 6.38522 7.17544 6.28033 7.28033C6.17544 7.38522 6.04181 7.45665 5.89632 7.48559C5.75083 7.51453 5.60003 7.49968 5.46299 7.44291C5.32595 7.38614 5.20881 7.29001 5.1264 7.16668C5.04399 7.04334 5 6.89834 5 6.75C5 6.55109 5.07902 6.36032 5.21967 6.21967C5.36032 6.07902 5.55109 6 5.75 6ZM11 11C10.375 11 10.0594 10.5788 9.85 10.3C9.6625 10.05 9.605 10 9.5 10C9.395 10 9.33938 10.0475 9.15 10.3C8.94063 10.5788 8.625 11 8 11C7.375 11 7.0625 10.5788 6.85 10.3C6.6625 10.05 6.605 10 6.5 10C6.395 10 6.33938 10.0475 6.15 10.3C5.94063 10.5788 5.625 11 5 11C4.86739 11 4.74022 10.9473 4.64645 10.8536C4.55268 10.7598 4.5 10.6326 4.5 10.5C4.5 10.3674 4.55268 10.2402 4.64645 10.1464C4.74022 10.0527 4.86739 10 5 10C5.105 10 5.16063 9.9525 5.35 9.7C5.5625 9.42125 5.875 9 6.5 9C7.125 9 7.4375 9.42125 7.65 9.7C7.8375 9.95 7.895 10 8 10C8.105 10 8.16063 9.9525 8.35 9.7C8.5625 9.42125 8.875 9 9.5 9C10.125 9 10.4406 9.42125 10.65 9.7C10.8375 9.95 10.895 10 11 10C11.1326 10 11.2598 10.0527 11.3536 10.1464C11.4473 10.2402 11.5 10.3674 11.5 10.5C11.5 10.6326 11.4473 10.7598 11.3536 10.8536C11.2598 10.9473 11.1326 11 11 11Z" fill="black"/>
</g>
<defs>
<clipPath id="clip0_5_353">
<rect width="16" height="16" fill="white"/>
</clipPath>
</defs>
</svg>
