<svg width="16" height="16" viewBox="0 0 16 16" fill="none" xmlns="http://www.w3.org/2000/svg">
<g clip-path="url(#clip0_5_983)">
<path d="M8 1.5C6.71442 1.5 5.45772 1.88122 4.3888 2.59545C3.31988 3.30968 2.48676 4.32484 1.99479 5.51256C1.50282 6.70028 1.37409 8.00721 1.6249 9.26809C1.8757 10.529 2.49477 11.6872 3.40381 12.5962C4.31285 13.5052 5.47104 14.1243 6.73192 14.3751C7.99279 14.6259 9.29973 14.4972 10.4874 14.0052C11.6752 13.5132 12.6903 12.6801 13.4046 11.6112C14.1188 10.5423 14.5 9.28558 14.5 8C14.4982 6.27665 13.8128 4.62441 12.5942 3.40582C11.3756 2.18722 9.72335 1.50182 8 1.5ZM5.75 6C5.89834 6 6.04334 6.04399 6.16668 6.1264C6.29002 6.20881 6.38615 6.32594 6.44291 6.46299C6.49968 6.60003 6.51453 6.75083 6.48559 6.89632C6.45665 7.0418 6.38522 7.17544 6.28033 7.28033C6.17544 7.38522 6.04181 7.45665 5.89632 7.48559C5.75083 7.51453 5.60003 7.49968 5.46299 7.44291C5.32595 7.38614 5.20881 7.29001 5.1264 7.16668C5.04399 7.04334 5 6.89834 5 6.75C5 6.55109 5.07902 6.36032 5.21967 6.21967C5.36032 6.07902 5.55109 6 5.75 6ZM10.75 11.4325C10.6353 11.4987 10.499 11.5166 10.371 11.4824C10.243 11.4482 10.1339 11.3646 10.0675 11.25C9.60063 10.4431 8.86688 10 8 10C7.13313 10 6.39938 10.4438 5.9325 11.25C5.90125 11.3098 5.85822 11.3626 5.80603 11.4053C5.75383 11.448 5.69354 11.4796 5.62877 11.4984C5.56401 11.5172 5.49611 11.5227 5.42917 11.5146C5.36223 11.5065 5.29762 11.4849 5.23924 11.4511C5.18086 11.4174 5.1299 11.3722 5.08945 11.3182C5.04899 11.2643 5.01986 11.2027 5.00382 11.1372C4.98777 11.0717 4.98515 11.0036 4.99609 10.9371C5.00703 10.8705 5.03133 10.8069 5.0675 10.75C5.71063 9.63812 6.77938 9 8 9C9.22063 9 10.2894 9.6375 10.9325 10.75C10.9987 10.8647 11.0166 11.001 10.9824 11.129C10.9482 11.257 10.8646 11.3661 10.75 11.4325ZM10.25 7.5C10.1017 7.5 9.95666 7.45601 9.83333 7.3736C9.70999 7.29119 9.61386 7.17406 9.55709 7.03701C9.50033 6.89997 9.48548 6.74917 9.51441 6.60368C9.54335 6.4582 9.61478 6.32456 9.71967 6.21967C9.82456 6.11478 9.9582 6.04335 10.1037 6.01441C10.2492 5.98547 10.4 6.00032 10.537 6.05709C10.6741 6.11386 10.7912 6.20999 10.8736 6.33332C10.956 6.45666 11 6.60166 11 6.75C11 6.94891 10.921 7.13968 10.7803 7.28033C10.6397 7.42098 10.4489 7.5 10.25 7.5Z" fill="black"/>
</g>
<defs>
<clipPath id="clip0_5_983">
<rect width="16" height="16" fill="white"/>
</clipPath>
</defs>
</svg>
