<svg width="16" height="16" viewBox="0 0 16 16" fill="none" xmlns="http://www.w3.org/2000/svg">
<g clip-path="url(#clip0_5_354)">
<path d="M14.725 11.0001H13.765C14.2805 10.0093 14.532 8.90245 14.4952 7.78622C14.4585 6.67 14.1348 5.58207 13.5553 4.62734C12.9758 3.67262 12.1601 2.88331 11.1868 2.33554C10.2136 1.78776 9.11558 1.5 7.99875 1.5C6.88193 1.5 5.78394 1.78776 4.81067 2.33554C3.83741 2.88331 3.0217 3.67262 2.44221 4.62734C1.86272 5.58207 1.539 6.67 1.50227 7.78622C1.46554 8.90245 1.71703 10.0093 2.2325 11.0001H1.275C1.07537 10.9976 0.882663 11.0732 0.737914 11.2107C0.593166 11.3482 0.507806 11.5368 0.500004 11.7363C0.498177 11.836 0.516227 11.935 0.553099 12.0275C0.589971 12.1201 0.644926 12.2044 0.714753 12.2756C0.784579 12.3467 0.867877 12.4031 0.95978 12.4417C1.05168 12.4802 1.15034 12.5001 1.25 12.5001H5C5.13261 12.5001 5.25979 12.5527 5.35356 12.6465C5.44733 12.7403 5.5 12.8675 5.5 13.0001C5.5 13.1327 5.44733 13.2598 5.35356 13.3536C5.25979 13.4474 5.13261 13.5001 5 13.5001H4.51C4.39423 13.4998 4.28179 13.5388 4.19099 13.6107C4.1002 13.6825 4.03641 13.783 4.01 13.8957C3.99443 13.9686 3.99538 14.0442 4.01279 14.1167C4.03019 14.1893 4.06361 14.257 4.1106 14.3149C4.15758 14.3729 4.21694 14.4196 4.28432 14.4516C4.3517 14.4837 4.4254 14.5002 4.5 14.5001H12.4831C12.6121 14.5016 12.7369 14.4544 12.8326 14.3678C12.9282 14.2812 12.9876 14.1617 12.9988 14.0332C13.0033 13.9648 12.9937 13.8962 12.9706 13.8317C12.9476 13.7671 12.9114 13.708 12.8646 13.658C12.8177 13.608 12.761 13.5682 12.6981 13.541C12.6351 13.5139 12.5673 13.4999 12.4988 13.5001H9C8.8674 13.5001 8.74022 13.4474 8.64645 13.3536C8.55268 13.2598 8.5 13.1327 8.5 13.0001C8.5 12.8675 8.55268 12.7403 8.64645 12.6465C8.74022 12.5527 8.8674 12.5001 9 12.5001H9.48688C9.6104 12.4995 9.72964 12.4548 9.82306 12.374C9.91647 12.2931 9.97791 12.1816 9.99625 12.0594C10.0046 11.9893 9.99807 11.9181 9.97697 11.8507C9.95586 11.7833 9.92071 11.7211 9.87382 11.6682C9.82693 11.6154 9.76937 11.5731 9.70494 11.5441C9.6405 11.5151 9.57066 11.5001 9.5 11.5001H8.5C7.56688 11.5001 6.58813 11.1388 5.8125 10.5094C4.96563 9.82193 4.5 8.93006 4.5 8.00006C4.4999 7.81168 4.51474 7.62359 4.54438 7.43756C4.5632 7.30776 4.631 7.19009 4.73387 7.10873C4.83674 7.02736 4.96686 6.98848 5.0975 7.00006C5.16502 7.00762 5.23029 7.02887 5.28933 7.06249C5.34836 7.09612 5.39993 7.14143 5.44087 7.19565C5.48181 7.24987 5.51128 7.31186 5.52746 7.37785C5.54365 7.44383 5.54621 7.51242 5.535 7.57943C5.51188 7.71845 5.50018 7.85913 5.5 8.00006C5.5 9.38506 7.14125 10.5001 8.5 10.5001H9.465C10.3088 10.5001 11.0188 11.1907 10.9994 12.0344C10.9981 12.0936 10.9933 12.1527 10.985 12.2113C10.9794 12.2472 10.9816 12.284 10.9916 12.3189C11.0017 12.3539 11.0192 12.3862 11.043 12.4137C11.0668 12.4412 11.0963 12.4632 11.1295 12.4781C11.1626 12.493 11.1986 12.5005 11.235 12.5001H14.75C14.8497 12.5001 14.9483 12.4802 15.0402 12.4417C15.1321 12.4031 15.2154 12.3467 15.2853 12.2756C15.3551 12.2044 15.41 12.1201 15.4469 12.0275C15.4838 11.935 15.5018 11.836 15.5 11.7363C15.4922 11.5368 15.4068 11.3482 15.2621 11.2107C15.1173 11.0732 14.9246 10.9976 14.725 11.0001ZM7.99375 5.84756C7.97553 5.98638 7.91881 6.11732 7.83002 6.22557C7.74123 6.33382 7.62391 6.41506 7.49134 6.46008C7.35877 6.50511 7.21625 6.51213 7.07989 6.48035C6.94354 6.44857 6.81881 6.37926 6.71981 6.28026C6.62081 6.18126 6.55149 6.05652 6.51971 5.92017C6.48793 5.78382 6.49495 5.64129 6.53998 5.50872C6.58501 5.37615 6.66624 5.25884 6.77449 5.17004C6.88274 5.08125 7.01369 5.02454 7.1525 5.00631C7.26652 4.99134 7.38245 5.00279 7.49134 5.03977C7.60023 5.07676 7.69915 5.13828 7.78047 5.2196C7.86178 5.30091 7.92331 5.39984 7.96029 5.50872C7.99727 5.61761 8.00872 5.73354 7.99375 5.84756ZM10.9938 8.84756C10.9755 8.98638 10.9188 9.11732 10.83 9.22557C10.7412 9.33382 10.6239 9.41506 10.4913 9.46008C10.3588 9.50511 10.2162 9.51213 10.0799 9.48035C9.94354 9.44857 9.81881 9.37926 9.71981 9.28026C9.62081 9.18126 9.55149 9.05652 9.51971 8.92017C9.48793 8.78382 9.49495 8.64129 9.53998 8.50872C9.58501 8.37615 9.66624 8.25883 9.77449 8.17004C9.88274 8.08125 10.0137 8.02454 10.1525 8.00631C10.2665 7.99134 10.3825 8.00279 10.4913 8.03977C10.6002 8.07676 10.6992 8.13828 10.7805 8.2196C10.8618 8.30091 10.9233 8.39984 10.9603 8.50872C10.9973 8.61761 11.0087 8.73354 10.9938 8.84756Z" fill="black"/>
</g>
<defs>
<clipPath id="clip0_5_354">
<rect width="16" height="16" fill="white"/>
</clipPath>
</defs>
</svg>
