<svg width="16" height="16" viewBox="0 0 16 16" fill="none" xmlns="http://www.w3.org/2000/svg">
<g clip-path="url(#clip0_5_352)">
<path d="M8.00003 1.5C7.06521 1.50071 6.14153 1.70306 5.29203 2.09324C4.44252 2.48342 3.68717 3.05225 3.07751 3.76092C2.46784 4.46959 2.01822 5.30143 1.7593 6.19969C1.50038 7.09794 1.43826 8.04148 1.57718 8.96593C1.7161 9.89037 2.05278 10.774 2.56427 11.5565C3.07576 12.3389 3.75002 13.0019 4.54104 13.5001C5.33206 13.9983 6.22123 14.32 7.14789 14.4432C8.07456 14.5665 9.01691 14.4884 9.91066 14.2144C9.98869 14.1904 10.0595 14.1474 10.1169 14.0894L14.09 10.1163C14.148 10.0586 14.1909 9.98752 14.215 9.90938C14.5126 8.93716 14.5781 7.90875 14.4063 6.90665C14.2346 5.90454 13.8303 4.95664 13.226 4.13899C12.6218 3.32134 11.8342 2.65671 10.9267 2.19841C10.0191 1.74011 9.01675 1.50091 8.00003 1.5ZM5.75003 6C5.89837 6 6.04338 6.04399 6.16671 6.1264C6.29005 6.20881 6.38618 6.32594 6.44294 6.46299C6.49971 6.60003 6.51456 6.75083 6.48562 6.89632C6.45669 7.0418 6.38525 7.17544 6.28036 7.28033C6.17548 7.38522 6.04184 7.45665 5.89635 7.48559C5.75087 7.51453 5.60007 7.49968 5.46302 7.44291C5.32598 7.38614 5.20884 7.29001 5.12643 7.16668C5.04402 7.04334 5.00004 6.89834 5.00004 6.75C5.00004 6.55109 5.07905 6.36032 5.2197 6.21967C5.36036 6.07902 5.55112 6 5.75003 6ZM10.9325 9.75C10.2894 10.8619 9.22066 11.5 8.00003 11.5C6.77941 11.5 5.71066 10.8625 5.06754 9.75C5.03136 9.69309 5.00707 9.62945 4.99612 9.56291C4.98518 9.49637 4.98781 9.4283 5.00385 9.36281C5.01989 9.29731 5.04902 9.23573 5.08948 9.18178C5.12994 9.12783 5.18089 9.08262 5.23927 9.04888C5.29765 9.01513 5.36226 8.99354 5.4292 8.98541C5.49614 8.97728 5.56404 8.98277 5.6288 9.00156C5.69357 9.02035 5.75386 9.05204 5.80606 9.09474C5.85826 9.13743 5.90128 9.19025 5.93253 9.25C6.39941 10.0569 7.13316 10.5 8.00003 10.5C8.86691 10.5 9.60066 10.0562 10.0675 9.25C10.0988 9.19025 10.1418 9.13743 10.194 9.09474C10.2462 9.05204 10.3065 9.02035 10.3713 9.00156C10.436 8.98277 10.5039 8.97728 10.5709 8.98541C10.6378 8.99354 10.7024 9.01513 10.7608 9.04888C10.8192 9.08262 10.8701 9.12783 10.9106 9.18178C10.9511 9.23573 10.9802 9.29731 10.9962 9.36281C11.0123 9.4283 11.0149 9.49637 11.0039 9.56291C10.993 9.62945 10.9687 9.69309 10.9325 9.75ZM10.25 7.5C10.1017 7.5 9.95669 7.45601 9.83336 7.3736C9.71002 7.29119 9.61389 7.17406 9.55713 7.03701C9.50036 6.89997 9.48551 6.74917 9.51445 6.60368C9.54339 6.4582 9.61482 6.32456 9.71971 6.21967C9.82459 6.11478 9.95823 6.04335 10.1037 6.01441C10.2492 5.98547 10.4 6.00032 10.537 6.05709C10.6741 6.11386 10.7912 6.20999 10.8736 6.33332C10.956 6.45666 11 6.60166 11 6.75C11 6.94891 10.921 7.13968 10.7804 7.28033C10.6397 7.42098 10.4489 7.5 10.25 7.5Z" fill="black"/>
</g>
<defs>
<clipPath id="clip0_5_352">
<rect width="16" height="16" fill="white"/>
</clipPath>
</defs>
</svg>
