<svg width="16" height="16" viewBox="0 0 16 16" fill="none" xmlns="http://www.w3.org/2000/svg">
<g clip-path="url(#clip0_5_349)">
<path d="M14.2906 8.0694L12.5369 7.48503C12.4836 7.4665 12.4257 7.4665 12.3725 7.48503L9.67062 8.46753C9.61603 8.48806 9.55832 8.49905 9.5 8.50003C9.39052 8.49997 9.28409 8.46399 9.19704 8.3976C9.10999 8.33121 9.04714 8.23809 9.01812 8.13252C8.98657 8.00872 9.00257 7.87759 9.06297 7.76501C9.12337 7.65242 9.22377 7.56657 9.34437 7.5244L10.5 7.1044C10.5311 7.09321 10.5578 7.07262 10.5766 7.0455C10.5955 7.01838 10.6053 6.98607 10.6049 6.95307C10.6045 6.92006 10.5938 6.88801 10.5743 6.86137C10.5549 6.83472 10.5276 6.81481 10.4963 6.8044C10.2914 6.73602 10.1037 6.62408 9.94625 6.47628C9.91261 6.44316 9.87028 6.42024 9.82416 6.41017C9.77803 6.40011 9.73001 6.40331 9.68563 6.4194L8.17188 6.9694C8.10704 6.99293 8.03805 7.00278 7.96922 6.99836C7.9004 6.99393 7.83323 6.97531 7.77195 6.94367C7.71067 6.91203 7.65659 6.86806 7.61312 6.81451C7.56966 6.76096 7.53774 6.699 7.51937 6.63253C7.48782 6.50872 7.50382 6.37759 7.56422 6.26501C7.62462 6.15242 7.72503 6.06657 7.84562 6.0244L9.125 5.55815C9.15701 5.54653 9.1863 5.5285 9.21109 5.50516C9.23588 5.48182 9.25564 5.45366 9.26916 5.42241C9.28267 5.39116 9.28967 5.35748 9.2897 5.32343C9.28974 5.28938 9.28282 5.25568 9.26937 5.2244L9.07812 4.7769C9.05304 4.71802 9.00632 4.671 8.9476 4.64554C8.88888 4.62008 8.82263 4.6181 8.7625 4.64003L7.16875 5.2194C7.10392 5.24293 7.03492 5.25278 6.9661 5.24836C6.89727 5.24393 6.8301 5.22531 6.76882 5.19367C6.70754 5.16203 6.65347 5.11806 6.61 5.06451C6.56653 5.01096 6.53461 4.949 6.51625 4.88253C6.48469 4.75872 6.50069 4.62759 6.56109 4.51501C6.62149 4.40242 6.7219 4.31657 6.8425 4.2744L8.3425 3.72878C8.37443 3.71715 8.40365 3.69914 8.42839 3.67584C8.45312 3.65255 8.47285 3.62445 8.48636 3.59327C8.49987 3.5621 8.50688 3.52849 8.50697 3.49452C8.50706 3.46054 8.50022 3.4269 8.48687 3.39565L8.14937 2.60003C8.14937 2.60003 8.14937 2.59565 8.14937 2.59378C8.04608 2.36208 7.85859 2.17831 7.62487 2.07967C7.39116 1.98103 7.12869 1.9749 6.89062 2.06253L2.15812 3.78065C1.96546 3.85122 1.79906 3.97917 1.68138 4.14725C1.5637 4.31534 1.5004 4.51547 1.5 4.72065V12C1.5 12.2652 1.60536 12.5196 1.79289 12.7071C1.98043 12.8947 2.23478 13 2.5 13H15C15.2652 13 15.5196 12.8947 15.7071 12.7071C15.8946 12.5196 16 12.2652 16 12V10.4413C16 9.91655 15.835 9.40511 15.5282 8.97941C15.2214 8.55372 14.7884 8.23535 14.2906 8.0694ZM15 12H2.5V11H15V12Z" fill="black"/>
</g>
<defs>
<clipPath id="clip0_5_349">
<rect width="16" height="16" fill="white"/>
</clipPath>
</defs>
</svg>
