<svg width="16" height="16" viewBox="0 0 16 16" fill="none" xmlns="http://www.w3.org/2000/svg">
<g clip-path="url(#clip0_5_348)">
<path d="M4.425 11.5H2C1.86739 11.5 1.74021 11.4474 1.64645 11.3536C1.55268 11.2598 1.5 11.1326 1.5 11C1.5 10.8674 1.55268 10.7403 1.64645 10.6465C1.74021 10.5527 1.86739 10.5 2 10.5H4.425C4.55761 10.5 4.68479 10.5527 4.77855 10.6465C4.87232 10.7403 4.925 10.8674 4.925 11C4.925 11.1326 4.87232 11.2598 4.77855 11.3536C4.68479 11.4474 4.55761 11.5 4.425 11.5ZM6.425 12.5H3C2.86739 12.5 2.74021 12.5527 2.64645 12.6465C2.55268 12.7403 2.5 12.8674 2.5 13C2.5 13.1326 2.55268 13.2598 2.64645 13.3536C2.74021 13.4474 2.86739 13.5 3 13.5H6.425C6.55761 13.5 6.68479 13.4474 6.77855 13.3536C6.87232 13.2598 6.925 13.1326 6.925 13C6.925 12.8674 6.87232 12.7403 6.77855 12.6465C6.68479 12.5527 6.55761 12.5 6.425 12.5ZM14.4475 10.4144L12.6581 9.52004C12.1587 9.27236 11.7386 8.88972 11.4455 8.41548C11.1525 7.94125 10.9981 7.39439 11 6.83691V5.00004C11 4.86818 10.9479 4.74167 10.8551 4.64802C10.7623 4.55438 10.6362 4.50119 10.5044 4.50004C9.70898 4.50037 8.94594 4.18515 8.38268 3.62354C7.81943 3.06193 7.50199 2.29981 7.5 1.50441C7.50073 1.41103 7.4753 1.3193 7.42657 1.23963C7.37785 1.15995 7.30778 1.09552 7.22432 1.05362C7.14085 1.01173 7.04732 0.994046 6.95432 1.00258C6.86132 1.01112 6.77257 1.04553 6.69812 1.10191L2.81938 4.04254C2.79109 4.06412 2.76774 4.0915 2.75088 4.12283C2.73402 4.15417 2.72405 4.18874 2.72162 4.22423C2.7192 4.25973 2.72438 4.29534 2.73681 4.32867C2.74925 4.36201 2.76866 4.39231 2.79375 4.41754L6.00875 7.63254C6.10094 7.72223 6.15599 7.84334 6.16293 7.97177C6.16988 8.10021 6.12822 8.22655 6.04625 8.32566C6.00133 8.37768 5.94618 8.41988 5.88422 8.44962C5.82227 8.47936 5.75485 8.49602 5.68617 8.49854C5.61749 8.50106 5.54903 8.4894 5.48506 8.46428C5.42109 8.43916 5.36299 8.40112 5.31437 8.35254L2.00187 5.04004C1.97366 5.0117 1.93905 4.99054 1.90097 4.97834C1.86288 4.96615 1.82243 4.96326 1.78299 4.96994C1.74356 4.97661 1.70631 4.99265 1.67436 5.0167C1.64241 5.04075 1.61669 5.07212 1.59938 5.10816C1.51007 5.29482 1.48086 5.50459 1.51579 5.70855C1.55071 5.9125 1.64805 6.1006 1.79437 6.24691L8.9 13.3538C8.94647 13.4002 9.00163 13.437 9.06233 13.4621C9.12302 13.4872 9.18807 13.5001 9.25375 13.5H14C14.2652 13.5 14.5196 13.3947 14.7071 13.2071C14.8946 13.0196 15 12.7653 15 12.5V11.3088C15.0006 11.123 14.9492 10.9407 14.8515 10.7827C14.7539 10.6246 14.6139 10.497 14.4475 10.4144Z" fill="black"/>
</g>
<defs>
<clipPath id="clip0_5_348">
<rect width="16" height="16" fill="white"/>
</clipPath>
</defs>
</svg>
