<svg width="16" height="16" viewBox="0 0 16 16" fill="none" xmlns="http://www.w3.org/2000/svg">
<g clip-path="url(#clip0_5_347)">
<path d="M8 1.5C6.71442 1.5 5.45772 1.88122 4.3888 2.59545C3.31988 3.30968 2.48676 4.32484 1.99479 5.51256C1.50282 6.70028 1.37409 8.00721 1.6249 9.26809C1.8757 10.529 2.49477 11.6872 3.40381 12.5962C4.31285 13.5052 5.47104 14.1243 6.73192 14.3751C7.99279 14.6259 9.29973 14.4972 10.4874 14.0052C11.6752 13.5132 12.6903 12.6801 13.4046 11.6112C14.1188 10.5423 14.5 9.28558 14.5 8C14.4982 6.27665 13.8128 4.62441 12.5942 3.40582C11.3756 2.18722 9.72335 1.50182 8 1.5ZM10.6481 8.95125L11.8319 8.52875C11.8938 8.50667 11.9594 8.497 12.025 8.50028C12.0906 8.50357 12.155 8.51975 12.2143 8.54789C12.2737 8.57604 12.327 8.61561 12.371 8.66433C12.4151 8.71306 12.4492 8.76999 12.4713 8.83187C12.4933 8.89376 12.503 8.95939 12.4997 9.02501C12.4964 9.09064 12.4803 9.15497 12.4521 9.21434C12.424 9.27371 12.3844 9.32696 12.3357 9.37104C12.2869 9.41512 12.23 9.44917 12.1681 9.47125L11.2006 9.81625L11.4831 10.8706C11.5001 10.9341 11.5045 11.0002 11.4959 11.0654C11.4873 11.1305 11.466 11.1933 11.4332 11.2502C11.4003 11.3071 11.3566 11.3569 11.3044 11.3969C11.2523 11.4368 11.1928 11.4662 11.1294 11.4831C11.0871 11.4942 11.0437 11.4999 11 11.5C10.8899 11.5 10.7829 11.4637 10.6955 11.3967C10.6082 11.3297 10.5454 11.2357 10.5169 11.1294L10.1688 9.82938L8.5 8.86625V10.7931L9.35375 11.6462C9.40021 11.6927 9.43706 11.7479 9.4622 11.8086C9.48734 11.8692 9.50028 11.9343 9.50028 12C9.50028 12.0657 9.48734 12.1308 9.4622 12.1914C9.43706 12.2521 9.40021 12.3073 9.35375 12.3538C9.3073 12.4002 9.25215 12.4371 9.19145 12.4622C9.13075 12.4873 9.0657 12.5003 9 12.5003C8.93431 12.5003 8.86925 12.4873 8.80855 12.4622C8.74786 12.4371 8.69271 12.4002 8.64625 12.3538L8 11.7069L7.35375 12.3538C7.3073 12.4002 7.25215 12.4371 7.19145 12.4622C7.13075 12.4873 7.0657 12.5003 7 12.5003C6.93431 12.5003 6.86925 12.4873 6.80855 12.4622C6.74786 12.4371 6.69271 12.4002 6.64625 12.3538C6.5998 12.3073 6.56295 12.2521 6.53781 12.1914C6.51266 12.1308 6.49972 12.0657 6.49972 12C6.49972 11.9343 6.51266 11.8692 6.53781 11.8086C6.56295 11.7479 6.5998 11.6927 6.64625 11.6462L7.5 10.7931V8.86625L5.83125 9.82938L5.48313 11.1294C5.45464 11.2357 5.39185 11.3297 5.30449 11.3967C5.21713 11.4637 5.1101 11.5 5 11.5C4.95634 11.4999 4.91286 11.4942 4.87063 11.4831C4.80717 11.4662 4.74768 11.4368 4.69556 11.3969C4.64344 11.3569 4.5997 11.3071 4.56685 11.2502C4.534 11.1933 4.51267 11.1305 4.5041 11.0654C4.49553 11.0002 4.49987 10.9341 4.51688 10.8706L4.79938 9.81625L3.83188 9.47125C3.70689 9.42666 3.60474 9.33425 3.5479 9.21434C3.49105 9.09444 3.48416 8.95686 3.52875 8.83187C3.57334 8.70689 3.66576 8.60474 3.78566 8.54789C3.90557 8.49105 4.04314 8.48416 4.16813 8.52875L5.35188 8.95125L7 8L5.35188 7.04875L4.16813 7.47125C4.11409 7.49018 4.05726 7.4999 4 7.5C3.88201 7.50024 3.76773 7.45875 3.67738 7.38285C3.58703 7.30695 3.52643 7.20155 3.5063 7.08528C3.48618 6.96902 3.50782 6.84938 3.5674 6.74753C3.62698 6.64568 3.72067 6.56818 3.83188 6.52875L4.79938 6.18375L4.51688 5.12937C4.48257 5.00124 4.50056 4.86473 4.5669 4.74986C4.63324 4.63499 4.7425 4.55119 4.87063 4.51687C4.99876 4.48256 5.13528 4.50056 5.25014 4.5669C5.36501 4.63324 5.44882 4.74249 5.48313 4.87063L5.83125 6.17063L7.5 7.13375V5.20687L6.64625 4.35375C6.55243 4.25993 6.49972 4.13268 6.49972 4C6.49972 3.86732 6.55243 3.74007 6.64625 3.64625C6.74007 3.55243 6.86732 3.49972 7 3.49972C7.13268 3.49972 7.25993 3.55243 7.35375 3.64625L8 4.29313L8.64625 3.64625C8.69271 3.59979 8.74786 3.56294 8.80855 3.5378C8.86925 3.51266 8.93431 3.49972 9 3.49972C9.0657 3.49972 9.13075 3.51266 9.19145 3.5378C9.25215 3.56294 9.3073 3.59979 9.35375 3.64625C9.40021 3.69271 9.43706 3.74786 9.4622 3.80855C9.48734 3.86925 9.50028 3.9343 9.50028 4C9.50028 4.0657 9.48734 4.13075 9.4622 4.19145C9.43706 4.25214 9.40021 4.3073 9.35375 4.35375L8.5 5.20687V7.13375L10.1688 6.17063L10.5169 4.87063C10.5512 4.74249 10.635 4.63324 10.7499 4.5669C10.8647 4.50056 11.0012 4.48256 11.1294 4.51687C11.2575 4.55119 11.3668 4.63499 11.4331 4.74986C11.4994 4.86473 11.5174 5.00124 11.4831 5.12937L11.2006 6.18375L12.1681 6.52875C12.2793 6.56818 12.373 6.64568 12.4326 6.74753C12.4922 6.84938 12.5138 6.96902 12.4937 7.08528C12.4736 7.20155 12.413 7.30695 12.3226 7.38285C12.2323 7.45875 12.118 7.50024 12 7.5C11.9427 7.4999 11.8859 7.49018 11.8319 7.47125L10.6481 7.04875L9 8L10.6481 8.95125Z" fill="black"/>
</g>
<defs>
<clipPath id="clip0_5_347">
<rect width="16" height="16" fill="white"/>
</clipPath>
</defs>
</svg>
