<svg width="16" height="16" viewBox="0 0 16 16" fill="none" xmlns="http://www.w3.org/2000/svg">
<g clip-path="url(#clip0_5_973)">
<path d="M8 1.5C6.71442 1.5 5.45772 1.88122 4.3888 2.59545C3.31988 3.30968 2.48676 4.32484 1.99479 5.51256C1.50282 6.70028 1.37409 8.00721 1.6249 9.26809C1.8757 10.529 2.49477 11.6872 3.40381 12.5962C4.31285 13.5052 5.47104 14.1243 6.73192 14.3751C7.99279 14.6259 9.29973 14.4972 10.4874 14.0052C11.6752 13.5132 12.6903 12.6801 13.4046 11.6112C14.1188 10.5423 14.5 9.28558 14.5 8C14.4982 6.27665 13.8128 4.62441 12.5942 3.40582C11.3756 2.18722 9.72335 1.50182 8 1.5ZM8.5 3.96125L10.0494 2.89563C10.9365 3.25296 11.7156 3.83442 12.3106 4.58313L11.8106 6.26687C11.7981 6.26687 11.785 6.27313 11.7725 6.2775L10.3463 6.74062C10.3249 6.74747 10.304 6.75582 10.2838 6.76562L8.5 5.53875C8.5 5.52625 8.5 5.51312 8.5 5.5V4C8.5 3.98688 8.5 3.97375 8.5 3.96125ZM5.9525 2.89563L7.5 3.96125C7.5 3.97375 7.5 3.98688 7.5 4V5.5C7.5 5.51312 7.5 5.52625 7.5 5.53875L5.715 6.76813C5.69479 6.75832 5.6739 6.74997 5.6525 6.74312L4.22625 6.28C4.21375 6.27563 4.20063 6.2725 4.18813 6.26937L3.68813 4.58563C4.2837 3.83557 5.064 3.2532 5.9525 2.89563ZM5.14 10.9637H3.36875C2.85027 10.1576 2.55303 9.22924 2.50688 8.27188L3.88188 7.21688C3.89371 7.22211 3.90581 7.2267 3.91813 7.23063L5.345 7.69438C5.36408 7.70014 5.38349 7.70473 5.40313 7.70813L6.0775 9.67188C6.06813 9.68312 6.05875 9.69438 6.05 9.70625L5.16875 10.9194C5.15837 10.9336 5.14878 10.9484 5.14 10.9637ZM9.41813 13.3125C8.48891 13.56 7.5111 13.56 6.58188 13.3125L5.95313 11.5375C5.96125 11.5275 5.97 11.5181 5.9775 11.5075L6.85938 10.2937C6.86975 10.2797 6.87935 10.2651 6.88813 10.25H9.11188C9.12066 10.2651 9.13025 10.2797 9.14063 10.2937L10.0225 11.5075C10.03 11.5181 10.0388 11.5275 10.0469 11.5375L9.41813 13.3125ZM10.86 10.9619C10.8512 10.9466 10.8416 10.9318 10.8313 10.9175L9.94938 9.70625C9.94063 9.69438 9.93125 9.68312 9.92188 9.67188L10.5963 7.70813C10.6159 7.70473 10.6353 7.70014 10.6544 7.69438L12.0813 7.23063C12.0936 7.2267 12.1057 7.22211 12.1175 7.21688L13.4925 8.27188C13.4464 9.22924 13.1491 10.1576 12.6306 10.9637L10.86 10.9619Z" fill="black"/>
</g>
<defs>
<clipPath id="clip0_5_973">
<rect width="16" height="16" fill="white"/>
</clipPath>
</defs>
</svg>
