<svg width="16" height="16" viewBox="0 0 16 16" fill="none" xmlns="http://www.w3.org/2000/svg">
<g clip-path="url(#clip0_5_346)">
<path d="M12.0001 1H6.5001C6.23489 1 5.98053 1.10536 5.793 1.29289C5.60546 1.48043 5.5001 1.73478 5.5001 2V6.79313L3.07823 9.21437C2.40069 9.90762 2.02381 10.8401 2.02936 11.8094C2.03491 12.7787 2.42244 13.7068 3.10788 14.3922C3.79331 15.0777 4.72137 15.4652 5.69071 15.4707C6.66005 15.4763 7.59249 15.0994 8.28573 14.4219L12.5626 10.1462C12.7022 10.0069 12.8127 9.84123 12.8878 9.65885C12.9629 9.47647 13.0011 9.28099 13.0001 9.08375V2C13.0001 1.73478 12.8947 1.48043 12.7072 1.29289C12.5197 1.10536 12.2653 1 12.0001 1ZM12.0001 2V3.5H6.5001V2H12.0001ZM11.8539 9.4375L9.86261 11.43C9.6352 11.0104 9.51119 10.5426 9.50085 10.0655C9.49051 9.58837 9.59416 9.11566 9.80318 8.68662C10.0122 8.25759 10.3206 7.88461 10.7026 7.59866C11.0847 7.31271 11.5295 7.12205 12.0001 7.0425V9.08562C11.9997 9.21762 11.9471 9.34411 11.8539 9.4375Z" fill="black"/>
</g>
<defs>
<clipPath id="clip0_5_346">
<rect width="16" height="16" fill="white"/>
</clipPath>
</defs>
</svg>
