<svg width="16" height="16" viewBox="0 0 16 16" fill="none" xmlns="http://www.w3.org/2000/svg">
<g clip-path="url(#clip0_5_344)">
<path d="M15.4475 7.77625L12.9475 2.77625C12.9059 2.69318 12.842 2.62333 12.763 2.57454C12.684 2.52574 12.5929 2.49993 12.5 2.5H3.5C3.40711 2.49993 3.31604 2.52574 3.237 2.57454C3.15795 2.62333 3.09407 2.69318 3.0525 2.77625L0.5525 7.77625C0.518036 7.84581 0.50007 7.92237 0.5 8V11.5C0.5 11.7652 0.605357 12.0196 0.792893 12.2071C0.98043 12.3946 1.23478 12.5 1.5 12.5H14.5C14.7652 12.5 15.0196 12.3946 15.2071 12.2071C15.3946 12.0196 15.5 11.7652 15.5 11.5V8C15.4999 7.92237 15.482 7.84581 15.4475 7.77625ZM6.19125 3.5L6.94125 5H5.05875L4.30875 3.5H6.19125ZM9.19125 3.5L9.94125 5H8.05875L7.30875 3.5H9.19125ZM6.30875 7.5L5.55875 6H7.44125L8.19125 7.5H6.30875ZM9.30875 7.5L8.55875 6H10.4412L11.1912 7.5H9.30875ZM12.3088 7.5L11.5588 6H13.4412L14.1912 7.5H12.3088ZM12.9412 5H11.0588L10.3088 3.5H12.1912L12.9412 5ZM6.5 11.5V8.5H14.5V11.5H6.5Z" fill="black"/>
</g>
<defs>
<clipPath id="clip0_5_344">
<rect width="16" height="16" fill="white"/>
</clipPath>
</defs>
</svg>
