<svg width="16" height="16" viewBox="0 0 16 16" fill="none" xmlns="http://www.w3.org/2000/svg">
<g clip-path="url(#clip0_5_345)">
<path d="M1.99996 6.5C1.99996 6.36739 2.05264 6.24021 2.14641 6.14645C2.24018 6.05268 2.36735 6 2.49996 6H3.49996C3.63257 6 3.75975 6.05268 3.85351 6.14645C3.94728 6.24021 3.99996 6.36739 3.99996 6.5C3.99996 6.63261 3.94728 6.75979 3.85351 6.85355C3.75975 6.94732 3.63257 7 3.49996 7H2.49996C2.36735 7 2.24018 6.94732 2.14641 6.85355C2.05264 6.75979 1.99996 6.63261 1.99996 6.5ZM4.46434 3.67188C4.55816 3.7657 4.6854 3.8184 4.81809 3.8184C4.95077 3.8184 5.07802 3.7657 5.17184 3.67188C5.26566 3.57805 5.31836 3.45081 5.31836 3.31813C5.31836 3.18544 5.26566 3.0582 5.17184 2.96438L4.46434 2.2575C4.36981 2.16769 4.24393 2.11836 4.11355 2.12003C3.98317 2.1217 3.8586 2.17424 3.7664 2.26644C3.6742 2.35864 3.62166 2.48321 3.61999 2.61359C3.61832 2.74397 3.66765 2.86984 3.75746 2.96438L4.46434 3.67188ZM7.99996 2.5C8.13257 2.5 8.25975 2.44732 8.35352 2.35355C8.44728 2.25979 8.49996 2.13261 8.49996 2V1C8.49996 0.867392 8.44728 0.740215 8.35352 0.646447C8.25975 0.552678 8.13257 0.5 7.99996 0.5C7.86735 0.5 7.74018 0.552678 7.64641 0.646447C7.55264 0.740215 7.49996 0.867392 7.49996 1V2C7.49996 2.13261 7.55264 2.25979 7.64641 2.35355C7.74018 2.44732 7.86735 2.5 7.99996 2.5ZM11.1818 3.81813C11.2475 3.81818 11.3126 3.80529 11.3733 3.78019C11.434 3.7551 11.4891 3.71829 11.5356 3.67188L12.2425 2.96438C12.3323 2.86984 12.3816 2.74397 12.3799 2.61359C12.3783 2.48321 12.3257 2.35864 12.2335 2.26644C12.1413 2.17424 12.0168 2.1217 11.8864 2.12003C11.756 2.11836 11.6301 2.16769 11.5356 2.2575L10.8281 2.96438C10.7581 3.0343 10.7104 3.12343 10.6911 3.22047C10.6717 3.31751 10.6816 3.41811 10.7195 3.50952C10.7574 3.60093 10.8215 3.67905 10.9038 3.73399C10.9861 3.78892 11.0829 3.8182 11.1818 3.81813ZM12 6.5C12 6.63261 12.0526 6.75979 12.1464 6.85355C12.2402 6.94732 12.3674 7 12.5 7H13.5C13.6326 7 13.7597 6.94732 13.8535 6.85355C13.9473 6.75979 14 6.63261 14 6.5C14 6.36739 13.9473 6.24021 13.8535 6.14645C13.7597 6.05268 13.6326 6 13.5 6H12.5C12.3674 6 12.2402 6.05268 12.1464 6.14645C12.0526 6.24021 12 6.36739 12 6.5ZM5.49996 7C5.63257 7 5.75975 6.94732 5.85351 6.85355C5.94728 6.75979 5.99996 6.63261 5.99996 6.5C5.99996 5.96957 6.21067 5.46086 6.58575 5.08579C6.96082 4.71071 7.46953 4.5 7.99996 4.5C8.53039 4.5 9.0391 4.71071 9.41418 5.08579C9.78925 5.46086 9.99996 5.96957 9.99996 6.5C9.99996 6.63261 10.0526 6.75979 10.1464 6.85355C10.2402 6.94732 10.3674 7 10.5 7C10.6326 7 10.7597 6.94732 10.8535 6.85355C10.9473 6.75979 11 6.63261 11 6.5C11 5.70435 10.6839 4.94129 10.1213 4.37868C9.55867 3.81607 8.79561 3.5 7.99996 3.5C7.20431 3.5 6.44125 3.81607 5.87864 4.37868C5.31603 4.94129 4.99996 5.70435 4.99996 6.5C4.99996 6.63261 5.05264 6.75979 5.14641 6.85355C5.24018 6.94732 5.36735 7 5.49996 7ZM8.94996 8.5H7.04996C6.99287 8.49998 6.93749 8.5195 6.89304 8.55532C6.84858 8.59113 6.81772 8.64109 6.80559 8.69687L6.41371 10.5H9.58621L9.19434 8.69687C9.18221 8.64109 9.15135 8.59113 9.10689 8.55532C9.06243 8.5195 9.00705 8.49998 8.94996 8.5ZM1.98434 11.625L1.06246 13.2537C1.00968 13.347 0.988232 13.4547 1.00128 13.561C1.01434 13.6674 1.0612 13.7667 1.13496 13.8444C1.18362 13.8944 1.24196 13.934 1.30644 13.9608C1.37091 13.9876 1.44016 14.0009 1.50996 14H4.42809C4.48518 14 4.54055 13.9805 4.58501 13.9447C4.62947 13.9089 4.66033 13.8589 4.67246 13.8031L5.17246 11.5H2.20184C2.15778 11.4998 2.11447 11.5113 2.07627 11.5332C2.03808 11.5552 2.00636 11.5868 1.98434 11.625ZM14.935 13.25L14.0156 11.625C13.9936 11.5868 13.9618 11.5552 13.9237 11.5332C13.8855 11.5113 13.8421 11.4998 13.7981 11.5H10.8268L11.3268 13.8031C11.339 13.8589 11.3698 13.9089 11.4143 13.9447C11.4587 13.9805 11.5141 14 11.5712 14H14.485C14.5548 14.0009 14.624 13.9876 14.6885 13.9608C14.753 13.934 14.8113 13.8944 14.86 13.8444C14.9345 13.7673 14.9823 13.6682 14.9963 13.5619C15.0102 13.4555 14.9896 13.3475 14.9375 13.2537L14.935 13.25ZM13.1681 10.125L12.3918 8.75C12.3481 8.67263 12.2844 8.60833 12.2075 8.56373C12.1306 8.51913 12.0432 8.49583 11.9543 8.49625H10.485C10.4476 8.49624 10.4107 8.50459 10.377 8.5207C10.3433 8.53681 10.3137 8.56027 10.2902 8.58934C10.2668 8.61842 10.2502 8.65238 10.2416 8.68872C10.233 8.72507 10.2327 8.76288 10.2406 8.79937L10.6093 10.4963H12.95C12.9934 10.4962 13.0361 10.4847 13.0739 10.4631C13.1116 10.4415 13.143 10.4104 13.165 10.3729C13.187 10.3354 13.1989 10.2928 13.1994 10.2494C13.2 10.2059 13.1892 10.163 13.1681 10.125ZM5.51496 8.5H4.04371C3.95481 8.49958 3.86741 8.52288 3.79051 8.56748C3.71361 8.61208 3.64999 8.67638 3.60621 8.75375L2.83184 10.125C2.80982 10.1631 2.79827 10.2064 2.79834 10.2504C2.79841 10.2944 2.8101 10.3377 2.83224 10.3757C2.85437 10.4138 2.88616 10.4453 2.92439 10.4671C2.96262 10.4889 3.00594 10.5003 3.04996 10.5H5.39059L5.75934 8.80313C5.76727 8.76663 5.76693 8.72882 5.75834 8.69247C5.74974 8.65613 5.73312 8.62217 5.70967 8.59309C5.68623 8.56402 5.65658 8.54056 5.62288 8.52445C5.58919 8.50834 5.55231 8.49999 5.51496 8.5ZM9.80371 11.5H6.19621L5.71871 13.6969C5.71077 13.7334 5.71112 13.7712 5.71971 13.8075C5.7283 13.8439 5.74493 13.8778 5.76837 13.9069C5.79181 13.936 5.82147 13.9594 5.85517 13.9755C5.88886 13.9917 5.92574 14 5.96309 14H10.0368C10.0742 14 10.1111 13.9917 10.1448 13.9755C10.1785 13.9594 10.2081 13.936 10.2316 13.9069C10.255 13.8778 10.2716 13.8439 10.2802 13.8075C10.2888 13.7712 10.2891 13.7334 10.2812 13.6969L9.80371 11.5Z" fill="black"/>
</g>
<defs>
<clipPath id="clip0_5_345">
<rect width="16" height="16" fill="white"/>
</clipPath>
</defs>
</svg>
