<svg width="16" height="16" viewBox="0 0 16 16" fill="none" xmlns="http://www.w3.org/2000/svg">
<g clip-path="url(#clip0_5_343)">
<path d="M13 2H3C2.73478 2 2.48043 2.10536 2.29289 2.29289C2.10536 2.48043 2 2.73478 2 3V13C2 13.2652 2.10536 13.5196 2.29289 13.7071C2.48043 13.8946 2.73478 14 3 14H13C13.2652 14 13.5196 13.8946 13.7071 13.7071C13.8946 13.5196 14 13.2652 14 13V3C14 2.73478 13.8946 2.48043 13.7071 2.29289C13.5196 2.10536 13.2652 2 13 2ZM4.5 4.5H7C7.13261 4.5 7.25979 4.55268 7.35355 4.64645C7.44732 4.74021 7.5 4.86739 7.5 5C7.5 5.13261 7.44732 5.25979 7.35355 5.35355C7.25979 5.44732 7.13261 5.5 7 5.5H4.5C4.36739 5.5 4.24021 5.44732 4.14645 5.35355C4.05268 5.25979 4 5.13261 4 5C4 4.86739 4.05268 4.74021 4.14645 4.64645C4.24021 4.55268 4.36739 4.5 4.5 4.5ZM4.5 7.5H7.5C7.63261 7.5 7.75979 7.55268 7.85355 7.64645C7.94732 7.74021 8 7.86739 8 8C8 8.13261 7.94732 8.25979 7.85355 8.35355C7.75979 8.44732 7.63261 8.5 7.5 8.5H4.5C4.36739 8.5 4.24021 8.44732 4.14645 8.35355C4.05268 8.25979 4 8.13261 4 8C4 7.86739 4.05268 7.74021 4.14645 7.64645C4.24021 7.55268 4.36739 7.5 4.5 7.5ZM10.5 11.5H4.5C4.36739 11.5 4.24021 11.4473 4.14645 11.3536C4.05268 11.2598 4 11.1326 4 11C4 10.8674 4.05268 10.7402 4.14645 10.6464C4.24021 10.5527 4.36739 10.5 4.5 10.5H10.5C10.6326 10.5 10.7598 10.5527 10.8536 10.6464C10.9473 10.7402 11 10.8674 11 11C11 11.1326 10.9473 11.2598 10.8536 11.3536C10.7598 11.4473 10.6326 11.5 10.5 11.5ZM12.3538 6.35375C12.3073 6.40024 12.2522 6.43712 12.1915 6.46228C12.1308 6.48744 12.0657 6.50039 12 6.50039C11.9343 6.50039 11.8692 6.48744 11.8085 6.46228C11.7478 6.43712 11.6927 6.40024 11.6462 6.35375L11 5.70687V8.5C11 8.63261 10.9473 8.75979 10.8536 8.85355C10.7598 8.94732 10.6326 9 10.5 9C10.3674 9 10.2402 8.94732 10.1464 8.85355C10.0527 8.75979 10 8.63261 10 8.5V5.70687L9.35375 6.35375C9.25993 6.44757 9.13268 6.50028 9 6.50028C8.86732 6.50028 8.74007 6.44757 8.64625 6.35375C8.55243 6.25993 8.49972 6.13268 8.49972 6C8.49972 5.86732 8.55243 5.74007 8.64625 5.64625L10.1462 4.14625C10.1927 4.09976 10.2478 4.06288 10.3085 4.03772C10.3692 4.01256 10.4343 3.99961 10.5 3.99961C10.5657 3.99961 10.6308 4.01256 10.6915 4.03772C10.7522 4.06288 10.8073 4.09976 10.8538 4.14625L12.3538 5.64625C12.4002 5.69269 12.4371 5.74783 12.4623 5.80853C12.4874 5.86923 12.5004 5.93429 12.5004 6C12.5004 6.06571 12.4874 6.13077 12.4623 6.19147C12.4371 6.25217 12.4002 6.30731 12.3538 6.35375Z" fill="black"/>
</g>
<defs>
<clipPath id="clip0_5_343">
<rect width="16" height="16" fill="white"/>
</clipPath>
</defs>
</svg>
