<svg width="16" height="16" viewBox="0 0 16 16" fill="none" xmlns="http://www.w3.org/2000/svg">
<g clip-path="url(#clip0_5_342)">
<path d="M1.5 7.5V10.5C1.5 10.6326 1.44732 10.7598 1.35355 10.8536C1.25979 10.9473 1.13261 11 1 11C0.867392 11 0.740215 10.9473 0.646447 10.8536C0.552678 10.7598 0.5 10.6326 0.5 10.5V7.5C0.5 7.36739 0.552678 7.24021 0.646447 7.14645C0.740215 7.05268 0.867392 7 1 7C1.13261 7 1.25979 7.05268 1.35355 7.14645C1.44732 7.24021 1.5 7.36739 1.5 7.5ZM3 5.5C2.86739 5.5 2.74021 5.55268 2.64645 5.64645C2.55268 5.74021 2.5 5.86739 2.5 6V12C2.5 12.1326 2.55268 12.2598 2.64645 12.3536C2.74021 12.4473 2.86739 12.5 3 12.5C3.13261 12.5 3.25979 12.4473 3.35355 12.3536C3.44732 12.2598 3.5 12.1326 3.5 12V6C3.5 5.86739 3.44732 5.74021 3.35355 5.64645C3.25979 5.55268 3.13261 5.5 3 5.5ZM5 5C4.86739 5 4.74021 5.05268 4.64645 5.14645C4.55268 5.24021 4.5 5.36739 4.5 5.5V12C4.5 12.1326 4.55268 12.2598 4.64645 12.3536C4.74021 12.4473 4.86739 12.5 5 12.5C5.13261 12.5 5.25979 12.4473 5.35355 12.3536C5.44732 12.2598 5.5 12.1326 5.5 12V5.5C5.5 5.36739 5.44732 5.24021 5.35355 5.14645C5.25979 5.05268 5.13261 5 5 5ZM7 3C6.86739 3 6.74021 3.05268 6.64645 3.14645C6.55268 3.24021 6.5 3.36739 6.5 3.5V12C6.5 12.1326 6.55268 12.2598 6.64645 12.3536C6.74021 12.4473 6.86739 12.5 7 12.5C7.13261 12.5 7.25979 12.4473 7.35355 12.3536C7.44732 12.2598 7.5 12.1326 7.5 12V3.5C7.5 3.36739 7.44732 3.24021 7.35355 3.14645C7.25979 3.05268 7.13261 3 7 3ZM13.9275 6.64625C13.7263 5.48535 13.1217 4.43279 12.2201 3.67421C11.3186 2.91563 10.1782 2.49978 9 2.5H8.75C8.6837 2.5 8.62011 2.52634 8.57322 2.57322C8.52634 2.62011 8.5 2.6837 8.5 2.75V12.25C8.5 12.3163 8.52634 12.3799 8.57322 12.4268C8.62011 12.4737 8.6837 12.5 8.75 12.5H12.9506C14.5494 12.5 15.905 11.2675 15.995 9.67125C16.0324 9.00958 15.8498 8.35414 15.4759 7.807C15.1019 7.25987 14.5575 6.85176 13.9275 6.64625Z" fill="black"/>
</g>
<defs>
<clipPath id="clip0_5_342">
<rect width="16" height="16" fill="white"/>
</clipPath>
</defs>
</svg>
