<svg width="16" height="16" viewBox="0 0 16 16" fill="none" xmlns="http://www.w3.org/2000/svg">
<g clip-path="url(#clip0_5_341)">
<path d="M14.5 8.50004C14.4998 9.11066 14.3398 9.7106 14.036 10.2403C13.7322 10.7699 13.2951 11.2109 12.7681 11.5194C12.2412 11.8279 11.6427 11.9931 11.0321 11.9987C10.4215 12.0043 9.82004 11.8501 9.2875 11.5513L9.97875 13.8563C10.0012 13.9309 10.0058 14.0098 9.99232 14.0866C9.97883 14.1633 9.94758 14.2359 9.90107 14.2984C9.85456 14.361 9.79407 14.4118 9.72443 14.4468C9.6548 14.4818 9.57794 14.5 9.5 14.5H6.5C6.42206 14.5 6.3452 14.4818 6.27557 14.4468C6.20593 14.4118 6.14544 14.361 6.09893 14.2984C6.05242 14.2359 6.02117 14.1633 6.00768 14.0866C5.9942 14.0098 5.99884 13.9309 6.02125 13.8563L6.7125 11.5513C6.17996 11.8501 5.57853 12.0043 4.96793 11.9987C4.35734 11.9931 3.75883 11.8279 3.23186 11.5194C2.70489 11.2109 2.26779 10.7699 1.96397 10.2403C1.66016 9.7106 1.50021 9.11066 1.5 8.50004C1.5 6.50004 2.60313 4.57254 4.6875 2.92066C5.64446 2.16598 6.69194 1.53379 7.80562 1.03879C7.86655 1.01311 7.93201 0.999878 7.99813 0.999878C8.06424 0.999878 8.1297 1.01311 8.19063 1.03879C9.30562 1.53351 10.3544 2.16571 11.3125 2.92066C13.3969 4.57254 14.5 6.50004 14.5 8.50004Z" fill="black"/>
</g>
<defs>
<clipPath id="clip0_5_341">
<rect width="16" height="16" fill="white"/>
</clipPath>
</defs>
</svg>
