<svg width="16" height="16" viewBox="0 0 16 16" fill="none" xmlns="http://www.w3.org/2000/svg">
<g clip-path="url(#clip0_5_748)">
<path d="M10.22 1.55059C10.1358 1.50949 10.0418 1.49286 9.94868 1.50258C9.85553 1.5123 9.76698 1.548 9.69312 1.60559L5.32812 4.99996H2.5C2.23478 4.99996 1.98043 5.10532 1.79289 5.29286C1.60536 5.48039 1.5 5.73475 1.5 5.99996V9.99996C1.5 10.2652 1.60536 10.5195 1.79289 10.7071C1.98043 10.8946 2.23478 11 2.5 11H5.32812L9.69312 14.3943C9.78069 14.4629 9.88876 14.5001 10 14.5C10.1326 14.5 10.2598 14.4473 10.3536 14.3535C10.4473 14.2598 10.5 14.1326 10.5 14V1.99996C10.5001 1.90636 10.4739 1.81462 10.4244 1.73517C10.3749 1.65573 10.3041 1.59177 10.22 1.55059Z" fill="black"/>
<path d="M14.7069 8.00003L15.8538 6.85378C15.9476 6.75996 16.0003 6.63272 16.0003 6.50003C16.0003 6.36735 15.9476 6.2401 15.8538 6.14628C15.76 6.05246 15.6327 5.99976 15.5 5.99976C15.3674 5.99976 15.2401 6.05246 15.1463 6.14628L14 7.29316L12.8538 6.14628C12.76 6.05246 12.6327 5.99976 12.5 5.99976C12.3674 5.99976 12.2401 6.05246 12.1463 6.14628C12.0525 6.2401 11.9998 6.36735 11.9998 6.50003C11.9998 6.63272 12.0525 6.75996 12.1463 6.85378L13.2932 8.00003L12.1463 9.14628C12.0525 9.2401 11.9998 9.36735 11.9998 9.50003C11.9998 9.63272 12.0525 9.75996 12.1463 9.85378C12.2401 9.9476 12.3674 10.0003 12.5 10.0003C12.6327 10.0003 12.76 9.9476 12.8538 9.85378L14 8.70691L15.1463 9.85378C15.2401 9.9476 15.3674 10.0003 15.5 10.0003C15.6327 10.0003 15.76 9.9476 15.8538 9.85378C15.9476 9.75996 16.0003 9.63272 16.0003 9.50003C16.0003 9.36735 15.9476 9.2401 15.8538 9.14628L14.7069 8.00003Z" fill="black"/>
</g>
<defs>
<clipPath id="clip0_5_748">
<rect width="16" height="16" fill="white"/>
</clipPath>
</defs>
</svg>
