<svg width="16" height="16" viewBox="0 0 16 16" fill="none" xmlns="http://www.w3.org/2000/svg">
<g clip-path="url(#clip0_5_1075)">
<path d="M9.5 10C9.5 10.2967 9.41203 10.5867 9.2472 10.8334C9.08238 11.08 8.84811 11.2723 8.57403 11.3858C8.29994 11.4994 7.99834 11.5291 7.70736 11.4712C7.41639 11.4133 7.14912 11.2704 6.93934 11.0607C6.72956 10.8509 6.5867 10.5836 6.52882 10.2926C6.47094 10.0017 6.50065 9.70006 6.61418 9.42597C6.72771 9.15189 6.91997 8.91762 7.16664 8.7528C7.41332 8.58797 7.70333 8.5 8 8.5C8.39782 8.5 8.77936 8.65804 9.06066 8.93934C9.34196 9.22064 9.5 9.60218 9.5 10ZM13 2.5V13.5C13 13.7652 12.8946 14.0196 12.7071 14.2071C12.5196 14.3946 12.2652 14.5 12 14.5H4C3.73478 14.5 3.48043 14.3946 3.29289 14.2071C3.10536 14.0196 3 13.7652 3 13.5V2.5C3 2.23478 3.10536 1.98043 3.29289 1.79289C3.48043 1.60536 3.73478 1.5 4 1.5H12C12.2652 1.5 12.5196 1.60536 12.7071 1.79289C12.8946 1.98043 13 2.23478 13 2.5ZM7.25 4.25C7.25 4.39834 7.29399 4.54334 7.3764 4.66668C7.45881 4.79001 7.57594 4.88614 7.71299 4.94291C7.85003 4.99968 8.00083 5.01453 8.14632 4.98559C8.2918 4.95665 8.42544 4.88522 8.53033 4.78033C8.63522 4.67544 8.70665 4.5418 8.73559 4.39632C8.76453 4.25083 8.74967 4.10003 8.69291 3.96299C8.63614 3.82594 8.54001 3.70881 8.41668 3.6264C8.29334 3.54399 8.14834 3.5 8 3.5C7.80109 3.5 7.61032 3.57902 7.46967 3.71967C7.32902 3.86032 7.25 4.05109 7.25 4.25ZM10.5 10C10.5 9.50555 10.3534 9.0222 10.0787 8.61107C9.80397 8.19995 9.41352 7.87952 8.95671 7.6903C8.49989 7.50108 7.99723 7.45157 7.51227 7.54804C7.02732 7.6445 6.58186 7.8826 6.23223 8.23223C5.8826 8.58186 5.6445 9.02732 5.54804 9.51227C5.45157 9.99723 5.50108 10.4999 5.6903 10.9567C5.87952 11.4135 6.19995 11.804 6.61107 12.0787C7.0222 12.3534 7.50555 12.5 8 12.5C8.66304 12.5 9.29893 12.2366 9.76777 11.7678C10.2366 11.2989 10.5 10.663 10.5 10Z" fill="black"/>
</g>
<defs>
<clipPath id="clip0_5_1075">
<rect width="16" height="16" fill="white"/>
</clipPath>
</defs>
</svg>
