<svg width="16" height="16" viewBox="0 0 16 16" fill="none" xmlns="http://www.w3.org/2000/svg">
<g clip-path="url(#clip0_5_695)">
<path d="M10.22 1.55059C10.1358 1.50949 10.0418 1.49286 9.94868 1.50258C9.85553 1.5123 9.76698 1.548 9.69312 1.60559L5.32812 4.99996H2.5C2.23478 4.99996 1.98043 5.10532 1.79289 5.29286C1.60536 5.48039 1.5 5.73475 1.5 5.99996V9.99996C1.5 10.2652 1.60536 10.5195 1.79289 10.7071C1.98043 10.8946 2.23478 11 2.5 11H5.32812L9.69312 14.3943C9.78069 14.4629 9.88876 14.5001 10 14.5C10.1326 14.5 10.2598 14.4473 10.3536 14.3535C10.4473 14.2598 10.5 14.1326 10.5 14V1.99996C10.5001 1.90636 10.4739 1.81462 10.4244 1.73517C10.3749 1.65573 10.3041 1.59177 10.22 1.55059Z" fill="black"/>
</g>
<defs>
<clipPath id="clip0_5_695">
<rect width="16" height="16" fill="white"/>
</clipPath>
</defs>
</svg>
