<svg width="16" height="16" viewBox="0 0 16 16" fill="none" xmlns="http://www.w3.org/2000/svg">
<g clip-path="url(#clip0_5_340)">
<path d="M4 5.25V10.75C4 10.8163 3.97366 10.8799 3.92678 10.9268C3.87989 10.9737 3.8163 11 3.75 11H2C1.73478 11 1.48043 10.8946 1.29289 10.7071C1.10536 10.5196 1 10.2652 1 10V6C1 5.73478 1.10536 5.48043 1.29289 5.29289C1.48043 5.10536 1.73478 5 2 5H3.75C3.8163 5 3.87989 5.02634 3.92678 5.07322C3.97366 5.12011 4 5.1837 4 5.25ZM9.82187 1.61562C9.73433 1.54319 9.62474 1.50274 9.51113 1.50092C9.39752 1.4991 9.28669 1.53603 9.19687 1.60562L5.09875 4.79312C5.06835 4.81622 5.04364 4.84597 5.02653 4.8801C5.00941 4.91423 5.00033 4.95182 5 4.99V11.01C5.00011 11.048 5.0089 11.0855 5.02568 11.1196C5.04247 11.1537 5.06682 11.1836 5.09688 11.2069L9.195 14.3944C9.27437 14.4561 9.3705 14.4924 9.47085 14.4987C9.57119 14.5049 9.67109 14.4808 9.7575 14.4294C9.83354 14.3821 9.89602 14.3159 9.93885 14.2372C9.98168 14.1586 10.0034 14.0702 10.0019 13.9806V2.01562C10.0028 1.93968 9.98699 1.86447 9.95556 1.79534C9.92412 1.7262 9.87784 1.66484 9.82 1.61562H9.82187Z" fill="black"/>
</g>
<defs>
<clipPath id="clip0_5_340">
<rect width="16" height="16" fill="white"/>
</clipPath>
</defs>
</svg>
