<svg width="16" height="16" viewBox="0 0 16 16" fill="none" xmlns="http://www.w3.org/2000/svg">
<g clip-path="url(#clip0_5_677)">
<path d="M10 2.01562V13.9806C10.0015 14.0702 9.97981 14.1586 9.93698 14.2372C9.89415 14.3159 9.83167 14.3821 9.75562 14.4294C9.66922 14.4808 9.56932 14.5049 9.46897 14.4987C9.36863 14.4924 9.2725 14.4561 9.19312 14.3944L5.095 11.2069C5.06529 11.1834 5.0413 11.1535 5.02484 11.1194C5.00838 11.0853 4.99989 11.0479 5 11.01V4.99C5.00011 4.95198 5.0089 4.91448 5.02568 4.88037C5.04247 4.84625 5.06682 4.81641 5.09688 4.79312L9.195 1.60562C9.28481 1.53603 9.39565 1.4991 9.50926 1.50092C9.62286 1.50274 9.73246 1.54319 9.82 1.61562C9.8775 1.66502 9.92343 1.72646 9.95454 1.79558C9.98564 1.86471 10.0012 1.93983 10 2.01562ZM3.75 5H2C1.73478 5 1.48043 5.10536 1.29289 5.29289C1.10536 5.48043 1 5.73478 1 6V10C1 10.2652 1.10536 10.5196 1.29289 10.7071C1.48043 10.8946 1.73478 11 2 11H3.75C3.8163 11 3.87989 10.9737 3.92678 10.9268C3.97366 10.8799 4 10.8163 4 10.75V5.25C4 5.1837 3.97366 5.12011 3.92678 5.07322C3.87989 5.02634 3.8163 5 3.75 5ZM11.6731 6.3025C11.6238 6.34589 11.5834 6.39858 11.5544 6.45758C11.5254 6.51657 11.5084 6.5807 11.5042 6.64629C11.5 6.71189 11.5088 6.77767 11.5301 6.83986C11.5513 6.90205 11.5847 6.95945 11.6281 7.00875C11.8693 7.28264 12.0023 7.63506 12.0023 8C12.0023 8.36493 11.8693 8.71735 11.6281 8.99125C11.5835 9.0403 11.549 9.09774 11.5268 9.16023C11.5046 9.22272 11.495 9.28901 11.4987 9.35523C11.5023 9.42146 11.5191 9.4863 11.548 9.54597C11.577 9.60565 11.6175 9.65897 11.6672 9.70283C11.717 9.74669 11.775 9.78022 11.8378 9.80146C11.9006 9.8227 11.9671 9.83122 12.0332 9.82654C12.0994 9.82185 12.164 9.80405 12.2232 9.77417C12.2824 9.7443 12.3351 9.70293 12.3781 9.6525C12.7803 9.19595 13.0022 8.60842 13.0022 8C13.0022 7.39158 12.7803 6.80405 12.3781 6.3475C12.3347 6.29803 12.282 6.25762 12.2229 6.22858C12.1639 6.19953 12.0997 6.18243 12.034 6.17825C11.9684 6.17407 11.9025 6.18289 11.8403 6.20421C11.778 6.22553 11.7206 6.25893 11.6713 6.3025H11.6731ZM14.2288 4.66687C14.1857 4.61545 14.1328 4.57321 14.0731 4.54265C14.0134 4.5121 13.9482 4.49386 13.8813 4.48902C13.8145 4.48418 13.7473 4.49284 13.6839 4.51449C13.6204 4.53613 13.5619 4.57032 13.512 4.61501C13.462 4.65971 13.4215 4.714 13.3929 4.77466C13.3644 4.83531 13.3483 4.90109 13.3457 4.96809C13.343 5.03509 13.3539 5.10193 13.3776 5.16464C13.4013 5.22735 13.4374 5.28465 13.4838 5.33312C14.1398 6.06651 14.5025 7.01599 14.5025 8C14.5025 8.984 14.1398 9.93349 13.4838 10.6669C13.4374 10.7154 13.4013 10.7727 13.3776 10.8354C13.3539 10.8981 13.343 10.9649 13.3457 11.0319C13.3483 11.0989 13.3644 11.1647 13.3929 11.2253C13.4215 11.286 13.462 11.3403 13.512 11.385C13.5619 11.4297 13.6204 11.4639 13.6839 11.4855C13.7473 11.5072 13.8145 11.5158 13.8813 11.511C13.9482 11.5061 14.0134 11.4879 14.0731 11.4573C14.1328 11.4268 14.1857 11.3845 14.2288 11.3331C15.0486 10.4164 15.5018 9.22979 15.5018 8C15.5018 6.77021 15.0486 5.58355 14.2288 4.66687Z" fill="black"/>
</g>
<defs>
<clipPath id="clip0_5_677">
<rect width="16" height="16" fill="white"/>
</clipPath>
</defs>
</svg>
