<svg width="16" height="16" viewBox="0 0 16 16" fill="none" xmlns="http://www.w3.org/2000/svg">
<g clip-path="url(#clip0_5_337)">
<path d="M15.3538 9.14625C15.4476 9.24007 15.5003 9.36732 15.5003 9.5C15.5003 9.63268 15.4476 9.75993 15.3538 9.85375C15.2599 9.94757 15.1327 10.0003 15 10.0003C14.8673 10.0003 14.7401 9.94757 14.6462 9.85375L13.5 8.70687L12.3538 9.85375C12.2599 9.94757 12.1327 10.0003 12 10.0003C11.8673 10.0003 11.7401 9.94757 11.6462 9.85375C11.5524 9.75993 11.4997 9.63268 11.4997 9.5C11.4997 9.36732 11.5524 9.24007 11.6462 9.14625L12.7931 8L11.6462 6.85375C11.5524 6.75993 11.4997 6.63268 11.4997 6.5C11.4997 6.36732 11.5524 6.24007 11.6462 6.14625C11.7401 6.05243 11.8673 5.99972 12 5.99972C12.1327 5.99972 12.2599 6.05243 12.3538 6.14625L13.5 7.29312L14.6462 6.14625C14.7401 6.05243 14.8673 5.99972 15 5.99972C15.1327 5.99972 15.2599 6.05243 15.3538 6.14625C15.4476 6.24007 15.5003 6.36732 15.5003 6.5C15.5003 6.63268 15.4476 6.75993 15.3538 6.85375L14.2069 8L15.3538 9.14625ZM3.75 5H2C1.73478 5 1.48043 5.10536 1.29289 5.29289C1.10536 5.48043 1 5.73478 1 6V10C1 10.2652 1.10536 10.5196 1.29289 10.7071C1.48043 10.8946 1.73478 11 2 11H3.75C3.8163 11 3.87989 10.9737 3.92678 10.9268C3.97366 10.8799 4 10.8163 4 10.75V5.25C4 5.1837 3.97366 5.12011 3.92678 5.07322C3.87989 5.02634 3.8163 5 3.75 5ZM9.82187 1.61562C9.73433 1.54319 9.62474 1.50274 9.51113 1.50092C9.39752 1.4991 9.28669 1.53603 9.19687 1.60562L5.09875 4.79312C5.06835 4.81622 5.04364 4.84597 5.02653 4.8801C5.00941 4.91423 5.00033 4.95182 5 4.99V11.01C5.00011 11.048 5.0089 11.0855 5.02568 11.1196C5.04247 11.1537 5.06682 11.1836 5.09688 11.2069L9.195 14.3944C9.27437 14.4561 9.3705 14.4924 9.47085 14.4987C9.57119 14.5049 9.67109 14.4808 9.7575 14.4294C9.83354 14.3821 9.89602 14.3159 9.93885 14.2372C9.98168 14.1586 10.0034 14.0702 10.0019 13.9806V2.01562C10.0028 1.93968 9.98699 1.86447 9.95556 1.79534C9.92412 1.7262 9.87784 1.66484 9.82 1.61562H9.82187Z" fill="black"/>
</g>
<defs>
<clipPath id="clip0_5_337">
<rect width="16" height="16" fill="white"/>
</clipPath>
</defs>
</svg>
