<svg width="16" height="16" viewBox="0 0 16 16" fill="none" xmlns="http://www.w3.org/2000/svg">
<g clip-path="url(#clip0_5_702)">
<path d="M10 2.01562V13.9806C10.0015 14.0702 9.97981 14.1586 9.93698 14.2372C9.89415 14.3159 9.83167 14.3821 9.75562 14.4294C9.66922 14.4808 9.56932 14.5049 9.46897 14.4987C9.36863 14.4924 9.2725 14.4561 9.19312 14.3944L5.095 11.2069C5.06529 11.1834 5.0413 11.1535 5.02484 11.1194C5.00838 11.0853 4.99989 11.0479 5 11.01V4.99C5.00011 4.95198 5.0089 4.91448 5.02568 4.88037C5.04247 4.84625 5.06682 4.81641 5.09688 4.79312L9.195 1.60562C9.28481 1.53603 9.39565 1.4991 9.50926 1.50092C9.62286 1.50274 9.73246 1.54319 9.82 1.61562C9.8775 1.66502 9.92343 1.72646 9.95454 1.79558C9.98564 1.86471 10.0012 1.93983 10 2.01562ZM3.75 5H2C1.73478 5 1.48043 5.10536 1.29289 5.29289C1.10536 5.48043 1 5.73478 1 6V10C1 10.2652 1.10536 10.5196 1.29289 10.7071C1.48043 10.8946 1.73478 11 2 11H3.75C3.8163 11 3.87989 10.9737 3.92678 10.9268C3.97366 10.8799 4 10.8163 4 10.75V5.25C4 5.1837 3.97366 5.12011 3.92678 5.07322C3.87989 5.02634 3.8163 5 3.75 5ZM12.375 6.3475C12.3319 6.29706 12.2793 6.2557 12.22 6.22582C12.1608 6.19595 12.0963 6.17815 12.0301 6.17346C11.9639 6.16878 11.8975 6.1773 11.8347 6.19854C11.7718 6.21978 11.7139 6.2533 11.6641 6.29717C11.6144 6.34103 11.5738 6.39435 11.5449 6.45403C11.516 6.5137 11.4992 6.57854 11.4955 6.64476C11.4919 6.71099 11.5015 6.77728 11.5237 6.83977C11.5459 6.90225 11.5804 6.9597 11.625 7.00875C11.8662 7.28264 11.9992 7.63506 11.9992 8C11.9992 8.36493 11.8662 8.71735 11.625 8.99125C11.5804 9.0403 11.5459 9.09774 11.5237 9.16023C11.5015 9.22272 11.4919 9.28901 11.4955 9.35523C11.4992 9.42146 11.516 9.4863 11.5449 9.54597C11.5738 9.60565 11.6144 9.65897 11.6641 9.70283C11.7139 9.74669 11.7718 9.78022 11.8347 9.80146C11.8975 9.8227 11.9639 9.83122 12.0301 9.82654C12.0963 9.82185 12.1608 9.80405 12.22 9.77417C12.2793 9.7443 12.3319 9.70293 12.375 9.6525C12.7772 9.19595 12.999 8.60842 12.999 8C12.999 7.39158 12.7772 6.80405 12.375 6.3475Z" fill="black"/>
</g>
<defs>
<clipPath id="clip0_5_702">
<rect width="16" height="16" fill="white"/>
</clipPath>
</defs>
</svg>
