<svg width="16" height="16" viewBox="0 0 16 16" fill="none" xmlns="http://www.w3.org/2000/svg">
<g clip-path="url(#clip0_5_339)">
<path d="M13.87 13.1637C13.9151 13.2122 13.9501 13.2691 13.973 13.3311C13.996 13.3932 14.0064 13.4592 14.0036 13.5253C14.0008 13.5914 13.985 13.6563 13.9569 13.7163C13.9289 13.7762 13.8893 13.83 13.8403 13.8745C13.7913 13.919 13.734 13.9533 13.6717 13.9755C13.6094 13.9977 13.5432 14.0073 13.4772 14.0037C13.4111 14.0002 13.3464 13.9835 13.2868 13.9548C13.2272 13.926 13.1739 13.8857 13.13 13.8362L10.5 10.9431V13.9806C10.5015 14.0702 10.4798 14.1586 10.437 14.2372C10.3941 14.3159 10.3317 14.3821 10.2556 14.4294C10.1692 14.4808 10.0693 14.5049 9.96897 14.4987C9.86863 14.4924 9.7725 14.4561 9.69312 14.3944L5.32812 11H2.5C2.23478 11 1.98043 10.8946 1.79289 10.7071C1.60536 10.5196 1.5 10.2652 1.5 10V6C1.5 5.73478 1.60536 5.48043 1.79289 5.29289C1.98043 5.10536 2.23478 5 2.5 5H5.09688L3.13 2.83625C3.04269 2.73783 2.99769 2.60896 3.00475 2.47758C3.01182 2.3462 3.07039 2.2229 3.16776 2.13441C3.26513 2.04592 3.39345 1.99938 3.5249 2.00487C3.65636 2.01036 3.78035 2.06745 3.87 2.16375L13.87 13.1637ZM12.5331 10C12.6617 9.98895 12.7813 9.92964 12.8679 9.83398C12.9546 9.73832 13.0017 9.61341 13 9.48437V6.51687C13.0021 6.38762 12.955 6.26241 12.8684 6.16648C12.7817 6.07055 12.6619 6.01106 12.5331 6C12.4647 5.99546 12.3961 6.00503 12.3316 6.02811C12.2671 6.0512 12.208 6.08731 12.158 6.1342C12.108 6.18109 12.0681 6.23776 12.041 6.30068C12.0138 6.36361 11.9998 6.43146 12 6.5V9.5C11.9998 9.56854 12.0138 9.63638 12.041 9.69931C12.0681 9.76224 12.108 9.81891 12.158 9.8658C12.208 9.91269 12.2671 9.9488 12.3316 9.97188C12.3961 9.99497 12.4647 10.0045 12.5331 10ZM10.0625 7.49187C10.0963 7.53019 10.141 7.55723 10.1906 7.56937C10.2402 7.58152 10.2923 7.57817 10.34 7.55979C10.3876 7.54141 10.4285 7.50888 10.4571 7.46656C10.4857 7.42425 10.5007 7.37419 10.5 7.32312V2.015C10.5012 1.9393 10.4856 1.86427 10.4545 1.79525C10.4234 1.72622 10.3775 1.6649 10.32 1.61562C10.2325 1.54319 10.1229 1.50274 10.0093 1.50092C9.89565 1.4991 9.78481 1.53603 9.695 1.60562L6.98938 3.70812C6.96218 3.72929 6.93966 3.75585 6.92322 3.78613C6.90679 3.81642 6.89679 3.84977 6.89385 3.88411C6.89092 3.91844 6.89511 3.95301 6.90617 3.98564C6.91723 4.01828 6.93492 4.04828 6.95813 4.07375L10.0625 7.49187ZM14.4669 5C14.3381 5.01106 14.2183 5.07055 14.1316 5.16648C14.045 5.26241 13.9979 5.38762 14 5.51687V10.4831C13.9983 10.6122 14.0454 10.7371 14.1321 10.8327C14.2187 10.9284 14.3383 10.9877 14.4669 10.9987C14.5353 11.0033 14.6039 10.9937 14.6684 10.9706C14.7329 10.9475 14.792 10.9114 14.842 10.8645C14.892 10.8177 14.9319 10.761 14.959 10.6981C14.9862 10.6351 15.0002 10.5673 15 10.4987V5.5C15.0002 5.43146 14.9862 5.36361 14.959 5.30069C14.9319 5.23776 14.892 5.18109 14.842 5.1342C14.792 5.08731 14.7329 5.0512 14.6684 5.02811C14.6039 5.00503 14.5353 4.99546 14.4669 5Z" fill="black"/>
</g>
<defs>
<clipPath id="clip0_5_339">
<rect width="16" height="16" fill="white"/>
</clipPath>
</defs>
</svg>
