<svg width="16" height="16" viewBox="0 0 16 16" fill="none" xmlns="http://www.w3.org/2000/svg">
<g clip-path="url(#clip0_5_752)">
<path d="M10.5 1.99999V14C10.4999 14.0936 10.4736 14.1852 10.424 14.2646C10.3745 14.3439 10.3036 14.4077 10.2196 14.4488C10.1355 14.4899 10.0416 14.5066 9.94855 14.497C9.85548 14.4873 9.76699 14.4518 9.69312 14.3944L5.32812 11H2.5C2.23478 11 1.98043 10.8946 1.79289 10.7071C1.60536 10.5196 1.5 10.2652 1.5 9.99999V5.99999C1.5 5.73478 1.60536 5.48042 1.79289 5.29288C1.98043 5.10535 2.23478 4.99999 2.5 4.99999H5.32812L9.69312 1.60562C9.76699 1.54819 9.85548 1.51265 9.94855 1.50302C10.0416 1.49339 10.1355 1.51007 10.2196 1.55115C10.3036 1.59224 10.3745 1.65608 10.424 1.73543C10.4736 1.81477 10.4999 1.90643 10.5 1.99999ZM12.5 5.99999C12.3674 5.99999 12.2402 6.05267 12.1464 6.14644C12.0527 6.24021 12 6.36738 12 6.49999V9.49999C12 9.6326 12.0527 9.75978 12.1464 9.85355C12.2402 9.94731 12.3674 9.99999 12.5 9.99999C12.6326 9.99999 12.7598 9.94731 12.8536 9.85355C12.9473 9.75978 13 9.6326 13 9.49999V6.49999C13 6.36738 12.9473 6.24021 12.8536 6.14644C12.7598 6.05267 12.6326 5.99999 12.5 5.99999ZM14.5 4.99999C14.3674 4.99999 14.2402 5.05267 14.1464 5.14644C14.0527 5.24021 14 5.36738 14 5.49999V10.5C14 10.6326 14.0527 10.7598 14.1464 10.8535C14.2402 10.9473 14.3674 11 14.5 11C14.6326 11 14.7598 10.9473 14.8536 10.8535C14.9473 10.7598 15 10.6326 15 10.5V5.49999C15 5.36738 14.9473 5.24021 14.8536 5.14644C14.7598 5.05267 14.6326 4.99999 14.5 4.99999Z" fill="black"/>
</g>
<defs>
<clipPath id="clip0_5_752">
<rect width="16" height="16" fill="white"/>
</clipPath>
</defs>
</svg>
