<svg width="16" height="16" viewBox="0 0 16 16" fill="none" xmlns="http://www.w3.org/2000/svg">
<g clip-path="url(#clip0_5_338)">
<path d="M13.37 13.1637C13.4151 13.2122 13.4501 13.2691 13.473 13.3311C13.496 13.3932 13.5064 13.4592 13.5036 13.5253C13.5008 13.5914 13.485 13.6563 13.4569 13.7163C13.4289 13.7762 13.3893 13.83 13.3403 13.8745C13.2913 13.919 13.234 13.9533 13.1717 13.9755C13.1094 13.9977 13.0432 14.0073 12.9772 14.0037C12.9111 14.0002 12.8464 13.9835 12.7868 13.9548C12.7272 13.926 12.6739 13.8857 12.63 13.8362L10 10.9431V13.9806C10.0015 14.0702 9.97981 14.1586 9.93698 14.2372C9.89415 14.3159 9.83167 14.3821 9.75562 14.4294C9.66922 14.4808 9.56932 14.5049 9.46897 14.4987C9.36863 14.4924 9.2725 14.4561 9.19312 14.3944L5.09625 11.2069C5.06647 11.1837 5.04235 11.154 5.02568 11.1201C5.00901 11.0862 5.00023 11.049 5 11.0112V5.44312L2.63 2.83625C2.58492 2.78782 2.54989 2.73093 2.52696 2.66886C2.50403 2.6068 2.49364 2.5408 2.4964 2.47469C2.49917 2.40858 2.51502 2.34368 2.54305 2.28375C2.57108 2.22381 2.61073 2.17004 2.65969 2.12554C2.70866 2.08104 2.76597 2.0467 2.82831 2.02451C2.89064 2.00232 2.95676 1.99273 3.02283 1.99628C3.0889 1.99984 3.15361 2.01647 3.2132 2.04522C3.27279 2.07396 3.32609 2.11425 3.37 2.16375L13.37 13.1637ZM11.6694 9.6975C11.7688 9.78525 11.8989 9.82993 12.0312 9.82173C12.1636 9.81352 12.2872 9.7531 12.375 9.65375C12.7772 9.1972 12.999 8.60967 12.999 8.00125C12.999 7.39283 12.7772 6.8053 12.375 6.34875C12.3324 6.29702 12.2798 6.25439 12.2203 6.22339C12.1609 6.1924 12.0958 6.17368 12.029 6.16835C11.9621 6.16301 11.8949 6.17117 11.8313 6.19234C11.7677 6.2135 11.709 6.24725 11.6587 6.29156C11.6084 6.33587 11.5675 6.38985 11.5385 6.45028C11.5094 6.51071 11.4929 6.57636 11.4897 6.64333C11.4866 6.7103 11.4969 6.77721 11.5202 6.8401C11.5434 6.90298 11.5791 6.96055 11.625 7.00937C11.8662 7.28327 11.9992 7.63569 11.9992 8.00062C11.9992 8.36556 11.8662 8.71798 11.625 8.99187C11.5373 9.09134 11.4928 9.22155 11.5011 9.35388C11.5094 9.4862 11.5699 9.6098 11.6694 9.6975ZM14.2269 4.66687C14.1839 4.61545 14.1309 4.57321 14.0712 4.54265C14.0116 4.5121 13.9463 4.49386 13.8795 4.48902C13.8126 4.48418 13.7454 4.49284 13.682 4.51449C13.6185 4.53613 13.5601 4.57032 13.5101 4.61501C13.4601 4.65971 13.4196 4.714 13.3911 4.77466C13.3625 4.83531 13.3464 4.90109 13.3438 4.96809C13.3411 5.03509 13.352 5.10193 13.3757 5.16464C13.3995 5.22735 13.4356 5.28465 13.4819 5.33312C14.1379 6.06651 14.5006 7.01599 14.5006 8C14.5006 8.984 14.1379 9.93349 13.4819 10.6669C13.4356 10.7154 13.3995 10.7727 13.3757 10.8354C13.352 10.8981 13.3411 10.9649 13.3438 11.0319C13.3464 11.0989 13.3625 11.1647 13.3911 11.2253C13.4196 11.286 13.4601 11.3403 13.5101 11.385C13.5601 11.4297 13.6185 11.4639 13.682 11.4855C13.7454 11.5072 13.8126 11.5158 13.8795 11.511C13.9463 11.5061 14.0116 11.4879 14.0712 11.4573C14.1309 11.4268 14.1839 11.3845 14.2269 11.3331C15.0467 10.4164 15.4999 9.22979 15.4999 8C15.4999 6.77021 15.0467 5.58355 14.2269 4.66687ZM9.5625 7.49187C9.59628 7.53019 9.64098 7.55723 9.69059 7.56937C9.7402 7.58152 9.79234 7.57817 9.83999 7.55979C9.88764 7.54141 9.92852 7.50888 9.95713 7.46656C9.98574 7.42425 10.0007 7.37419 10 7.32312V2.01562C10.0012 1.93983 9.98564 1.86471 9.95454 1.79558C9.92343 1.72646 9.8775 1.66502 9.82 1.61562C9.73246 1.54319 9.62286 1.50274 9.50926 1.50092C9.39565 1.4991 9.28481 1.53603 9.195 1.60562L6.48938 3.70812C6.46218 3.72929 6.43966 3.75585 6.42322 3.78613C6.40679 3.81642 6.39679 3.84977 6.39385 3.88411C6.39092 3.91844 6.39511 3.95301 6.40617 3.98564C6.41723 4.01828 6.43492 4.04828 6.45813 4.07375L9.5625 7.49187ZM3.75 5H2C1.73478 5 1.48043 5.10536 1.29289 5.29289C1.10536 5.48043 1 5.73478 1 6V10C1 10.2652 1.10536 10.5196 1.29289 10.7071C1.48043 10.8946 1.73478 11 2 11H3.75C3.8163 11 3.87989 10.9737 3.92678 10.9268C3.97366 10.8799 4 10.8163 4 10.75V5.25C4 5.1837 3.97366 5.12011 3.92678 5.07322C3.87989 5.02634 3.8163 5 3.75 5Z" fill="black"/>
</g>
<defs>
<clipPath id="clip0_5_338">
<rect width="16" height="16" fill="white"/>
</clipPath>
</defs>
</svg>
