<svg width="16" height="16" viewBox="0 0 16 16" fill="none" xmlns="http://www.w3.org/2000/svg">
<g clip-path="url(#clip0_5_336)">
<path d="M13.8669 5.67872C13.8464 5.64776 13.8193 5.62173 13.7876 5.60254C13.7558 5.58335 13.7202 5.57147 13.6833 5.56775C13.6463 5.56404 13.609 5.5686 13.5741 5.58109C13.5392 5.59358 13.5074 5.61369 13.4812 5.63997L8.76748 10.3537C8.67208 10.4385 8.54787 10.4836 8.42029 10.4798C8.29272 10.4759 8.17144 10.4234 8.08131 10.3331C7.99118 10.2427 7.93902 10.1213 7.93552 9.9937C7.93202 9.86611 7.97744 9.74202 8.06248 9.64685L13.8562 3.85372C13.9027 3.80726 13.9395 3.75211 13.9647 3.69142C13.9898 3.63072 14.0028 3.56567 14.0028 3.49997C14.0028 3.43427 13.9898 3.36922 13.9647 3.30852C13.9395 3.24782 13.9027 3.19267 13.8562 3.14622C13.8098 3.09976 13.7546 3.06291 13.6939 3.03777C13.6332 3.01263 13.5682 2.99969 13.5025 2.99969C13.4368 2.99969 13.3717 3.01263 13.311 3.03777C13.2503 3.06291 13.1952 3.09976 13.1487 3.14622L12.3125 3.98309C11.119 3.05102 9.65564 2.53088 8.14165 2.50066C6.62767 2.47044 5.14467 2.93177 3.91499 3.81549C2.68531 4.6992 1.7752 5.95769 1.32109 7.40229C0.866981 8.84688 0.893348 10.3997 1.39623 11.8281C1.46513 12.0239 1.59295 12.1936 1.76215 12.3139C1.93135 12.4342 2.13363 12.4992 2.34123 12.5H13.6581C13.8655 12.5001 14.0678 12.4357 14.237 12.3158C14.4062 12.1959 14.5339 12.0263 14.6025 11.8306C14.9589 10.8173 15.0779 9.73565 14.9504 8.66908C14.8228 7.6025 14.4521 6.57944 13.8669 5.67872ZM3.58998 10.4006C3.61633 10.5306 3.58998 10.6656 3.51673 10.7762C3.44347 10.8867 3.32931 10.9636 3.19936 10.99C3.16645 10.9967 3.13295 11.0001 3.09936 11C2.98411 10.9998 2.87246 10.9599 2.78328 10.8869C2.69411 10.8139 2.63289 10.7123 2.60998 10.5993C2.43119 9.71919 2.4705 8.80866 2.7245 7.9472C2.97849 7.08573 3.43945 6.29951 4.06714 5.65715C4.69484 5.01478 5.4702 4.53579 6.32556 4.26196C7.18093 3.98814 8.09031 3.9278 8.97436 4.08622C9.1049 4.10959 9.2208 4.18386 9.29658 4.29269C9.37235 4.40152 9.40179 4.536 9.37842 4.66653C9.35505 4.79707 9.28078 4.91297 9.17195 4.98875C9.06312 5.06453 8.92865 5.09397 8.79811 5.07059C8.07468 4.94108 7.33055 4.99055 6.63063 5.21468C5.93071 5.43881 5.29626 5.8308 4.78263 6.35645C4.269 6.8821 3.89179 7.52544 3.6839 8.23036C3.47602 8.93528 3.44377 9.68035 3.58998 10.4006Z" fill="black"/>
</g>
<defs>
<clipPath id="clip0_5_336">
<rect width="16" height="16" fill="white"/>
</clipPath>
</defs>
</svg>
