<svg width="16" height="16" viewBox="0 0 16 16" fill="none" xmlns="http://www.w3.org/2000/svg">
<g clip-path="url(#clip0_5_335)">
<path d="M8 1.5C6.71442 1.5 5.45772 1.88122 4.3888 2.59545C3.31988 3.30968 2.48676 4.32484 1.99479 5.51256C1.50282 6.70028 1.37409 8.00721 1.6249 9.26809C1.8757 10.529 2.49477 11.6872 3.40381 12.5962C4.31285 13.5052 5.47104 14.1243 6.73192 14.3751C7.99279 14.6259 9.29973 14.4972 10.4874 14.0052C11.6752 13.5132 12.6903 12.6801 13.4046 11.6112C14.1188 10.5423 14.5 9.28558 14.5 8C14.4982 6.27665 13.8128 4.62441 12.5942 3.40582C11.3756 2.18722 9.72335 1.50182 8 1.5ZM8 2.5C8.50938 2.5 9.5 4.44125 9.5 8C9.5 8.515 9.47875 8.995 9.44188 9.44188C8.995 9.47875 8.515 9.5 8 9.5C4.44125 9.5 2.5 8.50938 2.5 8C2.50166 6.54182 3.08165 5.14383 4.11274 4.11274C5.14383 3.08165 6.54182 2.50165 8 2.5ZM2.7125 9.51625C3.955 10.1656 5.985 10.5 8 10.5C8.44313 10.5 8.88688 10.4837 9.32313 10.4519C9.01438 12.4375 8.375 13.5 8 13.5C6.80606 13.4984 5.64493 13.1091 4.69135 12.3906C3.73777 11.6722 3.04332 10.6634 2.7125 9.51625Z" fill="black"/>
</g>
<defs>
<clipPath id="clip0_5_335">
<rect width="16" height="16" fill="white"/>
</clipPath>
</defs>
</svg>
