<svg width="16" height="16" viewBox="0 0 16 16" fill="none" xmlns="http://www.w3.org/2000/svg">
<g clip-path="url(#clip0_5_334)">
<path d="M8 1.5C6.71442 1.5 5.45772 1.88122 4.3888 2.59545C3.31988 3.30968 2.48676 4.32484 1.99479 5.51256C1.50282 6.70028 1.37409 8.00721 1.6249 9.26809C1.8757 10.529 2.49477 11.6872 3.40381 12.5962C4.31285 13.5052 5.47104 14.1243 6.73192 14.3751C7.99279 14.6259 9.29973 14.4972 10.4874 14.0052C11.6752 13.5132 12.6903 12.6801 13.4046 11.6112C14.1188 10.5423 14.5 9.28558 14.5 8C14.4982 6.27665 13.8128 4.62441 12.5942 3.40582C11.3756 2.18722 9.72335 1.50182 8 1.5ZM10.4444 3.07437C10.64 5.23187 9.6875 6.215 8.4375 7.10063C8.29688 5.57063 7.91 3.98813 6.03938 2.86188C6.74863 2.59085 7.50638 2.4698 8.26477 2.50638C9.02317 2.54295 9.76574 2.73636 10.4456 3.07437H10.4444ZM2.51125 8.34625C4.2825 7.09625 5.60938 7.42875 7.00313 8.07187C5.75 8.95875 4.57438 10.085 4.5325 12.2662C3.94311 11.7879 3.45922 11.1926 3.11134 10.5179C2.76346 9.84326 2.55913 9.10382 2.51125 8.34625ZM11.0425 12.5794C9.07688 11.67 8.70063 10.3556 8.56063 8.82938C9.35563 9.19563 10.205 9.50125 11.1419 9.50125C11.85 9.50125 12.6081 9.32625 13.4313 8.87125C13.3098 9.62049 13.035 10.3366 12.6239 10.9747C12.2129 11.6127 11.6745 12.159 11.0425 12.5794Z" fill="black"/>
</g>
<defs>
<clipPath id="clip0_5_334">
<rect width="16" height="16" fill="white"/>
</clipPath>
</defs>
</svg>
