<svg width="16" height="16" viewBox="0 0 16 16" fill="none" xmlns="http://www.w3.org/2000/svg">
<g clip-path="url(#clip0_5_332)">
<path d="M8 1.5C6.71442 1.5 5.45772 1.88122 4.3888 2.59545C3.31988 3.30968 2.48676 4.32484 1.99479 5.51256C1.50282 6.70028 1.37409 8.00721 1.6249 9.26809C1.8757 10.529 2.49477 11.6872 3.40381 12.5962C4.31285 13.5052 5.47104 14.1243 6.73192 14.3751C7.99279 14.6259 9.29973 14.4972 10.4874 14.0052C11.6752 13.5132 12.6903 12.6801 13.4046 11.6112C14.1188 10.5423 14.5 9.28558 14.5 8C14.4982 6.27665 13.8128 4.62441 12.5942 3.40582C11.3756 2.18722 9.72335 1.50182 8 1.5ZM3 8.5C2.86739 8.5 2.74022 8.44732 2.64645 8.35355C2.55268 8.25979 2.5 8.13261 2.5 8C2.5 7.86739 2.55268 7.74021 2.64645 7.64645C2.74022 7.55268 2.86739 7.5 3 7.5H4.5C4.63261 7.5 4.75979 7.55268 4.85356 7.64645C4.94732 7.74021 5 7.86739 5 8C5 8.13261 4.94732 8.25979 4.85356 8.35355C4.75979 8.44732 4.63261 8.5 4.5 8.5H3ZM5.87875 10.8281L4.81625 11.8906C4.7698 11.9371 4.71465 11.9739 4.65395 11.9991C4.59325 12.0242 4.5282 12.0372 4.4625 12.0372C4.39681 12.0372 4.33175 12.0242 4.27105 11.9991C4.21036 11.9739 4.15521 11.9371 4.10875 11.8906C4.0623 11.8442 4.02545 11.789 4.00031 11.7283C3.97516 11.6676 3.96222 11.6026 3.96222 11.5369C3.96222 11.4712 3.97516 11.4061 4.00031 11.3454C4.02545 11.2847 4.0623 11.2296 4.10875 11.1831L5.17125 10.1206C5.26578 10.0308 5.39166 9.98149 5.52204 9.98316C5.65242 9.98482 5.77699 10.0374 5.86919 10.1296C5.96139 10.2218 6.01393 10.3463 6.0156 10.4767C6.01727 10.6071 5.96794 10.733 5.87813 10.8275L5.87875 10.8281ZM5.87875 5.87875C5.78499 5.97245 5.65787 6.02508 5.52532 6.02508C5.39276 6.02508 5.26564 5.97245 5.17188 5.87875L4.10938 4.81625C4.06305 4.76971 4.02633 4.71451 4.00134 4.65378C3.97634 4.59306 3.96355 4.528 3.9637 4.46233C3.96399 4.32971 4.01695 4.20263 4.11094 4.10906C4.20493 4.01549 4.33223 3.96309 4.46486 3.96338C4.59748 3.96367 4.72456 4.01664 4.81813 4.11062L5.88063 5.17312C5.97369 5.26708 6.02575 5.39408 6.0254 5.52632C6.02505 5.65857 5.97232 5.78529 5.87875 5.87875ZM8.5 13C8.5 13.1326 8.44732 13.2598 8.35356 13.3536C8.25979 13.4473 8.13261 13.5 8 13.5C7.86739 13.5 7.74022 13.4473 7.64645 13.3536C7.55268 13.2598 7.5 13.1326 7.5 13V11.5C7.5 11.3674 7.55268 11.2402 7.64645 11.1464C7.74022 11.0527 7.86739 11 8 11C8.13261 11 8.25979 11.0527 8.35356 11.1464C8.44732 11.2402 8.5 11.3674 8.5 11.5V13ZM8.5 4.5C8.5 4.63261 8.44732 4.75979 8.35356 4.85355C8.25979 4.94732 8.13261 5 8 5C7.86739 5 7.74022 4.94732 7.64645 4.85355C7.55268 4.75979 7.5 4.63261 7.5 4.5V3C7.5 2.86739 7.55268 2.74021 7.64645 2.64645C7.74022 2.55268 7.86739 2.5 8 2.5C8.13261 2.5 8.25979 2.55268 8.35356 2.64645C8.44732 2.74021 8.5 2.86739 8.5 3V4.5ZM11.8894 11.8894C11.8429 11.9359 11.7878 11.9727 11.7271 11.9979C11.6664 12.0231 11.6013 12.036 11.5356 12.036C11.4699 12.036 11.4049 12.0231 11.3442 11.9979C11.2835 11.9727 11.2283 11.9359 11.1819 11.8894L10.1194 10.8269C10.0296 10.7323 9.98024 10.6065 9.98191 10.4761C9.98358 10.3457 10.0361 10.2211 10.1283 10.1289C10.2205 10.0367 10.3451 9.9842 10.4755 9.98253C10.6058 9.98086 10.7317 10.0302 10.8263 10.12L11.8888 11.1825C11.9825 11.2762 12.0353 11.4033 12.0354 11.5358C12.0355 11.6684 11.983 11.7955 11.8894 11.8894ZM13 8.5H11.5C11.3674 8.5 11.2402 8.44732 11.1464 8.35355C11.0527 8.25979 11 8.13261 11 8C11 7.86739 11.0527 7.74021 11.1464 7.64645C11.2402 7.55268 11.3674 7.5 11.5 7.5H13C13.1326 7.5 13.2598 7.55268 13.3536 7.64645C13.4473 7.74021 13.5 7.86739 13.5 8C13.5 8.13261 13.4473 8.25979 13.3536 8.35355C13.2598 8.44732 13.1326 8.5 13 8.5Z" fill="black"/>
</g>
<defs>
<clipPath id="clip0_5_332">
<rect width="16" height="16" fill="white"/>
</clipPath>
</defs>
</svg>
