<svg width="16" height="16" viewBox="0 0 16 16" fill="none" xmlns="http://www.w3.org/2000/svg">
<g clip-path="url(#clip0_5_331)">
<path d="M15.5 9C15.5 9.13261 15.4473 9.25979 15.3536 9.35355C15.2598 9.44732 15.1326 9.5 15 9.5C14.8674 9.5 14.7402 9.44732 14.6464 9.35355C14.5527 9.25979 14.5 9.13261 14.5 9C14.4982 7.40926 13.8655 5.88419 12.7406 4.75937C11.6158 3.63454 10.0907 3.00182 8.5 3C8.4125 3 8.325 3 8.23875 3.00625C6.95986 3.07408 5.75566 3.62969 4.87411 4.55868C3.99255 5.48767 3.50076 6.71931 3.5 8C3.50116 9.06051 3.92296 10.0773 4.67285 10.8271C5.42275 11.577 6.43949 11.9988 7.5 12C8.22909 11.9992 8.92808 11.7092 9.44363 11.1936C9.95918 10.6781 10.2492 9.97909 10.25 9.25C10.25 8.71957 10.0393 8.21086 9.66421 7.83579C9.28914 7.46071 8.78043 7.25 8.25 7.25C8.11739 7.25 7.99021 7.30268 7.89645 7.39645C7.80268 7.49021 7.75 7.61739 7.75 7.75C7.75 7.88261 7.80268 8.00979 7.89645 8.10355C7.99021 8.19732 8.11739 8.25 8.25 8.25C8.51522 8.25 8.76957 8.35536 8.95711 8.54289C9.14464 8.73043 9.25 8.98478 9.25 9.25C9.25 9.71413 9.06563 10.1592 8.73744 10.4874C8.40925 10.8156 7.96413 11 7.5 11C6.7046 10.9992 5.94202 10.6828 5.37959 10.1204C4.81716 9.55798 4.50083 8.7954 4.5 8C4.50116 6.93949 4.92296 5.92275 5.67285 5.17285C6.42275 4.42296 7.43949 4.00116 8.5 4C9.82563 4.00149 11.0965 4.52875 12.0339 5.46611C12.9712 6.40347 13.4985 7.67437 13.5 9C13.4983 10.4582 12.9184 11.8562 11.8873 12.8873C10.8562 13.9184 9.45818 14.4983 8 14.5C6.40926 14.4982 4.88419 13.8655 3.75937 12.7406C2.63455 11.6158 2.00182 10.0907 2 8.5C2.00182 6.77665 2.68722 5.12441 3.90582 3.90582C5.12441 2.68722 6.77665 2.00182 8.5 2C10.3559 2.00199 12.1352 2.74012 13.4476 4.05245C14.7599 5.36477 15.498 7.14409 15.5 9Z" fill="black"/>
</g>
<defs>
<clipPath id="clip0_5_331">
<rect width="16" height="16" fill="white"/>
</clipPath>
</defs>
</svg>
