<svg width="16" height="16" viewBox="0 0 16 16" fill="none" xmlns="http://www.w3.org/2000/svg">
<g clip-path="url(#clip0_5_329)">
<path d="M13.5 9.50003C13.5 9.63264 13.4473 9.75981 13.3536 9.85358C13.2598 9.94735 13.1326 10 13 10H8.5V12H10C10.0989 11.9999 10.1957 12.0292 10.278 12.0842C10.3603 12.1391 10.4244 12.2172 10.4623 12.3086C10.5002 12.4 10.5101 12.5006 10.4908 12.5977C10.4714 12.6947 10.4238 12.7838 10.3538 12.8538L8.35375 14.8538C8.30731 14.9003 8.25217 14.9371 8.19147 14.9623C8.13077 14.9875 8.06571 15.0004 8 15.0004C7.93429 15.0004 7.86923 14.9875 7.80853 14.9623C7.74783 14.9371 7.69269 14.9003 7.64625 14.8538L5.64625 12.8538C5.57624 12.7838 5.52856 12.6947 5.50924 12.5977C5.48991 12.5006 5.49981 12.4 5.53769 12.3086C5.57556 12.2172 5.63971 12.1391 5.72201 12.0842C5.80431 12.0292 5.90105 11.9999 6 12H7.5V10H3C2.86739 10 2.74021 9.94735 2.64645 9.85358C2.55268 9.75981 2.5 9.63264 2.5 9.50003C2.5 9.36742 2.55268 9.24024 2.64645 9.14647C2.74021 9.0527 2.86739 9.00003 3 9.00003H13C13.1326 9.00003 13.2598 9.0527 13.3536 9.14647C13.4473 9.24024 13.5 9.36742 13.5 9.50003ZM3 7.00003H13C13.1326 7.00003 13.2598 6.94735 13.3536 6.85358C13.4473 6.75981 13.5 6.63264 13.5 6.50003C13.5 6.36742 13.4473 6.24024 13.3536 6.14647C13.2598 6.05271 13.1326 6.00003 13 6.00003H8.5V4.00003H10C10.0989 4.00011 10.1957 3.97082 10.278 3.91589C10.3603 3.86095 10.4244 3.78283 10.4623 3.69142C10.5002 3.60001 10.5101 3.49942 10.4908 3.40237C10.4714 3.30533 10.4238 3.2162 10.3538 3.14628L8.35375 1.14628C8.30731 1.09979 8.25217 1.06291 8.19147 1.03775C8.13077 1.01259 8.06571 0.999634 8 0.999634C7.93429 0.999634 7.86923 1.01259 7.80853 1.03775C7.74783 1.06291 7.69269 1.09979 7.64625 1.14628L5.64625 3.14628C5.57624 3.2162 5.52856 3.30533 5.50924 3.40237C5.48991 3.49942 5.49981 3.60001 5.53769 3.69142C5.57556 3.78283 5.63971 3.86095 5.72201 3.91589C5.80431 3.97082 5.90105 4.00011 6 4.00003H7.5V6.00003H3C2.86739 6.00003 2.74021 6.05271 2.64645 6.14647C2.55268 6.24024 2.5 6.36742 2.5 6.50003C2.5 6.63264 2.55268 6.75981 2.64645 6.85358C2.74021 6.94735 2.86739 7.00003 3 7.00003Z" fill="black"/>
</g>
<defs>
<clipPath id="clip0_5_329">
<rect width="16" height="16" fill="white"/>
</clipPath>
</defs>
</svg>
