<svg width="16" height="16" viewBox="0 0 16 16" fill="none" xmlns="http://www.w3.org/2000/svg">
<g clip-path="url(#clip0_5_330)">
<path d="M6.99991 3V13C6.99991 13.1326 6.94723 13.2598 6.85346 13.3536C6.75969 13.4473 6.63251 13.5 6.49991 13.5C6.3673 13.5 6.24012 13.4473 6.14635 13.3536C6.05258 13.2598 5.99991 13.1326 5.99991 13V8.5H3.99991V10C3.99998 10.0989 3.9707 10.1957 3.91577 10.278C3.86083 10.3603 3.78271 10.4244 3.6913 10.4623C3.59989 10.5002 3.49929 10.5101 3.40225 10.4908C3.30521 10.4714 3.21608 10.4238 3.14616 10.3538L1.14616 8.35375C1.09967 8.30731 1.06279 8.25217 1.03763 8.19147C1.01246 8.13077 0.999512 8.06571 0.999512 8C0.999512 7.93429 1.01246 7.86923 1.03763 7.80853C1.06279 7.74783 1.09967 7.69269 1.14616 7.64625L3.14616 5.64625C3.21608 5.57624 3.30521 5.52856 3.40225 5.50924C3.49929 5.48991 3.59989 5.49981 3.6913 5.53769C3.78271 5.57556 3.86083 5.63971 3.91577 5.72201C3.9707 5.80431 3.99998 5.90105 3.99991 6V7.5H5.99991V3C5.99991 2.86739 6.05258 2.74021 6.14635 2.64645C6.24012 2.55268 6.3673 2.5 6.49991 2.5C6.63251 2.5 6.75969 2.55268 6.85346 2.64645C6.94723 2.74021 6.99991 2.86739 6.99991 3ZM14.8537 7.64625L12.8537 5.64625C12.7837 5.57624 12.6946 5.52856 12.5976 5.50924C12.5005 5.48991 12.3999 5.49981 12.3085 5.53769C12.2171 5.57556 12.139 5.63971 12.084 5.72201C12.0291 5.80431 11.9998 5.90105 11.9999 6V7.5H9.9999V3C9.9999 2.86739 9.94723 2.74021 9.85346 2.64645C9.75969 2.55268 9.63251 2.5 9.4999 2.5C9.3673 2.5 9.24012 2.55268 9.14635 2.64645C9.05258 2.74021 8.9999 2.86739 8.9999 3V13C8.9999 13.1326 9.05258 13.2598 9.14635 13.3536C9.24012 13.4473 9.3673 13.5 9.4999 13.5C9.63251 13.5 9.75969 13.4473 9.85346 13.3536C9.94723 13.2598 9.9999 13.1326 9.9999 13V8.5H11.9999V10C11.9998 10.0989 12.0291 10.1957 12.084 10.278C12.139 10.3603 12.2171 10.4244 12.3085 10.4623C12.3999 10.5002 12.5005 10.5101 12.5976 10.4908C12.6946 10.4714 12.7837 10.4238 12.8537 10.3538L14.8537 8.35375C14.9001 8.30731 14.937 8.25217 14.9622 8.19147C14.9873 8.13077 15.0003 8.06571 15.0003 8C15.0003 7.93429 14.9873 7.86923 14.9622 7.80853C14.937 7.74783 14.9001 7.69269 14.8537 7.64625Z" fill="black"/>
</g>
<defs>
<clipPath id="clip0_5_330">
<rect width="16" height="16" fill="white"/>
</clipPath>
</defs>
</svg>
