<svg width="16" height="16" viewBox="0 0 16 16" fill="none" xmlns="http://www.w3.org/2000/svg">
<g clip-path="url(#clip0_5_328)">
<path d="M8 1.5C6.71442 1.5 5.45772 1.88122 4.3888 2.59545C3.31988 3.30968 2.48676 4.32484 1.99479 5.51256C1.50282 6.70028 1.37409 8.00721 1.6249 9.26809C1.8757 10.529 2.49477 11.6872 3.40381 12.5962C4.31285 13.5052 5.47104 14.1243 6.73192 14.3751C7.99279 14.6259 9.29973 14.4972 10.4874 14.0052C11.6752 13.5132 12.6903 12.6801 13.4046 11.6112C14.1188 10.5423 14.5 9.28558 14.5 8C14.4982 6.27665 13.8128 4.62441 12.5942 3.40582C11.3756 2.18722 9.72335 1.50182 8 1.5ZM9.94188 10.6088C9.87986 10.7259 9.77385 10.8137 9.64716 10.8527C9.52046 10.8917 9.38345 10.8788 9.26625 10.8169C8.87699 10.6076 8.44194 10.4981 8 10.4981C7.55806 10.4981 7.12301 10.6076 6.73375 10.8169C6.61688 10.8756 6.48163 10.8862 6.35702 10.8464C6.23241 10.8066 6.12836 10.7196 6.06719 10.604C6.00603 10.4883 5.99261 10.3533 6.02982 10.2279C6.06704 10.1025 6.15191 9.99668 6.26625 9.93312C6.80047 9.65056 7.39566 9.50285 8 9.50285C8.60435 9.50285 9.19953 9.65056 9.73375 9.93312C9.85092 9.99514 9.93867 10.1012 9.9777 10.2278C10.0167 10.3545 10.0038 10.4916 9.94188 10.6088ZM10.9419 8.85875C10.8795 8.97576 10.7733 9.06322 10.6465 9.1019C10.5196 9.14058 10.3827 9.12731 10.2656 9.065C9.56844 8.69354 8.7906 8.49925 8.00063 8.49925C7.21066 8.49925 6.43281 8.69354 5.73563 9.065C5.61885 9.12464 5.48332 9.13603 5.35824 9.09671C5.23315 9.05738 5.12851 8.97049 5.06688 8.85476C5.00524 8.73902 4.99153 8.60371 5.02871 8.47796C5.06588 8.35222 5.15097 8.24611 5.26563 8.1825C6.10738 7.73363 7.04667 7.49883 8.00063 7.49883C8.95458 7.49883 9.89388 7.73363 10.7356 8.1825C10.7937 8.21342 10.8451 8.25549 10.8868 8.3063C10.9286 8.3571 10.9599 8.41565 10.979 8.47859C10.9981 8.54152 11.0046 8.60761 10.9981 8.67305C10.9917 8.7385 10.9723 8.80203 10.9413 8.86L10.9419 8.85875ZM11.9419 7.10875C11.911 7.16672 11.8689 7.21802 11.8182 7.25973C11.7674 7.30144 11.7089 7.33274 11.6461 7.35184C11.5832 7.37093 11.5172 7.37745 11.4518 7.37103C11.3864 7.3646 11.3229 7.34535 11.265 7.31437C10.261 6.77659 9.13962 6.4952 8.00063 6.4952C6.86164 6.4952 5.74029 6.77659 4.73625 7.31437C4.61923 7.37687 4.48217 7.39031 4.35523 7.35175C4.22829 7.31319 4.12187 7.22578 4.05938 7.10875C3.99689 6.99172 3.98344 6.85466 4.02201 6.72773C4.06057 6.60079 4.14798 6.49437 4.265 6.43188C5.41412 5.81689 6.69729 5.49512 8.00063 5.49512C9.30396 5.49512 10.5871 5.81689 11.7363 6.43188C11.7943 6.46285 11.8457 6.50498 11.8875 6.55586C11.9292 6.60674 11.9605 6.66536 11.9796 6.72837C11.9986 6.79137 12.005 6.85751 11.9985 6.923C11.9919 6.98849 11.9724 7.05204 11.9413 7.11L11.9419 7.10875Z" fill="black"/>
</g>
<defs>
<clipPath id="clip0_5_328">
<rect width="16" height="16" fill="white"/>
</clipPath>
</defs>
</svg>
