<svg width="16" height="16" viewBox="0 0 16 16" fill="none" xmlns="http://www.w3.org/2000/svg">
<g clip-path="url(#clip0_5_327)">
<path d="M12.5 5C12.6326 5 12.7598 4.94732 12.8536 4.85355C12.9473 4.75979 13 4.63261 13 4.5C12.999 3.57205 12.6299 2.68238 11.9738 2.02622C11.3176 1.37006 10.428 1.00099 9.5 1H5C4.73478 1 4.48043 1.10536 4.29289 1.29289C4.10536 1.48043 4 1.73478 4 2V5C4 5.39782 3.84196 5.77936 3.56066 6.06066C3.27936 6.34196 2.89782 6.5 2.5 6.5C2.36739 6.5 2.24021 6.55268 2.14645 6.64645C2.05268 6.74021 2 6.86739 2 7C2 7.13261 2.05268 7.25979 2.14645 7.35355C2.24021 7.44732 2.36739 7.5 2.5 7.5C3.16304 7.5 3.79893 7.23661 4.26777 6.76777C4.73661 6.29893 5 5.66304 5 5H7V6.53875C7.00064 6.76376 6.95037 6.986 6.85296 7.18883C6.75555 7.39166 6.61352 7.56983 6.4375 7.71L5.4375 8.50937C5.14419 8.74299 4.90751 9.03991 4.74516 9.37792C4.58281 9.71593 4.499 10.0863 4.5 10.4613V14C4.5 14.2652 4.60536 14.5196 4.79289 14.7071C4.98043 14.8946 5.23478 15 5.5 15H12C12.2652 15 12.5196 14.8946 12.7071 14.7071C12.8946 14.5196 13 14.2652 13 14V13.2169C13.0008 10.3419 12.2695 7.5141 10.875 5H12.5ZM5 2H9.5C10.0761 2.00082 10.6343 2.20017 11.0805 2.56447C11.5268 2.92877 11.8339 3.43575 11.95 4H5V2Z" fill="black"/>
</g>
<defs>
<clipPath id="clip0_5_327">
<rect width="16" height="16" fill="white"/>
</clipPath>
</defs>
</svg>
