<svg width="16" height="16" viewBox="0 0 16 16" fill="none" xmlns="http://www.w3.org/2000/svg">
<g clip-path="url(#clip0_5_323)">
<path d="M7.5 2.75V13.25C7.5 13.3163 7.47366 13.3799 7.42678 13.4268C7.37989 13.4737 7.3163 13.5 7.25 13.5H3.5C3.23478 13.5 2.98043 13.3946 2.79289 13.2071C2.60536 13.0196 2.5 12.7652 2.5 12.5V3.5C2.5 3.23478 2.60536 2.98043 2.79289 2.79289C2.98043 2.60536 3.23478 2.5 3.5 2.5H7.25C7.3163 2.5 7.37989 2.52634 7.42678 2.57322C7.47366 2.62011 7.5 2.6837 7.5 2.75ZM12.5 2.5H8.75C8.6837 2.5 8.62011 2.52634 8.57322 2.57322C8.52634 2.62011 8.5 2.6837 8.5 2.75V13.25C8.5 13.3163 8.52634 13.3799 8.57322 13.4268C8.62011 13.4737 8.6837 13.5 8.75 13.5H12.5C12.7652 13.5 13.0196 13.3946 13.2071 13.2071C13.3946 13.0196 13.5 12.7652 13.5 12.5V3.5C13.5 3.23478 13.3946 2.98043 13.2071 2.79289C13.0196 2.60536 12.7652 2.5 12.5 2.5Z" fill="black"/>
</g>
<defs>
<clipPath id="clip0_5_323">
<rect width="16" height="16" fill="white"/>
</clipPath>
</defs>
</svg>
