<svg width="16" height="16" viewBox="0 0 16 16" fill="none" xmlns="http://www.w3.org/2000/svg">
<g clip-path="url(#clip0_5_322)">
<path d="M13.5 3.5V7.25C13.5 7.3163 13.4737 7.37989 13.4268 7.42678C13.3799 7.47366 13.3163 7.5 13.25 7.5H2.75C2.6837 7.5 2.62011 7.47366 2.57322 7.42678C2.52634 7.37989 2.5 7.3163 2.5 7.25V3.5C2.5 3.23478 2.60536 2.98043 2.79289 2.79289C2.98043 2.60536 3.23478 2.5 3.5 2.5H12.5C12.7652 2.5 13.0196 2.60536 13.2071 2.79289C13.3946 2.98043 13.5 3.23478 13.5 3.5ZM13.25 8.5H2.75C2.6837 8.5 2.62011 8.52634 2.57322 8.57322C2.52634 8.62011 2.5 8.6837 2.5 8.75V12.5C2.5 12.7652 2.60536 13.0196 2.79289 13.2071C2.98043 13.3946 3.23478 13.5 3.5 13.5H12.5C12.7652 13.5 13.0196 13.3946 13.2071 13.2071C13.3946 13.0196 13.5 12.7652 13.5 12.5V8.75C13.5 8.6837 13.4737 8.62011 13.4268 8.57322C13.3799 8.52634 13.3163 8.5 13.25 8.5Z" fill="black"/>
</g>
<defs>
<clipPath id="clip0_5_322">
<rect width="16" height="16" fill="white"/>
</clipPath>
</defs>
</svg>
