<svg width="16" height="16" viewBox="0 0 16 16" fill="none" xmlns="http://www.w3.org/2000/svg">
<g clip-path="url(#clip0_5_320)">
<path d="M13 2H3C2.73478 2 2.48043 2.10536 2.29289 2.29289C2.10536 2.48043 2 2.73478 2 3V13C2 13.2652 2.10536 13.5196 2.29289 13.7071C2.48043 13.8946 2.73478 14 3 14H13C13.2652 14 13.5196 13.8946 13.7071 13.7071C13.8946 13.5196 14 13.2652 14 13V3C14 2.73478 13.8946 2.48043 13.7071 2.29289C13.5196 2.10536 13.2652 2 13 2ZM8.42875 2.92875C8.47519 2.88226 8.53033 2.84538 8.59103 2.82022C8.65173 2.79506 8.71679 2.78211 8.7825 2.78211C8.84821 2.78211 8.91327 2.79506 8.97397 2.82022C9.03467 2.84538 9.08981 2.88226 9.13625 2.92875L11.9644 5.7575C12.0542 5.85203 12.1035 5.97791 12.1018 6.10829C12.1002 6.23867 12.0476 6.36324 11.9554 6.45544C11.8632 6.54764 11.7387 6.60018 11.6083 6.60184C11.4779 6.60351 11.352 6.55418 11.2575 6.46438L8.42875 3.63625C8.38226 3.58981 8.34538 3.53467 8.32022 3.47397C8.29506 3.41327 8.28211 3.34821 8.28211 3.2825C8.28211 3.21679 8.29506 3.15173 8.32022 3.09103C8.34538 3.03033 8.38226 2.97519 8.42875 2.92875ZM6.26125 6.17312C6.31199 6.05064 6.4093 5.95333 6.53178 5.90258C6.65426 5.85183 6.79188 5.8518 6.91437 5.9025L10.61 7.43313C10.7172 7.47717 10.8058 7.55709 10.8606 7.65923C10.9154 7.76137 10.933 7.87938 10.9104 7.99307C10.8878 8.10676 10.8265 8.20907 10.7368 8.2825C10.6471 8.35593 10.5347 8.39592 10.4187 8.39563C10.3531 8.39558 10.288 8.3824 10.2275 8.35688L6.53188 6.82625C6.4094 6.77551 6.31208 6.6782 6.26133 6.55572C6.21058 6.43324 6.21055 6.29562 6.26125 6.17312ZM6 9.5H10C10.1326 9.5 10.2598 9.55268 10.3536 9.64645C10.4473 9.74021 10.5 9.86739 10.5 10C10.5 10.1326 10.4473 10.2598 10.3536 10.3536C10.2598 10.4473 10.1326 10.5 10 10.5H6C5.86739 10.5 5.74021 10.4473 5.64645 10.3536C5.55268 10.2598 5.5 10.1326 5.5 10C5.5 9.86739 5.55268 9.74021 5.64645 9.64645C5.74021 9.55268 5.86739 9.5 6 9.5ZM12.5 12C12.5 12.1326 12.4473 12.2598 12.3536 12.3536C12.2598 12.4473 12.1326 12.5 12 12.5H4C3.86739 12.5 3.74021 12.4473 3.64645 12.3536C3.55268 12.2598 3.5 12.1326 3.5 12V9C3.5 8.86739 3.55268 8.74021 3.64645 8.64645C3.74021 8.55268 3.86739 8.5 4 8.5C4.13261 8.5 4.25979 8.55268 4.35355 8.64645C4.44732 8.74021 4.5 8.86739 4.5 9V11.5H11.5V9C11.5 8.86739 11.5527 8.74021 11.6464 8.64645C11.7402 8.55268 11.8674 8.5 12 8.5C12.1326 8.5 12.2598 8.55268 12.3536 8.64645C12.4473 8.74021 12.5 8.86739 12.5 9V12Z" fill="black"/>
</g>
<defs>
<clipPath id="clip0_5_320">
<rect width="16" height="16" fill="white"/>
</clipPath>
</defs>
</svg>
