<svg width="16" height="16" viewBox="0 0 16 16" fill="none" xmlns="http://www.w3.org/2000/svg">
<g clip-path="url(#clip0_5_936)">
<path d="M13.75 10.5681L7.99995 13.9213L2.24995 10.5681C2.13611 10.5114 2.00494 10.5003 1.88314 10.5369C1.76135 10.5735 1.65809 10.6552 1.59437 10.7652C1.53066 10.8753 1.51128 11.0055 1.54018 11.1294C1.56909 11.2532 1.6441 11.3614 1.74995 11.4319L7.74995 14.9319C7.82641 14.9765 7.91332 15 8.00183 15C8.09033 15 8.17725 14.9765 8.2537 14.9319L14.2537 11.4319C14.3113 11.3993 14.3619 11.3556 14.4025 11.3032C14.4431 11.2509 14.4729 11.1911 14.4902 11.1272C14.5074 11.0632 14.5119 10.9965 14.5031 10.9309C14.4944 10.8653 14.4728 10.802 14.4394 10.7448C14.406 10.6876 14.3617 10.6376 14.3088 10.5977C14.256 10.5578 14.1957 10.5288 14.1316 10.5124C14.0675 10.4959 14.0007 10.4924 13.9352 10.502C13.8697 10.5115 13.8067 10.534 13.75 10.5681Z" fill="black"/>
<path d="M13.75 7.56813L7.99995 10.9213L2.24995 7.56813C2.13611 7.51145 2.00494 7.50028 1.88314 7.53689C1.76135 7.57351 1.65809 7.65516 1.59437 7.76523C1.53066 7.8753 1.51128 8.00551 1.54018 8.12936C1.56909 8.25321 1.6441 8.36139 1.74995 8.43188L7.74995 11.9319C7.82641 11.9765 7.91332 12 8.00183 12C8.09033 12 8.17725 11.9765 8.2537 11.9319L14.2537 8.43188C14.3113 8.39928 14.3619 8.35555 14.4025 8.30324C14.4431 8.25093 14.4729 8.19108 14.4902 8.12716C14.5074 8.06324 14.5119 7.99653 14.5031 7.93089C14.4944 7.86526 14.4728 7.802 14.4394 7.74481C14.406 7.68761 14.3617 7.63761 14.3088 7.59771C14.256 7.5578 14.1957 7.52879 14.1316 7.51235C14.0675 7.49592 14.0007 7.49238 13.9352 7.50196C13.8697 7.51153 13.8067 7.53403 13.75 7.56813Z" fill="black"/>
<path d="M1.74999 5.43183L7.74999 8.93183C7.82645 8.97641 7.91336 8.9999 8.00187 8.9999C8.09037 8.9999 8.17729 8.97641 8.25374 8.93183L14.2537 5.43183C14.3292 5.38779 14.3918 5.32474 14.4354 5.24897C14.4789 5.17319 14.5018 5.08733 14.5018 4.99995C14.5018 4.91257 14.4789 4.82671 14.4354 4.75093C14.3918 4.67516 14.3292 4.61211 14.2537 4.56808L8.25374 1.06808C8.17729 1.02349 8.09037 1 8.00187 1C7.91336 1 7.82645 1.02349 7.74999 1.06808L1.74999 4.56808C1.67451 4.61211 1.6119 4.67516 1.56837 4.75093C1.52485 4.82671 1.50195 4.91257 1.50195 4.99995C1.50195 5.08733 1.52485 5.17319 1.56837 5.24897C1.6119 5.32474 1.67451 5.38779 1.74999 5.43183Z" fill="black"/>
</g>
<defs>
<clipPath id="clip0_5_936">
<rect width="16" height="16" fill="white"/>
</clipPath>
</defs>
</svg>
