<svg width="16" height="16" viewBox="0 0 16 16" fill="none" xmlns="http://www.w3.org/2000/svg">
<g clip-path="url(#clip0_5_622)">
<path d="M14.4319 7.74995C14.4979 7.86455 14.5158 8.00065 14.4818 8.12845C14.4477 8.25625 14.3643 8.36534 14.25 8.43183L8.24999 11.9318C8.17354 11.9764 8.08662 11.9999 7.99812 11.9999C7.90961 11.9999 7.8227 11.9764 7.74624 11.9318L1.74624 8.43183C1.63355 8.36411 1.55207 8.25473 1.51943 8.12737C1.48679 8.00001 1.50563 7.86493 1.57187 7.75136C1.6381 7.63779 1.7464 7.55487 1.87332 7.52057C2.00024 7.48627 2.13556 7.50333 2.24999 7.56808L7.99999 10.9212L13.75 7.56808C13.8646 7.50204 14.0007 7.4841 14.1285 7.51818C14.2563 7.55227 14.3654 7.63561 14.4319 7.74995ZM1.74999 5.43183L7.74999 8.93183C7.82645 8.97641 7.91336 8.9999 8.00187 8.9999C8.09037 8.9999 8.17729 8.97641 8.25374 8.93183L14.2537 5.43183C14.3292 5.38779 14.3918 5.32474 14.4354 5.24897C14.4789 5.17319 14.5018 5.08733 14.5018 4.99995C14.5018 4.91257 14.4789 4.82671 14.4354 4.75093C14.3918 4.67516 14.3292 4.61211 14.2537 4.56808L8.25374 1.06808C8.17729 1.02349 8.09037 1 8.00187 1C7.91336 1 7.82645 1.02349 7.74999 1.06808L1.74999 4.56808C1.67451 4.61211 1.6119 4.67516 1.56837 4.75093C1.52485 4.82671 1.50195 4.91257 1.50195 4.99995C1.50195 5.08733 1.52485 5.17319 1.56837 5.24897C1.6119 5.32474 1.67451 5.38779 1.74999 5.43183ZM14.5 12H11.5C11.3674 12 11.2402 12.0526 11.1464 12.1464C11.0527 12.2402 11 12.3673 11 12.5C11 12.6326 11.0527 12.7597 11.1464 12.8535C11.2402 12.9473 11.3674 13 11.5 13H14.5C14.6326 13 14.7598 12.9473 14.8535 12.8535C14.9473 12.7597 15 12.6326 15 12.5C15 12.3673 14.9473 12.2402 14.8535 12.1464C14.7598 12.0526 14.6326 12 14.5 12ZM8.74999 13.485L7.99999 13.9225L2.24999 10.5681C2.13615 10.5114 2.00498 10.5002 1.88318 10.5368C1.76139 10.5735 1.65813 10.6551 1.59441 10.7652C1.5307 10.8752 1.51132 11.0054 1.54022 11.1293C1.56913 11.2531 1.64414 11.3613 1.74999 11.4318L7.74999 14.9318C7.82645 14.9764 7.91336 14.9999 8.00187 14.9999C8.09037 14.9999 8.17729 14.9764 8.25374 14.9318L9.25374 14.3487C9.31137 14.3161 9.36195 14.2724 9.40254 14.2201C9.44314 14.1678 9.47294 14.1079 9.49021 14.044C9.50749 13.9801 9.5119 13.9133 9.50318 13.8477C9.49446 13.7821 9.4728 13.7188 9.43944 13.6616C9.40608 13.6044 9.3617 13.5544 9.30886 13.5145C9.25602 13.4746 9.19579 13.4456 9.13165 13.4292C9.06751 13.4127 9.00074 13.4092 8.93523 13.4188C8.86971 13.4284 8.80675 13.4508 8.74999 13.485Z" fill="black"/>
</g>
<defs>
<clipPath id="clip0_5_622">
<rect width="16" height="16" fill="white"/>
</clipPath>
</defs>
</svg>
