<svg width="16" height="16" viewBox="0 0 16 16" fill="none" xmlns="http://www.w3.org/2000/svg">
<g clip-path="url(#clip0_5_317)">
<path d="M12.5 1.5H3.5C3.23478 1.5 2.98043 1.60536 2.79289 1.79289C2.60536 1.98043 2.5 2.23478 2.5 2.5V13.5C2.5 13.7652 2.60536 14.0196 2.79289 14.2071C2.98043 14.3946 3.23478 14.5 3.5 14.5H12.5C12.7652 14.5 13.0196 14.3946 13.2071 14.2071C13.3946 14.0196 13.5 13.7652 13.5 13.5V2.5C13.5 2.23478 13.3946 1.98043 13.2071 1.79289C13.0196 1.60536 12.7652 1.5 12.5 1.5ZM10 6.5H12.5V8H10V6.5ZM7 9H12.5V10.5H7V9ZM12.5 13.5H3.5V11.5H12.5V13.5Z" fill="black"/>
</g>
<defs>
<clipPath id="clip0_5_317">
<rect width="16" height="16" fill="white"/>
</clipPath>
</defs>
</svg>
