<svg width="16" height="16" viewBox="0 0 16 16" fill="none" xmlns="http://www.w3.org/2000/svg">
<g clip-path="url(#clip0_5_316)">
<path d="M14 14C14 14.1326 13.9473 14.2598 13.8536 14.3536C13.7598 14.4473 13.6326 14.5 13.5 14.5H2.5C2.36739 14.5 2.24021 14.4473 2.14645 14.3536C2.05268 14.2598 2 14.1326 2 14C2 13.8674 2.05268 13.7402 2.14645 13.6464C2.24021 13.5527 2.36739 13.5 2.5 13.5H13.5C13.6326 13.5 13.7598 13.5527 13.8536 13.6464C13.9473 13.7402 14 13.8674 14 14ZM13 8H9.47313L10.455 3.41937C10.5175 3.12781 10.5141 2.82595 10.4449 2.53589C10.3757 2.24583 10.2425 1.97492 10.0551 1.74298C9.86765 1.51104 9.63073 1.32395 9.36167 1.19539C9.0926 1.06684 8.7982 1.00008 8.5 1H7.5C7.2018 1.00008 6.9074 1.06684 6.63833 1.19539C6.36927 1.32395 6.13235 1.51104 5.94493 1.74298C5.75751 1.97492 5.62433 2.24583 5.55513 2.53589C5.48593 2.82595 5.48247 3.12781 5.545 3.41937L6.52688 8H3C2.73478 8 2.48043 8.10536 2.29289 8.29289C2.10536 8.48043 2 8.73478 2 9V11.5C2 11.7652 2.10536 12.0196 2.29289 12.2071C2.48043 12.3946 2.73478 12.5 3 12.5H13C13.2652 12.5 13.5196 12.3946 13.7071 12.2071C13.8946 12.0196 14 11.7652 14 11.5V9C14 8.73478 13.8946 8.48043 13.7071 8.29289C13.5196 8.10536 13.2652 8 13 8Z" fill="black"/>
</g>
<defs>
<clipPath id="clip0_5_316">
<rect width="16" height="16" fill="white"/>
</clipPath>
</defs>
</svg>
