<svg width="16" height="16" viewBox="0 0 16 16" fill="none" xmlns="http://www.w3.org/2000/svg">
<g clip-path="url(#clip0_5_1041)">
<path d="M12 8C12 8.53043 11.7893 9.03914 11.4142 9.41421C11.0391 9.78929 10.5304 10 10 10H9.5V6H10C10.5304 6 11.0391 6.21071 11.4142 6.58579C11.7893 6.96086 12 7.46957 12 8ZM14.5 3.5V12.5C14.5 12.7652 14.3946 13.0196 14.2071 13.2071C14.0196 13.3946 13.7652 13.5 13.5 13.5H2.5C2.23478 13.5 1.98043 13.3946 1.79289 13.2071C1.60536 13.0196 1.5 12.7652 1.5 12.5V3.5C1.5 3.23478 1.60536 2.98043 1.79289 2.79289C1.98043 2.60536 2.23478 2.5 2.5 2.5H13.5C13.7652 2.5 14.0196 2.60536 14.2071 2.79289C14.3946 2.98043 14.5 3.23478 14.5 3.5ZM7.5 9.25C7.5 8.0075 6.255 7.66563 5.34562 7.41625C4.59187 7.20938 4.09562 7.05125 4.09562 6.75C4.09562 6.32938 4.60188 6 5.24813 6C5.74813 6 6.17625 6.19563 6.33687 6.5C6.36769 6.55799 6.40963 6.60934 6.4603 6.65111C6.51096 6.69289 6.56936 6.72428 6.63215 6.74349C6.69495 6.7627 6.76091 6.76936 6.82628 6.76307C6.89165 6.75679 6.95514 6.73769 7.01312 6.70687C7.07111 6.67606 7.12246 6.63412 7.16424 6.58345C7.20602 6.53279 7.23741 6.47439 7.25662 6.4116C7.27583 6.3488 7.28248 6.28284 7.2762 6.21747C7.26992 6.1521 7.25082 6.08861 7.22 6.03062C6.885 5.39437 6.12937 5 5.25 5C4.0225 5 3.0975 5.75 3.0975 6.75C3.0975 7.83625 4.1975 8.13812 5.08125 8.38062C6.08125 8.655 6.5 8.83687 6.5 9.25C6.5 9.605 5.98688 10 5.25 10C4.51312 10 4 9.605 4 9.25C4 9.11739 3.94732 8.99021 3.85355 8.89645C3.75979 8.80268 3.63261 8.75 3.5 8.75C3.36739 8.75 3.24021 8.80268 3.14645 8.89645C3.05268 8.99021 3 9.11739 3 9.25C3 10.2312 3.98812 11 5.25 11C6.51188 11 7.5 10.2312 7.5 9.25ZM13 8C12.9992 7.2046 12.6828 6.44202 12.1204 5.87959C11.558 5.31716 10.7954 5.00083 10 5H9C8.86739 5 8.74021 5.05268 8.64645 5.14645C8.55268 5.24021 8.5 5.36739 8.5 5.5V10.5C8.5 10.6326 8.55268 10.7598 8.64645 10.8536C8.74021 10.9473 8.86739 11 9 11H10C10.7954 10.9992 11.558 10.6828 12.1204 10.1204C12.6828 9.55798 12.9992 8.7954 13 8Z" fill="black"/>
</g>
<defs>
<clipPath id="clip0_5_1041">
<rect width="16" height="16" fill="white"/>
</clipPath>
</defs>
</svg>
