<svg width="16" height="16" viewBox="0 0 16 16" fill="none" xmlns="http://www.w3.org/2000/svg">
<g clip-path="url(#clip0_5_1038)">
<path d="M14.9488 6.07879C14.8863 5.88661 14.7683 5.71724 14.6097 5.59201C14.4511 5.46677 14.259 5.39128 14.0575 5.37504L10.37 5.07754L8.94629 1.63441C8.8693 1.4468 8.73825 1.28632 8.56981 1.17337C8.40137 1.06043 8.20315 1.00012 8.00035 1.00012C7.79756 1.00012 7.59934 1.06043 7.4309 1.17337C7.26246 1.28632 7.13141 1.4468 7.05442 1.63441L5.63192 5.07691L1.94254 5.37504C1.74078 5.3921 1.54854 5.46833 1.3899 5.59416C1.23127 5.72 1.1133 5.88986 1.05077 6.08244C0.988239 6.27503 0.983936 6.48179 1.0384 6.67682C1.09286 6.87184 1.20366 7.04645 1.35692 7.17879L4.16942 9.60566L3.31254 13.2344C3.26526 13.4314 3.27744 13.638 3.34753 13.8282C3.41762 14.0183 3.54248 14.1833 3.70633 14.3025C3.87019 14.4217 4.06569 14.4896 4.26814 14.4978C4.47059 14.5059 4.67091 14.4538 4.84379 14.3482L8.00004 12.4057L11.1582 14.3482C11.331 14.4532 11.5311 14.5048 11.7332 14.4964C11.9353 14.4879 12.1304 14.4199 12.2939 14.3008C12.4574 14.1817 12.5821 14.0169 12.6521 13.8272C12.7221 13.6374 12.7345 13.4312 12.6875 13.2344L11.8275 9.60503L14.64 7.17816C14.7945 7.04605 14.9064 6.87106 14.9613 6.67535C15.0163 6.47964 15.0119 6.27202 14.9488 6.07879ZM13.99 6.42066L10.9463 9.04566C10.8769 9.10549 10.8252 9.18324 10.797 9.27043C10.7688 9.35762 10.7651 9.45088 10.7863 9.54004L11.7163 13.465C11.7187 13.4704 11.7189 13.4766 11.717 13.4822C11.715 13.4877 11.7109 13.4923 11.7057 13.495C11.6944 13.5038 11.6913 13.5019 11.6819 13.495L8.26192 11.3919C8.18306 11.3438 8.09241 11.3185 8.00004 11.3188V2.00004C8.01504 2.00004 8.01692 2.00504 8.02192 2.01629L9.56254 5.74129C9.59771 5.82643 9.65572 5.9002 9.73016 5.95447C9.80461 6.00873 9.89259 6.04137 9.98442 6.04879L13.9788 6.37129C13.9888 6.37129 13.9944 6.37129 14 6.38941C14.0057 6.40754 14 6.41441 13.99 6.42066Z" fill="black"/>
</g>
<defs>
<clipPath id="clip0_5_1038">
<rect width="16" height="16" fill="white"/>
</clipPath>
</defs>
</svg>
