<svg width="16" height="16" viewBox="0 0 16 16" fill="none" xmlns="http://www.w3.org/2000/svg">
<g clip-path="url(#clip0_5_312)">
<path d="M12.5757 8.00006L14.4375 4.75006C14.4816 4.67372 14.5047 4.58708 14.5045 4.49893C14.5043 4.41078 14.4808 4.32424 14.4364 4.2481C14.392 4.17196 14.3282 4.10891 14.2516 4.06535C14.175 4.02179 14.0882 3.99926 14 4.00006H10.2907L8.43753 0.750055C8.39383 0.673403 8.33063 0.609679 8.25434 0.565354C8.17805 0.521029 8.09139 0.497681 8.00316 0.497681C7.91492 0.497681 7.82826 0.521029 7.75197 0.565354C7.67568 0.609679 7.61248 0.673403 7.56878 0.750055L5.70816 4.00006H2.00003C1.91215 3.99982 1.82575 4.02274 1.74955 4.06653C1.67335 4.11032 1.61004 4.17341 1.566 4.24946C1.52195 4.32551 1.49873 4.41183 1.49867 4.49971C1.49861 4.5876 1.52171 4.67395 1.56566 4.75006L3.42316 8.00006L1.56566 11.2501C1.52158 11.3264 1.49846 11.413 1.49866 11.5012C1.49885 11.5893 1.52235 11.6759 1.56677 11.752C1.61118 11.8282 1.67494 11.8912 1.75158 11.9348C1.82822 11.9783 1.91501 12.0008 2.00316 12.0001H5.70816L7.56566 15.2501C7.60935 15.3267 7.67256 15.3904 7.74885 15.4348C7.82514 15.4791 7.9118 15.5024 8.00003 15.5024C8.08826 15.5024 8.17493 15.4791 8.25122 15.4348C8.32751 15.3904 8.39071 15.3267 8.43441 15.2501L10.2907 12.0001H14C14.0882 12.0008 14.175 11.9783 14.2516 11.9348C14.3282 11.8912 14.392 11.8282 14.4364 11.752C14.4808 11.6759 14.5043 11.5893 14.5045 11.5012C14.5047 11.413 14.4816 11.3264 14.4375 11.2501L12.5757 8.00006ZM11.4244 8.00006L9.71066 11.0001H6.28878L4.57503 8.00006L6.28878 5.00006H9.71066L11.4244 8.00006Z" fill="black"/>
</g>
<defs>
<clipPath id="clip0_5_312">
<rect width="16" height="16" fill="white"/>
</clipPath>
</defs>
</svg>
