<svg width="16" height="16" viewBox="0 0 16 16" fill="none" xmlns="http://www.w3.org/2000/svg">
<g clip-path="url(#clip0_5_313)">
<path d="M15 8.00004C15.0016 8.20512 14.9393 8.4056 14.8217 8.57362C14.7041 8.74163 14.537 8.86883 14.3438 8.93754L10.3788 10.3794L8.93754 14.3438C8.8665 14.5352 8.7386 14.7002 8.57101 14.8168C8.40342 14.9333 8.20417 14.9958 8.00004 14.9958C7.7959 14.9958 7.59666 14.9333 7.42907 14.8168C7.26148 14.7002 7.13357 14.5352 7.06254 14.3438L5.62129 10.3788L1.65629 8.93754C1.46491 8.8665 1.29986 8.7386 1.1833 8.57101C1.06675 8.40342 1.00427 8.20417 1.00427 8.00004C1.00427 7.7959 1.06675 7.59666 1.1833 7.42907C1.29986 7.26148 1.46491 7.13357 1.65629 7.06254L5.62129 5.62129L7.06254 1.65629C7.13357 1.46491 7.26148 1.29986 7.42907 1.1833C7.59666 1.06675 7.7959 1.00427 8.00004 1.00427C8.20417 1.00427 8.40342 1.06675 8.57101 1.1833C8.7386 1.29986 8.8665 1.46491 8.93754 1.65629L10.3794 5.62129L14.3438 7.06254C14.537 7.13124 14.7041 7.25844 14.8217 7.42646C14.9393 7.59447 15.0016 7.79495 15 8.00004Z" fill="black"/>
</g>
<defs>
<clipPath id="clip0_5_313">
<rect width="16" height="16" fill="white"/>
</clipPath>
</defs>
</svg>
