<svg width="16" height="16" viewBox="0 0 16 16" fill="none" xmlns="http://www.w3.org/2000/svg">
<g clip-path="url(#clip0_5_315)">
<path d="M10 12.9C10.0001 12.9922 9.97466 13.0826 9.92657 13.1613C9.87848 13.2399 9.80958 13.3037 9.7275 13.3457C8.8837 13.7786 7.9484 14.003 7 14C5.4087 14 3.88258 13.3679 2.75736 12.2427C1.63214 11.1175 1 9.59133 1 8.00003C1 6.40873 1.63214 4.88261 2.75736 3.75739C3.88258 2.63217 5.4087 2.00003 7 2.00003C7.9484 1.99703 8.8837 2.22142 9.7275 2.6544C9.80956 2.6963 9.87845 2.76006 9.92656 2.83865C9.97467 2.91723 10.0001 3.00758 10.0001 3.09972C10.0001 3.19186 9.97467 3.28221 9.92656 3.36079C9.87845 3.43937 9.80956 3.50313 9.7275 3.54503C8.90591 3.96367 8.21609 4.60135 7.7343 5.38757C7.25251 6.17379 6.99752 7.07793 6.99752 8.00003C6.99752 8.92213 7.25251 9.82627 7.7343 10.6125C8.21609 11.3987 8.90591 12.0364 9.7275 12.455C9.80949 12.4969 9.87832 12.5606 9.9264 12.6392C9.97449 12.7177 9.99996 12.808 10 12.9ZM15.6981 7.54065L14.0419 6.82628L13.8975 4.96128C13.8897 4.86203 13.8524 4.76737 13.7904 4.68944C13.7285 4.6115 13.6447 4.55383 13.5498 4.52382C13.4548 4.49381 13.3531 4.49283 13.2576 4.52099C13.1621 4.54915 13.0772 4.60519 13.0138 4.68191L11.8519 6.08878L10.12 5.66065C10.0245 5.63715 9.92421 5.64233 9.83165 5.67554C9.73909 5.70875 9.65838 5.76851 9.59961 5.84736C9.54084 5.92621 9.50663 6.02063 9.50125 6.11882C9.49587 6.21701 9.51957 6.31461 9.56938 6.3994L10.5112 8.00003L9.56938 9.60065C9.51957 9.68545 9.49587 9.78304 9.50125 9.88124C9.50663 9.97943 9.54084 10.0739 9.59961 10.1527C9.65838 10.2315 9.73909 10.2913 9.83165 10.3245C9.92421 10.3577 10.0245 10.3629 10.12 10.3394L11.8519 9.91128L13.0138 11.3182C13.0772 11.3949 13.1621 11.4509 13.2576 11.4791C13.3531 11.5072 13.4548 11.5062 13.5498 11.4762C13.6447 11.4462 13.7285 11.3886 13.7904 11.3106C13.8524 11.2327 13.8897 11.138 13.8975 11.0388L14.0419 9.17378L15.6981 8.4594C15.7879 8.4208 15.8645 8.35671 15.9183 8.27507C15.972 8.19342 16.0007 8.0978 16.0007 8.00003C16.0007 7.90226 15.972 7.80664 15.9183 7.72499C15.8645 7.64335 15.7879 7.57926 15.6981 7.54065Z" fill="black"/>
</g>
<defs>
<clipPath id="clip0_5_315">
<rect width="16" height="16" fill="white"/>
</clipPath>
</defs>
</svg>
