<svg width="16" height="16" viewBox="0 0 16 16" fill="none" xmlns="http://www.w3.org/2000/svg">
<g clip-path="url(#clip0_5_311)">
<path d="M14.495 8.25681C14.3644 11.6318 11.6306 14.3643 8.25689 14.4949C7.28598 14.5328 6.31893 14.3526 5.42681 13.9676C4.53469 13.5826 3.74017 13.0026 3.10163 12.2702C2.46309 11.5379 1.99676 10.6717 1.7369 9.73547C1.47705 8.79922 1.43027 7.81664 1.60001 6.85994C1.60842 6.81514 1.62892 6.7735 1.65928 6.73951C1.68965 6.70552 1.72873 6.68048 1.7723 6.6671C1.81586 6.65371 1.86226 6.65249 1.90647 6.66357C1.95068 6.67464 1.99103 6.69759 2.02314 6.72994L4.71064 9.41744C4.51832 9.77435 4.45589 10.187 4.53402 10.5848C4.61215 10.9826 4.82598 11.341 5.139 11.5987C5.45201 11.8563 5.84478 11.9973 6.25021 11.9976C6.65564 11.9978 7.04858 11.8573 7.36189 11.5999L11.1806 8.48494C11.4224 8.28522 11.6197 8.03718 11.7599 7.75673C11.9001 7.47629 11.9802 7.16963 11.995 6.85642C12.0097 6.54322 11.9589 6.23038 11.8457 5.93799C11.7324 5.64559 11.5594 5.38008 11.3375 5.1585C11.1157 4.93691 10.85 4.76414 10.5574 4.65127C10.2649 4.5384 9.952 4.48791 9.63881 4.50305C9.32563 4.5182 9.01906 4.59863 8.73878 4.7392C8.4585 4.87976 8.2107 5.07736 8.01126 5.31931L5.32376 8.61556L2.18751 5.47931C2.15053 5.44237 2.12606 5.39477 2.11754 5.3432C2.10902 5.29163 2.11688 5.23869 2.14001 5.19181C2.78641 3.84362 3.87782 2.75949 5.2303 2.12213C6.58279 1.48478 8.11365 1.33317 9.56488 1.69285C11.0161 2.05254 12.299 2.90153 13.1972 4.09675C14.0955 5.29196 14.5543 6.7603 14.4963 8.25431L14.495 8.25681ZM7.59876 7.40931L5.67314 9.77056C5.57108 9.8913 5.5104 10.0416 5.50001 10.1993C5.49481 10.3008 5.50996 10.4023 5.54458 10.4979C5.57921 10.5934 5.6326 10.6811 5.70161 10.7557C5.77063 10.8303 5.85387 10.8903 5.94644 10.9323C6.03901 10.9742 6.13904 10.9972 6.24064 10.9999C6.41801 11.003 6.59057 10.9422 6.72689 10.8287L9.08814 8.90306C8.73718 8.79387 8.41812 8.60078 8.1586 8.3405C7.89908 8.08021 7.70692 7.76059 7.59876 7.40931ZM10.9938 6.87494C11.0195 6.61833 10.9653 6.36003 10.8385 6.13545C10.7118 5.91086 10.5186 5.73099 10.2856 5.6205C10.0526 5.51 9.79106 5.47429 9.53693 5.51825C9.28281 5.56222 9.0485 5.68371 8.86614 5.86607C8.68378 6.04843 8.56229 6.28274 8.51832 6.53686C8.47436 6.79099 8.51007 7.05249 8.62057 7.28552C8.73107 7.51855 8.91094 7.71169 9.13552 7.83848C9.3601 7.96526 9.61841 8.01948 9.87501 7.99369C10.1619 7.96486 10.43 7.83773 10.6339 7.63384C10.8378 7.42995 10.9649 7.16184 10.9938 6.87494Z" fill="black"/>
</g>
<defs>
<clipPath id="clip0_5_311">
<rect width="16" height="16" fill="white"/>
</clipPath>
</defs>
</svg>
