<svg width="16" height="16" viewBox="0 0 16 16" fill="none" xmlns="http://www.w3.org/2000/svg">
<g clip-path="url(#clip0_5_310)">
<path d="M8 1.5C6.71442 1.5 5.45772 1.88122 4.3888 2.59545C3.31988 3.30968 2.48676 4.32484 1.99479 5.51256C1.50282 6.70028 1.37409 8.00721 1.6249 9.26809C1.8757 10.529 2.49477 11.6872 3.40381 12.5962C4.31285 13.5052 5.47104 14.1243 6.73192 14.3751C7.99279 14.6259 9.29973 14.4972 10.4874 14.0052C11.6752 13.5132 12.6903 12.6801 13.4046 11.6112C14.1188 10.5423 14.5 9.28558 14.5 8C14.4982 6.27665 13.8128 4.62441 12.5942 3.40582C11.3756 2.18722 9.72335 1.50182 8 1.5ZM3.10188 10.5H5.65313L6.71563 13.3488C5.94386 13.1617 5.22151 12.8104 4.59787 12.3187C3.97423 11.8271 3.46396 11.2068 3.10188 10.5ZM8 9.75C7.80222 9.75 7.60888 9.69135 7.44443 9.58147C7.27998 9.47159 7.15181 9.31541 7.07612 9.13268C7.00044 8.94996 6.98063 8.74889 7.01922 8.55491C7.0578 8.36093 7.15304 8.18275 7.2929 8.04289C7.43275 7.90304 7.61093 7.8078 7.80491 7.76921C7.99889 7.73063 8.19996 7.75043 8.38269 7.82612C8.56541 7.90181 8.72159 8.02998 8.83147 8.19443C8.94135 8.35888 9 8.55222 9 8.75C9 9.01522 8.89465 9.26957 8.70711 9.45711C8.51957 9.64464 8.26522 9.75 8 9.75ZM9.27875 13.3494L10.3469 10.5H12.8981C12.5356 11.2075 12.0245 11.8284 11.3998 12.3202C10.7751 12.8119 10.0516 13.163 9.27875 13.3494ZM8 6C5.98549 6.00244 4.03696 6.71831 2.5 8.02063V8C2.5 6.54131 3.07947 5.14236 4.11092 4.11091C5.14237 3.07946 6.54131 2.5 8 2.5C9.45869 2.5 10.8576 3.07946 11.8891 4.11091C12.9205 5.14236 13.5 6.54131 13.5 8V8.02063C11.963 6.71831 10.0145 6.00244 8 6Z" fill="black"/>
</g>
<defs>
<clipPath id="clip0_5_310">
<rect width="16" height="16" fill="white"/>
</clipPath>
</defs>
</svg>
