<svg width="16" height="16" viewBox="0 0 16 16" fill="none" xmlns="http://www.w3.org/2000/svg">
<g clip-path="url(#clip0_5_309)">
<path d="M15 10C15 9.62574 14.895 9.25897 14.697 8.94142C14.4989 8.62387 14.2157 8.36826 13.8795 8.20367C13.5434 8.03908 13.1679 7.9721 12.7955 8.01036C12.4232 8.04862 12.0691 8.19058 11.7735 8.42009C11.4779 8.64961 11.2526 8.95747 11.1232 9.30867C10.9939 9.65987 10.9657 10.0403 11.0418 10.4068C11.118 10.7732 11.2954 11.1109 11.5539 11.3815C11.8125 11.6521 12.1418 11.8448 12.5044 11.9375C12.5016 11.9582 12.5002 11.9791 12.5 12C12.5 12.5304 12.2893 13.0391 11.9142 13.4142C11.5391 13.7893 11.0304 14 10.5 14H9C8.46957 14 7.96086 13.7893 7.58579 13.4142C7.21071 13.0391 7 12.5304 7 12V9.4675C8.96688 9.2175 10.5 7.50062 10.5 5.44812V2.5C10.5 2.36739 10.4473 2.24021 10.3536 2.14645C10.2598 2.05268 10.1326 2 10 2H8.5C8.36739 2 8.24021 2.05268 8.14645 2.14645C8.05268 2.24021 8 2.36739 8 2.5C8 2.63261 8.05268 2.75979 8.14645 2.85355C8.24021 2.94732 8.36739 3 8.5 3H9.5V5.44812C9.5 7.10938 8.17188 8.47875 6.54 8.5C6.14268 8.5053 5.74827 8.43161 5.37966 8.28322C5.01106 8.13483 4.6756 7.91469 4.39277 7.63559C4.10995 7.35648 3.88539 7.02397 3.73213 6.65737C3.57887 6.29076 3.49996 5.89735 3.5 5.5V3H4.5C4.63261 3 4.75979 2.94732 4.85355 2.85355C4.94732 2.75979 5 2.63261 5 2.5C5 2.36739 4.94732 2.24021 4.85355 2.14645C4.75979 2.05268 4.63261 2 4.5 2H3C2.86739 2 2.74021 2.05268 2.64645 2.14645C2.55268 2.24021 2.5 2.36739 2.5 2.5V5.5C2.50012 6.47418 2.85576 7.41484 3.50017 8.14544C4.14457 8.87604 5.03346 9.34635 6 9.46813V12C6.00083 12.7954 6.31716 13.558 6.87959 14.1204C7.44202 14.6828 8.2046 14.9992 9 15H10.5C11.2954 14.9992 12.058 14.6828 12.6204 14.1204C13.1828 13.558 13.4992 12.7954 13.5 12C13.4998 11.9791 13.4984 11.9582 13.4956 11.9375C13.9259 11.8274 14.3073 11.5773 14.5797 11.2265C14.8521 10.8756 15 10.4441 15 10ZM13 10.5C12.9011 10.5 12.8044 10.4707 12.7222 10.4157C12.64 10.3608 12.5759 10.2827 12.5381 10.1913C12.5002 10.1 12.4903 9.99944 12.5096 9.90245C12.5289 9.80546 12.5765 9.71637 12.6464 9.64645C12.7164 9.57652 12.8055 9.5289 12.9025 9.50961C12.9994 9.49031 13.1 9.50022 13.1913 9.53806C13.2827 9.5759 13.3608 9.63999 13.4157 9.72221C13.4707 9.80444 13.5 9.90111 13.5 10C13.5 10.1326 13.4473 10.2598 13.3536 10.3536C13.2598 10.4473 13.1326 10.5 13 10.5Z" fill="black"/>
</g>
<defs>
<clipPath id="clip0_5_309">
<rect width="16" height="16" fill="white"/>
</clipPath>
</defs>
</svg>
