<svg width="16" height="16" viewBox="0 0 16 16" fill="none" xmlns="http://www.w3.org/2000/svg">
<g clip-path="url(#clip0_5_308)">
<path d="M10.5 2H5.5C4.57205 2.00099 3.68238 2.37006 3.02622 3.02622C2.37006 3.68238 2.00099 4.57205 2 5.5V10.5C2.00099 11.428 2.37006 12.3176 3.02622 12.9738C3.68238 13.6299 4.57205 13.999 5.5 14H8.5C8.55374 13.9999 8.60712 13.9913 8.65812 13.9744C10.2975 13.4275 13.4275 10.2975 13.9744 8.65812C13.9913 8.60712 13.9999 8.55374 14 8.5V5.5C13.999 4.57205 13.6299 3.68238 12.9738 3.02622C12.3176 2.37006 11.428 2.00099 10.5 2ZM8.5 12.9637V11C8.5 10.337 8.76339 9.70107 9.23223 9.23223C9.70107 8.76339 10.337 8.5 11 8.5H12.9637C12.385 9.84688 9.84688 12.385 8.5 12.9637Z" fill="black"/>
</g>
<defs>
<clipPath id="clip0_5_308">
<rect width="16" height="16" fill="white"/>
</clipPath>
</defs>
</svg>
