<svg width="16" height="16" viewBox="0 0 16 16" fill="none" xmlns="http://www.w3.org/2000/svg">
<g clip-path="url(#clip0_5_307)">
<path d="M12.5 4V2.5C12.5 2.23478 12.3946 1.98043 12.2071 1.79289C12.0196 1.60536 11.7652 1.5 11.5 1.5H4.5C4.23478 1.5 3.98043 1.60536 3.79289 1.79289C3.60536 1.98043 3.5 2.23478 3.5 2.5V4C3.5 4.26522 3.60536 4.51957 3.79289 4.70711C3.98043 4.89464 4.23478 5 4.5 5H4.915L3.50625 13.9219C3.48556 14.0528 3.51772 14.1866 3.59566 14.2939C3.6736 14.4011 3.79094 14.473 3.92188 14.4937C3.94771 14.4979 3.97383 14.5 4 14.5C4.11894 14.4998 4.23392 14.4573 4.3243 14.3799C4.41468 14.3026 4.47454 14.1956 4.49312 14.0781L4.98 11H11.02L11.5063 14.0781C11.5249 14.1957 11.5848 14.3028 11.6753 14.3801C11.7658 14.4575 11.881 14.5 12 14.5C12.0264 14.5 12.0527 14.498 12.0787 14.4937C12.2097 14.473 12.327 14.4011 12.405 14.2939C12.4829 14.1866 12.5151 14.0528 12.4944 13.9219L11.085 5H11.5C11.7652 5 12.0196 4.89464 12.2071 4.70711C12.3946 4.51957 12.5 4.26522 12.5 4ZM10.8619 10H5.13812L5.9275 5H10.0725L10.8619 10Z" fill="black"/>
</g>
<defs>
<clipPath id="clip0_5_307">
<rect width="16" height="16" fill="white"/>
</clipPath>
</defs>
</svg>
