<svg width="16" height="16" viewBox="0 0 16 16" fill="none" xmlns="http://www.w3.org/2000/svg">
<g clip-path="url(#clip0_5_1469)">
<path d="M8 1.5C6.71442 1.5 5.45772 1.88122 4.3888 2.59545C3.31988 3.30968 2.48676 4.32484 1.99479 5.51256C1.50282 6.70028 1.37409 8.00721 1.6249 9.26809C1.8757 10.529 2.49477 11.6872 3.40381 12.5962C4.31285 13.5052 5.47104 14.1243 6.73192 14.3751C7.99279 14.6259 9.29973 14.4972 10.4874 14.0052C11.6752 13.5132 12.6903 12.6801 13.4046 11.6112C14.1188 10.5423 14.5 9.28558 14.5 8C14.4982 6.27665 13.8128 4.62441 12.5942 3.40582C11.3756 2.18722 9.72335 1.50182 8 1.5ZM10 9.75C10 9.8163 9.97366 9.87989 9.92678 9.92678C9.8799 9.97366 9.81631 10 9.75 10H6.25C6.1837 10 6.12011 9.97366 6.07323 9.92678C6.02634 9.87989 6 9.8163 6 9.75V6.25C6 6.1837 6.02634 6.12011 6.07323 6.07322C6.12011 6.02634 6.1837 6 6.25 6H9.75C9.81631 6 9.8799 6.02634 9.92678 6.07322C9.97366 6.12011 10 6.1837 10 6.25V9.75Z" fill="black"/>
</g>
<defs>
<clipPath id="clip0_5_1469">
<rect width="16" height="16" fill="white"/>
</clipPath>
</defs>
</svg>
