<svg width="16" height="16" viewBox="0 0 16 16" fill="none" xmlns="http://www.w3.org/2000/svg">
<g clip-path="url(#clip0_5_304)">
<path d="M6.75003 11.75C6.75003 12.1456 6.63274 12.5322 6.41297 12.8611C6.19321 13.19 5.88085 13.4464 5.5154 13.5978C5.14995 13.7491 4.74782 13.7887 4.35985 13.7116C3.97189 13.6344 3.61553 13.4439 3.33582 13.1642C3.05612 12.8845 2.86563 12.5281 2.78846 12.1402C2.71129 11.7522 2.7509 11.3501 2.90227 10.9846C3.05365 10.6192 3.31 10.3068 3.63889 10.0871C3.96779 9.8673 4.35447 9.75 4.75003 9.75C5.28047 9.75 5.78917 9.96071 6.16425 10.3358C6.53932 10.7109 6.75003 11.2196 6.75003 11.75ZM3.35378 7.35375L4.25003 6.45687L5.14628 7.35375C5.2401 7.44757 5.36735 7.50028 5.50003 7.50028C5.63272 7.50028 5.75996 7.44757 5.85378 7.35375C5.9476 7.25993 6.00031 7.13268 6.00031 7C6.00031 6.86732 5.9476 6.74007 5.85378 6.64625L4.95691 5.75L5.85378 4.85375C5.9476 4.75993 6.00031 4.63268 6.00031 4.5C6.00031 4.36732 5.9476 4.24007 5.85378 4.14625C5.75996 4.05243 5.63272 3.99972 5.50003 3.99972C5.36735 3.99972 5.2401 4.05243 5.14628 4.14625L4.25003 5.04313L3.35378 4.14625C3.25996 4.05243 3.13272 3.99972 3.00003 3.99972C2.86735 3.99972 2.7401 4.05243 2.64628 4.14625C2.55246 4.24007 2.49976 4.36732 2.49976 4.5C2.49976 4.63268 2.55246 4.75993 2.64628 4.85375L3.54316 5.75L2.64628 6.64625C2.55246 6.74007 2.49976 6.86732 2.49976 7C2.49976 7.13268 2.55246 7.25993 2.64628 7.35375C2.7401 7.44757 2.86735 7.50028 3.00003 7.50028C3.13272 7.50028 3.25996 7.44757 3.35378 7.35375ZM13.4569 11.75L14.3538 10.8538C14.4476 10.7599 14.5003 10.6327 14.5003 10.5C14.5003 10.3673 14.4476 10.2401 14.3538 10.1462C14.26 10.0524 14.1327 9.99972 14 9.99972C13.8674 9.99972 13.7401 10.0524 13.6463 10.1462L12.75 11.0431L11.8538 10.1462C11.76 10.0524 11.6327 9.99972 11.5 9.99972C11.3674 9.99972 11.2401 10.0524 11.1463 10.1462C11.0525 10.2401 10.9998 10.3673 10.9998 10.5C10.9998 10.6327 11.0525 10.7599 11.1463 10.8538L12.0432 11.75L11.1463 12.6462C11.0525 12.7401 10.9998 12.8673 10.9998 13C10.9998 13.1327 11.0525 13.2599 11.1463 13.3538C11.2401 13.4476 11.3674 13.5003 11.5 13.5003C11.6327 13.5003 11.76 13.4476 11.8538 13.3538L12.75 12.4569L13.6463 13.3538C13.6927 13.4002 13.7479 13.4371 13.8086 13.4622C13.8693 13.4873 13.9343 13.5003 14 13.5003C14.0657 13.5003 14.1308 13.4873 14.1915 13.4622C14.2522 13.4371 14.3073 13.4002 14.3538 13.3538C14.4002 13.3073 14.4371 13.2521 14.4622 13.1914C14.4874 13.1308 14.5003 13.0657 14.5003 13C14.5003 12.9343 14.4874 12.8692 14.4622 12.8086C14.4371 12.7479 14.4002 12.6927 14.3538 12.6462L13.4569 11.75ZM10.3538 3.14625L10.2069 3H11.5C11.6326 3 11.7598 2.94732 11.8536 2.85355C11.9474 2.75979 12 2.63261 12 2.5C12 2.36739 11.9474 2.24021 11.8536 2.14645C11.7598 2.05268 11.6326 2 11.5 2H9.00003C8.86743 2 8.74025 2.05268 8.64648 2.14645C8.55271 2.24021 8.50003 2.36739 8.50003 2.5V5C8.50003 5.13261 8.55271 5.25979 8.64648 5.35355C8.74025 5.44732 8.86743 5.5 9.00003 5.5C9.13264 5.5 9.25982 5.44732 9.35359 5.35355C9.44736 5.25979 9.50003 5.13261 9.50003 5V3.70688L9.64628 3.85375C10.7669 4.97438 10.765 6.06625 10.5657 6.785C10.2757 7.83313 9.35566 8.77063 8.37816 9.015C8.25979 9.04467 8.15635 9.1166 8.08734 9.21724C8.01833 9.31788 7.98851 9.44029 8.00349 9.5614C8.01848 9.68251 8.07724 9.79395 8.1687 9.87474C8.26016 9.95553 8.378 10.0001 8.50003 10C8.54112 9.99995 8.58204 9.99491 8.62191 9.985C9.94753 9.65375 11.1438 8.4475 11.53 7.05188C11.9113 5.67375 11.4938 4.28688 10.3538 3.14625Z" fill="black"/>
</g>
<defs>
<clipPath id="clip0_5_304">
<rect width="16" height="16" fill="white"/>
</clipPath>
</defs>
</svg>
