<svg width="16" height="16" viewBox="0 0 16 16" fill="none" xmlns="http://www.w3.org/2000/svg">
<g clip-path="url(#clip0_5_997)">
<path d="M13 2H3C2.73478 2 2.48043 2.10536 2.29289 2.29289C2.10536 2.48043 2 2.73478 2 3V13C2 13.2652 2.10536 13.5196 2.29289 13.7071C2.48043 13.8946 2.73478 14 3 14H13C13.2652 14 13.5196 13.8946 13.7071 13.7071C13.8946 13.5196 14 13.2652 14 13V3C14 2.73478 13.8946 2.48043 13.7071 2.29289C13.5196 2.10536 13.2652 2 13 2ZM8 11.5C6.62125 11.5 5.5 10.6031 5.5 9.5C5.5 9.36739 5.55268 9.24021 5.64645 9.14645C5.74021 9.05268 5.86739 9 6 9C6.13261 9 6.25979 9.05268 6.35355 9.14645C6.44732 9.24021 6.5 9.36739 6.5 9.5C6.5 10.0419 7.1875 10.5 8 10.5C8.8125 10.5 9.5 10.0419 9.5 9.5C9.5 8.9075 8.96187 8.6875 7.82 8.35875C6.83563 8.075 5.61125 7.72188 5.61125 6.5C5.61125 5.36 6.63812 4.5 8 4.5C8.9825 4.5 9.82375 4.95625 10.195 5.6875C10.227 5.74628 10.2469 5.8109 10.2535 5.87752C10.2601 5.94415 10.2533 6.01141 10.2334 6.07533C10.2135 6.13926 10.1809 6.19853 10.1377 6.24964C10.0945 6.30076 10.0414 6.34267 9.98169 6.37289C9.92195 6.40312 9.85675 6.42104 9.78996 6.42559C9.72317 6.43014 9.65615 6.42124 9.59286 6.3994C9.52958 6.37756 9.47132 6.34324 9.42155 6.29847C9.37178 6.25369 9.33151 6.19938 9.30313 6.13875C9.1025 5.74625 8.60313 5.5 8 5.5C7.20813 5.5 6.61125 5.93 6.61125 6.5C6.61125 6.9375 7.17375 7.13125 8.09688 7.3975C9.11125 7.6875 10.5 8.09062 10.5 9.5C10.5 10.6031 9.37875 11.5 8 11.5Z" fill="black"/>
</g>
<defs>
<clipPath id="clip0_5_997">
<rect width="16" height="16" fill="white"/>
</clipPath>
</defs>
</svg>
