<svg width="16" height="16" viewBox="0 0 16 16" fill="none" xmlns="http://www.w3.org/2000/svg">
<g clip-path="url(#clip0_5_303)">
<path d="M14.1581 3.52566L8.15812 1.52566C8.05548 1.49145 7.94452 1.49145 7.84188 1.52566L1.84187 3.52566C1.74232 3.55885 1.65572 3.62253 1.59436 3.70766C1.53301 3.7928 1.49999 3.89509 1.5 4.00004V9.00004C1.5 9.13265 1.55268 9.25982 1.64645 9.35359C1.74021 9.44736 1.86739 9.50004 2 9.50004C2.13261 9.50004 2.25979 9.44736 2.35355 9.35359C2.44732 9.25982 2.5 9.13265 2.5 9.00004V4.69379L4.59937 5.39316C4.0416 6.29429 3.86423 7.37994 4.10621 8.41173C4.34819 9.44352 4.98974 10.3371 5.89 10.8963C4.765 11.3375 3.7925 12.1357 3.08125 13.2269C3.04426 13.2819 3.01857 13.3437 3.00566 13.4087C2.99276 13.4737 2.9929 13.5406 3.00609 13.6055C3.01927 13.6704 3.04523 13.7321 3.08246 13.7869C3.11969 13.8418 3.16744 13.8886 3.22294 13.9248C3.27844 13.961 3.34058 13.9858 3.40576 13.9978C3.47093 14.0098 3.53783 14.0087 3.60257 13.9946C3.66732 13.9804 3.72861 13.9536 3.78289 13.9156C3.83717 13.8776 3.88335 13.8292 3.91875 13.7732C4.86063 12.3282 6.34812 11.5 8 11.5C9.65187 11.5 11.1394 12.3282 12.0813 13.7732C12.1546 13.8822 12.2679 13.9579 12.3966 13.984C12.5254 14.0102 12.6592 13.9846 12.7692 13.9128C12.8793 13.8411 12.9566 13.7289 12.9846 13.6005C13.0126 13.4722 12.9889 13.338 12.9187 13.2269C12.2075 12.1357 11.2312 11.3375 10.11 10.8963C11.0094 10.3371 11.6503 9.44412 11.8923 8.41309C12.1342 7.38205 11.9574 6.29715 11.4006 5.39629L14.1581 4.47754C14.2577 4.44437 14.3443 4.3807 14.4057 4.29556C14.4671 4.21042 14.5001 4.10812 14.5001 4.00316C14.5001 3.8982 14.4671 3.7959 14.4057 3.71076C14.3443 3.62562 14.2577 3.56196 14.1581 3.52879V3.52566ZM11 7.50004C11.0001 7.97432 10.8878 8.44188 10.6723 8.86435C10.4567 9.28682 10.1441 9.65217 9.75996 9.93041C9.37586 10.2086 8.93127 10.3919 8.46266 10.465C7.99405 10.5381 7.51477 10.4991 7.06416 10.3512C6.61354 10.2032 6.20442 9.95055 5.87037 9.61386C5.53632 9.27718 5.28685 8.86609 5.14244 8.41433C4.99803 7.96256 4.96279 7.48299 5.03961 7.01497C5.11644 6.54695 5.30313 6.10381 5.58437 5.72191L7.84188 6.47191C7.94452 6.50613 8.05548 6.50613 8.15812 6.47191L10.4156 5.72191C10.7955 6.23691 11.0003 6.8601 11 7.50004Z" fill="black"/>
</g>
<defs>
<clipPath id="clip0_5_303">
<rect width="16" height="16" fill="white"/>
</clipPath>
</defs>
</svg>
