<svg width="16" height="16" viewBox="0 0 16 16" fill="none" xmlns="http://www.w3.org/2000/svg">
<g clip-path="url(#clip0_5_301)">
<path d="M13 2H3C2.73478 2 2.48043 2.10536 2.29289 2.29289C2.10536 2.48043 2 2.73478 2 3V13C2 13.2652 2.10536 13.5196 2.29289 13.7071C2.48043 13.8946 2.73478 14 3 14H13C13.2652 14 13.5196 13.8946 13.7071 13.7071C13.8946 13.5196 14 13.2652 14 13V3C14 2.73478 13.8946 2.48043 13.7071 2.29289C13.5196 2.10536 13.2652 2 13 2ZM8 11H11C11.1326 11 11.2598 11.0527 11.3536 11.1464C11.4473 11.2402 11.5 11.3674 11.5 11.5C11.5 11.6326 11.4473 11.7598 11.3536 11.8536C11.2598 11.9473 11.1326 12 11 12H8C6.93913 12 5.92172 11.5786 5.17157 10.8284C4.42143 10.0783 4 9.06087 4 8C4 6.93913 4.42143 5.92172 5.17157 5.17157C5.92172 4.42143 6.93913 4 8 4H11C11.1326 4 11.2598 4.05268 11.3536 4.14645C11.4473 4.24021 11.5 4.36739 11.5 4.5C11.5 4.63261 11.4473 4.75979 11.3536 4.85355C11.2598 4.94732 11.1326 5 11 5H8C7.20435 5 6.44129 5.31607 5.87868 5.87868C5.31607 6.44129 5 7.20435 5 8C5 8.79565 5.31607 9.55871 5.87868 10.1213C6.44129 10.6839 7.20435 11 8 11Z" fill="black"/>
</g>
<defs>
<clipPath id="clip0_5_301">
<rect width="16" height="16" fill="white"/>
</clipPath>
</defs>
</svg>
