<svg width="16" height="16" viewBox="0 0 16 16" fill="none" xmlns="http://www.w3.org/2000/svg">
<g clip-path="url(#clip0_5_299)">
<path d="M10.9142 5.08435C10.7477 4.18898 10.3398 3.3561 9.73449 2.67561C9.12921 1.99512 8.34957 1.49288 7.47972 1.22309C6.60988 0.953294 5.68286 0.926205 4.79874 1.14474C3.91462 1.36328 3.10698 1.81914 2.463 2.46312C1.81902 3.1071 1.36316 3.91474 1.14462 4.79886C0.926083 5.68298 0.953172 6.61 1.22296 7.47985C1.49276 8.34969 1.995 9.12934 2.67549 9.73461C3.35598 10.3399 4.18886 10.7478 5.08423 10.9144C5.25077 11.8097 5.65869 12.6426 6.26397 13.3231C6.86924 14.0036 7.64889 14.5058 8.51873 14.7756C9.38858 15.0454 10.3156 15.0725 11.1997 14.854C12.0838 14.6354 12.8915 14.1796 13.5355 13.5356C14.1794 12.8916 14.6353 12.084 14.8538 11.1998C15.0724 10.3157 15.0453 9.38871 14.7755 8.51886C14.5057 7.64901 14.0035 6.86937 13.323 6.26409C12.6425 5.65881 11.8096 5.25089 10.9142 5.08435ZM5.99985 9.99998C5.20873 9.99998 4.43537 9.76538 3.77757 9.32585C3.11978 8.88633 2.60709 8.26161 2.30434 7.53071C2.00159 6.79981 1.92237 5.99554 2.07671 5.21961C2.23105 4.44369 2.61202 3.73096 3.17143 3.17155C3.73084 2.61214 4.44357 2.23118 5.21949 2.07684C5.99542 1.92249 6.79968 2.00171 7.53059 2.30446C8.26149 2.60721 8.88621 3.1199 9.32573 3.77769C9.76526 4.43549 9.99985 5.20885 9.99985 5.99998C9.9987 7.06049 9.5769 8.07723 8.827 8.82712C8.07711 9.57702 7.06036 9.99882 5.99985 9.99998Z" fill="black"/>
</g>
<defs>
<clipPath id="clip0_5_299">
<rect width="16" height="16" fill="white"/>
</clipPath>
</defs>
</svg>
