<svg width="16" height="16" viewBox="0 0 16 16" fill="none" xmlns="http://www.w3.org/2000/svg">
<g clip-path="url(#clip0_5_298)">
<path d="M13.5 5.5H10.5V2.5C10.5 2.36739 10.4473 2.24021 10.3536 2.14645C10.2598 2.05268 10.1326 2 10 2H2.5C2.36739 2 2.24021 2.05268 2.14645 2.14645C2.05268 2.24021 2 2.36739 2 2.5V10C2 10.1326 2.05268 10.2598 2.14645 10.3536C2.24021 10.4473 2.36739 10.5 2.5 10.5H5.5V13.5C5.5 13.6326 5.55268 13.7598 5.64645 13.8536C5.74021 13.9473 5.86739 14 6 14H13.5C13.6326 14 13.7598 13.9473 13.8536 13.8536C13.9473 13.7598 14 13.6326 14 13.5V6C14 5.86739 13.9473 5.74021 13.8536 5.64645C13.7598 5.55268 13.6326 5.5 13.5 5.5ZM3 3H9.5V9.5H3V3Z" fill="black"/>
</g>
<defs>
<clipPath id="clip0_5_298">
<rect width="16" height="16" fill="white"/>
</clipPath>
</defs>
</svg>
