<svg width="16" height="16" viewBox="0 0 16 16" fill="none" xmlns="http://www.w3.org/2000/svg">
<g clip-path="url(#clip0_5_994)">
<path d="M14 3H2C1.73478 3 1.48043 3.10536 1.29289 3.29289C1.10536 3.48043 1 3.73478 1 4V12C1 12.2652 1.10536 12.5196 1.29289 12.7071C1.48043 12.8946 1.73478 13 2 13H14C14.2652 13 14.5196 12.8946 14.7071 12.7071C14.8946 12.5196 15 12.2652 15 12V4C15 3.73478 14.8946 3.48043 14.7071 3.29289C14.5196 3.10536 14.2652 3 14 3ZM3.5 8H4.5C4.63261 8 4.75979 8.05268 4.85355 8.14645C4.94732 8.24021 5 8.36739 5 8.5C5 8.63261 4.94732 8.75979 4.85355 8.85355C4.75979 8.94732 4.63261 9 4.5 9H3.5C3.36739 9 3.24021 8.94732 3.14645 8.85355C3.05268 8.75979 3 8.63261 3 8.5C3 8.36739 3.05268 8.24021 3.14645 8.14645C3.24021 8.05268 3.36739 8 3.5 8ZM9.5 11H3.5C3.36739 11 3.24021 10.9473 3.14645 10.8536C3.05268 10.7598 3 10.6326 3 10.5C3 10.3674 3.05268 10.2402 3.14645 10.1464C3.24021 10.0527 3.36739 10 3.5 10H9.5C9.63261 10 9.75979 10.0527 9.85355 10.1464C9.94732 10.2402 10 10.3674 10 10.5C10 10.6326 9.94732 10.7598 9.85355 10.8536C9.75979 10.9473 9.63261 11 9.5 11ZM12.5 11H11.5C11.3674 11 11.2402 10.9473 11.1464 10.8536C11.0527 10.7598 11 10.6326 11 10.5C11 10.3674 11.0527 10.2402 11.1464 10.1464C11.2402 10.0527 11.3674 10 11.5 10H12.5C12.6326 10 12.7598 10.0527 12.8536 10.1464C12.9473 10.2402 13 10.3674 13 10.5C13 10.6326 12.9473 10.7598 12.8536 10.8536C12.7598 10.9473 12.6326 11 12.5 11ZM12.5 9H6.5C6.36739 9 6.24021 8.94732 6.14645 8.85355C6.05268 8.75979 6 8.63261 6 8.5C6 8.36739 6.05268 8.24021 6.14645 8.14645C6.24021 8.05268 6.36739 8 6.5 8H12.5C12.6326 8 12.7598 8.05268 12.8536 8.14645C12.9473 8.24021 13 8.36739 13 8.5C13 8.63261 12.9473 8.75979 12.8536 8.85355C12.7598 8.94732 12.6326 9 12.5 9Z" fill="black"/>
</g>
<defs>
<clipPath id="clip0_5_994">
<rect width="16" height="16" fill="white"/>
</clipPath>
</defs>
</svg>
