<svg width="16" height="16" viewBox="0 0 16 16" fill="none" xmlns="http://www.w3.org/2000/svg">
<g clip-path="url(#clip0_5_300)">
<path d="M3.37 2.16378C3.32496 2.11424 3.27043 2.07425 3.20965 2.04618C3.14886 2.01811 3.08306 2.00254 3.01614 2.00038C2.94923 1.99822 2.88256 2.00953 2.82009 2.03362C2.75762 2.05772 2.70063 2.09412 2.6525 2.14065C2.55971 2.23525 2.507 2.36202 2.50537 2.49452C2.50374 2.62703 2.55331 2.75505 2.64375 2.8519L2.77875 3.00003H2C1.73478 3.00003 1.48043 3.10538 1.29289 3.29292C1.10536 3.48046 1 3.73481 1 4.00003V12C1 12.2652 1.10536 12.5196 1.29289 12.7071C1.48043 12.8947 1.73478 13 2 13H11.87L12.63 13.8363C12.6743 13.885 12.7278 13.9245 12.7874 13.9525C12.8471 13.9805 12.9116 13.9964 12.9774 13.9994C13.0432 14.0023 13.109 13.9923 13.1709 13.9698C13.2328 13.9472 13.2896 13.9127 13.3381 13.8682C13.4335 13.7739 13.4888 13.6463 13.4923 13.5122C13.4958 13.3781 13.4473 13.2479 13.3569 13.1488L3.37 2.16378ZM6.5 8.00003H7.32438L8.23312 9.00003H6.51687C6.38767 9.00194 6.26253 8.95484 6.16663 8.86823C6.07074 8.78161 6.0112 8.66189 6 8.53315C5.99546 8.46476 6.00503 8.39616 6.02811 8.33162C6.0512 8.26708 6.08731 8.20798 6.1342 8.15799C6.18109 8.10799 6.23776 8.06817 6.30069 8.041C6.36361 8.01382 6.43146 7.99988 6.5 8.00003ZM3.5 8.00003H4.5C4.56854 7.99988 4.63639 8.01382 4.69931 8.041C4.76224 8.06817 4.81891 8.10799 4.8658 8.15799C4.91269 8.20798 4.9488 8.26708 4.97189 8.33162C4.99497 8.39616 5.00454 8.46476 5 8.53315C4.9888 8.66189 4.92926 8.78161 4.83337 8.86823C4.73747 8.95484 4.61233 9.00194 4.48313 9.00003H3.51688C3.38767 9.00194 3.26253 8.95484 3.16663 8.86823C3.07074 8.78161 3.0112 8.66189 3 8.53315C2.99546 8.46476 3.00503 8.39616 3.02811 8.33162C3.0512 8.26708 3.08731 8.20798 3.1342 8.15799C3.18109 8.10799 3.23776 8.06817 3.30069 8.041C3.36361 8.01382 3.43146 7.99988 3.5 8.00003ZM9.5 11H3.51688C3.38767 11.0019 3.26253 10.9548 3.16663 10.8682C3.07074 10.7816 3.0112 10.6619 3 10.5332C2.99546 10.4648 3.00503 10.3962 3.02811 10.3316C3.0512 10.2671 3.08731 10.208 3.1342 10.158C3.18109 10.108 3.23776 10.0682 3.30069 10.041C3.36361 10.0138 3.43146 9.99988 3.5 10H9.1425L9.88625 10.8182C9.83928 10.8751 9.78029 10.9209 9.71351 10.9524C9.64673 10.9838 9.57382 11.0001 9.5 11ZM15 4.00003V12C14.9999 12.1385 14.971 12.2755 14.9151 12.4022C14.8593 12.529 14.7777 12.6427 14.6756 12.7363C14.6514 12.7589 14.6229 12.7766 14.5917 12.7881C14.5606 12.7996 14.5275 12.8048 14.4944 12.8035C14.4612 12.8021 14.4286 12.7941 14.3986 12.78C14.3686 12.7659 14.3416 12.7459 14.3194 12.7213L10.9375 9.00003H12.5C12.5685 9.00018 12.6364 8.98623 12.6993 8.95906C12.7622 8.93189 12.8189 8.89207 12.8658 8.84207C12.9127 8.79207 12.9488 8.73297 12.9719 8.66843C12.995 8.60389 13.0045 8.5353 13 8.4669C12.989 8.33833 12.9296 8.21871 12.834 8.13209C12.7383 8.04548 12.6134 7.99829 12.4844 8.00003H10.0281L5.86188 3.41815C5.82916 3.38216 5.80766 3.3374 5.8 3.28936C5.79235 3.24133 5.79887 3.1921 5.81877 3.14772C5.83868 3.10334 5.87109 3.06573 5.91205 3.03949C5.95301 3.01326 6.00074 2.99954 6.04938 3.00003H14C14.2652 3.00003 14.5196 3.10538 14.7071 3.29292C14.8946 3.48046 15 3.73481 15 4.00003Z" fill="black"/>
</g>
<defs>
<clipPath id="clip0_5_300">
<rect width="16" height="16" fill="white"/>
</clipPath>
</defs>
</svg>
