<svg width="16" height="16" viewBox="0 0 16 16" fill="none" xmlns="http://www.w3.org/2000/svg">
<g clip-path="url(#clip0_5_1319)">
<path d="M9.75 11V9.5H11V10.5C11 10.6326 10.9473 10.7598 10.8536 10.8536C10.7598 10.9473 10.6326 11 10.5 11H9.75ZM8.75 11V9.5H7.25V11H8.75ZM11 5.5C11 5.36739 10.9473 5.24021 10.8536 5.14645C10.7598 5.05268 10.6326 5 10.5 5H5.5C5.36739 5 5.24021 5.05268 5.14645 5.14645C5.05268 5.24021 5 5.36739 5 5.5V8.5H11V5.5ZM9.5 1.5H6.5C5.30653 1.5 4.16193 1.97411 3.31802 2.81802C2.47411 3.66193 2 4.80653 2 6V13C2 13.1326 2.05268 13.2598 2.14645 13.3536C2.24021 13.4473 2.36739 13.5 2.5 13.5H4.78625C4.8327 13.5 4.87823 13.4871 4.91775 13.4627C4.95727 13.4383 4.98922 13.4034 5.01 13.3619L5.69125 12H5.5C5.10218 12 4.72064 11.842 4.43934 11.5607C4.15804 11.2794 4 10.8978 4 10.5V5.5C4 5.10218 4.15804 4.72064 4.43934 4.43934C4.72064 4.15804 5.10218 4 5.5 4H10.5C10.8978 4 11.2794 4.15804 11.5607 4.43934C11.842 4.72064 12 5.10218 12 5.5V10.5C12 10.8978 11.842 11.2794 11.5607 11.5607C11.2794 11.842 10.8978 12 10.5 12H10.3088L10.99 13.3619C11.0108 13.4034 11.0427 13.4383 11.0822 13.4627C11.1218 13.4871 11.1673 13.5 11.2137 13.5H13.5C13.6326 13.5 13.7598 13.4473 13.8536 13.3536C13.9473 13.2598 14 13.1326 14 13V6C14 4.80653 13.5259 3.66193 12.682 2.81802C11.8381 1.97411 10.6935 1.5 9.5 1.5ZM9.19125 12H6.80875L6.24 13.1381C6.22092 13.1763 6.21191 13.2186 6.21382 13.2612C6.21574 13.3038 6.22851 13.3452 6.25093 13.3815C6.27336 13.4177 6.30468 13.4477 6.34193 13.4684C6.37918 13.4892 6.42111 13.5 6.46375 13.5H9.53625C9.57889 13.5 9.62082 13.4892 9.65807 13.4684C9.69532 13.4477 9.72664 13.4177 9.74907 13.3815C9.77149 13.3452 9.78426 13.3038 9.78618 13.2612C9.78809 13.2186 9.77908 13.1763 9.76 13.1381L9.19125 12ZM5 10.5C5 10.6326 5.05268 10.7598 5.14645 10.8536C5.24021 10.9473 5.36739 11 5.5 11H6.25V9.5H5V10.5Z" fill="black"/>
</g>
<defs>
<clipPath id="clip0_5_1319">
<rect width="16" height="16" fill="white"/>
</clipPath>
</defs>
</svg>
