<svg width="16" height="16" viewBox="0 0 16 16" fill="none" xmlns="http://www.w3.org/2000/svg">
<g clip-path="url(#clip0_5_296)">
<path d="M12 3H10.5V1.5C10.5 1.10218 10.342 0.720644 10.0607 0.43934C9.77936 0.158035 9.39782 0 9 0L7 0C6.60218 0 6.22064 0.158035 5.93934 0.43934C5.65804 0.720644 5.5 1.10218 5.5 1.5V3H4C3.73478 3 3.48043 3.10536 3.29289 3.29289C3.10536 3.48043 3 3.73478 3 4V13C3 13.2652 3.10536 13.5196 3.29289 13.7071C3.48043 13.8946 3.73478 14 4 14H5V15C5 15.1326 5.05268 15.2598 5.14645 15.3536C5.24021 15.4473 5.36739 15.5 5.5 15.5C5.63261 15.5 5.75979 15.4473 5.85355 15.3536C5.94732 15.2598 6 15.1326 6 15V14H10V15C10 15.1326 10.0527 15.2598 10.1464 15.3536C10.2402 15.4473 10.3674 15.5 10.5 15.5C10.6326 15.5 10.7598 15.4473 10.8536 15.3536C10.9473 15.2598 11 15.1326 11 15V14H12C12.2652 14 12.5196 13.8946 12.7071 13.7071C12.8946 13.5196 13 13.2652 13 13V4C13 3.73478 12.8946 3.48043 12.7071 3.29289C12.5196 3.10536 12.2652 3 12 3ZM6 12C6 12.1326 5.94732 12.2598 5.85355 12.3536C5.75979 12.4473 5.63261 12.5 5.5 12.5C5.36739 12.5 5.24021 12.4473 5.14645 12.3536C5.05268 12.2598 5 12.1326 5 12V5C5 4.86739 5.05268 4.74021 5.14645 4.64645C5.24021 4.55268 5.36739 4.5 5.5 4.5C5.63261 4.5 5.75979 4.55268 5.85355 4.64645C5.94732 4.74021 6 4.86739 6 5V12ZM8.5 12C8.5 12.1326 8.44732 12.2598 8.35355 12.3536C8.25979 12.4473 8.13261 12.5 8 12.5C7.86739 12.5 7.74021 12.4473 7.64645 12.3536C7.55268 12.2598 7.5 12.1326 7.5 12V5C7.5 4.86739 7.55268 4.74021 7.64645 4.64645C7.74021 4.55268 7.86739 4.5 8 4.5C8.13261 4.5 8.25979 4.55268 8.35355 4.64645C8.44732 4.74021 8.5 4.86739 8.5 5V12ZM9.5 3H6.5V1.5C6.5 1.36739 6.55268 1.24021 6.64645 1.14645C6.74021 1.05268 6.86739 1 7 1H9C9.13261 1 9.25979 1.05268 9.35355 1.14645C9.44732 1.24021 9.5 1.36739 9.5 1.5V3ZM11 12C11 12.1326 10.9473 12.2598 10.8536 12.3536C10.7598 12.4473 10.6326 12.5 10.5 12.5C10.3674 12.5 10.2402 12.4473 10.1464 12.3536C10.0527 12.2598 10 12.1326 10 12V5C10 4.86739 10.0527 4.74021 10.1464 4.64645C10.2402 4.55268 10.3674 4.5 10.5 4.5C10.6326 4.5 10.7598 4.55268 10.8536 4.64645C10.9473 4.74021 11 4.86739 11 5V12Z" fill="black"/>
</g>
<defs>
<clipPath id="clip0_5_296">
<rect width="16" height="16" fill="white"/>
</clipPath>
</defs>
</svg>
