<svg width="16" height="16" viewBox="0 0 16 16" fill="none" xmlns="http://www.w3.org/2000/svg">
<g clip-path="url(#clip0_5_1011)">
<path d="M13.5 3.5H11V3C11 2.60218 10.842 2.22064 10.5607 1.93934C10.2794 1.65804 9.89782 1.5 9.5 1.5H6.5C6.10218 1.5 5.72064 1.65804 5.43934 1.93934C5.15804 2.22064 5 2.60218 5 3V3.5H2.5C2.23478 3.5 1.98043 3.60536 1.79289 3.79289C1.60536 3.98043 1.5 4.23478 1.5 4.5V12.5C1.5 12.7652 1.60536 13.0196 1.79289 13.2071C1.98043 13.3946 2.23478 13.5 2.5 13.5H13.5C13.7652 13.5 14.0196 13.3946 14.2071 13.2071C14.3946 13.0196 14.5 12.7652 14.5 12.5V4.5C14.5 4.23478 14.3946 3.98043 14.2071 3.79289C14.0196 3.60536 13.7652 3.5 13.5 3.5ZM6 3C6 2.86739 6.05268 2.74021 6.14645 2.64645C6.24021 2.55268 6.36739 2.5 6.5 2.5H9.5C9.63261 2.5 9.75979 2.55268 9.85355 2.64645C9.94732 2.74021 10 2.86739 10 3V3.5H6V3ZM13.5 4.5V9H2.5V4.5H13.5Z" fill="black"/>
</g>
<defs>
<clipPath id="clip0_5_1011">
<rect width="16" height="16" fill="white"/>
</clipPath>
</defs>
</svg>
