<svg width="16" height="16" viewBox="0 0 16 16" fill="none" xmlns="http://www.w3.org/2000/svg">
<g clip-path="url(#clip0_5_295)">
<path d="M15.5 9.99995C15.5 10.1326 15.4473 10.2597 15.3536 10.3535C15.2598 10.4473 15.1326 10.5 15 10.5H1C0.867392 10.5 0.740215 10.4473 0.646447 10.3535C0.552678 10.2597 0.5 10.1326 0.5 9.99995C0.5 9.86735 0.552678 9.74017 0.646447 9.6464C0.740215 9.55263 0.867392 9.49995 1 9.49995H3.52813C3.50967 9.33392 3.50028 9.16701 3.5 8.99995C3.5 7.80648 3.97411 6.66189 4.81802 5.81797C5.66193 4.97406 6.80653 4.49995 8 4.49995C9.19347 4.49995 10.3381 4.97406 11.182 5.81797C12.0259 6.66189 12.5 7.80648 12.5 8.99995C12.4997 9.16701 12.4903 9.33392 12.4719 9.49995H15C15.1326 9.49995 15.2598 9.55263 15.3536 9.6464C15.4473 9.74017 15.5 9.86735 15.5 9.99995ZM13 12H3C2.86739 12 2.74021 12.0526 2.64645 12.1464C2.55268 12.2402 2.5 12.3673 2.5 12.5C2.5 12.6326 2.55268 12.7597 2.64645 12.8535C2.74021 12.9473 2.86739 13 3 13H13C13.1326 13 13.2598 12.9473 13.3536 12.8535C13.4473 12.7597 13.5 12.6326 13.5 12.5C13.5 12.3673 13.4473 12.2402 13.3536 12.1464C13.2598 12.0526 13.1326 12 13 12ZM5.0525 3.7237C5.08188 3.78247 5.12255 3.83487 5.17219 3.87792C5.22182 3.92097 5.27945 3.95382 5.34178 3.9746C5.40412 3.99538 5.46993 4.00367 5.53547 3.99902C5.601 3.99436 5.66498 3.97684 5.72375 3.94745C5.78252 3.91807 5.83492 3.8774 5.87797 3.82777C5.92102 3.77813 5.95387 3.7205 5.97465 3.65817C5.99542 3.59584 6.00372 3.53003 5.99906 3.46449C5.9944 3.39895 5.97688 3.33497 5.9475 3.2762L5.4475 2.2762C5.38816 2.15752 5.2841 2.06727 5.15822 2.02531C5.03233 1.98335 4.89493 1.99311 4.77625 2.05245C4.65757 2.1118 4.56732 2.21586 4.52535 2.34174C4.48339 2.46762 4.49316 2.60502 4.5525 2.7237L5.0525 3.7237ZM1.27625 6.44745L2.27625 6.94745C2.39485 7.0068 2.53217 7.01659 2.65799 6.97469C2.78382 6.93279 2.88785 6.84262 2.94719 6.72402C3.00653 6.60542 3.01633 6.4681 2.97442 6.34227C2.93252 6.21645 2.84235 6.11242 2.72375 6.05308L1.72375 5.55308C1.66502 5.5237 1.60109 5.50617 1.53559 5.50149C1.47009 5.49682 1.40431 5.50509 1.34201 5.52584C1.2797 5.54659 1.2221 5.57941 1.17248 5.62242C1.12286 5.66543 1.0822 5.71779 1.05281 5.77652C1.02343 5.83524 1.0059 5.89918 1.00123 5.96468C0.996554 6.03018 1.00483 6.09596 1.02558 6.15826C1.04632 6.22056 1.07914 6.27817 1.12215 6.32779C1.16516 6.37741 1.21752 6.41807 1.27625 6.44745ZM13.5 6.99995C13.5774 6.99997 13.6538 6.982 13.7231 6.94745L14.7231 6.44745C14.7819 6.41807 14.8342 6.37741 14.8772 6.32779C14.9202 6.27817 14.9531 6.22056 14.9738 6.15826C14.9945 6.09596 15.0028 6.03018 14.9981 5.96468C14.9935 5.89918 14.9759 5.83524 14.9466 5.77652C14.9172 5.71779 14.8765 5.66543 14.8269 5.62242C14.7773 5.57941 14.7197 5.54659 14.6574 5.52584C14.5951 5.50509 14.5293 5.49682 14.4638 5.50149C14.3983 5.50617 14.3344 5.5237 14.2756 5.55308L13.2756 6.05308C13.175 6.10358 13.0944 6.18655 13.0468 6.28858C12.9992 6.3906 12.9874 6.5057 13.0134 6.61524C13.0393 6.72479 13.1015 6.82237 13.1898 6.89218C13.2781 6.962 13.3874 6.99998 13.5 6.99995ZM10.2762 3.94745C10.335 3.97688 10.399 3.99444 10.4645 3.99911C10.5301 4.00379 10.5959 3.99551 10.6583 3.97473C10.7206 3.95395 10.7782 3.92108 10.8279 3.87801C10.8775 3.83493 10.9181 3.7825 10.9475 3.7237L11.4475 2.7237C11.5068 2.60502 11.5166 2.46762 11.4746 2.34174C11.4327 2.21586 11.3424 2.1118 11.2238 2.05245C11.1051 1.99311 10.9677 1.98335 10.8418 2.02531C10.7159 2.06727 10.6118 2.15752 10.5525 2.2762L10.0525 3.2762C10.0231 3.33496 10.0055 3.39895 10.0008 3.46449C9.99616 3.53004 10.0044 3.59587 10.0252 3.65821C10.046 3.72055 10.0789 3.77819 10.1219 3.82782C10.165 3.87745 10.2175 3.9181 10.2762 3.94745Z" fill="black"/>
</g>
<defs>
<clipPath id="clip0_5_295">
<rect width="16" height="16" fill="white"/>
</clipPath>
</defs>
</svg>
