<svg width="16" height="16" viewBox="0 0 16 16" fill="none" xmlns="http://www.w3.org/2000/svg">
<g clip-path="url(#clip0_5_294)">
<path d="M12.5 2.5C12.3674 2.5 12.2402 2.55268 12.1464 2.64645C12.0527 2.74021 12 2.86739 12 3C12 3.13261 12.0527 3.25979 12.1464 3.35355C12.2402 3.44732 12.3674 3.5 12.5 3.5C12.7652 3.5 13.0196 3.60536 13.2071 3.79289C13.3946 3.98043 13.5 4.23478 13.5 4.5V8H2.5V4.5C2.5 4.23478 2.60536 3.98043 2.79289 3.79289C2.98043 3.60536 3.23478 3.5 3.5 3.5C3.63261 3.5 3.75979 3.44732 3.85355 3.35355C3.94732 3.25979 4 3.13261 4 3C4 2.86739 3.94732 2.74021 3.85355 2.64645C3.75979 2.55268 3.63261 2.5 3.5 2.5C2.96957 2.5 2.46086 2.71071 2.08579 3.08579C1.71071 3.46086 1.5 3.96957 1.5 4.5V10.25C1.5 10.9793 1.78973 11.6788 2.30546 12.1945C2.82118 12.7103 3.52065 13 4.25 13C4.97935 13 5.67882 12.7103 6.19454 12.1945C6.71027 11.6788 7 10.9793 7 10.25V9H9V10.25C9 10.9793 9.28973 11.6788 9.80546 12.1945C10.3212 12.7103 11.0207 13 11.75 13C12.4793 13 13.1788 12.7103 13.6945 12.1945C14.2103 11.6788 14.5 10.9793 14.5 10.25V4.5C14.5 3.96957 14.2893 3.46086 13.9142 3.08579C13.5391 2.71071 13.0304 2.5 12.5 2.5ZM5.70125 11.2013C5.60749 11.2949 5.48036 11.3476 5.34781 11.3476C5.21526 11.3476 5.08813 11.2949 4.99438 11.2013L3.64625 9.85375C3.55243 9.75993 3.49972 9.63268 3.49972 9.5C3.49972 9.36732 3.55243 9.24007 3.64625 9.14625C3.74007 9.05243 3.86732 8.99972 4 8.99972C4.13268 8.99972 4.25993 9.05243 4.35375 9.14625L5.70125 10.4944C5.79495 10.5881 5.84758 10.7153 5.84758 10.8478C5.84758 10.9804 5.79495 11.1075 5.70125 11.2013ZM13.2013 11.2013C13.1075 11.2949 12.9804 11.3476 12.8478 11.3476C12.7153 11.3476 12.5881 11.2949 12.4944 11.2013L11.1462 9.85375C11.0524 9.75993 10.9997 9.63268 10.9997 9.5C10.9997 9.36732 11.0524 9.24007 11.1462 9.14625C11.2401 9.05243 11.3673 8.99972 11.5 8.99972C11.6327 8.99972 11.7599 9.05243 11.8538 9.14625L13.2013 10.4944C13.2949 10.5881 13.3476 10.7153 13.3476 10.8478C13.3476 10.9804 13.2949 11.1075 13.2013 11.2013Z" fill="black"/>
</g>
<defs>
<clipPath id="clip0_5_294">
<rect width="16" height="16" fill="white"/>
</clipPath>
</defs>
</svg>
