<svg width="16" height="16" viewBox="0 0 16 16" fill="none" xmlns="http://www.w3.org/2000/svg">
<g clip-path="url(#clip0_5_897)">
<path d="M13 2H3C2.73478 2 2.48043 2.10536 2.29289 2.29289C2.10536 2.48043 2 2.73478 2 3V13C2 13.2652 2.10536 13.5196 2.29289 13.7071C2.48043 13.8946 2.73478 14 3 14H13C13.2652 14 13.5196 13.8946 13.7071 13.7071C13.8946 13.5196 14 13.2652 14 13V3C14 2.73478 13.8946 2.48043 13.7071 2.29289C13.5196 2.10536 13.2652 2 13 2ZM11 11.5H5C4.86739 11.5 4.74021 11.4473 4.64645 11.3536C4.55268 11.2598 4.5 11.1326 4.5 11C4.5 10.8674 4.55268 10.7402 4.64645 10.6464C4.74021 10.5527 4.86739 10.5 5 10.5H11C11.1326 10.5 11.2598 10.5527 11.3536 10.6464C11.4473 10.7402 11.5 10.8674 11.5 11C11.5 11.1326 11.4473 11.2598 11.3536 11.3536C11.2598 11.4473 11.1326 11.5 11 11.5ZM9 9.5H5C4.86739 9.5 4.74021 9.44732 4.64645 9.35355C4.55268 9.25979 4.5 9.13261 4.5 9C4.5 8.86739 4.55268 8.74021 4.64645 8.64645C4.74021 8.55268 4.86739 8.5 5 8.5H9C9.39782 8.5 9.77936 8.34196 10.0607 8.06066C10.342 7.77936 10.5 7.39782 10.5 7C10.5 6.60218 10.342 6.22064 10.0607 5.93934C9.77936 5.65804 9.39782 5.5 9 5.5H5C4.86739 5.5 4.74021 5.44732 4.64645 5.35355C4.55268 5.25979 4.5 5.13261 4.5 5C4.5 4.86739 4.55268 4.74021 4.64645 4.64645C4.74021 4.55268 4.86739 4.5 5 4.5H9C9.66304 4.5 10.2989 4.76339 10.7678 5.23223C11.2366 5.70107 11.5 6.33696 11.5 7C11.5 7.66304 11.2366 8.29893 10.7678 8.76777C10.2989 9.23661 9.66304 9.5 9 9.5Z" fill="black"/>
</g>
<defs>
<clipPath id="clip0_5_897">
<rect width="16" height="16" fill="white"/>
</clipPath>
</defs>
</svg>
