<svg width="16" height="16" viewBox="0 0 16 16" fill="none" xmlns="http://www.w3.org/2000/svg">
<g clip-path="url(#clip0_5_293)">
<path d="M13 2H3C2.73478 2 2.48043 2.10536 2.29289 2.29289C2.10536 2.48043 2 2.73478 2 3V13C2 13.2652 2.10536 13.5196 2.29289 13.7071C2.48043 13.8946 2.73478 14 3 14H13C13.2652 14 13.5196 13.8946 13.7071 13.7071C13.8946 13.5196 14 13.2652 14 13V3C14 2.73478 13.8946 2.48043 13.7071 2.29289C13.5196 2.10536 13.2652 2 13 2ZM8 12H5C4.86739 12 4.74021 11.9473 4.64645 11.8536C4.55268 11.7598 4.5 11.6326 4.5 11.5C4.5 11.3674 4.55268 11.2402 4.64645 11.1464C4.74021 11.0527 4.86739 11 5 11H8C8.79565 11 9.55871 10.6839 10.1213 10.1213C10.6839 9.55871 11 8.79565 11 8C11 7.20435 10.6839 6.44129 10.1213 5.87868C9.55871 5.31607 8.79565 5 8 5H5C4.86739 5 4.74021 4.94732 4.64645 4.85355C4.55268 4.75979 4.5 4.63261 4.5 4.5C4.5 4.36739 4.55268 4.24021 4.64645 4.14645C4.74021 4.05268 4.86739 4 5 4H8C9.06087 4 10.0783 4.42143 10.8284 5.17157C11.5786 5.92172 12 6.93913 12 8C12 9.06087 11.5786 10.0783 10.8284 10.8284C10.0783 11.5786 9.06087 12 8 12Z" fill="black"/>
</g>
<defs>
<clipPath id="clip0_5_293">
<rect width="16" height="16" fill="white"/>
</clipPath>
</defs>
</svg>
