<svg width="16" height="16" viewBox="0 0 16 16" fill="none" xmlns="http://www.w3.org/2000/svg">
<g clip-path="url(#clip0_5_291)">
<path d="M15.0001 9.74441C14.9976 9.63294 14.9765 9.52267 14.9376 9.41816L13.7464 6.15504C13.6546 5.90762 13.4687 5.7065 13.2293 5.59551C12.9899 5.48453 12.7163 5.47267 12.4682 5.56254L8.2301 7.09816L8.9851 2.78566C9.03187 2.52468 8.97307 2.25581 8.82165 2.03816C8.67022 1.82052 8.43856 1.67192 8.1776 1.62504L4.76073 1.01566C4.63155 0.992949 4.49916 0.995968 4.37116 1.02454C4.24316 1.05312 4.12205 1.10669 4.0148 1.18217C3.90755 1.25766 3.81626 1.35359 3.74617 1.46444C3.67607 1.5753 3.62856 1.6989 3.60635 1.82816L2.04385 10.7732C1.97242 11.1675 1.98841 11.5728 2.09071 11.9603C2.19301 12.3478 2.37911 12.7082 2.63589 13.0159C2.89266 13.3237 3.21385 13.5713 3.57679 13.7413C3.93972 13.9114 4.33556 13.9997 4.73635 14H14.0001C14.2653 14 14.5197 13.8947 14.7072 13.7071C14.8947 13.5196 15.0001 13.2653 15.0001 13V9.74441ZM4.7501 12.25C4.55232 12.25 4.35898 12.1914 4.19453 12.0815C4.03008 11.9716 3.90191 11.8154 3.82622 11.6327C3.75053 11.45 3.73073 11.2489 3.76932 11.0549C3.8079 10.861 3.90314 10.6828 4.04299 10.5429C4.18285 10.4031 4.36103 10.3078 4.55501 10.2692C4.74899 10.2307 4.95006 10.2505 5.13278 10.3262C5.31551 10.4018 5.47169 10.53 5.58157 10.6945C5.69145 10.8589 5.7501 11.0523 5.7501 11.25C5.7501 11.5153 5.64474 11.7696 5.45721 11.9571C5.26967 12.1447 5.01532 12.25 4.7501 12.25ZM7.4201 11.7263L8.03135 8.23129L12.8076 6.50004L14.0001 9.75691L7.29885 12.1875C7.35228 12.0375 7.39285 11.8832 7.4201 11.7263ZM14.0001 13H7.98385L14.0001 10.8194V13Z" fill="black"/>
</g>
<defs>
<clipPath id="clip0_5_291">
<rect width="16" height="16" fill="white"/>
</clipPath>
</defs>
</svg>
