<svg width="16" height="16" viewBox="0 0 16 16" fill="none" xmlns="http://www.w3.org/2000/svg">
<g clip-path="url(#clip0_5_1713)">
<path d="M1.5 10.5C1.5 10.3674 1.55268 10.2402 1.64645 10.1464C1.74021 10.0527 1.86739 10 2 10C2.90125 10 3.38687 10.3237 3.7775 10.5837C4.125 10.8162 4.40125 11 5 11C5.59875 11 5.875 10.8162 6.2225 10.5837C6.6125 10.3237 7.0975 10 7.99937 10C8.90125 10 9.38687 10.3237 9.77687 10.5837C10.1256 10.8162 10.4019 11 11 11C11.5981 11 11.875 10.8162 12.2225 10.5837C12.6131 10.3237 13.0975 10 14 10C14.1326 10 14.2598 10.0527 14.3536 10.1464C14.4473 10.2402 14.5 10.3674 14.5 10.5C14.5 10.6326 14.4473 10.7598 14.3536 10.8536C14.2598 10.9473 14.1326 11 14 11C13.4012 11 13.125 11.1838 12.7775 11.4163C12.3869 11.6763 11.9025 12 11 12C10.0975 12 9.6125 11.6763 9.2225 11.4163C8.875 11.1838 8.59812 11 8 11C7.40188 11 7.125 11.1838 6.7775 11.4163C6.3875 11.6763 5.9025 12 5.00063 12C4.09875 12 3.61375 11.6763 3.22312 11.4163C2.875 11.1838 2.59875 11 2 11C1.86739 11 1.74021 10.9473 1.64645 10.8536C1.55268 10.7598 1.5 10.6326 1.5 10.5ZM14 12.5C13.0988 12.5 12.6131 12.8237 12.2225 13.0837C11.875 13.3162 11.5988 13.5 11 13.5C10.4012 13.5 10.125 13.3162 9.77687 13.0837C9.38687 12.8237 8.90188 12.5 7.99937 12.5C7.09687 12.5 6.6125 12.8237 6.2225 13.0837C5.875 13.3162 5.59812 13.5 5 13.5C4.40188 13.5 4.125 13.3162 3.7775 13.0837C3.38687 12.8237 2.90125 12.5 2 12.5C1.86739 12.5 1.74021 12.5527 1.64645 12.6464C1.55268 12.7402 1.5 12.8674 1.5 13C1.5 13.1326 1.55268 13.2598 1.64645 13.3536C1.74021 13.4473 1.86739 13.5 2 13.5C2.59875 13.5 2.875 13.6838 3.2225 13.9163C3.61313 14.1763 4.0975 14.5 5 14.5C5.9025 14.5 6.38688 14.1763 6.77688 13.9163C7.12563 13.6838 7.40188 13.5 7.99937 13.5C8.59687 13.5 8.87437 13.6838 9.2225 13.9163C9.6125 14.1763 10.0975 14.5 11 14.5C11.9025 14.5 12.3869 14.1763 12.7775 13.9163C13.1256 13.6838 13.4025 13.5 14 13.5C14.1326 13.5 14.2598 13.4473 14.3536 13.3536C14.4473 13.2598 14.5 13.1326 14.5 13C14.5 12.8674 14.4473 12.7402 14.3536 12.6464C14.2598 12.5527 14.1326 12.5 14 12.5ZM5 8.83687V2C5 1.86739 5.05268 1.74021 5.14645 1.64645C5.24021 1.55268 5.36739 1.5 5.5 1.5C5.63261 1.5 5.75979 1.55268 5.85355 1.64645C5.94732 1.74021 6 1.86739 6 2V2.5H10V2C10 1.86739 10.0527 1.74021 10.1464 1.64645C10.2402 1.55268 10.3674 1.5 10.5 1.5C10.6326 1.5 10.7598 1.55268 10.8536 1.64645C10.9473 1.74021 11 1.86739 11 2V8.95562C11 9.08823 10.9473 9.21541 10.8536 9.30918C10.7598 9.40295 10.6326 9.45562 10.5 9.45562C10.3674 9.45562 10.2402 9.40295 10.1464 9.30918C10.0527 9.21541 10 9.08823 10 8.95562V8.5H6V8.83687C6 8.96948 5.94732 9.09666 5.85355 9.19043C5.75979 9.2842 5.63261 9.33687 5.5 9.33687C5.36739 9.33687 5.24021 9.2842 5.14645 9.19043C5.05268 9.09666 5 8.96948 5 8.83687ZM6 4.5C6 4.63261 6.05268 4.75979 6.14645 4.85355C6.24021 4.94732 6.36739 5 6.5 5H9.5C9.63261 5 9.75979 4.94732 9.85355 4.85355C9.94732 4.75979 10 4.63261 10 4.5C10 4.36739 9.94732 4.24021 9.85355 4.14645C9.75979 4.05268 9.63261 4 9.5 4H6.5C6.36739 4 6.24021 4.05268 6.14645 4.14645C6.05268 4.24021 6 4.36739 6 4.5ZM6 6.5C6 6.63261 6.05268 6.75979 6.14645 6.85355C6.24021 6.94732 6.36739 7 6.5 7H9.5C9.63261 7 9.75979 6.94732 9.85355 6.85355C9.94732 6.75979 10 6.63261 10 6.5C10 6.36739 9.94732 6.24021 9.85355 6.14645C9.75979 6.05268 9.63261 6 9.5 6H6.5C6.36739 6 6.24021 6.05268 6.14645 6.14645C6.05268 6.24021 6 6.36739 6 6.5Z" fill="black"/>
</g>
<defs>
<clipPath id="clip0_5_1713">
<rect width="16" height="16" fill="white"/>
</clipPath>
</defs>
</svg>
