<svg width="16" height="16" viewBox="0 0 16 16" fill="none" xmlns="http://www.w3.org/2000/svg">
<g clip-path="url(#clip0_5_290)">
<path d="M13.4999 2H9.49988C9.42331 1.99999 9.34776 2.01757 9.27906 2.05138C9.21036 2.08519 9.15034 2.13433 9.10363 2.195L5.10363 7.39563L4.49988 6.79313C4.40701 6.70015 4.29672 6.62639 4.17532 6.57607C4.05392 6.52574 3.92379 6.49984 3.79238 6.49984C3.66096 6.49984 3.53084 6.52574 3.40944 6.57607C3.28804 6.62639 3.17775 6.70015 3.08488 6.79313L2.54175 7.33687C2.44887 7.42974 2.37519 7.53999 2.32492 7.66133C2.27465 7.78267 2.24878 7.91272 2.24878 8.04406C2.24878 8.1754 2.27465 8.30546 2.32492 8.4268C2.37519 8.54814 2.44887 8.65839 2.54175 8.75125L3.91675 10.1263L1.91675 12.1263C1.82387 12.2191 1.75019 12.3294 1.69992 12.4507C1.64965 12.572 1.62378 12.7021 1.62378 12.8334C1.62378 12.9648 1.64965 13.0948 1.69992 13.2162C1.75019 13.3375 1.82387 13.4478 1.91675 13.5406L2.45988 14.0831C2.6474 14.2705 2.90165 14.3758 3.16675 14.3758C3.43186 14.3758 3.68611 14.2705 3.87363 14.0831L5.87363 12.0831L7.24863 13.4581C7.3415 13.5511 7.45179 13.6249 7.57319 13.6752C7.69459 13.7255 7.82471 13.7514 7.95613 13.7514C8.08754 13.7514 8.21767 13.7255 8.33907 13.6752C8.46047 13.6249 8.57076 13.5511 8.66363 13.4581L9.20675 12.9144C9.29964 12.8215 9.37332 12.7113 9.42359 12.5899C9.47385 12.4686 9.49973 12.3385 9.49973 12.2072C9.49973 12.0758 9.47385 11.9458 9.42359 11.8245C9.37332 11.7031 9.29964 11.5929 9.20675 11.5L8.60425 10.8975L13.8049 6.8975C13.8657 6.85066 13.915 6.79044 13.9488 6.72151C13.9826 6.65258 14.0001 6.57678 13.9999 6.5V2.5C13.9999 2.36739 13.9472 2.24021 13.8534 2.14645C13.7597 2.05268 13.6325 2 13.4999 2ZM12.9999 6.25375L7.89113 10.1838L7.20738 9.5L10.3536 6.35375C10.4474 6.25993 10.5 6.13271 10.4999 6.00009C10.4999 5.86747 10.4471 5.7403 10.3533 5.64656C10.2595 5.55283 10.1323 5.5002 9.99966 5.50026C9.86703 5.50031 9.73987 5.55305 9.64613 5.64687L6.49988 8.7925L5.81675 8.10875L9.74613 3H12.9999V6.25375Z" fill="black"/>
</g>
<defs>
<clipPath id="clip0_5_290">
<rect width="16" height="16" fill="white"/>
</clipPath>
</defs>
</svg>
