<svg width="16" height="16" viewBox="0 0 16 16" fill="none" xmlns="http://www.w3.org/2000/svg">
<g clip-path="url(#clip0_5_289)">
<path d="M13 3.58625V2C13 1.86739 12.9473 1.74021 12.8536 1.64645C12.7598 1.55268 12.6326 1.5 12.5 1.5C12.3674 1.5 12.2402 1.55268 12.1464 1.64645C12.0527 1.74021 12 1.86739 12 2V3.58625C11.7076 3.68962 11.4545 3.88107 11.2754 4.13425C11.0963 4.38743 11.0001 4.68989 11 5V7.63812L8.5 6.21V4.5C8.5 4.36739 8.44732 4.24021 8.35355 4.14645C8.25979 4.05268 8.13261 4 8 4C7.86739 4 7.74021 4.05268 7.64645 4.14645C7.55268 4.24021 7.5 4.36739 7.5 4.5V6.21L5 7.63812V5C4.9999 4.68989 4.90369 4.38743 4.72461 4.13425C4.54553 3.88107 4.29238 3.68962 4 3.58625V2C4 1.86739 3.94732 1.74021 3.85355 1.64645C3.75979 1.55268 3.63261 1.5 3.5 1.5C3.36739 1.5 3.24021 1.55268 3.14645 1.64645C3.05268 1.74021 3 1.86739 3 2V3.58625C2.70762 3.68962 2.45447 3.88107 2.27539 4.13425C2.09631 4.38743 2.0001 4.68989 2 5V13.5C2 13.6326 2.05268 13.7598 2.14645 13.8536C2.24021 13.9473 2.36739 14 2.5 14H6.5C6.63261 14 6.75979 13.9473 6.85355 13.8536C6.94732 13.7598 7 13.6326 7 13.5V11C7 10.7348 7.10536 10.4804 7.29289 10.2929C7.48043 10.1054 7.73478 10 8 10C8.26522 10 8.51957 10.1054 8.70711 10.2929C8.89464 10.4804 9 10.7348 9 11V13.5C9 13.6326 9.05268 13.7598 9.14645 13.8536C9.24021 13.9473 9.36739 14 9.5 14H13.5C13.6326 14 13.7598 13.9473 13.8536 13.8536C13.9473 13.7598 14 13.6326 14 13.5V5C13.9999 4.68989 13.9037 4.38743 13.7246 4.13425C13.5455 3.88107 13.2924 3.68962 13 3.58625ZM4 13H3V7H4V13ZM13 13H12V7H13V13Z" fill="black"/>
</g>
<defs>
<clipPath id="clip0_5_289">
<rect width="16" height="16" fill="white"/>
</clipPath>
</defs>
</svg>
