<svg width="16" height="16" viewBox="0 0 16 16" fill="none" xmlns="http://www.w3.org/2000/svg">
<g clip-path="url(#clip0_5_288)">
<path d="M14.8537 4.85001C14.8073 4.8965 14.7522 4.93338 14.6915 4.95854C14.6308 4.9837 14.5657 4.99665 14.5 4.99665C14.4343 4.99665 14.3692 4.9837 14.3085 4.95854C14.2478 4.93338 14.1927 4.8965 14.1462 4.85001L13 3.70313L11.2062 5.50001L13.3531 7.64688C13.4469 7.7407 13.4996 7.86795 13.4996 8.00063C13.4996 8.13332 13.4469 8.26056 13.3531 8.35438C13.2593 8.4482 13.132 8.50091 12.9994 8.50091C12.8667 8.50091 12.7394 8.4482 12.6456 8.35438L12.25 7.95438L6.99998 13.2044C6.90708 13.298 6.79657 13.3723 6.67483 13.4231C6.55308 13.4738 6.4225 13.4999 6.29061 13.5H3.20373L1.84998 14.8538C1.80136 14.9024 1.74322 14.9406 1.67919 14.9657C1.61516 14.9909 1.54662 15.0026 1.47787 15.0001C1.40911 14.9976 1.34162 14.9809 1.27961 14.9511C1.21759 14.9213 1.1624 14.879 1.11748 14.8269C1.03568 14.7275 0.9942 14.6011 1.00126 14.4726C1.00832 14.3441 1.06341 14.2229 1.15561 14.1331L2.49623 12.7919V9.70501C2.49685 9.44049 2.60225 9.18699 2.78936 9.00001L3.73811 8.05126C3.76132 8.02802 3.7889 8.00957 3.81925 7.99699C3.8496 7.98441 3.88213 7.97794 3.91498 7.97794C3.94783 7.97794 3.98037 7.98441 4.01072 7.99699C4.04107 8.00957 4.06864 8.02802 4.09186 8.05126L5.89373 9.85188C5.94019 9.89834 5.99534 9.93519 6.05603 9.96033C6.11673 9.98547 6.18178 9.99841 6.24748 9.99841C6.31318 9.99841 6.37823 9.98547 6.43893 9.96033C6.49963 9.93519 6.55478 9.89834 6.60123 9.85188C6.64769 9.80543 6.68454 9.75028 6.70968 9.68958C6.73482 9.62889 6.74776 9.56383 6.74776 9.49813C6.74776 9.43244 6.73482 9.36738 6.70968 9.30669C6.68454 9.24599 6.64769 9.19084 6.60123 9.14438L4.79873 7.34188C4.77549 7.31867 4.75705 7.29109 4.74447 7.26074C4.73188 7.23039 4.72541 7.19786 4.72541 7.16501C4.72541 7.13215 4.73188 7.09962 4.74447 7.06927C4.75705 7.03892 4.77549 7.01135 4.79873 6.98813L5.48623 6.30063C5.50945 6.27739 5.53702 6.25895 5.56737 6.24637C5.59772 6.23379 5.63025 6.22731 5.66311 6.22731C5.69596 6.22731 5.72849 6.23379 5.75884 6.24637C5.78919 6.25895 5.81676 6.27739 5.83998 6.30063L7.64248 8.10313C7.68894 8.14959 7.74409 8.18644 7.80478 8.21158C7.86548 8.23672 7.93053 8.24966 7.99623 8.24966C8.06193 8.24966 8.12698 8.23672 8.18768 8.21158C8.24838 8.18644 8.30353 8.14959 8.34998 8.10313C8.39644 8.05668 8.43329 8.00153 8.45843 7.94083C8.48357 7.88014 8.49651 7.81508 8.49651 7.74938C8.49651 7.68369 8.48357 7.61863 8.45843 7.55794C8.43329 7.49724 8.39644 7.44209 8.34998 7.39563L6.54936 5.59126C6.52611 5.56804 6.50767 5.54047 6.49509 5.51012C6.48251 5.47977 6.47603 5.44724 6.47603 5.41438C6.47603 5.38153 6.48251 5.349 6.49509 5.31865C6.50767 5.2883 6.52611 5.26073 6.54936 5.23751L8.04123 3.74626L7.64436 3.34938C7.59698 3.30202 7.5596 3.24562 7.53444 3.18353C7.50928 3.12144 7.49686 3.05492 7.49791 2.98794C7.49896 2.92095 7.51346 2.85486 7.54055 2.79359C7.56764 2.73232 7.60677 2.67711 7.65561 2.63126C7.7545 2.54306 7.88365 2.49649 8.01607 2.50126C8.14849 2.50604 8.27395 2.56179 8.36623 2.65688L10.5 4.78938L12.2931 2.99563L11.1456 1.84876C11.0982 1.80144 11.0608 1.74507 11.0356 1.683C11.0103 1.62093 10.9979 1.55443 10.9989 1.48745C10.9998 1.42046 11.0143 1.35436 11.0413 1.29306C11.0684 1.23177 11.1074 1.17653 11.1562 1.13063C11.2552 1.0424 11.3845 0.995803 11.517 1.00058C11.6495 1.00535 11.7751 1.06113 11.8675 1.15626L14.8537 4.14251C14.9002 4.18895 14.9371 4.24409 14.9623 4.30479C14.9874 4.36549 15.0004 4.43055 15.0004 4.49626C15.0004 4.56197 14.9874 4.62703 14.9623 4.68773C14.9371 4.74843 14.9002 4.80357 14.8537 4.85001Z" fill="black"/>
</g>
<defs>
<clipPath id="clip0_5_288">
<rect width="16" height="16" fill="white"/>
</clipPath>
</defs>
</svg>
