<svg width="16" height="16" viewBox="0 0 16 16" fill="none" xmlns="http://www.w3.org/2000/svg">
<g clip-path="url(#clip0_5_286)">
<path d="M16 10.5C16 10.6326 15.9473 10.7598 15.8536 10.8536C15.7598 10.9474 15.6326 11 15.5 11H0.500028C0.42153 11 0.344139 10.9815 0.274119 10.946C0.204098 10.9106 0.143415 10.8591 0.0969812 10.7958C0.0505476 10.7325 0.019668 10.6592 0.00684186 10.5817C-0.0059843 10.5043 -0.000396661 10.4249 0.0231525 10.35L1.4144 5.71253C1.47537 5.50553 1.60211 5.32402 1.77543 5.19546C1.94876 5.0669 2.15924 4.9983 2.37503 5.00003H7.63128C7.84653 4.99898 8.0563 5.0679 8.229 5.1964C8.40169 5.32491 8.52796 5.50604 8.58878 5.71253L9.87503 10H10.8313L9.4244 5.32191C9.4132 5.28458 9.41088 5.24515 9.41762 5.20677C9.42436 5.16839 9.43999 5.13211 9.46324 5.10084C9.4865 5.06957 9.51674 5.04417 9.55156 5.02667C9.58638 5.00916 9.62481 5.00004 9.66378 5.00003H10.6282C10.8431 5.00009 11.0524 5.06943 11.2249 5.19778C11.3973 5.32612 11.5238 5.50662 11.5857 5.71253L12.875 10H13.8313L12.4244 5.32191C12.4132 5.28458 12.4109 5.24515 12.4176 5.20677C12.4244 5.16839 12.44 5.13211 12.4632 5.10084C12.4865 5.06957 12.5167 5.04417 12.5516 5.02667C12.5864 5.00916 12.6248 5.00004 12.6638 5.00003H13.6282C13.8431 5.00009 14.0524 5.06943 14.2249 5.19778C14.3973 5.32612 14.5238 5.50662 14.5857 5.71253L15.9769 10.3488C15.9922 10.3977 16 10.4487 16 10.5Z" fill="black"/>
</g>
<defs>
<clipPath id="clip0_5_286">
<rect width="16" height="16" fill="white"/>
</clipPath>
</defs>
</svg>
