<svg width="16" height="16" viewBox="0 0 16 16" fill="none" xmlns="http://www.w3.org/2000/svg">
<g clip-path="url(#clip0_5_285)">
<path d="M15.4162 8.2775L12.5625 12.555C12.4713 12.6916 12.3479 12.8037 12.2031 12.8813C12.0584 12.9589 11.8967 12.9997 11.7325 13H1.99996C1.90942 13.0001 1.82056 12.9755 1.74287 12.929C1.66517 12.8825 1.60157 12.8158 1.55883 12.736C1.5161 12.6562 1.49584 12.5662 1.50022 12.4758C1.5046 12.3854 1.53346 12.2978 1.58371 12.2225L4.39933 8L1.58683 3.7775C1.53673 3.7024 1.50789 3.61514 1.50338 3.52497C1.49887 3.43481 1.51885 3.3451 1.56121 3.26538C1.60358 3.18566 1.66673 3.11889 1.74398 3.07217C1.82123 3.02544 1.90968 3.0005 1.99996 3H11.7325C11.8967 3.0003 12.0584 3.04106 12.2031 3.11868C12.3479 3.19629 12.4713 3.30836 12.5625 3.445L15.4143 7.7225C15.4694 7.80448 15.499 7.90094 15.4993 7.99972C15.4997 8.09849 15.4708 8.19515 15.4162 8.2775Z" fill="black"/>
</g>
<defs>
<clipPath id="clip0_5_285">
<rect width="16" height="16" fill="white"/>
</clipPath>
</defs>
</svg>
