<svg width="16" height="16" viewBox="0 0 16 16" fill="none" xmlns="http://www.w3.org/2000/svg">
<g clip-path="url(#clip0_5_283)">
<path d="M13.2 4.96185C13.1407 4.99015 13.0876 5.02985 13.0437 5.07869C12.9998 5.12753 12.9659 5.18454 12.944 5.24647C12.9221 5.3084 12.9127 5.37403 12.9162 5.43962C12.9197 5.50521 12.936 5.56947 12.9644 5.62872C13.5513 6.85314 13.665 8.25126 13.2837 9.55444C12.9024 10.8576 12.053 11.9739 10.8987 12.6889C9.74442 13.4039 8.3666 13.6671 7.03001 13.428C5.69342 13.1889 4.49233 12.4643 3.65752 11.3934C2.8227 10.3226 2.41304 8.981 2.50725 7.62646C2.60146 6.27191 3.19289 4.99996 4.16791 4.05497C5.14292 3.10999 6.43275 2.55863 7.78958 2.50683C9.1464 2.45503 10.4745 2.90645 11.5187 3.77435L10.0956 5.19747C9.38691 4.66944 8.50468 4.42906 7.62607 4.52462C6.74747 4.62017 5.93754 5.04457 5.35891 5.71261C4.78028 6.38064 4.4758 7.24285 4.50661 8.1261C4.53742 9.00935 4.90123 9.84825 5.52499 10.4743C6.02653 10.9757 6.66853 11.3129 7.36597 11.4412C8.0634 11.5696 8.78338 11.483 9.43053 11.193C10.0777 10.9031 10.6215 10.4234 10.9899 9.81745C11.3584 9.21152 11.5341 8.50797 11.4937 7.79997C11.49 7.73431 11.4735 7.67002 11.4449 7.61077C11.4164 7.55152 11.3764 7.49847 11.3274 7.45466C11.2784 7.41084 11.2212 7.37711 11.1591 7.35539C11.097 7.33368 11.0313 7.3244 10.9656 7.3281C10.9 7.33179 10.8357 7.34838 10.7764 7.37692C10.7172 7.40546 10.6641 7.44539 10.6203 7.49443C10.5765 7.54347 10.5428 7.60066 10.521 7.66274C10.4993 7.72481 10.49 7.79056 10.4937 7.85622C10.5205 8.31943 10.4178 8.78094 10.1972 9.18911C9.97662 9.59729 9.64677 9.93602 9.24461 10.1674C8.84244 10.3988 8.38381 10.5137 7.92006 10.4992C7.45631 10.4848 7.00573 10.3416 6.61874 10.0856L8.11562 8.58872L10.475 6.23247L14.3537 2.35747C14.4002 2.31102 14.437 2.25587 14.4622 2.19517C14.4873 2.13447 14.5003 2.06942 14.5003 2.00372C14.5003 1.93802 14.4873 1.87297 14.4622 1.81227C14.437 1.75158 14.4002 1.69643 14.3537 1.64997C14.3073 1.60352 14.2521 1.56667 14.1914 1.54152C14.1307 1.51638 14.0657 1.50344 14 1.50344C13.9343 1.50344 13.8692 1.51638 13.8085 1.54152C13.7478 1.56667 13.6927 1.60352 13.6462 1.64997L12.2294 3.06247C10.9537 1.9636 9.30147 1.40258 7.62047 1.49754C5.93948 1.59249 4.36091 2.33602 3.21714 3.57156C2.07337 4.8071 1.45365 6.43825 1.48845 8.12156C1.52326 9.80488 2.20988 11.409 3.40374 12.5962C4.48771 13.6821 5.92087 14.3496 7.44962 14.4805C8.97837 14.6113 10.5041 14.1972 11.7569 13.3113C13.0097 12.4255 13.9087 11.125 14.2948 9.64003C14.681 8.15508 14.5294 6.5814 13.8669 5.19747C13.8386 5.1382 13.7989 5.08509 13.75 5.04117C13.7012 4.99725 13.6442 4.96338 13.5822 4.9415C13.5203 4.91962 13.4547 4.91015 13.3891 4.91364C13.3235 4.91713 13.2592 4.93351 13.2 4.96185Z" fill="black"/>
</g>
<defs>
<clipPath id="clip0_5_283">
<rect width="16" height="16" fill="white"/>
</clipPath>
</defs>
</svg>
