<svg width="16" height="16" viewBox="0 0 16 16" fill="none" xmlns="http://www.w3.org/2000/svg">
<g clip-path="url(#clip0_5_1660)">
<path d="M7 8.5V4.5H8.21688C8.38947 4.50056 8.55901 4.54553 8.70919 4.63058C8.85937 4.71563 8.98513 4.8379 9.07438 4.98562L10.3575 7.125C10.4507 7.28064 10.4999 7.45861 10.5 7.64V13.5C10.5 13.7652 10.3946 14.0196 10.2071 14.2071C10.0196 14.3946 9.76522 14.5 9.5 14.5H3.5C3.23478 14.5 2.98043 14.3946 2.79289 14.2071C2.60536 14.0196 2.5 13.7652 2.5 13.5V7.63875C2.50032 7.45779 2.54956 7.28027 2.6425 7.125L3.92563 4.98562C4.01487 4.8379 4.14063 4.71563 4.29081 4.63058C4.44099 4.54553 4.61053 4.50056 4.78312 4.5H6V8.5C6 8.63261 6.05268 8.75979 6.14645 8.85355C6.24021 8.94732 6.36739 9 6.5 9C6.63261 9 6.75979 8.94732 6.85355 8.85355C6.94732 8.75979 7 8.63261 7 8.5ZM14 10C13.7348 10 13.4804 9.89464 13.2929 9.70711C13.1054 9.51957 13 9.26522 13 9V4C13 3.07174 12.6313 2.1815 11.9749 1.52513C11.3185 0.868749 10.4283 0.5 9.5 0.5C8.57174 0.5 7.6815 0.868749 7.02513 1.52513C6.36875 2.1815 6 3.07174 6 4V4.5H7V4C7 3.33696 7.26339 2.70107 7.73223 2.23223C8.20107 1.76339 8.83696 1.5 9.5 1.5C10.163 1.5 10.7989 1.76339 11.2678 2.23223C11.7366 2.70107 12 3.33696 12 4V9C12 9.53043 12.2107 10.0391 12.5858 10.4142C12.9609 10.7893 13.4696 11 14 11C14.1326 11 14.2598 10.9473 14.3536 10.8536C14.4473 10.7598 14.5 10.6326 14.5 10.5C14.5 10.3674 14.4473 10.2402 14.3536 10.1464C14.2598 10.0527 14.1326 10 14 10Z" fill="black"/>
</g>
<defs>
<clipPath id="clip0_5_1660">
<rect width="16" height="16" fill="white"/>
</clipPath>
</defs>
</svg>
