<svg width="16" height="16" viewBox="0 0 16 16" fill="none" xmlns="http://www.w3.org/2000/svg">
<g clip-path="url(#clip0_5_281)">
<path d="M13.5 4.00003H9.20687L11.3538 1.85378C11.4476 1.75996 11.5003 1.63272 11.5003 1.50003C11.5003 1.36735 11.4476 1.2401 11.3538 1.14628C11.2599 1.05246 11.1327 0.999756 11 0.999756C10.8673 0.999756 10.7401 1.05246 10.6462 1.14628L8 3.79316L5.35375 1.14628C5.3073 1.09983 5.25214 1.06298 5.19145 1.03784C5.13075 1.0127 5.0657 0.999756 5 0.999756C4.9343 0.999756 4.86925 1.0127 4.80855 1.03784C4.74786 1.06298 4.6927 1.09983 4.64625 1.14628C4.55243 1.2401 4.49972 1.36735 4.49972 1.50003C4.49972 1.63272 4.55243 1.75996 4.64625 1.85378L6.79313 4.00003H2.5C2.23478 4.00003 1.98043 4.10539 1.79289 4.29293C1.60536 4.48046 1.5 4.73482 1.5 5.00003V12.5C1.5 12.7653 1.60536 13.0196 1.79289 13.2071C1.98043 13.3947 2.23478 13.5 2.5 13.5H13.5C13.7652 13.5 14.0196 13.3947 14.2071 13.2071C14.3946 13.0196 14.5 12.7653 14.5 12.5V5.00003C14.5 4.73482 14.3946 4.48046 14.2071 4.29293C14.0196 4.10539 13.7652 4.00003 13.5 4.00003ZM13.5 12.5H2.5V5.00003H13.5V12.5ZM12.5 6.25003V11.25C12.5 11.3163 12.4737 11.3799 12.4268 11.4268C12.3799 11.4737 12.3163 11.5 12.25 11.5H3.75C3.6837 11.5 3.62011 11.4737 3.57322 11.4268C3.52634 11.3799 3.5 11.3163 3.5 11.25V6.25003C3.5 6.18373 3.52634 6.12014 3.57322 6.07326C3.62011 6.02637 3.6837 6.00003 3.75 6.00003H12.25C12.3163 6.00003 12.3799 6.02637 12.4268 6.07326C12.4737 6.12014 12.5 6.18373 12.5 6.25003Z" fill="black"/>
</g>
<defs>
<clipPath id="clip0_5_281">
<rect width="16" height="16" fill="white"/>
</clipPath>
</defs>
</svg>
