<svg width="16" height="16" viewBox="0 0 16 16" fill="none" xmlns="http://www.w3.org/2000/svg">
<g clip-path="url(#clip0_5_614)">
<path d="M13.5 4.00003H9.20687L11.3538 1.85378C11.4476 1.75996 11.5003 1.63272 11.5003 1.50003C11.5003 1.36735 11.4476 1.2401 11.3538 1.14628C11.2599 1.05246 11.1327 0.999756 11 0.999756C10.8673 0.999756 10.7401 1.05246 10.6462 1.14628L8 3.79316L5.35375 1.14628C5.3073 1.09983 5.25214 1.06298 5.19145 1.03784C5.13075 1.0127 5.0657 0.999756 5 0.999756C4.9343 0.999756 4.86925 1.0127 4.80855 1.03784C4.74786 1.06298 4.6927 1.09983 4.64625 1.14628C4.55243 1.2401 4.49972 1.36735 4.49972 1.50003C4.49972 1.63272 4.55243 1.75996 4.64625 1.85378L6.79313 4.00003H2.5C2.23478 4.00003 1.98043 4.10539 1.79289 4.29293C1.60536 4.48046 1.5 4.73482 1.5 5.00003V12.5C1.5 12.7653 1.60536 13.0196 1.79289 13.2071C1.98043 13.3947 2.23478 13.5 2.5 13.5H13.5C13.7652 13.5 14.0196 13.3947 14.2071 13.2071C14.3946 13.0196 14.5 12.7653 14.5 12.5V5.00003C14.5 4.73482 14.3946 4.48046 14.2071 4.29293C14.0196 4.10539 13.7652 4.00003 13.5 4.00003ZM13.5 12.5H10V5.00003H13.5V12.5ZM12.5 7.25003C12.5 7.39837 12.456 7.54337 12.3736 7.66671C12.2912 7.79005 12.1741 7.88618 12.037 7.94294C11.9 7.99971 11.7492 8.01456 11.6037 7.98562C11.4582 7.95668 11.3246 7.88525 11.2197 7.78036C11.1148 7.67547 11.0434 7.54184 11.0144 7.39635C10.9855 7.25087 11.0003 7.10007 11.0571 6.96302C11.1139 6.82598 11.21 6.70884 11.3333 6.62643C11.4567 6.54402 11.6017 6.50003 11.75 6.50003C11.9489 6.50003 12.1397 6.57905 12.2803 6.7197C12.421 6.86036 12.5 7.05112 12.5 7.25003ZM12.5 10.25C12.5 10.3984 12.456 10.5434 12.3736 10.6667C12.2912 10.79 12.1741 10.8862 12.037 10.9429C11.9 10.9997 11.7492 11.0146 11.6037 10.9856C11.4582 10.9567 11.3246 10.8853 11.2197 10.7804C11.1148 10.6755 11.0434 10.5418 11.0144 10.3964C10.9855 10.2509 11.0003 10.1001 11.0571 9.96302C11.1139 9.82598 11.21 9.70884 11.3333 9.62643C11.4567 9.54402 11.6017 9.50003 11.75 9.50003C11.9489 9.50003 12.1397 9.57905 12.2803 9.7197C12.421 9.86036 12.5 10.0511 12.5 10.25Z" fill="black"/>
</g>
<defs>
<clipPath id="clip0_5_614">
<rect width="16" height="16" fill="white"/>
</clipPath>
</defs>
</svg>
