<svg width="16" height="16" viewBox="0 0 16 16" fill="none" xmlns="http://www.w3.org/2000/svg">
<g clip-path="url(#clip0_5_1264)">
<path d="M14.305 1.63688C14.2276 1.56999 14.1333 1.5255 14.0324 1.50821C13.9315 1.49092 13.8279 1.50148 13.7325 1.53876L1.06629 6.49563C0.886776 6.56543 0.734801 6.69166 0.633239 6.85531C0.531677 7.01896 0.486025 7.21118 0.503158 7.40302C0.52029 7.59486 0.599279 7.77594 0.728232 7.919C0.857185 8.06207 1.02912 8.15937 1.21816 8.19626L4.50004 8.84063V12.5C4.49939 12.6993 4.55862 12.8943 4.67006 13.0595C4.7815 13.2248 4.94 13.3528 5.12504 13.4269C5.30978 13.5023 5.51295 13.5204 5.70812 13.4789C5.9033 13.4373 6.08145 13.3379 6.21941 13.1938L7.80191 11.5525L10.3125 13.75C10.4937 13.9107 10.7273 13.9996 10.9694 14C11.0755 13.9999 11.181 13.9833 11.2819 13.9506C11.4469 13.8983 11.5953 13.8036 11.7123 13.6761C11.8293 13.5486 11.9108 13.3926 11.9488 13.2238L14.4857 2.18751C14.5084 2.08798 14.5035 1.98414 14.4717 1.88715C14.4399 1.79015 14.3823 1.70363 14.305 1.63688ZM10.9707 13L5.80316 8.46876L13.2407 3.13813L10.9707 13Z" fill="black"/>
</g>
<defs>
<clipPath id="clip0_5_1264">
<rect width="16" height="16" fill="white"/>
</clipPath>
</defs>
</svg>
