<svg width="16" height="16" viewBox="0 0 16 16" fill="none" xmlns="http://www.w3.org/2000/svg">
<g clip-path="url(#clip0_5_965)">
<path d="M1.55057 7.21311C1.72511 5.77162 2.37774 4.43022 3.40419 3.4032C4.43064 2.37619 5.77168 1.72282 7.21307 1.54748C7.2472 1.54341 7.2818 1.54642 7.31472 1.55632C7.34764 1.56622 7.37816 1.5828 7.40438 1.60503C7.4306 1.62726 7.45195 1.65466 7.4671 1.68552C7.48225 1.71637 7.49088 1.75002 7.49244 1.78436C7.52336 2.54191 7.39699 3.29764 7.1213 4.00393C6.84562 4.71021 6.4266 5.35172 5.89066 5.88801C5.35473 6.4243 4.71349 6.84374 4.00739 7.11988C3.30129 7.39603 2.54564 7.5229 1.78807 7.49248C1.75368 7.491 1.71996 7.48244 1.68903 7.46732C1.6581 7.45221 1.63063 7.43086 1.60833 7.40464C1.58604 7.37841 1.5694 7.34786 1.55946 7.3149C1.54952 7.28194 1.54649 7.24729 1.55057 7.21311ZM14.2093 8.50686C14.1393 8.50686 14.0699 8.50248 13.9999 8.50248C13.2596 8.50153 12.5267 8.65033 11.8454 8.93993C11.164 9.22952 10.5483 9.65393 10.0352 10.1876C9.52214 10.7213 9.12229 11.3533 8.85974 12.0455C8.59719 12.7377 8.47735 13.4759 8.50744 14.2156C8.509 14.2499 8.51763 14.2836 8.53278 14.3144C8.54794 14.3453 8.56929 14.3727 8.59551 14.3949C8.62173 14.4172 8.65225 14.4337 8.68516 14.4436C8.71808 14.4535 8.75269 14.4566 8.78682 14.4525C10.2283 14.2771 11.5694 13.6237 12.5959 12.5965C13.6223 11.5694 14.2749 10.2278 14.4493 8.78623C14.4534 8.75185 14.4503 8.71699 14.4402 8.68387C14.4301 8.65074 14.4133 8.62008 14.3907 8.59381C14.3681 8.56755 14.3404 8.54626 14.3091 8.53129C14.2779 8.51632 14.2439 8.508 14.2093 8.50686ZM9.40369 9.40373C10.0059 8.79829 10.7222 8.31829 11.5111 7.99152C12.3001 7.66474 13.146 7.49767 13.9999 7.49998C14.0624 7.49998 14.1287 7.49998 14.1931 7.49998C14.2289 7.50127 14.2646 7.49483 14.2977 7.48109C14.3309 7.46736 14.3607 7.44666 14.3851 7.4204C14.4095 7.39413 14.428 7.36292 14.4393 7.32888C14.4506 7.29484 14.4544 7.25876 14.4506 7.22311C14.2783 5.77634 13.6244 4.42954 12.5942 3.39923C11.564 2.36892 10.2173 1.71496 8.77057 1.54248C8.73491 1.5386 8.69884 1.54244 8.66479 1.55374C8.63075 1.56503 8.59954 1.58352 8.57328 1.60795C8.54701 1.63238 8.52631 1.66217 8.51258 1.6953C8.49885 1.72844 8.49241 1.76414 8.49369 1.79998C8.52212 2.68632 8.36839 3.56906 8.04201 4.39361C7.71563 5.21816 7.22354 5.96697 6.59619 6.59373C5.99419 7.19962 5.27798 7.68008 4.48903 8.00729C3.70008 8.3345 2.85406 8.50196 1.99994 8.49998C1.93744 8.49998 1.87119 8.49998 1.80682 8.49998C1.77097 8.4987 1.73527 8.50514 1.70214 8.51887C1.669 8.5326 1.63921 8.5533 1.61479 8.57957C1.59036 8.60583 1.57187 8.63704 1.56057 8.67108C1.54928 8.70513 1.54544 8.7412 1.54932 8.77686C1.72164 10.2236 2.37545 11.5704 3.40564 12.6007C4.43584 13.631 5.78257 14.285 7.22932 14.4575C7.26497 14.4614 7.30105 14.4575 7.33509 14.4462C7.36913 14.4349 7.40034 14.4164 7.42661 14.392C7.45287 14.3676 7.47357 14.3378 7.48731 14.3047C7.50104 14.2715 7.50748 14.2358 7.50619 14.2C7.47742 13.3132 7.63099 12.43 7.95738 11.605C8.28376 10.78 8.77603 10.0308 9.40369 9.40373Z" fill="black"/>
</g>
<defs>
<clipPath id="clip0_5_965">
<rect width="16" height="16" fill="white"/>
</clipPath>
</defs>
</svg>
