<svg width="16" height="16" viewBox="0 0 16 16" fill="none" xmlns="http://www.w3.org/2000/svg">
<g clip-path="url(#clip0_5_280)">
<path d="M15.9569 11.7969L11.9569 2.79688C11.9176 2.70851 11.8535 2.63343 11.7724 2.58074C11.6913 2.52805 11.5967 2.5 11.5 2.5H4.49999C4.40329 2.5 4.30866 2.52805 4.22757 2.58074C4.14648 2.63343 4.08241 2.70851 4.04312 2.79688V2.80437L0.0431191 11.7969C0.00927441 11.873 -0.00501231 11.9564 0.00155705 12.0394C0.00812641 12.1225 0.0353436 12.2026 0.0807357 12.2724C0.126128 12.3423 0.188256 12.3997 0.261475 12.4394C0.334695 12.4792 0.416684 12.5 0.499994 12.5H15.5C15.5833 12.5 15.6653 12.4792 15.7385 12.4394C15.8117 12.3997 15.8739 12.3423 15.9193 12.2724C15.9646 12.2026 15.9919 12.1225 15.9984 12.0394C16.005 11.9564 15.9907 11.873 15.9569 11.7969ZM3.99999 11.5H1.26937L3.99999 5.35625V11.5ZM4.99999 11.5V5.35625L7.73062 11.5H4.99999Z" fill="black"/>
</g>
<defs>
<clipPath id="clip0_5_280">
<rect width="16" height="16" fill="white"/>
</clipPath>
</defs>
</svg>
