<svg width="16" height="16" viewBox="0 0 16 16" fill="none" xmlns="http://www.w3.org/2000/svg">
<g clip-path="url(#clip0_5_279)">
<path d="M13.5 2.5H2.5C2.23478 2.5 1.98043 2.60536 1.79289 2.79289C1.60536 2.98043 1.5 3.23478 1.5 3.5V12.5C1.5 12.7652 1.60536 13.0196 1.79289 13.2071C1.98043 13.3946 2.23478 13.5 2.5 13.5H13.5C13.7652 13.5 14.0196 13.3946 14.2071 13.2071C14.3946 13.0196 14.5 12.7652 14.5 12.5V3.5C14.5 3.23478 14.3946 2.98043 14.2071 2.79289C14.0196 2.60536 13.7652 2.5 13.5 2.5ZM4.85375 10.8538C4.75993 10.9476 4.63268 11.0003 4.5 11.0003C4.36732 11.0003 4.24007 10.9476 4.14625 10.8538C4.05243 10.7599 3.99972 10.6327 3.99972 10.5C3.99972 10.3673 4.05243 10.2401 4.14625 10.1462L6.29313 8L4.14625 5.85375C4.05243 5.75993 3.99972 5.63268 3.99972 5.5C3.99972 5.36732 4.05243 5.24007 4.14625 5.14625C4.24007 5.05243 4.36732 4.99972 4.5 4.99972C4.63268 4.99972 4.75993 5.05243 4.85375 5.14625L7.35375 7.64625C7.40024 7.69269 7.43712 7.74783 7.46228 7.80853C7.48744 7.86923 7.50039 7.93429 7.50039 8C7.50039 8.06571 7.48744 8.13077 7.46228 8.19147C7.43712 8.25217 7.40024 8.30731 7.35375 8.35375L4.85375 10.8538ZM12 11H8C7.86739 11 7.74021 10.9473 7.64645 10.8536C7.55268 10.7598 7.5 10.6326 7.5 10.5C7.5 10.3674 7.55268 10.2402 7.64645 10.1464C7.74021 10.0527 7.86739 10 8 10H12C12.1326 10 12.2598 10.0527 12.3536 10.1464C12.4473 10.2402 12.5 10.3674 12.5 10.5C12.5 10.6326 12.4473 10.7598 12.3536 10.8536C12.2598 10.9473 12.1326 11 12 11Z" fill="black"/>
</g>
<defs>
<clipPath id="clip0_5_279">
<rect width="16" height="16" fill="white"/>
</clipPath>
</defs>
</svg>
