<svg width="16" height="16" viewBox="0 0 16 16" fill="none" xmlns="http://www.w3.org/2000/svg">
<g clip-path="url(#clip0_5_278)">
<path d="M13.5 2.5H2.5C2.23478 2.5 1.98043 2.60536 1.79289 2.79289C1.60536 2.98043 1.5 3.23478 1.5 3.5V12.5C1.5 12.7652 1.60536 13.0196 1.79289 13.2071C1.98043 13.3946 2.23478 13.5 2.5 13.5H13.5C13.7652 13.5 14.0196 13.3946 14.2071 13.2071C14.3946 13.0196 14.5 12.7652 14.5 12.5V3.5C14.5 3.23478 14.3946 2.98043 14.2071 2.79289C14.0196 2.60536 13.7652 2.5 13.5 2.5ZM7.8125 8.39062L5.3125 10.3906C5.2612 10.4317 5.20232 10.4622 5.13923 10.4805C5.07613 10.4988 5.01005 10.5044 4.94476 10.4972C4.87947 10.4899 4.81624 10.4699 4.7587 10.4382C4.70115 10.4065 4.65041 10.3638 4.60938 10.3125C4.56834 10.2612 4.5378 10.2023 4.51952 10.1392C4.50124 10.0761 4.49556 10.01 4.50282 9.94476C4.51007 9.87947 4.53011 9.81624 4.5618 9.7587C4.59349 9.70115 4.6362 9.65041 4.6875 9.60938L6.69938 8L4.6875 6.39062C4.6362 6.34959 4.59349 6.29885 4.5618 6.2413C4.53011 6.18376 4.51007 6.12053 4.50282 6.05524C4.49556 5.98995 4.50124 5.92387 4.51952 5.86077C4.5378 5.79768 4.56834 5.7388 4.60938 5.6875C4.65041 5.6362 4.70115 5.59349 4.7587 5.5618C4.81624 5.53011 4.87947 5.51007 4.94476 5.50282C5.01005 5.49556 5.07613 5.50124 5.13923 5.51952C5.20232 5.5378 5.2612 5.56834 5.3125 5.60938L7.8125 7.60938C7.87112 7.65621 7.91845 7.71565 7.95098 7.78327C7.9835 7.85089 8.00039 7.92496 8.00039 8C8.00039 8.07504 7.9835 8.14911 7.95098 8.21673C7.91845 8.28435 7.87112 8.34379 7.8125 8.39062ZM11 10.5H8.5C8.36739 10.5 8.24021 10.4473 8.14645 10.3536C8.05268 10.2598 8 10.1326 8 10C8 9.86739 8.05268 9.74021 8.14645 9.64645C8.24021 9.55268 8.36739 9.5 8.5 9.5H11C11.1326 9.5 11.2598 9.55268 11.3536 9.64645C11.4473 9.74021 11.5 9.86739 11.5 10C11.5 10.1326 11.4473 10.2598 11.3536 10.3536C11.2598 10.4473 11.1326 10.5 11 10.5Z" fill="black"/>
</g>
<defs>
<clipPath id="clip0_5_278">
<rect width="16" height="16" fill="white"/>
</clipPath>
</defs>
</svg>
