<svg width="16" height="16" viewBox="0 0 16 16" fill="none" xmlns="http://www.w3.org/2000/svg">
<g clip-path="url(#clip0_5_850)">
<path d="M13 2H3C2.73478 2 2.48043 2.10536 2.29289 2.29289C2.10536 2.48043 2 2.73478 2 3V13C2 13.2652 2.10536 13.5196 2.29289 13.7071C2.48043 13.8946 2.73478 14 3 14H13C13.2652 14 13.5196 13.8946 13.7071 13.7071C13.8946 13.5196 14 13.2652 14 13V3C14 2.73478 13.8946 2.48043 13.7071 2.29289C13.5196 2.10536 13.2652 2 13 2ZM5 4.5C5 4.36739 5.05268 4.24021 5.14645 4.14645C5.24021 4.05268 5.36739 4 5.5 4C5.63261 4 5.75979 4.05268 5.85355 4.14645C5.94732 4.24021 6 4.36739 6 4.5V7.5C6 8.03043 6.21071 8.53914 6.58579 8.91421C6.96086 9.28929 7.46957 9.5 8 9.5C8.53043 9.5 9.03914 9.28929 9.41421 8.91421C9.78929 8.53914 10 8.03043 10 7.5V4.5C10 4.36739 10.0527 4.24021 10.1464 4.14645C10.2402 4.05268 10.3674 4 10.5 4C10.6326 4 10.7598 4.05268 10.8536 4.14645C10.9473 4.24021 11 4.36739 11 4.5V7.5C11 8.29565 10.6839 9.05871 10.1213 9.62132C9.55871 10.1839 8.79565 10.5 8 10.5C7.20435 10.5 6.44129 10.1839 5.87868 9.62132C5.31607 9.05871 5 8.29565 5 7.5V4.5ZM11 12.5H5C4.86739 12.5 4.74021 12.4473 4.64645 12.3536C4.55268 12.2598 4.5 12.1326 4.5 12C4.5 11.8674 4.55268 11.7402 4.64645 11.6464C4.74021 11.5527 4.86739 11.5 5 11.5H11C11.1326 11.5 11.2598 11.5527 11.3536 11.6464C11.4473 11.7402 11.5 11.8674 11.5 12C11.5 12.1326 11.4473 12.2598 11.3536 12.3536C11.2598 12.4473 11.1326 12.5 11 12.5Z" fill="black"/>
</g>
<defs>
<clipPath id="clip0_5_850">
<rect width="16" height="16" fill="white"/>
</clipPath>
</defs>
</svg>
