<svg width="16" height="16" viewBox="0 0 16 16" fill="none" xmlns="http://www.w3.org/2000/svg">
<g clip-path="url(#clip0_5_277)">
<path d="M9.29562 7.5H6.70437L8 4.69312L9.29562 7.5ZM13.5 2V14C13.5 14.1326 13.4473 14.2598 13.3536 14.3536C13.2598 14.4473 13.1326 14.5 13 14.5H3C2.86739 14.5 2.74021 14.4473 2.64645 14.3536C2.55268 14.2598 2.5 14.1326 2.5 14V2C2.5 1.86739 2.55268 1.74021 2.64645 1.64645C2.74021 1.55268 2.86739 1.5 3 1.5H13C13.1326 1.5 13.2598 1.55268 13.3536 1.64645C13.4473 1.74021 13.5 1.86739 13.5 2ZM4.79063 10.4537C4.91098 10.5092 5.04842 10.5146 5.17276 10.4688C5.2971 10.423 5.39816 10.3297 5.45375 10.2094L6.24312 8.5H9.75688L10.5463 10.2094C10.6045 10.3253 10.7055 10.4141 10.828 10.4569C10.9504 10.4998 11.0848 10.4934 11.2026 10.439C11.3204 10.3846 11.4124 10.2866 11.4593 10.1656C11.5062 10.0446 11.5042 9.91017 11.4537 9.79062L8.45375 3.29063C8.41367 3.20403 8.34965 3.13072 8.26925 3.07934C8.18884 3.02795 8.09542 3.00065 8 3.00065C7.90458 3.00065 7.81116 3.02795 7.73075 3.07934C7.65035 3.13072 7.58633 3.20403 7.54625 3.29063L4.54625 9.79062C4.4908 9.91098 4.48538 10.0484 4.53121 10.1728C4.57703 10.2971 4.67033 10.3982 4.79063 10.4537ZM12.5 12C12.5 11.8674 12.4473 11.7402 12.3536 11.6464C12.2598 11.5527 12.1326 11.5 12 11.5H4C3.86739 11.5 3.74021 11.5527 3.64645 11.6464C3.55268 11.7402 3.5 11.8674 3.5 12C3.5 12.1326 3.55268 12.2598 3.64645 12.3536C3.74021 12.4473 3.86739 12.5 4 12.5H12C12.1326 12.5 12.2598 12.4473 12.3536 12.3536C12.4473 12.2598 12.5 12.1326 12.5 12Z" fill="black"/>
</g>
<defs>
<clipPath id="clip0_5_277">
<rect width="16" height="16" fill="white"/>
</clipPath>
</defs>
</svg>
