<svg width="16" height="16" viewBox="0 0 16 16" fill="none" xmlns="http://www.w3.org/2000/svg">
<g clip-path="url(#clip0_5_274)">
<path d="M13 2H3C2.73478 2 2.48043 2.10536 2.29289 2.29289C2.10536 2.48043 2 2.73478 2 3V13C2 13.2652 2.10536 13.5196 2.29289 13.7071C2.48043 13.8946 2.73478 14 3 14H13C13.2652 14 13.5196 13.8946 13.7071 13.7071C13.8946 13.5196 14 13.2652 14 13V3C14 2.73478 13.8946 2.48043 13.7071 2.29289C13.5196 2.10536 13.2652 2 13 2ZM10 11.5H4C3.86739 11.5 3.74021 11.4473 3.64645 11.3536C3.55268 11.2598 3.5 11.1326 3.5 11C3.5 10.8674 3.55268 10.7402 3.64645 10.6464C3.74021 10.5527 3.86739 10.5 4 10.5H10C10.1326 10.5 10.2598 10.5527 10.3536 10.6464C10.4473 10.7402 10.5 10.8674 10.5 11C10.5 11.1326 10.4473 11.2598 10.3536 11.3536C10.2598 11.4473 10.1326 11.5 10 11.5ZM12 9.5H4C3.86739 9.5 3.74021 9.44732 3.64645 9.35355C3.55268 9.25979 3.5 9.13261 3.5 9C3.5 8.86739 3.55268 8.74021 3.64645 8.64645C3.74021 8.55268 3.86739 8.5 4 8.5H12C12.1326 8.5 12.2598 8.55268 12.3536 8.64645C12.4473 8.74021 12.5 8.86739 12.5 9C12.5 9.13261 12.4473 9.25979 12.3536 9.35355C12.2598 9.44732 12.1326 9.5 12 9.5ZM3.5 7C3.5 6.86739 3.55268 6.74021 3.64645 6.64645C3.74021 6.55268 3.86739 6.5 4 6.5H10C10.1326 6.5 10.2598 6.55268 10.3536 6.64645C10.4473 6.74021 10.5 6.86739 10.5 7C10.5 7.13261 10.4473 7.25979 10.3536 7.35355C10.2598 7.44732 10.1326 7.5 10 7.5H4C3.86739 7.5 3.74021 7.44732 3.64645 7.35355C3.55268 7.25979 3.5 7.13261 3.5 7ZM12 5.5H4C3.86739 5.5 3.74021 5.44732 3.64645 5.35355C3.55268 5.25979 3.5 5.13261 3.5 5C3.5 4.86739 3.55268 4.74021 3.64645 4.64645C3.74021 4.55268 3.86739 4.5 4 4.5H12C12.1326 4.5 12.2598 4.55268 12.3536 4.64645C12.4473 4.74021 12.5 4.86739 12.5 5C12.5 5.13261 12.4473 5.25979 12.3536 5.35355C12.2598 5.44732 12.1326 5.5 12 5.5Z" fill="black"/>
</g>
<defs>
<clipPath id="clip0_5_274">
<rect width="16" height="16" fill="white"/>
</clipPath>
</defs>
</svg>
