<svg width="16" height="16" viewBox="0 0 16 16" fill="none" xmlns="http://www.w3.org/2000/svg">
<g clip-path="url(#clip0_5_276)">
<path d="M12.5 9.75C12.5 10.1562 12.0419 10.5 11.5 10.5C10.9581 10.5 10.5 10.1562 10.5 9.75C10.5 9.34375 10.9581 9 11.5 9C12.0419 9 12.5 9.34375 12.5 9.75ZM14.5 3.5V12.5C14.5 12.7652 14.3946 13.0196 14.2071 13.2071C14.0196 13.3946 13.7652 13.5 13.5 13.5H2.5C2.23478 13.5 1.98043 13.3946 1.79289 13.2071C1.60536 13.0196 1.5 12.7652 1.5 12.5V3.5C1.5 3.23478 1.60536 2.98043 1.79289 2.79289C1.98043 2.60536 2.23478 2.5 2.5 2.5H13.5C13.7652 2.5 14.0196 2.60536 14.2071 2.79289C14.3946 2.98043 14.5 3.23478 14.5 3.5ZM8.96062 10.805L6.21063 4.305C6.17239 4.21443 6.10829 4.13715 6.02637 4.08281C5.94444 4.02847 5.84831 3.99949 5.75 3.99949C5.65169 3.99949 5.55556 4.02847 5.47363 4.08281C5.39171 4.13715 5.32761 4.21443 5.28937 4.305L2.53938 10.805C2.48766 10.9272 2.48659 11.0649 2.5364 11.1878C2.58622 11.3108 2.68283 11.4089 2.805 11.4606C2.92717 11.5123 3.06487 11.5134 3.18783 11.4636C3.31078 11.4138 3.40891 11.3172 3.46062 11.195L4.1775 9.5H7.3225L8.03938 11.195C8.09109 11.3172 8.18922 11.4138 8.31217 11.4636C8.43513 11.5134 8.57283 11.5123 8.695 11.4606C8.81716 11.4089 8.91378 11.3108 8.9636 11.1878C9.01341 11.0649 9.01234 10.9272 8.96062 10.805ZM13.5 7.75C13.5 6.785 12.6025 6 11.5 6C11.0336 5.99655 10.5783 6.14289 10.2013 6.4175C10.0949 6.49673 10.0244 6.61496 10.0052 6.74618C9.98608 6.8774 10.0198 7.01085 10.0991 7.11719C10.1783 7.22352 10.2965 7.29403 10.4277 7.31319C10.559 7.33236 10.6924 7.29861 10.7987 7.21938C11.0031 7.07332 11.2488 6.99646 11.5 7C12.035 7 12.4875 7.335 12.5 7.735V8.235C12.1898 8.07894 11.8472 7.99842 11.5 8C10.3975 8 9.5 8.785 9.5 9.75C9.5 10.715 10.3975 11.5 11.5 11.5C11.8695 11.5017 12.2334 11.4101 12.5581 11.2338C12.6104 11.3324 12.6941 11.4107 12.796 11.4563C12.8979 11.5018 13.0121 11.5119 13.1204 11.485C13.2288 11.4582 13.325 11.3958 13.3938 11.3079C13.4626 11.22 13.4999 11.1116 13.5 11V7.75ZM4.60063 8.5H6.89937L5.75 5.78312L4.60063 8.5Z" fill="black"/>
</g>
<defs>
<clipPath id="clip0_5_276">
<rect width="16" height="16" fill="white"/>
</clipPath>
</defs>
</svg>
