<svg width="16" height="16" viewBox="0 0 16 16" fill="none" xmlns="http://www.w3.org/2000/svg">
<g clip-path="url(#clip0_5_267)">
<path d="M13 2H3C2.73478 2 2.48043 2.10536 2.29289 2.29289C2.10536 2.48043 2 2.73478 2 3V13C2 13.2652 2.10536 13.5196 2.29289 13.7071C2.48043 13.8946 2.73478 14 3 14H13C13.2652 14 13.5196 13.8946 13.7071 13.7071C13.8946 13.5196 14 13.2652 14 13V3C14 2.73478 13.8946 2.48043 13.7071 2.29289C13.5196 2.10536 13.2652 2 13 2ZM8 10C8 10.1326 7.94732 10.2598 7.85355 10.3536C7.75979 10.4473 7.63261 10.5 7.5 10.5C7.36739 10.5 7.24021 10.4473 7.14645 10.3536C7.05268 10.2598 7 10.1326 7 10V8H4.5V10C4.5 10.1326 4.44732 10.2598 4.35355 10.3536C4.25979 10.4473 4.13261 10.5 4 10.5C3.86739 10.5 3.74021 10.4473 3.64645 10.3536C3.55268 10.2598 3.5 10.1326 3.5 10V5C3.5 4.86739 3.55268 4.74021 3.64645 4.64645C3.74021 4.55268 3.86739 4.5 4 4.5C4.13261 4.5 4.25979 4.55268 4.35355 4.64645C4.44732 4.74021 4.5 4.86739 4.5 5V7H7V5C7 4.86739 7.05268 4.74021 7.14645 4.64645C7.24021 4.55268 7.36739 4.5 7.5 4.5C7.63261 4.5 7.75979 4.55268 7.85355 4.64645C7.94732 4.74021 8 4.86739 8 5V10ZM12 11.5H9.5C9.40714 11.5 9.31612 11.4741 9.23713 11.4253C9.15815 11.3765 9.09431 11.3067 9.05279 11.2236C9.01126 11.1406 8.99368 11.0476 9.00202 10.9551C9.01036 10.8626 9.04429 10.7743 9.1 10.7L11.35 7.7C11.4115 7.62159 11.4567 7.53171 11.483 7.43563C11.5093 7.33955 11.5163 7.23919 11.5034 7.1404C11.4905 7.04161 11.4581 6.94638 11.408 6.86026C11.3579 6.77414 11.2911 6.69887 11.2116 6.63884C11.1321 6.5788 11.0415 6.53521 10.9449 6.51061C10.8484 6.486 10.7479 6.48088 10.6494 6.49553C10.5508 6.51018 10.4562 6.54432 10.371 6.59596C10.2858 6.64759 10.2117 6.71568 10.1531 6.79625C10.0788 6.88398 10.0239 6.98643 9.99187 7.09688C9.97938 7.16176 9.95416 7.22353 9.91765 7.27861C9.88114 7.33368 9.83408 7.38098 9.77918 7.41776C9.72428 7.45454 9.66264 7.48007 9.59782 7.49288C9.53299 7.50569 9.46627 7.50552 9.40151 7.49239C9.33675 7.47925 9.27523 7.45341 9.22052 7.41636C9.16581 7.37931 9.11898 7.33178 9.08275 7.27652C9.04652 7.22126 9.0216 7.15937 9.00944 7.09442C8.99727 7.02947 8.9981 6.96275 9.01188 6.89813C9.06448 6.63964 9.1745 6.39628 9.3338 6.18603C9.4931 5.97578 9.6976 5.80401 9.93221 5.68341C10.1668 5.56281 10.4255 5.49647 10.6892 5.48929C10.9529 5.48211 11.2148 5.53427 11.4556 5.64192C11.6965 5.74957 11.91 5.90995 12.0805 6.11122C12.251 6.31249 12.3741 6.5495 12.4407 6.80474C12.5073 7.05998 12.5157 7.32692 12.4653 7.58584C12.4149 7.84476 12.3069 8.08904 12.1494 8.30062L10.5 10.5H12C12.1326 10.5 12.2598 10.5527 12.3536 10.6464C12.4473 10.7402 12.5 10.8674 12.5 11C12.5 11.1326 12.4473 11.2598 12.3536 11.3536C12.2598 11.4473 12.1326 11.5 12 11.5Z" fill="black"/>
</g>
<defs>
<clipPath id="clip0_5_267">
<rect width="16" height="16" fill="white"/>
</clipPath>
</defs>
</svg>
