<svg width="16" height="16" viewBox="0 0 16 16" fill="none" xmlns="http://www.w3.org/2000/svg">
<g clip-path="url(#clip0_5_1633)">
<path d="M13 2H3C2.73478 2 2.48043 2.10536 2.29289 2.29289C2.10536 2.48043 2 2.73478 2 3V13C2 13.2652 2.10536 13.5196 2.29289 13.7071C2.48043 13.8946 2.73478 14 3 14H13C13.2652 14 13.5196 13.8946 13.7071 13.7071C13.8946 13.5196 14 13.2652 14 13V3C14 2.73478 13.8946 2.48043 13.7071 2.29289C13.5196 2.10536 13.2652 2 13 2ZM8 10C8 10.1326 7.94732 10.2598 7.85355 10.3536C7.75979 10.4473 7.63261 10.5 7.5 10.5C7.36739 10.5 7.24021 10.4473 7.14645 10.3536C7.05268 10.2598 7 10.1326 7 10V8H4.5V10C4.5 10.1326 4.44732 10.2598 4.35355 10.3536C4.25979 10.4473 4.13261 10.5 4 10.5C3.86739 10.5 3.74021 10.4473 3.64645 10.3536C3.55268 10.2598 3.5 10.1326 3.5 10V5C3.5 4.86739 3.55268 4.74021 3.64645 4.64645C3.74021 4.55268 3.86739 4.5 4 4.5C4.13261 4.5 4.25979 4.55268 4.35355 4.64645C4.44732 4.74021 4.5 4.86739 4.5 5V7H7V5C7 4.86739 7.05268 4.74021 7.14645 4.64645C7.24021 4.55268 7.36739 4.5 7.5 4.5C7.63261 4.5 7.75979 4.55268 7.85355 4.64645C7.94732 4.74021 8 4.86739 8 5V10ZM10.5 11.5C10.0079 11.5001 9.53303 11.3187 9.16625 10.9906C9.06746 10.9021 9.00787 10.778 9.00061 10.6455C8.99334 10.5131 9.03898 10.3832 9.1275 10.2844C9.21602 10.1856 9.34015 10.126 9.4726 10.1187C9.60505 10.1115 9.73496 10.1571 9.83375 10.2456C9.9546 10.3536 10.0999 10.4306 10.2571 10.47C10.4144 10.5094 10.5788 10.51 10.7363 10.4717C10.8938 10.4334 11.0396 10.3574 11.1612 10.2503C11.2828 10.1431 11.3766 10.008 11.4344 9.85658C11.4922 9.70515 11.5123 9.54194 11.493 9.38101C11.4737 9.22008 11.4156 9.06624 11.3237 8.93276C11.2317 8.79927 11.1087 8.69014 10.9652 8.61475C10.8217 8.53936 10.6621 8.49998 10.5 8.5C10.4071 8.5 10.3161 8.47414 10.2371 8.42533C10.1581 8.37651 10.0943 8.30666 10.0528 8.22361C10.0113 8.14055 9.99368 8.04758 10.002 7.9551C10.0104 7.86262 10.0443 7.77428 10.1 7.7L11 6.5H9.5C9.36739 6.5 9.24021 6.44732 9.14645 6.35355C9.05268 6.25979 9 6.13261 9 6C9 5.86739 9.05268 5.74021 9.14645 5.64645C9.24021 5.55268 9.36739 5.5 9.5 5.5H12C12.0929 5.5 12.1839 5.52586 12.2629 5.57467C12.3419 5.62349 12.4057 5.69334 12.4472 5.77639C12.4887 5.85945 12.5063 5.95242 12.498 6.0449C12.4896 6.13738 12.4557 6.22572 12.4 6.3L11.3556 7.6925C11.7661 7.8869 12.0981 8.21521 12.2972 8.62341C12.4962 9.03161 12.5504 9.49541 12.4508 9.93851C12.3513 10.3816 12.1039 10.7776 11.7493 11.0614C11.3947 11.3452 10.9541 11.4999 10.5 11.5Z" fill="black"/>
</g>
<defs>
<clipPath id="clip0_5_1633">
<rect width="16" height="16" fill="white"/>
</clipPath>
</defs>
</svg>
