<svg width="16" height="16" viewBox="0 0 16 16" fill="none" xmlns="http://www.w3.org/2000/svg">
<g clip-path="url(#clip0_5_272)">
<path d="M13.5 2.5H2.5C2.23478 2.5 1.98043 2.60536 1.79289 2.79289C1.60536 2.98043 1.5 3.23478 1.5 3.5V12.5C1.5 12.7652 1.60536 13.0196 1.79289 13.2071C1.98043 13.3946 2.23478 13.5 2.5 13.5H13.5C13.7652 13.5 14.0196 13.3946 14.2071 13.2071C14.3946 13.0196 14.5 12.7652 14.5 12.5V3.5C14.5 3.23478 14.3946 2.98043 14.2071 2.79289C14.0196 2.60536 13.7652 2.5 13.5 2.5ZM7 11.5H3.5C3.36739 11.5 3.24021 11.4473 3.14645 11.3536C3.05268 11.2598 3 11.1326 3 11C3 10.8674 3.05268 10.7402 3.14645 10.6464C3.24021 10.5527 3.36739 10.5 3.5 10.5H7C7.13261 10.5 7.25979 10.5527 7.35355 10.6464C7.44732 10.7402 7.5 10.8674 7.5 11C7.5 11.1326 7.44732 11.2598 7.35355 11.3536C7.25979 11.4473 7.13261 11.5 7 11.5ZM7 9.5H3.5C3.36739 9.5 3.24021 9.44732 3.14645 9.35355C3.05268 9.25979 3 9.13261 3 9C3 8.86739 3.05268 8.74021 3.14645 8.64645C3.24021 8.55268 3.36739 8.5 3.5 8.5H7C7.13261 8.5 7.25979 8.55268 7.35355 8.64645C7.44732 8.74021 7.5 8.86739 7.5 9C7.5 9.13261 7.44732 9.25979 7.35355 9.35355C7.25979 9.44732 7.13261 9.5 7 9.5ZM7 7.5H3.5C3.36739 7.5 3.24021 7.44732 3.14645 7.35355C3.05268 7.25979 3 7.13261 3 7C3 6.86739 3.05268 6.74021 3.14645 6.64645C3.24021 6.55268 3.36739 6.5 3.5 6.5H7C7.13261 6.5 7.25979 6.55268 7.35355 6.64645C7.44732 6.74021 7.5 6.86739 7.5 7C7.5 7.13261 7.44732 7.25979 7.35355 7.35355C7.25979 7.44732 7.13261 7.5 7 7.5ZM7 5.5H3.5C3.36739 5.5 3.24021 5.44732 3.14645 5.35355C3.05268 5.25979 3 5.13261 3 5C3 4.86739 3.05268 4.74021 3.14645 4.64645C3.24021 4.55268 3.36739 4.5 3.5 4.5H7C7.13261 4.5 7.25979 4.55268 7.35355 4.64645C7.44732 4.74021 7.5 4.86739 7.5 5C7.5 5.13261 7.44732 5.25979 7.35355 5.35355C7.25979 5.44732 7.13261 5.5 7 5.5ZM12.5 11.5H9C8.86739 11.5 8.74021 11.4473 8.64645 11.3536C8.55268 11.2598 8.5 11.1326 8.5 11C8.5 10.8674 8.55268 10.7402 8.64645 10.6464C8.74021 10.5527 8.86739 10.5 9 10.5H12.5C12.6326 10.5 12.7598 10.5527 12.8536 10.6464C12.9473 10.7402 13 10.8674 13 11C13 11.1326 12.9473 11.2598 12.8536 11.3536C12.7598 11.4473 12.6326 11.5 12.5 11.5ZM12.5 9.5H9C8.86739 9.5 8.74021 9.44732 8.64645 9.35355C8.55268 9.25979 8.5 9.13261 8.5 9C8.5 8.86739 8.55268 8.74021 8.64645 8.64645C8.74021 8.55268 8.86739 8.5 9 8.5H12.5C12.6326 8.5 12.7598 8.55268 12.8536 8.64645C12.9473 8.74021 13 8.86739 13 9C13 9.13261 12.9473 9.25979 12.8536 9.35355C12.7598 9.44732 12.6326 9.5 12.5 9.5ZM12.5 7.5H9C8.86739 7.5 8.74021 7.44732 8.64645 7.35355C8.55268 7.25979 8.5 7.13261 8.5 7C8.5 6.86739 8.55268 6.74021 8.64645 6.64645C8.74021 6.55268 8.86739 6.5 9 6.5H12.5C12.6326 6.5 12.7598 6.55268 12.8536 6.64645C12.9473 6.74021 13 6.86739 13 7C13 7.13261 12.9473 7.25979 12.8536 7.35355C12.7598 7.44732 12.6326 7.5 12.5 7.5ZM12.5 5.5H9C8.86739 5.5 8.74021 5.44732 8.64645 5.35355C8.55268 5.25979 8.5 5.13261 8.5 5C8.5 4.86739 8.55268 4.74021 8.64645 4.64645C8.74021 4.55268 8.86739 4.5 9 4.5H12.5C12.6326 4.5 12.7598 4.55268 12.8536 4.64645C12.9473 4.74021 13 4.86739 13 5C13 5.13261 12.9473 5.25979 12.8536 5.35355C12.7598 5.44732 12.6326 5.5 12.5 5.5Z" fill="black"/>
</g>
<defs>
<clipPath id="clip0_5_272">
<rect width="16" height="16" fill="white"/>
</clipPath>
</defs>
</svg>
