<svg width="16" height="16" viewBox="0 0 16 16" fill="none" xmlns="http://www.w3.org/2000/svg">
<g clip-path="url(#clip0_5_863)">
<path d="M14 8.00003C14 8.13264 13.9473 8.25981 13.8536 8.35358C13.7598 8.44735 13.6326 8.50003 13.5 8.50003H7C6.86739 8.50003 6.74021 8.44735 6.64645 8.35358C6.55268 8.25981 6.5 8.13264 6.5 8.00003C6.5 7.86742 6.55268 7.74024 6.64645 7.64647C6.74021 7.55271 6.86739 7.50003 7 7.50003H13.5C13.6326 7.50003 13.7598 7.55271 13.8536 7.64647C13.9473 7.74024 14 7.86742 14 8.00003ZM7 4.50003H13.5C13.6326 4.50003 13.7598 4.44735 13.8536 4.35358C13.9473 4.25981 14 4.13264 14 4.00003C14 3.86742 13.9473 3.74024 13.8536 3.64647C13.7598 3.55271 13.6326 3.50003 13.5 3.50003H7C6.86739 3.50003 6.74021 3.55271 6.64645 3.64647C6.55268 3.74024 6.5 3.86742 6.5 4.00003C6.5 4.13264 6.55268 4.25981 6.64645 4.35358C6.74021 4.44735 6.86739 4.50003 7 4.50003ZM13.5 11.5H2.5C2.36739 11.5 2.24022 11.5527 2.14645 11.6465C2.05268 11.7402 2 11.8674 2 12C2 12.1326 2.05268 12.2598 2.14645 12.3536C2.24022 12.4473 2.36739 12.5 2.5 12.5H13.5C13.6326 12.5 13.7598 12.4473 13.8536 12.3536C13.9473 12.2598 14 12.1326 14 12C14 11.8674 13.9473 11.7402 13.8536 11.6465C13.7598 11.5527 13.6326 11.5 13.5 11.5ZM2.30875 8.9619C2.4001 8.9998 2.50064 9.00976 2.59765 8.99051C2.69466 8.97127 2.78379 8.92368 2.85375 8.85378L5.35375 6.35378C5.40024 6.30734 5.43712 6.2522 5.46228 6.1915C5.48744 6.1308 5.50039 6.06574 5.50039 6.00003C5.50039 5.93432 5.48744 5.86926 5.46228 5.80856C5.43712 5.74786 5.40024 5.69271 5.35375 5.64628L2.85375 3.14628C2.78382 3.07627 2.6947 3.02859 2.59765 3.00926C2.50061 2.98994 2.40002 2.99984 2.30861 3.03772C2.21719 3.07559 2.13908 3.13974 2.08414 3.22204C2.0292 3.30433 1.99992 3.40108 2 3.50003V8.50003C2.00002 8.59892 2.02936 8.69558 2.08432 8.77779C2.13928 8.86001 2.21738 8.92408 2.30875 8.9619Z" fill="black"/>
</g>
<defs>
<clipPath id="clip0_5_863">
<rect width="16" height="16" fill="white"/>
</clipPath>
</defs>
</svg>
