<svg width="16" height="16" viewBox="0 0 16 16" fill="none" xmlns="http://www.w3.org/2000/svg">
<g clip-path="url(#clip0_5_856)">
<path d="M13 2H3C2.73478 2 2.48043 2.10536 2.29289 2.29289C2.10536 2.48043 2 2.73478 2 3V13C2 13.2652 2.10536 13.5196 2.29289 13.7071C2.48043 13.8946 2.73478 14 3 14H13C13.2652 14 13.5196 13.8946 13.7071 13.7071C13.8946 13.5196 14 13.2652 14 13V3C14 2.73478 13.8946 2.48043 13.7071 2.29289C13.5196 2.10536 13.2652 2 13 2ZM7.90938 9.21313C7.94873 9.2668 7.97698 9.3278 7.99245 9.39254C8.00793 9.45728 8.01032 9.52446 7.99949 9.59013C7.98866 9.65581 7.96482 9.71866 7.92938 9.775C7.89394 9.83135 7.8476 9.88005 7.79309 9.91825C7.73858 9.95644 7.67699 9.98338 7.61193 9.99746C7.54688 10.0115 7.47967 10.0125 7.41424 10.0003C7.34881 9.98802 7.28648 9.96284 7.23091 9.9262C7.17534 9.88956 7.12765 9.84219 7.09062 9.78687L5.75 7.875L4.40938 9.78687C4.37235 9.84219 4.32466 9.88956 4.26909 9.9262C4.21352 9.96284 4.15119 9.98802 4.08576 10.0003C4.02033 10.0125 3.95312 10.0115 3.88807 9.99746C3.82301 9.98338 3.76142 9.95644 3.70691 9.91825C3.6524 9.88005 3.60606 9.83135 3.57062 9.775C3.53518 9.71866 3.51134 9.65581 3.50051 9.59013C3.48968 9.52446 3.49207 9.45728 3.50755 9.39254C3.52302 9.3278 3.55127 9.2668 3.59063 9.21313L5.13938 7L3.59063 4.78687C3.5179 4.67821 3.49063 4.54539 3.51467 4.41686C3.53871 4.28834 3.61213 4.17434 3.71921 4.09931C3.82629 4.02427 3.9585 3.99416 4.08751 4.01544C4.21652 4.03672 4.33206 4.10768 4.40938 4.21313L5.75 6.12813L7.09062 4.21313C7.16794 4.10768 7.28348 4.03672 7.41249 4.01544C7.5415 3.99416 7.67371 4.02427 7.78079 4.09931C7.88787 4.17434 7.96129 4.28834 7.98533 4.41686C8.00936 4.54539 7.9821 4.67821 7.90938 4.78687L6.36062 7L7.90938 9.21313ZM12 12H9.5C9.40714 12 9.31612 11.9741 9.23713 11.9253C9.15815 11.8765 9.09431 11.8067 9.05279 11.7236C9.01126 11.6406 8.99368 11.5476 9.00202 11.4551C9.01036 11.3626 9.04429 11.2743 9.1 11.2L11.35 8.2C11.4115 8.12159 11.4567 8.03171 11.483 7.93563C11.5093 7.83955 11.5163 7.73919 11.5034 7.6404C11.4905 7.54161 11.4581 7.44638 11.408 7.36026C11.3579 7.27414 11.2911 7.19887 11.2116 7.13884C11.1321 7.0788 11.0415 7.03521 10.9449 7.01061C10.8484 6.986 10.7479 6.98088 10.6494 6.99553C10.5508 7.01018 10.4562 7.04432 10.371 7.09596C10.2858 7.14759 10.2117 7.21568 10.1531 7.29625C10.0788 7.38398 10.0239 7.48643 9.99187 7.59688C9.97938 7.66176 9.95416 7.72353 9.91765 7.77861C9.88114 7.83368 9.83408 7.88098 9.77918 7.91776C9.72428 7.95454 9.66264 7.98007 9.59782 7.99288C9.53299 8.00569 9.46627 8.00552 9.40151 7.99239C9.33675 7.97925 9.27523 7.95341 9.22052 7.91636C9.16581 7.87931 9.11898 7.83178 9.08275 7.77652C9.04652 7.72126 9.0216 7.65937 9.00944 7.59442C8.99727 7.52947 8.9981 7.46275 9.01188 7.39813C9.06448 7.13964 9.1745 6.89628 9.3338 6.68603C9.4931 6.47578 9.6976 6.30401 9.93221 6.18341C10.1668 6.06281 10.4255 5.99647 10.6892 5.98929C10.9529 5.98211 11.2148 6.03427 11.4556 6.14192C11.6965 6.24957 11.91 6.40995 12.0805 6.61122C12.251 6.81249 12.3741 7.0495 12.4407 7.30474C12.5073 7.55998 12.5157 7.82692 12.4653 8.08584C12.4149 8.34476 12.3069 8.58904 12.1494 8.80062L10.5 11H12C12.1326 11 12.2598 11.0527 12.3536 11.1464C12.4473 11.2402 12.5 11.3674 12.5 11.5C12.5 11.6326 12.4473 11.7598 12.3536 11.8536C12.2598 11.9473 12.1326 12 12 12Z" fill="black"/>
</g>
<defs>
<clipPath id="clip0_5_856">
<rect width="16" height="16" fill="white"/>
</clipPath>
</defs>
</svg>
