<svg width="16" height="16" viewBox="0 0 16 16" fill="none" xmlns="http://www.w3.org/2000/svg">
<g clip-path="url(#clip0_5_634)">
<path d="M10.5 9.75C10.5 10.0815 10.3683 10.3995 10.1339 10.6339C9.89946 10.8683 9.58152 11 9.25 11H6V8.5H9.25C9.58152 8.5 9.89946 8.6317 10.1339 8.86612C10.3683 9.10054 10.5 9.41848 10.5 9.75ZM14 3V13C14 13.2652 13.8946 13.5196 13.7071 13.7071C13.5196 13.8946 13.2652 14 13 14H3C2.73478 14 2.48043 13.8946 2.29289 13.7071C2.10536 13.5196 2 13.2652 2 13V3C2 2.73478 2.10536 2.48043 2.29289 2.29289C2.48043 2.10536 2.73478 2 3 2H13C13.2652 2 13.5196 2.10536 13.7071 2.29289C13.8946 2.48043 14 2.73478 14 3ZM11.5 9.75C11.4997 9.35533 11.3956 8.96768 11.1981 8.62595C11.0007 8.28423 10.7168 8.00046 10.375 7.80312C10.6789 7.48459 10.8827 7.08389 10.9611 6.65068C11.0395 6.21747 10.989 5.77078 10.8161 5.36594C10.6431 4.9611 10.3551 4.6159 9.9879 4.3731C9.62065 4.13031 9.19025 4.00058 8.75 4H5.5C5.36739 4 5.24021 4.05268 5.14645 4.14645C5.05268 4.24021 5 4.36739 5 4.5V11.5C5 11.6326 5.05268 11.7598 5.14645 11.8536C5.24021 11.9473 5.36739 12 5.5 12H9.25C9.84674 12 10.419 11.7629 10.841 11.341C11.2629 10.919 11.5 10.3467 11.5 9.75ZM10 6.25C10 5.91848 9.8683 5.60054 9.63388 5.36612C9.39946 5.1317 9.08152 5 8.75 5H6V7.5H8.75C9.08152 7.5 9.39946 7.3683 9.63388 7.13388C9.8683 6.89946 10 6.58152 10 6.25Z" fill="black"/>
</g>
<defs>
<clipPath id="clip0_5_634">
<rect width="16" height="16" fill="white"/>
</clipPath>
</defs>
</svg>
