<svg width="16" height="16" viewBox="0 0 16 16" fill="none" xmlns="http://www.w3.org/2000/svg">
<g clip-path="url(#clip0_5_260)">
<path d="M15.5 5V11C15.5 11.2652 15.3946 11.5196 15.2071 11.7071C15.0196 11.8946 14.7652 12 14.5 12H8.75C8.6837 12 8.62011 11.9737 8.57322 11.9268C8.52634 11.8799 8.5 11.8163 8.5 11.75V4.25C8.5 4.1837 8.52634 4.12011 8.57322 4.07322C8.62011 4.02634 8.6837 4 8.75 4H14.5C14.7652 4 15.0196 4.10536 15.2071 4.29289C15.3946 4.48043 15.5 4.73478 15.5 5ZM7.5 3V13C7.5 13.1326 7.44732 13.2598 7.35355 13.3536C7.25979 13.4473 7.13261 13.5 7 13.5C6.86739 13.5 6.74021 13.4473 6.64645 13.3536C6.55268 13.2598 6.5 13.1326 6.5 13V12H1.5C1.23478 12 0.98043 11.8946 0.792893 11.7071C0.605357 11.5196 0.5 11.2652 0.5 11V5C0.5 4.73478 0.605357 4.48043 0.792893 4.29289C0.98043 4.10536 1.23478 4 1.5 4H6.5V3C6.5 2.86739 6.55268 2.74021 6.64645 2.64645C6.74021 2.55268 6.86739 2.5 7 2.5C7.13261 2.5 7.25979 2.55268 7.35355 2.64645C7.44732 2.74021 7.5 2.86739 7.5 3ZM5.5 7C5.5 6.86739 5.44732 6.74021 5.35355 6.64645C5.25979 6.55268 5.13261 6.5 5 6.5H3C2.86739 6.5 2.74021 6.55268 2.64645 6.64645C2.55268 6.74021 2.5 6.86739 2.5 7C2.5 7.13261 2.55268 7.25979 2.64645 7.35355C2.74021 7.44732 2.86739 7.5 3 7.5H3.5V9C3.5 9.13261 3.55268 9.25979 3.64645 9.35355C3.74021 9.44732 3.86739 9.5 4 9.5C4.13261 9.5 4.25979 9.44732 4.35355 9.35355C4.44732 9.25979 4.5 9.13261 4.5 9V7.5H5C5.13261 7.5 5.25979 7.44732 5.35355 7.35355C5.44732 7.25979 5.5 7.13261 5.5 7Z" fill="black"/>
</g>
<defs>
<clipPath id="clip0_5_260">
<rect width="16" height="16" fill="white"/>
</clipPath>
</defs>
</svg>
