<svg width="16" height="16" viewBox="0 0 16 16" fill="none" xmlns="http://www.w3.org/2000/svg">
<g clip-path="url(#clip0_5_269)">
<path d="M13 2H3C2.73478 2 2.48043 2.10536 2.29289 2.29289C2.10536 2.48043 2 2.73478 2 3V13C2 13.2652 2.10536 13.5196 2.29289 13.7071C2.48043 13.8946 2.73478 14 3 14H13C13.2652 14 13.5196 13.8946 13.7071 13.7071C13.8946 13.5196 14 13.2652 14 13V3C14 2.73478 13.8946 2.48043 13.7071 2.29289C13.5196 2.10536 13.2652 2 13 2ZM9 10C9 10.1326 8.94732 10.2598 8.85355 10.3536C8.75979 10.4473 8.63261 10.5 8.5 10.5C8.36739 10.5 8.24021 10.4473 8.14645 10.3536C8.05268 10.2598 8 10.1326 8 10V8H4.5V10C4.5 10.1326 4.44732 10.2598 4.35355 10.3536C4.25979 10.4473 4.13261 10.5 4 10.5C3.86739 10.5 3.74021 10.4473 3.64645 10.3536C3.55268 10.2598 3.5 10.1326 3.5 10V5C3.5 4.86739 3.55268 4.74021 3.64645 4.64645C3.74021 4.55268 3.86739 4.5 4 4.5C4.13261 4.5 4.25979 4.55268 4.35355 4.64645C4.44732 4.74021 4.5 4.86739 4.5 5V7H8V5C8 4.86739 8.05268 4.74021 8.14645 4.64645C8.24021 4.55268 8.36739 4.5 8.5 4.5C8.63261 4.5 8.75979 4.55268 8.85355 4.64645C8.94732 4.74021 9 4.86739 9 5V10ZM12.5 11C12.5 11.1326 12.4473 11.2598 12.3536 11.3536C12.2598 11.4473 12.1326 11.5 12 11.5C11.8674 11.5 11.7402 11.4473 11.6464 11.3536C11.5527 11.2598 11.5 11.1326 11.5 11V6.9375L10.7775 7.41937C10.7228 7.45582 10.6615 7.48114 10.5971 7.49388C10.5326 7.50663 10.4663 7.50656 10.4019 7.49368C10.3375 7.4808 10.2762 7.45535 10.2216 7.41879C10.167 7.38224 10.1202 7.33529 10.0837 7.28062C10.0473 7.22596 10.022 7.16466 10.0092 7.10021C9.99649 7.03576 9.99656 6.96943 10.0094 6.90501C10.0223 6.84059 10.0478 6.77934 10.0843 6.72475C10.1209 6.67017 10.1678 6.62332 10.2225 6.58687L11.7225 5.58687C11.7976 5.53677 11.8849 5.50793 11.975 5.50342C12.0652 5.49891 12.1549 5.51889 12.2346 5.56126C12.3143 5.60362 12.3811 5.66677 12.4278 5.74402C12.4746 5.82127 12.4995 5.90972 12.5 6V11Z" fill="black"/>
</g>
<defs>
<clipPath id="clip0_5_269">
<rect width="16" height="16" fill="white"/>
</clipPath>
</defs>
</svg>
