<svg width="16" height="16" viewBox="0 0 16 16" fill="none" xmlns="http://www.w3.org/2000/svg">
<g clip-path="url(#clip0_5_270)">
<path d="M13 2H3C2.73478 2 2.48043 2.10536 2.29289 2.29289C2.10536 2.48043 2 2.73478 2 3V13C2 13.2652 2.10536 13.5196 2.29289 13.7071C2.48043 13.8946 2.73478 14 3 14H13C13.2652 14 13.5196 13.8946 13.7071 13.7071C13.8946 13.5196 14 13.2652 14 13V3C14 2.73478 13.8946 2.48043 13.7071 2.29289C13.5196 2.10536 13.2652 2 13 2ZM8 10C8 10.1326 7.94732 10.2598 7.85355 10.3536C7.75979 10.4473 7.63261 10.5 7.5 10.5C7.36739 10.5 7.24021 10.4473 7.14645 10.3536C7.05268 10.2598 7 10.1326 7 10V8H4.5V10C4.5 10.1326 4.44732 10.2598 4.35355 10.3536C4.25979 10.4473 4.13261 10.5 4 10.5C3.86739 10.5 3.74021 10.4473 3.64645 10.3536C3.55268 10.2598 3.5 10.1326 3.5 10V5C3.5 4.86739 3.55268 4.74021 3.64645 4.64645C3.74021 4.55268 3.86739 4.5 4 4.5C4.13261 4.5 4.25979 4.55268 4.35355 4.64645C4.44732 4.74021 4.5 4.86739 4.5 5V7H7V5C7 4.86739 7.05268 4.74021 7.14645 4.64645C7.24021 4.55268 7.36739 4.5 7.5 4.5C7.63261 4.5 7.75979 4.55268 7.85355 4.64645C7.94732 4.74021 8 4.86739 8 5V10ZM10.5 7.5C10.8242 7.50005 11.1435 7.57891 11.4304 7.72978C11.7174 7.88065 11.9633 8.09901 12.1471 8.36605C12.331 8.63309 12.4471 8.94081 12.4856 9.26271C12.524 9.5846 12.4837 9.91102 12.3679 10.2139C12.2522 10.5167 12.0646 10.7869 11.8213 11.0011C11.578 11.2153 11.2863 11.3672 10.9712 11.4436C10.6562 11.5201 10.3273 11.5188 10.0128 11.4398C9.69841 11.3609 9.40787 11.2068 9.16625 10.9906C9.06987 10.9016 9.01238 10.7782 9.00617 10.6471C8.99996 10.516 9.04554 10.3877 9.13306 10.2899C9.22059 10.1922 9.34305 10.1327 9.47402 10.1244C9.60499 10.1161 9.73397 10.1597 9.83313 10.2456C9.97746 10.3729 10.1555 10.4559 10.3458 10.4845C10.5361 10.5131 10.7306 10.4862 10.906 10.4071C11.0814 10.3279 11.2302 10.1998 11.3346 10.0381C11.439 9.87643 11.4946 9.68807 11.4946 9.49562C11.4946 9.30318 11.439 9.11482 11.3346 8.95315C11.2302 8.79148 11.0814 8.66337 10.906 8.58419C10.7306 8.50501 10.5361 8.47812 10.3458 8.50676C10.1555 8.53539 9.97746 8.61833 9.83313 8.74562C9.75462 8.81608 9.65585 8.8599 9.55094 8.87082C9.44602 8.88174 9.34034 8.8592 9.24901 8.80643C9.15768 8.75365 9.08538 8.67335 9.04245 8.577C8.99952 8.48065 8.98816 8.3732 9.01 8.27L9.51 5.895C9.53406 5.78299 9.59586 5.68263 9.68505 5.61073C9.77425 5.53883 9.88543 5.49974 10 5.5H12C12.1326 5.5 12.2598 5.55268 12.3536 5.64645C12.4473 5.74021 12.5 5.86739 12.5 6C12.5 6.13261 12.4473 6.25979 12.3536 6.35355C12.2598 6.44732 12.1326 6.5 12 6.5H10.4056L10.1875 7.52313C10.291 7.50775 10.3954 7.50003 10.5 7.5Z" fill="black"/>
</g>
<defs>
<clipPath id="clip0_5_270">
<rect width="16" height="16" fill="white"/>
</clipPath>
</defs>
</svg>
