<svg width="16" height="16" viewBox="0 0 16 16" fill="none" xmlns="http://www.w3.org/2000/svg">
<g clip-path="url(#clip0_5_261)">
<path d="M13 2H3C2.73478 2 2.48043 2.10536 2.29289 2.29289C2.10536 2.48043 2 2.73478 2 3V13C2 13.2652 2.10536 13.5196 2.29289 13.7071C2.48043 13.8946 2.73478 14 3 14H13C13.2652 14 13.5196 13.8946 13.7071 13.7071C13.8946 13.5196 14 13.2652 14 13V3C14 2.73478 13.8946 2.48043 13.7071 2.29289C13.5196 2.10536 13.2652 2 13 2ZM8 4.5H11C11.1326 4.5 11.2598 4.55268 11.3536 4.64645C11.4473 4.74021 11.5 4.86739 11.5 5V6C11.5 6.13261 11.4473 6.25979 11.3536 6.35355C11.2598 6.44732 11.1326 6.5 11 6.5C10.8674 6.5 10.7402 6.44732 10.6464 6.35355C10.5527 6.25979 10.5 6.13261 10.5 6V5.5H8C7.86739 5.5 7.74021 5.44732 7.64645 5.35355C7.55268 5.25979 7.5 5.13261 7.5 5C7.5 4.86739 7.55268 4.74021 7.64645 4.64645C7.74021 4.55268 7.86739 4.5 8 4.5ZM11.8294 12.375C11.78 12.4183 11.7225 12.4514 11.6603 12.4724C11.5981 12.4935 11.5324 12.5021 11.4669 12.4977C11.4013 12.4934 11.3373 12.4762 11.2784 12.4471C11.2196 12.418 11.167 12.3775 11.1237 12.3281L8.49875 9.32812V11H9.24875C9.38136 11 9.50854 11.0527 9.6023 11.1464C9.69607 11.2402 9.74875 11.3674 9.74875 11.5C9.74875 11.6326 9.69607 11.7598 9.6023 11.8536C9.50854 11.9473 9.38136 12 9.24875 12H6.75C6.61739 12 6.49021 11.9473 6.39645 11.8536C6.30268 11.7598 6.25 11.6326 6.25 11.5C6.25 11.3674 6.30268 11.2402 6.39645 11.1464C6.49021 11.0527 6.61739 11 6.75 11H7.5V8.1875L5.5 5.90188V6C5.5 6.13261 5.44732 6.25979 5.35355 6.35355C5.25979 6.44732 5.13261 6.5 5 6.5C4.86739 6.5 4.74021 6.44732 4.64645 6.35355C4.55268 6.25979 4.5 6.13261 4.5 6V5C4.50007 4.93283 4.51345 4.86634 4.53937 4.80438L4.125 4.32937C4.04675 4.22878 4.00986 4.10209 4.02189 3.97521C4.03391 3.84832 4.09394 3.73082 4.18969 3.64671C4.28545 3.5626 4.40972 3.51824 4.53709 3.52268C4.66447 3.52713 4.78534 3.58005 4.875 3.67062L11.875 11.6706C11.9621 11.7702 12.0063 11.9002 11.9977 12.0322C11.9892 12.1643 11.9286 12.2875 11.8294 12.375Z" fill="black"/>
</g>
<defs>
<clipPath id="clip0_5_261">
<rect width="16" height="16" fill="white"/>
</clipPath>
</defs>
</svg>
