<svg width="16" height="16" viewBox="0 0 16 16" fill="none" xmlns="http://www.w3.org/2000/svg">
<g clip-path="url(#clip0_5_265)">
<path d="M13.9999 8.00003C13.9999 8.13264 13.9472 8.25981 13.8535 8.35358C13.7597 8.44735 13.6325 8.50003 13.4999 8.50003H6.99991C6.8673 8.50003 6.74012 8.44735 6.64635 8.35358C6.55258 8.25981 6.49991 8.13264 6.49991 8.00003C6.49991 7.86742 6.55258 7.74024 6.64635 7.64647C6.74012 7.55271 6.8673 7.50003 6.99991 7.50003H13.4999C13.6325 7.50003 13.7597 7.55271 13.8535 7.64647C13.9472 7.74024 13.9999 7.86742 13.9999 8.00003ZM6.99991 4.50003H13.4999C13.6325 4.50003 13.7597 4.44735 13.8535 4.35358C13.9472 4.25981 13.9999 4.13264 13.9999 4.00003C13.9999 3.86742 13.9472 3.74024 13.8535 3.64647C13.7597 3.55271 13.6325 3.50003 13.4999 3.50003H6.99991C6.8673 3.50003 6.74012 3.55271 6.64635 3.64647C6.55258 3.74024 6.49991 3.86742 6.49991 4.00003C6.49991 4.13264 6.55258 4.25981 6.64635 4.35358C6.74012 4.44735 6.8673 4.50003 6.99991 4.50003ZM13.4999 11.5H2.4999C2.3673 11.5 2.24012 11.5527 2.14635 11.6465C2.05258 11.7402 1.9999 11.8674 1.9999 12C1.9999 12.1326 2.05258 12.2598 2.14635 12.3536C2.24012 12.4473 2.3673 12.5 2.4999 12.5H13.4999C13.6325 12.5 13.7597 12.4473 13.8535 12.3536C13.9472 12.2598 13.9999 12.1326 13.9999 12C13.9999 11.8674 13.9472 11.7402 13.8535 11.6465C13.7597 11.5527 13.6325 11.5 13.4999 11.5ZM4.49991 9.00003C4.63251 9.00003 4.75969 8.94735 4.85346 8.85358C4.94723 8.75981 4.99991 8.63264 4.99991 8.50003V3.50003C4.99998 3.40108 4.9707 3.30433 4.91577 3.22204C4.86083 3.13974 4.78271 3.07559 4.6913 3.03772C4.59989 2.99984 4.49929 2.98994 4.40225 3.00926C4.30521 3.02859 4.21608 3.07627 4.14615 3.14628L1.64615 5.64628C1.59967 5.69271 1.56279 5.74786 1.53763 5.80856C1.51246 5.86926 1.49951 5.93432 1.49951 6.00003C1.49951 6.06574 1.51246 6.1308 1.53763 6.1915C1.56279 6.2522 1.59967 6.30734 1.64615 6.35378L4.14615 8.85378C4.19262 8.9002 4.24778 8.937 4.30848 8.9621C4.36918 8.98719 4.43422 9.00008 4.49991 9.00003Z" fill="black"/>
</g>
<defs>
<clipPath id="clip0_5_265">
<rect width="16" height="16" fill="white"/>
</clipPath>
</defs>
</svg>
