<svg width="16" height="16" viewBox="0 0 16 16" fill="none" xmlns="http://www.w3.org/2000/svg">
<g clip-path="url(#clip0_5_631)">
<path d="M10.2788 9L11.5 7.44562V9H10.2788ZM14 3V13C14 13.2652 13.8946 13.5196 13.7071 13.7071C13.5196 13.8946 13.2652 14 13 14H3C2.73478 14 2.48043 13.8946 2.29289 13.7071C2.10536 13.5196 2 13.2652 2 13V3C2 2.73478 2.10536 2.48043 2.29289 2.29289C2.48043 2.10536 2.73478 2 3 2H13C13.2652 2 13.5196 2.10536 13.7071 2.29289C13.8946 2.48043 14 2.73478 14 3ZM8 5C8 4.86739 7.94732 4.74021 7.85355 4.64645C7.75979 4.55268 7.63261 4.5 7.5 4.5C7.36739 4.5 7.24021 4.55268 7.14645 4.64645C7.05268 4.74021 7 4.86739 7 5V7H4.5V5C4.5 4.86739 4.44732 4.74021 4.35355 4.64645C4.25979 4.55268 4.13261 4.5 4 4.5C3.86739 4.5 3.74021 4.55268 3.64645 4.64645C3.55268 4.74021 3.5 4.86739 3.5 5V10C3.5 10.1326 3.55268 10.2598 3.64645 10.3536C3.74021 10.4473 3.86739 10.5 4 10.5C4.13261 10.5 4.25979 10.4473 4.35355 10.3536C4.44732 10.2598 4.5 10.1326 4.5 10V8H7V10C7 10.1326 7.05268 10.2598 7.14645 10.3536C7.24021 10.4473 7.36739 10.5 7.5 10.5C7.63261 10.5 7.75979 10.4473 7.85355 10.3536C7.94732 10.2598 8 10.1326 8 10V5ZM13.25 9.5C13.25 9.36739 13.1973 9.24021 13.1036 9.14645C13.0098 9.05268 12.8826 9 12.75 9H12.5V6C12.5 5.89604 12.4675 5.79468 12.4072 5.71002C12.3468 5.62536 12.2616 5.56161 12.1634 5.52764C12.0651 5.49368 11.9587 5.49118 11.859 5.52051C11.7592 5.54983 11.6711 5.60951 11.6069 5.69125L8.85688 9.19125C8.79897 9.26501 8.76297 9.35358 8.753 9.44683C8.74302 9.54007 8.75947 9.63425 8.80047 9.71859C8.84147 9.80293 8.90536 9.87404 8.98485 9.92381C9.06434 9.97357 9.15622 9.99997 9.25 10H11.5V11C11.5 11.1326 11.5527 11.2598 11.6464 11.3536C11.7402 11.4473 11.8674 11.5 12 11.5C12.1326 11.5 12.2598 11.4473 12.3536 11.3536C12.4473 11.2598 12.5 11.1326 12.5 11V10H12.75C12.8826 10 13.0098 9.94732 13.1036 9.85355C13.1973 9.75979 13.25 9.63261 13.25 9.5Z" fill="black"/>
</g>
<defs>
<clipPath id="clip0_5_631">
<rect width="16" height="16" fill="white"/>
</clipPath>
</defs>
</svg>
