<svg width="16" height="16" viewBox="0 0 16 16" fill="none" xmlns="http://www.w3.org/2000/svg">
<g clip-path="url(#clip0_5_268)">
<path d="M12 9.5C12 9.69778 11.9414 9.89112 11.8315 10.0556C11.7216 10.22 11.5654 10.3482 11.3827 10.4239C11.2 10.4996 10.9989 10.5194 10.8049 10.4808C10.6109 10.4422 10.4327 10.347 10.2929 10.2071C10.153 10.0673 10.0578 9.88907 10.0192 9.69509C9.98063 9.50111 10.0004 9.30004 10.0761 9.11732C10.1518 8.93459 10.28 8.77841 10.4444 8.66853C10.6089 8.55865 10.8022 8.5 11 8.5C11.2652 8.5 11.5196 8.60536 11.7071 8.79289C11.8946 8.98043 12 9.23478 12 9.5ZM14 3V13C14 13.2652 13.8946 13.5196 13.7071 13.7071C13.5196 13.8946 13.2652 14 13 14H3C2.73478 14 2.48043 13.8946 2.29289 13.7071C2.10536 13.5196 2 13.2652 2 13V3C2 2.73478 2.10536 2.48043 2.29289 2.29289C2.48043 2.10536 2.73478 2 3 2H13C13.2652 2 13.5196 2.10536 13.7071 2.29289C13.8946 2.48043 14 2.73478 14 3ZM8 5C8 4.86739 7.94732 4.74021 7.85355 4.64645C7.75979 4.55268 7.63261 4.5 7.5 4.5C7.36739 4.5 7.24021 4.55268 7.14645 4.64645C7.05268 4.74021 7 4.86739 7 5V7H4.5V5C4.5 4.86739 4.44732 4.74021 4.35355 4.64645C4.25979 4.55268 4.13261 4.5 4 4.5C3.86739 4.5 3.74021 4.55268 3.64645 4.64645C3.55268 4.74021 3.5 4.86739 3.5 5V10C3.5 10.1326 3.55268 10.2598 3.64645 10.3536C3.74021 10.4473 3.86739 10.5 4 10.5C4.13261 10.5 4.25979 10.4473 4.35355 10.3536C4.44732 10.2598 4.5 10.1326 4.5 10V8H7V10C7 10.1326 7.05268 10.2598 7.14645 10.3536C7.24021 10.4473 7.36739 10.5 7.5 10.5C7.63261 10.5 7.75979 10.4473 7.85355 10.3536C7.94732 10.2598 8 10.1326 8 10V5ZM13 9.5C13 8.96957 12.7893 8.46086 12.4142 8.08579C12.0391 7.71071 11.5304 7.5 11 7.5L11.7219 6.25C11.7882 6.13513 11.8061 5.99862 11.7718 5.87051C11.7374 5.7424 11.6536 5.63318 11.5387 5.56687C11.4239 5.50057 11.2874 5.48262 11.1593 5.51696C11.0311 5.5513 10.9219 5.63513 10.8556 5.75L9.26812 8.5L9.25937 8.51688C9.10861 8.7833 9.02101 9.08078 9.00334 9.38639C8.98566 9.69201 9.03838 9.9976 9.15742 10.2796C9.27647 10.5617 9.45866 10.8126 9.68998 11.0131C9.92129 11.2136 10.1955 11.3584 10.4916 11.4362C10.7877 11.514 11.0977 11.5228 11.3977 11.4619C11.6977 11.4011 11.9797 11.2721 12.2221 11.0851C12.4644 10.898 12.6606 10.6579 12.7954 10.383C12.9303 10.1082 13.0003 9.80612 13 9.5Z" fill="black"/>
</g>
<defs>
<clipPath id="clip0_5_268">
<rect width="16" height="16" fill="white"/>
</clipPath>
</defs>
</svg>
