<svg width="16" height="16" viewBox="0 0 16 16" fill="none" xmlns="http://www.w3.org/2000/svg">
<g clip-path="url(#clip0_5_263)">
<path d="M13 2H3C2.73478 2 2.48043 2.10536 2.29289 2.29289C2.10536 2.48043 2 2.73478 2 3V13C2 13.2652 2.10536 13.5196 2.29289 13.7071C2.48043 13.8946 2.73478 14 3 14H13C13.2652 14 13.5196 13.8946 13.7071 13.7071C13.8946 13.5196 14 13.2652 14 13V3C14 2.73478 13.8946 2.48043 13.7071 2.29289C13.5196 2.10536 13.2652 2 13 2ZM7.90938 11.2131C7.94873 11.2668 7.97698 11.3278 7.99245 11.3925C8.00793 11.4573 8.01032 11.5245 7.99949 11.5901C7.98866 11.6558 7.96482 11.7187 7.92938 11.775C7.89394 11.8313 7.8476 11.88 7.79309 11.9182C7.73858 11.9564 7.67699 11.9834 7.61193 11.9975C7.54688 12.0115 7.47967 12.0125 7.41424 12.0003C7.34881 11.988 7.28648 11.9628 7.23091 11.9262C7.17534 11.8896 7.12765 11.8422 7.09062 11.7869L5.75 9.875L4.40938 11.7869C4.37235 11.8422 4.32466 11.8896 4.26909 11.9262C4.21352 11.9628 4.15119 11.988 4.08576 12.0003C4.02033 12.0125 3.95312 12.0115 3.88807 11.9975C3.82301 11.9834 3.76142 11.9564 3.70691 11.9182C3.6524 11.88 3.60606 11.8313 3.57062 11.775C3.53518 11.7187 3.51134 11.6558 3.50051 11.5901C3.48968 11.5245 3.49207 11.4573 3.50755 11.3925C3.52302 11.3278 3.55127 11.2668 3.59063 11.2131L5.13938 9L3.59063 6.78687C3.55127 6.7332 3.52302 6.6722 3.50755 6.60746C3.49207 6.54272 3.48968 6.47554 3.50051 6.40987C3.51134 6.34419 3.53518 6.28134 3.57062 6.225C3.60606 6.16865 3.6524 6.11995 3.70691 6.08175C3.76142 6.04356 3.82301 6.01662 3.88807 6.00254C3.95312 5.98846 4.02033 5.98751 4.08576 5.99974C4.15119 6.01198 4.21352 6.03716 4.26909 6.0738C4.32466 6.11044 4.37235 6.15781 4.40938 6.21313L5.75 8.12813L7.09062 6.21313C7.16794 6.10768 7.28348 6.03672 7.41249 6.01544C7.5415 5.99416 7.67371 6.02427 7.78079 6.09931C7.88787 6.17434 7.96129 6.28834 7.98533 6.41686C8.00936 6.54539 7.9821 6.67821 7.90938 6.78687L6.36062 9L7.90938 11.2131ZM12 10H9.5C9.40714 10 9.31612 9.97414 9.23713 9.92533C9.15815 9.87651 9.09431 9.80666 9.05279 9.72361C9.01126 9.64055 8.99368 9.54758 9.00202 9.4551C9.01036 9.36262 9.04429 9.27428 9.1 9.2L11.35 6.2C11.4115 6.12159 11.4567 6.03171 11.483 5.93563C11.5093 5.83955 11.5163 5.73919 11.5034 5.6404C11.4905 5.54161 11.4581 5.44638 11.408 5.36026C11.3579 5.27414 11.2911 5.19887 11.2116 5.13884C11.1321 5.0788 11.0415 5.03521 10.9449 5.01061C10.8484 4.986 10.7479 4.98088 10.6494 4.99553C10.5508 5.01018 10.4562 5.04432 10.371 5.09596C10.2858 5.14759 10.2117 5.21568 10.1531 5.29625C10.0788 5.38398 10.0239 5.48643 9.99187 5.59688C9.97938 5.66176 9.95416 5.72353 9.91765 5.77861C9.88114 5.83368 9.83408 5.88098 9.77918 5.91776C9.72428 5.95454 9.66264 5.98007 9.59782 5.99288C9.53299 6.00569 9.46627 6.00552 9.40151 5.99239C9.33675 5.97925 9.27523 5.95341 9.22052 5.91636C9.16581 5.87931 9.11898 5.83178 9.08275 5.77652C9.04652 5.72126 9.0216 5.65937 9.00944 5.59442C8.99727 5.52947 8.9981 5.46275 9.01188 5.39813C9.06448 5.13964 9.1745 4.89628 9.3338 4.68603C9.4931 4.47578 9.6976 4.30401 9.93221 4.18341C10.1668 4.06281 10.4255 3.99647 10.6892 3.98929C10.9529 3.98211 11.2148 4.03427 11.4556 4.14192C11.6965 4.24957 11.91 4.40995 12.0805 4.61122C12.251 4.81249 12.3741 5.0495 12.4407 5.30474C12.5073 5.55998 12.5157 5.82692 12.4653 6.08584C12.4149 6.34476 12.3069 6.58904 12.1494 6.80062L10.5 9H12C12.1326 9 12.2598 9.05268 12.3536 9.14645C12.4473 9.24021 12.5 9.36739 12.5 9.5C12.5 9.63261 12.4473 9.75979 12.3536 9.85355C12.2598 9.94732 12.1326 10 12 10Z" fill="black"/>
</g>
<defs>
<clipPath id="clip0_5_263">
<rect width="16" height="16" fill="white"/>
</clipPath>
</defs>
</svg>
