<svg width="16" height="16" viewBox="0 0 16 16" fill="none" xmlns="http://www.w3.org/2000/svg">
<g clip-path="url(#clip0_5_264)">
<path d="M13 2H3C2.73478 2 2.48043 2.10536 2.29289 2.29289C2.10536 2.48043 2 2.73478 2 3V13C2 13.2652 2.10536 13.5196 2.29289 13.7071C2.48043 13.8946 2.73478 14 3 14H13C13.2652 14 13.5196 13.8946 13.7071 13.7071C13.8946 13.5196 14 13.2652 14 13V3C14 2.73478 13.8946 2.48043 13.7071 2.29289C13.5196 2.10536 13.2652 2 13 2ZM5.16937 5.91125C5.375 4.78562 6.53625 4 8 4C9.1375 4 10.0994 4.46313 10.5737 5.23938C10.608 5.29543 10.6308 5.35768 10.641 5.42257C10.6512 5.48746 10.6484 5.55372 10.633 5.61756C10.6176 5.6814 10.5897 5.74157 10.551 5.79464C10.5123 5.84772 10.4636 5.89265 10.4075 5.92688C10.3514 5.9611 10.2892 5.98395 10.2243 5.99412C10.1594 6.00429 10.0932 6.00157 10.0293 5.98614C9.96548 5.9707 9.9053 5.94284 9.85223 5.90414C9.79916 5.86545 9.75423 5.81668 9.72 5.76062C9.43375 5.29125 8.77437 5 8 5C7.04375 5 6.26687 5.45812 6.15312 6.08875C6.13234 6.20397 6.07179 6.30824 5.98202 6.38339C5.89225 6.45854 5.77895 6.49981 5.66187 6.5C5.6319 6.50006 5.60198 6.49734 5.5725 6.49188C5.44207 6.46829 5.32634 6.39389 5.25075 6.28501C5.17516 6.17613 5.14589 6.0417 5.16937 5.91125ZM12 8.5H10.5181C10.8356 8.83791 11.0085 9.28645 11 9.75C11 11.0119 9.6825 12 8 12C6.50688 12 5.26062 11.2013 5.03562 10.1C5.02037 10.0349 5.01833 9.96739 5.02962 9.90148C5.04092 9.83557 5.06532 9.7726 5.10138 9.71629C5.13744 9.65997 5.18443 9.61147 5.23957 9.57364C5.29471 9.53581 5.35688 9.50942 5.4224 9.49604C5.48792 9.48266 5.55545 9.48256 5.62101 9.49574C5.68657 9.50893 5.74881 9.53513 5.80407 9.57279C5.85932 9.61045 5.90646 9.65882 5.94269 9.71502C5.97892 9.77123 6.00351 9.83413 6.015 9.9C6.14 10.5169 7.015 11 8 11C9.08437 11 10 10.4275 10 9.75C10 9.17875 9.5775 8.84812 8.3925 8.5H4C3.86739 8.5 3.74021 8.44732 3.64645 8.35355C3.55268 8.25979 3.5 8.13261 3.5 8C3.5 7.86739 3.55268 7.74021 3.64645 7.64645C3.74021 7.55268 3.86739 7.5 4 7.5H12C12.1326 7.5 12.2598 7.55268 12.3536 7.64645C12.4473 7.74021 12.5 7.86739 12.5 8C12.5 8.13261 12.4473 8.25979 12.3536 8.35355C12.2598 8.44732 12.1326 8.5 12 8.5Z" fill="black"/>
</g>
<defs>
<clipPath id="clip0_5_264">
<rect width="16" height="16" fill="white"/>
</clipPath>
</defs>
</svg>
