<svg width="16" height="16" viewBox="0 0 16 16" fill="none" xmlns="http://www.w3.org/2000/svg">
<g clip-path="url(#clip0_5_259)">
<path d="M15.5569 4.8575L14.3069 5.26312L15.0781 6.32562C15.1189 6.37858 15.1486 6.43917 15.1656 6.50382C15.1825 6.56846 15.1863 6.63584 15.1768 6.70199C15.1672 6.76813 15.1445 6.83169 15.11 6.8889C15.0755 6.94612 15.0298 6.99583 14.9758 7.03511C14.9217 7.07439 14.8603 7.10242 14.7952 7.11757C14.7301 7.13272 14.6627 7.13466 14.5968 7.12329C14.531 7.11191 14.468 7.08746 14.4118 7.05136C14.3556 7.01526 14.3071 6.96826 14.2694 6.91313L13.5 5.85063L12.7288 6.91313C12.6493 7.01631 12.5328 7.08445 12.4039 7.10304C12.275 7.12164 12.144 7.08923 12.0387 7.0127C11.9333 6.93617 11.862 6.82157 11.8398 6.69326C11.8176 6.56495 11.8464 6.43305 11.92 6.32562L12.6912 5.26312L11.4412 4.8575C11.3151 4.81656 11.2104 4.72718 11.1501 4.60903C11.0899 4.49089 11.0791 4.35364 11.12 4.2275C11.1609 4.10136 11.2503 3.99664 11.3685 3.9364C11.4866 3.87615 11.6239 3.86531 11.75 3.90625L13 4.3125V3C13 2.86739 13.0527 2.74021 13.1464 2.64645C13.2402 2.55268 13.3674 2.5 13.5 2.5C13.6326 2.5 13.7598 2.55268 13.8536 2.64645C13.9473 2.74021 14 2.86739 14 3V4.3125L15.25 3.90687C15.3761 3.86585 15.5134 3.87661 15.6316 3.9368C15.7498 3.99699 15.8393 4.10167 15.8803 4.22781C15.9213 4.35396 15.9106 4.49123 15.8504 4.60944C15.7902 4.72764 15.6855 4.8171 15.5594 4.85813L15.5569 4.8575ZM11 12C10.9995 12.6017 10.8439 13.1931 10.5483 13.7172C10.2526 14.2412 9.8268 14.6802 9.312 14.9917C8.79721 15.3032 8.2108 15.4768 7.60938 15.4956C7.00797 15.5144 6.41186 15.3778 5.87861 15.0991C5.34536 14.8203 4.89298 14.4088 4.56514 13.9043C4.23729 13.3997 4.04507 12.8192 4.00701 12.2187C3.96895 11.6181 4.08635 11.018 4.34787 10.4761C4.60939 9.93416 5.00621 9.46883 5.5 9.125V2.5C5.5 1.96957 5.71071 1.46086 6.08579 1.08579C6.46086 0.710714 6.96957 0.5 7.5 0.5C8.03043 0.5 8.53914 0.710714 8.91421 1.08579C9.28929 1.46086 9.5 1.96957 9.5 2.5V9.125C9.96253 9.44853 10.3403 9.87872 10.6014 10.3792C10.8625 10.8796 10.9992 11.4355 11 12ZM5.05125 11.5H9.94875C9.87756 11.1536 9.73396 10.8261 9.52738 10.5391C9.32079 10.252 9.05588 10.0119 8.75 9.83438C8.67397 9.79048 8.61084 9.72734 8.56696 9.65131C8.52307 9.57528 8.49998 9.48904 8.5 9.40125V2.5C8.5 2.23478 8.39464 1.98043 8.20711 1.79289C8.01957 1.60536 7.76522 1.5 7.5 1.5C7.23478 1.5 6.98043 1.60536 6.79289 1.79289C6.60536 1.98043 6.5 2.23478 6.5 2.5V9.40125C6.50002 9.48904 6.47693 9.57528 6.43304 9.65131C6.38915 9.72734 6.32603 9.79048 6.25 9.83438C5.94412 10.0119 5.67921 10.252 5.47262 10.5391C5.26604 10.8261 5.12244 11.1536 5.05125 11.5Z" fill="black"/>
</g>
<defs>
<clipPath id="clip0_5_259">
<rect width="16" height="16" fill="white"/>
</clipPath>
</defs>
</svg>
