<svg width="16" height="16" viewBox="0 0 16 16" fill="none" xmlns="http://www.w3.org/2000/svg">
<g clip-path="url(#clip0_5_258)">
<path d="M13.25 3.5C12.9039 3.5 12.5655 3.60264 12.2778 3.79493C11.99 3.98722 11.7657 4.26053 11.6332 4.5803C11.5008 4.90007 11.4661 5.25194 11.5336 5.59141C11.6011 5.93087 11.7678 6.24269 12.0126 6.48744C12.2573 6.73218 12.5691 6.89885 12.9086 6.96637C13.2481 7.0339 13.5999 6.99924 13.9197 6.86679C14.2395 6.73434 14.5128 6.51003 14.7051 6.22225C14.8974 5.93446 15 5.59612 15 5.25C15 4.78587 14.8156 4.34075 14.4874 4.01256C14.1592 3.68437 13.7141 3.5 13.25 3.5ZM13.25 6C13.1017 6 12.9567 5.95601 12.8333 5.8736C12.71 5.79119 12.6139 5.67406 12.5571 5.53701C12.5003 5.39997 12.4855 5.24917 12.5144 5.10368C12.5434 4.9582 12.6148 4.82456 12.7197 4.71967C12.8246 4.61478 12.9582 4.54335 13.1037 4.51441C13.2492 4.48547 13.4 4.50032 13.537 4.55709C13.6741 4.61386 13.7912 4.70999 13.8736 4.83332C13.956 4.95666 14 5.10166 14 5.25C14 5.44891 13.921 5.63968 13.7803 5.78033C13.6397 5.92098 13.4489 6 13.25 6ZM9.5 9.13V2.5C9.5 1.96957 9.28929 1.46086 8.91421 1.08579C8.53914 0.710714 8.03043 0.5 7.5 0.5C6.96957 0.5 6.46086 0.710714 6.08579 1.08579C5.71071 1.46086 5.5 1.96957 5.5 2.5V9.13C4.88851 9.55579 4.42886 10.1656 4.18796 10.8707C3.94706 11.5758 3.93748 12.3394 4.16061 13.0504C4.38375 13.7613 4.82795 14.3825 5.42857 14.8235C6.02919 15.2645 6.75487 15.5023 7.5 15.5023C8.24513 15.5023 8.97081 15.2645 9.57143 14.8235C10.172 14.3825 10.6163 13.7613 10.8394 13.0504C11.0625 12.3394 11.0529 11.5758 10.812 10.8707C10.5711 10.1656 10.1115 9.55579 9.5 9.13ZM8.5 6.5H6.5V2.5C6.5 2.23478 6.60536 1.98043 6.79289 1.79289C6.98043 1.60536 7.23478 1.5 7.5 1.5C7.76522 1.5 8.01957 1.60536 8.20711 1.79289C8.39464 1.98043 8.5 2.23478 8.5 2.5V6.5Z" fill="black"/>
</g>
<defs>
<clipPath id="clip0_5_258">
<rect width="16" height="16" fill="white"/>
</clipPath>
</defs>
</svg>
