<svg width="16" height="16" viewBox="0 0 16 16" fill="none" xmlns="http://www.w3.org/2000/svg">
<g clip-path="url(#clip0_5_257)">
<path d="M10 9.13V2.5C10 1.96957 9.78929 1.46086 9.41421 1.08579C9.03914 0.710714 8.53043 0.5 8 0.5C7.46957 0.5 6.96086 0.710714 6.58579 1.08579C6.21071 1.46086 6 1.96957 6 2.5V9.13C5.38851 9.55579 4.92886 10.1656 4.68796 10.8707C4.44706 11.5758 4.43748 12.3394 4.66061 13.0504C4.88375 13.7613 5.32795 14.3825 5.92857 14.8235C6.52919 15.2645 7.25487 15.5023 8 15.5023C8.74513 15.5023 9.47081 15.2645 10.0714 14.8235C10.672 14.3825 11.1163 13.7613 11.3394 13.0504C11.5625 12.3394 11.5529 11.5758 11.312 10.8707C11.0711 10.1656 10.6115 9.55579 10 9.13ZM8 1.5C8.26522 1.5 8.51957 1.60536 8.70711 1.79289C8.89464 1.98043 9 2.23478 9 2.5V6.5H7V2.5C7 2.23478 7.10536 1.98043 7.29289 1.79289C7.48043 1.60536 7.73478 1.5 8 1.5Z" fill="black"/>
</g>
<defs>
<clipPath id="clip0_5_257">
<rect width="16" height="16" fill="white"/>
</clipPath>
</defs>
</svg>
