<svg width="16" height="16" viewBox="0 0 16 16" fill="none" xmlns="http://www.w3.org/2000/svg">
<g clip-path="url(#clip0_5_842)">
<path d="M9.5 9.13V2.5C9.5 1.96957 9.28929 1.46086 8.91421 1.08579C8.53914 0.710714 8.03043 0.5 7.5 0.5C6.96957 0.5 6.46086 0.710714 6.08579 1.08579C5.71071 1.46086 5.5 1.96957 5.5 2.5V9.13C4.88851 9.55579 4.42886 10.1656 4.18796 10.8707C3.94706 11.5758 3.93748 12.3394 4.16061 13.0504C4.38375 13.7613 4.82795 14.3825 5.42857 14.8235C6.02919 15.2645 6.75487 15.5023 7.5 15.5023C8.24513 15.5023 8.97081 15.2645 9.57143 14.8235C10.172 14.3825 10.6163 13.7613 10.8394 13.0504C11.0625 12.3394 11.0529 11.5758 10.812 10.8707C10.5711 10.1656 10.1115 9.55579 9.5 9.13ZM8.5 3.5H6.5V2.5C6.5 2.23478 6.60536 1.98043 6.79289 1.79289C6.98043 1.60536 7.23478 1.5 7.5 1.5C7.76522 1.5 8.01957 1.60536 8.20711 1.79289C8.39464 1.98043 8.5 2.23478 8.5 2.5V3.5ZM11.0813 5.04812C11.0088 4.93706 10.9835 4.80178 11.0108 4.67203C11.0381 4.54228 11.1158 4.4287 11.2269 4.35625C12.1644 3.74437 12.9062 4.05938 13.4462 4.29C13.9375 4.5 14.235 4.625 14.7269 4.30562C14.838 4.23319 14.9734 4.20787 15.1032 4.23524C15.233 4.26261 15.3466 4.34042 15.4191 4.45156C15.4915 4.5627 15.5168 4.69807 15.4895 4.82788C15.4621 4.95769 15.3843 5.07131 15.2731 5.14375C14.8675 5.40813 14.5 5.5 14.1681 5.5C13.7306 5.5 13.3606 5.34125 13.0538 5.21063C12.5625 5 12.265 4.875 11.7731 5.19438C11.7181 5.23021 11.6565 5.25485 11.592 5.26689C11.5274 5.27893 11.4611 5.27814 11.3969 5.26456C11.3326 5.25098 11.2717 5.22487 11.2175 5.18774C11.1634 5.1506 11.1171 5.10316 11.0813 5.04812ZM15.4187 6.45188C15.4912 6.56294 15.5165 6.69822 15.4892 6.82797C15.4619 6.95772 15.3842 7.0713 15.2731 7.14375C14.8675 7.40813 14.5 7.5 14.1681 7.5C13.7306 7.5 13.3606 7.34125 13.0538 7.21063C12.5619 7.00063 12.265 6.87438 11.7731 7.195C11.7181 7.23087 11.6565 7.25554 11.592 7.26762C11.5274 7.2797 11.4611 7.27894 11.3968 7.26539C11.3325 7.25184 11.2716 7.22576 11.2174 7.18864C11.1632 7.15152 11.1168 7.10409 11.0809 7.04906C11.0085 6.93792 10.9832 6.80255 11.0105 6.67274C11.0379 6.54293 11.1157 6.42931 11.2269 6.35687C12.1644 5.745 12.9062 6.06 13.4462 6.29063C13.9381 6.50063 14.235 6.6275 14.7269 6.30625C14.8379 6.23383 14.9732 6.20848 15.103 6.23579C15.2327 6.2631 15.3463 6.34083 15.4187 6.45188Z" fill="black"/>
</g>
<defs>
<clipPath id="clip0_5_842">
<rect width="16" height="16" fill="white"/>
</clipPath>
</defs>
</svg>
