<svg width="16" height="16" viewBox="0 0 16 16" fill="none" xmlns="http://www.w3.org/2000/svg">
<g clip-path="url(#clip0_5_255)">
<path d="M11.5 8C11.5 8.53043 11.2893 9.03914 10.9142 9.41421C10.5391 9.78929 10.0304 10 9.5 10H9V6H9.5C10.0304 6 10.5391 6.21071 10.9142 6.58579C11.2893 6.96086 11.5 7.46957 11.5 8ZM14.5 3.5V12.5C14.5 12.7652 14.3946 13.0196 14.2071 13.2071C14.0196 13.3946 13.7652 13.5 13.5 13.5H2.5C2.23478 13.5 1.98043 13.3946 1.79289 13.2071C1.60536 13.0196 1.5 12.7652 1.5 12.5V3.5C1.5 3.23478 1.60536 2.98043 1.79289 2.79289C1.98043 2.60536 2.23478 2.5 2.5 2.5H13.5C13.7652 2.5 14.0196 2.60536 14.2071 2.79289C14.3946 2.98043 14.5 3.23478 14.5 3.5ZM7 9C6.99996 8.62128 6.89238 8.25036 6.6898 7.93038C6.48721 7.6104 6.19794 7.35452 5.85563 7.1925L6.9 5.8C6.95571 5.72572 6.98964 5.63738 6.99798 5.5449C7.00632 5.45242 6.98874 5.35945 6.94721 5.27639C6.90569 5.19334 6.84185 5.12349 6.76287 5.07467C6.68388 5.02586 6.59286 5 6.5 5H4C3.86739 5 3.74021 5.05268 3.64645 5.14645C3.55268 5.24021 3.5 5.36739 3.5 5.5C3.5 5.63261 3.55268 5.75979 3.64645 5.85355C3.74021 5.94732 3.86739 6 4 6H5.5L4.6 7.2C4.54429 7.27428 4.51036 7.36262 4.50202 7.4551C4.49368 7.54758 4.51126 7.64055 4.55279 7.72361C4.59431 7.80666 4.65815 7.87651 4.73713 7.92533C4.81612 7.97414 4.90714 8 5 8C5.16208 7.99998 5.32174 8.03936 5.46523 8.11475C5.60872 8.19014 5.73173 8.29927 5.82367 8.43276C5.91561 8.56624 5.97372 8.72008 5.99301 8.88101C6.0123 9.04194 5.99218 9.20515 5.93438 9.35658C5.87659 9.50801 5.78285 9.64312 5.66124 9.75028C5.53963 9.85744 5.3938 9.93343 5.2363 9.97171C5.0788 10.01 4.91435 10.0094 4.75713 9.97003C4.5999 9.93064 4.4546 9.85363 4.33375 9.74562C4.28483 9.7018 4.22776 9.66803 4.1658 9.64626C4.10383 9.62449 4.03818 9.61513 3.9726 9.61873C3.90702 9.62233 3.84279 9.63881 3.78358 9.66723C3.72436 9.69565 3.67133 9.73546 3.6275 9.78438C3.58367 9.83329 3.54991 9.89036 3.52813 9.95233C3.50636 10.0143 3.49701 10.0799 3.50061 10.1455C3.5042 10.2111 3.52068 10.2753 3.54911 10.3345C3.57753 10.3938 3.61733 10.4468 3.66625 10.4906C3.954 10.7481 4.31015 10.9169 4.69169 10.9764C5.07323 11.0359 5.46385 10.9837 5.81637 10.8261C6.16889 10.6685 6.46825 10.4122 6.67828 10.0881C6.88832 9.76407 7.00006 9.38616 7 9ZM12.5 8C12.4992 7.2046 12.1828 6.44202 11.6204 5.87959C11.058 5.31716 10.2954 5.00083 9.5 5H8.5C8.36739 5 8.24021 5.05268 8.14645 5.14645C8.05268 5.24021 8 5.36739 8 5.5V10.5C8 10.6326 8.05268 10.7598 8.14645 10.8536C8.24021 10.9473 8.36739 11 8.5 11H9.5C10.2954 10.9992 11.058 10.6828 11.6204 10.1204C12.1828 9.55798 12.4992 8.7954 12.5 8Z" fill="black"/>
</g>
<defs>
<clipPath id="clip0_5_255">
<rect width="16" height="16" fill="white"/>
</clipPath>
</defs>
</svg>
