<svg width="16" height="16" viewBox="0 0 16 16" fill="none" xmlns="http://www.w3.org/2000/svg">
<g clip-path="url(#clip0_5_254)">
<path d="M14.625 5.0075C14.4842 4.84795 14.3111 4.72019 14.1171 4.63269C13.9231 4.54519 13.7128 4.49996 13.5 4.5H10V3.5C10 2.83696 9.73661 2.20107 9.26777 1.73223C8.79893 1.26339 8.16304 1 7.5 1C7.40711 0.999934 7.31604 1.02574 7.237 1.07454C7.15795 1.12333 7.09407 1.19318 7.0525 1.27625L4.69125 6H2C1.73478 6 1.48043 6.10536 1.29289 6.29289C1.10536 6.48043 1 6.73478 1 7V12.5C1 12.7652 1.10536 13.0196 1.29289 13.2071C1.48043 13.3946 1.73478 13.5 2 13.5H12.75C13.1154 13.5001 13.4684 13.3668 13.7425 13.1252C14.0166 12.8835 14.1931 12.5501 14.2388 12.1875L14.9888 6.1875C15.0153 5.97626 14.9966 5.76179 14.9339 5.55833C14.8712 5.35488 14.7659 5.16711 14.625 5.0075ZM2 7H4.5V12.5H2V7Z" fill="black"/>
</g>
<defs>
<clipPath id="clip0_5_254">
<rect width="16" height="16" fill="white"/>
</clipPath>
</defs>
</svg>
