<svg width="16" height="16" viewBox="0 0 16 16" fill="none" xmlns="http://www.w3.org/2000/svg">
<g clip-path="url(#clip0_5_838)">
<path d="M14.9888 9.8125L14.2388 3.8125C14.1931 3.44993 14.0166 3.1165 13.7425 2.87483C13.4684 2.63316 13.1154 2.49987 12.75 2.5H2C1.73478 2.5 1.48043 2.60536 1.29289 2.79289C1.10536 2.98043 1 3.23478 1 3.5V9C1 9.26522 1.10536 9.51957 1.29289 9.70711C1.48043 9.89464 1.73478 10 2 10H4.69125L7.0525 14.7238C7.09407 14.8068 7.15795 14.8767 7.237 14.9255C7.31604 14.9743 7.40711 15.0001 7.5 15C8.16304 15 8.79893 14.7366 9.26777 14.2678C9.73661 13.7989 10 13.163 10 12.5V11.5H13.5C13.7129 11.5001 13.9233 11.4548 14.1173 11.3673C14.3113 11.2798 14.4845 11.152 14.6253 10.9923C14.7662 10.8327 14.8714 10.645 14.9341 10.4415C14.9967 10.2381 15.0154 10.0237 14.9888 9.8125ZM4.5 9H2V3.5H4.5V9Z" fill="black"/>
</g>
<defs>
<clipPath id="clip0_5_838">
<rect width="16" height="16" fill="white"/>
</clipPath>
</defs>
</svg>
