<svg width="16" height="16" viewBox="0 0 16 16" fill="none" xmlns="http://www.w3.org/2000/svg">
<g clip-path="url(#clip0_5_890)">
<path d="M15.8538 6.35378L13.6038 8.60378C13.5573 8.65027 13.5022 8.68715 13.4415 8.71231C13.3808 8.73747 13.3157 8.75042 13.25 8.75042C13.1843 8.75042 13.1193 8.73747 13.0586 8.71231C12.9979 8.68715 12.9427 8.65027 12.8963 8.60378L10.6463 6.35378L10.625 6.33003L10.6038 6.35378L8.4569 8.50003L10.6038 10.6463C10.6503 10.6927 10.6871 10.7479 10.7123 10.8086C10.7375 10.8693 10.7504 10.9343 10.7504 11C10.7504 11.0657 10.7375 11.1308 10.7123 11.1915C10.6871 11.2522 10.6503 11.3073 10.6038 11.3538L8.35378 13.6038C8.30734 13.6503 8.2522 13.6871 8.1915 13.7123C8.1308 13.7375 8.06573 13.7504 8.00003 13.7504C7.93432 13.7504 7.86926 13.7375 7.80856 13.7123C7.74786 13.6871 7.69271 13.6503 7.64628 13.6038L5.39628 11.3538C5.34979 11.3073 5.31291 11.2522 5.28775 11.1915C5.26259 11.1308 5.24963 11.0657 5.24963 11C5.24963 10.9343 5.26259 10.8693 5.28775 10.8086C5.31291 10.7479 5.34979 10.6927 5.39628 10.6463L7.54315 8.50003L5.39628 6.35378L5.37503 6.33003L5.35378 6.35378L3.10378 8.60378C3.05734 8.65027 3.0022 8.68715 2.9415 8.71231C2.8808 8.73747 2.81573 8.75042 2.75003 8.75042C2.68432 8.75042 2.61926 8.73747 2.55856 8.71231C2.49786 8.68715 2.44271 8.65027 2.39628 8.60378L0.146277 6.35378C0.0997889 6.30734 0.0629094 6.2522 0.0377473 6.1915C0.0125851 6.1308 -0.000366211 6.06573 -0.000366211 6.00003C-0.000366211 5.93432 0.0125851 5.86926 0.0377473 5.80856C0.0629094 5.74786 0.0997889 5.69271 0.146277 5.64628L2.39628 3.39628C2.44271 3.34979 2.49786 3.31291 2.55856 3.28775C2.61926 3.26259 2.68432 3.24963 2.75003 3.24963C2.81573 3.24963 2.8808 3.26259 2.9415 3.28775C3.0022 3.31291 3.05734 3.34979 3.10378 3.39628L5.35378 5.64628L5.37503 5.67003L5.39628 5.64628L7.64628 3.39628C7.69271 3.34979 7.74786 3.31291 7.80856 3.28775C7.86926 3.26259 7.93432 3.24963 8.00003 3.24963C8.06573 3.24963 8.1308 3.26259 8.1915 3.28775C8.2522 3.31291 8.30734 3.34979 8.35378 3.39628L10.6038 5.64628L10.625 5.67003L10.6463 5.64628L12.8963 3.39628C12.9427 3.34979 12.9979 3.31291 13.0586 3.28775C13.1193 3.26259 13.1843 3.24963 13.25 3.24963C13.3157 3.24963 13.3808 3.26259 13.4415 3.28775C13.5022 3.31291 13.5573 3.34979 13.6038 3.39628L15.8538 5.64628C15.9003 5.69271 15.9371 5.74786 15.9623 5.80856C15.9875 5.86926 16.0004 5.93432 16.0004 6.00003C16.0004 6.06573 15.9875 6.1308 15.9623 6.1915C15.9371 6.2522 15.9003 6.30734 15.8538 6.35378Z" fill="black"/>
</g>
<defs>
<clipPath id="clip0_5_890">
<rect width="16" height="16" fill="white"/>
</clipPath>
</defs>
</svg>
