<svg width="16" height="16" viewBox="0 0 16 16" fill="none" xmlns="http://www.w3.org/2000/svg">
<g clip-path="url(#clip0_5_834)">
<path d="M14.5 5V7.5C14.5 7.63261 14.4473 7.75979 14.3536 7.85355C14.2598 7.94732 14.1326 8 14 8C12.9555 8.00243 11.926 7.75128 11 7.26813V9.75C11 11.0098 10.4996 12.218 9.60876 13.1088C8.71796 13.9996 7.50978 14.5 6.25 14.5C4.99022 14.5 3.78204 13.9996 2.89124 13.1088C2.00044 12.218 1.5 11.0098 1.5 9.75C1.5 7.44375 3.18187 5.405 5.4125 5.0075C5.48446 4.99471 5.55835 4.99785 5.62896 5.0167C5.69958 5.03555 5.7652 5.06966 5.82121 5.11661C5.87722 5.16356 5.92226 5.22223 5.95315 5.28847C5.98404 5.35471 6.00003 5.42691 6 5.5V8.16813C6.00003 8.26275 5.97321 8.35545 5.92265 8.43544C5.87209 8.51543 5.79987 8.57943 5.71438 8.62C5.51227 8.71585 5.33959 8.86417 5.21434 9.04949C5.08909 9.23481 5.01587 9.45035 5.0023 9.67361C4.98873 9.89688 5.03533 10.1197 5.13721 10.3188C5.2391 10.5179 5.39255 10.6861 5.58156 10.8057C5.77057 10.9253 5.98822 10.992 6.21179 10.9988C6.43536 11.0057 6.65667 10.9524 6.85264 10.8446C7.04861 10.7367 7.21205 10.5783 7.32591 10.3858C7.43978 10.1932 7.4999 9.97368 7.5 9.75V1.5C7.5 1.36739 7.55268 1.24021 7.64645 1.14645C7.74021 1.05268 7.86739 1 8 1H10.5C10.6326 1 10.7598 1.05268 10.8536 1.14645C10.9473 1.24021 11 1.36739 11 1.5C11.0008 2.2954 11.3172 3.05798 11.8796 3.62041C12.442 4.18284 13.2046 4.49917 14 4.5C14.1326 4.5 14.2598 4.55268 14.3536 4.64645C14.4473 4.74021 14.5 4.86739 14.5 5Z" fill="black"/>
</g>
<defs>
<clipPath id="clip0_5_834">
<rect width="16" height="16" fill="white"/>
</clipPath>
</defs>
</svg>
