<svg width="16" height="16" viewBox="0 0 16 16" fill="none" xmlns="http://www.w3.org/2000/svg">
<g clip-path="url(#clip0_5_586)">
<path d="M13 2H3C2.73478 2 2.48043 2.10536 2.29289 2.29289C2.10536 2.48043 2 2.73478 2 3V13C2 13.2652 2.10536 13.5196 2.29289 13.7071C2.48043 13.8946 2.73478 14 3 14H13C13.2652 14 13.5196 13.8946 13.7071 13.7071C13.8946 13.5196 14 13.2652 14 13V3C14 2.73478 13.8946 2.48043 13.7071 2.29289C13.5196 2.10536 13.2652 2 13 2ZM12.375 8.22875C11.5506 9.16625 10.7913 9.49687 10.1019 9.49687C9.16813 9.49687 8.36375 8.89625 7.7 8.40063C6.5 7.50438 5.70687 6.9125 4.375 8.43062C4.33292 8.48386 4.28044 8.52797 4.22076 8.56027C4.16108 8.59257 4.09545 8.61238 4.02787 8.6185C3.96029 8.62462 3.89217 8.61692 3.82765 8.59587C3.76314 8.57482 3.70359 8.54086 3.65263 8.49605C3.60167 8.45124 3.56036 8.39653 3.53122 8.33525C3.50208 8.27397 3.48572 8.20739 3.48313 8.13958C3.48055 8.07177 3.49179 8.00415 3.51618 7.94083C3.54057 7.8775 3.5776 7.81981 3.625 7.77125C5.56562 5.55812 7.14625 6.73812 8.3 7.59937C9.5 8.49562 10.2931 9.0875 11.625 7.56938C11.6671 7.51614 11.7196 7.47203 11.7792 7.43973C11.8389 7.40743 11.9045 7.38762 11.9721 7.3815C12.0397 7.37538 12.1078 7.38308 12.1723 7.40413C12.2369 7.42518 12.2964 7.45914 12.3474 7.50395C12.3983 7.54876 12.4396 7.60347 12.4688 7.66475C12.4979 7.72603 12.5143 7.79261 12.5169 7.86041C12.5195 7.92822 12.5082 7.99585 12.4838 8.05917C12.4594 8.1225 12.4224 8.18019 12.375 8.22875Z" fill="black"/>
</g>
<defs>
<clipPath id="clip0_5_586">
<rect width="16" height="16" fill="white"/>
</clipPath>
</defs>
</svg>
