<svg width="16" height="16" viewBox="0 0 16 16" fill="none" xmlns="http://www.w3.org/2000/svg">
<g clip-path="url(#clip0_5_251)">
<path d="M14.9213 13.2307L8.59377 3.34381L9.92127 1.26944C9.95664 1.21412 9.98077 1.15237 9.99229 1.08772C10.0038 1.02308 10.0025 0.956799 9.98836 0.892668C9.97426 0.828538 9.94766 0.767813 9.91009 0.713961C9.87252 0.660109 9.82471 0.614185 9.76939 0.57881C9.71407 0.543435 9.65233 0.519303 9.58768 0.507791C9.52304 0.496278 9.45676 0.497612 9.39262 0.511715C9.32849 0.525818 9.26777 0.552414 9.21392 0.589985C9.16007 0.627556 9.11414 0.675366 9.07877 0.730685L8.00002 2.41631L6.92127 0.72881C6.84982 0.617088 6.73693 0.538322 6.60741 0.50984C6.47789 0.481358 6.34236 0.505493 6.23064 0.576935C6.11892 0.648378 6.04015 0.761276 6.01167 0.890793C5.98319 1.02031 6.00732 1.15584 6.07877 1.26756L7.40627 3.34381L1.07877 13.2307C1.03045 13.3062 1.00334 13.3934 1.00029 13.4831C0.99724 13.5727 1.01836 13.6615 1.06143 13.7402C1.10451 13.8189 1.16795 13.8845 1.24512 13.9302C1.32228 13.9759 1.41032 14.0001 1.50002 14.0001H14.5C14.5897 14.0001 14.6778 13.9759 14.7549 13.9302C14.8321 13.8845 14.8955 13.8189 14.9386 13.7402C14.9817 13.6615 15.0028 13.5727 14.9997 13.4831C14.9967 13.3934 14.9696 13.3062 14.9213 13.2307ZM11.7963 13.0001L8.42127 7.73069C8.37605 7.65997 8.31377 7.60178 8.24015 7.56147C8.16653 7.52116 8.08395 7.50003 8.00002 7.50003C7.91609 7.50003 7.8335 7.52116 7.75989 7.56147C7.68627 7.60178 7.62398 7.65997 7.57877 7.73069L4.20627 13.0001H2.41377L8.00002 4.27131L13.5863 13.0001H11.7963Z" fill="black"/>
</g>
<defs>
<clipPath id="clip0_5_251">
<rect width="16" height="16" fill="white"/>
</clipPath>
</defs>
</svg>
