<svg width="16" height="16" viewBox="0 0 16 16" fill="none" xmlns="http://www.w3.org/2000/svg">
<g clip-path="url(#clip0_5_250)">
<path d="M11.5 8C11.5 9.38062 11.0525 10.5 10.5 10.5C9.9475 10.5 9.5 9.38062 9.5 8C9.5 6.61938 9.9475 5.5 10.5 5.5C11.0525 5.5 11.5 6.61938 11.5 8ZM15 14C15 14.1326 14.9473 14.2598 14.8536 14.3536C14.7598 14.4473 14.6326 14.5 14.5 14.5H5.75C3.6475 14.5 2 11.645 2 8C2 4.355 3.6475 1.5 5.75 1.5H10.25C12.3525 1.5 14 4.355 14 8C14 10.3419 13.32 12.3581 12.2756 13.5H14.5C14.6326 13.5 14.7598 13.5527 14.8536 13.6464C14.9473 13.7402 15 13.8674 15 14ZM3.61687 6.98812C3.72092 6.98829 3.82238 6.95571 3.90687 6.895L5 6.11438L5.83 6.7075C5.93795 6.77766 6.0688 6.80347 6.19531 6.77957C6.32181 6.75567 6.43422 6.68389 6.50913 6.57918C6.58404 6.47447 6.61567 6.3449 6.59743 6.21746C6.5792 6.09001 6.51251 5.97451 6.41125 5.895L5.29063 5.09312C5.20582 5.03255 5.10421 4.99999 5 4.99999C4.89579 4.99999 4.79418 5.03255 4.70937 5.09312L3.32562 6.08125C3.23938 6.14285 3.17493 6.23027 3.1416 6.33088C3.10827 6.4315 3.10777 6.5401 3.14018 6.64101C3.17259 6.74193 3.23623 6.82993 3.32191 6.89232C3.40759 6.95471 3.51088 6.98826 3.61687 6.98812ZM6.53375 9.98125L5.29063 9.09313C5.20582 9.03255 5.10421 8.99999 5 8.99999C4.89579 8.99999 4.79418 9.03255 4.70937 9.09313L3.5 9.95562C3.44337 9.99243 3.39478 10.0403 3.35717 10.0964C3.31956 10.1525 3.29371 10.2157 3.28117 10.282C3.26863 10.3484 3.26966 10.4166 3.28421 10.4826C3.29876 10.5485 3.32652 10.6108 3.36582 10.6658C3.40512 10.7207 3.45513 10.7671 3.51286 10.8022C3.57058 10.8372 3.63481 10.8603 3.70166 10.8698C3.76852 10.8794 3.83663 10.8753 3.90187 10.8578C3.96711 10.8403 4.02813 10.8098 4.08125 10.7681L5 10.1144L5.9525 10.7944C6.00562 10.8361 6.06664 10.8666 6.13188 10.8841C6.19712 10.9016 6.26523 10.9056 6.33209 10.8961C6.39894 10.8865 6.46317 10.8635 6.52089 10.8284C6.57862 10.7934 6.62863 10.747 6.66793 10.692C6.70723 10.6371 6.73499 10.5748 6.74954 10.5088C6.76409 10.4429 6.76512 10.3746 6.75258 10.3083C6.74004 10.2419 6.71419 10.1788 6.67658 10.1227C6.63897 10.0666 6.59038 10.0187 6.53375 9.98188V9.98125ZM12.1088 12.0044C12.6831 10.9419 13 9.52063 13 8C13 6.47937 12.6831 5.05687 12.1088 3.99563C11.5863 3.03125 10.9263 2.5 10.25 2.5C9.57375 2.5 8.91375 3.03125 8.39125 3.99563C7.81687 5.05687 7.5 6.47937 7.5 8C7.5 9.52063 7.81687 10.9431 8.39125 12.0044C8.91375 12.9688 9.57375 13.5 10.25 13.5C10.9263 13.5 11.5863 12.9688 12.1088 12.0044Z" fill="black"/>
</g>
<defs>
<clipPath id="clip0_5_250">
<rect width="16" height="16" fill="white"/>
</clipPath>
</defs>
</svg>
