<svg width="16" height="16" viewBox="0 0 16 16" fill="none" xmlns="http://www.w3.org/2000/svg">
<g clip-path="url(#clip0_5_249)">
<path d="M11 3.5H5C3.80653 3.5 2.66193 3.97411 1.81802 4.81802C0.974106 5.66193 0.5 6.80653 0.5 8C0.5 9.19347 0.974106 10.3381 1.81802 11.182C2.66193 12.0259 3.80653 12.5 5 12.5H11C12.1935 12.5 13.3381 12.0259 14.182 11.182C15.0259 10.3381 15.5 9.19347 15.5 8C15.5 6.80653 15.0259 5.66193 14.182 4.81802C13.3381 3.97411 12.1935 3.5 11 3.5ZM5 10.5C4.50555 10.5 4.0222 10.3534 3.61107 10.0787C3.19995 9.80397 2.87952 9.41352 2.6903 8.95671C2.50108 8.49989 2.45157 7.99723 2.54804 7.51227C2.6445 7.02732 2.8826 6.58186 3.23223 6.23223C3.58186 5.8826 4.02732 5.6445 4.51227 5.54804C4.99723 5.45157 5.49989 5.50108 5.95671 5.6903C6.41352 5.87952 6.80397 6.19995 7.07867 6.61107C7.35338 7.0222 7.5 7.50555 7.5 8C7.5 8.66304 7.23661 9.29893 6.76777 9.76777C6.29893 10.2366 5.66304 10.5 5 10.5Z" fill="black"/>
</g>
<defs>
<clipPath id="clip0_5_249">
<rect width="16" height="16" fill="white"/>
</clipPath>
</defs>
</svg>
