<svg width="16" height="16" viewBox="0 0 16 16" fill="none" xmlns="http://www.w3.org/2000/svg">
<g clip-path="url(#clip0_5_608)">
<path d="M11 3.5H5C3.80653 3.5 2.66193 3.97411 1.81802 4.81802C0.974106 5.66193 0.5 6.80653 0.5 8C0.5 9.19347 0.974106 10.3381 1.81802 11.182C2.66193 12.0259 3.80653 12.5 5 12.5H11C12.1935 12.5 13.3381 12.0259 14.182 11.182C15.0259 10.3381 15.5 9.19347 15.5 8C15.5 6.80653 15.0259 5.66193 14.182 4.81802C13.3381 3.97411 12.1935 3.5 11 3.5ZM11 10.5C10.5055 10.5 10.0222 10.3534 9.61107 10.0787C9.19995 9.80397 8.87952 9.41352 8.6903 8.95671C8.50108 8.49989 8.45157 7.99723 8.54804 7.51227C8.6445 7.02732 8.8826 6.58186 9.23223 6.23223C9.58186 5.8826 10.0273 5.6445 10.5123 5.54804C10.9972 5.45157 11.4999 5.50108 11.9567 5.6903C12.4135 5.87952 12.804 6.19995 13.0787 6.61107C13.3534 7.0222 13.5 7.50555 13.5 8C13.5 8.66304 13.2366 9.29893 12.7678 9.76777C12.2989 10.2366 11.663 10.5 11 10.5Z" fill="black"/>
</g>
<defs>
<clipPath id="clip0_5_608">
<rect width="16" height="16" fill="white"/>
</clipPath>
</defs>
</svg>
