<svg width="16" height="16" viewBox="0 0 16 16" fill="none" xmlns="http://www.w3.org/2000/svg">
<g clip-path="url(#clip0_5_247)">
<path d="M11.5 7.5C11.5 7.63261 11.4473 7.75979 11.3536 7.85355C11.2598 7.94732 11.1326 8 11 8H10C9.86739 8 9.74021 7.94732 9.64645 7.85355C9.55268 7.75979 9.5 7.63261 9.5 7.5C9.5 7.36739 9.55268 7.24021 9.64645 7.14645C9.74021 7.05268 9.86739 7 10 7H11C11.1326 7 11.2598 7.05268 11.3536 7.14645C11.4473 7.24021 11.5 7.36739 11.5 7.5ZM15 7.5V13C15 13.2652 14.8946 13.5196 14.7071 13.7071C14.5196 13.8946 14.2652 14 14 14H7C6.73478 14 6.48043 13.8946 6.29289 13.7071C6.10536 13.5196 6 13.2652 6 13V11.6469C5.46063 12.5231 4.76125 13 4 13C3.13313 13 2.34625 12.3819 1.785 11.2594C1.27875 10.25 1 8.91187 1 7.5C1 6.08813 1.27875 4.75312 1.785 3.74062C2.34625 2.61812 3.13313 2 4 2H12C12.8669 2 13.6538 2.61812 14.215 3.74062C14.7213 4.75312 15 6.08813 15 7.5ZM4.75 7.5C4.75 7.35166 4.70601 7.20666 4.6236 7.08332C4.54119 6.95999 4.42406 6.86386 4.28701 6.80709C4.14997 6.75032 3.99917 6.73547 3.85368 6.76441C3.7082 6.79335 3.57456 6.86478 3.46967 6.96967C3.36478 7.07456 3.29335 7.2082 3.26441 7.35368C3.23547 7.49917 3.25032 7.64997 3.30709 7.78701C3.36386 7.92406 3.45999 8.04119 3.58332 8.1236C3.70666 8.20601 3.85166 8.25 4 8.25C4.19891 8.25 4.38968 8.17098 4.53033 8.03033C4.67098 7.88968 4.75 7.69891 4.75 7.5ZM14 8H13C12.8674 8 12.7402 7.94732 12.6464 7.85355C12.5527 7.75979 12.5 7.63261 12.5 7.5C12.5 7.36739 12.5527 7.24021 12.6464 7.14645C12.7402 7.05268 12.8674 7 13 7H13.9869C13.865 4.61875 12.885 3 12 3H5.7575C5.93307 3.23186 6.08626 3.47984 6.215 3.74062C6.66125 4.63312 6.93 5.77562 6.98812 7H8C8.13261 7 8.25979 7.05268 8.35355 7.14645C8.44732 7.24021 8.5 7.36739 8.5 7.5C8.5 7.63261 8.44732 7.75979 8.35355 7.85355C8.25979 7.94732 8.13261 8 8 8H7V13H14V8Z" fill="black"/>
</g>
<defs>
<clipPath id="clip0_5_247">
<rect width="16" height="16" fill="white"/>
</clipPath>
</defs>
</svg>
