<svg width="16" height="16" viewBox="0 0 16 16" fill="none" xmlns="http://www.w3.org/2000/svg">
<g clip-path="url(#clip0_5_248)">
<path d="M3.75 5.5H12.25C12.3163 5.5 12.3799 5.47366 12.4268 5.42678C12.4737 5.37989 12.5 5.3163 12.5 5.25V2.5C12.5 2.23478 12.3946 1.98043 12.2071 1.79289C12.0196 1.60536 11.7652 1.5 11.5 1.5H4.5C4.23478 1.5 3.98043 1.60536 3.79289 1.79289C3.60536 1.98043 3.5 2.23478 3.5 2.5V5.25C3.5 5.3163 3.52634 5.37989 3.57322 5.42678C3.62011 5.47366 3.6837 5.5 3.75 5.5ZM5.5 3H6.5C6.63261 3 6.75979 3.05268 6.85355 3.14645C6.94732 3.24021 7 3.36739 7 3.5C7 3.63261 6.94732 3.75979 6.85355 3.85355C6.75979 3.94732 6.63261 4 6.5 4H5.5C5.36739 4 5.24021 3.94732 5.14645 3.85355C5.05268 3.75979 5 3.63261 5 3.5C5 3.36739 5.05268 3.24021 5.14645 3.14645C5.24021 3.05268 5.36739 3 5.5 3ZM14 7C14 6.86739 13.9473 6.74021 13.8536 6.64645C13.7598 6.55268 13.6326 6.5 13.5 6.5H2.5C2.36739 6.5 2.24021 6.55268 2.14645 6.64645C2.05268 6.74021 2 6.86739 2 7C2.00082 8.09742 2.30232 9.17365 2.87177 10.1118C3.44121 11.0499 4.25681 11.8141 5.23 12.3212L5.01 13.8588C4.98976 14.0006 5.00024 14.1451 5.04071 14.2825C5.08118 14.4199 5.15071 14.5471 5.24459 14.6553C5.33846 14.7635 5.45449 14.8503 5.58482 14.9098C5.71515 14.9692 5.85674 15 6 15H10C10.1433 15 10.2848 14.9692 10.4152 14.9098C10.5455 14.8503 10.6615 14.7635 10.7554 14.6553C10.8493 14.5471 10.9188 14.4199 10.9593 14.2825C10.9998 14.1451 11.0102 14.0006 10.99 13.8588L10.77 12.3212C11.7432 11.8141 12.5588 11.0499 13.1282 10.1118C13.6977 9.17365 13.9992 8.09742 14 7ZM6 14L6.18313 12.7188C7.36535 13.0937 8.63465 13.0937 9.81688 12.7188L10 14H6Z" fill="black"/>
</g>
<defs>
<clipPath id="clip0_5_248">
<rect width="16" height="16" fill="white"/>
</clipPath>
</defs>
</svg>
