<svg width="16" height="16" viewBox="0 0 16 16" fill="none" xmlns="http://www.w3.org/2000/svg">
<g clip-path="url(#clip0_5_246)">
<path d="M14 4H11V3.5C11 3.10218 10.842 2.72064 10.5607 2.43934C10.2794 2.15804 9.89782 2 9.5 2H6.5C6.10218 2 5.72064 2.15804 5.43934 2.43934C5.15804 2.72064 5 3.10218 5 3.5V4H2C1.73478 4 1.48043 4.10536 1.29289 4.29289C1.10536 4.48043 1 4.73478 1 5V6.75C1 6.8163 1.02634 6.87989 1.07322 6.92678C1.12011 6.97366 1.1837 7 1.25 7H4V6.01687C3.99794 5.88763 4.04498 5.76241 4.13163 5.66648C4.21828 5.57055 4.33808 5.51106 4.46688 5.5C4.53527 5.49546 4.60386 5.50503 4.6684 5.52811C4.73294 5.5512 4.79205 5.58731 4.84204 5.6342C4.89204 5.68109 4.93186 5.73776 4.95903 5.80069C4.98621 5.86361 5.00015 5.93146 5 6V7H11V6.01687C10.9979 5.88763 11.045 5.76241 11.1316 5.66648C11.2183 5.57055 11.3381 5.51106 11.4669 5.5C11.5353 5.49546 11.6039 5.50503 11.6684 5.52811C11.7329 5.5512 11.792 5.58731 11.842 5.6342C11.892 5.68109 11.9319 5.73776 11.959 5.80069C11.9862 5.86361 12.0002 5.93146 12 6V7H14.75C14.8163 7 14.8799 6.97366 14.9268 6.92678C14.9737 6.87989 15 6.8163 15 6.75V5C15 4.73478 14.8946 4.48043 14.7071 4.29289C14.5196 4.10536 14.2652 4 14 4ZM10 4H6V3.5C6 3.36739 6.05268 3.24021 6.14645 3.14645C6.24021 3.05268 6.36739 3 6.5 3H9.5C9.63261 3 9.75979 3.05268 9.85355 3.14645C9.94732 3.24021 10 3.36739 10 3.5V4ZM15 8.25V12C15 12.2652 14.8946 12.5196 14.7071 12.7071C14.5196 12.8946 14.2652 13 14 13H2C1.73478 13 1.48043 12.8946 1.29289 12.7071C1.10536 12.5196 1 12.2652 1 12V8.25C1 8.1837 1.02634 8.12011 1.07322 8.07322C1.12011 8.02634 1.1837 8 1.25 8H4V9C3.99985 9.06854 4.01379 9.13639 4.04097 9.19931C4.06814 9.26224 4.10796 9.31891 4.15796 9.3658C4.20795 9.41269 4.26706 9.4488 4.3316 9.47189C4.39614 9.49497 4.46473 9.50454 4.53312 9.5C4.66192 9.48894 4.78172 9.42945 4.86837 9.33352C4.95502 9.23759 5.00206 9.11237 5 8.98312V8H11V9C10.9998 9.06854 11.0138 9.13639 11.041 9.19931C11.0681 9.26224 11.108 9.31891 11.158 9.3658C11.208 9.41269 11.2671 9.4488 11.3316 9.47189C11.3961 9.49497 11.4647 9.50454 11.5331 9.5C11.6617 9.48896 11.7813 9.42964 11.8679 9.33398C11.9546 9.23832 12.0017 9.11341 12 8.98438V8H14.75C14.8163 8 14.8799 8.02634 14.9268 8.07322C14.9737 8.12011 15 8.1837 15 8.25Z" fill="black"/>
</g>
<defs>
<clipPath id="clip0_5_246">
<rect width="16" height="16" fill="white"/>
</clipPath>
</defs>
</svg>
