<svg width="16" height="16" viewBox="0 0 16 16" fill="none" xmlns="http://www.w3.org/2000/svg">
<g clip-path="url(#clip0_5_605)">
<path d="M10.5 1.5H5.5C4.57444 1.49999 3.68656 1.86659 3.03063 2.5196C2.3747 3.1726 2.00413 4.05883 2 4.98438C2 7.65438 2.5 9.69687 2.91875 10.9394C3.46375 12.5519 4.2075 13.7825 4.95875 14.3144C5.12485 14.4344 5.32443 14.4994 5.52938 14.5C5.78271 14.4993 6.02644 14.403 6.21184 14.2303C6.39724 14.0577 6.51064 13.8214 6.52938 13.5688C6.5825 12.8488 6.84188 10.4994 8 10.4994C9.15812 10.4994 9.4175 12.8488 9.47062 13.5688C9.48381 13.7463 9.54387 13.9171 9.64467 14.0638C9.74547 14.2105 9.8834 14.3278 10.0444 14.4038C10.2031 14.4799 10.3795 14.5119 10.5549 14.4964C10.7303 14.4809 10.8983 14.4185 11.0413 14.3156C11.7913 13.7825 12.5363 12.5519 13.0813 10.9406C13.5 9.69688 14 7.65438 14 4.98438C13.9959 4.05883 13.6253 3.1726 12.9694 2.5196C12.3134 1.86659 11.4256 1.49999 10.5 1.5ZM10.6875 5.03562C10.7484 5.06025 10.8039 5.09663 10.8508 5.1427C10.8977 5.18877 10.935 5.24362 10.9607 5.30413C10.9864 5.36463 10.9999 5.4296 11.0005 5.49533C11.0011 5.56105 10.9887 5.62625 10.9641 5.68719C10.9394 5.74813 10.9031 5.80362 10.857 5.8505C10.8109 5.89738 10.7561 5.93473 10.6956 5.96041C10.6351 5.98609 10.5701 5.99961 10.5044 6.00018C10.4386 6.00075 10.3734 5.98837 10.3125 5.96375L8 5.03813L5.6875 5.96375C5.62656 5.98837 5.56136 6.00075 5.49564 6.00018C5.42991 5.99961 5.36494 5.98609 5.30444 5.96041C5.24394 5.93473 5.18909 5.89738 5.14302 5.8505C5.09695 5.80362 5.06056 5.74813 5.03594 5.68719C5.01131 5.62625 4.99894 5.56105 4.99951 5.49533C5.00008 5.4296 5.01359 5.36463 5.03928 5.30413C5.06496 5.24362 5.1023 5.18877 5.14918 5.1427C5.19606 5.09663 5.25156 5.06025 5.3125 5.03562L6.65375 4.5L5.3125 3.96375C5.25156 3.93913 5.19606 3.90274 5.14918 3.85667C5.1023 3.8106 5.06496 3.75575 5.03928 3.69525C5.01359 3.63474 5.00008 3.56977 4.99951 3.50405C4.99894 3.43832 5.01131 3.37313 5.03594 3.31219C5.06056 3.25125 5.09695 3.19575 5.14302 3.14887C5.18909 3.10199 5.24394 3.06464 5.30444 3.03896C5.36494 3.01328 5.42991 2.99977 5.49564 2.9992C5.56136 2.99862 5.62656 3.011 5.6875 3.03562L8 3.96125L10.3125 3.03562C10.3734 3.011 10.4386 2.99862 10.5044 2.9992C10.5701 2.99977 10.6351 3.01328 10.6956 3.03896C10.7561 3.06464 10.8109 3.10199 10.857 3.14887C10.9031 3.19575 10.9394 3.25125 10.9641 3.31219C10.9887 3.37313 11.0011 3.43832 11.0005 3.50405C10.9999 3.56977 10.9864 3.63474 10.9607 3.69525C10.935 3.75575 10.8977 3.8106 10.8508 3.85667C10.8039 3.90274 10.7484 3.93913 10.6875 3.96375L9.34625 4.5L10.6875 5.03562Z" fill="black"/>
</g>
<defs>
<clipPath id="clip0_5_605">
<rect width="16" height="16" fill="white"/>
</clipPath>
</defs>
</svg>
