<svg width="16" height="16" viewBox="0 0 16 16" fill="none" xmlns="http://www.w3.org/2000/svg">
<g clip-path="url(#clip0_5_245)">
<path d="M9 14.25C9 14.4489 8.92098 14.6397 8.78033 14.7803C8.63968 14.921 8.44891 15 8.25 15H7.25C7.05109 15 6.86032 14.921 6.71967 14.7803C6.57902 14.6397 6.5 14.4489 6.5 14.25C6.5 14.0511 6.57902 13.8603 6.71967 13.7197C6.86032 13.579 7.05109 13.5 7.25 13.5H8.25C8.44891 13.5 8.63968 13.579 8.78033 13.7197C8.92098 13.8603 9 14.0511 9 14.25ZM13.75 2H3.75C3.55109 2 3.36032 2.07902 3.21967 2.21967C3.07902 2.36032 3 2.55109 3 2.75C3 2.94891 3.07902 3.13968 3.21967 3.28033C3.36032 3.42098 3.55109 3.5 3.75 3.5C3.94891 3.5 4.13968 3.57902 4.28033 3.71967C4.42098 3.86032 4.5 4.05109 4.5 4.25C4.5 4.44891 4.42098 4.63968 4.28033 4.78033C4.13968 4.92098 3.94891 5 3.75 5H2.75C2.55109 5 2.36032 5.07902 2.21967 5.21967C2.07902 5.36032 2 5.55109 2 5.75C2 5.94891 2.07902 6.13968 2.21967 6.28033C2.36032 6.42098 2.55109 6.5 2.75 6.5H4.75C4.94891 6.5 5.13968 6.57902 5.28033 6.71967C5.42098 6.86032 5.5 7.05109 5.5 7.25C5.5 7.44891 5.42098 7.63968 5.28033 7.78033C5.13968 7.92098 4.94891 8 4.75 8C4.55109 8 4.36032 8.07902 4.21967 8.21967C4.07902 8.36032 4 8.55109 4 8.75C4 8.94891 4.07902 9.13968 4.21967 9.28033C4.36032 9.42098 4.55109 9.5 4.75 9.5H7.75C7.94891 9.5 8.13968 9.57902 8.28033 9.71967C8.42098 9.86032 8.5 10.0511 8.5 10.25C8.5 10.4489 8.42098 10.6397 8.28033 10.7803C8.13968 10.921 7.94891 11 7.75 11C7.55109 11 7.36032 11.079 7.21967 11.2197C7.07902 11.3603 7 11.5511 7 11.75C7 11.9489 7.07902 12.1397 7.21967 12.2803C7.36032 12.421 7.55109 12.5 7.75 12.5H10.75C10.9489 12.5 11.1397 12.421 11.2803 12.2803C11.421 12.1397 11.5 11.9489 11.5 11.75C11.5 11.5511 11.421 11.3603 11.2803 11.2197C11.1397 11.079 10.9489 11 10.75 11C10.5511 11 10.3603 10.921 10.2197 10.7803C10.079 10.6397 10 10.4489 10 10.25C10 10.0511 10.079 9.86032 10.2197 9.71967C10.3603 9.57902 10.5511 9.5 10.75 9.5H11.75C11.9489 9.5 12.1397 9.42098 12.2803 9.28033C12.421 9.13968 12.5 8.94891 12.5 8.75C12.5 8.55109 12.421 8.36032 12.2803 8.21967C12.1397 8.07902 11.9489 8 11.75 8H10.25C10.0511 8 9.86032 7.92098 9.71967 7.78033C9.57902 7.63968 9.5 7.44891 9.5 7.25C9.5 7.05109 9.57902 6.86032 9.71967 6.71967C9.86032 6.57902 10.0511 6.5 10.25 6.5C10.4489 6.5 10.6397 6.42098 10.7803 6.28033C10.921 6.13968 11 5.94891 11 5.75C11 5.55109 10.921 5.36032 10.7803 5.21967C10.6397 5.07902 10.4489 5 10.25 5C10.0511 5 9.86032 4.92098 9.71967 4.78033C9.57902 4.63968 9.5 4.44891 9.5 4.25C9.5 4.05109 9.57902 3.86032 9.71967 3.71967C9.86032 3.57902 10.0511 3.5 10.25 3.5H13.75C13.9489 3.5 14.1397 3.42098 14.2803 3.28033C14.421 3.13968 14.5 2.94891 14.5 2.75C14.5 2.55109 14.421 2.36032 14.2803 2.21967C14.1397 2.07902 13.9489 2 13.75 2Z" fill="black"/>
</g>
<defs>
<clipPath id="clip0_5_245">
<rect width="16" height="16" fill="white"/>
</clipPath>
</defs>
</svg>
