<svg width="16" height="16" viewBox="0 0 16 16" fill="none" xmlns="http://www.w3.org/2000/svg">
<g clip-path="url(#clip0_5_244)">
<path d="M14.75 4.3375C14.6552 4.23106 14.5388 4.14594 14.4087 4.08777C14.2785 4.02959 14.1375 3.99968 13.995 4H11C11 3.20435 10.6839 2.44129 10.1213 1.87868C9.5587 1.31607 8.79563 1 7.99998 1C7.20434 1 6.44127 1.31607 5.87866 1.87868C5.31606 2.44129 4.99998 3.20435 4.99998 4H2.00498C1.86327 4.00038 1.72323 4.03064 1.594 4.08879C1.46477 4.14694 1.34925 4.23169 1.25498 4.3375C1.1615 4.44292 1.09135 4.5669 1.04913 4.70132C1.00691 4.83574 0.993569 4.97756 1.00998 5.1175L1.90123 12.6175C1.93014 12.8619 2.04813 13.087 2.23263 13.2498C2.41712 13.4126 2.65517 13.5017 2.90123 13.5H13.1044C13.3504 13.5017 13.5885 13.4126 13.773 13.2498C13.9575 13.087 14.0755 12.8619 14.1044 12.6175L14.9956 5.1175C15.0119 4.97752 14.9985 4.83567 14.9562 4.70124C14.9138 4.56682 14.8436 4.44286 14.75 4.3375ZM5.99998 6.5C5.99998 6.63261 5.94731 6.75979 5.85354 6.85355C5.75977 6.94732 5.63259 7 5.49998 7C5.36738 7 5.2402 6.94732 5.14643 6.85355C5.05266 6.75979 4.99998 6.63261 4.99998 6.5V5.5C4.99998 5.36739 5.05266 5.24021 5.14643 5.14645C5.2402 5.05268 5.36738 5 5.49998 5C5.63259 5 5.75977 5.05268 5.85354 5.14645C5.94731 5.24021 5.99998 5.36739 5.99998 5.5V6.5ZM7.99998 2C8.53042 2 9.03913 2.21071 9.4142 2.58579C9.78927 2.96086 9.99998 3.46957 9.99998 4H5.99998C5.99998 3.46957 6.2107 2.96086 6.58577 2.58579C6.96084 2.21071 7.46955 2 7.99998 2ZM11 6.5C11 6.63261 10.9473 6.75979 10.8535 6.85355C10.7598 6.94732 10.6326 7 10.5 7C10.3674 7 10.2402 6.94732 10.1464 6.85355C10.0527 6.75979 9.99998 6.63261 9.99998 6.5V5.5C9.99998 5.36739 10.0527 5.24021 10.1464 5.14645C10.2402 5.05268 10.3674 5 10.5 5C10.6326 5 10.7598 5.05268 10.8535 5.14645C10.9473 5.24021 11 5.36739 11 5.5V6.5Z" fill="black"/>
</g>
<defs>
<clipPath id="clip0_5_244">
<rect width="16" height="16" fill="white"/>
</clipPath>
</defs>
</svg>
