<svg width="16" height="16" viewBox="0 0 16 16" fill="none" xmlns="http://www.w3.org/2000/svg">
<g clip-path="url(#clip0_5_242)">
<path d="M5 10.75C5 10.8983 4.95601 11.0433 4.8736 11.1667C4.79119 11.29 4.67406 11.3861 4.53701 11.4429C4.39997 11.4997 4.24917 11.5145 4.10368 11.4856C3.9582 11.4566 3.82456 11.3852 3.71967 11.2803C3.61478 11.1754 3.54335 11.0418 3.51441 10.8963C3.48547 10.7508 3.50033 10.6 3.55709 10.463C3.61386 10.3259 3.70999 10.2088 3.83332 10.1264C3.95666 10.044 4.10167 10 4.25 10C4.44891 10 4.63968 10.079 4.78033 10.2197C4.92098 10.3603 5 10.5511 5 10.75ZM7.5 10.75C7.5 11.3928 7.30939 12.0211 6.95228 12.5556C6.59516 13.0901 6.08758 13.5066 5.49372 13.7526C4.89986 13.9986 4.2464 14.063 3.61596 13.9376C2.98552 13.8122 2.40643 13.5026 1.9519 13.0481C1.49738 12.5936 1.18785 12.0145 1.06245 11.384C0.937047 10.7536 1.00141 10.1001 1.24739 9.50628C1.49338 8.91242 1.90994 8.40484 2.4444 8.04772C2.97886 7.69061 3.60721 7.5 4.25 7.5C5.11165 7.50099 5.93772 7.84372 6.547 8.453C7.15628 9.06228 7.49901 9.88835 7.5 10.75ZM6 10.75C6 10.4039 5.89737 10.0655 5.70507 9.77775C5.51278 9.48997 5.23947 9.26566 4.9197 9.13321C4.59993 9.00076 4.24806 8.9661 3.90859 9.03363C3.56913 9.10115 3.25731 9.26782 3.01256 9.51256C2.76782 9.7573 2.60115 10.0691 2.53363 10.4086C2.4661 10.7481 2.50076 11.0999 2.63321 11.4197C2.76567 11.7395 2.98997 12.0128 3.27775 12.2051C3.56554 12.3974 3.90388 12.5 4.25 12.5C4.71413 12.5 5.15925 12.3156 5.48744 11.9874C5.81563 11.6592 6 11.2141 6 10.75ZM15.5 11.75C15.499 12.3244 15.2784 12.8766 14.8833 13.2936C14.4883 13.7106 13.9487 13.9606 13.3752 13.9926C12.8017 14.0246 12.2377 13.836 11.7988 13.4655C11.3598 13.095 11.0792 12.5707 11.0144 12H9C8.86739 12 8.74022 11.9473 8.64645 11.8536C8.55268 11.7598 8.5 11.6326 8.5 11.5V10.75C8.49884 9.62319 8.0507 8.54285 7.25393 7.74608C6.45715 6.9493 5.37682 6.50116 4.25 6.5H2.5C2.36739 6.5 2.24022 6.44732 2.14645 6.35355C2.05268 6.25979 2 6.13261 2 6C2 5.86739 2.05268 5.74021 2.14645 5.64645C2.24022 5.55268 2.36739 5.5 2.5 5.5H3V3.5H2.5C2.36739 3.5 2.24022 3.44732 2.14645 3.35355C2.05268 3.25979 2 3.13261 2 3C2 2.86739 2.05268 2.74021 2.14645 2.64645C2.24022 2.55268 2.36739 2.5 2.5 2.5H10C10.1326 2.5 10.2598 2.55268 10.3536 2.64645C10.4473 2.74021 10.5 2.86739 10.5 3C10.5 3.13261 10.4473 3.25979 10.3536 3.35355C10.2598 3.44732 10.1326 3.5 10 3.5H9.5V6.1175L11 6.52375V4.5C11 4.36739 11.0527 4.24021 11.1464 4.14645C11.2402 4.05268 11.3674 4 11.5 4C11.6326 4 11.7598 4.05268 11.8536 4.14645C11.9473 4.24021 12 4.36739 12 4.5V6.79437L14.2744 7.41062L14.2875 7.41437C14.4945 7.47534 14.676 7.60208 14.8046 7.77541C14.9331 7.94873 15.0017 8.15921 15 8.375V10.3413C15.3232 10.7396 15.4998 11.237 15.5 11.75ZM14.25 11.75C14.25 11.5522 14.1914 11.3589 14.0815 11.1944C13.9716 11.03 13.8154 10.9018 13.6327 10.8261C13.45 10.7504 13.2489 10.7306 13.0549 10.7692C12.8609 10.8078 12.6827 10.903 12.5429 11.0429C12.403 11.1827 12.3078 11.3609 12.2692 11.5549C12.2306 11.7489 12.2504 11.95 12.3261 12.1327C12.4018 12.3154 12.53 12.4716 12.6944 12.5815C12.8589 12.6914 13.0522 12.75 13.25 12.75C13.5152 12.75 13.7696 12.6446 13.9571 12.4571C14.1446 12.2696 14.25 12.0152 14.25 11.75Z" fill="black"/>
</g>
<defs>
<clipPath id="clip0_5_242">
<rect width="16" height="16" fill="white"/>
</clipPath>
</defs>
</svg>
