<svg width="16" height="16" viewBox="0 0 16 16" fill="none" xmlns="http://www.w3.org/2000/svg">
<g clip-path="url(#clip0_5_241)">
<path d="M8 1.5C6.71442 1.5 5.45772 1.88122 4.3888 2.59545C3.31988 3.30968 2.48676 4.32484 1.99479 5.51256C1.50282 6.70028 1.37409 8.00721 1.6249 9.26809C1.8757 10.529 2.49477 11.6872 3.40381 12.5962C4.31285 13.5052 5.47104 14.1243 6.73192 14.3751C7.99279 14.6259 9.29973 14.4972 10.4874 14.0052C11.6752 13.5132 12.6903 12.6801 13.4046 11.6112C14.1188 10.5423 14.5 9.28558 14.5 8C14.4982 6.27665 13.8128 4.62441 12.5942 3.40582C11.3756 2.18722 9.72335 1.50182 8 1.5ZM6.5 7H6V9.5C6 9.63261 5.94732 9.75979 5.85356 9.85355C5.75979 9.94732 5.63261 10 5.5 10C5.36739 10 5.24022 9.94732 5.14645 9.85355C5.05268 9.75979 5 9.63261 5 9.5V7H4.5C4.36739 7 4.24022 6.94732 4.14645 6.85355C4.05268 6.75979 4 6.63261 4 6.5C4 6.36739 4.05268 6.24021 4.14645 6.14645C4.24022 6.05268 4.36739 6 4.5 6H6.5C6.63261 6 6.75979 6.05268 6.85356 6.14645C6.94732 6.24021 7 6.36739 7 6.5C7 6.63261 6.94732 6.75979 6.85356 6.85355C6.75979 6.94732 6.63261 7 6.5 7ZM12 9.5C12 9.63261 11.9473 9.75979 11.8536 9.85355C11.7598 9.94732 11.6326 10 11.5 10C11.3674 10 11.2402 9.94732 11.1464 9.85355C11.0527 9.75979 11 9.63261 11 9.5V7.83063L10.125 8.83062C10.0781 8.88383 10.0204 8.92644 9.95572 8.95562C9.89107 8.98481 9.82094 8.99991 9.75 8.99991C9.67906 8.99991 9.60894 8.98481 9.54428 8.95562C9.47963 8.92644 9.42192 8.88383 9.375 8.83062L8.5 7.83063V9.5C8.5 9.63261 8.44732 9.75979 8.35356 9.85355C8.25979 9.94732 8.13261 10 8 10C7.86739 10 7.74022 9.94732 7.64645 9.85355C7.55268 9.75979 7.5 9.63261 7.5 9.5V6.5C7.50028 6.39855 7.5314 6.29959 7.58924 6.21625C7.64709 6.13291 7.72891 6.06914 7.82385 6.0334C7.9188 5.99766 8.02236 5.99164 8.1208 6.01615C8.21925 6.04067 8.3079 6.09454 8.375 6.17063L9.75 7.74062L11.125 6.17063C11.1921 6.09454 11.2808 6.04067 11.3792 6.01615C11.4776 5.99164 11.5812 5.99766 11.6762 6.0334C11.7711 6.06914 11.8529 6.13291 11.9108 6.21625C11.9686 6.29959 11.9997 6.39855 12 6.5V9.5Z" fill="black"/>
</g>
<defs>
<clipPath id="clip0_5_241">
<rect width="16" height="16" fill="white"/>
</clipPath>
</defs>
</svg>
