<svg width="16" height="16" viewBox="0 0 16 16" fill="none" xmlns="http://www.w3.org/2000/svg">
<g clip-path="url(#clip0_5_240)">
<path d="M9.5 7C9.5 7.26522 9.39465 7.51957 9.20711 7.70711C9.01957 7.89464 8.76522 8 8.5 8H7V6H8.5C8.76522 6 9.01957 6.10536 9.20711 6.29289C9.39465 6.48043 9.5 6.73478 9.5 7ZM14.5 8C14.5 9.28558 14.1188 10.5423 13.4046 11.6112C12.6903 12.6801 11.6752 13.5132 10.4874 14.0052C9.29973 14.4972 7.99279 14.6259 6.73192 14.3751C5.47104 14.1243 4.31285 13.5052 3.40381 12.5962C2.49477 11.6872 1.8757 10.529 1.6249 9.26809C1.37409 8.00721 1.50282 6.70028 1.99479 5.51256C2.48676 4.32484 3.31988 3.30968 4.3888 2.59545C5.45772 1.88122 6.71442 1.5 8 1.5C9.72335 1.50182 11.3756 2.18722 12.5942 3.40582C13.8128 4.62441 14.4982 6.27665 14.5 8ZM13.5 8C13.5 6.9122 13.1774 5.84883 12.5731 4.94436C11.9687 4.03989 11.1098 3.33494 10.1048 2.91866C9.09977 2.50238 7.9939 2.39346 6.92701 2.60568C5.86011 2.8179 4.8801 3.34172 4.11092 4.11091C3.34173 4.8801 2.8179 5.86011 2.60568 6.927C2.39347 7.9939 2.50238 9.09977 2.91867 10.1048C3.33495 11.1098 4.0399 11.9687 4.94437 12.5731C5.84884 13.1774 6.91221 13.5 8 13.5C9.45819 13.4983 10.8562 12.9184 11.8873 11.8873C12.9184 10.8562 13.4983 9.45818 13.5 8ZM12.5 8C12.5 8.89002 12.2361 9.76005 11.7416 10.5001C11.2471 11.2401 10.5443 11.8169 9.72208 12.1575C8.89981 12.4981 7.99501 12.5872 7.1221 12.4135C6.24918 12.2399 5.44736 11.8113 4.81802 11.182C4.18869 10.5526 3.7601 9.75082 3.58647 8.87791C3.41284 8.00499 3.50195 7.10019 3.84255 6.27792C4.18314 5.45566 4.75992 4.75285 5.49994 4.25839C6.23996 3.76392 7.10999 3.5 8 3.5C9.19307 3.50132 10.3369 3.97585 11.1805 4.81948C12.0241 5.66311 12.4987 6.80693 12.5 8ZM10.4163 10.2225L9.44313 8.76313C9.836 8.55275 10.1474 8.21717 10.3278 7.80967C10.5082 7.40217 10.5473 6.94608 10.439 6.51379C10.3307 6.0815 10.081 5.69779 9.72975 5.42354C9.37847 5.14929 8.94566 5.00022 8.5 5H6.5C6.36739 5 6.24022 5.05268 6.14645 5.14645C6.05268 5.24021 6 5.36739 6 5.5V10.5C6 10.6326 6.05268 10.7598 6.14645 10.8536C6.24022 10.9473 6.36739 11 6.5 11C6.63261 11 6.75979 10.9473 6.85356 10.8536C6.94732 10.7598 7 10.6326 7 10.5V9H8.39938L9.58688 10.7775C9.66048 10.8879 9.77491 10.9645 9.90502 10.9906C10.0351 11.0166 10.1702 10.9898 10.2806 10.9163C10.391 10.8427 10.4677 10.7282 10.4937 10.5981C10.5197 10.468 10.493 10.3329 10.4194 10.2225H10.4163Z" fill="black"/>
</g>
<defs>
<clipPath id="clip0_5_240">
<rect width="16" height="16" fill="white"/>
</clipPath>
</defs>
</svg>
