<svg width="16" height="16" viewBox="0 0 16 16" fill="none" xmlns="http://www.w3.org/2000/svg">
<g clip-path="url(#clip0_5_598)">
<path d="M14.5 13H13.3556L9.58875 2.17188C9.5206 1.97568 9.39306 1.80558 9.22382 1.68517C9.05459 1.56477 8.85207 1.50005 8.64437 1.5H7.35563C7.14801 1.50001 6.94554 1.56464 6.77632 1.68492C6.60709 1.8052 6.4795 1.97517 6.41125 2.17125L2.64438 13H1.5C1.36739 13 1.24021 13.0527 1.14645 13.1464C1.05268 13.2402 1 13.3674 1 13.5C1 13.6326 1.05268 13.7598 1.14645 13.8536C1.24021 13.9473 1.36739 14 1.5 14H14.5C14.6326 14 14.7598 13.9473 14.8536 13.8536C14.9473 13.7598 15 13.6326 15 13.5C15 13.3674 14.9473 13.2402 14.8536 13.1464C14.7598 13.0527 14.6326 13 14.5 13ZM5.96438 6.5H10.0356L11.0794 9.5H4.92063L5.96438 6.5Z" fill="black"/>
</g>
<defs>
<clipPath id="clip0_5_598">
<rect width="16" height="16" fill="white"/>
</clipPath>
</defs>
</svg>
