<svg width="16" height="16" viewBox="0 0 16 16" fill="none" xmlns="http://www.w3.org/2000/svg">
<g clip-path="url(#clip0_5_239)">
<path d="M15.1969 7.26816L8.73191 0.803164C8.63581 0.70705 8.52171 0.630807 8.39613 0.57879C8.27055 0.526773 8.13596 0.5 8.00004 0.5C7.86412 0.5 7.72952 0.526773 7.60395 0.57879C7.47837 0.630807 7.36427 0.70705 7.26816 0.803164L0.803164 7.26816C0.70705 7.36427 0.630807 7.47837 0.57879 7.60395C0.526773 7.72952 0.5 7.86412 0.5 8.00004C0.5 8.13596 0.526773 8.27055 0.57879 8.39613C0.630807 8.52171 0.70705 8.63581 0.803164 8.73191L7.26816 15.1969C7.36427 15.293 7.47837 15.3693 7.60395 15.4213C7.72952 15.4733 7.86412 15.5001 8.00004 15.5001C8.13596 15.5001 8.27055 15.4733 8.39613 15.4213C8.52171 15.3693 8.63581 15.293 8.73191 15.1969L15.1969 8.73191C15.293 8.63581 15.3693 8.52171 15.4213 8.39613C15.4733 8.27055 15.5001 8.13596 15.5001 8.00004C15.5001 7.86412 15.4733 7.72952 15.4213 7.60395C15.3693 7.47837 15.293 7.36427 15.1969 7.26816ZM10.8538 7.85379L9.35379 9.35379C9.25997 9.44761 9.13272 9.50032 9.00004 9.50032C8.86736 9.50032 8.74011 9.44761 8.64629 9.35379C8.55247 9.25997 8.49976 9.13272 8.49976 9.00004C8.49976 8.86736 8.55247 8.74011 8.64629 8.64629L9.29316 8.00004H7.00004C6.73482 8.00004 6.48047 8.1054 6.29293 8.29293C6.1054 8.48047 6.00004 8.73482 6.00004 9.00004V9.50004C6.00004 9.63265 5.94736 9.75982 5.85359 9.85359C5.75982 9.94736 5.63265 10 5.50004 10C5.36743 10 5.24025 9.94736 5.14649 9.85359C5.05272 9.75982 5.00004 9.63265 5.00004 9.50004V9.00004C5.00004 8.46961 5.21075 7.9609 5.58583 7.58583C5.9609 7.21075 6.46961 7.00004 7.00004 7.00004H9.29316L8.64629 6.35379C8.55247 6.25997 8.49976 6.13272 8.49976 6.00004C8.49976 5.86736 8.55247 5.74011 8.64629 5.64629C8.74011 5.55247 8.86736 5.49976 9.00004 5.49976C9.13272 5.49976 9.25997 5.55247 9.35379 5.64629L10.8538 7.14629C10.9003 7.19273 10.9372 7.24787 10.9623 7.30857C10.9875 7.36927 11.0004 7.43433 11.0004 7.50004C11.0004 7.56575 10.9875 7.63081 10.9623 7.69151C10.9372 7.75221 10.9003 7.80735 10.8538 7.85379Z" fill="black"/>
</g>
<defs>
<clipPath id="clip0_5_239">
<rect width="16" height="16" fill="white"/>
</clipPath>
</defs>
</svg>
