<svg width="16" height="16" viewBox="0 0 16 16" fill="none" xmlns="http://www.w3.org/2000/svg">
<g clip-path="url(#clip0_5_861)">
<path d="M13.5 9H12.5V5H13.5C13.6326 5 13.7598 4.94732 13.8536 4.85355C13.9473 4.75979 14 4.63261 14 4.5C14 4.36739 13.9473 4.24021 13.8536 4.14645C13.7598 4.05268 13.6326 4 13.5 4H12.5V2.5C12.5 2.23478 12.3946 1.98043 12.2071 1.79289C12.0196 1.60536 11.7652 1.5 11.5 1.5H4.5C4.23478 1.5 3.98043 1.60536 3.79289 1.79289C3.60536 1.98043 3.5 2.23478 3.5 2.5V4H2.5C2.36739 4 2.24021 4.05268 2.14645 4.14645C2.05268 4.24021 2 4.36739 2 4.5C2 4.63261 2.05268 4.75979 2.14645 4.85355C2.24021 4.94732 2.36739 5 2.5 5H3.5V9H2.5C2.36739 9 2.24021 9.05268 2.14645 9.14645C2.05268 9.24021 2 9.36739 2 9.5C2 9.63261 2.05268 9.75979 2.14645 9.85355C2.24021 9.94732 2.36739 10 2.5 10H3.5V13.5C3.5 13.7652 3.60536 14.0196 3.79289 14.2071C3.98043 14.3946 4.23478 14.5 4.5 14.5H11.5C11.7652 14.5 12.0196 14.3946 12.2071 14.2071C12.3946 14.0196 12.5 13.7652 12.5 13.5V10H13.5C13.6326 10 13.7598 9.94732 13.8536 9.85355C13.9473 9.75979 14 9.63261 14 9.5C14 9.36739 13.9473 9.24021 13.8536 9.14645C13.7598 9.05268 13.6326 9 13.5 9ZM8 7.25C7.65388 7.25 7.31554 7.14736 7.02775 6.95507C6.73997 6.76278 6.51566 6.48947 6.38321 6.1697C6.25076 5.84993 6.2161 5.49806 6.28363 5.15859C6.35115 4.81912 6.51782 4.50731 6.76256 4.26256C7.00731 4.01782 7.31913 3.85115 7.65859 3.78363C7.99806 3.7161 8.34993 3.75076 8.6697 3.88321C8.98947 4.01566 9.26278 4.23997 9.45507 4.52775C9.64736 4.81554 9.75 5.15388 9.75 5.5C9.75 5.96413 9.56563 6.40925 9.23744 6.73744C8.90925 7.06563 8.46413 7.25 8 7.25ZM8 8.75C8.34612 8.75 8.68446 8.85264 8.97225 9.04493C9.26003 9.23722 9.48434 9.51053 9.61679 9.8303C9.74924 10.1501 9.7839 10.5019 9.71637 10.8414C9.64885 11.1809 9.48218 11.4927 9.23744 11.7374C8.9927 11.9822 8.68087 12.1489 8.34141 12.2164C8.00194 12.2839 7.65007 12.2492 7.3303 12.1168C7.01053 11.9843 6.73722 11.76 6.54493 11.4722C6.35264 11.1845 6.25 10.8461 6.25 10.5C6.25 10.0359 6.43437 9.59075 6.76256 9.26256C7.09075 8.93437 7.53587 8.75 8 8.75Z" fill="black"/>
</g>
<defs>
<clipPath id="clip0_5_861">
<rect width="16" height="16" fill="white"/>
</clipPath>
</defs>
</svg>
