<svg width="16" height="16" viewBox="0 0 16 16" fill="none" xmlns="http://www.w3.org/2000/svg">
<g clip-path="url(#clip0_5_238)">
<path d="M10.5001 5.5C10.5001 5.63261 10.4474 5.75979 10.3537 5.85355C10.2599 5.94732 10.1327 6 10.0001 6H6.0001C5.86749 6 5.74031 5.94732 5.64655 5.85355C5.55278 5.75979 5.5001 5.63261 5.5001 5.5C5.5001 5.36739 5.55278 5.24021 5.64655 5.14645C5.74031 5.05268 5.86749 5 6.0001 5H10.0001C10.1327 5 10.2599 5.05268 10.3537 5.14645C10.4474 5.24021 10.5001 5.36739 10.5001 5.5ZM13.9826 7.63125L12.5832 12.7631C12.5255 12.9748 12.3997 13.1616 12.2254 13.2948C12.051 13.4279 11.8376 13.5001 11.6182 13.5H11.0001L11.9001 14.7C11.9395 14.7525 11.9682 14.8123 11.9845 14.8759C12.0008 14.9395 12.0044 15.0057 11.9951 15.0707C11.9858 15.1357 11.9638 15.1982 11.9303 15.2547C11.8969 15.3112 11.8526 15.3606 11.8001 15.4C11.7476 15.4394 11.6878 15.4681 11.6242 15.4844C11.5606 15.5007 11.4944 15.5043 11.4294 15.495C11.3644 15.4857 11.3019 15.4637 11.2454 15.4302C11.1889 15.3968 11.1395 15.3525 11.1001 15.3L9.7501 13.5H6.2501L4.9001 15.3C4.8607 15.3525 4.81134 15.3968 4.75485 15.4302C4.69835 15.4637 4.63581 15.4857 4.57081 15.495C4.50581 15.5043 4.43961 15.5007 4.37601 15.4844C4.3124 15.4681 4.25263 15.4394 4.2001 15.4C4.14757 15.3606 4.10332 15.3112 4.06986 15.2547C4.03641 15.1982 4.01441 15.1357 4.00512 15.0707C3.99584 15.0057 3.99945 14.9395 4.01574 14.8759C4.03204 14.8123 4.0607 14.7525 4.1001 14.7L5.0001 13.5H4.38197C4.16256 13.5001 3.94922 13.4279 3.77484 13.2948C3.60046 13.1616 3.47471 12.9748 3.41697 12.7631L2.0176 7.63125C1.99446 7.54528 1.99446 7.45472 2.0176 7.36875L3.41697 2.23688C3.47471 2.0252 3.60046 1.83838 3.77484 1.70522C3.94922 1.57206 4.16256 1.49995 4.38197 1.5H11.6182C11.8376 1.49995 12.051 1.57206 12.2254 1.70522C12.3997 1.83838 12.5255 2.0252 12.5832 2.23688L13.9826 7.36875C14.0057 7.45472 14.0057 7.54528 13.9826 7.63125ZM8.5001 9.5C8.5001 9.36739 8.44742 9.24021 8.35365 9.14645C8.25988 9.05268 8.13271 9 8.0001 9C7.86749 9 7.74031 9.05268 7.64654 9.14645C7.55278 9.24021 7.5001 9.36739 7.5001 9.5V12C7.5001 12.1326 7.55278 12.2598 7.64654 12.3536C7.74031 12.4473 7.86749 12.5 8.0001 12.5C8.13271 12.5 8.25988 12.4473 8.35365 12.3536C8.44742 12.2598 8.5001 12.1326 8.5001 12V9.5ZM12.8751 7.10563L11.6182 2.5H4.38197L3.1251 7.10563L8.0001 7.99188L12.8751 7.10563Z" fill="black"/>
</g>
<defs>
<clipPath id="clip0_5_238">
<rect width="16" height="16" fill="white"/>
</clipPath>
</defs>
</svg>
