<svg width="16" height="16" viewBox="0 0 16 16" fill="none" xmlns="http://www.w3.org/2000/svg">
<g clip-path="url(#clip0_5_495)">
<path d="M11.5 1.5H4.5C3.96957 1.5 3.46086 1.71071 3.08579 2.08579C2.71071 2.46086 2.5 2.96957 2.5 3.5V11.5C2.5 12.0304 2.71071 12.5391 3.08579 12.9142C3.46086 13.2893 3.96957 13.5 4.5 13.5H5L4.1 14.7C4.0606 14.7525 4.03194 14.8123 4.01564 14.8759C3.99935 14.9395 3.99574 15.0057 4.00503 15.0707C4.01431 15.1357 4.03631 15.1982 4.06976 15.2547C4.10322 15.3112 4.14747 15.3606 4.2 15.4C4.25253 15.4394 4.3123 15.4681 4.37591 15.4844C4.43952 15.5007 4.50571 15.5043 4.57071 15.495C4.63571 15.4857 4.69825 15.4637 4.75475 15.4302C4.81125 15.3968 4.8606 15.3525 4.9 15.3L6.25 13.5H9.75L11.1 15.3C11.1796 15.4061 11.298 15.4762 11.4293 15.495C11.5606 15.5137 11.6939 15.4796 11.8 15.4C11.9061 15.3204 11.9762 15.202 11.995 15.0707C12.0137 14.9394 11.9796 14.8061 11.9 14.7L11 13.5H11.5C12.0304 13.5 12.5391 13.2893 12.9142 12.9142C13.2893 12.5391 13.5 12.0304 13.5 11.5V3.5C13.5 2.96957 13.2893 2.46086 12.9142 2.08579C12.5391 1.71071 12.0304 1.5 11.5 1.5ZM5.25 11.5C5.10166 11.5 4.95666 11.456 4.83332 11.3736C4.70999 11.2912 4.61386 11.1741 4.55709 11.037C4.50032 10.9 4.48547 10.7492 4.51441 10.6037C4.54335 10.4582 4.61478 10.3246 4.71967 10.2197C4.82456 10.1148 4.9582 10.0434 5.10368 10.0144C5.24917 9.98547 5.39997 10.0003 5.53701 10.0571C5.67406 10.1139 5.79119 10.21 5.8736 10.3333C5.95601 10.4567 6 10.6017 6 10.75C6 10.9489 5.92098 11.1397 5.78033 11.2803C5.63968 11.421 5.44891 11.5 5.25 11.5ZM7.5 7.5H3.5V5H7.5V7.5ZM10.75 11.5C10.6017 11.5 10.4567 11.456 10.3333 11.3736C10.21 11.2912 10.1139 11.1741 10.0571 11.037C10.0003 10.9 9.98547 10.7492 10.0144 10.6037C10.0433 10.4582 10.1148 10.3246 10.2197 10.2197C10.3246 10.1148 10.4582 10.0434 10.6037 10.0144C10.7492 9.98547 10.9 10.0003 11.037 10.0571C11.1741 10.1139 11.2912 10.21 11.3736 10.3333C11.456 10.4567 11.5 10.6017 11.5 10.75C11.5 10.9489 11.421 11.1397 11.2803 11.2803C11.1397 11.421 10.9489 11.5 10.75 11.5ZM12.5 7.5H8.5V5H12.5V7.5Z" fill="black"/>
</g>
<defs>
<clipPath id="clip0_5_495">
<rect width="16" height="16" fill="white"/>
</clipPath>
</defs>
</svg>
