<svg width="16" height="16" viewBox="0 0 16 16" fill="none" xmlns="http://www.w3.org/2000/svg">
<g clip-path="url(#clip0_5_487)">
<path d="M10 8.11812L10.9412 10H9.05875L9.45625 9.20625L10 8.11812ZM14 3V13C14 13.2652 13.8946 13.5196 13.7071 13.7071C13.5196 13.8946 13.2652 14 13 14H3C2.73478 14 2.48043 13.8946 2.29289 13.7071C2.10536 13.5196 2 13.2652 2 13V3C2 2.73478 2.10536 2.48043 2.29289 2.29289C2.48043 2.10536 2.73478 2 3 2H13C13.2652 2 13.5196 2.10536 13.7071 2.29289C13.8946 2.48043 14 2.73478 14 3ZM12.9475 11.7762L10.4475 6.77625C10.406 6.69305 10.3422 6.62305 10.2631 6.57413C10.1841 6.5252 10.093 6.49928 10 6.49928C9.90703 6.49928 9.81591 6.5252 9.73686 6.57413C9.65781 6.62305 9.59397 6.69305 9.5525 6.77625L8.72875 8.425C8.19887 8.32122 7.69635 8.10838 7.25313 7.8C7.94396 7.01789 8.3714 6.03837 8.475 5H9.5C9.63261 5 9.75979 4.94732 9.85355 4.85355C9.94732 4.75979 10 4.63261 10 4.5C10 4.36739 9.94732 4.24021 9.85355 4.14645C9.75979 4.05268 9.63261 4 9.5 4H7V3.5C7 3.36739 6.94732 3.24021 6.85355 3.14645C6.75979 3.05268 6.63261 3 6.5 3C6.36739 3 6.24021 3.05268 6.14645 3.14645C6.05268 3.24021 6 3.36739 6 3.5V4H3.5C3.36739 4 3.24021 4.05268 3.14645 4.14645C3.05268 4.24021 3 4.36739 3 4.5C3 4.63261 3.05268 4.75979 3.14645 4.85355C3.24021 4.94732 3.36739 5 3.5 5H7.4675C7.36831 5.78892 7.03527 6.5301 6.51125 7.12813C6.28925 6.86897 6.10031 6.58324 5.94875 6.2775C5.88734 6.16299 5.78376 6.07688 5.65996 6.03742C5.53616 5.99795 5.40186 6.00824 5.28551 6.06609C5.16915 6.12394 5.07989 6.22481 5.03663 6.34734C4.99337 6.46987 4.99951 6.60442 5.05375 6.7225C5.24512 7.1084 5.48452 7.46854 5.76625 7.79437C5.10029 8.25482 4.30964 8.501 3.5 8.5C3.36739 8.5 3.24021 8.55268 3.14645 8.64645C3.05268 8.74021 3 8.86739 3 9C3 9.13261 3.05268 9.25979 3.14645 9.35355C3.24021 9.44732 3.36739 9.5 3.5 9.5C4.58546 9.50115 5.64148 9.1471 6.50688 8.49187C7.03051 8.89211 7.62956 9.1825 8.26812 9.34562L7.0525 11.7762C6.99316 11.8949 6.98339 12.0323 7.02535 12.1582C7.06732 12.2841 7.15757 12.3882 7.27625 12.4475C7.39493 12.5068 7.53233 12.5166 7.65822 12.4746C7.7841 12.4327 7.88816 12.3424 7.9475 12.2238L8.55875 11H11.4412L12.0525 12.2238C12.0819 12.2825 12.1226 12.3349 12.1722 12.378C12.2218 12.421 12.2795 12.4539 12.3418 12.4746C12.4041 12.4954 12.4699 12.5037 12.5355 12.4991C12.601 12.4944 12.665 12.4769 12.7238 12.4475C12.7825 12.4181 12.8349 12.3774 12.878 12.3278C12.921 12.2782 12.9539 12.2205 12.9746 12.1582C12.9954 12.0959 13.0037 12.0301 12.9991 11.9645C12.9944 11.899 12.9769 11.835 12.9475 11.7762Z" fill="black"/>
</g>
<defs>
<clipPath id="clip0_5_487">
<rect width="16" height="16" fill="white"/>
</clipPath>
</defs>
</svg>
