<svg width="16" height="16" viewBox="0 0 16 16" fill="none" xmlns="http://www.w3.org/2000/svg">
<g clip-path="url(#clip0_5_480)">
<path d="M13 2H3C2.73478 2 2.48043 2.10536 2.29289 2.29289C2.10536 2.48043 2 2.73478 2 3V13C2 13.2652 2.10536 13.5196 2.29289 13.7071C2.48043 13.8946 2.73478 14 3 14H13C13.2652 14 13.5196 13.8946 13.7071 13.7071C13.8946 13.5196 14 13.2652 14 13V3C14 2.73478 13.8946 2.48043 13.7071 2.29289C13.5196 2.10536 13.2652 2 13 2ZM5.64625 6.14625L7.64625 4.14625C7.69269 4.09976 7.74783 4.06288 7.80853 4.03772C7.86923 4.01256 7.93429 3.99961 8 3.99961C8.06571 3.99961 8.13077 4.01256 8.19147 4.03772C8.25217 4.06288 8.30731 4.09976 8.35375 4.14625L10.3538 6.14625C10.4002 6.1927 10.4371 6.24786 10.4622 6.30855C10.4873 6.36925 10.5003 6.4343 10.5003 6.5C10.5003 6.5657 10.4873 6.63075 10.4622 6.69145C10.4371 6.75214 10.4002 6.8073 10.3538 6.85375C10.3073 6.90021 10.2521 6.93706 10.1914 6.9622C10.1308 6.98734 10.0657 7.00028 10 7.00028C9.9343 7.00028 9.86925 6.98734 9.80855 6.9622C9.74786 6.93706 9.6927 6.90021 9.64625 6.85375L8.5 5.70687V9.5C8.5 9.63261 8.44732 9.75979 8.35355 9.85355C8.25979 9.94732 8.13261 10 8 10C7.86739 10 7.74021 9.94732 7.64645 9.85355C7.55268 9.75979 7.5 9.63261 7.5 9.5V5.70687L6.35375 6.85375C6.25993 6.94757 6.13268 7.00028 6 7.00028C5.86732 7.00028 5.74007 6.94757 5.64625 6.85375C5.55243 6.75993 5.49972 6.63268 5.49972 6.5C5.49972 6.36732 5.55243 6.24007 5.64625 6.14625ZM13 13H3V10.5H4.79313L6 11.7069C6.09252 11.8001 6.20266 11.8741 6.32401 11.9244C6.44536 11.9747 6.5755 12.0004 6.70687 12H9.29313C9.4245 12.0004 9.55464 11.9747 9.67599 11.9244C9.79734 11.8741 9.90748 11.8001 10 11.7069L11.2069 10.5H13V13Z" fill="black"/>
</g>
<defs>
<clipPath id="clip0_5_480">
<rect width="16" height="16" fill="white"/>
</clipPath>
</defs>
</svg>
