<svg width="16" height="16" viewBox="0 0 16 16" fill="none" xmlns="http://www.w3.org/2000/svg">
<g clip-path="url(#clip0_5_236)">
<path d="M13 2H3C2.73478 2 2.48043 2.10536 2.29289 2.29289C2.10536 2.48043 2 2.73478 2 3V13C2 13.2652 2.10536 13.5196 2.29289 13.7071C2.48043 13.8946 2.73478 14 3 14H13C13.2652 14 13.5196 13.8946 13.7071 13.7071C13.8946 13.5196 14 13.2652 14 13V3C14 2.73478 13.8946 2.48043 13.7071 2.29289C13.5196 2.10536 13.2652 2 13 2ZM13 13H3V10.5H4.79313L6 11.7075C6.09264 11.8006 6.20281 11.8743 6.32414 11.9245C6.44548 11.9748 6.57556 12.0004 6.70687 12H9.29313C9.4245 12.0004 9.55464 11.9747 9.67599 11.9244C9.79734 11.8741 9.90748 11.8001 10 11.7069L11.2069 10.5H13V13Z" fill="black"/>
</g>
<defs>
<clipPath id="clip0_5_236">
<rect width="16" height="16" fill="white"/>
</clipPath>
</defs>
</svg>
