<svg width="16" height="16" viewBox="0 0 16 16" fill="none" xmlns="http://www.w3.org/2000/svg">
<g clip-path="url(#clip0_5_477)">
<path d="M15 7.75V12C15 12.2652 14.8946 12.5196 14.7071 12.7071C14.5196 12.8946 14.2652 13 14 13H2C1.73478 13 1.48043 12.8946 1.29289 12.7071C1.10536 12.5196 1 12.2652 1 12V7.75C1 7.6837 1.02634 7.62011 1.07322 7.57322C1.12011 7.52634 1.1837 7.5 1.25 7.5H3.5V11.5C3.49985 11.5685 3.51379 11.6364 3.54097 11.6993C3.56814 11.7622 3.60796 11.8189 3.65796 11.8658C3.70795 11.9127 3.76706 11.9488 3.8316 11.9719C3.89614 11.995 3.96473 12.0045 4.03312 12C4.16192 11.9889 4.28172 11.9294 4.36837 11.8335C4.45502 11.7376 4.50206 11.6124 4.5 11.4831V7.5H7V8.75C7 8.8163 7.02634 8.87989 7.07322 8.92678C7.12011 8.97366 7.1837 9 7.25 9H8.75C8.8163 9 8.87989 8.97366 8.92678 8.92678C8.97366 8.87989 9 8.8163 9 8.75V7.5H11.5V11.5C11.4998 11.5685 11.5138 11.6364 11.541 11.6993C11.5681 11.7622 11.608 11.8189 11.658 11.8658C11.708 11.9127 11.7671 11.9488 11.8316 11.9719C11.8961 11.995 11.9647 12.0045 12.0331 12C12.1617 11.989 12.2813 11.9296 12.3679 11.834C12.4546 11.7383 12.5017 11.6134 12.5 11.4844V7.5H14.75C14.8163 7.5 14.8799 7.52634 14.9268 7.57322C14.9737 7.62011 15 7.6837 15 7.75ZM11.5 2.5H4.5C3.57174 2.5 2.6815 2.86875 2.02513 3.52513C1.36875 4.1815 1 5.07174 1 6V6.25C1 6.3163 1.02634 6.37989 1.07322 6.42678C1.12011 6.47366 1.1837 6.5 1.25 6.5H3.5V4.01687C3.49794 3.88763 3.54498 3.76241 3.63163 3.66648C3.71828 3.57055 3.83808 3.51106 3.96688 3.5C4.03527 3.49546 4.10386 3.50503 4.1684 3.52811C4.23294 3.5512 4.29205 3.58731 4.34204 3.6342C4.39204 3.68109 4.43186 3.73776 4.45903 3.80069C4.48621 3.86361 4.50015 3.93146 4.5 4V6.5H7V5.75C7 5.6837 7.02634 5.62011 7.07322 5.57322C7.12011 5.52634 7.1837 5.5 7.25 5.5H8.75C8.8163 5.5 8.87989 5.52634 8.92678 5.57322C8.97366 5.62011 9 5.6837 9 5.75V6.5H11.5V4.01687C11.4979 3.88763 11.545 3.76241 11.6316 3.66648C11.7183 3.57055 11.8381 3.51106 11.9669 3.5C12.0353 3.49546 12.1039 3.50503 12.1684 3.52811C12.2329 3.5512 12.292 3.58731 12.342 3.6342C12.392 3.68109 12.4319 3.73776 12.459 3.80069C12.4862 3.86361 12.5002 3.93146 12.5 4V6.5H14.75C14.8163 6.5 14.8799 6.47366 14.9268 6.42678C14.9737 6.37989 15 6.3163 15 6.25V6C15 5.07174 14.6313 4.1815 13.9749 3.52513C13.3185 2.86875 12.4283 2.5 11.5 2.5Z" fill="black"/>
</g>
<defs>
<clipPath id="clip0_5_477">
<rect width="16" height="16" fill="white"/>
</clipPath>
</defs>
</svg>
