<svg width="16" height="16" viewBox="0 0 16 16" fill="none" xmlns="http://www.w3.org/2000/svg">
<g clip-path="url(#clip0_5_473)">
<path d="M8.00001 11.7406C8.16037 11.8474 8.32737 11.9438 8.50001 12.0293V14.5C8.50001 14.6326 8.44734 14.7598 8.35357 14.8535C8.2598 14.9473 8.13262 15 8.00001 15C7.86741 15 7.74023 14.9473 7.64646 14.8535C7.55269 14.7598 7.50001 14.6326 7.50001 14.5V12.0293C7.67266 11.9438 7.83966 11.8474 8.00001 11.7406ZM12.3813 3.91185C12.0196 3.04825 11.4107 2.31081 10.6312 1.79217C9.8517 1.27353 8.9363 0.996826 8.00001 0.996826C7.06373 0.996826 6.14833 1.27353 5.36882 1.79217C4.58931 2.31081 3.98046 3.04825 3.61876 3.91185C2.83764 4.26887 2.17555 4.84281 1.71129 5.56536C1.24702 6.2879 1.00014 7.12863 1.00001 7.98747C0.993765 10.375 3.00001 12.4375 5.38376 12.5C6.11694 12.5173 6.84331 12.3558 7.50001 12.0293V9.80872L4.77626 8.44747C4.65758 8.38813 4.56733 8.28407 4.52537 8.15819C4.48341 8.0323 4.49317 7.89491 4.55251 7.77622C4.61186 7.65754 4.71592 7.56729 4.8418 7.52533C4.96768 7.48337 5.10508 7.49313 5.22376 7.55247L7.50001 8.69122V5.49997C7.50001 5.36736 7.55269 5.24019 7.64646 5.14642C7.74023 5.05265 7.86741 4.99997 8.00001 4.99997C8.13262 4.99997 8.2598 5.05265 8.35357 5.14642C8.44734 5.24019 8.50001 5.36736 8.50001 5.49997V7.19122L10.7763 6.05247C10.835 6.02309 10.899 6.00557 10.9645 6.00091C11.0301 5.99625 11.0959 6.00455 11.1582 6.02533C11.2206 6.0461 11.2782 6.07895 11.3278 6.122C11.3775 6.16505 11.4181 6.21746 11.4475 6.27622C11.4769 6.33499 11.4944 6.39897 11.4991 6.4645C11.5037 6.53004 11.4954 6.59586 11.4747 6.65819C11.4539 6.72052 11.421 6.77815 11.378 6.82778C11.3349 6.87742 11.2825 6.91809 11.2238 6.94747L8.50001 8.30872V12.0293C9.1216 12.338 9.80602 12.499 10.5 12.5H10.6138C13 12.4375 15.0069 10.375 15 7.98747C14.9999 7.12863 14.753 6.2879 14.2887 5.56536C13.8245 4.84281 13.1624 4.26887 12.3813 3.91185Z" fill="black"/>
</g>
<defs>
<clipPath id="clip0_5_473">
<rect width="16" height="16" fill="white"/>
</clipPath>
</defs>
</svg>
