<svg width="16" height="16" viewBox="0 0 16 16" fill="none" xmlns="http://www.w3.org/2000/svg">
<g clip-path="url(#clip0_5_475)">
<path d="M14.4495 12.2193C14.4084 12.3035 14.3445 12.3744 14.265 12.424C14.1856 12.4737 14.0938 12.5 14.0001 12.4999H8.50011V14.9999C8.50011 15.1326 8.44744 15.2597 8.35367 15.3535C8.2599 15.4473 8.13272 15.4999 8.00011 15.4999C7.86751 15.4999 7.74033 15.4473 7.64656 15.3535C7.55279 15.2597 7.50011 15.1326 7.50011 14.9999V12.4999H2.00011C1.90655 12.4999 1.81489 12.4736 1.73555 12.424C1.6562 12.3744 1.59236 12.3036 1.55128 12.2195C1.51019 12.1354 1.49352 12.0416 1.50314 11.9485C1.51277 11.8554 1.54832 11.7669 1.60574 11.6931L4.48074 7.99994H3.00011C2.90672 7.99995 2.81519 7.9738 2.7359 7.92446C2.6566 7.87512 2.59271 7.80455 2.55147 7.72076C2.51022 7.63697 2.49327 7.5433 2.50253 7.45036C2.51179 7.35743 2.54689 7.26895 2.60386 7.19494L7.60386 0.694942C7.65057 0.634256 7.71058 0.585107 7.77928 0.551287C7.84799 0.517466 7.92354 0.499878 8.00011 0.499878C8.07669 0.499878 8.15224 0.517466 8.22094 0.551287C8.28965 0.585107 8.34966 0.634256 8.39636 0.694942L13.3964 7.19494C13.4533 7.26895 13.4884 7.35743 13.4977 7.45036C13.507 7.5433 13.49 7.63697 13.4488 7.72076C13.4075 7.80455 13.3436 7.87512 13.2643 7.92446C13.185 7.9738 13.0935 7.99995 13.0001 7.99994H11.5226L14.3945 11.6931C14.452 11.7669 14.4876 11.8553 14.4973 11.9483C14.507 12.0413 14.4905 12.1352 14.4495 12.2193Z" fill="black"/>
</g>
<defs>
<clipPath id="clip0_5_475">
<rect width="16" height="16" fill="white"/>
</clipPath>
</defs>
</svg>
