<svg width="16" height="16" viewBox="0 0 16 16" fill="none" xmlns="http://www.w3.org/2000/svg">
<g clip-path="url(#clip0_5_235)">
<path d="M14.99 3.77058C14.974 3.84945 14.9392 3.9233 14.8887 3.98586C14.8381 4.04843 14.7731 4.09786 14.6993 4.12996L11.1875 5.65933C12.3301 5.96484 13.3048 6.71136 13.8975 7.73496C14.1948 8.24235 14.3878 8.80404 14.465 9.38705C14.5423 9.97005 14.5023 10.5626 14.3475 11.13C14.326 11.209 14.2855 11.2816 14.2295 11.3413C14.1735 11.4011 14.1036 11.4461 14.0261 11.4725C13.9486 11.4989 13.8658 11.5059 13.7849 11.4928C13.7041 11.4797 13.6277 11.447 13.5625 11.3975L8.49995 7.54246V14C8.49995 14.1326 8.44727 14.2597 8.3535 14.3535C8.25974 14.4473 8.13256 14.5 7.99995 14.5C7.86734 14.5 7.74017 14.4473 7.6464 14.3535C7.55263 14.2597 7.49995 14.1326 7.49995 14V7.54246L2.43745 11.3975C2.37222 11.4471 2.29577 11.48 2.21485 11.4932C2.13392 11.5063 2.051 11.4994 1.97339 11.473C1.89577 11.4465 1.82585 11.4014 1.76977 11.3416C1.7137 11.2818 1.67319 11.2091 1.65183 11.13C1.49694 10.5626 1.45696 9.97005 1.53423 9.38705C1.61151 8.80404 1.80448 8.24235 2.10183 7.73496C2.69463 6.71123 3.66957 5.96469 4.81245 5.65933L1.30058 4.12996C1.22685 4.09784 1.16196 4.04842 1.1114 3.98588C1.06085 3.92334 1.02612 3.84953 1.01018 3.77071C0.994227 3.69189 0.997526 3.61039 1.01979 3.53312C1.04206 3.45584 1.08263 3.38508 1.13808 3.32683C1.52904 2.90809 2.00193 2.57422 2.52737 2.34595C3.0528 2.11767 3.61957 1.99988 4.19245 1.99988C4.76533 1.99988 5.3321 2.11767 5.85753 2.34595C6.38297 2.57422 6.85586 2.90809 7.24683 3.32683C7.54681 3.64293 7.79943 4.00081 7.99683 4.38933C8.19518 4.00062 8.44886 3.64272 8.74995 3.32683C9.14091 2.90809 9.6138 2.57422 10.1392 2.34595C10.6647 2.11767 11.2314 1.99988 11.8043 1.99988C12.3772 1.99988 12.944 2.11767 13.4694 2.34595C13.9948 2.57422 14.4677 2.90809 14.8587 3.32683C14.9147 3.38475 14.9559 3.45535 14.9788 3.53261C15.0016 3.60987 15.0054 3.69151 14.99 3.77058Z" fill="black"/>
</g>
<defs>
<clipPath id="clip0_5_235">
<rect width="16" height="16" fill="white"/>
</clipPath>
</defs>
</svg>
