<svg width="16" height="16" viewBox="0 0 16 16" fill="none" xmlns="http://www.w3.org/2000/svg">
<g clip-path="url(#clip0_5_466)">
<path d="M15 8.00003V12C15 12.1326 14.9474 12.2598 14.8536 12.3536C14.7598 12.4474 14.6326 12.5 14.5 12.5H10.5C10.4011 12.5001 10.3043 12.4708 10.222 12.4159C10.1397 12.361 10.0756 12.2828 10.0377 12.1914C9.99985 12.1 9.98994 11.9994 10.0093 11.9024C10.0286 11.8053 10.0763 11.7162 10.1463 11.6463L11.7932 10L8.50003 6.70691L6.35378 8.85378C6.30735 8.90027 6.2522 8.93715 6.1915 8.96231C6.13081 8.98748 6.06574 9.00043 6.00003 9.00043C5.93433 9.00043 5.86926 8.98748 5.80856 8.96231C5.74786 8.93715 5.69272 8.90027 5.64628 8.85378L1.14628 4.35378C1.05246 4.25996 0.999756 4.13272 0.999756 4.00003C0.999756 3.86735 1.05246 3.7401 1.14628 3.64628C1.2401 3.55246 1.36735 3.49976 1.50003 3.49976C1.63272 3.49976 1.75996 3.55246 1.85378 3.64628L6.00003 7.79316L8.14628 5.64628C8.19272 5.5998 8.24786 5.56292 8.30856 5.53775C8.36926 5.51259 8.43433 5.49964 8.50003 5.49964C8.56574 5.49964 8.63081 5.51259 8.6915 5.53775C8.7522 5.56292 8.80735 5.5998 8.85378 5.64628L12.5 9.29316L14.1463 7.64628C14.2162 7.57628 14.3053 7.52859 14.4024 7.50927C14.4994 7.48994 14.6 7.49985 14.6914 7.53772C14.7828 7.5756 14.861 7.63975 14.9159 7.72204C14.9708 7.80434 15.0001 7.90109 15 8.00003Z" fill="black"/>
</g>
<defs>
<clipPath id="clip0_5_466">
<rect width="16" height="16" fill="white"/>
</clipPath>
</defs>
</svg>
