<svg width="16" height="16" viewBox="0 0 16 16" fill="none" xmlns="http://www.w3.org/2000/svg">
<g clip-path="url(#clip0_5_234)">
<path d="M15 3.5V7.5C15.0001 7.59895 14.9708 7.69569 14.9159 7.77799C14.861 7.86029 14.7828 7.92444 14.6914 7.96231C14.6 8.00019 14.4994 8.01009 14.4024 7.99076C14.3053 7.97144 14.2162 7.92376 14.1463 7.85375L12.5 6.20688L8.85378 9.85375C8.80735 9.90024 8.7522 9.93712 8.6915 9.96228C8.63081 9.98744 8.56574 10.0004 8.50003 10.0004C8.43433 10.0004 8.36926 9.98744 8.30856 9.96228C8.24786 9.93712 8.19272 9.90024 8.14628 9.85375L6.00003 7.70687L1.85378 11.8538C1.75996 11.9476 1.63272 12.0003 1.50003 12.0003C1.36735 12.0003 1.2401 11.9476 1.14628 11.8538C1.05246 11.7599 0.999756 11.6327 0.999756 11.5C0.999756 11.3673 1.05246 11.2401 1.14628 11.1462L5.64628 6.64625C5.69272 6.59976 5.74786 6.56288 5.80856 6.53772C5.86926 6.51256 5.93433 6.49961 6.00003 6.49961C6.06574 6.49961 6.13081 6.51256 6.1915 6.53772C6.2522 6.56288 6.30735 6.59976 6.35378 6.64625L8.50003 8.79313L11.7932 5.5L10.1463 3.85375C10.0763 3.78382 10.0286 3.6947 10.0093 3.59765C9.98994 3.50061 9.99985 3.40002 10.0377 3.30861C10.0756 3.21719 10.1397 3.13908 10.222 3.08414C10.3043 3.0292 10.4011 2.99992 10.5 3H14.5C14.6326 3 14.7598 3.05268 14.8536 3.14645C14.9474 3.24022 15 3.36739 15 3.5Z" fill="black"/>
</g>
<defs>
<clipPath id="clip0_5_234">
<rect width="16" height="16" fill="white"/>
</clipPath>
</defs>
</svg>
