<svg width="16" height="16" viewBox="0 0 16 16" fill="none" xmlns="http://www.w3.org/2000/svg">
<g clip-path="url(#clip0_5_463)">
<path d="M14.8002 11.7557L9.33456 2.26379C9.19798 2.03124 9.00299 1.83843 8.76894 1.70445C8.53488 1.57048 8.26987 1.5 8.00018 1.5C7.73049 1.5 7.46549 1.57048 7.23143 1.70445C6.99737 1.83843 6.80239 2.03124 6.66581 2.26379L1.20018 11.7557C1.06877 11.9806 0.999512 12.2364 0.999512 12.4969C0.999512 12.7574 1.06877 13.0132 1.20018 13.2382C1.33496 13.4722 1.5296 13.6661 1.76411 13.8C1.99861 13.9339 2.26453 14.0029 2.53456 14H13.4658C13.7356 14.0027 14.0013 13.9335 14.2355 13.7996C14.4698 13.6658 14.6643 13.472 14.7989 13.2382C14.9305 13.0134 15 12.7576 15.0002 12.4971C15.0004 12.2366 14.9314 11.9807 14.8002 11.7557ZM6.75018 12.5H3.79956C3.66792 12.5 3.5386 12.4653 3.42461 12.3995C3.31061 12.3337 3.21596 12.239 3.15015 12.125C3.08434 12.011 3.04969 11.8816 3.0497 11.75C3.04971 11.6184 3.08436 11.489 3.15018 11.375L4.66143 8.75004C4.72774 8.63509 4.83699 8.55118 4.96516 8.51678C5.09333 8.48238 5.22991 8.5003 5.34487 8.5666C5.45982 8.63291 5.54373 8.74216 5.57813 8.87033C5.61253 8.9985 5.59461 9.13509 5.52831 9.25004L4.23206 11.5H6.75018C6.88279 11.5 7.00997 11.5527 7.10374 11.6465C7.1975 11.7403 7.25018 11.8674 7.25018 12C7.25018 12.1326 7.1975 12.2598 7.10374 12.3536C7.00997 12.4474 6.88279 12.5 6.75018 12.5ZM6.68018 7.25004C6.61388 7.36508 6.50459 7.44907 6.37636 7.48353C6.24813 7.51798 6.11147 7.5001 5.99643 7.43379C5.88139 7.36749 5.79741 7.2582 5.76295 7.12997C5.72849 7.00174 5.74638 6.86508 5.81268 6.75004L7.34956 4.08129C7.41532 3.96705 7.51003 3.87216 7.62414 3.80618C7.73825 3.7402 7.86774 3.70546 7.99956 3.70546C8.13137 3.70546 8.26086 3.7402 8.37497 3.80618C8.48909 3.87216 8.5838 3.96705 8.64956 4.08129L10.1877 6.75004C10.254 6.865 10.2719 7.00158 10.2375 7.12975C10.2031 7.25792 10.1192 7.36717 10.0042 7.43348C9.88929 7.49978 9.7527 7.51771 9.62453 7.4833C9.49637 7.4489 9.38711 7.365 9.32081 7.25004L8.00018 4.95692L6.68018 7.25004ZM12.8502 12.125C12.7841 12.2388 12.6894 12.3333 12.5755 12.3991C12.4616 12.4649 12.3324 12.4997 12.2008 12.5H9.25018C9.11757 12.5 8.9904 12.4474 8.89663 12.3536C8.80286 12.2598 8.75018 12.1326 8.75018 12C8.75018 11.8674 8.80286 11.7403 8.89663 11.6465C8.9904 11.5527 9.11757 11.5 9.25018 11.5H11.7683L10.4721 9.25004C10.4058 9.13509 10.3878 8.9985 10.4222 8.87033C10.4566 8.74216 10.5405 8.63291 10.6555 8.5666C10.7704 8.5003 10.907 8.48238 11.0352 8.51678C11.1634 8.55118 11.2726 8.63509 11.3389 8.75004L12.8502 11.375C12.916 11.4891 12.9507 11.6184 12.9507 11.75C12.9507 11.8817 12.916 12.011 12.8502 12.125Z" fill="black"/>
</g>
<defs>
<clipPath id="clip0_5_463">
<rect width="16" height="16" fill="white"/>
</clipPath>
</defs>
</svg>
