<svg width="16" height="16" viewBox="0 0 16 16" fill="none" xmlns="http://www.w3.org/2000/svg">
<g clip-path="url(#clip0_5_461)">
<path d="M14.7987 13.2382C14.664 13.472 14.4695 13.6658 14.2353 13.7996C14.001 13.9335 13.7353 14.0027 13.4655 14H2.53428C2.26447 14.0027 1.99881 13.9335 1.76454 13.7996C1.53028 13.6658 1.33584 13.472 1.20116 13.2382C1.06974 13.0132 1.00049 12.7574 1.00049 12.4969C1.00049 12.2364 1.06974 11.9806 1.20116 11.7557L6.66553 2.26379C6.80211 2.03124 6.9971 1.83843 7.23115 1.70445C7.46521 1.57048 7.73022 1.5 7.99991 1.5C8.2696 1.5 8.5346 1.57048 8.76866 1.70445C9.00272 1.83843 9.1977 2.03124 9.33428 2.26379L14.7999 11.7557C14.9311 11.9807 15.0002 12.2366 15 12.4971C14.9997 12.7576 14.9303 13.0134 14.7987 13.2382Z" fill="black"/>
</g>
<defs>
<clipPath id="clip0_5_461">
<rect width="16" height="16" fill="white"/>
</clipPath>
</defs>
</svg>
