<svg width="16" height="16" viewBox="0 0 16 16" fill="none" xmlns="http://www.w3.org/2000/svg">
<g clip-path="url(#clip0_5_233)">
<path d="M5.50003 14C5.50003 14.1978 5.44138 14.3911 5.3315 14.5556C5.22162 14.72 5.06544 14.8482 4.88272 14.9239C4.69999 14.9996 4.49892 15.0194 4.30494 14.9808C4.11096 14.9422 3.93278 14.847 3.79293 14.7071C3.65307 14.5673 3.55783 14.3891 3.51925 14.1951C3.48066 14.0011 3.50047 13.8 3.57615 13.6173C3.65184 13.4346 3.78001 13.2784 3.94446 13.1685C4.10891 13.0586 4.30225 13 4.50003 13C4.76525 13 5.0196 13.1054 5.20714 13.2929C5.39468 13.4804 5.50003 13.7348 5.50003 14ZM13.5 13C13.3023 13 13.1089 13.0586 12.9445 13.1685C12.78 13.2784 12.6518 13.4346 12.5762 13.6173C12.5005 13.8 12.4807 14.0011 12.5192 14.1951C12.5578 14.3891 12.6531 14.5673 12.7929 14.7071C12.9328 14.847 13.111 14.9422 13.3049 14.9808C13.4989 15.0194 13.7 14.9996 13.8827 14.9239C14.0654 14.8482 14.2216 14.72 14.3315 14.5556C14.4414 14.3911 14.5 14.1978 14.5 14C14.5 13.7348 14.3947 13.4804 14.2071 13.2929C14.0196 13.1054 13.7653 13 13.5 13ZM15 11H3.50003V4.70687C3.50045 4.5755 3.47476 4.44536 3.42443 4.32401C3.37411 4.20266 3.30017 4.09252 3.20691 4L1.85378 2.64625C1.80733 2.59979 1.75218 2.56294 1.69148 2.5378C1.63079 2.51266 1.56573 2.49972 1.50003 2.49972C1.36735 2.49972 1.2401 2.55243 1.14628 2.64625C1.09983 2.69271 1.06298 2.74786 1.03784 2.80855C1.0127 2.86925 0.999756 2.9343 0.999756 3C0.999756 3.13268 1.05246 3.25993 1.14628 3.35375L2.50003 4.70687V11H2.00003C1.86743 11 1.74025 11.0527 1.64648 11.1464C1.55271 11.2402 1.50003 11.3674 1.50003 11.5C1.50003 11.6326 1.55271 11.7598 1.64648 11.8536C1.74025 11.9473 1.86743 12 2.00003 12H15C15.1326 12 15.2598 11.9473 15.3536 11.8536C15.4474 11.7598 15.5 11.6326 15.5 11.5C15.5 11.3674 15.4474 11.2402 15.3536 11.1464C15.2598 11.0527 15.1326 11 15 11ZM4.50003 9V4.5C4.50003 4.23478 4.60539 3.98043 4.79293 3.79289C4.98046 3.60536 5.23482 3.5 5.50003 3.5H7.50003V2.5C7.50003 2.23478 7.60539 1.98043 7.79293 1.79289C7.98046 1.60536 8.23482 1.5 8.50003 1.5H10.5C10.7653 1.5 11.0196 1.60536 11.2071 1.79289C11.3947 1.98043 11.5 2.23478 11.5 2.5V3.5H13.5C13.7653 3.5 14.0196 3.60536 14.2071 3.79289C14.3947 3.98043 14.5 4.23478 14.5 4.5V9C14.5 9.26522 14.3947 9.51957 14.2071 9.70711C14.0196 9.89464 13.7653 10 13.5 10H5.50003C5.23482 10 4.98046 9.89464 4.79293 9.70711C4.60539 9.51957 4.50003 9.26522 4.50003 9ZM8.50003 3.5H10.5V2.5H8.50003V3.5Z" fill="black"/>
</g>
<defs>
<clipPath id="clip0_5_233">
<rect width="16" height="16" fill="white"/>
</clipPath>
</defs>
</svg>
