<svg width="16" height="16" viewBox="0 0 16 16" fill="none" xmlns="http://www.w3.org/2000/svg">
<g clip-path="url(#clip0_5_459)">
<path d="M5.50003 14C5.50003 14.1978 5.44138 14.3912 5.3315 14.5556C5.22162 14.7201 5.06544 14.8482 4.88272 14.9239C4.69999 14.9996 4.49892 15.0194 4.30494 14.9808C4.11096 14.9422 3.93278 14.847 3.79293 14.7071C3.65307 14.5673 3.55783 14.3891 3.51925 14.1951C3.48066 14.0011 3.50047 13.8001 3.57615 13.6173C3.65184 13.4346 3.78001 13.2784 3.94446 13.1686C4.10891 13.0587 4.30225 13 4.50003 13C4.76525 13 5.0196 13.1054 5.20714 13.2929C5.39468 13.4805 5.50003 13.7348 5.50003 14ZM13.5 13C13.3023 13 13.1089 13.0587 12.9445 13.1686C12.78 13.2784 12.6518 13.4346 12.5762 13.6173C12.5005 13.8001 12.4807 14.0011 12.5192 14.1951C12.5578 14.3891 12.6531 14.5673 12.7929 14.7071C12.9328 14.847 13.111 14.9422 13.3049 14.9808C13.4989 15.0194 13.7 14.9996 13.8827 14.9239C14.0654 14.8482 14.2216 14.7201 14.3315 14.5556C14.4414 14.3912 14.5 14.1978 14.5 14C14.5 13.7348 14.3947 13.4805 14.2071 13.2929C14.0196 13.1054 13.7653 13 13.5 13ZM15 11H3.50003V4.70691C3.50045 4.57554 3.47476 4.4454 3.42443 4.32404C3.37411 4.20269 3.30017 4.09256 3.20691 4.00003L1.85378 2.64628C1.80733 2.59983 1.75218 2.56298 1.69148 2.53784C1.63079 2.5127 1.56573 2.49976 1.50003 2.49976C1.36735 2.49976 1.2401 2.55246 1.14628 2.64628C1.09983 2.69274 1.06298 2.74789 1.03784 2.80859C1.0127 2.86928 0.999756 2.93434 0.999756 3.00003C0.999756 3.13272 1.05246 3.25996 1.14628 3.35378L2.50003 4.70691V11H2.00003C1.86743 11 1.74025 11.0527 1.64648 11.1465C1.55271 11.2402 1.50003 11.3674 1.50003 11.5C1.50003 11.6326 1.55271 11.7598 1.64648 11.8536C1.74025 11.9474 1.86743 12 2.00003 12H15C15.1326 12 15.2598 11.9474 15.3536 11.8536C15.4474 11.7598 15.5 11.6326 15.5 11.5C15.5 11.3674 15.4474 11.2402 15.3536 11.1465C15.2598 11.0527 15.1326 11 15 11ZM5.50003 10H13.5C13.7653 10 14.0196 9.89468 14.2071 9.70714C14.3947 9.5196 14.5 9.26525 14.5 9.00003V5.00003C14.5 4.73482 14.3947 4.48046 14.2071 4.29293C14.0196 4.10539 13.7653 4.00003 13.5 4.00003H5.50003C5.23482 4.00003 4.98046 4.10539 4.79293 4.29293C4.60539 4.48046 4.50003 4.73482 4.50003 5.00003V9.00003C4.50003 9.26525 4.60539 9.5196 4.79293 9.70714C4.98046 9.89468 5.23482 10 5.50003 10Z" fill="black"/>
</g>
<defs>
<clipPath id="clip0_5_459">
<rect width="16" height="16" fill="white"/>
</clipPath>
</defs>
</svg>
