<svg width="16" height="16" viewBox="0 0 16 16" fill="none" xmlns="http://www.w3.org/2000/svg">
<g clip-path="url(#clip0_5_230)">
<path d="M14 6.05V6C13.999 5.07205 13.6299 4.18238 12.9738 3.52622C12.3176 2.87006 11.428 2.50099 10.5 2.5H10C9.73478 2.5 9.48043 2.60536 9.29289 2.79289C9.10536 2.98043 9 3.23478 9 3.5V11H8V4.5C8 4.36739 7.94732 4.24021 7.85355 4.14645C7.75979 4.05268 7.63261 4 7.5 4H1C0.734784 4 0.48043 4.10536 0.292893 4.29289C0.105357 4.48043 0 4.73478 0 5L0 11.5C0.000456649 11.9061 0.124497 12.3023 0.35563 12.6362C0.586763 12.97 0.914038 13.2256 1.29394 13.369C1.67385 13.5123 2.08839 13.5366 2.48245 13.4387C2.87651 13.3407 3.23142 13.1252 3.5 12.8206C3.74007 13.0933 4.0499 13.2955 4.39621 13.4054C4.74252 13.5153 5.11223 13.5288 5.46563 13.4445C5.81904 13.3601 6.14278 13.1811 6.4021 12.9266C6.66142 12.6721 6.84651 12.3518 6.9375 12H12.0625C12.1834 12.4722 12.4726 12.8841 12.8758 13.1581C13.279 13.4321 13.7684 13.5494 14.2519 13.488C14.7355 13.4266 15.1801 13.1907 15.502 12.8246C15.8238 12.4585 16.001 11.9875 16 11.5V8.5C15.9993 7.92389 15.8 7.36564 15.4357 6.91935C15.0714 6.47306 14.5643 6.16603 14 6.05ZM2 12.5C1.80222 12.5 1.60888 12.4414 1.44443 12.3315C1.27998 12.2216 1.15181 12.0654 1.07612 11.8827C1.00043 11.7 0.98063 11.4989 1.01921 11.3049C1.0578 11.1109 1.15304 10.9327 1.29289 10.7929C1.43275 10.653 1.61093 10.5578 1.80491 10.5192C1.99889 10.4806 2.19996 10.5004 2.38268 10.5761C2.56541 10.6518 2.72159 10.78 2.83147 10.9444C2.94135 11.1089 3 11.3022 3 11.5C3 11.7652 2.89464 12.0196 2.70711 12.2071C2.51957 12.3946 2.26522 12.5 2 12.5ZM5 12.5C4.80222 12.5 4.60888 12.4414 4.44443 12.3315C4.27998 12.2216 4.15181 12.0654 4.07612 11.8827C4.00043 11.7 3.98063 11.4989 4.01921 11.3049C4.0578 11.1109 4.15304 10.9327 4.29289 10.7929C4.43275 10.653 4.61093 10.5578 4.80491 10.5192C4.99889 10.4806 5.19996 10.5004 5.38268 10.5761C5.56541 10.6518 5.72159 10.78 5.83147 10.9444C5.94135 11.1089 6 11.3022 6 11.5C6 11.7652 5.89464 12.0196 5.70711 12.2071C5.51957 12.3946 5.26522 12.5 5 12.5ZM14 12.5C13.8022 12.5 13.6089 12.4414 13.4444 12.3315C13.28 12.2216 13.1518 12.0654 13.0761 11.8827C13.0004 11.7 12.9806 11.4989 13.0192 11.3049C13.0578 11.1109 13.153 10.9327 13.2929 10.7929C13.4327 10.653 13.6109 10.5578 13.8049 10.5192C13.9989 10.4806 14.2 10.5004 14.3827 10.5761C14.5654 10.6518 14.7216 10.78 14.8315 10.9444C14.9414 11.1089 15 11.3022 15 11.5C15 11.7652 14.8946 12.0196 14.7071 12.2071C14.5196 12.3946 14.2652 12.5 14 12.5Z" fill="black"/>
</g>
<defs>
<clipPath id="clip0_5_230">
<rect width="16" height="16" fill="white"/>
</clipPath>
</defs>
</svg>
