<svg width="16" height="16" viewBox="0 0 16 16" fill="none" xmlns="http://www.w3.org/2000/svg">
<g clip-path="url(#clip0_5_229)">
<path d="M9.5 7.5V10.5C9.5 10.6326 9.55268 10.7598 9.64645 10.8536C9.74021 10.9473 9.86739 11 10 11H12C12.1326 11 12.2598 11.0527 12.3536 11.1464C12.4473 11.2402 12.5 11.3674 12.5 11.5V14.5C12.5 14.6326 12.4473 14.7598 12.3536 14.8536C12.2598 14.9473 12.1326 15 12 15H9.5C8.43949 14.9988 7.42275 14.577 6.67285 13.8271C5.92296 13.0773 5.50116 12.0605 5.5 11V7.5H4C3.86739 7.5 3.74021 7.44732 3.64645 7.35355C3.55268 7.25979 3.5 7.13261 3.5 7V4.5C3.5 4.36739 3.55268 4.24021 3.64645 4.14645C3.74021 4.05268 3.86739 4 4 4C4.66304 4 5.29893 3.73661 5.76777 3.26777C6.23661 2.79893 6.5 2.16304 6.5 1.5C6.5 1.36739 6.55268 1.24021 6.64645 1.14645C6.74021 1.05268 6.86739 1 7 1H9C9.13261 1 9.25979 1.05268 9.35355 1.14645C9.44732 1.24021 9.5 1.36739 9.5 1.5V4H12C12.1326 4 12.2598 4.05268 12.3536 4.14645C12.4473 4.24021 12.5 4.36739 12.5 4.5V7C12.5 7.13261 12.4473 7.25979 12.3536 7.35355C12.2598 7.44732 12.1326 7.5 12 7.5H9.5Z" fill="black"/>
</g>
<defs>
<clipPath id="clip0_5_229">
<rect width="16" height="16" fill="white"/>
</clipPath>
</defs>
</svg>
