<svg width="16" height="16" viewBox="0 0 16 16" fill="none" xmlns="http://www.w3.org/2000/svg">
<g clip-path="url(#clip0_5_227)">
<path d="M15.3538 4.85379L13.485 6.72254C13.1075 11.0988 9.41691 14.5 5.00003 14.5C4.09253 14.5 3.34441 14.3563 2.77628 14.0725C2.31816 13.8432 2.13066 13.5975 2.08378 13.5275C2.04198 13.4649 2.01489 13.3935 2.00453 13.3189C1.99417 13.2443 2.00081 13.1683 2.02394 13.0966C2.04708 13.0249 2.08612 12.9593 2.13815 12.9049C2.19018 12.8504 2.25385 12.8083 2.32441 12.7819C2.34066 12.7757 3.83941 12.2 4.79128 11.1044C4.2634 10.6704 3.80258 10.1607 3.42378 9.59191C2.64878 8.44129 1.78128 6.44254 2.04878 3.45566C2.05726 3.36075 2.09268 3.27024 2.15088 3.19479C2.20907 3.11934 2.28761 3.06209 2.37725 3.02978C2.4669 2.99747 2.5639 2.99144 2.65685 3.01242C2.7498 3.03339 2.83483 3.08049 2.90191 3.14816C2.92378 3.17004 4.98191 5.21691 7.49816 5.88066V5.50004C7.4972 5.10091 7.57611 4.70562 7.73025 4.33746C7.88438 3.96929 8.11063 3.63569 8.39566 3.35629C8.67247 3.07987 9.00184 2.86169 9.36434 2.71463C9.72684 2.56757 10.1151 2.4946 10.5063 2.50004C11.031 2.50521 11.5455 2.64607 11.9996 2.90892C12.4538 3.17176 12.8322 3.54765 13.0982 4.00004H15C15.099 3.99996 15.1957 4.02924 15.278 4.08418C15.3603 4.13911 15.4245 4.21723 15.4623 4.30864C15.5002 4.40006 15.5101 4.50065 15.4908 4.59769C15.4715 4.69473 15.4238 4.78386 15.3538 4.85379Z" fill="black"/>
</g>
<defs>
<clipPath id="clip0_5_227">
<rect width="16" height="16" fill="white"/>
</clipPath>
</defs>
</svg>
