<svg width="16" height="16" viewBox="0 0 16 16" fill="none" xmlns="http://www.w3.org/2000/svg">
<g clip-path="url(#clip0_5_228)">
<path d="M13 2H3C2.73478 2 2.48043 2.10536 2.29289 2.29289C2.10536 2.48043 2 2.73478 2 3V12C2 12.2652 2.10536 12.5196 2.29289 12.7071C2.48043 12.8946 2.73478 13 3 13H4V15C3.99996 15.095 4.02702 15.1881 4.07798 15.2683C4.12895 15.3486 4.20173 15.4126 4.28778 15.4529C4.37384 15.4933 4.46961 15.5082 4.56387 15.4961C4.65813 15.484 4.74697 15.4452 4.82 15.3844L7.68125 13H10.3188C10.5529 13.0001 10.7796 12.918 10.9594 12.7681L13.64 10.5337C13.7529 10.4401 13.8437 10.3227 13.9059 10.1899C13.9681 10.0572 14.0003 9.91227 14 9.76562V3C14 2.73478 13.8946 2.48043 13.7071 2.29289C13.5196 2.10536 13.2652 2 13 2ZM8 8.5C8 8.63261 7.94732 8.75979 7.85355 8.85355C7.75979 8.94732 7.63261 9 7.5 9C7.36739 9 7.24021 8.94732 7.14645 8.85355C7.05268 8.75979 7 8.63261 7 8.5V5.5C7 5.36739 7.05268 5.24021 7.14645 5.14645C7.24021 5.05268 7.36739 5 7.5 5C7.63261 5 7.75979 5.05268 7.85355 5.14645C7.94732 5.24021 8 5.36739 8 5.5V8.5ZM11 8.5C11 8.63261 10.9473 8.75979 10.8536 8.85355C10.7598 8.94732 10.6326 9 10.5 9C10.3674 9 10.2402 8.94732 10.1464 8.85355C10.0527 8.75979 10 8.63261 10 8.5V5.5C10 5.36739 10.0527 5.24021 10.1464 5.14645C10.2402 5.05268 10.3674 5 10.5 5C10.6326 5 10.7598 5.05268 10.8536 5.14645C10.9473 5.24021 11 5.36739 11 5.5V8.5Z" fill="black"/>
</g>
<defs>
<clipPath id="clip0_5_228">
<rect width="16" height="16" fill="white"/>
</clipPath>
</defs>
</svg>
