<svg width="16" height="16" viewBox="0 0 16 16" fill="none" xmlns="http://www.w3.org/2000/svg">
<g clip-path="url(#clip0_5_225)">
<path d="M14.735 8.67686C14.6415 8.77858 14.5279 8.85981 14.4014 8.91543C14.2749 8.97104 14.1382 8.99984 14 8.99999H8.50001V12.5C8.50001 12.7652 8.60537 13.0196 8.7929 13.2071C8.98044 13.3946 9.23479 13.5 9.50001 13.5C9.76523 13.5 10.0196 13.3946 10.2071 13.2071C10.3947 13.0196 10.5 12.7652 10.5 12.5C10.5 12.3674 10.5527 12.2402 10.6465 12.1464C10.7402 12.0527 10.8674 12 11 12C11.1326 12 11.2598 12.0527 11.3536 12.1464C11.4473 12.2402 11.5 12.3674 11.5 12.5C11.5 13.0304 11.2893 13.5391 10.9142 13.9142C10.5392 14.2893 10.0304 14.5 9.50001 14.5C8.96958 14.5 8.46087 14.2893 8.0858 13.9142C7.71072 13.5391 7.50001 13.0304 7.50001 12.5V8.99999H2.00001C1.86116 9.0005 1.72373 8.97209 1.59646 8.91657C1.4692 8.86104 1.35489 8.77963 1.26082 8.6775C1.16675 8.57537 1.09498 8.45478 1.05007 8.32339C1.00517 8.192 0.988121 8.0527 1.00001 7.91436C1.11461 6.60616 1.59347 5.35623 2.3823 4.30633C3.17113 3.25643 4.23835 2.44856 5.46296 1.97433C6.68756 1.50011 8.02054 1.37851 9.31074 1.62331C10.6009 1.86811 11.7967 2.46953 12.7625 3.35936C14.054 4.54273 14.8528 6.16887 15 7.91436C15.0109 8.05287 14.9929 8.19212 14.9473 8.32335C14.9017 8.45458 14.8294 8.57495 14.735 8.67686Z" fill="black"/>
</g>
<defs>
<clipPath id="clip0_5_225">
<rect width="16" height="16" fill="white"/>
</clipPath>
</defs>
</svg>
