<svg width="16" height="16" viewBox="0 0 16 16" fill="none" xmlns="http://www.w3.org/2000/svg">
<g clip-path="url(#clip0_5_226)">
<path d="M15.0001 7.91439C14.8499 6.1623 14.0471 4.53056 12.7506 3.34253C11.4541 2.1545 9.75856 1.49688 8.00006 1.50001C6.2421 1.49767 4.54737 2.15563 3.25153 3.34359C1.9557 4.53154 1.15327 6.16284 1.00318 7.91439C0.991318 8.05246 1.00828 8.1915 1.053 8.32267C1.09771 8.45384 1.16921 8.57429 1.26294 8.67637C1.35667 8.77845 1.4706 8.85993 1.59749 8.91564C1.72439 8.97136 1.86147 9.00009 2.00006 9.00001H7.50006V12.5C7.50006 13.0304 7.71077 13.5392 8.08585 13.9142C8.46092 14.2893 8.96963 14.5 9.50006 14.5C10.0305 14.5 10.5392 14.2893 10.9143 13.9142C11.2893 13.5392 11.5001 13.0304 11.5001 12.5C11.5001 12.3674 11.4474 12.2402 11.3536 12.1465C11.2598 12.0527 11.1327 12 11.0001 12C10.8675 12 10.7403 12.0527 10.6465 12.1465C10.5527 12.2402 10.5001 12.3674 10.5001 12.5C10.5001 12.7652 10.3947 13.0196 10.2072 13.2071C10.0196 13.3947 9.76528 13.5 9.50006 13.5C9.23484 13.5 8.98049 13.3947 8.79295 13.2071C8.60542 13.0196 8.50006 12.7652 8.50006 12.5V9.00001H14.0001C14.1389 9.00052 14.2763 8.97211 14.4036 8.91659C14.5309 8.86107 14.6452 8.77965 14.7392 8.67752C14.8333 8.5754 14.9051 8.4548 14.95 8.32341C14.9949 8.19202 15.0119 8.05272 15.0001 7.91439ZM2.00006 8.00001C2.11087 6.712 2.6341 5.49406 3.49204 4.52701C4.34999 3.55996 5.49692 2.89536 6.76256 2.63189C6.03006 3.62501 5.11568 5.38189 5.01068 8.00001H2.00006ZM10.9894 8.00001C10.8844 5.38189 9.97006 3.62501 9.23943 2.62876C10.5056 2.89201 11.6529 3.557 12.5106 4.52479C13.3684 5.49257 13.8908 6.71143 14.0001 8.00001H10.9894Z" fill="black"/>
</g>
<defs>
<clipPath id="clip0_5_226">
<rect width="16" height="16" fill="white"/>
</clipPath>
</defs>
</svg>
