<svg width="16" height="16" viewBox="0 0 16 16" fill="none" xmlns="http://www.w3.org/2000/svg">
<g clip-path="url(#clip0_5_224)">
<path d="M13 2H3C2.73478 2 2.48043 2.10536 2.29289 2.29289C2.10536 2.48043 2 2.73478 2 3V13C2 13.2652 2.10536 13.5196 2.29289 13.7071C2.48043 13.8946 2.73478 14 3 14H13C13.2652 14 13.5196 13.8946 13.7071 13.7071C13.8946 13.5196 14 13.2652 14 13V3C14 2.73478 13.8946 2.48043 13.7071 2.29289C13.5196 2.10536 13.2652 2 13 2ZM11.5 8.5C11.5 9.42826 11.1313 10.3185 10.4749 10.9749C9.8185 11.6313 8.92826 12 8 12C7.07174 12 6.1815 11.6313 5.52513 10.9749C4.86875 10.3185 4.5 9.42826 4.5 8.5V5C4.5 4.86739 4.55268 4.74021 4.64645 4.64645C4.74021 4.55268 4.86739 4.5 5 4.5C5.13261 4.5 5.25979 4.55268 5.35355 4.64645C5.44732 4.74021 5.5 4.86739 5.5 5V8.5C5.5 9.16304 5.76339 9.79893 6.23223 10.2678C6.70107 10.7366 7.33696 11 8 11C8.66304 11 9.29893 10.7366 9.76777 10.2678C10.2366 9.79893 10.5 9.16304 10.5 8.5V5C10.5 4.86739 10.5527 4.74021 10.6464 4.64645C10.7402 4.55268 10.8674 4.5 11 4.5C11.1326 4.5 11.2598 4.55268 11.3536 4.64645C11.4473 4.74021 11.5 4.86739 11.5 5V8.5Z" fill="black"/>
</g>
<defs>
<clipPath id="clip0_5_224">
<rect width="16" height="16" fill="white"/>
</clipPath>
</defs>
</svg>
