<svg width="16" height="16" viewBox="0 0 16 16" fill="none" xmlns="http://www.w3.org/2000/svg">
<g clip-path="url(#clip0_5_223)">
<path d="M15 10.25C15 11.4887 14.5162 12.6784 13.6516 13.5655C12.7871 14.4525 11.6102 14.9668 10.3719 14.9986C9.13362 15.0304 7.9319 14.5772 7.02296 13.7357C6.11402 12.8941 5.56977 11.7308 5.50624 10.4937C4.58875 10.4466 3.70462 10.1344 2.96096 9.59497C2.2173 9.05554 1.64603 8.31202 1.31636 7.45451C0.986692 6.597 0.912769 5.66228 1.10355 4.76361C1.29433 3.86493 1.74162 3.04086 2.39124 2.39124C3.04086 1.74162 3.86493 1.29433 4.76361 1.10355C5.66228 0.912769 6.597 0.986692 7.45451 1.31636C8.31202 1.64603 9.05554 2.2173 9.59497 2.96096C10.1344 3.70462 10.4466 4.58875 10.4937 5.50624C11.7092 5.57022 12.8539 6.09772 13.6921 6.98017C14.5304 7.86262 14.9985 9.03286 15 10.25Z" fill="black"/>
</g>
<defs>
<clipPath id="clip0_5_223">
<rect width="16" height="16" fill="white"/>
</clipPath>
</defs>
</svg>
