<svg width="16" height="16" viewBox="0 0 16 16" fill="none" xmlns="http://www.w3.org/2000/svg">
<g clip-path="url(#clip0_5_220)">
<path d="M14 9.00003V13C14 13.1326 13.9473 13.2598 13.8536 13.3536C13.7598 13.4473 13.6326 13.5 13.5 13.5H2.5C2.36739 13.5 2.24021 13.4473 2.14645 13.3536C2.05268 13.2598 2 13.1326 2 13V9.00003C2 8.86742 2.05268 8.74024 2.14645 8.64647C2.24021 8.55271 2.36739 8.50003 2.5 8.50003C2.63261 8.50003 2.75979 8.55271 2.85355 8.64647C2.94732 8.74024 3 8.86742 3 9.00003V12.5H13V9.00003C13 8.86742 13.0527 8.74024 13.1464 8.64647C13.2402 8.55271 13.3674 8.50003 13.5 8.50003C13.6326 8.50003 13.7598 8.55271 13.8536 8.64647C13.9473 8.74024 14 8.86742 14 9.00003ZM5.5 5.00003H7.5V9.00003C7.5 9.13264 7.55268 9.25981 7.64645 9.35358C7.74021 9.44735 7.86739 9.50003 8 9.50003C8.13261 9.50003 8.25979 9.44735 8.35355 9.35358C8.44732 9.25981 8.5 9.13264 8.5 9.00003V5.00003H10.5C10.5989 5.00011 10.6957 4.97082 10.778 4.91589C10.8603 4.86095 10.9244 4.78283 10.9623 4.69142C11.0002 4.60001 11.0101 4.49942 10.9908 4.40237C10.9714 4.30533 10.9238 4.2162 10.8538 4.14628L8.35375 1.64628C8.30731 1.59979 8.25217 1.56291 8.19147 1.53775C8.13077 1.51258 8.06571 1.49963 8 1.49963C7.93429 1.49963 7.86923 1.51258 7.80853 1.53775C7.74783 1.56291 7.69269 1.59979 7.64625 1.64628L5.14625 4.14628C5.07624 4.2162 5.02856 4.30533 5.00924 4.40237C4.98991 4.49942 4.99981 4.60001 5.03769 4.69142C5.07556 4.78283 5.13971 4.86095 5.22201 4.91589C5.30431 4.97082 5.40105 5.00011 5.5 5.00003Z" fill="black"/>
</g>
<defs>
<clipPath id="clip0_5_220">
<rect width="16" height="16" fill="white"/>
</clipPath>
</defs>
</svg>
