<svg width="16" height="16" viewBox="0 0 16 16" fill="none" xmlns="http://www.w3.org/2000/svg">
<g clip-path="url(#clip0_5_221)">
<path d="M4.64625 4.85378C4.59976 4.80734 4.56288 4.7522 4.53772 4.6915C4.51256 4.6308 4.49961 4.56573 4.49961 4.50003C4.49961 4.43432 4.51256 4.36926 4.53772 4.30856C4.56288 4.24786 4.59976 4.19271 4.64625 4.14628L7.64625 1.14628C7.69269 1.09979 7.74783 1.06291 7.80853 1.03775C7.86923 1.01259 7.93429 0.999634 8 0.999634C8.06571 0.999634 8.13077 1.01259 8.19147 1.03775C8.25217 1.06291 8.30731 1.09979 8.35375 1.14628L11.3538 4.14628C11.4476 4.2401 11.5003 4.36735 11.5003 4.50003C11.5003 4.63271 11.4476 4.75996 11.3538 4.85378C11.2599 4.9476 11.1327 5.00031 11 5.00031C10.8673 5.00031 10.7401 4.9476 10.6462 4.85378L8.5 2.7069V8.00003C8.5 8.13264 8.44732 8.25981 8.35355 8.35358C8.25979 8.44735 8.13261 8.50003 8 8.50003C7.86739 8.50003 7.74021 8.44735 7.64645 8.35358C7.55268 8.25981 7.5 8.13264 7.5 8.00003V2.7069L5.35375 4.85378C5.30731 4.90027 5.25217 4.93714 5.19147 4.96231C5.13077 4.98747 5.06571 5.00042 5 5.00042C4.93429 5.00042 4.86923 4.98747 4.80853 4.96231C4.74783 4.93714 4.69269 4.90027 4.64625 4.85378ZM15 8.50003V12.5C15 12.7652 14.8946 13.0196 14.7071 13.2071C14.5196 13.3947 14.2652 13.5 14 13.5H2C1.73478 13.5 1.48043 13.3947 1.29289 13.2071C1.10536 13.0196 1 12.7652 1 12.5V8.50003C1 8.23481 1.10536 7.98046 1.29289 7.79292C1.48043 7.60538 1.73478 7.50003 2 7.50003H6.25C6.3163 7.50003 6.37989 7.52637 6.42678 7.57325C6.47366 7.62013 6.5 7.68372 6.5 7.75003V7.96628C6.5 8.8069 7.1875 9.51565 8.02875 9.50003C8.42157 9.4925 8.79576 9.33114 9.07087 9.05065C9.34599 8.77016 9.50007 8.39292 9.5 8.00003V7.75003C9.5 7.68372 9.52634 7.62013 9.57322 7.57325C9.62011 7.52637 9.6837 7.50003 9.75 7.50003H14C14.2652 7.50003 14.5196 7.60538 14.7071 7.79292C14.8946 7.98046 15 8.23481 15 8.50003ZM12.5 10.5C12.5 10.3517 12.456 10.2067 12.3736 10.0833C12.2912 9.96001 12.1741 9.86388 12.037 9.80712C11.9 9.75035 11.7492 9.7355 11.6037 9.76444C11.4582 9.79338 11.3246 9.86481 11.2197 9.9697C11.1148 10.0746 11.0434 10.2082 11.0144 10.3537C10.9855 10.4992 11.0003 10.65 11.0571 10.787C11.1139 10.9241 11.21 11.0412 11.3333 11.1236C11.4567 11.206 11.6017 11.25 11.75 11.25C11.9489 11.25 12.1397 11.171 12.2803 11.0304C12.421 10.8897 12.5 10.6989 12.5 10.5Z" fill="black"/>
</g>
<defs>
<clipPath id="clip0_5_221">
<rect width="16" height="16" fill="white"/>
</clipPath>
</defs>
</svg>
