<svg width="16" height="16" viewBox="0 0 16 16" fill="none" xmlns="http://www.w3.org/2000/svg">
<g clip-path="url(#clip0_5_219)">
<path d="M15.75 8C15.75 8.04117 15.7399 8.08171 15.7205 8.11802C15.7011 8.15433 15.673 8.18528 15.6388 8.20813L12.6388 10.2081C12.6011 10.2333 12.5573 10.2477 12.5121 10.2499C12.4669 10.2521 12.4219 10.2419 12.382 10.2206C12.3421 10.1992 12.3087 10.1674 12.2855 10.1286C12.2622 10.0897 12.25 10.0453 12.25 10V8.5H4.5V11.5H6.75V11C6.75 10.8011 6.82902 10.6103 6.96967 10.4697C7.11032 10.329 7.30109 10.25 7.5 10.25H9.5C9.69891 10.25 9.88968 10.329 10.0303 10.4697C10.171 10.6103 10.25 10.8011 10.25 11V13C10.25 13.1989 10.171 13.3897 10.0303 13.5303C9.88968 13.671 9.69891 13.75 9.5 13.75H7.5C7.30109 13.75 7.11032 13.671 6.96967 13.5303C6.82902 13.3897 6.75 13.1989 6.75 13V12.5H4.5C4.23478 12.5 3.98043 12.3946 3.79289 12.2071C3.60536 12.0196 3.5 11.7652 3.5 11.5V8.5H0.5C0.367392 8.5 0.240215 8.44733 0.146447 8.35356C0.0526784 8.25979 0 8.13261 0 8C0 7.8674 0.0526784 7.74022 0.146447 7.64645C0.240215 7.55268 0.367392 7.5 0.5 7.5H3.5V4.5C3.5 4.23479 3.60536 3.98043 3.79289 3.7929C3.98043 3.60536 4.23478 3.5 4.5 3.5H6.82312C6.94323 3.09717 7.20431 2.75103 7.55864 2.52487C7.91297 2.29871 8.33687 2.20765 8.75282 2.26834C9.16877 2.32902 9.54898 2.5374 9.82393 2.85537C10.0989 3.17334 10.2502 3.57965 10.2502 4C10.2502 4.42036 10.0989 4.82667 9.82393 5.14464C9.54898 5.46261 9.16877 5.67098 8.75282 5.73167C8.33687 5.79236 7.91297 5.7013 7.55864 5.47514C7.20431 5.24898 6.94323 4.90284 6.82312 4.5H4.5V7.5H12.25V6C12.25 5.95473 12.2622 5.9103 12.2855 5.87146C12.3087 5.83261 12.3421 5.80081 12.382 5.77944C12.4219 5.75807 12.4669 5.74794 12.5121 5.75013C12.5573 5.75233 12.6011 5.76675 12.6388 5.79188L15.6388 7.79188C15.673 7.81473 15.7011 7.84568 15.7205 7.88199C15.7399 7.9183 15.75 7.95884 15.75 8Z" fill="black"/>
</g>
<defs>
<clipPath id="clip0_5_219">
<rect width="16" height="16" fill="white"/>
</clipPath>
</defs>
</svg>
