<svg width="16" height="16" viewBox="0 0 16 16" fill="none" xmlns="http://www.w3.org/2000/svg">
<g clip-path="url(#clip0_5_208)">
<path d="M10.2793 12.2269C10.3285 12.3024 10.3564 12.3897 10.3601 12.4797C10.3638 12.5697 10.3431 12.659 10.3002 12.7382C10.2573 12.8174 10.1938 12.8835 10.1164 12.9296C10.039 12.9757 9.95066 13 9.86059 13.0001H0.639343C0.549278 13 0.460888 12.9757 0.383512 12.9296C0.306136 12.8835 0.242647 12.8174 0.199752 12.7382C0.156858 12.659 0.136151 12.5697 0.139819 12.4797C0.143488 12.3897 0.171395 12.3024 0.220593 12.2269C0.924409 11.1436 1.95965 10.3168 3.17184 9.87006C2.50172 9.42393 1.99295 8.77398 1.72078 8.01634C1.44861 7.25869 1.42748 6.43357 1.66053 5.663C1.89357 4.89242 2.36841 4.21729 3.01483 3.73745C3.66124 3.25761 4.44492 2.99854 5.24997 2.99854C6.05502 2.99854 6.83869 3.25761 7.48511 3.73745C8.13153 4.21729 8.60637 4.89242 8.83941 5.663C9.07245 6.43357 9.05133 7.25869 8.77916 8.01634C8.50699 8.77398 7.99822 9.42393 7.32809 9.87006C8.54029 10.3168 9.57553 11.1436 10.2793 12.2269ZM15.7737 12.2176C15.0697 11.1388 14.0368 10.3156 12.8281 9.87006C13.6192 9.33715 14.1775 8.52281 14.3894 7.59277C14.6012 6.66274 14.4507 5.68692 13.9685 4.86395C13.4862 4.04098 12.7085 3.43271 11.7936 3.16295C10.8786 2.89319 9.89531 2.98223 9.04372 3.41193C9.01116 3.42875 8.98269 3.45251 8.96033 3.48155C8.93797 3.51059 8.92227 3.54419 8.91434 3.57997C8.90641 3.61575 8.90644 3.65283 8.91443 3.6886C8.92243 3.72436 8.93818 3.75793 8.96059 3.78693C9.59382 4.57681 9.95749 5.54871 9.99831 6.56025C10.0391 7.5718 9.75498 8.56984 9.18747 9.40818C9.15079 9.46297 9.13723 9.53003 9.14976 9.59476C9.16228 9.65949 9.19987 9.71666 9.25434 9.75381C9.99428 10.2702 10.6277 10.9245 11.12 11.6807C11.3185 11.9847 11.3996 12.3506 11.3481 12.7101C11.3423 12.7458 11.3443 12.7824 11.3541 12.8173C11.3638 12.8522 11.381 12.8845 11.4045 12.9121C11.428 12.9397 11.4572 12.9618 11.4901 12.977C11.523 12.9922 11.5587 13.0001 11.595 13.0001H15.3637C15.4738 13.0001 15.5808 12.9638 15.6682 12.8968C15.7556 12.8298 15.8184 12.7358 15.8468 12.6294C15.8642 12.5595 15.8667 12.4867 15.8541 12.4157C15.8415 12.3448 15.8141 12.2772 15.7737 12.2176Z" fill="black"/>
</g>
<defs>
<clipPath id="clip0_5_208">
<rect width="16" height="16" fill="white"/>
</clipPath>
</defs>
</svg>
