<svg width="16" height="16" viewBox="0 0 16 16" fill="none" xmlns="http://www.w3.org/2000/svg">
<g clip-path="url(#clip0_5_1176)">
<path d="M12.3831 12.1782C12.4445 12.2511 12.4837 12.34 12.4962 12.4345C12.5087 12.5289 12.4939 12.625 12.4537 12.7113C12.4134 12.7977 12.3493 12.8707 12.269 12.9219C12.1886 12.973 12.0953 13.0002 12 13.0001H1.5C1.40478 13 1.31155 12.9728 1.23127 12.9216C1.15098 12.8704 1.08699 12.7974 1.04681 12.711C1.00663 12.6247 0.991942 12.5287 1.00447 12.4343C1.01699 12.3399 1.05621 12.251 1.1175 12.1782C2.05125 11.0669 3.2125 10.2776 4.50313 9.85506C3.71932 9.36687 3.11583 8.63669 2.78396 7.77498C2.4521 6.91327 2.40991 5.96692 2.66379 5.07909C2.91766 4.19127 3.45378 3.41029 4.19105 2.85429C4.92831 2.2983 5.8266 1.99756 6.75 1.99756C7.67341 1.99756 8.5717 2.2983 9.30896 2.85429C10.0462 3.41029 10.5823 4.19127 10.8362 5.07909C11.0901 5.96692 11.0479 6.91327 10.716 7.77498C10.3842 8.63669 9.78069 9.36687 8.99688 9.85506C10.2875 10.2776 11.4488 11.0669 12.3831 12.1782ZM15.5 8.00006H12.5C12.3674 8.00006 12.2402 8.05274 12.1465 8.1465C12.0527 8.24027 12 8.36745 12 8.50006C12 8.63267 12.0527 8.75984 12.1465 8.85361C12.2402 8.94738 12.3674 9.00006 12.5 9.00006H15.5C15.6326 9.00006 15.7598 8.94738 15.8536 8.85361C15.9473 8.75984 16 8.63267 16 8.50006C16 8.36745 15.9473 8.24027 15.8536 8.1465C15.7598 8.05274 15.6326 8.00006 15.5 8.00006Z" fill="black"/>
</g>
<defs>
<clipPath id="clip0_5_1176">
<rect width="16" height="16" fill="white"/>
</clipPath>
</defs>
</svg>
