<svg width="16" height="16" viewBox="0 0 16 16" fill="none" xmlns="http://www.w3.org/2000/svg">
<g clip-path="url(#clip0_5_1181)">
<path d="M9.50001 5.00001C9.50001 4.86741 9.55269 4.74023 9.64645 4.64646C9.74022 4.55269 9.8674 4.50001 10 4.50001H15.5C15.6326 4.50001 15.7598 4.55269 15.8536 4.64646C15.9473 4.74023 16 4.86741 16 5.00001C16 5.13262 15.9473 5.2598 15.8536 5.35357C15.7598 5.44734 15.6326 5.50001 15.5 5.50001H10C9.8674 5.50001 9.74022 5.44734 9.64645 5.35357C9.55269 5.2598 9.50001 5.13262 9.50001 5.00001ZM15.5 7.50001H10C9.8674 7.50001 9.74022 7.55269 9.64645 7.64646C9.55269 7.74023 9.50001 7.86741 9.50001 8.00001C9.50001 8.13262 9.55269 8.2598 9.64645 8.35357C9.74022 8.44734 9.8674 8.50001 10 8.50001H15.5C15.6326 8.50001 15.7598 8.44734 15.8536 8.35357C15.9473 8.2598 16 8.13262 16 8.00001C16 7.86741 15.9473 7.74023 15.8536 7.64646C15.7598 7.55269 15.6326 7.50001 15.5 7.50001ZM15.5 10.5H11.5C11.3674 10.5 11.2402 10.5527 11.1465 10.6465C11.0527 10.7402 11 10.8674 11 11C11 11.1326 11.0527 11.2598 11.1465 11.3536C11.2402 11.4473 11.3674 11.5 11.5 11.5H15.5C15.6326 11.5 15.7598 11.4473 15.8536 11.3536C15.9473 11.2598 16 11.1326 16 11C16 10.8674 15.9473 10.7402 15.8536 10.6465C15.7598 10.5527 15.6326 10.5 15.5 10.5ZM6.83063 8.87501C7.32686 8.4928 7.69102 7.96485 7.87202 7.36521C8.05302 6.76557 8.0418 6.12432 7.83992 5.53138C7.63804 4.93844 7.25563 4.42356 6.74633 4.05895C6.23702 3.69434 5.62637 3.49829 5.00001 3.49829C4.37365 3.49829 3.76299 3.69434 3.25369 4.05895C2.74438 4.42356 2.36198 4.93844 2.1601 5.53138C1.95822 6.12432 1.94699 6.76557 2.128 7.36521C2.309 7.96485 2.67315 8.4928 3.16938 8.87501C1.88063 9.42064 0.865008 10.5188 0.515633 11.875C0.49655 11.9489 0.494642 12.0262 0.510055 12.101C0.525467 12.1757 0.557791 12.246 0.604548 12.3063C0.651306 12.3666 0.711256 12.4155 0.779804 12.449C0.848352 12.4826 0.923678 12.5001 1.00001 12.5H9.00001C9.07634 12.5001 9.15166 12.4826 9.22021 12.449C9.28876 12.4155 9.34871 12.3666 9.39547 12.3063C9.44222 12.246 9.47455 12.1757 9.48996 12.101C9.50537 12.0262 9.50347 11.9489 9.48438 11.875C9.13501 10.5181 8.11938 9.42001 6.83063 8.87501Z" fill="black"/>
</g>
<defs>
<clipPath id="clip0_5_1181">
<rect width="16" height="16" fill="white"/>
</clipPath>
</defs>
</svg>
