<svg width="16" height="16" viewBox="0 0 16 16" fill="none" xmlns="http://www.w3.org/2000/svg">
<g clip-path="url(#clip0_5_210)">
<path d="M10.75 7.5C10.75 8.0439 10.5887 8.57558 10.2865 9.02782C9.98437 9.48005 9.55488 9.83253 9.05238 10.0407C8.54988 10.2488 7.99695 10.3033 7.4635 10.1972C6.93005 10.0911 6.44005 9.82914 6.05546 9.44454C5.67086 9.05995 5.40895 8.56995 5.30284 8.0365C5.19673 7.50305 5.25119 6.95012 5.45933 6.44762C5.66747 5.94512 6.01995 5.51563 6.47218 5.21346C6.92442 4.91128 7.4561 4.75 8 4.75C8.72935 4.75 9.42882 5.03973 9.94454 5.55546C10.4603 6.07118 10.75 6.77065 10.75 7.5ZM14 3V13C14 13.2652 13.8946 13.5196 13.7071 13.7071C13.5196 13.8946 13.2652 14 13 14H3C2.73478 14 2.48043 13.8946 2.29289 13.7071C2.10536 13.5196 2 13.2652 2 13V3C2 2.73478 2.10536 2.48043 2.29289 2.29289C2.48043 2.10536 2.73478 2 3 2H13C13.2652 2 13.5196 2.10536 13.7071 2.29289C13.8946 2.48043 14 2.73478 14 3ZM13 13V3H3V13H3.22937C3.527 12.0609 4.0935 11.2297 4.85875 10.6094C4.98708 10.506 5.11958 10.4098 5.25625 10.3206C5.30178 10.2909 5.35577 10.2768 5.41002 10.2806C5.46427 10.2843 5.51583 10.3056 5.55688 10.3413C6.23588 10.9274 7.10299 11.2499 8 11.2499C8.89701 11.2499 9.76412 10.9274 10.4431 10.3413C10.4842 10.3056 10.5357 10.2843 10.59 10.2806C10.6442 10.2768 10.6982 10.2909 10.7437 10.3206C10.8804 10.4102 11.0129 10.5065 11.1412 10.6094C11.9065 11.2297 12.473 12.0609 12.7706 13H13Z" fill="black"/>
</g>
<defs>
<clipPath id="clip0_5_210">
<rect width="16" height="16" fill="white"/>
</clipPath>
</defs>
</svg>
