<svg width="16" height="16" viewBox="0 0 16 16" fill="none" xmlns="http://www.w3.org/2000/svg">
<g clip-path="url(#clip0_5_218)">
<path d="M15.8537 8.35381L13.8537 10.3538C13.8073 10.4003 13.7521 10.4372 13.6914 10.4623C13.6307 10.4875 13.5656 10.5005 13.4999 10.5005C13.4342 10.5005 13.3692 10.4875 13.3085 10.4623C13.2478 10.4372 13.1926 10.4003 13.1462 10.3538L12.1462 9.35381C12.0524 9.25999 11.9997 9.13274 11.9997 9.00006C11.9997 8.86738 12.0524 8.74013 12.1462 8.64631C12.24 8.55249 12.3673 8.49978 12.4999 8.49978C12.6326 8.49978 12.7599 8.55249 12.8537 8.64631L13.4999 9.29318L15.1462 7.64631C15.24 7.55249 15.3673 7.49978 15.4999 7.49978C15.6326 7.49978 15.7599 7.55249 15.8537 7.64631C15.9475 7.74013 16.0002 7.86738 16.0002 8.00006C16.0002 8.13274 15.9475 8.25999 15.8537 8.35381ZM8.99994 9.85506C9.78375 9.36687 10.3872 8.63669 10.7191 7.77498C11.051 6.91327 11.0932 5.96692 10.8393 5.07909C10.5854 4.19127 10.0493 3.41029 9.31202 2.85429C8.57476 2.2983 7.67647 1.99756 6.75307 1.99756C5.82966 1.99756 4.93137 2.2983 4.19411 2.85429C3.45685 3.41029 2.92072 4.19127 2.66685 5.07909C2.41297 5.96692 2.45516 6.91327 2.78702 7.77498C3.11889 8.63669 3.72238 9.36687 4.50619 9.85506C3.21556 10.2776 2.05431 11.0669 1.12057 12.1782C1.05943 12.2508 1.02026 12.3394 1.00762 12.4335C0.994984 12.5276 1.00941 12.6234 1.0492 12.7096C1.089 12.7958 1.15253 12.8689 1.23235 12.9204C1.31217 12.9718 1.40498 12.9994 1.49994 13.0001H11.9999C12.0952 13.0002 12.1885 12.973 12.2689 12.9219C12.3493 12.8707 12.4134 12.7977 12.4536 12.7113C12.4939 12.625 12.5086 12.5289 12.4961 12.4345C12.4836 12.34 12.4444 12.2511 12.3831 12.1782C11.4487 11.0669 10.2874 10.2776 8.99994 9.85506Z" fill="black"/>
</g>
<defs>
<clipPath id="clip0_5_218">
<rect width="16" height="16" fill="white"/>
</clipPath>
</defs>
</svg>
