<svg width="16" height="16" viewBox="0 0 16 16" fill="none" xmlns="http://www.w3.org/2000/svg">
<g clip-path="url(#clip0_5_435)">
<path d="M10.75 7.5C10.75 8.0439 10.5887 8.57558 10.2865 9.02782C9.98437 9.48005 9.55488 9.83253 9.05238 10.0407C8.54988 10.2488 7.99695 10.3033 7.4635 10.1972C6.93005 10.0911 6.44005 9.82914 6.05546 9.44454C5.67086 9.05995 5.40895 8.56995 5.30284 8.0365C5.19673 7.50305 5.25119 6.95012 5.45933 6.44762C5.66747 5.94512 6.01995 5.51563 6.47218 5.21346C6.92442 4.91128 7.4561 4.75 8 4.75C8.72935 4.75 9.42882 5.03973 9.94454 5.55546C10.4603 6.07118 10.75 6.77065 10.75 7.5ZM14.5 3.5V12.5C14.5 12.7652 14.3946 13.0196 14.2071 13.2071C14.0196 13.3946 13.7652 13.5 13.5 13.5H2.5C2.23478 13.5 1.98043 13.3946 1.79289 13.2071C1.60536 13.0196 1.5 12.7652 1.5 12.5V3.5C1.5 3.23478 1.60536 2.98043 1.79289 2.79289C1.98043 2.60536 2.23478 2.5 2.5 2.5H13.5C13.7652 2.5 14.0196 2.60536 14.2071 2.79289C14.3946 2.98043 14.5 3.23478 14.5 3.5ZM13.5 12.5V3.5H2.5V12.5H3.4175C3.80603 11.6112 4.44467 10.8547 5.25562 10.3225C5.30115 10.2923 5.35531 10.2779 5.40983 10.2814C5.46434 10.2848 5.51621 10.3061 5.5575 10.3419C6.23642 10.9277 7.10327 11.25 8 11.25C8.89673 11.25 9.76358 10.9277 10.4425 10.3419C10.4838 10.3061 10.5357 10.2848 10.5902 10.2814C10.6447 10.2779 10.6989 10.2923 10.7444 10.3225C11.5553 10.8547 12.194 11.6112 12.5825 12.5H13.5Z" fill="black"/>
</g>
<defs>
<clipPath id="clip0_5_435">
<rect width="16" height="16" fill="white"/>
</clipPath>
</defs>
</svg>
