<svg width="16" height="16" viewBox="0 0 16 16" fill="none" xmlns="http://www.w3.org/2000/svg">
<g clip-path="url(#clip0_5_207)">
<path d="M14.4 13.6993C14.4559 13.7736 14.49 13.862 14.4984 13.9546C14.5068 14.0472 14.4893 14.1403 14.4478 14.2234C14.4062 14.3066 14.3423 14.3765 14.2632 14.4254C14.1841 14.4742 14.093 14.5001 14 14.5H2C1.90714 14.5 1.81612 14.4741 1.73713 14.4253C1.65815 14.3765 1.59431 14.3066 1.55279 14.2236C1.51126 14.1405 1.49368 14.0475 1.50202 13.9551C1.51036 13.8626 1.54429 13.7743 1.6 13.7C2.04274 13.1064 2.63314 12.639 3.3125 12.3443C2.94011 12.0045 2.67918 11.5599 2.56397 11.0691C2.44875 10.5783 2.48463 10.0641 2.66689 9.59402C2.84916 9.12395 3.16929 8.71997 3.58527 8.4351C4.00125 8.15024 4.49364 7.9978 4.99781 7.9978C5.50198 7.9978 5.99437 8.15024 6.41035 8.4351C6.82633 8.71997 7.14647 9.12395 7.32873 9.59402C7.51099 10.0641 7.54687 10.5783 7.43166 11.0691C7.31644 11.5599 7.05551 12.0045 6.68313 12.3443C7.17326 12.5562 7.61866 12.8593 7.99563 13.2375C8.37259 12.8593 8.81799 12.5562 9.30812 12.3443C8.93574 12.0045 8.67481 11.5599 8.55959 11.0691C8.44438 10.5783 8.48026 10.0641 8.66252 9.59402C8.84478 9.12395 9.16492 8.71997 9.5809 8.4351C9.99688 8.15024 10.4893 7.9978 10.9934 7.9978C11.4976 7.9978 11.99 8.15024 12.406 8.4351C12.822 8.71997 13.1421 9.12395 13.3244 9.59402C13.5066 10.0641 13.5425 10.5783 13.4273 11.0691C13.3121 11.5599 13.0511 12.0045 12.6788 12.3443C13.3613 12.6375 13.9548 13.1047 14.4 13.6993ZM1.7 7.89997C1.75253 7.93937 1.8123 7.96803 1.87591 7.98433C1.93952 8.00062 2.00571 8.00423 2.07071 7.99495C2.13571 7.98566 2.19825 7.96366 2.25475 7.93021C2.31125 7.89675 2.3606 7.8525 2.4 7.79997C2.70273 7.39633 3.09528 7.06872 3.54656 6.84308C3.99784 6.61744 4.49545 6.49997 5 6.49997C5.50455 6.49997 6.00216 6.61744 6.45344 6.84308C6.90472 7.06872 7.29727 7.39633 7.6 7.79997C7.64657 7.86207 7.70697 7.91247 7.77639 7.94718C7.84582 7.9819 7.92238 7.99997 8 7.99997C8.07762 7.99997 8.15418 7.9819 8.22361 7.94718C8.29303 7.91247 8.35343 7.86207 8.4 7.79997C8.70273 7.39633 9.09528 7.06872 9.54656 6.84308C9.99784 6.61744 10.4955 6.49997 11 6.49997C11.5045 6.49997 12.0022 6.61744 12.4534 6.84308C12.9047 7.06872 13.2973 7.39633 13.6 7.79997C13.6394 7.8525 13.6888 7.89675 13.7454 7.93018C13.8019 7.96362 13.8645 7.9856 13.9295 7.99485C13.9945 8.00411 14.0608 8.00047 14.1244 7.98413C14.188 7.9678 14.2478 7.9391 14.3003 7.89966C14.3528 7.86022 14.3971 7.81082 14.4305 7.75429C14.464 7.69775 14.4859 7.63518 14.4952 7.57015C14.5045 7.50512 14.5008 7.4389 14.4845 7.37528C14.4681 7.31166 14.4394 7.25187 14.4 7.19935C13.9572 6.60593 13.3668 6.13877 12.6875 5.84435C13.0599 5.50447 13.3208 5.05995 13.436 4.56912C13.5512 4.07829 13.5154 3.56409 13.3331 3.09402C13.1508 2.62395 12.8307 2.21997 12.4147 1.9351C11.9987 1.65024 11.5064 1.4978 11.0022 1.4978C10.498 1.4978 10.0056 1.65024 9.58965 1.9351C9.17367 2.21997 8.85353 2.62395 8.67127 3.09402C8.48901 3.56409 8.45313 4.07829 8.56834 4.56912C8.68356 5.05995 8.94449 5.50447 9.31688 5.84435C8.82674 6.05621 8.38134 6.35929 8.00438 6.73747C7.62742 6.35929 7.18201 6.05621 6.69187 5.84435C7.06426 5.50447 7.32519 5.05995 7.44041 4.56912C7.55562 4.07829 7.51974 3.56409 7.33748 3.09402C7.15522 2.62395 6.83508 2.21997 6.4191 1.9351C6.00312 1.65024 5.51073 1.4978 5.00656 1.4978C4.50239 1.4978 4.01 1.65024 3.59402 1.9351C3.17804 2.21997 2.85791 2.62395 2.67564 3.09402C2.49338 3.56409 2.4575 4.07829 2.57272 4.56912C2.68793 5.05995 2.94886 5.50447 3.32125 5.84435C2.6387 6.13772 2.04516 6.60518 1.6 7.19997C1.5606 7.2525 1.53194 7.31227 1.51564 7.37588C1.49935 7.43949 1.49574 7.50568 1.50503 7.57068C1.51431 7.63568 1.53631 7.69822 1.56976 7.75472C1.60322 7.81122 1.64747 7.86057 1.7 7.89997Z" fill="black"/>
</g>
<defs>
<clipPath id="clip0_5_207">
<rect width="16" height="16" fill="white"/>
</clipPath>
</defs>
</svg>
