<svg width="16" height="16" viewBox="0 0 16 16" fill="none" xmlns="http://www.w3.org/2000/svg">
<g clip-path="url(#clip0_5_213)">
<path d="M8.00002 4.75001C8.54392 4.75001 9.0756 4.91129 9.52783 5.21347C9.98007 5.51564 10.3325 5.94513 10.5407 6.44763C10.7488 6.95012 10.8033 7.50306 10.6972 8.03651C10.5911 8.56995 10.3292 9.05996 9.94456 9.44455C9.55997 9.82915 9.06996 10.0911 8.53651 10.1972C8.00307 10.3033 7.45013 10.2488 6.94764 10.0407C6.44514 9.83253 6.01565 9.48006 5.71348 9.02782C5.4113 8.57559 5.25002 8.04391 5.25002 7.50001C5.25002 6.77066 5.53975 6.07119 6.05547 5.55546C6.5712 5.03974 7.27067 4.75001 8.00002 4.75001ZM11 4.00001H12V5.00001C12 5.13262 12.0527 5.25979 12.1465 5.35356C12.2402 5.44733 12.3674 5.50001 12.5 5.50001C12.6326 5.50001 12.7598 5.44733 12.8536 5.35356C12.9473 5.25979 13 5.13262 13 5.00001V4.00001H14C14.1326 4.00001 14.2598 3.94733 14.3536 3.85356C14.4473 3.75979 14.5 3.63262 14.5 3.50001C14.5 3.3674 14.4473 3.24022 14.3536 3.14645C14.2598 3.05269 14.1326 3.00001 14 3.00001H13V2.00001C13 1.8674 12.9473 1.74022 12.8536 1.64645C12.7598 1.55269 12.6326 1.50001 12.5 1.50001C12.3674 1.50001 12.2402 1.55269 12.1465 1.64645C12.0527 1.74022 12 1.8674 12 2.00001V3.00001H11C10.8674 3.00001 10.7402 3.05269 10.6465 3.14645C10.5527 3.24022 10.5 3.3674 10.5 3.50001C10.5 3.63262 10.5527 3.75979 10.6465 3.85356C10.7402 3.94733 10.8674 4.00001 11 4.00001ZM13.8344 6.50688C13.7036 6.52877 13.5869 6.60171 13.5099 6.70966C13.4329 6.81761 13.4019 6.95172 13.4238 7.08251C13.4745 7.3857 13.5 7.69259 13.5 8.00001C13.5012 9.34638 13.0064 10.646 12.11 11.6506C11.7463 11.1235 11.2846 10.6714 10.75 10.3188C10.7044 10.2885 10.65 10.2741 10.5954 10.2777C10.5407 10.2813 10.4888 10.3027 10.4475 10.3388C9.76819 10.9266 8.8999 11.2501 8.00158 11.2501C7.10325 11.2501 6.23497 10.9266 5.55564 10.3388C5.51413 10.302 5.46158 10.2801 5.40625 10.2765C5.35092 10.2729 5.29596 10.2877 5.25002 10.3188C4.71462 10.671 4.25221 11.1232 3.88814 11.6506C3.18473 10.858 2.7253 9.87901 2.5651 8.83144C2.4049 7.78388 2.55075 6.71233 2.98511 5.74569C3.41948 4.77906 4.12385 3.95849 5.01352 3.38269C5.90319 2.80688 6.94027 2.50037 8.00002 2.50001C8.30743 2.49996 8.61432 2.52546 8.91752 2.57626C9.04771 2.5968 9.18075 2.5651 9.2877 2.48806C9.39464 2.41102 9.46684 2.29487 9.48859 2.16487C9.51034 2.03487 9.47988 1.90154 9.40383 1.79389C9.32779 1.68623 9.21231 1.61296 9.08252 1.59001C7.72467 1.36158 6.32935 1.57059 5.09804 2.18687C3.86672 2.80314 2.86312 3.79479 2.23213 5.01863C1.60114 6.24247 1.37543 7.63518 1.58756 8.99567C1.7997 10.3562 2.43872 11.614 3.41236 12.5877C4.38599 13.5613 5.64387 14.2003 7.00435 14.4125C8.36484 14.6246 9.75755 14.3989 10.9814 13.7679C12.2052 13.1369 13.1969 12.1333 13.8132 10.902C14.4294 9.67067 14.6384 8.27536 14.41 6.91751C14.3881 6.78673 14.3152 6.66999 14.2072 6.59299C14.0993 6.51598 13.9652 6.48501 13.8344 6.50688Z" fill="black"/>
</g>
<defs>
<clipPath id="clip0_5_213">
<rect width="16" height="16" fill="white"/>
</clipPath>
</defs>
</svg>
