<svg width="16" height="16" viewBox="0 0 16 16" fill="none" xmlns="http://www.w3.org/2000/svg">
<g clip-path="url(#clip0_5_217)">
<path d="M14.41 6.91751C14.6384 8.27536 14.4294 9.67067 13.8132 10.902C13.1969 12.1333 12.2052 13.1369 10.9814 13.7679C9.75755 14.3989 8.36484 14.6246 7.00435 14.4125C5.64387 14.2003 4.38599 13.5613 3.41236 12.5877C2.43872 11.614 1.7997 10.3562 1.58756 8.99567C1.37543 7.63518 1.60114 6.24247 2.23213 5.01863C2.86312 3.79479 3.86672 2.80314 5.09804 2.18687C6.32935 1.57059 7.72467 1.36158 9.08252 1.59001C9.21231 1.61296 9.32779 1.68623 9.40383 1.79389C9.47988 1.90154 9.51034 2.03487 9.48859 2.16487C9.46684 2.29487 9.39464 2.41102 9.2877 2.48806C9.18075 2.5651 9.04771 2.5968 8.91752 2.57626C8.12885 2.44359 7.32074 2.48437 6.54944 2.69576C5.77814 2.90716 5.06216 3.28409 4.45134 3.80032C3.84052 4.31655 3.34953 4.95969 3.01254 5.68497C2.67555 6.41025 2.50065 7.20026 2.50002 8.00001C2.49883 9.34638 2.99367 10.646 3.89002 11.6506C4.25353 11.1234 4.71529 10.6712 5.25002 10.3188C5.29567 10.2885 5.34999 10.2741 5.40464 10.2777C5.4593 10.2813 5.51125 10.3027 5.55252 10.3388C6.23174 10.9265 7.09992 11.25 7.99814 11.25C8.89636 11.25 9.76454 10.9265 10.4438 10.3388C10.485 10.3027 10.537 10.2813 10.5916 10.2777C10.6463 10.2741 10.7006 10.2885 10.7463 10.3188C11.2815 10.6712 11.7439 11.1234 12.1081 11.6506C13.0052 10.6463 13.5007 9.34662 13.5 8.00001C13.5 7.69259 13.4745 7.3857 13.4238 7.08251C13.4123 7.01747 13.4138 6.95079 13.4282 6.88633C13.4426 6.82187 13.4696 6.76091 13.5077 6.70696C13.5458 6.65301 13.5943 6.60714 13.6502 6.57202C13.7061 6.53689 13.7685 6.51319 13.8336 6.50229C13.8988 6.49139 13.9654 6.49351 14.0298 6.50852C14.0941 6.52353 14.1548 6.55113 14.2084 6.58974C14.262 6.62835 14.3074 6.67719 14.342 6.73345C14.3766 6.78971 14.3997 6.85226 14.41 6.91751ZM5.25002 7.50001C5.25002 8.04391 5.4113 8.57559 5.71348 9.02782C6.01565 9.48006 6.44514 9.83253 6.94764 10.0407C7.45013 10.2488 8.00307 10.3033 8.53651 10.1972C9.06996 10.0911 9.55997 9.82915 9.94456 9.44455C10.3292 9.05996 10.5911 8.56995 10.6972 8.03651C10.8033 7.50306 10.7488 6.95012 10.5407 6.44763C10.3325 5.94513 9.98007 5.51564 9.52783 5.21347C9.0756 4.91129 8.54392 4.75001 8.00002 4.75001C7.27067 4.75001 6.5712 5.03974 6.05547 5.55546C5.53975 6.07119 5.25002 6.77066 5.25002 7.50001ZM14.8538 2.14626C14.8073 2.09977 14.7522 2.06289 14.6915 2.03773C14.6308 2.01257 14.5657 1.99961 14.5 1.99961C14.4343 1.99961 14.3692 2.01257 14.3085 2.03773C14.2478 2.06289 14.1927 2.09977 14.1463 2.14626L12.5 3.79313L11.8538 3.14626C11.8073 3.0998 11.7522 3.06295 11.6915 3.03781C11.6308 3.01267 11.5657 2.99973 11.5 2.99973C11.4343 2.99973 11.3693 3.01267 11.3086 3.03781C11.2479 3.06295 11.1927 3.0998 11.1463 3.14626C11.0998 3.19271 11.063 3.24786 11.0378 3.30856C11.0127 3.36926 10.9997 3.43431 10.9997 3.50001C10.9997 3.5657 11.0127 3.63076 11.0378 3.69146C11.063 3.75215 11.0998 3.8073 11.1463 3.85376L12.1463 4.85376C12.1927 4.90025 12.2478 4.93712 12.3085 4.96229C12.3692 4.98745 12.4343 5.0004 12.5 5.0004C12.5657 5.0004 12.6308 4.98745 12.6915 4.96229C12.7522 4.93712 12.8073 4.90025 12.8538 4.85376L14.8538 2.85376C14.9003 2.80732 14.9371 2.75218 14.9623 2.69148C14.9875 2.63078 15.0004 2.56571 15.0004 2.50001C15.0004 2.4343 14.9875 2.36924 14.9623 2.30854C14.9371 2.24784 14.9003 2.19269 14.8538 2.14626Z" fill="black"/>
</g>
<defs>
<clipPath id="clip0_5_217">
<rect width="16" height="16" fill="white"/>
</clipPath>
</defs>
</svg>
