<svg width="16" height="16" viewBox="0 0 16 16" fill="none" xmlns="http://www.w3.org/2000/svg">
<g clip-path="url(#clip0_5_431)">
<path d="M4.00751 9.23747C4.0092 9.27134 4.00399 9.3052 3.99219 9.33699C3.98039 9.36878 3.96224 9.39783 3.93885 9.42239C3.91547 9.44694 3.88733 9.46648 3.85616 9.47982C3.82498 9.49316 3.79142 9.50002 3.75751 9.49997H1.00001C0.887154 9.50014 0.777562 9.46213 0.689053 9.39212C0.600543 9.32211 0.538322 9.22421 0.512507 9.11435C0.496432 9.03915 0.497174 8.96133 0.514677 8.88646C0.53218 8.81158 0.566014 8.7415 0.613757 8.68122C1.05489 8.09621 1.64019 7.63559 2.31251 7.34435C2.01734 7.07523 1.79095 6.73929 1.6523 6.36468C1.51366 5.99008 1.4668 5.5877 1.51564 5.19126C1.56448 4.79481 1.70761 4.41584 1.93303 4.08609C2.15845 3.75633 2.45961 3.48539 2.81128 3.29596C3.16294 3.10653 3.55488 3.00412 3.95426 2.99731C4.35365 2.9905 4.74885 3.07949 5.10676 3.25682C5.46468 3.43416 5.7749 3.69467 6.01143 4.01655C6.24797 4.33843 6.40393 4.7123 6.46626 5.10685C6.47431 5.15991 6.4648 5.21414 6.43919 5.2613C6.41358 5.30846 6.37327 5.34596 6.32438 5.3681C5.63088 5.68871 5.04355 6.201 4.6317 6.84452C4.21985 7.48804 4.00066 8.23594 4.00001 8.99997C4.00001 9.07997 4.00001 9.15872 4.00751 9.23747ZM15.3825 8.6806C14.9424 8.09626 14.3584 7.6359 13.6875 7.34435C13.9827 7.07523 14.2091 6.73929 14.3477 6.36468C14.4864 5.99008 14.5332 5.5877 14.4844 5.19126C14.4355 4.79481 14.2924 4.41584 14.067 4.08609C13.8416 3.75633 13.5404 3.48539 13.1887 3.29596C12.8371 3.10653 12.4451 3.00412 12.0458 2.99731C11.6464 2.9905 11.2512 3.07949 10.8932 3.25682C10.5353 3.43416 10.2251 3.69467 9.98858 4.01655C9.75205 4.33843 9.59608 4.7123 9.53376 5.10685C9.52571 5.15991 9.53521 5.21414 9.56082 5.2613C9.58643 5.30846 9.62675 5.34596 9.67563 5.3681C10.3691 5.68871 10.9565 6.201 11.3683 6.84452C11.7802 7.48804 11.9993 8.23594 12 8.99997C12 9.07997 12 9.15872 11.9925 9.23747C11.9908 9.27134 11.996 9.3052 12.0078 9.33699C12.0196 9.36878 12.0378 9.39783 12.0612 9.42239C12.0845 9.44694 12.1127 9.46648 12.1439 9.47982C12.175 9.49316 12.2086 9.50002 12.2425 9.49997H15C15.1129 9.50014 15.2225 9.46213 15.311 9.39212C15.3995 9.32211 15.4617 9.22421 15.4875 9.11435C15.5037 9.03902 15.5029 8.96103 15.4853 8.88602C15.4677 8.81102 15.4337 8.74085 15.3856 8.6806H15.3825ZM9.82001 11.3793C10.3179 10.9981 10.6837 10.4704 10.8662 9.87045C11.0486 9.27051 11.0385 8.62848 10.8372 8.03459C10.6359 7.44071 10.2536 6.92483 9.74395 6.55945C9.23432 6.19408 8.62301 5.99759 7.99594 5.99759C7.36887 5.99759 6.75757 6.19408 6.24794 6.55945C5.73832 6.92483 5.35599 7.44071 5.1547 8.03459C4.95342 8.62848 4.94328 9.27051 5.12573 9.87045C5.30818 10.4704 5.67404 10.9981 6.17188 11.3793C5.28847 11.7621 4.5508 12.4177 4.06688 13.25C4.02299 13.326 3.99989 13.4122 3.99989 13.5C3.9999 13.5878 4.02301 13.674 4.06691 13.75C4.11081 13.826 4.17394 13.8892 4.24997 13.933C4.32599 13.9769 4.41223 14 4.50001 14H11.5C11.5878 14 11.674 13.9769 11.75 13.933C11.8261 13.8892 11.8892 13.826 11.9331 13.75C11.977 13.674 12.0001 13.5878 12.0001 13.5C12.0001 13.4122 11.977 13.326 11.9331 13.25C11.4482 12.4171 10.7091 11.7615 9.82438 11.3793H9.82001Z" fill="black"/>
</g>
<defs>
<clipPath id="clip0_5_431">
<rect width="16" height="16" fill="white"/>
</clipPath>
</defs>
</svg>
