<svg width="16" height="16" viewBox="0 0 16 16" fill="none" xmlns="http://www.w3.org/2000/svg">
<g clip-path="url(#clip0_5_209)">
<path d="M5.24995 7.49998C5.24995 6.95608 5.41123 6.42439 5.71341 5.97216C6.01558 5.51992 6.44507 5.16745 6.94757 4.95931C7.45007 4.75117 8.003 4.69671 8.53645 4.80282C9.0699 4.90893 9.5599 5.17084 9.94449 5.55543C10.3291 5.94003 10.591 6.43003 10.6971 6.96348C10.8032 7.49693 10.7488 8.04986 10.5406 8.55236C10.3325 9.05485 9.98 9.48434 9.52777 9.78652C9.07553 10.0887 8.54385 10.25 7.99995 10.25C7.27061 10.25 6.57113 9.96025 6.05541 9.44452C5.53968 8.92879 5.24995 8.22932 5.24995 7.49998ZM13.135 11.0737C13.0236 11.0091 12.8919 10.9887 12.7662 11.0166C12.6404 11.0445 12.5298 11.1186 12.4562 11.2244C12.3485 11.3728 12.2333 11.5156 12.1112 11.6525C11.7474 11.1245 11.2853 10.6716 10.75 10.3187C10.7043 10.2885 10.65 10.274 10.5953 10.2776C10.5407 10.2813 10.4887 10.3027 10.4475 10.3387C9.76822 10.9265 8.90004 11.25 8.00183 11.25C7.10361 11.25 6.23543 10.9265 5.5562 10.3387C5.51464 10.3018 5.46197 10.2798 5.40651 10.2762C5.35104 10.2726 5.29596 10.2875 5.24995 10.3187C4.71455 10.671 4.25214 11.1232 3.88808 11.6506C3.10724 10.7738 2.62873 9.66932 2.52308 8.49998H3.48558C3.56651 8.50125 3.64659 8.48334 3.71927 8.44771C3.79194 8.41208 3.85515 8.35974 3.9037 8.29498C3.97415 8.19866 4.00784 8.08033 3.99867 7.96136C3.9895 7.84238 3.93808 7.73061 3.8537 7.64623L2.3537 6.14623C2.30726 6.09974 2.25212 6.06286 2.19142 6.0377C2.13072 6.01253 2.06566 5.99958 1.99995 5.99958C1.93424 5.99958 1.86918 6.01253 1.80848 6.0377C1.74778 6.06286 1.69264 6.09974 1.6462 6.14623L0.146201 7.64623C0.0618228 7.73061 0.0104046 7.84238 0.00123498 7.96136C-0.00793467 8.08033 0.0257489 8.19866 0.0962006 8.29498C0.144755 8.35974 0.207959 8.41208 0.280635 8.44771C0.353312 8.48334 0.433394 8.50125 0.514326 8.49998H1.5187C1.62096 9.82929 2.12952 11.095 2.97543 12.1255C3.82135 13.156 4.96369 13.9015 6.24759 14.2609C7.53149 14.6202 8.89483 14.5761 10.1528 14.1344C11.4108 13.6927 12.5025 12.8749 13.28 11.7919C13.3201 11.736 13.3482 11.6725 13.3627 11.6053C13.3771 11.5381 13.3776 11.4686 13.364 11.4012C13.3504 11.3338 13.323 11.2699 13.2836 11.2136C13.2442 11.1572 13.1936 11.1096 13.135 11.0737ZM15.9618 7.80873C15.924 7.71736 15.8599 7.63925 15.7777 7.5843C15.6955 7.52934 15.5988 7.5 15.5 7.49998H14.4812C14.3789 6.17066 13.8704 4.90495 13.0245 3.87443C12.1786 2.84391 11.0362 2.09845 9.75231 1.73909C8.46841 1.37974 7.10507 1.42389 5.8471 1.86555C4.58914 2.30721 3.49742 3.12502 2.71995 4.2081C2.64254 4.31585 2.6111 4.44993 2.63255 4.58085C2.654 4.71178 2.72658 4.82882 2.83433 4.90623C2.94207 4.98364 3.07615 5.01507 3.20708 4.99363C3.338 4.97218 3.45504 4.8996 3.53245 4.79185C4.18656 3.88113 5.1034 3.19209 6.16012 2.81706C7.21683 2.44204 8.36292 2.39896 9.4448 2.69358C10.5267 2.98821 11.4927 3.60647 12.2133 4.46552C12.934 5.32456 13.3748 6.38334 13.4768 7.49998H12.5C12.401 7.4999 12.3043 7.52918 12.222 7.58412C12.1397 7.63905 12.0755 7.71717 12.0376 7.80858C11.9998 7.89999 11.9899 8.00059 12.0092 8.09763C12.0285 8.19467 12.0762 8.2838 12.1462 8.35373L13.6462 9.85373C13.6926 9.90021 13.7478 9.93709 13.8085 9.96226C13.8692 9.98742 13.9342 10.0004 14 10.0004C14.0657 10.0004 14.1307 9.98742 14.1914 9.96226C14.2521 9.93709 14.3073 9.90021 14.3537 9.85373L15.8537 8.35373C15.9236 8.28376 15.9712 8.19464 15.9904 8.09763C16.0097 8.00062 15.9997 7.90008 15.9618 7.80873Z" fill="black"/>
</g>
<defs>
<clipPath id="clip0_5_209">
<rect width="16" height="16" fill="white"/>
</clipPath>
</defs>
</svg>
