<svg width="16" height="16" viewBox="0 0 16 16" fill="none" xmlns="http://www.w3.org/2000/svg">
<g clip-path="url(#clip0_5_212)">
<path d="M15.9999 8.50006C15.9999 8.63267 15.9473 8.75984 15.8535 8.85361C15.7597 8.94738 15.6325 9.00006 15.4999 9.00006H14.4999V10.0001C14.4999 10.1327 14.4473 10.2598 14.3535 10.3536C14.2597 10.4474 14.1325 10.5001 13.9999 10.5001C13.8673 10.5001 13.7402 10.4474 13.6464 10.3536C13.5526 10.2598 13.4999 10.1327 13.4999 10.0001V9.00006H12.4999C12.3673 9.00006 12.2402 8.94738 12.1464 8.85361C12.0526 8.75984 11.9999 8.63267 11.9999 8.50006C11.9999 8.36745 12.0526 8.24027 12.1464 8.1465C12.2402 8.05274 12.3673 8.00006 12.4999 8.00006H13.4999V7.00006C13.4999 6.86745 13.5526 6.74027 13.6464 6.6465C13.7402 6.55274 13.8673 6.50006 13.9999 6.50006C14.1325 6.50006 14.2597 6.55274 14.3535 6.6465C14.4473 6.74027 14.4999 6.86745 14.4999 7.00006V8.00006H15.4999C15.6325 8.00006 15.7597 8.05274 15.8535 8.1465C15.9473 8.24027 15.9999 8.36745 15.9999 8.50006ZM8.99994 9.85506C9.78375 9.36687 10.3872 8.63669 10.7191 7.77498C11.051 6.91327 11.0932 5.96692 10.8393 5.07909C10.5854 4.19127 10.0493 3.41029 9.31202 2.85429C8.57476 2.2983 7.67647 1.99756 6.75307 1.99756C5.82966 1.99756 4.93137 2.2983 4.19411 2.85429C3.45685 3.41029 2.92072 4.19127 2.66685 5.07909C2.41297 5.96692 2.45516 6.91327 2.78702 7.77498C3.11889 8.63669 3.72238 9.36687 4.50619 9.85506C3.21556 10.2776 2.05431 11.0669 1.12057 12.1782C1.05943 12.2508 1.02026 12.3394 1.00762 12.4335C0.994984 12.5276 1.00941 12.6234 1.0492 12.7096C1.089 12.7958 1.15253 12.8689 1.23235 12.9204C1.31217 12.9718 1.40498 12.9994 1.49994 13.0001H11.9999C12.0952 13.0002 12.1885 12.973 12.2689 12.9219C12.3493 12.8707 12.4134 12.7977 12.4536 12.7113C12.4939 12.625 12.5086 12.5289 12.4961 12.4345C12.4836 12.34 12.4444 12.2511 12.3831 12.1782C11.4487 11.0669 10.2874 10.2776 8.99994 9.85506Z" fill="black"/>
</g>
<defs>
<clipPath id="clip0_5_212">
<rect width="16" height="16" fill="white"/>
</clipPath>
</defs>
</svg>
