<svg width="16" height="16" viewBox="0 0 16 16" fill="none" xmlns="http://www.w3.org/2000/svg">
<g clip-path="url(#clip0_5_216)">
<path d="M6.01633 2.31244C5.98384 2.18441 6.00333 2.04873 6.07055 1.93502C6.13776 1.82131 6.24724 1.73882 6.37508 1.70557C7.44097 1.43066 8.55918 1.43066 9.62508 1.70557C9.74314 1.73579 9.84609 1.8081 9.9146 1.90889C9.9831 2.00969 10.0124 2.13203 9.99708 2.25293C9.98172 2.37383 9.92275 2.48496 9.83123 2.56543C9.73971 2.6459 9.62194 2.69018 9.50008 2.68994C9.4579 2.68972 9.41591 2.68426 9.37508 2.67369C8.4732 2.44083 7.52695 2.44083 6.62508 2.67369C6.56138 2.69002 6.4951 2.69362 6.43001 2.68429C6.36492 2.67496 6.30231 2.65289 6.24577 2.61934C6.18923 2.58578 6.13985 2.5414 6.10048 2.48874C6.06111 2.43608 6.03251 2.37617 6.01633 2.31244ZM2.08445 6.87494C2.14773 6.89252 2.21386 6.89746 2.27905 6.88947C2.34423 6.88149 2.40721 6.86074 2.46438 6.82841C2.52155 6.79608 2.57179 6.75281 2.61223 6.70106C2.65267 6.64931 2.68252 6.5901 2.70008 6.52682C2.9495 5.62967 3.42261 4.81054 4.07508 4.14619C4.16207 4.05053 4.20863 3.92488 4.20496 3.79562C4.2013 3.66636 4.1477 3.54355 4.05542 3.45297C3.96314 3.36239 3.83935 3.31108 3.71005 3.30982C3.58075 3.30855 3.45598 3.35743 3.36195 3.44619C2.5911 4.23114 2.032 5.19883 1.73695 6.25869C1.71927 6.32197 1.71423 6.38812 1.72213 6.45335C1.73003 6.51857 1.7507 6.58161 1.78298 6.63884C1.81525 6.69607 1.85849 6.74638 1.91022 6.78689C1.96195 6.82741 2.02115 6.85733 2.08445 6.87494ZM13.2995 6.52744C13.3349 6.65524 13.4197 6.76372 13.5352 6.829C13.6506 6.89429 13.7873 6.91104 13.9151 6.87557C14.0429 6.84009 14.1514 6.75531 14.2166 6.63985C14.2819 6.5244 14.2987 6.38774 14.2632 6.25994C13.9683 5.20003 13.4092 4.23231 12.6382 3.44744C12.5922 3.40062 12.5373 3.36332 12.4769 3.33768C12.4164 3.31204 12.3515 3.29856 12.2858 3.29801C12.2202 3.29746 12.155 3.30985 12.0942 3.33447C12.0333 3.35909 11.9778 3.39546 11.931 3.4415C11.8842 3.48755 11.8469 3.54237 11.8213 3.60282C11.7956 3.66328 11.7821 3.7282 11.7816 3.79387C11.781 3.85954 11.7934 3.92467 11.818 3.98555C11.8427 4.04643 11.879 4.10187 11.9251 4.14869C12.5771 4.81276 13.05 5.63143 13.2995 6.52807V6.52744ZM13.9163 9.12494C13.853 9.10738 13.7868 9.10246 13.7216 9.11049C13.6564 9.11851 13.5934 9.13931 13.5362 9.1717C13.479 9.20409 13.4288 9.24744 13.3884 9.29925C13.348 9.35107 13.3182 9.41035 13.3007 9.47369C13.0765 10.2806 12.6703 11.0253 12.1132 11.6506C11.7487 11.1233 11.2858 10.6713 10.7501 10.3193C10.7046 10.2891 10.6504 10.2747 10.5959 10.2782C10.5414 10.2817 10.4895 10.3029 10.4482 10.3387C9.76887 10.9265 8.90059 11.25 8.00226 11.25C7.10394 11.25 6.23565 10.9265 5.55633 10.3387C5.51499 10.3028 5.463 10.2814 5.40835 10.2779C5.3537 10.2744 5.29941 10.289 5.25383 10.3193C4.71462 10.6665 4.2477 11.1147 3.87883 11.6393C3.32705 11.0158 2.92457 10.2747 2.70195 9.47244C2.66648 9.34464 2.58169 9.23617 2.46624 9.17088C2.35079 9.10559 2.21413 9.08884 2.08633 9.12432C1.95853 9.15979 1.85005 9.24458 1.78476 9.36003C1.71948 9.47548 1.70273 9.61214 1.7382 9.73994C2.12036 11.1075 2.93951 12.3124 4.07062 13.1707C5.20173 14.0291 6.58265 14.4937 8.00258 14.4937C9.4225 14.4937 10.8034 14.0291 11.9345 13.1707C13.0656 12.3124 13.8848 11.1075 14.267 9.73994C14.2844 9.67654 14.2892 9.61032 14.281 9.54507C14.2728 9.47982 14.2518 9.41683 14.2192 9.35971C14.1867 9.30258 14.1431 9.25244 14.0912 9.21215C14.0392 9.17187 13.9798 9.14223 13.9163 9.12494ZM8.00008 10.2499C8.54397 10.2499 9.07566 10.0887 9.52789 9.78648C9.98013 9.48431 10.3326 9.05482 10.5407 8.55232C10.7489 8.04982 10.8033 7.49689 10.6972 6.96344C10.5911 6.43 10.3292 5.93999 9.94462 5.5554C9.56003 5.1708 9.07002 4.90889 8.53657 4.80278C8.00313 4.69667 7.45019 4.75113 6.9477 4.95927C6.4452 5.16741 6.01571 5.51989 5.71353 5.97212C5.41136 6.42436 5.25008 6.95604 5.25008 7.49994C5.2509 8.22903 5.5409 8.92803 6.05645 9.44357C6.57199 9.95912 7.27098 10.2491 8.00008 10.2499Z" fill="black"/>
</g>
<defs>
<clipPath id="clip0_5_216">
<rect width="16" height="16" fill="white"/>
</clipPath>
</defs>
</svg>
