<svg width="16" height="16" viewBox="0 0 16 16" fill="none" xmlns="http://www.w3.org/2000/svg">
<g clip-path="url(#clip0_5_493)">
<path d="M7.9999 4.75005C8.5438 4.75005 9.07548 4.91134 9.52772 5.21351C9.97995 5.51568 10.3324 5.94517 10.5406 6.44767C10.7487 6.95017 10.8032 7.5031 10.6971 8.03655C10.591 8.57 10.329 9.06 9.94444 9.44459C9.55985 9.82919 9.06985 10.0911 8.5364 10.1972C8.00295 10.3033 7.45002 10.2489 6.94752 10.0407C6.44502 9.83258 6.01553 9.4801 5.71336 9.02787C5.41118 8.57563 5.2499 8.04395 5.2499 7.50005C5.2499 6.77071 5.53963 6.07123 6.05536 5.55551C6.57108 5.03978 7.27055 4.75005 7.9999 4.75005ZM10.9999 4.00005H13.9999C14.1325 4.00005 14.2597 3.94737 14.3535 3.8536C14.4472 3.75984 14.4999 3.63266 14.4999 3.50005C14.4999 3.36744 14.4472 3.24027 14.3535 3.1465C14.2597 3.05273 14.1325 3.00005 13.9999 3.00005H10.9999C10.8673 3.00005 10.7401 3.05273 10.6463 3.1465C10.5526 3.24027 10.4999 3.36744 10.4999 3.50005C10.4999 3.63266 10.5526 3.75984 10.6463 3.8536C10.7401 3.94737 10.8673 4.00005 10.9999 4.00005ZM13.4918 5.5288C13.3668 5.57308 13.2645 5.66517 13.2075 5.78484C13.1504 5.90451 13.1432 6.04194 13.1874 6.16693C13.5142 7.09382 13.5867 8.09136 13.3973 9.05577C13.208 10.0202 12.7636 10.9162 12.1105 11.6507C11.7466 11.1235 11.2847 10.6713 10.7499 10.3188C10.7042 10.2885 10.6499 10.2741 10.5953 10.2777C10.5406 10.2813 10.4887 10.3028 10.4474 10.3388C9.76807 10.9266 8.89979 11.2501 8.00146 11.2501C7.10314 11.2501 6.23485 10.9266 5.55552 10.3388C5.51401 10.302 5.46146 10.2801 5.40613 10.2765C5.35081 10.2729 5.29585 10.2878 5.2499 10.3188C4.7145 10.671 4.25209 11.1233 3.88802 11.6507C3.18462 10.858 2.72518 9.87906 2.56498 8.83149C2.40478 7.78392 2.55063 6.71238 2.98499 5.74574C3.41936 4.7791 4.12373 3.95853 5.01341 3.38273C5.90308 2.80693 6.94015 2.50041 7.9999 2.50005C8.30732 2.5 8.61421 2.52551 8.9174 2.5763C9.04759 2.59684 9.18063 2.56515 9.28758 2.48811C9.39453 2.41107 9.46673 2.29491 9.48847 2.16491C9.51022 2.03492 9.47976 1.90159 9.40372 1.79393C9.32767 1.68628 9.21219 1.613 9.0824 1.59005C7.67757 1.35397 6.23409 1.58638 4.97436 2.25147C3.71462 2.91656 2.70854 3.97744 2.11112 5.27064C1.5137 6.56384 1.35809 8.0176 1.66826 9.40795C1.97844 10.7983 2.73719 12.0481 3.82762 12.9647C4.91804 13.8814 6.27963 14.414 7.7026 14.4807C9.12557 14.5473 10.531 14.1441 11.7022 13.3333C12.8735 12.5225 13.7457 11.3491 14.1844 9.99377C14.6231 8.63847 14.6039 7.17652 14.1299 5.83318C14.0856 5.70821 13.9935 5.60594 13.8739 5.54886C13.7542 5.49178 13.6168 5.48456 13.4918 5.5288Z" fill="black"/>
</g>
<defs>
<clipPath id="clip0_5_493">
<rect width="16" height="16" fill="white"/>
</clipPath>
</defs>
</svg>
