<svg width="16" height="16" viewBox="0 0 16 16" fill="none" xmlns="http://www.w3.org/2000/svg">
<g clip-path="url(#clip0_5_1360)">
<path d="M12.3831 12.1782C12.4445 12.2511 12.4837 12.34 12.4962 12.4345C12.5087 12.5289 12.4939 12.625 12.4537 12.7113C12.4134 12.7977 12.3493 12.8707 12.269 12.9219C12.1886 12.973 12.0953 13.0002 12 13.0001H1.5C1.40478 13 1.31155 12.9728 1.23127 12.9216C1.15098 12.8704 1.08699 12.7974 1.04681 12.711C1.00663 12.6247 0.991942 12.5287 1.00447 12.4343C1.01699 12.3399 1.05621 12.251 1.1175 12.1782C2.05125 11.0669 3.2125 10.2776 4.50313 9.85506C3.71932 9.36687 3.11583 8.63669 2.78396 7.77498C2.4521 6.91327 2.40991 5.96692 2.66379 5.07909C2.91766 4.19127 3.45378 3.41029 4.19105 2.85429C4.92831 2.2983 5.8266 1.99756 6.75 1.99756C7.67341 1.99756 8.5717 2.2983 9.30896 2.85429C10.0462 3.41029 10.5823 4.19127 10.8362 5.07909C11.0901 5.96692 11.0479 6.91327 10.716 7.77498C10.3842 8.63669 9.78069 9.36687 8.99688 9.85506C10.2875 10.2776 11.4488 11.0669 12.3831 12.1782ZM15.9488 9.62506C15.9048 9.70118 15.8416 9.76436 15.7654 9.80826C15.6893 9.85215 15.6029 9.87519 15.515 9.87506C15.4272 9.87533 15.3409 9.85225 15.265 9.80818L14.9731 9.63943C14.8334 9.75927 14.6728 9.85229 14.4994 9.91381V10.2501C14.4994 10.3827 14.4467 10.5098 14.3529 10.6036C14.2592 10.6974 14.132 10.7501 13.9994 10.7501C13.8668 10.7501 13.7396 10.6974 13.6458 10.6036C13.5521 10.5098 13.4994 10.3827 13.4994 10.2501V9.91381C13.3259 9.85229 13.1653 9.75927 13.0256 9.63943L12.7338 9.80818C12.6578 9.85225 12.5715 9.87533 12.4838 9.87506C12.3737 9.8751 12.2666 9.8388 12.1793 9.77179C12.0919 9.70478 12.0291 9.61081 12.0006 9.50445C11.9721 9.3981 11.9795 9.28532 12.0217 9.18361C12.0638 9.08189 12.1384 8.99694 12.2338 8.94193L12.525 8.77381C12.4908 8.59291 12.4908 8.40721 12.525 8.22631L12.2338 8.05818C12.1769 8.02535 12.127 7.98164 12.087 7.92954C12.047 7.87744 12.0177 7.81798 12.0007 7.75455C11.9837 7.69111 11.9794 7.62495 11.9879 7.55984C11.9965 7.49473 12.0178 7.43194 12.0506 7.37506C12.0835 7.31818 12.1272 7.26832 12.1793 7.22834C12.2314 7.18835 12.2908 7.15902 12.3543 7.14202C12.4177 7.12501 12.4839 7.12067 12.549 7.12923C12.6141 7.1378 12.6769 7.1591 12.7338 7.19193L13.0256 7.36068C13.1653 7.24084 13.3259 7.14783 13.4994 7.08631V6.75006C13.4994 6.61745 13.5521 6.49027 13.6458 6.3965C13.7396 6.30274 13.8668 6.25006 13.9994 6.25006C14.132 6.25006 14.2592 6.30274 14.3529 6.3965C14.4467 6.49027 14.4994 6.61745 14.4994 6.75006V7.08631C14.6728 7.14783 14.8334 7.24084 14.9731 7.36068L15.265 7.19193C15.3219 7.1591 15.3847 7.1378 15.4498 7.12923C15.5149 7.12067 15.5811 7.12501 15.6445 7.14202C15.7079 7.15902 15.7674 7.18835 15.8195 7.22834C15.8716 7.26832 15.9153 7.31818 15.9481 7.37506C15.981 7.43194 16.0023 7.49473 16.0108 7.55984C16.0194 7.62495 16.0151 7.69111 15.998 7.75455C15.981 7.81798 15.9517 7.87744 15.9117 7.92954C15.8717 7.98164 15.8219 8.02535 15.765 8.05818L15.4738 8.22631C15.5079 8.40721 15.5079 8.59291 15.4738 8.77381L15.765 8.94193C15.8219 8.9747 15.8719 9.01837 15.9119 9.07045C15.952 9.12252 15.9814 9.18197 15.9984 9.24542C16.0155 9.30886 16.0199 9.37504 16.0114 9.44018C16.0029 9.50532 15.9816 9.56815 15.9488 9.62506ZM14 9.00006C14.0989 9.00006 14.1956 8.97073 14.2778 8.91579C14.36 8.86085 14.4241 8.78276 14.4619 8.6914C14.4998 8.60004 14.5097 8.4995 14.4904 8.40251C14.4711 8.30552 14.4235 8.21643 14.3536 8.1465C14.2836 8.07658 14.1945 8.02896 14.0976 8.00967C14.0006 7.99037 13.9 8.00027 13.8087 8.03812C13.7173 8.07596 13.6392 8.14005 13.5843 8.22227C13.5293 8.3045 13.5 8.40117 13.5 8.50006C13.5 8.63267 13.5527 8.75984 13.6465 8.85361C13.7402 8.94738 13.8674 9.00006 14 9.00006Z" fill="black"/>
</g>
<defs>
<clipPath id="clip0_5_1360">
<rect width="16" height="16" fill="white"/>
</clipPath>
</defs>
</svg>
