<svg width="16" height="16" viewBox="0 0 16 16" fill="none" xmlns="http://www.w3.org/2000/svg">
<g clip-path="url(#clip0_5_211)">
<path d="M12.3831 12.6782C12.4445 12.7511 12.4837 12.84 12.4962 12.9345C12.5087 13.0289 12.4939 13.125 12.4537 13.2113C12.4134 13.2977 12.3493 13.3707 12.269 13.4219C12.1886 13.473 12.0953 13.5002 12 13.5001H1.5C1.40478 13.5 1.31155 13.4728 1.23127 13.4216C1.15098 13.3704 1.08699 13.2974 1.04681 13.211C1.00663 13.1247 0.991942 13.0287 1.00447 12.9343C1.01699 12.8399 1.05621 12.751 1.1175 12.6782C2.05125 11.5669 3.2125 10.7776 4.50313 10.3551C3.71932 9.86687 3.11583 9.13669 2.78396 8.27498C2.4521 7.41327 2.40991 6.46692 2.66379 5.57909C2.91766 4.69127 3.45378 3.91029 4.19105 3.35429C4.92831 2.7983 5.8266 2.49756 6.75 2.49756C7.67341 2.49756 8.5717 2.7983 9.30896 3.35429C10.0462 3.91029 10.5823 4.69127 10.8362 5.57909C11.0901 6.46692 11.0479 7.41327 10.716 8.27498C10.3842 9.13669 9.78069 9.86687 8.99688 10.3551C10.2875 10.7776 11.4488 11.5669 12.3831 12.6782ZM12.3038 3.83693C12.2433 3.86269 12.1886 3.9001 12.1426 3.94703C12.0967 3.99395 12.0604 4.04947 12.0359 4.11042C12.0114 4.17136 11.9992 4.23653 11.9999 4.30221C12.0006 4.36788 12.0142 4.43278 12.04 4.49318C12.3436 5.20688 12.5 5.97449 12.5 6.75006C12.5 7.52563 12.3436 8.29323 12.04 9.00693C11.9879 9.12893 11.9863 9.26664 12.0357 9.38977C12.0851 9.5129 12.1814 9.61136 12.3034 9.6635C12.4254 9.71563 12.5632 9.71716 12.6863 9.66776C12.8094 9.61835 12.9079 9.52206 12.96 9.40006C13.3163 8.56201 13.5 7.66071 13.5 6.75006C13.5 5.8394 13.3163 4.9381 12.96 4.10006C12.9079 3.97815 12.8094 3.88195 12.6864 3.8326C12.5633 3.78326 12.4257 3.78482 12.3038 3.83693ZM14.7944 3.30318C14.7698 3.24095 14.7331 3.18428 14.6862 3.13651C14.6394 3.08875 14.5835 3.05087 14.5217 3.02512C14.46 2.99937 14.3937 2.98627 14.3268 2.98659C14.2599 2.98692 14.1938 3.00066 14.1323 3.02701C14.0708 3.05336 14.0152 3.09179 13.9688 3.14C13.9225 3.18822 13.8863 3.24525 13.8623 3.30772C13.8384 3.37018 13.8272 3.43682 13.8295 3.50367C13.8318 3.57053 13.8475 3.63625 13.8756 3.69693C14.2876 4.66209 14.5 5.70065 14.5 6.75006C14.5 7.79947 14.2876 8.83803 13.8756 9.80318C13.8475 9.86387 13.8318 9.92959 13.8295 9.99644C13.8272 10.0633 13.8384 10.1299 13.8623 10.1924C13.8863 10.2549 13.9225 10.3119 13.9688 10.3601C14.0152 10.4083 14.0708 10.4468 14.1323 10.4731C14.1938 10.4995 14.2599 10.5132 14.3268 10.5135C14.3937 10.5139 14.46 10.5007 14.5217 10.475C14.5835 10.4492 14.6394 10.4114 14.6862 10.3636C14.7331 10.3158 14.7698 10.2592 14.7944 10.1969C15.26 9.10743 15.5 7.93488 15.5 6.75006C15.5 5.56523 15.26 4.39269 14.7944 3.30318Z" fill="black"/>
</g>
<defs>
<clipPath id="clip0_5_211">
<rect width="16" height="16" fill="white"/>
</clipPath>
</defs>
</svg>
