<svg width="16" height="16" viewBox="0 0 16 16" fill="none" xmlns="http://www.w3.org/2000/svg">
<g clip-path="url(#clip0_5_1428)">
<path d="M14 2.5V4.75C14 4.88261 13.9473 5.00979 13.8536 5.10355C13.7598 5.19732 13.6326 5.25 13.5 5.25C13.3674 5.25 13.2402 5.19732 13.1464 5.10355C13.0527 5.00979 13 4.88261 13 4.75V3H11.25C11.1174 3 10.9902 2.94732 10.8964 2.85355C10.8027 2.75979 10.75 2.63261 10.75 2.5C10.75 2.36739 10.8027 2.24021 10.8964 2.14645C10.9902 2.05268 11.1174 2 11.25 2H13.5C13.6326 2 13.7598 2.05268 13.8536 2.14645C13.9473 2.24021 14 2.36739 14 2.5ZM13.5 10.75C13.3674 10.75 13.2402 10.8027 13.1464 10.8964C13.0527 10.9902 13 11.1174 13 11.25V13H11.25C11.1174 13 10.9902 13.0527 10.8964 13.1464C10.8027 13.2402 10.75 13.3674 10.75 13.5C10.75 13.6326 10.8027 13.7598 10.8964 13.8536C10.9902 13.9473 11.1174 14 11.25 14H13.5C13.6326 14 13.7598 13.9473 13.8536 13.8536C13.9473 13.7598 14 13.6326 14 13.5V11.25C14 11.1174 13.9473 10.9902 13.8536 10.8964C13.7598 10.8027 13.6326 10.75 13.5 10.75ZM4.75 13H3V11.25C3 11.1174 2.94732 10.9902 2.85355 10.8964C2.75979 10.8027 2.63261 10.75 2.5 10.75C2.36739 10.75 2.24021 10.8027 2.14645 10.8964C2.05268 10.9902 2 11.1174 2 11.25V13.5C2 13.6326 2.05268 13.7598 2.14645 13.8536C2.24021 13.9473 2.36739 14 2.5 14H4.75C4.88261 14 5.00979 13.9473 5.10355 13.8536C5.19732 13.7598 5.25 13.6326 5.25 13.5C5.25 13.3674 5.19732 13.2402 5.10355 13.1464C5.00979 13.0527 4.88261 13 4.75 13ZM2.5 5.25C2.63261 5.25 2.75979 5.19732 2.85355 5.10355C2.94732 5.00979 3 4.88261 3 4.75V3H4.75C4.88261 3 5.00979 2.94732 5.10355 2.85355C5.19732 2.75979 5.25 2.63261 5.25 2.5C5.25 2.36739 5.19732 2.24021 5.10355 2.14645C5.00979 2.05268 4.88261 2 4.75 2H2.5C2.36739 2 2.24021 2.05268 2.14645 2.14645C2.05268 2.24021 2 2.36739 2 2.5V4.75C2 4.88261 2.05268 5.00979 2.14645 5.10355C2.24021 5.19732 2.36739 5.25 2.5 5.25ZM6.3125 8.84437C5.6333 9.13903 5.04295 9.60614 4.6 10.1994C4.54411 10.2737 4.51003 10.3621 4.50159 10.4546C4.49316 10.5472 4.5107 10.6403 4.55225 10.7235C4.5938 10.8066 4.6577 10.8766 4.7368 10.9254C4.81589 10.9743 4.90704 11.0001 5 11H11C11.093 11.0001 11.1841 10.9743 11.2632 10.9254C11.3423 10.8766 11.4062 10.8066 11.4478 10.7235C11.4893 10.6403 11.5068 10.5472 11.4984 10.4546C11.49 10.3621 11.4559 10.2737 11.4 10.1994C10.9571 9.60614 10.3667 9.13903 9.6875 8.84437C10.0598 8.50446 10.3206 8.05993 10.4358 7.56912C10.5509 7.07832 10.515 6.56416 10.3327 6.09414C10.1504 5.62412 9.83029 5.22019 9.41433 4.93536C8.99837 4.65053 8.50601 4.49812 8.00187 4.49812C7.49774 4.49812 7.00538 4.65053 6.58942 4.93536C6.17346 5.22019 5.85332 5.62412 5.67103 6.09414C5.48874 6.56416 5.45281 7.07832 5.56796 7.56912C5.6831 8.05993 5.94394 8.50446 6.31625 8.84437H6.3125Z" fill="black"/>
</g>
<defs>
<clipPath id="clip0_5_1428">
<rect width="16" height="16" fill="white"/>
</clipPath>
</defs>
</svg>
