<svg width="16" height="16" viewBox="0 0 16 16" fill="none" xmlns="http://www.w3.org/2000/svg">
<g clip-path="url(#clip0_5_214)">
<path d="M14.2656 3.94187L13.9744 3.77375C14.0086 3.59285 14.0086 3.40715 13.9744 3.22625L14.2656 3.05813C14.3805 2.99182 14.4643 2.8826 14.4987 2.75449C14.533 2.62638 14.5151 2.48987 14.4488 2.375C14.3825 2.26013 14.2732 2.1763 14.1451 2.14196C14.017 2.10762 13.8805 2.12557 13.7656 2.19187L13.4738 2.36063C13.3341 2.24079 13.1735 2.14777 13 2.08625V1.75C13 1.61739 12.9473 1.49021 12.8536 1.39645C12.7598 1.30268 12.6326 1.25 12.5 1.25C12.3674 1.25 12.2402 1.30268 12.1465 1.39645C12.0527 1.49021 12 1.61739 12 1.75V2.08625C11.8266 2.14777 11.6659 2.24079 11.5263 2.36063L11.2344 2.19187C11.1775 2.15904 11.1147 2.13774 11.0496 2.12917C10.9845 2.12061 10.9183 2.12495 10.8549 2.14196C10.7915 2.15896 10.732 2.18829 10.6799 2.22828C10.6278 2.26827 10.5841 2.31812 10.5513 2.375C10.5184 2.43188 10.4971 2.49467 10.4886 2.55978C10.48 2.62489 10.4843 2.69105 10.5013 2.75449C10.5184 2.81792 10.5477 2.87739 10.5877 2.92948C10.6277 2.98158 10.6775 3.02529 10.7344 3.05813L11.0256 3.22625C10.9915 3.40715 10.9915 3.59285 11.0256 3.77375L10.7344 3.94187C10.639 3.99688 10.5645 4.08184 10.5223 4.18355C10.4801 4.28526 10.4727 4.39804 10.5012 4.5044C10.5297 4.61075 10.5925 4.70472 10.6799 4.77173C10.7672 4.83874 10.8743 4.87504 10.9844 4.875C11.0722 4.87527 11.1585 4.85219 11.2344 4.80813L11.5263 4.63938C11.6659 4.75921 11.8266 4.85223 12 4.91375V5.25C12 5.38261 12.0527 5.50979 12.1465 5.60355C12.2402 5.69732 12.3674 5.75 12.5 5.75C12.6326 5.75 12.7598 5.69732 12.8536 5.60355C12.9473 5.50979 13 5.38261 13 5.25V4.91375C13.1735 4.85223 13.3341 4.75921 13.4738 4.63938L13.7656 4.80813C13.8416 4.85219 13.9279 4.87527 14.0156 4.875C14.1257 4.87504 14.2328 4.83874 14.3201 4.77173C14.4075 4.70472 14.4703 4.61075 14.4988 4.5044C14.5273 4.39804 14.5199 4.28526 14.4777 4.18355C14.4356 4.08184 14.361 3.99688 14.2656 3.94187ZM12.5 4C12.4011 4 12.3045 3.97068 12.2222 3.91573C12.14 3.86079 12.0759 3.7827 12.0381 3.69134C12.0002 3.59998 11.9903 3.49945 12.0096 3.40245C12.0289 3.30546 12.0765 3.21637 12.1465 3.14645C12.2164 3.07652 12.3055 3.0289 12.4025 3.00961C12.4995 2.99031 12.6 3.00022 12.6914 3.03806C12.7827 3.0759 12.8608 3.13999 12.9158 3.22221C12.9707 3.30444 13 3.40111 13 3.5C13 3.63261 12.9473 3.75979 12.8536 3.85355C12.7598 3.94732 12.6326 4 12.5 4ZM8.00002 4.75C8.54392 4.75 9.0756 4.91128 9.52783 5.21346C9.98007 5.51563 10.3325 5.94512 10.5407 6.44762C10.7488 6.95012 10.8033 7.50305 10.6972 8.0365C10.5911 8.56995 10.3292 9.05995 9.94456 9.44454C9.55997 9.82914 9.06996 10.0911 8.53651 10.1972C8.00307 10.3033 7.45013 10.2488 6.94764 10.0407C6.44514 9.83253 6.01565 9.48005 5.71348 9.02782C5.4113 8.57558 5.25002 8.0439 5.25002 7.5C5.25002 6.77065 5.53975 6.07118 6.05547 5.55546C6.5712 5.03973 7.27067 4.75 8.00002 4.75ZM14.41 6.9175C14.6384 8.27535 14.4294 9.67066 13.8132 10.902C13.1969 12.1333 12.2052 13.1369 10.9814 13.7679C9.75755 14.3989 8.36484 14.6246 7.00435 14.4125C5.64387 14.2003 4.38599 13.5613 3.41236 12.5877C2.43872 11.614 1.7997 10.3562 1.58756 8.99566C1.37543 7.63517 1.60114 6.24247 2.23213 5.01862C2.86312 3.79478 3.86672 2.80313 5.09804 2.18686C6.32935 1.57058 7.72467 1.36157 9.08252 1.59C9.21231 1.61295 9.32779 1.68623 9.40383 1.79388C9.47988 1.90154 9.51034 2.03487 9.48859 2.16486C9.46684 2.29486 9.39464 2.41102 9.2877 2.48806C9.18075 2.5651 9.04771 2.59679 8.91752 2.57625C8.12885 2.44358 7.32074 2.48436 6.54944 2.69575C5.77814 2.90715 5.06216 3.28408 4.45134 3.80031C3.84052 4.31655 3.34953 4.95968 3.01254 5.68497C2.67555 6.41025 2.50065 7.20025 2.50002 8C2.49883 9.34637 2.99367 10.646 3.89002 11.6506C4.25353 11.1234 4.71529 10.6712 5.25002 10.3188C5.29561 10.2886 5.34981 10.2743 5.40432 10.2779C5.45884 10.2815 5.51067 10.3029 5.55189 10.3387C6.23122 10.9265 7.0995 11.25 7.99783 11.25C8.89615 11.25 9.76444 10.9265 10.4438 10.3387C10.485 10.3027 10.537 10.2813 10.5916 10.2777C10.6463 10.2741 10.7006 10.2885 10.7463 10.3188C11.2815 10.6712 11.7439 11.1234 12.1081 11.6506C13.0052 10.6463 13.5007 9.34662 13.5 8C13.5 7.69258 13.4745 7.3857 13.4238 7.0825C13.4123 7.01746 13.4138 6.95078 13.4282 6.88632C13.4426 6.82186 13.4696 6.7609 13.5077 6.70695C13.5458 6.653 13.5943 6.60714 13.6502 6.57201C13.7061 6.53688 13.7685 6.51318 13.8336 6.50228C13.8988 6.49138 13.9654 6.4935 14.0298 6.50851C14.0941 6.52352 14.1548 6.55113 14.2084 6.58973C14.262 6.62834 14.3074 6.67718 14.342 6.73344C14.3766 6.7897 14.3997 6.85226 14.41 6.9175Z" fill="black"/>
</g>
<defs>
<clipPath id="clip0_5_214">
<rect width="16" height="16" fill="white"/>
</clipPath>
</defs>
</svg>
