<svg width="16" height="16" viewBox="0 0 16 16" fill="none" xmlns="http://www.w3.org/2000/svg">
<g clip-path="url(#clip0_5_429)">
<path d="M15.8794 6.67438L13.0331 3.35812C12.9393 3.24599 12.8219 3.15581 12.6894 3.09393C12.5569 3.03205 12.4125 2.99999 12.2662 3H2C1.73478 3 1.48043 3.10536 1.29289 3.29289C1.10536 3.48043 1 3.73478 1 4V11C1 11.2652 1.10536 11.5196 1.29289 11.7071C1.48043 11.8946 1.73478 12 2 12H3.0625C3.17265 12.4302 3.42285 12.8115 3.77366 13.0838C4.12446 13.3561 4.55591 13.5039 5 13.5039C5.44409 13.5039 5.87554 13.3561 6.22635 13.0838C6.57715 12.8115 6.82735 12.4302 6.9375 12H10.0625C10.1727 12.4302 10.4229 12.8115 10.7737 13.0838C11.1245 13.3561 11.5559 13.5039 12 13.5039C12.4441 13.5039 12.8755 13.3561 13.2263 13.0838C13.5771 12.8115 13.8273 12.4302 13.9375 12H15C15.2652 12 15.5196 11.8946 15.7071 11.7071C15.8946 11.5196 16 11.2652 16 11V7C16 6.88053 15.9572 6.76502 15.8794 6.67438ZM2 6.5V4H5.5V6.5H2ZM5 12.5C4.80222 12.5 4.60888 12.4414 4.44443 12.3315C4.27998 12.2216 4.15181 12.0654 4.07612 11.8827C4.00043 11.7 3.98063 11.4989 4.01921 11.3049C4.0578 11.1109 4.15304 10.9327 4.29289 10.7929C4.43275 10.653 4.61093 10.5578 4.80491 10.5192C4.99889 10.4806 5.19996 10.5004 5.38268 10.5761C5.56541 10.6518 5.72159 10.78 5.83147 10.9444C5.94135 11.1089 6 11.3022 6 11.5C6 11.7652 5.89464 12.0196 5.70711 12.2071C5.51957 12.3946 5.26522 12.5 5 12.5ZM10 6.5H6.5V4H10V6.5ZM12 12.5C11.8022 12.5 11.6089 12.4414 11.4444 12.3315C11.28 12.2216 11.1518 12.0654 11.0761 11.8827C11.0004 11.7 10.9806 11.4989 11.0192 11.3049C11.0578 11.1109 11.153 10.9327 11.2929 10.7929C11.4327 10.653 11.6109 10.5578 11.8049 10.5192C11.9989 10.4806 12.2 10.5004 12.3827 10.5761C12.5654 10.6518 12.7216 10.78 12.8315 10.9444C12.9414 11.1089 13 11.3022 13 11.5C13 11.7652 12.8946 12.0196 12.7071 12.2071C12.5196 12.3946 12.2652 12.5 12 12.5ZM11 6.5V4H12.2662L14.4119 6.5H11Z" fill="black"/>
</g>
<defs>
<clipPath id="clip0_5_429">
<rect width="16" height="16" fill="white"/>
</clipPath>
</defs>
</svg>
