<svg width="16" height="16" viewBox="0 0 16 16" fill="none" xmlns="http://www.w3.org/2000/svg">
<g clip-path="url(#clip0_5_206)">
<path d="M13.5 2.5H2.5C2.23478 2.5 1.98043 2.60536 1.79289 2.79289C1.60536 2.98043 1.5 3.23478 1.5 3.5V12C1.5 12.2652 1.60536 12.5196 1.79289 12.7071C1.98043 12.8946 2.23478 13 2.5 13H3.5V14C3.5 14.1326 3.55268 14.2598 3.64645 14.3536C3.74021 14.4473 3.86739 14.5 4 14.5C4.13261 14.5 4.25979 14.4473 4.35355 14.3536C4.44732 14.2598 4.5 14.1326 4.5 14V13H11.5V14C11.5 14.1326 11.5527 14.2598 11.6464 14.3536C11.7402 14.4473 11.8674 14.5 12 14.5C12.1326 14.5 12.2598 14.4473 12.3536 14.3536C12.4473 14.2598 12.5 14.1326 12.5 14V13H13.5C13.7652 13 14.0196 12.8946 14.2071 12.7071C14.3946 12.5196 14.5 12.2652 14.5 12V3.5C14.5 3.23478 14.3946 2.98043 14.2071 2.79289C14.0196 2.60536 13.7652 2.5 13.5 2.5ZM13 8.5H11.1931C11.0702 9.03934 10.7529 9.5145 10.3018 9.83471C9.85074 10.1549 9.29751 10.2977 8.74781 10.2359C8.1981 10.174 7.69044 9.91185 7.3218 9.49941C6.95317 9.08697 6.74938 8.55318 6.74938 8C6.74938 7.44682 6.95317 6.91303 7.3218 6.50059C7.69044 6.08815 8.1981 5.82596 8.74781 5.76411C9.29751 5.70226 9.85074 5.84508 10.3018 6.16529C10.7529 6.4855 11.0702 6.96066 11.1931 7.5H13C13.1326 7.5 13.2598 7.55268 13.3536 7.64645C13.4473 7.74021 13.5 7.86739 13.5 8C13.5 8.13261 13.4473 8.25979 13.3536 8.35355C13.2598 8.44732 13.1326 8.5 13 8.5ZM10.25 8C10.25 8.24723 10.1767 8.4889 10.0393 8.69446C9.90199 8.90002 9.70676 9.06024 9.47835 9.15485C9.24995 9.24946 8.99861 9.27421 8.75614 9.22598C8.51366 9.17775 8.29093 9.0587 8.11612 8.88388C7.9413 8.70907 7.82225 8.48634 7.77402 8.24386C7.72579 8.00139 7.75054 7.75005 7.84515 7.52165C7.93976 7.29324 8.09998 7.09801 8.30554 6.96066C8.5111 6.82331 8.75277 6.75 9 6.75C9.16415 6.75 9.3267 6.78233 9.47835 6.84515C9.63001 6.90797 9.76781 7.00004 9.88388 7.11612C9.99996 7.23219 10.092 7.36999 10.1548 7.52165C10.2177 7.6733 10.25 7.83585 10.25 8Z" fill="black"/>
</g>
<defs>
<clipPath id="clip0_5_206">
<rect width="16" height="16" fill="white"/>
</clipPath>
</defs>
</svg>
