<svg width="16" height="16" viewBox="0 0 16 16" fill="none" xmlns="http://www.w3.org/2000/svg">
<g clip-path="url(#clip0_5_427)">
<path d="M14.8538 8.85378L12.8538 10.8538C12.7838 10.9238 12.6947 10.9715 12.5977 10.9908C12.5006 11.0101 12.4 11.0002 12.3086 10.9623C12.2172 10.9245 12.1391 10.8603 12.0841 10.778C12.0292 10.6957 11.9999 10.599 12 10.5V9.00003H7.70687L5.20688 11.5L6.35375 12.6463C6.42376 12.7162 6.47144 12.8053 6.49076 12.9024C6.51009 12.9994 6.50019 13.1 6.46231 13.1914C6.42444 13.2828 6.36029 13.361 6.27799 13.4159C6.19569 13.4708 6.09895 13.5001 6 13.5H3C2.86739 13.5 2.74022 13.4473 2.64645 13.3536C2.55268 13.2598 2.5 13.1326 2.5 13V10C2.49992 9.90108 2.5292 9.80433 2.58414 9.72204C2.63908 9.63974 2.71719 9.57559 2.80861 9.53772C2.90002 9.49984 3.00061 9.48994 3.09765 9.50926C3.1947 9.52859 3.28382 9.57627 3.35375 9.64628L4.5 10.7932L7 8.29315V4.00003H5.5C5.40105 4.00011 5.30431 3.97082 5.22201 3.91589C5.13971 3.86095 5.07557 3.78283 5.03769 3.69142C4.99981 3.60001 4.98991 3.49942 5.00924 3.40237C5.02856 3.30533 5.07624 3.2162 5.14625 3.14628L7.14625 1.14628C7.19269 1.09979 7.24783 1.06291 7.30853 1.03775C7.36923 1.01259 7.43429 0.999634 7.5 0.999634C7.56571 0.999634 7.63077 1.01259 7.69147 1.03775C7.75217 1.06291 7.80731 1.09979 7.85375 1.14628L9.85375 3.14628C9.92376 3.2162 9.97144 3.30533 9.99076 3.40237C10.0101 3.49942 10.0002 3.60001 9.96231 3.69142C9.92443 3.78283 9.86029 3.86095 9.77799 3.91589C9.69569 3.97082 9.59895 4.00011 9.5 4.00003H8V8.00003H12V6.50003C11.9999 6.40108 12.0292 6.30433 12.0841 6.22204C12.1391 6.13974 12.2172 6.07559 12.3086 6.03772C12.4 5.99984 12.5006 5.98994 12.5977 6.00926C12.6947 6.02859 12.7838 6.07627 12.8538 6.14628L14.8538 8.14628C14.9002 8.19271 14.9371 8.24786 14.9623 8.30856C14.9874 8.36926 15.0004 8.43432 15.0004 8.50003C15.0004 8.56573 14.9874 8.6308 14.9623 8.6915C14.9371 8.7522 14.9002 8.80734 14.8538 8.85378Z" fill="black"/>
</g>
<defs>
<clipPath id="clip0_5_427">
<rect width="16" height="16" fill="white"/>
</clipPath>
</defs>
</svg>
