<svg width="16" height="16" viewBox="0 0 16 16" fill="none" xmlns="http://www.w3.org/2000/svg">
<g clip-path="url(#clip0_5_425)">
<path d="M14.3537 12.3538L12.3537 14.3538C12.2837 14.4238 12.1946 14.4715 12.0976 14.4908C12.0005 14.5101 11.8999 14.5002 11.8085 14.4623C11.7171 14.4245 11.639 14.3603 11.584 14.278C11.5291 14.1957 11.4998 14.099 11.4999 14V12.5H4.99991C4.8673 12.5 4.74012 12.4473 4.64635 12.3536C4.55258 12.2598 4.49991 12.1326 4.49991 12V5.00003H2.99991C2.90096 5.00011 2.80421 4.97082 2.72191 4.91589C2.63962 4.86095 2.57547 4.78283 2.53759 4.69142C2.49972 4.60001 2.48982 4.49942 2.50914 4.40237C2.52847 4.30533 2.57615 4.2162 2.64616 4.14628L4.64616 2.14628C4.69259 2.09979 4.74774 2.06291 4.80844 2.03775C4.86913 2.01259 4.9342 1.99963 4.99991 1.99963C5.06561 1.99963 5.13068 2.01259 5.19138 2.03775C5.25207 2.06291 5.30722 2.09979 5.35366 2.14628L7.35366 4.14628C7.42366 4.2162 7.47134 4.30533 7.49067 4.40237C7.51 4.49942 7.50009 4.60001 7.46222 4.69142C7.42434 4.78283 7.36019 4.86095 7.2779 4.91589C7.1956 4.97082 7.09885 5.00011 6.99991 5.00003H5.49991V11.5H11.4999V10C11.4998 9.90108 11.5291 9.80433 11.584 9.72204C11.639 9.63974 11.7171 9.57559 11.8085 9.53772C11.8999 9.49984 12.0005 9.48994 12.0976 9.50926C12.1946 9.52859 12.2837 9.57627 12.3537 9.64628L14.3537 11.6463C14.4001 11.6927 14.437 11.7479 14.4622 11.8086C14.4873 11.8693 14.5003 11.9343 14.5003 12C14.5003 12.0657 14.4873 12.1308 14.4622 12.1915C14.437 12.2522 14.4001 12.3073 14.3537 12.3538Z" fill="black"/>
</g>
<defs>
<clipPath id="clip0_5_425">
<rect width="16" height="16" fill="white"/>
</clipPath>
</defs>
</svg>
