<svg width="16" height="16" viewBox="0 0 16 16" fill="none" xmlns="http://www.w3.org/2000/svg">
<g clip-path="url(#clip0_5_423)">
<path d="M10 2H6C5.17157 2 4.5 2.67157 4.5 3.5V12.5C4.5 13.3284 5.17157 14 6 14H10C10.8284 14 11.5 13.3284 11.5 12.5V3.5C11.5 2.67157 10.8284 2 10 2Z" fill="black"/>
<path d="M13 5C12.8674 5 12.7402 5.05268 12.6464 5.14645C12.5527 5.24021 12.5 5.36739 12.5 5.5V10.5C12.5 10.6326 12.5527 10.7598 12.6464 10.8536C12.7402 10.9473 12.8674 11 13 11C13.1326 11 13.2598 10.9473 13.3536 10.8536C13.4473 10.7598 13.5 10.6326 13.5 10.5V5.5C13.5 5.36739 13.4473 5.24021 13.3536 5.14645C13.2598 5.05268 13.1326 5 13 5Z" fill="black"/>
<path d="M15 6C14.8674 6 14.7402 6.05268 14.6464 6.14645C14.5527 6.24021 14.5 6.36739 14.5 6.5V9.5C14.5 9.63261 14.5527 9.75979 14.6464 9.85355C14.7402 9.94732 14.8674 10 15 10C15.1326 10 15.2598 9.94732 15.3536 9.85355C15.4473 9.75979 15.5 9.63261 15.5 9.5V6.5C15.5 6.36739 15.4473 6.24021 15.3536 6.14645C15.2598 6.05268 15.1326 6 15 6Z" fill="black"/>
<path d="M3 5C2.86739 5 2.74021 5.05268 2.64645 5.14645C2.55268 5.24021 2.5 5.36739 2.5 5.5V10.5C2.5 10.6326 2.55268 10.7598 2.64645 10.8536C2.74021 10.9473 2.86739 11 3 11C3.13261 11 3.25979 10.9473 3.35355 10.8536C3.44732 10.7598 3.5 10.6326 3.5 10.5V5.5C3.5 5.36739 3.44732 5.24021 3.35355 5.14645C3.25979 5.05268 3.13261 5 3 5Z" fill="black"/>
<path d="M1 6C0.867392 6 0.740215 6.05268 0.646447 6.14645C0.552678 6.24021 0.5 6.36739 0.5 6.5V9.5C0.5 9.63261 0.552678 9.75979 0.646447 9.85355C0.740215 9.94732 0.867392 10 1 10C1.13261 10 1.25979 9.94732 1.35355 9.85355C1.44732 9.75979 1.5 9.63261 1.5 9.5V6.5C1.5 6.36739 1.44732 6.24021 1.35355 6.14645C1.25979 6.05268 1.13261 6 1 6Z" fill="black"/>
</g>
<defs>
<clipPath id="clip0_5_423">
<rect width="16" height="16" fill="white"/>
</clipPath>
</defs>
</svg>
