<svg width="16" height="16" viewBox="0 0 16 16" fill="none" xmlns="http://www.w3.org/2000/svg">
<g clip-path="url(#clip0_5_204)">
<path d="M16 5.01442V10.98C16.0015 11.0691 15.9801 11.1571 15.9379 11.2356C15.8956 11.3141 15.834 11.3804 15.7587 11.4282C15.6775 11.4773 15.5839 11.5023 15.4889 11.5002C15.3939 11.4981 15.3015 11.469 15.2225 11.4163L13.1112 10.0088C13.077 9.98594 13.0489 9.95499 13.0295 9.91868C13.0101 9.88237 13 9.84184 13 9.80067V6.19942C13.0001 6.15835 13.0103 6.11794 13.0297 6.08175C13.0491 6.04556 13.0771 6.01471 13.1112 5.99192L15.2225 4.58379C15.3142 4.52267 15.4236 4.49358 15.5336 4.50104C15.6436 4.5085 15.748 4.55209 15.8306 4.62504C15.8849 4.67415 15.9282 4.73429 15.9574 4.80144C15.9866 4.86859 16.0011 4.9412 16 5.01442ZM3.37 2.16379C3.32609 2.1143 3.27279 2.07401 3.2132 2.04526C3.15361 2.01651 3.0889 1.99988 3.02283 1.99633C2.95676 1.99277 2.89064 2.00237 2.82831 2.02455C2.76597 2.04674 2.70866 2.08108 2.65969 2.12558C2.61073 2.17008 2.57108 2.22385 2.54305 2.28379C2.51502 2.34372 2.49917 2.40863 2.4964 2.47473C2.49364 2.54084 2.50403 2.60684 2.52696 2.6689C2.54989 2.73097 2.58492 2.78786 2.63 2.83629L3.23312 3.50004H2C1.73478 3.50004 1.48043 3.6054 1.29289 3.79294C1.10536 3.98047 1 4.23483 1 4.50004V11.5C1 11.7653 1.10536 12.0196 1.29289 12.2071C1.48043 12.3947 1.73478 12.5 2 12.5H11.415L12.63 13.8363C12.6739 13.8858 12.7272 13.9261 12.7868 13.9548C12.8464 13.9836 12.9111 14.0002 12.9772 14.0038C13.0432 14.0073 13.1094 13.9977 13.1717 13.9755C13.234 13.9533 13.2913 13.919 13.3403 13.8745C13.3893 13.83 13.4289 13.7762 13.4569 13.7163C13.485 13.6564 13.5008 13.5915 13.5036 13.5254C13.5064 13.4592 13.496 13.3932 13.473 13.3312C13.4501 13.2691 13.4151 13.2122 13.37 13.1638L3.37 2.16379ZM11.5625 9.69192C11.5963 9.73023 11.641 9.75727 11.6906 9.76942C11.7402 9.78156 11.7923 9.77821 11.84 9.75983C11.8876 9.74145 11.9285 9.70892 11.9571 9.66661C11.9857 9.6243 12.0007 9.57424 12 9.52317V4.50004C12 4.23483 11.8946 3.98047 11.7071 3.79294C11.5196 3.6054 11.2652 3.50004 11 3.50004H6.5C6.45136 3.49956 6.40364 3.51327 6.36268 3.53951C6.32172 3.56574 6.2893 3.60335 6.2694 3.64774C6.2495 3.69212 6.24297 3.74134 6.25063 3.78938C6.25828 3.83741 6.27979 3.88217 6.3125 3.91817L11.5625 9.69192Z" fill="black"/>
</g>
<defs>
<clipPath id="clip0_5_204">
<rect width="16" height="16" fill="white"/>
</clipPath>
</defs>
</svg>
