<svg width="16" height="16" viewBox="0 0 16 16" fill="none" xmlns="http://www.w3.org/2000/svg">
<g clip-path="url(#clip0_5_1155)">
<path d="M12.75 5.5C12.75 5.64834 12.706 5.79334 12.6236 5.91668C12.5412 6.04001 12.4241 6.13614 12.287 6.19291C12.15 6.24968 11.9992 6.26453 11.8537 6.23559C11.7082 6.20665 11.5746 6.13522 11.4697 6.03033C11.3648 5.92544 11.2934 5.7918 11.2644 5.64632C11.2355 5.50083 11.2503 5.35003 11.3071 5.21299C11.3639 5.07594 11.46 4.95881 11.5833 4.8764C11.7067 4.79399 11.8517 4.75 12 4.75C12.1989 4.75 12.3897 4.82902 12.5303 4.96967C12.671 5.11032 12.75 5.30109 12.75 5.5ZM12 9.75C11.8517 9.75 11.7067 9.79399 11.5833 9.8764C11.46 9.95881 11.3639 10.0759 11.3071 10.213C11.2503 10.35 11.2355 10.5008 11.2644 10.6463C11.2934 10.7918 11.3648 10.9254 11.4697 11.0303C11.5746 11.1352 11.7082 11.2066 11.8537 11.2356C11.9992 11.2645 12.15 11.2497 12.287 11.1929C12.4241 11.1361 12.5412 11.04 12.6236 10.9167C12.706 10.7933 12.75 10.6483 12.75 10.5C12.75 10.3011 12.671 10.1103 12.5303 9.96967C12.3897 9.82902 12.1989 9.75 12 9.75ZM6 6.5C5.80222 6.5 5.60888 6.55865 5.44443 6.66853C5.27998 6.77841 5.15181 6.93459 5.07612 7.11732C5.00043 7.30004 4.98063 7.50111 5.01921 7.69509C5.0578 7.88907 5.15304 8.06725 5.29289 8.20711C5.43275 8.34696 5.61093 8.4422 5.80491 8.48079C5.99889 8.51937 6.19996 8.49957 6.38268 8.42388C6.56541 8.34819 6.72159 8.22002 6.83147 8.05557C6.94135 7.89112 7 7.69778 7 7.5C7 7.23478 6.89464 6.98043 6.70711 6.79289C6.51957 6.60536 6.26522 6.5 6 6.5ZM14.5 3.5V12.5C14.5 12.7652 14.3946 13.0196 14.2071 13.2071C14.0196 13.3946 13.7652 13.5 13.5 13.5H2.5C2.23478 13.5 1.98043 13.3946 1.79289 13.2071C1.60536 13.0196 1.5 12.7652 1.5 12.5V3.5C1.5 3.23478 1.60536 2.98043 1.79289 2.79289C1.98043 2.60536 2.23478 2.5 2.5 2.5H13.5C13.7652 2.5 14.0196 2.60536 14.2071 2.79289C14.3946 2.98043 14.5 3.23478 14.5 3.5ZM10.5 7.5H13.5V3.5H10.5V7.5ZM8.48438 10.375C8.32258 9.77088 7.93893 9.24998 7.41 8.91625C7.6909 8.63702 7.88256 8.28068 7.9607 7.89239C8.03883 7.50411 7.99992 7.10136 7.8489 6.73522C7.69787 6.36907 7.44153 6.05601 7.11238 5.83572C6.78322 5.61543 6.39607 5.49784 6 5.49784C5.60393 5.49784 5.21678 5.61543 4.88762 5.83572C4.55847 6.05601 4.30213 6.36907 4.1511 6.73522C4.00008 7.10136 3.96117 7.50411 4.0393 7.89239C4.11744 8.28068 4.3091 8.63702 4.59 8.91625C4.06141 9.25034 3.67788 9.77109 3.51562 10.375C3.48247 10.5035 3.50171 10.6398 3.56911 10.7541C3.6365 10.8684 3.74654 10.9512 3.875 10.9844C4.00346 11.0175 4.13984 10.9983 4.25412 10.9309C4.3684 10.8635 4.45122 10.7535 4.48438 10.625C4.64937 9.98438 5.30063 9.5 6 9.5C6.69938 9.5 7.35125 9.98312 7.51562 10.625C7.54878 10.7535 7.6316 10.8635 7.74588 10.9309C7.86016 10.9983 7.99654 11.0175 8.125 10.9844C8.25346 10.9512 8.3635 10.8684 8.43089 10.7541C8.49829 10.6398 8.51753 10.5035 8.48438 10.375ZM13.5 12.5V8.5H10.5V12.5H13.5Z" fill="black"/>
</g>
<defs>
<clipPath id="clip0_5_1155">
<rect width="16" height="16" fill="white"/>
</clipPath>
</defs>
</svg>
