<svg width="16" height="16" viewBox="0 0 16 16" fill="none" xmlns="http://www.w3.org/2000/svg">
<g clip-path="url(#clip0_5_1307)">
<path d="M13.5 2.5H2.5C2.23478 2.5 1.98043 2.60536 1.79289 2.79289C1.60536 2.98043 1.5 3.23478 1.5 3.5V12.5C1.5 12.7652 1.60536 13.0196 1.79289 13.2071C1.98043 13.3946 2.23478 13.5 2.5 13.5H13.5C13.7652 13.5 14.0196 13.3946 14.2071 13.2071C14.3946 13.0196 14.5 12.7652 14.5 12.5V3.5C14.5 3.23478 14.3946 2.98043 14.2071 2.79289C14.0196 2.60536 13.7652 2.5 13.5 2.5ZM12.5 8C12.5 9.93313 10.485 11.5 8 11.5C5.515 11.5 3.5 9.93313 3.5 8C3.5 6.06687 5.515 4.5 8 4.5C10.485 4.5 12.5 6.06687 12.5 8Z" fill="black"/>
</g>
<defs>
<clipPath id="clip0_5_1307">
<rect width="16" height="16" fill="white"/>
</clipPath>
</defs>
</svg>
