<svg width="16" height="16" viewBox="0 0 16 16" fill="none" xmlns="http://www.w3.org/2000/svg">
<g clip-path="url(#clip0_5_1150)">
<path d="M8 1.5C6.71442 1.5 5.45772 1.88122 4.3888 2.59545C3.31988 3.30968 2.48676 4.32484 1.99479 5.51256C1.50282 6.70028 1.37409 8.00721 1.6249 9.26809C1.8757 10.529 2.49477 11.6872 3.40381 12.5962C4.31285 13.5052 5.47104 14.1243 6.73192 14.3751C7.99279 14.6259 9.29973 14.4972 10.4874 14.0052C11.6752 13.5132 12.6903 12.6801 13.4046 11.6112C14.1188 10.5423 14.5 9.28558 14.5 8C14.4982 6.27665 13.8128 4.62441 12.5942 3.40582C11.3756 2.18722 9.72335 1.50182 8 1.5ZM4.5 8C4.5 8.13261 4.44732 8.25979 4.35356 8.35355C4.25979 8.44732 4.13261 8.5 4 8.5C3.86739 8.5 3.74022 8.44732 3.64645 8.35355C3.55268 8.25979 3.5 8.13261 3.5 8C3.50133 6.80693 3.97586 5.66311 4.81948 4.81948C5.66311 3.97585 6.80693 3.50132 8 3.5C8.13261 3.5 8.25979 3.55268 8.35356 3.64645C8.44732 3.74021 8.5 3.86739 8.5 4C8.5 4.13261 8.44732 4.25979 8.35356 4.35355C8.25979 4.44732 8.13261 4.5 8 4.5C7.07205 4.50099 6.18239 4.87006 5.52623 5.52622C4.87006 6.18238 4.501 7.07205 4.5 8ZM6.5 8C6.5 7.70333 6.58798 7.41332 6.7528 7.16664C6.91762 6.91997 7.15189 6.72771 7.42598 6.61418C7.70007 6.50065 8.00167 6.47094 8.29264 6.52882C8.58361 6.5867 8.85088 6.72956 9.06066 6.93934C9.27044 7.14912 9.4133 7.41639 9.47118 7.70736C9.52906 7.99834 9.49935 8.29994 9.38582 8.57403C9.27229 8.84811 9.08003 9.08238 8.83336 9.2472C8.58668 9.41203 8.29667 9.5 8 9.5C7.60218 9.5 7.22065 9.34196 6.93934 9.06066C6.65804 8.77936 6.5 8.39782 6.5 8ZM8 12.5C7.86739 12.5 7.74022 12.4473 7.64645 12.3536C7.55268 12.2598 7.5 12.1326 7.5 12C7.5 11.8674 7.55268 11.7402 7.64645 11.6464C7.74022 11.5527 7.86739 11.5 8 11.5C8.92796 11.499 9.81762 11.1299 10.4738 10.4738C11.1299 9.81762 11.499 8.92795 11.5 8C11.5 7.86739 11.5527 7.74021 11.6464 7.64645C11.7402 7.55268 11.8674 7.5 12 7.5C12.1326 7.5 12.2598 7.55268 12.3536 7.64645C12.4473 7.74021 12.5 7.86739 12.5 8C12.4987 9.19307 12.0241 10.3369 11.1805 11.1805C10.3369 12.0241 9.19307 12.4987 8 12.5Z" fill="black"/>
</g>
<defs>
<clipPath id="clip0_5_1150">
<rect width="16" height="16" fill="white"/>
</clipPath>
</defs>
</svg>
