<svg width="16" height="16" viewBox="0 0 16 16" fill="none" xmlns="http://www.w3.org/2000/svg">
<g clip-path="url(#clip0_5_1146)">
<path d="M11 3H5C3.67392 3 2.40215 3.52678 1.46447 4.46447C0.526784 5.40215 0 6.67392 0 8C0 9.32608 0.526784 10.5979 1.46447 11.5355C2.40215 12.4732 3.67392 13 5 13H11C12.3261 13 13.5979 12.4732 14.5355 11.5355C15.4732 10.5979 16 9.32608 16 8C16 6.67392 15.4732 5.40215 14.5355 4.46447C13.5979 3.52678 12.3261 3 11 3ZM7.71812 6.17562L6.21812 10.1756C6.18261 10.2713 6.11865 10.3538 6.03486 10.4121C5.95107 10.4704 5.85144 10.5016 5.74937 10.5016C5.64731 10.5016 5.54768 10.4704 5.46389 10.4121C5.3801 10.3538 5.31614 10.2713 5.28062 10.1756L3.78063 6.17562C3.73405 6.0513 3.73876 5.91357 3.79373 5.79273C3.8487 5.67189 3.94943 5.57783 4.07375 5.53125C4.19807 5.48467 4.3358 5.48939 4.45665 5.54436C4.57749 5.59933 4.67155 5.70005 4.71812 5.82438L5.75 8.57438L6.78188 5.82438C6.80494 5.76282 6.8399 5.70641 6.88477 5.65836C6.92963 5.61032 6.98352 5.57158 7.04335 5.54436C7.10319 5.51714 7.1678 5.50197 7.2335 5.49972C7.2992 5.49747 7.36469 5.50819 7.42625 5.53125C7.48781 5.55431 7.54422 5.58928 7.59226 5.63414C7.64031 5.679 7.67905 5.73289 7.70627 5.79273C7.73349 5.85257 7.74865 5.91718 7.7509 5.98287C7.75315 6.04857 7.74244 6.11407 7.71938 6.17562H7.71812ZM11.9375 9.75C12.0033 9.8652 12.0207 10.0018 11.9857 10.1298C11.9508 10.2578 11.8665 10.3667 11.7513 10.4325C11.636 10.4983 11.4994 10.5157 11.3714 10.4807C11.2434 10.4458 11.1346 10.3615 11.0688 10.2463L10.3538 8.99625C10.3206 8.99625 10.2869 8.99938 10.2531 8.99938H9.5V9.99938C9.5 10.132 9.44732 10.2592 9.35355 10.3529C9.25979 10.4467 9.13261 10.4994 9 10.4994C8.86739 10.4994 8.74021 10.4467 8.64645 10.3529C8.55268 10.2592 8.5 10.132 8.5 9.99938V6C8.5 5.86739 8.55268 5.74021 8.64645 5.64645C8.74021 5.55268 8.86739 5.5 9 5.5H10.25C10.6167 5.50035 10.974 5.61588 11.2715 5.83029C11.569 6.0447 11.7917 6.34715 11.908 6.69492C12.0243 7.04269 12.0284 7.41822 11.9198 7.76847C11.8111 8.11871 11.5952 8.42598 11.3025 8.64688L11.9375 9.75ZM11 7.25C11 7.44891 10.921 7.63968 10.7803 7.78033C10.6397 7.92098 10.4489 8 10.25 8H9.5V6.5H10.25C10.4489 6.5 10.6397 6.57902 10.7803 6.71967C10.921 6.86032 11 7.05109 11 7.25Z" fill="black"/>
</g>
<defs>
<clipPath id="clip0_5_1146">
<rect width="16" height="16" fill="white"/>
</clipPath>
</defs>
</svg>
