<svg width="16" height="16" viewBox="0 0 16 16" fill="none" xmlns="http://www.w3.org/2000/svg">
<g clip-path="url(#clip0_5_1295)">
<path d="M15 7.5H13.9788C13.8758 6.25749 13.3865 5.07839 12.5794 4.12813L13.3538 3.35375C13.4476 3.25993 13.5003 3.13268 13.5003 3C13.5003 2.86732 13.4476 2.74007 13.3538 2.64625C13.2599 2.55243 13.1327 2.49972 13 2.49972C12.8673 2.49972 12.7401 2.55243 12.6462 2.64625L11.875 3.42062C10.9239 2.61292 9.7436 2.12354 8.5 2.02125V1C8.5 0.867392 8.44732 0.740215 8.35355 0.646447C8.25979 0.552678 8.13261 0.5 8 0.5C7.86739 0.5 7.74021 0.552678 7.64645 0.646447C7.55268 0.740215 7.5 0.867392 7.5 1V2.02125C6.25749 2.12418 5.07839 2.61352 4.12813 3.42062L3.35375 2.64625C3.25993 2.55243 3.13268 2.49972 3 2.49972C2.86732 2.49972 2.74007 2.55243 2.64625 2.64625C2.55243 2.74007 2.49972 2.86732 2.49972 3C2.49972 3.13268 2.55243 3.25993 2.64625 3.35375L3.42062 4.12813C2.61292 5.07924 2.12354 6.25953 2.02125 7.50313H1C0.867392 7.50313 0.740215 7.5558 0.646447 7.64957C0.552678 7.74334 0.5 7.87052 0.5 8.00313C0.5 8.13573 0.552678 8.26291 0.646447 8.35668C0.740215 8.45045 0.867392 8.50313 1 8.50313H2.02125C2.12418 9.74563 2.61352 10.9247 3.42062 11.875L2.64625 12.6462C2.55243 12.7401 2.49972 12.8673 2.49972 13C2.49972 13.1327 2.55243 13.2599 2.64625 13.3538C2.74007 13.4476 2.86732 13.5003 3 13.5003C3.13268 13.5003 3.25993 13.4476 3.35375 13.3538L4.12813 12.5794C5.07924 13.3871 6.25953 13.8765 7.50313 13.9788V15C7.50313 15.1326 7.5558 15.2598 7.64957 15.3536C7.74334 15.4473 7.87052 15.5 8.00313 15.5C8.13573 15.5 8.26291 15.4473 8.35668 15.3536C8.45045 15.2598 8.50313 15.1326 8.50313 15V13.9788C9.74563 13.8758 10.9247 13.3865 11.875 12.5794L12.6494 13.3538C12.7432 13.4476 12.8704 13.5003 13.0031 13.5003C13.1358 13.5003 13.2631 13.4476 13.3569 13.3538C13.4507 13.2599 13.5034 13.1327 13.5034 13C13.5034 12.8673 13.4507 12.7401 13.3569 12.6462L12.5794 11.875C13.3871 10.9239 13.8765 9.7436 13.9788 8.5H15C15.1326 8.5 15.2598 8.44732 15.3536 8.35355C15.4473 8.25979 15.5 8.13261 15.5 8C15.5 7.86739 15.4473 7.74021 15.3536 7.64645C15.2598 7.55268 15.1326 7.5 15 7.5ZM5 6.75C5 6.40388 5.10264 6.06554 5.29493 5.77775C5.48722 5.48997 5.76053 5.26566 6.0803 5.13321C6.40007 5.00076 6.75194 4.9661 7.09141 5.03363C7.43087 5.10115 7.74269 5.26782 7.98744 5.51256C8.23218 5.75731 8.39885 6.06913 8.46637 6.40859C8.5339 6.74806 8.49924 7.09993 8.36679 7.4197C8.23434 7.73947 8.01003 8.01278 7.72225 8.20507C7.43446 8.39736 7.09612 8.5 6.75 8.5C6.28587 8.5 5.84075 8.31563 5.51256 7.98744C5.18437 7.65925 5 7.21413 5 6.75ZM8 12C7.80222 12 7.60888 11.9414 7.44443 11.8315C7.27998 11.7216 7.15181 11.5654 7.07612 11.3827C7.00043 11.2 6.98063 10.9989 7.01921 10.8049C7.0578 10.6109 7.15304 10.4327 7.29289 10.2929C7.43275 10.153 7.61093 10.0578 7.80491 10.0192C7.99889 9.98063 8.19996 10.0004 8.38268 10.0761C8.56541 10.1518 8.72159 10.28 8.83147 10.4444C8.94135 10.6089 9 10.8022 9 11C9 11.2652 8.89464 11.5196 8.70711 11.7071C8.51957 11.8946 8.26522 12 8 12ZM11 9C10.8022 9 10.6089 8.94135 10.4444 8.83147C10.28 8.72159 10.1518 8.56541 10.0761 8.38268C10.0004 8.19996 9.98063 7.99889 10.0192 7.80491C10.0578 7.61093 10.153 7.43275 10.2929 7.29289C10.4327 7.15304 10.6109 7.0578 10.8049 7.01921C10.9989 6.98063 11.2 7.00043 11.3827 7.07612C11.5654 7.15181 11.7216 7.27998 11.8315 7.44443C11.9414 7.60888 12 7.80222 12 8C12 8.26522 11.8946 8.51957 11.7071 8.70711C11.5196 8.89464 11.2652 9 11 9Z" fill="black"/>
</g>
<defs>
<clipPath id="clip0_5_1295">
<rect width="16" height="16" fill="white"/>
</clipPath>
</defs>
</svg>
