<svg width="16" height="16" viewBox="0 0 16 16" fill="none" xmlns="http://www.w3.org/2000/svg">
<g clip-path="url(#clip0_5_1287)">
<path d="M11.4406 3.5H4.50002C3.89118 3.5 3.28867 3.62354 2.72896 3.86316C2.16925 4.10278 1.66399 4.45349 1.24376 4.89405C0.823534 5.33461 0.497076 5.85587 0.284153 6.42627C0.0712299 6.99666 -0.0237305 7.60434 0.0050204 8.2125C0.110645 10.5056 1.99002 12.3869 4.28315 12.495C5.27315 12.54 6.28315 12.1262 7.3694 11.2262C7.54728 11.079 7.77097 10.9984 8.00189 10.9984C8.23282 10.9984 8.45651 11.079 8.63439 11.2262C9.29502 11.7744 10.3125 12.5 11.5 12.5C12.096 12.5001 12.686 12.3817 13.2359 12.1519C13.7858 11.922 14.2845 11.5852 14.7032 11.1611C15.1218 10.7369 15.452 10.2338 15.6747 9.68094C15.8973 9.1281 16.0079 8.53655 16 7.94063C15.9681 5.49188 13.9225 3.5 11.4406 3.5ZM11 6.5H5.00002C4.86741 6.5 4.74024 6.44732 4.64647 6.35355C4.5527 6.25979 4.50002 6.13261 4.50002 6C4.50002 5.86739 4.5527 5.74021 4.64647 5.64645C4.74024 5.55268 4.86741 5.5 5.00002 5.5H11C11.1326 5.5 11.2598 5.55268 11.3536 5.64645C11.4473 5.74021 11.5 5.86739 11.5 6C11.5 6.13261 11.4473 6.25979 11.3536 6.35355C11.2598 6.44732 11.1326 6.5 11 6.5Z" fill="black"/>
</g>
<defs>
<clipPath id="clip0_5_1287">
<rect width="16" height="16" fill="white"/>
</clipPath>
</defs>
</svg>
