<svg width="16" height="16" viewBox="0 0 16 16" fill="none" xmlns="http://www.w3.org/2000/svg">
<g clip-path="url(#clip0_5_1141)">
<path d="M12.4998 4.5C11.8048 4.50064 11.1258 4.70819 10.5491 5.09618C9.97252 5.48418 9.52447 6.03506 9.26208 6.67862C8.9997 7.32219 8.93485 8.02931 9.07581 8.70986C9.21677 9.39042 9.55715 10.0136 10.0536 10.5H5.94608C6.52566 9.93213 6.88993 9.18052 6.97658 8.37374C7.06322 7.56697 6.86686 6.75515 6.42108 6.07716C5.9753 5.39916 5.3078 4.89712 4.53276 4.6569C3.75772 4.41668 2.92329 4.45321 2.17221 4.76024C1.42113 5.06728 0.800059 5.62574 0.415238 6.3401C0.0304173 7.05446 -0.0942441 7.88033 0.0625775 8.67644C0.219399 9.47256 0.64796 10.1895 1.27495 10.7045C1.90195 11.2196 2.68841 11.5008 3.49983 11.5H12.4998C13.4281 11.5 14.3183 11.1313 14.9747 10.4749C15.6311 9.8185 15.9998 8.92826 15.9998 8C15.9998 7.07174 15.6311 6.1815 14.9747 5.52513C14.3183 4.86875 13.4281 4.5 12.4998 4.5ZM3.49983 10.5C3.00538 10.5 2.52203 10.3534 2.1109 10.0787C1.69978 9.80397 1.37935 9.41352 1.19013 8.95671C1.00091 8.49989 0.951403 7.99723 1.04787 7.51227C1.14433 7.02732 1.38243 6.58186 1.73206 6.23223C2.08169 5.8826 2.52715 5.6445 3.0121 5.54804C3.49706 5.45157 3.99972 5.50108 4.45654 5.6903C4.91335 5.87952 5.3038 6.19995 5.5785 6.61107C5.85321 7.0222 5.99983 7.50555 5.99983 8C5.99983 8.3283 5.93516 8.65339 5.80953 8.95671C5.68389 9.26002 5.49974 9.53562 5.2676 9.76777C5.03545 9.99991 4.75985 10.1841 4.45654 10.3097C4.15322 10.4353 3.82813 10.5 3.49983 10.5ZM12.4998 10.5C12.0054 10.5 11.522 10.3534 11.1109 10.0787C10.6998 9.80397 10.3793 9.41352 10.1901 8.95671C10.0009 8.49989 9.9514 7.99723 10.0479 7.51227C10.1443 7.02732 10.3824 6.58186 10.7321 6.23223C11.0817 5.8826 11.5272 5.6445 12.0121 5.54804C12.4971 5.45157 12.9997 5.50108 13.4565 5.6903C13.9134 5.87952 14.3038 6.19995 14.5785 6.61107C14.8532 7.0222 14.9998 7.50555 14.9998 8C14.9998 8.66304 14.7364 9.29893 14.2676 9.76777C13.7988 10.2366 13.1629 10.5 12.4998 10.5ZM13.9998 8C13.9998 8.29667 13.9119 8.58668 13.747 8.83335C13.5822 9.08003 13.3479 9.27229 13.0739 9.38582C12.7998 9.49935 12.4982 9.52906 12.2072 9.47118C11.9162 9.4133 11.6489 9.27044 11.4392 9.06066C11.2294 8.85088 11.0865 8.58361 11.0287 8.29264C10.9708 8.00166 11.0005 7.70006 11.114 7.42597C11.2275 7.15189 11.4198 6.91762 11.6665 6.7528C11.9131 6.58797 12.2032 6.5 12.4998 6.5C12.8977 6.5 13.2792 6.65804 13.5605 6.93934C13.8418 7.22064 13.9998 7.60218 13.9998 8ZM4.99983 8C4.99983 8.29667 4.91186 8.58668 4.74703 8.83335C4.58221 9.08003 4.34794 9.27229 4.07385 9.38582C3.79976 9.49935 3.49817 9.52906 3.20719 9.47118C2.91622 9.4133 2.64895 9.27044 2.43917 9.06066C2.22939 8.85088 2.08653 8.58361 2.02865 8.29264C1.97077 8.00166 2.00048 7.70006 2.11401 7.42597C2.22754 7.15189 2.4198 6.91762 2.66647 6.7528C2.91315 6.58797 3.20316 6.5 3.49983 6.5C3.89765 6.5 4.27918 6.65804 4.56049 6.93934C4.84179 7.22064 4.99983 7.60218 4.99983 8Z" fill="black"/>
</g>
<defs>
<clipPath id="clip0_5_1141">
<rect width="16" height="16" fill="white"/>
</clipPath>
</defs>
</svg>
