<svg width="16" height="16" viewBox="0 0 16 16" fill="none" xmlns="http://www.w3.org/2000/svg">
<g clip-path="url(#clip0_5_1137)">
<path d="M8 1.5C6.71442 1.5 5.45772 1.88122 4.3888 2.59545C3.31988 3.30968 2.48676 4.32484 1.99479 5.51256C1.50282 6.70028 1.37409 8.00721 1.6249 9.26809C1.8757 10.529 2.49477 11.6872 3.40381 12.5962C4.31285 13.5052 5.47104 14.1243 6.73192 14.3751C7.99279 14.6259 9.29973 14.4972 10.4874 14.0052C11.6752 13.5132 12.6903 12.6801 13.4046 11.6112C14.1188 10.5423 14.5 9.28558 14.5 8C14.4982 6.27665 13.8128 4.62441 12.5942 3.40582C11.3756 2.18722 9.72335 1.50182 8 1.5ZM13.4769 7.5H11.3356C11.3325 6.57279 11.1314 5.65693 10.7457 4.81372C10.3601 3.97051 9.79876 3.21939 9.09938 2.61063C10.2568 2.84866 11.307 3.45237 12.0952 4.33272C12.8834 5.21306 13.3678 6.32342 13.4769 7.5ZM2.78313 9.74187C2.40875 8.6209 2.40563 7.40912 2.77422 6.28623C3.14281 5.16334 3.86349 4.18915 4.82938 3.50813L5.89938 5.36125C5.09792 5.82736 4.40528 6.45931 3.86785 7.2148C3.33042 7.97028 2.96059 8.83187 2.78313 9.74187ZM3.68125 11.4019C3.60224 10.3711 3.81533 9.33894 4.29609 8.42374C4.77685 7.50854 5.50581 6.74736 6.39938 6.2275L7.4225 8L4.82938 12.4919C4.39645 12.1854 4.00979 11.8183 3.68125 11.4019ZM13.1088 10.0363C12.2556 10.6211 11.2547 10.9535 10.2212 10.9953C9.18764 11.0371 8.16324 10.7866 7.26563 10.2725L8.28875 8.5H13.4763C13.429 9.02722 13.3052 9.54474 13.1088 10.0363Z" fill="black"/>
</g>
<defs>
<clipPath id="clip0_5_1137">
<rect width="16" height="16" fill="white"/>
</clipPath>
</defs>
</svg>
