<svg width="16" height="16" viewBox="0 0 16 16" fill="none" xmlns="http://www.w3.org/2000/svg">
<g clip-path="url(#clip0_5_1276)">
<path d="M8.5 5.75H14.25C14.3163 5.75 14.3799 5.72366 14.4268 5.67678C14.4737 5.62989 14.5 5.5663 14.5 5.5V3.5C14.5 3.36739 14.4473 3.24021 14.3536 3.14645C14.2598 3.05268 14.1326 3 14 3H8.75C8.6837 3 8.62011 3.02634 8.57322 3.07322C8.52634 3.12011 8.5 3.1837 8.5 3.25V5.75Z" fill="black"/>
<path d="M11.5 9.5H14.25C14.3163 9.5 14.3799 9.47366 14.4268 9.42678C14.4737 9.37989 14.5 9.3163 14.5 9.25V7C14.5 6.9337 14.4737 6.87011 14.4268 6.82322C14.3799 6.77634 14.3163 6.75 14.25 6.75H11.5V9.5Z" fill="black"/>
<path d="M10.5 6.75H5.5V9.5H10.5V6.75Z" fill="black"/>
<path d="M4.5 6.75H1.75C1.6837 6.75 1.62011 6.77634 1.57322 6.82322C1.52634 6.87011 1.5 6.9337 1.5 7V9.25C1.5 9.3163 1.52634 9.37989 1.57322 9.42678C1.62011 9.47366 1.6837 9.5 1.75 9.5H4.5V6.75Z" fill="black"/>
<path d="M8.5 10.5V12.75C8.5 12.8163 8.52634 12.8799 8.57322 12.9268C8.62011 12.9737 8.6837 13 8.75 13H14C14.1326 13 14.2598 12.9473 14.3536 12.8536C14.4473 12.7598 14.5 12.6326 14.5 12.5V10.75C14.5 10.6837 14.4737 10.6201 14.4268 10.5732C14.3799 10.5263 14.3163 10.5 14.25 10.5H8.5Z" fill="black"/>
<path d="M7.5 5.75V3.25C7.5 3.1837 7.47366 3.12011 7.42678 3.07322C7.37989 3.02634 7.3163 3 7.25 3H2C1.86739 3 1.74021 3.05268 1.64645 3.14645C1.55268 3.24021 1.5 3.36739 1.5 3.5V5.5C1.5 5.5663 1.52634 5.62989 1.57322 5.67678C1.62011 5.72366 1.6837 5.75 1.75 5.75H7.5Z" fill="black"/>
<path d="M7.5 10.5H1.75C1.6837 10.5 1.62011 10.5263 1.57322 10.5732C1.52634 10.6201 1.5 10.6837 1.5 10.75V12.5C1.5 12.6326 1.55268 12.7598 1.64645 12.8536C1.74021 12.9473 1.86739 13 2 13H7.25C7.3163 13 7.37989 12.9737 7.42678 12.9268C7.47366 12.8799 7.5 12.8163 7.5 12.75V10.5Z" fill="black"/>
</g>
<defs>
<clipPath id="clip0_5_1276">
<rect width="16" height="16" fill="white"/>
</clipPath>
</defs>
</svg>
