<svg width="16" height="16" viewBox="0 0 16 16" fill="none" xmlns="http://www.w3.org/2000/svg">
<g clip-path="url(#clip0_5_1120)">
<path d="M13 2H3C2.73478 2 2.48043 2.10536 2.29289 2.29289C2.10536 2.48043 2 2.73478 2 3V13C2 13.2652 2.10536 13.5196 2.29289 13.7071C2.48043 13.8946 2.73478 14 3 14H13C13.2652 14 13.5196 13.8946 13.7071 13.7071C13.8946 13.5196 14 13.2652 14 13V3C14 2.73478 13.8946 2.48043 13.7071 2.29289C13.5196 2.10536 13.2652 2 13 2ZM8 11.5C7.30777 11.5 6.63108 11.2947 6.0555 10.9101C5.47993 10.5256 5.03133 9.97893 4.76642 9.33939C4.50152 8.69985 4.4322 7.99612 4.56725 7.31718C4.7023 6.63825 5.03564 6.01461 5.52513 5.52513C6.01461 5.03564 6.63825 4.7023 7.31718 4.56725C7.99612 4.4322 8.69985 4.50152 9.33939 4.76642C9.97893 5.03133 10.5256 5.47993 10.9101 6.0555C11.2947 6.63108 11.5 7.30777 11.5 8C11.5 8.92826 11.1313 9.8185 10.4749 10.4749C9.8185 11.1313 8.92826 11.5 8 11.5ZM11.75 5C11.6017 5 11.4567 4.95601 11.3333 4.8736C11.21 4.79119 11.1139 4.67406 11.0571 4.53701C11.0003 4.39997 10.9855 4.24917 11.0144 4.10368C11.0434 3.9582 11.1148 3.82456 11.2197 3.71967C11.3246 3.61478 11.4582 3.54335 11.6037 3.51441C11.7492 3.48547 11.9 3.50032 12.037 3.55709C12.1741 3.61386 12.2912 3.70999 12.3736 3.83332C12.456 3.95666 12.5 4.10166 12.5 4.25C12.5 4.44891 12.421 4.63968 12.2803 4.78033C12.1397 4.92098 11.9489 5 11.75 5ZM8.35375 6.85375L6.35375 8.85375C6.3073 8.90021 6.25214 8.93706 6.19145 8.9622C6.13075 8.98734 6.0657 9.00028 6 9.00028C5.9343 9.00028 5.86925 8.98734 5.80855 8.9622C5.74786 8.93706 5.6927 8.90021 5.64625 8.85375C5.59979 8.8073 5.56294 8.75214 5.5378 8.69145C5.51266 8.63075 5.49972 8.5657 5.49972 8.5C5.49972 8.4343 5.51266 8.36925 5.5378 8.30855C5.56294 8.24786 5.59979 8.1927 5.64625 8.14625L7.64625 6.14625C7.74007 6.05243 7.86732 5.99972 8 5.99972C8.13268 5.99972 8.25993 6.05243 8.35375 6.14625C8.44757 6.24007 8.50028 6.36732 8.50028 6.5C8.50028 6.63268 8.44757 6.75993 8.35375 6.85375ZM10.3538 6.64625C10.4002 6.69269 10.4371 6.74783 10.4623 6.80853C10.4874 6.86923 10.5004 6.93429 10.5004 7C10.5004 7.06571 10.4874 7.13077 10.4623 7.19147C10.4371 7.25217 10.4002 7.30731 10.3538 7.35375L7.35375 10.3538C7.3073 10.4002 7.25214 10.4371 7.19145 10.4622C7.13075 10.4873 7.0657 10.5003 7 10.5003C6.9343 10.5003 6.86925 10.4873 6.80855 10.4622C6.74786 10.4371 6.6927 10.4002 6.64625 10.3538C6.59979 10.3073 6.56294 10.2521 6.5378 10.1914C6.51266 10.1308 6.49972 10.0657 6.49972 10C6.49972 9.9343 6.51266 9.86925 6.5378 9.80855C6.56294 9.74786 6.59979 9.6927 6.64625 9.64625L9.64625 6.64625C9.69269 6.59976 9.74783 6.56288 9.80853 6.53772C9.86923 6.51256 9.93429 6.49961 10 6.49961C10.0657 6.49961 10.1308 6.51256 10.1915 6.53772C10.2522 6.56288 10.3073 6.59976 10.3538 6.64625Z" fill="black"/>
</g>
<defs>
<clipPath id="clip0_5_1120">
<rect width="16" height="16" fill="white"/>
</clipPath>
</defs>
</svg>
