<svg width="16" height="16" viewBox="0 0 16 16" fill="none" xmlns="http://www.w3.org/2000/svg">
<g clip-path="url(#clip0_5_1369)">
<path d="M10.9561 3.97062L10.5661 1.82187C10.5244 1.59134 10.4031 1.38278 10.2233 1.23258C10.0435 1.08237 9.81667 1.00006 9.5824 1H6.4174C6.18312 1.00006 5.9563 1.08237 5.77651 1.23258C5.59672 1.38278 5.47538 1.59134 5.43365 1.82187L5.04365 3.97062C4.41023 4.43434 3.89507 5.04085 3.53995 5.74094C3.18482 6.44104 2.99976 7.21499 2.99976 8C2.99976 8.78501 3.18482 9.55896 3.53995 10.2591C3.89507 10.9592 4.41023 11.5657 5.04365 12.0294L5.43365 14.1781C5.47538 14.4087 5.59672 14.6172 5.77651 14.7674C5.9563 14.9176 6.18312 14.9999 6.4174 15H9.5824C9.81667 14.9999 10.0435 14.9176 10.2233 14.7674C10.4031 14.6172 10.5244 14.4087 10.5661 14.1781L10.9561 12.0294C11.5896 11.5657 12.1047 10.9592 12.4598 10.2591C12.815 9.55896 13 8.78501 13 8C13 7.21499 12.815 6.44104 12.4598 5.74094C12.1047 5.04085 11.5896 4.43434 10.9561 3.97062ZM6.4174 2H9.5824L9.82677 3.34687C8.65276 2.88439 7.34703 2.88439 6.17302 3.34687L6.4174 2ZM9.5824 14H6.4174L6.17302 12.6531C7.34703 13.1156 8.65276 13.1156 9.82677 12.6531L9.5824 14ZM10.4999 8.5H7.9999C7.86729 8.5 7.74011 8.44732 7.64634 8.35355C7.55257 8.25979 7.4999 8.13261 7.4999 8V5.5C7.4999 5.36739 7.55257 5.24021 7.64634 5.14645C7.74011 5.05268 7.86729 5 7.9999 5C8.1325 5 8.25968 5.05268 8.35345 5.14645C8.44722 5.24021 8.4999 5.36739 8.4999 5.5V7.5H10.4999C10.6325 7.5 10.7597 7.55268 10.8534 7.64645C10.9472 7.74021 10.9999 7.86739 10.9999 8C10.9999 8.13261 10.9472 8.25979 10.8534 8.35355C10.7597 8.44732 10.6325 8.5 10.4999 8.5Z" fill="black"/>
</g>
<defs>
<clipPath id="clip0_5_1369">
<rect width="16" height="16" fill="white"/>
</clipPath>
</defs>
</svg>
