<svg width="16" height="16" viewBox="0 0 16 16" fill="none" xmlns="http://www.w3.org/2000/svg">
<g clip-path="url(#clip0_5_497)">
<path d="M13.5 2.5H2.5C2.23478 2.5 1.98043 2.60536 1.79289 2.79289C1.60536 2.98043 1.5 3.23478 1.5 3.5V12.5C1.5 12.7652 1.60536 13.0196 1.79289 13.2071C1.98043 13.3946 2.23478 13.5 2.5 13.5H13.5C13.7652 13.5 14.0196 13.3946 14.2071 13.2071C14.3946 13.0196 14.5 12.7652 14.5 12.5V3.5C14.5 3.23478 14.3946 2.98043 14.2071 2.79289C14.0196 2.60536 13.7652 2.5 13.5 2.5ZM12.7775 8.41625L8.2775 11.4163C8.1953 11.471 8.09874 11.5001 8 11.5C7.86739 11.5 7.74021 11.4473 7.64645 11.3536C7.55268 11.2598 7.5 11.1326 7.5 11V5.9375L3.7775 8.41625C3.72284 8.45269 3.66153 8.47801 3.59708 8.49076C3.53264 8.50351 3.46631 8.50344 3.40189 8.49056C3.33747 8.47767 3.27622 8.45222 3.22163 8.41567C3.16704 8.37911 3.12019 8.33216 3.08375 8.2775C3.04731 8.22284 3.02199 8.16153 3.00924 8.09708C2.99649 8.03264 2.99656 7.96631 3.00944 7.90189C3.02233 7.83747 3.04778 7.77622 3.08433 7.72163C3.12089 7.66704 3.16784 7.62019 3.2225 7.58375L7.7225 4.58375C7.79782 4.5335 7.88537 4.50464 7.9758 4.50026C8.06624 4.49588 8.15617 4.51614 8.23599 4.55887C8.31582 4.60161 8.38254 4.66521 8.42903 4.74291C8.47553 4.8206 8.50006 4.90946 8.5 5V10.0656L12.2225 7.58375C12.3329 7.51015 12.468 7.48342 12.5981 7.50944C12.7282 7.53547 12.8427 7.6121 12.9163 7.7225C12.9898 7.8329 13.0166 7.96801 12.9906 8.09811C12.9645 8.22821 12.8879 8.34265 12.7775 8.41625Z" fill="black"/>
</g>
<defs>
<clipPath id="clip0_5_497">
<rect width="16" height="16" fill="white"/>
</clipPath>
</defs>
</svg>
