<svg width="16" height="16" viewBox="0 0 16 16" fill="none" xmlns="http://www.w3.org/2000/svg">
<g clip-path="url(#clip0_5_1255)">
<path d="M13.5 2.5H2.5C2.23478 2.5 1.98043 2.60536 1.79289 2.79289C1.60536 2.98043 1.5 3.23478 1.5 3.5V12.5C1.5 12.7652 1.60536 13.0196 1.79289 13.2071C1.98043 13.3946 2.23478 13.5 2.5 13.5H13.5C13.7652 13.5 14.0196 13.3946 14.2071 13.2071C14.3946 13.0196 14.5 12.7652 14.5 12.5V3.5C14.5 3.23478 14.3946 2.98043 14.2071 2.79289C14.0196 2.60536 13.7652 2.5 13.5 2.5ZM12.8844 8.32L10.3844 11.32C10.3374 11.3764 10.2787 11.4217 10.2122 11.4528C10.1458 11.4839 10.0733 11.5 10 11.5H9.97313C9.89544 11.4959 9.81978 11.4736 9.75219 11.4351C9.68459 11.3966 9.62692 11.3429 9.58375 11.2781L5.95875 5.835L3.88438 8.32C3.79951 8.42194 3.67762 8.486 3.54552 8.49807C3.41342 8.51014 3.28194 8.46924 3.18 8.38437C3.07806 8.29951 3.014 8.17762 3.00193 8.04552C2.98986 7.91342 3.03076 7.78194 3.11562 7.68L5.61562 4.68C5.66541 4.62012 5.72849 4.5727 5.79984 4.54151C5.87119 4.51032 5.94884 4.49623 6.0266 4.50036C6.10436 4.50449 6.18008 4.52672 6.24773 4.56529C6.31538 4.60385 6.37309 4.65769 6.41625 4.7225L10.0444 10.1656L12.1156 7.68C12.1576 7.62952 12.2092 7.58782 12.2673 7.55726C12.3255 7.52671 12.3891 7.50791 12.4545 7.50193C12.5199 7.49595 12.5858 7.50292 12.6485 7.52243C12.7113 7.54193 12.7695 7.5736 12.82 7.61562C12.8705 7.65765 12.9122 7.7092 12.9427 7.76734C12.9733 7.82548 12.9921 7.88907 12.9981 7.95448C13.004 8.01989 12.9971 8.08583 12.9776 8.14855C12.9581 8.21126 12.9264 8.26952 12.8844 8.32Z" fill="black"/>
</g>
<defs>
<clipPath id="clip0_5_1255">
<rect width="16" height="16" fill="white"/>
</clipPath>
</defs>
</svg>
