<svg width="16" height="16" viewBox="0 0 16 16" fill="none" xmlns="http://www.w3.org/2000/svg">
<g clip-path="url(#clip0_5_1246)">
<path d="M13.5 2.5H2.5C2.23478 2.5 1.98043 2.60536 1.79289 2.79289C1.60536 2.98043 1.5 3.23478 1.5 3.5V12.5C1.5 12.7652 1.60536 13.0196 1.79289 13.2071C1.98043 13.3946 2.23478 13.5 2.5 13.5H13.5C13.7652 13.5 14.0196 13.3946 14.2071 13.2071C14.3946 13.0196 14.5 12.7652 14.5 12.5V3.5C14.5 3.23478 14.3946 2.98043 14.2071 2.79289C14.0196 2.60536 13.7652 2.5 13.5 2.5ZM4.5 9.5C4.5 9.63261 4.44732 9.75979 4.35355 9.85355C4.25979 9.94732 4.13261 10 4 10C3.86739 10 3.74021 9.94732 3.64645 9.85355C3.55268 9.75979 3.5 9.63261 3.5 9.5V6.5C3.5 6.36739 3.55268 6.24021 3.64645 6.14645C3.74021 6.05268 3.86739 6 4 6C4.13261 6 4.25979 6.05268 4.35355 6.14645C4.44732 6.24021 4.5 6.36739 4.5 6.5V9.5ZM6.5 11.5C6.5 11.6326 6.44732 11.7598 6.35355 11.8536C6.25979 11.9473 6.13261 12 6 12C5.86739 12 5.74021 11.9473 5.64645 11.8536C5.55268 11.7598 5.5 11.6326 5.5 11.5V4.5C5.5 4.36739 5.55268 4.24021 5.64645 4.14645C5.74021 4.05268 5.86739 4 6 4C6.13261 4 6.25979 4.05268 6.35355 4.14645C6.44732 4.24021 6.5 4.36739 6.5 4.5V11.5ZM8.5 10.5C8.5 10.6326 8.44732 10.7598 8.35355 10.8536C8.25979 10.9473 8.13261 11 8 11C7.86739 11 7.74021 10.9473 7.64645 10.8536C7.55268 10.7598 7.5 10.6326 7.5 10.5V5.5C7.5 5.36739 7.55268 5.24021 7.64645 5.14645C7.74021 5.05268 7.86739 5 8 5C8.13261 5 8.25979 5.05268 8.35355 5.14645C8.44732 5.24021 8.5 5.36739 8.5 5.5V10.5ZM10.5 9.5C10.5 9.63261 10.4473 9.75979 10.3536 9.85355C10.2598 9.94732 10.1326 10 10 10C9.86739 10 9.74021 9.94732 9.64645 9.85355C9.55268 9.75979 9.5 9.63261 9.5 9.5V6.5C9.5 6.36739 9.55268 6.24021 9.64645 6.14645C9.74021 6.05268 9.86739 6 10 6C10.1326 6 10.2598 6.05268 10.3536 6.14645C10.4473 6.24021 10.5 6.36739 10.5 6.5V9.5ZM12.5 10C12.5 10.1326 12.4473 10.2598 12.3536 10.3536C12.2598 10.4473 12.1326 10.5 12 10.5C11.8674 10.5 11.7402 10.4473 11.6464 10.3536C11.5527 10.2598 11.5 10.1326 11.5 10V6C11.5 5.86739 11.5527 5.74021 11.6464 5.64645C11.7402 5.55268 11.8674 5.5 12 5.5C12.1326 5.5 12.2598 5.55268 12.3536 5.64645C12.4473 5.74021 12.5 5.86739 12.5 6V10Z" fill="black"/>
</g>
<defs>
<clipPath id="clip0_5_1246">
<rect width="16" height="16" fill="white"/>
</clipPath>
</defs>
</svg>
