<svg width="16" height="16" viewBox="0 0 16 16" fill="none" xmlns="http://www.w3.org/2000/svg">
<g clip-path="url(#clip0_5_1261)">
<path d="M13.5 2.5H2.5C2.23478 2.5 1.98043 2.60536 1.79289 2.79289C1.60536 2.98043 1.5 3.23478 1.5 3.5V12.5C1.5 12.7652 1.60536 13.0196 1.79289 13.2071C1.98043 13.3946 2.23478 13.5 2.5 13.5H13.5C13.7652 13.5 14.0196 13.3946 14.2071 13.2071C14.3946 13.0196 14.5 12.7652 14.5 12.5V3.5C14.5 3.23478 14.3946 2.98043 14.2071 2.79289C14.0196 2.60536 13.7652 2.5 13.5 2.5ZM13.2013 8.215C12.1588 10.4025 11.26 11.375 10.2856 11.375C9.05563 11.375 8.32375 9.84 7.54875 8.215C7 7.0625 6.3125 5.625 5.71438 5.625C5.48062 5.625 4.81625 5.875 3.70125 8.215C3.64227 8.33141 3.54011 8.42014 3.41659 8.46225C3.29307 8.50436 3.15799 8.49652 3.04018 8.44038C2.92237 8.38425 2.83117 8.28429 2.78606 8.16183C2.74095 8.03938 2.74551 7.90414 2.79875 7.785C3.84125 5.59937 4.74 4.625 5.71438 4.625C6.94438 4.625 7.67625 6.16 8.45125 7.785C9 8.9375 9.6875 10.375 10.2856 10.375C10.5194 10.375 11.1838 10.125 12.2987 7.785C12.326 7.72412 12.3651 7.66929 12.4138 7.62375C12.4625 7.57821 12.5198 7.54287 12.5824 7.51982C12.645 7.49677 12.7115 7.48647 12.7782 7.48953C12.8448 7.49258 12.9101 7.50893 12.9703 7.53762C13.0305 7.5663 13.0844 7.60674 13.1287 7.65655C13.173 7.70636 13.207 7.76453 13.2285 7.82765C13.25 7.89077 13.2587 7.95756 13.254 8.02408C13.2493 8.0906 13.2314 8.15551 13.2013 8.215Z" fill="black"/>
</g>
<defs>
<clipPath id="clip0_5_1261">
<rect width="16" height="16" fill="white"/>
</clipPath>
</defs>
</svg>
