<svg width="16" height="16" viewBox="0 0 16 16" fill="none" xmlns="http://www.w3.org/2000/svg">
<g clip-path="url(#clip0_5_1229)">
<path d="M13 2H3C2.73478 2 2.48043 2.10536 2.29289 2.29289C2.10536 2.48043 2 2.73478 2 3V13C2 13.2652 2.10536 13.5196 2.29289 13.7071C2.48043 13.8946 2.73478 14 3 14H13C13.2652 14 13.5196 13.8946 13.7071 13.7071C13.8946 13.5196 14 13.2652 14 13V3C14 2.73478 13.8946 2.48043 13.7071 2.29289C13.5196 2.10536 13.2652 2 13 2ZM12.325 11.0544C11.5081 11.7531 10.7688 11.9981 10.0975 11.9981C9.20625 11.9981 8.43375 11.5656 7.75562 11.1856C6.605 10.5413 5.69625 10.0325 4.325 11.205C4.2751 11.2477 4.21728 11.2801 4.15484 11.3004C4.0924 11.3208 4.02657 11.3286 3.96111 11.3235C3.89564 11.3184 3.83183 11.3005 3.7733 11.2707C3.71477 11.2409 3.66268 11.1999 3.62 11.15C3.57732 11.1001 3.54489 11.0423 3.52455 10.9798C3.50422 10.9174 3.49638 10.8516 3.50149 10.7861C3.5066 10.7206 3.52455 10.6568 3.55432 10.5983C3.58409 10.5398 3.6251 10.4877 3.675 10.445C5.57625 8.82 7.05562 9.6475 8.24438 10.3131C9.395 10.9575 10.3069 11.4662 11.675 10.2937C11.7758 10.2076 11.9067 10.1649 12.0389 10.1752C12.1711 10.1856 12.2938 10.248 12.38 10.3488C12.4662 10.4495 12.5088 10.5804 12.4985 10.7126C12.4882 10.8449 12.4258 10.9676 12.325 11.0538V11.0544ZM12.325 8.30437C11.5081 9.00312 10.7688 9.24813 10.0975 9.24813C9.20625 9.24813 8.43375 8.81563 7.75562 8.43563C6.605 7.79125 5.69625 7.2825 4.325 8.455C4.22422 8.5412 4.09332 8.58382 3.96111 8.57351C3.8289 8.5632 3.7062 8.50078 3.62 8.4C3.5338 8.29922 3.49118 8.16832 3.50149 8.03611C3.5118 7.9039 3.57422 7.7812 3.675 7.695C5.57625 6.07 7.05562 6.8975 8.24438 7.56313C9.395 8.2075 10.3069 8.71625 11.675 7.54375C11.7249 7.50107 11.7827 7.46864 11.8452 7.4483C11.9076 7.42797 11.9734 7.42013 12.0389 7.42524C12.1044 7.43035 12.1682 7.4483 12.2267 7.47807C12.2852 7.50784 12.3373 7.54885 12.38 7.59875C12.4227 7.64865 12.4551 7.70647 12.4754 7.76891C12.4958 7.83135 12.5036 7.89718 12.4985 7.96264C12.4934 8.02811 12.4755 8.09192 12.4457 8.15045C12.4159 8.20898 12.3749 8.26107 12.325 8.30375V8.30437ZM12.325 5.55438C11.5081 6.25313 10.7688 6.49813 10.0975 6.49813C9.20625 6.49813 8.43375 6.06563 7.75562 5.68563C6.605 5.04125 5.69625 4.5325 4.325 5.705C4.22375 5.78667 4.09466 5.82567 3.96512 5.81372C3.83559 5.80177 3.71581 5.7398 3.63122 5.64097C3.54663 5.54215 3.50389 5.41425 3.51206 5.28442C3.52023 5.15459 3.57868 5.03306 3.675 4.94562C5.57625 3.32062 7.05562 4.14812 8.24438 4.81375C9.395 5.45812 10.3069 5.96688 11.675 4.79437C11.7758 4.70818 11.9067 4.66555 12.0389 4.67586C12.1711 4.68618 12.2938 4.74859 12.38 4.84937C12.4662 4.95016 12.5088 5.08105 12.4985 5.21327C12.4882 5.34548 12.4258 5.46818 12.325 5.55438Z" fill="black"/>
</g>
<defs>
<clipPath id="clip0_5_1229">
<rect width="16" height="16" fill="white"/>
</clipPath>
</defs>
</svg>
