<svg width="16" height="16" viewBox="0 0 16 16" fill="none" xmlns="http://www.w3.org/2000/svg">
<g clip-path="url(#clip0_5_1241)">
<path d="M13.5 2.5H2.5C2.23478 2.5 1.98043 2.60536 1.79289 2.79289C1.60536 2.98043 1.5 3.23478 1.5 3.5V12.5C1.5 12.7652 1.60536 13.0196 1.79289 13.2071C1.98043 13.3946 2.23478 13.5 2.5 13.5H13.5C13.7652 13.5 14.0196 13.3946 14.2071 13.2071C14.3946 13.0196 14.5 12.7652 14.5 12.5V3.5C14.5 3.23478 14.3946 2.98043 14.2071 2.79289C14.0196 2.60536 13.7652 2.5 13.5 2.5ZM11.5 6C11.5 5.86739 11.5527 5.74021 11.6464 5.64645C11.7402 5.55268 11.8674 5.5 12 5.5C12.1326 5.5 12.2598 5.55268 12.3536 5.64645C12.4473 5.74021 12.5 5.86739 12.5 6V9.17188C12.5 9.30448 12.4473 9.43166 12.3536 9.52543C12.2598 9.6192 12.1326 9.67188 12 9.67188C11.8674 9.67188 11.7402 9.6192 11.6464 9.52543C11.5527 9.43166 11.5 9.30448 11.5 9.17188V6ZM9.5 6.5C9.5 6.36739 9.55268 6.24021 9.64645 6.14645C9.74021 6.05268 9.86739 6 10 6C10.1326 6 10.2598 6.05268 10.3536 6.14645C10.4473 6.24021 10.5 6.36739 10.5 6.5V7.17188C10.5 7.30448 10.4473 7.43166 10.3536 7.52543C10.2598 7.6192 10.1326 7.67188 10 7.67188C9.86739 7.67188 9.74021 7.6192 9.64645 7.52543C9.55268 7.43166 9.5 7.30448 9.5 7.17188V6.5ZM4.5 9.5C4.5 9.63261 4.44732 9.75979 4.35355 9.85355C4.25979 9.94732 4.13261 10 4 10C3.86739 10 3.74021 9.94732 3.64645 9.85355C3.55268 9.75979 3.5 9.63261 3.5 9.5V6.5C3.5 6.36739 3.55268 6.24021 3.64645 6.14645C3.74021 6.05268 3.86739 6 4 6C4.13261 6 4.25979 6.05268 4.35355 6.14645C4.44732 6.24021 4.5 6.36739 4.5 6.5V9.5ZM12.3538 12.3538C12.3073 12.4002 12.2522 12.4371 12.1915 12.4623C12.1308 12.4874 12.0657 12.5004 12 12.5004C11.9343 12.5004 11.8692 12.4874 11.8085 12.4623C11.7478 12.4371 11.6927 12.4002 11.6462 12.3538L8.5 9.20687V10.5C8.5 10.6326 8.44732 10.7598 8.35355 10.8536C8.25979 10.9473 8.13261 11 8 11C7.86739 11 7.74021 10.9473 7.64645 10.8536C7.55268 10.7598 7.5 10.6326 7.5 10.5V8.20687L6.5 7.20687V11.5C6.5 11.6326 6.44732 11.7598 6.35355 11.8536C6.25979 11.9473 6.13261 12 6 12C5.86739 12 5.74021 11.9473 5.64645 11.8536C5.55268 11.7598 5.5 11.6326 5.5 11.5V6.21875C5.5 6.215 5.5 6.21125 5.5 6.2075L3.64625 4.35375C3.55243 4.25993 3.49972 4.13268 3.49972 4C3.49972 3.86732 3.55243 3.74007 3.64625 3.64625C3.74007 3.55243 3.86732 3.49972 4 3.49972C4.13268 3.49972 4.25993 3.55243 4.35375 3.64625L12.3538 11.6462C12.4002 11.6927 12.4371 11.7478 12.4623 11.8085C12.4874 11.8692 12.5004 11.9343 12.5004 12C12.5004 12.0657 12.4874 12.1308 12.4623 12.1915C12.4371 12.2522 12.4002 12.3073 12.3538 12.3538Z" fill="black"/>
</g>
<defs>
<clipPath id="clip0_5_1241">
<rect width="16" height="16" fill="white"/>
</clipPath>
</defs>
</svg>
