<svg width="16" height="16" viewBox="0 0 16 16" fill="none" xmlns="http://www.w3.org/2000/svg">
<g clip-path="url(#clip0_5_1225)">
<path d="M5.20875 2.69932C5.18487 2.67255 5.16703 2.64096 5.15645 2.60668C5.14586 2.5724 5.14277 2.53625 5.1474 2.50068C5.15202 2.4651 5.16425 2.43094 5.18325 2.40051C5.20225 2.37008 5.22757 2.3441 5.2575 2.32432C6.25229 1.6773 7.44478 1.40519 8.62177 1.55665C9.79876 1.7081 10.8835 2.27324 11.6821 3.15102C12.4807 4.02881 12.941 5.16202 12.9808 6.34804C13.0206 7.53407 12.6373 8.69559 11.8994 9.62495C11.8769 9.65358 11.8485 9.67697 11.8161 9.69348C11.7836 9.70999 11.748 9.71922 11.7116 9.72053C11.6753 9.72184 11.6391 9.7152 11.6055 9.70106C11.572 9.68693 11.542 9.66564 11.5175 9.6387L10.4906 8.5087C10.4524 8.46653 10.4297 8.41257 10.4263 8.35574C10.4229 8.29892 10.439 8.24264 10.4719 8.1962C10.8531 7.63888 11.0352 6.96923 10.9887 6.29558C10.9422 5.62194 10.6697 4.98369 10.2154 4.48409C9.76117 3.98449 9.15163 3.65275 8.48543 3.54255C7.81923 3.43235 7.13534 3.55012 6.54437 3.87682C6.49503 3.90499 6.43756 3.91551 6.38144 3.90665C6.32532 3.89779 6.27389 3.87007 6.23562 3.82807L5.20875 2.69932ZM7.93313 4.49995C7.75431 4.50568 7.57708 4.53553 7.40625 4.5887C7.36542 4.60101 7.32841 4.62356 7.29875 4.65421C7.26909 4.68486 7.24777 4.72258 7.23681 4.7638C7.22584 4.80502 7.22561 4.84835 7.23612 4.88969C7.24664 4.93102 7.26755 4.96898 7.29688 4.99995L9.42937 7.34557C9.45778 7.37692 9.49366 7.40054 9.53368 7.41424C9.5737 7.42794 9.61654 7.43126 9.65819 7.42389C9.69984 7.41652 9.73894 7.39871 9.77183 7.37211C9.80472 7.34551 9.83033 7.31101 9.84625 7.27182C9.94837 7.02733 10.0006 6.76491 10 6.49995C9.99709 6.23247 9.94115 5.96823 9.83542 5.72252C9.72969 5.47682 9.57627 5.25452 9.38404 5.06851C9.19181 4.8825 8.96459 4.73648 8.71554 4.63888C8.46649 4.54128 8.20055 4.49406 7.93313 4.49995ZM13.3363 13.8687C13.2381 13.9579 13.1086 14.0044 12.9761 13.9981C12.8437 13.9917 12.7192 13.9331 12.63 13.8349L12.3244 13.4999H2C1.93146 13.5001 1.86361 13.4862 1.80069 13.459C1.73776 13.4318 1.68109 13.392 1.6342 13.342C1.58731 13.292 1.5512 13.2329 1.52811 13.1684C1.50503 13.1038 1.49546 13.0352 1.5 12.9668C1.51106 12.838 1.57055 12.7182 1.66648 12.6316C1.76241 12.5449 1.88763 12.4979 2.01687 12.4999H7.5V11.4749C6.66768 11.392 5.86953 11.1013 5.17875 10.6296C4.48797 10.158 3.92667 9.52043 3.54634 8.77546C3.16602 8.03048 2.97884 7.20193 3.00197 6.36581C3.02511 5.52969 3.25781 4.71275 3.67875 3.98995L2.63 2.8362C2.58492 2.78777 2.54989 2.73087 2.52696 2.66881C2.50403 2.60674 2.49364 2.54075 2.4964 2.47464C2.49917 2.40853 2.51502 2.34363 2.54305 2.28369C2.57108 2.22376 2.61073 2.16998 2.65969 2.12548C2.70866 2.08098 2.76597 2.04665 2.82831 2.02446C2.89064 2.00227 2.95676 1.99268 3.02283 1.99623C3.0889 1.99979 3.15361 2.01642 3.2132 2.04517C3.27279 2.07391 3.32609 2.1142 3.37 2.1637L13.37 13.1637C13.4592 13.2618 13.5057 13.3914 13.4994 13.5238C13.493 13.6563 13.4344 13.7808 13.3363 13.8699V13.8687ZM8 9.49995C8.21007 9.49973 8.41955 9.47753 8.625 9.4337L7.76312 8.48557C7.28471 8.42863 6.84292 8.2009 6.51899 7.84425C6.19507 7.4876 6.01078 7.026 6 6.54432L5.13938 5.59682C4.9975 6.04625 4.9635 6.52278 5.04014 6.9878C5.11678 7.45282 5.3019 7.89324 5.5805 8.27337C5.8591 8.6535 6.22334 8.96264 6.6437 9.17574C7.06406 9.38885 7.52871 9.49991 8 9.49995ZM11.415 12.4999L10.0887 11.0412C9.58709 11.2734 9.05008 11.42 8.5 11.4749V12.4999H11.415Z" fill="black"/>
</g>
<defs>
<clipPath id="clip0_5_1225">
<rect width="16" height="16" fill="white"/>
</clipPath>
</defs>
</svg>
