<svg width="16" height="16" viewBox="0 0 16 16" fill="none" xmlns="http://www.w3.org/2000/svg">
<g clip-path="url(#clip0_5_1235)">
<path d="M10 6.50006C10 6.89562 9.8827 7.2823 9.66294 7.6112C9.44318 7.9401 9.13082 8.19644 8.76537 8.34782C8.39991 8.49919 7.99778 8.5388 7.60982 8.46163C7.22186 8.38446 6.86549 8.19398 6.58579 7.91427C6.30608 7.63457 6.1156 7.2782 6.03843 6.89024C5.96126 6.50228 6.00087 6.10014 6.15224 5.73469C6.30362 5.36924 6.55996 5.05688 6.88886 4.83712C7.21776 4.61736 7.60444 4.50006 8 4.50006C8.53043 4.50006 9.03914 4.71077 9.41421 5.08585C9.78929 5.46092 10 5.96963 10 6.50006ZM14.5 13.0001C14.5 13.1327 14.4473 13.2598 14.3536 13.3536C14.2598 13.4474 14.1326 13.5001 14 13.5001H2C1.86739 13.5001 1.74021 13.4474 1.64645 13.3536C1.55268 13.2598 1.5 13.1327 1.5 13.0001C1.5 12.8675 1.55268 12.7403 1.64645 12.6465C1.74021 12.5527 1.86739 12.5001 2 12.5001H7.5V11.4751C6.22368 11.3468 5.04548 10.7329 4.20908 9.76032C3.37268 8.78777 2.94205 7.53095 3.00627 6.24981C3.07049 4.96867 3.62463 3.76121 4.5541 2.87717C5.48357 1.99313 6.71725 1.50012 8 1.50012C9.28275 1.50012 10.5164 1.99313 11.4459 2.87717C12.3754 3.76121 12.9295 4.96867 12.9937 6.24981C13.0579 7.53095 12.6273 8.78777 11.7909 9.76032C10.9545 10.7329 9.77632 11.3468 8.5 11.4751V12.5001H14C14.1326 12.5001 14.2598 12.5527 14.3536 12.6465C14.4473 12.7403 14.5 12.8675 14.5 13.0001ZM8 9.50006C8.59334 9.50006 9.17336 9.32411 9.66671 8.99447C10.1601 8.66482 10.5446 8.19629 10.7716 7.64811C10.9987 7.09993 11.0581 6.49673 10.9424 5.91479C10.8266 5.33285 10.5409 4.7983 10.1213 4.37874C9.70176 3.95918 9.16721 3.67346 8.58527 3.5577C8.00333 3.44195 7.40013 3.50136 6.85195 3.72842C6.30377 3.95548 5.83524 4.34 5.50559 4.83335C5.17595 5.3267 5 5.90672 5 6.50006C5.00083 7.29545 5.31716 8.05804 5.87959 8.62047C6.44202 9.1829 7.2046 9.49923 8 9.50006Z" fill="black"/>
</g>
<defs>
<clipPath id="clip0_5_1235">
<rect width="16" height="16" fill="white"/>
</clipPath>
</defs>
</svg>
