<svg width="16" height="16" viewBox="0 0 16 16" fill="none" xmlns="http://www.w3.org/2000/svg">
<g clip-path="url(#clip0_5_1222)">
<path d="M3.13437 9.99994L5.56687 5.78556L5.42687 5.54307C5.2176 5.19196 5.08228 4.8018 5.02922 4.39652C4.97616 3.99124 5.00648 3.57939 5.11832 3.18625C5.23015 2.79311 5.42115 2.42696 5.67958 2.11029C5.93801 1.79362 6.25842 1.5331 6.62116 1.34471C6.9839 1.15633 7.38131 1.04405 7.789 1.01478C8.19669 0.985512 8.60606 1.03986 8.99199 1.17449C9.37792 1.30912 9.73226 1.5212 10.0333 1.7977C10.3343 2.07421 10.5756 2.40931 10.7425 2.78244C10.7949 2.89636 10.8035 3.02557 10.7667 3.14545C10.73 3.26532 10.6504 3.36747 10.5431 3.43244C10.4822 3.46784 10.4144 3.48995 10.3443 3.49731C10.2742 3.50468 10.2033 3.49713 10.1363 3.47518C10.0693 3.45322 10.0078 3.41735 9.9556 3.36992C9.90346 3.32248 9.86193 3.26456 9.83375 3.19994C9.7234 2.95054 9.5632 2.72633 9.36301 2.54112C9.16282 2.35591 8.92687 2.21359 8.66965 2.12293C8.41244 2.03226 8.1394 1.99516 7.86732 2.01391C7.59523 2.03265 7.32986 2.10685 7.08751 2.23193C6.84516 2.35701 6.63095 2.53034 6.45805 2.74126C6.28515 2.95217 6.15722 3.19622 6.08211 3.45841C6.00701 3.72059 5.98632 3.99536 6.02131 4.26583C6.05631 4.5363 6.14626 4.79676 6.28562 5.03119C6.28765 5.03366 6.28933 5.03639 6.29062 5.03931L7.155 6.53556C7.19888 6.61157 7.22199 6.6978 7.22199 6.78556C7.22199 6.87333 7.19888 6.95956 7.155 7.03556L4.86625 10.9999C4.7319 11.2261 4.51383 11.3903 4.25929 11.4568C4.00476 11.5233 3.73427 11.4868 3.50644 11.3553C3.27861 11.2237 3.1118 11.0077 3.04216 10.754C2.97251 10.5003 3.00564 10.2294 3.13437 9.99994ZM11.9469 7.49994H11.1756L8.86625 3.49994C8.7319 3.27375 8.51383 3.10962 8.25929 3.04311C8.00476 2.9766 7.73427 3.01307 7.50644 3.14462C7.27862 3.27617 7.1118 3.4922 7.04216 3.74589C6.97251 3.99959 7.00565 4.27051 7.13437 4.49994L9.29937 8.24994C9.34321 8.32587 9.40625 8.38894 9.48216 8.43282C9.55807 8.4767 9.64419 8.49985 9.73187 8.49994H11.9587C13.0769 8.49994 14.0181 9.41494 14 10.5331C13.9914 11.0544 13.7795 11.5518 13.4095 11.9192C13.0396 12.2866 12.5408 12.495 12.0194 12.4999C11.8916 12.4984 11.7679 12.5445 11.6722 12.6291C11.5766 12.7138 11.5158 12.8311 11.5019 12.9581C11.4961 13.0272 11.5047 13.0967 11.5272 13.1623C11.5497 13.2279 11.5856 13.2881 11.6326 13.339C11.6797 13.39 11.7368 13.4306 11.8003 13.4583C11.8639 13.486 11.9325 13.5002 12.0019 13.4999C12.4007 13.4996 12.7954 13.4198 13.163 13.2653C13.5306 13.1108 13.8638 12.8846 14.1431 12.5999C14.4223 12.3152 14.6421 11.9778 14.7895 11.6072C14.937 11.2367 15.0092 10.8405 15.0019 10.4418C14.9681 8.79932 13.5925 7.49994 11.9494 7.49994H11.9469ZM13 10.4518C12.975 9.91369 12.5112 9.49994 11.9731 9.49994H7.17562C7.08784 9.49992 7.00159 9.52301 6.92556 9.5669C6.84953 9.61078 6.78639 9.67391 6.7425 9.74994L5.7325 11.4999C5.59617 11.735 5.41337 11.9398 5.19526 12.1019C4.97714 12.264 4.72828 12.3799 4.46387 12.4426C4.19946 12.5053 3.92504 12.5135 3.65737 12.4666C3.3897 12.4198 3.13439 12.3188 2.90702 12.17C2.67966 12.0212 2.48501 11.8276 2.33495 11.601C2.18489 11.3745 2.08258 11.1197 2.03425 10.8523C1.98593 10.5849 1.9926 10.3104 2.05388 10.0457C2.11515 9.78092 2.22973 9.53143 2.39062 9.31244C2.46834 9.21125 2.50551 9.08471 2.49488 8.95757C2.48424 8.83042 2.42657 8.71182 2.33312 8.62494C2.28146 8.57891 2.22081 8.5441 2.15501 8.52272C2.0892 8.50133 2.01967 8.49384 1.95082 8.50072C1.88197 8.50759 1.8153 8.52868 1.75502 8.56265C1.69474 8.59662 1.64216 8.64273 1.60062 8.69806C1.21494 9.20914 1.00431 9.83094 0.999998 10.4712C0.994062 11.1337 1.20759 11.7795 1.60727 12.3079C2.00695 12.8363 2.5703 13.2175 3.2094 13.3921C3.84851 13.5666 4.52743 13.5247 5.14022 13.2729C5.75301 13.0211 6.2652 12.5735 6.59687 11.9999L6.88562 11.4999H12C12.1355 11.5001 12.2696 11.4727 12.3941 11.4195C12.5187 11.3663 12.6312 11.2883 12.7247 11.1902C12.8182 11.0922 12.8908 10.9762 12.9381 10.8493C12.9855 10.7224 13.0065 10.5871 13 10.4518Z" fill="black"/>
</g>
<defs>
<clipPath id="clip0_5_1222">
<rect width="16" height="16" fill="white"/>
</clipPath>
</defs>
</svg>
