<svg width="16" height="16" viewBox="0 0 16 16" fill="none" xmlns="http://www.w3.org/2000/svg">
<g clip-path="url(#clip0_5_1220)">
<path d="M9.53625 9.07689L10.9738 9.79439C10.9056 10.1349 10.7215 10.4412 10.4527 10.661C10.1839 10.8809 9.84723 11.0007 9.5 11C8.30693 10.9987 7.16311 10.5242 6.31948 9.68054C5.47585 8.83691 5.00132 7.69309 5 6.50002C4.9999 6.15322 5.11998 5.8171 5.33979 5.54886C5.5596 5.28062 5.86557 5.09683 6.20563 5.02877L6.92312 6.46627L6.3125 7.37502C6.26687 7.44347 6.23883 7.52211 6.23087 7.60399C6.22292 7.68587 6.23528 7.76844 6.26687 7.84439C6.62462 8.69463 7.30101 9.37103 8.15125 9.72877C8.22743 9.76177 8.31063 9.77527 8.39334 9.76807C8.47605 9.76087 8.55567 9.73319 8.625 9.68752L9.53625 9.07689ZM14.5 8.00002C14.5002 9.12223 14.2099 10.2254 13.6574 11.2021C13.1048 12.1788 12.3087 12.9959 11.3467 13.5737C10.3847 14.1515 9.28942 14.4703 8.16759 14.4993C7.04575 14.5282 5.93554 14.2662 4.945 13.7388L2.81687 14.4481C2.64068 14.5069 2.4516 14.5154 2.27083 14.4728C2.09006 14.4301 1.92474 14.3379 1.79341 14.2066C1.66207 14.0753 1.56991 13.91 1.52725 13.7292C1.48459 13.5484 1.49312 13.3593 1.55187 13.1831L2.26125 11.055C1.79759 10.1833 1.53862 9.21739 1.504 8.23063C1.46937 7.24387 1.66 6.26219 2.06142 5.3601C2.46283 4.45802 3.06448 3.65924 3.8207 3.02439C4.57691 2.38954 5.46782 1.93532 6.42579 1.69619C7.38376 1.45707 8.38362 1.43932 9.34948 1.64431C10.3153 1.8493 11.2218 2.27163 12.0001 2.87925C12.7783 3.48687 13.4079 4.2638 13.8411 5.15108C14.2743 6.03835 14.4996 7.01265 14.5 8.00002ZM12 9.50002C12.0001 9.40713 11.9743 9.31606 11.9255 9.23702C11.8767 9.15797 11.8068 9.09409 11.7238 9.05252L9.72375 8.05252C9.64502 8.01329 9.55734 7.99552 9.46955 8.00101C9.38177 8.00649 9.29698 8.03504 9.22375 8.08377L8.30562 8.69627C7.88416 8.46457 7.53732 8.11774 7.30562 7.69627L7.91813 6.77814C7.96685 6.70492 7.9954 6.62013 8.00089 6.53234C8.00637 6.44455 7.98861 6.35687 7.94938 6.27814L6.94938 4.27814C6.90793 4.19444 6.84386 4.12402 6.76444 4.07486C6.68501 4.0257 6.59341 3.99978 6.5 4.00002C5.83696 4.00002 5.20107 4.26341 4.73223 4.73225C4.26339 5.20109 4 5.83698 4 6.50002C4.00165 7.9582 4.58165 9.35619 5.61274 10.3873C6.64383 11.4184 8.04182 11.9984 9.5 12C9.8283 12 10.1534 11.9354 10.4567 11.8097C10.76 11.6841 11.0356 11.4999 11.2678 11.2678C11.4999 11.0356 11.6841 10.76 11.8097 10.4567C11.9353 10.1534 12 9.82832 12 9.50002Z" fill="black"/>
</g>
<defs>
<clipPath id="clip0_5_1220">
<rect width="16" height="16" fill="white"/>
</clipPath>
</defs>
</svg>
