<svg width="16" height="16" viewBox="0 0 16 16" fill="none" xmlns="http://www.w3.org/2000/svg">
<g clip-path="url(#clip0_5_1565)">
<path d="M8.99999 3C8.99999 2.60444 9.11728 2.21776 9.33705 1.88886C9.55681 1.55996 9.86917 1.30362 10.2346 1.15224C10.6001 1.00087 11.0022 0.96126 11.3902 1.03843C11.7781 1.1156 12.1345 1.30608 12.4142 1.58579C12.6939 1.86549 12.8844 2.22186 12.9616 2.60982C13.0387 2.99778 12.9991 3.39992 12.8477 3.76537C12.6964 4.13082 12.44 4.44318 12.1111 4.66294C11.7822 4.8827 11.3955 5 11 5C10.4696 5 9.96085 4.78929 9.58577 4.41421C9.2107 4.03914 8.99999 3.53043 8.99999 3ZM9.99999 10C9.86738 10 9.7402 10.0527 9.64643 10.1464C9.55266 10.2402 9.49999 10.3674 9.49999 10.5C9.49999 11.0933 9.32404 11.6734 8.9944 12.1667C8.66475 12.6601 8.19622 13.0446 7.64804 13.2716C7.09986 13.4987 6.49666 13.5581 5.91472 13.4424C5.33277 13.3266 4.79822 13.0409 4.37867 12.6213C3.95911 12.2018 3.67339 11.6672 3.55763 11.0853C3.44187 10.5033 3.50128 9.90013 3.72835 9.35195C3.95541 8.80377 4.33993 8.33524 4.83328 8.00559C5.32662 7.67595 5.90664 7.5 6.49999 7.5C6.6326 7.5 6.75977 7.44732 6.85354 7.35355C6.94731 7.25979 6.99999 7.13261 6.99999 7C6.99999 6.86739 6.94731 6.74022 6.85354 6.64645C6.75977 6.55268 6.6326 6.5 6.49999 6.5C5.70886 6.5 4.9355 6.7346 4.27771 7.17412C3.61991 7.61365 3.10722 8.23836 2.80447 8.96927C2.50172 9.70017 2.4225 10.5044 2.57685 11.2804C2.73119 12.0563 3.11215 12.769 3.67156 13.3284C4.23097 13.8878 4.9437 14.2688 5.71963 14.4231C6.49555 14.5775 7.29982 14.4983 8.03072 14.1955C8.76163 13.8928 9.38634 13.3801 9.82586 12.7223C10.2654 12.0645 10.5 11.2911 10.5 10.5C10.5 10.3674 10.4473 10.2402 10.3535 10.1464C10.2598 10.0527 10.1326 10 9.99999 10ZM12.5 8H8.86374L9.93374 6.13875C9.99742 6.02795 10.0163 5.89698 9.98638 5.77272C9.95651 5.64847 9.8802 5.54037 9.77311 5.47063C8.70204 4.77432 7.43667 4.43805 6.16122 4.51078C4.88578 4.58351 3.66684 5.06144 2.68186 5.875C2.62853 5.91587 2.58397 5.96706 2.55087 6.02553C2.51776 6.084 2.49678 6.14855 2.48917 6.21531C2.48157 6.28207 2.4875 6.34967 2.50661 6.41409C2.52572 6.47851 2.55762 6.53841 2.60039 6.59023C2.64317 6.64204 2.69596 6.6847 2.75559 6.71566C2.81523 6.74662 2.88049 6.76524 2.94748 6.77041C3.01448 6.77558 3.08182 6.7672 3.1455 6.74576C3.20918 6.72432 3.26789 6.69026 3.31811 6.64563C4.0772 6.02038 5.00365 5.63258 5.98179 5.53065C6.95993 5.42873 7.94642 5.61719 8.81811 6.0725L7.56624 8.25C7.52232 8.32606 7.49922 8.41235 7.49925 8.50019C7.49928 8.58802 7.52245 8.67429 7.56642 8.75032C7.61039 8.82635 7.67362 8.88946 7.74973 8.93329C7.82584 8.97712 7.91216 9.00013 7.99999 9H11.89L11.01 13.4019C10.984 13.5318 11.0107 13.6668 11.0842 13.777C11.1577 13.8873 11.2719 13.9639 11.4019 13.99C11.4341 13.9967 11.467 14 11.5 14C11.6154 13.9998 11.7272 13.9597 11.8164 13.8864C11.9056 13.8132 11.9667 13.7113 11.9894 13.5981L12.9894 8.59813C13.0039 8.52566 13.0021 8.45087 12.9843 8.37916C12.9664 8.30745 12.9329 8.24058 12.8861 8.18338C12.8393 8.12618 12.7804 8.08007 12.7136 8.04836C12.6468 8.01665 12.5739 8.00013 12.5 8Z" fill="black"/>
</g>
<defs>
<clipPath id="clip0_5_1565">
<rect width="16" height="16" fill="white"/>
</clipPath>
</defs>
</svg>
