<svg width="16" height="16" viewBox="0 0 16 16" fill="none" xmlns="http://www.w3.org/2000/svg">
<g clip-path="url(#clip0_5_1571)">
<path d="M15.6582 12.4743L14.1582 12.9743C14.044 13.0125 13.9199 13.0083 13.8087 12.9624C13.6974 12.9164 13.6065 12.8319 13.5525 12.7243L11.6907 8.99996H6.50004C6.36743 8.99996 6.24025 8.94728 6.14649 8.85351C6.05272 8.75975 6.00004 8.63257 6.00004 8.49996V6.64621C5.19466 6.88664 4.50269 7.40886 4.05061 8.11743C3.59854 8.82599 3.41654 9.67358 3.53789 10.5053C3.65924 11.337 4.07583 12.0972 4.71152 12.6471C5.34721 13.1969 6.15954 13.4997 7.00004 13.5C8.61941 13.5 10.1307 12.3718 10.5157 10.875C10.5321 10.8114 10.5609 10.7516 10.6004 10.6991C10.6399 10.6466 10.6893 10.6024 10.7459 10.5691C10.8025 10.5357 10.8651 10.5138 10.9302 10.5046C10.9952 10.4954 11.0614 10.4992 11.125 10.5156C11.1886 10.532 11.2484 10.5608 11.3009 10.6003C11.3534 10.6398 11.3976 10.6893 11.4309 10.7458C11.4643 10.8024 11.4862 10.865 11.4954 10.9301C11.5046 10.9951 11.5008 11.0614 11.4844 11.125C10.9807 13.0812 9.09504 14.5 7.00004 14.5C5.89415 14.4993 4.82723 14.0915 4.0029 13.3542C3.17858 12.617 2.65458 11.6021 2.53092 10.5032C2.40726 9.4042 2.6926 8.29819 3.33247 7.39622C3.97235 6.49426 4.92195 5.85949 6.00004 5.61309V4.42559C5.59721 4.30548 5.25106 4.0444 5.02491 3.69007C4.79875 3.33574 4.70769 2.91184 4.76837 2.49589C4.82906 2.07994 5.03744 1.69973 5.35541 1.42478C5.67337 1.14984 6.07968 0.998535 6.50004 0.998535C6.92039 0.998535 7.3267 1.14984 7.64467 1.42478C7.96264 1.69973 8.17102 2.07994 8.23171 2.49589C8.29239 2.91184 8.20133 3.33574 7.97517 3.69007C7.74901 4.0444 7.40287 4.30548 7.00004 4.42559V5.49996H10.5C10.6326 5.49996 10.7598 5.55264 10.8536 5.64641C10.9474 5.74018 11 5.86735 11 5.99996C11 6.13257 10.9474 6.25975 10.8536 6.35351C10.7598 6.44728 10.6326 6.49996 10.5 6.49996H7.00004V7.99996H12C12.0928 8.00001 12.1838 8.02588 12.2627 8.07466C12.3416 8.12345 12.4054 8.19324 12.4469 8.27621L14.2532 11.8887L15.3419 11.5256C15.4677 11.4836 15.605 11.4934 15.7237 11.5527C15.8423 11.612 15.9325 11.716 15.9744 11.8418C16.0164 11.9676 16.0066 12.105 15.9473 12.2236C15.888 12.3422 15.784 12.4324 15.6582 12.4743Z" fill="black"/>
</g>
<defs>
<clipPath id="clip0_5_1571">
<rect width="16" height="16" fill="white"/>
</clipPath>
</defs>
</svg>
