<svg width="16" height="16" viewBox="0 0 16 16" fill="none" xmlns="http://www.w3.org/2000/svg">
<g clip-path="url(#clip0_5_1677)">
<path d="M15.4931 5.05684C15.4774 4.9241 15.4352 4.79588 15.369 4.6798C15.3027 4.56373 15.2138 4.46218 15.1074 4.38121C13.0647 2.82727 10.5665 1.99031 7.99995 1.99996C5.43335 1.99031 2.93519 2.82727 0.892446 4.38121C0.786112 4.46218 0.697168 4.56373 0.630916 4.6798C0.564664 4.79588 0.52246 4.9241 0.506821 5.05684C0.491102 5.18924 0.50262 5.32346 0.540667 5.45126C0.578715 5.57905 0.642489 5.69771 0.728071 5.79996L7.22807 13.6393C7.32203 13.7528 7.44001 13.844 7.57349 13.9064C7.70697 13.9687 7.85262 14.0007 7.99995 14C8.14685 14.0003 8.29202 13.9682 8.42504 13.9058C8.55805 13.8435 8.67563 13.7525 8.76932 13.6393L15.2693 5.79996C15.3553 5.69791 15.4196 5.57934 15.4581 5.45154C15.4965 5.32374 15.5085 5.18941 15.4931 5.05684ZM10.6481 9.80684C9.86537 9.28011 8.94337 8.99877 7.99995 8.99877C7.05652 8.99877 6.13452 9.28011 5.35182 9.80684L1.50557 5.17121C3.37311 3.75376 5.65543 2.99072 7.99995 2.99996C10.3445 2.99072 12.6268 3.75376 14.4943 5.17121L10.6481 9.80684Z" fill="black"/>
</g>
<defs>
<clipPath id="clip0_5_1677">
<rect width="16" height="16" fill="white"/>
</clipPath>
</defs>
</svg>
