<svg width="16" height="16" viewBox="0 0 16 16" fill="none" xmlns="http://www.w3.org/2000/svg">
<g clip-path="url(#clip0_5_1112)">
<path d="M13.3699 13.1637C13.415 13.2121 13.4501 13.269 13.473 13.3311C13.4959 13.3932 13.5063 13.4592 13.5035 13.5253C13.5008 13.5914 13.4849 13.6563 13.4569 13.7162C13.4289 13.7762 13.3892 13.8299 13.3403 13.8744C13.2913 13.9189 13.234 13.9533 13.1716 13.9755C13.1093 13.9976 13.0432 14.0072 12.9771 14.0037C12.911 14.0001 12.8463 13.9835 12.7867 13.9547C12.7272 13.926 12.6739 13.8857 12.6299 13.8362L10.5256 11.5237L8.76932 13.6412C8.67545 13.754 8.55779 13.8447 8.42479 13.9067C8.29178 13.9687 8.1467 14.0006 7.99995 14C7.85304 14.0003 7.70787 13.9682 7.57486 13.9059C7.44184 13.8435 7.32427 13.7525 7.23057 13.6393L0.728071 5.79997C0.642489 5.69772 0.578715 5.57906 0.540667 5.45126C0.50262 5.32347 0.491102 5.18925 0.506821 5.05684C0.52246 4.92411 0.564664 4.79588 0.630916 4.67981C0.697168 4.56373 0.786112 4.46218 0.892446 4.38122C1.52257 3.9029 2.19933 3.48935 2.91245 3.14684L2.64432 2.85184C2.55365 2.75514 2.50388 2.62713 2.50539 2.49458C2.5069 2.36203 2.55959 2.2352 2.65245 2.14059C2.70058 2.09406 2.75757 2.05766 2.82004 2.03356C2.8825 2.00947 2.94917 1.99816 3.01609 2.00032C3.08301 2.00248 3.14881 2.01805 3.20959 2.04612C3.27038 2.07419 3.32491 2.11418 3.36995 2.16372L13.3699 13.1637ZM15.4949 5.05684C15.4793 4.92411 15.4371 4.79588 15.3709 4.67981C15.3046 4.56373 15.2157 4.46218 15.1093 4.38122C13.0661 2.82689 10.5672 1.9899 7.99995 1.99997C7.10642 1.99923 6.21563 2.09881 5.34432 2.29684C5.30211 2.30714 5.26331 2.32826 5.23174 2.35811C5.20018 2.38797 5.17695 2.42555 5.16433 2.46712C5.15171 2.5087 5.15014 2.55285 5.15979 2.59521C5.16943 2.63758 5.18995 2.6767 5.21932 2.70872L11.6249 9.75434C11.649 9.78041 11.6784 9.80105 11.711 9.81489C11.7437 9.82874 11.779 9.83547 11.8144 9.83464C11.8499 9.83382 11.8848 9.82545 11.9168 9.81009C11.9488 9.79474 11.9771 9.77275 11.9999 9.74559L15.2718 5.79997C15.3574 5.69772 15.4212 5.57906 15.4592 5.45126C15.4973 5.32347 15.5088 5.18925 15.4931 5.05684H15.4949Z" fill="black"/>
</g>
<defs>
<clipPath id="clip0_5_1112">
<rect width="16" height="16" fill="white"/>
</clipPath>
</defs>
</svg>
