<svg width="16" height="16" viewBox="0 0 16 16" fill="none" xmlns="http://www.w3.org/2000/svg">
<g clip-path="url(#clip0_5_1110)">
<path d="M14.3537 6.14621C14.4002 6.19267 14.437 6.24782 14.4621 6.30851C14.4873 6.36921 14.5002 6.43426 14.5002 6.49996C14.5002 6.56566 14.4873 6.63071 14.4621 6.69141C14.437 6.75211 14.4002 6.80726 14.3537 6.85371C14.3072 6.90017 14.2521 6.93702 14.1914 6.96216C14.1307 6.9873 14.0656 7.00024 13.9999 7.00024C13.9342 7.00024 13.8692 6.9873 13.8085 6.96216C13.7478 6.93702 13.6927 6.90017 13.6462 6.85371L12.4999 5.70684L11.3537 6.85371C11.2599 6.94753 11.1326 7.00024 10.9999 7.00024C10.8673 7.00024 10.74 6.94753 10.6462 6.85371C10.5524 6.75989 10.4997 6.63264 10.4997 6.49996C10.4997 6.36728 10.5524 6.24003 10.6462 6.14621L11.7931 4.99996L10.6462 3.85371C10.5997 3.80726 10.5629 3.75211 10.5378 3.69141C10.5126 3.63071 10.4997 3.56566 10.4997 3.49996C10.4997 3.43426 10.5126 3.36921 10.5378 3.30851C10.5629 3.24782 10.5997 3.19267 10.6462 3.14621C10.74 3.05239 10.8673 2.99968 10.9999 2.99968C11.0656 2.99968 11.1307 3.01262 11.1914 3.03776C11.2521 3.06291 11.3072 3.09976 11.3537 3.14621L12.4999 4.29309L13.6462 3.14621C13.6927 3.09976 13.7478 3.06291 13.8085 3.03776C13.8692 3.01262 13.9342 2.99968 13.9999 2.99968C14.0656 2.99968 14.1307 3.01262 14.1914 3.03776C14.2521 3.06291 14.3072 3.09976 14.3537 3.14621C14.4002 3.19267 14.437 3.24782 14.4621 3.30851C14.4873 3.36921 14.5002 3.43426 14.5002 3.49996C14.5002 3.56566 14.4873 3.63071 14.4621 3.69141C14.437 3.75211 14.4002 3.80726 14.3537 3.85371L13.2068 4.99996L14.3537 6.14621ZM12.9281 8.18746C12.8365 8.12903 12.7498 8.0634 12.6687 7.99121C12.6227 7.94958 12.5629 7.92652 12.5009 7.92652C12.4389 7.92652 12.379 7.94958 12.3331 7.99121C11.9519 8.33086 11.4553 8.51189 10.945 8.49721C10.4347 8.48253 9.94928 8.27325 9.58828 7.91225C9.22728 7.55125 9.018 7.06587 9.00332 6.55555C8.98864 6.04523 9.16967 5.54861 9.50932 5.16746C9.55043 5.1216 9.57317 5.06218 9.57317 5.00059C9.57317 4.93899 9.55043 4.87957 9.50932 4.83371C9.21984 4.50919 9.04402 4.09917 9.0085 3.66576C8.97297 3.23234 9.07968 2.79916 9.31245 2.43184C9.33485 2.3953 9.34749 2.35362 9.34915 2.3108C9.3508 2.26797 9.34142 2.22544 9.32191 2.18728C9.30239 2.14913 9.27339 2.11663 9.2377 2.09291C9.202 2.06919 9.16081 2.05505 9.11807 2.05184C8.74765 2.01725 8.37495 1.99996 7.99995 1.99996C5.43335 1.99031 2.93519 2.82727 0.892446 4.38121C0.786112 4.46218 0.697168 4.56373 0.630916 4.6798C0.564664 4.79588 0.52246 4.9241 0.506821 5.05684C0.491102 5.18924 0.50262 5.32346 0.540667 5.45126C0.578715 5.57905 0.642489 5.69771 0.728071 5.79996L7.22807 13.6393C7.32203 13.7528 7.44001 13.844 7.57349 13.9064C7.70697 13.9687 7.85262 14.0007 7.99995 14C8.14685 14.0003 8.29202 13.9682 8.42504 13.9058C8.55805 13.8435 8.67563 13.7525 8.76932 13.6393L12.9849 8.55746C13.0076 8.53025 13.0242 8.49855 13.0336 8.46445C13.0431 8.43035 13.0452 8.39463 13.0398 8.35966C13.0344 8.32468 13.0217 8.29125 13.0024 8.26156C12.9832 8.23188 12.9578 8.20662 12.9281 8.18746Z" fill="black"/>
</g>
<defs>
<clipPath id="clip0_5_1110">
<rect width="16" height="16" fill="white"/>
</clipPath>
</defs>
</svg>
