<svg width="16" height="16" viewBox="0 0 16 16" fill="none" xmlns="http://www.w3.org/2000/svg">
<g clip-path="url(#clip0_5_1117)">
<path d="M15.2718 5.79996L8.77182 13.6393C8.67786 13.7528 8.55988 13.844 8.42641 13.9064C8.29293 13.9687 8.14727 14.0007 7.99995 14C7.85304 14.0003 7.70787 13.9682 7.57486 13.9058C7.44184 13.8435 7.32427 13.7525 7.23057 13.6393L0.728071 5.79996C0.642489 5.69771 0.578715 5.57905 0.540667 5.45126C0.50262 5.32346 0.491102 5.18924 0.506821 5.05684C0.52246 4.9241 0.564664 4.79588 0.630916 4.6798C0.697168 4.56373 0.786112 4.46218 0.892446 4.38121C2.93519 2.82727 5.43335 1.99031 7.99995 1.99996C10.5665 1.99031 13.0647 2.82727 15.1074 4.38121C15.2138 4.46218 15.3027 4.56373 15.369 4.6798C15.4352 4.79588 15.4774 4.9241 15.4931 5.05684C15.5088 5.18924 15.4973 5.32346 15.4592 5.45126C15.4212 5.57905 15.3574 5.69771 15.2718 5.79996Z" fill="black"/>
</g>
<defs>
<clipPath id="clip0_5_1117">
<rect width="16" height="16" fill="white"/>
</clipPath>
</defs>
</svg>
