<svg width="16" height="16" viewBox="0 0 16 16" fill="none" xmlns="http://www.w3.org/2000/svg">
<g clip-path="url(#clip0_5_203)">
<path d="M14.5001 14.4668C14.4891 14.3382 14.4298 14.2186 14.3341 14.132C14.2384 14.0454 14.1135 13.9982 13.9845 13.9999H11.4339L11.0401 11.2424L11.2426 11.3618C11.3558 11.4285 11.481 11.4722 11.6111 11.4905C11.7412 11.5088 11.8736 11.5012 12.0007 11.4683C12.1279 11.4354 12.2473 11.3778 12.3522 11.2987C12.4571 11.2196 12.5454 11.1206 12.612 11.0074L13.3501 9.75744C13.4802 9.54218 13.5271 9.28676 13.482 9.03932C13.4552 8.90004 13.399 8.7681 13.3171 8.65233C13.2352 8.53656 13.1294 8.43964 13.007 8.36807L9.30825 6.18744C9.19605 6.12347 9.11223 6.0194 9.07362 5.89615C9.03501 5.77291 9.04448 5.63962 9.10012 5.52307C9.13087 5.46188 9.17386 5.40766 9.22642 5.36378C9.27898 5.31989 9.34 5.28726 9.40568 5.26793C9.47137 5.24859 9.54033 5.24295 9.60829 5.25136C9.67625 5.25977 9.74175 5.28205 9.80075 5.31682L11.1101 6.08744C11.1671 6.12125 11.2353 6.13102 11.2995 6.11461C11.3637 6.0982 11.4188 6.05696 11.4526 5.99994L13.362 2.75619C13.4288 2.64299 13.4726 2.51774 13.4909 2.38759C13.5092 2.25745 13.5017 2.12497 13.4688 1.99773C13.4359 1.87049 13.3782 1.75099 13.2991 1.64606C13.2199 1.54113 13.1209 1.45282 13.0076 1.38619L11.7364 0.636191C11.6232 0.56952 11.498 0.525799 11.3679 0.507526C11.2378 0.489253 11.1054 0.496786 10.9783 0.529695C10.8511 0.562603 10.7317 0.620243 10.6268 0.69932C10.5219 0.778398 10.4336 0.877364 10.367 0.990566L8.1795 4.70432C8.14349 4.7655 8.09487 4.81831 8.03687 4.85924C7.97887 4.90018 7.91282 4.92829 7.84311 4.94171C7.7734 4.95513 7.70163 4.95355 7.63258 4.93709C7.56352 4.92062 7.49877 4.88963 7.44262 4.84619C7.34669 4.76915 7.28196 4.65991 7.26047 4.53877C7.23897 4.41762 7.26217 4.29278 7.32575 4.18744L8.09012 2.88869C8.12332 2.83148 8.13249 2.76344 8.11562 2.69947C8.09875 2.63551 8.05722 2.58084 8.00012 2.54744L4.75762 0.638691C4.64445 0.57202 4.51924 0.528299 4.38917 0.510026C4.25909 0.491753 4.12669 0.499286 3.99952 0.532195C3.87236 0.565103 3.75292 0.622743 3.64804 0.70182C3.54315 0.780898 3.45487 0.879864 3.38825 0.993066L2.65012 2.24307C2.52005 2.45811 2.47314 2.71332 2.51825 2.96057C2.54523 3.09984 2.60154 3.23178 2.68344 3.34762C2.76534 3.46346 2.87094 3.56055 2.99325 3.63244L6.69262 5.81244C6.80153 5.87437 6.88384 5.97422 6.92384 6.09295C6.96383 6.21168 6.95873 6.34098 6.9095 6.45619C6.88072 6.52036 6.83874 6.57774 6.78628 6.62458C6.73382 6.67142 6.67208 6.70667 6.60507 6.72802C6.53806 6.74937 6.46731 6.75635 6.39742 6.7485C6.32754 6.74064 6.26009 6.71813 6.1995 6.68244L4.887 5.91119C4.8301 5.87848 4.76263 5.86945 4.69913 5.88605C4.63564 5.90266 4.58122 5.94356 4.54762 5.99994L2.63825 9.24369C2.57158 9.35687 2.52786 9.48207 2.50958 9.61215C2.49131 9.74222 2.49884 9.87463 2.53175 10.0018C2.56466 10.129 2.6223 10.2484 2.70138 10.3533C2.78045 10.4582 2.87942 10.5464 2.99262 10.6131L4.26387 11.3631C4.46241 11.482 4.69685 11.5264 4.92512 11.4881L4.56637 13.9999H2.017C1.88775 13.9979 1.76253 14.0449 1.6666 14.1316C1.57068 14.2182 1.51118 14.338 1.50012 14.4668C1.49558 14.5352 1.50515 14.6038 1.52824 14.6683C1.55132 14.7329 1.58743 14.792 1.63432 14.842C1.68121 14.892 1.73788 14.9318 1.80081 14.959C1.86374 14.9861 1.93158 15.0001 2.00012 14.9999H14.0001C14.0687 15.0001 14.1365 14.9861 14.1994 14.959C14.2624 14.9318 14.319 14.892 14.3659 14.842C14.4128 14.792 14.4489 14.7329 14.472 14.6683C14.4951 14.6038 14.5047 14.5352 14.5001 14.4668ZM5.57637 13.9999L6.12512 10.1749L6.92325 8.81869L7.81262 7.30807C7.87659 7.19603 7.98054 7.11232 8.10364 7.07372C8.22675 7.03512 8.35989 7.04449 8.47637 7.09994C8.53756 7.13069 8.59177 7.17368 8.63566 7.22624C8.67955 7.2788 8.71217 7.33982 8.73151 7.4055C8.75085 7.47119 8.75649 7.54015 8.74808 7.60811C8.73967 7.67607 8.71739 7.74157 8.68262 7.80057L7.912 9.11307C7.8785 9.17019 7.86903 9.23826 7.88567 9.30236C7.9023 9.36645 7.94369 9.42133 8.00075 9.45494L9.93825 10.5956L10.4239 13.9999H5.57637Z" fill="black"/>
</g>
<defs>
<clipPath id="clip0_5_203">
<rect width="16" height="16" fill="white"/>
</clipPath>
</defs>
</svg>
