<svg width="16" height="16" viewBox="0 0 16 16" fill="none" xmlns="http://www.w3.org/2000/svg">
<g clip-path="url(#clip0_5_1507)">
<path d="M6.5 8.99996V12.2275C6.5 12.3601 6.44732 12.4872 6.35355 12.581C6.25979 12.6748 6.13261 12.7275 6 12.7275C5.97003 12.7273 5.94014 12.7245 5.91062 12.7193L1.91062 11.9918C1.79542 11.9709 1.69121 11.9102 1.61617 11.8203C1.54113 11.7304 1.50002 11.6171 1.5 11.5V8.99996C1.5 8.86735 1.55268 8.74017 1.64645 8.6464C1.74021 8.55263 1.86739 8.49996 2 8.49996H6C6.13261 8.49996 6.25979 8.55263 6.35355 8.6464C6.44732 8.74017 6.5 8.86735 6.5 8.99996ZM6.32062 3.38871C6.26438 3.34174 6.1985 3.30771 6.12765 3.28903C6.0568 3.27035 5.98271 3.26746 5.91062 3.28058L1.91062 4.00808C1.79542 4.02901 1.69121 4.08971 1.61617 4.1796C1.54113 4.26949 1.50002 4.38286 1.5 4.49996V6.99996C1.5 7.13256 1.55268 7.25974 1.64645 7.35351C1.74021 7.44728 1.86739 7.49996 2 7.49996H6C6.13261 7.49996 6.25979 7.44728 6.35355 7.35351C6.44732 7.25974 6.5 7.13256 6.5 6.99996V3.77246C6.50001 3.69926 6.48395 3.62696 6.45296 3.56065C6.42197 3.49434 6.37679 3.43564 6.32062 3.38871ZM13 8.49996H8C7.86739 8.49996 7.74021 8.55263 7.64645 8.6464C7.55268 8.74017 7.5 8.86735 7.5 8.99996V12.5906C7.49987 12.7078 7.54092 12.8213 7.61597 12.9113C7.69102 13.0013 7.79531 13.0621 7.91062 13.0831L12.9106 13.9918C12.9401 13.9973 12.97 14.0001 13 14C13.1326 14 13.2598 13.9473 13.3536 13.8535C13.4473 13.7597 13.5 13.6326 13.5 13.5V8.99996C13.5 8.86735 13.4473 8.74017 13.3536 8.6464C13.2598 8.55263 13.1326 8.49996 13 8.49996ZM13.3206 2.11621C13.2644 2.06924 13.1985 2.03521 13.1277 2.01653C13.0568 1.99785 12.9827 1.99496 12.9106 2.00808L7.91062 2.91746C7.79542 2.93839 7.69121 2.99909 7.61617 3.08897C7.54113 3.17886 7.50002 3.29224 7.5 3.40933V6.99996C7.5 7.13256 7.55268 7.25974 7.64645 7.35351C7.74021 7.44728 7.86739 7.49996 8 7.49996H13C13.1326 7.49996 13.2598 7.44728 13.3536 7.35351C13.4473 7.25974 13.5 7.13256 13.5 6.99996V2.49996C13.5 2.42676 13.484 2.35446 13.453 2.28815C13.422 2.22184 13.3768 2.16314 13.3206 2.11621Z" fill="black"/>
</g>
<defs>
<clipPath id="clip0_5_1507">
<rect width="16" height="16" fill="white"/>
</clipPath>
</defs>
</svg>
