<svg width="16" height="16" viewBox="0 0 16 16" fill="none" xmlns="http://www.w3.org/2000/svg">
<g clip-path="url(#clip0_5_1108)">
<path d="M7.50012 6.5H1.50012C1.43158 6.50015 1.36374 6.48621 1.30081 6.45903C1.23788 6.43186 1.18121 6.39204 1.13432 6.34204C1.08743 6.29205 1.05132 6.23294 1.02824 6.1684C1.00515 6.10386 0.995581 6.03527 1.00012 5.96687C1.01118 5.83808 1.07068 5.71828 1.1666 5.63163C1.26253 5.54498 1.38775 5.49794 1.517 5.5H7.00012C7.06867 5.50015 7.13651 5.48621 7.19944 5.45903C7.26236 5.43186 7.31903 5.39204 7.36592 5.34204C7.41281 5.29205 7.44892 5.23294 7.47201 5.1684C7.49509 5.10386 7.50466 5.03527 7.50012 4.96687C7.48906 4.83808 7.42957 4.71828 7.33364 4.63163C7.23772 4.54498 7.1125 4.49794 6.98325 4.5H5.76825C5.73213 4.50038 5.69636 4.49293 5.6634 4.47817C5.63044 4.4634 5.60107 4.44167 5.57731 4.41446C5.55355 4.38726 5.53596 4.35523 5.52577 4.32058C5.51557 4.28593 5.51301 4.24948 5.51825 4.21375C5.5731 3.83446 5.73577 3.47892 5.98689 3.18943C6.23802 2.89994 6.56704 2.6887 6.93478 2.58084C7.30252 2.47298 7.69351 2.47305 8.06122 2.58104C8.42892 2.68903 8.75786 2.90039 9.00888 3.18997C9.25991 3.47954 9.42245 3.83514 9.47717 4.21445C9.53188 4.59376 9.47647 4.9808 9.31752 5.32952C9.15857 5.67824 8.90277 5.97394 8.58058 6.18145C8.25839 6.38896 7.88336 6.49953 7.50012 6.5ZM14.9951 6.35687C14.9599 5.86482 14.7441 5.40313 14.3892 5.06054C14.0342 4.71794 13.5652 4.51862 13.0722 4.50086C12.5792 4.48311 12.097 4.64818 11.7184 4.96436C11.3397 5.28053 11.0912 5.7255 11.0207 6.21375C11.0155 6.24948 11.0181 6.28593 11.0283 6.32058C11.0385 6.35523 11.056 6.38726 11.0798 6.41446C11.1036 6.44167 11.1329 6.4634 11.1659 6.47817C11.1989 6.49293 11.2346 6.50038 11.2707 6.5H12.4857C12.6148 6.49826 12.7397 6.54545 12.8354 6.63206C12.931 6.71868 12.9903 6.8383 13.0014 6.96687C13.0059 7.03527 12.9963 7.10386 12.9733 7.1684C12.9502 7.23294 12.9141 7.29205 12.8672 7.34204C12.8203 7.39204 12.7636 7.43186 12.7007 7.45903C12.6378 7.48621 12.5699 7.50015 12.5014 7.5H2.017C1.88775 7.49794 1.76253 7.54498 1.6666 7.63163C1.57068 7.71828 1.51118 7.83808 1.50012 7.96687C1.49558 8.03527 1.50515 8.10386 1.52824 8.1684C1.55132 8.23294 1.58743 8.29205 1.63432 8.34204C1.68121 8.39204 1.73788 8.43186 1.80081 8.45903C1.86374 8.4862 1.93158 8.50015 2.00012 8.5H13.0001C13.2748 8.50002 13.5466 8.44344 13.7985 8.3338C14.0504 8.22415 14.277 8.06379 14.4641 7.86272C14.6513 7.66164 14.7951 7.42416 14.8864 7.16508C14.9778 6.906 15.0148 6.63088 14.9951 6.35687ZM9.50012 9.5H2.517C2.38775 9.49794 2.26253 9.54498 2.1666 9.63163C2.07068 9.71828 2.01118 9.83808 2.00012 9.96687C1.99558 10.0353 2.00515 10.1039 2.02824 10.1684C2.05132 10.2329 2.08743 10.292 2.13432 10.342C2.18121 10.392 2.23788 10.4319 2.30081 10.459C2.36374 10.4862 2.43158 10.5001 2.50012 10.5H8.98325C9.11228 10.4983 9.23719 10.5454 9.33285 10.6321C9.42851 10.7187 9.48783 10.8383 9.49887 10.9669C9.50341 11.0353 9.49384 11.1039 9.47076 11.1684C9.44767 11.2329 9.41156 11.292 9.36467 11.342C9.31778 11.392 9.26111 11.4319 9.19819 11.459C9.13526 11.4862 9.06742 11.5001 8.99887 11.5H7.76825C7.73213 11.4996 7.69636 11.5071 7.6634 11.5218C7.63044 11.5366 7.60107 11.5583 7.57731 11.5855C7.55355 11.6127 7.53596 11.6448 7.52577 11.6794C7.51557 11.7141 7.51301 11.7505 7.51825 11.7862C7.5731 12.1655 7.73577 12.5211 7.98689 12.8106C8.23802 13.1001 8.56703 13.3113 8.93478 13.4192C9.30252 13.527 9.69351 13.5269 10.0612 13.419C10.4289 13.311 10.7579 13.0996 11.0089 12.81C11.2599 12.5205 11.4225 12.1649 11.4772 11.7855C11.5319 11.4062 11.4765 11.0192 11.3175 10.6705C11.1586 10.3218 10.9028 10.0261 10.5806 9.81855C10.2584 9.61104 9.88336 9.50047 9.50012 9.5Z" fill="black"/>
</g>
<defs>
<clipPath id="clip0_5_1108">
<rect width="16" height="16" fill="white"/>
</clipPath>
</defs>
</svg>
