<svg width="16" height="16" viewBox="0 0 16 16" fill="none" xmlns="http://www.w3.org/2000/svg">
<g clip-path="url(#clip0_5_1509)">
<path d="M12.8331 6.47937L11.4724 1.85875C11.4419 1.75523 11.3788 1.66435 11.2924 1.59969C11.206 1.53503 11.101 1.50006 10.9931 1.5H5.00681C4.89889 1.50006 4.79389 1.53503 4.70749 1.59969C4.62108 1.66435 4.55792 1.75523 4.52744 1.85875L3.16681 6.47937C2.95334 7.1876 2.94216 7.9414 3.13456 8.65564C3.32695 9.36987 3.71524 10.0161 4.25556 10.5212C5.14443 11.3547 6.28641 11.8671 7.49994 11.9769V14.5H5.49994C5.36733 14.5 5.24015 14.5527 5.14638 14.6464C5.05261 14.7402 4.99994 14.8674 4.99994 15C4.99994 15.1326 5.05261 15.2598 5.14638 15.3536C5.24015 15.4473 5.36733 15.5 5.49994 15.5H10.4999C10.6325 15.5 10.7597 15.4473 10.8535 15.3536C10.9473 15.2598 10.9999 15.1326 10.9999 15C10.9999 14.8674 10.9473 14.7402 10.8535 14.6464C10.7597 14.5527 10.6325 14.5 10.4999 14.5H8.49994V11.9769C9.71349 11.8671 10.8555 11.3548 11.7443 10.5212C12.2845 10.016 12.6727 9.36979 12.8651 8.65558C13.0575 7.94137 13.0464 7.18761 12.8331 6.47937ZM5.38056 2.5H10.6193L11.8749 6.76188C11.8806 6.78063 11.8856 6.79937 11.8906 6.81812C10.5518 7.29812 9.04431 6.71812 8.22618 6.30375C6.65181 5.50688 5.40181 5.40563 4.47994 5.55813L5.38056 2.5Z" fill="black"/>
</g>
<defs>
<clipPath id="clip0_5_1509">
<rect width="16" height="16" fill="white"/>
</clipPath>
</defs>
</svg>
