<svg width="16" height="16" viewBox="0 0 16 16" fill="none" xmlns="http://www.w3.org/2000/svg">
<g clip-path="url(#clip0_5_1104)">
<path fill-rule="evenodd" clip-rule="evenodd" d="M8 14C11.3137 14 14 11.3137 14 8C14 4.68629 11.3137 2 8 2C4.68629 2 2 4.68629 2 8C2 11.3137 4.68629 14 8 14ZM6.57055 5.86349C6.37529 5.66823 6.0587 5.66822 5.86344 5.86348C5.66817 6.05874 5.66817 6.37533 5.86343 6.57059L7.2929 8.00009L5.8634 9.42959C5.66813 9.62485 5.66813 9.94143 5.8634 10.1367C6.05866 10.332 6.37524 10.332 6.5705 10.1367L8 8.7072L9.42945 10.1367C9.62471 10.332 9.9413 10.332 10.1366 10.1367C10.3318 9.94144 10.3318 9.62486 10.1366 9.42959L8.7071 8.0001L10.1366 6.57059C10.3319 6.37533 10.3319 6.05875 10.1366 5.86349C9.94134 5.66823 9.62476 5.66823 9.4295 5.86349L8 7.29298L6.57055 5.86349Z" fill="black"/>
</g>
<defs>
<clipPath id="clip0_5_1104">
<rect width="16" height="16" fill="white"/>
</clipPath>
</defs>
</svg>
