<svg width="16" height="16" viewBox="0 0 16 16" fill="none" xmlns="http://www.w3.org/2000/svg">
<g clip-path="url(#clip0_5_1541)">
<path d="M13.4375 13.7406C13.3944 13.819 13.3311 13.8845 13.2542 13.9301C13.1772 13.9757 13.0895 13.9999 13 14H10C9.91585 14 9.83307 13.9787 9.75932 13.9382C9.68557 13.8976 9.62325 13.8392 9.57812 13.7681L7.0475 9.79125L3.37 13.8363C3.28035 13.9326 3.15636 13.9896 3.0249 13.9951C2.89345 14.0006 2.76513 13.9541 2.66776 13.8656C2.57039 13.7771 2.51182 13.6538 2.50475 13.5224C2.49768 13.391 2.54269 13.2622 2.63 13.1637L6.49062 8.91375L2.57812 2.76875C2.52994 2.69315 2.50296 2.60599 2.50002 2.51639C2.49709 2.42679 2.51829 2.33804 2.56142 2.25945C2.60455 2.18086 2.66802 2.11531 2.74518 2.06966C2.82234 2.02402 2.91035 1.99996 3 2H6C6.08415 2.00003 6.16693 2.02129 6.24068 2.06182C6.31443 2.10236 6.37675 2.16085 6.42187 2.23188L8.9525 6.20875L12.63 2.16375C12.7196 2.06745 12.8436 2.01036 12.9751 2.00487C13.1066 1.99938 13.2349 2.04592 13.3322 2.13441C13.4296 2.2229 13.4882 2.3462 13.4952 2.47758C13.5023 2.60896 13.4573 2.73783 13.37 2.83625L9.50937 7.08313L13.4219 13.2319C13.4698 13.3075 13.4965 13.3946 13.4993 13.4841C13.502 13.5736 13.4807 13.6622 13.4375 13.7406Z" fill="black"/>
</g>
<defs>
<clipPath id="clip0_5_1541">
<rect width="16" height="16" fill="white"/>
</clipPath>
</defs>
</svg>
