<svg width="16" height="16" viewBox="0 0 16 16" fill="none" xmlns="http://www.w3.org/2000/svg">
<g clip-path="url(#clip0_5_1102)">
<path d="M13 2H3C2.73478 2 2.48043 2.10536 2.29289 2.29289C2.10536 2.48043 2 2.73478 2 3V13C2 13.2652 2.10536 13.5196 2.29289 13.7071C2.48043 13.8946 2.73478 14 3 14H13C13.2652 14 13.5196 13.8946 13.7071 13.7071C13.8946 13.5196 14 13.2652 14 13V3C14 2.73478 13.8946 2.48043 13.7071 2.29289C13.5196 2.10536 13.2652 2 13 2ZM10.3538 9.64625C10.4002 9.6927 10.4371 9.74786 10.4622 9.80855C10.4873 9.86925 10.5003 9.9343 10.5003 10C10.5003 10.0657 10.4873 10.1308 10.4622 10.1914C10.4371 10.2521 10.4002 10.3073 10.3538 10.3538C10.3073 10.4002 10.2521 10.4371 10.1914 10.4622C10.1308 10.4873 10.0657 10.5003 10 10.5003C9.9343 10.5003 9.86925 10.4873 9.80855 10.4622C9.74786 10.4371 9.6927 10.4002 9.64625 10.3538L8 8.70687L6.35375 10.3538C6.3073 10.4002 6.25214 10.4371 6.19145 10.4622C6.13075 10.4873 6.0657 10.5003 6 10.5003C5.9343 10.5003 5.86925 10.4873 5.80855 10.4622C5.74786 10.4371 5.6927 10.4002 5.64625 10.3538C5.59979 10.3073 5.56294 10.2521 5.5378 10.1914C5.51266 10.1308 5.49972 10.0657 5.49972 10C5.49972 9.9343 5.51266 9.86925 5.5378 9.80855C5.56294 9.74786 5.59979 9.6927 5.64625 9.64625L7.29313 8L5.64625 6.35375C5.55243 6.25993 5.49972 6.13268 5.49972 6C5.49972 5.86732 5.55243 5.74007 5.64625 5.64625C5.74007 5.55243 5.86732 5.49972 6 5.49972C6.13268 5.49972 6.25993 5.55243 6.35375 5.64625L8 7.29313L9.64625 5.64625C9.6927 5.59979 9.74786 5.56294 9.80855 5.5378C9.86925 5.51266 9.9343 5.49972 10 5.49972C10.0657 5.49972 10.1308 5.51266 10.1914 5.5378C10.2521 5.56294 10.3073 5.59979 10.3538 5.64625C10.4002 5.6927 10.4371 5.74786 10.4622 5.80855C10.4873 5.86925 10.5003 5.9343 10.5003 6C10.5003 6.0657 10.4873 6.13075 10.4622 6.19145C10.4371 6.25214 10.4002 6.3073 10.3538 6.35375L8.70687 8L10.3538 9.64625Z" fill="black"/>
</g>
<defs>
<clipPath id="clip0_5_1102">
<rect width="16" height="16" fill="white"/>
</clipPath>
</defs>
</svg>
