<svg width="16" height="16" viewBox="0 0 16 16" fill="none" xmlns="http://www.w3.org/2000/svg">
<g clip-path="url(#clip0_5_1100)">
<path d="M4.33735 9.05562C3.85364 9.89933 3.46042 10.7918 3.16423 11.7181C3.15024 11.7617 3.12456 11.8006 3.08997 11.8306C3.05538 11.8606 3.01321 11.8805 2.96807 11.8882C2.92294 11.8959 2.87656 11.891 2.834 11.8741C2.79144 11.8573 2.75433 11.829 2.72673 11.7925C2.08642 10.9059 1.6815 9.87132 1.54985 8.78562C1.54558 8.74971 1.54914 8.7133 1.5603 8.67891C1.57145 8.64451 1.58994 8.61295 1.61448 8.58639C1.63901 8.55983 1.66902 8.53891 1.70243 8.52507C1.73584 8.51124 1.77185 8.50481 1.80798 8.50624C2.67673 8.54012 3.53282 8.72606 4.33735 9.05562ZM2.74985 4.82124C4.12464 4.9742 5.45945 5.3793 6.68735 6.01624C7.13095 5.57964 7.6028 5.17272 8.09985 4.79812C6.76445 4.0088 5.29764 3.46679 3.76985 3.19812C3.73182 3.19131 3.69272 3.19341 3.65563 3.20425C3.61855 3.21509 3.58448 3.23439 3.5561 3.26062C3.18168 3.61294 2.84984 4.00793 2.56735 4.43749C2.54433 4.47327 2.53081 4.51434 2.52809 4.5568C2.52537 4.59927 2.53354 4.64172 2.55181 4.68015C2.57009 4.71858 2.59787 4.75171 2.63252 4.7764C2.66718 4.80109 2.70756 4.81652 2.74985 4.82124ZM14.9736 13.8344C14.9399 13.7358 14.876 13.6505 14.7909 13.5904C14.7058 13.5304 14.604 13.4987 14.4999 13.5H11.4599C12.2189 13.0217 12.8711 12.3917 13.3753 11.6497C13.8796 10.9076 14.2252 10.0694 14.3905 9.18749C14.3988 9.14423 14.3955 9.09956 14.3809 9.05799C14.3664 9.01642 14.3411 8.97943 14.3077 8.95075C14.2743 8.92208 14.2338 8.90275 14.1905 8.89471C14.1472 8.88668 14.1026 8.89022 14.0611 8.90499C12.9943 9.27508 12.0242 9.88014 11.2226 10.6755C10.421 11.4708 9.80831 12.4361 9.42985 13.5H8.37485C8.80095 12.126 9.56743 10.882 10.6031 9.88365C11.6387 8.88526 12.9099 8.16485 14.2986 7.78937C14.3543 7.77391 14.403 7.73961 14.4362 7.69232C14.4695 7.64503 14.4854 7.58766 14.4811 7.52999C14.4504 7.09517 14.3754 6.6646 14.2574 6.24499C14.2398 6.1814 14.1978 6.12732 14.1406 6.09454C14.0833 6.06176 14.0155 6.05294 13.9517 6.06999C12.0725 6.55704 10.3695 7.56612 9.03972 8.9805C7.70994 10.3949 6.80771 12.1568 6.43735 14.0625C6.42456 14.1268 6.43758 14.1936 6.47359 14.2485C6.5096 14.3033 6.56572 14.3418 6.62985 14.3556C7.08011 14.4522 7.53936 14.5006 7.99985 14.5H14.4999C14.5799 14.5003 14.6589 14.4814 14.7301 14.4448C14.8014 14.4083 14.8628 14.3552 14.9092 14.2899C14.9556 14.2247 14.9857 14.1493 14.9969 14.07C15.0081 13.9907 15.0001 13.9099 14.9736 13.8344ZM1.7861 7.50499C2.84929 7.53681 3.89678 7.77011 4.87298 8.19249C5.20801 7.69709 5.57439 7.22363 5.96985 6.77499C4.75374 6.18686 3.43352 5.84448 2.08485 5.76749C2.0301 5.76477 1.97597 5.78012 1.9308 5.81117C1.88563 5.84223 1.85192 5.88727 1.83485 5.93937C1.6945 6.35769 1.59754 6.78933 1.54548 7.22749C1.54167 7.26173 1.54498 7.29638 1.55519 7.32928C1.56541 7.36218 1.58232 7.39262 1.60485 7.41867C1.62739 7.44473 1.65507 7.46585 1.68615 7.4807C1.71723 7.49555 1.75105 7.50382 1.78548 7.50499H1.7861ZM5.36485 2.54124C6.64858 2.90873 7.87278 3.45895 8.99985 4.17499C9.76585 3.68655 10.5781 3.27477 11.4249 2.94562C11.4676 2.92873 11.5048 2.90039 11.5325 2.86371C11.5602 2.82703 11.5772 2.78344 11.5817 2.73772C11.5863 2.69199 11.5781 2.6459 11.5581 2.60452C11.5382 2.56313 11.5072 2.52805 11.4686 2.50312C10.5608 1.92971 9.52493 1.59045 8.4538 1.51574C7.38267 1.44102 6.30973 1.63318 5.3311 2.07499C5.2851 2.09636 5.24669 2.13123 5.22097 2.17494C5.19525 2.21866 5.18344 2.26917 5.1871 2.31976C5.19076 2.37035 5.20973 2.41863 5.24148 2.45819C5.27322 2.49775 5.31625 2.52671 5.36485 2.54124ZM13.4999 5.15687C13.5368 5.14674 13.5709 5.12827 13.5996 5.10287C13.6283 5.07747 13.6507 5.04582 13.6652 5.01036C13.6797 4.97491 13.6858 4.9366 13.6832 4.89839C13.6805 4.86018 13.6691 4.82309 13.6499 4.78999C13.4224 4.39198 13.1538 4.0189 12.8486 3.67687C12.8167 3.64025 12.7748 3.61372 12.7281 3.60052C12.6814 3.58731 12.6318 3.588 12.5855 3.60249C10.4692 4.27568 8.55968 5.47779 7.0377 7.09503C5.51572 8.71227 4.43161 10.6911 3.88798 12.8444C3.8763 12.8915 3.87859 12.941 3.89457 12.9868C3.91055 13.0327 3.93954 13.0728 3.97798 13.1025C4.33759 13.3868 4.7262 13.6323 5.13735 13.835C5.17155 13.8522 5.20923 13.8613 5.2475 13.8616C5.28576 13.8619 5.32359 13.8534 5.35807 13.8368C5.39255 13.8202 5.42275 13.7959 5.44636 13.7658C5.46997 13.7357 5.48634 13.7006 5.49423 13.6631C5.926 11.65 6.90014 9.79328 8.31122 8.29396C9.7223 6.79463 11.5166 5.7098 13.4999 5.15687Z" fill="black"/>
</g>
<defs>
<clipPath id="clip0_5_1100">
<rect width="16" height="16" fill="white"/>
</clipPath>
</defs>
</svg>
