<svg width="16" height="16" viewBox="0 0 16 16" fill="none" xmlns="http://www.w3.org/2000/svg">
<g clip-path="url(#clip0_5_1098)">
<path d="M8.75 5C8.75 5.14834 8.70602 5.29334 8.6236 5.41668C8.54119 5.54001 8.42406 5.63614 8.28701 5.69291C8.14997 5.74968 7.99917 5.76453 7.85368 5.73559C7.7082 5.70665 7.57456 5.63522 7.46967 5.53033C7.36478 5.42544 7.29335 5.2918 7.26441 5.14632C7.23548 5.00083 7.25033 4.85003 7.30709 4.71299C7.36386 4.57594 7.45999 4.45881 7.58333 4.3764C7.70666 4.29399 7.85167 4.25 8 4.25C8.19892 4.25 8.38968 4.32902 8.53033 4.46967C8.67098 4.61032 8.75 4.80109 8.75 5ZM14.5 8C14.5 9.28558 14.1188 10.5423 13.4046 11.6112C12.6903 12.6801 11.6752 13.5132 10.4874 14.0052C9.29973 14.4972 7.99279 14.6259 6.73192 14.3751C5.47104 14.1243 4.31285 13.5052 3.40381 12.5962C2.49477 11.6872 1.8757 10.529 1.6249 9.26809C1.37409 8.00721 1.50282 6.70028 1.99479 5.51256C2.48676 4.32484 3.31988 3.30968 4.3888 2.59545C5.45772 1.88122 6.71442 1.5 8 1.5C9.72335 1.50182 11.3756 2.18722 12.5942 3.40582C13.8128 4.62441 14.4982 6.27665 14.5 8ZM8.75 11C8.75 10.8517 8.70602 10.7067 8.6236 10.5833C8.54119 10.46 8.42406 10.3639 8.28701 10.3071C8.14997 10.2503 7.99917 10.2355 7.85368 10.2644C7.7082 10.2934 7.57456 10.3648 7.46967 10.4697C7.36478 10.5746 7.29335 10.7082 7.26441 10.8537C7.23548 10.9992 7.25033 11.15 7.30709 11.287C7.36386 11.4241 7.45999 11.5412 7.58333 11.6236C7.70666 11.706 7.85167 11.75 8 11.75C8.19892 11.75 8.38968 11.671 8.53033 11.5303C8.67098 11.3897 8.75 11.1989 8.75 11ZM10.75 5.25C10.7492 4.52091 10.4592 3.82192 9.94363 3.30637C9.42809 2.79082 8.72909 2.50083 8 2.5C6.80808 2.50074 5.64865 2.88866 4.69627 3.60536C3.74389 4.32206 3.05011 5.32875 2.71938 6.47387C2.38865 7.61899 2.43886 8.84056 2.86247 9.95467C3.28607 11.0688 4.06014 12.0151 5.06813 12.6512C4.83142 12.1559 4.72405 11.6086 4.75606 11.0605C4.78807 10.5125 4.9584 9.98141 5.25116 9.51696C5.54392 9.05251 5.94957 8.66979 6.43025 8.40453C6.91093 8.13926 7.45098 8.00009 8 8C8.72909 7.99917 9.42809 7.70918 9.94363 7.19363C10.4592 6.67808 10.7492 5.97909 10.75 5.25Z" fill="black"/>
</g>
<defs>
<clipPath id="clip0_5_1098">
<rect width="16" height="16" fill="white"/>
</clipPath>
</defs>
</svg>
