<svg width="16" height="16" viewBox="0 0 16 16" fill="none" xmlns="http://www.w3.org/2000/svg">
<g clip-path="url(#clip0_5_1626)">
<path d="M14.6456 4.345C14.5867 4.11459 14.4739 3.90149 14.3164 3.72327C14.159 3.54505 13.9614 3.40683 13.74 3.32C11.5975 2.4925 8.1875 2.5 8 2.5C7.8125 2.5 4.4025 2.4925 2.26 3.32C2.0386 3.40683 1.84102 3.54505 1.68356 3.72327C1.5261 3.90149 1.41327 4.11459 1.35438 4.345C1.1925 4.96875 1 6.10875 1 8C1 9.89125 1.1925 11.0313 1.35438 11.655C1.41318 11.8855 1.52597 12.0988 1.68344 12.2771C1.8409 12.4554 2.03853 12.5937 2.26 12.6806C4.3125 13.4725 7.525 13.5 7.95875 13.5H8.04125C8.475 13.5 11.6894 13.4725 13.74 12.6806C13.9615 12.5937 14.1591 12.4554 14.3166 12.2771C14.474 12.0988 14.5868 11.8855 14.6456 11.655C14.8075 11.03 15 9.89125 15 8C15 6.10875 14.8075 4.96875 14.6456 4.345ZM10.0369 8.4075L7.53687 10.1575C7.46209 10.2099 7.37439 10.2408 7.28328 10.2469C7.19218 10.253 7.10115 10.234 7.02006 10.192C6.93898 10.15 6.87095 10.0866 6.82334 10.0087C6.77573 9.93077 6.75037 9.84131 6.75 9.75V6.25C6.75003 6.15854 6.77514 6.06883 6.82261 5.99064C6.87008 5.91246 6.93809 5.8488 7.01923 5.80658C7.10038 5.76437 7.19155 5.74522 7.28282 5.75122C7.37409 5.75722 7.46196 5.78815 7.53687 5.84063L10.0369 7.59063C10.1026 7.63674 10.1563 7.69802 10.1934 7.76928C10.2304 7.84054 10.2498 7.91968 10.2498 8C10.2498 8.08032 10.2304 8.15946 10.1934 8.23072C10.1563 8.30198 10.1026 8.36326 10.0369 8.40938V8.4075Z" fill="black"/>
</g>
<defs>
<clipPath id="clip0_5_1626">
<rect width="16" height="16" fill="white"/>
</clipPath>
</defs>
</svg>
